<?xml version="1.0" encoding="UTF-8" standalone="no"?>
<!DOCTYPE svg PUBLIC "-//W3C//DTD SVG 1.1//EN"
 "http://www.w3.org/Graphics/SVG/1.1/DTD/svg11.dtd">
<!-- Generated by graphviz version 13.1.2 (20250809.0930)
 -->
<!-- Title: Bsp3D.cpp Pages: 1 -->
<svg width="381pt" height="256pt"
 viewBox="0.00 0.00 381.00 256.00" xmlns="http://www.w3.org/2000/svg" xmlns:xlink="http://www.w3.org/1999/xlink">
<g id="graph0" class="graph" transform="scale(1 1) rotate(0) translate(4 251.75)">
<title>Bsp3D.cpp</title>
<!-- Node1 -->
<g id="Node000001" class="node">
<title>Node1</title>
<g id="a_Node000001"><a xlink:title="Implementation of a minimal 3D BSP tree for triangle meshes.">
<polygon fill="#999999" stroke="#666666" points="183.38,-247.75 115.62,-247.75 115.62,-227 183.38,-227 183.38,-247.75"/>
<text xml:space="preserve" text-anchor="middle" x="149.5" y="-234.25" font-family="Helvetica,sans-Serif" font-size="10.00">Bsp3D.cpp</text>
</a>
</g>
</g>
<!-- Node2 -->
<g id="Node000002" class="node">
<title>Node2</title>
<g id="a_Node000002"><a xlink:href="Bsp3D_8h.html" target="_top" xlink:title="3D Binary Space Partitioning (BSP) utilities for triangle meshes.">
<polygon fill="white" stroke="#666666" points="142.75,-191 86.25,-191 86.25,-170.25 142.75,-170.25 142.75,-191"/>
<text xml:space="preserve" text-anchor="middle" x="114.5" y="-177.5" font-family="Helvetica,sans-Serif" font-size="10.00">Bsp3D.h</text>
</a>
</g>
</g>
<!-- Node1&#45;&gt;Node2 -->
<g id="edge1_Node000001_Node000002" class="edge">
<title>Node1&#45;&gt;Node2</title>
<g id="a_edge1_Node000001_Node000002"><a xlink:title=" ">
<path fill="none" stroke="#63b8ff" d="M143.24,-226.59C138.66,-219.42 132.3,-209.48 126.73,-200.76"/>
<polygon fill="#63b8ff" stroke="#63b8ff" points="129.85,-199.14 121.52,-192.6 123.96,-202.91 129.85,-199.14"/>
</a>
</g>
</g>
<!-- Node11 -->
<g id="Node000011" class="node">
<title>Node11</title>
<g id="a_Node000011"><a xlink:title=" ">
<polygon fill="#e0e0e0" stroke="#999999" points="207.88,-191 161.12,-191 161.12,-170.25 207.88,-170.25 207.88,-191"/>
<text xml:space="preserve" text-anchor="middle" x="184.5" y="-177.5" font-family="Helvetica,sans-Serif" font-size="10.00">cmath</text>
</a>
</g>
</g>
<!-- Node1&#45;&gt;Node11 -->
<g id="edge12_Node000001_Node000011" class="edge">
<title>Node1&#45;&gt;Node11</title>
<g id="a_edge12_Node000001_Node000011"><a xlink:title=" ">
<path fill="none" stroke="#63b8ff" d="M155.76,-226.59C160.34,-219.42 166.7,-209.48 172.27,-200.76"/>
<polygon fill="#63b8ff" stroke="#63b8ff" points="175.04,-202.91 177.48,-192.6 169.15,-199.14 175.04,-202.91"/>
</a>
</g>
</g>
<!-- Node3 -->
<g id="Node000003" class="node">
<title>Node3</title>
<g id="a_Node000003"><a xlink:title=" ">
<polygon fill="#e0e0e0" stroke="#999999" points="56.12,-134.25 10.88,-134.25 10.88,-113.5 56.12,-113.5 56.12,-134.25"/>
<text xml:space="preserve" text-anchor="middle" x="33.5" y="-120.75" font-family="Helvetica,sans-Serif" font-size="10.00">cstdio</text>
</a>
</g>
</g>
<!-- Node2&#45;&gt;Node3 -->
<g id="edge2_Node000002_Node000003" class="edge">
<title>Node2&#45;&gt;Node3</title>
<g id="a_edge2_Node000002_Node000003"><a xlink:title=" ">
<path fill="none" stroke="#63b8ff" d="M100.02,-169.84C88.15,-161.82 71.13,-150.31 57.27,-140.94"/>
<polygon fill="#63b8ff" stroke="#63b8ff" points="59.35,-138.13 49.11,-135.43 55.43,-143.93 59.35,-138.13"/>
</a>
</g>
</g>
<!-- Node4 -->
<g id="Node000004" class="node">
<title>Node4</title>
<g id="a_Node000004"><a xlink:title=" ">
<polygon fill="#e0e0e0" stroke="#999999" points="131.88,-77.5 85.12,-77.5 85.12,-56.75 131.88,-56.75 131.88,-77.5"/>
<text xml:space="preserve" text-anchor="middle" x="108.5" y="-64" font-family="Helvetica,sans-Serif" font-size="10.00">vector</text>
</a>
</g>
</g>
<!-- Node2&#45;&gt;Node4 -->
<g id="edge3_Node000002_Node000004" class="edge">
<title>Node2&#45;&gt;Node4</title>
<g id="a_edge3_Node000002_Node000004"><a xlink:title=" ">
<path fill="none" stroke="#63b8ff" d="M111.46,-170.01C108.76,-160.91 105,-146.81 103.5,-134.25 101.68,-119 103.11,-101.69 104.9,-88.61"/>
<polygon fill="#63b8ff" stroke="#63b8ff" points="108.31,-89.48 106.4,-79.06 101.39,-88.4 108.31,-89.48"/>
</a>
</g>
</g>
<!-- Node5 -->
<g id="Node000005" class="node">
<title>Node5</title>
<g id="a_Node000005"><a xlink:href="Triangle_8h.html" target="_top" xlink:title="Declaration of the Triangle class (surface element with cached geometry).">
<polygon fill="white" stroke="#666666" points="176.12,-134.25 112.88,-134.25 112.88,-113.5 176.12,-113.5 176.12,-134.25"/>
<text xml:space="preserve" text-anchor="middle" x="144.5" y="-120.75" font-family="Helvetica,sans-Serif" font-size="10.00">Triangle.h</text>
</a>
</g>
</g>
<!-- Node2&#45;&gt;Node5 -->
<g id="edge4_Node000002_Node000005" class="edge">
<title>Node2&#45;&gt;Node5</title>
<g id="a_edge4_Node000002_Node000005"><a xlink:title=" ">
<path fill="none" stroke="#63b8ff" d="M119.86,-169.84C123.7,-162.83 129,-153.16 133.7,-144.58"/>
<polygon fill="#63b8ff" stroke="#63b8ff" points="136.72,-146.36 138.46,-135.91 130.58,-142.99 136.72,-146.36"/>
</a>
</g>
</g>
<!-- Node6 -->
<g id="Node000006" class="node">
<title>Node6</title>
<g id="a_Node000006"><a xlink:href="globals_8h.html" target="_top" xlink:title="Global numerical constants, fundamental types, and simple macros.">
<polygon fill="white" stroke="#666666" points="222.62,-77.5 162.38,-77.5 162.38,-56.75 222.62,-56.75 222.62,-77.5"/>
<text xml:space="preserve" text-anchor="middle" x="192.5" y="-64" font-family="Helvetica,sans-Serif" font-size="10.00">globals.h</text>
</a>
</g>
</g>
<!-- Node2&#45;&gt;Node6 -->
<g id="edge11_Node000002_Node000006" class="edge">
<title>Node2&#45;&gt;Node6</title>
<g id="a_edge11_Node000002_Node000006"><a xlink:title=" ">
<path fill="none" stroke="#63b8ff" d="M140.48,-169.89C156.22,-162.57 175.19,-150.92 185.5,-134.25 193.77,-120.87 195.22,-103 194.77,-89.2"/>
<polygon fill="#63b8ff" stroke="#63b8ff" points="198.27,-89.17 194.06,-79.44 191.29,-89.67 198.27,-89.17"/>
</a>
</g>
</g>
<!-- Node5&#45;&gt;Node4 -->
<g id="edge5_Node000005_Node000004" class="edge">
<title>Node5&#45;&gt;Node4</title>
<g id="a_edge5_Node000005_Node000004"><a xlink:title=" ">
<path fill="none" stroke="#63b8ff" d="M138.06,-113.09C133.35,-105.92 126.81,-95.98 121.08,-87.26"/>
<polygon fill="#63b8ff" stroke="#63b8ff" points="124.13,-85.53 115.71,-79.09 118.28,-89.37 124.13,-85.53"/>
</a>
</g>
</g>
<!-- Node5&#45;&gt;Node6 -->
<g id="edge6_Node000005_Node000006" class="edge">
<title>Node5&#45;&gt;Node6</title>
<g id="a_edge6_Node000005_Node000006"><a xlink:title=" ">
<path fill="none" stroke="#63b8ff" d="M153.08,-113.09C159.57,-105.69 168.65,-95.32 176.47,-86.41"/>
<polygon fill="#63b8ff" stroke="#63b8ff" points="179.03,-88.79 183,-78.97 173.77,-84.18 179.03,-88.79"/>
</a>
</g>
</g>
<!-- Node7 -->
<g id="Node000007" class="node">
<title>Node7</title>
<g id="a_Node000007"><a xlink:title=" ">
<polygon fill="#e0e0e0" stroke="#999999" points="73,-20.75 0,-20.75 0,0 73,0 73,-20.75"/>
<text xml:space="preserve" text-anchor="middle" x="36.5" y="-7.25" font-family="Helvetica,sans-Serif" font-size="10.00">blitz/array.h</text>
</a>
</g>
</g>
<!-- Node6&#45;&gt;Node7 -->
<g id="edge7_Node000006_Node000007" class="edge">
<title>Node6&#45;&gt;Node7</title>
<g id="a_edge7_Node000006_Node000007"><a xlink:title=" ">
<path fill="none" stroke="#63b8ff" d="M164.61,-56.34C139.62,-47.57 102.73,-34.62 74.94,-24.87"/>
<polygon fill="#63b8ff" stroke="#63b8ff" points="76.43,-21.68 65.84,-21.67 74.12,-28.29 76.43,-21.68"/>
</a>
</g>
</g>
<!-- Node8 -->
<g id="Node000008" class="node">
<title>Node8</title>
<g id="a_Node000008"><a xlink:title=" ">
<polygon fill="#e0e0e0" stroke="#999999" points="182,-20.75 91,-20.75 91,0 182,0 182,-20.75"/>
<text xml:space="preserve" text-anchor="middle" x="136.5" y="-7.25" font-family="Helvetica,sans-Serif" font-size="10.00">blitz/tinyvec2.h</text>
</a>
</g>
</g>
<!-- Node6&#45;&gt;Node8 -->
<g id="edge8_Node000006_Node000008" class="edge">
<title>Node6&#45;&gt;Node8</title>
<g id="a_edge8_Node000006_Node000008"><a xlink:title=" ">
<path fill="none" stroke="#63b8ff" d="M182.49,-56.34C174.76,-48.78 163.87,-38.14 154.63,-29.1"/>
<polygon fill="#63b8ff" stroke="#63b8ff" points="157.1,-26.62 147.51,-22.14 152.21,-31.63 157.1,-26.62"/>
</a>
</g>
</g>
<!-- Node9 -->
<g id="Node000009" class="node">
<title>Node9</title>
<g id="a_Node000009"><a xlink:title=" ">
<polygon fill="#e0e0e0" stroke="#999999" points="296.62,-20.75 200.38,-20.75 200.38,0 296.62,0 296.62,-20.75"/>
<text xml:space="preserve" text-anchor="middle" x="248.5" y="-7.25" font-family="Helvetica,sans-Serif" font-size="10.00">blitz/tvecglobs.h</text>
</a>
</g>
</g>
<!-- Node6&#45;&gt;Node9 -->
<g id="edge9_Node000006_Node000009" class="edge">
<title>Node6&#45;&gt;Node9</title>
<g id="a_edge9_Node000006_Node000009"><a xlink:title=" ">
<path fill="none" stroke="#63b8ff" d="M202.51,-56.34C210.24,-48.78 221.13,-38.14 230.37,-29.1"/>
<polygon fill="#63b8ff" stroke="#63b8ff" points="232.79,-31.63 237.49,-22.14 227.9,-26.62 232.79,-31.63"/>
</a>
</g>
</g>
<!-- Node10 -->
<g id="Node000010" class="node">
<title>Node10</title>
<g id="a_Node000010"><a xlink:title=" ">
<polygon fill="#e0e0e0" stroke="#999999" points="372.5,-20.75 314.5,-20.75 314.5,0 372.5,0 372.5,-20.75"/>
<text xml:space="preserve" text-anchor="middle" x="343.5" y="-7.25" font-family="Helvetica,sans-Serif" font-size="10.00">complex</text>
</a>
</g>
</g>
<!-- Node6&#45;&gt;Node10 -->
<g id="edge10_Node000006_Node000010" class="edge">
<title>Node6&#45;&gt;Node10</title>
<g id="a_edge10_Node000006_Node000010"><a xlink:title=" ">
<path fill="none" stroke="#63b8ff" d="M219.5,-56.34C243.58,-47.61 279.08,-34.73 305.93,-25"/>
<polygon fill="#63b8ff" stroke="#63b8ff" points="306.85,-28.39 315.06,-21.69 304.47,-21.8 306.85,-28.39"/>
</a>
</g>
</g>
</g>
</svg>
