<?xml version="1.0" encoding="UTF-8" standalone="no"?>
<!DOCTYPE svg PUBLIC "-//W3C//DTD SVG 1.1//EN"
 "http://www.w3.org/Graphics/SVG/1.1/DTD/svg11.dtd">
<!-- Generated by graphviz version 13.1.2 (20250809.0930)
 -->
<!-- Title: main Pages: 1 -->
<svg width="807pt" height="458pt"
 viewBox="0.00 0.00 807.00 458.00" xmlns="http://www.w3.org/2000/svg" xmlns:xlink="http://www.w3.org/1999/xlink">
<g id="graph0" class="graph" transform="scale(1 1) rotate(0) translate(4 453.75)">
<title>main</title>
<!-- Node1 -->
<g id="Node000001" class="node">
<title>Node1</title>
<g id="a_Node000001"><a xlink:title="Main driver routine for the simulation program.">
<polygon fill="#999999" stroke="#666666" points="40.75,-195.75 0,-195.75 0,-175 40.75,-175 40.75,-195.75"/>
<text xml:space="preserve" text-anchor="middle" x="20.38" y="-182.25" font-family="Helvetica,sans-Serif" font-size="10.00">main</text>
</a>
</g>
</g>
<!-- Node2 -->
<g id="Node000002" class="node">
<title>Node2</title>
<g id="a_Node000002"><a xlink:href="classSIEFormPMCHW.html#a9d91e407f50e49fd90dd1bc25db22532" target="_top" xlink:title="Configure how many threads to use for parallel assembly.">
<polygon fill="white" stroke="#666666" points="248,-254.75 76.75,-254.75 76.75,-234 248,-234 248,-254.75"/>
<text xml:space="preserve" text-anchor="middle" x="162.38" y="-241.25" font-family="Helvetica,sans-Serif" font-size="10.00">SIEFormPMCHW::AssignThreads</text>
</a>
</g>
</g>
<!-- Node1&#45;&gt;Node2 -->
<g id="edge1_Node000001_Node000002" class="edge">
<title>Node1&#45;&gt;Node2</title>
<g id="a_edge1_Node000001_Node000002"><a xlink:title=" ">
<path fill="none" stroke="#63b8ff" d="M33.72,-196.17C44.42,-204.99 60.67,-217.14 76.75,-224.38 81.57,-226.55 86.66,-228.5 91.85,-230.25"/>
<polygon fill="#63b8ff" stroke="#63b8ff" points="90.56,-233.51 101.15,-233.12 92.63,-226.82 90.56,-233.51"/>
</a>
</g>
</g>
<!-- Node3 -->
<g id="Node000003" class="node">
<title>Node3</title>
<g id="a_Node000003"><a xlink:href="classSimJob.html#a4ea29b8acaa7e36fbc9478c2ed9df0c6" target="_top" xlink:title="Set thread count used internally by SimJob.">
<polygon fill="white" stroke="#666666" points="225.88,-215.75 98.88,-215.75 98.88,-195 225.88,-195 225.88,-215.75"/>
<text xml:space="preserve" text-anchor="middle" x="162.38" y="-202.25" font-family="Helvetica,sans-Serif" font-size="10.00">SimJob::AssignThreads</text>
</a>
</g>
</g>
<!-- Node1&#45;&gt;Node3 -->
<g id="edge2_Node000001_Node000003" class="edge">
<title>Node1&#45;&gt;Node3</title>
<g id="a_edge2_Node000001_Node000003"><a xlink:title=" ">
<path fill="none" stroke="#63b8ff" d="M41.14,-188.2C53.5,-189.96 70.29,-192.36 87.39,-194.81"/>
<polygon fill="#63b8ff" stroke="#63b8ff" points="86.74,-198.25 97.14,-196.2 87.73,-191.32 86.74,-198.25"/>
</a>
</g>
</g>
<!-- Node4 -->
<g id="Node000004" class="node">
<title>Node4</title>
<g id="a_Node000004"><a xlink:href="classSimJob.html#a12a443329f3e49a5a94a6af72403d93b" target="_top" xlink:title="Casimir workflow entry (uses gradient matrices if enabled).">
<polygon fill="white" stroke="#666666" points="209,-176.75 115.75,-176.75 115.75,-156 209,-156 209,-176.75"/>
<text xml:space="preserve" text-anchor="middle" x="162.38" y="-163.25" font-family="Helvetica,sans-Serif" font-size="10.00">SimJob::Casimir</text>
</a>
</g>
</g>
<!-- Node1&#45;&gt;Node4 -->
<g id="edge3_Node000001_Node000004" class="edge">
<title>Node1&#45;&gt;Node4</title>
<g id="a_edge3_Node000001_Node000004"><a xlink:title=" ">
<path fill="none" stroke="#63b8ff" d="M41.14,-182.69C57.58,-180.46 81.84,-177.17 104.27,-174.13"/>
<polygon fill="#63b8ff" stroke="#63b8ff" points="104.49,-177.63 113.93,-172.81 103.55,-170.69 104.49,-177.63"/>
</a>
</g>
</g>
<!-- Node26 -->
<g id="Node000026" class="node">
<title>Node26</title>
<g id="a_Node000026"><a xlink:href="classGreenF.html#ada52587b39995134c895324efbaf5919" target="_top" xlink:title="Request high‑accuracy evaluation paths (global).">
<polygon fill="white" stroke="#666666" points="228.5,-137.75 96.25,-137.75 96.25,-117 228.5,-117 228.5,-137.75"/>
<text xml:space="preserve" text-anchor="middle" x="162.38" y="-124.25" font-family="Helvetica,sans-Serif" font-size="10.00">GreenF::EnableAccurate</text>
</a>
</g>
</g>
<!-- Node1&#45;&gt;Node26 -->
<g id="edge26_Node000001_Node000026" class="edge">
<title>Node1&#45;&gt;Node26</title>
<g id="a_edge26_Node000001_Node000026"><a xlink:title=" ">
<path fill="none" stroke="#63b8ff" d="M34.2,-174.52C44.93,-165.97 60.97,-154.36 76.75,-147.38 81.67,-145.2 86.86,-143.24 92.14,-141.48"/>
<polygon fill="#63b8ff" stroke="#63b8ff" points="93.09,-144.85 101.63,-138.59 91.05,-138.16 93.09,-144.85"/>
</a>
</g>
</g>
<!-- Node5 -->
<g id="Node000005" class="node">
<title>Node5</title>
<g id="a_Node000005"><a xlink:href="classSimJob.html#aab5e82b9e59f35e95195fe298b1aaeaf" target="_top" xlink:title="Allocate and zero the system matrix A (and gradients if enabled).">
<polygon fill="white" stroke="#666666" points="422.62,-254.75 285.88,-254.75 285.88,-234 422.62,-234 422.62,-254.75"/>
<text xml:space="preserve" text-anchor="middle" x="354.25" y="-241.25" font-family="Helvetica,sans-Serif" font-size="10.00">SimJob::CreateLSEMatrix</text>
</a>
</g>
</g>
<!-- Node4&#45;&gt;Node5 -->
<g id="edge4_Node000004_Node000005" class="edge">
<title>Node4&#45;&gt;Node5</title>
<g id="a_edge4_Node000004_Node000005"><a xlink:title=" ">
<path fill="none" stroke="#63b8ff" d="M209.12,-172.15C222.27,-175.11 236.22,-179.6 248,-186.38 268.16,-197.98 264.13,-212.28 284,-224.38 286.95,-226.17 290.07,-227.81 293.29,-229.31"/>
<polygon fill="#63b8ff" stroke="#63b8ff" points="291.84,-232.5 302.42,-233.06 294.49,-226.02 291.84,-232.5"/>
</a>
</g>
</g>
<!-- Node6 -->
<g id="Node000006" class="node">
<title>Node6</title>
<g id="a_Node000006"><a xlink:href="classSimJob.html#a83d402c189aeefdce43afbd3cb66f709" target="_top" xlink:title="Parse a full &#160;block from the already&#45;open JobParser.">
<polygon fill="white" stroke="#666666" points="414.75,-215.75 293.75,-215.75 293.75,-195 414.75,-195 414.75,-215.75"/>
<text xml:space="preserve" text-anchor="middle" x="354.25" y="-202.25" font-family="Helvetica,sans-Serif" font-size="10.00">SimJob::LoadFromFile</text>
</a>
</g>
</g>
<!-- Node4&#45;&gt;Node6 -->
<g id="edge5_Node000004_Node000006" class="edge">
<title>Node4&#45;&gt;Node6</title>
<g id="a_edge5_Node000004_Node000006"><a xlink:title=" ">
<path fill="none" stroke="#63b8ff" d="M209.34,-175.82C233.35,-180.75 263.11,-186.86 289.33,-192.25"/>
<polygon fill="#63b8ff" stroke="#63b8ff" points="288.34,-195.62 298.84,-194.2 289.75,-188.76 288.34,-195.62"/>
</a>
</g>
</g>
<!-- Node23 -->
<g id="Node000023" class="node">
<title>Node23</title>
<g id="a_Node000023"><a xlink:href="classSimJob.html#ac98a015c25c8e733475caf3c44317d0c" target="_top" xlink:title="Write a 1D Blitz vector in text format.">
<polygon fill="white" stroke="#666666" points="424.5,-176.75 284,-176.75 284,-156 424.5,-156 424.5,-176.75"/>
<text xml:space="preserve" text-anchor="middle" x="354.25" y="-163.25" font-family="Helvetica,sans-Serif" font-size="10.00">SimJob::WriteVectorToFile</text>
</a>
</g>
</g>
<!-- Node4&#45;&gt;Node23 -->
<g id="edge23_Node000004_Node000023" class="edge">
<title>Node4&#45;&gt;Node23</title>
<g id="a_edge23_Node000004_Node000023"><a xlink:title=" ">
<path fill="none" stroke="#63b8ff" d="M209.34,-166.38C228.22,-166.38 250.67,-166.38 272.15,-166.38"/>
<polygon fill="#63b8ff" stroke="#63b8ff" points="272.1,-169.88 282.1,-166.38 272.1,-162.88 272.1,-169.88"/>
</a>
</g>
</g>
<!-- Node24 -->
<g id="Node000024" class="node">
<title>Node24</title>
<g id="a_Node000024"><a xlink:href="DomainLayered3D_8cpp.html#ad123e1ae452426e2c00e3189488dedac" target="_top" xlink:title="Computes the LU factorization of a general M&#45;by&#45;N matrix.">
<polygon fill="white" stroke="#666666" points="379.12,-137.75 329.38,-137.75 329.38,-117 379.12,-117 379.12,-137.75"/>
<text xml:space="preserve" text-anchor="middle" x="354.25" y="-124.25" font-family="Helvetica,sans-Serif" font-size="10.00">zgetrf_</text>
</a>
</g>
</g>
<!-- Node4&#45;&gt;Node24 -->
<g id="edge24_Node000004_Node000024" class="edge">
<title>Node4&#45;&gt;Node24</title>
<g id="a_edge24_Node000004_Node000024"><a xlink:title=" ">
<path fill="none" stroke="#63b8ff" d="M209.34,-156.93C242.82,-150.06 287.48,-140.88 318.13,-134.59"/>
<polygon fill="#63b8ff" stroke="#63b8ff" points="318.56,-138.07 327.65,-132.63 317.15,-131.22 318.56,-138.07"/>
</a>
</g>
</g>
<!-- Node25 -->
<g id="Node000025" class="node">
<title>Node25</title>
<g id="a_Node000025"><a xlink:href="DomainLayered3D_8cpp.html#a0d498505ce3081c778d322cdd12e60a4" target="_top" xlink:title="Solves a system of linear equations using the LU factorization.">
<polygon fill="white" stroke="#666666" points="379.88,-98.75 328.62,-98.75 328.62,-78 379.88,-78 379.88,-98.75"/>
<text xml:space="preserve" text-anchor="middle" x="354.25" y="-85.25" font-family="Helvetica,sans-Serif" font-size="10.00">zgetrs_</text>
</a>
</g>
</g>
<!-- Node4&#45;&gt;Node25 -->
<g id="edge25_Node000004_Node000025" class="edge">
<title>Node4&#45;&gt;Node25</title>
<g id="a_edge25_Node000004_Node000025"><a xlink:title=" ">
<path fill="none" stroke="#63b8ff" d="M209.12,-160.6C222.27,-157.64 236.22,-153.15 248,-146.38 268.16,-134.77 264.13,-120.47 284,-108.38 294,-102.29 305.93,-97.98 317.05,-94.96"/>
<polygon fill="#63b8ff" stroke="#63b8ff" points="317.86,-98.37 326.76,-92.62 316.22,-91.57 317.86,-98.37"/>
</a>
</g>
</g>
<!-- Node7 -->
<g id="Node000007" class="node">
<title>Node7</title>
<g id="a_Node000007"><a xlink:href="classSimJob.html#ae16a5d8bdcf14121a812acd22b3c573a" target="_top" xlink:title="Parse and load dipole excitation from .">
<polygon fill="white" stroke="#666666" points="593.88,-410.75 483.38,-410.75 483.38,-390 593.88,-390 593.88,-410.75"/>
<text xml:space="preserve" text-anchor="middle" x="538.62" y="-397.25" font-family="Helvetica,sans-Serif" font-size="10.00">SimJob::LoadDipole</text>
</a>
</g>
</g>
<!-- Node6&#45;&gt;Node7 -->
<g id="edge6_Node000006_Node000007" class="edge">
<title>Node6&#45;&gt;Node7</title>
<g id="a_edge6_Node000006_Node000007"><a xlink:title=" ">
<path fill="none" stroke="#63b8ff" d="M412.27,-216.12C416.79,-218.61 420.97,-221.65 424.5,-225.38 473.17,-276.69 411.13,-329.73 460.5,-380.38 464.07,-384.04 468.22,-387.06 472.71,-389.55"/>
<polygon fill="#63b8ff" stroke="#63b8ff" points="471.05,-392.64 481.6,-393.57 473.93,-386.26 471.05,-392.64"/>
</a>
</g>
</g>
<!-- Node11 -->
<g id="Node000011" class="node">
<title>Node11</title>
<g id="a_Node000011"><a xlink:href="classSimJob.html#a9a630e54dbd3c59d8d0c5872fe082478" target="_top" xlink:title="Parse and load homogeneous domain definition from .">
<polygon fill="white" stroke="#666666" points="597.25,-371.75 480,-371.75 480,-351 597.25,-351 597.25,-371.75"/>
<text xml:space="preserve" text-anchor="middle" x="538.62" y="-358.25" font-family="Helvetica,sans-Serif" font-size="10.00">SimJob::LoadDomain</text>
</a>
</g>
</g>
<!-- Node6&#45;&gt;Node11 -->
<g id="edge10_Node000006_Node000011" class="edge">
<title>Node6&#45;&gt;Node11</title>
<g id="a_edge10_Node000006_Node000011"><a xlink:title=" ">
<path fill="none" stroke="#63b8ff" d="M411.65,-216.22C416.36,-218.68 420.75,-221.7 424.5,-225.38 463.05,-263.17 421.44,-304.12 460.5,-341.38 463.25,-344 466.3,-346.29 469.56,-348.29"/>
<polygon fill="#63b8ff" stroke="#63b8ff" points="467.97,-351.41 478.48,-352.78 471.12,-345.16 467.97,-351.41"/>
</a>
</g>
</g>
<!-- Node12 -->
<g id="Node000012" class="node">
<title>Node12</title>
<g id="a_Node000012"><a xlink:href="classSimJob.html#a4aed0b2fa9b728b0fcb8834d6cd9c3fd" target="_top" xlink:title="Parse and load layered&#45;media domain from .">
<polygon fill="white" stroke="#666666" points="616.75,-332.75 460.5,-332.75 460.5,-312 616.75,-312 616.75,-332.75"/>
<text xml:space="preserve" text-anchor="middle" x="538.62" y="-319.25" font-family="Helvetica,sans-Serif" font-size="10.00">SimJob::LoadDomainLayered</text>
</a>
</g>
</g>
<!-- Node6&#45;&gt;Node12 -->
<g id="edge11_Node000006_Node000012" class="edge">
<title>Node6&#45;&gt;Node12</title>
<g id="a_edge11_Node000006_Node000012"><a xlink:title=" ">
<path fill="none" stroke="#63b8ff" d="M409.76,-216.12C415.09,-218.59 420.12,-221.63 424.5,-225.38 453.22,-249.92 431.45,-278.22 460.5,-302.38 462.18,-303.77 463.94,-305.06 465.77,-306.27"/>
<polygon fill="#63b8ff" stroke="#63b8ff" points="463.64,-309.1 474.09,-310.87 467.03,-302.97 463.64,-309.1"/>
</a>
</g>
</g>
<!-- Node13 -->
<g id="Node000013" class="node">
<title>Node13</title>
<g id="a_Node000013"><a xlink:href="classSimJob.html#a9d261a88162a72dc73b70f0f71d69164" target="_top" xlink:title="Parse and load periodic domain definition from .">
<polygon fill="white" stroke="#666666" points="605.12,-293.75 472.12,-293.75 472.12,-273 605.12,-273 605.12,-293.75"/>
<text xml:space="preserve" text-anchor="middle" x="538.62" y="-280.25" font-family="Helvetica,sans-Serif" font-size="10.00">SimJob::LoadDomainPer</text>
</a>
</g>
</g>
<!-- Node6&#45;&gt;Node13 -->
<g id="edge12_Node000006_Node000013" class="edge">
<title>Node6&#45;&gt;Node13</title>
<g id="a_edge12_Node000006_Node000013"><a xlink:title=" ">
<path fill="none" stroke="#63b8ff" d="M404.68,-216.12C411.59,-218.62 418.41,-221.67 424.5,-225.38 444.37,-237.47 440.46,-251.55 460.5,-263.38 463.66,-265.24 466.99,-266.93 470.42,-268.46"/>
<polygon fill="#63b8ff" stroke="#63b8ff" points="468.96,-271.65 479.55,-272.06 471.53,-265.14 468.96,-271.65"/>
</a>
</g>
</g>
<!-- Node15 -->
<g id="Node000015" class="node">
<title>Node15</title>
<g id="a_Node000015"><a xlink:href="classSimJob.html#a762457879a5f323daff8a2802ee937bd" target="_top" xlink:title="Parse and load Gaussian&#45;beam excitation from .">
<polygon fill="white" stroke="#666666" points="600.62,-254.75 476.62,-254.75 476.62,-234 600.62,-234 600.62,-254.75"/>
<text xml:space="preserve" text-anchor="middle" x="538.62" y="-241.25" font-family="Helvetica,sans-Serif" font-size="10.00">SimJob::LoadGaussian</text>
</a>
</g>
</g>
<!-- Node6&#45;&gt;Node15 -->
<g id="edge14_Node000006_Node000015" class="edge">
<title>Node6&#45;&gt;Node15</title>
<g id="a_edge14_Node000006_Node000015"><a xlink:title=" ">
<path fill="none" stroke="#63b8ff" d="M406.05,-216.24C427.6,-220.85 452.92,-226.26 475.56,-231.1"/>
<polygon fill="#63b8ff" stroke="#63b8ff" points="474.79,-234.52 485.3,-233.19 476.25,-227.67 474.79,-234.52"/>
</a>
</g>
</g>
<!-- Node17 -->
<g id="Node000017" class="node">
<title>Node17</title>
<g id="a_Node000017"><a xlink:href="classSimJob.html#a6d48eb7a13a50bdc8f9dc965165ed873" target="_top" xlink:title="Parse and load simulation label from &#160;section.">
<polygon fill="white" stroke="#666666" points="591.25,-215.75 486,-215.75 486,-195 591.25,-195 591.25,-215.75"/>
<text xml:space="preserve" text-anchor="middle" x="538.62" y="-202.25" font-family="Helvetica,sans-Serif" font-size="10.00">SimJob::LoadLabel</text>
</a>
</g>
</g>
<!-- Node6&#45;&gt;Node17 -->
<g id="edge17_Node000006_Node000017" class="edge">
<title>Node6&#45;&gt;Node17</title>
<g id="a_edge17_Node000006_Node000017"><a xlink:title=" ">
<path fill="none" stroke="#63b8ff" d="M415.22,-205.38C434.14,-205.38 455.09,-205.38 474.24,-205.38"/>
<polygon fill="#63b8ff" stroke="#63b8ff" points="474.07,-208.88 484.07,-205.38 474.07,-201.88 474.07,-208.88"/>
</a>
</g>
</g>
<!-- Node18 -->
<g id="Node000018" class="node">
<title>Node18</title>
<g id="a_Node000018"><a xlink:href="classSimJob.html#a7bb5eda7b7e62f899d8bf72ba8f33742" target="_top" xlink:title="Parse and load mesh data from &#160;(non&#45;periodic case).">
<polygon fill="white" stroke="#666666" points="591.25,-176.75 486,-176.75 486,-156 591.25,-156 591.25,-176.75"/>
<text xml:space="preserve" text-anchor="middle" x="538.62" y="-163.25" font-family="Helvetica,sans-Serif" font-size="10.00">SimJob::LoadMesh</text>
</a>
</g>
</g>
<!-- Node6&#45;&gt;Node18 -->
<g id="edge18_Node000006_Node000018" class="edge">
<title>Node6&#45;&gt;Node18</title>
<g id="a_edge18_Node000006_Node000018"><a xlink:title=" ">
<path fill="none" stroke="#63b8ff" d="M406.05,-194.51C427.6,-189.9 452.92,-184.49 475.56,-179.65"/>
<polygon fill="#63b8ff" stroke="#63b8ff" points="476.25,-183.08 485.3,-177.56 474.79,-176.23 476.25,-183.08"/>
</a>
</g>
</g>
<!-- Node19 -->
<g id="Node000019" class="node">
<title>Node19</title>
<g id="a_Node000019"><a xlink:href="classSimJob.html#ac940b4b962fac361f3746deef6eb2e19" target="_top" xlink:title="Parse and load periodic mesh from &#160;(applies symmetry operations).">
<polygon fill="white" stroke="#666666" points="599.12,-137.75 478.12,-137.75 478.12,-117 599.12,-117 599.12,-137.75"/>
<text xml:space="preserve" text-anchor="middle" x="538.62" y="-124.25" font-family="Helvetica,sans-Serif" font-size="10.00">SimJob::LoadMeshPer</text>
</a>
</g>
</g>
<!-- Node6&#45;&gt;Node19 -->
<g id="edge19_Node000006_Node000019" class="edge">
<title>Node6&#45;&gt;Node19</title>
<g id="a_edge19_Node000006_Node000019"><a xlink:title=" ">
<path fill="none" stroke="#63b8ff" d="M404.68,-194.63C411.59,-192.13 418.41,-189.08 424.5,-185.38 444.37,-173.28 440.46,-159.2 460.5,-147.38 463.66,-145.51 466.99,-143.82 470.42,-142.29"/>
<polygon fill="#63b8ff" stroke="#63b8ff" points="471.53,-145.61 479.55,-138.69 468.96,-139.1 471.53,-145.61"/>
</a>
</g>
</g>
<!-- Node20 -->
<g id="Node000020" class="node">
<title>Node20</title>
<g id="a_Node000020"><a xlink:href="classSimJob.html#a99c23586a8ba7184a750c694da6d9628" target="_top" xlink:title="Parse and load periodicity parameters from .">
<polygon fill="white" stroke="#666666" points="604,-98.75 473.25,-98.75 473.25,-78 604,-78 604,-98.75"/>
<text xml:space="preserve" text-anchor="middle" x="538.62" y="-85.25" font-family="Helvetica,sans-Serif" font-size="10.00">SimJob::LoadPeriodicity</text>
</a>
</g>
</g>
<!-- Node6&#45;&gt;Node20 -->
<g id="edge20_Node000006_Node000020" class="edge">
<title>Node6&#45;&gt;Node20</title>
<g id="a_edge20_Node000006_Node000020"><a xlink:title=" ">
<path fill="none" stroke="#63b8ff" d="M409.76,-194.63C415.09,-192.16 420.12,-189.12 424.5,-185.38 453.22,-160.83 431.45,-132.53 460.5,-108.38 462.18,-106.98 463.94,-105.69 465.77,-104.48"/>
<polygon fill="#63b8ff" stroke="#63b8ff" points="467.03,-107.78 474.09,-99.88 463.64,-101.65 467.03,-107.78"/>
</a>
</g>
</g>
<!-- Node21 -->
<g id="Node000021" class="node">
<title>Node21</title>
<g id="a_Node000021"><a xlink:href="classSimJob.html#a9b33589923ea7f4e5b671e55ecf2b320" target="_top" xlink:title="Parse and load plane&#45;wave excitation from .">
<polygon fill="white" stroke="#666666" points="604.75,-59.75 472.5,-59.75 472.5,-39 604.75,-39 604.75,-59.75"/>
<text xml:space="preserve" text-anchor="middle" x="538.62" y="-46.25" font-family="Helvetica,sans-Serif" font-size="10.00">SimJob::LoadPlanewave</text>
</a>
</g>
</g>
<!-- Node6&#45;&gt;Node21 -->
<g id="edge21_Node000006_Node000021" class="edge">
<title>Node6&#45;&gt;Node21</title>
<g id="a_edge21_Node000006_Node000021"><a xlink:title=" ">
<path fill="none" stroke="#63b8ff" d="M411.65,-194.53C416.36,-192.07 420.75,-189.05 424.5,-185.38 463.05,-147.58 421.44,-106.63 460.5,-69.38 461.72,-68.21 463,-67.11 464.33,-66.08"/>
<polygon fill="#63b8ff" stroke="#63b8ff" points="465.9,-69.23 472.46,-60.91 462.14,-63.32 465.9,-69.23"/>
</a>
</g>
</g>
<!-- Node22 -->
<g id="Node000022" class="node">
<title>Node22</title>
<g id="a_Node000022"><a xlink:href="classSimJob.html#a21c36c1d2aa7937ca484527515e35263" target="_top" xlink:title="Parse and load wavelength from .">
<polygon fill="white" stroke="#666666" points="607,-20.75 470.25,-20.75 470.25,0 607,0 607,-20.75"/>
<text xml:space="preserve" text-anchor="middle" x="538.62" y="-7.25" font-family="Helvetica,sans-Serif" font-size="10.00">SimJob::LoadWavelength</text>
</a>
</g>
</g>
<!-- Node6&#45;&gt;Node22 -->
<g id="edge22_Node000006_Node000022" class="edge">
<title>Node6&#45;&gt;Node22</title>
<g id="a_edge22_Node000006_Node000022"><a xlink:title=" ">
<path fill="none" stroke="#63b8ff" d="M412.27,-194.63C416.79,-192.14 420.97,-189.1 424.5,-185.38 473.17,-134.06 411.13,-81.02 460.5,-30.38 461.39,-29.46 462.32,-28.58 463.28,-27.74"/>
<polygon fill="#63b8ff" stroke="#63b8ff" points="465.25,-30.64 471.47,-22.06 461.26,-24.89 465.25,-30.64"/>
</a>
</g>
</g>
<!-- Node8 -->
<g id="Node000008" class="node">
<title>Node8</title>
<g id="a_Node000008"><a xlink:href="classDomain.html#a6a3c61914bab1ebbc02613a6ec8db802" target="_top" xlink:title="Add a Dipole excitation (ownership transferred to Domain).">
<polygon fill="white" stroke="#666666" points="781.25,-449.75 670.75,-449.75 670.75,-429 781.25,-429 781.25,-449.75"/>
<text xml:space="preserve" text-anchor="middle" x="726" y="-436.25" font-family="Helvetica,sans-Serif" font-size="10.00">Domain::AddDipole</text>
</a>
</g>
</g>
<!-- Node7&#45;&gt;Node8 -->
<g id="edge7_Node000007_Node000008" class="edge">
<title>Node7&#45;&gt;Node8</title>
<g id="a_edge7_Node000007_Node000008"><a xlink:title=" ">
<path fill="none" stroke="#63b8ff" d="M591.26,-411.24C613.27,-415.87 639.14,-421.31 662.23,-426.17"/>
<polygon fill="#63b8ff" stroke="#63b8ff" points="661.33,-429.56 671.84,-428.19 662.77,-422.71 661.33,-429.56"/>
</a>
</g>
</g>
<!-- Node9 -->
<g id="Node000009" class="node">
<title>Node9</title>
<g id="a_Node000009"><a xlink:href="classSimJob.html#ab3887eb9e217b1d6424ff85aec4b1793" target="_top" xlink:title="Find which domain contains a point.">
<polygon fill="white" stroke="#666666" points="799.25,-410.75 652.75,-410.75 652.75,-390 799.25,-390 799.25,-410.75"/>
<text xml:space="preserve" text-anchor="middle" x="726" y="-397.25" font-family="Helvetica,sans-Serif" font-size="10.00">SimJob::ContainingDomain</text>
</a>
</g>
</g>
<!-- Node7&#45;&gt;Node9 -->
<g id="edge8_Node000007_Node000009" class="edge">
<title>Node7&#45;&gt;Node9</title>
<g id="a_edge8_Node000007_Node000009"><a xlink:title=" ">
<path fill="none" stroke="#63b8ff" d="M594.24,-400.38C608.94,-400.38 625.18,-400.38 641.07,-400.38"/>
<polygon fill="#63b8ff" stroke="#63b8ff" points="641.04,-403.88 651.04,-400.38 641.04,-396.88 641.04,-403.88"/>
</a>
</g>
</g>
<!-- Node10 -->
<g id="Node000010" class="node">
<title>Node10</title>
<g id="a_Node000010"><a xlink:href="classDomain.html#a4ca094ed1d16b191f026d0c23e1fc75a" target="_top" xlink:title="Return this domain&#39;s integer index.">
<polygon fill="white" stroke="#666666" points="769.62,-371.75 682.38,-371.75 682.38,-351 769.62,-351 769.62,-371.75"/>
<text xml:space="preserve" text-anchor="middle" x="726" y="-358.25" font-family="Helvetica,sans-Serif" font-size="10.00">Domain::Index</text>
</a>
</g>
</g>
<!-- Node7&#45;&gt;Node10 -->
<g id="edge9_Node000007_Node000010" class="edge">
<title>Node7&#45;&gt;Node10</title>
<g id="a_edge9_Node000007_Node000010"><a xlink:title=" ">
<path fill="none" stroke="#63b8ff" d="M591.26,-389.51C616.07,-384.29 645.79,-378.04 670.91,-372.76"/>
<polygon fill="#63b8ff" stroke="#63b8ff" points="671.54,-376.2 680.61,-370.71 670.1,-369.35 671.54,-376.2"/>
</a>
</g>
</g>
<!-- Node14 -->
<g id="Node000014" class="node">
<title>Node14</title>
<g id="a_Node000014"><a xlink:href="classDomain.html#a2b8fcaa668f1959aa9864f7a016d3ee1" target="_top" xlink:title="Provide an erfc lookup table to the Green&#39;s function implementation.">
<polygon fill="white" stroke="#666666" points="794,-302.75 658,-302.75 658,-282 794,-282 794,-302.75"/>
<text xml:space="preserve" text-anchor="middle" x="726" y="-289.25" font-family="Helvetica,sans-Serif" font-size="10.00">Domain::InitLookupTable</text>
</a>
</g>
</g>
<!-- Node13&#45;&gt;Node14 -->
<g id="edge13_Node000013_Node000014" class="edge">
<title>Node13&#45;&gt;Node14</title>
<g id="a_edge13_Node000013_Node000014"><a xlink:title=" ">
<path fill="none" stroke="#63b8ff" d="M605.5,-286.57C618.76,-287.22 632.81,-287.9 646.44,-288.56"/>
<polygon fill="#63b8ff" stroke="#63b8ff" points="646.1,-292.05 656.26,-289.04 646.44,-285.06 646.1,-292.05"/>
</a>
</g>
</g>
<!-- Node16 -->
<g id="Node000016" class="node">
<title>Node16</title>
<g id="a_Node000016"><a xlink:href="Domain_8cpp.html#aafa3e4fa6318b2f8740f4dbd50c367e5" target="_top" xlink:title="Extract the real part of each component of a complex 3&#45;vector.">
<polygon fill="white" stroke="#666666" points="743.38,-245.75 708.62,-245.75 708.62,-225 743.38,-225 743.38,-245.75"/>
<text xml:space="preserve" text-anchor="middle" x="726" y="-232.25" font-family="Helvetica,sans-Serif" font-size="10.00">real</text>
</a>
</g>
</g>
<!-- Node15&#45;&gt;Node16 -->
<g id="edge15_Node000015_Node000016" class="edge">
<title>Node15&#45;&gt;Node16</title>
<g id="a_edge15_Node000015_Node000016"><a xlink:title=" ">
<path fill="none" stroke="#63b8ff" d="M601.09,-241.39C633.52,-239.82 671.72,-237.96 697.04,-236.73"/>
<polygon fill="#63b8ff" stroke="#63b8ff" points="697.02,-240.24 706.84,-236.26 696.69,-233.25 697.02,-240.24"/>
</a>
</g>
</g>
<!-- Node16&#45;&gt;Node16 -->
<g id="edge16_Node000016_Node000016" class="edge">
<title>Node16&#45;&gt;Node16</title>
<g id="a_edge16_Node000016_Node000016"><a xlink:title=" ">
<path fill="none" stroke="#63b8ff" d="M708.24,-240.12C680.19,-250.03 686.11,-263.75 726,-263.75 759.97,-263.75 769.31,-253.8 754.01,-244.73"/>
<polygon fill="#63b8ff" stroke="#63b8ff" points="755.7,-241.65 745.14,-240.74 752.83,-248.03 755.7,-241.65"/>
</a>
</g>
</g>
</g>
</svg>
