<?xml version="1.0" encoding="UTF-8" standalone="no"?>
<!DOCTYPE svg PUBLIC "-//W3C//DTD SVG 1.1//EN"
 "http://www.w3.org/Graphics/SVG/1.1/DTD/svg11.dtd">
<!-- Generated by graphviz version 13.1.2 (20250809.0930)
 -->
<!-- Title: CLFlag Pages: 1 -->
<svg width="86pt" height="253pt"
 viewBox="0.00 0.00 86.00 253.00" xmlns="http://www.w3.org/2000/svg" xmlns:xlink="http://www.w3.org/1999/xlink">
<g id="graph0" class="graph" transform="scale(1 1) rotate(0) translate(4 249)">
<title>CLFlag</title>
<!-- Node1 -->
<g id="Node000001" class="node">
<title>Node1</title>
<g id="a_Node000001"><a xlink:title="Boolean flag option with no argument.">
<polygon fill="#999999" stroke="none" points="73.5,-104.5 4.5,-104.5 4.5,0 73.5,0 73.5,-104.5"/>
<text xml:space="preserve" text-anchor="start" x="22.5" y="-91" font-family="Helvetica,sans-Serif" font-size="10.00">CLFlag</text>
<text xml:space="preserve" text-anchor="start" x="8.5" y="-74.25" font-family="Helvetica,sans-Serif" font-size="10.00">#</text>
<text xml:space="preserve" text-anchor="start" x="20.75" y="-74.25" font-family="Helvetica,sans-Serif" font-size="10.00">target</text>
<text xml:space="preserve" text-anchor="start" x="8.5" y="-57.5" font-family="Helvetica,sans-Serif" font-size="10.00">+</text>
<text xml:space="preserve" text-anchor="start" x="20.75" y="-57.5" font-family="Helvetica,sans-Serif" font-size="10.00">CLFlag()</text>
<text xml:space="preserve" text-anchor="start" x="8.5" y="-40.75" font-family="Helvetica,sans-Serif" font-size="10.00">+</text>
<text xml:space="preserve" text-anchor="start" x="20.75" y="-40.75" font-family="Helvetica,sans-Serif" font-size="10.00">CLFlag()</text>
<text xml:space="preserve" text-anchor="start" x="8.5" y="-24" font-family="Helvetica,sans-Serif" font-size="10.00">+</text>
<text xml:space="preserve" text-anchor="start" x="20.75" y="-24" font-family="Helvetica,sans-Serif" font-size="10.00">~CLFlag()</text>
<text xml:space="preserve" text-anchor="start" x="8.5" y="-7.25" font-family="Helvetica,sans-Serif" font-size="10.00">+</text>
<text xml:space="preserve" text-anchor="start" x="20.75" y="-7.25" font-family="Helvetica,sans-Serif" font-size="10.00">Parse()</text>
<polygon fill="#666666" stroke="#666666" points="4.5,-85.75 4.5,-85.75 73.5,-85.75 73.5,-85.75 4.5,-85.75"/>
<polygon fill="#666666" stroke="#666666" points="4.5,-69 4.5,-69 18.75,-69 18.75,-69 4.5,-69"/>
<polygon fill="#666666" stroke="#666666" points="18.75,-69 18.75,-69 73.5,-69 73.5,-69 18.75,-69"/>
<polygon fill="none" stroke="#666666" points="4.5,0 4.5,-104.5 73.5,-104.5 73.5,0 4.5,0"/>
</a>
</g>
</g>
<!-- Node2 -->
<g id="Node000002" class="node">
<title>Node2</title>
<g id="a_Node000002"><a xlink:href="classCLParser.html" target="_top" xlink:title="Abstract base for all command&#45;line option parsers.">
<polygon fill="white" stroke="none" points="78,-245 0,-245 0,-140.5 78,-140.5 78,-245"/>
<text xml:space="preserve" text-anchor="start" x="18" y="-231.5" font-family="Helvetica,sans-Serif" font-size="10.00">CLParser</text>
<text xml:space="preserve" text-anchor="start" x="4" y="-214.75" font-family="Helvetica,sans-Serif" font-size="10.00">#</text>
<text xml:space="preserve" text-anchor="start" x="16.25" y="-214.75" font-family="Helvetica,sans-Serif" font-size="10.00">option</text>
<text xml:space="preserve" text-anchor="start" x="4" y="-198" font-family="Helvetica,sans-Serif" font-size="10.00">+</text>
<text xml:space="preserve" text-anchor="start" x="16.25" y="-198" font-family="Helvetica,sans-Serif" font-size="10.00">CLParser()</text>
<text xml:space="preserve" text-anchor="start" x="4" y="-181.25" font-family="Helvetica,sans-Serif" font-size="10.00">+</text>
<text xml:space="preserve" text-anchor="start" x="16.25" y="-181.25" font-family="Helvetica,sans-Serif" font-size="10.00">CLParser()</text>
<text xml:space="preserve" text-anchor="start" x="4" y="-164.5" font-family="Helvetica,sans-Serif" font-size="10.00">+</text>
<text xml:space="preserve" text-anchor="start" x="16.25" y="-164.5" font-family="Helvetica,sans-Serif" font-size="10.00">~CLParser()</text>
<text xml:space="preserve" text-anchor="start" x="4" y="-147.75" font-family="Helvetica,sans-Serif" font-size="10.00">+</text>
<text xml:space="preserve" text-anchor="start" x="16.25" y="-147.75" font-family="Helvetica,sans-Serif" font-size="10.00">Parse()</text>
<polygon fill="#666666" stroke="#666666" points="0,-226.25 0,-226.25 78,-226.25 78,-226.25 0,-226.25"/>
<polygon fill="#666666" stroke="#666666" points="0,-209.5 0,-209.5 14.25,-209.5 14.25,-209.5 0,-209.5"/>
<polygon fill="#666666" stroke="#666666" points="14.25,-209.5 14.25,-209.5 78,-209.5 78,-209.5 14.25,-209.5"/>
<polygon fill="none" stroke="#666666" points="0,-140.5 0,-245 78,-245 78,-140.5 0,-140.5"/>
</a>
</g>
</g>
<!-- Node2&#45;&gt;Node1 -->
<g id="edge1_Node000001_Node000002" class="edge">
<title>Node2&#45;&gt;Node1</title>
<g id="a_edge1_Node000001_Node000002"><a xlink:title=" ">
<path fill="none" stroke="#63b8ff" d="M39,-129.27C39,-120.89 39,-112.37 39,-104.22"/>
<polygon fill="none" stroke="#63b8ff" points="35.5,-129.06 39,-139.06 42.5,-129.06 35.5,-129.06"/>
</a>
</g>
</g>
</g>
</svg>
