<?xml version="1.0" encoding="UTF-8" standalone="no"?>
<!DOCTYPE svg PUBLIC "-//W3C//DTD SVG 1.1//EN"
 "http://www.w3.org/Graphics/SVG/1.1/DTD/svg11.dtd">
<!-- Generated by graphviz version 13.1.2 (20250809.0930)
 -->
<!-- Title: GreenFHom3D::Evaluate Pages: 1 -->
<svg width="345pt" height="119pt"
 viewBox="0.00 0.00 345.00 119.00" xmlns="http://www.w3.org/2000/svg" xmlns:xlink="http://www.w3.org/1999/xlink">
<g id="graph0" class="graph" transform="scale(1 1) rotate(0) translate(4 114.75)">
<title>GreenFHom3D::Evaluate</title>
<!-- Node1 -->
<g id="Node000001" class="node">
<title>Node1</title>
<g id="a_Node000001"><a xlink:title="Scalar Green&#39;s function .">
<polygon fill="#999999" stroke="#666666" points="337.25,-65.75 200.5,-65.75 200.5,-45 337.25,-45 337.25,-65.75"/>
<text xml:space="preserve" text-anchor="middle" x="268.88" y="-52.25" font-family="Helvetica,sans-Serif" font-size="10.00">GreenFHom3D::Evaluate</text>
</a>
</g>
</g>
<!-- Node2 -->
<g id="Node000002" class="node">
<title>Node2</title>
<g id="a_Node000002"><a xlink:href="classGreenFHom3D.html#aca136b03c44ad1da34acf91eb5a5e390" target="_top" xlink:title="term at an observation point.">
<polygon fill="white" stroke="#666666" points="164.5,-110.75 0,-110.75 0,-90 164.5,-90 164.5,-110.75"/>
<text xml:space="preserve" text-anchor="middle" x="82.25" y="-97.25" font-family="Helvetica,sans-Serif" font-size="10.00">GreenFHom3D::IntegrateDelta</text>
</a>
</g>
</g>
<!-- Node1&#45;&gt;Node2 -->
<g id="edge1_Node000001_Node000002" class="edge">
<title>Node1&#45;&gt;Node2</title>
<g id="a_edge1_Node000001_Node000002"><a xlink:title=" ">
<path fill="none" stroke="#63b8ff" d="M214.58,-68.96C198.5,-73.01 180.79,-77.42 164.5,-81.38 153.38,-84.07 141.38,-86.92 130.11,-89.56"/>
<polygon fill="#63b8ff" stroke="#63b8ff" points="215.11,-72.44 223.95,-66.59 213.39,-65.65 215.11,-72.44"/>
</a>
</g>
</g>
<!-- Node3 -->
<g id="Node000003" class="node">
<title>Node3</title>
<g id="a_Node000003"><a xlink:href="classGreenFHom3D.html#a48e8471aabb445e0e50a01c005ff3b98" target="_top" xlink:title="Compute &#160;for all RWGs on a source triangle.">
<polygon fill="white" stroke="#666666" points="161.88,-72.12 2.62,-72.12 2.62,-38.62 161.88,-38.62 161.88,-72.12"/>
<text xml:space="preserve" text-anchor="start" x="10.62" y="-58.62" font-family="Helvetica,sans-Serif" font-size="10.00">GreenFHom3D::SameTriDelta</text>
<text xml:space="preserve" text-anchor="middle" x="82.25" y="-45.88" font-family="Helvetica,sans-Serif" font-size="10.00">Kappa</text>
</a>
</g>
</g>
<!-- Node1&#45;&gt;Node3 -->
<g id="edge2_Node000001_Node000003" class="edge">
<title>Node1&#45;&gt;Node3</title>
<g id="a_edge2_Node000001_Node000003"><a xlink:title=" ">
<path fill="none" stroke="#63b8ff" d="M188.74,-55.38C179.95,-55.38 170.99,-55.38 162.2,-55.38"/>
<polygon fill="#63b8ff" stroke="#63b8ff" points="188.66,-58.88 198.66,-55.38 188.66,-51.88 188.66,-58.88"/>
</a>
</g>
</g>
<!-- Node4 -->
<g id="Node000004" class="node">
<title>Node4</title>
<g id="a_Node000004"><a xlink:href="classGreenFHom3D.html#a419cbe00b5a2aed70ac546904a8a8d6f" target="_top" xlink:title="Compute &#160;and &#160;for all RWG pairs on two triangles.">
<polygon fill="white" stroke="#666666" points="155.88,-20.75 8.62,-20.75 8.62,0 155.88,0 155.88,-20.75"/>
<text xml:space="preserve" text-anchor="middle" x="82.25" y="-7.25" font-family="Helvetica,sans-Serif" font-size="10.00">GreenFHom3D::SameTriDK</text>
</a>
</g>
</g>
<!-- Node1&#45;&gt;Node4 -->
<g id="edge3_Node000001_Node000004" class="edge">
<title>Node1&#45;&gt;Node4</title>
<g id="a_edge3_Node000001_Node000004"><a xlink:title=" ">
<path fill="none" stroke="#63b8ff" d="M214.58,-41.79C198.5,-37.74 180.79,-33.33 164.5,-29.38 153.38,-26.68 141.38,-23.83 130.11,-21.19"/>
<polygon fill="#63b8ff" stroke="#63b8ff" points="213.39,-45.1 223.95,-44.16 215.11,-38.31 213.39,-45.1"/>
</a>
</g>
</g>
</g>
</svg>
