<?xml version="1.0" encoding="UTF-8" standalone="no"?>
<!DOCTYPE svg PUBLIC "-//W3C//DTD SVG 1.1//EN"
 "http://www.w3.org/Graphics/SVG/1.1/DTD/svg11.dtd">
<!-- Generated by graphviz version 13.1.2 (20250809.0930)
 -->
<!-- Title: PlaneWave::EvaluateH Pages: 1 -->
<svg width="689pt" height="125pt"
 viewBox="0.00 0.00 689.00 125.00" xmlns="http://www.w3.org/2000/svg" xmlns:xlink="http://www.w3.org/1999/xlink">
<g id="graph0" class="graph" transform="scale(1 1) rotate(0) translate(4 121.12)">
<title>PlaneWave::EvaluateH</title>
<!-- Node1 -->
<g id="Node000001" class="node">
<title>Node1</title>
<g id="a_Node000001"><a xlink:title="Evaluate the magnetic field at a given position (homogeneous).">
<polygon fill="#999999" stroke="#666666" points="681.25,-42.75 555,-42.75 555,-22 681.25,-22 681.25,-42.75"/>
<text xml:space="preserve" text-anchor="middle" x="618.12" y="-29.25" font-family="Helvetica,sans-Serif" font-size="10.00">PlaneWave::EvaluateH</text>
</a>
</g>
</g>
<!-- Node2 -->
<g id="Node000002" class="node">
<title>Node2</title>
<g id="a_Node000002"><a xlink:href="classPlaneWave.html#ade82a6ff2d60f8df4553d51837525a1c" target="_top" xlink:title="Evaluate the electric and magnetic fields at a given position in layered media.">
<polygon fill="white" stroke="#666666" points="519,-72.12 361.25,-72.12 361.25,-38.62 519,-38.62 519,-72.12"/>
<text xml:space="preserve" text-anchor="start" x="369.25" y="-58.62" font-family="Helvetica,sans-Serif" font-size="10.00">PlaneWave::EvaluateLayered</text>
<text xml:space="preserve" text-anchor="middle" x="440.12" y="-45.88" font-family="Helvetica,sans-Serif" font-size="10.00">EandH</text>
</a>
</g>
</g>
<!-- Node1&#45;&gt;Node2 -->
<g id="edge1_Node000001_Node000002" class="edge">
<title>Node1&#45;&gt;Node2</title>
<g id="a_edge1_Node000001_Node000002"><a xlink:title=" ">
<path fill="none" stroke="#63b8ff" d="M543.22,-42.03C535.38,-43.06 527.38,-44.1 519.48,-45.13"/>
<polygon fill="#63b8ff" stroke="#63b8ff" points="543.62,-45.51 553.08,-40.74 542.71,-38.57 543.62,-45.51"/>
</a>
</g>
</g>
<!-- Node6 -->
<g id="Node000006" class="node">
<title>Node6</title>
<g id="a_Node000006"><a xlink:href="classPlaneWave.html#a9b36a0f26c234a178795b1a431d53a03" target="_top" xlink:title="Integrate magnetic field against an RWG basis function.">
<polygon fill="white" stroke="#666666" points="504,-20.75 376.25,-20.75 376.25,0 504,0 504,-20.75"/>
<text xml:space="preserve" text-anchor="middle" x="440.12" y="-7.25" font-family="Helvetica,sans-Serif" font-size="10.00">PlaneWave::IntegrateH</text>
</a>
</g>
</g>
<!-- Node1&#45;&gt;Node6 -->
<g id="edge6_Node000001_Node000006" class="edge">
<title>Node1&#45;&gt;Node6</title>
<g id="a_edge6_Node000001_Node000006"><a xlink:title=" ">
<path fill="none" stroke="#63b8ff" d="M543.33,-23.15C530.37,-21.53 517,-19.86 504.36,-18.28"/>
<polygon fill="#63b8ff" stroke="#63b8ff" points="542.72,-26.6 553.08,-24.37 543.59,-19.66 542.72,-26.6"/>
</a>
</g>
</g>
<!-- Node3 -->
<g id="Node000003" class="node">
<title>Node3</title>
<g id="a_Node000003"><a xlink:href="classPlaneWave.html#a80fe83d9acd52a14f7b2f0ea2317b036" target="_top" xlink:title="Integrate layered E and H fields against an RWG basis function.">
<polygon fill="white" stroke="#666666" points="325.25,-117.12 166,-117.12 166,-83.62 325.25,-83.62 325.25,-117.12"/>
<text xml:space="preserve" text-anchor="start" x="174" y="-103.62" font-family="Helvetica,sans-Serif" font-size="10.00">PlaneWave::IntegrateLayered</text>
<text xml:space="preserve" text-anchor="middle" x="245.62" y="-90.88" font-family="Helvetica,sans-Serif" font-size="10.00">EandH</text>
</a>
</g>
</g>
<!-- Node2&#45;&gt;Node3 -->
<g id="edge2_Node000002_Node000003" class="edge">
<title>Node2&#45;&gt;Node3</title>
<g id="a_edge2_Node000002_Node000003"><a xlink:title=" ">
<path fill="none" stroke="#63b8ff" d="M354.62,-75.13C343.14,-77.81 331.44,-80.55 320.18,-83.18"/>
<polygon fill="#63b8ff" stroke="#63b8ff" points="355.11,-78.61 364.05,-72.92 353.52,-71.79 355.11,-78.61"/>
</a>
</g>
</g>
<!-- Node4 -->
<g id="Node000004" class="node">
<title>Node4</title>
<g id="a_Node000004"><a xlink:href="classPlaneWave.html#a07739002b987553f07df880745707fad" target="_top" xlink:title="Construct a plane wave in a layered medium.">
<polygon fill="white" stroke="#666666" points="130,-46.75 0,-46.75 0,-26 130,-26 130,-46.75"/>
<text xml:space="preserve" text-anchor="middle" x="65" y="-33.25" font-family="Helvetica,sans-Serif" font-size="10.00">PlaneWave::PlaneWave</text>
</a>
</g>
</g>
<!-- Node2&#45;&gt;Node4 -->
<g id="edge3_Node000002_Node000004" class="edge">
<title>Node2&#45;&gt;Node4</title>
<g id="a_edge3_Node000002_Node000004"><a xlink:title=" ">
<path fill="none" stroke="#63b8ff" d="M349.43,-50.81C281.9,-47.37 190.92,-42.74 130.46,-39.66"/>
<polygon fill="#63b8ff" stroke="#63b8ff" points="349.23,-54.3 359.39,-51.31 349.59,-47.31 349.23,-54.3"/>
</a>
</g>
</g>
<!-- Node5 -->
<g id="Node000005" class="node">
<title>Node5</title>
<g id="a_Node000005"><a xlink:href="classPlaneWave.html#a1f1fd1b5140ab23b3ec7899e6962e60f" target="_top" xlink:title="Write E and H field values at sample points to CSV files.">
<polygon fill="white" stroke="#666666" points="314.38,-27.75 176.88,-27.75 176.88,-7 314.38,-7 314.38,-27.75"/>
<text xml:space="preserve" text-anchor="middle" x="245.62" y="-14.25" font-family="Helvetica,sans-Serif" font-size="10.00">PlaneWave::writeEHData</text>
</a>
</g>
</g>
<!-- Node2&#45;&gt;Node5 -->
<g id="edge4_Node000002_Node000005" class="edge">
<title>Node2&#45;&gt;Node5</title>
<g id="a_edge4_Node000002_Node000005"><a xlink:title=" ">
<path fill="none" stroke="#63b8ff" d="M349.56,-37.69C333.18,-34.46 316.55,-31.18 301.56,-28.22"/>
<polygon fill="#63b8ff" stroke="#63b8ff" points="348.85,-41.12 359.34,-39.63 350.21,-34.26 348.85,-41.12"/>
</a>
</g>
</g>
<!-- Node5&#45;&gt;Node4 -->
<g id="edge5_Node000005_Node000004" class="edge">
<title>Node5&#45;&gt;Node4</title>
<g id="a_edge5_Node000005_Node000004"><a xlink:title=" ">
<path fill="none" stroke="#63b8ff" d="M165.43,-25.8C153.69,-27.05 141.71,-28.32 130.32,-29.53"/>
<polygon fill="#63b8ff" stroke="#63b8ff" points="165.51,-29.31 175.08,-24.77 164.77,-22.35 165.51,-29.31"/>
</a>
</g>
</g>
</g>
</svg>
