<?xml version="1.0" encoding="UTF-8" standalone="no"?>
<!DOCTYPE svg PUBLIC "-//W3C//DTD SVG 1.1//EN"
 "http://www.w3.org/Graphics/SVG/1.1/DTD/svg11.dtd">
<!-- Generated by graphviz version 13.1.2 (20250809.0930)
 -->
<!-- Title: GreenFHom3DPer::GreenFHom3DPer Pages: 1 -->
<svg width="682pt" height="47pt"
 viewBox="0.00 0.00 682.00 47.00" xmlns="http://www.w3.org/2000/svg" xmlns:xlink="http://www.w3.org/1999/xlink">
<g id="graph0" class="graph" transform="scale(1 1) rotate(0) translate(4 42.75)">
<title>GreenFHom3DPer::GreenFHom3DPer</title>
<!-- Node1 -->
<g id="Node000001" class="node">
<title>Node1</title>
<g id="a_Node000001"><a xlink:title="Homogeneous, magnetic constructor with Bloch vector.">
<polygon fill="#999999" stroke="#666666" points="197.5,-20.75 0,-20.75 0,0 197.5,0 197.5,-20.75"/>
<text xml:space="preserve" text-anchor="middle" x="98.75" y="-7.25" font-family="Helvetica,sans-Serif" font-size="10.00">GreenFHom3DPer::GreenFHom3DPer</text>
</a>
</g>
</g>
<!-- Node2 -->
<g id="Node000002" class="node">
<title>Node2</title>
<g id="a_Node000002"><a xlink:href="classGreenFHom3D.html#ac928f16e6e79c75c002d9a721a8858d8" target="_top" xlink:title="Default constructor (initializes with zeroed wavenumber and no lookup table).">
<polygon fill="white" stroke="#666666" points="399.5,-20.75 233.5,-20.75 233.5,0 399.5,0 399.5,-20.75"/>
<text xml:space="preserve" text-anchor="middle" x="316.5" y="-7.25" font-family="Helvetica,sans-Serif" font-size="10.00">GreenFHom3D::GreenFHom3D</text>
</a>
</g>
</g>
<!-- Node1&#45;&gt;Node2 -->
<g id="edge1_Node000001_Node000002" class="edge">
<title>Node1&#45;&gt;Node2</title>
<g id="a_edge1_Node000001_Node000002"><a xlink:title=" ">
<path fill="none" stroke="#63b8ff" d="M197.84,-10.38C205.77,-10.38 213.77,-10.38 221.66,-10.38"/>
<polygon fill="#63b8ff" stroke="#63b8ff" points="221.63,-13.88 231.63,-10.38 221.63,-6.88 221.63,-13.88"/>
</a>
</g>
</g>
<!-- Node3 -->
<g id="Node000003" class="node">
<title>Node3</title>
<g id="a_Node000003"><a xlink:href="classGreenF.html#a332ac24f39288170f77c18f37fde2c82" target="_top" xlink:title="Constructor for a homogeneous, non&#45;magnetic medium.">
<polygon fill="white" stroke="#666666" points="527.25,-20.75 435.5,-20.75 435.5,0 527.25,0 527.25,-20.75"/>
<text xml:space="preserve" text-anchor="middle" x="481.38" y="-7.25" font-family="Helvetica,sans-Serif" font-size="10.00">GreenF::GreenF</text>
</a>
</g>
</g>
<!-- Node2&#45;&gt;Node3 -->
<g id="edge2_Node000002_Node000003" class="edge">
<title>Node2&#45;&gt;Node3</title>
<g id="a_edge2_Node000002_Node000003"><a xlink:title=" ">
<path fill="none" stroke="#63b8ff" d="M399.89,-10.38C407.96,-10.38 416.02,-10.38 423.74,-10.38"/>
<polygon fill="#63b8ff" stroke="#63b8ff" points="423.66,-13.88 433.66,-10.38 423.66,-6.88 423.66,-13.88"/>
</a>
</g>
</g>
<!-- Node4 -->
<g id="Node000004" class="node">
<title>Node4</title>
<g id="a_Node000004"><a xlink:href="group__greenFunction.html#gac0a52dce23be7dacdf97c68653b6c137" target="_top" xlink:title="Complex square root with a branch cut along the negative real axis.">
<polygon fill="white" stroke="#666666" points="603.25,-20.75 563.25,-20.75 563.25,0 603.25,0 603.25,-20.75"/>
<text xml:space="preserve" text-anchor="middle" x="583.25" y="-7.25" font-family="Helvetica,sans-Serif" font-size="10.00">csqrt</text>
</a>
</g>
</g>
<!-- Node3&#45;&gt;Node4 -->
<g id="edge3_Node000003_Node000004" class="edge">
<title>Node3&#45;&gt;Node4</title>
<g id="a_edge3_Node000003_Node000004"><a xlink:title=" ">
<path fill="none" stroke="#63b8ff" d="M527.64,-10.38C535.67,-10.38 543.86,-10.38 551.38,-10.38"/>
<polygon fill="#63b8ff" stroke="#63b8ff" points="551.36,-13.88 561.36,-10.38 551.36,-6.88 551.36,-13.88"/>
</a>
</g>
</g>
<!-- Node5 -->
<g id="Node000005" class="node">
<title>Node5</title>
<g id="a_Node000005"><a xlink:href="Domain_8cpp.html#aafa3e4fa6318b2f8740f4dbd50c367e5" target="_top" xlink:title="Extract the real part of each component of a complex 3&#45;vector.">
<polygon fill="white" stroke="#666666" points="674,-20.75 639.25,-20.75 639.25,0 674,0 674,-20.75"/>
<text xml:space="preserve" text-anchor="middle" x="656.62" y="-7.25" font-family="Helvetica,sans-Serif" font-size="10.00">real</text>
</a>
</g>
</g>
<!-- Node4&#45;&gt;Node5 -->
<g id="edge4_Node000004_Node000005" class="edge">
<title>Node4&#45;&gt;Node5</title>
<g id="a_edge4_Node000004_Node000005"><a xlink:title=" ">
<path fill="none" stroke="#63b8ff" d="M603.38,-10.38C610.81,-10.38 619.48,-10.38 627.59,-10.38"/>
<polygon fill="#63b8ff" stroke="#63b8ff" points="627.36,-13.88 637.36,-10.38 627.36,-6.88 627.36,-13.88"/>
</a>
</g>
</g>
<!-- Node5&#45;&gt;Node5 -->
<g id="edge5_Node000005_Node000005" class="edge">
<title>Node5&#45;&gt;Node5</title>
<g id="a_edge5_Node000005_Node000005"><a xlink:title=" ">
<path fill="none" stroke="#63b8ff" d="M644.8,-21.15C640.07,-29.81 644.01,-38.75 656.62,-38.75 663.32,-38.75 667.58,-36.23 669.38,-32.56"/>
<polygon fill="#63b8ff" stroke="#63b8ff" points="672.88,-32.34 668.57,-22.66 665.9,-32.91 672.88,-32.34"/>
</a>
</g>
</g>
</g>
</svg>
