<?xml version="1.0" encoding="UTF-8" standalone="no"?>
<!DOCTYPE svg PUBLIC "-//W3C//DTD SVG 1.1//EN"
 "http://www.w3.org/Graphics/SVG/1.1/DTD/svg11.dtd">
<!-- Generated by graphviz version 13.1.2 (20250809.0930)
 -->
<!-- Title: SimJob::LoadSubjobFromFile Pages: 1 -->
<svg width="513pt" height="227pt"
 viewBox="0.00 0.00 513.00 227.00" xmlns="http://www.w3.org/2000/svg" xmlns:xlink="http://www.w3.org/1999/xlink">
<g id="graph0" class="graph" transform="scale(1 1) rotate(0) translate(4 222.75)">
<title>SimJob::LoadSubjobFromFile</title>
<!-- Node1 -->
<g id="Node000001" class="node">
<title>Node1</title>
<g id="a_Node000001"><a xlink:title="Parse one &#160;(incident specification + label).">
<polygon fill="#999999" stroke="#666666" points="154,-78.75 0,-78.75 0,-58 154,-58 154,-78.75"/>
<text xml:space="preserve" text-anchor="middle" x="77" y="-65.25" font-family="Helvetica,sans-Serif" font-size="10.00">SimJob::LoadSubjobFromFile</text>
</a>
</g>
</g>
<!-- Node2 -->
<g id="Node000002" class="node">
<title>Node2</title>
<g id="a_Node000002"><a xlink:href="classSimJob.html#ae16a5d8bdcf14121a812acd22b3c573a" target="_top" xlink:title="Parse and load dipole excitation from .">
<polygon fill="white" stroke="#666666" points="311.38,-165.75 200.88,-165.75 200.88,-145 311.38,-145 311.38,-165.75"/>
<text xml:space="preserve" text-anchor="middle" x="256.12" y="-152.25" font-family="Helvetica,sans-Serif" font-size="10.00">SimJob::LoadDipole</text>
</a>
</g>
</g>
<!-- Node1&#45;&gt;Node2 -->
<g id="edge1_Node000001_Node000002" class="edge">
<title>Node1&#45;&gt;Node2</title>
<g id="a_edge1_Node000001_Node000002"><a xlink:title=" ">
<path fill="none" stroke="#63b8ff" d="M100.07,-79.22C131.05,-94.43 187.6,-122.21 223.17,-139.68"/>
<polygon fill="#63b8ff" stroke="#63b8ff" points="221.17,-142.6 231.69,-143.87 224.26,-136.32 221.17,-142.6"/>
</a>
</g>
</g>
<!-- Node6 -->
<g id="Node000006" class="node">
<title>Node6</title>
<g id="a_Node000006"><a xlink:href="classSimJob.html#a762457879a5f323daff8a2802ee937bd" target="_top" xlink:title="Parse and load Gaussian&#45;beam excitation from .">
<polygon fill="white" stroke="#666666" points="318.12,-98.75 194.12,-98.75 194.12,-78 318.12,-78 318.12,-98.75"/>
<text xml:space="preserve" text-anchor="middle" x="256.12" y="-85.25" font-family="Helvetica,sans-Serif" font-size="10.00">SimJob::LoadGaussian</text>
</a>
</g>
</g>
<!-- Node1&#45;&gt;Node6 -->
<g id="edge5_Node000001_Node000006" class="edge">
<title>Node1&#45;&gt;Node6</title>
<g id="a_edge5_Node000001_Node000006"><a xlink:title=" ">
<path fill="none" stroke="#63b8ff" d="M154.4,-77C163.72,-78.05 173.22,-79.13 182.49,-80.17"/>
<polygon fill="#63b8ff" stroke="#63b8ff" points="181.8,-83.62 192.13,-81.26 182.59,-76.66 181.8,-83.62"/>
</a>
</g>
</g>
<!-- Node8 -->
<g id="Node000008" class="node">
<title>Node8</title>
<g id="a_Node000008"><a xlink:href="classSimJob.html#a6d48eb7a13a50bdc8f9dc965165ed873" target="_top" xlink:title="Parse and load simulation label from &#160;section.">
<polygon fill="white" stroke="#666666" points="308.75,-59.75 203.5,-59.75 203.5,-39 308.75,-39 308.75,-59.75"/>
<text xml:space="preserve" text-anchor="middle" x="256.12" y="-46.25" font-family="Helvetica,sans-Serif" font-size="10.00">SimJob::LoadLabel</text>
</a>
</g>
</g>
<!-- Node1&#45;&gt;Node8 -->
<g id="edge8_Node000001_Node000008" class="edge">
<title>Node1&#45;&gt;Node8</title>
<g id="a_edge8_Node000001_Node000008"><a xlink:title=" ">
<path fill="none" stroke="#63b8ff" d="M154.4,-60.18C166.89,-58.84 179.71,-57.47 191.83,-56.16"/>
<polygon fill="#63b8ff" stroke="#63b8ff" points="192.14,-59.65 201.71,-55.1 191.39,-52.69 192.14,-59.65"/>
</a>
</g>
</g>
<!-- Node9 -->
<g id="Node000009" class="node">
<title>Node9</title>
<g id="a_Node000009"><a xlink:href="classSimJob.html#a9b33589923ea7f4e5b671e55ecf2b320" target="_top" xlink:title="Parse and load plane&#45;wave excitation from .">
<polygon fill="white" stroke="#666666" points="322.25,-20.75 190,-20.75 190,0 322.25,0 322.25,-20.75"/>
<text xml:space="preserve" text-anchor="middle" x="256.12" y="-7.25" font-family="Helvetica,sans-Serif" font-size="10.00">SimJob::LoadPlanewave</text>
</a>
</g>
</g>
<!-- Node1&#45;&gt;Node9 -->
<g id="edge9_Node000001_Node000009" class="edge">
<title>Node1&#45;&gt;Node9</title>
<g id="a_edge9_Node000001_Node000009"><a xlink:title=" ">
<path fill="none" stroke="#63b8ff" d="M108.82,-57.65C131.27,-49.9 162.45,-39.28 190,-30.38 195.91,-28.47 202.13,-26.5 208.29,-24.58"/>
<polygon fill="#63b8ff" stroke="#63b8ff" points="209.27,-27.94 217.79,-21.64 207.2,-21.25 209.27,-27.94"/>
</a>
</g>
</g>
<!-- Node3 -->
<g id="Node000003" class="node">
<title>Node3</title>
<g id="a_Node000003"><a xlink:href="classDomain.html#a6a3c61914bab1ebbc02613a6ec8db802" target="_top" xlink:title="Add a Dipole excitation (ownership transferred to Domain).">
<polygon fill="white" stroke="#666666" points="486.75,-218.75 376.25,-218.75 376.25,-198 486.75,-198 486.75,-218.75"/>
<text xml:space="preserve" text-anchor="middle" x="431.5" y="-205.25" font-family="Helvetica,sans-Serif" font-size="10.00">Domain::AddDipole</text>
</a>
</g>
</g>
<!-- Node2&#45;&gt;Node3 -->
<g id="edge2_Node000002_Node000003" class="edge">
<title>Node2&#45;&gt;Node3</title>
<g id="a_edge2_Node000002_Node000003"><a xlink:title=" ">
<path fill="none" stroke="#63b8ff" d="M288.89,-166.15C308.75,-172.79 334.91,-181.34 358.25,-188.38 365.04,-190.42 372.21,-192.5 379.29,-194.51"/>
<polygon fill="#63b8ff" stroke="#63b8ff" points="378.25,-197.85 388.82,-197.18 380.14,-191.11 378.25,-197.85"/>
</a>
</g>
</g>
<!-- Node4 -->
<g id="Node000004" class="node">
<title>Node4</title>
<g id="a_Node000004"><a xlink:href="classSimJob.html#ab3887eb9e217b1d6424ff85aec4b1793" target="_top" xlink:title="Find which domain contains a point.">
<polygon fill="white" stroke="#666666" points="504.75,-179.75 358.25,-179.75 358.25,-159 504.75,-159 504.75,-179.75"/>
<text xml:space="preserve" text-anchor="middle" x="431.5" y="-166.25" font-family="Helvetica,sans-Serif" font-size="10.00">SimJob::ContainingDomain</text>
</a>
</g>
</g>
<!-- Node2&#45;&gt;Node4 -->
<g id="edge3_Node000002_Node000004" class="edge">
<title>Node2&#45;&gt;Node4</title>
<g id="a_edge3_Node000002_Node000004"><a xlink:title=" ">
<path fill="none" stroke="#63b8ff" d="M311.51,-159.77C322.64,-160.67 334.61,-161.63 346.51,-162.59"/>
<polygon fill="#63b8ff" stroke="#63b8ff" points="346.11,-166.07 356.36,-163.39 346.68,-159.09 346.11,-166.07"/>
</a>
</g>
</g>
<!-- Node5 -->
<g id="Node000005" class="node">
<title>Node5</title>
<g id="a_Node000005"><a xlink:href="classDomain.html#a4ca094ed1d16b191f026d0c23e1fc75a" target="_top" xlink:title="Return this domain&#39;s integer index.">
<polygon fill="white" stroke="#666666" points="475.12,-140.75 387.88,-140.75 387.88,-120 475.12,-120 475.12,-140.75"/>
<text xml:space="preserve" text-anchor="middle" x="431.5" y="-127.25" font-family="Helvetica,sans-Serif" font-size="10.00">Domain::Index</text>
</a>
</g>
</g>
<!-- Node2&#45;&gt;Node5 -->
<g id="edge4_Node000002_Node000005" class="edge">
<title>Node2&#45;&gt;Node5</title>
<g id="a_edge4_Node000002_Node000005"><a xlink:title=" ">
<path fill="none" stroke="#63b8ff" d="M311.51,-147.53C332.2,-144.55 355.77,-141.15 376.43,-138.17"/>
<polygon fill="#63b8ff" stroke="#63b8ff" points="376.68,-141.67 386.08,-136.78 375.68,-134.74 376.68,-141.67"/>
</a>
</g>
</g>
<!-- Node7 -->
<g id="Node000007" class="node">
<title>Node7</title>
<g id="a_Node000007"><a xlink:href="Domain_8cpp.html#aafa3e4fa6318b2f8740f4dbd50c367e5" target="_top" xlink:title="Extract the real part of each component of a complex 3&#45;vector.">
<polygon fill="white" stroke="#666666" points="448.88,-83.75 414.12,-83.75 414.12,-63 448.88,-63 448.88,-83.75"/>
<text xml:space="preserve" text-anchor="middle" x="431.5" y="-70.25" font-family="Helvetica,sans-Serif" font-size="10.00">real</text>
</a>
</g>
</g>
<!-- Node6&#45;&gt;Node7 -->
<g id="edge6_Node000006_Node000007" class="edge">
<title>Node6&#45;&gt;Node7</title>
<g id="a_edge6_Node000006_Node000007"><a xlink:title=" ">
<path fill="none" stroke="#63b8ff" d="M318.25,-83.09C347.01,-80.6 379.89,-77.75 402.6,-75.79"/>
<polygon fill="#63b8ff" stroke="#63b8ff" points="402.6,-79.3 412.26,-74.95 402,-72.33 402.6,-79.3"/>
</a>
</g>
</g>
<!-- Node7&#45;&gt;Node7 -->
<g id="edge7_Node000007_Node000007" class="edge">
<title>Node7&#45;&gt;Node7</title>
<g id="a_edge7_Node000007_Node000007"><a xlink:title=" ">
<path fill="none" stroke="#63b8ff" d="M413.81,-78.53C388.78,-88.41 394.68,-101.75 431.5,-101.75 461.99,-101.75 471.28,-92.6 459.36,-83.85"/>
<polygon fill="#63b8ff" stroke="#63b8ff" points="461.02,-80.76 450.53,-79.23 457.77,-86.97 461.02,-80.76"/>
</a>
</g>
</g>
</g>
</svg>
