<?xml version="1.0" encoding="UTF-8" standalone="no"?>
<!DOCTYPE svg PUBLIC "-//W3C//DTD SVG 1.1//EN"
 "http://www.w3.org/Graphics/SVG/1.1/DTD/svg11.dtd">
<!-- Generated by graphviz version 13.1.2 (20250809.0930)
 -->
<!-- Title: DomainLayered3D::absorptionCS Pages: 1 -->
<svg width="572pt" height="341pt"
 viewBox="0.00 0.00 572.00 341.00" xmlns="http://www.w3.org/2000/svg" xmlns:xlink="http://www.w3.org/1999/xlink">
<g id="graph0" class="graph" transform="scale(1 1) rotate(0) translate(4 336.75)">
<title>DomainLayered3D::absorptionCS</title>
<!-- Node1 -->
<g id="Node000001" class="node">
<title>Node1</title>
<g id="a_Node000001"><a xlink:title="Absorption cross section.">
<polygon fill="#999999" stroke="#666666" points="177.25,-176.75 0,-176.75 0,-156 177.25,-156 177.25,-176.75"/>
<text xml:space="preserve" text-anchor="middle" x="88.62" y="-163.25" font-family="Helvetica,sans-Serif" font-size="10.00">DomainLayered3D::absorptionCS</text>
</a>
</g>
</g>
<!-- Node2 -->
<g id="Node000002" class="node">
<title>Node2</title>
<g id="a_Node000002"><a xlink:href="classTriangle.html#ab78508a340ec5d345adf114b43563dbf" target="_top" xlink:title="Centroid of the triangle.">
<polygon fill="white" stroke="#666666" points="338.38,-332.75 245.88,-332.75 245.88,-312 338.38,-312 338.38,-332.75"/>
<text xml:space="preserve" text-anchor="middle" x="292.12" y="-319.25" font-family="Helvetica,sans-Serif" font-size="10.00">Triangle::Center</text>
</a>
</g>
</g>
<!-- Node1&#45;&gt;Node2 -->
<g id="edge1_Node000001_Node000002" class="edge">
<title>Node1&#45;&gt;Node2</title>
<g id="a_edge1_Node000001_Node000002"><a xlink:title=" ">
<path fill="none" stroke="#63b8ff" d="M96.19,-177.15C112.54,-203.02 157.77,-268.95 213.25,-302.38 219.84,-306.34 227.2,-309.53 234.69,-312.09"/>
<polygon fill="#63b8ff" stroke="#63b8ff" points="233.66,-315.43 244.24,-314.97 235.68,-308.73 233.66,-315.43"/>
</a>
</g>
</g>
<!-- Node3 -->
<g id="Node000003" class="node">
<title>Node3</title>
<g id="a_Node000003"><a xlink:href="DomainLayered3D_8cpp.html#a37aee72ef7a00576c814a1370473cce7" target="_top" xlink:title="Compute the element&#45;wise complex conjugate of a 3&#45;vector.">
<polygon fill="white" stroke="#666666" points="321.5,-293.75 262.75,-293.75 262.75,-273 321.5,-273 321.5,-293.75"/>
<text xml:space="preserve" text-anchor="middle" x="292.12" y="-280.25" font-family="Helvetica,sans-Serif" font-size="10.00">conjVecL</text>
</a>
</g>
</g>
<!-- Node1&#45;&gt;Node3 -->
<g id="edge2_Node000001_Node000003" class="edge">
<title>Node1&#45;&gt;Node3</title>
<g id="a_edge2_Node000001_Node000003"><a xlink:title=" ">
<path fill="none" stroke="#63b8ff" d="M100.13,-177.19C120.22,-197.22 166.28,-240.2 213.25,-263.38 225.04,-269.19 238.69,-273.43 251.24,-276.48"/>
<polygon fill="#63b8ff" stroke="#63b8ff" points="250.38,-279.87 260.9,-278.61 251.89,-273.03 250.38,-279.87"/>
</a>
</g>
</g>
<!-- Node5 -->
<g id="Node000005" class="node">
<title>Node5</title>
<g id="a_Node000005"><a xlink:href="classDomainLayered3D.html#a281513a4cb865b8c688dd920a6789955" target="_top" xlink:title="Relative permittivity at a spatial location.">
<polygon fill="white" stroke="#666666" points="366.12,-254.75 218.12,-254.75 218.12,-234 366.12,-234 366.12,-254.75"/>
<text xml:space="preserve" text-anchor="middle" x="292.12" y="-241.25" font-family="Helvetica,sans-Serif" font-size="10.00">DomainLayered3D::Epsilon</text>
</a>
</g>
</g>
<!-- Node1&#45;&gt;Node5 -->
<g id="edge5_Node000001_Node000005" class="edge">
<title>Node1&#45;&gt;Node5</title>
<g id="a_edge5_Node000001_Node000005"><a xlink:title=" ">
<path fill="none" stroke="#63b8ff" d="M109.69,-177.22C133.75,-189.89 175.55,-210.82 213.25,-224.38 219.39,-226.58 225.89,-228.65 232.41,-230.56"/>
<polygon fill="#63b8ff" stroke="#63b8ff" points="231.31,-233.88 241.88,-233.2 233.19,-227.14 231.31,-233.88"/>
</a>
</g>
</g>
<!-- Node7 -->
<g id="Node000007" class="node">
<title>Node7</title>
<g id="a_Node000007"><a xlink:href="classTriangle.html#a691ff1d8d3f33df1fe0aae161d14ec49" target="_top" xlink:title="FRONT/BACK normal: FRONT &#45;&gt; +normal, BACK &#45;&gt; −normal.">
<polygon fill="white" stroke="#666666" points="362,-215.75 222.25,-215.75 222.25,-195 362,-195 362,-215.75"/>
<text xml:space="preserve" text-anchor="middle" x="292.12" y="-202.25" font-family="Helvetica,sans-Serif" font-size="10.00">Triangle::FBNormalVector</text>
</a>
</g>
</g>
<!-- Node1&#45;&gt;Node7 -->
<g id="edge7_Node000001_Node000007" class="edge">
<title>Node1&#45;&gt;Node7</title>
<g id="a_edge7_Node000001_Node000007"><a xlink:title=" ">
<path fill="none" stroke="#63b8ff" d="M145.75,-177.24C170,-181.93 198.56,-187.46 223.92,-192.37"/>
<polygon fill="#63b8ff" stroke="#63b8ff" points="222.98,-195.75 233.46,-194.21 224.31,-188.88 222.98,-195.75"/>
</a>
</g>
</g>
<!-- Node8 -->
<g id="Node000008" class="node">
<title>Node8</title>
<g id="a_Node000008"><a xlink:href="classDomainLayered3D.html#ae2e6a313e8a32a981d6d698a47e238cb" target="_top" xlink:title="Total incident electric field at a point from all incident sources.">
<polygon fill="white" stroke="#666666" points="370.25,-176.75 214,-176.75 214,-156 370.25,-156 370.25,-176.75"/>
<text xml:space="preserve" text-anchor="middle" x="292.12" y="-163.25" font-family="Helvetica,sans-Serif" font-size="10.00">DomainLayered3D::IncFieldE</text>
</a>
</g>
</g>
<!-- Node1&#45;&gt;Node8 -->
<g id="edge8_Node000001_Node000008" class="edge">
<title>Node1&#45;&gt;Node8</title>
<g id="a_edge8_Node000001_Node000008"><a xlink:title=" ">
<path fill="none" stroke="#63b8ff" d="M177.71,-166.38C185.85,-166.38 194.09,-166.38 202.23,-166.38"/>
<polygon fill="#63b8ff" stroke="#63b8ff" points="202.14,-169.88 212.14,-166.38 202.14,-162.88 202.14,-169.88"/>
</a>
</g>
</g>
<!-- Node9 -->
<g id="Node000009" class="node">
<title>Node9</title>
<g id="a_Node000009"><a xlink:href="classDomainLayered3D.html#a1224cc02268d1cfe5b51ebf363cda79e" target="_top" xlink:title="Total incident magnetic field at a point from all incident sources.">
<polygon fill="white" stroke="#666666" points="371,-137.75 213.25,-137.75 213.25,-117 371,-117 371,-137.75"/>
<text xml:space="preserve" text-anchor="middle" x="292.12" y="-124.25" font-family="Helvetica,sans-Serif" font-size="10.00">DomainLayered3D::IncFieldH</text>
</a>
</g>
</g>
<!-- Node1&#45;&gt;Node9 -->
<g id="edge9_Node000001_Node000009" class="edge">
<title>Node1&#45;&gt;Node9</title>
<g id="a_edge9_Node000001_Node000009"><a xlink:title=" ">
<path fill="none" stroke="#63b8ff" d="M145.75,-155.51C170,-150.82 198.56,-145.29 223.92,-140.38"/>
<polygon fill="#63b8ff" stroke="#63b8ff" points="224.31,-143.87 233.46,-138.54 222.98,-137 224.31,-143.87"/>
</a>
</g>
</g>
<!-- Node10 -->
<g id="Node000010" class="node">
<title>Node10</title>
<g id="a_Node000010"><a xlink:href="classDomainLayered3D.html#a295274a8176b2d6f9fc07c7aea9fd89c" target="_top" xlink:title="Relative permeability at a spatial location.">
<polygon fill="white" stroke="#666666" points="356,-98.75 228.25,-98.75 228.25,-78 356,-78 356,-98.75"/>
<text xml:space="preserve" text-anchor="middle" x="292.12" y="-85.25" font-family="Helvetica,sans-Serif" font-size="10.00">DomainLayered3D::Mu</text>
</a>
</g>
</g>
<!-- Node1&#45;&gt;Node10 -->
<g id="edge10_Node000001_Node000010" class="edge">
<title>Node1&#45;&gt;Node10</title>
<g id="a_edge10_Node000001_Node000010"><a xlink:title=" ">
<path fill="none" stroke="#63b8ff" d="M109.69,-155.53C133.75,-142.86 175.55,-121.93 213.25,-108.38 219.39,-106.17 225.89,-104.1 232.41,-102.19"/>
<polygon fill="#63b8ff" stroke="#63b8ff" points="233.19,-105.61 241.88,-99.55 231.31,-98.87 233.19,-105.61"/>
</a>
</g>
</g>
<!-- Node11 -->
<g id="Node000011" class="node">
<title>Node11</title>
<g id="a_Node000011"><a xlink:href="classTriangle.html#a0752d2c9488c7c44b851b8f75abcaa79" target="_top" xlink:title="Node position (by value) for local index 0..2.">
<polygon fill="white" stroke="#666666" points="335,-59.75 249.25,-59.75 249.25,-39 335,-39 335,-59.75"/>
<text xml:space="preserve" text-anchor="middle" x="292.12" y="-46.25" font-family="Helvetica,sans-Serif" font-size="10.00">Triangle::Node</text>
</a>
</g>
</g>
<!-- Node1&#45;&gt;Node11 -->
<g id="edge12_Node000001_Node000011" class="edge">
<title>Node1&#45;&gt;Node11</title>
<g id="a_edge12_Node000001_Node000011"><a xlink:title=" ">
<path fill="none" stroke="#63b8ff" d="M100.13,-155.56C120.22,-135.53 166.28,-92.55 213.25,-69.38 220.91,-65.6 229.36,-62.48 237.78,-59.93"/>
<polygon fill="#63b8ff" stroke="#63b8ff" points="238.6,-63.33 247.3,-57.29 236.73,-56.59 238.6,-63.33"/>
</a>
</g>
</g>
<!-- Node12 -->
<g id="Node000012" class="node">
<title>Node12</title>
<g id="a_Node000012"><a xlink:href="DomainLayered3D_8cpp.html#a2c019c7f0fe35eb5871f0c0b1ae9bd96" target="_top" xlink:title="Extract the real part of each component of a complex 3&#45;vector.">
<polygon fill="white" stroke="#666666" points="320.75,-20.75 263.5,-20.75 263.5,0 320.75,0 320.75,-20.75"/>
<text xml:space="preserve" text-anchor="middle" x="292.12" y="-7.25" font-family="Helvetica,sans-Serif" font-size="10.00">realVecL</text>
</a>
</g>
</g>
<!-- Node1&#45;&gt;Node12 -->
<g id="edge13_Node000001_Node000012" class="edge">
<title>Node1&#45;&gt;Node12</title>
<g id="a_edge13_Node000001_Node000012"><a xlink:title=" ">
<path fill="none" stroke="#63b8ff" d="M96.19,-155.6C112.54,-129.73 157.77,-63.8 213.25,-30.38 224.99,-23.3 239.19,-18.71 252.23,-15.74"/>
<polygon fill="#63b8ff" stroke="#63b8ff" points="252.7,-19.22 261.81,-13.82 251.32,-12.35 252.7,-19.22"/>
</a>
</g>
</g>
<!-- Node4 -->
<g id="Node000004" class="node">
<title>Node4</title>
<g id="a_Node000004"><a xlink:href="Domain_8cpp.html#abbd88d15240455cf734121fcd73b3a03" target="_top" xlink:title="Compute the element&#45;wise complex conjugate of a 3&#45;vector.">
<polygon fill="white" stroke="#666666" points="503.62,-293.75 467.38,-293.75 467.38,-273 503.62,-273 503.62,-293.75"/>
<text xml:space="preserve" text-anchor="middle" x="485.5" y="-280.25" font-family="Helvetica,sans-Serif" font-size="10.00">conj</text>
</a>
</g>
</g>
<!-- Node3&#45;&gt;Node4 -->
<g id="edge3_Node000003_Node000004" class="edge">
<title>Node3&#45;&gt;Node4</title>
<g id="a_edge3_Node000003_Node000004"><a xlink:title=" ">
<path fill="none" stroke="#63b8ff" d="M321.78,-283.38C357.94,-283.38 419.77,-283.38 455.9,-283.38"/>
<polygon fill="#63b8ff" stroke="#63b8ff" points="455.58,-286.88 465.58,-283.38 455.58,-279.88 455.58,-286.88"/>
</a>
</g>
</g>
<!-- Node4&#45;&gt;Node4 -->
<g id="edge4_Node000004_Node000004" class="edge">
<title>Node4&#45;&gt;Node4</title>
<g id="a_edge4_Node000004_Node000004"><a xlink:title=" ">
<path fill="none" stroke="#63b8ff" d="M467.17,-288.12C438.22,-298.03 444.33,-311.75 485.5,-311.75 520.88,-311.75 530.37,-301.62 513.96,-292.48"/>
<polygon fill="#63b8ff" stroke="#63b8ff" points="515.79,-289.45 505.22,-288.72 513.03,-295.88 515.79,-289.45"/>
</a>
</g>
</g>
<!-- Node6 -->
<g id="Node000006" class="node">
<title>Node6</title>
<g id="a_Node000006"><a xlink:href="classDomainLayered3D.html#ae8e9daf2ca4d1ed649a1e0fe83880160" target="_top" xlink:title="Returns the layer index corresponding to a spatial position.">
<polygon fill="white" stroke="#666666" points="564,-180.12 407,-180.12 407,-146.62 564,-146.62 564,-180.12"/>
<text xml:space="preserve" text-anchor="start" x="415" y="-166.62" font-family="Helvetica,sans-Serif" font-size="10.00">DomainLayered3D::GetLayer</text>
<text xml:space="preserve" text-anchor="middle" x="485.5" y="-153.88" font-family="Helvetica,sans-Serif" font-size="10.00">Index</text>
</a>
</g>
</g>
<!-- Node5&#45;&gt;Node6 -->
<g id="edge6_Node000005_Node000006" class="edge">
<title>Node5&#45;&gt;Node6</title>
<g id="a_edge6_Node000005_Node000006"><a xlink:title=" ">
<path fill="none" stroke="#63b8ff" d="M342.72,-233.56C352.24,-230.95 362.03,-227.88 371,-224.38 397.62,-213.98 425.94,-198.77 447.64,-186.13"/>
<polygon fill="#63b8ff" stroke="#63b8ff" points="449.28,-189.23 456.11,-181.13 445.72,-183.2 449.28,-189.23"/>
</a>
</g>
</g>
<!-- Node10&#45;&gt;Node6 -->
<g id="edge11_Node000010_Node000006" class="edge">
<title>Node10&#45;&gt;Node6</title>
<g id="a_edge11_Node000010_Node000006"><a xlink:title=" ">
<path fill="none" stroke="#63b8ff" d="M341.36,-99.16C351.28,-101.82 361.56,-104.92 371,-108.38 395.74,-117.44 422.29,-130.13 443.49,-141.04"/>
<polygon fill="#63b8ff" stroke="#63b8ff" points="441.61,-144.01 452.09,-145.53 444.85,-137.8 441.61,-144.01"/>
</a>
</g>
</g>
<!-- Node13 -->
<g id="Node000013" class="node">
<title>Node13</title>
<g id="a_Node000013"><a xlink:href="Domain_8cpp.html#aafa3e4fa6318b2f8740f4dbd50c367e5" target="_top" xlink:title="Extract the real part of each component of a complex 3&#45;vector.">
<polygon fill="white" stroke="#666666" points="502.88,-20.75 468.12,-20.75 468.12,0 502.88,0 502.88,-20.75"/>
<text xml:space="preserve" text-anchor="middle" x="485.5" y="-7.25" font-family="Helvetica,sans-Serif" font-size="10.00">real</text>
</a>
</g>
</g>
<!-- Node12&#45;&gt;Node13 -->
<g id="edge14_Node000012_Node000013" class="edge">
<title>Node12&#45;&gt;Node13</title>
<g id="a_edge14_Node000012_Node000013"><a xlink:title=" ">
<path fill="none" stroke="#63b8ff" d="M320.95,-10.38C357.18,-10.38 420.16,-10.38 456.48,-10.38"/>
<polygon fill="#63b8ff" stroke="#63b8ff" points="456.19,-13.88 466.19,-10.38 456.19,-6.88 456.19,-13.88"/>
</a>
</g>
</g>
<!-- Node13&#45;&gt;Node13 -->
<g id="edge15_Node000013_Node000013" class="edge">
<title>Node13&#45;&gt;Node13</title>
<g id="a_edge15_Node000013_Node000013"><a xlink:title=" ">
<path fill="none" stroke="#63b8ff" d="M467.97,-14.85C438.11,-24.78 443.95,-38.75 485.5,-38.75 521.2,-38.75 530.54,-28.43 513.51,-19.23"/>
<polygon fill="#63b8ff" stroke="#63b8ff" points="515,-16.06 504.42,-15.43 512.3,-22.52 515,-16.06"/>
</a>
</g>
</g>
</g>
</svg>
