<?xml version="1.0" encoding="UTF-8" standalone="no"?>
<!DOCTYPE svg PUBLIC "-//W3C//DTD SVG 1.1//EN"
 "http://www.w3.org/Graphics/SVG/1.1/DTD/svg11.dtd">
<!-- Generated by graphviz version 13.1.2 (20250809.0930)
 -->
<!-- Title: GreenFHom3DPer2D::AboveThresholdTranslate Pages: 1 -->
<svg width="354pt" height="68pt"
 viewBox="0.00 0.00 354.00 68.00" xmlns="http://www.w3.org/2000/svg" xmlns:xlink="http://www.w3.org/1999/xlink">
<g id="graph0" class="graph" transform="scale(1 1) rotate(0) translate(4 63.75)">
<title>GreenFHom3DPer2D::AboveThresholdTranslate</title>
<!-- Node1 -->
<g id="Node000001" class="node">
<title>Node1</title>
<g id="a_Node000001"><a xlink:title="Far/near heuristic for translated triangle pairs.">
<polygon fill="#999999" stroke="#666666" points="202,-46.12 0,-46.12 0,-12.62 202,-12.62 202,-46.12"/>
<text xml:space="preserve" text-anchor="start" x="8" y="-32.62" font-family="Helvetica,sans-Serif" font-size="10.00">GreenFHom3DPer2D::AboveThreshold</text>
<text xml:space="preserve" text-anchor="middle" x="101" y="-19.88" font-family="Helvetica,sans-Serif" font-size="10.00">Translate</text>
</a>
</g>
</g>
<!-- Node2 -->
<g id="Node000002" class="node">
<title>Node2</title>
<g id="a_Node000002"><a xlink:href="classTriangle.html#ab78508a340ec5d345adf114b43563dbf" target="_top" xlink:title="Centroid of the triangle.">
<polygon fill="white" stroke="#666666" points="338.38,-59.75 245.88,-59.75 245.88,-39 338.38,-39 338.38,-59.75"/>
<text xml:space="preserve" text-anchor="middle" x="292.12" y="-46.25" font-family="Helvetica,sans-Serif" font-size="10.00">Triangle::Center</text>
</a>
</g>
</g>
<!-- Node1&#45;&gt;Node2 -->
<g id="edge1_Node000001_Node000002" class="edge">
<title>Node1&#45;&gt;Node2</title>
<g id="a_edge1_Node000001_Node000002"><a xlink:title=" ">
<path fill="none" stroke="#63b8ff" d="M202.38,-39.99C213.43,-41.16 224.37,-42.32 234.6,-43.4"/>
<polygon fill="#63b8ff" stroke="#63b8ff" points="233.99,-46.85 244.31,-44.42 234.73,-39.89 233.99,-46.85"/>
</a>
</g>
</g>
<!-- Node3 -->
<g id="Node000003" class="node">
<title>Node3</title>
<g id="a_Node000003"><a xlink:href="classTriangle.html#a6e7daa074db3d147b33763bfd2a6e83b" target="_top" xlink:title="Perimeter (sum of edge lengths).">
<polygon fill="white" stroke="#666666" points="346.25,-20.75 238,-20.75 238,0 346.25,0 346.25,-20.75"/>
<text xml:space="preserve" text-anchor="middle" x="292.12" y="-7.25" font-family="Helvetica,sans-Serif" font-size="10.00">Triangle::Perimeter</text>
</a>
</g>
</g>
<!-- Node1&#45;&gt;Node3 -->
<g id="edge2_Node000001_Node000003" class="edge">
<title>Node1&#45;&gt;Node3</title>
<g id="a_edge2_Node000001_Node000003"><a xlink:title=" ">
<path fill="none" stroke="#63b8ff" d="M202.38,-19.29C210.57,-18.47 218.71,-17.65 226.55,-16.86"/>
<polygon fill="#63b8ff" stroke="#63b8ff" points="226.67,-20.37 236.27,-15.89 225.97,-13.4 226.67,-20.37"/>
</a>
</g>
</g>
</g>
</svg>
