<?xml version="1.0" encoding="UTF-8" standalone="no"?>
<!DOCTYPE svg PUBLIC "-//W3C//DTD SVG 1.1//EN"
 "http://www.w3.org/Graphics/SVG/1.1/DTD/svg11.dtd">
<!-- Generated by graphviz version 13.1.2 (20250809.0930)
 -->
<!-- Title: GreenFHom3DPer2D::Ewald Pages: 1 -->
<svg width="659pt" height="125pt"
 viewBox="0.00 0.00 659.00 125.00" xmlns="http://www.w3.org/2000/svg" xmlns:xlink="http://www.w3.org/1999/xlink">
<g id="graph0" class="graph" transform="scale(1 1) rotate(0) translate(4 120.75)">
<title>GreenFHom3DPer2D::Ewald</title>
<!-- Node1 -->
<g id="Node000001" class="node">
<title>Node1</title>
<g id="a_Node000001"><a xlink:title="Ewald&#45;summed scalar kernel (2D periodic).">
<polygon fill="#999999" stroke="#666666" points="152.5,-59.75 0,-59.75 0,-39 152.5,-39 152.5,-59.75"/>
<text xml:space="preserve" text-anchor="middle" x="76.25" y="-46.25" font-family="Helvetica,sans-Serif" font-size="10.00">GreenFHom3DPer2D::Ewald</text>
</a>
</g>
</g>
<!-- Node2 -->
<g id="Node000002" class="node">
<title>Node2</title>
<g id="a_Node000002"><a xlink:href="classGreenFHom3DPer2D.html#a1bf2f1eb77a84b027b99ec75d31c8576" target="_top" xlink:title="Spatial (real&#45;space images) part of Ewald sum.">
<polygon fill="white" stroke="#666666" points="377.75,-98.75 191.5,-98.75 191.5,-78 377.75,-78 377.75,-98.75"/>
<text xml:space="preserve" text-anchor="middle" x="284.62" y="-85.25" font-family="Helvetica,sans-Serif" font-size="10.00">GreenFHom3DPer2D::EwaldSpatial</text>
</a>
</g>
</g>
<!-- Node1&#45;&gt;Node2 -->
<g id="edge1_Node000001_Node000002" class="edge">
<title>Node1&#45;&gt;Node2</title>
<g id="a_edge1_Node000001_Node000002"><a xlink:title=" ">
<path fill="none" stroke="#63b8ff" d="M134.74,-60.24C159.57,-64.93 188.82,-70.46 214.8,-75.37"/>
<polygon fill="#63b8ff" stroke="#63b8ff" points="214.13,-78.8 224.6,-77.22 215.43,-71.92 214.13,-78.8"/>
</a>
</g>
</g>
<!-- Node7 -->
<g id="Node000007" class="node">
<title>Node7</title>
<g id="a_Node000007"><a xlink:href="classGreenFHom3DPer2D.html#aad98b9953626259eda54006eecbcf04e" target="_top" xlink:title="Spectral (reciprocal&#45;lattice) part of Ewald sum for .">
<polygon fill="white" stroke="#666666" points="380.75,-59.75 188.5,-59.75 188.5,-39 380.75,-39 380.75,-59.75"/>
<text xml:space="preserve" text-anchor="middle" x="284.62" y="-46.25" font-family="Helvetica,sans-Serif" font-size="10.00">GreenFHom3DPer2D::EwaldSpectral</text>
</a>
</g>
</g>
<!-- Node1&#45;&gt;Node7 -->
<g id="edge7_Node000001_Node000007" class="edge">
<title>Node1&#45;&gt;Node7</title>
<g id="a_edge7_Node000001_Node000007"><a xlink:title=" ">
<path fill="none" stroke="#63b8ff" d="M152.92,-49.38C160.74,-49.38 168.79,-49.38 176.87,-49.38"/>
<polygon fill="#63b8ff" stroke="#63b8ff" points="176.77,-52.88 186.77,-49.38 176.77,-45.88 176.77,-52.88"/>
</a>
</g>
</g>
<!-- Node9 -->
<g id="Node000009" class="node">
<title>Node9</title>
<g id="a_Node000009"><a xlink:href="classGreenFHom3DPer2D.html#a098b4d59dde268718483b4ac9906e446" target="_top" xlink:title="Map a displacement to the primitive cell.">
<polygon fill="white" stroke="#666666" points="377.75,-20.75 191.5,-20.75 191.5,0 377.75,0 377.75,-20.75"/>
<text xml:space="preserve" text-anchor="middle" x="284.62" y="-7.25" font-family="Helvetica,sans-Serif" font-size="10.00">GreenFHom3DPer2D::PrimitiveCell</text>
</a>
</g>
</g>
<!-- Node1&#45;&gt;Node9 -->
<g id="edge11_Node000001_Node000009" class="edge">
<title>Node1&#45;&gt;Node9</title>
<g id="a_edge11_Node000001_Node000009"><a xlink:title=" ">
<path fill="none" stroke="#63b8ff" d="M134.74,-38.51C159.57,-33.82 188.82,-28.29 214.8,-23.38"/>
<polygon fill="#63b8ff" stroke="#63b8ff" points="215.43,-26.83 224.6,-21.53 214.13,-19.95 215.43,-26.83"/>
</a>
</g>
</g>
<!-- Node3 -->
<g id="Node000003" class="node">
<title>Node3</title>
<g id="a_Node000003"><a xlink:href="classGreenF.html#abf00726011a4eca4109bc43125218d30" target="_top" xlink:title="Evaluate erfc via the 2D lookup table if available.">
<polygon fill="white" stroke="#666666" points="504,-98.75 416.75,-98.75 416.75,-78 504,-78 504,-98.75"/>
<text xml:space="preserve" text-anchor="middle" x="460.38" y="-85.25" font-family="Helvetica,sans-Serif" font-size="10.00">GreenF::EvErfc</text>
</a>
</g>
</g>
<!-- Node2&#45;&gt;Node3 -->
<g id="edge2_Node000002_Node000003" class="edge">
<title>Node2&#45;&gt;Node3</title>
<g id="a_edge2_Node000002_Node000003"><a xlink:title=" ">
<path fill="none" stroke="#63b8ff" d="M378.1,-88.38C387.35,-88.38 396.51,-88.38 405.17,-88.38"/>
<polygon fill="#63b8ff" stroke="#63b8ff" points="405.11,-91.88 415.11,-88.38 405.11,-84.88 405.11,-91.88"/>
</a>
</g>
</g>
<!-- Node4 -->
<g id="Node000004" class="node">
<title>Node4</title>
<g id="a_Node000004"><a xlink:href="mathFunctions_8cpp.html#a7916c6b62310fe9cf38ec2a2890aaad4" target="_top" xlink:title="Complementary error function for complex arguments.">
<polygon fill="white" stroke="#666666" points="580,-116.75 540,-116.75 540,-96 580,-96 580,-116.75"/>
<text xml:space="preserve" text-anchor="middle" x="560" y="-103.25" font-family="Helvetica,sans-Serif" font-size="10.00">cerfc</text>
</a>
</g>
</g>
<!-- Node3&#45;&gt;Node4 -->
<g id="edge3_Node000003_Node000004" class="edge">
<title>Node3&#45;&gt;Node4</title>
<g id="a_edge3_Node000003_Node000004"><a xlink:title=" ">
<path fill="none" stroke="#63b8ff" d="M504.48,-96.32C512.52,-97.81 520.78,-99.33 528.35,-100.72"/>
<polygon fill="#63b8ff" stroke="#63b8ff" points="527.61,-104.15 538.08,-102.52 528.88,-97.26 527.61,-104.15"/>
</a>
</g>
</g>
<!-- Node6 -->
<g id="Node000006" class="node">
<title>Node6</title>
<g id="a_Node000006"><a xlink:href="Domain_8cpp.html#aafa3e4fa6318b2f8740f4dbd50c367e5" target="_top" xlink:title="Extract the real part of each component of a complex 3&#45;vector.">
<polygon fill="white" stroke="#666666" points="577.38,-59.75 542.62,-59.75 542.62,-39 577.38,-39 577.38,-59.75"/>
<text xml:space="preserve" text-anchor="middle" x="560" y="-46.25" font-family="Helvetica,sans-Serif" font-size="10.00">real</text>
</a>
</g>
</g>
<!-- Node3&#45;&gt;Node6 -->
<g id="edge5_Node000003_Node000006" class="edge">
<title>Node3&#45;&gt;Node6</title>
<g id="a_edge5_Node000003_Node000006"><a xlink:title=" ">
<path fill="none" stroke="#63b8ff" d="M488.57,-77.51C502.06,-72.12 518.3,-65.63 531.79,-60.24"/>
<polygon fill="#63b8ff" stroke="#63b8ff" points="532.96,-63.55 540.95,-56.59 530.36,-57.05 532.96,-63.55"/>
</a>
</g>
</g>
<!-- Node5 -->
<g id="Node000005" class="node">
<title>Node5</title>
<g id="a_Node000005"><a xlink:href="mathFunctions_8cpp.html#abc57cde75234d7e165a9ebcdb45f2c29" target="_top" xlink:title="Error function for complex arguments.">
<polygon fill="white" stroke="#666666" points="650.75,-116.75 616,-116.75 616,-96 650.75,-96 650.75,-116.75"/>
<text xml:space="preserve" text-anchor="middle" x="633.38" y="-103.25" font-family="Helvetica,sans-Serif" font-size="10.00">cerf</text>
</a>
</g>
</g>
<!-- Node4&#45;&gt;Node5 -->
<g id="edge4_Node000004_Node000005" class="edge">
<title>Node4&#45;&gt;Node5</title>
<g id="a_edge4_Node000004_Node000005"><a xlink:title=" ">
<path fill="none" stroke="#63b8ff" d="M580.13,-106.38C587.56,-106.38 596.23,-106.38 604.34,-106.38"/>
<polygon fill="#63b8ff" stroke="#63b8ff" points="604.11,-109.88 614.11,-106.38 604.11,-102.88 604.11,-109.88"/>
</a>
</g>
</g>
<!-- Node6&#45;&gt;Node6 -->
<g id="edge6_Node000006_Node000006" class="edge">
<title>Node6&#45;&gt;Node6</title>
<g id="a_edge6_Node000006_Node000006"><a xlink:title=" ">
<path fill="none" stroke="#63b8ff" d="M548.18,-60.15C543.45,-68.81 547.39,-77.75 560,-77.75 566.7,-77.75 570.95,-75.23 572.76,-71.56"/>
<polygon fill="#63b8ff" stroke="#63b8ff" points="576.25,-71.34 571.95,-61.66 569.28,-71.91 576.25,-71.34"/>
</a>
</g>
</g>
<!-- Node7&#45;&gt;Node3 -->
<g id="edge10_Node000007_Node000003" class="edge">
<title>Node7&#45;&gt;Node3</title>
<g id="a_edge10_Node000007_Node000003"><a xlink:title=" ">
<path fill="none" stroke="#63b8ff" d="M338.52,-60.2C352.28,-63.1 367.09,-66.29 380.75,-69.38 388.75,-71.18 397.2,-73.16 405.47,-75.12"/>
<polygon fill="#63b8ff" stroke="#63b8ff" points="404.57,-78.51 415.11,-77.44 406.2,-71.7 404.57,-78.51"/>
</a>
</g>
</g>
<!-- Node8 -->
<g id="Node000008" class="node">
<title>Node8</title>
<g id="a_Node000008"><a xlink:href="group__greenFunction.html#gac0a52dce23be7dacdf97c68653b6c137" target="_top" xlink:title="Complex square root with a branch cut along the negative real axis.">
<polygon fill="white" stroke="#666666" points="480.38,-59.75 440.38,-59.75 440.38,-39 480.38,-39 480.38,-59.75"/>
<text xml:space="preserve" text-anchor="middle" x="460.38" y="-46.25" font-family="Helvetica,sans-Serif" font-size="10.00">csqrt</text>
</a>
</g>
</g>
<!-- Node7&#45;&gt;Node8 -->
<g id="edge8_Node000007_Node000008" class="edge">
<title>Node7&#45;&gt;Node8</title>
<g id="a_edge8_Node000007_Node000008"><a xlink:title=" ">
<path fill="none" stroke="#63b8ff" d="M381.14,-49.38C398.29,-49.38 414.98,-49.38 428.51,-49.38"/>
<polygon fill="#63b8ff" stroke="#63b8ff" points="428.46,-52.88 438.46,-49.38 428.46,-45.88 428.46,-52.88"/>
</a>
</g>
</g>
<!-- Node8&#45;&gt;Node6 -->
<g id="edge9_Node000008_Node000006" class="edge">
<title>Node8&#45;&gt;Node6</title>
<g id="a_edge9_Node000008_Node000006"><a xlink:title=" ">
<path fill="none" stroke="#63b8ff" d="M480.66,-49.38C495.01,-49.38 514.81,-49.38 530.91,-49.38"/>
<polygon fill="#63b8ff" stroke="#63b8ff" points="530.84,-52.88 540.84,-49.38 530.84,-45.88 530.84,-52.88"/>
</a>
</g>
</g>
</g>
</svg>
