<?xml version="1.0" encoding="UTF-8" standalone="no"?>
<!DOCTYPE svg PUBLIC "-//W3C//DTD SVG 1.1//EN"
 "http://www.w3.org/Graphics/SVG/1.1/DTD/svg11.dtd">
<!-- Generated by graphviz version 13.1.2 (20250809.0930)
 -->
<!-- Title: SimJob::LoadDomain Pages: 1 -->
<svg width="495pt" height="107pt"
 viewBox="0.00 0.00 495.00 107.00" xmlns="http://www.w3.org/2000/svg" xmlns:xlink="http://www.w3.org/1999/xlink">

<svg id="main" version="1.1" xmlns="http://www.w3.org/2000/svg" xmlns:xlink="http://www.w3.org/1999/xlink" xml:space="preserve">

<style type="text/css"><![CDATA[
.node, .edge {opacity: 0.7;}
.node.selected, .edge.selected {opacity: 1;}
.edge:hover path { stroke: red; }
.edge:hover polygon { stroke: red; fill: red; }
]]></style>
<script type="application/ecmascript" xlink:href="svg.min.js"/>
<svg id="graph" class="graph">
<g id="graph0" class="graph" transform="scale(1 1) rotate(0) translate(4 102.75)">
<title>SimJob::LoadDomain</title>
<!-- Node1 -->
<g id="Node000001" class="node">
<title>Node1</title>
<g id="a_Node000001"><a xlink:title="Parse and load homogeneous domain definition from .">
<polygon fill="#999999" stroke="#666666" points="487,-59.75 369.75,-59.75 369.75,-39 487,-39 487,-59.75"/>
<text xml:space="preserve" text-anchor="middle" x="428.38" y="-46.25" font-family="Helvetica,sans-Serif" font-size="10.00">SimJob::LoadDomain</text>
</a>
</g>
</g>
<!-- Node2 -->
<g id="Node000002" class="node">
<title>Node2</title>
<g id="a_Node000002"><a xlink:href="classSimJob.html#a83d402c189aeefdce43afbd3cb66f709" target="_top" xlink:title="Parse a full &#160;block from the already&#45;open JobParser.">
<polygon fill="white" stroke="#666666" points="333.75,-59.75 212.75,-59.75 212.75,-39 333.75,-39 333.75,-59.75"/>
<text xml:space="preserve" text-anchor="middle" x="273.25" y="-46.25" font-family="Helvetica,sans-Serif" font-size="10.00">SimJob::LoadFromFile</text>
</a>
</g>
</g>
<!-- Node1&#45;&gt;Node2 -->
<g id="edge1_Node000001_Node000002" class="edge">
<title>Node1&#45;&gt;Node2</title>
<g id="a_edge1_Node000001_Node000002"><a xlink:title=" ">
<path fill="none" stroke="#63b8ff" d="M358.19,-49.38C350.11,-49.38 341.93,-49.38 334.01,-49.38"/>
<polygon fill="#63b8ff" stroke="#63b8ff" points="357.97,-52.88 367.97,-49.38 357.97,-45.88 357.97,-52.88"/>
</a>
</g>
</g>
<!-- Node3 -->
<g id="Node000003" class="node">
<title>Node3</title>
<g id="a_Node000003"><a xlink:href="classSimJob.html#a12a443329f3e49a5a94a6af72403d93b" target="_top" xlink:title="Casimir workflow entry (uses gradient matrices if enabled).">
<polygon fill="white" stroke="#666666" points="173.38,-98.75 80.12,-98.75 80.12,-78 173.38,-78 173.38,-98.75"/>
<text xml:space="preserve" text-anchor="middle" x="126.75" y="-85.25" font-family="Helvetica,sans-Serif" font-size="10.00">SimJob::Casimir</text>
</a>
</g>
</g>
<!-- Node2&#45;&gt;Node3 -->
<g id="edge2_Node000002_Node000003" class="edge">
<title>Node2&#45;&gt;Node3</title>
<g id="a_edge2_Node000002_Node000003"><a xlink:title=" ">
<path fill="none" stroke="#63b8ff" d="M220.89,-63.24C203.53,-67.92 184.41,-73.08 168.04,-77.5"/>
<polygon fill="#63b8ff" stroke="#63b8ff" points="221.79,-66.62 230.54,-60.63 219.97,-59.86 221.79,-66.62"/>
</a>
</g>
</g>
<!-- Node5 -->
<g id="Node000005" class="node">
<title>Node5</title>
<g id="a_Node000005"><a xlink:href="classSimJob.html#a20b37e2e0aa2502a3ec465a5705b1774" target="_top" xlink:title="Evaluate fields on a set of points read from a file.">
<polygon fill="white" stroke="#666666" points="176.75,-59.75 76.75,-59.75 76.75,-39 176.75,-39 176.75,-59.75"/>
<text xml:space="preserve" text-anchor="middle" x="126.75" y="-46.25" font-family="Helvetica,sans-Serif" font-size="10.00">SimJob::FieldEval</text>
</a>
</g>
</g>
<!-- Node2&#45;&gt;Node5 -->
<g id="edge4_Node000002_Node000005" class="edge">
<title>Node2&#45;&gt;Node5</title>
<g id="a_edge4_Node000002_Node000005"><a xlink:title=" ">
<path fill="none" stroke="#63b8ff" d="M201.19,-49.38C193.04,-49.38 184.88,-49.38 177.11,-49.38"/>
<polygon fill="#63b8ff" stroke="#63b8ff" points="201.13,-52.88 211.13,-49.38 201.13,-45.88 201.13,-52.88"/>
</a>
</g>
</g>
<!-- Node7 -->
<g id="Node000007" class="node">
<title>Node7</title>
<g id="a_Node000007"><a xlink:href="classSimJob.html#aeca9fd8ceee84fdef75996581fe1093a" target="_top" xlink:title="High&#45;level entry: run a simulation for a given job file.">
<polygon fill="white" stroke="#666666" points="176.38,-20.75 77.12,-20.75 77.12,0 176.38,0 176.38,-20.75"/>
<text xml:space="preserve" text-anchor="middle" x="126.75" y="-7.25" font-family="Helvetica,sans-Serif" font-size="10.00">SimJob::Simulate</text>
</a>
</g>
</g>
<!-- Node2&#45;&gt;Node7 -->
<g id="edge6_Node000002_Node000007" class="edge">
<title>Node2&#45;&gt;Node7</title>
<g id="a_edge6_Node000002_Node000007"><a xlink:title=" ">
<path fill="none" stroke="#63b8ff" d="M220.89,-35.51C203.53,-30.83 184.41,-25.67 168.04,-21.25"/>
<polygon fill="#63b8ff" stroke="#63b8ff" points="219.97,-38.89 230.54,-38.12 221.79,-32.13 219.97,-38.89"/>
</a>
</g>
</g>
<!-- Node4 -->
<g id="Node000004" class="node">
<title>Node4</title>
<g id="a_Node000004"><a xlink:href="casimir_8cpp.html#a0ddf1224851353fc92bfbff6f499fa97" target="_top" xlink:title="Main driver routine for the simulation program.">
<polygon fill="white" stroke="#666666" points="40.75,-98.75 0,-98.75 0,-78 40.75,-78 40.75,-98.75"/>
<text xml:space="preserve" text-anchor="middle" x="20.38" y="-85.25" font-family="Helvetica,sans-Serif" font-size="10.00">main</text>
</a>
</g>
</g>
<!-- Node3&#45;&gt;Node4 -->
<g id="edge3_Node000003_Node000004" class="edge">
<title>Node3&#45;&gt;Node4</title>
<g id="a_edge3_Node000003_Node000004"><a xlink:title=" ">
<path fill="none" stroke="#63b8ff" d="M68.19,-88.38C58.44,-88.38 48.95,-88.38 41.08,-88.38"/>
<polygon fill="#63b8ff" stroke="#63b8ff" points="68.15,-91.88 78.15,-88.38 68.15,-84.88 68.15,-91.88"/>
</a>
</g>
</g>
<!-- Node6 -->
<g id="Node000006" class="node">
<title>Node6</title>
<g id="a_Node000006"><a xlink:href="main_8cpp.html#a0ddf1224851353fc92bfbff6f499fa97" target="_top" xlink:title="Main driver routine for the HELIOS SIE simulation program.">
<polygon fill="white" stroke="#666666" points="40.75,-40.75 0,-40.75 0,-20 40.75,-20 40.75,-40.75"/>
<text xml:space="preserve" text-anchor="middle" x="20.38" y="-27.25" font-family="Helvetica,sans-Serif" font-size="10.00">main</text>
</a>
</g>
</g>
<!-- Node5&#45;&gt;Node6 -->
<g id="edge5_Node000005_Node000006" class="edge">
<title>Node5&#45;&gt;Node6</title>
<g id="a_edge5_Node000005_Node000006"><a xlink:title=" ">
<path fill="none" stroke="#63b8ff" d="M65.26,-38.36C56.6,-36.79 48.26,-35.27 41.22,-33.99"/>
<polygon fill="#63b8ff" stroke="#63b8ff" points="64.36,-41.76 74.82,-40.1 65.61,-34.87 64.36,-41.76"/>
</a>
</g>
</g>
<!-- Node7&#45;&gt;Node6 -->
<g id="edge7_Node000007_Node000006" class="edge">
<title>Node7&#45;&gt;Node6</title>
<g id="a_edge7_Node000007_Node000006"><a xlink:title=" ">
<path fill="none" stroke="#63b8ff" d="M65.69,-21.88C56.88,-23.57 48.38,-25.2 41.22,-26.57"/>
<polygon fill="#63b8ff" stroke="#63b8ff" points="66.27,-25.34 75.44,-20.02 64.96,-18.46 66.27,-25.34"/>
</a>
</g>
</g>
</g>
</svg>
</svg>

<style type='text/css'>
<![CDATA[
[data-mouse-over-selected='false'] { opacity: 0.7; }
[data-mouse-over-selected='true']  { opacity: 1.0; }
]]>
</style>
<script type="application/ecmascript"><![CDATA[
document.addEventListener('DOMContentLoaded', (event) => {
  highlightEdges();
  highlightAdjacentNodes();
});
]]></script>
</svg>
