<?xml version="1.0" encoding="UTF-8" standalone="no"?>
<!DOCTYPE svg PUBLIC "-//W3C//DTD SVG 1.1//EN"
 "http://www.w3.org/Graphics/SVG/1.1/DTD/svg11.dtd">
<!-- Generated by graphviz version 13.1.2 (20250809.0930)
 -->
<!-- Title: GreenF::GreenF Pages: 1 -->
<svg width="1003pt" height="301pt"
 viewBox="0.00 0.00 1003.00 301.00" xmlns="http://www.w3.org/2000/svg" xmlns:xlink="http://www.w3.org/1999/xlink">
<g id="graph0" class="graph" transform="scale(1 1) rotate(0) translate(4 297.12)">
<title>GreenF::GreenF</title>
<!-- Node1 -->
<g id="Node000001" class="node">
<title>Node1</title>
<g id="a_Node000001"><a xlink:title="Constructor for a homogeneous, non&#45;magnetic medium.">
<polygon fill="#999999" stroke="#666666" points="995,-98.75 903.25,-98.75 903.25,-78 995,-78 995,-98.75"/>
<text xml:space="preserve" text-anchor="middle" x="949.12" y="-85.25" font-family="Helvetica,sans-Serif" font-size="10.00">GreenF::GreenF</text>
</a>
</g>
</g>
<!-- Node2 -->
<g id="Node000002" class="node">
<title>Node2</title>
<g id="a_Node000002"><a xlink:href="classGreenFHom3D.html#ac928f16e6e79c75c002d9a721a8858d8" target="_top" xlink:title="Default constructor (initializes with zeroed wavenumber and no lookup table).">
<polygon fill="white" stroke="#666666" points="851.5,-176.75 685.5,-176.75 685.5,-156 851.5,-156 851.5,-176.75"/>
<text xml:space="preserve" text-anchor="middle" x="768.5" y="-163.25" font-family="Helvetica,sans-Serif" font-size="10.00">GreenFHom3D::GreenFHom3D</text>
</a>
</g>
</g>
<!-- Node1&#45;&gt;Node2 -->
<g id="edge1_Node000001_Node000002" class="edge">
<title>Node1&#45;&gt;Node2</title>
<g id="a_edge1_Node000001_Node000002"><a xlink:title=" ">
<path fill="none" stroke="#63b8ff" d="M927.81,-106.67C912.29,-119.68 889.8,-136.52 867.25,-146.38 858.84,-150.05 849.72,-153.06 840.55,-155.53"/>
<polygon fill="#63b8ff" stroke="#63b8ff" points="930.08,-109.34 935.37,-100.16 925.51,-104.04 930.08,-109.34"/>
</a>
</g>
</g>
<!-- Node15 -->
<g id="Node000015" class="node">
<title>Node15</title>
<g id="a_Node000015"><a xlink:href="classGreenFHom3D.html#a59f5ce23b99f97eaa6dedf90284ed6e3" target="_top" xlink:title="Construct for a homogeneous, non&#45;magnetic medium.">
<polygon fill="white" stroke="#666666" points="851.5,-137.75 685.5,-137.75 685.5,-117 851.5,-117 851.5,-137.75"/>
<text xml:space="preserve" text-anchor="middle" x="768.5" y="-124.25" font-family="Helvetica,sans-Serif" font-size="10.00">GreenFHom3D::GreenFHom3D</text>
</a>
</g>
</g>
<!-- Node1&#45;&gt;Node15 -->
<g id="edge14_Node000001_Node000015" class="edge">
<title>Node1&#45;&gt;Node15</title>
<g id="a_edge14_Node000001_Node000015"><a xlink:title=" ">
<path fill="none" stroke="#63b8ff" d="M892.08,-101.76C883.76,-103.69 875.29,-105.61 867.25,-107.38 853.21,-110.46 838,-113.65 823.85,-116.55"/>
<polygon fill="#63b8ff" stroke="#63b8ff" points="892.84,-105.18 901.79,-99.5 891.25,-98.36 892.84,-105.18"/>
</a>
</g>
</g>
<!-- Node16 -->
<g id="Node000016" class="node">
<title>Node16</title>
<g id="a_Node000016"><a xlink:href="classGreenFHom3D.html#a2947b2c6b81ce78024413a994702dad7" target="_top" xlink:title="Construct for a homogeneous, magnetic medium.">
<polygon fill="white" stroke="#666666" points="851.5,-98.75 685.5,-98.75 685.5,-78 851.5,-78 851.5,-98.75"/>
<text xml:space="preserve" text-anchor="middle" x="768.5" y="-85.25" font-family="Helvetica,sans-Serif" font-size="10.00">GreenFHom3D::GreenFHom3D</text>
</a>
</g>
</g>
<!-- Node1&#45;&gt;Node16 -->
<g id="edge15_Node000001_Node000016" class="edge">
<title>Node1&#45;&gt;Node16</title>
<g id="a_edge15_Node000001_Node000016"><a xlink:title=" ">
<path fill="none" stroke="#63b8ff" d="M891.72,-88.38C879.02,-88.38 865.29,-88.38 851.78,-88.38"/>
<polygon fill="#63b8ff" stroke="#63b8ff" points="891.54,-91.88 901.54,-88.38 891.54,-84.88 891.54,-91.88"/>
</a>
</g>
</g>
<!-- Node17 -->
<g id="Node000017" class="node">
<title>Node17</title>
<g id="a_Node000017"><a xlink:href="classGreenFLayered3D.html#a4f699484c9505951b38acc2cb5fa3194" target="_top" xlink:title="Construct layered Green&#39;s function (magnetic layers).">
<polygon fill="white" stroke="#666666" points="867.25,-59.75 669.75,-59.75 669.75,-39 867.25,-39 867.25,-59.75"/>
<text xml:space="preserve" text-anchor="middle" x="768.5" y="-46.25" font-family="Helvetica,sans-Serif" font-size="10.00">GreenFLayered3D::GreenFLayered3D</text>
</a>
</g>
</g>
<!-- Node1&#45;&gt;Node17 -->
<g id="edge16_Node000001_Node000017" class="edge">
<title>Node1&#45;&gt;Node17</title>
<g id="a_edge16_Node000001_Node000017"><a xlink:title=" ">
<path fill="none" stroke="#63b8ff" d="M892.08,-74.99C883.76,-73.06 875.29,-71.14 867.25,-69.38 853.21,-66.29 838,-63.1 823.85,-60.2"/>
<polygon fill="#63b8ff" stroke="#63b8ff" points="891.25,-78.39 901.79,-77.25 892.84,-71.57 891.25,-78.39"/>
</a>
</g>
</g>
<!-- Node18 -->
<g id="Node000018" class="node">
<title>Node18</title>
<g id="a_Node000018"><a xlink:href="classGreenFLayered3D.html#a865947398024c01996eba4018b9201b7" target="_top" xlink:title="Construct layered Green&#39;s function (non&#45;magnetic layers).">
<polygon fill="white" stroke="#666666" points="867.25,-20.75 669.75,-20.75 669.75,0 867.25,0 867.25,-20.75"/>
<text xml:space="preserve" text-anchor="middle" x="768.5" y="-7.25" font-family="Helvetica,sans-Serif" font-size="10.00">GreenFLayered3D::GreenFLayered3D</text>
</a>
</g>
</g>
<!-- Node1&#45;&gt;Node18 -->
<g id="edge17_Node000001_Node000018" class="edge">
<title>Node1&#45;&gt;Node18</title>
<g id="a_edge17_Node000001_Node000018"><a xlink:title=" ">
<path fill="none" stroke="#63b8ff" d="M927.81,-70.08C912.29,-57.07 889.8,-40.23 867.25,-30.38 858.84,-26.7 849.72,-23.69 840.55,-21.22"/>
<polygon fill="#63b8ff" stroke="#63b8ff" points="925.51,-72.71 935.37,-76.59 930.08,-67.41 925.51,-72.71"/>
</a>
</g>
</g>
<!-- Node3 -->
<g id="Node000003" class="node">
<title>Node3</title>
<g id="a_Node000003"><a xlink:href="classGreenFHom3DPer.html#aa37478b09d78cff44338edc1b4be41ac" target="_top" xlink:title="Homogeneous, magnetic constructor with Bloch vector.">
<polygon fill="white" stroke="#666666" points="633.75,-273.75 436.25,-273.75 436.25,-253 633.75,-253 633.75,-273.75"/>
<text xml:space="preserve" text-anchor="middle" x="535" y="-260.25" font-family="Helvetica,sans-Serif" font-size="10.00">GreenFHom3DPer::GreenFHom3DPer</text>
</a>
</g>
</g>
<!-- Node2&#45;&gt;Node3 -->
<g id="edge2_Node000002_Node000003" class="edge">
<title>Node2&#45;&gt;Node3</title>
<g id="a_edge2_Node000002_Node000003"><a xlink:title=" ">
<path fill="none" stroke="#63b8ff" d="M743.27,-183.53C717.35,-201.1 674.45,-227.96 633.75,-243.38 624.19,-247 613.85,-250.01 603.59,-252.5"/>
<polygon fill="#63b8ff" stroke="#63b8ff" points="745.15,-186.49 751.41,-177.94 741.18,-180.72 745.15,-186.49"/>
</a>
</g>
</g>
<!-- Node4 -->
<g id="Node000004" class="node">
<title>Node4</title>
<g id="a_Node000004"><a xlink:href="classGreenFHom3DPer.html#a414d2e05ac1b3d089e2a5556e6e16a93" target="_top" xlink:title="Homogeneous, non‑magnetic constructor with Bloch vector.">
<polygon fill="white" stroke="#666666" points="633.75,-234.75 436.25,-234.75 436.25,-214 633.75,-214 633.75,-234.75"/>
<text xml:space="preserve" text-anchor="middle" x="535" y="-221.25" font-family="Helvetica,sans-Serif" font-size="10.00">GreenFHom3DPer::GreenFHom3DPer</text>
</a>
</g>
</g>
<!-- Node2&#45;&gt;Node4 -->
<g id="edge3_Node000002_Node000004" class="edge">
<title>Node2&#45;&gt;Node4</title>
<g id="a_edge3_Node000002_Node000004"><a xlink:title=" ">
<path fill="none" stroke="#63b8ff" d="M721.3,-180.42C695.64,-187.99 663.06,-197.22 633.75,-204.38 620.54,-207.6 606.24,-210.73 592.76,-213.51"/>
<polygon fill="#63b8ff" stroke="#63b8ff" points="722.17,-183.82 730.76,-177.61 720.18,-177.11 722.17,-183.82"/>
</a>
</g>
</g>
<!-- Node11 -->
<g id="Node000011" class="node">
<title>Node11</title>
<g id="a_Node000011"><a xlink:href="classGreenFHom3D.html#aca136b03c44ad1da34acf91eb5a5e390" target="_top" xlink:title="term at an observation point.">
<polygon fill="white" stroke="#666666" points="617.25,-195.75 452.75,-195.75 452.75,-175 617.25,-175 617.25,-195.75"/>
<text xml:space="preserve" text-anchor="middle" x="535" y="-182.25" font-family="Helvetica,sans-Serif" font-size="10.00">GreenFHom3D::IntegrateDelta</text>
</a>
</g>
</g>
<!-- Node2&#45;&gt;Node11 -->
<g id="edge10_Node000002_Node000011" class="edge">
<title>Node2&#45;&gt;Node11</title>
<g id="a_edge10_Node000002_Node000011"><a xlink:title=" ">
<path fill="none" stroke="#63b8ff" d="M673.77,-174.07C655.16,-175.59 635.77,-177.19 617.62,-178.68"/>
<polygon fill="#63b8ff" stroke="#63b8ff" points="674.04,-177.56 683.72,-173.25 673.47,-170.58 674.04,-177.56"/>
</a>
</g>
</g>
<!-- Node12 -->
<g id="Node000012" class="node">
<title>Node12</title>
<g id="a_Node000012"><a xlink:href="classGreenFHom3D.html#a9cece8a4056d65455cfcc94c8c61decd" target="_top" xlink:title="term at an observation point.">
<polygon fill="white" stroke="#666666" points="619.5,-156.75 450.5,-156.75 450.5,-136 619.5,-136 619.5,-156.75"/>
<text xml:space="preserve" text-anchor="middle" x="535" y="-143.25" font-family="Helvetica,sans-Serif" font-size="10.00">GreenFHom3D::IntegrateKappa</text>
</a>
</g>
</g>
<!-- Node2&#45;&gt;Node12 -->
<g id="edge11_Node000002_Node000012" class="edge">
<title>Node2&#45;&gt;Node12</title>
<g id="a_edge11_Node000002_Node000012"><a xlink:title=" ">
<path fill="none" stroke="#63b8ff" d="M673.92,-158.29C656.07,-156.75 637.49,-155.14 619.96,-153.63"/>
<polygon fill="#63b8ff" stroke="#63b8ff" points="673.46,-161.76 683.72,-159.14 674.06,-154.79 673.46,-161.76"/>
</a>
</g>
</g>
<!-- Node13 -->
<g id="Node000013" class="node">
<title>Node13</title>
<g id="a_Node000013"><a xlink:href="classGreenFHom3D.html#a48e8471aabb445e0e50a01c005ff3b98" target="_top" xlink:title="Compute &#160;for all RWGs on a source triangle.">
<polygon fill="white" stroke="#666666" points="614.62,-118.12 455.38,-118.12 455.38,-84.62 614.62,-84.62 614.62,-118.12"/>
<text xml:space="preserve" text-anchor="start" x="463.38" y="-104.62" font-family="Helvetica,sans-Serif" font-size="10.00">GreenFHom3D::SameTriDelta</text>
<text xml:space="preserve" text-anchor="middle" x="535" y="-91.88" font-family="Helvetica,sans-Serif" font-size="10.00">Kappa</text>
</a>
</g>
</g>
<!-- Node2&#45;&gt;Node13 -->
<g id="edge12_Node000002_Node000013" class="edge">
<title>Node2&#45;&gt;Node13</title>
<g id="a_edge12_Node000002_Node000013"><a xlink:title=" ">
<path fill="none" stroke="#63b8ff" d="M690.28,-152.72C683.27,-150.84 676.33,-148.73 669.75,-146.38 652.72,-140.28 650.6,-133.96 633.75,-127.38 625.57,-124.18 616.86,-121.24 608.14,-118.57"/>
<polygon fill="#63b8ff" stroke="#63b8ff" points="689.31,-156.09 699.86,-155.13 691.02,-149.3 689.31,-156.09"/>
</a>
</g>
</g>
<!-- Node14 -->
<g id="Node000014" class="node">
<title>Node14</title>
<g id="a_Node000014"><a xlink:href="classGreenFHom3D.html#a419cbe00b5a2aed70ac546904a8a8d6f" target="_top" xlink:title="Compute &#160;and &#160;for all RWG pairs on two triangles.">
<polygon fill="white" stroke="#666666" points="608.62,-66.75 461.38,-66.75 461.38,-46 608.62,-46 608.62,-66.75"/>
<text xml:space="preserve" text-anchor="middle" x="535" y="-53.25" font-family="Helvetica,sans-Serif" font-size="10.00">GreenFHom3D::SameTriDK</text>
</a>
</g>
</g>
<!-- Node2&#45;&gt;Node14 -->
<g id="edge13_Node000002_Node000014" class="edge">
<title>Node2&#45;&gt;Node14</title>
<g id="a_edge13_Node000002_Node000014"><a xlink:title=" ">
<path fill="none" stroke="#63b8ff" d="M675.38,-150.25C673.44,-149.04 671.56,-147.75 669.75,-146.38 641.62,-124.92 661.98,-96.7 633.75,-75.38 626.44,-69.85 617.96,-65.8 609.12,-62.85"/>
<polygon fill="#63b8ff" stroke="#63b8ff" points="673.7,-153.32 684.17,-154.91 676.97,-147.14 673.7,-153.32"/>
</a>
</g>
</g>
<!-- Node5 -->
<g id="Node000005" class="node">
<title>Node5</title>
<g id="a_Node000005"><a xlink:href="classGreenFHom3DPer2D.html#ad3b0693d618bd75c472df152d72760e7" target="_top" xlink:title="Constructor for a magnetic medium (2D periodic).">
<polygon fill="white" stroke="#666666" points="400.25,-267.12 212.5,-267.12 212.5,-233.62 400.25,-233.62 400.25,-267.12"/>
<text xml:space="preserve" text-anchor="start" x="220.5" y="-253.62" font-family="Helvetica,sans-Serif" font-size="10.00">GreenFHom3DPer2D::GreenFHom3</text>
<text xml:space="preserve" text-anchor="middle" x="306.38" y="-240.88" font-family="Helvetica,sans-Serif" font-size="10.00">DPer2D</text>
</a>
</g>
</g>
<!-- Node4&#45;&gt;Node5 -->
<g id="edge4_Node000004_Node000005" class="edge">
<title>Node4&#45;&gt;Node5</title>
<g id="a_edge4_Node000004_Node000005"><a xlink:title=" ">
<path fill="none" stroke="#63b8ff" d="M428.3,-236.5C419.05,-237.56 409.74,-238.63 400.6,-239.68"/>
<polygon fill="#63b8ff" stroke="#63b8ff" points="428.49,-240 438.03,-235.39 427.69,-233.05 428.49,-240"/>
</a>
</g>
</g>
<!-- Node6 -->
<g id="Node000006" class="node">
<title>Node6</title>
<g id="a_Node000006"><a xlink:href="classGreenFHom3DPer2D.html#a6e7bfc8640c70e6dfaa9f8e14cb916ea" target="_top" xlink:title="Constructor for a non&#45;magnetic medium (2D periodic).">
<polygon fill="white" stroke="#666666" points="400.25,-215.12 212.5,-215.12 212.5,-181.62 400.25,-181.62 400.25,-215.12"/>
<text xml:space="preserve" text-anchor="start" x="220.5" y="-201.62" font-family="Helvetica,sans-Serif" font-size="10.00">GreenFHom3DPer2D::GreenFHom3</text>
<text xml:space="preserve" text-anchor="middle" x="306.38" y="-188.88" font-family="Helvetica,sans-Serif" font-size="10.00">DPer2D</text>
</a>
</g>
</g>
<!-- Node4&#45;&gt;Node6 -->
<g id="edge5_Node000004_Node000006" class="edge">
<title>Node4&#45;&gt;Node6</title>
<g id="a_edge5_Node000004_Node000006"><a xlink:title=" ">
<path fill="none" stroke="#63b8ff" d="M428.3,-212.25C419.05,-211.19 409.74,-210.12 400.6,-209.07"/>
<polygon fill="#63b8ff" stroke="#63b8ff" points="427.69,-215.7 438.03,-213.36 428.49,-208.75 427.69,-215.7"/>
</a>
</g>
</g>
<!-- Node7 -->
<g id="Node000007" class="node">
<title>Node7</title>
<g id="a_Node000007"><a xlink:href="classGreenFHom3DPer2D.html#a233c2185952220bd16acae2142f05cc1" target="_top" xlink:title="term at an observation point.">
<polygon fill="white" stroke="#666666" points="172,-293.12 4.5,-293.12 4.5,-259.62 172,-259.62 172,-293.12"/>
<text xml:space="preserve" text-anchor="start" x="12.5" y="-279.62" font-family="Helvetica,sans-Serif" font-size="10.00">GreenFHom3DPer2D::Integrate</text>
<text xml:space="preserve" text-anchor="middle" x="88.25" y="-266.88" font-family="Helvetica,sans-Serif" font-size="10.00">Delta</text>
</a>
</g>
</g>
<!-- Node6&#45;&gt;Node7 -->
<g id="edge6_Node000006_Node000007" class="edge">
<title>Node6&#45;&gt;Node7</title>
<g id="a_edge6_Node000006_Node000007"><a xlink:title=" ">
<path fill="none" stroke="#63b8ff" d="M223.33,-219.59C219.63,-221.09 216,-222.69 212.5,-224.38 194.72,-232.95 194.21,-241.66 176.5,-250.38 169.84,-253.66 162.68,-256.61 155.43,-259.24"/>
<polygon fill="#63b8ff" stroke="#63b8ff" points="224.4,-222.93 232.52,-216.11 221.93,-216.38 224.4,-222.93"/>
</a>
</g>
</g>
<!-- Node8 -->
<g id="Node000008" class="node">
<title>Node8</title>
<g id="a_Node000008"><a xlink:href="classGreenFHom3DPer2D.html#aadb534ef4509422e6f3e78a0e3999758" target="_top" xlink:title="term at an observation point.">
<polygon fill="white" stroke="#666666" points="172,-241.12 4.5,-241.12 4.5,-207.62 172,-207.62 172,-241.12"/>
<text xml:space="preserve" text-anchor="start" x="12.5" y="-227.62" font-family="Helvetica,sans-Serif" font-size="10.00">GreenFHom3DPer2D::Integrate</text>
<text xml:space="preserve" text-anchor="middle" x="88.25" y="-214.88" font-family="Helvetica,sans-Serif" font-size="10.00">Kappa</text>
</a>
</g>
</g>
<!-- Node6&#45;&gt;Node8 -->
<g id="edge7_Node000006_Node000008" class="edge">
<title>Node6&#45;&gt;Node8</title>
<g id="a_edge7_Node000006_Node000008"><a xlink:title=" ">
<path fill="none" stroke="#63b8ff" d="M200.91,-210.94C191.31,-212.1 181.67,-213.26 172.3,-214.38"/>
<polygon fill="#63b8ff" stroke="#63b8ff" points="201.14,-214.44 210.65,-209.77 200.3,-207.49 201.14,-214.44"/>
</a>
</g>
</g>
<!-- Node9 -->
<g id="Node000009" class="node">
<title>Node9</title>
<g id="a_Node000009"><a xlink:href="classGreenFHom3DPer2D.html#a84a8c855a27c895ff24f6771037284a5" target="_top" xlink:title="Compute &#160;for all RWGs on a source triangle.">
<polygon fill="white" stroke="#666666" points="169.38,-189.12 7.12,-189.12 7.12,-155.62 169.38,-155.62 169.38,-189.12"/>
<text xml:space="preserve" text-anchor="start" x="15.12" y="-175.62" font-family="Helvetica,sans-Serif" font-size="10.00">GreenFHom3DPer2D::SameTri</text>
<text xml:space="preserve" text-anchor="middle" x="88.25" y="-162.88" font-family="Helvetica,sans-Serif" font-size="10.00">DeltaKappa</text>
</a>
</g>
</g>
<!-- Node6&#45;&gt;Node9 -->
<g id="edge8_Node000006_Node000009" class="edge">
<title>Node6&#45;&gt;Node9</title>
<g id="a_edge8_Node000006_Node000009"><a xlink:title=" ">
<path fill="none" stroke="#63b8ff" d="M200.81,-185.8C190.32,-184.53 179.79,-183.27 169.61,-182.04"/>
<polygon fill="#63b8ff" stroke="#63b8ff" points="200.3,-189.26 210.65,-186.98 201.14,-182.31 200.3,-189.26"/>
</a>
</g>
</g>
<!-- Node10 -->
<g id="Node000010" class="node">
<title>Node10</title>
<g id="a_Node000010"><a xlink:href="classGreenFHom3DPer2D.html#a1dc9dd84c93ee10b2fb4b1866103d957" target="_top" xlink:title="Compute &#160;and &#160;for all RWG pairs on two triangles.">
<polygon fill="white" stroke="#666666" points="176.5,-137.75 0,-137.75 0,-117 176.5,-117 176.5,-137.75"/>
<text xml:space="preserve" text-anchor="middle" x="88.25" y="-124.25" font-family="Helvetica,sans-Serif" font-size="10.00">GreenFHom3DPer2D::SameTriDK</text>
</a>
</g>
</g>
<!-- Node6&#45;&gt;Node10 -->
<g id="edge9_Node000006_Node000010" class="edge">
<title>Node6&#45;&gt;Node10</title>
<g id="a_edge9_Node000006_Node000010"><a xlink:title=" ">
<path fill="none" stroke="#63b8ff" d="M257.08,-176.63C233.18,-166.45 203.69,-154.76 176.5,-146.38 166.57,-143.32 155.87,-140.56 145.47,-138.15"/>
<polygon fill="#63b8ff" stroke="#63b8ff" points="255.68,-179.84 266.25,-180.58 258.45,-173.41 255.68,-179.84"/>
</a>
</g>
</g>
</g>
</svg>
