<?xml version="1.0" encoding="UTF-8" standalone="no"?>
<!DOCTYPE svg PUBLIC "-//W3C//DTD SVG 1.1//EN"
 "http://www.w3.org/Graphics/SVG/1.1/DTD/svg11.dtd">
<!-- Generated by graphviz version 13.1.2 (20250809.0930)
 -->
<!-- Title: SingCancellation::commonVertex Pages: 1 -->
<svg width="376pt" height="60pt"
 viewBox="0.00 0.00 376.00 60.00" xmlns="http://www.w3.org/2000/svg" xmlns:xlink="http://www.w3.org/1999/xlink">
<g id="graph0" class="graph" transform="scale(1 1) rotate(0) translate(4 55.5)">
<title>SingCancellation::commonVertex</title>
<!-- Node1 -->
<g id="Node000001" class="node">
<title>Node1</title>
<g id="a_Node000001"><a xlink:title="Build paired quadrature for triangles sharing a single vertex.">
<polygon fill="#999999" stroke="#666666" points="368,-33.5 221.5,-33.5 221.5,0 368,0 368,-33.5"/>
<text xml:space="preserve" text-anchor="start" x="229.5" y="-20" font-family="Helvetica,sans-Serif" font-size="10.00">SingCancellation::common</text>
<text xml:space="preserve" text-anchor="middle" x="294.75" y="-7.25" font-family="Helvetica,sans-Serif" font-size="10.00">Vertex</text>
</a>
</g>
</g>
<!-- Node1&#45;&gt;Node1 -->
<g id="edge1_Node000001_Node000001" class="edge">
<title>Node1&#45;&gt;Node1</title>
<g id="a_edge1_Node000001_Node000001"><a xlink:title=" ">
<path fill="none" stroke="#63b8ff" d="M328.43,-45.05C322.83,-48.92 311.6,-51.5 294.75,-51.5 264.37,-51.5 252.27,-43.12 258.44,-33.91"/>
<polygon fill="#63b8ff" stroke="#63b8ff" points="331.82,-45.92 330.71,-35.39 325.01,-44.32 331.82,-45.92"/>
</a>
</g>
</g>
<!-- Node2 -->
<g id="Node000002" class="node">
<title>Node2</title>
<g id="a_Node000002"><a xlink:href="classSingCancellation.html#a8931df16b2dd06d74b1aa8a78eab4363" target="_top" xlink:title="Construct and immediately generate the paired quadrature for a triangle pair.">
<polygon fill="white" stroke="#666666" points="185.5,-27.12 0,-27.12 0,-6.38 185.5,-6.38 185.5,-27.12"/>
<text xml:space="preserve" text-anchor="middle" x="92.75" y="-13.62" font-family="Helvetica,sans-Serif" font-size="10.00">SingCancellation::SingCancellation</text>
</a>
</g>
</g>
<!-- Node1&#45;&gt;Node2 -->
<g id="edge2_Node000001_Node000002" class="edge">
<title>Node1&#45;&gt;Node2</title>
<g id="a_edge2_Node000001_Node000002"><a xlink:title=" ">
<path fill="none" stroke="#63b8ff" d="M209.78,-16.75C201.86,-16.75 193.8,-16.75 185.81,-16.75"/>
<polygon fill="#63b8ff" stroke="#63b8ff" points="209.75,-20.25 219.75,-16.75 209.75,-13.25 209.75,-20.25"/>
</a>
</g>
</g>
</g>
</svg>
