<?xml version="1.0" encoding="UTF-8" standalone="no"?>
<!DOCTYPE svg PUBLIC "-//W3C//DTD SVG 1.1//EN"
 "http://www.w3.org/Graphics/SVG/1.1/DTD/svg11.dtd">
<!-- Generated by graphviz version 13.1.2 (20250809.0930)
 -->
<!-- Title: GreenFHom3DPer2D::EwaldSpatial Pages: 1 -->
<svg width="598pt" height="80pt"
 viewBox="0.00 0.00 598.00 80.00" xmlns="http://www.w3.org/2000/svg" xmlns:xlink="http://www.w3.org/1999/xlink">
<g id="graph0" class="graph" transform="scale(1 1) rotate(0) translate(4 76.12)">
<title>GreenFHom3DPer2D::EwaldSpatial</title>
<!-- Node1 -->
<g id="Node000001" class="node">
<title>Node1</title>
<g id="a_Node000001"><a xlink:title="Spatial (real&#45;space images) part of Ewald sum.">
<polygon fill="#999999" stroke="#666666" points="590.25,-42.75 404,-42.75 404,-22 590.25,-22 590.25,-42.75"/>
<text xml:space="preserve" text-anchor="middle" x="497.12" y="-29.25" font-family="Helvetica,sans-Serif" font-size="10.00">GreenFHom3DPer2D::EwaldSpatial</text>
</a>
</g>
</g>
<!-- Node2 -->
<g id="Node000002" class="node">
<title>Node2</title>
<g id="a_Node000002"><a xlink:href="classGreenFHom3DPer2D.html#a268d4706bd313c8eadb38e26b15184f0" target="_top" xlink:title="Scalar &#160;for a specific lattice translation.">
<polygon fill="white" stroke="#666666" points="368,-72.12 202,-72.12 202,-38.62 368,-38.62 368,-72.12"/>
<text xml:space="preserve" text-anchor="start" x="210" y="-58.62" font-family="Helvetica,sans-Serif" font-size="10.00">GreenFHom3DPer2D::Evaluate</text>
<text xml:space="preserve" text-anchor="middle" x="285" y="-45.88" font-family="Helvetica,sans-Serif" font-size="10.00">Translate</text>
</a>
</g>
</g>
<!-- Node1&#45;&gt;Node2 -->
<g id="edge1_Node000001_Node000002" class="edge">
<title>Node1&#45;&gt;Node2</title>
<g id="a_edge1_Node000001_Node000002"><a xlink:title=" ">
<path fill="none" stroke="#63b8ff" d="M392.29,-43.74C384.23,-44.62 376.16,-45.51 368.27,-46.37"/>
<polygon fill="#63b8ff" stroke="#63b8ff" points="392.59,-47.23 402.15,-42.66 391.83,-40.27 392.59,-47.23"/>
</a>
</g>
</g>
<!-- Node3 -->
<g id="Node000003" class="node">
<title>Node3</title>
<g id="a_Node000003"><a xlink:href="classGreenFHom3DPer2D.html#a359a21bc178e1c0d21125f8af5ae4fcb" target="_top" xlink:title="Ewald&#45;summed scalar kernel (2D periodic).">
<polygon fill="white" stroke="#666666" points="361.25,-20.75 208.75,-20.75 208.75,0 361.25,0 361.25,-20.75"/>
<text xml:space="preserve" text-anchor="middle" x="285" y="-7.25" font-family="Helvetica,sans-Serif" font-size="10.00">GreenFHom3DPer2D::Ewald</text>
</a>
</g>
</g>
<!-- Node1&#45;&gt;Node3 -->
<g id="edge2_Node000001_Node000003" class="edge">
<title>Node1&#45;&gt;Node3</title>
<g id="a_edge2_Node000001_Node000003"><a xlink:title=" ">
<path fill="none" stroke="#63b8ff" d="M392.38,-21.51C381.96,-20.42 371.53,-19.33 361.49,-18.28"/>
<polygon fill="#63b8ff" stroke="#63b8ff" points="391.84,-24.98 402.15,-22.54 392.57,-18.01 391.84,-24.98"/>
</a>
</g>
</g>
<!-- Node4 -->
<g id="Node000004" class="node">
<title>Node4</title>
<g id="a_Node000004"><a xlink:href="classGreenFHom3DPer2D.html#a4fcccf5350453546ac226492ff19bcd0" target="_top" xlink:title="Scalar Bloch&#45;periodic Green&#39;s function .">
<polygon fill="white" stroke="#666666" points="166,-20.75 0,-20.75 0,0 166,0 166,-20.75"/>
<text xml:space="preserve" text-anchor="middle" x="83" y="-7.25" font-family="Helvetica,sans-Serif" font-size="10.00">GreenFHom3DPer2D::Evaluate</text>
</a>
</g>
</g>
<!-- Node3&#45;&gt;Node4 -->
<g id="edge3_Node000003_Node000004" class="edge">
<title>Node3&#45;&gt;Node4</title>
<g id="a_edge3_Node000003_Node000004"><a xlink:title=" ">
<path fill="none" stroke="#63b8ff" d="M197.01,-10.38C186.85,-10.38 176.5,-10.38 166.4,-10.38"/>
<polygon fill="#63b8ff" stroke="#63b8ff" points="196.88,-13.88 206.88,-10.38 196.88,-6.88 196.88,-13.88"/>
</a>
</g>
</g>
</g>
</svg>
