<?xml version="1.0" encoding="UTF-8" standalone="no"?>
<!DOCTYPE svg PUBLIC "-//W3C//DTD SVG 1.1//EN"
 "http://www.w3.org/Graphics/SVG/1.1/DTD/svg11.dtd">
<!-- Generated by graphviz version 13.1.2 (20250809.0930)
 -->
<!-- Title: RWGFun::RWGPreFactor Pages: 1 -->
<svg width="518pt" height="637pt"
 viewBox="0.00 0.00 518.00 637.00" xmlns="http://www.w3.org/2000/svg" xmlns:xlink="http://www.w3.org/1999/xlink">
<g id="graph0" class="graph" transform="scale(1 1) rotate(0) translate(4 632.75)">
<title>RWGFun::RWGPreFactor</title>
<!-- Node1 -->
<g id="Node000001" class="node">
<title>Node1</title>
<g id="a_Node000001"><a xlink:title="Return L_n / A_n (missing factor 1/2 by convention).">
<polygon fill="#999999" stroke="#666666" points="510,-325.75 377.75,-325.75 377.75,-305 510,-305 510,-325.75"/>
<text xml:space="preserve" text-anchor="middle" x="443.88" y="-312.25" font-family="Helvetica,sans-Serif" font-size="10.00">RWGFun::RWGPreFactor</text>
</a>
</g>
</g>
<!-- Node2 -->
<g id="Node000002" class="node">
<title>Node2</title>
<g id="a_Node000002"><a xlink:href="classGaussQuad.html#afecf86c6fbc2362c30d56fb10454621e" target="_top" xlink:title="I1: integral of scalar kernel times RWG prefactor over the test triangle.">
<polygon fill="white" stroke="#666666" points="296.75,-628.75 210.25,-628.75 210.25,-608 296.75,-608 296.75,-628.75"/>
<text xml:space="preserve" text-anchor="middle" x="253.5" y="-615.25" font-family="Helvetica,sans-Serif" font-size="10.00">GaussQuad::I1</text>
</a>
</g>
</g>
<!-- Node1&#45;&gt;Node2 -->
<g id="edge1_Node000001_Node000002" class="edge">
<title>Node1&#45;&gt;Node2</title>
<g id="a_edge1_Node000001_Node000002"><a xlink:title=" ">
<path fill="none" stroke="#63b8ff" d="M441.53,-337.34C437.11,-389.85 418.49,-523.49 341.75,-594.38 329.63,-605.57 312.78,-611.62 297.11,-614.86"/>
<polygon fill="#63b8ff" stroke="#63b8ff" points="445,-337.83 442.25,-327.6 438.02,-337.32 445,-337.83"/>
</a>
</g>
</g>
<!-- Node3 -->
<g id="Node000003" class="node">
<title>Node3</title>
<g id="a_Node000003"><a xlink:href="classGaussQuad.html#ab01b06d5cd9d9d15b01d0c9078b8dc5e" target="_top" xlink:title="Two‑triangle integral for the D operator (Eq.">
<polygon fill="white" stroke="#666666" points="129.25,-609.75 0,-609.75 0,-589 129.25,-589 129.25,-609.75"/>
<text xml:space="preserve" text-anchor="middle" x="64.62" y="-596.25" font-family="Helvetica,sans-Serif" font-size="10.00">GaussQuad::IntegrateD</text>
</a>
</g>
</g>
<!-- Node1&#45;&gt;Node3 -->
<g id="edge5_Node000001_Node000003" class="edge">
<title>Node1&#45;&gt;Node3</title>
<g id="a_edge5_Node000001_Node000003"><a xlink:title=" ">
<path fill="none" stroke="#63b8ff" d="M440.93,-337.68C435.35,-386.9 414.65,-504.94 341.75,-561.38 309.61,-586.26 200.74,-594.85 129.68,-597.81"/>
<polygon fill="#63b8ff" stroke="#63b8ff" points="444.41,-338.03 441.94,-327.73 437.45,-337.32 444.41,-338.03"/>
</a>
</g>
</g>
<!-- Node4 -->
<g id="Node000004" class="node">
<title>Node4</title>
<g id="a_Node000004"><a xlink:href="classGaussQuad.html#a446b0b21a34640c901189c53ec4081b3" target="_top" xlink:title="I1 with on‑the‑fly kernel evaluation at (r,rp) using gF.">
<polygon fill="white" stroke="#666666" points="296.75,-552.75 210.25,-552.75 210.25,-532 296.75,-532 296.75,-552.75"/>
<text xml:space="preserve" text-anchor="middle" x="253.5" y="-539.25" font-family="Helvetica,sans-Serif" font-size="10.00">GaussQuad::I1</text>
</a>
</g>
</g>
<!-- Node1&#45;&gt;Node4 -->
<g id="edge3_Node000001_Node000004" class="edge">
<title>Node1&#45;&gt;Node4</title>
<g id="a_edge3_Node000001_Node000004"><a xlink:title=" ">
<path fill="none" stroke="#63b8ff" d="M438.7,-337.2C429.36,-379.79 402.64,-474.05 341.75,-522.38 329.09,-532.42 312.32,-537.61 296.86,-540.22"/>
<polygon fill="#63b8ff" stroke="#63b8ff" points="442.12,-337.95 440.71,-327.45 435.26,-336.53 442.12,-337.95"/>
</a>
</g>
</g>
<!-- Node5 -->
<g id="Node000005" class="node">
<title>Node5</title>
<g id="a_Node000005"><a xlink:href="classGaussQuad.html#a7b4dd3082686af22451b5f405073d33e" target="_top" xlink:title="I5 variant: vector kernel weighted by RWG prefactor (centroid).">
<polygon fill="white" stroke="#666666" points="296.75,-513.75 210.25,-513.75 210.25,-493 296.75,-493 296.75,-513.75"/>
<text xml:space="preserve" text-anchor="middle" x="253.5" y="-500.25" font-family="Helvetica,sans-Serif" font-size="10.00">GaussQuad::I5</text>
</a>
</g>
</g>
<!-- Node1&#45;&gt;Node5 -->
<g id="edge4_Node000001_Node000005" class="edge">
<title>Node1&#45;&gt;Node5</title>
<g id="a_edge4_Node000001_Node000005"><a xlink:title=" ">
<path fill="none" stroke="#63b8ff" d="M436.18,-336.82C423.74,-372.99 393.51,-445.86 341.75,-483.38 328.79,-492.77 312.13,-497.84 296.85,-500.55"/>
<polygon fill="#63b8ff" stroke="#63b8ff" points="439.45,-338.09 439.25,-327.5 432.8,-335.9 439.45,-338.09"/>
</a>
</g>
</g>
<!-- Node6 -->
<g id="Node000006" class="node">
<title>Node6</title>
<g id="a_Node000006"><a xlink:href="classGreenFHom3D.html#aca136b03c44ad1da34acf91eb5a5e390" target="_top" xlink:title="term at an observation point.">
<polygon fill="white" stroke="#666666" points="335.75,-474.75 171.25,-474.75 171.25,-454 335.75,-454 335.75,-474.75"/>
<text xml:space="preserve" text-anchor="middle" x="253.5" y="-461.25" font-family="Helvetica,sans-Serif" font-size="10.00">GreenFHom3D::IntegrateDelta</text>
</a>
</g>
</g>
<!-- Node1&#45;&gt;Node6 -->
<g id="edge6_Node000001_Node000006" class="edge">
<title>Node1&#45;&gt;Node6</title>
<g id="a_edge6_Node000001_Node000006"><a xlink:title=" ">
<path fill="none" stroke="#63b8ff" d="M432.72,-336.12C417.29,-365.34 385.09,-418.08 341.75,-445.38 336.63,-448.6 331.05,-451.28 325.26,-453.51"/>
<polygon fill="#63b8ff" stroke="#63b8ff" points="435.68,-338.02 437.11,-327.53 429.44,-334.84 435.68,-338.02"/>
</a>
</g>
</g>
<!-- Node7 -->
<g id="Node000007" class="node">
<title>Node7</title>
<g id="a_Node000007"><a xlink:href="classGreenFHom3DPer2D.html#a233c2185952220bd16acae2142f05cc1" target="_top" xlink:title="term at an observation point.">
<polygon fill="white" stroke="#666666" points="337.25,-436.12 169.75,-436.12 169.75,-402.62 337.25,-402.62 337.25,-436.12"/>
<text xml:space="preserve" text-anchor="start" x="177.75" y="-422.62" font-family="Helvetica,sans-Serif" font-size="10.00">GreenFHom3DPer2D::Integrate</text>
<text xml:space="preserve" text-anchor="middle" x="253.5" y="-409.88" font-family="Helvetica,sans-Serif" font-size="10.00">Delta</text>
</a>
</g>
</g>
<!-- Node1&#45;&gt;Node7 -->
<g id="edge7_Node000001_Node000007" class="edge">
<title>Node1&#45;&gt;Node7</title>
<g id="a_edge7_Node000001_Node000007"><a xlink:title=" ">
<path fill="none" stroke="#63b8ff" d="M423.78,-333.61C404.48,-351.16 373.1,-377.32 341.75,-393.38 335.28,-396.69 328.32,-399.65 321.25,-402.28"/>
<polygon fill="#63b8ff" stroke="#63b8ff" points="425.93,-336.39 430.88,-327.03 421.17,-331.26 425.93,-336.39"/>
</a>
</g>
</g>
<!-- Node8 -->
<g id="Node000008" class="node">
<title>Node8</title>
<g id="a_Node000008"><a xlink:href="classGreenFLayered3D.html#afbdbfdc8fc40fc885f6377d5be242d36" target="_top" xlink:title="term at an observation point.">
<polygon fill="white" stroke="#666666" points="330.5,-384.12 176.5,-384.12 176.5,-350.62 330.5,-350.62 330.5,-384.12"/>
<text xml:space="preserve" text-anchor="start" x="184.5" y="-370.62" font-family="Helvetica,sans-Serif" font-size="10.00">GreenFLayered3D::Integrate</text>
<text xml:space="preserve" text-anchor="middle" x="253.5" y="-357.88" font-family="Helvetica,sans-Serif" font-size="10.00">Delta</text>
</a>
</g>
</g>
<!-- Node1&#45;&gt;Node8 -->
<g id="edge8_Node000001_Node000008" class="edge">
<title>Node1&#45;&gt;Node8</title>
<g id="a_edge8_Node000001_Node000008"><a xlink:title=" ">
<path fill="none" stroke="#63b8ff" d="M392.81,-329.2C369.49,-335.63 341.51,-343.36 316.84,-350.17"/>
<polygon fill="#63b8ff" stroke="#63b8ff" points="393.68,-332.59 402.38,-326.55 391.81,-325.84 393.68,-332.59"/>
</a>
</g>
</g>
<!-- Node9 -->
<g id="Node000009" class="node">
<title>Node9</title>
<g id="a_Node000009"><a xlink:href="classGreenFLayered3D.html#a439eddb43f46fb52f6c84898ea12aa40" target="_top" xlink:title="term at an observation point.">
<polygon fill="white" stroke="#666666" points="330.5,-332.12 176.5,-332.12 176.5,-298.62 330.5,-298.62 330.5,-332.12"/>
<text xml:space="preserve" text-anchor="start" x="184.5" y="-318.62" font-family="Helvetica,sans-Serif" font-size="10.00">GreenFLayered3D::Integrate</text>
<text xml:space="preserve" text-anchor="middle" x="253.5" y="-305.88" font-family="Helvetica,sans-Serif" font-size="10.00">Kappa</text>
</a>
</g>
</g>
<!-- Node1&#45;&gt;Node9 -->
<g id="edge9_Node000001_Node000009" class="edge">
<title>Node1&#45;&gt;Node9</title>
<g id="a_edge9_Node000001_Node000009"><a xlink:title=" ">
<path fill="none" stroke="#63b8ff" d="M365.85,-315.38C354.31,-315.38 342.4,-315.38 330.87,-315.38"/>
<polygon fill="#63b8ff" stroke="#63b8ff" points="365.74,-318.88 375.74,-315.38 365.74,-311.88 365.74,-318.88"/>
</a>
</g>
</g>
<!-- Node10 -->
<g id="Node000010" class="node">
<title>Node10</title>
<g id="a_Node000010"><a xlink:href="classGreenFHom3D.html#a48e8471aabb445e0e50a01c005ff3b98" target="_top" xlink:title="Compute &#160;for all RWGs on a source triangle.">
<polygon fill="white" stroke="#666666" points="333.12,-280.12 173.88,-280.12 173.88,-246.62 333.12,-246.62 333.12,-280.12"/>
<text xml:space="preserve" text-anchor="start" x="181.88" y="-266.62" font-family="Helvetica,sans-Serif" font-size="10.00">GreenFHom3D::SameTriDelta</text>
<text xml:space="preserve" text-anchor="middle" x="253.5" y="-253.88" font-family="Helvetica,sans-Serif" font-size="10.00">Kappa</text>
</a>
</g>
</g>
<!-- Node1&#45;&gt;Node10 -->
<g id="edge10_Node000001_Node000010" class="edge">
<title>Node1&#45;&gt;Node10</title>
<g id="a_edge10_Node000001_Node000010"><a xlink:title=" ">
<path fill="none" stroke="#63b8ff" d="M392.81,-301.55C369.49,-295.12 341.51,-287.39 316.84,-280.58"/>
<polygon fill="#63b8ff" stroke="#63b8ff" points="391.81,-304.91 402.38,-304.2 393.68,-298.16 391.81,-304.91"/>
</a>
</g>
</g>
<!-- Node11 -->
<g id="Node000011" class="node">
<title>Node11</title>
<g id="a_Node000011"><a xlink:href="classGreenFHom3DPer2D.html#a84a8c855a27c895ff24f6771037284a5" target="_top" xlink:title="Compute &#160;for all RWGs on a source triangle.">
<polygon fill="white" stroke="#666666" points="334.62,-228.12 172.38,-228.12 172.38,-194.62 334.62,-194.62 334.62,-228.12"/>
<text xml:space="preserve" text-anchor="start" x="180.38" y="-214.62" font-family="Helvetica,sans-Serif" font-size="10.00">GreenFHom3DPer2D::SameTri</text>
<text xml:space="preserve" text-anchor="middle" x="253.5" y="-201.88" font-family="Helvetica,sans-Serif" font-size="10.00">DeltaKappa</text>
</a>
</g>
</g>
<!-- Node1&#45;&gt;Node11 -->
<g id="edge11_Node000001_Node000011" class="edge">
<title>Node1&#45;&gt;Node11</title>
<g id="a_edge11_Node000001_Node000011"><a xlink:title=" ">
<path fill="none" stroke="#63b8ff" d="M423.78,-297.14C404.48,-279.59 373.1,-253.43 341.75,-237.38 335.28,-234.06 328.32,-231.1 321.25,-228.47"/>
<polygon fill="#63b8ff" stroke="#63b8ff" points="421.17,-299.49 430.88,-303.72 425.93,-294.36 421.17,-299.49"/>
</a>
</g>
</g>
<!-- Node12 -->
<g id="Node000012" class="node">
<title>Node12</title>
<g id="a_Node000012"><a xlink:href="classGreenFHom3D.html#a419cbe00b5a2aed70ac546904a8a8d6f" target="_top" xlink:title="Compute &#160;and &#160;for all RWG pairs on two triangles.">
<polygon fill="white" stroke="#666666" points="327.12,-176.75 179.88,-176.75 179.88,-156 327.12,-156 327.12,-176.75"/>
<text xml:space="preserve" text-anchor="middle" x="253.5" y="-163.25" font-family="Helvetica,sans-Serif" font-size="10.00">GreenFHom3D::SameTriDK</text>
</a>
</g>
</g>
<!-- Node1&#45;&gt;Node12 -->
<g id="edge12_Node000001_Node000012" class="edge">
<title>Node1&#45;&gt;Node12</title>
<g id="a_edge12_Node000001_Node000012"><a xlink:title=" ">
<path fill="none" stroke="#63b8ff" d="M432.72,-294.63C417.29,-265.41 385.09,-212.67 341.75,-185.38 336.63,-182.15 331.05,-179.47 325.26,-177.24"/>
<polygon fill="#63b8ff" stroke="#63b8ff" points="429.44,-295.91 437.11,-303.22 435.68,-292.73 429.44,-295.91"/>
</a>
</g>
</g>
<!-- Node13 -->
<g id="Node000013" class="node">
<title>Node13</title>
<g id="a_Node000013"><a xlink:href="classGreenFHom3DPer2D.html#a1dc9dd84c93ee10b2fb4b1866103d957" target="_top" xlink:title="Compute &#160;and &#160;for all RWG pairs on two triangles.">
<polygon fill="white" stroke="#666666" points="341.75,-137.75 165.25,-137.75 165.25,-117 341.75,-117 341.75,-137.75"/>
<text xml:space="preserve" text-anchor="middle" x="253.5" y="-124.25" font-family="Helvetica,sans-Serif" font-size="10.00">GreenFHom3DPer2D::SameTriDK</text>
</a>
</g>
</g>
<!-- Node1&#45;&gt;Node13 -->
<g id="edge13_Node000001_Node000013" class="edge">
<title>Node1&#45;&gt;Node13</title>
<g id="a_edge13_Node000001_Node000013"><a xlink:title=" ">
<path fill="none" stroke="#63b8ff" d="M436.18,-293.93C423.74,-257.76 393.51,-184.89 341.75,-147.38 336.59,-143.64 330.85,-140.58 324.84,-138.09"/>
<polygon fill="#63b8ff" stroke="#63b8ff" points="432.8,-294.85 439.25,-303.25 439.45,-292.66 432.8,-294.85"/>
</a>
</g>
</g>
<!-- Node14 -->
<g id="Node000014" class="node">
<title>Node14</title>
<g id="a_Node000014"><a xlink:href="classGreenFLayered3D.html#a6c88af86169f8d148c3e9f4da77a77d0" target="_top" xlink:title="Triangle–triangle D/K blocks assembly for all RWG pairs on two triangles.">
<polygon fill="white" stroke="#666666" points="335,-98.75 172,-98.75 172,-78 335,-78 335,-98.75"/>
<text xml:space="preserve" text-anchor="middle" x="253.5" y="-85.25" font-family="Helvetica,sans-Serif" font-size="10.00">GreenFLayered3D::SameTriDK</text>
</a>
</g>
</g>
<!-- Node1&#45;&gt;Node14 -->
<g id="edge14_Node000001_Node000014" class="edge">
<title>Node1&#45;&gt;Node14</title>
<g id="a_edge14_Node000001_Node000014"><a xlink:title=" ">
<path fill="none" stroke="#63b8ff" d="M438.7,-293.55C429.36,-250.96 402.64,-156.7 341.75,-108.38 337.12,-104.7 331.95,-101.68 326.49,-99.2"/>
<polygon fill="#63b8ff" stroke="#63b8ff" points="435.26,-294.22 440.71,-303.3 442.12,-292.8 435.26,-294.22"/>
</a>
</g>
</g>
<!-- Node15 -->
<g id="Node000015" class="node">
<title>Node15</title>
<g id="a_Node000015"><a xlink:href="classGreenFHom3D.html#aee15ec1616a294e10b554f1afbb97845" target="_top" xlink:title="Same as SameTriDK plus gradients (if provided by the GF).">
<polygon fill="white" stroke="#666666" points="330.88,-59.75 176.12,-59.75 176.12,-39 330.88,-39 330.88,-59.75"/>
<text xml:space="preserve" text-anchor="middle" x="253.5" y="-46.25" font-family="Helvetica,sans-Serif" font-size="10.00">GreenFHom3D::SameTriDKG</text>
</a>
</g>
</g>
<!-- Node1&#45;&gt;Node15 -->
<g id="edge15_Node000001_Node000015" class="edge">
<title>Node1&#45;&gt;Node15</title>
<g id="a_edge15_Node000001_Node000015"><a xlink:title=" ">
<path fill="none" stroke="#63b8ff" d="M440.56,-293.53C434.22,-245.25 412.08,-128.98 341.75,-69.38 337.36,-65.66 332.42,-62.6 327.18,-60.08"/>
<polygon fill="#63b8ff" stroke="#63b8ff" points="437.06,-293.75 441.72,-303.26 444.01,-292.92 437.06,-293.75"/>
</a>
</g>
</g>
<!-- Node16 -->
<g id="Node000016" class="node">
<title>Node16</title>
<g id="a_Node000016"><a xlink:href="classGreenFLayered3D.html#a52cce9be0f67bd1b5aa9b2cdb01e4164" target="_top" xlink:title="Same as SameTriDK and additionally accumulates gradients.">
<polygon fill="white" stroke="#666666" points="338.75,-20.75 168.25,-20.75 168.25,0 338.75,0 338.75,-20.75"/>
<text xml:space="preserve" text-anchor="middle" x="253.5" y="-7.25" font-family="Helvetica,sans-Serif" font-size="10.00">GreenFLayered3D::SameTriDKG</text>
</a>
</g>
</g>
<!-- Node1&#45;&gt;Node16 -->
<g id="edge16_Node000001_Node000016" class="edge">
<title>Node1&#45;&gt;Node16</title>
<g id="a_edge16_Node000001_Node000016"><a xlink:title=" ">
<path fill="none" stroke="#63b8ff" d="M441.94,-293.43C438.4,-239.84 421.6,-101.49 341.75,-30.38 337.57,-26.65 332.84,-23.58 327.8,-21.06"/>
<polygon fill="#63b8ff" stroke="#63b8ff" points="438.42,-293.31 442.47,-303.1 445.41,-292.92 438.42,-293.31"/>
</a>
</g>
</g>
<!-- Node2&#45;&gt;Node3 -->
<g id="edge2_Node000002_Node000003" class="edge">
<title>Node2&#45;&gt;Node3</title>
<g id="a_edge2_Node000002_Node000003"><a xlink:title=" ">
<path fill="none" stroke="#63b8ff" d="M198.81,-612.92C177.19,-610.72 152.07,-608.16 129.52,-605.87"/>
<polygon fill="#63b8ff" stroke="#63b8ff" points="198.29,-616.38 208.59,-613.91 198.99,-609.42 198.29,-616.38"/>
</a>
</g>
</g>
</g>
</svg>
