<?xml version="1.0" encoding="UTF-8" standalone="no"?>
<!DOCTYPE svg PUBLIC "-//W3C//DTD SVG 1.1//EN"
 "http://www.w3.org/Graphics/SVG/1.1/DTD/svg11.dtd">
<!-- Generated by graphviz version 13.1.2 (20250809.0930)
 -->
<!-- Title: GreenFHom3D::SameTriDKG Pages: 1 -->
<svg width="348pt" height="185pt"
 viewBox="0.00 0.00 348.00 185.00" xmlns="http://www.w3.org/2000/svg" xmlns:xlink="http://www.w3.org/1999/xlink">
<g id="graph0" class="graph" transform="scale(1 1) rotate(0) translate(4 180.75)">
<title>GreenFHom3D::SameTriDKG</title>
<!-- Node1 -->
<g id="Node000001" class="node">
<title>Node1</title>
<g id="a_Node000001"><a xlink:title="Same as SameTriDK plus gradients (if provided by the GF).">
<polygon fill="#999999" stroke="#666666" points="154.75,-98.75 0,-98.75 0,-78 154.75,-78 154.75,-98.75"/>
<text xml:space="preserve" text-anchor="middle" x="77.38" y="-85.25" font-family="Helvetica,sans-Serif" font-size="10.00">GreenFHom3D::SameTriDKG</text>
</a>
</g>
</g>
<!-- Node2 -->
<g id="Node000002" class="node">
<title>Node2</title>
<g id="a_Node000002"><a xlink:href="classTriangle.html#a1d3d08deeb999f339d2e821a877521ba" target="_top" xlink:title="Surface area of the triangle.">
<polygon fill="white" stroke="#666666" points="306.88,-176.75 224.12,-176.75 224.12,-156 306.88,-156 306.88,-176.75"/>
<text xml:space="preserve" text-anchor="middle" x="265.5" y="-163.25" font-family="Helvetica,sans-Serif" font-size="10.00">Triangle::Area</text>
</a>
</g>
</g>
<!-- Node1&#45;&gt;Node2 -->
<g id="edge1_Node000001_Node000002" class="edge">
<title>Node1&#45;&gt;Node2</title>
<g id="a_edge1_Node000001_Node000002"><a xlink:title=" ">
<path fill="none" stroke="#63b8ff" d="M96.12,-99.04C117.82,-111.72 155.96,-132.86 190.75,-146.38 197.81,-149.12 205.39,-151.63 212.91,-153.89"/>
<polygon fill="#63b8ff" stroke="#63b8ff" points="211.78,-157.2 222.36,-156.58 213.7,-150.47 211.78,-157.2"/>
</a>
</g>
</g>
<!-- Node3 -->
<g id="Node000003" class="node">
<title>Node3</title>
<g id="a_Node000003"><a xlink:href="classRWGFun.html#a7540ce2f84c6b42a29c2808504c47d42" target="_top" xlink:title="Evaluate the RWG vector shape function at a point on the triangle.">
<polygon fill="white" stroke="#666666" points="318.5,-137.75 212.5,-137.75 212.5,-117 318.5,-117 318.5,-137.75"/>
<text xml:space="preserve" text-anchor="middle" x="265.5" y="-124.25" font-family="Helvetica,sans-Serif" font-size="10.00">RWGFun::Evaluate</text>
</a>
</g>
</g>
<!-- Node1&#45;&gt;Node3 -->
<g id="edge2_Node000001_Node000003" class="edge">
<title>Node1&#45;&gt;Node3</title>
<g id="a_edge2_Node000001_Node000003"><a xlink:title=" ">
<path fill="none" stroke="#63b8ff" d="M130.22,-99.24C152.31,-103.87 178.29,-109.31 201.48,-114.17"/>
<polygon fill="#63b8ff" stroke="#63b8ff" points="200.62,-117.57 211.13,-116.19 202.06,-110.72 200.62,-117.57"/>
</a>
</g>
</g>
<!-- Node4 -->
<g id="Node000004" class="node">
<title>Node4</title>
<g id="a_Node000004"><a xlink:href="classGreenFHom3D.html#ac989f2a060436c41a08da43af35b5ab1" target="_top" xlink:title="Evaluate &#160;together.">
<polygon fill="white" stroke="#666666" points="340.25,-98.75 190.75,-98.75 190.75,-78 340.25,-78 340.25,-98.75"/>
<text xml:space="preserve" text-anchor="middle" x="265.5" y="-85.25" font-family="Helvetica,sans-Serif" font-size="10.00">GreenFHom3D::EvaluateAll</text>
</a>
</g>
</g>
<!-- Node1&#45;&gt;Node4 -->
<g id="edge3_Node000001_Node000004" class="edge">
<title>Node1&#45;&gt;Node4</title>
<g id="a_edge3_Node000001_Node000004"><a xlink:title=" ">
<path fill="none" stroke="#63b8ff" d="M155.15,-88.38C162.96,-88.38 170.92,-88.38 178.81,-88.38"/>
<polygon fill="#63b8ff" stroke="#63b8ff" points="178.78,-91.88 188.78,-88.38 178.78,-84.88 178.78,-91.88"/>
</a>
</g>
</g>
<!-- Node5 -->
<g id="Node000005" class="node">
<title>Node5</title>
<g id="a_Node000005"><a xlink:href="classTriangle.html#a0752d2c9488c7c44b851b8f75abcaa79" target="_top" xlink:title="Node position (by value) for local index 0..2.">
<polygon fill="white" stroke="#666666" points="308.38,-59.75 222.62,-59.75 222.62,-39 308.38,-39 308.38,-59.75"/>
<text xml:space="preserve" text-anchor="middle" x="265.5" y="-46.25" font-family="Helvetica,sans-Serif" font-size="10.00">Triangle::Node</text>
</a>
</g>
</g>
<!-- Node1&#45;&gt;Node5 -->
<g id="edge4_Node000001_Node000005" class="edge">
<title>Node1&#45;&gt;Node5</title>
<g id="a_edge4_Node000001_Node000005"><a xlink:title=" ">
<path fill="none" stroke="#63b8ff" d="M130.22,-77.51C155.52,-72.21 185.91,-65.84 211.38,-60.51"/>
<polygon fill="#63b8ff" stroke="#63b8ff" points="211.78,-64 220.85,-58.52 210.34,-57.15 211.78,-64"/>
</a>
</g>
</g>
<!-- Node6 -->
<g id="Node000006" class="node">
<title>Node6</title>
<g id="a_Node000006"><a xlink:href="classRWGFun.html#a7cd7779305937d48196453e53d0d4df8" target="_top" xlink:title="Return L_n / A_n (missing factor 1/2 by convention).">
<polygon fill="white" stroke="#666666" points="331.62,-20.75 199.38,-20.75 199.38,0 331.62,0 331.62,-20.75"/>
<text xml:space="preserve" text-anchor="middle" x="265.5" y="-7.25" font-family="Helvetica,sans-Serif" font-size="10.00">RWGFun::RWGPreFactor</text>
</a>
</g>
</g>
<!-- Node1&#45;&gt;Node6 -->
<g id="edge5_Node000001_Node000006" class="edge">
<title>Node1&#45;&gt;Node6</title>
<g id="a_edge5_Node000001_Node000006"><a xlink:title=" ">
<path fill="none" stroke="#63b8ff" d="M96.12,-77.71C117.82,-65.03 155.96,-43.89 190.75,-30.38 196.31,-28.21 202.2,-26.19 208.13,-24.33"/>
<polygon fill="#63b8ff" stroke="#63b8ff" points="208.74,-27.8 217.32,-21.59 206.73,-21.09 208.74,-27.8"/>
</a>
</g>
</g>
</g>
</svg>
