<?xml version="1.0" encoding="UTF-8" standalone="no"?>
<!DOCTYPE svg PUBLIC "-//W3C//DTD SVG 1.1//EN"
 "http://www.w3.org/Graphics/SVG/1.1/DTD/svg11.dtd">
<!-- Generated by graphviz version 13.1.2 (20250809.0930)
 -->
<!-- Title: Domain::Domain Pages: 1 -->
<svg width="528pt" height="29pt"
 viewBox="0.00 0.00 528.00 29.00" xmlns="http://www.w3.org/2000/svg" xmlns:xlink="http://www.w3.org/1999/xlink">
<g id="graph0" class="graph" transform="scale(1 1) rotate(0) translate(4 24.75)">
<title>Domain::Domain</title>
<!-- Node1 -->
<g id="Node000001" class="node">
<title>Node1</title>
<g id="a_Node000001"><a xlink:title="Construct a domain over a mesh region at a given vacuum wavelength.">
<polygon fill="#999999" stroke="#666666" points="98.5,-20.75 0,-20.75 0,0 98.5,0 98.5,-20.75"/>
<text xml:space="preserve" text-anchor="middle" x="49.25" y="-7.25" font-family="Helvetica,sans-Serif" font-size="10.00">Domain::Domain</text>
</a>
</g>
</g>
<!-- Node2 -->
<g id="Node000002" class="node">
<title>Node2</title>
<g id="a_Node000002"><a xlink:href="classDomain.html#a753296cc63cedb73b537311031521178" target="_top" xlink:title="Add all boundary triangles belonging to region dIndex and build RWGs.">
<polygon fill="white" stroke="#666666" points="308,-20.75 134.5,-20.75 134.5,0 308,0 308,-20.75"/>
<text xml:space="preserve" text-anchor="middle" x="221.25" y="-7.25" font-family="Helvetica,sans-Serif" font-size="10.00">Domain::AddTrianglesFromMesh</text>
</a>
</g>
</g>
<!-- Node1&#45;&gt;Node2 -->
<g id="edge1_Node000001_Node000002" class="edge">
<title>Node1&#45;&gt;Node2</title>
<g id="a_edge1_Node000001_Node000002"><a xlink:title=" ">
<path fill="none" stroke="#63b8ff" d="M98.97,-10.38C106.59,-10.38 114.69,-10.38 122.95,-10.38"/>
<polygon fill="#63b8ff" stroke="#63b8ff" points="122.77,-13.88 132.77,-10.38 122.77,-6.88 122.77,-13.88"/>
</a>
</g>
</g>
<!-- Node3 -->
<g id="Node000003" class="node">
<title>Node3</title>
<g id="a_Node000003"><a xlink:href="classSurfaceMesh.html#a7681019f61e9c1542c893c177117dac4" target="_top" xlink:title="Triangles bordering a given domain (FRONT or BACK).">
<polygon fill="white" stroke="#666666" points="519.75,-20.75 344,-20.75 344,0 519.75,0 519.75,-20.75"/>
<text xml:space="preserve" text-anchor="middle" x="431.88" y="-7.25" font-family="Helvetica,sans-Serif" font-size="10.00">SurfaceMesh::BorderingTriangles</text>
</a>
</g>
</g>
<!-- Node2&#45;&gt;Node3 -->
<g id="edge2_Node000002_Node000003" class="edge">
<title>Node2&#45;&gt;Node3</title>
<g id="a_edge2_Node000002_Node000003"><a xlink:title=" ">
<path fill="none" stroke="#63b8ff" d="M308.31,-10.38C316.24,-10.38 324.32,-10.38 332.36,-10.38"/>
<polygon fill="#63b8ff" stroke="#63b8ff" points="332.15,-13.88 342.15,-10.38 332.15,-6.88 332.15,-13.88"/>
</a>
</g>
</g>
</g>
</svg>
