<?xml version="1.0" encoding="UTF-8" standalone="no"?>
<!DOCTYPE svg PUBLIC "-//W3C//DTD SVG 1.1//EN"
 "http://www.w3.org/Graphics/SVG/1.1/DTD/svg11.dtd">
<!-- Generated by graphviz version 13.1.2 (20250809.0930)
 -->
<!-- Title: CLParser::CLParser Pages: 1 -->
<svg width="285pt" height="249pt"
 viewBox="0.00 0.00 285.00 249.00" xmlns="http://www.w3.org/2000/svg" xmlns:xlink="http://www.w3.org/1999/xlink">
<g id="graph0" class="graph" transform="scale(1 1) rotate(0) translate(4 245.12)">
<title>CLParser::CLParser</title>
<!-- Node1 -->
<g id="Node000001" class="node">
<title>Node1</title>
<g id="a_Node000001"><a xlink:title="Construct with an option token.">
<polygon fill="#999999" stroke="#666666" points="277.25,-143.12 171.25,-143.12 171.25,-122.38 277.25,-122.38 277.25,-143.12"/>
<text xml:space="preserve" text-anchor="middle" x="224.25" y="-129.62" font-family="Helvetica,sans-Serif" font-size="10.00">CLParser::CLParser</text>
</a>
</g>
</g>
<!-- Node2 -->
<g id="Node000002" class="node">
<title>Node2</title>
<g id="a_Node000002"><a xlink:href="classCLFlag.html#a5bc94e73d6b20d467223406a2633a159" target="_top" xlink:title="Construct a flag option bound to a bool.">
<polygon fill="white" stroke="#666666" points="111.62,-241.12 23.62,-241.12 23.62,-220.38 111.62,-220.38 111.62,-241.12"/>
<text xml:space="preserve" text-anchor="middle" x="67.62" y="-227.62" font-family="Helvetica,sans-Serif" font-size="10.00">CLFlag::CLFlag</text>
</a>
</g>
</g>
<!-- Node1&#45;&gt;Node2 -->
<g id="edge1_Node000001_Node000002" class="edge">
<title>Node1&#45;&gt;Node2</title>
<g id="a_edge1_Node000001_Node000002"><a xlink:title=" ">
<path fill="none" stroke="#63b8ff" d="M206.41,-151.83C189.9,-169.45 163.19,-195.18 135.25,-210.75 128.08,-214.75 120.01,-218.03 112.04,-220.7"/>
<polygon fill="#63b8ff" stroke="#63b8ff" points="208.88,-154.31 213.05,-144.57 203.72,-149.59 208.88,-154.31"/>
</a>
</g>
</g>
<!-- Node3 -->
<g id="Node000003" class="node">
<title>Node3</title>
<g id="a_Node000003"><a xlink:href="classCLFlag.html#abf908121289adb95e2775fa130ea15a1" target="_top" xlink:title="Construct a flag option bound to a bool.">
<polygon fill="white" stroke="#666666" points="111.62,-202.12 23.62,-202.12 23.62,-181.38 111.62,-181.38 111.62,-202.12"/>
<text xml:space="preserve" text-anchor="middle" x="67.62" y="-188.62" font-family="Helvetica,sans-Serif" font-size="10.00">CLFlag::CLFlag</text>
</a>
</g>
</g>
<!-- Node1&#45;&gt;Node3 -->
<g id="edge2_Node000001_Node000003" class="edge">
<title>Node1&#45;&gt;Node3</title>
<g id="a_edge2_Node000001_Node000003"><a xlink:title=" ">
<path fill="none" stroke="#63b8ff" d="M190.96,-148.23C174.49,-155.82 154.02,-164.8 135.25,-171.75 126.42,-175.02 116.78,-178.15 107.65,-180.93"/>
<polygon fill="#63b8ff" stroke="#63b8ff" points="192.19,-151.51 199.77,-144.11 189.23,-145.17 192.19,-151.51"/>
</a>
</g>
</g>
<!-- Node4 -->
<g id="Node000004" class="node">
<title>Node4</title>
<g id="a_Node000004"><a xlink:href="classCLOption.html#a7037b52c35d80fbcb5fc904f0a355eb0" target="_top" xlink:title="Construct a typed option bound to a user variable.">
<polygon fill="white" stroke="#666666" points="122.88,-163.12 12.38,-163.12 12.38,-142.38 122.88,-142.38 122.88,-163.12"/>
<text xml:space="preserve" text-anchor="middle" x="67.62" y="-149.62" font-family="Helvetica,sans-Serif" font-size="10.00">CLOption::CLOption</text>
</a>
</g>
</g>
<!-- Node1&#45;&gt;Node4 -->
<g id="edge3_Node000001_Node000004" class="edge">
<title>Node1&#45;&gt;Node4</title>
<g id="a_edge3_Node000001_Node000004"><a xlink:title=" ">
<path fill="none" stroke="#63b8ff" d="M159.54,-140.99C147.51,-142.55 135.02,-144.16 123.3,-145.68"/>
<polygon fill="#63b8ff" stroke="#63b8ff" points="159.93,-144.47 169.4,-139.72 159.03,-137.53 159.93,-144.47"/>
</a>
</g>
</g>
<!-- Node5 -->
<g id="Node000005" class="node">
<title>Node5</title>
<g id="a_Node000005"><a xlink:href="classCLOption.html#ac0b0b5639205ec8c053fecf8d68cc469" target="_top" xlink:title="Construct a typed option bound to a user variable.">
<polygon fill="white" stroke="#666666" points="122.88,-124.12 12.38,-124.12 12.38,-103.38 122.88,-103.38 122.88,-124.12"/>
<text xml:space="preserve" text-anchor="middle" x="67.62" y="-110.62" font-family="Helvetica,sans-Serif" font-size="10.00">CLOption::CLOption</text>
</a>
</g>
</g>
<!-- Node1&#45;&gt;Node5 -->
<g id="edge4_Node000001_Node000005" class="edge">
<title>Node1&#45;&gt;Node5</title>
<g id="a_edge4_Node000001_Node000005"><a xlink:title=" ">
<path fill="none" stroke="#63b8ff" d="M159.54,-124.92C147.51,-123.44 135.02,-121.91 123.3,-120.47"/>
<polygon fill="#63b8ff" stroke="#63b8ff" points="159.05,-128.39 169.4,-126.13 159.9,-121.44 159.05,-128.39"/>
</a>
</g>
</g>
<!-- Node6 -->
<g id="Node000006" class="node">
<title>Node6</title>
<g id="a_Node000006"><a xlink:href="classCLStringOption.html#af7e84e8bff6743836766864e69df4432" target="_top" xlink:title="Construct a string option bound to a user string.">
<polygon fill="white" stroke="#666666" points="135.25,-85.5 0,-85.5 0,-52 135.25,-52 135.25,-85.5"/>
<text xml:space="preserve" text-anchor="start" x="8" y="-72" font-family="Helvetica,sans-Serif" font-size="10.00">CLStringOption::CLString</text>
<text xml:space="preserve" text-anchor="middle" x="67.62" y="-59.25" font-family="Helvetica,sans-Serif" font-size="10.00">Option</text>
</a>
</g>
</g>
<!-- Node1&#45;&gt;Node6 -->
<g id="edge5_Node000001_Node000006" class="edge">
<title>Node1&#45;&gt;Node6</title>
<g id="a_edge5_Node000001_Node000006"><a xlink:title=" ">
<path fill="none" stroke="#63b8ff" d="M188.96,-117.61C172.73,-110.53 153.05,-102.07 135.25,-94.75 128.13,-91.82 120.55,-88.79 113.15,-85.87"/>
<polygon fill="#63b8ff" stroke="#63b8ff" points="187.12,-120.62 197.68,-121.43 189.93,-114.21 187.12,-120.62"/>
</a>
</g>
</g>
<!-- Node7 -->
<g id="Node000007" class="node">
<title>Node7</title>
<g id="a_Node000007"><a xlink:href="classCLStringOption.html#a1b34fe91547f81abac032eee3c94e72e" target="_top" xlink:title="Construct a string option bound to a user string.">
<polygon fill="white" stroke="#666666" points="135.25,-33.5 0,-33.5 0,0 135.25,0 135.25,-33.5"/>
<text xml:space="preserve" text-anchor="start" x="8" y="-20" font-family="Helvetica,sans-Serif" font-size="10.00">CLStringOption::CLString</text>
<text xml:space="preserve" text-anchor="middle" x="67.62" y="-7.25" font-family="Helvetica,sans-Serif" font-size="10.00">Option</text>
</a>
</g>
</g>
<!-- Node1&#45;&gt;Node7 -->
<g id="edge6_Node000001_Node000007" class="edge">
<title>Node1&#45;&gt;Node7</title>
<g id="a_edge6_Node000001_Node000007"><a xlink:title=" ">
<path fill="none" stroke="#63b8ff" d="M208.44,-113.31C192.32,-93.29 164.85,-62.33 135.25,-42.75 130.28,-39.46 124.83,-36.49 119.26,-33.84"/>
<polygon fill="#63b8ff" stroke="#63b8ff" points="205.53,-115.28 214.47,-120.98 211.03,-110.95 205.53,-115.28"/>
</a>
</g>
</g>
</g>
</svg>
