<?xml version="1.0" encoding="UTF-8" standalone="no"?>
<!DOCTYPE svg PUBLIC "-//W3C//DTD SVG 1.1//EN"
 "http://www.w3.org/Graphics/SVG/1.1/DTD/svg11.dtd">
<!-- Generated by graphviz version 13.1.2 (20250809.0930)
 -->
<!-- Title: Domain::IncFieldE Pages: 1 -->
<svg width="694pt" height="224pt"
 viewBox="0.00 0.00 694.00 224.00" xmlns="http://www.w3.org/2000/svg" xmlns:xlink="http://www.w3.org/1999/xlink">
<g id="graph0" class="graph" transform="scale(1 1) rotate(0) translate(4 219.75)">
<title>Domain::IncFieldE</title>
<!-- Node1 -->
<g id="Node000001" class="node">
<title>Node1</title>
<g id="a_Node000001"><a xlink:title="Total incident electric field at a point from all incident sources.">
<polygon fill="#999999" stroke="#666666" points="686,-117.75 582.25,-117.75 582.25,-97 686,-97 686,-117.75"/>
<text xml:space="preserve" text-anchor="middle" x="634.12" y="-104.25" font-family="Helvetica,sans-Serif" font-size="10.00">Domain::IncFieldE</text>
</a>
</g>
</g>
<!-- Node2 -->
<g id="Node000002" class="node">
<title>Node2</title>
<g id="a_Node000002"><a xlink:href="classDomainHom3D.html#ad19635c8b33f69ebf6cb3cd8788f7f23" target="_top" xlink:title="Absorption cross section via surface quadrature.">
<polygon fill="white" stroke="#666666" points="546.25,-215.75 384.75,-215.75 384.75,-195 546.25,-195 546.25,-215.75"/>
<text xml:space="preserve" text-anchor="middle" x="465.5" y="-202.25" font-family="Helvetica,sans-Serif" font-size="10.00">DomainHom3D::absorptionCS</text>
</a>
</g>
</g>
<!-- Node1&#45;&gt;Node2 -->
<g id="edge1_Node000001_Node000002" class="edge">
<title>Node1&#45;&gt;Node2</title>
<g id="a_edge1_Node000001_Node000002"><a xlink:title=" ">
<path fill="none" stroke="#63b8ff" d="M616.97,-126.46C600.84,-144.31 574.45,-170.38 546.25,-185.38 539.32,-189.06 531.68,-192.09 523.97,-194.56"/>
<polygon fill="#63b8ff" stroke="#63b8ff" points="619.45,-128.94 623.43,-119.12 614.19,-124.32 619.45,-128.94"/>
</a>
</g>
</g>
<!-- Node3 -->
<g id="Node000003" class="node">
<title>Node3</title>
<g id="a_Node000003"><a xlink:href="classSimJob.html#a24f10b7bb14c9181341d07a783e00214" target="_top" xlink:title="Return both , &#160;incident and secondary pairs at pos.">
<polygon fill="white" stroke="#666666" points="520.75,-176.75 410.25,-176.75 410.25,-156 520.75,-156 520.75,-176.75"/>
<text xml:space="preserve" text-anchor="middle" x="465.5" y="-163.25" font-family="Helvetica,sans-Serif" font-size="10.00">SimJob::EandHField</text>
</a>
</g>
</g>
<!-- Node1&#45;&gt;Node3 -->
<g id="edge2_Node000001_Node000003" class="edge">
<title>Node1&#45;&gt;Node3</title>
<g id="a_edge2_Node000001_Node000003"><a xlink:title=" ">
<path fill="none" stroke="#63b8ff" d="M601.73,-123.08C585.45,-130.81 565.09,-139.84 546.25,-146.38 536.41,-149.79 525.69,-152.88 515.4,-155.56"/>
<polygon fill="#63b8ff" stroke="#63b8ff" points="602.93,-126.39 610.41,-118.89 599.89,-120.09 602.93,-126.39"/>
</a>
</g>
</g>
<!-- Node7 -->
<g id="Node000007" class="node">
<title>Node7</title>
<g id="a_Node000007"><a xlink:href="classSimJob.html#a746e46ef2aa6843c2f4da96e472c75a3" target="_top" xlink:title="Incident and secondary &#160;at pos (domain auto&#45;detected).">
<polygon fill="white" stroke="#666666" points="508,-137.75 423,-137.75 423,-117 508,-117 508,-137.75"/>
<text xml:space="preserve" text-anchor="middle" x="465.5" y="-124.25" font-family="Helvetica,sans-Serif" font-size="10.00">SimJob::EField</text>
</a>
</g>
</g>
<!-- Node1&#45;&gt;Node7 -->
<g id="edge6_Node000001_Node000007" class="edge">
<title>Node1&#45;&gt;Node7</title>
<g id="a_edge6_Node000001_Node000007"><a xlink:title=" ">
<path fill="none" stroke="#63b8ff" d="M570.49,-114.89C549.78,-117.38 527.24,-120.08 508.46,-122.34"/>
<polygon fill="#63b8ff" stroke="#63b8ff" points="570.76,-118.39 580.27,-113.72 569.92,-111.44 570.76,-118.39"/>
</a>
</g>
</g>
<!-- Node8 -->
<g id="Node000008" class="node">
<title>Node8</title>
<g id="a_Node000008"><a xlink:href="classSimJob.html#a10e94801726e68c660938659856c75b2" target="_top" xlink:title="Incident and secondary &#160;at pos with known containing domain.">
<polygon fill="white" stroke="#666666" points="508,-98.75 423,-98.75 423,-78 508,-78 508,-98.75"/>
<text xml:space="preserve" text-anchor="middle" x="465.5" y="-85.25" font-family="Helvetica,sans-Serif" font-size="10.00">SimJob::EField</text>
</a>
</g>
</g>
<!-- Node1&#45;&gt;Node8 -->
<g id="edge8_Node000001_Node000008" class="edge">
<title>Node1&#45;&gt;Node8</title>
<g id="a_edge8_Node000001_Node000008"><a xlink:title=" ">
<path fill="none" stroke="#63b8ff" d="M570.49,-100.23C549.78,-97.87 527.24,-95.3 508.46,-93.16"/>
<polygon fill="#63b8ff" stroke="#63b8ff" points="569.94,-103.69 580.27,-101.35 570.73,-96.74 569.94,-103.69"/>
</a>
</g>
</g>
<!-- Node9 -->
<g id="Node000009" class="node">
<title>Node9</title>
<g id="a_Node000009"><a xlink:href="classDomainHom3D.html#aa6a76dafe56204c15b80e491e6a2b21d" target="_top" xlink:title="Extinction cross section via surface quadrature.">
<polygon fill="white" stroke="#666666" points="544.75,-59.75 386.25,-59.75 386.25,-39 544.75,-39 544.75,-59.75"/>
<text xml:space="preserve" text-anchor="middle" x="465.5" y="-46.25" font-family="Helvetica,sans-Serif" font-size="10.00">DomainHom3D::extinctionCS</text>
</a>
</g>
</g>
<!-- Node1&#45;&gt;Node9 -->
<g id="edge9_Node000001_Node000009" class="edge">
<title>Node1&#45;&gt;Node9</title>
<g id="a_edge9_Node000001_Node000009"><a xlink:title=" ">
<path fill="none" stroke="#63b8ff" d="M601.35,-91.96C585.12,-84.47 564.91,-75.75 546.25,-69.38 536.25,-65.96 525.37,-62.85 514.95,-60.15"/>
<polygon fill="#63b8ff" stroke="#63b8ff" points="599.48,-94.94 610.02,-96.02 602.45,-88.6 599.48,-94.94"/>
</a>
</g>
</g>
<!-- Node10 -->
<g id="Node000010" class="node">
<title>Node10</title>
<g id="a_Node000010"><a xlink:href="classDomainHom3D.html#af51c0166dbce1642b143f7bf910b7c12" target="_top" xlink:title="Scattering cross section via surface quadrature.">
<polygon fill="white" stroke="#666666" points="544.75,-20.75 386.25,-20.75 386.25,0 544.75,0 544.75,-20.75"/>
<text xml:space="preserve" text-anchor="middle" x="465.5" y="-7.25" font-family="Helvetica,sans-Serif" font-size="10.00">DomainHom3D::scatteringCS</text>
</a>
</g>
</g>
<!-- Node1&#45;&gt;Node10 -->
<g id="edge10_Node000001_Node000010" class="edge">
<title>Node1&#45;&gt;Node10</title>
<g id="a_edge10_Node000001_Node000010"><a xlink:title=" ">
<path fill="none" stroke="#63b8ff" d="M616.66,-88.25C600.47,-70.65 574.18,-45.11 546.25,-30.38 539.31,-26.71 531.67,-23.7 523.95,-21.23"/>
<polygon fill="#63b8ff" stroke="#63b8ff" points="613.87,-90.39 623.15,-95.51 619.09,-85.72 613.87,-90.39"/>
</a>
</g>
</g>
<!-- Node4 -->
<g id="Node000004" class="node">
<title>Node4</title>
<g id="a_Node000004"><a xlink:href="classSimJob.html#aa492cf9e3639f2dfa91e36364a76729a" target="_top" xlink:title="Thread worker to evaluate fields over posvec in parallel.">
<polygon fill="white" stroke="#666666" points="348.75,-156.75 212.75,-156.75 212.75,-136 348.75,-136 348.75,-156.75"/>
<text xml:space="preserve" text-anchor="middle" x="280.75" y="-143.25" font-family="Helvetica,sans-Serif" font-size="10.00">SimJob::FieldEvalParallel</text>
</a>
</g>
</g>
<!-- Node3&#45;&gt;Node4 -->
<g id="edge3_Node000003_Node000004" class="edge">
<title>Node3&#45;&gt;Node4</title>
<g id="a_edge3_Node000003_Node000004"><a xlink:title=" ">
<path fill="none" stroke="#63b8ff" d="M399.15,-159.22C382.91,-157.45 365.49,-155.54 349.16,-153.75"/>
<polygon fill="#63b8ff" stroke="#63b8ff" points="398.34,-162.66 408.66,-160.26 399.1,-155.7 398.34,-162.66"/>
</a>
</g>
</g>
<!-- Node5 -->
<g id="Node000005" class="node">
<title>Node5</title>
<g id="a_Node000005"><a xlink:href="classSimJob.html#a20b37e2e0aa2502a3ec465a5705b1774" target="_top" xlink:title="Evaluate fields on a set of points read from a file.">
<polygon fill="white" stroke="#666666" points="176.75,-156.75 76.75,-156.75 76.75,-136 176.75,-136 176.75,-156.75"/>
<text xml:space="preserve" text-anchor="middle" x="126.75" y="-143.25" font-family="Helvetica,sans-Serif" font-size="10.00">SimJob::FieldEval</text>
</a>
</g>
</g>
<!-- Node4&#45;&gt;Node5 -->
<g id="edge4_Node000004_Node000005" class="edge">
<title>Node4&#45;&gt;Node5</title>
<g id="a_edge4_Node000004_Node000005"><a xlink:title=" ">
<path fill="none" stroke="#63b8ff" d="M201.4,-146.38C193.16,-146.38 184.94,-146.38 177.16,-146.38"/>
<polygon fill="#63b8ff" stroke="#63b8ff" points="201.12,-149.88 211.12,-146.38 201.12,-142.88 201.12,-149.88"/>
</a>
</g>
</g>
<!-- Node6 -->
<g id="Node000006" class="node">
<title>Node6</title>
<g id="a_Node000006"><a xlink:href="main_8cpp.html#a0ddf1224851353fc92bfbff6f499fa97" target="_top" xlink:title="Main driver routine for the HELIOS SIE simulation program.">
<polygon fill="white" stroke="#666666" points="40.75,-156.75 0,-156.75 0,-136 40.75,-136 40.75,-156.75"/>
<text xml:space="preserve" text-anchor="middle" x="20.38" y="-143.25" font-family="Helvetica,sans-Serif" font-size="10.00">main</text>
</a>
</g>
</g>
<!-- Node5&#45;&gt;Node6 -->
<g id="edge5_Node000005_Node000006" class="edge">
<title>Node5&#45;&gt;Node6</title>
<g id="a_edge5_Node000005_Node000006"><a xlink:title=" ">
<path fill="none" stroke="#63b8ff" d="M64.97,-146.38C56.42,-146.38 48.18,-146.38 41.22,-146.38"/>
<polygon fill="#63b8ff" stroke="#63b8ff" points="64.8,-149.88 74.8,-146.38 64.8,-142.88 64.8,-149.88"/>
</a>
</g>
</g>
<!-- Node7&#45;&gt;Node4 -->
<g id="edge7_Node000007_Node000004" class="edge">
<title>Node7&#45;&gt;Node4</title>
<g id="a_edge7_Node000007_Node000004"><a xlink:title=" ">
<path fill="none" stroke="#63b8ff" d="M411.16,-132.92C391.7,-134.94 369.42,-137.26 348.91,-139.39"/>
<polygon fill="#63b8ff" stroke="#63b8ff" points="411.48,-136.41 421.07,-131.89 410.76,-129.44 411.48,-136.41"/>
</a>
</g>
</g>
</g>
</svg>
