<?xml version="1.0" encoding="UTF-8" standalone="no"?>
<!DOCTYPE svg PUBLIC "-//W3C//DTD SVG 1.1//EN"
 "http://www.w3.org/Graphics/SVG/1.1/DTD/svg11.dtd">
<!-- Generated by graphviz version 13.1.2 (20250809.0930)
 -->
<!-- Title: GreenFHom3DPer2D::IntegrateKappa Pages: 1 -->
<svg width="1118pt" height="496pt"
 viewBox="0.00 0.00 1118.00 496.00" xmlns="http://www.w3.org/2000/svg" xmlns:xlink="http://www.w3.org/1999/xlink">
<g id="graph0" class="graph" transform="scale(1 1) rotate(0) translate(4 491.75)">
<title>GreenFHom3DPer2D::IntegrateKappa</title>
<!-- Node1 -->
<g id="Node000001" class="node">
<title>Node1</title>
<g id="a_Node000001"><a xlink:title="term at an observation point.">
<polygon fill="#999999" stroke="#666666" points="167.5,-244.12 0,-244.12 0,-210.62 167.5,-210.62 167.5,-244.12"/>
<text xml:space="preserve" text-anchor="start" x="8" y="-230.62" font-family="Helvetica,sans-Serif" font-size="10.00">GreenFHom3DPer2D::Integrate</text>
<text xml:space="preserve" text-anchor="middle" x="83.75" y="-217.88" font-family="Helvetica,sans-Serif" font-size="10.00">Kappa</text>
</a>
</g>
</g>
<!-- Node2 -->
<g id="Node000002" class="node">
<title>Node2</title>
<g id="a_Node000002"><a xlink:href="classTriangle.html#a1d3d08deeb999f339d2e821a877521ba" target="_top" xlink:title="Surface area of the triangle.">
<polygon fill="white" stroke="#666666" points="338.75,-487.75 256,-487.75 256,-467 338.75,-467 338.75,-487.75"/>
<text xml:space="preserve" text-anchor="middle" x="297.38" y="-474.25" font-family="Helvetica,sans-Serif" font-size="10.00">Triangle::Area</text>
</a>
</g>
</g>
<!-- Node1&#45;&gt;Node2 -->
<g id="edge1_Node000001_Node000002" class="edge">
<title>Node1&#45;&gt;Node2</title>
<g id="a_edge1_Node000001_Node000002"><a xlink:title=" ">
<path fill="none" stroke="#63b8ff" d="M88.3,-244.46C98.2,-287.58 130.34,-401.39 203.5,-457.38 215.18,-466.31 229.99,-471.45 244.33,-474.35"/>
<polygon fill="#63b8ff" stroke="#63b8ff" points="243.74,-477.8 254.17,-475.98 244.88,-470.89 243.74,-477.8"/>
</a>
</g>
</g>
<!-- Node3 -->
<g id="Node000003" class="node">
<title>Node3</title>
<g id="a_Node000003"><a xlink:href="classTriangle.html#ab78508a340ec5d345adf114b43563dbf" target="_top" xlink:title="Centroid of the triangle.">
<polygon fill="white" stroke="#666666" points="343.62,-448.75 251.12,-448.75 251.12,-428 343.62,-428 343.62,-448.75"/>
<text xml:space="preserve" text-anchor="middle" x="297.38" y="-435.25" font-family="Helvetica,sans-Serif" font-size="10.00">Triangle::Center</text>
</a>
</g>
</g>
<!-- Node1&#45;&gt;Node3 -->
<g id="edge2_Node000001_Node000003" class="edge">
<title>Node1&#45;&gt;Node3</title>
<g id="a_edge2_Node000001_Node000003"><a xlink:title=" ">
<path fill="none" stroke="#63b8ff" d="M90.14,-244.34C103.08,-282.13 139.64,-373.43 203.5,-418.38 214.14,-425.86 227.04,-430.64 239.8,-433.66"/>
<polygon fill="#63b8ff" stroke="#63b8ff" points="238.94,-437.05 249.43,-435.59 240.32,-430.19 238.94,-437.05"/>
</a>
</g>
</g>
<!-- Node4 -->
<g id="Node000004" class="node">
<title>Node4</title>
<g id="a_Node000004"><a xlink:href="classRWGFun.html#a7540ce2f84c6b42a29c2808504c47d42" target="_top" xlink:title="Evaluate the RWG vector shape function at a point on the triangle.">
<polygon fill="white" stroke="#666666" points="350.38,-409.75 244.38,-409.75 244.38,-389 350.38,-389 350.38,-409.75"/>
<text xml:space="preserve" text-anchor="middle" x="297.38" y="-396.25" font-family="Helvetica,sans-Serif" font-size="10.00">RWGFun::Evaluate</text>
</a>
</g>
</g>
<!-- Node1&#45;&gt;Node4 -->
<g id="edge3_Node000001_Node000004" class="edge">
<title>Node1&#45;&gt;Node4</title>
<g id="a_edge3_Node000001_Node000004"><a xlink:title=" ">
<path fill="none" stroke="#63b8ff" d="M92.77,-244.39C108.88,-276.55 148.39,-346.11 203.5,-380.38 212.52,-385.99 222.91,-389.98 233.38,-392.8"/>
<polygon fill="#63b8ff" stroke="#63b8ff" points="232.28,-396.14 242.81,-395.01 233.87,-389.32 232.28,-396.14"/>
</a>
</g>
</g>
<!-- Node5 -->
<g id="Node000005" class="node">
<title>Node5</title>
<g id="a_Node000005"><a xlink:href="classGreenFHom3DPer2D.html#a410f5349268917cf86215e766118032c" target="_top" xlink:title="Smoothed source&#45;gradient for a specific translation.">
<polygon fill="white" stroke="#666666" points="380,-319.12 214.75,-319.12 214.75,-285.62 380,-285.62 380,-319.12"/>
<text xml:space="preserve" text-anchor="start" x="222.75" y="-305.62" font-family="Helvetica,sans-Serif" font-size="10.00">GreenFHom3DPer2D::Gradient</text>
<text xml:space="preserve" text-anchor="middle" x="297.38" y="-292.88" font-family="Helvetica,sans-Serif" font-size="10.00">SmoothedTranslate</text>
</a>
</g>
</g>
<!-- Node1&#45;&gt;Node5 -->
<g id="edge4_Node000001_Node000005" class="edge">
<title>Node1&#45;&gt;Node5</title>
<g id="a_edge4_Node000001_Node000005"><a xlink:title=" ">
<path fill="none" stroke="#63b8ff" d="M123.08,-244.55C146.13,-254.53 176.2,-266.96 203.5,-276.38 208.9,-278.24 214.51,-280.07 220.18,-281.84"/>
<polygon fill="#63b8ff" stroke="#63b8ff" points="219.09,-285.16 229.67,-284.72 221.12,-278.46 219.09,-285.16"/>
</a>
</g>
</g>
<!-- Node13 -->
<g id="Node000013" class="node">
<title>Node13</title>
<g id="a_Node000013"><a xlink:href="classGreenFHom3DPer2D.html#abfe000753f5712d72cef880cd4a64b3a" target="_top" xlink:title="Source&#45;gradient for a specific translation.">
<polygon fill="white" stroke="#666666" points="380,-371.12 214.75,-371.12 214.75,-337.62 380,-337.62 380,-371.12"/>
<text xml:space="preserve" text-anchor="start" x="222.75" y="-357.62" font-family="Helvetica,sans-Serif" font-size="10.00">GreenFHom3DPer2D::Gradient</text>
<text xml:space="preserve" text-anchor="middle" x="297.38" y="-344.88" font-family="Helvetica,sans-Serif" font-size="10.00">Translate</text>
</a>
</g>
</g>
<!-- Node1&#45;&gt;Node13 -->
<g id="edge15_Node000001_Node000013" class="edge">
<title>Node1&#45;&gt;Node13</title>
<g id="a_edge15_Node000001_Node000013"><a xlink:title=" ">
<path fill="none" stroke="#63b8ff" d="M99.97,-244.25C121.09,-266.66 161.45,-306 203.5,-328.38 206.51,-329.97 209.62,-331.48 212.81,-332.91"/>
<polygon fill="#63b8ff" stroke="#63b8ff" points="211.21,-336.04 221.79,-336.59 213.87,-329.56 211.21,-336.04"/>
</a>
</g>
</g>
<!-- Node15 -->
<g id="Node000015" class="node">
<title>Node15</title>
<g id="a_Node000015"><a xlink:href="classGreenFHom3DPer2D.html#a6e7bfc8640c70e6dfaa9f8e14cb916ea" target="_top" xlink:title="Constructor for a non&#45;magnetic medium (2D periodic).">
<polygon fill="white" stroke="#666666" points="391.25,-267.12 203.5,-267.12 203.5,-233.62 391.25,-233.62 391.25,-267.12"/>
<text xml:space="preserve" text-anchor="start" x="211.5" y="-253.62" font-family="Helvetica,sans-Serif" font-size="10.00">GreenFHom3DPer2D::GreenFHom3</text>
<text xml:space="preserve" text-anchor="middle" x="297.38" y="-240.88" font-family="Helvetica,sans-Serif" font-size="10.00">DPer2D</text>
</a>
</g>
</g>
<!-- Node1&#45;&gt;Node15 -->
<g id="edge19_Node000001_Node000015" class="edge">
<title>Node1&#45;&gt;Node15</title>
<g id="a_edge19_Node000001_Node000015"><a xlink:title=" ">
<path fill="none" stroke="#63b8ff" d="M167.78,-236.4C175.65,-237.25 183.7,-238.13 191.74,-239"/>
<polygon fill="#63b8ff" stroke="#63b8ff" points="191.25,-242.47 201.57,-240.07 192.01,-235.51 191.25,-242.47"/>
</a>
</g>
</g>
<!-- Node23 -->
<g id="Node000023" class="node">
<title>Node23</title>
<g id="a_Node000023"><a xlink:href="classSingSub.html#ab61a21e3498d2d6a4c0796254cf126ed" target="_top" xlink:title="K4(q) vector term.">
<polygon fill="white" stroke="#666666" points="334.25,-215.75 260.5,-215.75 260.5,-195 334.25,-195 334.25,-215.75"/>
<text xml:space="preserve" text-anchor="middle" x="297.38" y="-202.25" font-family="Helvetica,sans-Serif" font-size="10.00">SingSub::K4</text>
</a>
</g>
</g>
<!-- Node1&#45;&gt;Node23 -->
<g id="edge28_Node000001_Node000023" class="edge">
<title>Node1&#45;&gt;Node23</title>
<g id="a_edge28_Node000001_Node000023"><a xlink:title=" ">
<path fill="none" stroke="#63b8ff" d="M167.78,-218.74C195.35,-215.88 225.08,-212.79 249,-210.3"/>
<polygon fill="#63b8ff" stroke="#63b8ff" points="249.15,-213.8 258.74,-209.29 248.43,-206.84 249.15,-213.8"/>
</a>
</g>
</g>
<!-- Node25 -->
<g id="Node000025" class="node">
<title>Node25</title>
<g id="a_Node000025"><a xlink:href="classTriangle.html#a0752d2c9488c7c44b851b8f75abcaa79" target="_top" xlink:title="Node position (by value) for local index 0..2.">
<polygon fill="white" stroke="#666666" points="340.25,-176.75 254.5,-176.75 254.5,-156 340.25,-156 340.25,-176.75"/>
<text xml:space="preserve" text-anchor="middle" x="297.38" y="-163.25" font-family="Helvetica,sans-Serif" font-size="10.00">Triangle::Node</text>
</a>
</g>
</g>
<!-- Node1&#45;&gt;Node25 -->
<g id="edge30_Node000001_Node000025" class="edge">
<title>Node1&#45;&gt;Node25</title>
<g id="a_edge30_Node000001_Node000025"><a xlink:title=" ">
<path fill="none" stroke="#63b8ff" d="M130.3,-210.21C152.24,-202.31 179.03,-193.21 203.5,-186.38 216.16,-182.84 229.93,-179.57 242.9,-176.74"/>
<polygon fill="#63b8ff" stroke="#63b8ff" points="243.51,-180.19 252.56,-174.69 242.05,-173.34 243.51,-180.19"/>
</a>
</g>
</g>
<!-- Node26 -->
<g id="Node000026" class="node">
<title>Node26</title>
<g id="a_Node000026"><a xlink:href="classTriangle.html#a6e7daa074db3d147b33763bfd2a6e83b" target="_top" xlink:title="Perimeter (sum of edge lengths).">
<polygon fill="white" stroke="#666666" points="351.5,-137.75 243.25,-137.75 243.25,-117 351.5,-117 351.5,-137.75"/>
<text xml:space="preserve" text-anchor="middle" x="297.38" y="-124.25" font-family="Helvetica,sans-Serif" font-size="10.00">Triangle::Perimeter</text>
</a>
</g>
</g>
<!-- Node1&#45;&gt;Node26 -->
<g id="edge31_Node000001_Node000026" class="edge">
<title>Node1&#45;&gt;Node26</title>
<g id="a_edge31_Node000001_Node000026"><a xlink:title=" ">
<path fill="none" stroke="#63b8ff" d="M104.79,-210.33C127.34,-192.03 165.76,-163.44 203.5,-147.38 212.54,-143.53 222.4,-140.39 232.22,-137.83"/>
<polygon fill="#63b8ff" stroke="#63b8ff" points="232.85,-141.28 241.76,-135.54 231.22,-134.47 232.85,-141.28"/>
</a>
</g>
</g>
<!-- Node27 -->
<g id="Node000027" class="node">
<title>Node27</title>
<g id="a_Node000027"><a xlink:href="classGreenFHom3DPer2D.html#a098b4d59dde268718483b4ac9906e446" target="_top" xlink:title="Map a displacement to the primitive cell.">
<polygon fill="white" stroke="#666666" points="390.5,-98.75 204.25,-98.75 204.25,-78 390.5,-78 390.5,-98.75"/>
<text xml:space="preserve" text-anchor="middle" x="297.38" y="-85.25" font-family="Helvetica,sans-Serif" font-size="10.00">GreenFHom3DPer2D::PrimitiveCell</text>
</a>
</g>
</g>
<!-- Node1&#45;&gt;Node27 -->
<g id="edge32_Node000001_Node000027" class="edge">
<title>Node1&#45;&gt;Node27</title>
<g id="a_edge32_Node000001_Node000027"><a xlink:title=" ">
<path fill="none" stroke="#63b8ff" d="M96.46,-210.53C115.63,-184.31 156.35,-134.09 203.5,-108.38 207.12,-106.4 210.91,-104.63 214.81,-103.02"/>
<polygon fill="#63b8ff" stroke="#63b8ff" points="215.73,-106.41 223.93,-99.7 213.33,-99.84 215.73,-106.41"/>
</a>
</g>
</g>
<!-- Node28 -->
<g id="Node000028" class="node">
<title>Node28</title>
<g id="a_Node000028"><a xlink:href="classSingSub.html#a20337fe20529d26c1775c8ba6d47cad0" target="_top" xlink:title="Preferred initialization that fills all cached arrays (ILar/ISar).">
<polygon fill="white" stroke="#666666" points="366.88,-59.75 227.88,-59.75 227.88,-39 366.88,-39 366.88,-59.75"/>
<text xml:space="preserve" text-anchor="middle" x="297.38" y="-46.25" font-family="Helvetica,sans-Serif" font-size="10.00">SingSub::SetTriangleRWG</text>
</a>
</g>
</g>
<!-- Node1&#45;&gt;Node28 -->
<g id="edge33_Node000001_Node000028" class="edge">
<title>Node1&#45;&gt;Node28</title>
<g id="a_edge33_Node000001_Node000028"><a xlink:title=" ">
<path fill="none" stroke="#63b8ff" d="M92.4,-210.37C108.14,-177.49 147.43,-105.25 203.5,-69.38 207.76,-66.65 212.33,-64.29 217.07,-62.25"/>
<polygon fill="#63b8ff" stroke="#63b8ff" points="218.13,-65.59 226.27,-58.8 215.68,-59.04 218.13,-65.59"/>
</a>
</g>
</g>
<!-- Node29 -->
<g id="Node000029" class="node">
<title>Node29</title>
<g id="a_Node000029"><a xlink:href="classRWGFun.html#a6d9c854fc60bc02cb51ffb60cf388ccc" target="_top" xlink:title="Get the pointer to the owner Triangle.">
<polygon fill="white" stroke="#666666" points="354.88,-20.75 239.88,-20.75 239.88,0 354.88,0 354.88,-20.75"/>
<text xml:space="preserve" text-anchor="middle" x="297.38" y="-7.25" font-family="Helvetica,sans-Serif" font-size="10.00">RWGFun::TrianglePtr</text>
</a>
</g>
</g>
<!-- Node1&#45;&gt;Node29 -->
<g id="edge34_Node000001_Node000029" class="edge">
<title>Node1&#45;&gt;Node29</title>
<g id="a_edge34_Node000001_Node000029"><a xlink:title=" ">
<path fill="none" stroke="#63b8ff" d="M89.89,-210.17C102.41,-171.39 138.34,-76.91 203.5,-30.38 211.04,-24.99 219.74,-21.01 228.73,-18.07"/>
<polygon fill="#63b8ff" stroke="#63b8ff" points="229.64,-21.45 238.32,-15.38 227.75,-14.71 229.64,-21.45"/>
</a>
</g>
</g>
<!-- Node6 -->
<g id="Node000006" class="node">
<title>Node6</title>
<g id="a_Node000006"><a xlink:href="classGreenFHom3DPer2D.html#a11d147713f81b9b9684aa9d39514a2c6" target="_top" xlink:title="Spatial part of the smoothed source&#45;gradient .">
<polygon fill="white" stroke="#666666" points="608.62,-371.12 443.38,-371.12 443.38,-337.62 608.62,-337.62 608.62,-371.12"/>
<text xml:space="preserve" text-anchor="start" x="451.38" y="-357.62" font-family="Helvetica,sans-Serif" font-size="10.00">GreenFHom3DPer2D::Gradient</text>
<text xml:space="preserve" text-anchor="middle" x="526" y="-344.88" font-family="Helvetica,sans-Serif" font-size="10.00">EwaldSpatialSmoothed</text>
</a>
</g>
</g>
<!-- Node5&#45;&gt;Node6 -->
<g id="edge5_Node000005_Node000006" class="edge">
<title>Node5&#45;&gt;Node6</title>
<g id="a_edge5_Node000005_Node000006"><a xlink:title=" ">
<path fill="none" stroke="#63b8ff" d="M373.52,-319.62C394.48,-324.43 417.41,-329.69 438.94,-334.63"/>
<polygon fill="#63b8ff" stroke="#63b8ff" points="438.05,-338.01 448.58,-336.84 439.62,-331.19 438.05,-338.01"/>
</a>
</g>
</g>
<!-- Node11 -->
<g id="Node000011" class="node">
<title>Node11</title>
<g id="a_Node000011"><a xlink:href="classGreenFHom3DPer2D.html#a1ab7bcf35b15f67bb9824040c34c8bbc" target="_top" xlink:title="Spectral part of the source&#45;gradient .">
<polygon fill="white" stroke="#666666" points="608.62,-319.12 443.38,-319.12 443.38,-285.62 608.62,-285.62 608.62,-319.12"/>
<text xml:space="preserve" text-anchor="start" x="451.38" y="-305.62" font-family="Helvetica,sans-Serif" font-size="10.00">GreenFHom3DPer2D::Gradient</text>
<text xml:space="preserve" text-anchor="middle" x="526" y="-292.88" font-family="Helvetica,sans-Serif" font-size="10.00">EwaldSpectral</text>
</a>
</g>
</g>
<!-- Node5&#45;&gt;Node11 -->
<g id="edge11_Node000005_Node000011" class="edge">
<title>Node5&#45;&gt;Node11</title>
<g id="a_edge11_Node000005_Node000011"><a xlink:title=" ">
<path fill="none" stroke="#63b8ff" d="M380.19,-302.38C396.94,-302.38 414.68,-302.38 431.79,-302.38"/>
<polygon fill="#63b8ff" stroke="#63b8ff" points="431.41,-305.88 441.41,-302.38 431.41,-298.88 431.41,-305.88"/>
</a>
</g>
</g>
<!-- Node7 -->
<g id="Node000007" class="node">
<title>Node7</title>
<g id="a_Node000007"><a xlink:href="classGreenF.html#abf00726011a4eca4109bc43125218d30" target="_top" xlink:title="Evaluate erfc via the 2D lookup table if available.">
<polygon fill="white" stroke="#666666" points="791.5,-364.75 704.25,-364.75 704.25,-344 791.5,-344 791.5,-364.75"/>
<text xml:space="preserve" text-anchor="middle" x="747.88" y="-351.25" font-family="Helvetica,sans-Serif" font-size="10.00">GreenF::EvErfc</text>
</a>
</g>
</g>
<!-- Node6&#45;&gt;Node7 -->
<g id="edge6_Node000006_Node000007" class="edge">
<title>Node6&#45;&gt;Node7</title>
<g id="a_edge6_Node000006_Node000007"><a xlink:title=" ">
<path fill="none" stroke="#63b8ff" d="M608.87,-354.38C636.83,-354.38 667.37,-354.38 692.6,-354.38"/>
<polygon fill="#63b8ff" stroke="#63b8ff" points="692.28,-357.88 702.28,-354.38 692.28,-350.88 692.28,-357.88"/>
</a>
</g>
</g>
<!-- Node8 -->
<g id="Node000008" class="node">
<title>Node8</title>
<g id="a_Node000008"><a xlink:href="mathFunctions_8cpp.html#a7916c6b62310fe9cf38ec2a2890aaad4" target="_top" xlink:title="Complementary error function for complex arguments.">
<polygon fill="white" stroke="#666666" points="936.88,-388.75 896.88,-388.75 896.88,-368 936.88,-368 936.88,-388.75"/>
<text xml:space="preserve" text-anchor="middle" x="916.88" y="-375.25" font-family="Helvetica,sans-Serif" font-size="10.00">cerfc</text>
</a>
</g>
</g>
<!-- Node7&#45;&gt;Node8 -->
<g id="edge7_Node000007_Node000008" class="edge">
<title>Node7&#45;&gt;Node8</title>
<g id="a_edge7_Node000007_Node000008"><a xlink:title=" ">
<path fill="none" stroke="#63b8ff" d="M791.88,-360.56C821.21,-364.77 859.34,-370.25 885.53,-374.01"/>
<polygon fill="#63b8ff" stroke="#63b8ff" points="884.75,-377.44 895.15,-375.4 885.75,-370.51 884.75,-377.44"/>
</a>
</g>
</g>
<!-- Node10 -->
<g id="Node000010" class="node">
<title>Node10</title>
<g id="a_Node000010"><a xlink:href="Domain_8cpp.html#aafa3e4fa6318b2f8740f4dbd50c367e5" target="_top" xlink:title="Extract the real part of each component of a complex 3&#45;vector.">
<polygon fill="white" stroke="#666666" points="1109.5,-331.75 1074.75,-331.75 1074.75,-311 1109.5,-311 1109.5,-331.75"/>
<text xml:space="preserve" text-anchor="middle" x="1092.12" y="-318.25" font-family="Helvetica,sans-Serif" font-size="10.00">real</text>
</a>
</g>
</g>
<!-- Node7&#45;&gt;Node10 -->
<g id="edge9_Node000007_Node000010" class="edge">
<title>Node7&#45;&gt;Node10</title>
<g id="a_edge9_Node000007_Node000010"><a xlink:title=" ">
<path fill="none" stroke="#63b8ff" d="M791.87,-350.23C863.09,-343.36 1003.58,-329.82 1063.26,-324.06"/>
<polygon fill="#63b8ff" stroke="#63b8ff" points="1063.27,-327.58 1072.88,-323.13 1062.59,-320.61 1063.27,-327.58"/>
</a>
</g>
</g>
<!-- Node9 -->
<g id="Node000009" class="node">
<title>Node9</title>
<g id="a_Node000009"><a xlink:href="mathFunctions_8cpp.html#abc57cde75234d7e165a9ebcdb45f2c29" target="_top" xlink:title="Error function for complex arguments.">
<polygon fill="white" stroke="#666666" points="1036.12,-388.75 1001.38,-388.75 1001.38,-368 1036.12,-368 1036.12,-388.75"/>
<text xml:space="preserve" text-anchor="middle" x="1018.75" y="-375.25" font-family="Helvetica,sans-Serif" font-size="10.00">cerf</text>
</a>
</g>
</g>
<!-- Node8&#45;&gt;Node9 -->
<g id="edge8_Node000008_Node000009" class="edge">
<title>Node8&#45;&gt;Node9</title>
<g id="a_edge8_Node000008_Node000009"><a xlink:title=" ">
<path fill="none" stroke="#63b8ff" d="M937.13,-378.38C952,-378.38 972.8,-378.38 989.54,-378.38"/>
<polygon fill="#63b8ff" stroke="#63b8ff" points="989.36,-381.88 999.36,-378.38 989.36,-374.88 989.36,-381.88"/>
</a>
</g>
</g>
<!-- Node10&#45;&gt;Node10 -->
<g id="edge10_Node000010_Node000010" class="edge">
<title>Node10&#45;&gt;Node10</title>
<g id="a_edge10_Node000010_Node000010"><a xlink:title=" ">
<path fill="none" stroke="#63b8ff" d="M1080.3,-332.15C1075.57,-340.81 1079.51,-349.75 1092.12,-349.75 1098.82,-349.75 1103.08,-347.23 1104.88,-343.56"/>
<polygon fill="#63b8ff" stroke="#63b8ff" points="1108.38,-343.34 1104.07,-333.66 1101.4,-343.91 1108.38,-343.34"/>
</a>
</g>
</g>
<!-- Node11&#45;&gt;Node7 -->
<g id="edge14_Node000011_Node000007" class="edge">
<title>Node11&#45;&gt;Node7</title>
<g id="a_edge14_Node000011_Node000007"><a xlink:title=" ">
<path fill="none" stroke="#63b8ff" d="M599.91,-319.62C630.23,-326.79 664.81,-334.97 692.81,-341.59"/>
<polygon fill="#63b8ff" stroke="#63b8ff" points="691.97,-344.99 702.5,-343.88 693.58,-338.17 691.97,-344.99"/>
</a>
</g>
</g>
<!-- Node12 -->
<g id="Node000012" class="node">
<title>Node12</title>
<g id="a_Node000012"><a xlink:href="group__greenFunction.html#gac0a52dce23be7dacdf97c68653b6c137" target="_top" xlink:title="Complex square root with a branch cut along the negative real axis.">
<polygon fill="white" stroke="#666666" points="1038.75,-312.75 998.75,-312.75 998.75,-292 1038.75,-292 1038.75,-312.75"/>
<text xml:space="preserve" text-anchor="middle" x="1018.75" y="-299.25" font-family="Helvetica,sans-Serif" font-size="10.00">csqrt</text>
</a>
</g>
</g>
<!-- Node11&#45;&gt;Node12 -->
<g id="edge12_Node000011_Node000012" class="edge">
<title>Node11&#45;&gt;Node12</title>
<g id="a_edge12_Node000011_Node000012"><a xlink:title=" ">
<path fill="none" stroke="#63b8ff" d="M608.86,-302.38C719.94,-302.38 913.07,-302.38 987.4,-302.38"/>
<polygon fill="#63b8ff" stroke="#63b8ff" points="987.16,-305.88 997.16,-302.38 987.16,-298.88 987.16,-305.88"/>
</a>
</g>
</g>
<!-- Node12&#45;&gt;Node10 -->
<g id="edge13_Node000012_Node000010" class="edge">
<title>Node12&#45;&gt;Node10</title>
<g id="a_edge13_Node000012_Node000010"><a xlink:title=" ">
<path fill="none" stroke="#63b8ff" d="M1038.88,-307.47C1046.4,-309.47 1055.18,-311.81 1063.38,-313.99"/>
<polygon fill="#63b8ff" stroke="#63b8ff" points="1062.35,-317.34 1072.91,-316.53 1064.15,-310.57 1062.35,-317.34"/>
</a>
</g>
</g>
<!-- Node13&#45;&gt;Node11 -->
<g id="edge18_Node000013_Node000011" class="edge">
<title>Node13&#45;&gt;Node11</title>
<g id="a_edge18_Node000013_Node000011"><a xlink:title=" ">
<path fill="none" stroke="#63b8ff" d="M373.52,-337.13C394.48,-332.32 417.41,-327.06 438.94,-322.12"/>
<polygon fill="#63b8ff" stroke="#63b8ff" points="439.62,-325.56 448.58,-319.91 438.05,-318.74 439.62,-325.56"/>
</a>
</g>
</g>
<!-- Node14 -->
<g id="Node000014" class="node">
<title>Node14</title>
<g id="a_Node000014"><a xlink:href="classGreenFHom3DPer2D.html#a9e049d83cd897078023b76fb89558d31" target="_top" xlink:title="Spatial part of the source&#45;gradient.">
<polygon fill="white" stroke="#666666" points="608.62,-423.12 443.38,-423.12 443.38,-389.62 608.62,-389.62 608.62,-423.12"/>
<text xml:space="preserve" text-anchor="start" x="451.38" y="-409.62" font-family="Helvetica,sans-Serif" font-size="10.00">GreenFHom3DPer2D::Gradient</text>
<text xml:space="preserve" text-anchor="middle" x="526" y="-396.88" font-family="Helvetica,sans-Serif" font-size="10.00">EwaldSpatial</text>
</a>
</g>
</g>
<!-- Node13&#45;&gt;Node14 -->
<g id="edge16_Node000013_Node000014" class="edge">
<title>Node13&#45;&gt;Node14</title>
<g id="a_edge16_Node000013_Node000014"><a xlink:title=" ">
<path fill="none" stroke="#63b8ff" d="M373.52,-371.62C394.48,-376.43 417.41,-381.69 438.94,-386.63"/>
<polygon fill="#63b8ff" stroke="#63b8ff" points="438.05,-390.01 448.58,-388.84 439.62,-383.19 438.05,-390.01"/>
</a>
</g>
</g>
<!-- Node14&#45;&gt;Node7 -->
<g id="edge17_Node000014_Node000007" class="edge">
<title>Node14&#45;&gt;Node7</title>
<g id="a_edge17_Node000014_Node000007"><a xlink:title=" ">
<path fill="none" stroke="#63b8ff" d="M599.91,-389.13C630.23,-381.96 664.81,-373.78 692.81,-367.16"/>
<polygon fill="#63b8ff" stroke="#63b8ff" points="693.58,-370.58 702.5,-364.87 691.97,-363.76 693.58,-370.58"/>
</a>
</g>
</g>
<!-- Node16 -->
<g id="Node000016" class="node">
<title>Node16</title>
<g id="a_Node000016"><a xlink:href="classGreenFHom3DPer.html#a414d2e05ac1b3d089e2a5556e6e16a93" target="_top" xlink:title="Homogeneous, non‑magnetic constructor with Bloch vector.">
<polygon fill="white" stroke="#666666" points="624.75,-267.75 427.25,-267.75 427.25,-247 624.75,-247 624.75,-267.75"/>
<text xml:space="preserve" text-anchor="middle" x="526" y="-254.25" font-family="Helvetica,sans-Serif" font-size="10.00">GreenFHom3DPer::GreenFHom3DPer</text>
</a>
</g>
</g>
<!-- Node15&#45;&gt;Node16 -->
<g id="edge20_Node000015_Node000016" class="edge">
<title>Node15&#45;&gt;Node16</title>
<g id="a_edge20_Node000015_Node000016"><a xlink:title=" ">
<path fill="none" stroke="#63b8ff" d="M391.53,-253.25C399.5,-253.5 407.6,-253.75 415.68,-254"/>
<polygon fill="#63b8ff" stroke="#63b8ff" points="415.44,-257.49 425.55,-254.3 415.66,-250.5 415.44,-257.49"/>
</a>
</g>
</g>
<!-- Node19 -->
<g id="Node000019" class="node">
<title>Node19</title>
<g id="a_Node000019"><a xlink:href="classGreenFHom3DPer2D.html#a3160d2ff20a3ec478d2fb6e9b72cf79d" target="_top" xlink:title="Common initialization: set lookup flags, build reciprocal lattice, project k, choose Ewald parameter.">
<polygon fill="white" stroke="#666666" points="595.5,-228.75 456.5,-228.75 456.5,-208 595.5,-208 595.5,-228.75"/>
<text xml:space="preserve" text-anchor="middle" x="526" y="-215.25" font-family="Helvetica,sans-Serif" font-size="10.00">GreenFHom3DPer2D::Init</text>
</a>
</g>
</g>
<!-- Node15&#45;&gt;Node19 -->
<g id="edge24_Node000015_Node000019" class="edge">
<title>Node15&#45;&gt;Node19</title>
<g id="a_edge24_Node000015_Node000019"><a xlink:title=" ">
<path fill="none" stroke="#63b8ff" d="M391.53,-237.22C409.26,-234.72 427.66,-232.12 444.94,-229.68"/>
<polygon fill="#63b8ff" stroke="#63b8ff" points="445.2,-233.18 454.61,-228.31 444.22,-226.25 445.2,-233.18"/>
</a>
</g>
</g>
<!-- Node17 -->
<g id="Node000017" class="node">
<title>Node17</title>
<g id="a_Node000017"><a xlink:href="classGreenFHom3D.html#ac928f16e6e79c75c002d9a721a8858d8" target="_top" xlink:title="Default constructor (initializes with zeroed wavenumber and no lookup table).">
<polygon fill="white" stroke="#666666" points="830.88,-274.75 664.88,-274.75 664.88,-254 830.88,-254 830.88,-274.75"/>
<text xml:space="preserve" text-anchor="middle" x="747.88" y="-261.25" font-family="Helvetica,sans-Serif" font-size="10.00">GreenFHom3D::GreenFHom3D</text>
</a>
</g>
</g>
<!-- Node16&#45;&gt;Node17 -->
<g id="edge21_Node000016_Node000017" class="edge">
<title>Node16&#45;&gt;Node17</title>
<g id="a_edge21_Node000016_Node000017"><a xlink:title=" ">
<path fill="none" stroke="#63b8ff" d="M625.04,-260.5C634.4,-260.79 643.88,-261.1 653.2,-261.39"/>
<polygon fill="#63b8ff" stroke="#63b8ff" points="652.85,-264.88 662.96,-261.7 653.08,-257.89 652.85,-264.88"/>
</a>
</g>
</g>
<!-- Node18 -->
<g id="Node000018" class="node">
<title>Node18</title>
<g id="a_Node000018"><a xlink:href="classGreenF.html#a332ac24f39288170f77c18f37fde2c82" target="_top" xlink:title="Constructor for a homogeneous, non&#45;magnetic medium.">
<polygon fill="white" stroke="#666666" points="962.75,-274.75 871,-274.75 871,-254 962.75,-254 962.75,-274.75"/>
<text xml:space="preserve" text-anchor="middle" x="916.88" y="-261.25" font-family="Helvetica,sans-Serif" font-size="10.00">GreenF::GreenF</text>
</a>
</g>
</g>
<!-- Node17&#45;&gt;Node18 -->
<g id="edge22_Node000017_Node000018" class="edge">
<title>Node17&#45;&gt;Node18</title>
<g id="a_edge22_Node000017_Node000018"><a xlink:title=" ">
<path fill="none" stroke="#63b8ff" d="M830.91,-264.38C840.54,-264.38 850.19,-264.38 859.36,-264.38"/>
<polygon fill="#63b8ff" stroke="#63b8ff" points="859.16,-267.88 869.16,-264.38 859.16,-260.88 859.16,-267.88"/>
</a>
</g>
</g>
<!-- Node18&#45;&gt;Node12 -->
<g id="edge23_Node000018_Node000012" class="edge">
<title>Node18&#45;&gt;Node12</title>
<g id="a_edge23_Node000018_Node000012"><a xlink:title=" ">
<path fill="none" stroke="#63b8ff" d="M946.23,-275.16C959.29,-280.13 974.8,-286.03 988.03,-291.07"/>
<polygon fill="#63b8ff" stroke="#63b8ff" points="986.5,-294.23 997.09,-294.51 988.99,-287.69 986.5,-294.23"/>
</a>
</g>
</g>
<!-- Node20 -->
<g id="Node000020" class="node">
<title>Node20</title>
<g id="a_Node000020"><a xlink:href="classGreenFHom3DPer.html#a8b1a5f0f63af1baf32caeebbf9b33170" target="_top" xlink:title="Set the number of periodic evaluation terms to accumulate.">
<polygon fill="white" stroke="#666666" points="828.62,-236.12 667.12,-236.12 667.12,-202.62 828.62,-202.62 828.62,-236.12"/>
<text xml:space="preserve" text-anchor="start" x="675.12" y="-222.62" font-family="Helvetica,sans-Serif" font-size="10.00">GreenFHom3DPer::Evaluation</text>
<text xml:space="preserve" text-anchor="middle" x="747.88" y="-209.88" font-family="Helvetica,sans-Serif" font-size="10.00">Terms</text>
</a>
</g>
</g>
<!-- Node19&#45;&gt;Node20 -->
<g id="edge25_Node000019_Node000020" class="edge">
<title>Node19&#45;&gt;Node20</title>
<g id="a_edge25_Node000019_Node000020"><a xlink:title=" ">
<path fill="none" stroke="#63b8ff" d="M595.97,-218.69C614.9,-218.77 635.72,-218.87 655.7,-218.96"/>
<polygon fill="#63b8ff" stroke="#63b8ff" points="655.48,-222.46 665.5,-219 655.52,-215.46 655.48,-222.46"/>
</a>
</g>
</g>
<!-- Node21 -->
<g id="Node000021" class="node">
<title>Node21</title>
<g id="a_Node000021"><a xlink:href="classGreenFHom3DPer2D.html#a07235ce91a1e9b3410f5fad888d0e44c" target="_top" xlink:title="Build reciprocal lattice vectors.">
<polygon fill="white" stroke="#666666" points="835,-184.75 660.75,-184.75 660.75,-164 835,-164 835,-184.75"/>
<text xml:space="preserve" text-anchor="middle" x="747.88" y="-171.25" font-family="Helvetica,sans-Serif" font-size="10.00">GreenFHom3DPer2D::Reciprocal</text>
</a>
</g>
</g>
<!-- Node19&#45;&gt;Node21 -->
<g id="edge26_Node000019_Node000021" class="edge">
<title>Node19&#45;&gt;Node21</title>
<g id="a_edge26_Node000019_Node000021"><a xlink:title=" ">
<path fill="none" stroke="#63b8ff" d="M581.07,-207.56C611.44,-201.48 649.55,-193.85 681.58,-187.44"/>
<polygon fill="#63b8ff" stroke="#63b8ff" points="682.03,-190.92 691.15,-185.53 680.66,-184.06 682.03,-190.92"/>
</a>
</g>
</g>
<!-- Node22 -->
<g id="Node000022" class="node">
<title>Node22</title>
<g id="a_Node000022"><a xlink:href="classGreenFHom3DPer2D.html#a9352fdb0ead2b5956f3e951122f73e18" target="_top" xlink:title="Project the Bloch vector onto the lattice plane.">
<polygon fill="white" stroke="#666666" points="828.25,-145.75 667.5,-145.75 667.5,-125 828.25,-125 828.25,-145.75"/>
<text xml:space="preserve" text-anchor="middle" x="747.88" y="-132.25" font-family="Helvetica,sans-Serif" font-size="10.00">GreenFHom3DPer2D::ToPlane</text>
</a>
</g>
</g>
<!-- Node19&#45;&gt;Node22 -->
<g id="edge27_Node000019_Node000022" class="edge">
<title>Node19&#45;&gt;Node22</title>
<g id="a_edge27_Node000019_Node000022"><a xlink:title=" ">
<path fill="none" stroke="#63b8ff" d="M595.97,-210.37C606.05,-207.49 615.97,-203.61 624.75,-198.38 646.16,-185.61 639.51,-168.42 660.75,-155.38 663.66,-153.58 666.72,-151.95 669.88,-150.47"/>
<polygon fill="#63b8ff" stroke="#63b8ff" points="670.92,-153.83 678.84,-146.78 668.26,-147.35 670.92,-153.83"/>
</a>
</g>
</g>
<!-- Node24 -->
<g id="Node000024" class="node">
<title>Node24</title>
<g id="a_Node000024"><a xlink:href="classSingSub.html#a3e9e0b5a61df98d8f8138544c7df3da0" target="_top" xlink:title="K3(q) vector term.">
<polygon fill="white" stroke="#666666" points="562.88,-189.75 489.12,-189.75 489.12,-169 562.88,-169 562.88,-189.75"/>
<text xml:space="preserve" text-anchor="middle" x="526" y="-176.25" font-family="Helvetica,sans-Serif" font-size="10.00">SingSub::K3</text>
</a>
</g>
</g>
<!-- Node23&#45;&gt;Node24 -->
<g id="edge29_Node000023_Node000024" class="edge">
<title>Node23&#45;&gt;Node24</title>
<g id="a_edge29_Node000023_Node000024"><a xlink:title=" ">
<path fill="none" stroke="#63b8ff" d="M334.53,-201.23C373.34,-196.77 435.14,-189.68 477.76,-184.79"/>
<polygon fill="#63b8ff" stroke="#63b8ff" points="477.93,-188.3 487.47,-183.68 477.13,-181.34 477.93,-188.3"/>
</a>
</g>
</g>
</g>
</svg>
