<?xml version="1.0" encoding="UTF-8" standalone="no"?>
<!DOCTYPE svg PUBLIC "-//W3C//DTD SVG 1.1//EN"
 "http://www.w3.org/Graphics/SVG/1.1/DTD/svg11.dtd">
<!-- Generated by graphviz version 13.1.2 (20250809.0930)
 -->
<!-- Title: SimJob::FieldEvalParallel Pages: 1 -->
<svg width="605pt" height="224pt"
 viewBox="0.00 0.00 605.00 224.00" xmlns="http://www.w3.org/2000/svg" xmlns:xlink="http://www.w3.org/1999/xlink">
<g id="graph0" class="graph" transform="scale(1 1) rotate(0) translate(4 219.75)">
<title>SimJob::FieldEvalParallel</title>
<!-- Node1 -->
<g id="Node000001" class="node">
<title>Node1</title>
<g id="a_Node000001"><a xlink:title="Thread worker to evaluate fields over posvec in parallel.">
<polygon fill="#999999" stroke="#666666" points="136,-137.75 0,-137.75 0,-117 136,-117 136,-137.75"/>
<text xml:space="preserve" text-anchor="middle" x="68" y="-124.25" font-family="Helvetica,sans-Serif" font-size="10.00">SimJob::FieldEvalParallel</text>
</a>
</g>
</g>
<!-- Node2 -->
<g id="Node000002" class="node">
<title>Node2</title>
<g id="a_Node000002"><a xlink:href="classSimJob.html#a24f10b7bb14c9181341d07a783e00214" target="_top" xlink:title="Return both , &#160;incident and secondary pairs at pos.">
<polygon fill="white" stroke="#666666" points="282.5,-137.75 172,-137.75 172,-117 282.5,-117 282.5,-137.75"/>
<text xml:space="preserve" text-anchor="middle" x="227.25" y="-124.25" font-family="Helvetica,sans-Serif" font-size="10.00">SimJob::EandHField</text>
</a>
</g>
</g>
<!-- Node1&#45;&gt;Node2 -->
<g id="edge1_Node000001_Node000002" class="edge">
<title>Node1&#45;&gt;Node2</title>
<g id="a_edge1_Node000001_Node000002"><a xlink:title=" ">
<path fill="none" stroke="#63b8ff" d="M136.14,-127.38C144.11,-127.38 152.23,-127.38 160.18,-127.38"/>
<polygon fill="#63b8ff" stroke="#63b8ff" points="160.15,-130.88 170.15,-127.38 160.15,-123.88 160.15,-130.88"/>
</a>
</g>
</g>
<!-- Node8 -->
<g id="Node000008" class="node">
<title>Node8</title>
<g id="a_Node000008"><a xlink:href="classSimJob.html#a746e46ef2aa6843c2f4da96e472c75a3" target="_top" xlink:title="Incident and secondary &#160;at pos (domain auto&#45;detected).">
<polygon fill="white" stroke="#666666" points="269.75,-176.75 184.75,-176.75 184.75,-156 269.75,-156 269.75,-176.75"/>
<text xml:space="preserve" text-anchor="middle" x="227.25" y="-163.25" font-family="Helvetica,sans-Serif" font-size="10.00">SimJob::EField</text>
</a>
</g>
</g>
<!-- Node1&#45;&gt;Node8 -->
<g id="edge7_Node000001_Node000008" class="edge">
<title>Node1&#45;&gt;Node8</title>
<g id="a_edge7_Node000001_Node000008"><a xlink:title=" ">
<path fill="none" stroke="#63b8ff" d="M112.8,-138.24C131.58,-142.9 153.67,-148.38 173.35,-153.26"/>
<polygon fill="#63b8ff" stroke="#63b8ff" points="172.29,-156.6 182.84,-155.61 173.97,-149.8 172.29,-156.6"/>
</a>
</g>
</g>
<!-- Node11 -->
<g id="Node000011" class="node">
<title>Node11</title>
<g id="a_Node000011"><a xlink:href="classSimJob.html#ae9e4bc91d7636bf3e7fd151c870cd01f" target="_top" xlink:title="Incident and secondary &#160;at pos (domain auto&#45;detected).">
<polygon fill="white" stroke="#666666" points="270.5,-79.75 184,-79.75 184,-59 270.5,-59 270.5,-79.75"/>
<text xml:space="preserve" text-anchor="middle" x="227.25" y="-66.25" font-family="Helvetica,sans-Serif" font-size="10.00">SimJob::HField</text>
</a>
</g>
</g>
<!-- Node1&#45;&gt;Node11 -->
<g id="edge12_Node000001_Node000011" class="edge">
<title>Node1&#45;&gt;Node11</title>
<g id="a_edge12_Node000001_Node000011"><a xlink:title=" ">
<path fill="none" stroke="#63b8ff" d="M98.21,-116.6C123.07,-107.43 159,-94.18 186.48,-84.04"/>
<polygon fill="#63b8ff" stroke="#63b8ff" points="187.34,-87.46 195.51,-80.71 184.92,-80.89 187.34,-87.46"/>
</a>
</g>
</g>
<!-- Node3 -->
<g id="Node000003" class="node">
<title>Node3</title>
<g id="a_Node000003"><a xlink:href="classDomain.html#afe5c1f862e335ab05031b1d6b0b87c42" target="_top" xlink:title="Total incident electric field at a point from all incident sources.">
<polygon fill="white" stroke="#666666" points="443.62,-176.75 339.88,-176.75 339.88,-156 443.62,-156 443.62,-176.75"/>
<text xml:space="preserve" text-anchor="middle" x="391.75" y="-163.25" font-family="Helvetica,sans-Serif" font-size="10.00">Domain::IncFieldE</text>
</a>
</g>
</g>
<!-- Node2&#45;&gt;Node3 -->
<g id="edge2_Node000002_Node000003" class="edge">
<title>Node2&#45;&gt;Node3</title>
<g id="a_edge2_Node000002_Node000003"><a xlink:title=" ">
<path fill="none" stroke="#63b8ff" d="M273.52,-138.24C292.37,-142.76 314.45,-148.06 334.34,-152.84"/>
<polygon fill="#63b8ff" stroke="#63b8ff" points="333.43,-156.22 343.97,-155.15 335.07,-149.41 333.43,-156.22"/>
</a>
</g>
</g>
<!-- Node4 -->
<g id="Node000004" class="node">
<title>Node4</title>
<g id="a_Node000004"><a xlink:href="classDomain.html#a832a36e6ba8ae02be3dd493bd2577d4a" target="_top" xlink:title="Total incident magnetic field at a point from all incident sources.">
<polygon fill="white" stroke="#666666" points="444.38,-59.75 339.12,-59.75 339.12,-39 444.38,-39 444.38,-59.75"/>
<text xml:space="preserve" text-anchor="middle" x="391.75" y="-46.25" font-family="Helvetica,sans-Serif" font-size="10.00">Domain::IncFieldH</text>
</a>
</g>
</g>
<!-- Node2&#45;&gt;Node4 -->
<g id="edge3_Node000002_Node000004" class="edge">
<title>Node2&#45;&gt;Node4</title>
<g id="a_edge3_Node000002_Node000004"><a xlink:title=" ">
<path fill="none" stroke="#63b8ff" d="M242.18,-116.51C259.28,-103.64 289.6,-82.3 318.5,-69.38 323.1,-67.32 327.97,-65.42 332.91,-63.69"/>
<polygon fill="#63b8ff" stroke="#63b8ff" points="333.9,-67.05 342.33,-60.63 331.74,-60.39 333.9,-67.05"/>
</a>
</g>
</g>
<!-- Node5 -->
<g id="Node000005" class="node">
<title>Node5</title>
<g id="a_Node000005"><a xlink:href="classDomain.html#a1d339cb7979c5b2d03d069fc09b40696" target="_top" xlink:title="Secondary fields &#160;at a point.">
<polygon fill="white" stroke="#666666" points="457.88,-137.75 325.62,-137.75 325.62,-117 457.88,-117 457.88,-137.75"/>
<text xml:space="preserve" text-anchor="middle" x="391.75" y="-124.25" font-family="Helvetica,sans-Serif" font-size="10.00">Domain::SecFieldEandH</text>
</a>
</g>
</g>
<!-- Node2&#45;&gt;Node5 -->
<g id="edge4_Node000002_Node000005" class="edge">
<title>Node2&#45;&gt;Node5</title>
<g id="a_edge4_Node000002_Node000005"><a xlink:title=" ">
<path fill="none" stroke="#63b8ff" d="M282.81,-127.38C292.83,-127.38 303.46,-127.38 313.99,-127.38"/>
<polygon fill="#63b8ff" stroke="#63b8ff" points="313.83,-130.88 323.83,-127.38 313.83,-123.88 313.83,-130.88"/>
</a>
</g>
</g>
<!-- Node6 -->
<g id="Node000006" class="node">
<title>Node6</title>
<g id="a_Node000006"><a xlink:href="classDomain.html#a928ea926ed97bac309194301a8b509c3" target="_top" xlink:title="Relative permittivity at a spatial location.">
<polygon fill="white" stroke="#666666" points="596.5,-98.75 501,-98.75 501,-78 596.5,-78 596.5,-98.75"/>
<text xml:space="preserve" text-anchor="middle" x="548.75" y="-85.25" font-family="Helvetica,sans-Serif" font-size="10.00">Domain::Epsilon</text>
</a>
</g>
</g>
<!-- Node5&#45;&gt;Node6 -->
<g id="edge5_Node000005_Node000006" class="edge">
<title>Node5&#45;&gt;Node6</title>
<g id="a_edge5_Node000005_Node000006"><a xlink:title=" ">
<path fill="none" stroke="#63b8ff" d="M435.93,-116.51C453.74,-112.03 474.58,-106.78 493.42,-102.05"/>
<polygon fill="#63b8ff" stroke="#63b8ff" points="494.23,-105.45 503.07,-99.62 492.52,-98.66 494.23,-105.45"/>
</a>
</g>
</g>
<!-- Node7 -->
<g id="Node000007" class="node">
<title>Node7</title>
<g id="a_Node000007"><a xlink:href="classDomain.html#a22745c7dfa178d41cfa4fb0b5b120595" target="_top" xlink:title="Relative permeability at a spatial location.">
<polygon fill="white" stroke="#666666" points="586.38,-176.75 511.12,-176.75 511.12,-156 586.38,-156 586.38,-176.75"/>
<text xml:space="preserve" text-anchor="middle" x="548.75" y="-163.25" font-family="Helvetica,sans-Serif" font-size="10.00">Domain::Mu</text>
</a>
</g>
</g>
<!-- Node5&#45;&gt;Node7 -->
<g id="edge6_Node000005_Node000007" class="edge">
<title>Node5&#45;&gt;Node7</title>
<g id="a_edge6_Node000005_Node000007"><a xlink:title=" ">
<path fill="none" stroke="#63b8ff" d="M435.93,-138.24C455.8,-143.24 479.46,-149.19 499.88,-154.33"/>
<polygon fill="#63b8ff" stroke="#63b8ff" points="498.83,-157.67 509.38,-156.72 500.54,-150.89 498.83,-157.67"/>
</a>
</g>
</g>
<!-- Node8&#45;&gt;Node3 -->
<g id="edge9_Node000008_Node000003" class="edge">
<title>Node8&#45;&gt;Node3</title>
<g id="a_edge9_Node000008_Node000003"><a xlink:title=" ">
<path fill="none" stroke="#63b8ff" d="M270.1,-166.38C287.79,-166.38 308.76,-166.38 328.22,-166.38"/>
<polygon fill="#63b8ff" stroke="#63b8ff" points="327.95,-169.88 337.95,-166.38 327.95,-162.88 327.95,-169.88"/>
</a>
</g>
</g>
<!-- Node9 -->
<g id="Node000009" class="node">
<title>Node9</title>
<g id="a_Node000009"><a xlink:href="classSimJob.html#ab3887eb9e217b1d6424ff85aec4b1793" target="_top" xlink:title="Find which domain contains a point.">
<polygon fill="white" stroke="#666666" points="465,-98.75 318.5,-98.75 318.5,-78 465,-78 465,-98.75"/>
<text xml:space="preserve" text-anchor="middle" x="391.75" y="-85.25" font-family="Helvetica,sans-Serif" font-size="10.00">SimJob::ContainingDomain</text>
</a>
</g>
</g>
<!-- Node8&#45;&gt;Node9 -->
<g id="edge8_Node000008_Node000009" class="edge">
<title>Node8&#45;&gt;Node9</title>
<g id="a_edge8_Node000008_Node000009"><a xlink:title=" ">
<path fill="none" stroke="#63b8ff" d="M264.69,-155.59C270.87,-153.02 277.05,-149.97 282.5,-146.38 301.92,-133.57 298.56,-120.36 318.5,-108.38 321.47,-106.59 324.61,-104.96 327.84,-103.47"/>
<polygon fill="#63b8ff" stroke="#63b8ff" points="329.06,-106.75 337.02,-99.75 326.43,-100.26 329.06,-106.75"/>
</a>
</g>
</g>
<!-- Node10 -->
<g id="Node000010" class="node">
<title>Node10</title>
<g id="a_Node000010"><a xlink:href="classDomain.html#ae1e6975d3ddc5fe177020d447673fdf7" target="_top" xlink:title="Secondary (scattered) electric field at a point from the solution vector.">
<polygon fill="white" stroke="#666666" points="445.12,-215.75 338.38,-215.75 338.38,-195 445.12,-195 445.12,-215.75"/>
<text xml:space="preserve" text-anchor="middle" x="391.75" y="-202.25" font-family="Helvetica,sans-Serif" font-size="10.00">Domain::SecFieldE</text>
</a>
</g>
</g>
<!-- Node8&#45;&gt;Node10 -->
<g id="edge10_Node000008_Node000010" class="edge">
<title>Node8&#45;&gt;Node10</title>
<g id="a_edge10_Node000008_Node000010"><a xlink:title=" ">
<path fill="none" stroke="#63b8ff" d="M270.1,-176.42C289.71,-181.12 313.36,-186.8 334.5,-191.88"/>
<polygon fill="#63b8ff" stroke="#63b8ff" points="333.61,-195.26 344.15,-194.19 335.24,-188.45 333.61,-195.26"/>
</a>
</g>
</g>
<!-- Node10&#45;&gt;Node7 -->
<g id="edge11_Node000010_Node000007" class="edge">
<title>Node10&#45;&gt;Node7</title>
<g id="a_edge11_Node000010_Node000007"><a xlink:title=" ">
<path fill="none" stroke="#63b8ff" d="M435.93,-194.51C455.8,-189.51 479.46,-183.56 499.88,-178.42"/>
<polygon fill="#63b8ff" stroke="#63b8ff" points="500.54,-181.86 509.38,-176.03 498.83,-175.08 500.54,-181.86"/>
</a>
</g>
</g>
<!-- Node11&#45;&gt;Node4 -->
<g id="edge14_Node000011_Node000004" class="edge">
<title>Node11&#45;&gt;Node4</title>
<g id="a_edge14_Node000011_Node000004"><a xlink:title=" ">
<path fill="none" stroke="#63b8ff" d="M270.94,-64.12C288.24,-61.99 308.56,-59.49 327.51,-57.16"/>
<polygon fill="#63b8ff" stroke="#63b8ff" points="327.78,-60.65 337.28,-55.96 326.92,-53.7 327.78,-60.65"/>
</a>
</g>
</g>
<!-- Node11&#45;&gt;Node9 -->
<g id="edge13_Node000011_Node000009" class="edge">
<title>Node11&#45;&gt;Node9</title>
<g id="a_edge13_Node000011_Node000009"><a xlink:title=" ">
<path fill="none" stroke="#63b8ff" d="M270.94,-74.37C282.03,-75.66 294.37,-77.11 306.79,-78.56"/>
<polygon fill="#63b8ff" stroke="#63b8ff" points="306.34,-82.03 316.68,-79.71 307.15,-75.08 306.34,-82.03"/>
</a>
</g>
</g>
<!-- Node12 -->
<g id="Node000012" class="node">
<title>Node12</title>
<g id="a_Node000012"><a xlink:href="classDomain.html#a507d3690b3a17a9f01beb83a2d6b026e" target="_top" xlink:title="Secondary (scattered) magnetic field at a point from the solution vector.">
<polygon fill="white" stroke="#666666" points="445.88,-20.75 337.62,-20.75 337.62,0 445.88,0 445.88,-20.75"/>
<text xml:space="preserve" text-anchor="middle" x="391.75" y="-7.25" font-family="Helvetica,sans-Serif" font-size="10.00">Domain::SecFieldH</text>
</a>
</g>
</g>
<!-- Node11&#45;&gt;Node12 -->
<g id="edge15_Node000011_Node000012" class="edge">
<title>Node11&#45;&gt;Node12</title>
<g id="a_edge15_Node000011_Node000012"><a xlink:title=" ">
<path fill="none" stroke="#63b8ff" d="M250.9,-58.55C268.95,-50.18 295,-38.66 318.5,-30.38 324.55,-28.24 330.96,-26.19 337.35,-24.26"/>
<polygon fill="#63b8ff" stroke="#63b8ff" points="337.96,-27.73 346.59,-21.57 336.01,-21.01 337.96,-27.73"/>
</a>
</g>
</g>
<!-- Node12&#45;&gt;Node6 -->
<g id="edge16_Node000012_Node000006" class="edge">
<title>Node12&#45;&gt;Node6</title>
<g id="a_edge16_Node000012_Node000006"><a xlink:title=" ">
<path fill="none" stroke="#63b8ff" d="M440.61,-21.14C448.92,-23.7 457.35,-26.77 465,-30.38 487.68,-41.07 510.83,-57.91 526.86,-70.69"/>
<polygon fill="#63b8ff" stroke="#63b8ff" points="524.28,-73.1 534.24,-76.71 528.71,-67.68 524.28,-73.1"/>
</a>
</g>
</g>
</g>
</svg>
