<?xml version="1.0" encoding="UTF-8" standalone="no"?>
<!DOCTYPE svg PUBLIC "-//W3C//DTD SVG 1.1//EN"
 "http://www.w3.org/Graphics/SVG/1.1/DTD/svg11.dtd">
<!-- Generated by graphviz version 13.1.2 (20250809.0930)
 -->
<!-- Title: Domain::SecFieldEandH Pages: 1 -->
<svg width="272pt" height="68pt"
 viewBox="0.00 0.00 272.00 68.00" xmlns="http://www.w3.org/2000/svg" xmlns:xlink="http://www.w3.org/1999/xlink">
<g id="graph0" class="graph" transform="scale(1 1) rotate(0) translate(4 63.75)">
<title>Domain::SecFieldEandH</title>
<!-- Node1 -->
<g id="Node000001" class="node">
<title>Node1</title>
<g id="a_Node000001"><a xlink:title="Secondary fields &#160;at a point.">
<polygon fill="#999999" stroke="#666666" points="132.25,-39.75 0,-39.75 0,-19 132.25,-19 132.25,-39.75"/>
<text xml:space="preserve" text-anchor="middle" x="66.12" y="-26.25" font-family="Helvetica,sans-Serif" font-size="10.00">Domain::SecFieldEandH</text>
</a>
</g>
</g>
<!-- Node2 -->
<g id="Node000002" class="node">
<title>Node2</title>
<g id="a_Node000002"><a xlink:href="classDomain.html#a928ea926ed97bac309194301a8b509c3" target="_top" xlink:title="Relative permittivity at a spatial location.">
<polygon fill="white" stroke="#666666" points="263.75,-59.75 168.25,-59.75 168.25,-39 263.75,-39 263.75,-59.75"/>
<text xml:space="preserve" text-anchor="middle" x="216" y="-46.25" font-family="Helvetica,sans-Serif" font-size="10.00">Domain::Epsilon</text>
</a>
</g>
</g>
<!-- Node1&#45;&gt;Node2 -->
<g id="edge1_Node000001_Node000002" class="edge">
<title>Node1&#45;&gt;Node2</title>
<g id="a_edge1_Node000001_Node000002"><a xlink:title=" ">
<path fill="none" stroke="#63b8ff" d="M132.42,-38.21C140.42,-39.29 148.56,-40.39 156.46,-41.46"/>
<polygon fill="#63b8ff" stroke="#63b8ff" points="155.93,-44.92 166.31,-42.79 156.87,-37.98 155.93,-44.92"/>
</a>
</g>
</g>
<!-- Node3 -->
<g id="Node000003" class="node">
<title>Node3</title>
<g id="a_Node000003"><a xlink:href="classDomain.html#a22745c7dfa178d41cfa4fb0b5b120595" target="_top" xlink:title="Relative permeability at a spatial location.">
<polygon fill="white" stroke="#666666" points="253.62,-20.75 178.38,-20.75 178.38,0 253.62,0 253.62,-20.75"/>
<text xml:space="preserve" text-anchor="middle" x="216" y="-7.25" font-family="Helvetica,sans-Serif" font-size="10.00">Domain::Mu</text>
</a>
</g>
</g>
<!-- Node1&#45;&gt;Node3 -->
<g id="edge2_Node000001_Node000003" class="edge">
<title>Node1&#45;&gt;Node3</title>
<g id="a_edge2_Node000001_Node000003"><a xlink:title=" ">
<path fill="none" stroke="#63b8ff" d="M132.42,-20.99C144.02,-19.5 155.9,-17.97 166.91,-16.55"/>
<polygon fill="#63b8ff" stroke="#63b8ff" points="167.05,-20.06 176.52,-15.32 166.16,-13.12 167.05,-20.06"/>
</a>
</g>
</g>
</g>
</svg>
