<?xml version="1.0" encoding="UTF-8" standalone="no"?>
<!DOCTYPE svg PUBLIC "-//W3C//DTD SVG 1.1//EN"
 "http://www.w3.org/Graphics/SVG/1.1/DTD/svg11.dtd">
<!-- Generated by graphviz version 13.1.2 (20250809.0930)
 -->
<!-- Title: DomainLayered3D::newGrnFunLayered Pages: 1 -->
<svg width="700pt" height="198pt"
 viewBox="0.00 0.00 700.00 198.00" xmlns="http://www.w3.org/2000/svg" xmlns:xlink="http://www.w3.org/1999/xlink">
<g id="graph0" class="graph" transform="scale(1 1) rotate(0) translate(4 193.5)">
<title>DomainLayered3D::newGrnFunLayered</title>
<!-- Node1 -->
<g id="Node000001" class="node">
<title>Node1</title>
<g id="a_Node000001"><a xlink:title="Initialize the layered Green&#39;s function used for field evaluation.">
<polygon fill="#999999" stroke="#666666" points="167.5,-111.5 0,-111.5 0,-78 167.5,-78 167.5,-111.5"/>
<text xml:space="preserve" text-anchor="start" x="8" y="-98" font-family="Helvetica,sans-Serif" font-size="10.00">DomainLayered3D::newGrnFun</text>
<text xml:space="preserve" text-anchor="middle" x="83.75" y="-85.25" font-family="Helvetica,sans-Serif" font-size="10.00">Layered</text>
</a>
</g>
</g>
<!-- Node2 -->
<g id="Node000002" class="node">
<title>Node2</title>
<g id="a_Node000002"><a xlink:href="classDomainLayered3D.html#a5379311442fe1bbc7808308726ee510d" target="_top" xlink:title="Computes the grid points for tabulation.">
<polygon fill="white" stroke="#666666" points="379.25,-183.12 203.5,-183.12 203.5,-162.38 379.25,-162.38 379.25,-183.12"/>
<text xml:space="preserve" text-anchor="middle" x="291.38" y="-169.62" font-family="Helvetica,sans-Serif" font-size="10.00">DomainLayered3D::computeGrid</text>
</a>
</g>
</g>
<!-- Node1&#45;&gt;Node2 -->
<g id="edge1_Node000001_Node000002" class="edge">
<title>Node1&#45;&gt;Node2</title>
<g id="a_edge1_Node000001_Node000002"><a xlink:title=" ">
<path fill="none" stroke="#63b8ff" d="M114.68,-111.74C138.21,-124.51 172.14,-141.65 203.5,-152.75 210.01,-155.06 216.89,-157.16 223.81,-159.08"/>
<polygon fill="#63b8ff" stroke="#63b8ff" points="222.66,-162.39 233.22,-161.53 224.43,-155.62 222.66,-162.39"/>
</a>
</g>
</g>
<!-- Node5 -->
<g id="Node000005" class="node">
<title>Node5</title>
<g id="a_Node000005"><a xlink:href="classDomain.html#a6f7b0190794a8ee0a026b0dcf2159aef" target="_top" xlink:title="Test whether a spatial point lies inside the domain.">
<polygon fill="white" stroke="#666666" points="340.25,-144.12 242.5,-144.12 242.5,-123.38 340.25,-123.38 340.25,-144.12"/>
<text xml:space="preserve" text-anchor="middle" x="291.38" y="-130.62" font-family="Helvetica,sans-Serif" font-size="10.00">Domain::IsInside</text>
</a>
</g>
</g>
<!-- Node1&#45;&gt;Node5 -->
<g id="edge4_Node000001_Node000005" class="edge">
<title>Node1&#45;&gt;Node5</title>
<g id="a_edge4_Node000001_Node000005"><a xlink:title=" ">
<path fill="none" stroke="#63b8ff" d="M167.79,-110.5C188.94,-114.51 211.25,-118.74 230.96,-122.48"/>
<polygon fill="#63b8ff" stroke="#63b8ff" points="230.27,-125.91 240.75,-124.34 231.57,-119.03 230.27,-125.91"/>
</a>
</g>
</g>
<!-- Node6 -->
<g id="Node000006" class="node">
<title>Node6</title>
<g id="a_Node000006"><a xlink:href="classDipole.html#af0be5b4af0cd662c8684b01255b92433" target="_top" xlink:title="Get dipole position.">
<polygon fill="white" stroke="#666666" points="338.75,-105.12 244,-105.12 244,-84.38 338.75,-84.38 338.75,-105.12"/>
<text xml:space="preserve" text-anchor="middle" x="291.38" y="-91.62" font-family="Helvetica,sans-Serif" font-size="10.00">Dipole::Location</text>
</a>
</g>
</g>
<!-- Node1&#45;&gt;Node6 -->
<g id="edge5_Node000001_Node000006" class="edge">
<title>Node1&#45;&gt;Node6</title>
<g id="a_edge5_Node000001_Node000006"><a xlink:title=" ">
<path fill="none" stroke="#63b8ff" d="M167.79,-94.75C189.41,-94.75 212.24,-94.75 232.26,-94.75"/>
<polygon fill="#63b8ff" stroke="#63b8ff" points="232.18,-98.25 242.18,-94.75 232.18,-91.25 232.18,-98.25"/>
</a>
</g>
</g>
<!-- Node7 -->
<g id="Node000007" class="node">
<title>Node7</title>
<g id="a_Node000007"><a xlink:href="classDipole.html#a2e30bf49055a001b5d8c3e695f103e3d" target="_top" xlink:title="Provide the layered‑media Green&#39;s function for post‑processing fields.">
<polygon fill="white" stroke="#666666" points="362.38,-66.12 220.38,-66.12 220.38,-45.38 362.38,-45.38 362.38,-66.12"/>
<text xml:space="preserve" text-anchor="middle" x="291.38" y="-52.62" font-family="Helvetica,sans-Serif" font-size="10.00">Dipole::setGrnFunLayered</text>
</a>
</g>
</g>
<!-- Node1&#45;&gt;Node7 -->
<g id="edge6_Node000001_Node000007" class="edge">
<title>Node1&#45;&gt;Node7</title>
<g id="a_edge6_Node000001_Node000007"><a xlink:title=" ">
<path fill="none" stroke="#63b8ff" d="M167.79,-79C185.81,-75.58 204.66,-72.01 222.03,-68.71"/>
<polygon fill="#63b8ff" stroke="#63b8ff" points="222.55,-72.18 231.72,-66.88 221.24,-65.3 222.55,-72.18"/>
</a>
</g>
</g>
<!-- Node8 -->
<g id="Node000008" class="node">
<title>Node8</title>
<g id="a_Node000008"><a xlink:href="classDomainLayered3D.html#a76fc8705ab75f3e6599693f9544821e9" target="_top" xlink:title="Computes the slicing of points with respect to interfaces.">
<polygon fill="white" stroke="#666666" points="359,-27.12 223.75,-27.12 223.75,-6.38 359,-6.38 359,-27.12"/>
<text xml:space="preserve" text-anchor="middle" x="291.38" y="-13.62" font-family="Helvetica,sans-Serif" font-size="10.00">DomainLayered3D::slice</text>
</a>
</g>
</g>
<!-- Node1&#45;&gt;Node8 -->
<g id="edge7_Node000001_Node000008" class="edge">
<title>Node1&#45;&gt;Node8</title>
<g id="a_edge7_Node000001_Node000008"><a xlink:title=" ">
<path fill="none" stroke="#63b8ff" d="M114.68,-77.76C138.21,-64.99 172.14,-47.85 203.5,-36.75 210.01,-34.44 216.89,-32.34 223.81,-30.42"/>
<polygon fill="#63b8ff" stroke="#63b8ff" points="224.43,-33.88 233.22,-27.97 222.66,-27.11 224.43,-33.88"/>
</a>
</g>
</g>
<!-- Node3 -->
<g id="Node000003" class="node">
<title>Node3</title>
<g id="a_Node000003"><a xlink:href="classDomainLayered3D.html#af0fc42edd76b3e69a326990cefcbcd37" target="_top" xlink:title="Calculates the tabulation range for a group of points.">
<polygon fill="white" stroke="#666666" points="572.25,-189.5 415.25,-189.5 415.25,-156 572.25,-156 572.25,-189.5"/>
<text xml:space="preserve" text-anchor="start" x="423.25" y="-176" font-family="Helvetica,sans-Serif" font-size="10.00">DomainLayered3D::calculate</text>
<text xml:space="preserve" text-anchor="middle" x="493.75" y="-163.25" font-family="Helvetica,sans-Serif" font-size="10.00">Range</text>
</a>
</g>
</g>
<!-- Node2&#45;&gt;Node3 -->
<g id="edge2_Node000002_Node000003" class="edge">
<title>Node2&#45;&gt;Node3</title>
<g id="a_edge2_Node000002_Node000003"><a xlink:title=" ">
<path fill="none" stroke="#63b8ff" d="M379.68,-172.75C387.54,-172.75 395.52,-172.75 403.4,-172.75"/>
<polygon fill="#63b8ff" stroke="#63b8ff" points="403.35,-176.25 413.35,-172.75 403.35,-169.25 403.35,-176.25"/>
</a>
</g>
</g>
<!-- Node4 -->
<g id="Node000004" class="node">
<title>Node4</title>
<g id="a_Node000004"><a xlink:href="DomainLayered3D_8cpp.html#a83b3a83c01e3d7a487d4ae2ec65695f5" target="_top" xlink:title="Adjusts the Z&#45;coordinate range with a margin while ensuring boundaries.">
<polygon fill="white" stroke="#666666" points="691.75,-183.12 608.25,-183.12 608.25,-162.38 691.75,-162.38 691.75,-183.12"/>
<text xml:space="preserve" text-anchor="middle" x="650" y="-169.62" font-family="Helvetica,sans-Serif" font-size="10.00">adjustZRange</text>
</a>
</g>
</g>
<!-- Node3&#45;&gt;Node4 -->
<g id="edge3_Node000003_Node000004" class="edge">
<title>Node3&#45;&gt;Node4</title>
<g id="a_edge3_Node000003_Node000004"><a xlink:title=" ">
<path fill="none" stroke="#63b8ff" d="M572.33,-172.75C580.5,-172.75 588.66,-172.75 596.45,-172.75"/>
<polygon fill="#63b8ff" stroke="#63b8ff" points="596.43,-176.25 606.43,-172.75 596.43,-169.25 596.43,-176.25"/>
</a>
</g>
</g>
<!-- Node9 -->
<g id="Node000009" class="node">
<title>Node9</title>
<g id="a_Node000009"><a xlink:href="classDomainLayered3D.html#ae8e9daf2ca4d1ed649a1e0fe83880160" target="_top" xlink:title="Returns the layer index corresponding to a spatial position.">
<polygon fill="white" stroke="#666666" points="572.25,-33.5 415.25,-33.5 415.25,0 572.25,0 572.25,-33.5"/>
<text xml:space="preserve" text-anchor="start" x="423.25" y="-20" font-family="Helvetica,sans-Serif" font-size="10.00">DomainLayered3D::GetLayer</text>
<text xml:space="preserve" text-anchor="middle" x="493.75" y="-7.25" font-family="Helvetica,sans-Serif" font-size="10.00">Index</text>
</a>
</g>
</g>
<!-- Node8&#45;&gt;Node9 -->
<g id="edge8_Node000008_Node000009" class="edge">
<title>Node8&#45;&gt;Node9</title>
<g id="a_edge8_Node000008_Node000009"><a xlink:title=" ">
<path fill="none" stroke="#63b8ff" d="M359.38,-16.75C373.61,-16.75 388.85,-16.75 403.76,-16.75"/>
<polygon fill="#63b8ff" stroke="#63b8ff" points="403.56,-20.25 413.56,-16.75 403.56,-13.25 403.56,-20.25"/>
</a>
</g>
</g>
</g>
</svg>
