<?xml version="1.0" encoding="UTF-8" standalone="no"?>
<!DOCTYPE svg PUBLIC "-//W3C//DTD SVG 1.1//EN"
 "http://www.w3.org/Graphics/SVG/1.1/DTD/svg11.dtd">
<!-- Generated by graphviz version 13.1.2 (20250809.0930)
 -->
<!-- Title: GreenFLayered3D::AboveThreshold Pages: 1 -->
<svg width="387pt" height="158pt"
 viewBox="0.00 0.00 387.00 158.00" xmlns="http://www.w3.org/2000/svg" xmlns:xlink="http://www.w3.org/1999/xlink">
<g id="graph0" class="graph" transform="scale(1 1) rotate(0) translate(4 153.75)">
<title>GreenFLayered3D::AboveThreshold</title>
<!-- Node1 -->
<g id="Node000001" class="node">
<title>Node1</title>
<g id="a_Node000001"><a xlink:title="Checks whether the given point&#45;triangle pair exceeds a predefined distance threshold.">
<polygon fill="#999999" stroke="#666666" points="188.5,-81.75 0,-81.75 0,-61 188.5,-61 188.5,-81.75"/>
<text xml:space="preserve" text-anchor="middle" x="94.25" y="-68.25" font-family="Helvetica,sans-Serif" font-size="10.00">GreenFLayered3D::AboveThreshold</text>
</a>
</g>
</g>
<!-- Node2 -->
<g id="Node000002" class="node">
<title>Node2</title>
<g id="a_Node000002"><a xlink:href="classTriangle.html#ab78508a340ec5d345adf114b43563dbf" target="_top" xlink:title="Centroid of the triangle.">
<polygon fill="white" stroke="#666666" points="347.75,-149.75 255.25,-149.75 255.25,-129 347.75,-129 347.75,-149.75"/>
<text xml:space="preserve" text-anchor="middle" x="301.5" y="-136.25" font-family="Helvetica,sans-Serif" font-size="10.00">Triangle::Center</text>
</a>
</g>
</g>
<!-- Node1&#45;&gt;Node2 -->
<g id="edge1_Node000001_Node000002" class="edge">
<title>Node1&#45;&gt;Node2</title>
<g id="a_edge1_Node000001_Node000002"><a xlink:title=" ">
<path fill="none" stroke="#63b8ff" d="M121.17,-82.23C147.05,-92.83 188.09,-108.97 224.5,-120.38 230.74,-122.33 237.31,-124.22 243.87,-126"/>
<polygon fill="#63b8ff" stroke="#63b8ff" points="242.82,-129.34 253.38,-128.5 244.6,-122.57 242.82,-129.34"/>
</a>
</g>
</g>
<!-- Node3 -->
<g id="Node000003" class="node">
<title>Node3</title>
<g id="a_Node000003"><a xlink:href="classGreenFLayered3D.html#a1fb4fa93c84d77750cac364641945725" target="_top" xlink:title="Return layer index of a 3D point.">
<polygon fill="white" stroke="#666666" points="378.5,-111.12 224.5,-111.12 224.5,-77.62 378.5,-77.62 378.5,-111.12"/>
<text xml:space="preserve" text-anchor="start" x="232.5" y="-97.62" font-family="Helvetica,sans-Serif" font-size="10.00">GreenFLayered3D::GetLayer</text>
<text xml:space="preserve" text-anchor="middle" x="301.5" y="-84.88" font-family="Helvetica,sans-Serif" font-size="10.00">Index</text>
</a>
</g>
</g>
<!-- Node1&#45;&gt;Node3 -->
<g id="edge2_Node000001_Node000003" class="edge">
<title>Node1&#45;&gt;Node3</title>
<g id="a_edge2_Node000001_Node000003"><a xlink:title=" ">
<path fill="none" stroke="#63b8ff" d="M188.87,-81.87C196.91,-82.77 205.04,-83.68 213.03,-84.57"/>
<polygon fill="#63b8ff" stroke="#63b8ff" points="212.4,-88.03 222.73,-85.66 213.18,-81.07 212.4,-88.03"/>
</a>
</g>
</g>
<!-- Node4 -->
<g id="Node000004" class="node">
<title>Node4</title>
<g id="a_Node000004"><a xlink:href="classTriangle.html#a0752d2c9488c7c44b851b8f75abcaa79" target="_top" xlink:title="Node position (by value) for local index 0..2.">
<polygon fill="white" stroke="#666666" points="344.38,-59.75 258.62,-59.75 258.62,-39 344.38,-39 344.38,-59.75"/>
<text xml:space="preserve" text-anchor="middle" x="301.5" y="-46.25" font-family="Helvetica,sans-Serif" font-size="10.00">Triangle::Node</text>
</a>
</g>
</g>
<!-- Node1&#45;&gt;Node4 -->
<g id="edge3_Node000001_Node000004" class="edge">
<title>Node1&#45;&gt;Node4</title>
<g id="a_edge3_Node000001_Node000004"><a xlink:title=" ">
<path fill="none" stroke="#63b8ff" d="M188.87,-61.34C208.81,-59.2 229.22,-57.02 247.04,-55.11"/>
<polygon fill="#63b8ff" stroke="#63b8ff" points="247.26,-58.6 256.83,-54.06 246.52,-51.64 247.26,-58.6"/>
</a>
</g>
</g>
<!-- Node5 -->
<g id="Node000005" class="node">
<title>Node5</title>
<g id="a_Node000005"><a xlink:href="classTriangle.html#a6e7daa074db3d147b33763bfd2a6e83b" target="_top" xlink:title="Perimeter (sum of edge lengths).">
<polygon fill="white" stroke="#666666" points="355.62,-20.75 247.38,-20.75 247.38,0 355.62,0 355.62,-20.75"/>
<text xml:space="preserve" text-anchor="middle" x="301.5" y="-7.25" font-family="Helvetica,sans-Serif" font-size="10.00">Triangle::Perimeter</text>
</a>
</g>
</g>
<!-- Node1&#45;&gt;Node5 -->
<g id="edge4_Node000001_Node000005" class="edge">
<title>Node1&#45;&gt;Node5</title>
<g id="a_edge4_Node000001_Node000005"><a xlink:title=" ">
<path fill="none" stroke="#63b8ff" d="M127.78,-60.56C153.84,-52.02 191.38,-39.98 224.5,-30.38 231.72,-28.28 239.35,-26.16 246.88,-24.13"/>
<polygon fill="#63b8ff" stroke="#63b8ff" points="247.57,-27.57 256.33,-21.61 245.76,-20.8 247.57,-27.57"/>
</a>
</g>
</g>
</g>
</svg>
