<?xml version="1.0" encoding="UTF-8" standalone="no"?>
<!DOCTYPE svg PUBLIC "-//W3C//DTD SVG 1.1//EN"
 "http://www.w3.org/Graphics/SVG/1.1/DTD/svg11.dtd">
<!-- Generated by graphviz version 13.1.2 (20250809.0930)
 -->
<!-- Title: SurfaceMesh::LoadFromFile Pages: 1 -->
<svg width="753pt" height="107pt"
 viewBox="0.00 0.00 753.00 107.00" xmlns="http://www.w3.org/2000/svg" xmlns:xlink="http://www.w3.org/1999/xlink">
<g id="graph0" class="graph" transform="scale(1 1) rotate(0) translate(4 102.75)">
<title>SurfaceMesh::LoadFromFile</title>
<!-- Node1 -->
<g id="Node000001" class="node">
<title>Node1</title>
<g id="a_Node000001"><a xlink:title="Load a mesh from file by extension.">
<polygon fill="#999999" stroke="#666666" points="150.25,-59.75 0,-59.75 0,-39 150.25,-39 150.25,-59.75"/>
<text xml:space="preserve" text-anchor="middle" x="75.12" y="-46.25" font-family="Helvetica,sans-Serif" font-size="10.00">SurfaceMesh::LoadFromFile</text>
</a>
</g>
</g>
<!-- Node2 -->
<g id="Node000002" class="node">
<title>Node2</title>
<g id="a_Node000002"><a xlink:href="classSurfaceMesh.html#ad8ac4a9fe716d917b92e245d091ab553" target="_top" xlink:title="Read mesh from the custom &quot;.mesh&quot; text format.">
<polygon fill="white" stroke="#666666" points="366.88,-98.75 190.38,-98.75 190.38,-78 366.88,-78 366.88,-98.75"/>
<text xml:space="preserve" text-anchor="middle" x="278.62" y="-85.25" font-family="Helvetica,sans-Serif" font-size="10.00">SurfaceMesh::LoadFromMeshFile</text>
</a>
</g>
</g>
<!-- Node1&#45;&gt;Node2 -->
<g id="edge1_Node000001_Node000002" class="edge">
<title>Node1&#45;&gt;Node2</title>
<g id="a_edge1_Node000001_Node000002"><a xlink:title=" ">
<path fill="none" stroke="#63b8ff" d="M132.25,-60.24C156.5,-64.93 185.06,-70.46 210.42,-75.37"/>
<polygon fill="#63b8ff" stroke="#63b8ff" points="209.48,-78.75 219.96,-77.21 210.81,-71.88 209.48,-78.75"/>
</a>
</g>
</g>
<!-- Node7 -->
<g id="Node000007" class="node">
<title>Node7</title>
<g id="a_Node000007"><a xlink:href="classSurfaceMesh.html#ab392f262cacf93c286ef49cbe95f2a66" target="_top" xlink:title="Read mesh from a COMSOL &quot;.mphtxt&quot; file.">
<polygon fill="white" stroke="#666666" points="371,-59.75 186.25,-59.75 186.25,-39 371,-39 371,-59.75"/>
<text xml:space="preserve" text-anchor="middle" x="278.62" y="-46.25" font-family="Helvetica,sans-Serif" font-size="10.00">SurfaceMesh::LoadFromMphtxtFile</text>
</a>
</g>
</g>
<!-- Node1&#45;&gt;Node7 -->
<g id="edge6_Node000001_Node000007" class="edge">
<title>Node1&#45;&gt;Node7</title>
<g id="a_edge6_Node000001_Node000007"><a xlink:title=" ">
<path fill="none" stroke="#63b8ff" d="M150.58,-49.38C158.43,-49.38 166.51,-49.38 174.61,-49.38"/>
<polygon fill="#63b8ff" stroke="#63b8ff" points="174.53,-52.88 184.53,-49.38 174.53,-45.88 174.53,-52.88"/>
</a>
</g>
</g>
<!-- Node8 -->
<g id="Node000008" class="node">
<title>Node8</title>
<g id="a_Node000008"><a xlink:href="classSurfaceMesh.html#ae7486b3dfa647ae8ee6063bd6297f5ff" target="_top" xlink:title="Read mesh from a Gmsh &quot;.msh&quot; file (v2 text).">
<polygon fill="white" stroke="#666666" points="363.88,-20.75 193.38,-20.75 193.38,0 363.88,0 363.88,-20.75"/>
<text xml:space="preserve" text-anchor="middle" x="278.62" y="-7.25" font-family="Helvetica,sans-Serif" font-size="10.00">SurfaceMesh::LoadFromMshFile</text>
</a>
</g>
</g>
<!-- Node1&#45;&gt;Node8 -->
<g id="edge9_Node000001_Node000008" class="edge">
<title>Node1&#45;&gt;Node8</title>
<g id="a_edge9_Node000001_Node000008"><a xlink:title=" ">
<path fill="none" stroke="#63b8ff" d="M132.25,-38.51C156.5,-33.82 185.06,-28.29 210.42,-23.38"/>
<polygon fill="#63b8ff" stroke="#63b8ff" points="210.81,-26.87 219.96,-21.54 209.48,-20 210.81,-26.87"/>
</a>
</g>
</g>
<!-- Node3 -->
<g id="Node000003" class="node">
<title>Node3</title>
<g id="a_Node000003"><a xlink:href="classSurfaceMesh.html#ad8c7eef9fac668b92caf8b4418dcb4ff" target="_top" xlink:title="Insert edge (n1,n2) if not already present (directly or via BC image).">
<polygon fill="white" stroke="#666666" points="566.25,-78.75 407,-78.75 407,-58 566.25,-58 566.25,-78.75"/>
<text xml:space="preserve" text-anchor="middle" x="486.62" y="-65.25" font-family="Helvetica,sans-Serif" font-size="10.00">SurfaceMesh::AddEdgeTested</text>
</a>
</g>
</g>
<!-- Node2&#45;&gt;Node3 -->
<g id="edge2_Node000002_Node000003" class="edge">
<title>Node2&#45;&gt;Node3</title>
<g id="a_edge2_Node000002_Node000003"><a xlink:title=" ">
<path fill="none" stroke="#63b8ff" d="M367.29,-79.86C376.55,-78.96 385.98,-78.05 395.28,-77.15"/>
<polygon fill="#63b8ff" stroke="#63b8ff" points="395.4,-80.65 405.02,-76.2 394.73,-73.68 395.4,-80.65"/>
</a>
</g>
</g>
<!-- Node6 -->
<g id="Node000006" class="node">
<title>Node6</title>
<g id="a_Node000006"><a xlink:href="group__driver.html#ga3859b179ce92396b3d9187e4437d8826" target="_top" xlink:title="Read a value of type T from a text stream, skipping lines beginning with &#39;#&#39;.">
<polygon fill="white" stroke="#666666" points="537,-39.75 436.25,-39.75 436.25,-19 537,-19 537,-39.75"/>
<text xml:space="preserve" text-anchor="middle" x="486.62" y="-26.25" font-family="Helvetica,sans-Serif" font-size="10.00">ReadCommented</text>
</a>
</g>
</g>
<!-- Node2&#45;&gt;Node6 -->
<g id="edge5_Node000002_Node000006" class="edge">
<title>Node2&#45;&gt;Node6</title>
<g id="a_edge5_Node000002_Node000006"><a xlink:title=" ">
<path fill="none" stroke="#63b8ff" d="M340.25,-77.52C350.65,-74.98 361.24,-71.94 371,-68.38 387.99,-62.16 390.12,-55.87 407,-49.38 412.75,-47.16 418.83,-45.12 424.96,-43.26"/>
<polygon fill="#63b8ff" stroke="#63b8ff" points="425.89,-46.63 434.54,-40.52 423.96,-39.9 425.89,-46.63"/>
</a>
</g>
</g>
<!-- Node4 -->
<g id="Node000004" class="node">
<title>Node4</title>
<g id="a_Node000004"><a xlink:href="classSurfaceMesh.html#a7c57c7085e749775a96cb25a5424834e" target="_top" xlink:title="Find the index of an edge mapped between n1,n2 via a stored symmetry op.">
<polygon fill="white" stroke="#666666" points="745,-97.75 602.25,-97.75 602.25,-77 745,-77 745,-97.75"/>
<text xml:space="preserve" text-anchor="middle" x="673.62" y="-84.25" font-family="Helvetica,sans-Serif" font-size="10.00">SurfaceMesh::FindEdgeBC</text>
</a>
</g>
</g>
<!-- Node3&#45;&gt;Node4 -->
<g id="edge3_Node000003_Node000004" class="edge">
<title>Node3&#45;&gt;Node4</title>
<g id="a_edge3_Node000003_Node000004"><a xlink:title=" ">
<path fill="none" stroke="#63b8ff" d="M566.62,-76.49C574.47,-77.29 582.46,-78.11 590.34,-78.92"/>
<polygon fill="#63b8ff" stroke="#63b8ff" points="589.98,-82.41 600.29,-79.95 590.7,-75.44 589.98,-82.41"/>
</a>
</g>
</g>
<!-- Node5 -->
<g id="Node000005" class="node">
<title>Node5</title>
<g id="a_Node000005"><a xlink:href="classSurfaceMesh.html#a45445ddd5776f8236dc72058cc1c7b18" target="_top" xlink:title="Find the index of an existing edge between two nodes (direct match).">
<polygon fill="white" stroke="#666666" points="744.62,-58.75 602.62,-58.75 602.62,-38 744.62,-38 744.62,-58.75"/>
<text xml:space="preserve" text-anchor="middle" x="673.62" y="-45.25" font-family="Helvetica,sans-Serif" font-size="10.00">SurfaceMesh::FindEdgeFB</text>
</a>
</g>
</g>
<!-- Node3&#45;&gt;Node5 -->
<g id="edge4_Node000003_Node000005" class="edge">
<title>Node3&#45;&gt;Node5</title>
<g id="a_edge4_Node000003_Node000005"><a xlink:title=" ">
<path fill="none" stroke="#63b8ff" d="M566.62,-59.84C574.7,-58.96 582.91,-58.07 591.02,-57.2"/>
<polygon fill="#63b8ff" stroke="#63b8ff" points="591.3,-60.69 600.87,-56.13 590.55,-53.73 591.3,-60.69"/>
</a>
</g>
</g>
<!-- Node7&#45;&gt;Node3 -->
<g id="edge7_Node000007_Node000003" class="edge">
<title>Node7&#45;&gt;Node3</title>
<g id="a_edge7_Node000007_Node000003"><a xlink:title=" ">
<path fill="none" stroke="#63b8ff" d="M371.48,-57.85C379.34,-58.57 387.28,-59.3 395.13,-60.03"/>
<polygon fill="#63b8ff" stroke="#63b8ff" points="394.75,-63.51 405.03,-60.94 395.39,-56.54 394.75,-63.51"/>
</a>
</g>
</g>
<!-- Node7&#45;&gt;Node6 -->
<g id="edge8_Node000007_Node000006" class="edge">
<title>Node7&#45;&gt;Node6</title>
<g id="a_edge8_Node000007_Node000006"><a xlink:title=" ">
<path fill="none" stroke="#63b8ff" d="M371.48,-40.46C389.52,-38.71 408.03,-36.91 424.75,-35.29"/>
<polygon fill="#63b8ff" stroke="#63b8ff" points="424.89,-38.79 434.5,-34.34 424.21,-31.82 424.89,-38.79"/>
</a>
</g>
</g>
<!-- Node8&#45;&gt;Node3 -->
<g id="edge10_Node000008_Node000003" class="edge">
<title>Node8&#45;&gt;Node3</title>
<g id="a_edge10_Node000008_Node000003"><a xlink:title=" ">
<path fill="none" stroke="#63b8ff" d="M339.21,-21.17C349.93,-23.75 360.89,-26.81 371,-30.38 387.87,-36.33 390.24,-42.13 407,-48.38 413,-50.61 419.36,-52.68 425.74,-54.58"/>
<polygon fill="#63b8ff" stroke="#63b8ff" points="424.44,-57.85 435.01,-57.19 426.34,-51.11 424.44,-57.85"/>
</a>
</g>
</g>
<!-- Node8&#45;&gt;Node6 -->
<g id="edge11_Node000008_Node000006" class="edge">
<title>Node8&#45;&gt;Node6</title>
<g id="a_edge11_Node000008_Node000006"><a xlink:title=" ">
<path fill="none" stroke="#63b8ff" d="M364.3,-18.19C384.43,-20.04 405.52,-21.99 424.37,-23.72"/>
<polygon fill="#63b8ff" stroke="#63b8ff" points="424,-27.21 434.28,-24.64 424.64,-20.24 424,-27.21"/>
</a>
</g>
</g>
</g>
</svg>
