<?xml version="1.0" encoding="UTF-8" standalone="no"?>
<!DOCTYPE svg PUBLIC "-//W3C//DTD SVG 1.1//EN"
 "http://www.w3.org/Graphics/SVG/1.1/DTD/svg11.dtd">
<!-- Generated by graphviz version 13.1.2 (20250809.0930)
 -->
<!-- Title: GreenFLayered3D::evalGreenSmoothInter Pages: 1 -->
<svg width="559pt" height="288pt"
 viewBox="0.00 0.00 559.00 288.00" xmlns="http://www.w3.org/2000/svg" xmlns:xlink="http://www.w3.org/1999/xlink">
<g id="graph0" class="graph" transform="scale(1 1) rotate(0) translate(4 283.5)">
<title>GreenFLayered3D::evalGreenSmoothInter</title>
<!-- Node1 -->
<g id="Node000001" class="node">
<title>Node1</title>
<g id="a_Node000001"><a xlink:title="Evaluate Green&#39;s&#45;function components for inter&#45;layer interactions by interpolating the smooth (Sommer...">
<polygon fill="#999999" stroke="#666666" points="551.25,-149.5 391.25,-149.5 391.25,-116 551.25,-116 551.25,-149.5"/>
<text xml:space="preserve" text-anchor="start" x="399.25" y="-136" font-family="Helvetica,sans-Serif" font-size="10.00">GreenFLayered3D::evalGreen</text>
<text xml:space="preserve" text-anchor="middle" x="471.25" y="-123.25" font-family="Helvetica,sans-Serif" font-size="10.00">SmoothInter</text>
</a>
</g>
</g>
<!-- Node2 -->
<g id="Node000002" class="node">
<title>Node2</title>
<g id="a_Node000002"><a xlink:href="classGreenFLayered3D.html#aea3c88abd8cb25bd99d64a4eeda84a85" target="_top" xlink:title="Evaluates the secondary terms for dipole incident field in layered background.">
<polygon fill="white" stroke="#666666" points="353.38,-279.5 200.88,-279.5 200.88,-246 353.38,-246 353.38,-279.5"/>
<text xml:space="preserve" text-anchor="start" x="208.88" y="-266" font-family="Helvetica,sans-Serif" font-size="10.00">GreenFLayered3D::Evaluate</text>
<text xml:space="preserve" text-anchor="middle" x="277.12" y="-253.25" font-family="Helvetica,sans-Serif" font-size="10.00">Dyadic</text>
</a>
</g>
</g>
<!-- Node1&#45;&gt;Node2 -->
<g id="edge1_Node000001_Node000002" class="edge">
<title>Node1&#45;&gt;Node2</title>
<g id="a_edge1_Node000001_Node000002"><a xlink:title=" ">
<path fill="none" stroke="#63b8ff" d="M447.93,-158.21C426.28,-181.51 391.49,-215.51 355.25,-236.75 349.64,-240.04 343.56,-242.98 337.35,-245.6"/>
<polygon fill="#63b8ff" stroke="#63b8ff" points="450.38,-160.72 454.53,-150.97 445.21,-156 450.38,-160.72"/>
</a>
</g>
</g>
<!-- Node3 -->
<g id="Node000003" class="node">
<title>Node3</title>
<g id="a_Node000003"><a xlink:href="classGreenFLayered3D.html#afbdbfdc8fc40fc885f6377d5be242d36" target="_top" xlink:title="term at an observation point.">
<polygon fill="white" stroke="#666666" points="354.12,-227.5 200.12,-227.5 200.12,-194 354.12,-194 354.12,-227.5"/>
<text xml:space="preserve" text-anchor="start" x="208.12" y="-214" font-family="Helvetica,sans-Serif" font-size="10.00">GreenFLayered3D::Integrate</text>
<text xml:space="preserve" text-anchor="middle" x="277.12" y="-201.25" font-family="Helvetica,sans-Serif" font-size="10.00">Delta</text>
</a>
</g>
</g>
<!-- Node1&#45;&gt;Node3 -->
<g id="edge2_Node000001_Node000003" class="edge">
<title>Node1&#45;&gt;Node3</title>
<g id="a_edge2_Node000001_Node000003"><a xlink:title=" ">
<path fill="none" stroke="#63b8ff" d="M424.45,-154.72C403.55,-164.42 378.36,-175.66 355.25,-184.75 347.62,-187.75 339.49,-190.73 331.48,-193.53"/>
<polygon fill="#63b8ff" stroke="#63b8ff" points="425.7,-158 433.27,-150.6 422.73,-151.66 425.7,-158"/>
</a>
</g>
</g>
<!-- Node4 -->
<g id="Node000004" class="node">
<title>Node4</title>
<g id="a_Node000004"><a xlink:href="classGreenFLayered3D.html#a439eddb43f46fb52f6c84898ea12aa40" target="_top" xlink:title="term at an observation point.">
<polygon fill="white" stroke="#666666" points="354.12,-175.5 200.12,-175.5 200.12,-142 354.12,-142 354.12,-175.5"/>
<text xml:space="preserve" text-anchor="start" x="208.12" y="-162" font-family="Helvetica,sans-Serif" font-size="10.00">GreenFLayered3D::Integrate</text>
<text xml:space="preserve" text-anchor="middle" x="277.12" y="-149.25" font-family="Helvetica,sans-Serif" font-size="10.00">Kappa</text>
</a>
</g>
</g>
<!-- Node1&#45;&gt;Node4 -->
<g id="edge3_Node000001_Node000004" class="edge">
<title>Node1&#45;&gt;Node4</title>
<g id="a_edge3_Node000001_Node000004"><a xlink:title=" ">
<path fill="none" stroke="#63b8ff" d="M379.86,-144.98C371.35,-146.13 362.78,-147.29 354.41,-148.43"/>
<polygon fill="#63b8ff" stroke="#63b8ff" points="380.06,-148.49 389.5,-143.68 379.12,-141.55 380.06,-148.49"/>
</a>
</g>
</g>
<!-- Node5 -->
<g id="Node000005" class="node">
<title>Node5</title>
<g id="a_Node000005"><a xlink:href="classGreenFLayered3D.html#af46d152fbc30bdc418ff16e5e7a334c6" target="_top" xlink:title="Point–triangle delta/kappa contributions for RHS assembly.">
<polygon fill="white" stroke="#666666" points="351.5,-123.5 202.75,-123.5 202.75,-90 351.5,-90 351.5,-123.5"/>
<text xml:space="preserve" text-anchor="start" x="210.75" y="-110" font-family="Helvetica,sans-Serif" font-size="10.00">GreenFLayered3D::SameTri</text>
<text xml:space="preserve" text-anchor="middle" x="277.12" y="-97.25" font-family="Helvetica,sans-Serif" font-size="10.00">DeltaKappa</text>
</a>
</g>
</g>
<!-- Node1&#45;&gt;Node5 -->
<g id="edge4_Node000001_Node000005" class="edge">
<title>Node1&#45;&gt;Node5</title>
<g id="a_edge4_Node000001_Node000005"><a xlink:title=" ">
<path fill="none" stroke="#63b8ff" d="M379.71,-120.5C370.41,-119.24 361.04,-117.97 351.95,-116.74"/>
<polygon fill="#63b8ff" stroke="#63b8ff" points="379.12,-123.95 389.5,-121.82 380.06,-117.01 379.12,-123.95"/>
</a>
</g>
</g>
<!-- Node6 -->
<g id="Node000006" class="node">
<title>Node6</title>
<g id="a_Node000006"><a xlink:href="classGreenFLayered3D.html#a6c88af86169f8d148c3e9f4da77a77d0" target="_top" xlink:title="Triangle–triangle D/K blocks assembly for all RWG pairs on two triangles.">
<polygon fill="white" stroke="#666666" points="163,-49.12 0,-49.12 0,-28.38 163,-28.38 163,-49.12"/>
<text xml:space="preserve" text-anchor="middle" x="81.5" y="-35.62" font-family="Helvetica,sans-Serif" font-size="10.00">GreenFLayered3D::SameTriDK</text>
</a>
</g>
</g>
<!-- Node1&#45;&gt;Node6 -->
<g id="edge5_Node000001_Node000006" class="edge">
<title>Node1&#45;&gt;Node6</title>
<g id="a_edge5_Node000001_Node000006"><a xlink:title=" ">
<path fill="none" stroke="#63b8ff" d="M428.41,-110.51C407.05,-100.02 380.34,-88.2 355.25,-80.75 292.21,-62.03 218.37,-51.31 163.43,-45.39"/>
<polygon fill="#63b8ff" stroke="#63b8ff" points="426.58,-113.5 437.09,-114.85 429.71,-107.24 426.58,-113.5"/>
</a>
</g>
</g>
<!-- Node7 -->
<g id="Node000007" class="node">
<title>Node7</title>
<g id="a_Node000007"><a xlink:href="classGreenFLayered3D.html#a87c30d7c2782fd16b17a54bf12777cf0" target="_top" xlink:title="Test assembly of same&#45;triangle D and K matrix elements.">
<polygon fill="white" stroke="#666666" points="355.25,-33.5 199,-33.5 199,0 355.25,0 355.25,-33.5"/>
<text xml:space="preserve" text-anchor="start" x="207" y="-20" font-family="Helvetica,sans-Serif" font-size="10.00">GreenFLayered3D::testSame</text>
<text xml:space="preserve" text-anchor="middle" x="277.12" y="-7.25" font-family="Helvetica,sans-Serif" font-size="10.00">TriDK</text>
</a>
</g>
</g>
<!-- Node1&#45;&gt;Node7 -->
<g id="edge6_Node000001_Node000007" class="edge">
<title>Node1&#45;&gt;Node7</title>
<g id="a_edge6_Node000001_Node000007"><a xlink:title=" ">
<path fill="none" stroke="#63b8ff" d="M441.87,-108.57C419.41,-90.25 386.68,-65.31 355.25,-47.75 346.18,-42.68 336.11,-38.01 326.32,-33.92"/>
<polygon fill="#63b8ff" stroke="#63b8ff" points="439.44,-111.1 449.38,-114.77 443.9,-105.71 439.44,-111.1"/>
</a>
</g>
</g>
<!-- Node7&#45;&gt;Node6 -->
<g id="edge7_Node000007_Node000006" class="edge">
<title>Node7&#45;&gt;Node6</title>
<g id="a_edge7_Node000007_Node000006"><a xlink:title=" ">
<path fill="none" stroke="#63b8ff" d="M187.43,-26.83C179.36,-27.74 171.22,-28.67 163.22,-29.58"/>
<polygon fill="#63b8ff" stroke="#63b8ff" points="187.72,-30.32 197.26,-25.71 186.93,-23.36 187.72,-30.32"/>
</a>
</g>
</g>
</g>
</svg>
