<?xml version="1.0" encoding="UTF-8" standalone="no"?>
<!DOCTYPE svg PUBLIC "-//W3C//DTD SVG 1.1//EN"
 "http://www.w3.org/Graphics/SVG/1.1/DTD/svg11.dtd">
<!-- Generated by graphviz version 13.1.2 (20250809.0930)
 -->
<!-- Title: RWGFun::Evaluate Pages: 1 -->
<!--zoomable 881 -->

<svg id="main" version="1.1" xmlns="http://www.w3.org/2000/svg" xmlns:xlink="http://www.w3.org/1999/xlink" xml:space="preserve" onload="init(evt)">

<style type="text/css"><![CDATA[
.node, .edge {opacity: 0.7;}
.node.selected, .edge.selected {opacity: 1;}
.edge:hover path { stroke: red; }
.edge:hover polygon { stroke: red; fill: red; }
]]></style>

<defs>
  <circle id="rim" cx="0" cy="0" r="7"/>
  <circle id="rim2" cx="0" cy="0" r="3.5"/>
  <g id="zoomPlus">
    <use xlink:href="#rim" fill="#404040"><set attributeName="fill" to="#808080" begin="zoomplus.mouseover" end="zoomplus.mouseout"/></use>
    <path d="M-4,0h8M0,-4v8" fill="none" stroke="white" stroke-width="1.5" pointer-events="none"/>
  </g>
  <g id="zoomMin">
    <use xlink:href="#rim" fill="#404040"><set attributeName="fill" to="#808080" begin="zoomminus.mouseover" end="zoomminus.mouseout"/></use>
    <path d="M-4,0h8" fill="none" stroke="white" stroke-width="1.5" pointer-events="none"/>
  </g>
  <g id="arrowUp" transform="translate(30 24)">
    <use xlink:href="#rim"/>
    <path pointer-events="none" fill="none" stroke="white" stroke-width="1.5" d="M0,-3.0v7 M-2.5,-0.5L0,-3.0L2.5,-0.5"/>
  </g>
  <g id="arrowRight" transform="rotate(90) translate(36 -43)">
    <use xlink:href="#rim"/>
    <path pointer-events="none" fill="none" stroke="white" stroke-width="1.5" d="M0,-3.0v7 M-2.5,-0.5L0,-3.0L2.5,-0.5"/>
  </g>
  <g id="arrowDown" transform="rotate(180) translate(-30 -48)">
    <use xlink:href="#rim"/>
    <path pointer-events="none" fill="none" stroke="white" stroke-width="1.5" d="M0,-3.0v7 M-2.5,-0.5L0,-3.0L2.5,-0.5"/>
  </g>
  <g id="arrowLeft" transform="rotate(270) translate(-36 17)">
    <use xlink:href="#rim"/>
    <path pointer-events="none" fill="none" stroke="white" stroke-width="1.5" d="M0,-3.0v7 M-2.5,-0.5L0,-3.0L2.5,-0.5"/>
  </g>
  <g id="resetDef">
    <use xlink:href="#rim2" fill="#404040"><set attributeName="fill" to="#808080" begin="reset.mouseover" end="reset.mouseout"/></use>
  </g>
</defs>
<script type="application/ecmascript">
var viewWidth = 492;
var viewHeight = 881;
var sectionId = 'dynsection-2';
</script>
<script type="application/ecmascript" xlink:href="svg.min.js"/>
<svg id="graph" class="graph">
<g id="viewport">
<title>RWGFun::Evaluate</title>
<!-- Node1 -->
<g id="Node000001" class="node">
<title>Node1</title>
<g id="a_Node000001"><a xlink:title="Evaluate the RWG vector shape function at a point on the triangle.">
<polygon fill="#999999" stroke="#666666" points="483.75,-467.75 377.75,-467.75 377.75,-447 483.75,-447 483.75,-467.75"/>
<text xml:space="preserve" text-anchor="middle" x="430.75" y="-454.25" font-family="Helvetica,sans-Serif" font-size="10.00">RWGFun::Evaluate</text>
</a>
</g>
</g>
<!-- Node2 -->
<g id="Node000002" class="node">
<title>Node2</title>
<g id="a_Node000002"><a xlink:href="classGaussQuad.html#a017bdf3c80a430f4c381310bd7b680ed" target="_top" xlink:title="I2: vector form with the RWG basis evaluated at the centroid.">
<polygon fill="white" stroke="#666666" points="296.75,-872.75 210.25,-872.75 210.25,-852 296.75,-852 296.75,-872.75"/>
<text xml:space="preserve" text-anchor="middle" x="253.5" y="-859.25" font-family="Helvetica,sans-Serif" font-size="10.00">GaussQuad::I2</text>
</a>
</g>
</g>
<!-- Node1&#45;&gt;Node2 -->
<g id="edge1_Node000001_Node000002" class="edge">
<title>Node1&#45;&gt;Node2</title>
<g id="a_edge1_Node000001_Node000002"><a xlink:title=" ">
<path fill="none" stroke="#63b8ff" d="M427.6,-479.42C420.03,-552.59 392.29,-785.69 341.75,-838.38 330.11,-850.51 312.96,-856.69 296.94,-859.78"/>
<polygon fill="#63b8ff" stroke="#63b8ff" points="431.07,-479.85 428.59,-469.55 424.11,-479.15 431.07,-479.85"/>
</a>
</g>
</g>
<!-- Node3 -->
<g id="Node000003" class="node">
<title>Node3</title>
<g id="a_Node000003"><a xlink:href="classGaussQuad.html#ab01b06d5cd9d9d15b01d0c9078b8dc5e" target="_top" xlink:title="Two‑triangle integral for the D operator (Eq.">
<polygon fill="white" stroke="#666666" points="129.25,-853.75 0,-853.75 0,-833 129.25,-833 129.25,-853.75"/>
<text xml:space="preserve" text-anchor="middle" x="64.62" y="-840.25" font-family="Helvetica,sans-Serif" font-size="10.00">GaussQuad::IntegrateD</text>
</a>
</g>
</g>
<!-- Node1&#45;&gt;Node3 -->
<g id="edge9_Node000001_Node000003" class="edge">
<title>Node1&#45;&gt;Node3</title>
<g id="a_edge9_Node000001_Node000003"><a xlink:title=" ">
<path fill="none" stroke="#63b8ff" d="M427.4,-479.1C419.47,-548.21 391.37,-760.97 341.75,-805.38 311.37,-832.56 201.36,-840.42 129.7,-842.62"/>
<polygon fill="#63b8ff" stroke="#63b8ff" points="430.85,-479.78 428.48,-469.45 423.89,-479 430.85,-479.78"/>
</a>
</g>
</g>
<!-- Node4 -->
<g id="Node000004" class="node">
<title>Node4</title>
<g id="a_Node000004"><a xlink:href="classGaussQuad.html#ae59aff5fbf12ed60f4bb65820fdcae91" target="_top" xlink:title="I2 with on‑the‑fly scalar kernel evaluation.">
<polygon fill="white" stroke="#666666" points="296.75,-796.75 210.25,-796.75 210.25,-776 296.75,-776 296.75,-796.75"/>
<text xml:space="preserve" text-anchor="middle" x="253.5" y="-783.25" font-family="Helvetica,sans-Serif" font-size="10.00">GaussQuad::I2</text>
</a>
</g>
</g>
<!-- Node1&#45;&gt;Node4 -->
<g id="edge3_Node000001_Node000004" class="edge">
<title>Node1&#45;&gt;Node4</title>
<g id="a_edge3_Node000001_Node000004"><a xlink:title=" ">
<path fill="none" stroke="#63b8ff" d="M430.53,-479.5C431.26,-536.14 424.88,-687.46 341.75,-766.38 329.8,-777.72 312.79,-783.09 296.96,-785.5"/>
<polygon fill="#63b8ff" stroke="#63b8ff" points="434.03,-479.49 430.3,-469.58 427.04,-479.66 434.03,-479.49"/>
</a>
</g>
</g>
<!-- Node5 -->
<g id="Node000005" class="node">
<title>Node5</title>
<g id="a_Node000005"><a xlink:href="classGaussQuad.html#aa2f7019adfbd7b78e6f91e5554b526b7" target="_top" xlink:title="I4: vector kernel crossed with RWG at the centroid.">
<polygon fill="white" stroke="#666666" points="296.75,-757.75 210.25,-757.75 210.25,-737 296.75,-737 296.75,-757.75"/>
<text xml:space="preserve" text-anchor="middle" x="253.5" y="-744.25" font-family="Helvetica,sans-Serif" font-size="10.00">GaussQuad::I4</text>
</a>
</g>
</g>
<!-- Node1&#45;&gt;Node5 -->
<g id="edge4_Node000001_Node000005" class="edge">
<title>Node1&#45;&gt;Node5</title>
<g id="a_edge4_Node000001_Node000005"><a xlink:title=" ">
<path fill="none" stroke="#63b8ff" d="M429.12,-479.61C426.45,-530.45 412.63,-656.03 341.75,-723.38 329.68,-734.85 312.64,-740.93 296.83,-744.13"/>
<polygon fill="#63b8ff" stroke="#63b8ff" points="432.62,-479.76 429.54,-469.63 425.63,-479.47 432.62,-479.76"/>
</a>
</g>
</g>
<!-- Node6 -->
<g id="Node000006" class="node">
<title>Node6</title>
<g id="a_Node000006"><a xlink:href="classGaussQuad.html#ab896c6e8141cd1e678d4f630fe0fd186" target="_top" xlink:title="Two‑triangle integral for the K operator (Eq.">
<polygon fill="white" stroke="#666666" points="128.88,-738.75 0.38,-738.75 0.38,-718 128.88,-718 128.88,-738.75"/>
<text xml:space="preserve" text-anchor="middle" x="64.62" y="-725.25" font-family="Helvetica,sans-Serif" font-size="10.00">GaussQuad::IntegrateK</text>
</a>
</g>
</g>
<!-- Node1&#45;&gt;Node6 -->
<g id="edge13_Node000001_Node000006" class="edge">
<title>Node1&#45;&gt;Node6</title>
<g id="a_edge13_Node000001_Node000006"><a xlink:title=" ">
<path fill="none" stroke="#63b8ff" d="M428.57,-479.39C424.77,-526.45 408.79,-636.91 341.75,-690.38 309.88,-715.79 200.34,-724.21 129.18,-727"/>
<polygon fill="#63b8ff" stroke="#63b8ff" points="432.05,-479.86 429.24,-469.65 425.06,-479.38 432.05,-479.86"/>
</a>
</g>
</g>
<!-- Node7 -->
<g id="Node000007" class="node">
<title>Node7</title>
<g id="a_Node000007"><a xlink:href="classGaussQuad.html#a0fb8ea7e979899e9f7e872faed11d6bd" target="_top" xlink:title="I4 with on‑the‑fly vector kernel evaluation.">
<polygon fill="white" stroke="#666666" points="296.75,-681.75 210.25,-681.75 210.25,-661 296.75,-661 296.75,-681.75"/>
<text xml:space="preserve" text-anchor="middle" x="253.5" y="-668.25" font-family="Helvetica,sans-Serif" font-size="10.00">GaussQuad::I4</text>
</a>
</g>
</g>
<!-- Node1&#45;&gt;Node7 -->
<g id="edge6_Node000001_Node000007" class="edge">
<title>Node1&#45;&gt;Node7</title>
<g id="a_edge6_Node000001_Node000007"><a xlink:title=" ">
<path fill="none" stroke="#63b8ff" d="M426.28,-479.45C418.68,-520.04 396.65,-606.51 341.75,-651.38 329.24,-661.6 312.49,-666.82 297.01,-669.41"/>
<polygon fill="#63b8ff" stroke="#63b8ff" points="429.71,-480.14 427.97,-469.69 422.81,-478.95 429.71,-480.14"/>
</a>
</g>
</g>
<!-- Node8 -->
<g id="Node000008" class="node">
<title>Node8</title>
<g id="a_Node000008"><a xlink:href="classGaussQuad.html#ae1cb48d95d2fad8c46a0a4d44b1216d9" target="_top" xlink:title="Integrate on triangle E_inc using centroid evaluation.">
<polygon fill="white" stroke="#666666" points="314.38,-642.75 192.62,-642.75 192.62,-622 314.38,-622 314.38,-642.75"/>
<text xml:space="preserve" text-anchor="middle" x="253.5" y="-629.25" font-family="Helvetica,sans-Serif" font-size="10.00">GaussQuad::Integrate</text>
</a>
</g>
</g>
<!-- Node1&#45;&gt;Node8 -->
<g id="edge7_Node000001_Node000008" class="edge">
<title>Node1&#45;&gt;Node8</title>
<g id="a_edge7_Node000001_Node000008"><a xlink:title=" ">
<path fill="none" stroke="#63b8ff" d="M423.68,-478.99C413,-512.92 387.51,-578.31 341.75,-612.38 333.77,-618.31 324.33,-622.53 314.65,-625.52"/>
<polygon fill="#63b8ff" stroke="#63b8ff" points="427.02,-480.07 426.53,-469.48 420.31,-478.06 427.02,-480.07"/>
</a>
</g>
</g>
<!-- Node9 -->
<g id="Node000009" class="node">
<title>Node9</title>
<g id="a_Node000009"><a xlink:href="classGaussQuad.html#ac053945db0c37c26ac30f3e468550b6e" target="_top" xlink:title="Integrate on triangle &#160;with Dunavant quadrature.">
<polygon fill="white" stroke="#666666" points="314.38,-603.75 192.62,-603.75 192.62,-583 314.38,-583 314.38,-603.75"/>
<text xml:space="preserve" text-anchor="middle" x="253.5" y="-590.25" font-family="Helvetica,sans-Serif" font-size="10.00">GaussQuad::Integrate</text>
</a>
</g>
</g>
<!-- Node1&#45;&gt;Node9 -->
<g id="edge8_Node000001_Node000009" class="edge">
<title>Node1&#45;&gt;Node9</title>
<g id="a_edge8_Node000001_Node000009"><a xlink:title=" ">
<path fill="none" stroke="#63b8ff" d="M419.85,-478.05C406.11,-504.43 378.72,-549.49 341.75,-573.38 333.53,-578.69 324.07,-582.6 314.48,-585.47"/>
<polygon fill="#63b8ff" stroke="#63b8ff" points="422.85,-479.87 424.21,-469.36 416.6,-476.73 422.85,-479.87"/>
</a>
</g>
</g>
<!-- Node10 -->
<g id="Node000010" class="node">
<title>Node10</title>
<g id="a_Node000010"><a xlink:href="classGreenFHom3D.html#aca136b03c44ad1da34acf91eb5a5e390" target="_top" xlink:title="term at an observation point.">
<polygon fill="white" stroke="#666666" points="335.75,-564.75 171.25,-564.75 171.25,-544 335.75,-544 335.75,-564.75"/>
<text xml:space="preserve" text-anchor="middle" x="253.5" y="-551.25" font-family="Helvetica,sans-Serif" font-size="10.00">GreenFHom3D::IntegrateDelta</text>
</a>
</g>
</g>
<!-- Node1&#45;&gt;Node10 -->
<g id="edge10_Node000001_Node000010" class="edge">
<title>Node1&#45;&gt;Node10</title>
<g id="a_edge10_Node000001_Node000010"><a xlink:title=" ">
<path fill="none" stroke="#63b8ff" d="M413.44,-476.65C397.14,-494.64 370.43,-520.81 341.75,-535.38 335.39,-538.6 328.5,-541.29 321.47,-543.51"/>
<polygon fill="#63b8ff" stroke="#63b8ff" points="415.99,-479.05 419.97,-469.24 410.73,-474.43 415.99,-479.05"/>
</a>
</g>
</g>
<!-- Node11 -->
<g id="Node000011" class="node">
<title>Node11</title>
<g id="a_Node000011"><a xlink:href="classGreenFHom3DPer2D.html#a233c2185952220bd16acae2142f05cc1" target="_top" xlink:title="term at an observation point.">
<polygon fill="white" stroke="#666666" points="337.25,-526.12 169.75,-526.12 169.75,-492.62 337.25,-492.62 337.25,-526.12"/>
<text xml:space="preserve" text-anchor="start" x="177.75" y="-512.62" font-family="Helvetica,sans-Serif" font-size="10.00">GreenFHom3DPer2D::Integrate</text>
<text xml:space="preserve" text-anchor="middle" x="253.5" y="-499.88" font-family="Helvetica,sans-Serif" font-size="10.00">Delta</text>
</a>
</g>
</g>
<!-- Node1&#45;&gt;Node11 -->
<g id="edge11_Node000001_Node000011" class="edge">
<title>Node1&#45;&gt;Node11</title>
<g id="a_edge11_Node000001_Node000011"><a xlink:title=" ">
<path fill="none" stroke="#63b8ff" d="M382.58,-471.37C361,-477.77 335.24,-485.42 312.5,-492.17"/>
<polygon fill="#63b8ff" stroke="#63b8ff" points="383.4,-474.78 391.99,-468.58 381.4,-468.07 383.4,-474.78"/>
</a>
</g>
</g>
<!-- Node12 -->
<g id="Node000012" class="node">
<title>Node12</title>
<g id="a_Node000012"><a xlink:href="classGreenFLayered3D.html#afbdbfdc8fc40fc885f6377d5be242d36" target="_top" xlink:title="term at an observation point.">
<polygon fill="white" stroke="#666666" points="330.5,-474.12 176.5,-474.12 176.5,-440.62 330.5,-440.62 330.5,-474.12"/>
<text xml:space="preserve" text-anchor="start" x="184.5" y="-460.62" font-family="Helvetica,sans-Serif" font-size="10.00">GreenFLayered3D::Integrate</text>
<text xml:space="preserve" text-anchor="middle" x="253.5" y="-447.88" font-family="Helvetica,sans-Serif" font-size="10.00">Delta</text>
</a>
</g>
</g>
<!-- Node1&#45;&gt;Node12 -->
<g id="edge12_Node000001_Node000012" class="edge">
<title>Node1&#45;&gt;Node12</title>
<g id="a_edge12_Node000001_Node000012"><a xlink:title=" ">
<path fill="none" stroke="#63b8ff" d="M366.33,-457.38C354.77,-457.38 342.61,-457.38 330.73,-457.38"/>
<polygon fill="#63b8ff" stroke="#63b8ff" points="366.13,-460.88 376.13,-457.38 366.13,-453.88 366.13,-460.88"/>
</a>
</g>
</g>
<!-- Node13 -->
<g id="Node000013" class="node">
<title>Node13</title>
<g id="a_Node000013"><a xlink:href="classGreenFHom3D.html#a9cece8a4056d65455cfcc94c8c61decd" target="_top" xlink:title="term at an observation point.">
<polygon fill="white" stroke="#666666" points="338,-422.75 169,-422.75 169,-402 338,-402 338,-422.75"/>
<text xml:space="preserve" text-anchor="middle" x="253.5" y="-409.25" font-family="Helvetica,sans-Serif" font-size="10.00">GreenFHom3D::IntegrateKappa</text>
</a>
</g>
</g>
<!-- Node1&#45;&gt;Node13 -->
<g id="edge14_Node000001_Node000013" class="edge">
<title>Node1&#45;&gt;Node13</title>
<g id="a_edge14_Node000001_Node000013"><a xlink:title=" ">
<path fill="none" stroke="#63b8ff" d="M384.59,-443.35C370.89,-439.27 355.75,-434.96 341.75,-431.38 330.64,-428.53 318.66,-425.74 307.24,-423.21"/>
<polygon fill="#63b8ff" stroke="#63b8ff" points="383.19,-446.58 393.77,-446.1 385.2,-439.87 383.19,-446.58"/>
</a>
</g>
</g>
<!-- Node14 -->
<g id="Node000014" class="node">
<title>Node14</title>
<g id="a_Node000014"><a xlink:href="classGreenFHom3DPer2D.html#aadb534ef4509422e6f3e78a0e3999758" target="_top" xlink:title="term at an observation point.">
<polygon fill="white" stroke="#666666" points="337.25,-384.12 169.75,-384.12 169.75,-350.62 337.25,-350.62 337.25,-384.12"/>
<text xml:space="preserve" text-anchor="start" x="177.75" y="-370.62" font-family="Helvetica,sans-Serif" font-size="10.00">GreenFHom3DPer2D::Integrate</text>
<text xml:space="preserve" text-anchor="middle" x="253.5" y="-357.88" font-family="Helvetica,sans-Serif" font-size="10.00">Kappa</text>
</a>
</g>
</g>
<!-- Node1&#45;&gt;Node14 -->
<g id="edge15_Node000001_Node000014" class="edge">
<title>Node1&#45;&gt;Node14</title>
<g id="a_edge15_Node000001_Node000014"><a xlink:title=" ">
<path fill="none" stroke="#63b8ff" d="M409.24,-439.33C392.19,-425.13 366.75,-405.74 341.75,-393.38 335.09,-390.08 327.94,-387.12 320.69,-384.48"/>
<polygon fill="#63b8ff" stroke="#63b8ff" points="406.76,-441.81 416.64,-445.63 411.29,-436.48 406.76,-441.81"/>
</a>
</g>
</g>
<!-- Node15 -->
<g id="Node000015" class="node">
<title>Node15</title>
<g id="a_Node000015"><a xlink:href="classGreenFLayered3D.html#a439eddb43f46fb52f6c84898ea12aa40" target="_top" xlink:title="term at an observation point.">
<polygon fill="white" stroke="#666666" points="330.5,-332.12 176.5,-332.12 176.5,-298.62 330.5,-298.62 330.5,-332.12"/>
<text xml:space="preserve" text-anchor="start" x="184.5" y="-318.62" font-family="Helvetica,sans-Serif" font-size="10.00">GreenFLayered3D::Integrate</text>
<text xml:space="preserve" text-anchor="middle" x="253.5" y="-305.88" font-family="Helvetica,sans-Serif" font-size="10.00">Kappa</text>
</a>
</g>
</g>
<!-- Node1&#45;&gt;Node15 -->
<g id="edge16_Node000001_Node000015" class="edge">
<title>Node1&#45;&gt;Node15</title>
<g id="a_edge16_Node000001_Node000015"><a xlink:title=" ">
<path fill="none" stroke="#63b8ff" d="M419.4,-436.67C405.33,-410.62 377.75,-366.31 341.75,-341.38 336.94,-338.05 331.7,-335.14 326.25,-332.59"/>
<polygon fill="#63b8ff" stroke="#63b8ff" points="416.15,-438.01 423.88,-445.26 422.36,-434.77 416.15,-438.01"/>
</a>
</g>
</g>
<!-- Node16 -->
<g id="Node000016" class="node">
<title>Node16</title>
<g id="a_Node000016"><a xlink:href="classGreenFHom3D.html#a48e8471aabb445e0e50a01c005ff3b98" target="_top" xlink:title="Compute &#160;for all RWGs on a source triangle.">
<polygon fill="white" stroke="#666666" points="333.12,-280.12 173.88,-280.12 173.88,-246.62 333.12,-246.62 333.12,-280.12"/>
<text xml:space="preserve" text-anchor="start" x="181.88" y="-266.62" font-family="Helvetica,sans-Serif" font-size="10.00">GreenFHom3D::SameTriDelta</text>
<text xml:space="preserve" text-anchor="middle" x="253.5" y="-253.88" font-family="Helvetica,sans-Serif" font-size="10.00">Kappa</text>
</a>
</g>
</g>
<!-- Node1&#45;&gt;Node16 -->
<g id="edge17_Node000001_Node000016" class="edge">
<title>Node1&#45;&gt;Node16</title>
<g id="a_edge17_Node000001_Node000016"><a xlink:title=" ">
<path fill="none" stroke="#63b8ff" d="M424.37,-435.85C414.31,-400.08 389.27,-328.51 341.75,-289.38 337.6,-285.96 333.02,-282.99 328.18,-280.41"/>
<polygon fill="#63b8ff" stroke="#63b8ff" points="420.96,-436.67 426.92,-445.43 427.73,-434.86 420.96,-436.67"/>
</a>
</g>
</g>
<!-- Node17 -->
<g id="Node000017" class="node">
<title>Node17</title>
<g id="a_Node000017"><a xlink:href="classGreenFHom3DPer2D.html#a84a8c855a27c895ff24f6771037284a5" target="_top" xlink:title="Compute &#160;for all RWGs on a source triangle.">
<polygon fill="white" stroke="#666666" points="334.62,-228.12 172.38,-228.12 172.38,-194.62 334.62,-194.62 334.62,-228.12"/>
<text xml:space="preserve" text-anchor="start" x="180.38" y="-214.62" font-family="Helvetica,sans-Serif" font-size="10.00">GreenFHom3DPer2D::SameTri</text>
<text xml:space="preserve" text-anchor="middle" x="253.5" y="-201.88" font-family="Helvetica,sans-Serif" font-size="10.00">DeltaKappa</text>
</a>
</g>
</g>
<!-- Node1&#45;&gt;Node17 -->
<g id="edge18_Node000001_Node000017" class="edge">
<title>Node1&#45;&gt;Node17</title>
<g id="a_edge18_Node000001_Node000017"><a xlink:title=" ">
<path fill="none" stroke="#63b8ff" d="M427.3,-435.53C421.18,-391.49 401.2,-291.65 341.75,-237.38 338.01,-233.96 333.85,-231 329.42,-228.42"/>
<polygon fill="#63b8ff" stroke="#63b8ff" points="423.81,-435.86 428.54,-445.34 430.76,-434.98 423.81,-435.86"/>
</a>
</g>
</g>
<!-- Node18 -->
<g id="Node000018" class="node">
<title>Node18</title>
<g id="a_Node000018"><a xlink:href="classGreenFHom3D.html#a419cbe00b5a2aed70ac546904a8a8d6f" target="_top" xlink:title="Compute &#160;and &#160;for all RWG pairs on two triangles.">
<polygon fill="white" stroke="#666666" points="327.12,-176.75 179.88,-176.75 179.88,-156 327.12,-156 327.12,-176.75"/>
<text xml:space="preserve" text-anchor="middle" x="253.5" y="-163.25" font-family="Helvetica,sans-Serif" font-size="10.00">GreenFHom3D::SameTriDK</text>
</a>
</g>
</g>
<!-- Node1&#45;&gt;Node18 -->
<g id="edge19_Node000001_Node000018" class="edge">
<title>Node1&#45;&gt;Node18</title>
<g id="a_edge19_Node000001_Node000018"><a xlink:title=" ">
<path fill="none" stroke="#63b8ff" d="M429.57,-435.07C427.87,-382.99 416.01,-252.66 341.75,-185.38 337.5,-181.52 332.65,-178.39 327.48,-175.84"/>
<polygon fill="#63b8ff" stroke="#63b8ff" points="426.07,-435.11 429.78,-445.03 433.07,-434.96 426.07,-435.11"/>
</a>
</g>
</g>
<!-- Node19 -->
<g id="Node000019" class="node">
<title>Node19</title>
<g id="a_Node000019"><a xlink:href="classGreenFHom3DPer2D.html#a1dc9dd84c93ee10b2fb4b1866103d957" target="_top" xlink:title="Compute &#160;and &#160;for all RWG pairs on two triangles.">
<polygon fill="white" stroke="#666666" points="341.75,-137.75 165.25,-137.75 165.25,-117 341.75,-117 341.75,-137.75"/>
<text xml:space="preserve" text-anchor="middle" x="253.5" y="-124.25" font-family="Helvetica,sans-Serif" font-size="10.00">GreenFHom3DPer2D::SameTriDK</text>
</a>
</g>
</g>
<!-- Node1&#45;&gt;Node19 -->
<g id="edge20_Node000001_Node000019" class="edge">
<title>Node1&#45;&gt;Node19</title>
<g id="a_edge20_Node000001_Node000019"><a xlink:title=" ">
<path fill="none" stroke="#63b8ff" d="M430.56,-435.18C431.34,-378.36 425.1,-226.56 341.75,-147.38 337.92,-143.74 333.57,-140.71 328.9,-138.2"/>
<polygon fill="#63b8ff" stroke="#63b8ff" points="427.06,-435.06 430.32,-445.14 434.06,-435.23 427.06,-435.06"/>
</a>
</g>
</g>
<!-- Node20 -->
<g id="Node000020" class="node">
<title>Node20</title>
<g id="a_Node000020"><a xlink:href="classGreenFLayered3D.html#a6c88af86169f8d148c3e9f4da77a77d0" target="_top" xlink:title="Triangle–triangle D/K blocks assembly for all RWG pairs on two triangles.">
<polygon fill="white" stroke="#666666" points="335,-98.75 172,-98.75 172,-78 335,-78 335,-98.75"/>
<text xml:space="preserve" text-anchor="middle" x="253.5" y="-85.25" font-family="Helvetica,sans-Serif" font-size="10.00">GreenFLayered3D::SameTriDK</text>
</a>
</g>
</g>
<!-- Node1&#45;&gt;Node20 -->
<g id="edge21_Node000001_Node000020" class="edge">
<title>Node1&#45;&gt;Node20</title>
<g id="a_edge21_Node000001_Node000020"><a xlink:title=" ">
<path fill="none" stroke="#63b8ff" d="M427.19,-435.31C418.71,-366.07 389.36,-154.97 341.75,-108.38 337.97,-104.68 333.66,-101.61 329.02,-99.07"/>
<polygon fill="#63b8ff" stroke="#63b8ff" points="423.69,-435.5 428.35,-445.01 430.64,-434.66 423.69,-435.5"/>
</a>
</g>
</g>
<!-- Node21 -->
<g id="Node000021" class="node">
<title>Node21</title>
<g id="a_Node000021"><a xlink:href="classGreenFHom3D.html#aee15ec1616a294e10b554f1afbb97845" target="_top" xlink:title="Same as SameTriDK plus gradients (if provided by the GF).">
<polygon fill="white" stroke="#666666" points="330.88,-59.75 176.12,-59.75 176.12,-39 330.88,-39 330.88,-59.75"/>
<text xml:space="preserve" text-anchor="middle" x="253.5" y="-46.25" font-family="Helvetica,sans-Serif" font-size="10.00">GreenFHom3D::SameTriDKG</text>
</a>
</g>
</g>
<!-- Node1&#45;&gt;Node21 -->
<g id="edge22_Node000001_Node000021" class="edge">
<title>Node1&#45;&gt;Node21</title>
<g id="a_edge22_Node000001_Node000021"><a xlink:title=" ">
<path fill="none" stroke="#63b8ff" d="M427.84,-435.79C420.86,-362.11 394.44,-122.19 341.75,-69.38 338.13,-65.74 333.99,-62.72 329.53,-60.2"/>
<polygon fill="#63b8ff" stroke="#63b8ff" points="424.31,-435.69 428.71,-445.33 431.28,-435.05 424.31,-435.69"/>
</a>
</g>
</g>
<!-- Node22 -->
<g id="Node000022" class="node">
<title>Node22</title>
<g id="a_Node000022"><a xlink:href="classGreenFLayered3D.html#a52cce9be0f67bd1b5aa9b2cdb01e4164" target="_top" xlink:title="Same as SameTriDK and additionally accumulates gradients.">
<polygon fill="white" stroke="#666666" points="338.75,-20.75 168.25,-20.75 168.25,0 338.75,0 338.75,-20.75"/>
<text xml:space="preserve" text-anchor="middle" x="253.5" y="-7.25" font-family="Helvetica,sans-Serif" font-size="10.00">GreenFLayered3D::SameTriDKG</text>
</a>
</g>
</g>
<!-- Node1&#45;&gt;Node22 -->
<g id="edge23_Node000001_Node000022" class="edge">
<title>Node1&#45;&gt;Node22</title>
<g id="a_edge23_Node000001_Node000022"><a xlink:title=" ">
<path fill="none" stroke="#63b8ff" d="M428.27,-435.19C422.56,-356.05 399.28,-89.19 341.75,-30.38 338.16,-26.71 334.05,-23.66 329.61,-21.12"/>
<polygon fill="#63b8ff" stroke="#63b8ff" points="424.78,-435.35 428.96,-445.08 431.76,-434.86 424.78,-435.35"/>
</a>
</g>
</g>
<!-- Node2&#45;&gt;Node3 -->
<g id="edge2_Node000002_Node000003" class="edge">
<title>Node2&#45;&gt;Node3</title>
<g id="a_edge2_Node000002_Node000003"><a xlink:title=" ">
<path fill="none" stroke="#63b8ff" d="M198.81,-856.92C177.19,-854.72 152.07,-852.16 129.52,-849.87"/>
<polygon fill="#63b8ff" stroke="#63b8ff" points="198.29,-860.38 208.59,-857.91 198.99,-853.42 198.29,-860.38"/>
</a>
</g>
</g>
<!-- Node5&#45;&gt;Node6 -->
<g id="edge5_Node000005_Node000006" class="edge">
<title>Node5&#45;&gt;Node6</title>
<g id="a_edge5_Node000005_Node000006"><a xlink:title=" ">
<path fill="none" stroke="#63b8ff" d="M198.76,-741.91C177.03,-739.7 151.79,-737.14 129.16,-734.83"/>
<polygon fill="#63b8ff" stroke="#63b8ff" points="198.29,-745.38 208.59,-742.91 198.99,-738.42 198.29,-745.38"/>
</a>
</g>
</g>
</g>
</svg>

<g id="navigator" transform="translate(0 0)" fill="#404254">
  <rect fill="#f2f5e9" fill-opacity="0.5" stroke="#606060" stroke-width=".5" x="0" y="0" width="60" height="60"/>
  <use id="zoomplus" xlink:href="#zoomPlus" x="17" y="9" onmousedown="handleZoom(evt,'in')"/>
  <use id="zoomminus" xlink:href="#zoomMin" x="42" y="9" onmousedown="handleZoom(evt,'out')"/>
  <use id="reset" xlink:href="#resetDef" x="30" y="36" onmousedown="handleReset()"/>
   <use id="arrowup" xlink:href="#arrowUp" x="0" y="0" onmousedown="handlePan(0,-1)"/>
  <use id="arrowright" xlink:href="#arrowRight" x="0" y="0" onmousedown="handlePan(1,0)"/>
  <use id="arrowdown" xlink:href="#arrowDown" x="0" y="0" onmousedown="handlePan(0,1)"/>
  <use id="arrowleft" xlink:href="#arrowLeft" x="0" y="0" onmousedown="handlePan(-1,0)"/>
</g>
<svg viewBox="0 0 15 15" width="100%" height="30px" preserveAspectRatio="xMaxYMin meet">
 <g id="arrow_out" transform="scale(0.3 0.3)">
  <a xlink:href="classRWGFun_a7540ce2f84c6b42a29c2808504c47d42_icgraph_org.svg" target="_base">
   <rect id="button" ry="5" rx="5" y="6" x="6" height="38" width="38"
        fill="#f2f5e9" fill-opacity="0.5" stroke="#606060" stroke-width="1.0"/>
   <path id="arrow"
     d="M 11.500037,31.436501 C 11.940474,20.09759 22.043105,11.32322 32.158766,21.979434 L 37.068811,17.246167 C 37.068811,17.246167 37.088388,32 37.088388,32 L 22.160133,31.978069 C 22.160133,31.978069 26.997745,27.140456 26.997745,27.140456 C 18.528582,18.264221 13.291696,25.230495 11.500037,31.436501 z"
     style="fill:#404040;"/>
  </a>
 </g>
</svg>

<style type='text/css'>
<![CDATA[
[data-mouse-over-selected='false'] { opacity: 0.7; }
[data-mouse-over-selected='true']  { opacity: 1.0; }
]]>
</style>
<script type="application/ecmascript"><![CDATA[
document.addEventListener('DOMContentLoaded', (event) => {
  highlightEdges();
  highlightAdjacentNodes();
});
]]></script>
</svg>
