<?xml version="1.0" encoding="UTF-8" standalone="no"?>
<!DOCTYPE svg PUBLIC "-//W3C//DTD SVG 1.1//EN"
 "http://www.w3.org/Graphics/SVG/1.1/DTD/svg11.dtd">
<!-- Generated by graphviz version 13.1.2 (20250809.0930)
 -->
<!-- Title: DomainLayered3D::computeGrid Pages: 1 -->
<svg width="423pt" height="158pt"
 viewBox="0.00 0.00 423.00 158.00" xmlns="http://www.w3.org/2000/svg" xmlns:xlink="http://www.w3.org/1999/xlink">
<g id="graph0" class="graph" transform="scale(1 1) rotate(0) translate(4 153.75)">
<title>DomainLayered3D::computeGrid</title>
<!-- Node1 -->
<g id="Node000001" class="node">
<title>Node1</title>
<g id="a_Node000001"><a xlink:title="Computes the grid points for tabulation.">
<polygon fill="#999999" stroke="#666666" points="415.25,-87.75 239.5,-87.75 239.5,-67 415.25,-67 415.25,-87.75"/>
<text xml:space="preserve" text-anchor="middle" x="327.38" y="-74.25" font-family="Helvetica,sans-Serif" font-size="10.00">DomainLayered3D::computeGrid</text>
</a>
</g>
</g>
<!-- Node2 -->
<g id="Node000002" class="node">
<title>Node2</title>
<g id="a_Node000002"><a xlink:href="classDomainLayered3D.html#a6551ae7ca5dac2a5dda2d78b15d78ecc" target="_top" xlink:title="Add a Dipole excitation in the layered medium.">
<polygon fill="white" stroke="#666666" points="183.25,-149.75 20.25,-149.75 20.25,-129 183.25,-129 183.25,-149.75"/>
<text xml:space="preserve" text-anchor="middle" x="101.75" y="-136.25" font-family="Helvetica,sans-Serif" font-size="10.00">DomainLayered3D::AddDipole</text>
</a>
</g>
</g>
<!-- Node1&#45;&gt;Node2 -->
<g id="edge1_Node000001_Node000002" class="edge">
<title>Node1&#45;&gt;Node2</title>
<g id="a_edge1_Node000001_Node000002"><a xlink:title=" ">
<path fill="none" stroke="#63b8ff" d="M287.62,-92.11C263.63,-100.85 232.07,-111.69 203.5,-119.38 190.93,-122.76 177.33,-125.83 164.32,-128.51"/>
<polygon fill="#63b8ff" stroke="#63b8ff" points="288.81,-95.4 296.98,-88.66 286.39,-88.83 288.81,-95.4"/>
</a>
</g>
</g>
<!-- Node3 -->
<g id="Node000003" class="node">
<title>Node3</title>
<g id="a_Node000003"><a xlink:href="classDomainLayered3D.html#ad0d867ee7289e485c4bc01077fbdb59a" target="_top" xlink:title="Constructs a 3D layered domain with given material properties and geometry.">
<polygon fill="white" stroke="#666666" points="203.5,-110.75 0,-110.75 0,-90 203.5,-90 203.5,-110.75"/>
<text xml:space="preserve" text-anchor="middle" x="101.75" y="-97.25" font-family="Helvetica,sans-Serif" font-size="10.00">DomainLayered3D::DomainLayered3D</text>
</a>
</g>
</g>
<!-- Node1&#45;&gt;Node3 -->
<g id="edge2_Node000001_Node000003" class="edge">
<title>Node1&#45;&gt;Node3</title>
<g id="a_edge2_Node000001_Node000003"><a xlink:title=" ">
<path fill="none" stroke="#63b8ff" d="M227.98,-87.49C219.94,-88.32 211.8,-89.16 203.73,-89.99"/>
<polygon fill="#63b8ff" stroke="#63b8ff" points="228.18,-90.99 237.77,-86.49 227.46,-84.03 228.18,-90.99"/>
</a>
</g>
</g>
<!-- Node4 -->
<g id="Node000004" class="node">
<title>Node4</title>
<g id="a_Node000004"><a xlink:href="classDomainLayered3D.html#ab55a37fee77313a2f5e2bd4c2be927f0" target="_top" xlink:title="Initialize the layered Green&#39;s function used for field evaluation.">
<polygon fill="white" stroke="#666666" points="185.5,-72.12 18,-72.12 18,-38.62 185.5,-38.62 185.5,-72.12"/>
<text xml:space="preserve" text-anchor="start" x="26" y="-58.62" font-family="Helvetica,sans-Serif" font-size="10.00">DomainLayered3D::newGrnFun</text>
<text xml:space="preserve" text-anchor="middle" x="101.75" y="-45.88" font-family="Helvetica,sans-Serif" font-size="10.00">Layered</text>
</a>
</g>
</g>
<!-- Node1&#45;&gt;Node4 -->
<g id="edge3_Node000001_Node000004" class="edge">
<title>Node1&#45;&gt;Node4</title>
<g id="a_edge3_Node000001_Node000004"><a xlink:title=" ">
<path fill="none" stroke="#63b8ff" d="M228.08,-67.7C214.02,-66.32 199.68,-64.91 185.95,-63.56"/>
<polygon fill="#63b8ff" stroke="#63b8ff" points="227.47,-71.16 237.77,-68.66 228.16,-64.2 227.47,-71.16"/>
</a>
</g>
</g>
<!-- Node5 -->
<g id="Node000005" class="node">
<title>Node5</title>
<g id="a_Node000005"><a xlink:href="classDomainLayered3D.html#acd442aab27d1f56d8211a164f85f341a" target="_top" xlink:title="Self&#45;test: grid generation (prints to console).">
<polygon fill="white" stroke="#666666" points="179.5,-20.75 24,-20.75 24,0 179.5,0 179.5,-20.75"/>
<text xml:space="preserve" text-anchor="middle" x="101.75" y="-7.25" font-family="Helvetica,sans-Serif" font-size="10.00">DomainLayered3D::test_grid</text>
</a>
</g>
</g>
<!-- Node1&#45;&gt;Node5 -->
<g id="edge4_Node000001_Node000005" class="edge">
<title>Node1&#45;&gt;Node5</title>
<g id="a_edge4_Node000001_Node000005"><a xlink:title=" ">
<path fill="none" stroke="#63b8ff" d="M292.34,-62.1C267.99,-51.67 234.24,-38.19 203.5,-29.38 192.72,-26.28 181.15,-23.56 169.82,-21.22"/>
<polygon fill="#63b8ff" stroke="#63b8ff" points="290.86,-65.27 301.42,-66.05 293.65,-58.85 290.86,-65.27"/>
</a>
</g>
</g>
</g>
</svg>
