<?xml version="1.0" encoding="UTF-8" standalone="no"?>
<!DOCTYPE svg PUBLIC "-//W3C//DTD SVG 1.1//EN"
 "http://www.w3.org/Graphics/SVG/1.1/DTD/svg11.dtd">
<!-- Generated by graphviz version 13.1.2 (20250809.0930)
 -->
<!-- Title: DomainHom3D::scatteringCS Pages: 1 -->
<svg width="420pt" height="279pt"
 viewBox="0.00 0.00 420.00 279.00" xmlns="http://www.w3.org/2000/svg" xmlns:xlink="http://www.w3.org/1999/xlink">

<svg id="main" version="1.1" xmlns="http://www.w3.org/2000/svg" xmlns:xlink="http://www.w3.org/1999/xlink" xml:space="preserve">

<style type="text/css"><![CDATA[
.node, .edge {opacity: 0.7;}
.node.selected, .edge.selected {opacity: 1;}
.edge:hover path { stroke: red; }
.edge:hover polygon { stroke: red; fill: red; }
]]></style>
<script type="application/ecmascript" xlink:href="svg.min.js"/>
<svg id="graph" class="graph">
<g id="graph0" class="graph" transform="scale(1 1) rotate(0) translate(4 274.75)">
<title>DomainHom3D::scatteringCS</title>
<!-- Node1 -->
<g id="Node000001" class="node">
<title>Node1</title>
<g id="a_Node000001"><a xlink:title="Scattering cross section via surface quadrature.">
<polygon fill="#999999" stroke="#666666" points="158.5,-135.75 0,-135.75 0,-115 158.5,-115 158.5,-135.75"/>
<text xml:space="preserve" text-anchor="middle" x="79.25" y="-122.25" font-family="Helvetica,sans-Serif" font-size="10.00">DomainHom3D::scatteringCS</text>
</a>
</g>
</g>
<!-- Node2 -->
<g id="Node000002" class="node">
<title>Node2</title>
<g id="a_Node000002"><a xlink:href="DomainHom3D_8cpp.html#acf27d554499921efb016e1a01ac8b94e" target="_top" xlink:title="Compute the element&#45;wise complex conjugate of a 3&#45;vector.">
<polygon fill="white" stroke="#666666" points="302.75,-252.75 226,-252.75 226,-232 302.75,-232 302.75,-252.75"/>
<text xml:space="preserve" text-anchor="middle" x="264.38" y="-239.25" font-family="Helvetica,sans-Serif" font-size="10.00">conjVecHom</text>
</a>
</g>
</g>
<!-- Node1&#45;&gt;Node2 -->
<g id="edge1_Node000001_Node000002" class="edge">
<title>Node1&#45;&gt;Node2</title>
<g id="a_edge1_Node000001_Node000002"><a xlink:title=" ">
<path fill="none" stroke="#63b8ff" d="M89.85,-136.1C108.23,-155.98 150.5,-198.72 194.5,-222.38 200.83,-225.78 207.81,-228.67 214.83,-231.09"/>
<polygon fill="#63b8ff" stroke="#63b8ff" points="213.76,-234.43 224.35,-234.09 215.86,-227.75 213.76,-234.43"/>
</a>
</g>
</g>
<!-- Node4 -->
<g id="Node000004" class="node">
<title>Node4</title>
<g id="a_Node000004"><a xlink:href="classTriangle.html#a691ff1d8d3f33df1fe0aae161d14ec49" target="_top" xlink:title="FRONT/BACK normal: FRONT &#45;&gt; +normal, BACK &#45;&gt; −normal.">
<polygon fill="white" stroke="#666666" points="334.25,-213.75 194.5,-213.75 194.5,-193 334.25,-193 334.25,-213.75"/>
<text xml:space="preserve" text-anchor="middle" x="264.38" y="-200.25" font-family="Helvetica,sans-Serif" font-size="10.00">Triangle::FBNormalVector</text>
</a>
</g>
</g>
<!-- Node1&#45;&gt;Node4 -->
<g id="edge4_Node000001_Node000004" class="edge">
<title>Node1&#45;&gt;Node4</title>
<g id="a_edge4_Node000001_Node000004"><a xlink:title=" ">
<path fill="none" stroke="#63b8ff" d="M98.75,-136.13C120.94,-148.71 159.54,-169.56 194.5,-183.38 199.72,-185.44 205.24,-187.39 210.79,-189.22"/>
<polygon fill="#63b8ff" stroke="#63b8ff" points="209.4,-192.45 219.99,-192.1 211.49,-185.77 209.4,-192.45"/>
</a>
</g>
</g>
<!-- Node5 -->
<g id="Node000005" class="node">
<title>Node5</title>
<g id="a_Node000005"><a xlink:href="classDomain.html#afe5c1f862e335ab05031b1d6b0b87c42" target="_top" xlink:title="Total incident electric field at a point from all incident sources.">
<polygon fill="white" stroke="#666666" points="316.25,-174.75 212.5,-174.75 212.5,-154 316.25,-154 316.25,-174.75"/>
<text xml:space="preserve" text-anchor="middle" x="264.38" y="-161.25" font-family="Helvetica,sans-Serif" font-size="10.00">Domain::IncFieldE</text>
</a>
</g>
</g>
<!-- Node1&#45;&gt;Node5 -->
<g id="edge5_Node000001_Node000005" class="edge">
<title>Node1&#45;&gt;Node5</title>
<g id="a_edge5_Node000001_Node000005"><a xlink:title=" ">
<path fill="none" stroke="#63b8ff" d="M131.26,-136.24C153,-140.87 178.55,-146.31 201.37,-151.17"/>
<polygon fill="#63b8ff" stroke="#63b8ff" points="200.33,-154.53 210.84,-153.19 201.79,-147.68 200.33,-154.53"/>
</a>
</g>
</g>
<!-- Node6 -->
<g id="Node000006" class="node">
<title>Node6</title>
<g id="a_Node000006"><a xlink:href="classDomain.html#a832a36e6ba8ae02be3dd493bd2577d4a" target="_top" xlink:title="Total incident magnetic field at a point from all incident sources.">
<polygon fill="white" stroke="#666666" points="317,-135.75 211.75,-135.75 211.75,-115 317,-115 317,-135.75"/>
<text xml:space="preserve" text-anchor="middle" x="264.38" y="-122.25" font-family="Helvetica,sans-Serif" font-size="10.00">Domain::IncFieldH</text>
</a>
</g>
</g>
<!-- Node1&#45;&gt;Node6 -->
<g id="edge6_Node000001_Node000006" class="edge">
<title>Node1&#45;&gt;Node6</title>
<g id="a_edge6_Node000001_Node000006"><a xlink:title=" ">
<path fill="none" stroke="#63b8ff" d="M158.97,-125.38C172.7,-125.38 186.81,-125.38 200.05,-125.38"/>
<polygon fill="#63b8ff" stroke="#63b8ff" points="199.91,-128.88 209.91,-125.38 199.91,-121.88 199.91,-128.88"/>
</a>
</g>
</g>
<!-- Node7 -->
<g id="Node000007" class="node">
<title>Node7</title>
<g id="a_Node000007"><a xlink:href="classTriangle.html#a0752d2c9488c7c44b851b8f75abcaa79" target="_top" xlink:title="Node position (by value) for local index 0..2.">
<polygon fill="white" stroke="#666666" points="307.25,-96.75 221.5,-96.75 221.5,-76 307.25,-76 307.25,-96.75"/>
<text xml:space="preserve" text-anchor="middle" x="264.38" y="-83.25" font-family="Helvetica,sans-Serif" font-size="10.00">Triangle::Node</text>
</a>
</g>
</g>
<!-- Node1&#45;&gt;Node7 -->
<g id="edge7_Node000001_Node000007" class="edge">
<title>Node1&#45;&gt;Node7</title>
<g id="a_edge7_Node000001_Node000007"><a xlink:title=" ">
<path fill="none" stroke="#63b8ff" d="M131.26,-114.51C155.86,-109.27 185.34,-102.99 210.22,-97.7"/>
<polygon fill="#63b8ff" stroke="#63b8ff" points="210.75,-101.16 219.8,-95.65 209.29,-94.31 210.75,-101.16"/>
</a>
</g>
</g>
<!-- Node8 -->
<g id="Node000008" class="node">
<title>Node8</title>
<g id="a_Node000008"><a xlink:href="Domain_8cpp.html#aafa3e4fa6318b2f8740f4dbd50c367e5" target="_top" xlink:title="Extract the real part of each component of a complex 3&#45;vector.">
<polygon fill="white" stroke="#666666" points="405.75,-39.75 371,-39.75 371,-19 405.75,-19 405.75,-39.75"/>
<text xml:space="preserve" text-anchor="middle" x="388.38" y="-26.25" font-family="Helvetica,sans-Serif" font-size="10.00">real</text>
</a>
</g>
</g>
<!-- Node1&#45;&gt;Node8 -->
<g id="edge8_Node000001_Node000008" class="edge">
<title>Node1&#45;&gt;Node8</title>
<g id="a_edge8_Node000001_Node000008"><a xlink:title=" ">
<path fill="none" stroke="#63b8ff" d="M97.78,-114.54C119.64,-101.49 158.54,-79.78 194.5,-67.38 251.42,-47.74 321.48,-37.12 359.54,-32.42"/>
<polygon fill="#63b8ff" stroke="#63b8ff" points="359.7,-35.92 369.22,-31.27 358.87,-28.97 359.7,-35.92"/>
</a>
</g>
</g>
<!-- Node9 -->
<g id="Node000009" class="node">
<title>Node9</title>
<g id="a_Node000009"><a xlink:href="DomainHom3D_8cpp.html#a40914d7aec9b5a14a562be6061d9324b" target="_top" xlink:title="Extract the real part of each component of a complex 3&#45;vector.">
<polygon fill="white" stroke="#666666" points="302,-20.75 226.75,-20.75 226.75,0 302,0 302,-20.75"/>
<text xml:space="preserve" text-anchor="middle" x="264.38" y="-7.25" font-family="Helvetica,sans-Serif" font-size="10.00">realVecHom</text>
</a>
</g>
</g>
<!-- Node1&#45;&gt;Node9 -->
<g id="edge10_Node000001_Node000009" class="edge">
<title>Node1&#45;&gt;Node9</title>
<g id="a_edge10_Node000001_Node000009"><a xlink:title=" ">
<path fill="none" stroke="#63b8ff" d="M91.01,-114.69C110.26,-96.09 152.53,-57.52 194.5,-34.38 201.13,-30.72 208.42,-27.46 215.7,-24.62"/>
<polygon fill="#63b8ff" stroke="#63b8ff" points="216.68,-27.99 224.86,-21.26 214.27,-21.41 216.68,-27.99"/>
</a>
</g>
</g>
<!-- Node3 -->
<g id="Node000003" class="node">
<title>Node3</title>
<g id="a_Node000003"><a xlink:href="Domain_8cpp.html#abbd88d15240455cf734121fcd73b3a03" target="_top" xlink:title="Compute the element&#45;wise complex conjugate of a 3&#45;vector.">
<polygon fill="white" stroke="#666666" points="406.5,-252.75 370.25,-252.75 370.25,-232 406.5,-232 406.5,-252.75"/>
<text xml:space="preserve" text-anchor="middle" x="388.38" y="-239.25" font-family="Helvetica,sans-Serif" font-size="10.00">conj</text>
</a>
</g>
</g>
<!-- Node2&#45;&gt;Node3 -->
<g id="edge2_Node000002_Node000003" class="edge">
<title>Node2&#45;&gt;Node3</title>
<g id="a_edge2_Node000002_Node000003"><a xlink:title=" ">
<path fill="none" stroke="#63b8ff" d="M302.97,-242.38C320.89,-242.38 341.98,-242.38 358.6,-242.38"/>
<polygon fill="#63b8ff" stroke="#63b8ff" points="358.28,-245.88 368.28,-242.38 358.28,-238.88 358.28,-245.88"/>
</a>
</g>
</g>
<!-- Node3&#45;&gt;Node3 -->
<g id="edge3_Node000003_Node000003" class="edge">
<title>Node3&#45;&gt;Node3</title>
<g id="a_edge3_Node000003_Node000003"><a xlink:title=" ">
<path fill="none" stroke="#63b8ff" d="M369.9,-251.68C359.69,-260.76 365.85,-270.75 388.38,-270.75 402.1,-270.75 409.75,-267.04 411.32,-262.09"/>
<polygon fill="#63b8ff" stroke="#63b8ff" points="414.61,-260.88 407.45,-253.07 408.18,-263.64 414.61,-260.88"/>
</a>
</g>
</g>
<!-- Node8&#45;&gt;Node8 -->
<g id="edge9_Node000008_Node000008" class="edge">
<title>Node8&#45;&gt;Node8</title>
<g id="a_edge9_Node000008_Node000008"><a xlink:title=" ">
<path fill="none" stroke="#63b8ff" d="M370.58,-38.09C359.44,-47.33 365.37,-57.75 388.38,-57.75 403.11,-57.75 410.85,-53.47 411.57,-47.97"/>
<polygon fill="#63b8ff" stroke="#63b8ff" points="414.76,-46.52 406.9,-39.42 408.62,-49.87 414.76,-46.52"/>
</a>
</g>
</g>
<!-- Node9&#45;&gt;Node8 -->
<g id="edge11_Node000009_Node000008" class="edge">
<title>Node9&#45;&gt;Node8</title>
<g id="a_edge11_Node000009_Node000008"><a xlink:title=" ">
<path fill="none" stroke="#63b8ff" d="M302.31,-16.13C320.59,-18.97 342.32,-22.36 359.23,-24.99"/>
<polygon fill="#63b8ff" stroke="#63b8ff" points="358.67,-28.45 369.09,-26.53 359.74,-21.53 358.67,-28.45"/>
</a>
</g>
</g>
</g>
</svg>
</svg>

<style type='text/css'>
<![CDATA[
[data-mouse-over-selected='false'] { opacity: 0.7; }
[data-mouse-over-selected='true']  { opacity: 1.0; }
]]>
</style>
<script type="application/ecmascript"><![CDATA[
document.addEventListener('DOMContentLoaded', (event) => {
  highlightEdges();
  highlightAdjacentNodes();
});
]]></script>
</svg>
