<?xml version="1.0" encoding="UTF-8" standalone="no"?>
<!DOCTYPE svg PUBLIC "-//W3C//DTD SVG 1.1//EN"
 "http://www.w3.org/Graphics/SVG/1.1/DTD/svg11.dtd">
<!-- Generated by graphviz version 13.1.2 (20250809.0930)
 -->
<!-- Title: SIEForm Pages: 1 -->
<!--zoomable 804 -->

<svg id="main" version="1.1" xmlns="http://www.w3.org/2000/svg" xmlns:xlink="http://www.w3.org/1999/xlink" xml:space="preserve" onload="init(evt)">

<style type="text/css"><![CDATA[
.node, .edge {opacity: 0.7;}
.node.selected, .edge.selected {opacity: 1;}
.edge:hover path { stroke: red; }
.edge:hover polygon { stroke: red; fill: red; }
]]></style>

<defs>
  <circle id="rim" cx="0" cy="0" r="7"/>
  <circle id="rim2" cx="0" cy="0" r="3.5"/>
  <g id="zoomPlus">
    <use xlink:href="#rim" fill="#404040"><set attributeName="fill" to="#808080" begin="zoomplus.mouseover" end="zoomplus.mouseout"/></use>
    <path d="M-4,0h8M0,-4v8" fill="none" stroke="white" stroke-width="1.5" pointer-events="none"/>
  </g>
  <g id="zoomMin">
    <use xlink:href="#rim" fill="#404040"><set attributeName="fill" to="#808080" begin="zoomminus.mouseover" end="zoomminus.mouseout"/></use>
    <path d="M-4,0h8" fill="none" stroke="white" stroke-width="1.5" pointer-events="none"/>
  </g>
  <g id="arrowUp" transform="translate(30 24)">
    <use xlink:href="#rim"/>
    <path pointer-events="none" fill="none" stroke="white" stroke-width="1.5" d="M0,-3.0v7 M-2.5,-0.5L0,-3.0L2.5,-0.5"/>
  </g>
  <g id="arrowRight" transform="rotate(90) translate(36 -43)">
    <use xlink:href="#rim"/>
    <path pointer-events="none" fill="none" stroke="white" stroke-width="1.5" d="M0,-3.0v7 M-2.5,-0.5L0,-3.0L2.5,-0.5"/>
  </g>
  <g id="arrowDown" transform="rotate(180) translate(-30 -48)">
    <use xlink:href="#rim"/>
    <path pointer-events="none" fill="none" stroke="white" stroke-width="1.5" d="M0,-3.0v7 M-2.5,-0.5L0,-3.0L2.5,-0.5"/>
  </g>
  <g id="arrowLeft" transform="rotate(270) translate(-36 17)">
    <use xlink:href="#rim"/>
    <path pointer-events="none" fill="none" stroke="white" stroke-width="1.5" d="M0,-3.0v7 M-2.5,-0.5L0,-3.0L2.5,-0.5"/>
  </g>
  <g id="resetDef">
    <use xlink:href="#rim2" fill="#404040"><set attributeName="fill" to="#808080" begin="reset.mouseover" end="reset.mouseout"/></use>
  </g>
</defs>
<script type="application/ecmascript">
var viewWidth = 160;
var viewHeight = 804;
var sectionId = 'dynsection-1';
</script>
<script type="application/ecmascript" xlink:href="svg.min.js"/>
<svg id="graph" class="graph">
<g id="viewport">
<title>SIEForm</title>
<!-- Node1 -->
<g id="Node000001" class="node">
<title>Node1</title>
<g id="a_Node000001"><a xlink:title="Abstract base class for SIE formulations.">
<polygon fill="#999999" stroke="none" points="151.5,-154.75 0,-154.75 0,0 151.5,0 151.5,-154.75"/>
<text xml:space="preserve" text-anchor="start" x="55.88" y="-141.25" font-family="Helvetica,sans-Serif" font-size="10.00">SIEForm</text>
<text xml:space="preserve" text-anchor="start" x="4" y="-124.5" font-family="Helvetica,sans-Serif" font-size="10.00">#</text>
<text xml:space="preserve" text-anchor="start" x="16.25" y="-124.5" font-family="Helvetica,sans-Serif" font-size="10.00">rwgFuns</text>
<text xml:space="preserve" text-anchor="start" x="4" y="-107.75" font-family="Helvetica,sans-Serif" font-size="10.00">#</text>
<text xml:space="preserve" text-anchor="start" x="16.25" y="-107.75" font-family="Helvetica,sans-Serif" font-size="10.00">incFields</text>
<text xml:space="preserve" text-anchor="start" x="4" y="-91" font-family="Helvetica,sans-Serif" font-size="10.00">#</text>
<text xml:space="preserve" text-anchor="start" x="16.25" y="-91" font-family="Helvetica,sans-Serif" font-size="10.00">omega</text>
<text xml:space="preserve" text-anchor="start" x="4" y="-74.25" font-family="Helvetica,sans-Serif" font-size="10.00">+</text>
<text xml:space="preserve" text-anchor="start" x="16.25" y="-74.25" font-family="Helvetica,sans-Serif" font-size="10.00">SIEForm()</text>
<text xml:space="preserve" text-anchor="start" x="4" y="-57.5" font-family="Helvetica,sans-Serif" font-size="10.00">+</text>
<text xml:space="preserve" text-anchor="start" x="16.25" y="-57.5" font-family="Helvetica,sans-Serif" font-size="10.00">~SIEForm()</text>
<text xml:space="preserve" text-anchor="start" x="4" y="-40.75" font-family="Helvetica,sans-Serif" font-size="10.00">+</text>
<text xml:space="preserve" text-anchor="start" x="16.25" y="-40.75" font-family="Helvetica,sans-Serif" font-size="10.00">FillLSEMatrix()</text>
<text xml:space="preserve" text-anchor="start" x="4" y="-24" font-family="Helvetica,sans-Serif" font-size="10.00">+</text>
<text xml:space="preserve" text-anchor="start" x="16.25" y="-24" font-family="Helvetica,sans-Serif" font-size="10.00">FillLSEMatrixAndGradient()</text>
<text xml:space="preserve" text-anchor="start" x="4" y="-7.25" font-family="Helvetica,sans-Serif" font-size="10.00">+</text>
<text xml:space="preserve" text-anchor="start" x="16.25" y="-7.25" font-family="Helvetica,sans-Serif" font-size="10.00">FillLSEVector()</text>
<polygon fill="#666666" stroke="#666666" points="0,-136 0,-136 151.5,-136 151.5,-136 0,-136"/>
<polygon fill="#666666" stroke="#666666" points="0,-85.75 0,-85.75 14.25,-85.75 14.25,-85.75 0,-85.75"/>
<polygon fill="#666666" stroke="#666666" points="14.25,-85.75 14.25,-85.75 151.5,-85.75 151.5,-85.75 14.25,-85.75"/>
<polygon fill="none" stroke="#666666" points="0,0 0,-154.75 151.5,-154.75 151.5,0 0,0"/>
</a>
</g>
</g>
<!-- Node2 -->
<g id="Node000002" class="node">
<title>Node2</title>
<g id="a_Node000002"><a xlink:href="classGreenF.html" target="_top" xlink:title="Abstract base for Green&#39;s function kernels.">
<polygon fill="white" stroke="none" points="139.5,-559.25 12,-559.25 12,-203.5 139.5,-203.5 139.5,-559.25"/>
<text xml:space="preserve" text-anchor="start" x="58.12" y="-545.75" font-family="Helvetica,sans-Serif" font-size="10.00">GreenF</text>
<text xml:space="preserve" text-anchor="start" x="16" y="-529" font-family="Helvetica,sans-Serif" font-size="10.00">#</text>
<text xml:space="preserve" text-anchor="start" x="28.25" y="-529" font-family="Helvetica,sans-Serif" font-size="10.00">wavelength</text>
<text xml:space="preserve" text-anchor="start" x="16" y="-512.25" font-family="Helvetica,sans-Serif" font-size="10.00">#</text>
<text xml:space="preserve" text-anchor="start" x="28.25" y="-512.25" font-family="Helvetica,sans-Serif" font-size="10.00">k_B</text>
<text xml:space="preserve" text-anchor="start" x="16" y="-495.5" font-family="Helvetica,sans-Serif" font-size="10.00">#</text>
<text xml:space="preserve" text-anchor="start" x="28.25" y="-495.5" font-family="Helvetica,sans-Serif" font-size="10.00">k_L</text>
<text xml:space="preserve" text-anchor="start" x="16" y="-478.75" font-family="Helvetica,sans-Serif" font-size="10.00">#</text>
<text xml:space="preserve" text-anchor="start" x="28.25" y="-478.75" font-family="Helvetica,sans-Serif" font-size="10.00">thereIsNoLookupTable</text>
<text xml:space="preserve" text-anchor="start" x="16" y="-462" font-family="Helvetica,sans-Serif" font-size="10.00">#</text>
<text xml:space="preserve" text-anchor="start" x="28.25" y="-462" font-family="Helvetica,sans-Serif" font-size="10.00">NeedsAccurate</text>
<text xml:space="preserve" text-anchor="start" x="16" y="-445.25" font-family="Helvetica,sans-Serif" font-size="10.00">#</text>
<text xml:space="preserve" text-anchor="start" x="28.25" y="-445.25" font-family="Helvetica,sans-Serif" font-size="10.00">Etm</text>
<text xml:space="preserve" text-anchor="start" x="16" y="-428.5" font-family="Helvetica,sans-Serif" font-size="10.00">+</text>
<text xml:space="preserve" text-anchor="start" x="28.25" y="-428.5" font-family="Helvetica,sans-Serif" font-size="10.00">GreenF()</text>
<text xml:space="preserve" text-anchor="start" x="16" y="-411.75" font-family="Helvetica,sans-Serif" font-size="10.00">+</text>
<text xml:space="preserve" text-anchor="start" x="28.25" y="-411.75" font-family="Helvetica,sans-Serif" font-size="10.00">GreenF()</text>
<text xml:space="preserve" text-anchor="start" x="16" y="-395" font-family="Helvetica,sans-Serif" font-size="10.00">+</text>
<text xml:space="preserve" text-anchor="start" x="28.25" y="-395" font-family="Helvetica,sans-Serif" font-size="10.00">GreenF()</text>
<text xml:space="preserve" text-anchor="start" x="16" y="-378.25" font-family="Helvetica,sans-Serif" font-size="10.00">+</text>
<text xml:space="preserve" text-anchor="start" x="28.25" y="-378.25" font-family="Helvetica,sans-Serif" font-size="10.00">GreenF()</text>
<text xml:space="preserve" text-anchor="start" x="16" y="-361.5" font-family="Helvetica,sans-Serif" font-size="10.00">+</text>
<text xml:space="preserve" text-anchor="start" x="28.25" y="-361.5" font-family="Helvetica,sans-Serif" font-size="10.00">~GreenF()</text>
<text xml:space="preserve" text-anchor="start" x="16" y="-344.75" font-family="Helvetica,sans-Serif" font-size="10.00">+</text>
<text xml:space="preserve" text-anchor="start" x="28.25" y="-344.75" font-family="Helvetica,sans-Serif" font-size="10.00">Evaluate()</text>
<text xml:space="preserve" text-anchor="start" x="16" y="-328" font-family="Helvetica,sans-Serif" font-size="10.00">+</text>
<text xml:space="preserve" text-anchor="start" x="28.25" y="-328" font-family="Helvetica,sans-Serif" font-size="10.00">Gradient()</text>
<text xml:space="preserve" text-anchor="start" x="16" y="-311.25" font-family="Helvetica,sans-Serif" font-size="10.00">+</text>
<text xml:space="preserve" text-anchor="start" x="28.25" y="-311.25" font-family="Helvetica,sans-Serif" font-size="10.00">EvaluateDyadic()</text>
<text xml:space="preserve" text-anchor="start" x="16" y="-294.5" font-family="Helvetica,sans-Serif" font-size="10.00">+</text>
<text xml:space="preserve" text-anchor="start" x="28.25" y="-294.5" font-family="Helvetica,sans-Serif" font-size="10.00">IntegrateD()</text>
<text xml:space="preserve" text-anchor="start" x="16" y="-277.75" font-family="Helvetica,sans-Serif" font-size="10.00">+</text>
<text xml:space="preserve" text-anchor="start" x="28.25" y="-277.75" font-family="Helvetica,sans-Serif" font-size="10.00">IntegrateK()</text>
<text xml:space="preserve" text-anchor="start" x="28.25" y="-261" font-family="Helvetica,sans-Serif" font-size="10.00">and 12 more...</text>
<text xml:space="preserve" text-anchor="start" x="16" y="-244.25" font-family="Helvetica,sans-Serif" font-size="10.00">+</text>
<text xml:space="preserve" text-anchor="start" x="28.25" y="-244.25" font-family="Helvetica,sans-Serif" font-size="10.00">EnableAccurate()</text>
<text xml:space="preserve" text-anchor="start" x="16" y="-227.5" font-family="Helvetica,sans-Serif" font-size="10.00">+</text>
<text xml:space="preserve" text-anchor="start" x="28.25" y="-227.5" font-family="Helvetica,sans-Serif" font-size="10.00">RequiresAccurate()</text>
<text xml:space="preserve" text-anchor="start" x="16" y="-210.75" font-family="Helvetica,sans-Serif" font-size="10.00">+</text>
<text xml:space="preserve" text-anchor="start" x="28.25" y="-210.75" font-family="Helvetica,sans-Serif" font-size="10.00">AssignEtm()</text>
<polygon fill="#666666" stroke="#666666" points="12,-540.5 12,-540.5 139.5,-540.5 139.5,-540.5 12,-540.5"/>
<polygon fill="#666666" stroke="#666666" points="12,-440 12,-440 26.25,-440 26.25,-440 12,-440"/>
<polygon fill="#666666" stroke="#666666" points="26.25,-440 26.25,-440 139.5,-440 139.5,-440 26.25,-440"/>
<polygon fill="none" stroke="#666666" points="12,-203.5 12,-559.25 139.5,-559.25 139.5,-203.5 12,-203.5"/>
</a>
</g>
</g>
<!-- Node2&#45;&gt;Node1 -->
<g id="edge1_Node000001_Node000002" class="edge">
<title>Node2&#45;&gt;Node1</title>
<g id="a_edge1_Node000001_Node000002"><a xlink:title=" ">
<path fill="none" stroke="#63b8ff" d="M75.75,-203.83C75.75,-191.35 75.75,-179.12 75.75,-167.48"/>
<polygon fill="none" stroke="#63b8ff" points="75.75,-167.51 71.75,-161.51 75.75,-155.51 79.75,-161.51 75.75,-167.51"/>
</a>
</g>
<text xml:space="preserve" text-anchor="middle" x="97.88" y="-176" font-family="Helvetica,sans-Serif" font-size="10.00" fill="grey"> #grnFun</text>
</g>
<!-- Node3 -->
<g id="Node000003" class="node">
<title>Node3</title>
<g id="a_Node000003"><a xlink:href="classLookupTableBin.html" target="_top" xlink:title="Represents a 2D lookup table for complex functions (binary format).">
<polygon fill="white" stroke="none" points="127.5,-796.25 24,-796.25 24,-608 127.5,-608 127.5,-796.25"/>
<text xml:space="preserve" text-anchor="start" x="37.88" y="-782.75" font-family="Helvetica,sans-Serif" font-size="10.00">LookupTableBin</text>
<text xml:space="preserve" text-anchor="start" x="28" y="-766" font-family="Helvetica,sans-Serif" font-size="10.00">+</text>
<text xml:space="preserve" text-anchor="start" x="40.25" y="-766" font-family="Helvetica,sans-Serif" font-size="10.00">arg</text>
<text xml:space="preserve" text-anchor="start" x="28" y="-749.25" font-family="Helvetica,sans-Serif" font-size="10.00">+</text>
<text xml:space="preserve" text-anchor="start" x="40.25" y="-749.25" font-family="Helvetica,sans-Serif" font-size="10.00">fun</text>
<text xml:space="preserve" text-anchor="start" x="28" y="-732.5" font-family="Helvetica,sans-Serif" font-size="10.00">+</text>
<text xml:space="preserve" text-anchor="start" x="40.25" y="-732.5" font-family="Helvetica,sans-Serif" font-size="10.00">sizeRe</text>
<text xml:space="preserve" text-anchor="start" x="28" y="-715.75" font-family="Helvetica,sans-Serif" font-size="10.00">+</text>
<text xml:space="preserve" text-anchor="start" x="40.25" y="-715.75" font-family="Helvetica,sans-Serif" font-size="10.00">sizeIm</text>
<text xml:space="preserve" text-anchor="start" x="28" y="-699" font-family="Helvetica,sans-Serif" font-size="10.00">+</text>
<text xml:space="preserve" text-anchor="start" x="40.25" y="-699" font-family="Helvetica,sans-Serif" font-size="10.00">maxRe</text>
<text xml:space="preserve" text-anchor="start" x="28" y="-682.25" font-family="Helvetica,sans-Serif" font-size="10.00">+</text>
<text xml:space="preserve" text-anchor="start" x="40.25" y="-682.25" font-family="Helvetica,sans-Serif" font-size="10.00">maxIm</text>
<text xml:space="preserve" text-anchor="start" x="28" y="-665.5" font-family="Helvetica,sans-Serif" font-size="10.00">+</text>
<text xml:space="preserve" text-anchor="start" x="40.25" y="-665.5" font-family="Helvetica,sans-Serif" font-size="10.00">incRe</text>
<text xml:space="preserve" text-anchor="start" x="28" y="-648.75" font-family="Helvetica,sans-Serif" font-size="10.00">+</text>
<text xml:space="preserve" text-anchor="start" x="40.25" y="-648.75" font-family="Helvetica,sans-Serif" font-size="10.00">incIm</text>
<text xml:space="preserve" text-anchor="start" x="28" y="-632" font-family="Helvetica,sans-Serif" font-size="10.00">+</text>
<text xml:space="preserve" text-anchor="start" x="40.25" y="-632" font-family="Helvetica,sans-Serif" font-size="10.00">LookupTableBin()</text>
<text xml:space="preserve" text-anchor="start" x="28" y="-615.25" font-family="Helvetica,sans-Serif" font-size="10.00">+</text>
<text xml:space="preserve" text-anchor="start" x="40.25" y="-615.25" font-family="Helvetica,sans-Serif" font-size="10.00">LookupTableBin()</text>
<polygon fill="#666666" stroke="#666666" points="24,-777.5 24,-777.5 127.5,-777.5 127.5,-777.5 24,-777.5"/>
<polygon fill="#666666" stroke="#666666" points="24,-643.5 24,-643.5 38.25,-643.5 38.25,-643.5 24,-643.5"/>
<polygon fill="#666666" stroke="#666666" points="38.25,-643.5 38.25,-643.5 127.5,-643.5 127.5,-643.5 38.25,-643.5"/>
<polygon fill="none" stroke="#666666" points="24,-608 24,-796.25 127.5,-796.25 127.5,-608 24,-608"/>
</a>
</g>
</g>
<!-- Node3&#45;&gt;Node2 -->
<g id="edge2_Node000002_Node000003" class="edge">
<title>Node3&#45;&gt;Node2</title>
<g id="a_edge2_Node000002_Node000003"><a xlink:title=" ">
<path fill="none" stroke="#63b8ff" d="M75.75,-608.07C75.75,-596.55 75.75,-584.46 75.75,-572.12"/>
<polygon fill="none" stroke="#63b8ff" points="75.75,-572.09 71.75,-566.09 75.75,-560.09 79.75,-566.09 75.75,-572.09"/>
</a>
</g>
<text xml:space="preserve" text-anchor="middle" x="83.25" y="-580.5" font-family="Helvetica,sans-Serif" font-size="10.00" fill="grey"> #t</text>
</g>
</g>
</svg>

<g id="navigator" transform="translate(0 0)" fill="#404254">
  <rect fill="#f2f5e9" fill-opacity="0.5" stroke="#606060" stroke-width=".5" x="0" y="0" width="60" height="60"/>
  <use id="zoomplus" xlink:href="#zoomPlus" x="17" y="9" onmousedown="handleZoom(evt,'in')"/>
  <use id="zoomminus" xlink:href="#zoomMin" x="42" y="9" onmousedown="handleZoom(evt,'out')"/>
  <use id="reset" xlink:href="#resetDef" x="30" y="36" onmousedown="handleReset()"/>
   <use id="arrowup" xlink:href="#arrowUp" x="0" y="0" onmousedown="handlePan(0,-1)"/>
  <use id="arrowright" xlink:href="#arrowRight" x="0" y="0" onmousedown="handlePan(1,0)"/>
  <use id="arrowdown" xlink:href="#arrowDown" x="0" y="0" onmousedown="handlePan(0,1)"/>
  <use id="arrowleft" xlink:href="#arrowLeft" x="0" y="0" onmousedown="handlePan(-1,0)"/>
</g>
<svg viewBox="0 0 15 15" width="100%" height="30px" preserveAspectRatio="xMaxYMin meet">
 <g id="arrow_out" transform="scale(0.3 0.3)">
  <a xlink:href="classSIEForm__coll__graph_org.svg" target="_base">
   <rect id="button" ry="5" rx="5" y="6" x="6" height="38" width="38"
        fill="#f2f5e9" fill-opacity="0.5" stroke="#606060" stroke-width="1.0"/>
   <path id="arrow"
     d="M 11.500037,31.436501 C 11.940474,20.09759 22.043105,11.32322 32.158766,21.979434 L 37.068811,17.246167 C 37.068811,17.246167 37.088388,32 37.088388,32 L 22.160133,31.978069 C 22.160133,31.978069 26.997745,27.140456 26.997745,27.140456 C 18.528582,18.264221 13.291696,25.230495 11.500037,31.436501 z"
     style="fill:#404040;"/>
  </a>
 </g>
</svg>

<style type='text/css'>
<![CDATA[
[data-mouse-over-selected='false'] { opacity: 0.7; }
[data-mouse-over-selected='true']  { opacity: 1.0; }
]]>
</style>
<script type="application/ecmascript"><![CDATA[
document.addEventListener('DOMContentLoaded', (event) => {
  highlightEdges();
  highlightAdjacentNodes();
});
]]></script>
</svg>
