<?xml version="1.0" encoding="UTF-8" standalone="no"?>
<!DOCTYPE svg PUBLIC "-//W3C//DTD SVG 1.1//EN"
 "http://www.w3.org/Graphics/SVG/1.1/DTD/svg11.dtd">
<!-- Generated by graphviz version 13.1.2 (20250809.0930)
 -->
<!-- Title: GreenFHom3DPer2D::Init Pages: 1 -->
<svg width="583pt" height="184pt"
 viewBox="0.00 0.00 583.00 184.00" xmlns="http://www.w3.org/2000/svg" xmlns:xlink="http://www.w3.org/1999/xlink">
<g id="graph0" class="graph" transform="scale(1 1) rotate(0) translate(4 180.12)">
<title>GreenFHom3DPer2D::Init</title>
<!-- Node1 -->
<g id="Node000001" class="node">
<title>Node1</title>
<g id="a_Node000001"><a xlink:title="Common initialization: set lookup flags, build reciprocal lattice, project k, choose Ewald parameter.">
<polygon fill="#999999" stroke="#666666" points="575.25,-117.75 436.25,-117.75 436.25,-97 575.25,-97 575.25,-117.75"/>
<text xml:space="preserve" text-anchor="middle" x="505.75" y="-104.25" font-family="Helvetica,sans-Serif" font-size="10.00">GreenFHom3DPer2D::Init</text>
</a>
</g>
</g>
<!-- Node2 -->
<g id="Node000002" class="node">
<title>Node2</title>
<g id="a_Node000002"><a xlink:href="classGreenFHom3DPer2D.html#ad3b0693d618bd75c472df152d72760e7" target="_top" xlink:title="Constructor for a magnetic medium (2D periodic).">
<polygon fill="white" stroke="#666666" points="400.25,-150.12 212.5,-150.12 212.5,-116.62 400.25,-116.62 400.25,-150.12"/>
<text xml:space="preserve" text-anchor="start" x="220.5" y="-136.62" font-family="Helvetica,sans-Serif" font-size="10.00">GreenFHom3DPer2D::GreenFHom3</text>
<text xml:space="preserve" text-anchor="middle" x="306.38" y="-123.88" font-family="Helvetica,sans-Serif" font-size="10.00">DPer2D</text>
</a>
</g>
</g>
<!-- Node1&#45;&gt;Node2 -->
<g id="edge1_Node000001_Node000002" class="edge">
<title>Node1&#45;&gt;Node2</title>
<g id="a_edge1_Node000001_Node000002"><a xlink:title=" ">
<path fill="none" stroke="#63b8ff" d="M424.82,-117.9C416.82,-118.96 408.66,-120.03 400.54,-121.1"/>
<polygon fill="#63b8ff" stroke="#63b8ff" points="425.04,-121.41 434.49,-116.63 424.12,-114.47 425.04,-121.41"/>
</a>
</g>
</g>
<!-- Node3 -->
<g id="Node000003" class="node">
<title>Node3</title>
<g id="a_Node000003"><a xlink:href="classGreenFHom3DPer2D.html#a6e7bfc8640c70e6dfaa9f8e14cb916ea" target="_top" xlink:title="Constructor for a non&#45;magnetic medium (2D periodic).">
<polygon fill="white" stroke="#666666" points="400.25,-98.12 212.5,-98.12 212.5,-64.62 400.25,-64.62 400.25,-98.12"/>
<text xml:space="preserve" text-anchor="start" x="220.5" y="-84.62" font-family="Helvetica,sans-Serif" font-size="10.00">GreenFHom3DPer2D::GreenFHom3</text>
<text xml:space="preserve" text-anchor="middle" x="306.38" y="-71.88" font-family="Helvetica,sans-Serif" font-size="10.00">DPer2D</text>
</a>
</g>
</g>
<!-- Node1&#45;&gt;Node3 -->
<g id="edge2_Node000001_Node000003" class="edge">
<title>Node1&#45;&gt;Node3</title>
<g id="a_edge2_Node000001_Node000003"><a xlink:title=" ">
<path fill="none" stroke="#63b8ff" d="M424.82,-96.85C416.82,-95.79 408.66,-94.72 400.54,-93.65"/>
<polygon fill="#63b8ff" stroke="#63b8ff" points="424.12,-100.28 434.49,-98.12 425.04,-93.34 424.12,-100.28"/>
</a>
</g>
</g>
<!-- Node4 -->
<g id="Node000004" class="node">
<title>Node4</title>
<g id="a_Node000004"><a xlink:href="classGreenFHom3DPer2D.html#a233c2185952220bd16acae2142f05cc1" target="_top" xlink:title="term at an observation point.">
<polygon fill="white" stroke="#666666" points="172,-176.12 4.5,-176.12 4.5,-142.62 172,-142.62 172,-176.12"/>
<text xml:space="preserve" text-anchor="start" x="12.5" y="-162.62" font-family="Helvetica,sans-Serif" font-size="10.00">GreenFHom3DPer2D::Integrate</text>
<text xml:space="preserve" text-anchor="middle" x="88.25" y="-149.88" font-family="Helvetica,sans-Serif" font-size="10.00">Delta</text>
</a>
</g>
</g>
<!-- Node3&#45;&gt;Node4 -->
<g id="edge3_Node000003_Node000004" class="edge">
<title>Node3&#45;&gt;Node4</title>
<g id="a_edge3_Node000003_Node000004"><a xlink:title=" ">
<path fill="none" stroke="#63b8ff" d="M223.33,-102.59C219.63,-104.09 216,-105.69 212.5,-107.38 194.72,-115.95 194.21,-124.66 176.5,-133.38 169.84,-136.66 162.68,-139.61 155.43,-142.24"/>
<polygon fill="#63b8ff" stroke="#63b8ff" points="224.4,-105.93 232.52,-99.11 221.93,-99.38 224.4,-105.93"/>
</a>
</g>
</g>
<!-- Node5 -->
<g id="Node000005" class="node">
<title>Node5</title>
<g id="a_Node000005"><a xlink:href="classGreenFHom3DPer2D.html#aadb534ef4509422e6f3e78a0e3999758" target="_top" xlink:title="term at an observation point.">
<polygon fill="white" stroke="#666666" points="172,-124.12 4.5,-124.12 4.5,-90.62 172,-90.62 172,-124.12"/>
<text xml:space="preserve" text-anchor="start" x="12.5" y="-110.62" font-family="Helvetica,sans-Serif" font-size="10.00">GreenFHom3DPer2D::Integrate</text>
<text xml:space="preserve" text-anchor="middle" x="88.25" y="-97.88" font-family="Helvetica,sans-Serif" font-size="10.00">Kappa</text>
</a>
</g>
</g>
<!-- Node3&#45;&gt;Node5 -->
<g id="edge4_Node000003_Node000005" class="edge">
<title>Node3&#45;&gt;Node5</title>
<g id="a_edge4_Node000003_Node000005"><a xlink:title=" ">
<path fill="none" stroke="#63b8ff" d="M200.91,-93.94C191.31,-95.1 181.67,-96.26 172.3,-97.38"/>
<polygon fill="#63b8ff" stroke="#63b8ff" points="201.14,-97.44 210.65,-92.77 200.3,-90.49 201.14,-97.44"/>
</a>
</g>
</g>
<!-- Node6 -->
<g id="Node000006" class="node">
<title>Node6</title>
<g id="a_Node000006"><a xlink:href="classGreenFHom3DPer2D.html#a84a8c855a27c895ff24f6771037284a5" target="_top" xlink:title="Compute &#160;for all RWGs on a source triangle.">
<polygon fill="white" stroke="#666666" points="169.38,-72.12 7.12,-72.12 7.12,-38.62 169.38,-38.62 169.38,-72.12"/>
<text xml:space="preserve" text-anchor="start" x="15.12" y="-58.62" font-family="Helvetica,sans-Serif" font-size="10.00">GreenFHom3DPer2D::SameTri</text>
<text xml:space="preserve" text-anchor="middle" x="88.25" y="-45.88" font-family="Helvetica,sans-Serif" font-size="10.00">DeltaKappa</text>
</a>
</g>
</g>
<!-- Node3&#45;&gt;Node6 -->
<g id="edge5_Node000003_Node000006" class="edge">
<title>Node3&#45;&gt;Node6</title>
<g id="a_edge5_Node000003_Node000006"><a xlink:title=" ">
<path fill="none" stroke="#63b8ff" d="M200.81,-68.8C190.32,-67.53 179.79,-66.27 169.61,-65.04"/>
<polygon fill="#63b8ff" stroke="#63b8ff" points="200.3,-72.26 210.65,-69.98 201.14,-65.31 200.3,-72.26"/>
</a>
</g>
</g>
<!-- Node7 -->
<g id="Node000007" class="node">
<title>Node7</title>
<g id="a_Node000007"><a xlink:href="classGreenFHom3DPer2D.html#a1dc9dd84c93ee10b2fb4b1866103d957" target="_top" xlink:title="Compute &#160;and &#160;for all RWG pairs on two triangles.">
<polygon fill="white" stroke="#666666" points="176.5,-20.75 0,-20.75 0,0 176.5,0 176.5,-20.75"/>
<text xml:space="preserve" text-anchor="middle" x="88.25" y="-7.25" font-family="Helvetica,sans-Serif" font-size="10.00">GreenFHom3DPer2D::SameTriDK</text>
</a>
</g>
</g>
<!-- Node3&#45;&gt;Node7 -->
<g id="edge6_Node000003_Node000007" class="edge">
<title>Node3&#45;&gt;Node7</title>
<g id="a_edge6_Node000003_Node000007"><a xlink:title=" ">
<path fill="none" stroke="#63b8ff" d="M257.08,-59.63C233.18,-49.45 203.69,-37.76 176.5,-29.38 166.57,-26.32 155.87,-23.56 145.47,-21.15"/>
<polygon fill="#63b8ff" stroke="#63b8ff" points="255.68,-62.84 266.25,-63.58 258.45,-56.41 255.68,-62.84"/>
</a>
</g>
</g>
</g>
</svg>
