<?xml version="1.0" encoding="UTF-8" standalone="no"?>
<!DOCTYPE svg PUBLIC "-//W3C//DTD SVG 1.1//EN"
 "http://www.w3.org/Graphics/SVG/1.1/DTD/svg11.dtd">
<!-- Generated by graphviz version 13.1.2 (20250809.0930)
 -->
<!-- Title: Bsp3D::Branch Pages: 1 -->
<svg width="479pt" height="87pt"
 viewBox="0.00 0.00 479.00 87.00" xmlns="http://www.w3.org/2000/svg" xmlns:xlink="http://www.w3.org/1999/xlink">
<g id="graph0" class="graph" transform="scale(1 1) rotate(0) translate(4 82.75)">
<title>Bsp3D::Branch</title>
<!-- Node1 -->
<g id="Node000001" class="node">
<title>Node1</title>
<g id="a_Node000001"><a xlink:title="Recursively branch on the current splitter and distribute elements.">
<polygon fill="#999999" stroke="#666666" points="87.25,-58.75 0,-58.75 0,-38 87.25,-38 87.25,-58.75"/>
<text xml:space="preserve" text-anchor="middle" x="43.62" y="-45.25" font-family="Helvetica,sans-Serif" font-size="10.00">Bsp3D::Branch</text>
</a>
</g>
</g>
<!-- Node2 -->
<g id="Node000002" class="node">
<title>Node2</title>
<g id="a_Node000002"><a xlink:href="classBsp3D.html#a6780d5d9e7994fb46159aae82c98a229" target="_top" xlink:title="Construct an empty node (non&#45;bud by default).">
<polygon fill="white" stroke="#666666" points="213.88,-78.75 128.88,-78.75 128.88,-58 213.88,-58 213.88,-78.75"/>
<text xml:space="preserve" text-anchor="middle" x="171.38" y="-65.25" font-family="Helvetica,sans-Serif" font-size="10.00">Bsp3D::Bsp3D</text>
</a>
</g>
</g>
<!-- Node1&#45;&gt;Node2 -->
<g id="edge1_Node000001_Node000002" class="edge">
<title>Node1&#45;&gt;Node2</title>
<g id="a_edge1_Node000001_Node000002"><a xlink:title=" ">
<path fill="none" stroke="#63b8ff" d="M87.55,-55.2C97.16,-56.73 107.47,-58.37 117.44,-59.96"/>
<polygon fill="#63b8ff" stroke="#63b8ff" points="116.57,-63.36 127,-61.48 117.67,-56.45 116.57,-63.36"/>
</a>
</g>
</g>
<!-- Node3 -->
<g id="Node000003" class="node">
<title>Node3</title>
<g id="a_Node000003"><a xlink:href="classBsp3D.html#a53fed4500360085faceb956c49913117" target="_top" xlink:title="Clip a polygon against the splitter, dispatching fragments to children.">
<polygon fill="white" stroke="#666666" points="219.5,-39.75 123.25,-39.75 123.25,-19 219.5,-19 219.5,-39.75"/>
<text xml:space="preserve" text-anchor="middle" x="171.38" y="-26.25" font-family="Helvetica,sans-Serif" font-size="10.00">Bsp3D::SplitPoly</text>
</a>
</g>
</g>
<!-- Node1&#45;&gt;Node3 -->
<g id="edge2_Node000001_Node000003" class="edge">
<title>Node1&#45;&gt;Node3</title>
<g id="a_edge2_Node000001_Node000003"><a xlink:title=" ">
<path fill="none" stroke="#63b8ff" d="M87.55,-41.89C95.29,-40.72 103.47,-39.48 111.57,-38.26"/>
<polygon fill="#63b8ff" stroke="#63b8ff" points="112.04,-41.73 121.4,-36.77 110.99,-34.81 112.04,-41.73"/>
</a>
</g>
</g>
<!-- Node4 -->
<g id="Node000004" class="node">
<title>Node4</title>
<g id="a_Node000004"><a xlink:href="classBsp3D.html#ab86d60e3ac1a432328b7b3115ba76d1b" target="_top" xlink:title="Signed distance from a point to the splitter plane.">
<polygon fill="white" stroke="#666666" points="470.5,-39.75 381,-39.75 381,-19 470.5,-19 470.5,-39.75"/>
<text xml:space="preserve" text-anchor="middle" x="425.75" y="-26.25" font-family="Helvetica,sans-Serif" font-size="10.00">Bsp3D::LocDist</text>
</a>
</g>
</g>
<!-- Node3&#45;&gt;Node4 -->
<g id="edge3_Node000003_Node000004" class="edge">
<title>Node3&#45;&gt;Node4</title>
<g id="a_edge3_Node000003_Node000004"><a xlink:title=" ">
<path fill="none" stroke="#63b8ff" d="M219.84,-29.38C262.4,-29.38 324.85,-29.38 369.61,-29.38"/>
<polygon fill="#63b8ff" stroke="#63b8ff" points="369.36,-32.88 379.36,-29.38 369.36,-25.88 369.36,-32.88"/>
</a>
</g>
</g>
<!-- Node5 -->
<g id="Node000005" class="node">
<title>Node5</title>
<g id="a_Node000005"><a xlink:href="classBsp3D.html#aeef40776817ce8cec917de1fb2e84f7a" target="_top" xlink:title="Classify a point relative to the splitter plane.">
<polygon fill="white" stroke="#666666" points="345,-20.75 255.5,-20.75 255.5,0 345,0 345,-20.75"/>
<text xml:space="preserve" text-anchor="middle" x="300.25" y="-7.25" font-family="Helvetica,sans-Serif" font-size="10.00">Bsp3D::LocTest</text>
</a>
</g>
</g>
<!-- Node3&#45;&gt;Node5 -->
<g id="edge4_Node000003_Node000005" class="edge">
<title>Node3&#45;&gt;Node5</title>
<g id="a_edge4_Node000003_Node000005"><a xlink:title=" ">
<path fill="none" stroke="#63b8ff" d="M219.98,-22.25C227.82,-21.07 236,-19.85 244.01,-18.65"/>
<polygon fill="#63b8ff" stroke="#63b8ff" points="244.28,-22.15 253.65,-17.2 243.25,-15.22 244.28,-22.15"/>
</a>
</g>
</g>
<!-- Node5&#45;&gt;Node4 -->
<g id="edge5_Node000005_Node000004" class="edge">
<title>Node5&#45;&gt;Node4</title>
<g id="a_edge5_Node000005_Node000004"><a xlink:title=" ">
<path fill="none" stroke="#63b8ff" d="M345.49,-17.18C353.3,-18.38 361.51,-19.65 369.58,-20.89"/>
<polygon fill="#63b8ff" stroke="#63b8ff" points="368.91,-24.33 379.33,-22.39 369.97,-17.41 368.91,-24.33"/>
</a>
</g>
</g>
</g>
</svg>
