<?xml version="1.0" encoding="UTF-8" standalone="no"?>
<!DOCTYPE svg PUBLIC "-//W3C//DTD SVG 1.1//EN"
 "http://www.w3.org/Graphics/SVG/1.1/DTD/svg11.dtd">
<!-- Generated by graphviz version 13.1.2 (20250809.0930)
 -->
<!-- Title: SingCancellation::SingCancellation Pages: 1 -->
<svg width="616pt" height="153pt"
 viewBox="0.00 0.00 616.00 153.00" xmlns="http://www.w3.org/2000/svg" xmlns:xlink="http://www.w3.org/1999/xlink">
<g id="graph0" class="graph" transform="scale(1 1) rotate(0) translate(4 148.5)">
<title>SingCancellation::SingCancellation</title>
<!-- Node1 -->
<g id="Node000001" class="node">
<title>Node1</title>
<g id="a_Node000001"><a xlink:title="Construct and immediately generate the paired quadrature for a triangle pair.">
<polygon fill="#999999" stroke="#666666" points="185.5,-75.12 0,-75.12 0,-54.38 185.5,-54.38 185.5,-75.12"/>
<text xml:space="preserve" text-anchor="middle" x="92.75" y="-61.62" font-family="Helvetica,sans-Serif" font-size="10.00">SingCancellation::SingCancellation</text>
</a>
</g>
</g>
<!-- Node2 -->
<g id="Node000002" class="node">
<title>Node2</title>
<g id="a_Node000002"><a xlink:href="classSingCancellation.html#aa72d2a4d4365846ffcbee49b07a4baa7" target="_top" xlink:title="Build paired quadrature for triangles sharing a common edge.">
<polygon fill="white" stroke="#666666" points="392,-75.12 221.5,-75.12 221.5,-54.38 392,-54.38 392,-75.12"/>
<text xml:space="preserve" text-anchor="middle" x="306.75" y="-61.62" font-family="Helvetica,sans-Serif" font-size="10.00">SingCancellation::commonEdge</text>
</a>
</g>
</g>
<!-- Node1&#45;&gt;Node2 -->
<g id="edge1_Node000001_Node000002" class="edge">
<title>Node1&#45;&gt;Node2</title>
<g id="a_edge1_Node000001_Node000002"><a xlink:title=" ">
<path fill="none" stroke="#63b8ff" d="M185.81,-64.75C193.79,-64.75 201.87,-64.75 209.87,-64.75"/>
<polygon fill="#63b8ff" stroke="#63b8ff" points="209.6,-68.25 219.6,-64.75 209.6,-61.25 209.6,-68.25"/>
</a>
</g>
</g>
<!-- Node6 -->
<g id="Node000006" class="node">
<title>Node6</title>
<g id="a_Node000006"><a xlink:href="classSingCancellation.html#a7d4e2fb258f1a7a5923c823800863983" target="_top" xlink:title="Build paired quadrature for identical triangles (common facet).">
<polygon fill="white" stroke="#666666" points="380,-36.5 233.5,-36.5 233.5,-3 380,-3 380,-36.5"/>
<text xml:space="preserve" text-anchor="start" x="241.5" y="-23" font-family="Helvetica,sans-Serif" font-size="10.00">SingCancellation::common</text>
<text xml:space="preserve" text-anchor="middle" x="306.75" y="-10.25" font-family="Helvetica,sans-Serif" font-size="10.00">Facet</text>
</a>
</g>
</g>
<!-- Node1&#45;&gt;Node6 -->
<g id="edge5_Node000001_Node000006" class="edge">
<title>Node1&#45;&gt;Node6</title>
<g id="a_edge5_Node000001_Node000006"><a xlink:title=" ">
<path fill="none" stroke="#63b8ff" d="M144.8,-53.91C167.96,-49 195.95,-43.06 222.05,-37.52"/>
<polygon fill="#63b8ff" stroke="#63b8ff" points="222.57,-40.98 231.62,-35.48 221.11,-34.14 222.57,-40.98"/>
</a>
</g>
</g>
<!-- Node7 -->
<g id="Node000007" class="node">
<title>Node7</title>
<g id="a_Node000007"><a xlink:href="classSingCancellation.html#ac1258c9e1d2e1981e9ceb22477312cfd" target="_top" xlink:title="Build paired quadrature for triangles sharing a single vertex.">
<polygon fill="white" stroke="#666666" points="380,-126.5 233.5,-126.5 233.5,-93 380,-93 380,-126.5"/>
<text xml:space="preserve" text-anchor="start" x="241.5" y="-113" font-family="Helvetica,sans-Serif" font-size="10.00">SingCancellation::common</text>
<text xml:space="preserve" text-anchor="middle" x="306.75" y="-100.25" font-family="Helvetica,sans-Serif" font-size="10.00">Vertex</text>
</a>
</g>
</g>
<!-- Node1&#45;&gt;Node7 -->
<g id="edge8_Node000001_Node000007" class="edge">
<title>Node1&#45;&gt;Node7</title>
<g id="a_edge8_Node000001_Node000007"><a xlink:title=" ">
<path fill="none" stroke="#63b8ff" d="M144.8,-75.59C167.96,-80.5 195.95,-86.44 222.05,-91.98"/>
<polygon fill="#63b8ff" stroke="#63b8ff" points="221.11,-95.36 231.62,-94.02 222.57,-88.52 221.11,-95.36"/>
</a>
</g>
</g>
<!-- Node3 -->
<g id="Node000003" class="node">
<title>Node3</title>
<g id="a_Node000003"><a xlink:href="classSingCancellation.html#af51fe5685bf1d5a85afd61a50eb375fe" target="_top" xlink:title="Permutation of barycentric components induced by vertex/edge alignment.">
<polygon fill="white" stroke="#666666" points="607.5,-124.12 428,-124.12 428,-103.38 607.5,-103.38 607.5,-124.12"/>
<text xml:space="preserve" text-anchor="middle" x="517.75" y="-110.62" font-family="Helvetica,sans-Serif" font-size="10.00">SingCancellation::getPermutation</text>
</a>
</g>
</g>
<!-- Node2&#45;&gt;Node3 -->
<g id="edge2_Node000002_Node000003" class="edge">
<title>Node2&#45;&gt;Node3</title>
<g id="a_edge2_Node000002_Node000003"><a xlink:title=" ">
<path fill="none" stroke="#63b8ff" d="M358.69,-75.59C369.71,-78.12 381.27,-80.91 392,-83.75 408.17,-88.04 411.81,-90.55 428,-94.75 435.57,-96.71 443.54,-98.63 451.47,-100.44"/>
<polygon fill="#63b8ff" stroke="#63b8ff" points="450.6,-103.83 461.13,-102.6 452.13,-97 450.6,-103.83"/>
</a>
</g>
</g>
<!-- Node4 -->
<g id="Node000004" class="node">
<title>Node4</title>
<g id="a_Node000004"><a xlink:href="classSingCancellation.html#a671bbe3bcc58c21a3fa62e605fd36be8" target="_top" xlink:title="Write a single matrix column (chosen component) as a MATLAB style vector.">
<polygon fill="white" stroke="#666666" points="598.88,-33.5 436.62,-33.5 436.62,0 598.88,0 598.88,-33.5"/>
<text xml:space="preserve" text-anchor="start" x="444.62" y="-20" font-family="Helvetica,sans-Serif" font-size="10.00">SingCancellation::writeMatlab</text>
<text xml:space="preserve" text-anchor="middle" x="517.75" y="-7.25" font-family="Helvetica,sans-Serif" font-size="10.00">MatrixToTxt</text>
</a>
</g>
</g>
<!-- Node2&#45;&gt;Node4 -->
<g id="edge3_Node000002_Node000004" class="edge">
<title>Node2&#45;&gt;Node4</title>
<g id="a_edge3_Node000002_Node000004"><a xlink:title=" ">
<path fill="none" stroke="#63b8ff" d="M355.88,-53.95C367.7,-51.29 380.31,-48.43 392,-45.75 404.95,-42.78 418.66,-39.62 432.06,-36.52"/>
<polygon fill="#63b8ff" stroke="#63b8ff" points="432.79,-39.94 441.74,-34.27 431.21,-33.12 432.79,-39.94"/>
</a>
</g>
</g>
<!-- Node5 -->
<g id="Node000005" class="node">
<title>Node5</title>
<g id="a_Node000005"><a xlink:href="classSingCancellation.html#a099933b83efb63d62f2b5d1c26b6b7e8" target="_top" xlink:title="Write a real vector as a MATLAB style column vector.">
<polygon fill="white" stroke="#666666" points="598.88,-85.5 436.62,-85.5 436.62,-52 598.88,-52 598.88,-85.5"/>
<text xml:space="preserve" text-anchor="start" x="444.62" y="-72" font-family="Helvetica,sans-Serif" font-size="10.00">SingCancellation::writeMatlab</text>
<text xml:space="preserve" text-anchor="middle" x="517.75" y="-59.25" font-family="Helvetica,sans-Serif" font-size="10.00">VectorToTxt</text>
</a>
</g>
</g>
<!-- Node2&#45;&gt;Node5 -->
<g id="edge4_Node000002_Node000005" class="edge">
<title>Node2&#45;&gt;Node5</title>
<g id="a_edge4_Node000002_Node000005"><a xlink:title=" ">
<path fill="none" stroke="#63b8ff" d="M392.46,-66.37C403.21,-66.58 414.25,-66.79 425.1,-67"/>
<polygon fill="#63b8ff" stroke="#63b8ff" points="424.74,-70.49 434.81,-67.18 424.87,-63.49 424.74,-70.49"/>
</a>
</g>
</g>
<!-- Node6&#45;&gt;Node4 -->
<g id="edge6_Node000006_Node000004" class="edge">
<title>Node6&#45;&gt;Node4</title>
<g id="a_edge6_Node000006_Node000004"><a xlink:title=" ">
<path fill="none" stroke="#63b8ff" d="M380.26,-18.71C394.64,-18.5 409.9,-18.28 424.83,-18.07"/>
<polygon fill="#63b8ff" stroke="#63b8ff" points="424.69,-21.57 434.63,-17.93 424.58,-14.57 424.69,-21.57"/>
</a>
</g>
</g>
<!-- Node6&#45;&gt;Node5 -->
<g id="edge7_Node000006_Node000005" class="edge">
<title>Node6&#45;&gt;Node5</title>
<g id="a_edge7_Node000006_Node000005"><a xlink:title=" ">
<path fill="none" stroke="#63b8ff" d="M380.26,-36.75C396.99,-40.67 414.94,-44.88 432.13,-48.91"/>
<polygon fill="#63b8ff" stroke="#63b8ff" points="431.3,-52.31 441.83,-51.19 432.89,-45.49 431.3,-52.31"/>
</a>
</g>
</g>
<!-- Node7&#45;&gt;Node3 -->
<g id="edge10_Node000007_Node000003" class="edge">
<title>Node7&#45;&gt;Node3</title>
<g id="a_edge10_Node000007_Node000003"><a xlink:title=" ">
<path fill="none" stroke="#63b8ff" d="M380.26,-111.14C392,-111.36 404.33,-111.6 416.58,-111.83"/>
<polygon fill="#63b8ff" stroke="#63b8ff" points="416.21,-115.33 426.27,-112.02 416.34,-108.33 416.21,-115.33"/>
</a>
</g>
</g>
<!-- Node7&#45;&gt;Node4 -->
<g id="edge11_Node000007_Node000004" class="edge">
<title>Node7&#45;&gt;Node4</title>
<g id="a_edge11_Node000007_Node000004"><a xlink:title=" ">
<path fill="none" stroke="#63b8ff" d="M375.5,-92.57C381.27,-90 386.86,-87.08 392,-83.75 412.35,-70.57 407.55,-55.79 428,-42.75 430.14,-41.38 432.36,-40.08 434.64,-38.85"/>
<polygon fill="#63b8ff" stroke="#63b8ff" points="436.1,-42.04 443.57,-34.53 433.04,-35.74 436.1,-42.04"/>
</a>
</g>
</g>
<!-- Node7&#45;&gt;Node5 -->
<g id="edge12_Node000007_Node000005" class="edge">
<title>Node7&#45;&gt;Node5</title>
<g id="a_edge12_Node000007_Node000005"><a xlink:title=" ">
<path fill="none" stroke="#63b8ff" d="M380.26,-95.53C394.78,-92.68 410.2,-89.65 425.26,-86.7"/>
<polygon fill="#63b8ff" stroke="#63b8ff" points="425.52,-90.21 434.66,-84.85 424.18,-83.34 425.52,-90.21"/>
</a>
</g>
</g>
<!-- Node7&#45;&gt;Node7 -->
<g id="edge9_Node000007_Node000007" class="edge">
<title>Node7&#45;&gt;Node7</title>
<g id="a_edge9_Node000007_Node000007"><a xlink:title=" ">
<path fill="none" stroke="#63b8ff" d="M268.82,-126.91C262.37,-136.12 275.02,-144.5 306.75,-144.5 324.35,-144.5 336.08,-141.92 341.93,-138.05"/>
<polygon fill="#63b8ff" stroke="#63b8ff" points="345.32,-138.93 344.32,-128.38 338.53,-137.26 345.32,-138.93"/>
</a>
</g>
</g>
</g>
</svg>
