<?xml version="1.0" encoding="UTF-8" standalone="no"?>
<!DOCTYPE svg PUBLIC "-//W3C//DTD SVG 1.1//EN"
 "http://www.w3.org/Graphics/SVG/1.1/DTD/svg11.dtd">
<!-- Generated by graphviz version 13.1.2 (20250809.0930)
 -->
<!-- Title: SommerfeldIntegrator::Evaluate Pages: 1 -->
<svg width="811pt" height="414pt"
 viewBox="0.00 0.00 811.00 414.00" xmlns="http://www.w3.org/2000/svg" xmlns:xlink="http://www.w3.org/1999/xlink">
<g id="graph0" class="graph" transform="scale(1 1) rotate(0) translate(4 410.12)">
<title>SommerfeldIntegrator::Evaluate</title>
<!-- Node1 -->
<g id="Node000001" class="node">
<title>Node1</title>
<g id="a_Node000001"><a xlink:title="Computes intra&#45;layer coefficients for Green&#39;s function interpolation.">
<polygon fill="#999999" stroke="#666666" points="124,-227.5 0,-227.5 0,-194 124,-194 124,-227.5"/>
<text xml:space="preserve" text-anchor="start" x="8" y="-214" font-family="Helvetica,sans-Serif" font-size="10.00">SommerfeldIntegrator</text>
<text xml:space="preserve" text-anchor="middle" x="62" y="-201.25" font-family="Helvetica,sans-Serif" font-size="10.00">::Evaluate</text>
</a>
</g>
</g>
<!-- Node2 -->
<g id="Node000002" class="node">
<title>Node2</title>
<g id="a_Node000002"><a xlink:href="structIntegrandIntra.html#ae90efd1a4b53a5aa3a88ea39106e61af" target="_top" xlink:title="Function to create a flattened structure.">
<polygon fill="white" stroke="#666666" points="443.25,-307.12 320.75,-307.12 320.75,-286.38 443.25,-286.38 443.25,-307.12"/>
<text xml:space="preserve" text-anchor="middle" x="382" y="-293.62" font-family="Helvetica,sans-Serif" font-size="10.00">IntegrandIntra::flatten</text>
</a>
</g>
</g>
<!-- Node1&#45;&gt;Node2 -->
<g id="edge1_Node000001_Node000002" class="edge">
<title>Node1&#45;&gt;Node2</title>
<g id="a_edge1_Node000001_Node000002"><a xlink:title=" ">
<path fill="none" stroke="#63b8ff" d="M69.76,-227.64C82.43,-256.71 112.81,-315.3 160,-338.75 223.98,-370.54 309.36,-335.46 352.89,-312.84"/>
<polygon fill="#63b8ff" stroke="#63b8ff" points="354.28,-316.06 361.44,-308.25 350.97,-309.9 354.28,-316.06"/>
</a>
</g>
</g>
<!-- Node5 -->
<g id="Node000005" class="node">
<title>Node5</title>
<g id="a_Node000005"><a xlink:href="SommerfeldIntegrator_8cpp.html#a451453beb5b95daba5d1e92047643b13" target="_top" xlink:title="Performs Gauss&#45;Kronrod integration.">
<polygon fill="white" stroke="#666666" points="263.38,-406.12 180.62,-406.12 180.62,-385.38 263.38,-385.38 263.38,-406.12"/>
<text xml:space="preserve" text-anchor="middle" x="222" y="-392.62" font-family="Helvetica,sans-Serif" font-size="10.00">gaussKronrod</text>
</a>
</g>
</g>
<!-- Node1&#45;&gt;Node5 -->
<g id="edge4_Node000001_Node000005" class="edge">
<title>Node1&#45;&gt;Node5</title>
<g id="a_edge4_Node000001_Node000005"><a xlink:title=" ">
<path fill="none" stroke="#63b8ff" d="M68.99,-227.82C81.19,-260.23 111.9,-331.1 160,-371.75 163.67,-374.85 167.78,-377.58 172.1,-379.98"/>
<polygon fill="#63b8ff" stroke="#63b8ff" points="170.53,-383.11 181.05,-384.32 173.59,-376.81 170.53,-383.11"/>
</a>
</g>
</g>
<!-- Node7 -->
<g id="Node000007" class="node">
<title>Node7</title>
<g id="a_Node000007"><a xlink:href="SommerfeldIntegrator_8cpp.html#a41b5c25befab03c3dfc3200a419a49fe" target="_top" xlink:title="Extract a single column from a 2D matrix.">
<polygon fill="white" stroke="#666666" points="256.62,-330.12 187.38,-330.12 187.38,-309.38 256.62,-309.38 256.62,-330.12"/>
<text xml:space="preserve" text-anchor="middle" x="222" y="-316.62" font-family="Helvetica,sans-Serif" font-size="10.00">getColumn</text>
</a>
</g>
</g>
<!-- Node1&#45;&gt;Node7 -->
<g id="edge6_Node000001_Node000007" class="edge">
<title>Node1&#45;&gt;Node7</title>
<g id="a_edge6_Node000001_Node000007"><a xlink:title=" ">
<path fill="none" stroke="#63b8ff" d="M77.04,-227.77C94.52,-247.91 126.21,-281.18 160,-300.75 165.03,-303.66 170.56,-306.18 176.17,-308.34"/>
<polygon fill="#63b8ff" stroke="#63b8ff" points="174.92,-311.61 185.52,-311.57 177.21,-305 174.92,-311.61"/>
</a>
</g>
</g>
<!-- Node8 -->
<g id="Node000008" class="node">
<title>Node8</title>
<g id="a_Node000008"><a xlink:href="classSommerfeldIntegrator.html#a2c805013bb6091b2010bba9a1e256a4d" target="_top" xlink:title="Computes the intra&#45;layer integration function.">
<polygon fill="white" stroke="#666666" points="284,-291.5 160,-291.5 160,-258 284,-258 284,-291.5"/>
<text xml:space="preserve" text-anchor="start" x="168" y="-278" font-family="Helvetica,sans-Serif" font-size="10.00">SommerfeldIntegrator</text>
<text xml:space="preserve" text-anchor="middle" x="222" y="-265.25" font-family="Helvetica,sans-Serif" font-size="10.00">::integrationFIntra</text>
</a>
</g>
</g>
<!-- Node1&#45;&gt;Node8 -->
<g id="edge7_Node000001_Node000008" class="edge">
<title>Node1&#45;&gt;Node8</title>
<g id="a_edge7_Node000001_Node000008"><a xlink:title=" ">
<path fill="none" stroke="#63b8ff" d="M105.34,-227.9C124.65,-235.72 147.7,-245.06 168.13,-253.34"/>
<polygon fill="#63b8ff" stroke="#63b8ff" points="166.56,-256.47 177.14,-256.98 169.18,-249.99 166.56,-256.47"/>
</a>
</g>
</g>
<!-- Node9 -->
<g id="Node000009" class="node">
<title>Node9</title>
<g id="a_Node000009"><a xlink:href="classSommerfeldIntegrator.html#a0e528bbac3a3c169464f71e1c1196711" target="_top" xlink:title="Computes the intra&#45;layer Green&#39;s function integrand.">
<polygon fill="white" stroke="#666666" points="444,-268.5 320,-268.5 320,-235 444,-235 444,-268.5"/>
<text xml:space="preserve" text-anchor="start" x="328" y="-255" font-family="Helvetica,sans-Serif" font-size="10.00">SommerfeldIntegrator</text>
<text xml:space="preserve" text-anchor="middle" x="382" y="-242.25" font-family="Helvetica,sans-Serif" font-size="10.00">::IntraIntegrand</text>
</a>
</g>
</g>
<!-- Node1&#45;&gt;Node9 -->
<g id="edge15_Node000001_Node000009" class="edge">
<title>Node1&#45;&gt;Node9</title>
<g id="a_edge15_Node000001_Node000009"><a xlink:title=" ">
<path fill="none" stroke="#63b8ff" d="M124.31,-218.66C176.91,-225.44 252.79,-235.22 308.41,-242.39"/>
<polygon fill="#63b8ff" stroke="#63b8ff" points="307.74,-245.83 318.1,-243.64 308.63,-238.89 307.74,-245.83"/>
</a>
</g>
</g>
<!-- Node14 -->
<g id="Node000014" class="node">
<title>Node14</title>
<g id="a_Node000014"><a xlink:href="SommerfeldIntegrator_8cpp.html#aaf7c4d18b58bb87ad89dc34cfa1117c3" target="_top" xlink:title="Flatten 2D complex grid to column&#45;major array with axis metadata.">
<polygon fill="white" stroke="#666666" points="267.88,-202.12 176.12,-202.12 176.12,-181.38 267.88,-181.38 267.88,-202.12"/>
<text xml:space="preserve" text-anchor="middle" x="222" y="-188.62" font-family="Helvetica,sans-Serif" font-size="10.00">interpolateIntra</text>
</a>
</g>
</g>
<!-- Node1&#45;&gt;Node14 -->
<g id="edge14_Node000001_Node000014" class="edge">
<title>Node1&#45;&gt;Node14</title>
<g id="a_edge14_Node000001_Node000014"><a xlink:title=" ">
<path fill="none" stroke="#63b8ff" d="M124.09,-203.4C137.39,-201.8 151.4,-200.12 164.51,-198.54"/>
<polygon fill="#63b8ff" stroke="#63b8ff" points="164.74,-202.04 174.26,-197.37 163.91,-195.09 164.74,-202.04"/>
</a>
</g>
</g>
<!-- Node15 -->
<g id="Node000015" class="node">
<title>Node15</title>
<g id="a_Node000015"><a xlink:href="SommerfeldIntegrator_8cpp.html#a5384eb4c9aebb470421b74dae88a9a1c" target="_top" xlink:title="Retrieves the imaginary part of a selected member of the computed integrand.">
<polygon fill="white" stroke="#666666" points="272.75,-163.12 171.25,-163.12 171.25,-142.38 272.75,-142.38 272.75,-163.12"/>
<text xml:space="preserve" text-anchor="middle" x="222" y="-149.62" font-family="Helvetica,sans-Serif" font-size="10.00">pickImagMember</text>
</a>
</g>
</g>
<!-- Node1&#45;&gt;Node15 -->
<g id="edge16_Node000001_Node000015" class="edge">
<title>Node1&#45;&gt;Node15</title>
<g id="a_edge16_Node000001_Node000015"><a xlink:title=" ">
<path fill="none" stroke="#63b8ff" d="M105.3,-193.58C122.23,-186.87 141.96,-179.24 160,-172.75 165.11,-170.91 170.48,-169.05 175.83,-167.24"/>
<polygon fill="#63b8ff" stroke="#63b8ff" points="176.87,-170.59 185.25,-164.1 174.66,-163.94 176.87,-170.59"/>
</a>
</g>
</g>
<!-- Node16 -->
<g id="Node000016" class="node">
<title>Node16</title>
<g id="a_Node000016"><a xlink:href="SommerfeldIntegrator_8cpp.html#a959789f60c38ac9b62d804949d79fe03" target="_top" xlink:title="Retrieves the real part of a selected member of the computed integrand.">
<polygon fill="white" stroke="#666666" points="271.25,-124.12 172.75,-124.12 172.75,-103.38 271.25,-103.38 271.25,-124.12"/>
<text xml:space="preserve" text-anchor="middle" x="222" y="-110.62" font-family="Helvetica,sans-Serif" font-size="10.00">pickRealMember</text>
</a>
</g>
</g>
<!-- Node1&#45;&gt;Node16 -->
<g id="edge17_Node000001_Node000016" class="edge">
<title>Node1&#45;&gt;Node16</title>
<g id="a_edge17_Node000001_Node000016"><a xlink:title=" ">
<path fill="none" stroke="#63b8ff" d="M80.57,-193.59C99.01,-176.38 129.52,-150.16 160,-133.75 163.39,-131.92 166.98,-130.23 170.64,-128.66"/>
<polygon fill="#63b8ff" stroke="#63b8ff" points="171.65,-132.02 179.69,-125.12 169.1,-125.5 171.65,-132.02"/>
</a>
</g>
</g>
<!-- Node17 -->
<g id="Node000017" class="node">
<title>Node17</title>
<g id="a_Node000017"><a xlink:href="classSommerfeldIntegrator.html#abc3fad85f82353d54bba4336caf1af38" target="_top" xlink:title="Selects and processes 2D data based on the given input parameters.">
<polygon fill="white" stroke="#666666" points="284,-85.5 160,-85.5 160,-52 284,-52 284,-85.5"/>
<text xml:space="preserve" text-anchor="start" x="168" y="-72" font-family="Helvetica,sans-Serif" font-size="10.00">SommerfeldIntegrator</text>
<text xml:space="preserve" text-anchor="middle" x="222" y="-59.25" font-family="Helvetica,sans-Serif" font-size="10.00">::selectData2D</text>
</a>
</g>
</g>
<!-- Node1&#45;&gt;Node17 -->
<g id="edge18_Node000001_Node000017" class="edge">
<title>Node1&#45;&gt;Node17</title>
<g id="a_edge18_Node000001_Node000017"><a xlink:title=" ">
<path fill="none" stroke="#63b8ff" d="M73.54,-193.6C89.52,-168.82 122.06,-122.92 160,-94.75 161.36,-93.74 162.76,-92.76 164.2,-91.82"/>
<polygon fill="#63b8ff" stroke="#63b8ff" points="165.95,-94.85 172.8,-86.76 162.4,-88.81 165.95,-94.85"/>
</a>
</g>
</g>
<!-- Node18 -->
<g id="Node000018" class="node">
<title>Node18</title>
<g id="a_Node000018"><a xlink:href="classSommerfeldIntegrator.html#aab7ff3d330e81d60b341e937b4dbe2d4" target="_top" xlink:title="Dump a 2D complex matrix to text (i j Re Im) for debugging.">
<polygon fill="white" stroke="#666666" points="284,-33.5 160,-33.5 160,0 284,0 284,-33.5"/>
<text xml:space="preserve" text-anchor="start" x="168" y="-20" font-family="Helvetica,sans-Serif" font-size="10.00">SommerfeldIntegrator</text>
<text xml:space="preserve" text-anchor="middle" x="222" y="-7.25" font-family="Helvetica,sans-Serif" font-size="10.00">::writeMatrixToFile</text>
</a>
</g>
</g>
<!-- Node1&#45;&gt;Node18 -->
<g id="edge19_Node000001_Node000018" class="edge">
<title>Node1&#45;&gt;Node18</title>
<g id="a_edge19_Node000001_Node000018"><a xlink:title=" ">
<path fill="none" stroke="#63b8ff" d="M68.71,-193.59C80.61,-160.22 111.1,-86.08 160,-42.75 160.93,-41.93 161.88,-41.13 162.86,-40.36"/>
<polygon fill="#63b8ff" stroke="#63b8ff" points="164.71,-43.33 171.03,-34.83 160.78,-37.54 164.71,-43.33"/>
</a>
</g>
</g>
<!-- Node3 -->
<g id="Node000003" class="node">
<title>Node3</title>
<g id="a_Node000003"><a xlink:href="structIntegrandIntra.html#aa1346f5db4418f246e38a86b47482af5" target="_top" xlink:title="Helper function to extract selected elements from a 2D vector.">
<polygon fill="white" stroke="#666666" points="633.25,-307.12 480,-307.12 480,-286.38 633.25,-286.38 633.25,-307.12"/>
<text xml:space="preserve" text-anchor="middle" x="556.62" y="-293.62" font-family="Helvetica,sans-Serif" font-size="10.00">IntegrandIntra::flattenVector</text>
</a>
</g>
</g>
<!-- Node2&#45;&gt;Node3 -->
<g id="edge2_Node000002_Node000003" class="edge">
<title>Node2&#45;&gt;Node3</title>
<g id="a_edge2_Node000002_Node000003"><a xlink:title=" ">
<path fill="none" stroke="#63b8ff" d="M443.38,-296.75C451.4,-296.75 459.75,-296.75 468.11,-296.75"/>
<polygon fill="#63b8ff" stroke="#63b8ff" points="467.99,-300.25 477.99,-296.75 467.99,-293.25 467.99,-300.25"/>
</a>
</g>
</g>
<!-- Node4 -->
<g id="Node000004" class="node">
<title>Node4</title>
<g id="a_Node000004"><a xlink:href="structIntegrandIntra.html#af909e5fd6a7e84bf7688bbec4656326b" target="_top" xlink:title="Helper function to safely access matrix elements.">
<polygon fill="white" stroke="#666666" points="803,-307.12 669.25,-307.12 669.25,-286.38 803,-286.38 803,-307.12"/>
<text xml:space="preserve" text-anchor="middle" x="736.12" y="-293.62" font-family="Helvetica,sans-Serif" font-size="10.00">IntegrandIntra::getValue</text>
</a>
</g>
</g>
<!-- Node3&#45;&gt;Node4 -->
<g id="edge3_Node000003_Node000004" class="edge">
<title>Node3&#45;&gt;Node4</title>
<g id="a_edge3_Node000003_Node000004"><a xlink:title=" ">
<path fill="none" stroke="#63b8ff" d="M633.67,-296.75C641.58,-296.75 649.62,-296.75 657.53,-296.75"/>
<polygon fill="#63b8ff" stroke="#63b8ff" points="657.51,-300.25 667.51,-296.75 657.51,-293.25 657.51,-300.25"/>
</a>
</g>
</g>
<!-- Node6 -->
<g id="Node000006" class="node">
<title>Node6</title>
<g id="a_Node000006"><a xlink:href="SommerfeldIntegrator_8cpp.html#a9d3834c50a37c06607ab377700f8ba4d" target="_top" xlink:title="Adaptive Gauss–Kronrod quadrature (QUADPACK driver routine DQAGE).">
<polygon fill="white" stroke="#666666" points="407.62,-406.12 356.38,-406.12 356.38,-385.38 407.62,-385.38 407.62,-406.12"/>
<text xml:space="preserve" text-anchor="middle" x="382" y="-392.62" font-family="Helvetica,sans-Serif" font-size="10.00">dqage_</text>
</a>
</g>
</g>
<!-- Node5&#45;&gt;Node6 -->
<g id="edge5_Node000005_Node000006" class="edge">
<title>Node5&#45;&gt;Node6</title>
<g id="a_edge5_Node000005_Node000006"><a xlink:title=" ">
<path fill="none" stroke="#63b8ff" d="M263.69,-395.75C288.83,-395.75 320.81,-395.75 345.03,-395.75"/>
<polygon fill="#63b8ff" stroke="#63b8ff" points="344.71,-399.25 354.71,-395.75 344.71,-392.25 344.71,-399.25"/>
</a>
</g>
</g>
<!-- Node8&#45;&gt;Node2 -->
<g id="edge8_Node000008_Node000002" class="edge">
<title>Node8&#45;&gt;Node2</title>
<g id="a_edge8_Node000008_Node000002"><a xlink:title=" ">
<path fill="none" stroke="#63b8ff" d="M284.09,-283.26C292.27,-284.39 300.72,-285.57 309.06,-286.73"/>
<polygon fill="#63b8ff" stroke="#63b8ff" points="308.45,-290.18 318.84,-288.09 309.42,-283.25 308.45,-290.18"/>
</a>
</g>
</g>
<!-- Node8&#45;&gt;Node9 -->
<g id="edge9_Node000008_Node000009" class="edge">
<title>Node8&#45;&gt;Node9</title>
<g id="a_edge9_Node000008_Node000009"><a xlink:title=" ">
<path fill="none" stroke="#63b8ff" d="M284.09,-265.86C292,-264.71 300.16,-263.52 308.23,-262.34"/>
<polygon fill="#63b8ff" stroke="#63b8ff" points="308.67,-265.82 318.06,-260.91 307.66,-258.89 308.67,-265.82"/>
</a>
</g>
</g>
<!-- Node10 -->
<g id="Node000010" class="node">
<title>Node10</title>
<g id="a_Node000010"><a xlink:href="SommerfeldIntegrator_8cpp.html#a93b85379d21563ca5aba6f5eff053826" target="_top" xlink:title="Computes the Bessel function .">
<polygon fill="white" stroke="#666666" points="581.88,-226.12 531.38,-226.12 531.38,-205.38 581.88,-205.38 581.88,-226.12"/>
<text xml:space="preserve" text-anchor="middle" x="556.62" y="-212.62" font-family="Helvetica,sans-Serif" font-size="10.00">besselJ</text>
</a>
</g>
</g>
<!-- Node9&#45;&gt;Node10 -->
<g id="edge10_Node000009_Node000010" class="edge">
<title>Node9&#45;&gt;Node10</title>
<g id="a_edge10_Node000009_Node000010"><a xlink:title=" ">
<path fill="none" stroke="#63b8ff" d="M444.35,-238.96C469.65,-233.68 498.08,-227.75 519.87,-223.21"/>
<polygon fill="#63b8ff" stroke="#63b8ff" points="520.36,-226.68 529.44,-221.21 518.94,-219.83 520.36,-226.68"/>
</a>
</g>
</g>
<!-- Node12 -->
<g id="Node000012" class="node">
<title>Node12</title>
<g id="a_Node000012"><a xlink:href="SommerfeldIntegrator_8cpp.html#aa15340ecd95146df9ef36735f56c3417" target="_top" xlink:title="Computes the Hankel function .">
<polygon fill="white" stroke="#666666" points="584.5,-265.12 528.75,-265.12 528.75,-244.38 584.5,-244.38 584.5,-265.12"/>
<text xml:space="preserve" text-anchor="middle" x="556.62" y="-251.62" font-family="Helvetica,sans-Serif" font-size="10.00">hankelH</text>
</a>
</g>
</g>
<!-- Node9&#45;&gt;Node12 -->
<g id="edge12_Node000009_Node000012" class="edge">
<title>Node9&#45;&gt;Node12</title>
<g id="a_edge12_Node000009_Node000012"><a xlink:title=" ">
<path fill="none" stroke="#63b8ff" d="M444.35,-252.82C468.71,-253.24 495.98,-253.71 517.43,-254.09"/>
<polygon fill="#63b8ff" stroke="#63b8ff" points="517.12,-257.58 527.18,-254.26 517.24,-250.58 517.12,-257.58"/>
</a>
</g>
</g>
<!-- Node11 -->
<g id="Node000011" class="node">
<title>Node11</title>
<g id="a_Node000011"><a xlink:href="SommerfeldIntegrator_8cpp.html#a384f5925eef2fc5d52e72a65c50174c7" target="_top" xlink:title="Compute complex Bessel functions of the first kind .">
<polygon fill="white" stroke="#666666" points="759.5,-226.12 712.75,-226.12 712.75,-205.38 759.5,-205.38 759.5,-226.12"/>
<text xml:space="preserve" text-anchor="middle" x="736.12" y="-212.62" font-family="Helvetica,sans-Serif" font-size="10.00">zbesj_</text>
</a>
</g>
</g>
<!-- Node10&#45;&gt;Node11 -->
<g id="edge11_Node000010_Node000011" class="edge">
<title>Node10&#45;&gt;Node11</title>
<g id="a_edge11_Node000010_Node000011"><a xlink:title=" ">
<path fill="none" stroke="#63b8ff" d="M582.31,-215.75C613.15,-215.75 666.11,-215.75 700.87,-215.75"/>
<polygon fill="#63b8ff" stroke="#63b8ff" points="700.83,-219.25 710.83,-215.75 700.83,-212.25 700.83,-219.25"/>
</a>
</g>
</g>
<!-- Node13 -->
<g id="Node000013" class="node">
<title>Node13</title>
<g id="a_Node000013"><a xlink:href="SommerfeldIntegrator_8cpp.html#a2119f72fafe396d33e9c85025883db96" target="_top" xlink:title="Compute complex Hankel functions of the first kind or second kind .">
<polygon fill="white" stroke="#666666" points="761,-265.12 711.25,-265.12 711.25,-244.38 761,-244.38 761,-265.12"/>
<text xml:space="preserve" text-anchor="middle" x="736.12" y="-251.62" font-family="Helvetica,sans-Serif" font-size="10.00">zbesh_</text>
</a>
</g>
</g>
<!-- Node12&#45;&gt;Node13 -->
<g id="edge13_Node000012_Node000013" class="edge">
<title>Node12&#45;&gt;Node13</title>
<g id="a_edge13_Node000012_Node000013"><a xlink:title=" ">
<path fill="none" stroke="#63b8ff" d="M584.97,-254.75C615.76,-254.75 665.91,-254.75 699.68,-254.75"/>
<polygon fill="#63b8ff" stroke="#63b8ff" points="699.37,-258.25 709.37,-254.75 699.37,-251.25 699.37,-258.25"/>
</a>
</g>
</g>
<!-- Node19 -->
<g id="Node000019" class="node">
<title>Node19</title>
<g id="a_Node000019"><a xlink:href="Domain_8cpp.html#aafa3e4fa6318b2f8740f4dbd50c367e5" target="_top" xlink:title="Extract the real part of each component of a complex 3&#45;vector.">
<polygon fill="white" stroke="#666666" points="399.38,-27.12 364.62,-27.12 364.62,-6.38 399.38,-6.38 399.38,-27.12"/>
<text xml:space="preserve" text-anchor="middle" x="382" y="-13.62" font-family="Helvetica,sans-Serif" font-size="10.00">real</text>
</a>
</g>
</g>
<!-- Node18&#45;&gt;Node19 -->
<g id="edge20_Node000018_Node000019" class="edge">
<title>Node18&#45;&gt;Node19</title>
<g id="a_edge20_Node000018_Node000019"><a xlink:title=" ">
<path fill="none" stroke="#63b8ff" d="M284.09,-16.75C307.74,-16.75 333.65,-16.75 352.72,-16.75"/>
<polygon fill="#63b8ff" stroke="#63b8ff" points="352.66,-20.25 362.66,-16.75 352.66,-13.25 352.66,-20.25"/>
</a>
</g>
</g>
<!-- Node19&#45;&gt;Node19 -->
<g id="edge21_Node000019_Node000019" class="edge">
<title>Node19&#45;&gt;Node19</title>
<g id="a_edge21_Node000019_Node000019"><a xlink:title=" ">
<path fill="none" stroke="#63b8ff" d="M364.31,-22.6C343.29,-32.4 349.19,-45.12 382,-45.12 408.15,-45.12 417.2,-37.04 409.17,-28.8"/>
<polygon fill="#63b8ff" stroke="#63b8ff" points="411.24,-25.98 400.95,-23.43 407.41,-31.83 411.24,-25.98"/>
</a>
</g>
</g>
</g>
</svg>
