<?xml version="1.0" encoding="UTF-8" standalone="no"?>
<!DOCTYPE svg PUBLIC "-//W3C//DTD SVG 1.1//EN"
 "http://www.w3.org/Graphics/SVG/1.1/DTD/svg11.dtd">
<!-- Generated by graphviz version 13.1.2 (20250809.0930)
 -->
<!-- Title: Triangle::Triangle Pages: 1 -->
<!--zoomable 210 -->

<svg id="main" version="1.1" xmlns="http://www.w3.org/2000/svg" xmlns:xlink="http://www.w3.org/1999/xlink" xml:space="preserve" onload="init(evt)">

<style type="text/css"><![CDATA[
.node, .edge {opacity: 0.7;}
.node.selected, .edge.selected {opacity: 1;}
.edge:hover path { stroke: red; }
.edge:hover polygon { stroke: red; fill: red; }
]]></style>

<defs>
  <circle id="rim" cx="0" cy="0" r="7"/>
  <circle id="rim2" cx="0" cy="0" r="3.5"/>
  <g id="zoomPlus">
    <use xlink:href="#rim" fill="#404040"><set attributeName="fill" to="#808080" begin="zoomplus.mouseover" end="zoomplus.mouseout"/></use>
    <path d="M-4,0h8M0,-4v8" fill="none" stroke="white" stroke-width="1.5" pointer-events="none"/>
  </g>
  <g id="zoomMin">
    <use xlink:href="#rim" fill="#404040"><set attributeName="fill" to="#808080" begin="zoomminus.mouseover" end="zoomminus.mouseout"/></use>
    <path d="M-4,0h8" fill="none" stroke="white" stroke-width="1.5" pointer-events="none"/>
  </g>
  <g id="arrowUp" transform="translate(30 24)">
    <use xlink:href="#rim"/>
    <path pointer-events="none" fill="none" stroke="white" stroke-width="1.5" d="M0,-3.0v7 M-2.5,-0.5L0,-3.0L2.5,-0.5"/>
  </g>
  <g id="arrowRight" transform="rotate(90) translate(36 -43)">
    <use xlink:href="#rim"/>
    <path pointer-events="none" fill="none" stroke="white" stroke-width="1.5" d="M0,-3.0v7 M-2.5,-0.5L0,-3.0L2.5,-0.5"/>
  </g>
  <g id="arrowDown" transform="rotate(180) translate(-30 -48)">
    <use xlink:href="#rim"/>
    <path pointer-events="none" fill="none" stroke="white" stroke-width="1.5" d="M0,-3.0v7 M-2.5,-0.5L0,-3.0L2.5,-0.5"/>
  </g>
  <g id="arrowLeft" transform="rotate(270) translate(-36 17)">
    <use xlink:href="#rim"/>
    <path pointer-events="none" fill="none" stroke="white" stroke-width="1.5" d="M0,-3.0v7 M-2.5,-0.5L0,-3.0L2.5,-0.5"/>
  </g>
  <g id="resetDef">
    <use xlink:href="#rim2" fill="#404040"><set attributeName="fill" to="#808080" begin="reset.mouseover" end="reset.mouseout"/></use>
  </g>
</defs>
<script type="application/ecmascript">
var viewWidth = 511;
var viewHeight = 210;
var sectionId = 'dynsection-2';
</script>
<script type="application/ecmascript" xlink:href="svg.min.js"/>
<svg id="graph" class="graph">
<g id="viewport">
<title>Triangle::Triangle</title>
<!-- Node1 -->
<g id="Node000001" class="node">
<title>Node1</title>
<g id="a_Node000001"><a xlink:title="Construct from 3 node pointers and bordering domains.">
<polygon fill="#999999" stroke="#666666" points="503.25,-101.12 404.75,-101.12 404.75,-80.38 503.25,-80.38 503.25,-101.12"/>
<text xml:space="preserve" text-anchor="middle" x="454" y="-87.62" font-family="Helvetica,sans-Serif" font-size="10.00">Triangle::Triangle</text>
</a>
</g>
</g>
<!-- Node2 -->
<g id="Node000002" class="node">
<title>Node2</title>
<g id="a_Node000002"><a xlink:href="classTriangle.html#a6a5a3532e273e1fbb69b26eea2f509c0" target="_top" xlink:title="Count common nodes with triangle T (0..3).">
<polygon fill="white" stroke="#666666" points="356,-163.12 225.25,-163.12 225.25,-142.38 356,-142.38 356,-163.12"/>
<text xml:space="preserve" text-anchor="middle" x="290.62" y="-149.62" font-family="Helvetica,sans-Serif" font-size="10.00">Triangle::FindAdjacency</text>
</a>
</g>
</g>
<!-- Node1&#45;&gt;Node2 -->
<g id="edge1_Node000001_Node000002" class="edge">
<title>Node1&#45;&gt;Node2</title>
<g id="a_edge1_Node000001_Node000002"><a xlink:title=" ">
<path fill="none" stroke="#63b8ff" d="M424.3,-106.93C408.32,-115.46 387.84,-125.61 368.75,-132.75 359.55,-136.19 349.52,-139.26 339.83,-141.9"/>
<polygon fill="#63b8ff" stroke="#63b8ff" points="425.66,-110.18 432.77,-102.32 422.32,-104.02 425.66,-110.18"/>
</a>
</g>
</g>
<!-- Node6 -->
<g id="Node000006" class="node">
<title>Node6</title>
<g id="a_Node000006"><a xlink:href="classTriangle.html#a110eb211c31cc4fa6a936d8d4c201306" target="_top" xlink:title="Count common nodes with T after translating T by vector t.">
<polygon fill="white" stroke="#666666" points="356,-124.12 225.25,-124.12 225.25,-103.38 356,-103.38 356,-124.12"/>
<text xml:space="preserve" text-anchor="middle" x="290.62" y="-110.62" font-family="Helvetica,sans-Serif" font-size="10.00">Triangle::FindAdjacency</text>
</a>
</g>
</g>
<!-- Node1&#45;&gt;Node6 -->
<g id="edge5_Node000001_Node000006" class="edge">
<title>Node1&#45;&gt;Node6</title>
<g id="a_edge5_Node000001_Node000006"><a xlink:title=" ">
<path fill="none" stroke="#63b8ff" d="M393.31,-99.26C381.29,-100.97 368.61,-102.78 356.43,-104.51"/>
<polygon fill="#63b8ff" stroke="#63b8ff" points="393.68,-102.74 403.08,-97.86 392.69,-95.81 393.68,-102.74"/>
</a>
</g>
</g>
<!-- Node7 -->
<g id="Node000007" class="node">
<title>Node7</title>
<g id="a_Node000007"><a xlink:href="classTriangle.html#aab413203fc04781220ce7cf8224105bd" target="_top" xlink:title="Find common edge local indices with T.">
<polygon fill="white" stroke="#666666" points="365,-85.5 216.25,-85.5 216.25,-52 365,-52 365,-85.5"/>
<text xml:space="preserve" text-anchor="start" x="224.25" y="-72" font-family="Helvetica,sans-Serif" font-size="10.00">Triangle::FindCommonEdge</text>
<text xml:space="preserve" text-anchor="middle" x="290.62" y="-59.25" font-family="Helvetica,sans-Serif" font-size="10.00">Indices</text>
</a>
</g>
</g>
<!-- Node1&#45;&gt;Node7 -->
<g id="edge6_Node000001_Node000007" class="edge">
<title>Node1&#45;&gt;Node7</title>
<g id="a_edge6_Node000001_Node000007"><a xlink:title=" ">
<path fill="none" stroke="#63b8ff" d="M393.3,-82.61C384.21,-81.37 374.73,-80.08 365.38,-78.8"/>
<polygon fill="#63b8ff" stroke="#63b8ff" points="392.7,-86.06 403.08,-83.94 393.65,-79.13 392.7,-86.06"/>
</a>
</g>
</g>
<!-- Node8 -->
<g id="Node000008" class="node">
<title>Node8</title>
<g id="a_Node000008"><a xlink:href="classTriangle.html#aa137190a0a6fd9adadee37a8228313d6" target="_top" xlink:title="Find common vertex local indices with T.">
<polygon fill="white" stroke="#666666" points="368.75,-33.5 212.5,-33.5 212.5,0 368.75,0 368.75,-33.5"/>
<text xml:space="preserve" text-anchor="start" x="220.5" y="-20" font-family="Helvetica,sans-Serif" font-size="10.00">Triangle::FindCommonVertex</text>
<text xml:space="preserve" text-anchor="middle" x="290.62" y="-7.25" font-family="Helvetica,sans-Serif" font-size="10.00">Indices</text>
</a>
</g>
</g>
<!-- Node1&#45;&gt;Node8 -->
<g id="edge7_Node000001_Node000008" class="edge">
<title>Node1&#45;&gt;Node8</title>
<g id="a_edge7_Node000001_Node000008"><a xlink:title=" ">
<path fill="none" stroke="#63b8ff" d="M427,-74.2C410.68,-64.26 388.98,-51.82 368.75,-42.75 361.79,-39.63 354.33,-36.67 346.9,-33.94"/>
<polygon fill="#63b8ff" stroke="#63b8ff" points="424.77,-76.93 435.11,-79.22 428.45,-70.98 424.77,-76.93"/>
</a>
</g>
</g>
<!-- Node3 -->
<g id="Node000003" class="node">
<title>Node3</title>
<g id="a_Node000003"><a xlink:href="classGreenFHom3D.html#a419cbe00b5a2aed70ac546904a8a8d6f" target="_top" xlink:title="Compute &#160;and &#160;for all RWG pairs on two triangles.">
<polygon fill="white" stroke="#666666" points="161.88,-202.12 14.62,-202.12 14.62,-181.38 161.88,-181.38 161.88,-202.12"/>
<text xml:space="preserve" text-anchor="middle" x="88.25" y="-188.62" font-family="Helvetica,sans-Serif" font-size="10.00">GreenFHom3D::SameTriDK</text>
</a>
</g>
</g>
<!-- Node2&#45;&gt;Node3 -->
<g id="edge2_Node000002_Node000003" class="edge">
<title>Node2&#45;&gt;Node3</title>
<g id="a_edge2_Node000002_Node000003"><a xlink:title=" ">
<path fill="none" stroke="#63b8ff" d="M222.51,-165.81C197.38,-170.7 169.12,-176.2 145.11,-180.88"/>
<polygon fill="#63b8ff" stroke="#63b8ff" points="223.18,-169.25 232.32,-163.9 221.84,-162.38 223.18,-169.25"/>
</a>
</g>
</g>
<!-- Node4 -->
<g id="Node000004" class="node">
<title>Node4</title>
<g id="a_Node000004"><a xlink:href="classGreenFHom3DPer2D.html#a1dc9dd84c93ee10b2fb4b1866103d957" target="_top" xlink:title="Compute &#160;and &#160;for all RWG pairs on two triangles.">
<polygon fill="white" stroke="#666666" points="176.5,-163.12 0,-163.12 0,-142.38 176.5,-142.38 176.5,-163.12"/>
<text xml:space="preserve" text-anchor="middle" x="88.25" y="-149.62" font-family="Helvetica,sans-Serif" font-size="10.00">GreenFHom3DPer2D::SameTriDK</text>
</a>
</g>
</g>
<!-- Node2&#45;&gt;Node4 -->
<g id="edge3_Node000002_Node000004" class="edge">
<title>Node2&#45;&gt;Node4</title>
<g id="a_edge3_Node000002_Node000004"><a xlink:title=" ">
<path fill="none" stroke="#63b8ff" d="M213.51,-152.75C201.51,-152.75 189.02,-152.75 176.79,-152.75"/>
<polygon fill="#63b8ff" stroke="#63b8ff" points="213.33,-156.25 223.33,-152.75 213.33,-149.25 213.33,-156.25"/>
</a>
</g>
</g>
<!-- Node5 -->
<g id="Node000005" class="node">
<title>Node5</title>
<g id="a_Node000005"><a xlink:href="classGreenFLayered3D.html#a6c88af86169f8d148c3e9f4da77a77d0" target="_top" xlink:title="Triangle–triangle D/K blocks assembly for all RWG pairs on two triangles.">
<polygon fill="white" stroke="#666666" points="169.75,-124.12 6.75,-124.12 6.75,-103.38 169.75,-103.38 169.75,-124.12"/>
<text xml:space="preserve" text-anchor="middle" x="88.25" y="-110.62" font-family="Helvetica,sans-Serif" font-size="10.00">GreenFLayered3D::SameTriDK</text>
</a>
</g>
</g>
<!-- Node2&#45;&gt;Node5 -->
<g id="edge4_Node000002_Node000005" class="edge">
<title>Node2&#45;&gt;Node5</title>
<g id="a_edge4_Node000002_Node000005"><a xlink:title=" ">
<path fill="none" stroke="#63b8ff" d="M222.51,-139.69C197.38,-134.8 169.12,-129.3 145.11,-124.62"/>
<polygon fill="#63b8ff" stroke="#63b8ff" points="221.84,-143.12 232.32,-141.6 223.18,-136.25 221.84,-143.12"/>
</a>
</g>
</g>
</g>
</svg>

<g id="navigator" transform="translate(0 0)" fill="#404254">
  <rect fill="#f2f5e9" fill-opacity="0.5" stroke="#606060" stroke-width=".5" x="0" y="0" width="60" height="60"/>
  <use id="zoomplus" xlink:href="#zoomPlus" x="17" y="9" onmousedown="handleZoom(evt,'in')"/>
  <use id="zoomminus" xlink:href="#zoomMin" x="42" y="9" onmousedown="handleZoom(evt,'out')"/>
  <use id="reset" xlink:href="#resetDef" x="30" y="36" onmousedown="handleReset()"/>
   <use id="arrowup" xlink:href="#arrowUp" x="0" y="0" onmousedown="handlePan(0,-1)"/>
  <use id="arrowright" xlink:href="#arrowRight" x="0" y="0" onmousedown="handlePan(1,0)"/>
  <use id="arrowdown" xlink:href="#arrowDown" x="0" y="0" onmousedown="handlePan(0,1)"/>
  <use id="arrowleft" xlink:href="#arrowLeft" x="0" y="0" onmousedown="handlePan(-1,0)"/>
</g>
<svg viewBox="0 0 15 15" width="100%" height="30px" preserveAspectRatio="xMaxYMin meet">
 <g id="arrow_out" transform="scale(0.3 0.3)">
  <a xlink:href="classTriangle_a2eae6a9b0378e4b5ba4616a6b6af86fe_icgraph_org.svg" target="_base">
   <rect id="button" ry="5" rx="5" y="6" x="6" height="38" width="38"
        fill="#f2f5e9" fill-opacity="0.5" stroke="#606060" stroke-width="1.0"/>
   <path id="arrow"
     d="M 11.500037,31.436501 C 11.940474,20.09759 22.043105,11.32322 32.158766,21.979434 L 37.068811,17.246167 C 37.068811,17.246167 37.088388,32 37.088388,32 L 22.160133,31.978069 C 22.160133,31.978069 26.997745,27.140456 26.997745,27.140456 C 18.528582,18.264221 13.291696,25.230495 11.500037,31.436501 z"
     style="fill:#404040;"/>
  </a>
 </g>
</svg>

<style type='text/css'>
<![CDATA[
[data-mouse-over-selected='false'] { opacity: 0.7; }
[data-mouse-over-selected='true']  { opacity: 1.0; }
]]>
</style>
<script type="application/ecmascript"><![CDATA[
document.addEventListener('DOMContentLoaded', (event) => {
  highlightEdges();
  highlightAdjacentNodes();
});
]]></script>
</svg>
