<?xml version="1.0" encoding="UTF-8" standalone="no"?>
<!DOCTYPE svg PUBLIC "-//W3C//DTD SVG 1.1//EN"
 "http://www.w3.org/Graphics/SVG/1.1/DTD/svg11.dtd">
<!-- Generated by graphviz version 13.1.2 (20250809.0930)
 -->
<!-- Title: LayeredMediaUtils::Fields Pages: 1 -->
<svg width="771pt" height="177pt"
 viewBox="0.00 0.00 771.00 177.00" xmlns="http://www.w3.org/2000/svg" xmlns:xlink="http://www.w3.org/1999/xlink">
<g id="graph0" class="graph" transform="scale(1 1) rotate(0) translate(4 172.56)">
<title>LayeredMediaUtils::Fields</title>
<!-- Node1 -->
<g id="Node000001" class="node">
<title>Node1</title>
<g id="a_Node000001"><a xlink:title="Computes electromagnetic fields at observation points given a source position.">
<polygon fill="#999999" stroke="#666666" points="113.5,-149.12 0,-149.12 0,-115.62 113.5,-115.62 113.5,-149.12"/>
<text xml:space="preserve" text-anchor="start" x="8" y="-135.62" font-family="Helvetica,sans-Serif" font-size="10.00">LayeredMediaUtils::</text>
<text xml:space="preserve" text-anchor="middle" x="56.75" y="-122.88" font-family="Helvetica,sans-Serif" font-size="10.00">Fields</text>
</a>
</g>
</g>
<!-- Node2 -->
<g id="Node000002" class="node">
<title>Node2</title>
<g id="a_Node000002"><a xlink:href="LayeredMediaUtils_8cpp.html#a50405603197731a46c864b0f39744ed0" target="_top" xlink:title="Computes the square root of a complex number with proper handling of negative imaginary parts.">
<polygon fill="white" stroke="#666666" points="692,-149.75 614.5,-149.75 614.5,-129 692,-129 692,-149.75"/>
<text xml:space="preserve" text-anchor="middle" x="653.25" y="-136.25" font-family="Helvetica,sans-Serif" font-size="10.00">complexSqrt</text>
</a>
</g>
</g>
<!-- Node1&#45;&gt;Node2 -->
<g id="edge1_Node000001_Node000002" class="edge">
<title>Node1&#45;&gt;Node2</title>
<g id="a_edge1_Node000001_Node000002"><a xlink:title=" ">
<path fill="none" stroke="#63b8ff" d="M108.65,-149.49C121.81,-153.17 136.05,-156.51 149.5,-158.38 209.5,-166.71 405.92,-176.56 578.5,-156.38 586.58,-155.43 595.06,-153.95 603.27,-152.25"/>
<polygon fill="#63b8ff" stroke="#63b8ff" points="603.77,-155.72 612.77,-150.14 602.25,-148.89 603.77,-155.72"/>
</a>
</g>
</g>
<!-- Node4 -->
<g id="Node000004" class="node">
<title>Node4</title>
<g id="a_Node000004"><a xlink:href="classLayeredMediaUtils.html#a4b40e9fd70634bc3066c31e34a002df4" target="_top" xlink:title="Returns the layer index for a given spatial position.">
<polygon fill="white" stroke="#666666" points="263,-149.12 149.5,-149.12 149.5,-115.62 263,-115.62 263,-149.12"/>
<text xml:space="preserve" text-anchor="start" x="157.5" y="-135.62" font-family="Helvetica,sans-Serif" font-size="10.00">LayeredMediaUtils::</text>
<text xml:space="preserve" text-anchor="middle" x="206.25" y="-122.88" font-family="Helvetica,sans-Serif" font-size="10.00">GetLayerIndex</text>
</a>
</g>
</g>
<!-- Node1&#45;&gt;Node4 -->
<g id="edge4_Node000001_Node000004" class="edge">
<title>Node1&#45;&gt;Node4</title>
<g id="a_edge4_Node000001_Node000004"><a xlink:title=" ">
<path fill="none" stroke="#63b8ff" d="M113.93,-132.38C121.79,-132.38 129.93,-132.38 137.97,-132.38"/>
<polygon fill="#63b8ff" stroke="#63b8ff" points="137.71,-135.88 147.71,-132.38 137.71,-128.88 137.71,-135.88"/>
</a>
</g>
</g>
<!-- Node5 -->
<g id="Node000005" class="node">
<title>Node5</title>
<g id="a_Node000005"><a xlink:href="classLayeredMediaUtils.html#a6d538561bc5345114e83f7939247866f" target="_top" xlink:title="Computes secondary wave coefficients for a given observation and source layer.">
<polygon fill="white" stroke="#666666" points="263,-97.12 149.5,-97.12 149.5,-63.62 263,-63.62 263,-97.12"/>
<text xml:space="preserve" text-anchor="start" x="157.5" y="-83.62" font-family="Helvetica,sans-Serif" font-size="10.00">LayeredMediaUtils::</text>
<text xml:space="preserve" text-anchor="middle" x="206.25" y="-70.88" font-family="Helvetica,sans-Serif" font-size="10.00">Secondary</text>
</a>
</g>
</g>
<!-- Node1&#45;&gt;Node5 -->
<g id="edge5_Node000001_Node000005" class="edge">
<title>Node1&#45;&gt;Node5</title>
<g id="a_edge5_Node000001_Node000005"><a xlink:title=" ">
<path fill="none" stroke="#63b8ff" d="M106.46,-115.2C118.98,-110.79 132.59,-105.99 145.6,-101.4"/>
<polygon fill="#63b8ff" stroke="#63b8ff" points="146.65,-104.75 154.92,-98.12 144.32,-98.14 146.65,-104.75"/>
</a>
</g>
</g>
<!-- Node3 -->
<g id="Node000003" class="node">
<title>Node3</title>
<g id="a_Node000003"><a xlink:href="Domain_8cpp.html#aafa3e4fa6318b2f8740f4dbd50c367e5" target="_top" xlink:title="Extract the real part of each component of a complex 3&#45;vector.">
<polygon fill="white" stroke="#666666" points="762.75,-149.75 728,-149.75 728,-129 762.75,-129 762.75,-149.75"/>
<text xml:space="preserve" text-anchor="middle" x="745.38" y="-136.25" font-family="Helvetica,sans-Serif" font-size="10.00">real</text>
</a>
</g>
</g>
<!-- Node2&#45;&gt;Node3 -->
<g id="edge2_Node000002_Node000003" class="edge">
<title>Node2&#45;&gt;Node3</title>
<g id="a_edge2_Node000002_Node000003"><a xlink:title=" ">
<path fill="none" stroke="#63b8ff" d="M692.47,-139.38C700.44,-139.38 708.69,-139.38 716.21,-139.38"/>
<polygon fill="#63b8ff" stroke="#63b8ff" points="716.12,-142.88 726.12,-139.38 716.12,-135.88 716.12,-142.88"/>
</a>
</g>
</g>
<!-- Node3&#45;&gt;Node3 -->
<g id="edge3_Node000003_Node000003" class="edge">
<title>Node3&#45;&gt;Node3</title>
<g id="a_edge3_Node000003_Node000003"><a xlink:title=" ">
<path fill="none" stroke="#63b8ff" d="M730.53,-150.15C724.59,-158.81 729.54,-167.75 745.38,-167.75 753.79,-167.75 759.13,-165.23 761.39,-161.56"/>
<polygon fill="#63b8ff" stroke="#63b8ff" points="764.88,-161.24 760.37,-151.65 757.92,-161.96 764.88,-161.24"/>
</a>
</g>
</g>
<!-- Node5&#45;&gt;Node2 -->
<g id="edge6_Node000005_Node000002" class="edge">
<title>Node5&#45;&gt;Node2</title>
<g id="a_edge6_Node000005_Node000002"><a xlink:title=" ">
<path fill="none" stroke="#63b8ff" d="M245.04,-97.61C267.72,-107.81 293.25,-119.01 299,-120.38 405.07,-145.48 533.86,-144.91 602.88,-142.2"/>
<polygon fill="#63b8ff" stroke="#63b8ff" points="602.89,-145.7 612.73,-141.77 602.59,-138.7 602.89,-145.7"/>
</a>
</g>
</g>
<!-- Node6 -->
<g id="Node000006" class="node">
<title>Node6</title>
<g id="a_Node000006"><a xlink:href="classLayeredMediaUtils.html#a00598e0f83472fd9128419b9dddc7e09" target="_top" xlink:title="Computes the interface transfer matrix for TE or TM waves.">
<polygon fill="white" stroke="#666666" points="429,-111.12 299,-111.12 299,-77.62 429,-77.62 429,-111.12"/>
<text xml:space="preserve" text-anchor="start" x="307" y="-97.62" font-family="Helvetica,sans-Serif" font-size="10.00">LayeredMediaUtils::</text>
<text xml:space="preserve" text-anchor="middle" x="364" y="-84.88" font-family="Helvetica,sans-Serif" font-size="10.00">InterfaceTransferMatrix</text>
</a>
</g>
</g>
<!-- Node5&#45;&gt;Node6 -->
<g id="edge7_Node000005_Node000006" class="edge">
<title>Node5&#45;&gt;Node6</title>
<g id="a_edge7_Node000005_Node000006"><a xlink:title=" ">
<path fill="none" stroke="#63b8ff" d="M263.48,-85.43C271.24,-86.13 279.31,-86.85 287.35,-87.57"/>
<polygon fill="#63b8ff" stroke="#63b8ff" points="286.87,-91.05 297.15,-88.46 287.5,-84.07 286.87,-91.05"/>
</a>
</g>
</g>
<!-- Node8 -->
<g id="Node000008" class="node">
<title>Node8</title>
<g id="a_Node000008"><a xlink:href="DomainLayered3D_8cpp.html#ad123e1ae452426e2c00e3189488dedac" target="_top" xlink:title="Computes the LU factorization of a general M&#45;by&#45;N matrix.">
<polygon fill="white" stroke="#666666" points="388.88,-59.75 339.12,-59.75 339.12,-39 388.88,-39 388.88,-59.75"/>
<text xml:space="preserve" text-anchor="middle" x="364" y="-46.25" font-family="Helvetica,sans-Serif" font-size="10.00">zgetrf_</text>
</a>
</g>
</g>
<!-- Node5&#45;&gt;Node8 -->
<g id="edge10_Node000005_Node000008" class="edge">
<title>Node5&#45;&gt;Node8</title>
<g id="a_edge10_Node000005_Node000008"><a xlink:title=" ">
<path fill="none" stroke="#63b8ff" d="M263.48,-69.18C284.98,-64.9 308.88,-60.15 327.86,-56.37"/>
<polygon fill="#63b8ff" stroke="#63b8ff" points="328.38,-59.84 337.5,-54.45 327.01,-52.97 328.38,-59.84"/>
</a>
</g>
</g>
<!-- Node9 -->
<g id="Node000009" class="node">
<title>Node9</title>
<g id="a_Node000009"><a xlink:href="DomainLayered3D_8cpp.html#a0d498505ce3081c778d322cdd12e60a4" target="_top" xlink:title="Solves a system of linear equations using the LU factorization.">
<polygon fill="white" stroke="#666666" points="389.62,-20.75 338.38,-20.75 338.38,0 389.62,0 389.62,-20.75"/>
<text xml:space="preserve" text-anchor="middle" x="364" y="-7.25" font-family="Helvetica,sans-Serif" font-size="10.00">zgetrs_</text>
</a>
</g>
</g>
<!-- Node5&#45;&gt;Node9 -->
<g id="edge11_Node000005_Node000009" class="edge">
<title>Node5&#45;&gt;Node9</title>
<g id="a_edge11_Node000005_Node000009"><a xlink:title=" ">
<path fill="none" stroke="#63b8ff" d="M235.05,-63.36C252.89,-52.92 276.79,-39.79 299,-30.38 307.92,-26.6 317.79,-23.16 327.07,-20.25"/>
<polygon fill="#63b8ff" stroke="#63b8ff" points="327.96,-23.63 336.53,-17.4 325.94,-16.93 327.96,-23.63"/>
</a>
</g>
</g>
<!-- Node7 -->
<g id="Node000007" class="node">
<title>Node7</title>
<g id="a_Node000007"><a xlink:href="classLayeredMediaUtils.html#a212943a3dd5bdeaaa5c92ed21fad87a9" target="_top" xlink:title="Computes Fresnel reflection and transmission coefficients at an interface.">
<polygon fill="white" stroke="#666666" points="578.5,-111.12 465,-111.12 465,-77.62 578.5,-77.62 578.5,-111.12"/>
<text xml:space="preserve" text-anchor="start" x="473" y="-97.62" font-family="Helvetica,sans-Serif" font-size="10.00">LayeredMediaUtils::</text>
<text xml:space="preserve" text-anchor="middle" x="521.75" y="-84.88" font-family="Helvetica,sans-Serif" font-size="10.00">FresnelCoeff</text>
</a>
</g>
</g>
<!-- Node6&#45;&gt;Node7 -->
<g id="edge8_Node000006_Node000007" class="edge">
<title>Node6&#45;&gt;Node7</title>
<g id="a_edge8_Node000006_Node000007"><a xlink:title=" ">
<path fill="none" stroke="#63b8ff" d="M429.25,-94.38C437.13,-94.38 445.2,-94.38 453.13,-94.38"/>
<polygon fill="#63b8ff" stroke="#63b8ff" points="453.1,-97.88 463.1,-94.38 453.1,-90.88 453.1,-97.88"/>
</a>
</g>
</g>
<!-- Node7&#45;&gt;Node2 -->
<g id="edge9_Node000007_Node000002" class="edge">
<title>Node7&#45;&gt;Node2</title>
<g id="a_edge9_Node000007_Node000002"><a xlink:title=" ">
<path fill="none" stroke="#63b8ff" d="M572.08,-111.52C584.66,-115.89 598.08,-120.55 610.26,-124.78"/>
<polygon fill="#63b8ff" stroke="#63b8ff" points="609.02,-128.06 619.61,-128.03 611.31,-121.44 609.02,-128.06"/>
</a>
</g>
</g>
</g>
</svg>
