<?xml version="1.0" encoding="UTF-8" standalone="no"?>
<!DOCTYPE svg PUBLIC "-//W3C//DTD SVG 1.1//EN"
 "http://www.w3.org/Graphics/SVG/1.1/DTD/svg11.dtd">
<!-- Generated by graphviz version 13.1.2 (20250809.0930)
 -->
<!-- Title: GreenFHom3DPer2D::EwaldSpatialSmoothed Pages: 1 -->
<svg width="641pt" height="80pt"
 viewBox="0.00 0.00 641.00 80.00" xmlns="http://www.w3.org/2000/svg" xmlns:xlink="http://www.w3.org/1999/xlink">
<g id="graph0" class="graph" transform="scale(1 1) rotate(0) translate(4 76.12)">
<title>GreenFHom3DPer2D::EwaldSpatialSmoothed</title>
<!-- Node1 -->
<g id="Node000001" class="node">
<title>Node1</title>
<g id="a_Node000001"><a xlink:title="Spatial part for the smoothed scalar kernel .">
<polygon fill="#999999" stroke="#666666" points="633,-55.5 446.75,-55.5 446.75,-22 633,-22 633,-55.5"/>
<text xml:space="preserve" text-anchor="start" x="454.75" y="-42" font-family="Helvetica,sans-Serif" font-size="10.00">GreenFHom3DPer2D::EwaldSpatial</text>
<text xml:space="preserve" text-anchor="middle" x="539.88" y="-29.25" font-family="Helvetica,sans-Serif" font-size="10.00">Smoothed</text>
</a>
</g>
</g>
<!-- Node2 -->
<g id="Node000002" class="node">
<title>Node2</title>
<g id="a_Node000002"><a xlink:href="classGreenFHom3DPer2D.html#aa6a46238cd2d01600780fd176a36971d" target="_top" xlink:title="Ewald&#45;summed smoothed scalar kernel.">
<polygon fill="white" stroke="#666666" points="410.75,-72.12 208.75,-72.12 208.75,-51.38 410.75,-51.38 410.75,-72.12"/>
<text xml:space="preserve" text-anchor="middle" x="309.75" y="-58.62" font-family="Helvetica,sans-Serif" font-size="10.00">GreenFHom3DPer2D::EwaldSmoothed</text>
</a>
</g>
</g>
<!-- Node1&#45;&gt;Node2 -->
<g id="edge1_Node000001_Node000002" class="edge">
<title>Node1&#45;&gt;Node2</title>
<g id="a_edge1_Node000001_Node000002"><a xlink:title=" ">
<path fill="none" stroke="#63b8ff" d="M435.18,-49.2C427.19,-50.01 419.13,-50.82 411.16,-51.63"/>
<polygon fill="#63b8ff" stroke="#63b8ff" points="435.31,-52.71 444.91,-48.22 434.61,-45.74 435.31,-52.71"/>
</a>
</g>
</g>
<!-- Node4 -->
<g id="Node000004" class="node">
<title>Node4</title>
<g id="a_Node000004"><a xlink:href="classGreenFHom3DPer2D.html#ab327d41ca91c33e57a154eae221b4016" target="_top" xlink:title="Smoothed scalar kernel &#160;for a specific translation.">
<polygon fill="white" stroke="#666666" points="396.12,-33.5 223.38,-33.5 223.38,0 396.12,0 396.12,-33.5"/>
<text xml:space="preserve" text-anchor="start" x="231.38" y="-20" font-family="Helvetica,sans-Serif" font-size="10.00">GreenFHom3DPer2D::Smoothed</text>
<text xml:space="preserve" text-anchor="middle" x="309.75" y="-7.25" font-family="Helvetica,sans-Serif" font-size="10.00">Translate</text>
</a>
</g>
</g>
<!-- Node1&#45;&gt;Node4 -->
<g id="edge3_Node000001_Node000004" class="edge">
<title>Node1&#45;&gt;Node4</title>
<g id="a_edge3_Node000001_Node000004"><a xlink:title=" ">
<path fill="none" stroke="#63b8ff" d="M435.09,-28.74C422.12,-27.49 408.98,-26.22 396.34,-25"/>
<polygon fill="#63b8ff" stroke="#63b8ff" points="434.62,-32.21 444.91,-29.69 435.29,-25.24 434.62,-32.21"/>
</a>
</g>
</g>
<!-- Node3 -->
<g id="Node000003" class="node">
<title>Node3</title>
<g id="a_Node000003"><a xlink:href="classGreenFHom3DPer2D.html#a6ab5b9db19bf30afa1828652d428d4a8" target="_top" xlink:title="Smoothed scalar kernel .">
<polygon fill="white" stroke="#666666" points="172.75,-72.12 0,-72.12 0,-51.38 172.75,-51.38 172.75,-72.12"/>
<text xml:space="preserve" text-anchor="middle" x="86.38" y="-58.62" font-family="Helvetica,sans-Serif" font-size="10.00">GreenFHom3DPer2D::Smoothed</text>
</a>
</g>
</g>
<!-- Node2&#45;&gt;Node3 -->
<g id="edge2_Node000002_Node000003" class="edge">
<title>Node2&#45;&gt;Node3</title>
<g id="a_edge2_Node000002_Node000003"><a xlink:title=" ">
<path fill="none" stroke="#63b8ff" d="M197.07,-61.75C189.03,-61.75 181,-61.75 173.14,-61.75"/>
<polygon fill="#63b8ff" stroke="#63b8ff" points="196.91,-65.25 206.91,-61.75 196.91,-58.25 196.91,-65.25"/>
</a>
</g>
</g>
</g>
</svg>
