<?xml version="1.0" encoding="UTF-8" standalone="no"?>
<!DOCTYPE svg PUBLIC "-//W3C//DTD SVG 1.1//EN"
 "http://www.w3.org/Graphics/SVG/1.1/DTD/svg11.dtd">
<!-- Generated by graphviz version 13.1.2 (20250809.0930)
 -->
<!-- Title: SimJob::LoadDipole Pages: 1 -->
<svg width="301pt" height="107pt"
 viewBox="0.00 0.00 301.00 107.00" xmlns="http://www.w3.org/2000/svg" xmlns:xlink="http://www.w3.org/1999/xlink">
<g id="graph0" class="graph" transform="scale(1 1) rotate(0) translate(4 102.75)">
<title>SimJob::LoadDipole</title>
<!-- Node1 -->
<g id="Node000001" class="node">
<title>Node1</title>
<g id="a_Node000001"><a xlink:title="Parse and load dipole excitation from .">
<polygon fill="#999999" stroke="#666666" points="110.5,-59.75 0,-59.75 0,-39 110.5,-39 110.5,-59.75"/>
<text xml:space="preserve" text-anchor="middle" x="55.25" y="-46.25" font-family="Helvetica,sans-Serif" font-size="10.00">SimJob::LoadDipole</text>
</a>
</g>
</g>
<!-- Node2 -->
<g id="Node000002" class="node">
<title>Node2</title>
<g id="a_Node000002"><a xlink:href="classDomain.html#a6a3c61914bab1ebbc02613a6ec8db802" target="_top" xlink:title="Add a Dipole excitation (ownership transferred to Domain).">
<polygon fill="white" stroke="#666666" points="275,-98.75 164.5,-98.75 164.5,-78 275,-78 275,-98.75"/>
<text xml:space="preserve" text-anchor="middle" x="219.75" y="-85.25" font-family="Helvetica,sans-Serif" font-size="10.00">Domain::AddDipole</text>
</a>
</g>
</g>
<!-- Node1&#45;&gt;Node2 -->
<g id="edge1_Node000001_Node000002" class="edge">
<title>Node1&#45;&gt;Node2</title>
<g id="a_edge1_Node000001_Node000002"><a xlink:title=" ">
<path fill="none" stroke="#63b8ff" d="M101.52,-60.24C120.37,-64.76 142.45,-70.06 162.34,-74.84"/>
<polygon fill="#63b8ff" stroke="#63b8ff" points="161.43,-78.22 171.97,-77.15 163.07,-71.41 161.43,-78.22"/>
</a>
</g>
</g>
<!-- Node3 -->
<g id="Node000003" class="node">
<title>Node3</title>
<g id="a_Node000003"><a xlink:href="classSimJob.html#ab3887eb9e217b1d6424ff85aec4b1793" target="_top" xlink:title="Find which domain contains a point.">
<polygon fill="white" stroke="#666666" points="293,-59.75 146.5,-59.75 146.5,-39 293,-39 293,-59.75"/>
<text xml:space="preserve" text-anchor="middle" x="219.75" y="-46.25" font-family="Helvetica,sans-Serif" font-size="10.00">SimJob::ContainingDomain</text>
</a>
</g>
</g>
<!-- Node1&#45;&gt;Node3 -->
<g id="edge2_Node000001_Node000003" class="edge">
<title>Node1&#45;&gt;Node3</title>
<g id="a_edge2_Node000001_Node000003"><a xlink:title=" ">
<path fill="none" stroke="#63b8ff" d="M110.81,-49.38C118.52,-49.38 126.59,-49.38 134.7,-49.38"/>
<polygon fill="#63b8ff" stroke="#63b8ff" points="134.63,-52.88 144.63,-49.38 134.63,-45.88 134.63,-52.88"/>
</a>
</g>
</g>
<!-- Node4 -->
<g id="Node000004" class="node">
<title>Node4</title>
<g id="a_Node000004"><a xlink:href="classDomain.html#a4ca094ed1d16b191f026d0c23e1fc75a" target="_top" xlink:title="Return this domain&#39;s integer index.">
<polygon fill="white" stroke="#666666" points="263.38,-20.75 176.12,-20.75 176.12,0 263.38,0 263.38,-20.75"/>
<text xml:space="preserve" text-anchor="middle" x="219.75" y="-7.25" font-family="Helvetica,sans-Serif" font-size="10.00">Domain::Index</text>
</a>
</g>
</g>
<!-- Node1&#45;&gt;Node4 -->
<g id="edge3_Node000001_Node000004" class="edge">
<title>Node1&#45;&gt;Node4</title>
<g id="a_edge3_Node000001_Node000004"><a xlink:title=" ">
<path fill="none" stroke="#63b8ff" d="M101.52,-38.51C121.09,-33.81 144.15,-28.28 164.62,-23.37"/>
<polygon fill="#63b8ff" stroke="#63b8ff" points="165.31,-26.8 174.21,-21.06 163.67,-19.99 165.31,-26.8"/>
</a>
</g>
</g>
</g>
</svg>
