<?xml version="1.0" encoding="UTF-8" standalone="no"?>
<!DOCTYPE svg PUBLIC "-//W3C//DTD SVG 1.1//EN"
 "http://www.w3.org/Graphics/SVG/1.1/DTD/svg11.dtd">
<!-- Generated by graphviz version 13.1.2 (20250809.0930)
 -->
<!-- Title: Domain::Epsilon Pages: 1 -->
<svg width="803pt" height="107pt"
 viewBox="0.00 0.00 803.00 107.00" xmlns="http://www.w3.org/2000/svg" xmlns:xlink="http://www.w3.org/1999/xlink">
<g id="graph0" class="graph" transform="scale(1 1) rotate(0) translate(4 102.75)">
<title>Domain::Epsilon</title>
<!-- Node1 -->
<g id="Node000001" class="node">
<title>Node1</title>
<g id="a_Node000001"><a xlink:title="Relative permittivity at a spatial location.">
<polygon fill="#999999" stroke="#666666" points="795,-78.75 699.5,-78.75 699.5,-58 795,-58 795,-78.75"/>
<text xml:space="preserve" text-anchor="middle" x="747.25" y="-65.25" font-family="Helvetica,sans-Serif" font-size="10.00">Domain::Epsilon</text>
</a>
</g>
</g>
<!-- Node2 -->
<g id="Node000002" class="node">
<title>Node2</title>
<g id="a_Node000002"><a xlink:href="classDomain.html#a1d339cb7979c5b2d03d069fc09b40696" target="_top" xlink:title="Secondary fields &#160;at a point.">
<polygon fill="white" stroke="#666666" points="663.5,-98.75 531.25,-98.75 531.25,-78 663.5,-78 663.5,-98.75"/>
<text xml:space="preserve" text-anchor="middle" x="597.38" y="-85.25" font-family="Helvetica,sans-Serif" font-size="10.00">Domain::SecFieldEandH</text>
</a>
</g>
</g>
<!-- Node1&#45;&gt;Node2 -->
<g id="edge1_Node000001_Node000002" class="edge">
<title>Node1&#45;&gt;Node2</title>
<g id="a_edge1_Node000001_Node000002"><a xlink:title=" ">
<path fill="none" stroke="#63b8ff" d="M687.81,-76.28C679.99,-77.34 671.93,-78.43 663.99,-79.5"/>
<polygon fill="#63b8ff" stroke="#63b8ff" points="688.11,-79.77 697.55,-74.96 687.18,-72.83 688.11,-79.77"/>
</a>
</g>
</g>
<!-- Node7 -->
<g id="Node000007" class="node">
<title>Node7</title>
<g id="a_Node000007"><a xlink:href="classDomain.html#a507d3690b3a17a9f01beb83a2d6b026e" target="_top" xlink:title="Secondary (scattered) magnetic field at a point from the solution vector.">
<polygon fill="white" stroke="#666666" points="651.5,-59.75 543.25,-59.75 543.25,-39 651.5,-39 651.5,-59.75"/>
<text xml:space="preserve" text-anchor="middle" x="597.38" y="-46.25" font-family="Helvetica,sans-Serif" font-size="10.00">Domain::SecFieldH</text>
</a>
</g>
</g>
<!-- Node1&#45;&gt;Node7 -->
<g id="edge6_Node000001_Node000007" class="edge">
<title>Node1&#45;&gt;Node7</title>
<g id="a_edge6_Node000001_Node000007"><a xlink:title=" ">
<path fill="none" stroke="#63b8ff" d="M687.87,-60.87C675.97,-59.35 663.51,-57.74 651.8,-56.24"/>
<polygon fill="#63b8ff" stroke="#63b8ff" points="687.19,-64.32 697.55,-62.12 688.08,-57.37 687.19,-64.32"/>
</a>
</g>
</g>
<!-- Node3 -->
<g id="Node000003" class="node">
<title>Node3</title>
<g id="a_Node000003"><a xlink:href="classSimJob.html#a24f10b7bb14c9181341d07a783e00214" target="_top" xlink:title="Return both , &#160;incident and secondary pairs at pos.">
<polygon fill="white" stroke="#666666" points="495.25,-98.75 384.75,-98.75 384.75,-78 495.25,-78 495.25,-98.75"/>
<text xml:space="preserve" text-anchor="middle" x="440" y="-85.25" font-family="Helvetica,sans-Serif" font-size="10.00">SimJob::EandHField</text>
</a>
</g>
</g>
<!-- Node2&#45;&gt;Node3 -->
<g id="edge2_Node000002_Node000003" class="edge">
<title>Node2&#45;&gt;Node3</title>
<g id="a_edge2_Node000002_Node000003"><a xlink:title=" ">
<path fill="none" stroke="#63b8ff" d="M519.53,-88.38C511.44,-88.38 503.33,-88.38 495.57,-88.38"/>
<polygon fill="#63b8ff" stroke="#63b8ff" points="519.42,-91.88 529.42,-88.38 519.42,-84.88 519.42,-91.88"/>
</a>
</g>
</g>
<!-- Node4 -->
<g id="Node000004" class="node">
<title>Node4</title>
<g id="a_Node000004"><a xlink:href="classSimJob.html#aa492cf9e3639f2dfa91e36364a76729a" target="_top" xlink:title="Thread worker to evaluate fields over posvec in parallel.">
<polygon fill="white" stroke="#666666" points="348.75,-78.75 212.75,-78.75 212.75,-58 348.75,-58 348.75,-78.75"/>
<text xml:space="preserve" text-anchor="middle" x="280.75" y="-65.25" font-family="Helvetica,sans-Serif" font-size="10.00">SimJob::FieldEvalParallel</text>
</a>
</g>
</g>
<!-- Node3&#45;&gt;Node4 -->
<g id="edge3_Node000003_Node000004" class="edge">
<title>Node3&#45;&gt;Node4</title>
<g id="a_edge3_Node000003_Node000004"><a xlink:title=" ">
<path fill="none" stroke="#63b8ff" d="M373.06,-79.99C365.19,-78.99 357.14,-77.96 349.24,-76.96"/>
<polygon fill="#63b8ff" stroke="#63b8ff" points="372.58,-83.46 382.94,-81.25 373.46,-76.51 372.58,-83.46"/>
</a>
</g>
</g>
<!-- Node5 -->
<g id="Node000005" class="node">
<title>Node5</title>
<g id="a_Node000005"><a xlink:href="classSimJob.html#a20b37e2e0aa2502a3ec465a5705b1774" target="_top" xlink:title="Evaluate fields on a set of points read from a file.">
<polygon fill="white" stroke="#666666" points="176.75,-78.75 76.75,-78.75 76.75,-58 176.75,-58 176.75,-78.75"/>
<text xml:space="preserve" text-anchor="middle" x="126.75" y="-65.25" font-family="Helvetica,sans-Serif" font-size="10.00">SimJob::FieldEval</text>
</a>
</g>
</g>
<!-- Node4&#45;&gt;Node5 -->
<g id="edge4_Node000004_Node000005" class="edge">
<title>Node4&#45;&gt;Node5</title>
<g id="a_edge4_Node000004_Node000005"><a xlink:title=" ">
<path fill="none" stroke="#63b8ff" d="M201.4,-68.38C193.16,-68.38 184.94,-68.38 177.16,-68.38"/>
<polygon fill="#63b8ff" stroke="#63b8ff" points="201.12,-71.88 211.12,-68.38 201.12,-64.88 201.12,-71.88"/>
</a>
</g>
</g>
<!-- Node6 -->
<g id="Node000006" class="node">
<title>Node6</title>
<g id="a_Node000006"><a xlink:href="main_8cpp.html#a0ddf1224851353fc92bfbff6f499fa97" target="_top" xlink:title="Main driver routine for the HELIOS SIE simulation program.">
<polygon fill="white" stroke="#666666" points="40.75,-78.75 0,-78.75 0,-58 40.75,-58 40.75,-78.75"/>
<text xml:space="preserve" text-anchor="middle" x="20.38" y="-65.25" font-family="Helvetica,sans-Serif" font-size="10.00">main</text>
</a>
</g>
</g>
<!-- Node5&#45;&gt;Node6 -->
<g id="edge5_Node000005_Node000006" class="edge">
<title>Node5&#45;&gt;Node6</title>
<g id="a_edge5_Node000005_Node000006"><a xlink:title=" ">
<path fill="none" stroke="#63b8ff" d="M64.97,-68.38C56.42,-68.38 48.18,-68.38 41.22,-68.38"/>
<polygon fill="#63b8ff" stroke="#63b8ff" points="64.8,-71.88 74.8,-68.38 64.8,-64.88 64.8,-71.88"/>
</a>
</g>
</g>
<!-- Node8 -->
<g id="Node000008" class="node">
<title>Node8</title>
<g id="a_Node000008"><a xlink:href="classSimJob.html#ae9e4bc91d7636bf3e7fd151c870cd01f" target="_top" xlink:title="Incident and secondary &#160;at pos (domain auto&#45;detected).">
<polygon fill="white" stroke="#666666" points="483.25,-59.75 396.75,-59.75 396.75,-39 483.25,-39 483.25,-59.75"/>
<text xml:space="preserve" text-anchor="middle" x="440" y="-46.25" font-family="Helvetica,sans-Serif" font-size="10.00">SimJob::HField</text>
</a>
</g>
</g>
<!-- Node7&#45;&gt;Node8 -->
<g id="edge7_Node000007_Node000008" class="edge">
<title>Node7&#45;&gt;Node8</title>
<g id="a_edge7_Node000007_Node000008"><a xlink:title=" ">
<path fill="none" stroke="#63b8ff" d="M531.74,-49.38C515.38,-49.38 498.22,-49.38 483.29,-49.38"/>
<polygon fill="#63b8ff" stroke="#63b8ff" points="531.39,-52.88 541.39,-49.38 531.39,-45.88 531.39,-52.88"/>
</a>
</g>
</g>
<!-- Node9 -->
<g id="Node000009" class="node">
<title>Node9</title>
<g id="a_Node000009"><a xlink:href="classSimJob.html#ab9314ccd802a5a430e96e97439fc2459" target="_top" xlink:title="Incident and secondary &#160;at pos with known containing domain.">
<polygon fill="white" stroke="#666666" points="483.25,-20.75 396.75,-20.75 396.75,0 483.25,0 483.25,-20.75"/>
<text xml:space="preserve" text-anchor="middle" x="440" y="-7.25" font-family="Helvetica,sans-Serif" font-size="10.00">SimJob::HField</text>
</a>
</g>
</g>
<!-- Node7&#45;&gt;Node9 -->
<g id="edge9_Node000007_Node000009" class="edge">
<title>Node7&#45;&gt;Node9</title>
<g id="a_edge9_Node000007_Node000009"><a xlink:title=" ">
<path fill="none" stroke="#63b8ff" d="M542.08,-35.75C522.88,-30.93 501.59,-25.58 483.51,-21.05"/>
<polygon fill="#63b8ff" stroke="#63b8ff" points="541.08,-39.1 551.63,-38.14 542.78,-32.31 541.08,-39.1"/>
</a>
</g>
</g>
<!-- Node8&#45;&gt;Node4 -->
<g id="edge8_Node000008_Node000004" class="edge">
<title>Node8&#45;&gt;Node4</title>
<g id="a_edge8_Node000008_Node000004"><a xlink:title=" ">
<path fill="none" stroke="#63b8ff" d="M385.18,-55.88C373.6,-57.28 361.23,-58.77 349.21,-60.22"/>
<polygon fill="#63b8ff" stroke="#63b8ff" points="385.44,-59.37 394.94,-54.7 384.6,-52.42 385.44,-59.37"/>
</a>
</g>
</g>
</g>
</svg>
