<?xml version="1.0" encoding="UTF-8" standalone="no"?>
<!DOCTYPE svg PUBLIC "-//W3C//DTD SVG 1.1//EN"
 "http://www.w3.org/Graphics/SVG/1.1/DTD/svg11.dtd">
<!-- Generated by graphviz version 13.1.2 (20250809.0930)
 -->
<!-- Title: GreenFHom3DPer2D::GradientEwaldSpectral Pages: 1 -->
<svg width="578pt" height="198pt"
 viewBox="0.00 0.00 578.00 198.00" xmlns="http://www.w3.org/2000/svg" xmlns:xlink="http://www.w3.org/1999/xlink">
<g id="graph0" class="graph" transform="scale(1 1) rotate(0) translate(4 193.5)">
<title>GreenFHom3DPer2D::GradientEwaldSpectral</title>
<!-- Node1 -->
<g id="Node000001" class="node">
<title>Node1</title>
<g id="a_Node000001"><a xlink:title="Spectral part of the source&#45;gradient .">
<polygon fill="#999999" stroke="#666666" points="570,-111.5 404.75,-111.5 404.75,-78 570,-78 570,-111.5"/>
<text xml:space="preserve" text-anchor="start" x="412.75" y="-98" font-family="Helvetica,sans-Serif" font-size="10.00">GreenFHom3DPer2D::Gradient</text>
<text xml:space="preserve" text-anchor="middle" x="487.38" y="-85.25" font-family="Helvetica,sans-Serif" font-size="10.00">EwaldSpectral</text>
</a>
</g>
</g>
<!-- Node2 -->
<g id="Node000002" class="node">
<title>Node2</title>
<g id="a_Node000002"><a xlink:href="classGreenFHom3DPer2D.html#afdc08576760ed0ae9a61dc378a7faac3" target="_top" xlink:title="Ewald&#45;summed source&#45;gradient.">
<polygon fill="white" stroke="#666666" points="368.75,-189.5 203.5,-189.5 203.5,-156 368.75,-156 368.75,-189.5"/>
<text xml:space="preserve" text-anchor="start" x="211.5" y="-176" font-family="Helvetica,sans-Serif" font-size="10.00">GreenFHom3DPer2D::Gradient</text>
<text xml:space="preserve" text-anchor="middle" x="286.12" y="-163.25" font-family="Helvetica,sans-Serif" font-size="10.00">Ewald</text>
</a>
</g>
</g>
<!-- Node1&#45;&gt;Node2 -->
<g id="edge1_Node000001_Node000002" class="edge">
<title>Node1&#45;&gt;Node2</title>
<g id="a_edge1_Node000001_Node000002"><a xlink:title=" ">
<path fill="none" stroke="#63b8ff" d="M439.8,-116.73C418.38,-126.47 392.5,-137.75 368.75,-146.75 360.68,-149.81 352.08,-152.81 343.6,-155.64"/>
<polygon fill="#63b8ff" stroke="#63b8ff" points="441.23,-119.92 448.86,-112.57 438.31,-113.56 441.23,-119.92"/>
</a>
</g>
</g>
<!-- Node4 -->
<g id="Node000004" class="node">
<title>Node4</title>
<g id="a_Node000004"><a xlink:href="classGreenFHom3DPer2D.html#a86d2cbdfe3ecb724651159902fabcdad" target="_top" xlink:title="Ewald&#45;summed smoothed source&#45;gradient.">
<polygon fill="white" stroke="#666666" points="368.75,-137.5 203.5,-137.5 203.5,-104 368.75,-104 368.75,-137.5"/>
<text xml:space="preserve" text-anchor="start" x="211.5" y="-124" font-family="Helvetica,sans-Serif" font-size="10.00">GreenFHom3DPer2D::Gradient</text>
<text xml:space="preserve" text-anchor="middle" x="286.12" y="-111.25" font-family="Helvetica,sans-Serif" font-size="10.00">EwaldSmoothed</text>
</a>
</g>
</g>
<!-- Node1&#45;&gt;Node4 -->
<g id="edge3_Node000001_Node000004" class="edge">
<title>Node1&#45;&gt;Node4</title>
<g id="a_edge3_Node000001_Node000004"><a xlink:title=" ">
<path fill="none" stroke="#63b8ff" d="M393.15,-106.92C385.09,-107.97 376.99,-109.02 369.03,-110.06"/>
<polygon fill="#63b8ff" stroke="#63b8ff" points="393.51,-110.4 402.97,-105.63 392.6,-103.46 393.51,-110.4"/>
</a>
</g>
</g>
<!-- Node6 -->
<g id="Node000006" class="node">
<title>Node6</title>
<g id="a_Node000006"><a xlink:href="classGreenFHom3DPer2D.html#a410f5349268917cf86215e766118032c" target="_top" xlink:title="Smoothed source&#45;gradient for a specific translation.">
<polygon fill="white" stroke="#666666" points="368.75,-85.5 203.5,-85.5 203.5,-52 368.75,-52 368.75,-85.5"/>
<text xml:space="preserve" text-anchor="start" x="211.5" y="-72" font-family="Helvetica,sans-Serif" font-size="10.00">GreenFHom3DPer2D::Gradient</text>
<text xml:space="preserve" text-anchor="middle" x="286.12" y="-59.25" font-family="Helvetica,sans-Serif" font-size="10.00">SmoothedTranslate</text>
</a>
</g>
</g>
<!-- Node1&#45;&gt;Node6 -->
<g id="edge5_Node000001_Node000006" class="edge">
<title>Node1&#45;&gt;Node6</title>
<g id="a_edge5_Node000001_Node000006"><a xlink:title=" ">
<path fill="none" stroke="#63b8ff" d="M393.15,-82.58C385.09,-81.53 376.99,-80.48 369.03,-79.44"/>
<polygon fill="#63b8ff" stroke="#63b8ff" points="392.6,-86.04 402.97,-83.87 393.51,-79.1 392.6,-86.04"/>
</a>
</g>
</g>
<!-- Node8 -->
<g id="Node000008" class="node">
<title>Node8</title>
<g id="a_Node000008"><a xlink:href="classGreenFHom3DPer2D.html#abfe000753f5712d72cef880cd4a64b3a" target="_top" xlink:title="Source&#45;gradient for a specific translation.">
<polygon fill="white" stroke="#666666" points="368.75,-33.5 203.5,-33.5 203.5,0 368.75,0 368.75,-33.5"/>
<text xml:space="preserve" text-anchor="start" x="211.5" y="-20" font-family="Helvetica,sans-Serif" font-size="10.00">GreenFHom3DPer2D::Gradient</text>
<text xml:space="preserve" text-anchor="middle" x="286.12" y="-7.25" font-family="Helvetica,sans-Serif" font-size="10.00">Translate</text>
</a>
</g>
</g>
<!-- Node1&#45;&gt;Node8 -->
<g id="edge7_Node000001_Node000008" class="edge">
<title>Node1&#45;&gt;Node8</title>
<g id="a_edge7_Node000001_Node000008"><a xlink:title=" ">
<path fill="none" stroke="#63b8ff" d="M439.8,-72.77C418.38,-63.03 392.5,-51.75 368.75,-42.75 360.68,-39.69 352.08,-36.69 343.6,-33.86"/>
<polygon fill="#63b8ff" stroke="#63b8ff" points="438.31,-75.94 448.86,-76.93 441.23,-69.58 438.31,-75.94"/>
</a>
</g>
</g>
<!-- Node3 -->
<g id="Node000003" class="node">
<title>Node3</title>
<g id="a_Node000003"><a xlink:href="classGreenFHom3DPer2D.html#adff724f327912641a20c99fa4c9bb464" target="_top" xlink:title="Source&#45;gradient .">
<polygon fill="white" stroke="#666666" points="166.38,-183.12 1.12,-183.12 1.12,-162.38 166.38,-162.38 166.38,-183.12"/>
<text xml:space="preserve" text-anchor="middle" x="83.75" y="-169.62" font-family="Helvetica,sans-Serif" font-size="10.00">GreenFHom3DPer2D::Gradient</text>
</a>
</g>
</g>
<!-- Node2&#45;&gt;Node3 -->
<g id="edge2_Node000002_Node000003" class="edge">
<title>Node2&#45;&gt;Node3</title>
<g id="a_edge2_Node000002_Node000003"><a xlink:title=" ">
<path fill="none" stroke="#63b8ff" d="M191.72,-172.75C183.36,-172.75 174.95,-172.75 166.7,-172.75"/>
<polygon fill="#63b8ff" stroke="#63b8ff" points="191.53,-176.25 201.53,-172.75 191.53,-169.25 191.53,-176.25"/>
</a>
</g>
</g>
<!-- Node5 -->
<g id="Node000005" class="node">
<title>Node5</title>
<g id="a_Node000005"><a xlink:href="classGreenFHom3DPer2D.html#accc5e668a1b137a5279747db2ef0d560" target="_top" xlink:title="Smoothed source&#45;gradient .">
<polygon fill="white" stroke="#666666" points="166.38,-137.5 1.12,-137.5 1.12,-104 166.38,-104 166.38,-137.5"/>
<text xml:space="preserve" text-anchor="start" x="9.12" y="-124" font-family="Helvetica,sans-Serif" font-size="10.00">GreenFHom3DPer2D::Gradient</text>
<text xml:space="preserve" text-anchor="middle" x="83.75" y="-111.25" font-family="Helvetica,sans-Serif" font-size="10.00">Smoothed</text>
</a>
</g>
</g>
<!-- Node4&#45;&gt;Node5 -->
<g id="edge4_Node000004_Node000005" class="edge">
<title>Node4&#45;&gt;Node5</title>
<g id="a_edge4_Node000004_Node000005"><a xlink:title=" ">
<path fill="none" stroke="#63b8ff" d="M191.72,-120.75C183.36,-120.75 174.95,-120.75 166.7,-120.75"/>
<polygon fill="#63b8ff" stroke="#63b8ff" points="191.53,-124.25 201.53,-120.75 191.53,-117.25 191.53,-124.25"/>
</a>
</g>
</g>
<!-- Node7 -->
<g id="Node000007" class="node">
<title>Node7</title>
<g id="a_Node000007"><a xlink:href="classGreenFHom3DPer2D.html#aadb534ef4509422e6f3e78a0e3999758" target="_top" xlink:title="term at an observation point.">
<polygon fill="white" stroke="#666666" points="167.5,-59.5 0,-59.5 0,-26 167.5,-26 167.5,-59.5"/>
<text xml:space="preserve" text-anchor="start" x="8" y="-46" font-family="Helvetica,sans-Serif" font-size="10.00">GreenFHom3DPer2D::Integrate</text>
<text xml:space="preserve" text-anchor="middle" x="83.75" y="-33.25" font-family="Helvetica,sans-Serif" font-size="10.00">Kappa</text>
</a>
</g>
</g>
<!-- Node6&#45;&gt;Node7 -->
<g id="edge6_Node000006_Node000007" class="edge">
<title>Node6&#45;&gt;Node7</title>
<g id="a_edge6_Node000006_Node000007"><a xlink:title=" ">
<path fill="none" stroke="#63b8ff" d="M191.85,-56.65C183.89,-55.61 175.87,-54.57 168,-53.55"/>
<polygon fill="#63b8ff" stroke="#63b8ff" points="191.18,-60.09 201.55,-57.91 192.08,-53.15 191.18,-60.09"/>
</a>
</g>
</g>
<!-- Node8&#45;&gt;Node7 -->
<g id="edge8_Node000008_Node000007" class="edge">
<title>Node8&#45;&gt;Node7</title>
<g id="a_edge8_Node000008_Node000007"><a xlink:title=" ">
<path fill="none" stroke="#63b8ff" d="M191.85,-28.85C183.89,-29.89 175.87,-30.93 168,-31.95"/>
<polygon fill="#63b8ff" stroke="#63b8ff" points="192.08,-32.35 201.55,-27.59 191.18,-25.41 192.08,-32.35"/>
</a>
</g>
</g>
</g>
</svg>
