<?xml version="1.0" encoding="UTF-8" standalone="no"?>
<!DOCTYPE svg PUBLIC "-//W3C//DTD SVG 1.1//EN"
 "http://www.w3.org/Graphics/SVG/1.1/DTD/svg11.dtd">
<!-- Generated by graphviz version 13.1.2 (20250809.0930)
 -->
<!-- Title: GreenFHom3DPer2D::EwaldSpatialSmoothed Pages: 1 -->
<svg width="464pt" height="86pt"
 viewBox="0.00 0.00 464.00 86.00" xmlns="http://www.w3.org/2000/svg" xmlns:xlink="http://www.w3.org/1999/xlink">

<svg id="main" version="1.1" xmlns="http://www.w3.org/2000/svg" xmlns:xlink="http://www.w3.org/1999/xlink" xml:space="preserve">

<style type="text/css"><![CDATA[
.node, .edge {opacity: 0.7;}
.node.selected, .edge.selected {opacity: 1;}
.edge:hover path { stroke: red; }
.edge:hover polygon { stroke: red; fill: red; }
]]></style>
<script type="application/ecmascript" xlink:href="svg.min.js"/>
<svg id="graph" class="graph">
<g id="graph0" class="graph" transform="scale(1 1) rotate(0) translate(4 81.75)">
<title>GreenFHom3DPer2D::EwaldSpatialSmoothed</title>
<!-- Node1 -->
<g id="Node000001" class="node">
<title>Node1</title>
<g id="a_Node000001"><a xlink:title="Spatial part for the smoothed scalar kernel .">
<polygon fill="#999999" stroke="#666666" points="186.25,-55.12 0,-55.12 0,-21.62 186.25,-21.62 186.25,-55.12"/>
<text xml:space="preserve" text-anchor="start" x="8" y="-41.62" font-family="Helvetica,sans-Serif" font-size="10.00">GreenFHom3DPer2D::EwaldSpatial</text>
<text xml:space="preserve" text-anchor="middle" x="93.12" y="-28.88" font-family="Helvetica,sans-Serif" font-size="10.00">Smoothed</text>
</a>
</g>
</g>
<!-- Node2 -->
<g id="Node000002" class="node">
<title>Node2</title>
<g id="a_Node000002"><a xlink:href="classGreenF.html#abf00726011a4eca4109bc43125218d30" target="_top" xlink:title="Evaluate erfc via the 2D lookup table if available.">
<polygon fill="white" stroke="#666666" points="309.5,-48.75 222.25,-48.75 222.25,-28 309.5,-28 309.5,-48.75"/>
<text xml:space="preserve" text-anchor="middle" x="265.88" y="-35.25" font-family="Helvetica,sans-Serif" font-size="10.00">GreenF::EvErfc</text>
</a>
</g>
</g>
<!-- Node1&#45;&gt;Node2 -->
<g id="edge1_Node000001_Node000002" class="edge">
<title>Node1&#45;&gt;Node2</title>
<g id="a_edge1_Node000001_Node000002"><a xlink:title=" ">
<path fill="none" stroke="#63b8ff" d="M186.5,-38.38C194.74,-38.38 202.9,-38.38 210.66,-38.38"/>
<polygon fill="#63b8ff" stroke="#63b8ff" points="210.57,-41.88 220.57,-38.38 210.57,-34.88 210.57,-41.88"/>
</a>
</g>
</g>
<!-- Node3 -->
<g id="Node000003" class="node">
<title>Node3</title>
<g id="a_Node000003"><a xlink:href="mathFunctions_8cpp.html#a7916c6b62310fe9cf38ec2a2890aaad4" target="_top" xlink:title="Complementary error function for complex arguments.">
<polygon fill="white" stroke="#666666" points="385.5,-77.75 345.5,-77.75 345.5,-57 385.5,-57 385.5,-77.75"/>
<text xml:space="preserve" text-anchor="middle" x="365.5" y="-64.25" font-family="Helvetica,sans-Serif" font-size="10.00">cerfc</text>
</a>
</g>
</g>
<!-- Node2&#45;&gt;Node3 -->
<g id="edge2_Node000002_Node000003" class="edge">
<title>Node2&#45;&gt;Node3</title>
<g id="a_edge2_Node000002_Node000003"><a xlink:title=" ">
<path fill="none" stroke="#63b8ff" d="M303.23,-49.17C313.44,-52.21 324.42,-55.47 334.24,-58.39"/>
<polygon fill="#63b8ff" stroke="#63b8ff" points="333.07,-61.69 343.65,-61.18 335.06,-54.98 333.07,-61.69"/>
</a>
</g>
</g>
<!-- Node5 -->
<g id="Node000005" class="node">
<title>Node5</title>
<g id="a_Node000005"><a xlink:href="Domain_8cpp.html#aafa3e4fa6318b2f8740f4dbd50c367e5" target="_top" xlink:title="Extract the real part of each component of a complex 3&#45;vector.">
<polygon fill="white" stroke="#666666" points="382.88,-20.75 348.12,-20.75 348.12,0 382.88,0 382.88,-20.75"/>
<text xml:space="preserve" text-anchor="middle" x="365.5" y="-7.25" font-family="Helvetica,sans-Serif" font-size="10.00">real</text>
</a>
</g>
</g>
<!-- Node2&#45;&gt;Node5 -->
<g id="edge4_Node000002_Node000005" class="edge">
<title>Node2&#45;&gt;Node5</title>
<g id="a_edge4_Node000002_Node000005"><a xlink:title=" ">
<path fill="none" stroke="#63b8ff" d="M304.62,-27.55C315.34,-24.47 326.81,-21.18 336.82,-18.31"/>
<polygon fill="#63b8ff" stroke="#63b8ff" points="337.65,-21.72 346.3,-15.59 335.72,-14.99 337.65,-21.72"/>
</a>
</g>
</g>
<!-- Node4 -->
<g id="Node000004" class="node">
<title>Node4</title>
<g id="a_Node000004"><a xlink:href="mathFunctions_8cpp.html#abc57cde75234d7e165a9ebcdb45f2c29" target="_top" xlink:title="Error function for complex arguments.">
<polygon fill="white" stroke="#666666" points="456.25,-77.75 421.5,-77.75 421.5,-57 456.25,-57 456.25,-77.75"/>
<text xml:space="preserve" text-anchor="middle" x="438.88" y="-64.25" font-family="Helvetica,sans-Serif" font-size="10.00">cerf</text>
</a>
</g>
</g>
<!-- Node3&#45;&gt;Node4 -->
<g id="edge3_Node000003_Node000004" class="edge">
<title>Node3&#45;&gt;Node4</title>
<g id="a_edge3_Node000003_Node000004"><a xlink:title=" ">
<path fill="none" stroke="#63b8ff" d="M385.63,-67.38C393.06,-67.38 401.73,-67.38 409.84,-67.38"/>
<polygon fill="#63b8ff" stroke="#63b8ff" points="409.61,-70.88 419.61,-67.38 409.61,-63.88 409.61,-70.88"/>
</a>
</g>
</g>
<!-- Node5&#45;&gt;Node5 -->
<g id="edge5_Node000005_Node000005" class="edge">
<title>Node5&#45;&gt;Node5</title>
<g id="a_edge5_Node000005_Node000005"><a xlink:title=" ">
<path fill="none" stroke="#63b8ff" d="M353.68,-21.15C348.95,-29.81 352.89,-38.75 365.5,-38.75 372.2,-38.75 376.45,-36.23 378.26,-32.56"/>
<polygon fill="#63b8ff" stroke="#63b8ff" points="381.75,-32.34 377.45,-22.66 374.78,-32.91 381.75,-32.34"/>
</a>
</g>
</g>
</g>
</svg>
</svg>

<style type='text/css'>
<![CDATA[
[data-mouse-over-selected='false'] { opacity: 0.7; }
[data-mouse-over-selected='true']  { opacity: 1.0; }
]]>
</style>
<script type="application/ecmascript"><![CDATA[
document.addEventListener('DOMContentLoaded', (event) => {
  highlightEdges();
  highlightAdjacentNodes();
});
]]></script>
</svg>
