<?xml version="1.0" encoding="UTF-8" standalone="no"?>
<!DOCTYPE svg PUBLIC "-//W3C//DTD SVG 1.1//EN"
 "http://www.w3.org/Graphics/SVG/1.1/DTD/svg11.dtd">
<!-- Generated by graphviz version 13.1.2 (20250809.0930)
 -->
<!-- Title: LookupTableBin::LookupTableBin Pages: 1 -->
<svg width="261pt" height="47pt"
 viewBox="0.00 0.00 261.00 47.00" xmlns="http://www.w3.org/2000/svg" xmlns:xlink="http://www.w3.org/1999/xlink">
<g id="graph0" class="graph" transform="scale(1 1) rotate(0) translate(4 42.75)">
<title>LookupTableBin::LookupTableBin</title>
<!-- Node1 -->
<g id="Node000001" class="node">
<title>Node1</title>
<g id="a_Node000001"><a xlink:title="Construct a LookupTableBin from a binary file.">
<polygon fill="#999999" stroke="#666666" points="173.5,-20.75 0,-20.75 0,0 173.5,0 173.5,-20.75"/>
<text xml:space="preserve" text-anchor="middle" x="86.75" y="-7.25" font-family="Helvetica,sans-Serif" font-size="10.00">LookupTableBin::LookupTableBin</text>
</a>
</g>
</g>
<!-- Node2 -->
<g id="Node000002" class="node">
<title>Node2</title>
<g id="a_Node000002"><a xlink:href="Domain_8cpp.html#aafa3e4fa6318b2f8740f4dbd50c367e5" target="_top" xlink:title="Extract the real part of each component of a complex 3&#45;vector.">
<polygon fill="white" stroke="#666666" points="244.25,-20.75 209.5,-20.75 209.5,0 244.25,0 244.25,-20.75"/>
<text xml:space="preserve" text-anchor="middle" x="226.88" y="-7.25" font-family="Helvetica,sans-Serif" font-size="10.00">real</text>
</a>
</g>
</g>
<!-- Node1&#45;&gt;Node2 -->
<g id="edge1_Node000001_Node000002" class="edge">
<title>Node1&#45;&gt;Node2</title>
<g id="a_edge1_Node000001_Node000002"><a xlink:title=" ">
<path fill="none" stroke="#63b8ff" d="M173.66,-10.38C182.37,-10.38 190.71,-10.38 198.06,-10.38"/>
<polygon fill="#63b8ff" stroke="#63b8ff" points="197.88,-13.88 207.88,-10.38 197.88,-6.88 197.88,-13.88"/>
</a>
</g>
</g>
<!-- Node2&#45;&gt;Node2 -->
<g id="edge2_Node000002_Node000002" class="edge">
<title>Node2&#45;&gt;Node2</title>
<g id="a_edge2_Node000002_Node000002"><a xlink:title=" ">
<path fill="none" stroke="#63b8ff" d="M209.38,-17.36C193.4,-26.97 199.23,-38.75 226.88,-38.75 247.17,-38.75 255.71,-32.4 252.48,-25.22"/>
<polygon fill="#63b8ff" stroke="#63b8ff" points="255.07,-22.85 245.45,-18.41 250.2,-27.88 255.07,-22.85"/>
</a>
</g>
</g>
</g>
</svg>
