<?xml version="1.0" encoding="UTF-8" standalone="no"?>
<!DOCTYPE svg PUBLIC "-//W3C//DTD SVG 1.1//EN"
 "http://www.w3.org/Graphics/SVG/1.1/DTD/svg11.dtd">
<!-- Generated by graphviz version 13.1.2 (20250809.0930)
 -->
<!-- Title: GreenFLayered3D::FillGreenFTable Pages: 1 -->
<svg width="344pt" height="184pt"
 viewBox="0.00 0.00 344.00 184.00" xmlns="http://www.w3.org/2000/svg" xmlns:xlink="http://www.w3.org/1999/xlink">
<g id="graph0" class="graph" transform="scale(1 1) rotate(0) translate(4 180.12)">
<title>GreenFLayered3D::FillGreenFTable</title>
<!-- Node1 -->
<g id="Node000001" class="node">
<title>Node1</title>
<g id="a_Node000001"><a xlink:title="Fill all interpolation tables with Green&#39;s function values.">
<polygon fill="#999999" stroke="#666666" points="153.25,-111.5 0,-111.5 0,-78 153.25,-78 153.25,-111.5"/>
<text xml:space="preserve" text-anchor="start" x="8" y="-98" font-family="Helvetica,sans-Serif" font-size="10.00">GreenFLayered3D::FillGreen</text>
<text xml:space="preserve" text-anchor="middle" x="76.62" y="-85.25" font-family="Helvetica,sans-Serif" font-size="10.00">FTable</text>
</a>
</g>
</g>
<!-- Node2 -->
<g id="Node000002" class="node">
<title>Node2</title>
<g id="a_Node000002"><a xlink:href="classGreenFLayered3D.html#a412af9133282962ec12affb1509c6507" target="_top" xlink:title="Fill inter&#45;layer tables between two different layers.">
<polygon fill="white" stroke="#666666" points="335.75,-176.12 189.25,-176.12 189.25,-155.38 335.75,-155.38 335.75,-176.12"/>
<text xml:space="preserve" text-anchor="middle" x="262.5" y="-162.62" font-family="Helvetica,sans-Serif" font-size="10.00">GreenFLayered3D::FillInter</text>
</a>
</g>
</g>
<!-- Node1&#45;&gt;Node2 -->
<g id="edge1_Node000001_Node000002" class="edge">
<title>Node1&#45;&gt;Node2</title>
<g id="a_edge1_Node000001_Node000002"><a xlink:title=" ">
<path fill="none" stroke="#63b8ff" d="M110.19,-111.81C132.11,-122.82 161.9,-136.87 189.25,-146.75 194.18,-148.53 199.34,-150.22 204.56,-151.8"/>
<polygon fill="#63b8ff" stroke="#63b8ff" points="203.22,-155.06 213.8,-154.48 205.17,-148.34 203.22,-155.06"/>
</a>
</g>
</g>
<!-- Node3 -->
<g id="Node000003" class="node">
<title>Node3</title>
<g id="a_Node000003"><a xlink:href="classGreenFLayered3D.html#a0cb3c4922d84b741f69e6a8996ebd5d5" target="_top" xlink:title="Fill intra&#45;layer tables for internal layers (plus/minus sides).">
<polygon fill="white" stroke="#666666" points="335.75,-137.5 189.25,-137.5 189.25,-104 335.75,-104 335.75,-137.5"/>
<text xml:space="preserve" text-anchor="start" x="197.25" y="-124" font-family="Helvetica,sans-Serif" font-size="10.00">GreenFLayered3D::FillIntra</text>
<text xml:space="preserve" text-anchor="middle" x="262.5" y="-111.25" font-family="Helvetica,sans-Serif" font-size="10.00">Inside</text>
</a>
</g>
</g>
<!-- Node1&#45;&gt;Node3 -->
<g id="edge2_Node000001_Node000003" class="edge">
<title>Node1&#45;&gt;Node3</title>
<g id="a_edge2_Node000001_Node000003"><a xlink:title=" ">
<path fill="none" stroke="#63b8ff" d="M153.74,-105.51C161.67,-106.63 169.75,-107.78 177.75,-108.91"/>
<polygon fill="#63b8ff" stroke="#63b8ff" points="177.1,-112.35 187.49,-110.28 178.08,-105.42 177.1,-112.35"/>
</a>
</g>
</g>
<!-- Node4 -->
<g id="Node000004" class="node">
<title>Node4</title>
<g id="a_Node000004"><a xlink:href="classGreenFLayered3D.html#abe83b87d2228f9ad198e2924d841682d" target="_top" xlink:title="Fill intra&#45;layer tables for bottom/top half&#45;spaces.">
<polygon fill="white" stroke="#666666" points="335.75,-85.5 189.25,-85.5 189.25,-52 335.75,-52 335.75,-85.5"/>
<text xml:space="preserve" text-anchor="start" x="197.25" y="-72" font-family="Helvetica,sans-Serif" font-size="10.00">GreenFLayered3D::FillIntra</text>
<text xml:space="preserve" text-anchor="middle" x="262.5" y="-59.25" font-family="Helvetica,sans-Serif" font-size="10.00">TopBottom</text>
</a>
</g>
</g>
<!-- Node1&#45;&gt;Node4 -->
<g id="edge3_Node000001_Node000004" class="edge">
<title>Node1&#45;&gt;Node4</title>
<g id="a_edge3_Node000001_Node000004"><a xlink:title=" ">
<path fill="none" stroke="#63b8ff" d="M153.74,-83.99C161.67,-82.87 169.75,-81.72 177.75,-80.59"/>
<polygon fill="#63b8ff" stroke="#63b8ff" points="178.08,-84.08 187.49,-79.22 177.1,-77.15 178.08,-84.08"/>
</a>
</g>
</g>
<!-- Node5 -->
<g id="Node000005" class="node">
<title>Node5</title>
<g id="a_Node000005"><a xlink:href="classGreenFLayered3D.html#a41c1370112d040a3dc4c44a5853022ed" target="_top" xlink:title="Fresnel reflection/transmission at interface (delegates to utils).">
<polygon fill="white" stroke="#666666" points="335,-33.5 190,-33.5 190,0 335,0 335,-33.5"/>
<text xml:space="preserve" text-anchor="start" x="198" y="-20" font-family="Helvetica,sans-Serif" font-size="10.00">GreenFLayered3D::Fresnel</text>
<text xml:space="preserve" text-anchor="middle" x="262.5" y="-7.25" font-family="Helvetica,sans-Serif" font-size="10.00">Coeff</text>
</a>
</g>
</g>
<!-- Node1&#45;&gt;Node5 -->
<g id="edge4_Node000001_Node000005" class="edge">
<title>Node1&#45;&gt;Node5</title>
<g id="a_edge4_Node000001_Node000005"><a xlink:title=" ">
<path fill="none" stroke="#63b8ff" d="M112.46,-77.53C134.29,-66.99 163.16,-53.5 189.25,-42.75 193.11,-41.16 197.11,-39.57 201.16,-38"/>
<polygon fill="#63b8ff" stroke="#63b8ff" points="202.39,-41.28 210.5,-34.46 199.91,-34.73 202.39,-41.28"/>
</a>
</g>
</g>
</g>
</svg>
