<?xml version="1.0" encoding="UTF-8" standalone="no"?>
<!DOCTYPE svg PUBLIC "-//W3C//DTD SVG 1.1//EN"
 "http://www.w3.org/Graphics/SVG/1.1/DTD/svg11.dtd">
<!-- Generated by graphviz version 13.1.2 (20250809.0930)
 -->
<!-- Title: PlaneWave::IntegrateLayeredEandH Pages: 1 -->
<!--zoomable 164 -->

<svg id="main" version="1.1" xmlns="http://www.w3.org/2000/svg" xmlns:xlink="http://www.w3.org/1999/xlink" xml:space="preserve" onload="init(evt)">

<style type="text/css"><![CDATA[
.node, .edge {opacity: 0.7;}
.node.selected, .edge.selected {opacity: 1;}
.edge:hover path { stroke: red; }
.edge:hover polygon { stroke: red; fill: red; }
]]></style>

<defs>
  <circle id="rim" cx="0" cy="0" r="7"/>
  <circle id="rim2" cx="0" cy="0" r="3.5"/>
  <g id="zoomPlus">
    <use xlink:href="#rim" fill="#404040"><set attributeName="fill" to="#808080" begin="zoomplus.mouseover" end="zoomplus.mouseout"/></use>
    <path d="M-4,0h8M0,-4v8" fill="none" stroke="white" stroke-width="1.5" pointer-events="none"/>
  </g>
  <g id="zoomMin">
    <use xlink:href="#rim" fill="#404040"><set attributeName="fill" to="#808080" begin="zoomminus.mouseover" end="zoomminus.mouseout"/></use>
    <path d="M-4,0h8" fill="none" stroke="white" stroke-width="1.5" pointer-events="none"/>
  </g>
  <g id="arrowUp" transform="translate(30 24)">
    <use xlink:href="#rim"/>
    <path pointer-events="none" fill="none" stroke="white" stroke-width="1.5" d="M0,-3.0v7 M-2.5,-0.5L0,-3.0L2.5,-0.5"/>
  </g>
  <g id="arrowRight" transform="rotate(90) translate(36 -43)">
    <use xlink:href="#rim"/>
    <path pointer-events="none" fill="none" stroke="white" stroke-width="1.5" d="M0,-3.0v7 M-2.5,-0.5L0,-3.0L2.5,-0.5"/>
  </g>
  <g id="arrowDown" transform="rotate(180) translate(-30 -48)">
    <use xlink:href="#rim"/>
    <path pointer-events="none" fill="none" stroke="white" stroke-width="1.5" d="M0,-3.0v7 M-2.5,-0.5L0,-3.0L2.5,-0.5"/>
  </g>
  <g id="arrowLeft" transform="rotate(270) translate(-36 17)">
    <use xlink:href="#rim"/>
    <path pointer-events="none" fill="none" stroke="white" stroke-width="1.5" d="M0,-3.0v7 M-2.5,-0.5L0,-3.0L2.5,-0.5"/>
  </g>
  <g id="resetDef">
    <use xlink:href="#rim2" fill="#404040"><set attributeName="fill" to="#808080" begin="reset.mouseover" end="reset.mouseout"/></use>
  </g>
</defs>
<script type="application/ecmascript">
var viewWidth = 611;
var viewHeight = 164;
var sectionId = 'dynsection-13';
</script>
<script type="application/ecmascript" xlink:href="svg.min.js"/>
<svg id="graph" class="graph">
<g id="viewport">
<title>PlaneWave::IntegrateLayeredEandH</title>
<!-- Node1 -->
<g id="Node000001" class="node">
<title>Node1</title>
<g id="a_Node000001"><a xlink:title="Integrate layered E and H fields against an RWG basis function.">
<polygon fill="#999999" stroke="#666666" points="159.25,-62.12 0,-62.12 0,-28.62 159.25,-28.62 159.25,-62.12"/>
<text xml:space="preserve" text-anchor="start" x="8" y="-48.62" font-family="Helvetica,sans-Serif" font-size="10.00">PlaneWave::IntegrateLayered</text>
<text xml:space="preserve" text-anchor="middle" x="79.62" y="-35.88" font-family="Helvetica,sans-Serif" font-size="10.00">EandH</text>
</a>
</g>
</g>
<!-- Node2 -->
<g id="Node000002" class="node">
<title>Node2</title>
<g id="a_Node000002"><a xlink:href="classPlaneWave.html#ade82a6ff2d60f8df4553d51837525a1c" target="_top" xlink:title="Evaluate the electric and magnetic fields at a given position in layered media.">
<polygon fill="white" stroke="#666666" points="353,-85.12 195.25,-85.12 195.25,-51.62 353,-51.62 353,-85.12"/>
<text xml:space="preserve" text-anchor="start" x="203.25" y="-71.62" font-family="Helvetica,sans-Serif" font-size="10.00">PlaneWave::EvaluateLayered</text>
<text xml:space="preserve" text-anchor="middle" x="274.12" y="-58.88" font-family="Helvetica,sans-Serif" font-size="10.00">EandH</text>
</a>
</g>
</g>
<!-- Node1&#45;&gt;Node2 -->
<g id="edge1_Node000001_Node000002" class="edge">
<title>Node1&#45;&gt;Node2</title>
<g id="a_edge1_Node000001_Node000002"><a xlink:title=" ">
<path fill="none" stroke="#63b8ff" d="M159.48,-54.8C167.45,-55.75 175.59,-56.72 183.67,-57.69"/>
<polygon fill="#63b8ff" stroke="#63b8ff" points="183.17,-61.15 193.51,-58.86 184,-54.2 183.17,-61.15"/>
</a>
</g>
</g>
<!-- Node8 -->
<g id="Node000008" class="node">
<title>Node8</title>
<g id="a_Node000008"><a xlink:href="classPlaneWave.html#afb2520b5ec768a6ad1bdedf1ec1e8025" target="_top" xlink:title="Construct a homogeneous plane wave.">
<polygon fill="white" stroke="#666666" points="339.12,-33.75 209.12,-33.75 209.12,-13 339.12,-13 339.12,-33.75"/>
<text xml:space="preserve" text-anchor="middle" x="274.12" y="-20.25" font-family="Helvetica,sans-Serif" font-size="10.00">PlaneWave::PlaneWave</text>
</a>
</g>
</g>
<!-- Node1&#45;&gt;Node8 -->
<g id="edge8_Node000001_Node000008" class="edge">
<title>Node1&#45;&gt;Node8</title>
<g id="a_edge8_Node000001_Node000008"><a xlink:title=" ">
<path fill="none" stroke="#63b8ff" d="M159.48,-36.36C172.04,-34.93 185.01,-33.45 197.49,-32.02"/>
<polygon fill="#63b8ff" stroke="#63b8ff" points="197.75,-35.51 207.29,-30.9 196.96,-28.56 197.75,-35.51"/>
</a>
</g>
</g>
<!-- Node3 -->
<g id="Node000003" class="node">
<title>Node3</title>
<g id="a_Node000003"><a xlink:href="classPlaneWave.html#a66641ca1cfa189357ce861df408c1d67" target="_top" xlink:title="Computes the square root of a complex number with proper handling of negative imaginary parts.">
<polygon fill="white" stroke="#666666" points="526.5,-137.75 389,-137.75 389,-117 526.5,-117 526.5,-137.75"/>
<text xml:space="preserve" text-anchor="middle" x="457.75" y="-124.25" font-family="Helvetica,sans-Serif" font-size="10.00">PlaneWave::complexSqrt</text>
</a>
</g>
</g>
<!-- Node2&#45;&gt;Node3 -->
<g id="edge2_Node000002_Node000003" class="edge">
<title>Node2&#45;&gt;Node3</title>
<g id="a_edge2_Node000002_Node000003"><a xlink:title=" ">
<path fill="none" stroke="#63b8ff" d="M323.74,-85.54C343.87,-92.51 367.5,-100.52 389,-107.38 395.21,-109.35 401.77,-111.38 408.25,-113.33"/>
<polygon fill="#63b8ff" stroke="#63b8ff" points="407,-116.61 417.58,-116.12 409,-109.9 407,-116.61"/>
</a>
</g>
</g>
<!-- Node5 -->
<g id="Node000005" class="node">
<title>Node5</title>
<g id="a_Node000005"><a xlink:href="classPlaneWave.html#a21e80621788fddf887cf27b7c6f9bdf7" target="_top" xlink:title="Evaluate the electric field at a given position (homogeneous).">
<polygon fill="white" stroke="#666666" points="520.12,-98.75 395.38,-98.75 395.38,-78 520.12,-78 520.12,-98.75"/>
<text xml:space="preserve" text-anchor="middle" x="457.75" y="-85.25" font-family="Helvetica,sans-Serif" font-size="10.00">PlaneWave::EvaluateE</text>
</a>
</g>
</g>
<!-- Node2&#45;&gt;Node5 -->
<g id="edge5_Node000002_Node000005" class="edge">
<title>Node2&#45;&gt;Node5</title>
<g id="a_edge5_Node000002_Node000005"><a xlink:title=" ">
<path fill="none" stroke="#63b8ff" d="M353.47,-77C363.58,-78.12 373.91,-79.25 383.93,-80.36"/>
<polygon fill="#63b8ff" stroke="#63b8ff" points="383.26,-83.8 393.58,-81.42 384.02,-76.85 383.26,-83.8"/>
</a>
</g>
</g>
<!-- Node6 -->
<g id="Node000006" class="node">
<title>Node6</title>
<g id="a_Node000006"><a xlink:href="classPlaneWave.html#a25c1de1e9cee6a241765539a4b22f103" target="_top" xlink:title="Evaluate the magnetic field at a given position (homogeneous).">
<polygon fill="white" stroke="#666666" points="520.88,-59.75 394.62,-59.75 394.62,-39 520.88,-39 520.88,-59.75"/>
<text xml:space="preserve" text-anchor="middle" x="457.75" y="-46.25" font-family="Helvetica,sans-Serif" font-size="10.00">PlaneWave::EvaluateH</text>
</a>
</g>
</g>
<!-- Node2&#45;&gt;Node6 -->
<g id="edge6_Node000002_Node000006" class="edge">
<title>Node2&#45;&gt;Node6</title>
<g id="a_edge6_Node000002_Node000006"><a xlink:title=" ">
<path fill="none" stroke="#63b8ff" d="M353.47,-60.18C363.27,-59.15 373.26,-58.11 382.99,-57.09"/>
<polygon fill="#63b8ff" stroke="#63b8ff" points="383.17,-60.59 392.75,-56.07 382.44,-53.63 383.17,-60.59"/>
</a>
</g>
</g>
<!-- Node7 -->
<g id="Node000007" class="node">
<title>Node7</title>
<g id="a_Node000007"><a xlink:href="classPlaneWave.html#aa6b2d336c79c07cf23471fe99642d933" target="_top" xlink:title="Convert rvec to cvec (real vector to complex vector).">
<polygon fill="white" stroke="#666666" points="520.5,-20.75 395,-20.75 395,0 520.5,0 520.5,-20.75"/>
<text xml:space="preserve" text-anchor="middle" x="457.75" y="-7.25" font-family="Helvetica,sans-Serif" font-size="10.00">PlaneWave::rvec2cvec</text>
</a>
</g>
</g>
<!-- Node2&#45;&gt;Node7 -->
<g id="edge7_Node000002_Node000007" class="edge">
<title>Node2&#45;&gt;Node7</title>
<g id="a_edge7_Node000002_Node000007"><a xlink:title=" ">
<path fill="none" stroke="#63b8ff" d="M326.5,-51.22C356.3,-41.27 388.16,-30.64 389,-30.38 395.22,-28.42 401.78,-26.41 408.27,-24.46"/>
<polygon fill="#63b8ff" stroke="#63b8ff" points="409.02,-27.89 417.6,-21.68 407.02,-21.18 409.02,-27.89"/>
</a>
</g>
</g>
<!-- Node4 -->
<g id="Node000004" class="node">
<title>Node4</title>
<g id="a_Node000004"><a xlink:href="Domain_8cpp.html#aafa3e4fa6318b2f8740f4dbd50c367e5" target="_top" xlink:title="Extract the real part of each component of a complex 3&#45;vector.">
<polygon fill="white" stroke="#666666" points="597.25,-137.75 562.5,-137.75 562.5,-117 597.25,-117 597.25,-137.75"/>
<text xml:space="preserve" text-anchor="middle" x="579.88" y="-124.25" font-family="Helvetica,sans-Serif" font-size="10.00">real</text>
</a>
</g>
</g>
<!-- Node3&#45;&gt;Node4 -->
<g id="edge3_Node000003_Node000004" class="edge">
<title>Node3&#45;&gt;Node4</title>
<g id="a_edge3_Node000003_Node000004"><a xlink:title=" ">
<path fill="none" stroke="#63b8ff" d="M526.89,-127.38C535.3,-127.38 543.5,-127.38 550.8,-127.38"/>
<polygon fill="#63b8ff" stroke="#63b8ff" points="550.62,-130.88 560.62,-127.38 550.62,-123.88 550.62,-130.88"/>
</a>
</g>
</g>
<!-- Node4&#45;&gt;Node4 -->
<g id="edge4_Node000004_Node000004" class="edge">
<title>Node4&#45;&gt;Node4</title>
<g id="a_edge4_Node000004_Node000004"><a xlink:title=" ">
<path fill="none" stroke="#63b8ff" d="M562.01,-136.38C551.5,-145.55 557.45,-155.75 579.88,-155.75 593.89,-155.75 601.47,-151.76 602.62,-146.54"/>
<polygon fill="#63b8ff" stroke="#63b8ff" points="605.88,-145.25 598.4,-137.75 599.57,-148.28 605.88,-145.25"/>
</a>
</g>
</g>
</g>
</svg>

<g id="navigator" transform="translate(0 0)" fill="#404254">
  <rect fill="#f2f5e9" fill-opacity="0.5" stroke="#606060" stroke-width=".5" x="0" y="0" width="60" height="60"/>
  <use id="zoomplus" xlink:href="#zoomPlus" x="17" y="9" onmousedown="handleZoom(evt,'in')"/>
  <use id="zoomminus" xlink:href="#zoomMin" x="42" y="9" onmousedown="handleZoom(evt,'out')"/>
  <use id="reset" xlink:href="#resetDef" x="30" y="36" onmousedown="handleReset()"/>
   <use id="arrowup" xlink:href="#arrowUp" x="0" y="0" onmousedown="handlePan(0,-1)"/>
  <use id="arrowright" xlink:href="#arrowRight" x="0" y="0" onmousedown="handlePan(1,0)"/>
  <use id="arrowdown" xlink:href="#arrowDown" x="0" y="0" onmousedown="handlePan(0,1)"/>
  <use id="arrowleft" xlink:href="#arrowLeft" x="0" y="0" onmousedown="handlePan(-1,0)"/>
</g>
<svg viewBox="0 0 15 15" width="100%" height="30px" preserveAspectRatio="xMaxYMin meet">
 <g id="arrow_out" transform="scale(0.3 0.3)">
  <a xlink:href="classPlaneWave_a80fe83d9acd52a14f7b2f0ea2317b036_cgraph_org.svg" target="_base">
   <rect id="button" ry="5" rx="5" y="6" x="6" height="38" width="38"
        fill="#f2f5e9" fill-opacity="0.5" stroke="#606060" stroke-width="1.0"/>
   <path id="arrow"
     d="M 11.500037,31.436501 C 11.940474,20.09759 22.043105,11.32322 32.158766,21.979434 L 37.068811,17.246167 C 37.068811,17.246167 37.088388,32 37.088388,32 L 22.160133,31.978069 C 22.160133,31.978069 26.997745,27.140456 26.997745,27.140456 C 18.528582,18.264221 13.291696,25.230495 11.500037,31.436501 z"
     style="fill:#404040;"/>
  </a>
 </g>
</svg>

<style type='text/css'>
<![CDATA[
[data-mouse-over-selected='false'] { opacity: 0.7; }
[data-mouse-over-selected='true']  { opacity: 1.0; }
]]>
</style>
<script type="application/ecmascript"><![CDATA[
document.addEventListener('DOMContentLoaded', (event) => {
  highlightEdges();
  highlightAdjacentNodes();
});
]]></script>
</svg>
