<?xml version="1.0" encoding="UTF-8" standalone="no"?>
<!DOCTYPE svg PUBLIC "-//W3C//DTD SVG 1.1//EN"
 "http://www.w3.org/Graphics/SVG/1.1/DTD/svg11.dtd">
<!-- Generated by graphviz version 13.1.2 (20250809.0930)
 -->
<!-- Title: SurfaceMesh::BorderingTriangles Pages: 1 -->
<svg width="1007pt" height="146pt"
 viewBox="0.00 0.00 1007.00 146.00" xmlns="http://www.w3.org/2000/svg" xmlns:xlink="http://www.w3.org/1999/xlink">
<g id="graph0" class="graph" transform="scale(1 1) rotate(0) translate(4 141.75)">
<title>SurfaceMesh::BorderingTriangles</title>
<!-- Node1 -->
<g id="Node000001" class="node">
<title>Node1</title>
<g id="a_Node000001"><a xlink:title="Triangles bordering a given domain (FRONT or BACK).">
<polygon fill="#999999" stroke="#666666" points="998.75,-78.75 823,-78.75 823,-58 998.75,-58 998.75,-78.75"/>
<text xml:space="preserve" text-anchor="middle" x="910.88" y="-65.25" font-family="Helvetica,sans-Serif" font-size="10.00">SurfaceMesh::BorderingTriangles</text>
</a>
</g>
</g>
<!-- Node2 -->
<g id="Node000002" class="node">
<title>Node2</title>
<g id="a_Node000002"><a xlink:href="classDomain.html#a753296cc63cedb73b537311031521178" target="_top" xlink:title="Add all boundary triangles belonging to region dIndex and build RWGs.">
<polygon fill="white" stroke="#666666" points="787,-78.75 613.5,-78.75 613.5,-58 787,-58 787,-78.75"/>
<text xml:space="preserve" text-anchor="middle" x="700.25" y="-65.25" font-family="Helvetica,sans-Serif" font-size="10.00">Domain::AddTrianglesFromMesh</text>
</a>
</g>
</g>
<!-- Node1&#45;&gt;Node2 -->
<g id="edge1_Node000001_Node000002" class="edge">
<title>Node1&#45;&gt;Node2</title>
<g id="a_edge1_Node000001_Node000002"><a xlink:title=" ">
<path fill="none" stroke="#63b8ff" d="M811.1,-68.38C803.22,-68.38 795.29,-68.38 787.5,-68.38"/>
<polygon fill="#63b8ff" stroke="#63b8ff" points="811.09,-71.88 821.09,-68.38 811.09,-64.88 811.09,-71.88"/>
</a>
</g>
</g>
<!-- Node3 -->
<g id="Node000003" class="node">
<title>Node3</title>
<g id="a_Node000003"><a xlink:href="classDomain.html#a3f6f9e8ec932680440098679b6fe3300" target="_top" xlink:title="Construct a domain over a mesh region at a given vacuum wavelength.">
<polygon fill="white" stroke="#666666" points="577.5,-78.75 479,-78.75 479,-58 577.5,-58 577.5,-78.75"/>
<text xml:space="preserve" text-anchor="middle" x="528.25" y="-65.25" font-family="Helvetica,sans-Serif" font-size="10.00">Domain::Domain</text>
</a>
</g>
</g>
<!-- Node2&#45;&gt;Node3 -->
<g id="edge2_Node000002_Node000003" class="edge">
<title>Node2&#45;&gt;Node3</title>
<g id="a_edge2_Node000002_Node000003"><a xlink:title=" ">
<path fill="none" stroke="#63b8ff" d="M601.87,-68.38C593.57,-68.38 585.43,-68.38 577.77,-68.38"/>
<polygon fill="#63b8ff" stroke="#63b8ff" points="601.74,-71.88 611.74,-68.38 601.74,-64.88 601.74,-71.88"/>
</a>
</g>
</g>
<!-- Node4 -->
<g id="Node000004" class="node">
<title>Node4</title>
<g id="a_Node000004"><a xlink:href="classDomainHom3D.html#ae2c7b0309cdbeda660e9e937de24c2b6" target="_top" xlink:title="Construct a homogeneous domain and immediately create its Green&#39;s function.">
<polygon fill="white" stroke="#666666" points="427.25,-137.75 255.25,-137.75 255.25,-117 427.25,-117 427.25,-137.75"/>
<text xml:space="preserve" text-anchor="middle" x="341.25" y="-124.25" font-family="Helvetica,sans-Serif" font-size="10.00">DomainHom3D::DomainHom3D</text>
</a>
</g>
</g>
<!-- Node3&#45;&gt;Node4 -->
<g id="edge3_Node000003_Node000004" class="edge">
<title>Node3&#45;&gt;Node4</title>
<g id="a_edge3_Node000003_Node000004"><a xlink:title=" ">
<path fill="none" stroke="#63b8ff" d="M497.17,-84.42C481.4,-92.29 461.55,-101.33 443,-107.38 432.06,-110.94 420.24,-113.97 408.68,-116.52"/>
<polygon fill="#63b8ff" stroke="#63b8ff" points="498.7,-87.57 506.02,-79.91 495.52,-81.34 498.7,-87.57"/>
</a>
</g>
</g>
<!-- Node6 -->
<g id="Node000006" class="node">
<title>Node6</title>
<g id="a_Node000006"><a xlink:href="classDomainHom3D.html#a711da6da038d5667d1dffeed2431ae11" target="_top" xlink:title="Construct a homogeneous domain, optionally skipping Green&#39;s function creation.">
<polygon fill="white" stroke="#666666" points="427.25,-98.75 255.25,-98.75 255.25,-78 427.25,-78 427.25,-98.75"/>
<text xml:space="preserve" text-anchor="middle" x="341.25" y="-85.25" font-family="Helvetica,sans-Serif" font-size="10.00">DomainHom3D::DomainHom3D</text>
</a>
</g>
</g>
<!-- Node3&#45;&gt;Node6 -->
<g id="edge5_Node000003_Node000006" class="edge">
<title>Node3&#45;&gt;Node6</title>
<g id="a_edge5_Node000003_Node000006"><a xlink:title=" ">
<path fill="none" stroke="#63b8ff" d="M467.33,-74.85C454.68,-76.22 441.11,-77.69 427.74,-79.13"/>
<polygon fill="#63b8ff" stroke="#63b8ff" points="467.57,-78.35 477.14,-73.79 466.82,-71.39 467.57,-78.35"/>
</a>
</g>
</g>
<!-- Node7 -->
<g id="Node000007" class="node">
<title>Node7</title>
<g id="a_Node000007"><a xlink:href="classDomainLayered3D.html#ad0d867ee7289e485c4bc01077fbdb59a" target="_top" xlink:title="Constructs a 3D layered domain with given material properties and geometry.">
<polygon fill="white" stroke="#666666" points="443,-59.75 239.5,-59.75 239.5,-39 443,-39 443,-59.75"/>
<text xml:space="preserve" text-anchor="middle" x="341.25" y="-46.25" font-family="Helvetica,sans-Serif" font-size="10.00">DomainLayered3D::DomainLayered3D</text>
</a>
</g>
</g>
<!-- Node3&#45;&gt;Node7 -->
<g id="edge6_Node000003_Node000007" class="edge">
<title>Node3&#45;&gt;Node7</title>
<g id="a_edge6_Node000003_Node000007"><a xlink:title=" ">
<path fill="none" stroke="#63b8ff" d="M467.2,-62.21C459.46,-61.41 451.37,-60.58 443.2,-59.74"/>
<polygon fill="#63b8ff" stroke="#63b8ff" points="466.83,-65.69 477.14,-63.23 467.55,-58.72 466.83,-65.69"/>
</a>
</g>
</g>
<!-- Node8 -->
<g id="Node000008" class="node">
<title>Node8</title>
<g id="a_Node000008"><a xlink:href="classDomainLayered3D.html#a35b7f667fbf74add0773fd4d1a3d0146" target="_top" xlink:title="Construct without creating Green&#39;s functions (owner/aggregate path).">
<polygon fill="white" stroke="#666666" points="443,-20.75 239.5,-20.75 239.5,0 443,0 443,-20.75"/>
<text xml:space="preserve" text-anchor="middle" x="341.25" y="-7.25" font-family="Helvetica,sans-Serif" font-size="10.00">DomainLayered3D::DomainLayered3D</text>
</a>
</g>
</g>
<!-- Node3&#45;&gt;Node8 -->
<g id="edge7_Node000003_Node000008" class="edge">
<title>Node3&#45;&gt;Node8</title>
<g id="a_edge7_Node000003_Node000008"><a xlink:title=" ">
<path fill="none" stroke="#63b8ff" d="M496.81,-52.61C481.08,-45 461.38,-36.26 443,-30.38 431.88,-26.81 419.85,-23.77 408.11,-21.2"/>
<polygon fill="#63b8ff" stroke="#63b8ff" points="495.12,-55.69 505.64,-56.99 498.23,-49.41 495.12,-55.69"/>
</a>
</g>
</g>
<!-- Node5 -->
<g id="Node000005" class="node">
<title>Node5</title>
<g id="a_Node000005"><a xlink:href="classDomainHom3DPer.html#a973f16aa5d1165725d3d0bdab331781f" target="_top" xlink:title="Construct a periodic homogeneous domain and select a periodic Green&#39;s function.">
<polygon fill="white" stroke="#666666" points="203.5,-137.75 0,-137.75 0,-117 203.5,-117 203.5,-137.75"/>
<text xml:space="preserve" text-anchor="middle" x="101.75" y="-124.25" font-family="Helvetica,sans-Serif" font-size="10.00">DomainHom3DPer::DomainHom3DPer</text>
</a>
</g>
</g>
<!-- Node4&#45;&gt;Node5 -->
<g id="edge4_Node000004_Node000005" class="edge">
<title>Node4&#45;&gt;Node5</title>
<g id="a_edge4_Node000004_Node000005"><a xlink:title=" ">
<path fill="none" stroke="#63b8ff" d="M243.51,-127.38C230.48,-127.38 217.09,-127.38 203.99,-127.38"/>
<polygon fill="#63b8ff" stroke="#63b8ff" points="243.33,-130.88 253.33,-127.38 243.33,-123.88 243.33,-130.88"/>
</a>
</g>
</g>
</g>
</svg>
