<?xml version="1.0" encoding="UTF-8" standalone="no"?>
<!DOCTYPE svg PUBLIC "-//W3C//DTD SVG 1.1//EN"
 "http://www.w3.org/Graphics/SVG/1.1/DTD/svg11.dtd">
<!-- Generated by graphviz version 13.1.2 (20250809.0930)
 -->
<!-- Title: CLStringOption Pages: 1 -->
<svg width="117pt" height="253pt"
 viewBox="0.00 0.00 117.00 253.00" xmlns="http://www.w3.org/2000/svg" xmlns:xlink="http://www.w3.org/1999/xlink">

<svg id="main" version="1.1" xmlns="http://www.w3.org/2000/svg" xmlns:xlink="http://www.w3.org/1999/xlink" xml:space="preserve">

<style type="text/css"><![CDATA[
.node, .edge {opacity: 0.7;}
.node.selected, .edge.selected {opacity: 1;}
.edge:hover path { stroke: red; }
.edge:hover polygon { stroke: red; fill: red; }
]]></style>
<script type="application/ecmascript" xlink:href="svg.min.js"/>
<svg id="graph" class="graph">
<g id="graph0" class="graph" transform="scale(1 1) rotate(0) translate(4 249)">
<title>CLStringOption</title>
<!-- Node1 -->
<g id="Node000001" class="node">
<title>Node1</title>
<g id="a_Node000001"><a xlink:title="Option that captures a string argument.">
<polygon fill="#999999" stroke="none" points="108.75,-104.5 0,-104.5 0,0 108.75,0 108.75,-104.5"/>
<text xml:space="preserve" text-anchor="start" x="18" y="-91" font-family="Helvetica,sans-Serif" font-size="10.00">CLStringOption</text>
<text xml:space="preserve" text-anchor="start" x="4" y="-74.25" font-family="Helvetica,sans-Serif" font-size="10.00">#</text>
<text xml:space="preserve" text-anchor="start" x="16.25" y="-74.25" font-family="Helvetica,sans-Serif" font-size="10.00">target</text>
<text xml:space="preserve" text-anchor="start" x="4" y="-57.5" font-family="Helvetica,sans-Serif" font-size="10.00">+</text>
<text xml:space="preserve" text-anchor="start" x="16.25" y="-57.5" font-family="Helvetica,sans-Serif" font-size="10.00">CLStringOption()</text>
<text xml:space="preserve" text-anchor="start" x="4" y="-40.75" font-family="Helvetica,sans-Serif" font-size="10.00">+</text>
<text xml:space="preserve" text-anchor="start" x="16.25" y="-40.75" font-family="Helvetica,sans-Serif" font-size="10.00">CLStringOption()</text>
<text xml:space="preserve" text-anchor="start" x="4" y="-24" font-family="Helvetica,sans-Serif" font-size="10.00">+</text>
<text xml:space="preserve" text-anchor="start" x="16.25" y="-24" font-family="Helvetica,sans-Serif" font-size="10.00">~CLStringOption()</text>
<text xml:space="preserve" text-anchor="start" x="4" y="-7.25" font-family="Helvetica,sans-Serif" font-size="10.00">+</text>
<text xml:space="preserve" text-anchor="start" x="16.25" y="-7.25" font-family="Helvetica,sans-Serif" font-size="10.00">Parse()</text>
<polygon fill="#666666" stroke="#666666" points="0,-85.75 0,-85.75 108.75,-85.75 108.75,-85.75 0,-85.75"/>
<polygon fill="#666666" stroke="#666666" points="0,-69 0,-69 14.25,-69 14.25,-69 0,-69"/>
<polygon fill="#666666" stroke="#666666" points="14.25,-69 14.25,-69 108.75,-69 108.75,-69 14.25,-69"/>
<polygon fill="none" stroke="#666666" points="0,0 0,-104.5 108.75,-104.5 108.75,0 0,0"/>
</a>
</g>
</g>
<!-- Node2 -->
<g id="Node000002" class="node">
<title>Node2</title>
<g id="a_Node000002"><a xlink:href="classCLParser.html" target="_top" xlink:title="Abstract base for all command&#45;line option parsers.">
<polygon fill="white" stroke="none" points="93.38,-245 15.38,-245 15.38,-140.5 93.38,-140.5 93.38,-245"/>
<text xml:space="preserve" text-anchor="start" x="33.38" y="-231.5" font-family="Helvetica,sans-Serif" font-size="10.00">CLParser</text>
<text xml:space="preserve" text-anchor="start" x="19.38" y="-214.75" font-family="Helvetica,sans-Serif" font-size="10.00">#</text>
<text xml:space="preserve" text-anchor="start" x="31.62" y="-214.75" font-family="Helvetica,sans-Serif" font-size="10.00">option</text>
<text xml:space="preserve" text-anchor="start" x="19.38" y="-198" font-family="Helvetica,sans-Serif" font-size="10.00">+</text>
<text xml:space="preserve" text-anchor="start" x="31.62" y="-198" font-family="Helvetica,sans-Serif" font-size="10.00">CLParser()</text>
<text xml:space="preserve" text-anchor="start" x="19.38" y="-181.25" font-family="Helvetica,sans-Serif" font-size="10.00">+</text>
<text xml:space="preserve" text-anchor="start" x="31.62" y="-181.25" font-family="Helvetica,sans-Serif" font-size="10.00">CLParser()</text>
<text xml:space="preserve" text-anchor="start" x="19.38" y="-164.5" font-family="Helvetica,sans-Serif" font-size="10.00">+</text>
<text xml:space="preserve" text-anchor="start" x="31.62" y="-164.5" font-family="Helvetica,sans-Serif" font-size="10.00">~CLParser()</text>
<text xml:space="preserve" text-anchor="start" x="19.38" y="-147.75" font-family="Helvetica,sans-Serif" font-size="10.00">+</text>
<text xml:space="preserve" text-anchor="start" x="31.62" y="-147.75" font-family="Helvetica,sans-Serif" font-size="10.00">Parse()</text>
<polygon fill="#666666" stroke="#666666" points="15.38,-226.25 15.38,-226.25 93.38,-226.25 93.38,-226.25 15.38,-226.25"/>
<polygon fill="#666666" stroke="#666666" points="15.38,-209.5 15.38,-209.5 29.62,-209.5 29.62,-209.5 15.38,-209.5"/>
<polygon fill="#666666" stroke="#666666" points="29.62,-209.5 29.62,-209.5 93.38,-209.5 93.38,-209.5 29.62,-209.5"/>
<polygon fill="none" stroke="#666666" points="15.38,-140.5 15.38,-245 93.38,-245 93.38,-140.5 15.38,-140.5"/>
</a>
</g>
</g>
<!-- Node2&#45;&gt;Node1 -->
<g id="edge1_Node000001_Node000002" class="edge">
<title>Node2&#45;&gt;Node1</title>
<g id="a_edge1_Node000001_Node000002"><a xlink:title=" ">
<path fill="none" stroke="#63b8ff" d="M54.38,-129.27C54.38,-120.89 54.38,-112.37 54.38,-104.22"/>
<polygon fill="none" stroke="#63b8ff" points="50.88,-129.06 54.38,-139.06 57.88,-129.06 50.88,-129.06"/>
</a>
</g>
</g>
</g>
</svg>
</svg>

<style type='text/css'>
<![CDATA[
[data-mouse-over-selected='false'] { opacity: 0.7; }
[data-mouse-over-selected='true']  { opacity: 1.0; }
]]>
</style>
<script type="application/ecmascript"><![CDATA[
document.addEventListener('DOMContentLoaded', (event) => {
  highlightEdges();
  highlightAdjacentNodes();
});
]]></script>
</svg>
