<?xml version="1.0" encoding="UTF-8" standalone="no"?>
<!DOCTYPE svg PUBLIC "-//W3C//DTD SVG 1.1//EN"
 "http://www.w3.org/Graphics/SVG/1.1/DTD/svg11.dtd">
<!-- Generated by graphviz version 13.1.2 (20250809.0930)
 -->
<!-- Title: GreenFLayered3D::AboveThreshold Pages: 1 -->
<svg width="396pt" height="184pt"
 viewBox="0.00 0.00 396.00 184.00" xmlns="http://www.w3.org/2000/svg" xmlns:xlink="http://www.w3.org/1999/xlink">
<g id="graph0" class="graph" transform="scale(1 1) rotate(0) translate(4 180.12)">
<title>GreenFLayered3D::AboveThreshold</title>
<!-- Node1 -->
<g id="Node000001" class="node">
<title>Node1</title>
<g id="a_Node000001"><a xlink:title="Checks whether the given positions exceed a predefined distance threshold.">
<polygon fill="#999999" stroke="#666666" points="387.5,-91.75 199,-91.75 199,-71 387.5,-71 387.5,-91.75"/>
<text xml:space="preserve" text-anchor="middle" x="293.25" y="-78.25" font-family="Helvetica,sans-Serif" font-size="10.00">GreenFLayered3D::AboveThreshold</text>
</a>
</g>
</g>
<!-- Node2 -->
<g id="Node000002" class="node">
<title>Node2</title>
<g id="a_Node000002"><a xlink:href="classGreenFLayered3D.html#afbdbfdc8fc40fc885f6377d5be242d36" target="_top" xlink:title="term at an observation point.">
<polygon fill="white" stroke="#666666" points="158.5,-176.12 4.5,-176.12 4.5,-142.62 158.5,-142.62 158.5,-176.12"/>
<text xml:space="preserve" text-anchor="start" x="12.5" y="-162.62" font-family="Helvetica,sans-Serif" font-size="10.00">GreenFLayered3D::Integrate</text>
<text xml:space="preserve" text-anchor="middle" x="81.5" y="-149.88" font-family="Helvetica,sans-Serif" font-size="10.00">Delta</text>
</a>
</g>
</g>
<!-- Node1&#45;&gt;Node2 -->
<g id="edge1_Node000001_Node000002" class="edge">
<title>Node1&#45;&gt;Node2</title>
<g id="a_edge1_Node000001_Node000002"><a xlink:title=" ">
<path fill="none" stroke="#63b8ff" d="M256.78,-96.43C230.95,-107.19 195.04,-121.77 163,-133.38 154.71,-136.38 145.89,-139.4 137.24,-142.27"/>
<polygon fill="#63b8ff" stroke="#63b8ff" points="257.92,-99.74 265.79,-92.65 255.22,-93.29 257.92,-99.74"/>
</a>
</g>
</g>
<!-- Node3 -->
<g id="Node000003" class="node">
<title>Node3</title>
<g id="a_Node000003"><a xlink:href="classGreenFLayered3D.html#a439eddb43f46fb52f6c84898ea12aa40" target="_top" xlink:title="term at an observation point.">
<polygon fill="white" stroke="#666666" points="158.5,-124.12 4.5,-124.12 4.5,-90.62 158.5,-90.62 158.5,-124.12"/>
<text xml:space="preserve" text-anchor="start" x="12.5" y="-110.62" font-family="Helvetica,sans-Serif" font-size="10.00">GreenFLayered3D::Integrate</text>
<text xml:space="preserve" text-anchor="middle" x="81.5" y="-97.88" font-family="Helvetica,sans-Serif" font-size="10.00">Kappa</text>
</a>
</g>
</g>
<!-- Node1&#45;&gt;Node3 -->
<g id="edge2_Node000001_Node000003" class="edge">
<title>Node1&#45;&gt;Node3</title>
<g id="a_edge2_Node000001_Node000003"><a xlink:title=" ">
<path fill="none" stroke="#63b8ff" d="M193.64,-93.6C181.93,-95.05 170.11,-96.52 158.78,-97.92"/>
<polygon fill="#63b8ff" stroke="#63b8ff" points="193.82,-97.1 203.31,-92.4 192.96,-90.16 193.82,-97.1"/>
</a>
</g>
</g>
<!-- Node4 -->
<g id="Node000004" class="node">
<title>Node4</title>
<g id="a_Node000004"><a xlink:href="classGreenFLayered3D.html#af46d152fbc30bdc418ff16e5e7a334c6" target="_top" xlink:title="Point–triangle delta/kappa contributions for RHS assembly.">
<polygon fill="white" stroke="#666666" points="155.88,-72.12 7.12,-72.12 7.12,-38.62 155.88,-38.62 155.88,-72.12"/>
<text xml:space="preserve" text-anchor="start" x="15.12" y="-58.62" font-family="Helvetica,sans-Serif" font-size="10.00">GreenFLayered3D::SameTri</text>
<text xml:space="preserve" text-anchor="middle" x="81.5" y="-45.88" font-family="Helvetica,sans-Serif" font-size="10.00">DeltaKappa</text>
</a>
</g>
</g>
<!-- Node1&#45;&gt;Node4 -->
<g id="edge3_Node000001_Node000004" class="edge">
<title>Node1&#45;&gt;Node4</title>
<g id="a_edge3_Node000001_Node000004"><a xlink:title=" ">
<path fill="none" stroke="#63b8ff" d="M193.74,-69.16C181.09,-67.6 168.31,-66.01 156.15,-64.5"/>
<polygon fill="#63b8ff" stroke="#63b8ff" points="192.96,-72.59 203.31,-70.35 193.82,-65.65 192.96,-72.59"/>
</a>
</g>
</g>
<!-- Node5 -->
<g id="Node000005" class="node">
<title>Node5</title>
<g id="a_Node000005"><a xlink:href="classGreenFLayered3D.html#a6c88af86169f8d148c3e9f4da77a77d0" target="_top" xlink:title="Triangle–triangle D/K blocks assembly for all RWG pairs on two triangles.">
<polygon fill="white" stroke="#666666" points="163,-20.75 0,-20.75 0,0 163,0 163,-20.75"/>
<text xml:space="preserve" text-anchor="middle" x="81.5" y="-7.25" font-family="Helvetica,sans-Serif" font-size="10.00">GreenFLayered3D::SameTriDK</text>
</a>
</g>
</g>
<!-- Node1&#45;&gt;Node5 -->
<g id="edge4_Node000001_Node000005" class="edge">
<title>Node1&#45;&gt;Node5</title>
<g id="a_edge4_Node000001_Node000005"><a xlink:title=" ">
<path fill="none" stroke="#63b8ff" d="M258.47,-66.15C232.69,-54.94 196.08,-39.87 163,-29.38 153.56,-26.38 143.35,-23.62 133.49,-21.18"/>
<polygon fill="#63b8ff" stroke="#63b8ff" points="256.87,-69.27 267.43,-70.09 259.69,-62.86 256.87,-69.27"/>
</a>
</g>
</g>
</g>
</svg>
