<?xml version="1.0" encoding="UTF-8" standalone="no"?>
<!DOCTYPE svg PUBLIC "-//W3C//DTD SVG 1.1//EN"
 "http://www.w3.org/Graphics/SVG/1.1/DTD/svg11.dtd">
<!-- Generated by graphviz version 13.1.2 (20250809.0930)
 -->
<!-- Title: SymmetryOperation Pages: 1 -->
<svg width="143pt" height="186pt"
 viewBox="0.00 0.00 143.00 186.00" xmlns="http://www.w3.org/2000/svg" xmlns:xlink="http://www.w3.org/1999/xlink">

<svg id="main" version="1.1" xmlns="http://www.w3.org/2000/svg" xmlns:xlink="http://www.w3.org/1999/xlink" xml:space="preserve">

<style type="text/css"><![CDATA[
.node, .edge {opacity: 0.7;}
.node.selected, .edge.selected {opacity: 1;}
.edge:hover path { stroke: red; }
.edge:hover polygon { stroke: red; fill: red; }
]]></style>
<script type="application/ecmascript" xlink:href="svg.min.js"/>
<svg id="graph" class="graph">
<g id="graph0" class="graph" transform="scale(1 1) rotate(0) translate(4 182)">
<title>SymmetryOperation</title>
<!-- Node1 -->
<g id="Node000001" class="node">
<title>Node1</title>
<g id="a_Node000001"><a xlink:title="Abstract base class for spatial symmetry operations.">
<polygon fill="#999999" stroke="none" points="135,-178 0,-178 0,-107 135,-107 135,-178"/>
<text xml:space="preserve" text-anchor="start" x="18" y="-164.5" font-family="Helvetica,sans-Serif" font-size="10.00">SymmetryOperation</text>
<text xml:space="preserve" text-anchor="start" x="66" y="-147.75" font-family="Helvetica,sans-Serif" font-size="10.00"> </text>
<text xml:space="preserve" text-anchor="start" x="4" y="-131" font-family="Helvetica,sans-Serif" font-size="10.00">+</text>
<text xml:space="preserve" text-anchor="start" x="16.25" y="-131" font-family="Helvetica,sans-Serif" font-size="10.00">~SymmetryOperation()</text>
<text xml:space="preserve" text-anchor="start" x="4" y="-114.25" font-family="Helvetica,sans-Serif" font-size="10.00">+</text>
<text xml:space="preserve" text-anchor="start" x="16.25" y="-114.25" font-family="Helvetica,sans-Serif" font-size="10.00">Apply()</text>
<polygon fill="#666666" stroke="#666666" points="0,-159.25 0,-159.25 135,-159.25 135,-159.25 0,-159.25"/>
<polygon fill="#666666" stroke="#666666" points="0,-142.5 0,-142.5 135,-142.5 135,-142.5 0,-142.5"/>
<polygon fill="none" stroke="#666666" points="0,-107 0,-178 135,-178 135,-107 0,-107"/>
</a>
</g>
</g>
<!-- Node2 -->
<g id="Node000002" class="node">
<title>Node2</title>
<g id="a_Node000002"><a xlink:href="classTranslation.html" target="_top" xlink:title="Concrete translation symmetry operation.">
<polygon fill="white" stroke="none" points="108,-71 27,-71 27,0 108,0 108,-71"/>
<text xml:space="preserve" text-anchor="start" x="40.88" y="-57.5" font-family="Helvetica,sans-Serif" font-size="10.00">Translation</text>
<text xml:space="preserve" text-anchor="start" x="33.25" y="-40.75" font-family="Helvetica,sans-Serif" font-size="10.00">&#45;</text>
<text xml:space="preserve" text-anchor="start" x="43.25" y="-40.75" font-family="Helvetica,sans-Serif" font-size="10.00">t</text>
<text xml:space="preserve" text-anchor="start" x="31" y="-24" font-family="Helvetica,sans-Serif" font-size="10.00">+</text>
<text xml:space="preserve" text-anchor="start" x="43.25" y="-24" font-family="Helvetica,sans-Serif" font-size="10.00">Translation()</text>
<text xml:space="preserve" text-anchor="start" x="31" y="-7.25" font-family="Helvetica,sans-Serif" font-size="10.00">+</text>
<text xml:space="preserve" text-anchor="start" x="43.25" y="-7.25" font-family="Helvetica,sans-Serif" font-size="10.00">Apply()</text>
<polygon fill="#666666" stroke="#666666" points="27,-52.25 27,-52.25 108,-52.25 108,-52.25 27,-52.25"/>
<polygon fill="#666666" stroke="#666666" points="27,-35.5 27,-35.5 41.25,-35.5 41.25,-35.5 27,-35.5"/>
<polygon fill="#666666" stroke="#666666" points="41.25,-35.5 41.25,-35.5 108,-35.5 108,-35.5 41.25,-35.5"/>
<polygon fill="none" stroke="#666666" points="27,0 27,-71 108,-71 108,0 27,0"/>
</a>
</g>
</g>
<!-- Node1&#45;&gt;Node2 -->
<g id="edge1_Node000001_Node000002" class="edge">
<title>Node1&#45;&gt;Node2</title>
<g id="a_edge1_Node000001_Node000002"><a xlink:title=" ">
<path fill="none" stroke="#63b8ff" d="M67.5,-95.64C67.5,-87.36 67.5,-78.85 67.5,-70.96"/>
<polygon fill="none" stroke="#63b8ff" points="64,-95.61 67.5,-105.61 71,-95.61 64,-95.61"/>
</a>
</g>
</g>
</g>
</svg>
</svg>

<style type='text/css'>
<![CDATA[
[data-mouse-over-selected='false'] { opacity: 0.7; }
[data-mouse-over-selected='true']  { opacity: 1.0; }
]]>
</style>
<script type="application/ecmascript"><![CDATA[
document.addEventListener('DOMContentLoaded', (event) => {
  highlightEdges();
  highlightAdjacentNodes();
});
]]></script>
</svg>
