<?xml version="1.0" encoding="UTF-8" standalone="no"?>
<!DOCTYPE svg PUBLIC "-//W3C//DTD SVG 1.1//EN"
 "http://www.w3.org/Graphics/SVG/1.1/DTD/svg11.dtd">
<!-- Generated by graphviz version 13.1.2 (20250809.0930)
 -->
<!-- Title: SIEFormPMCHW::GetLayerIndex Pages: 1 -->
<svg width="577pt" height="42pt"
 viewBox="0.00 0.00 577.00 42.00" xmlns="http://www.w3.org/2000/svg" xmlns:xlink="http://www.w3.org/1999/xlink">
<g id="graph0" class="graph" transform="scale(1 1) rotate(0) translate(4 37.5)">
<title>SIEFormPMCHW::GetLayerIndex</title>
<!-- Node1 -->
<g id="Node000001" class="node">
<title>Node1</title>
<g id="a_Node000001"><a xlink:title="Return the layer index for a 3D position (based on z).">
<polygon fill="#999999" stroke="#666666" points="569.25,-27.12 398,-27.12 398,-6.38 569.25,-6.38 569.25,-27.12"/>
<text xml:space="preserve" text-anchor="middle" x="483.62" y="-13.62" font-family="Helvetica,sans-Serif" font-size="10.00">SIEFormPMCHW::GetLayerIndex</text>
</a>
</g>
</g>
<!-- Node2 -->
<g id="Node000002" class="node">
<title>Node2</title>
<g id="a_Node000002"><a xlink:href="classSIEFormPMCHW.html#aa9f13c8634ee9f20c1839a91da17b4a1" target="_top" xlink:title="Worker for parallel homogeneous/layered media assembly (triangle&#45;group partition).">
<polygon fill="white" stroke="#666666" points="362,-33.5 199,-33.5 199,0 362,0 362,-33.5"/>
<text xml:space="preserve" text-anchor="start" x="207" y="-20" font-family="Helvetica,sans-Serif" font-size="10.00">SIEFormPMCHW::FillLSEMatrix</text>
<text xml:space="preserve" text-anchor="middle" x="280.5" y="-7.25" font-family="Helvetica,sans-Serif" font-size="10.00">Parallel</text>
</a>
</g>
</g>
<!-- Node1&#45;&gt;Node2 -->
<g id="edge1_Node000001_Node000002" class="edge">
<title>Node1&#45;&gt;Node2</title>
<g id="a_edge1_Node000001_Node000002"><a xlink:title=" ">
<path fill="none" stroke="#63b8ff" d="M386.32,-16.75C378.3,-16.75 370.24,-16.75 362.35,-16.75"/>
<polygon fill="#63b8ff" stroke="#63b8ff" points="386.11,-20.25 396.11,-16.75 386.11,-13.25 386.11,-20.25"/>
</a>
</g>
</g>
<!-- Node3 -->
<g id="Node000003" class="node">
<title>Node3</title>
<g id="a_Node000003"><a xlink:href="classSIEFormPMCHW.html#a65dca87d3c16fbf2c82200d597e18417" target="_top" xlink:title="Assemble the PMCHWT system matrix for a homogeneous/layered medium.">
<polygon fill="white" stroke="#666666" points="163,-27.12 0,-27.12 0,-6.38 163,-6.38 163,-27.12"/>
<text xml:space="preserve" text-anchor="middle" x="81.5" y="-13.62" font-family="Helvetica,sans-Serif" font-size="10.00">SIEFormPMCHW::FillLSEMatrix</text>
</a>
</g>
</g>
<!-- Node2&#45;&gt;Node3 -->
<g id="edge2_Node000002_Node000003" class="edge">
<title>Node2&#45;&gt;Node3</title>
<g id="a_edge2_Node000002_Node000003"><a xlink:title=" ">
<path fill="none" stroke="#63b8ff" d="M187.05,-16.75C179.18,-16.75 171.26,-16.75 163.48,-16.75"/>
<polygon fill="#63b8ff" stroke="#63b8ff" points="187.01,-20.25 197.01,-16.75 187.01,-13.25 187.01,-20.25"/>
</a>
</g>
</g>
</g>
</svg>
