<?xml version="1.0" encoding="UTF-8" standalone="no"?>
<!DOCTYPE svg PUBLIC "-//W3C//DTD SVG 1.1//EN"
 "http://www.w3.org/Graphics/SVG/1.1/DTD/svg11.dtd">
<!-- Generated by graphviz version 13.1.2 (20250809.0930)
 -->
<!-- Title: DomainLayered3D::SecFieldH Pages: 1 -->
<svg width="546pt" height="54pt"
 viewBox="0.00 0.00 546.00 54.00" xmlns="http://www.w3.org/2000/svg" xmlns:xlink="http://www.w3.org/1999/xlink">
<g id="graph0" class="graph" transform="scale(1 1) rotate(0) translate(4 50.12)">
<title>DomainLayered3D::SecFieldH</title>
<!-- Node1 -->
<g id="Node000001" class="node">
<title>Node1</title>
<g id="a_Node000001"><a xlink:title="Secondary (scattered) magnetic field at a point from the solution vector.">
<polygon fill="#999999" stroke="#666666" points="160.75,-27.12 0,-27.12 0,-6.38 160.75,-6.38 160.75,-27.12"/>
<text xml:space="preserve" text-anchor="middle" x="80.38" y="-13.62" font-family="Helvetica,sans-Serif" font-size="10.00">DomainLayered3D::SecFieldH</text>
</a>
</g>
</g>
<!-- Node2 -->
<g id="Node000002" class="node">
<title>Node2</title>
<g id="a_Node000002"><a xlink:href="classDomainLayered3D.html#a281513a4cb865b8c688dd920a6789955" target="_top" xlink:title="Relative permittivity at a spatial location.">
<polygon fill="white" stroke="#666666" points="344.75,-46.12 196.75,-46.12 196.75,-25.38 344.75,-25.38 344.75,-46.12"/>
<text xml:space="preserve" text-anchor="middle" x="270.75" y="-32.62" font-family="Helvetica,sans-Serif" font-size="10.00">DomainLayered3D::Epsilon</text>
</a>
</g>
</g>
<!-- Node1&#45;&gt;Node2 -->
<g id="edge1_Node000001_Node000002" class="edge">
<title>Node1&#45;&gt;Node2</title>
<g id="a_edge1_Node000001_Node000002"><a xlink:title=" ">
<path fill="none" stroke="#63b8ff" d="M160.99,-24.78C168.98,-25.59 177.1,-26.41 185.14,-27.22"/>
<polygon fill="#63b8ff" stroke="#63b8ff" points="184.6,-30.68 194.9,-28.2 185.31,-23.71 184.6,-30.68"/>
</a>
</g>
</g>
<!-- Node3 -->
<g id="Node000003" class="node">
<title>Node3</title>
<g id="a_Node000003"><a xlink:href="classDomainLayered3D.html#ae8e9daf2ca4d1ed649a1e0fe83880160" target="_top" xlink:title="Returns the layer index corresponding to a spatial position.">
<polygon fill="white" stroke="#666666" points="537.75,-33.5 380.75,-33.5 380.75,0 537.75,0 537.75,-33.5"/>
<text xml:space="preserve" text-anchor="start" x="388.75" y="-20" font-family="Helvetica,sans-Serif" font-size="10.00">DomainLayered3D::GetLayer</text>
<text xml:space="preserve" text-anchor="middle" x="459.25" y="-7.25" font-family="Helvetica,sans-Serif" font-size="10.00">Index</text>
</a>
</g>
</g>
<!-- Node1&#45;&gt;Node3 -->
<g id="edge3_Node000001_Node000003" class="edge">
<title>Node1&#45;&gt;Node3</title>
<g id="a_edge3_Node000001_Node000003"><a xlink:title=" ">
<path fill="none" stroke="#63b8ff" d="M160.84,-16.75C221.86,-16.75 306.1,-16.75 369.35,-16.75"/>
<polygon fill="#63b8ff" stroke="#63b8ff" points="368.99,-20.25 378.99,-16.75 368.99,-13.25 368.99,-20.25"/>
</a>
</g>
</g>
<!-- Node2&#45;&gt;Node3 -->
<g id="edge2_Node000002_Node000003" class="edge">
<title>Node2&#45;&gt;Node3</title>
<g id="a_edge2_Node000002_Node000003"><a xlink:title=" ">
<path fill="none" stroke="#63b8ff" d="M345.19,-28.27C353.02,-27.47 361.05,-26.65 369.03,-25.84"/>
<polygon fill="#63b8ff" stroke="#63b8ff" points="369.17,-29.34 378.76,-24.85 368.46,-22.38 369.17,-29.34"/>
</a>
</g>
</g>
</g>
</svg>
