<?xml version="1.0" encoding="UTF-8" standalone="no"?>
<!DOCTYPE svg PUBLIC "-//W3C//DTD SVG 1.1//EN"
 "http://www.w3.org/Graphics/SVG/1.1/DTD/svg11.dtd">
<!-- Generated by graphviz version 13.1.2 (20250809.0930)
 -->
<!-- Title: DomainLayered3D::Epsilon Pages: 1 -->
<svg width="369pt" height="236pt"
 viewBox="0.00 0.00 369.00 236.00" xmlns="http://www.w3.org/2000/svg" xmlns:xlink="http://www.w3.org/1999/xlink">
<g id="graph0" class="graph" transform="scale(1 1) rotate(0) translate(4 231.75)">
<title>DomainLayered3D::Epsilon</title>
<!-- Node1 -->
<g id="Node000001" class="node">
<title>Node1</title>
<g id="a_Node000001"><a xlink:title="Relative permittivity at a spatial location.">
<polygon fill="#999999" stroke="#666666" points="361.25,-129.75 213.25,-129.75 213.25,-109 361.25,-109 361.25,-129.75"/>
<text xml:space="preserve" text-anchor="middle" x="287.25" y="-116.25" font-family="Helvetica,sans-Serif" font-size="10.00">DomainLayered3D::Epsilon</text>
</a>
</g>
</g>
<!-- Node2 -->
<g id="Node000002" class="node">
<title>Node2</title>
<g id="a_Node000002"><a xlink:href="classDomainLayered3D.html#a4e5fb098bcc6edc2f594da23e0b64fb3" target="_top" xlink:title="Absorption cross section.">
<polygon fill="white" stroke="#666666" points="177.25,-227.75 0,-227.75 0,-207 177.25,-207 177.25,-227.75"/>
<text xml:space="preserve" text-anchor="middle" x="88.62" y="-214.25" font-family="Helvetica,sans-Serif" font-size="10.00">DomainLayered3D::absorptionCS</text>
</a>
</g>
</g>
<!-- Node1&#45;&gt;Node2 -->
<g id="edge1_Node000001_Node000002" class="edge">
<title>Node1&#45;&gt;Node2</title>
<g id="a_edge1_Node000001_Node000002"><a xlink:title=" ">
<path fill="none" stroke="#63b8ff" d="M265.92,-137.76C245.11,-155.6 211.11,-182.14 177.25,-197.38 169.14,-201.02 160.3,-204.04 151.45,-206.52"/>
<polygon fill="#63b8ff" stroke="#63b8ff" points="268.14,-140.46 273.36,-131.24 263.53,-135.19 268.14,-140.46"/>
</a>
</g>
</g>
<!-- Node3 -->
<g id="Node000003" class="node">
<title>Node3</title>
<g id="a_Node000003"><a xlink:href="classDomainLayered3D.html#a6551ae7ca5dac2a5dda2d78b15d78ecc" target="_top" xlink:title="Add a Dipole excitation in the layered medium.">
<polygon fill="white" stroke="#666666" points="170.12,-188.75 7.12,-188.75 7.12,-168 170.12,-168 170.12,-188.75"/>
<text xml:space="preserve" text-anchor="middle" x="88.62" y="-175.25" font-family="Helvetica,sans-Serif" font-size="10.00">DomainLayered3D::AddDipole</text>
</a>
</g>
</g>
<!-- Node1&#45;&gt;Node3 -->
<g id="edge2_Node000001_Node000003" class="edge">
<title>Node1&#45;&gt;Node3</title>
<g id="a_edge2_Node000001_Node000003"><a xlink:title=" ">
<path fill="none" stroke="#63b8ff" d="M248.16,-134.26C227.39,-142.06 201.13,-151.41 177.25,-158.38 165.87,-161.7 153.52,-164.81 141.78,-167.54"/>
<polygon fill="#63b8ff" stroke="#63b8ff" points="249.25,-137.59 257.36,-130.77 246.77,-131.05 249.25,-137.59"/>
</a>
</g>
</g>
<!-- Node4 -->
<g id="Node000004" class="node">
<title>Node4</title>
<g id="a_Node000004"><a xlink:href="classDomainLayered3D.html#a847bdddcbf4257a73cfcd2766c882f8b" target="_top" xlink:title="Extinction cross section.">
<polygon fill="white" stroke="#666666" points="175.75,-149.75 1.5,-149.75 1.5,-129 175.75,-129 175.75,-149.75"/>
<text xml:space="preserve" text-anchor="middle" x="88.62" y="-136.25" font-family="Helvetica,sans-Serif" font-size="10.00">DomainLayered3D::extinctionCS</text>
</a>
</g>
</g>
<!-- Node1&#45;&gt;Node4 -->
<g id="edge3_Node000001_Node000004" class="edge">
<title>Node1&#45;&gt;Node4</title>
<g id="a_edge3_Node000001_Node000004"><a xlink:title=" ">
<path fill="none" stroke="#63b8ff" d="M201.37,-128.01C192.95,-128.86 184.39,-129.74 175.96,-130.59"/>
<polygon fill="#63b8ff" stroke="#63b8ff" points="201.65,-131.5 211.25,-127 200.95,-124.53 201.65,-131.5"/>
</a>
</g>
</g>
<!-- Node5 -->
<g id="Node000005" class="node">
<title>Node5</title>
<g id="a_Node000005"><a xlink:href="classDomainLayered3D.html#a267135f0a2f5bfff12f7ac3b25429176" target="_top" xlink:title="Scattering cross section.">
<polygon fill="white" stroke="#666666" points="175.75,-110.75 1.5,-110.75 1.5,-90 175.75,-90 175.75,-110.75"/>
<text xml:space="preserve" text-anchor="middle" x="88.62" y="-97.25" font-family="Helvetica,sans-Serif" font-size="10.00">DomainLayered3D::scatteringCS</text>
</a>
</g>
</g>
<!-- Node1&#45;&gt;Node5 -->
<g id="edge4_Node000001_Node000005" class="edge">
<title>Node1&#45;&gt;Node5</title>
<g id="a_edge4_Node000001_Node000005"><a xlink:title=" ">
<path fill="none" stroke="#63b8ff" d="M201.37,-111.17C192.95,-110.36 184.39,-109.53 175.96,-108.72"/>
<polygon fill="#63b8ff" stroke="#63b8ff" points="200.96,-114.65 211.25,-112.13 201.63,-107.68 200.96,-114.65"/>
</a>
</g>
</g>
<!-- Node6 -->
<g id="Node000006" class="node">
<title>Node6</title>
<g id="a_Node000006"><a xlink:href="classDomainLayered3D.html#a2572d0a6f9105bf4f90c42970f76f8a0" target="_top" xlink:title="Secondary fields &#160;at a point.">
<polygon fill="white" stroke="#666666" points="165.25,-72.12 12,-72.12 12,-38.62 165.25,-38.62 165.25,-72.12"/>
<text xml:space="preserve" text-anchor="start" x="20" y="-58.62" font-family="Helvetica,sans-Serif" font-size="10.00">DomainLayered3D::SecField</text>
<text xml:space="preserve" text-anchor="middle" x="88.62" y="-45.88" font-family="Helvetica,sans-Serif" font-size="10.00">EandH</text>
</a>
</g>
</g>
<!-- Node1&#45;&gt;Node6 -->
<g id="edge5_Node000001_Node000006" class="edge">
<title>Node1&#45;&gt;Node6</title>
<g id="a_edge5_Node000001_Node000006"><a xlink:title=" ">
<path fill="none" stroke="#63b8ff" d="M245.5,-104.66C225.08,-97.42 199.94,-88.69 177.25,-81.38 168.19,-78.45 158.56,-75.47 149.13,-72.62"/>
<polygon fill="#63b8ff" stroke="#63b8ff" points="244.28,-107.94 254.88,-108 246.64,-101.35 244.28,-107.94"/>
</a>
</g>
</g>
<!-- Node7 -->
<g id="Node000007" class="node">
<title>Node7</title>
<g id="a_Node000007"><a xlink:href="classDomainLayered3D.html#ae0399e203da7a532c55264015d172e99" target="_top" xlink:title="Secondary (scattered) magnetic field at a point from the solution vector.">
<polygon fill="white" stroke="#666666" points="169,-20.75 8.25,-20.75 8.25,0 169,0 169,-20.75"/>
<text xml:space="preserve" text-anchor="middle" x="88.62" y="-7.25" font-family="Helvetica,sans-Serif" font-size="10.00">DomainLayered3D::SecFieldH</text>
</a>
</g>
</g>
<!-- Node1&#45;&gt;Node7 -->
<g id="edge6_Node000001_Node000007" class="edge">
<title>Node1&#45;&gt;Node7</title>
<g id="a_edge6_Node000001_Node000007"><a xlink:title=" ">
<path fill="none" stroke="#63b8ff" d="M268.72,-100.24C248.64,-79.53 213.79,-47.11 177.25,-29.38 170.53,-26.11 163.25,-23.41 155.85,-21.16"/>
<polygon fill="#63b8ff" stroke="#63b8ff" points="266.16,-102.62 275.57,-107.47 271.24,-97.81 266.16,-102.62"/>
</a>
</g>
</g>
</g>
</svg>
