<?xml version="1.0" encoding="UTF-8" standalone="no"?>
<!DOCTYPE svg PUBLIC "-//W3C//DTD SVG 1.1//EN"
 "http://www.w3.org/Graphics/SVG/1.1/DTD/svg11.dtd">
<!-- Generated by graphviz version 13.1.2 (20250809.0930)
 -->
<!-- Title: PlaneWave::PlaneWave Pages: 1 -->
<svg width="755pt" height="164pt"
 viewBox="0.00 0.00 755.00 164.00" xmlns="http://www.w3.org/2000/svg" xmlns:xlink="http://www.w3.org/1999/xlink">
<g id="graph0" class="graph" transform="scale(1 1) rotate(0) translate(4 159.75)">
<title>PlaneWave::PlaneWave</title>
<!-- Node1 -->
<g id="Node000001" class="node">
<title>Node1</title>
<g id="a_Node000001"><a xlink:title="Construct a plane wave in a layered medium.">
<polygon fill="#999999" stroke="#666666" points="130,-78.75 0,-78.75 0,-58 130,-58 130,-78.75"/>
<text xml:space="preserve" text-anchor="middle" x="65" y="-65.25" font-family="Helvetica,sans-Serif" font-size="10.00">PlaneWave::PlaneWave</text>
</a>
</g>
</g>
<!-- Node2 -->
<g id="Node000002" class="node">
<title>Node2</title>
<g id="a_Node000002"><a xlink:href="classPlaneWave.html#ade82a6ff2d60f8df4553d51837525a1c" target="_top" xlink:title="Evaluate the electric and magnetic fields at a given position in layered media.">
<polygon fill="white" stroke="#666666" points="497.25,-85.12 339.5,-85.12 339.5,-51.62 497.25,-51.62 497.25,-85.12"/>
<text xml:space="preserve" text-anchor="start" x="347.5" y="-71.62" font-family="Helvetica,sans-Serif" font-size="10.00">PlaneWave::EvaluateLayered</text>
<text xml:space="preserve" text-anchor="middle" x="418.38" y="-58.88" font-family="Helvetica,sans-Serif" font-size="10.00">EandH</text>
</a>
</g>
</g>
<!-- Node1&#45;&gt;Node2 -->
<g id="edge1_Node000001_Node000002" class="edge">
<title>Node1&#45;&gt;Node2</title>
<g id="a_edge1_Node000001_Node000002"><a xlink:title=" ">
<path fill="none" stroke="#63b8ff" d="M130.45,-68.38C185.84,-68.38 266.3,-68.38 327.93,-68.38"/>
<polygon fill="#63b8ff" stroke="#63b8ff" points="327.7,-71.88 337.7,-68.38 327.7,-64.88 327.7,-71.88"/>
</a>
</g>
</g>
<!-- Node8 -->
<g id="Node000008" class="node">
<title>Node8</title>
<g id="a_Node000008"><a xlink:href="classPlaneWave.html#a1f1fd1b5140ab23b3ec7899e6962e60f" target="_top" xlink:title="Write E and H field values at sample points to CSV files.">
<polygon fill="white" stroke="#666666" points="303.5,-59.75 166,-59.75 166,-39 303.5,-39 303.5,-59.75"/>
<text xml:space="preserve" text-anchor="middle" x="234.75" y="-46.25" font-family="Helvetica,sans-Serif" font-size="10.00">PlaneWave::writeEHData</text>
</a>
</g>
</g>
<!-- Node1&#45;&gt;Node8 -->
<g id="edge8_Node000001_Node000008" class="edge">
<title>Node1&#45;&gt;Node8</title>
<g id="a_edge8_Node000001_Node000008"><a xlink:title=" ">
<path fill="none" stroke="#63b8ff" d="M130.38,-61.08C138.23,-60.19 146.32,-59.28 154.35,-58.37"/>
<polygon fill="#63b8ff" stroke="#63b8ff" points="154.6,-61.86 164.14,-57.26 153.81,-54.91 154.6,-61.86"/>
</a>
</g>
</g>
<!-- Node3 -->
<g id="Node000003" class="node">
<title>Node3</title>
<g id="a_Node000003"><a xlink:href="classPlaneWave.html#a66641ca1cfa189357ce861df408c1d67" target="_top" xlink:title="Computes the square root of a complex number with proper handling of negative imaginary parts.">
<polygon fill="white" stroke="#666666" points="670.75,-137.75 533.25,-137.75 533.25,-117 670.75,-117 670.75,-137.75"/>
<text xml:space="preserve" text-anchor="middle" x="602" y="-124.25" font-family="Helvetica,sans-Serif" font-size="10.00">PlaneWave::complexSqrt</text>
</a>
</g>
</g>
<!-- Node2&#45;&gt;Node3 -->
<g id="edge2_Node000002_Node000003" class="edge">
<title>Node2&#45;&gt;Node3</title>
<g id="a_edge2_Node000002_Node000003"><a xlink:title=" ">
<path fill="none" stroke="#63b8ff" d="M467.99,-85.54C488.12,-92.51 511.75,-100.52 533.25,-107.38 539.46,-109.35 546.02,-111.38 552.5,-113.33"/>
<polygon fill="#63b8ff" stroke="#63b8ff" points="551.25,-116.61 561.83,-116.12 553.25,-109.9 551.25,-116.61"/>
</a>
</g>
</g>
<!-- Node5 -->
<g id="Node000005" class="node">
<title>Node5</title>
<g id="a_Node000005"><a xlink:href="classPlaneWave.html#a21e80621788fddf887cf27b7c6f9bdf7" target="_top" xlink:title="Evaluate the electric field at a given position (homogeneous).">
<polygon fill="white" stroke="#666666" points="664.38,-98.75 539.62,-98.75 539.62,-78 664.38,-78 664.38,-98.75"/>
<text xml:space="preserve" text-anchor="middle" x="602" y="-85.25" font-family="Helvetica,sans-Serif" font-size="10.00">PlaneWave::EvaluateE</text>
</a>
</g>
</g>
<!-- Node2&#45;&gt;Node5 -->
<g id="edge5_Node000002_Node000005" class="edge">
<title>Node2&#45;&gt;Node5</title>
<g id="a_edge5_Node000002_Node000005"><a xlink:title=" ">
<path fill="none" stroke="#63b8ff" d="M497.72,-77C507.83,-78.12 518.16,-79.25 528.18,-80.36"/>
<polygon fill="#63b8ff" stroke="#63b8ff" points="527.51,-83.8 537.83,-81.42 528.27,-76.85 527.51,-83.8"/>
</a>
</g>
</g>
<!-- Node6 -->
<g id="Node000006" class="node">
<title>Node6</title>
<g id="a_Node000006"><a xlink:href="classPlaneWave.html#a25c1de1e9cee6a241765539a4b22f103" target="_top" xlink:title="Evaluate the magnetic field at a given position (homogeneous).">
<polygon fill="white" stroke="#666666" points="665.12,-59.75 538.88,-59.75 538.88,-39 665.12,-39 665.12,-59.75"/>
<text xml:space="preserve" text-anchor="middle" x="602" y="-46.25" font-family="Helvetica,sans-Serif" font-size="10.00">PlaneWave::EvaluateH</text>
</a>
</g>
</g>
<!-- Node2&#45;&gt;Node6 -->
<g id="edge6_Node000002_Node000006" class="edge">
<title>Node2&#45;&gt;Node6</title>
<g id="a_edge6_Node000002_Node000006"><a xlink:title=" ">
<path fill="none" stroke="#63b8ff" d="M497.72,-60.18C507.52,-59.15 517.51,-58.11 527.24,-57.09"/>
<polygon fill="#63b8ff" stroke="#63b8ff" points="527.42,-60.59 537,-56.07 526.69,-53.63 527.42,-60.59"/>
</a>
</g>
</g>
<!-- Node7 -->
<g id="Node000007" class="node">
<title>Node7</title>
<g id="a_Node000007"><a xlink:href="classPlaneWave.html#aa6b2d336c79c07cf23471fe99642d933" target="_top" xlink:title="Convert rvec to cvec (real vector to complex vector).">
<polygon fill="white" stroke="#666666" points="664.75,-20.75 539.25,-20.75 539.25,0 664.75,0 664.75,-20.75"/>
<text xml:space="preserve" text-anchor="middle" x="602" y="-7.25" font-family="Helvetica,sans-Serif" font-size="10.00">PlaneWave::rvec2cvec</text>
</a>
</g>
</g>
<!-- Node2&#45;&gt;Node7 -->
<g id="edge7_Node000002_Node000007" class="edge">
<title>Node2&#45;&gt;Node7</title>
<g id="a_edge7_Node000002_Node000007"><a xlink:title=" ">
<path fill="none" stroke="#63b8ff" d="M469.7,-51.16C489.47,-44.51 512.37,-36.94 533.25,-30.38 539.47,-28.42 546.03,-26.41 552.52,-24.46"/>
<polygon fill="#63b8ff" stroke="#63b8ff" points="553.27,-27.89 561.85,-21.68 551.27,-21.18 553.27,-27.89"/>
</a>
</g>
</g>
<!-- Node4 -->
<g id="Node000004" class="node">
<title>Node4</title>
<g id="a_Node000004"><a xlink:href="Domain_8cpp.html#aafa3e4fa6318b2f8740f4dbd50c367e5" target="_top" xlink:title="Extract the real part of each component of a complex 3&#45;vector.">
<polygon fill="white" stroke="#666666" points="741.5,-137.75 706.75,-137.75 706.75,-117 741.5,-117 741.5,-137.75"/>
<text xml:space="preserve" text-anchor="middle" x="724.12" y="-124.25" font-family="Helvetica,sans-Serif" font-size="10.00">real</text>
</a>
</g>
</g>
<!-- Node3&#45;&gt;Node4 -->
<g id="edge3_Node000003_Node000004" class="edge">
<title>Node3&#45;&gt;Node4</title>
<g id="a_edge3_Node000003_Node000004"><a xlink:title=" ">
<path fill="none" stroke="#63b8ff" d="M671.14,-127.38C679.55,-127.38 687.75,-127.38 695.05,-127.38"/>
<polygon fill="#63b8ff" stroke="#63b8ff" points="694.87,-130.88 704.87,-127.38 694.87,-123.88 694.87,-130.88"/>
</a>
</g>
</g>
<!-- Node4&#45;&gt;Node4 -->
<g id="edge4_Node000004_Node000004" class="edge">
<title>Node4&#45;&gt;Node4</title>
<g id="a_edge4_Node000004_Node000004"><a xlink:title=" ">
<path fill="none" stroke="#63b8ff" d="M706.26,-136.38C695.75,-145.55 701.7,-155.75 724.12,-155.75 738.14,-155.75 745.72,-151.76 746.87,-146.54"/>
<polygon fill="#63b8ff" stroke="#63b8ff" points="750.13,-145.25 742.65,-137.75 743.82,-148.28 750.13,-145.25"/>
</a>
</g>
</g>
<!-- Node8&#45;&gt;Node2 -->
<g id="edge9_Node000008_Node000002" class="edge">
<title>Node8&#45;&gt;Node2</title>
<g id="a_edge9_Node000008_Node000002"><a xlink:title=" ">
<path fill="none" stroke="#63b8ff" d="M303.9,-56.5C311.7,-57.32 319.73,-58.16 327.76,-59"/>
<polygon fill="#63b8ff" stroke="#63b8ff" points="327.26,-62.47 337.57,-60.03 327.98,-55.5 327.26,-62.47"/>
</a>
</g>
</g>
</g>
</svg>
