<?xml version="1.0" encoding="UTF-8" standalone="no"?>
<!DOCTYPE svg PUBLIC "-//W3C//DTD SVG 1.1//EN"
 "http://www.w3.org/Graphics/SVG/1.1/DTD/svg11.dtd">
<!-- Generated by graphviz version 13.1.2 (20250809.0930)
 -->
<!-- Title: GreenFLayered3D::SameTriDKG Pages: 1 -->
<svg width="380pt" height="185pt"
 viewBox="0.00 0.00 380.00 185.00" xmlns="http://www.w3.org/2000/svg" xmlns:xlink="http://www.w3.org/1999/xlink">

<svg id="main" version="1.1" xmlns="http://www.w3.org/2000/svg" xmlns:xlink="http://www.w3.org/1999/xlink" xml:space="preserve">

<style type="text/css"><![CDATA[
.node, .edge {opacity: 0.7;}
.node.selected, .edge.selected {opacity: 1;}
.edge:hover path { stroke: red; }
.edge:hover polygon { stroke: red; fill: red; }
]]></style>
<script type="application/ecmascript" xlink:href="svg.min.js"/>
<svg id="graph" class="graph">
<g id="graph0" class="graph" transform="scale(1 1) rotate(0) translate(4 180.75)">
<title>GreenFLayered3D::SameTriDKG</title>
<!-- Node1 -->
<g id="Node000001" class="node">
<title>Node1</title>
<g id="a_Node000001"><a xlink:title="Same as SameTriDK and additionally accumulates gradients.">
<polygon fill="#999999" stroke="#666666" points="170.5,-98.75 0,-98.75 0,-78 170.5,-78 170.5,-98.75"/>
<text xml:space="preserve" text-anchor="middle" x="85.25" y="-85.25" font-family="Helvetica,sans-Serif" font-size="10.00">GreenFLayered3D::SameTriDKG</text>
</a>
</g>
</g>
<!-- Node2 -->
<g id="Node000002" class="node">
<title>Node2</title>
<g id="a_Node000002"><a xlink:href="classTriangle.html#a1d3d08deeb999f339d2e821a877521ba" target="_top" xlink:title="Surface area of the triangle.">
<polygon fill="white" stroke="#666666" points="330.5,-176.75 247.75,-176.75 247.75,-156 330.5,-156 330.5,-176.75"/>
<text xml:space="preserve" text-anchor="middle" x="289.12" y="-163.25" font-family="Helvetica,sans-Serif" font-size="10.00">Triangle::Area</text>
</a>
</g>
</g>
<!-- Node1&#45;&gt;Node2 -->
<g id="edge1_Node000001_Node000002" class="edge">
<title>Node1&#45;&gt;Node2</title>
<g id="a_edge1_Node000001_Node000002"><a xlink:title=" ">
<path fill="none" stroke="#63b8ff" d="M105.29,-99.1C128.56,-111.85 169.42,-133.05 206.5,-146.38 215.98,-149.78 226.28,-152.8 236.27,-155.4"/>
<polygon fill="#63b8ff" stroke="#63b8ff" points="235.34,-158.78 245.89,-157.79 237.03,-151.98 235.34,-158.78"/>
</a>
</g>
</g>
<!-- Node3 -->
<g id="Node000003" class="node">
<title>Node3</title>
<g id="a_Node000003"><a xlink:href="classRWGFun.html#a7540ce2f84c6b42a29c2808504c47d42" target="_top" xlink:title="Evaluate the RWG vector shape function at a point on the triangle.">
<polygon fill="white" stroke="#666666" points="342.12,-137.75 236.12,-137.75 236.12,-117 342.12,-117 342.12,-137.75"/>
<text xml:space="preserve" text-anchor="middle" x="289.12" y="-124.25" font-family="Helvetica,sans-Serif" font-size="10.00">RWGFun::Evaluate</text>
</a>
</g>
</g>
<!-- Node1&#45;&gt;Node3 -->
<g id="edge2_Node000001_Node000003" class="edge">
<title>Node1&#45;&gt;Node3</title>
<g id="a_edge2_Node000001_Node000003"><a xlink:title=" ">
<path fill="none" stroke="#63b8ff" d="M142.48,-99.24C168,-104.17 198.3,-110.02 224.64,-115.11"/>
<polygon fill="#63b8ff" stroke="#63b8ff" points="223.69,-118.49 234.17,-116.95 225.02,-111.62 223.69,-118.49"/>
</a>
</g>
</g>
<!-- Node4 -->
<g id="Node000004" class="node">
<title>Node4</title>
<g id="a_Node000004"><a xlink:href="classGreenFLayered3D.html#a2bf451bc4d5bfb63f282cacceea29e9e" target="_top" xlink:title="Computes all the aforementioned (homogeneous) with respect to rp.">
<polygon fill="white" stroke="#666666" points="371.75,-98.75 206.5,-98.75 206.5,-78 371.75,-78 371.75,-98.75"/>
<text xml:space="preserve" text-anchor="middle" x="289.12" y="-85.25" font-family="Helvetica,sans-Serif" font-size="10.00">GreenFLayered3D::EvaluateAll</text>
</a>
</g>
</g>
<!-- Node1&#45;&gt;Node4 -->
<g id="edge3_Node000001_Node000004" class="edge">
<title>Node1&#45;&gt;Node4</title>
<g id="a_edge3_Node000001_Node000004"><a xlink:title=" ">
<path fill="none" stroke="#63b8ff" d="M170.99,-88.38C178.82,-88.38 186.78,-88.38 194.68,-88.38"/>
<polygon fill="#63b8ff" stroke="#63b8ff" points="194.68,-91.88 204.68,-88.38 194.68,-84.88 194.68,-91.88"/>
</a>
</g>
</g>
<!-- Node5 -->
<g id="Node000005" class="node">
<title>Node5</title>
<g id="a_Node000005"><a xlink:href="classTriangle.html#a0752d2c9488c7c44b851b8f75abcaa79" target="_top" xlink:title="Node position (by value) for local index 0..2.">
<polygon fill="white" stroke="#666666" points="332,-59.75 246.25,-59.75 246.25,-39 332,-39 332,-59.75"/>
<text xml:space="preserve" text-anchor="middle" x="289.12" y="-46.25" font-family="Helvetica,sans-Serif" font-size="10.00">Triangle::Node</text>
</a>
</g>
</g>
<!-- Node1&#45;&gt;Node5 -->
<g id="edge4_Node000001_Node000005" class="edge">
<title>Node1&#45;&gt;Node5</title>
<g id="a_edge4_Node000001_Node000005"><a xlink:title=" ">
<path fill="none" stroke="#63b8ff" d="M142.48,-77.51C171.42,-71.92 206.51,-65.14 234.99,-59.64"/>
<polygon fill="#63b8ff" stroke="#63b8ff" points="235.32,-63.14 244.47,-57.81 233.99,-56.27 235.32,-63.14"/>
</a>
</g>
</g>
<!-- Node6 -->
<g id="Node000006" class="node">
<title>Node6</title>
<g id="a_Node000006"><a xlink:href="classRWGFun.html#a7cd7779305937d48196453e53d0d4df8" target="_top" xlink:title="Return L_n / A_n (missing factor 1/2 by convention).">
<polygon fill="white" stroke="#666666" points="355.25,-20.75 223,-20.75 223,0 355.25,0 355.25,-20.75"/>
<text xml:space="preserve" text-anchor="middle" x="289.12" y="-7.25" font-family="Helvetica,sans-Serif" font-size="10.00">RWGFun::RWGPreFactor</text>
</a>
</g>
</g>
<!-- Node1&#45;&gt;Node6 -->
<g id="edge5_Node000001_Node000006" class="edge">
<title>Node1&#45;&gt;Node6</title>
<g id="a_edge5_Node000001_Node000006"><a xlink:title=" ">
<path fill="none" stroke="#63b8ff" d="M105.29,-77.65C128.56,-64.9 169.42,-43.7 206.5,-30.38 212.66,-28.16 219.16,-26.11 225.7,-24.23"/>
<polygon fill="#63b8ff" stroke="#63b8ff" points="226.51,-27.64 235.23,-21.64 224.66,-20.89 226.51,-27.64"/>
</a>
</g>
</g>
</g>
</svg>
</svg>

<style type='text/css'>
<![CDATA[
[data-mouse-over-selected='false'] { opacity: 0.7; }
[data-mouse-over-selected='true']  { opacity: 1.0; }
]]>
</style>
<script type="application/ecmascript"><![CDATA[
document.addEventListener('DOMContentLoaded', (event) => {
  highlightEdges();
  highlightAdjacentNodes();
});
]]></script>
</svg>
