<?xml version="1.0" encoding="UTF-8" standalone="no"?>
<!DOCTYPE svg PUBLIC "-//W3C//DTD SVG 1.1//EN"
 "http://www.w3.org/Graphics/SVG/1.1/DTD/svg11.dtd">
<!-- Generated by graphviz version 13.1.2 (20250809.0930)
 -->
<!-- Title: GreenF::GreenF Pages: 1 -->
<svg width="247pt" height="47pt"
 viewBox="0.00 0.00 247.00 47.00" xmlns="http://www.w3.org/2000/svg" xmlns:xlink="http://www.w3.org/1999/xlink">
<g id="graph0" class="graph" transform="scale(1 1) rotate(0) translate(4 42.75)">
<title>GreenF::GreenF</title>
<!-- Node1 -->
<g id="Node000001" class="node">
<title>Node1</title>
<g id="a_Node000001"><a xlink:title="Constructor for a layered, non&#45;magnetic medium.">
<polygon fill="#999999" stroke="#666666" points="91.75,-20.75 0,-20.75 0,0 91.75,0 91.75,-20.75"/>
<text xml:space="preserve" text-anchor="middle" x="45.88" y="-7.25" font-family="Helvetica,sans-Serif" font-size="10.00">GreenF::GreenF</text>
</a>
</g>
</g>
<!-- Node2 -->
<g id="Node000002" class="node">
<title>Node2</title>
<g id="a_Node000002"><a xlink:href="group__greenFunction.html#gac0a52dce23be7dacdf97c68653b6c137" target="_top" xlink:title="Complex square root with a branch cut along the negative real axis.">
<polygon fill="white" stroke="#666666" points="167.75,-20.75 127.75,-20.75 127.75,0 167.75,0 167.75,-20.75"/>
<text xml:space="preserve" text-anchor="middle" x="147.75" y="-7.25" font-family="Helvetica,sans-Serif" font-size="10.00">csqrt</text>
</a>
</g>
</g>
<!-- Node1&#45;&gt;Node2 -->
<g id="edge1_Node000001_Node000002" class="edge">
<title>Node1&#45;&gt;Node2</title>
<g id="a_edge1_Node000001_Node000002"><a xlink:title=" ">
<path fill="none" stroke="#63b8ff" d="M92.14,-10.38C100.17,-10.38 108.36,-10.38 115.88,-10.38"/>
<polygon fill="#63b8ff" stroke="#63b8ff" points="115.86,-13.88 125.86,-10.38 115.86,-6.88 115.86,-13.88"/>
</a>
</g>
</g>
<!-- Node3 -->
<g id="Node000003" class="node">
<title>Node3</title>
<g id="a_Node000003"><a xlink:href="Domain_8cpp.html#aafa3e4fa6318b2f8740f4dbd50c367e5" target="_top" xlink:title="Extract the real part of each component of a complex 3&#45;vector.">
<polygon fill="white" stroke="#666666" points="238.5,-20.75 203.75,-20.75 203.75,0 238.5,0 238.5,-20.75"/>
<text xml:space="preserve" text-anchor="middle" x="221.12" y="-7.25" font-family="Helvetica,sans-Serif" font-size="10.00">real</text>
</a>
</g>
</g>
<!-- Node2&#45;&gt;Node3 -->
<g id="edge2_Node000002_Node000003" class="edge">
<title>Node2&#45;&gt;Node3</title>
<g id="a_edge2_Node000002_Node000003"><a xlink:title=" ">
<path fill="none" stroke="#63b8ff" d="M167.88,-10.38C175.31,-10.38 183.98,-10.38 192.09,-10.38"/>
<polygon fill="#63b8ff" stroke="#63b8ff" points="191.86,-13.88 201.86,-10.38 191.86,-6.88 191.86,-13.88"/>
</a>
</g>
</g>
<!-- Node3&#45;&gt;Node3 -->
<g id="edge3_Node000003_Node000003" class="edge">
<title>Node3&#45;&gt;Node3</title>
<g id="a_edge3_Node000003_Node000003"><a xlink:title=" ">
<path fill="none" stroke="#63b8ff" d="M209.3,-21.15C204.57,-29.81 208.51,-38.75 221.12,-38.75 227.82,-38.75 232.08,-36.23 233.88,-32.56"/>
<polygon fill="#63b8ff" stroke="#63b8ff" points="237.38,-32.34 233.07,-22.66 230.4,-32.91 237.38,-32.34"/>
</a>
</g>
</g>
</g>
</svg>
