<?xml version="1.0" encoding="UTF-8" standalone="no"?>
<!DOCTYPE svg PUBLIC "-//W3C//DTD SVG 1.1//EN"
 "http://www.w3.org/Graphics/SVG/1.1/DTD/svg11.dtd">
<!-- Generated by graphviz version 13.1.2 (20250809.0930)
 -->
<!-- Title: SimJob::Casimir Pages: 1 -->
<svg width="653pt" height="458pt"
 viewBox="0.00 0.00 653.00 458.00" xmlns="http://www.w3.org/2000/svg" xmlns:xlink="http://www.w3.org/1999/xlink">
<g id="graph0" class="graph" transform="scale(1 1) rotate(0) translate(4 453.75)">
<title>SimJob::Casimir</title>
<!-- Node1 -->
<g id="Node000001" class="node">
<title>Node1</title>
<g id="a_Node000001"><a xlink:title="Casimir workflow entry (uses gradient matrices if enabled).">
<polygon fill="#999999" stroke="#666666" points="93.25,-176.75 0,-176.75 0,-156 93.25,-156 93.25,-176.75"/>
<text xml:space="preserve" text-anchor="middle" x="46.62" y="-163.25" font-family="Helvetica,sans-Serif" font-size="10.00">SimJob::Casimir</text>
</a>
</g>
</g>
<!-- Node2 -->
<g id="Node000002" class="node">
<title>Node2</title>
<g id="a_Node000002"><a xlink:href="classSimJob.html#aab5e82b9e59f35e95195fe298b1aaeaf" target="_top" xlink:title="Allocate and zero the system matrix A (and gradients if enabled).">
<polygon fill="white" stroke="#666666" points="267.88,-254.75 131.12,-254.75 131.12,-234 267.88,-234 267.88,-254.75"/>
<text xml:space="preserve" text-anchor="middle" x="199.5" y="-241.25" font-family="Helvetica,sans-Serif" font-size="10.00">SimJob::CreateLSEMatrix</text>
</a>
</g>
</g>
<!-- Node1&#45;&gt;Node2 -->
<g id="edge1_Node000001_Node000002" class="edge">
<title>Node1&#45;&gt;Node2</title>
<g id="a_edge1_Node000001_Node000002"><a xlink:title=" ">
<path fill="none" stroke="#63b8ff" d="M59.79,-177.04C75.05,-189.92 102.48,-211.46 129.25,-224.38 133.43,-226.39 137.86,-228.25 142.37,-229.94"/>
<polygon fill="#63b8ff" stroke="#63b8ff" points="140.95,-233.15 151.55,-233.11 143.24,-226.54 140.95,-233.15"/>
</a>
</g>
</g>
<!-- Node3 -->
<g id="Node000003" class="node">
<title>Node3</title>
<g id="a_Node000003"><a xlink:href="classSimJob.html#a83d402c189aeefdce43afbd3cb66f709" target="_top" xlink:title="Parse a full &#160;block from the already&#45;open JobParser.">
<polygon fill="white" stroke="#666666" points="260,-215.75 139,-215.75 139,-195 260,-195 260,-215.75"/>
<text xml:space="preserve" text-anchor="middle" x="199.5" y="-202.25" font-family="Helvetica,sans-Serif" font-size="10.00">SimJob::LoadFromFile</text>
</a>
</g>
</g>
<!-- Node1&#45;&gt;Node3 -->
<g id="edge2_Node000001_Node000003" class="edge">
<title>Node1&#45;&gt;Node3</title>
<g id="a_edge2_Node000001_Node000003"><a xlink:title=" ">
<path fill="none" stroke="#63b8ff" d="M89.65,-177.24C106.91,-181.7 127.09,-186.92 145.36,-191.64"/>
<polygon fill="#63b8ff" stroke="#63b8ff" points="144.41,-195.01 154.97,-194.12 146.17,-188.23 144.41,-195.01"/>
</a>
</g>
</g>
<!-- Node20 -->
<g id="Node000020" class="node">
<title>Node20</title>
<g id="a_Node000020"><a xlink:href="classSimJob.html#ac98a015c25c8e733475caf3c44317d0c" target="_top" xlink:title="Write a 1D Blitz vector in text format.">
<polygon fill="white" stroke="#666666" points="269.75,-176.75 129.25,-176.75 129.25,-156 269.75,-156 269.75,-176.75"/>
<text xml:space="preserve" text-anchor="middle" x="199.5" y="-163.25" font-family="Helvetica,sans-Serif" font-size="10.00">SimJob::WriteVectorToFile</text>
</a>
</g>
</g>
<!-- Node1&#45;&gt;Node20 -->
<g id="edge20_Node000001_Node000020" class="edge">
<title>Node1&#45;&gt;Node20</title>
<g id="a_edge20_Node000001_Node000020"><a xlink:title=" ">
<path fill="none" stroke="#63b8ff" d="M93.71,-166.38C101.25,-166.38 109.25,-166.38 117.35,-166.38"/>
<polygon fill="#63b8ff" stroke="#63b8ff" points="117.29,-169.88 127.29,-166.38 117.29,-162.88 117.29,-169.88"/>
</a>
</g>
</g>
<!-- Node21 -->
<g id="Node000021" class="node">
<title>Node21</title>
<g id="a_Node000021"><a xlink:href="DomainLayered3D_8cpp.html#ad123e1ae452426e2c00e3189488dedac" target="_top" xlink:title="Computes the LU factorization of a general M&#45;by&#45;N matrix.">
<polygon fill="white" stroke="#666666" points="224.38,-137.75 174.62,-137.75 174.62,-117 224.38,-117 224.38,-137.75"/>
<text xml:space="preserve" text-anchor="middle" x="199.5" y="-124.25" font-family="Helvetica,sans-Serif" font-size="10.00">zgetrf_</text>
</a>
</g>
</g>
<!-- Node1&#45;&gt;Node21 -->
<g id="edge21_Node000001_Node000021" class="edge">
<title>Node1&#45;&gt;Node21</title>
<g id="a_edge21_Node000001_Node000021"><a xlink:title=" ">
<path fill="none" stroke="#63b8ff" d="M89.65,-155.51C112.97,-149.48 141.62,-142.08 163.67,-136.38"/>
<polygon fill="#63b8ff" stroke="#63b8ff" points="164.27,-139.84 173.07,-133.95 162.52,-133.06 164.27,-139.84"/>
</a>
</g>
</g>
<!-- Node22 -->
<g id="Node000022" class="node">
<title>Node22</title>
<g id="a_Node000022"><a xlink:href="DomainLayered3D_8cpp.html#a0d498505ce3081c778d322cdd12e60a4" target="_top" xlink:title="Solves a system of linear equations using the LU factorization.">
<polygon fill="white" stroke="#666666" points="225.12,-98.75 173.88,-98.75 173.88,-78 225.12,-78 225.12,-98.75"/>
<text xml:space="preserve" text-anchor="middle" x="199.5" y="-85.25" font-family="Helvetica,sans-Serif" font-size="10.00">zgetrs_</text>
</a>
</g>
</g>
<!-- Node1&#45;&gt;Node22 -->
<g id="edge22_Node000001_Node000022" class="edge">
<title>Node1&#45;&gt;Node22</title>
<g id="a_edge22_Node000001_Node000022"><a xlink:title=" ">
<path fill="none" stroke="#63b8ff" d="M59.79,-155.71C75.05,-142.83 102.48,-121.29 129.25,-108.38 139.62,-103.37 151.49,-99.38 162.43,-96.32"/>
<polygon fill="#63b8ff" stroke="#63b8ff" points="163.14,-99.75 171.94,-93.85 161.38,-92.98 163.14,-99.75"/>
</a>
</g>
</g>
<!-- Node4 -->
<g id="Node000004" class="node">
<title>Node4</title>
<g id="a_Node000004"><a xlink:href="classSimJob.html#ae16a5d8bdcf14121a812acd22b3c573a" target="_top" xlink:title="Parse and load dipole excitation from .">
<polygon fill="white" stroke="#666666" points="439.12,-410.75 328.62,-410.75 328.62,-390 439.12,-390 439.12,-410.75"/>
<text xml:space="preserve" text-anchor="middle" x="383.88" y="-397.25" font-family="Helvetica,sans-Serif" font-size="10.00">SimJob::LoadDipole</text>
</a>
</g>
</g>
<!-- Node3&#45;&gt;Node4 -->
<g id="edge3_Node000003_Node000004" class="edge">
<title>Node3&#45;&gt;Node4</title>
<g id="a_edge3_Node000003_Node000004"><a xlink:title=" ">
<path fill="none" stroke="#63b8ff" d="M257.52,-216.12C262.04,-218.61 266.22,-221.65 269.75,-225.38 318.42,-276.69 256.38,-329.73 305.75,-380.38 309.32,-384.04 313.47,-387.06 317.96,-389.55"/>
<polygon fill="#63b8ff" stroke="#63b8ff" points="316.3,-392.64 326.85,-393.57 319.18,-386.26 316.3,-392.64"/>
</a>
</g>
</g>
<!-- Node8 -->
<g id="Node000008" class="node">
<title>Node8</title>
<g id="a_Node000008"><a xlink:href="classSimJob.html#a9a630e54dbd3c59d8d0c5872fe082478" target="_top" xlink:title="Parse and load homogeneous domain definition from .">
<polygon fill="white" stroke="#666666" points="442.5,-371.75 325.25,-371.75 325.25,-351 442.5,-351 442.5,-371.75"/>
<text xml:space="preserve" text-anchor="middle" x="383.88" y="-358.25" font-family="Helvetica,sans-Serif" font-size="10.00">SimJob::LoadDomain</text>
</a>
</g>
</g>
<!-- Node3&#45;&gt;Node8 -->
<g id="edge7_Node000003_Node000008" class="edge">
<title>Node3&#45;&gt;Node8</title>
<g id="a_edge7_Node000003_Node000008"><a xlink:title=" ">
<path fill="none" stroke="#63b8ff" d="M256.9,-216.22C261.61,-218.68 266,-221.7 269.75,-225.38 308.3,-263.17 266.69,-304.12 305.75,-341.38 308.5,-344 311.55,-346.29 314.81,-348.29"/>
<polygon fill="#63b8ff" stroke="#63b8ff" points="313.22,-351.41 323.73,-352.78 316.37,-345.16 313.22,-351.41"/>
</a>
</g>
</g>
<!-- Node9 -->
<g id="Node000009" class="node">
<title>Node9</title>
<g id="a_Node000009"><a xlink:href="classSimJob.html#a4aed0b2fa9b728b0fcb8834d6cd9c3fd" target="_top" xlink:title="Parse and load layered&#45;media domain from .">
<polygon fill="white" stroke="#666666" points="462,-332.75 305.75,-332.75 305.75,-312 462,-312 462,-332.75"/>
<text xml:space="preserve" text-anchor="middle" x="383.88" y="-319.25" font-family="Helvetica,sans-Serif" font-size="10.00">SimJob::LoadDomainLayered</text>
</a>
</g>
</g>
<!-- Node3&#45;&gt;Node9 -->
<g id="edge8_Node000003_Node000009" class="edge">
<title>Node3&#45;&gt;Node9</title>
<g id="a_edge8_Node000003_Node000009"><a xlink:title=" ">
<path fill="none" stroke="#63b8ff" d="M255.01,-216.12C260.34,-218.59 265.37,-221.63 269.75,-225.38 298.47,-249.92 276.7,-278.22 305.75,-302.38 307.43,-303.77 309.19,-305.06 311.02,-306.27"/>
<polygon fill="#63b8ff" stroke="#63b8ff" points="308.89,-309.1 319.34,-310.87 312.28,-302.97 308.89,-309.1"/>
</a>
</g>
</g>
<!-- Node10 -->
<g id="Node000010" class="node">
<title>Node10</title>
<g id="a_Node000010"><a xlink:href="classSimJob.html#a9d261a88162a72dc73b70f0f71d69164" target="_top" xlink:title="Parse and load periodic domain definition from .">
<polygon fill="white" stroke="#666666" points="450.38,-293.75 317.38,-293.75 317.38,-273 450.38,-273 450.38,-293.75"/>
<text xml:space="preserve" text-anchor="middle" x="383.88" y="-280.25" font-family="Helvetica,sans-Serif" font-size="10.00">SimJob::LoadDomainPer</text>
</a>
</g>
</g>
<!-- Node3&#45;&gt;Node10 -->
<g id="edge9_Node000003_Node000010" class="edge">
<title>Node3&#45;&gt;Node10</title>
<g id="a_edge9_Node000003_Node000010"><a xlink:title=" ">
<path fill="none" stroke="#63b8ff" d="M249.93,-216.12C256.84,-218.62 263.66,-221.67 269.75,-225.38 289.62,-237.47 285.71,-251.55 305.75,-263.38 308.91,-265.24 312.24,-266.93 315.67,-268.46"/>
<polygon fill="#63b8ff" stroke="#63b8ff" points="314.21,-271.65 324.8,-272.06 316.78,-265.14 314.21,-271.65"/>
</a>
</g>
</g>
<!-- Node12 -->
<g id="Node000012" class="node">
<title>Node12</title>
<g id="a_Node000012"><a xlink:href="classSimJob.html#a762457879a5f323daff8a2802ee937bd" target="_top" xlink:title="Parse and load Gaussian&#45;beam excitation from .">
<polygon fill="white" stroke="#666666" points="445.88,-254.75 321.88,-254.75 321.88,-234 445.88,-234 445.88,-254.75"/>
<text xml:space="preserve" text-anchor="middle" x="383.88" y="-241.25" font-family="Helvetica,sans-Serif" font-size="10.00">SimJob::LoadGaussian</text>
</a>
</g>
</g>
<!-- Node3&#45;&gt;Node12 -->
<g id="edge11_Node000003_Node000012" class="edge">
<title>Node3&#45;&gt;Node12</title>
<g id="a_edge11_Node000003_Node000012"><a xlink:title=" ">
<path fill="none" stroke="#63b8ff" d="M251.3,-216.24C272.85,-220.85 298.17,-226.26 320.81,-231.1"/>
<polygon fill="#63b8ff" stroke="#63b8ff" points="320.04,-234.52 330.55,-233.19 321.5,-227.67 320.04,-234.52"/>
</a>
</g>
</g>
<!-- Node14 -->
<g id="Node000014" class="node">
<title>Node14</title>
<g id="a_Node000014"><a xlink:href="classSimJob.html#a6d48eb7a13a50bdc8f9dc965165ed873" target="_top" xlink:title="Parse and load simulation label from &#160;section.">
<polygon fill="white" stroke="#666666" points="436.5,-215.75 331.25,-215.75 331.25,-195 436.5,-195 436.5,-215.75"/>
<text xml:space="preserve" text-anchor="middle" x="383.88" y="-202.25" font-family="Helvetica,sans-Serif" font-size="10.00">SimJob::LoadLabel</text>
</a>
</g>
</g>
<!-- Node3&#45;&gt;Node14 -->
<g id="edge14_Node000003_Node000014" class="edge">
<title>Node3&#45;&gt;Node14</title>
<g id="a_edge14_Node000003_Node000014"><a xlink:title=" ">
<path fill="none" stroke="#63b8ff" d="M260.47,-205.38C279.39,-205.38 300.34,-205.38 319.49,-205.38"/>
<polygon fill="#63b8ff" stroke="#63b8ff" points="319.32,-208.88 329.32,-205.38 319.32,-201.88 319.32,-208.88"/>
</a>
</g>
</g>
<!-- Node15 -->
<g id="Node000015" class="node">
<title>Node15</title>
<g id="a_Node000015"><a xlink:href="classSimJob.html#a7bb5eda7b7e62f899d8bf72ba8f33742" target="_top" xlink:title="Parse and load mesh data from &#160;(non&#45;periodic case).">
<polygon fill="white" stroke="#666666" points="436.5,-176.75 331.25,-176.75 331.25,-156 436.5,-156 436.5,-176.75"/>
<text xml:space="preserve" text-anchor="middle" x="383.88" y="-163.25" font-family="Helvetica,sans-Serif" font-size="10.00">SimJob::LoadMesh</text>
</a>
</g>
</g>
<!-- Node3&#45;&gt;Node15 -->
<g id="edge15_Node000003_Node000015" class="edge">
<title>Node3&#45;&gt;Node15</title>
<g id="a_edge15_Node000003_Node000015"><a xlink:title=" ">
<path fill="none" stroke="#63b8ff" d="M251.3,-194.51C272.85,-189.9 298.17,-184.49 320.81,-179.65"/>
<polygon fill="#63b8ff" stroke="#63b8ff" points="321.5,-183.08 330.55,-177.56 320.04,-176.23 321.5,-183.08"/>
</a>
</g>
</g>
<!-- Node16 -->
<g id="Node000016" class="node">
<title>Node16</title>
<g id="a_Node000016"><a xlink:href="classSimJob.html#ac940b4b962fac361f3746deef6eb2e19" target="_top" xlink:title="Parse and load periodic mesh from &#160;(applies symmetry operations).">
<polygon fill="white" stroke="#666666" points="444.38,-137.75 323.38,-137.75 323.38,-117 444.38,-117 444.38,-137.75"/>
<text xml:space="preserve" text-anchor="middle" x="383.88" y="-124.25" font-family="Helvetica,sans-Serif" font-size="10.00">SimJob::LoadMeshPer</text>
</a>
</g>
</g>
<!-- Node3&#45;&gt;Node16 -->
<g id="edge16_Node000003_Node000016" class="edge">
<title>Node3&#45;&gt;Node16</title>
<g id="a_edge16_Node000003_Node000016"><a xlink:title=" ">
<path fill="none" stroke="#63b8ff" d="M249.93,-194.63C256.84,-192.13 263.66,-189.08 269.75,-185.38 289.62,-173.28 285.71,-159.2 305.75,-147.38 308.91,-145.51 312.24,-143.82 315.67,-142.29"/>
<polygon fill="#63b8ff" stroke="#63b8ff" points="316.78,-145.61 324.8,-138.69 314.21,-139.1 316.78,-145.61"/>
</a>
</g>
</g>
<!-- Node17 -->
<g id="Node000017" class="node">
<title>Node17</title>
<g id="a_Node000017"><a xlink:href="classSimJob.html#a99c23586a8ba7184a750c694da6d9628" target="_top" xlink:title="Parse and load periodicity parameters from .">
<polygon fill="white" stroke="#666666" points="449.25,-98.75 318.5,-98.75 318.5,-78 449.25,-78 449.25,-98.75"/>
<text xml:space="preserve" text-anchor="middle" x="383.88" y="-85.25" font-family="Helvetica,sans-Serif" font-size="10.00">SimJob::LoadPeriodicity</text>
</a>
</g>
</g>
<!-- Node3&#45;&gt;Node17 -->
<g id="edge17_Node000003_Node000017" class="edge">
<title>Node3&#45;&gt;Node17</title>
<g id="a_edge17_Node000003_Node000017"><a xlink:title=" ">
<path fill="none" stroke="#63b8ff" d="M255.01,-194.63C260.34,-192.16 265.37,-189.12 269.75,-185.38 298.47,-160.83 276.7,-132.53 305.75,-108.38 307.43,-106.98 309.19,-105.69 311.02,-104.48"/>
<polygon fill="#63b8ff" stroke="#63b8ff" points="312.28,-107.78 319.34,-99.88 308.89,-101.65 312.28,-107.78"/>
</a>
</g>
</g>
<!-- Node18 -->
<g id="Node000018" class="node">
<title>Node18</title>
<g id="a_Node000018"><a xlink:href="classSimJob.html#a9b33589923ea7f4e5b671e55ecf2b320" target="_top" xlink:title="Parse and load plane&#45;wave excitation from .">
<polygon fill="white" stroke="#666666" points="450,-59.75 317.75,-59.75 317.75,-39 450,-39 450,-59.75"/>
<text xml:space="preserve" text-anchor="middle" x="383.88" y="-46.25" font-family="Helvetica,sans-Serif" font-size="10.00">SimJob::LoadPlanewave</text>
</a>
</g>
</g>
<!-- Node3&#45;&gt;Node18 -->
<g id="edge18_Node000003_Node000018" class="edge">
<title>Node3&#45;&gt;Node18</title>
<g id="a_edge18_Node000003_Node000018"><a xlink:title=" ">
<path fill="none" stroke="#63b8ff" d="M256.9,-194.53C261.61,-192.07 266,-189.05 269.75,-185.38 308.3,-147.58 266.69,-106.63 305.75,-69.38 306.97,-68.21 308.25,-67.11 309.58,-66.08"/>
<polygon fill="#63b8ff" stroke="#63b8ff" points="311.15,-69.23 317.71,-60.91 307.39,-63.32 311.15,-69.23"/>
</a>
</g>
</g>
<!-- Node19 -->
<g id="Node000019" class="node">
<title>Node19</title>
<g id="a_Node000019"><a xlink:href="classSimJob.html#a21c36c1d2aa7937ca484527515e35263" target="_top" xlink:title="Parse and load wavelength from .">
<polygon fill="white" stroke="#666666" points="452.25,-20.75 315.5,-20.75 315.5,0 452.25,0 452.25,-20.75"/>
<text xml:space="preserve" text-anchor="middle" x="383.88" y="-7.25" font-family="Helvetica,sans-Serif" font-size="10.00">SimJob::LoadWavelength</text>
</a>
</g>
</g>
<!-- Node3&#45;&gt;Node19 -->
<g id="edge19_Node000003_Node000019" class="edge">
<title>Node3&#45;&gt;Node19</title>
<g id="a_edge19_Node000003_Node000019"><a xlink:title=" ">
<path fill="none" stroke="#63b8ff" d="M257.52,-194.63C262.04,-192.14 266.22,-189.1 269.75,-185.38 318.42,-134.06 256.38,-81.02 305.75,-30.38 306.64,-29.46 307.57,-28.58 308.53,-27.74"/>
<polygon fill="#63b8ff" stroke="#63b8ff" points="310.5,-30.64 316.72,-22.06 306.51,-24.89 310.5,-30.64"/>
</a>
</g>
</g>
<!-- Node5 -->
<g id="Node000005" class="node">
<title>Node5</title>
<g id="a_Node000005"><a xlink:href="classDomain.html#a6a3c61914bab1ebbc02613a6ec8db802" target="_top" xlink:title="Add a Dipole excitation (ownership transferred to Domain).">
<polygon fill="white" stroke="#666666" points="626.5,-449.75 516,-449.75 516,-429 626.5,-429 626.5,-449.75"/>
<text xml:space="preserve" text-anchor="middle" x="571.25" y="-436.25" font-family="Helvetica,sans-Serif" font-size="10.00">Domain::AddDipole</text>
</a>
</g>
</g>
<!-- Node4&#45;&gt;Node5 -->
<g id="edge4_Node000004_Node000005" class="edge">
<title>Node4&#45;&gt;Node5</title>
<g id="a_edge4_Node000004_Node000005"><a xlink:title=" ">
<path fill="none" stroke="#63b8ff" d="M436.51,-411.24C458.52,-415.87 484.39,-421.31 507.48,-426.17"/>
<polygon fill="#63b8ff" stroke="#63b8ff" points="506.58,-429.56 517.09,-428.19 508.02,-422.71 506.58,-429.56"/>
</a>
</g>
</g>
<!-- Node6 -->
<g id="Node000006" class="node">
<title>Node6</title>
<g id="a_Node000006"><a xlink:href="classSimJob.html#ab3887eb9e217b1d6424ff85aec4b1793" target="_top" xlink:title="Find which domain contains a point.">
<polygon fill="white" stroke="#666666" points="644.5,-410.75 498,-410.75 498,-390 644.5,-390 644.5,-410.75"/>
<text xml:space="preserve" text-anchor="middle" x="571.25" y="-397.25" font-family="Helvetica,sans-Serif" font-size="10.00">SimJob::ContainingDomain</text>
</a>
</g>
</g>
<!-- Node4&#45;&gt;Node6 -->
<g id="edge5_Node000004_Node000006" class="edge">
<title>Node4&#45;&gt;Node6</title>
<g id="a_edge5_Node000004_Node000006"><a xlink:title=" ">
<path fill="none" stroke="#63b8ff" d="M439.49,-400.38C454.19,-400.38 470.43,-400.38 486.32,-400.38"/>
<polygon fill="#63b8ff" stroke="#63b8ff" points="486.29,-403.88 496.29,-400.38 486.29,-396.88 486.29,-403.88"/>
</a>
</g>
</g>
<!-- Node7 -->
<g id="Node000007" class="node">
<title>Node7</title>
<g id="a_Node000007"><a xlink:href="classDomain.html#a4ca094ed1d16b191f026d0c23e1fc75a" target="_top" xlink:title="Return this domain&#39;s integer index.">
<polygon fill="white" stroke="#666666" points="614.88,-371.75 527.62,-371.75 527.62,-351 614.88,-351 614.88,-371.75"/>
<text xml:space="preserve" text-anchor="middle" x="571.25" y="-358.25" font-family="Helvetica,sans-Serif" font-size="10.00">Domain::Index</text>
</a>
</g>
</g>
<!-- Node4&#45;&gt;Node7 -->
<g id="edge6_Node000004_Node000007" class="edge">
<title>Node4&#45;&gt;Node7</title>
<g id="a_edge6_Node000004_Node000007"><a xlink:title=" ">
<path fill="none" stroke="#63b8ff" d="M436.51,-389.51C461.32,-384.29 491.04,-378.04 516.16,-372.76"/>
<polygon fill="#63b8ff" stroke="#63b8ff" points="516.79,-376.2 525.86,-370.71 515.35,-369.35 516.79,-376.2"/>
</a>
</g>
</g>
<!-- Node11 -->
<g id="Node000011" class="node">
<title>Node11</title>
<g id="a_Node000011"><a xlink:href="classDomain.html#a2b8fcaa668f1959aa9864f7a016d3ee1" target="_top" xlink:title="Provide an erfc lookup table to the Green&#39;s function implementation.">
<polygon fill="white" stroke="#666666" points="639.25,-302.75 503.25,-302.75 503.25,-282 639.25,-282 639.25,-302.75"/>
<text xml:space="preserve" text-anchor="middle" x="571.25" y="-289.25" font-family="Helvetica,sans-Serif" font-size="10.00">Domain::InitLookupTable</text>
</a>
</g>
</g>
<!-- Node10&#45;&gt;Node11 -->
<g id="edge10_Node000010_Node000011" class="edge">
<title>Node10&#45;&gt;Node11</title>
<g id="a_edge10_Node000010_Node000011"><a xlink:title=" ">
<path fill="none" stroke="#63b8ff" d="M450.75,-286.57C464.01,-287.22 478.06,-287.9 491.69,-288.56"/>
<polygon fill="#63b8ff" stroke="#63b8ff" points="491.35,-292.05 501.51,-289.04 491.69,-285.06 491.35,-292.05"/>
</a>
</g>
</g>
<!-- Node13 -->
<g id="Node000013" class="node">
<title>Node13</title>
<g id="a_Node000013"><a xlink:href="Domain_8cpp.html#aafa3e4fa6318b2f8740f4dbd50c367e5" target="_top" xlink:title="Extract the real part of each component of a complex 3&#45;vector.">
<polygon fill="white" stroke="#666666" points="588.62,-245.75 553.88,-245.75 553.88,-225 588.62,-225 588.62,-245.75"/>
<text xml:space="preserve" text-anchor="middle" x="571.25" y="-232.25" font-family="Helvetica,sans-Serif" font-size="10.00">real</text>
</a>
</g>
</g>
<!-- Node12&#45;&gt;Node13 -->
<g id="edge12_Node000012_Node000013" class="edge">
<title>Node12&#45;&gt;Node13</title>
<g id="a_edge12_Node000012_Node000013"><a xlink:title=" ">
<path fill="none" stroke="#63b8ff" d="M446.34,-241.39C478.77,-239.82 516.97,-237.96 542.29,-236.73"/>
<polygon fill="#63b8ff" stroke="#63b8ff" points="542.27,-240.24 552.09,-236.26 541.94,-233.25 542.27,-240.24"/>
</a>
</g>
</g>
<!-- Node13&#45;&gt;Node13 -->
<g id="edge13_Node000013_Node000013" class="edge">
<title>Node13&#45;&gt;Node13</title>
<g id="a_edge13_Node000013_Node000013"><a xlink:title=" ">
<path fill="none" stroke="#63b8ff" d="M553.49,-240.12C525.44,-250.03 531.36,-263.75 571.25,-263.75 605.22,-263.75 614.56,-253.8 599.26,-244.73"/>
<polygon fill="#63b8ff" stroke="#63b8ff" points="600.95,-241.65 590.39,-240.74 598.08,-248.03 600.95,-241.65"/>
</a>
</g>
</g>
</g>
</svg>
