<?xml version="1.0" encoding="UTF-8" standalone="no"?>
<!DOCTYPE svg PUBLIC "-//W3C//DTD SVG 1.1//EN"
 "http://www.w3.org/Graphics/SVG/1.1/DTD/svg11.dtd">
<!-- Generated by graphviz version 13.1.2 (20250809.0930)
 -->
<!-- Title: Domain::Mu Pages: 1 -->
<svg width="783pt" height="107pt"
 viewBox="0.00 0.00 783.00 107.00" xmlns="http://www.w3.org/2000/svg" xmlns:xlink="http://www.w3.org/1999/xlink">
<g id="graph0" class="graph" transform="scale(1 1) rotate(0) translate(4 102.75)">
<title>Domain::Mu</title>
<!-- Node1 -->
<g id="Node000001" class="node">
<title>Node1</title>
<g id="a_Node000001"><a xlink:title="Relative permeability at a spatial location.">
<polygon fill="#999999" stroke="#666666" points="774.75,-39.75 699.5,-39.75 699.5,-19 774.75,-19 774.75,-39.75"/>
<text xml:space="preserve" text-anchor="middle" x="737.12" y="-26.25" font-family="Helvetica,sans-Serif" font-size="10.00">Domain::Mu</text>
</a>
</g>
</g>
<!-- Node2 -->
<g id="Node000002" class="node">
<title>Node2</title>
<g id="a_Node000002"><a xlink:href="classDomain.html#ae1e6975d3ddc5fe177020d447673fdf7" target="_top" xlink:title="Secondary (scattered) electric field at a point from the solution vector.">
<polygon fill="white" stroke="#666666" points="650.75,-59.75 544,-59.75 544,-39 650.75,-39 650.75,-59.75"/>
<text xml:space="preserve" text-anchor="middle" x="597.38" y="-46.25" font-family="Helvetica,sans-Serif" font-size="10.00">Domain::SecFieldE</text>
</a>
</g>
</g>
<!-- Node1&#45;&gt;Node2 -->
<g id="edge1_Node000001_Node000002" class="edge">
<title>Node1&#45;&gt;Node2</title>
<g id="a_edge1_Node000001_Node000002"><a xlink:title=" ">
<path fill="none" stroke="#63b8ff" d="M688.11,-36.35C676.18,-38.08 663.33,-39.94 651.19,-41.71"/>
<polygon fill="#63b8ff" stroke="#63b8ff" points="688.32,-39.85 697.71,-34.95 687.31,-32.93 688.32,-39.85"/>
</a>
</g>
</g>
<!-- Node8 -->
<g id="Node000008" class="node">
<title>Node8</title>
<g id="a_Node000008"><a xlink:href="classDomain.html#a1d339cb7979c5b2d03d069fc09b40696" target="_top" xlink:title="Secondary fields &#160;at a point.">
<polygon fill="white" stroke="#666666" points="663.5,-20.75 531.25,-20.75 531.25,0 663.5,0 663.5,-20.75"/>
<text xml:space="preserve" text-anchor="middle" x="597.38" y="-7.25" font-family="Helvetica,sans-Serif" font-size="10.00">Domain::SecFieldEandH</text>
</a>
</g>
</g>
<!-- Node1&#45;&gt;Node8 -->
<g id="edge7_Node000001_Node000008" class="edge">
<title>Node1&#45;&gt;Node8</title>
<g id="a_edge7_Node000001_Node000008"><a xlink:title=" ">
<path fill="none" stroke="#63b8ff" d="M688.07,-22.75C680.24,-21.67 672.01,-20.53 663.84,-19.41"/>
<polygon fill="#63b8ff" stroke="#63b8ff" points="687.33,-26.18 697.71,-24.08 688.28,-19.24 687.33,-26.18"/>
</a>
</g>
</g>
<!-- Node3 -->
<g id="Node000003" class="node">
<title>Node3</title>
<g id="a_Node000003"><a xlink:href="classSimJob.html#a746e46ef2aa6843c2f4da96e472c75a3" target="_top" xlink:title="Incident and secondary &#160;at pos (domain auto&#45;detected).">
<polygon fill="white" stroke="#666666" points="482.5,-98.75 397.5,-98.75 397.5,-78 482.5,-78 482.5,-98.75"/>
<text xml:space="preserve" text-anchor="middle" x="440" y="-85.25" font-family="Helvetica,sans-Serif" font-size="10.00">SimJob::EField</text>
</a>
</g>
</g>
<!-- Node2&#45;&gt;Node3 -->
<g id="edge2_Node000002_Node000003" class="edge">
<title>Node2&#45;&gt;Node3</title>
<g id="a_edge2_Node000002_Node000003"><a xlink:title=" ">
<path fill="none" stroke="#63b8ff" d="M541.98,-63.03C522.62,-67.89 501.14,-73.28 482.98,-77.84"/>
<polygon fill="#63b8ff" stroke="#63b8ff" points="542.78,-66.44 551.63,-60.61 541.08,-59.65 542.78,-66.44"/>
</a>
</g>
</g>
<!-- Node7 -->
<g id="Node000007" class="node">
<title>Node7</title>
<g id="a_Node000007"><a xlink:href="classSimJob.html#a10e94801726e68c660938659856c75b2" target="_top" xlink:title="Incident and secondary &#160;at pos with known containing domain.">
<polygon fill="white" stroke="#666666" points="482.5,-59.75 397.5,-59.75 397.5,-39 482.5,-39 482.5,-59.75"/>
<text xml:space="preserve" text-anchor="middle" x="440" y="-46.25" font-family="Helvetica,sans-Serif" font-size="10.00">SimJob::EField</text>
</a>
</g>
</g>
<!-- Node2&#45;&gt;Node7 -->
<g id="edge6_Node000002_Node000007" class="edge">
<title>Node2&#45;&gt;Node7</title>
<g id="a_edge6_Node000002_Node000007"><a xlink:title=" ">
<path fill="none" stroke="#63b8ff" d="M532.36,-49.38C515.62,-49.38 498,-49.38 482.75,-49.38"/>
<polygon fill="#63b8ff" stroke="#63b8ff" points="532.26,-52.88 542.26,-49.38 532.26,-45.88 532.26,-52.88"/>
</a>
</g>
</g>
<!-- Node4 -->
<g id="Node000004" class="node">
<title>Node4</title>
<g id="a_Node000004"><a xlink:href="classSimJob.html#aa492cf9e3639f2dfa91e36364a76729a" target="_top" xlink:title="Thread worker to evaluate fields over posvec in parallel.">
<polygon fill="white" stroke="#666666" points="348.75,-59.75 212.75,-59.75 212.75,-39 348.75,-39 348.75,-59.75"/>
<text xml:space="preserve" text-anchor="middle" x="280.75" y="-46.25" font-family="Helvetica,sans-Serif" font-size="10.00">SimJob::FieldEvalParallel</text>
</a>
</g>
</g>
<!-- Node3&#45;&gt;Node4 -->
<g id="edge3_Node000003_Node000004" class="edge">
<title>Node3&#45;&gt;Node4</title>
<g id="a_edge3_Node000003_Node000004"><a xlink:title=" ">
<path fill="none" stroke="#63b8ff" d="M386.3,-75.31C366.59,-70.42 344.43,-64.92 325.6,-60.25"/>
<polygon fill="#63b8ff" stroke="#63b8ff" points="385.26,-78.65 395.8,-77.66 386.94,-71.86 385.26,-78.65"/>
</a>
</g>
</g>
<!-- Node5 -->
<g id="Node000005" class="node">
<title>Node5</title>
<g id="a_Node000005"><a xlink:href="classSimJob.html#a20b37e2e0aa2502a3ec465a5705b1774" target="_top" xlink:title="Evaluate fields on a set of points read from a file.">
<polygon fill="white" stroke="#666666" points="176.75,-59.75 76.75,-59.75 76.75,-39 176.75,-39 176.75,-59.75"/>
<text xml:space="preserve" text-anchor="middle" x="126.75" y="-46.25" font-family="Helvetica,sans-Serif" font-size="10.00">SimJob::FieldEval</text>
</a>
</g>
</g>
<!-- Node4&#45;&gt;Node5 -->
<g id="edge4_Node000004_Node000005" class="edge">
<title>Node4&#45;&gt;Node5</title>
<g id="a_edge4_Node000004_Node000005"><a xlink:title=" ">
<path fill="none" stroke="#63b8ff" d="M201.4,-49.38C193.16,-49.38 184.94,-49.38 177.16,-49.38"/>
<polygon fill="#63b8ff" stroke="#63b8ff" points="201.12,-52.88 211.12,-49.38 201.12,-45.88 201.12,-52.88"/>
</a>
</g>
</g>
<!-- Node6 -->
<g id="Node000006" class="node">
<title>Node6</title>
<g id="a_Node000006"><a xlink:href="main_8cpp.html#a0ddf1224851353fc92bfbff6f499fa97" target="_top" xlink:title="Main driver routine for the HELIOS SIE simulation program.">
<polygon fill="white" stroke="#666666" points="40.75,-59.75 0,-59.75 0,-39 40.75,-39 40.75,-59.75"/>
<text xml:space="preserve" text-anchor="middle" x="20.38" y="-46.25" font-family="Helvetica,sans-Serif" font-size="10.00">main</text>
</a>
</g>
</g>
<!-- Node5&#45;&gt;Node6 -->
<g id="edge5_Node000005_Node000006" class="edge">
<title>Node5&#45;&gt;Node6</title>
<g id="a_edge5_Node000005_Node000006"><a xlink:title=" ">
<path fill="none" stroke="#63b8ff" d="M64.97,-49.38C56.42,-49.38 48.18,-49.38 41.22,-49.38"/>
<polygon fill="#63b8ff" stroke="#63b8ff" points="64.8,-52.88 74.8,-49.38 64.8,-45.88 64.8,-52.88"/>
</a>
</g>
</g>
<!-- Node9 -->
<g id="Node000009" class="node">
<title>Node9</title>
<g id="a_Node000009"><a xlink:href="classSimJob.html#a24f10b7bb14c9181341d07a783e00214" target="_top" xlink:title="Return both , &#160;incident and secondary pairs at pos.">
<polygon fill="white" stroke="#666666" points="495.25,-20.75 384.75,-20.75 384.75,0 495.25,0 495.25,-20.75"/>
<text xml:space="preserve" text-anchor="middle" x="440" y="-7.25" font-family="Helvetica,sans-Serif" font-size="10.00">SimJob::EandHField</text>
</a>
</g>
</g>
<!-- Node8&#45;&gt;Node9 -->
<g id="edge8_Node000008_Node000009" class="edge">
<title>Node8&#45;&gt;Node9</title>
<g id="a_edge8_Node000008_Node000009"><a xlink:title=" ">
<path fill="none" stroke="#63b8ff" d="M519.53,-10.38C511.44,-10.38 503.33,-10.38 495.57,-10.38"/>
<polygon fill="#63b8ff" stroke="#63b8ff" points="519.42,-13.88 529.42,-10.38 519.42,-6.88 519.42,-13.88"/>
</a>
</g>
</g>
<!-- Node9&#45;&gt;Node4 -->
<g id="edge9_Node000009_Node000004" class="edge">
<title>Node9&#45;&gt;Node4</title>
<g id="a_edge9_Node000009_Node000004"><a xlink:title=" ">
<path fill="none" stroke="#63b8ff" d="M384.19,-23.97C365.01,-28.72 343.75,-34 325.59,-38.5"/>
<polygon fill="#63b8ff" stroke="#63b8ff" points="384.86,-27.41 393.73,-21.6 383.18,-20.61 384.86,-27.41"/>
</a>
</g>
</g>
</g>
</svg>
