<?xml version="1.0" encoding="UTF-8" standalone="no"?>
<!DOCTYPE svg PUBLIC "-//W3C//DTD SVG 1.1//EN"
 "http://www.w3.org/Graphics/SVG/1.1/DTD/svg11.dtd">
<!-- Generated by graphviz version 13.1.2 (20250809.0930)
 -->
<!-- Title: Domain::absorptionCS Pages: 1 -->
<svg width="502pt" height="29pt"
 viewBox="0.00 0.00 502.00 29.00" xmlns="http://www.w3.org/2000/svg" xmlns:xlink="http://www.w3.org/1999/xlink">
<g id="graph0" class="graph" transform="scale(1 1) rotate(0) translate(4 24.75)">
<title>Domain::absorptionCS</title>
<!-- Node1 -->
<g id="Node000001" class="node">
<title>Node1</title>
<g id="a_Node000001"><a xlink:title="Absorption cross section.">
<polygon fill="#999999" stroke="#666666" points="493.75,-20.75 369,-20.75 369,0 493.75,0 493.75,-20.75"/>
<text xml:space="preserve" text-anchor="middle" x="431.38" y="-7.25" font-family="Helvetica,sans-Serif" font-size="10.00">Domain::absorptionCS</text>
</a>
</g>
</g>
<!-- Node2 -->
<g id="Node000002" class="node">
<title>Node2</title>
<g id="a_Node000002"><a xlink:href="classSimJob.html#a07cd9c621e5cc832dff656272529a8bb" target="_top" xlink:title="Absorption cross&#45;section.">
<polygon fill="white" stroke="#666666" points="333,-20.75 212.75,-20.75 212.75,0 333,0 333,-20.75"/>
<text xml:space="preserve" text-anchor="middle" x="272.88" y="-7.25" font-family="Helvetica,sans-Serif" font-size="10.00">SimJob::absorptionCS</text>
</a>
</g>
</g>
<!-- Node1&#45;&gt;Node2 -->
<g id="edge1_Node000001_Node000002" class="edge">
<title>Node1&#45;&gt;Node2</title>
<g id="a_edge1_Node000001_Node000002"><a xlink:title=" ">
<path fill="none" stroke="#63b8ff" d="M357.04,-10.38C349.15,-10.38 341.19,-10.38 333.49,-10.38"/>
<polygon fill="#63b8ff" stroke="#63b8ff" points="357.01,-13.88 367.01,-10.38 357.01,-6.88 357.01,-13.88"/>
</a>
</g>
</g>
<!-- Node3 -->
<g id="Node000003" class="node">
<title>Node3</title>
<g id="a_Node000003"><a xlink:href="classSimJob.html#a20b37e2e0aa2502a3ec465a5705b1774" target="_top" xlink:title="Evaluate fields on a set of points read from a file.">
<polygon fill="white" stroke="#666666" points="176.75,-20.75 76.75,-20.75 76.75,0 176.75,0 176.75,-20.75"/>
<text xml:space="preserve" text-anchor="middle" x="126.75" y="-7.25" font-family="Helvetica,sans-Serif" font-size="10.00">SimJob::FieldEval</text>
</a>
</g>
</g>
<!-- Node2&#45;&gt;Node3 -->
<g id="edge2_Node000002_Node000003" class="edge">
<title>Node2&#45;&gt;Node3</title>
<g id="a_edge2_Node000002_Node000003"><a xlink:title=" ">
<path fill="none" stroke="#63b8ff" d="M201,-10.38C192.87,-10.38 184.73,-10.38 176.98,-10.38"/>
<polygon fill="#63b8ff" stroke="#63b8ff" points="200.91,-13.88 210.91,-10.38 200.91,-6.88 200.91,-13.88"/>
</a>
</g>
</g>
<!-- Node4 -->
<g id="Node000004" class="node">
<title>Node4</title>
<g id="a_Node000004"><a xlink:href="main_8cpp.html#a0ddf1224851353fc92bfbff6f499fa97" target="_top" xlink:title="Main driver routine for the HELIOS SIE simulation program.">
<polygon fill="white" stroke="#666666" points="40.75,-20.75 0,-20.75 0,0 40.75,0 40.75,-20.75"/>
<text xml:space="preserve" text-anchor="middle" x="20.38" y="-7.25" font-family="Helvetica,sans-Serif" font-size="10.00">main</text>
</a>
</g>
</g>
<!-- Node3&#45;&gt;Node4 -->
<g id="edge3_Node000003_Node000004" class="edge">
<title>Node3&#45;&gt;Node4</title>
<g id="a_edge3_Node000003_Node000004"><a xlink:title=" ">
<path fill="none" stroke="#63b8ff" d="M64.97,-10.38C56.42,-10.38 48.18,-10.38 41.22,-10.38"/>
<polygon fill="#63b8ff" stroke="#63b8ff" points="64.8,-13.88 74.8,-10.38 64.8,-6.88 64.8,-13.88"/>
</a>
</g>
</g>
</g>
</svg>
