<?xml version="1.0" encoding="UTF-8" standalone="no"?>
<!DOCTYPE svg PUBLIC "-//W3C//DTD SVG 1.1//EN"
 "http://www.w3.org/Graphics/SVG/1.1/DTD/svg11.dtd">
<!-- Generated by graphviz version 13.1.2 (20250809.0930)
 -->
<!-- Title: GaussQuad::IntegrateD Pages: 1 -->
<svg width="428pt" height="212pt"
 viewBox="0.00 0.00 428.00 212.00" xmlns="http://www.w3.org/2000/svg" xmlns:xlink="http://www.w3.org/1999/xlink">
<g id="graph0" class="graph" transform="scale(1 1) rotate(0) translate(4 207.92)">
<title>GaussQuad::IntegrateD</title>
<!-- Node1 -->
<g id="Node000001" class="node">
<title>Node1</title>
<g id="a_Node000001"><a xlink:title="Two‑triangle integral for the D operator (Eq.">
<polygon fill="#999999" stroke="#666666" points="129.25,-125.75 0,-125.75 0,-105 129.25,-105 129.25,-125.75"/>
<text xml:space="preserve" text-anchor="middle" x="64.62" y="-112.25" font-family="Helvetica,sans-Serif" font-size="10.00">GaussQuad::IntegrateD</text>
</a>
</g>
</g>
<!-- Node2 -->
<g id="Node000002" class="node">
<title>Node2</title>
<g id="a_Node000002"><a xlink:href="classTriangle.html#a1d3d08deeb999f339d2e821a877521ba" target="_top" xlink:title="Surface area of the triangle.">
<polygon fill="white" stroke="#666666" points="395.25,-164.75 312.5,-164.75 312.5,-144 395.25,-144 395.25,-164.75"/>
<text xml:space="preserve" text-anchor="middle" x="353.88" y="-151.25" font-family="Helvetica,sans-Serif" font-size="10.00">Triangle::Area</text>
</a>
</g>
</g>
<!-- Node1&#45;&gt;Node2 -->
<g id="edge1_Node000001_Node000002" class="edge">
<title>Node1&#45;&gt;Node2</title>
<g id="a_edge1_Node000001_Node000002"><a xlink:title=" ">
<path fill="none" stroke="#63b8ff" d="M78.77,-126.14C96.91,-140.22 131.24,-164.2 165.25,-173.38 212.72,-186.19 269.06,-177.43 307.53,-168"/>
<polygon fill="#63b8ff" stroke="#63b8ff" points="308.1,-171.47 316.91,-165.58 306.35,-164.69 308.1,-171.47"/>
</a>
</g>
</g>
<!-- Node3 -->
<g id="Node000003" class="node">
<title>Node3</title>
<g id="a_Node000003"><a xlink:href="classTriangle.html#ab78508a340ec5d345adf114b43563dbf" target="_top" xlink:title="Centroid of the triangle.">
<polygon fill="white" stroke="#666666" points="400.12,-203.75 307.62,-203.75 307.62,-183 400.12,-183 400.12,-203.75"/>
<text xml:space="preserve" text-anchor="middle" x="353.88" y="-190.25" font-family="Helvetica,sans-Serif" font-size="10.00">Triangle::Center</text>
</a>
</g>
</g>
<!-- Node1&#45;&gt;Node3 -->
<g id="edge2_Node000001_Node000003" class="edge">
<title>Node1&#45;&gt;Node3</title>
<g id="a_edge2_Node000001_Node000003"><a xlink:title=" ">
<path fill="none" stroke="#63b8ff" d="M75.35,-126.2C91.83,-143.63 127.16,-177.3 165.25,-190.38 207.28,-204.8 257.78,-204.71 295.8,-201.47"/>
<polygon fill="#63b8ff" stroke="#63b8ff" points="296.05,-204.96 305.66,-200.52 295.38,-197.99 296.05,-204.96"/>
</a>
</g>
</g>
<!-- Node4 -->
<g id="Node000004" class="node">
<title>Node4</title>
<g id="a_Node000004"><a xlink:href="classRWGFun.html#a7540ce2f84c6b42a29c2808504c47d42" target="_top" xlink:title="Evaluate the RWG vector shape function at a point on the triangle.">
<polygon fill="white" stroke="#666666" points="406.88,-77.75 300.88,-77.75 300.88,-57 406.88,-57 406.88,-77.75"/>
<text xml:space="preserve" text-anchor="middle" x="353.88" y="-64.25" font-family="Helvetica,sans-Serif" font-size="10.00">RWGFun::Evaluate</text>
</a>
</g>
</g>
<!-- Node1&#45;&gt;Node4 -->
<g id="edge3_Node000001_Node000004" class="edge">
<title>Node1&#45;&gt;Node4</title>
<g id="a_edge3_Node000001_Node000004"><a xlink:title=" ">
<path fill="none" stroke="#63b8ff" d="M102.25,-104.52C120.96,-99.3 144.17,-93.34 165.25,-89.38 206.11,-81.69 252.52,-76.22 288.95,-72.65"/>
<polygon fill="#63b8ff" stroke="#63b8ff" points="289.28,-76.14 298.91,-71.71 288.62,-69.17 289.28,-76.14"/>
</a>
</g>
</g>
<!-- Node5 -->
<g id="Node000005" class="node">
<title>Node5</title>
<g id="a_Node000005"><a xlink:href="classGaussQuad.html#afecf86c6fbc2362c30d56fb10454621e" target="_top" xlink:title="I1: integral of scalar kernel times RWG prefactor over the test triangle.">
<polygon fill="white" stroke="#666666" points="251.75,-125.75 165.25,-125.75 165.25,-105 251.75,-105 251.75,-125.75"/>
<text xml:space="preserve" text-anchor="middle" x="208.5" y="-112.25" font-family="Helvetica,sans-Serif" font-size="10.00">GaussQuad::I1</text>
</a>
</g>
</g>
<!-- Node1&#45;&gt;Node5 -->
<g id="edge4_Node000001_Node000005" class="edge">
<title>Node1&#45;&gt;Node5</title>
<g id="a_edge4_Node000001_Node000005"><a xlink:title=" ">
<path fill="none" stroke="#63b8ff" d="M129.51,-115.38C137.61,-115.38 145.84,-115.38 153.76,-115.38"/>
<polygon fill="#63b8ff" stroke="#63b8ff" points="153.59,-118.88 163.59,-115.38 153.59,-111.88 153.59,-118.88"/>
</a>
</g>
</g>
<!-- Node6 -->
<g id="Node000006" class="node">
<title>Node6</title>
<g id="a_Node000006"><a xlink:href="classRWGFun.html#a7cd7779305937d48196453e53d0d4df8" target="_top" xlink:title="Return L_n / A_n (missing factor 1/2 by convention).">
<polygon fill="white" stroke="#666666" points="420,-20.75 287.75,-20.75 287.75,0 420,0 420,-20.75"/>
<text xml:space="preserve" text-anchor="middle" x="353.88" y="-7.25" font-family="Helvetica,sans-Serif" font-size="10.00">RWGFun::RWGPreFactor</text>
</a>
</g>
</g>
<!-- Node1&#45;&gt;Node6 -->
<g id="edge14_Node000001_Node000006" class="edge">
<title>Node1&#45;&gt;Node6</title>
<g id="a_edge14_Node000001_Node000006"><a xlink:title=" ">
<path fill="none" stroke="#63b8ff" d="M89.98,-104.5C110.03,-95.7 139.27,-83.2 165.25,-73.38 213.22,-55.24 269.04,-36.83 307.24,-24.64"/>
<polygon fill="#63b8ff" stroke="#63b8ff" points="308.11,-28.04 316.58,-21.67 305.99,-21.37 308.11,-28.04"/>
</a>
</g>
</g>
<!-- Node7 -->
<g id="Node000007" class="node">
<title>Node7</title>
<g id="a_Node000007"><a xlink:href="classRWGFun.html#a6d9c854fc60bc02cb51ffb60cf388ccc" target="_top" xlink:title="Get the pointer to the owner Triangle.">
<polygon fill="white" stroke="#666666" points="411.38,-125.75 296.38,-125.75 296.38,-105 411.38,-105 411.38,-125.75"/>
<text xml:space="preserve" text-anchor="middle" x="353.88" y="-112.25" font-family="Helvetica,sans-Serif" font-size="10.00">RWGFun::TrianglePtr</text>
</a>
</g>
</g>
<!-- Node1&#45;&gt;Node7 -->
<g id="edge15_Node000001_Node000007" class="edge">
<title>Node1&#45;&gt;Node7</title>
<g id="a_edge15_Node000001_Node000007"><a xlink:title=" ">
<path fill="none" stroke="#63b8ff" d="M112.75,-104.5C129.25,-101.2 147.98,-98.01 165.25,-96.38 203.52,-92.76 213.47,-92.81 251.75,-96.38 265.44,-97.65 280.03,-99.87 293.76,-102.36"/>
<polygon fill="#63b8ff" stroke="#63b8ff" points="293.07,-105.8 303.55,-104.22 294.38,-98.92 293.07,-105.8"/>
</a>
</g>
</g>
<!-- Node8 -->
<g id="Node000008" class="node">
<title>Node8</title>
<g id="a_Node000008"><a xlink:href="classGaussQuad.html#a017bdf3c80a430f4c381310bd7b680ed" target="_top" xlink:title="I2: vector form with the RWG basis evaluated at the centroid.">
<polygon fill="white" stroke="#666666" points="251.75,-164.75 165.25,-164.75 165.25,-144 251.75,-144 251.75,-164.75"/>
<text xml:space="preserve" text-anchor="middle" x="208.5" y="-151.25" font-family="Helvetica,sans-Serif" font-size="10.00">GaussQuad::I2</text>
</a>
</g>
</g>
<!-- Node1&#45;&gt;Node8 -->
<g id="edge9_Node000001_Node000008" class="edge">
<title>Node1&#45;&gt;Node8</title>
<g id="a_edge9_Node000001_Node000008"><a xlink:title=" ">
<path fill="none" stroke="#63b8ff" d="M105.15,-126.24C121.29,-130.68 140.15,-135.86 157.25,-140.56"/>
<polygon fill="#63b8ff" stroke="#63b8ff" points="156.16,-143.89 166.73,-143.17 158.02,-137.14 156.16,-143.89"/>
</a>
</g>
</g>
<!-- Node5&#45;&gt;Node2 -->
<g id="edge5_Node000005_Node000002" class="edge">
<title>Node5&#45;&gt;Node2</title>
<g id="a_edge5_Node000005_Node000002"><a xlink:title=" ">
<path fill="none" stroke="#63b8ff" d="M249.44,-126.24C265.75,-130.68 284.81,-135.86 302.1,-140.56"/>
<polygon fill="#63b8ff" stroke="#63b8ff" points="301.12,-143.92 311.69,-143.17 302.96,-137.17 301.12,-143.92"/>
</a>
</g>
</g>
<!-- Node5&#45;&gt;Node3 -->
<g id="edge6_Node000005_Node000003" class="edge">
<title>Node5&#45;&gt;Node3</title>
<g id="a_edge6_Node000005_Node000003"><a xlink:title=" ">
<path fill="none" stroke="#63b8ff" d="M236.27,-126.2C241.61,-128.86 247.02,-131.95 251.75,-135.38 270.59,-149.03 267.98,-161.11 287.75,-173.38 290.67,-175.19 293.77,-176.85 296.96,-178.36"/>
<polygon fill="#63b8ff" stroke="#63b8ff" points="295.44,-181.52 306.01,-182.15 298.14,-175.06 295.44,-181.52"/>
</a>
</g>
</g>
<!-- Node5&#45;&gt;Node6 -->
<g id="edge7_Node000005_Node000006" class="edge">
<title>Node5&#45;&gt;Node6</title>
<g id="a_edge7_Node000005_Node000006"><a xlink:title=" ">
<path fill="none" stroke="#63b8ff" d="M220.64,-104.71C235.35,-90.88 262.39,-66.41 287.75,-48.38 298.69,-40.59 311.33,-32.94 322.54,-26.57"/>
<polygon fill="#63b8ff" stroke="#63b8ff" points="323.98,-29.77 331.02,-21.85 320.58,-23.66 323.98,-29.77"/>
</a>
</g>
</g>
<!-- Node5&#45;&gt;Node7 -->
<g id="edge8_Node000005_Node000007" class="edge">
<title>Node5&#45;&gt;Node7</title>
<g id="a_edge8_Node000005_Node000007"><a xlink:title=" ">
<path fill="none" stroke="#63b8ff" d="M252.13,-115.38C262.36,-115.38 273.54,-115.38 284.61,-115.38"/>
<polygon fill="#63b8ff" stroke="#63b8ff" points="284.56,-118.88 294.56,-115.38 284.56,-111.88 284.56,-118.88"/>
</a>
</g>
</g>
<!-- Node8&#45;&gt;Node2 -->
<g id="edge10_Node000008_Node000002" class="edge">
<title>Node8&#45;&gt;Node2</title>
<g id="a_edge10_Node000008_Node000002"><a xlink:title=" ">
<path fill="none" stroke="#63b8ff" d="M252.13,-154.38C267.41,-154.38 284.8,-154.38 300.79,-154.38"/>
<polygon fill="#63b8ff" stroke="#63b8ff" points="300.62,-157.88 310.62,-154.38 300.62,-150.88 300.62,-157.88"/>
</a>
</g>
</g>
<!-- Node8&#45;&gt;Node3 -->
<g id="edge11_Node000008_Node000003" class="edge">
<title>Node8&#45;&gt;Node3</title>
<g id="a_edge11_Node000008_Node000003"><a xlink:title=" ">
<path fill="none" stroke="#63b8ff" d="M249.44,-165.24C265.75,-169.68 284.81,-174.86 302.1,-179.56"/>
<polygon fill="#63b8ff" stroke="#63b8ff" points="301.12,-182.92 311.69,-182.17 302.96,-176.17 301.12,-182.92"/>
</a>
</g>
</g>
<!-- Node8&#45;&gt;Node4 -->
<g id="edge12_Node000008_Node000004" class="edge">
<title>Node8&#45;&gt;Node4</title>
<g id="a_edge12_Node000008_Node000004"><a xlink:title=" ">
<path fill="none" stroke="#63b8ff" d="M236.27,-143.55C241.61,-140.89 247.02,-137.8 251.75,-134.38 270.59,-120.72 268.76,-109.81 287.75,-96.38 295.07,-91.2 303.46,-86.63 311.73,-82.74"/>
<polygon fill="#63b8ff" stroke="#63b8ff" points="312.93,-86.03 320.66,-78.79 310.1,-79.63 312.93,-86.03"/>
</a>
</g>
</g>
<!-- Node8&#45;&gt;Node7 -->
<g id="edge13_Node000008_Node000007" class="edge">
<title>Node8&#45;&gt;Node7</title>
<g id="a_edge13_Node000008_Node000007"><a xlink:title=" ">
<path fill="none" stroke="#63b8ff" d="M249.44,-143.51C265.75,-139.07 284.81,-133.89 302.1,-129.19"/>
<polygon fill="#63b8ff" stroke="#63b8ff" points="302.96,-132.58 311.69,-126.58 301.12,-125.83 302.96,-132.58"/>
</a>
</g>
</g>
</g>
</svg>
