<?xml version="1.0" encoding="UTF-8" standalone="no"?>
<!DOCTYPE svg PUBLIC "-//W3C//DTD SVG 1.1//EN"
 "http://www.w3.org/Graphics/SVG/1.1/DTD/svg11.dtd">
<!-- Generated by graphviz version 13.1.2 (20250809.0930)
 -->
<!-- Title: GreenFHom3D::Smoothed Pages: 1 -->
<svg width="352pt" height="119pt"
 viewBox="0.00 0.00 352.00 119.00" xmlns="http://www.w3.org/2000/svg" xmlns:xlink="http://www.w3.org/1999/xlink">
<g id="graph0" class="graph" transform="scale(1 1) rotate(0) translate(4 114.75)">
<title>GreenFHom3D::Smoothed</title>
<!-- Node1 -->
<g id="Node000001" class="node">
<title>Node1</title>
<g id="a_Node000001"><a xlink:title="Smoothed scalar kernel used under singularity subtraction.">
<polygon fill="#999999" stroke="#666666" points="344,-65.75 200.5,-65.75 200.5,-45 344,-45 344,-65.75"/>
<text xml:space="preserve" text-anchor="middle" x="272.25" y="-52.25" font-family="Helvetica,sans-Serif" font-size="10.00">GreenFHom3D::Smoothed</text>
</a>
</g>
</g>
<!-- Node2 -->
<g id="Node000002" class="node">
<title>Node2</title>
<g id="a_Node000002"><a xlink:href="classGreenFHom3D.html#aca136b03c44ad1da34acf91eb5a5e390" target="_top" xlink:title="term at an observation point.">
<polygon fill="white" stroke="#666666" points="164.5,-110.75 0,-110.75 0,-90 164.5,-90 164.5,-110.75"/>
<text xml:space="preserve" text-anchor="middle" x="82.25" y="-97.25" font-family="Helvetica,sans-Serif" font-size="10.00">GreenFHom3D::IntegrateDelta</text>
</a>
</g>
</g>
<!-- Node1&#45;&gt;Node2 -->
<g id="edge1_Node000001_Node000002" class="edge">
<title>Node1&#45;&gt;Node2</title>
<g id="a_edge1_Node000001_Node000002"><a xlink:title=" ">
<path fill="none" stroke="#63b8ff" d="M215.97,-68.94C199.42,-72.97 181.23,-77.38 164.5,-81.38 153.23,-84.07 141.07,-86.93 129.67,-89.6"/>
<polygon fill="#63b8ff" stroke="#63b8ff" points="216.77,-72.35 225.65,-66.58 215.11,-65.55 216.77,-72.35"/>
</a>
</g>
</g>
<!-- Node3 -->
<g id="Node000003" class="node">
<title>Node3</title>
<g id="a_Node000003"><a xlink:href="classGreenFHom3D.html#a48e8471aabb445e0e50a01c005ff3b98" target="_top" xlink:title="Compute &#160;for all RWGs on a source triangle.">
<polygon fill="white" stroke="#666666" points="161.88,-72.12 2.62,-72.12 2.62,-38.62 161.88,-38.62 161.88,-72.12"/>
<text xml:space="preserve" text-anchor="start" x="10.62" y="-58.62" font-family="Helvetica,sans-Serif" font-size="10.00">GreenFHom3D::SameTriDelta</text>
<text xml:space="preserve" text-anchor="middle" x="82.25" y="-45.88" font-family="Helvetica,sans-Serif" font-size="10.00">Kappa</text>
</a>
</g>
</g>
<!-- Node1&#45;&gt;Node3 -->
<g id="edge2_Node000001_Node000003" class="edge">
<title>Node1&#45;&gt;Node3</title>
<g id="a_edge2_Node000001_Node000003"><a xlink:title=" ">
<path fill="none" stroke="#63b8ff" d="M188.73,-55.38C179.95,-55.38 171.03,-55.38 162.29,-55.38"/>
<polygon fill="#63b8ff" stroke="#63b8ff" points="188.66,-58.88 198.66,-55.38 188.66,-51.88 188.66,-58.88"/>
</a>
</g>
</g>
<!-- Node4 -->
<g id="Node000004" class="node">
<title>Node4</title>
<g id="a_Node000004"><a xlink:href="classGreenFHom3D.html#a419cbe00b5a2aed70ac546904a8a8d6f" target="_top" xlink:title="Compute &#160;and &#160;for all RWG pairs on two triangles.">
<polygon fill="white" stroke="#666666" points="155.88,-20.75 8.62,-20.75 8.62,0 155.88,0 155.88,-20.75"/>
<text xml:space="preserve" text-anchor="middle" x="82.25" y="-7.25" font-family="Helvetica,sans-Serif" font-size="10.00">GreenFHom3D::SameTriDK</text>
</a>
</g>
</g>
<!-- Node1&#45;&gt;Node4 -->
<g id="edge3_Node000001_Node000004" class="edge">
<title>Node1&#45;&gt;Node4</title>
<g id="a_edge3_Node000001_Node000004"><a xlink:title=" ">
<path fill="none" stroke="#63b8ff" d="M215.97,-41.81C199.42,-37.78 181.23,-33.37 164.5,-29.38 153.23,-26.68 141.07,-23.82 129.67,-21.15"/>
<polygon fill="#63b8ff" stroke="#63b8ff" points="215.11,-45.2 225.65,-44.17 216.77,-38.4 215.11,-45.2"/>
</a>
</g>
</g>
</g>
</svg>
