<?xml version="1.0" encoding="UTF-8" standalone="no"?>
<!DOCTYPE svg PUBLIC "-//W3C//DTD SVG 1.1//EN"
 "http://www.w3.org/Graphics/SVG/1.1/DTD/svg11.dtd">
<!-- Generated by graphviz version 13.1.2 (20250809.0930)
 -->
<!-- Title: SurfaceMesh::LoadFromMeshFile Pages: 1 -->
<svg width="559pt" height="87pt"
 viewBox="0.00 0.00 559.00 87.00" xmlns="http://www.w3.org/2000/svg" xmlns:xlink="http://www.w3.org/1999/xlink">
<g id="graph0" class="graph" transform="scale(1 1) rotate(0) translate(4 82.75)">
<title>SurfaceMesh::LoadFromMeshFile</title>
<!-- Node1 -->
<g id="Node000001" class="node">
<title>Node1</title>
<g id="a_Node000001"><a xlink:title="Read mesh from the custom &quot;.mesh&quot; text format.">
<polygon fill="#999999" stroke="#666666" points="176.5,-39.75 0,-39.75 0,-19 176.5,-19 176.5,-39.75"/>
<text xml:space="preserve" text-anchor="middle" x="88.25" y="-26.25" font-family="Helvetica,sans-Serif" font-size="10.00">SurfaceMesh::LoadFromMeshFile</text>
</a>
</g>
</g>
<!-- Node2 -->
<g id="Node000002" class="node">
<title>Node2</title>
<g id="a_Node000002"><a xlink:href="classSurfaceMesh.html#ad8c7eef9fac668b92caf8b4418dcb4ff" target="_top" xlink:title="Insert edge (n1,n2) if not already present (directly or via BC image).">
<polygon fill="white" stroke="#666666" points="371.75,-59.75 212.5,-59.75 212.5,-39 371.75,-39 371.75,-59.75"/>
<text xml:space="preserve" text-anchor="middle" x="292.12" y="-46.25" font-family="Helvetica,sans-Serif" font-size="10.00">SurfaceMesh::AddEdgeTested</text>
</a>
</g>
</g>
<!-- Node1&#45;&gt;Node2 -->
<g id="edge1_Node000001_Node000002" class="edge">
<title>Node1&#45;&gt;Node2</title>
<g id="a_edge1_Node000001_Node000002"><a xlink:title=" ">
<path fill="none" stroke="#63b8ff" d="M176.91,-38.06C184.87,-38.85 192.94,-39.65 200.91,-40.44"/>
<polygon fill="#63b8ff" stroke="#63b8ff" points="200.31,-43.89 210.61,-41.4 201,-36.93 200.31,-43.89"/>
</a>
</g>
</g>
<!-- Node5 -->
<g id="Node000005" class="node">
<title>Node5</title>
<g id="a_Node000005"><a xlink:href="group__driver.html#ga3859b179ce92396b3d9187e4437d8826" target="_top" xlink:title="Read a value of type T from a text stream, skipping lines beginning with &#39;#&#39;.">
<polygon fill="white" stroke="#666666" points="342.5,-20.75 241.75,-20.75 241.75,0 342.5,0 342.5,-20.75"/>
<text xml:space="preserve" text-anchor="middle" x="292.12" y="-7.25" font-family="Helvetica,sans-Serif" font-size="10.00">ReadCommented</text>
</a>
</g>
</g>
<!-- Node1&#45;&gt;Node5 -->
<g id="edge4_Node000001_Node000005" class="edge">
<title>Node1&#45;&gt;Node5</title>
<g id="a_edge4_Node000001_Node000005"><a xlink:title=" ">
<path fill="none" stroke="#63b8ff" d="M176.91,-21.12C194.81,-19.44 213.27,-17.7 230,-16.13"/>
<polygon fill="#63b8ff" stroke="#63b8ff" points="230.14,-19.63 239.77,-15.21 229.48,-12.66 230.14,-19.63"/>
</a>
</g>
</g>
<!-- Node3 -->
<g id="Node000003" class="node">
<title>Node3</title>
<g id="a_Node000003"><a xlink:href="classSurfaceMesh.html#a7c57c7085e749775a96cb25a5424834e" target="_top" xlink:title="Find the index of an edge mapped between n1,n2 via a stored symmetry op.">
<polygon fill="white" stroke="#666666" points="550.5,-78.75 407.75,-78.75 407.75,-58 550.5,-58 550.5,-78.75"/>
<text xml:space="preserve" text-anchor="middle" x="479.12" y="-65.25" font-family="Helvetica,sans-Serif" font-size="10.00">SurfaceMesh::FindEdgeBC</text>
</a>
</g>
</g>
<!-- Node2&#45;&gt;Node3 -->
<g id="edge2_Node000002_Node000003" class="edge">
<title>Node2&#45;&gt;Node3</title>
<g id="a_edge2_Node000002_Node000003"><a xlink:title=" ">
<path fill="none" stroke="#63b8ff" d="M372.12,-57.49C379.97,-58.29 387.96,-59.11 395.84,-59.92"/>
<polygon fill="#63b8ff" stroke="#63b8ff" points="395.48,-63.41 405.79,-60.95 396.2,-56.44 395.48,-63.41"/>
</a>
</g>
</g>
<!-- Node4 -->
<g id="Node000004" class="node">
<title>Node4</title>
<g id="a_Node000004"><a xlink:href="classSurfaceMesh.html#a45445ddd5776f8236dc72058cc1c7b18" target="_top" xlink:title="Find the index of an existing edge between two nodes (direct match).">
<polygon fill="white" stroke="#666666" points="550.12,-39.75 408.12,-39.75 408.12,-19 550.12,-19 550.12,-39.75"/>
<text xml:space="preserve" text-anchor="middle" x="479.12" y="-26.25" font-family="Helvetica,sans-Serif" font-size="10.00">SurfaceMesh::FindEdgeFB</text>
</a>
</g>
</g>
<!-- Node2&#45;&gt;Node4 -->
<g id="edge3_Node000002_Node000004" class="edge">
<title>Node2&#45;&gt;Node4</title>
<g id="a_edge3_Node000002_Node000004"><a xlink:title=" ">
<path fill="none" stroke="#63b8ff" d="M372.12,-40.84C380.2,-39.96 388.41,-39.07 396.52,-38.2"/>
<polygon fill="#63b8ff" stroke="#63b8ff" points="396.8,-41.69 406.37,-37.13 396.05,-34.73 396.8,-41.69"/>
</a>
</g>
</g>
</g>
</svg>
