<?xml version="1.0" encoding="UTF-8" standalone="no"?>
<!DOCTYPE svg PUBLIC "-//W3C//DTD SVG 1.1//EN"
 "http://www.w3.org/Graphics/SVG/1.1/DTD/svg11.dtd">
<!-- Generated by graphviz version 13.1.2 (20250809.0930)
 -->
<!-- Title: SimJob::Simulate Pages: 1 -->
<svg width="672pt" height="653pt"
 viewBox="0.00 0.00 672.00 653.00" xmlns="http://www.w3.org/2000/svg" xmlns:xlink="http://www.w3.org/1999/xlink">
<g id="graph0" class="graph" transform="scale(1 1) rotate(0) translate(4 648.75)">
<title>SimJob::Simulate</title>
<!-- Node1 -->
<g id="Node000001" class="node">
<title>Node1</title>
<g id="a_Node000001"><a xlink:title="High&#45;level entry: run a simulation for a given job file.">
<polygon fill="#999999" stroke="#666666" points="99.25,-488.75 0,-488.75 0,-468 99.25,-468 99.25,-488.75"/>
<text xml:space="preserve" text-anchor="middle" x="49.62" y="-475.25" font-family="Helvetica,sans-Serif" font-size="10.00">SimJob::Simulate</text>
</a>
</g>
</g>
<!-- Node2 -->
<g id="Node000002" class="node">
<title>Node2</title>
<g id="a_Node000002"><a xlink:href="classSimJob.html#aab5e82b9e59f35e95195fe298b1aaeaf" target="_top" xlink:title="Allocate and zero the system matrix A (and gradients if enabled).">
<polygon fill="white" stroke="#666666" points="280.62,-644.75 143.88,-644.75 143.88,-624 280.62,-624 280.62,-644.75"/>
<text xml:space="preserve" text-anchor="middle" x="212.25" y="-631.25" font-family="Helvetica,sans-Serif" font-size="10.00">SimJob::CreateLSEMatrix</text>
</a>
</g>
</g>
<!-- Node1&#45;&gt;Node2 -->
<g id="edge1_Node000001_Node000002" class="edge">
<title>Node1&#45;&gt;Node2</title>
<g id="a_edge1_Node000001_Node000002"><a xlink:title=" ">
<path fill="none" stroke="#63b8ff" d="M54.16,-489.14C63.23,-514.98 89.83,-580.85 135.25,-614.38 137.3,-615.89 139.46,-617.29 141.69,-618.58"/>
<polygon fill="#63b8ff" stroke="#63b8ff" points="140.05,-621.67 150.57,-622.94 143.13,-615.39 140.05,-621.67"/>
</a>
</g>
</g>
<!-- Node3 -->
<g id="Node000003" class="node">
<title>Node3</title>
<g id="a_Node000003"><a xlink:href="classSimJob.html#a85f2c21f521105259a5dcbaabb9c4e7a" target="_top" xlink:title="Allocate and zero a new RHS vector b, and append to lseVectors.">
<polygon fill="white" stroke="#666666" points="273.5,-605.75 151,-605.75 151,-585 273.5,-585 273.5,-605.75"/>
<text xml:space="preserve" text-anchor="middle" x="212.25" y="-592.25" font-family="Helvetica,sans-Serif" font-size="10.00">SimJob::CreateLSEVec</text>
</a>
</g>
</g>
<!-- Node1&#45;&gt;Node3 -->
<g id="edge2_Node000001_Node000003" class="edge">
<title>Node1&#45;&gt;Node3</title>
<g id="a_edge2_Node000001_Node000003"><a xlink:title=" ">
<path fill="none" stroke="#63b8ff" d="M56.82,-488.98C69.11,-509.05 98.6,-552.63 135.25,-575.38 138.17,-577.19 141.25,-578.84 144.43,-580.34"/>
<polygon fill="#63b8ff" stroke="#63b8ff" points="142.89,-583.49 153.47,-584.06 145.56,-577.01 142.89,-583.49"/>
</a>
</g>
</g>
<!-- Node4 -->
<g id="Node000004" class="node">
<title>Node4</title>
<g id="a_Node000004"><a xlink:href="classSimJob.html#a6db37fa49c08fa49ae7888c32c8f382d" target="_top" xlink:title="Allocate and zero a new solution vector x, and append to solVectors.">
<polygon fill="white" stroke="#666666" points="272.38,-566.75 152.12,-566.75 152.12,-546 272.38,-546 272.38,-566.75"/>
<text xml:space="preserve" text-anchor="middle" x="212.25" y="-553.25" font-family="Helvetica,sans-Serif" font-size="10.00">SimJob::CreateSolVec</text>
</a>
</g>
</g>
<!-- Node1&#45;&gt;Node4 -->
<g id="edge3_Node000001_Node000004" class="edge">
<title>Node1&#45;&gt;Node4</title>
<g id="a_edge3_Node000001_Node000004"><a xlink:title=" ">
<path fill="none" stroke="#63b8ff" d="M63.26,-489.12C79.1,-502.08 107.55,-523.7 135.25,-536.38 139.77,-538.44 144.54,-540.33 149.4,-542.04"/>
<polygon fill="#63b8ff" stroke="#63b8ff" points="148.09,-545.29 158.68,-545.04 150.25,-538.63 148.09,-545.29"/>
</a>
</g>
</g>
<!-- Node5 -->
<g id="Node000005" class="node">
<title>Node5</title>
<g id="a_Node000005"><a xlink:href="classSimJob.html#a3e2febefec163d7d178559b7ecc47eab" target="_top" xlink:title="Dump A into a MATLAB friendly text file.">
<polygon fill="white" stroke="#666666" points="278.38,-527.75 146.12,-527.75 146.12,-507 278.38,-507 278.38,-527.75"/>
<text xml:space="preserve" text-anchor="middle" x="212.25" y="-514.25" font-family="Helvetica,sans-Serif" font-size="10.00">SimJob::dumpLSEMatrix</text>
</a>
</g>
</g>
<!-- Node1&#45;&gt;Node5 -->
<g id="edge4_Node000001_Node000005" class="edge">
<title>Node1&#45;&gt;Node5</title>
<g id="a_edge4_Node000001_Node000005"><a xlink:title=" ">
<path fill="none" stroke="#63b8ff" d="M95.37,-489.24C114,-493.76 135.83,-499.06 155.5,-503.84"/>
<polygon fill="#63b8ff" stroke="#63b8ff" points="154.45,-507.19 165,-506.14 156.11,-500.38 154.45,-507.19"/>
</a>
</g>
</g>
<!-- Node6 -->
<g id="Node000006" class="node">
<title>Node6</title>
<g id="a_Node000006"><a xlink:href="classSimJob.html#ad4379daaf974c35ffd98b1e2add63b6e" target="_top" xlink:title="Dump RHS vector into a MATLAB friendly text file.">
<polygon fill="white" stroke="#666666" points="278,-488.75 146.5,-488.75 146.5,-468 278,-468 278,-488.75"/>
<text xml:space="preserve" text-anchor="middle" x="212.25" y="-475.25" font-family="Helvetica,sans-Serif" font-size="10.00">SimJob::dumpLSEVector</text>
</a>
</g>
</g>
<!-- Node1&#45;&gt;Node6 -->
<g id="edge5_Node000001_Node000006" class="edge">
<title>Node1&#45;&gt;Node6</title>
<g id="a_edge5_Node000001_Node000006"><a xlink:title=" ">
<path fill="none" stroke="#63b8ff" d="M99.69,-478.38C110.81,-478.38 122.87,-478.38 134.82,-478.38"/>
<polygon fill="#63b8ff" stroke="#63b8ff" points="134.69,-481.88 144.69,-478.38 134.69,-474.88 134.69,-481.88"/>
</a>
</g>
</g>
<!-- Node7 -->
<g id="Node000007" class="node">
<title>Node7</title>
<g id="a_Node000007"><a xlink:href="classSimJob.html#a83d402c189aeefdce43afbd3cb66f709" target="_top" xlink:title="Parse a full &#160;block from the already&#45;open JobParser.">
<polygon fill="white" stroke="#666666" points="272.75,-390.75 151.75,-390.75 151.75,-370 272.75,-370 272.75,-390.75"/>
<text xml:space="preserve" text-anchor="middle" x="212.25" y="-377.25" font-family="Helvetica,sans-Serif" font-size="10.00">SimJob::LoadFromFile</text>
</a>
</g>
</g>
<!-- Node1&#45;&gt;Node7 -->
<g id="edge6_Node000001_Node000007" class="edge">
<title>Node1&#45;&gt;Node7</title>
<g id="a_edge6_Node000001_Node000007"><a xlink:title=" ">
<path fill="none" stroke="#63b8ff" d="M65.26,-467.57C81.87,-455.5 109.93,-435.64 135.25,-420.38 149.39,-411.85 165.53,-403.21 179.28,-396.15"/>
<polygon fill="#63b8ff" stroke="#63b8ff" points="180.57,-399.42 187.91,-391.78 177.41,-393.18 180.57,-399.42"/>
</a>
</g>
</g>
<!-- Node24 -->
<g id="Node000024" class="node">
<title>Node24</title>
<g id="a_Node000024"><a xlink:href="classSimJob.html#adba2c6ff445d17b3d75443f94a7de5eb" target="_top" xlink:title="Parse one &#160;(incident specification + label).">
<polygon fill="white" stroke="#666666" points="289.25,-449.75 135.25,-449.75 135.25,-429 289.25,-429 289.25,-449.75"/>
<text xml:space="preserve" text-anchor="middle" x="212.25" y="-436.25" font-family="Helvetica,sans-Serif" font-size="10.00">SimJob::LoadSubjobFromFile</text>
</a>
</g>
</g>
<!-- Node1&#45;&gt;Node24 -->
<g id="edge24_Node000001_Node000024" class="edge">
<title>Node1&#45;&gt;Node24</title>
<g id="a_edge24_Node000001_Node000024"><a xlink:title=" ">
<path fill="none" stroke="#63b8ff" d="M95.37,-467.51C114,-462.99 135.83,-457.69 155.5,-452.91"/>
<polygon fill="#63b8ff" stroke="#63b8ff" points="156.11,-456.37 165,-450.61 154.45,-449.56 156.11,-456.37"/>
</a>
</g>
</g>
<!-- Node25 -->
<g id="Node000025" class="node">
<title>Node25</title>
<g id="a_Node000025"><a xlink:href="classSimJob.html#a3af5b2630698df72bd1aa6b3efdcbb66" target="_top" xlink:title="Solve the current linear system with the chosen solver.">
<polygon fill="white" stroke="#666666" points="262.25,-118.75 162.25,-118.75 162.25,-98 262.25,-98 262.25,-118.75"/>
<text xml:space="preserve" text-anchor="middle" x="212.25" y="-105.25" font-family="Helvetica,sans-Serif" font-size="10.00">SimJob::SolveLSE</text>
</a>
</g>
</g>
<!-- Node1&#45;&gt;Node25 -->
<g id="edge29_Node000001_Node000025" class="edge">
<title>Node1&#45;&gt;Node25</title>
<g id="a_edge29_Node000001_Node000025"><a xlink:title=" ">
<path fill="none" stroke="#63b8ff" d="M55.26,-467.7C77.33,-416.85 172,-198.78 202.06,-129.55"/>
<polygon fill="#63b8ff" stroke="#63b8ff" points="205.22,-131.05 205.99,-120.48 198.8,-128.26 205.22,-131.05"/>
</a>
</g>
</g>
<!-- Node30 -->
<g id="Node000030" class="node">
<title>Node30</title>
<g id="a_Node000030"><a xlink:href="classSimJob.html#ac98a015c25c8e733475caf3c44317d0c" target="_top" xlink:title="Write a 1D Blitz vector in text format.">
<polygon fill="white" stroke="#666666" points="282.5,-79.75 142,-79.75 142,-59 282.5,-59 282.5,-79.75"/>
<text xml:space="preserve" text-anchor="middle" x="212.25" y="-66.25" font-family="Helvetica,sans-Serif" font-size="10.00">SimJob::WriteVectorToFile</text>
</a>
</g>
</g>
<!-- Node1&#45;&gt;Node30 -->
<g id="edge34_Node000001_Node000030" class="edge">
<title>Node1&#45;&gt;Node30</title>
<g id="a_edge34_Node000001_Node000030"><a xlink:title=" ">
<path fill="none" stroke="#63b8ff" d="M51.45,-467.85C56.1,-411.54 80.63,-146.4 135.25,-89.38 136.12,-88.46 137.03,-87.59 137.97,-86.76"/>
<polygon fill="#63b8ff" stroke="#63b8ff" points="139.83,-89.73 145.98,-81.11 135.79,-84.01 139.83,-89.73"/>
</a>
</g>
</g>
<!-- Node8 -->
<g id="Node000008" class="node">
<title>Node8</title>
<g id="a_Node000008"><a xlink:href="classSimJob.html#ae16a5d8bdcf14121a812acd22b3c573a" target="_top" xlink:title="Parse and load dipole excitation from .">
<polygon fill="white" stroke="#666666" points="458.62,-449.75 348.12,-449.75 348.12,-429 458.62,-429 458.62,-449.75"/>
<text xml:space="preserve" text-anchor="middle" x="403.38" y="-436.25" font-family="Helvetica,sans-Serif" font-size="10.00">SimJob::LoadDipole</text>
</a>
</g>
</g>
<!-- Node7&#45;&gt;Node8 -->
<g id="edge7_Node000007_Node000008" class="edge">
<title>Node7&#45;&gt;Node8</title>
<g id="a_edge7_Node000007_Node000008"><a xlink:title=" ">
<path fill="none" stroke="#63b8ff" d="M242.05,-391.13C264.54,-399.35 296.68,-410.71 325.25,-419.38 332.28,-421.51 339.72,-423.62 347.09,-425.62"/>
<polygon fill="#63b8ff" stroke="#63b8ff" points="346.13,-428.99 356.69,-428.18 347.93,-422.22 346.13,-428.99"/>
</a>
</g>
</g>
<!-- Node12 -->
<g id="Node000012" class="node">
<title>Node12</title>
<g id="a_Node000012"><a xlink:href="classSimJob.html#a9a630e54dbd3c59d8d0c5872fe082478" target="_top" xlink:title="Parse and load homogeneous domain definition from .">
<polygon fill="white" stroke="#666666" points="462,-293.75 344.75,-293.75 344.75,-273 462,-273 462,-293.75"/>
<text xml:space="preserve" text-anchor="middle" x="403.38" y="-280.25" font-family="Helvetica,sans-Serif" font-size="10.00">SimJob::LoadDomain</text>
</a>
</g>
</g>
<!-- Node7&#45;&gt;Node12 -->
<g id="edge11_Node000007_Node000012" class="edge">
<title>Node7&#45;&gt;Node12</title>
<g id="a_edge11_Node000007_Node000012"><a xlink:title=" ">
<path fill="none" stroke="#63b8ff" d="M225.79,-369.53C245.61,-352.94 285.96,-321.3 325.25,-303.38 329.83,-301.28 334.67,-299.38 339.61,-297.66"/>
<polygon fill="#63b8ff" stroke="#63b8ff" points="340.59,-301.02 349.04,-294.63 338.45,-294.36 340.59,-301.02"/>
</a>
</g>
</g>
<!-- Node13 -->
<g id="Node000013" class="node">
<title>Node13</title>
<g id="a_Node000013"><a xlink:href="classSimJob.html#a4aed0b2fa9b728b0fcb8834d6cd9c3fd" target="_top" xlink:title="Parse and load layered&#45;media domain from .">
<polygon fill="white" stroke="#666666" points="481.5,-254.75 325.25,-254.75 325.25,-234 481.5,-234 481.5,-254.75"/>
<text xml:space="preserve" text-anchor="middle" x="403.38" y="-241.25" font-family="Helvetica,sans-Serif" font-size="10.00">SimJob::LoadDomainLayered</text>
</a>
</g>
</g>
<!-- Node7&#45;&gt;Node13 -->
<g id="edge12_Node000007_Node000013" class="edge">
<title>Node7&#45;&gt;Node13</title>
<g id="a_edge12_Node000007_Node000013"><a xlink:title=" ">
<path fill="none" stroke="#63b8ff" d="M220.52,-369.51C236.56,-346.43 277.38,-292.32 325.25,-264.38 328.42,-262.53 331.75,-260.85 335.19,-259.32"/>
<polygon fill="#63b8ff" stroke="#63b8ff" points="336.3,-262.65 344.33,-255.74 333.75,-256.13 336.3,-262.65"/>
</a>
</g>
</g>
<!-- Node14 -->
<g id="Node000014" class="node">
<title>Node14</title>
<g id="a_Node000014"><a xlink:href="classSimJob.html#a9d261a88162a72dc73b70f0f71d69164" target="_top" xlink:title="Parse and load periodic domain definition from .">
<polygon fill="white" stroke="#666666" points="469.88,-215.75 336.88,-215.75 336.88,-195 469.88,-195 469.88,-215.75"/>
<text xml:space="preserve" text-anchor="middle" x="403.38" y="-202.25" font-family="Helvetica,sans-Serif" font-size="10.00">SimJob::LoadDomainPer</text>
</a>
</g>
</g>
<!-- Node7&#45;&gt;Node14 -->
<g id="edge13_Node000007_Node000014" class="edge">
<title>Node7&#45;&gt;Node14</title>
<g id="a_edge13_Node000007_Node000014"><a xlink:title=" ">
<path fill="none" stroke="#63b8ff" d="M217.75,-369.77C230.3,-341.56 268.51,-264.15 325.25,-225.38 327.65,-223.74 330.17,-222.23 332.79,-220.85"/>
<polygon fill="#63b8ff" stroke="#63b8ff" points="334.19,-224.06 341.85,-216.74 331.29,-217.68 334.19,-224.06"/>
</a>
</g>
</g>
<!-- Node16 -->
<g id="Node000016" class="node">
<title>Node16</title>
<g id="a_Node000016"><a xlink:href="classSimJob.html#a762457879a5f323daff8a2802ee937bd" target="_top" xlink:title="Parse and load Gaussian&#45;beam excitation from .">
<polygon fill="white" stroke="#666666" points="465.38,-566.75 341.38,-566.75 341.38,-546 465.38,-546 465.38,-566.75"/>
<text xml:space="preserve" text-anchor="middle" x="403.38" y="-553.25" font-family="Helvetica,sans-Serif" font-size="10.00">SimJob::LoadGaussian</text>
</a>
</g>
</g>
<!-- Node7&#45;&gt;Node16 -->
<g id="edge15_Node000007_Node000016" class="edge">
<title>Node7&#45;&gt;Node16</title>
<g id="a_edge15_Node000007_Node000016"><a xlink:title=" ">
<path fill="none" stroke="#63b8ff" d="M246.66,-391.25C261.55,-397.62 278.19,-407.08 289.25,-420.38 323.76,-461.88 286.19,-499.12 325.25,-536.38 327.12,-538.16 329.13,-539.79 331.24,-541.28"/>
<polygon fill="#63b8ff" stroke="#63b8ff" points="329.39,-544.25 339.81,-546.19 332.88,-538.18 329.39,-544.25"/>
</a>
</g>
</g>
<!-- Node18 -->
<g id="Node000018" class="node">
<title>Node18</title>
<g id="a_Node000018"><a xlink:href="classSimJob.html#a6d48eb7a13a50bdc8f9dc965165ed873" target="_top" xlink:title="Parse and load simulation label from &#160;section.">
<polygon fill="white" stroke="#666666" points="456,-527.75 350.75,-527.75 350.75,-507 456,-507 456,-527.75"/>
<text xml:space="preserve" text-anchor="middle" x="403.38" y="-514.25" font-family="Helvetica,sans-Serif" font-size="10.00">SimJob::LoadLabel</text>
</a>
</g>
</g>
<!-- Node7&#45;&gt;Node18 -->
<g id="edge18_Node000007_Node000018" class="edge">
<title>Node7&#45;&gt;Node18</title>
<g id="a_edge18_Node000007_Node000018"><a xlink:title=" ">
<path fill="none" stroke="#63b8ff" d="M243.97,-391.12C259.14,-397.67 276.8,-407.32 289.25,-420.38 315.33,-447.71 296.2,-473.22 325.25,-497.38 329.66,-501.04 334.66,-504.04 339.95,-506.5"/>
<polygon fill="#63b8ff" stroke="#63b8ff" points="338.39,-509.65 348.98,-510.04 340.94,-503.13 338.39,-509.65"/>
</a>
</g>
</g>
<!-- Node19 -->
<g id="Node000019" class="node">
<title>Node19</title>
<g id="a_Node000019"><a xlink:href="classSimJob.html#a7bb5eda7b7e62f899d8bf72ba8f33742" target="_top" xlink:title="Parse and load mesh data from &#160;(non&#45;periodic case).">
<polygon fill="white" stroke="#666666" points="456,-176.75 350.75,-176.75 350.75,-156 456,-156 456,-176.75"/>
<text xml:space="preserve" text-anchor="middle" x="403.38" y="-163.25" font-family="Helvetica,sans-Serif" font-size="10.00">SimJob::LoadMesh</text>
</a>
</g>
</g>
<!-- Node7&#45;&gt;Node19 -->
<g id="edge19_Node000007_Node000019" class="edge">
<title>Node7&#45;&gt;Node19</title>
<g id="a_edge19_Node000007_Node000019"><a xlink:title=" ">
<path fill="none" stroke="#63b8ff" d="M216.22,-369.58C225.89,-336.58 259.64,-236.3 325.25,-186.38 329.74,-182.96 334.77,-180.12 340.03,-177.76"/>
<polygon fill="#63b8ff" stroke="#63b8ff" points="340.89,-181.18 348.98,-174.35 338.39,-174.64 340.89,-181.18"/>
</a>
</g>
</g>
<!-- Node20 -->
<g id="Node000020" class="node">
<title>Node20</title>
<g id="a_Node000020"><a xlink:href="classSimJob.html#ac940b4b962fac361f3746deef6eb2e19" target="_top" xlink:title="Parse and load periodic mesh from &#160;(applies symmetry operations).">
<polygon fill="white" stroke="#666666" points="463.88,-410.75 342.88,-410.75 342.88,-390 463.88,-390 463.88,-410.75"/>
<text xml:space="preserve" text-anchor="middle" x="403.38" y="-397.25" font-family="Helvetica,sans-Serif" font-size="10.00">SimJob::LoadMeshPer</text>
</a>
</g>
</g>
<!-- Node7&#45;&gt;Node20 -->
<g id="edge20_Node000007_Node000020" class="edge">
<title>Node7&#45;&gt;Node20</title>
<g id="a_edge20_Node000007_Node000020"><a xlink:title=" ">
<path fill="none" stroke="#63b8ff" d="M273.09,-386.7C291.55,-388.66 312.06,-390.82 331.2,-392.85"/>
<polygon fill="#63b8ff" stroke="#63b8ff" points="330.78,-396.32 341.09,-393.89 331.52,-389.36 330.78,-396.32"/>
</a>
</g>
</g>
<!-- Node21 -->
<g id="Node000021" class="node">
<title>Node21</title>
<g id="a_Node000021"><a xlink:href="classSimJob.html#a99c23586a8ba7184a750c694da6d9628" target="_top" xlink:title="Parse and load periodicity parameters from .">
<polygon fill="white" stroke="#666666" points="468.75,-371.75 338,-371.75 338,-351 468.75,-351 468.75,-371.75"/>
<text xml:space="preserve" text-anchor="middle" x="403.38" y="-358.25" font-family="Helvetica,sans-Serif" font-size="10.00">SimJob::LoadPeriodicity</text>
</a>
</g>
</g>
<!-- Node7&#45;&gt;Node21 -->
<g id="edge21_Node000007_Node000021" class="edge">
<title>Node7&#45;&gt;Node21</title>
<g id="a_edge21_Node000007_Node000021"><a xlink:title=" ">
<path fill="none" stroke="#63b8ff" d="M273.09,-374.36C290.04,-372.66 308.71,-370.78 326.47,-369"/>
<polygon fill="#63b8ff" stroke="#63b8ff" points="326.58,-372.51 336.18,-368.03 325.88,-365.54 326.58,-372.51"/>
</a>
</g>
</g>
<!-- Node22 -->
<g id="Node000022" class="node">
<title>Node22</title>
<g id="a_Node000022"><a xlink:href="classSimJob.html#a9b33589923ea7f4e5b671e55ecf2b320" target="_top" xlink:title="Parse and load plane&#45;wave excitation from .">
<polygon fill="white" stroke="#666666" points="469.5,-488.75 337.25,-488.75 337.25,-468 469.5,-468 469.5,-488.75"/>
<text xml:space="preserve" text-anchor="middle" x="403.38" y="-475.25" font-family="Helvetica,sans-Serif" font-size="10.00">SimJob::LoadPlanewave</text>
</a>
</g>
</g>
<!-- Node7&#45;&gt;Node22 -->
<g id="edge22_Node000007_Node000022" class="edge">
<title>Node7&#45;&gt;Node22</title>
<g id="a_edge22_Node000007_Node000022"><a xlink:title=" ">
<path fill="none" stroke="#63b8ff" d="M238.78,-391.23C254.15,-398.38 273.68,-408.58 289.25,-420.38 307.79,-434.43 305.21,-446.55 325.25,-458.38 328.41,-460.24 331.74,-461.93 335.17,-463.46"/>
<polygon fill="#63b8ff" stroke="#63b8ff" points="333.71,-466.65 344.3,-467.06 336.28,-460.14 333.71,-466.65"/>
</a>
</g>
</g>
<!-- Node23 -->
<g id="Node000023" class="node">
<title>Node23</title>
<g id="a_Node000023"><a xlink:href="classSimJob.html#a21c36c1d2aa7937ca484527515e35263" target="_top" xlink:title="Parse and load wavelength from .">
<polygon fill="white" stroke="#666666" points="471.75,-332.75 335,-332.75 335,-312 471.75,-312 471.75,-332.75"/>
<text xml:space="preserve" text-anchor="middle" x="403.38" y="-319.25" font-family="Helvetica,sans-Serif" font-size="10.00">SimJob::LoadWavelength</text>
</a>
</g>
</g>
<!-- Node7&#45;&gt;Node23 -->
<g id="edge23_Node000007_Node000023" class="edge">
<title>Node7&#45;&gt;Node23</title>
<g id="a_edge23_Node000007_Node000023"><a xlink:title=" ">
<path fill="none" stroke="#63b8ff" d="M243.01,-369.61C265.47,-361.65 297.12,-350.78 325.25,-342.38 332.29,-340.27 339.73,-338.18 347.1,-336.18"/>
<polygon fill="#63b8ff" stroke="#63b8ff" points="347.94,-339.58 356.71,-333.63 346.15,-332.82 347.94,-339.58"/>
</a>
</g>
</g>
<!-- Node9 -->
<g id="Node000009" class="node">
<title>Node9</title>
<g id="a_Node000009"><a xlink:href="classDomain.html#a6a3c61914bab1ebbc02613a6ec8db802" target="_top" xlink:title="Add a Dipole excitation (ownership transferred to Domain).">
<polygon fill="white" stroke="#666666" points="646,-410.75 535.5,-410.75 535.5,-390 646,-390 646,-410.75"/>
<text xml:space="preserve" text-anchor="middle" x="590.75" y="-397.25" font-family="Helvetica,sans-Serif" font-size="10.00">Domain::AddDipole</text>
</a>
</g>
</g>
<!-- Node8&#45;&gt;Node9 -->
<g id="edge8_Node000008_Node000009" class="edge">
<title>Node8&#45;&gt;Node9</title>
<g id="a_edge8_Node000008_Node000009"><a xlink:title=" ">
<path fill="none" stroke="#63b8ff" d="M456.01,-428.51C478.02,-423.88 503.89,-418.44 526.98,-413.58"/>
<polygon fill="#63b8ff" stroke="#63b8ff" points="527.52,-417.04 536.59,-411.56 526.08,-410.19 527.52,-417.04"/>
</a>
</g>
</g>
<!-- Node10 -->
<g id="Node000010" class="node">
<title>Node10</title>
<g id="a_Node000010"><a xlink:href="classSimJob.html#ab3887eb9e217b1d6424ff85aec4b1793" target="_top" xlink:title="Find which domain contains a point.">
<polygon fill="white" stroke="#666666" points="664,-488.75 517.5,-488.75 517.5,-468 664,-468 664,-488.75"/>
<text xml:space="preserve" text-anchor="middle" x="590.75" y="-475.25" font-family="Helvetica,sans-Serif" font-size="10.00">SimJob::ContainingDomain</text>
</a>
</g>
</g>
<!-- Node8&#45;&gt;Node10 -->
<g id="edge9_Node000008_Node000010" class="edge">
<title>Node8&#45;&gt;Node10</title>
<g id="a_edge9_Node000008_Node000010"><a xlink:title=" ">
<path fill="none" stroke="#63b8ff" d="M456.01,-450.24C478.02,-454.87 503.89,-460.31 526.98,-465.17"/>
<polygon fill="#63b8ff" stroke="#63b8ff" points="526.08,-468.56 536.59,-467.19 527.52,-461.71 526.08,-468.56"/>
</a>
</g>
</g>
<!-- Node11 -->
<g id="Node000011" class="node">
<title>Node11</title>
<g id="a_Node000011"><a xlink:href="classDomain.html#a4ca094ed1d16b191f026d0c23e1fc75a" target="_top" xlink:title="Return this domain&#39;s integer index.">
<polygon fill="white" stroke="#666666" points="634.38,-449.75 547.12,-449.75 547.12,-429 634.38,-429 634.38,-449.75"/>
<text xml:space="preserve" text-anchor="middle" x="590.75" y="-436.25" font-family="Helvetica,sans-Serif" font-size="10.00">Domain::Index</text>
</a>
</g>
</g>
<!-- Node8&#45;&gt;Node11 -->
<g id="edge10_Node000008_Node000011" class="edge">
<title>Node8&#45;&gt;Node11</title>
<g id="a_edge10_Node000008_Node000011"><a xlink:title=" ">
<path fill="none" stroke="#63b8ff" d="M458.99,-439.38C483.04,-439.38 511.22,-439.38 535.25,-439.38"/>
<polygon fill="#63b8ff" stroke="#63b8ff" points="535.17,-442.88 545.17,-439.38 535.17,-435.88 535.17,-442.88"/>
</a>
</g>
</g>
<!-- Node15 -->
<g id="Node000015" class="node">
<title>Node15</title>
<g id="a_Node000015"><a xlink:href="classDomain.html#a2b8fcaa668f1959aa9864f7a016d3ee1" target="_top" xlink:title="Provide an erfc lookup table to the Green&#39;s function implementation.">
<polygon fill="white" stroke="#666666" points="658.75,-215.75 522.75,-215.75 522.75,-195 658.75,-195 658.75,-215.75"/>
<text xml:space="preserve" text-anchor="middle" x="590.75" y="-202.25" font-family="Helvetica,sans-Serif" font-size="10.00">Domain::InitLookupTable</text>
</a>
</g>
</g>
<!-- Node14&#45;&gt;Node15 -->
<g id="edge14_Node000014_Node000015" class="edge">
<title>Node14&#45;&gt;Node15</title>
<g id="a_edge14_Node000014_Node000015"><a xlink:title=" ">
<path fill="none" stroke="#63b8ff" d="M470.25,-205.38C483.51,-205.38 497.56,-205.38 511.19,-205.38"/>
<polygon fill="#63b8ff" stroke="#63b8ff" points="511.01,-208.88 521.01,-205.38 511.01,-201.88 511.01,-208.88"/>
</a>
</g>
</g>
<!-- Node17 -->
<g id="Node000017" class="node">
<title>Node17</title>
<g id="a_Node000017"><a xlink:href="Domain_8cpp.html#aafa3e4fa6318b2f8740f4dbd50c367e5" target="_top" xlink:title="Extract the real part of each component of a complex 3&#45;vector.">
<polygon fill="white" stroke="#666666" points="608.12,-566.75 573.38,-566.75 573.38,-546 608.12,-546 608.12,-566.75"/>
<text xml:space="preserve" text-anchor="middle" x="590.75" y="-553.25" font-family="Helvetica,sans-Serif" font-size="10.00">real</text>
</a>
</g>
</g>
<!-- Node16&#45;&gt;Node17 -->
<g id="edge16_Node000016_Node000017" class="edge">
<title>Node16&#45;&gt;Node17</title>
<g id="a_edge16_Node000016_Node000017"><a xlink:title=" ">
<path fill="none" stroke="#63b8ff" d="M465.84,-556.38C498.27,-556.38 536.47,-556.38 561.79,-556.38"/>
<polygon fill="#63b8ff" stroke="#63b8ff" points="561.59,-559.88 571.59,-556.38 561.59,-552.88 561.59,-559.88"/>
</a>
</g>
</g>
<!-- Node17&#45;&gt;Node17 -->
<g id="edge17_Node000017_Node000017" class="edge">
<title>Node17&#45;&gt;Node17</title>
<g id="a_edge17_Node000017_Node000017"><a xlink:title=" ">
<path fill="none" stroke="#63b8ff" d="M572.99,-561.12C544.94,-571.03 550.86,-584.75 590.75,-584.75 624.72,-584.75 634.06,-574.8 618.76,-565.73"/>
<polygon fill="#63b8ff" stroke="#63b8ff" points="620.45,-562.65 609.89,-561.74 617.58,-569.03 620.45,-562.65"/>
</a>
</g>
</g>
<!-- Node24&#45;&gt;Node8 -->
<g id="edge25_Node000024_Node000008" class="edge">
<title>Node24&#45;&gt;Node8</title>
<g id="a_edge25_Node000024_Node000008"><a xlink:title=" ">
<path fill="none" stroke="#63b8ff" d="M289.63,-439.38C305.15,-439.38 321.35,-439.38 336.47,-439.38"/>
<polygon fill="#63b8ff" stroke="#63b8ff" points="336.28,-442.88 346.28,-439.38 336.28,-435.88 336.28,-442.88"/>
</a>
</g>
</g>
<!-- Node24&#45;&gt;Node16 -->
<g id="edge26_Node000024_Node000016" class="edge">
<title>Node24&#45;&gt;Node16</title>
<g id="a_edge26_Node000024_Node000016"><a xlink:title=" ">
<path fill="none" stroke="#63b8ff" d="M274.56,-450.24C279.85,-452.7 284.85,-455.7 289.25,-459.38 318.26,-483.58 296.2,-512.22 325.25,-536.38 327.15,-537.96 329.16,-539.41 331.26,-540.76"/>
<polygon fill="#63b8ff" stroke="#63b8ff" points="329.13,-543.59 339.6,-545.23 332.44,-537.42 329.13,-543.59"/>
</a>
</g>
</g>
<!-- Node24&#45;&gt;Node18 -->
<g id="edge27_Node000024_Node000018" class="edge">
<title>Node24&#45;&gt;Node18</title>
<g id="a_edge27_Node000024_Node000018"><a xlink:title=" ">
<path fill="none" stroke="#63b8ff" d="M269.09,-450.21C276.13,-452.67 283.03,-455.69 289.25,-459.38 309.27,-471.23 305.21,-485.55 325.25,-497.38 329.85,-500.09 334.81,-502.44 339.93,-504.47"/>
<polygon fill="#63b8ff" stroke="#63b8ff" points="338.55,-507.7 349.15,-507.72 340.88,-501.09 338.55,-507.7"/>
</a>
</g>
</g>
<!-- Node24&#45;&gt;Node22 -->
<g id="edge28_Node000024_Node000022" class="edge">
<title>Node24&#45;&gt;Node22</title>
<g id="a_edge28_Node000024_Node000022"><a xlink:title=" ">
<path fill="none" stroke="#63b8ff" d="M265.93,-450.24C288.48,-454.89 315.02,-460.36 338.66,-465.24"/>
<polygon fill="#63b8ff" stroke="#63b8ff" points="337.66,-468.6 348.17,-467.2 339.08,-461.75 337.66,-468.6"/>
</a>
</g>
</g>
<!-- Node26 -->
<g id="Node000026" class="node">
<title>Node26</title>
<g id="a_Node000026"><a xlink:href="SimJob_8cpp.html#a5689047dc461187481588ab4352aa2da" target="_top" xlink:title="External conjugate gradient solver (complex version) from cg.f.">
<polygon fill="white" stroke="#666666" points="427.12,-98.75 379.62,-98.75 379.62,-78 427.12,-78 427.12,-98.75"/>
<text xml:space="preserve" text-anchor="middle" x="403.38" y="-85.25" font-family="Helvetica,sans-Serif" font-size="10.00">cgsqr_</text>
</a>
</g>
</g>
<!-- Node25&#45;&gt;Node26 -->
<g id="edge30_Node000025_Node000026" class="edge">
<title>Node25&#45;&gt;Node26</title>
<g id="a_edge30_Node000025_Node000026"><a xlink:title=" ">
<path fill="none" stroke="#63b8ff" d="M262.45,-103.17C295.54,-99.67 338.34,-95.15 367.85,-92.03"/>
<polygon fill="#63b8ff" stroke="#63b8ff" points="368.14,-95.51 377.72,-90.98 367.41,-88.55 368.14,-95.51"/>
</a>
</g>
</g>
<!-- Node27 -->
<g id="Node000027" class="node">
<title>Node27</title>
<g id="a_Node000027"><a xlink:href="SimJob_8cpp.html#a81dafa8ebba533efb547fc5dda890a4b" target="_top" xlink:title="Apply Jacobi preconditioning to a complex linear system.">
<polygon fill="white" stroke="#666666" points="456.38,-59.75 350.38,-59.75 350.38,-39 456.38,-39 456.38,-59.75"/>
<text xml:space="preserve" text-anchor="middle" x="403.38" y="-46.25" font-family="Helvetica,sans-Serif" font-size="10.00">JacobiPrecondition</text>
</a>
</g>
</g>
<!-- Node25&#45;&gt;Node27 -->
<g id="edge31_Node000025_Node000027" class="edge">
<title>Node25&#45;&gt;Node27</title>
<g id="a_edge31_Node000025_Node000027"><a xlink:title=" ">
<path fill="none" stroke="#63b8ff" d="M261.22,-97.53C270.64,-94.91 280.35,-91.84 289.25,-88.38 306.11,-81.81 308.38,-75.91 325.25,-69.38 330.89,-67.19 336.86,-65.17 342.87,-63.31"/>
<polygon fill="#63b8ff" stroke="#63b8ff" points="343.62,-66.74 352.24,-60.59 341.66,-60.02 343.62,-66.74"/>
</a>
</g>
</g>
<!-- Node28 -->
<g id="Node000028" class="node">
<title>Node28</title>
<g id="a_Node000028"><a xlink:href="DomainLayered3D_8cpp.html#ad123e1ae452426e2c00e3189488dedac" target="_top" xlink:title="Computes the LU factorization of a general M&#45;by&#45;N matrix.">
<polygon fill="white" stroke="#666666" points="428.25,-20.75 378.5,-20.75 378.5,0 428.25,0 428.25,-20.75"/>
<text xml:space="preserve" text-anchor="middle" x="403.38" y="-7.25" font-family="Helvetica,sans-Serif" font-size="10.00">zgetrf_</text>
</a>
</g>
</g>
<!-- Node25&#45;&gt;Node28 -->
<g id="edge32_Node000025_Node000028" class="edge">
<title>Node25&#45;&gt;Node28</title>
<g id="a_edge32_Node000025_Node000028"><a xlink:title=" ">
<path fill="none" stroke="#63b8ff" d="M262.75,-101.16C272.14,-98.23 281.46,-94.13 289.25,-88.38 313.65,-70.35 300.82,-48.36 325.25,-30.38 337.26,-21.53 352.83,-16.59 366.84,-13.83"/>
<polygon fill="#63b8ff" stroke="#63b8ff" points="367.32,-17.3 376.63,-12.24 366.19,-10.39 367.32,-17.3"/>
</a>
</g>
</g>
<!-- Node29 -->
<g id="Node000029" class="node">
<title>Node29</title>
<g id="a_Node000029"><a xlink:href="DomainLayered3D_8cpp.html#a0d498505ce3081c778d322cdd12e60a4" target="_top" xlink:title="Solves a system of linear equations using the LU factorization.">
<polygon fill="white" stroke="#666666" points="429,-137.75 377.75,-137.75 377.75,-117 429,-117 429,-137.75"/>
<text xml:space="preserve" text-anchor="middle" x="403.38" y="-124.25" font-family="Helvetica,sans-Serif" font-size="10.00">zgetrs_</text>
</a>
</g>
</g>
<!-- Node25&#45;&gt;Node29 -->
<g id="edge33_Node000025_Node000029" class="edge">
<title>Node25&#45;&gt;Node29</title>
<g id="a_edge33_Node000025_Node000029"><a xlink:title=" ">
<path fill="none" stroke="#63b8ff" d="M262.45,-113.32C294.86,-116.57 336.6,-120.77 366.03,-123.72"/>
<polygon fill="#63b8ff" stroke="#63b8ff" points="365.63,-127.2 375.93,-124.72 366.33,-120.24 365.63,-127.2"/>
</a>
</g>
</g>
</g>
</svg>
