<?xml version="1.0" encoding="UTF-8" standalone="no"?>
<!DOCTYPE svg PUBLIC "-//W3C//DTD SVG 1.1//EN"
 "http://www.w3.org/Graphics/SVG/1.1/DTD/svg11.dtd">
<!-- Generated by graphviz version 13.1.2 (20250809.0930)
 -->
<!-- Title: DomainLayered3D::DomainLayered3D Pages: 1 -->
<svg width="832pt" height="68pt"
 viewBox="0.00 0.00 832.00 68.00" xmlns="http://www.w3.org/2000/svg" xmlns:xlink="http://www.w3.org/1999/xlink">
<g id="graph0" class="graph" transform="scale(1 1) rotate(0) translate(4 63.75)">
<title>DomainLayered3D::DomainLayered3D</title>
<!-- Node1 -->
<g id="Node000001" class="node">
<title>Node1</title>
<g id="a_Node000001"><a xlink:title="Construct without creating Green&#39;s functions (owner/aggregate path).">
<polygon fill="#999999" stroke="#666666" points="203.5,-39.75 0,-39.75 0,-19 203.5,-19 203.5,-39.75"/>
<text xml:space="preserve" text-anchor="middle" x="101.75" y="-26.25" font-family="Helvetica,sans-Serif" font-size="10.00">DomainLayered3D::DomainLayered3D</text>
</a>
</g>
</g>
<!-- Node2 -->
<g id="Node000002" class="node">
<title>Node2</title>
<g id="a_Node000002"><a xlink:href="classDomain.html#a3f6f9e8ec932680440098679b6fe3300" target="_top" xlink:title="Construct a domain over a mesh region at a given vacuum wavelength.">
<polygon fill="white" stroke="#666666" points="370.25,-59.75 271.75,-59.75 271.75,-39 370.25,-39 370.25,-59.75"/>
<text xml:space="preserve" text-anchor="middle" x="321" y="-46.25" font-family="Helvetica,sans-Serif" font-size="10.00">Domain::Domain</text>
</a>
</g>
</g>
<!-- Node1&#45;&gt;Node2 -->
<g id="edge1_Node000001_Node000002" class="edge">
<title>Node1&#45;&gt;Node2</title>
<g id="a_edge1_Node000001_Node000002"><a xlink:title=" ">
<path fill="none" stroke="#63b8ff" d="M203.74,-38.67C223.01,-40.45 242.6,-42.25 260.07,-43.86"/>
<polygon fill="#63b8ff" stroke="#63b8ff" points="259.73,-47.34 270,-44.77 260.37,-40.37 259.73,-47.34"/>
</a>
</g>
</g>
<!-- Node5 -->
<g id="Node000005" class="node">
<title>Node5</title>
<g id="a_Node000005"><a xlink:href="classDomainLayered3D.html#af630820f17df76fa4348a9dc121c70e7" target="_top" xlink:title="Initialize per‑layer homogeneous Green&#39;s functions and the layered Green&#39;s function.">
<polygon fill="white" stroke="#666666" points="402.5,-20.75 239.5,-20.75 239.5,0 402.5,0 402.5,-20.75"/>
<text xml:space="preserve" text-anchor="middle" x="321" y="-7.25" font-family="Helvetica,sans-Serif" font-size="10.00">DomainLayered3D::InitGrnFun</text>
</a>
</g>
</g>
<!-- Node1&#45;&gt;Node5 -->
<g id="edge4_Node000001_Node000005" class="edge">
<title>Node1&#45;&gt;Node5</title>
<g id="a_edge4_Node000001_Node000005"><a xlink:title=" ">
<path fill="none" stroke="#63b8ff" d="M203.74,-20.54C211.8,-19.84 219.92,-19.13 227.91,-18.43"/>
<polygon fill="#63b8ff" stroke="#63b8ff" points="227.94,-21.94 237.6,-17.58 227.33,-14.97 227.94,-21.94"/>
</a>
</g>
</g>
<!-- Node3 -->
<g id="Node000003" class="node">
<title>Node3</title>
<g id="a_Node000003"><a xlink:href="classDomain.html#a753296cc63cedb73b537311031521178" target="_top" xlink:title="Add all boundary triangles belonging to region dIndex and build RWGs.">
<polygon fill="white" stroke="#666666" points="612,-59.75 438.5,-59.75 438.5,-39 612,-39 612,-59.75"/>
<text xml:space="preserve" text-anchor="middle" x="525.25" y="-46.25" font-family="Helvetica,sans-Serif" font-size="10.00">Domain::AddTrianglesFromMesh</text>
</a>
</g>
</g>
<!-- Node2&#45;&gt;Node3 -->
<g id="edge2_Node000002_Node000003" class="edge">
<title>Node2&#45;&gt;Node3</title>
<g id="a_edge2_Node000002_Node000003"><a xlink:title=" ">
<path fill="none" stroke="#63b8ff" d="M370.7,-49.38C387.6,-49.38 407.21,-49.38 426.64,-49.38"/>
<polygon fill="#63b8ff" stroke="#63b8ff" points="426.53,-52.88 436.53,-49.38 426.53,-45.88 426.53,-52.88"/>
</a>
</g>
</g>
<!-- Node4 -->
<g id="Node000004" class="node">
<title>Node4</title>
<g id="a_Node000004"><a xlink:href="classSurfaceMesh.html#a7681019f61e9c1542c893c177117dac4" target="_top" xlink:title="Triangles bordering a given domain (FRONT or BACK).">
<polygon fill="white" stroke="#666666" points="823.75,-59.75 648,-59.75 648,-39 823.75,-39 823.75,-59.75"/>
<text xml:space="preserve" text-anchor="middle" x="735.88" y="-46.25" font-family="Helvetica,sans-Serif" font-size="10.00">SurfaceMesh::BorderingTriangles</text>
</a>
</g>
</g>
<!-- Node3&#45;&gt;Node4 -->
<g id="edge3_Node000003_Node000004" class="edge">
<title>Node3&#45;&gt;Node4</title>
<g id="a_edge3_Node000003_Node000004"><a xlink:title=" ">
<path fill="none" stroke="#63b8ff" d="M612.31,-49.38C620.24,-49.38 628.32,-49.38 636.36,-49.38"/>
<polygon fill="#63b8ff" stroke="#63b8ff" points="636.15,-52.88 646.15,-49.38 636.15,-45.88 636.15,-52.88"/>
</a>
</g>
</g>
</g>
</svg>
