<?xml version="1.0" encoding="UTF-8" standalone="no"?>
<!DOCTYPE svg PUBLIC "-//W3C//DTD SVG 1.1//EN"
 "http://www.w3.org/Graphics/SVG/1.1/DTD/svg11.dtd">
<!-- Generated by graphviz version 13.1.2 (20250809.0930)
 -->
<!-- Title: SingCancellation::writeMatlabVectorToTxt Pages: 1 -->
<svg width="598pt" height="150pt"
 viewBox="0.00 0.00 598.00 150.00" xmlns="http://www.w3.org/2000/svg" xmlns:xlink="http://www.w3.org/1999/xlink">
<g id="graph0" class="graph" transform="scale(1 1) rotate(0) translate(4 146.12)">
<title>SingCancellation::writeMatlabVectorToTxt</title>
<!-- Node1 -->
<g id="Node000001" class="node">
<title>Node1</title>
<g id="a_Node000001"><a xlink:title="Write a real vector as a MATLAB style column vector.">
<polygon fill="#999999" stroke="#666666" points="590.25,-103.5 428,-103.5 428,-70 590.25,-70 590.25,-103.5"/>
<text xml:space="preserve" text-anchor="start" x="436" y="-90" font-family="Helvetica,sans-Serif" font-size="10.00">SingCancellation::writeMatlab</text>
<text xml:space="preserve" text-anchor="middle" x="509.12" y="-77.25" font-family="Helvetica,sans-Serif" font-size="10.00">VectorToTxt</text>
</a>
</g>
</g>
<!-- Node2 -->
<g id="Node000002" class="node">
<title>Node2</title>
<g id="a_Node000002"><a xlink:href="classSingCancellation.html#aa72d2a4d4365846ffcbee49b07a4baa7" target="_top" xlink:title="Build paired quadrature for triangles sharing a common edge.">
<polygon fill="white" stroke="#666666" points="392,-142.12 221.5,-142.12 221.5,-121.38 392,-121.38 392,-142.12"/>
<text xml:space="preserve" text-anchor="middle" x="306.75" y="-128.62" font-family="Helvetica,sans-Serif" font-size="10.00">SingCancellation::commonEdge</text>
</a>
</g>
</g>
<!-- Node1&#45;&gt;Node2 -->
<g id="edge1_Node000001_Node000002" class="edge">
<title>Node1&#45;&gt;Node2</title>
<g id="a_edge1_Node000001_Node000002"><a xlink:title=" ">
<path fill="none" stroke="#63b8ff" d="M420.38,-106.45C398.24,-111.43 375.27,-116.59 355.9,-120.94"/>
<polygon fill="#63b8ff" stroke="#63b8ff" points="421.05,-109.89 430.04,-104.29 419.51,-103.06 421.05,-109.89"/>
</a>
</g>
</g>
<!-- Node4 -->
<g id="Node000004" class="node">
<title>Node4</title>
<g id="a_Node000004"><a xlink:href="classSingCancellation.html#a7d4e2fb258f1a7a5923c823800863983" target="_top" xlink:title="Build paired quadrature for identical triangles (common facet).">
<polygon fill="white" stroke="#666666" points="380,-103.5 233.5,-103.5 233.5,-70 380,-70 380,-103.5"/>
<text xml:space="preserve" text-anchor="start" x="241.5" y="-90" font-family="Helvetica,sans-Serif" font-size="10.00">SingCancellation::common</text>
<text xml:space="preserve" text-anchor="middle" x="306.75" y="-77.25" font-family="Helvetica,sans-Serif" font-size="10.00">Facet</text>
</a>
</g>
</g>
<!-- Node1&#45;&gt;Node4 -->
<g id="edge3_Node000001_Node000004" class="edge">
<title>Node1&#45;&gt;Node4</title>
<g id="a_edge3_Node000001_Node000004"><a xlink:title=" ">
<path fill="none" stroke="#63b8ff" d="M416.29,-86.75C404.23,-86.75 392.02,-86.75 380.34,-86.75"/>
<polygon fill="#63b8ff" stroke="#63b8ff" points="416.27,-90.25 426.27,-86.75 416.27,-83.25 416.27,-90.25"/>
</a>
</g>
</g>
<!-- Node5 -->
<g id="Node000005" class="node">
<title>Node5</title>
<g id="a_Node000005"><a xlink:href="classSingCancellation.html#ac1258c9e1d2e1981e9ceb22477312cfd" target="_top" xlink:title="Build paired quadrature for triangles sharing a single vertex.">
<polygon fill="white" stroke="#666666" points="380,-33.5 233.5,-33.5 233.5,0 380,0 380,-33.5"/>
<text xml:space="preserve" text-anchor="start" x="241.5" y="-20" font-family="Helvetica,sans-Serif" font-size="10.00">SingCancellation::common</text>
<text xml:space="preserve" text-anchor="middle" x="306.75" y="-7.25" font-family="Helvetica,sans-Serif" font-size="10.00">Vertex</text>
</a>
</g>
</g>
<!-- Node1&#45;&gt;Node5 -->
<g id="edge5_Node000001_Node000005" class="edge">
<title>Node1&#45;&gt;Node5</title>
<g id="a_edge5_Node000001_Node000005"><a xlink:title=" ">
<path fill="none" stroke="#63b8ff" d="M448.37,-65.87C419.17,-55.67 384.46,-43.55 356.83,-33.9"/>
<polygon fill="#63b8ff" stroke="#63b8ff" points="446.83,-69.04 457.42,-69.04 449.14,-62.44 446.83,-69.04"/>
</a>
</g>
</g>
<!-- Node3 -->
<g id="Node000003" class="node">
<title>Node3</title>
<g id="a_Node000003"><a xlink:href="classSingCancellation.html#a8931df16b2dd06d74b1aa8a78eab4363" target="_top" xlink:title="Construct and immediately generate the paired quadrature for a triangle pair.">
<polygon fill="white" stroke="#666666" points="185.5,-97.12 0,-97.12 0,-76.38 185.5,-76.38 185.5,-97.12"/>
<text xml:space="preserve" text-anchor="middle" x="92.75" y="-83.62" font-family="Helvetica,sans-Serif" font-size="10.00">SingCancellation::SingCancellation</text>
</a>
</g>
</g>
<!-- Node2&#45;&gt;Node3 -->
<g id="edge2_Node000002_Node000003" class="edge">
<title>Node2&#45;&gt;Node3</title>
<g id="a_edge2_Node000002_Node000003"><a xlink:title=" ">
<path fill="none" stroke="#63b8ff" d="M243.85,-118.61C212.34,-111.92 174.52,-103.89 144.72,-97.57"/>
<polygon fill="#63b8ff" stroke="#63b8ff" points="242.71,-121.95 253.22,-120.6 244.17,-115.1 242.71,-121.95"/>
</a>
</g>
</g>
<!-- Node4&#45;&gt;Node3 -->
<g id="edge4_Node000004_Node000003" class="edge">
<title>Node4&#45;&gt;Node3</title>
<g id="a_edge4_Node000004_Node000003"><a xlink:title=" ">
<path fill="none" stroke="#63b8ff" d="M221.87,-86.75C210.02,-86.75 197.79,-86.75 185.8,-86.75"/>
<polygon fill="#63b8ff" stroke="#63b8ff" points="221.57,-90.25 231.57,-86.75 221.57,-83.25 221.57,-90.25"/>
</a>
</g>
</g>
<!-- Node5&#45;&gt;Node3 -->
<g id="edge7_Node000005_Node000003" class="edge">
<title>Node5&#45;&gt;Node3</title>
<g id="a_edge7_Node000005_Node000003"><a xlink:title=" ">
<path fill="none" stroke="#63b8ff" d="M243.09,-37.44C204.85,-50.07 157.51,-65.7 126.52,-75.93"/>
<polygon fill="#63b8ff" stroke="#63b8ff" points="243.78,-40.9 252.18,-34.44 241.59,-34.25 243.78,-40.9"/>
</a>
</g>
</g>
<!-- Node5&#45;&gt;Node5 -->
<g id="edge6_Node000005_Node000005" class="edge">
<title>Node5&#45;&gt;Node5</title>
<g id="a_edge6_Node000005_Node000005"><a xlink:title=" ">
<path fill="none" stroke="#63b8ff" d="M340.5,-45.05C334.88,-48.92 323.63,-51.5 306.75,-51.5 276.31,-51.5 264.19,-43.12 270.37,-33.91"/>
<polygon fill="#63b8ff" stroke="#63b8ff" points="343.89,-45.92 342.78,-35.39 337.07,-44.31 343.89,-45.92"/>
</a>
</g>
</g>
</g>
</svg>
