<?xml version="1.0" encoding="UTF-8" standalone="no"?>
<!DOCTYPE svg PUBLIC "-//W3C//DTD SVG 1.1//EN"
 "http://www.w3.org/Graphics/SVG/1.1/DTD/svg11.dtd">
<!-- Generated by graphviz version 13.1.2 (20250809.0930)
 -->
<!-- Title: DomainLayered3D::AddDipole Pages: 1 -->
<svg width="695pt" height="152pt"
 viewBox="0.00 0.00 695.00 152.00" xmlns="http://www.w3.org/2000/svg" xmlns:xlink="http://www.w3.org/1999/xlink">
<g id="graph0" class="graph" transform="scale(1 1) rotate(0) translate(4 148.12)">
<title>DomainLayered3D::AddDipole</title>
<!-- Node1 -->
<g id="Node000001" class="node">
<title>Node1</title>
<g id="a_Node000001"><a xlink:title="Add a Dipole excitation in the layered medium.">
<polygon fill="#999999" stroke="#666666" points="163,-78.75 0,-78.75 0,-58 163,-58 163,-78.75"/>
<text xml:space="preserve" text-anchor="middle" x="81.5" y="-65.25" font-family="Helvetica,sans-Serif" font-size="10.00">DomainLayered3D::AddDipole</text>
</a>
</g>
</g>
<!-- Node2 -->
<g id="Node000002" class="node">
<title>Node2</title>
<g id="a_Node000002"><a xlink:href="classDomainLayered3D.html#a5379311442fe1bbc7808308726ee510d" target="_top" xlink:title="Computes the grid points for tabulation.">
<polygon fill="white" stroke="#666666" points="374.75,-137.75 199,-137.75 199,-117 374.75,-117 374.75,-137.75"/>
<text xml:space="preserve" text-anchor="middle" x="286.88" y="-124.25" font-family="Helvetica,sans-Serif" font-size="10.00">DomainLayered3D::computeGrid</text>
</a>
</g>
</g>
<!-- Node1&#45;&gt;Node2 -->
<g id="edge1_Node000001_Node000002" class="edge">
<title>Node1&#45;&gt;Node2</title>
<g id="a_edge1_Node000001_Node000002"><a xlink:title=" ">
<path fill="none" stroke="#63b8ff" d="M111.94,-79.11C135.35,-87.43 169.03,-98.93 199,-107.38 207.08,-109.65 215.63,-111.86 224.1,-113.93"/>
<polygon fill="#63b8ff" stroke="#63b8ff" points="223.12,-117.29 233.66,-116.21 224.75,-110.49 223.12,-117.29"/>
</a>
</g>
</g>
<!-- Node5 -->
<g id="Node000005" class="node">
<title>Node5</title>
<g id="a_Node000005"><a xlink:href="classDomainLayered3D.html#a281513a4cb865b8c688dd920a6789955" target="_top" xlink:title="Relative permittivity at a spatial location.">
<polygon fill="white" stroke="#666666" points="360.88,-98.75 212.88,-98.75 212.88,-78 360.88,-78 360.88,-98.75"/>
<text xml:space="preserve" text-anchor="middle" x="286.88" y="-85.25" font-family="Helvetica,sans-Serif" font-size="10.00">DomainLayered3D::Epsilon</text>
</a>
</g>
</g>
<!-- Node1&#45;&gt;Node5 -->
<g id="edge4_Node000001_Node000005" class="edge">
<title>Node1&#45;&gt;Node5</title>
<g id="a_edge4_Node000001_Node000005"><a xlink:title=" ">
<path fill="none" stroke="#63b8ff" d="M163.46,-76.34C175.85,-77.55 188.66,-78.81 201.12,-80.04"/>
<polygon fill="#63b8ff" stroke="#63b8ff" points="200.64,-83.51 210.93,-81.01 201.33,-76.54 200.64,-83.51"/>
</a>
</g>
</g>
<!-- Node7 -->
<g id="Node000007" class="node">
<title>Node7</title>
<g id="a_Node000007"><a xlink:href="classDomainLayered3D.html#a295274a8176b2d6f9fc07c7aea9fd89c" target="_top" xlink:title="Relative permeability at a spatial location.">
<polygon fill="white" stroke="#666666" points="350.75,-59.75 223,-59.75 223,-39 350.75,-39 350.75,-59.75"/>
<text xml:space="preserve" text-anchor="middle" x="286.88" y="-46.25" font-family="Helvetica,sans-Serif" font-size="10.00">DomainLayered3D::Mu</text>
</a>
</g>
</g>
<!-- Node1&#45;&gt;Node7 -->
<g id="edge6_Node000001_Node000007" class="edge">
<title>Node1&#45;&gt;Node7</title>
<g id="a_edge6_Node000001_Node000007"><a xlink:title=" ">
<path fill="none" stroke="#63b8ff" d="M163.46,-60.81C179.33,-59.33 195.9,-57.78 211.54,-56.32"/>
<polygon fill="#63b8ff" stroke="#63b8ff" points="211.6,-59.83 221.23,-55.41 210.94,-52.86 211.6,-59.83"/>
</a>
</g>
</g>
<!-- Node8 -->
<g id="Node000008" class="node">
<title>Node8</title>
<g id="a_Node000008"><a xlink:href="classDomainLayered3D.html#a76fc8705ab75f3e6599693f9544821e9" target="_top" xlink:title="Computes the slicing of points with respect to interfaces.">
<polygon fill="white" stroke="#666666" points="354.5,-20.75 219.25,-20.75 219.25,0 354.5,0 354.5,-20.75"/>
<text xml:space="preserve" text-anchor="middle" x="286.88" y="-7.25" font-family="Helvetica,sans-Serif" font-size="10.00">DomainLayered3D::slice</text>
</a>
</g>
</g>
<!-- Node1&#45;&gt;Node8 -->
<g id="edge8_Node000001_Node000008" class="edge">
<title>Node1&#45;&gt;Node8</title>
<g id="a_edge8_Node000001_Node000008"><a xlink:title=" ">
<path fill="none" stroke="#63b8ff" d="M112.93,-57.62C136.31,-49.57 169.48,-38.57 199,-30.38 207.19,-28.1 215.87,-25.88 224.44,-23.8"/>
<polygon fill="#63b8ff" stroke="#63b8ff" points="225.22,-27.21 234.14,-21.5 223.6,-20.4 225.22,-27.21"/>
</a>
</g>
</g>
<!-- Node3 -->
<g id="Node000003" class="node">
<title>Node3</title>
<g id="a_Node000003"><a xlink:href="classDomainLayered3D.html#af0fc42edd76b3e69a326990cefcbcd37" target="_top" xlink:title="Calculates the tabulation range for a group of points.">
<polygon fill="white" stroke="#666666" points="567.75,-144.12 410.75,-144.12 410.75,-110.62 567.75,-110.62 567.75,-144.12"/>
<text xml:space="preserve" text-anchor="start" x="418.75" y="-130.62" font-family="Helvetica,sans-Serif" font-size="10.00">DomainLayered3D::calculate</text>
<text xml:space="preserve" text-anchor="middle" x="489.25" y="-117.88" font-family="Helvetica,sans-Serif" font-size="10.00">Range</text>
</a>
</g>
</g>
<!-- Node2&#45;&gt;Node3 -->
<g id="edge2_Node000002_Node000003" class="edge">
<title>Node2&#45;&gt;Node3</title>
<g id="a_edge2_Node000002_Node000003"><a xlink:title=" ">
<path fill="none" stroke="#63b8ff" d="M375.18,-127.38C383.04,-127.38 391.02,-127.38 398.9,-127.38"/>
<polygon fill="#63b8ff" stroke="#63b8ff" points="398.85,-130.88 408.85,-127.38 398.85,-123.88 398.85,-130.88"/>
</a>
</g>
</g>
<!-- Node4 -->
<g id="Node000004" class="node">
<title>Node4</title>
<g id="a_Node000004"><a xlink:href="DomainLayered3D_8cpp.html#a83b3a83c01e3d7a487d4ae2ec65695f5" target="_top" xlink:title="Adjusts the Z&#45;coordinate range with a margin while ensuring boundaries.">
<polygon fill="white" stroke="#666666" points="687.25,-137.75 603.75,-137.75 603.75,-117 687.25,-117 687.25,-137.75"/>
<text xml:space="preserve" text-anchor="middle" x="645.5" y="-124.25" font-family="Helvetica,sans-Serif" font-size="10.00">adjustZRange</text>
</a>
</g>
</g>
<!-- Node3&#45;&gt;Node4 -->
<g id="edge3_Node000003_Node000004" class="edge">
<title>Node3&#45;&gt;Node4</title>
<g id="a_edge3_Node000003_Node000004"><a xlink:title=" ">
<path fill="none" stroke="#63b8ff" d="M567.83,-127.38C576,-127.38 584.16,-127.38 591.95,-127.38"/>
<polygon fill="#63b8ff" stroke="#63b8ff" points="591.93,-130.88 601.93,-127.38 591.93,-123.88 591.93,-130.88"/>
</a>
</g>
</g>
<!-- Node6 -->
<g id="Node000006" class="node">
<title>Node6</title>
<g id="a_Node000006"><a xlink:href="classDomainLayered3D.html#ae8e9daf2ca4d1ed649a1e0fe83880160" target="_top" xlink:title="Returns the layer index corresponding to a spatial position.">
<polygon fill="white" stroke="#666666" points="567.75,-66.12 410.75,-66.12 410.75,-32.62 567.75,-32.62 567.75,-66.12"/>
<text xml:space="preserve" text-anchor="start" x="418.75" y="-52.62" font-family="Helvetica,sans-Serif" font-size="10.00">DomainLayered3D::GetLayer</text>
<text xml:space="preserve" text-anchor="middle" x="489.25" y="-39.88" font-family="Helvetica,sans-Serif" font-size="10.00">Index</text>
</a>
</g>
</g>
<!-- Node5&#45;&gt;Node6 -->
<g id="edge5_Node000005_Node000006" class="edge">
<title>Node5&#45;&gt;Node6</title>
<g id="a_edge5_Node000005_Node000006"><a xlink:title=" ">
<path fill="none" stroke="#63b8ff" d="M343.69,-77.51C360.92,-74.16 380.35,-70.38 399.23,-66.7"/>
<polygon fill="#63b8ff" stroke="#63b8ff" points="399.64,-70.19 408.79,-64.84 398.3,-63.32 399.64,-70.19"/>
</a>
</g>
</g>
<!-- Node7&#45;&gt;Node6 -->
<g id="edge7_Node000007_Node000006" class="edge">
<title>Node7&#45;&gt;Node6</title>
<g id="a_edge7_Node000007_Node000006"><a xlink:title=" ">
<path fill="none" stroke="#63b8ff" d="M351,-49.38C366.29,-49.38 382.91,-49.38 399.14,-49.38"/>
<polygon fill="#63b8ff" stroke="#63b8ff" points="398.78,-52.88 408.78,-49.38 398.78,-45.88 398.78,-52.88"/>
</a>
</g>
</g>
<!-- Node8&#45;&gt;Node6 -->
<g id="edge9_Node000008_Node000006" class="edge">
<title>Node8&#45;&gt;Node6</title>
<g id="a_edge9_Node000008_Node000006"><a xlink:title=" ">
<path fill="none" stroke="#63b8ff" d="M343.69,-21.24C360.92,-24.59 380.35,-28.37 399.23,-32.05"/>
<polygon fill="#63b8ff" stroke="#63b8ff" points="398.3,-35.43 408.79,-33.91 399.64,-28.56 398.3,-35.43"/>
</a>
</g>
</g>
</g>
</svg>
