<?xml version="1.0" encoding="UTF-8" standalone="no"?>
<!DOCTYPE svg PUBLIC "-//W3C//DTD SVG 1.1//EN"
 "http://www.w3.org/Graphics/SVG/1.1/DTD/svg11.dtd">
<!-- Generated by graphviz version 13.1.2 (20250809.0930)
 -->
<!-- Title: GreenFHom3DPer2D::GradientEwaldSpectral Pages: 1 -->
<svg width="443pt" height="86pt"
 viewBox="0.00 0.00 443.00 86.00" xmlns="http://www.w3.org/2000/svg" xmlns:xlink="http://www.w3.org/1999/xlink">
<g id="graph0" class="graph" transform="scale(1 1) rotate(0) translate(4 81.75)">
<title>GreenFHom3DPer2D::GradientEwaldSpectral</title>
<!-- Node1 -->
<g id="Node000001" class="node">
<title>Node1</title>
<g id="a_Node000001"><a xlink:title="Spectral part of the source&#45;gradient .">
<polygon fill="#999999" stroke="#666666" points="165.25,-46.12 0,-46.12 0,-12.62 165.25,-12.62 165.25,-46.12"/>
<text xml:space="preserve" text-anchor="start" x="8" y="-32.62" font-family="Helvetica,sans-Serif" font-size="10.00">GreenFHom3DPer2D::Gradient</text>
<text xml:space="preserve" text-anchor="middle" x="82.62" y="-19.88" font-family="Helvetica,sans-Serif" font-size="10.00">EwaldSpectral</text>
</a>
</g>
</g>
<!-- Node2 -->
<g id="Node000002" class="node">
<title>Node2</title>
<g id="a_Node000002"><a xlink:href="group__greenFunction.html#gac0a52dce23be7dacdf97c68653b6c137" target="_top" xlink:title="Complex square root with a branch cut along the negative real axis.">
<polygon fill="white" stroke="#666666" points="264.88,-59.75 224.88,-59.75 224.88,-39 264.88,-39 264.88,-59.75"/>
<text xml:space="preserve" text-anchor="middle" x="244.88" y="-46.25" font-family="Helvetica,sans-Serif" font-size="10.00">csqrt</text>
</a>
</g>
</g>
<!-- Node1&#45;&gt;Node2 -->
<g id="edge1_Node000001_Node000002" class="edge">
<title>Node1&#45;&gt;Node2</title>
<g id="a_edge1_Node000001_Node000002"><a xlink:title=" ">
<path fill="none" stroke="#63b8ff" d="M165.63,-39.61C182.66,-41.74 199.58,-43.85 213.31,-45.56"/>
<polygon fill="#63b8ff" stroke="#63b8ff" points="212.61,-49 222.97,-46.77 213.48,-42.05 212.61,-49"/>
</a>
</g>
</g>
<!-- Node4 -->
<g id="Node000004" class="node">
<title>Node4</title>
<g id="a_Node000004"><a xlink:href="classGreenF.html#abf00726011a4eca4109bc43125218d30" target="_top" xlink:title="Evaluate erfc via the 2D lookup table if available.">
<polygon fill="white" stroke="#666666" points="288.5,-20.75 201.25,-20.75 201.25,0 288.5,0 288.5,-20.75"/>
<text xml:space="preserve" text-anchor="middle" x="244.88" y="-7.25" font-family="Helvetica,sans-Serif" font-size="10.00">GreenF::EvErfc</text>
</a>
</g>
</g>
<!-- Node1&#45;&gt;Node4 -->
<g id="edge4_Node000001_Node000004" class="edge">
<title>Node1&#45;&gt;Node4</title>
<g id="a_edge4_Node000001_Node000004"><a xlink:title=" ">
<path fill="none" stroke="#63b8ff" d="M165.63,-19.65C173.71,-18.69 181.76,-17.74 189.46,-16.83"/>
<polygon fill="#63b8ff" stroke="#63b8ff" points="189.81,-20.31 199.33,-15.66 188.99,-13.36 189.81,-20.31"/>
</a>
</g>
</g>
<!-- Node3 -->
<g id="Node000003" class="node">
<title>Node3</title>
<g id="a_Node000003"><a xlink:href="Domain_8cpp.html#aafa3e4fa6318b2f8740f4dbd50c367e5" target="_top" xlink:title="Extract the real part of each component of a complex 3&#45;vector.">
<polygon fill="white" stroke="#666666" points="361.88,-59.75 327.12,-59.75 327.12,-39 361.88,-39 361.88,-59.75"/>
<text xml:space="preserve" text-anchor="middle" x="344.5" y="-46.25" font-family="Helvetica,sans-Serif" font-size="10.00">real</text>
</a>
</g>
</g>
<!-- Node2&#45;&gt;Node3 -->
<g id="edge2_Node000002_Node000003" class="edge">
<title>Node2&#45;&gt;Node3</title>
<g id="a_edge2_Node000002_Node000003"><a xlink:title=" ">
<path fill="none" stroke="#63b8ff" d="M265.16,-49.38C279.51,-49.38 299.31,-49.38 315.41,-49.38"/>
<polygon fill="#63b8ff" stroke="#63b8ff" points="315.34,-52.88 325.34,-49.38 315.34,-45.88 315.34,-52.88"/>
</a>
</g>
</g>
<!-- Node3&#45;&gt;Node3 -->
<g id="edge3_Node000003_Node000003" class="edge">
<title>Node3&#45;&gt;Node3</title>
<g id="a_edge3_Node000003_Node000003"><a xlink:title=" ">
<path fill="none" stroke="#63b8ff" d="M332.68,-60.15C327.95,-68.81 331.89,-77.75 344.5,-77.75 351.2,-77.75 355.45,-75.23 357.26,-71.56"/>
<polygon fill="#63b8ff" stroke="#63b8ff" points="360.75,-71.34 356.45,-61.66 353.78,-71.91 360.75,-71.34"/>
</a>
</g>
</g>
<!-- Node4&#45;&gt;Node3 -->
<g id="edge7_Node000004_Node000003" class="edge">
<title>Node4&#45;&gt;Node3</title>
<g id="a_edge7_Node000004_Node000003"><a xlink:title=" ">
<path fill="none" stroke="#63b8ff" d="M273.07,-21.24C286.56,-26.63 302.8,-33.12 316.29,-38.51"/>
<polygon fill="#63b8ff" stroke="#63b8ff" points="314.86,-41.7 325.45,-42.16 317.46,-35.2 314.86,-41.7"/>
</a>
</g>
</g>
<!-- Node5 -->
<g id="Node000005" class="node">
<title>Node5</title>
<g id="a_Node000005"><a xlink:href="mathFunctions_8cpp.html#a7916c6b62310fe9cf38ec2a2890aaad4" target="_top" xlink:title="Complementary error function for complex arguments.">
<polygon fill="white" stroke="#666666" points="364.5,-20.75 324.5,-20.75 324.5,0 364.5,0 364.5,-20.75"/>
<text xml:space="preserve" text-anchor="middle" x="344.5" y="-7.25" font-family="Helvetica,sans-Serif" font-size="10.00">cerfc</text>
</a>
</g>
</g>
<!-- Node4&#45;&gt;Node5 -->
<g id="edge5_Node000004_Node000005" class="edge">
<title>Node4&#45;&gt;Node5</title>
<g id="a_edge5_Node000004_Node000005"><a xlink:title=" ">
<path fill="none" stroke="#63b8ff" d="M288.98,-10.38C296.93,-10.38 305.08,-10.38 312.58,-10.38"/>
<polygon fill="#63b8ff" stroke="#63b8ff" points="312.55,-13.88 322.55,-10.38 312.55,-6.88 312.55,-13.88"/>
</a>
</g>
</g>
<!-- Node6 -->
<g id="Node000006" class="node">
<title>Node6</title>
<g id="a_Node000006"><a xlink:href="mathFunctions_8cpp.html#abc57cde75234d7e165a9ebcdb45f2c29" target="_top" xlink:title="Error function for complex arguments.">
<polygon fill="white" stroke="#666666" points="435.25,-20.75 400.5,-20.75 400.5,0 435.25,0 435.25,-20.75"/>
<text xml:space="preserve" text-anchor="middle" x="417.88" y="-7.25" font-family="Helvetica,sans-Serif" font-size="10.00">cerf</text>
</a>
</g>
</g>
<!-- Node5&#45;&gt;Node6 -->
<g id="edge6_Node000005_Node000006" class="edge">
<title>Node5&#45;&gt;Node6</title>
<g id="a_edge6_Node000005_Node000006"><a xlink:title=" ">
<path fill="none" stroke="#63b8ff" d="M364.63,-10.38C372.06,-10.38 380.73,-10.38 388.84,-10.38"/>
<polygon fill="#63b8ff" stroke="#63b8ff" points="388.61,-13.88 398.61,-10.38 388.61,-6.88 388.61,-13.88"/>
</a>
</g>
</g>
</g>
</svg>
