<?xml version="1.0" encoding="UTF-8" standalone="no"?>
<!DOCTYPE svg PUBLIC "-//W3C//DTD SVG 1.1//EN"
 "http://www.w3.org/Graphics/SVG/1.1/DTD/svg11.dtd">
<!-- Generated by graphviz version 13.1.2 (20250809.0930)
 -->
<!-- Title: Triangle::Center Pages: 1 -->
<svg width="551pt" height="1178pt"
 viewBox="0.00 0.00 551.00 1178.00" xmlns="http://www.w3.org/2000/svg" xmlns:xlink="http://www.w3.org/1999/xlink">
<g id="graph0" class="graph" transform="scale(1 1) rotate(0) translate(4 1173.75)">
<title>Triangle::Center</title>
<!-- Node1 -->
<g id="Node000001" class="node">
<title>Node1</title>
<g id="a_Node000001"><a xlink:title="Centroid of the triangle.">
<polygon fill="#999999" stroke="#666666" points="543,-635.75 450.5,-635.75 450.5,-615 543,-615 543,-635.75"/>
<text xml:space="preserve" text-anchor="middle" x="496.75" y="-622.25" font-family="Helvetica,sans-Serif" font-size="10.00">Triangle::Center</text>
</a>
</g>
</g>
<!-- Node2 -->
<g id="Node000002" class="node">
<title>Node2</title>
<g id="a_Node000002"><a xlink:href="classGreenFHom3D.html#a2cd095383b467cb6ca12819e2cd5dc61" target="_top" xlink:title="Heuristic test for two triangles using center distance vs.">
<polygon fill="white" stroke="#666666" points="399.88,-1169.75 227.12,-1169.75 227.12,-1149 399.88,-1149 399.88,-1169.75"/>
<text xml:space="preserve" text-anchor="middle" x="313.5" y="-1156.25" font-family="Helvetica,sans-Serif" font-size="10.00">GreenFHom3D::AboveThreshold</text>
</a>
</g>
</g>
<!-- Node1&#45;&gt;Node2 -->
<g id="edge1_Node000001_Node000002" class="edge">
<title>Node1&#45;&gt;Node2</title>
<g id="a_edge1_Node000001_Node000002"><a xlink:title=" ">
<path fill="none" stroke="#63b8ff" d="M495.49,-647.38C493.97,-736.25 483.68,-1067.32 414.5,-1139.38 410.33,-1143.72 405.51,-1147.26 400.27,-1150.14"/>
<polygon fill="#63b8ff" stroke="#63b8ff" points="498.99,-647.65 495.63,-637.6 491.99,-647.55 498.99,-647.65"/>
</a>
</g>
</g>
<!-- Node3 -->
<g id="Node000003" class="node">
<title>Node3</title>
<g id="a_Node000003"><a xlink:href="classGreenFLayered3D.html#a1e2aea0bdd06e2c0082b6ae0787a018b" target="_top" xlink:title="Checks whether the given point&#45;triangle pair exceeds a predefined distance threshold.">
<polygon fill="white" stroke="#666666" points="407.75,-1130.75 219.25,-1130.75 219.25,-1110 407.75,-1110 407.75,-1130.75"/>
<text xml:space="preserve" text-anchor="middle" x="313.5" y="-1117.25" font-family="Helvetica,sans-Serif" font-size="10.00">GreenFLayered3D::AboveThreshold</text>
</a>
</g>
</g>
<!-- Node1&#45;&gt;Node3 -->
<g id="edge2_Node000001_Node000003" class="edge">
<title>Node1&#45;&gt;Node3</title>
<g id="a_edge2_Node000001_Node000003"><a xlink:title=" ">
<path fill="none" stroke="#63b8ff" d="M495.17,-647.58C492.49,-732.41 478.51,-1034.55 414.5,-1100.38 410.92,-1104.06 406.87,-1107.16 402.5,-1109.77"/>
<polygon fill="#63b8ff" stroke="#63b8ff" points="498.67,-647.71 495.46,-637.61 491.67,-647.5 498.67,-647.71"/>
</a>
</g>
</g>
<!-- Node4 -->
<g id="Node000004" class="node">
<title>Node4</title>
<g id="a_Node000004"><a xlink:href="classGreenFLayered3D.html#a41dad600791549400d82f6c44238f373" target="_top" xlink:title="Checks whether the given triangles exceed a predefined threshold.">
<polygon fill="white" stroke="#666666" points="407.75,-1091.75 219.25,-1091.75 219.25,-1071 407.75,-1071 407.75,-1091.75"/>
<text xml:space="preserve" text-anchor="middle" x="313.5" y="-1078.25" font-family="Helvetica,sans-Serif" font-size="10.00">GreenFLayered3D::AboveThreshold</text>
</a>
</g>
</g>
<!-- Node1&#45;&gt;Node4 -->
<g id="edge3_Node000001_Node000004" class="edge">
<title>Node1&#45;&gt;Node4</title>
<g id="a_edge3_Node000001_Node000004"><a xlink:title=" ">
<path fill="none" stroke="#63b8ff" d="M494.85,-647.11C491.09,-726.98 473.95,-1002.69 414.5,-1062.38 411.38,-1065.51 407.92,-1068.21 404.21,-1070.53"/>
<polygon fill="#63b8ff" stroke="#63b8ff" points="498.33,-647.69 495.28,-637.55 491.34,-647.38 498.33,-647.69"/>
</a>
</g>
</g>
<!-- Node5 -->
<g id="Node000005" class="node">
<title>Node5</title>
<g id="a_Node000005"><a xlink:href="classGreenFHom3DPer2D.html#a4049a59ae5bbd1406d1da47e6de62af8" target="_top" xlink:title="Far/near heuristic for translated triangle pairs.">
<polygon fill="white" stroke="#666666" points="414.5,-1053.12 212.5,-1053.12 212.5,-1019.62 414.5,-1019.62 414.5,-1053.12"/>
<text xml:space="preserve" text-anchor="start" x="220.5" y="-1039.62" font-family="Helvetica,sans-Serif" font-size="10.00">GreenFHom3DPer2D::AboveThreshold</text>
<text xml:space="preserve" text-anchor="middle" x="313.5" y="-1026.88" font-family="Helvetica,sans-Serif" font-size="10.00">Translate</text>
</a>
</g>
</g>
<!-- Node1&#45;&gt;Node5 -->
<g id="edge4_Node000001_Node000005" class="edge">
<title>Node1&#45;&gt;Node5</title>
<g id="a_edge4_Node000001_Node000005"><a xlink:title=" ">
<path fill="none" stroke="#63b8ff" d="M493.94,-647.29C487.5,-720.01 463.44,-951.82 414.5,-1005.38 409.47,-1010.88 403.49,-1015.41 396.99,-1019.15"/>
<polygon fill="#63b8ff" stroke="#63b8ff" points="497.41,-647.75 494.78,-637.49 490.44,-647.15 497.41,-647.75"/>
</a>
</g>
</g>
<!-- Node6 -->
<g id="Node000006" class="node">
<title>Node6</title>
<g id="a_Node000006"><a xlink:href="classGreenFHom3DPer2D.html#a1dc9dd84c93ee10b2fb4b1866103d957" target="_top" xlink:title="Compute &#160;and &#160;for all RWG pairs on two triangles.">
<polygon fill="white" stroke="#666666" points="176.5,-1023.75 0,-1023.75 0,-1003 176.5,-1003 176.5,-1023.75"/>
<text xml:space="preserve" text-anchor="middle" x="88.25" y="-1010.25" font-family="Helvetica,sans-Serif" font-size="10.00">GreenFHom3DPer2D::SameTriDK</text>
</a>
</g>
</g>
<!-- Node1&#45;&gt;Node6 -->
<g id="edge30_Node000001_Node000006" class="edge">
<title>Node1&#45;&gt;Node6</title>
<g id="a_edge30_Node000001_Node000006"><a xlink:title=" ">
<path fill="none" stroke="#63b8ff" d="M493.85,-647.04C487.35,-715.96 463.63,-928.14 414.5,-972.38 397.05,-988.09 266.98,-1000.58 176.71,-1007.47"/>
<polygon fill="#63b8ff" stroke="#63b8ff" points="497.31,-647.7 494.73,-637.42 490.34,-647.06 497.31,-647.7"/>
</a>
</g>
</g>
<!-- Node7 -->
<g id="Node000007" class="node">
<title>Node7</title>
<g id="a_Node000007"><a xlink:href="classDomainLayered3D.html#a4e5fb098bcc6edc2f594da23e0b64fb3" target="_top" xlink:title="Absorption cross section.">
<polygon fill="white" stroke="#666666" points="402.12,-963.75 224.88,-963.75 224.88,-943 402.12,-943 402.12,-963.75"/>
<text xml:space="preserve" text-anchor="middle" x="313.5" y="-950.25" font-family="Helvetica,sans-Serif" font-size="10.00">DomainLayered3D::absorptionCS</text>
</a>
</g>
</g>
<!-- Node1&#45;&gt;Node7 -->
<g id="edge6_Node000001_Node000007" class="edge">
<title>Node1&#45;&gt;Node7</title>
<g id="a_edge6_Node000001_Node000007"><a xlink:title=" ">
<path fill="none" stroke="#63b8ff" d="M492.98,-647.33C484.5,-710.95 456.88,-893.48 414.5,-933.38 410.63,-937.02 406.3,-940.08 401.66,-942.65"/>
<polygon fill="#63b8ff" stroke="#63b8ff" points="496.44,-647.82 494.26,-637.46 489.5,-646.92 496.44,-647.82"/>
</a>
</g>
</g>
<!-- Node8 -->
<g id="Node000008" class="node">
<title>Node8</title>
<g id="a_Node000008"><a xlink:href="classDomainLayered3D.html#a847bdddcbf4257a73cfcd2766c882f8b" target="_top" xlink:title="Extinction cross section.">
<polygon fill="white" stroke="#666666" points="400.62,-924.75 226.38,-924.75 226.38,-904 400.62,-904 400.62,-924.75"/>
<text xml:space="preserve" text-anchor="middle" x="313.5" y="-911.25" font-family="Helvetica,sans-Serif" font-size="10.00">DomainLayered3D::extinctionCS</text>
</a>
</g>
</g>
<!-- Node1&#45;&gt;Node8 -->
<g id="edge7_Node000001_Node000008" class="edge">
<title>Node1&#45;&gt;Node8</title>
<g id="a_edge7_Node000001_Node000008"><a xlink:title=" ">
<path fill="none" stroke="#63b8ff" d="M496.17,-647.47C495.85,-699.08 487.4,-828.15 414.5,-894.38 410.44,-898.07 405.89,-901.16 401.04,-903.74"/>
<polygon fill="#63b8ff" stroke="#63b8ff" points="499.67,-647.6 496.11,-637.62 492.67,-647.64 499.67,-647.6"/>
</a>
</g>
</g>
<!-- Node9 -->
<g id="Node000009" class="node">
<title>Node9</title>
<g id="a_Node000009"><a xlink:href="classGaussQuad.html#afecf86c6fbc2362c30d56fb10454621e" target="_top" xlink:title="I1: integral of scalar kernel times RWG prefactor over the test triangle.">
<polygon fill="white" stroke="#666666" points="356.75,-885.75 270.25,-885.75 270.25,-865 356.75,-865 356.75,-885.75"/>
<text xml:space="preserve" text-anchor="middle" x="313.5" y="-872.25" font-family="Helvetica,sans-Serif" font-size="10.00">GaussQuad::I1</text>
</a>
</g>
</g>
<!-- Node1&#45;&gt;Node9 -->
<g id="edge8_Node000001_Node000009" class="edge">
<title>Node1&#45;&gt;Node9</title>
<g id="a_edge8_Node000001_Node000009"><a xlink:title=" ">
<path fill="none" stroke="#63b8ff" d="M494.52,-647.42C490.74,-692.74 475.54,-796.68 414.5,-851.38 398.94,-865.31 376.72,-871.53 357.17,-874.16"/>
<polygon fill="#63b8ff" stroke="#63b8ff" points="498,-647.78 495.21,-637.56 491.02,-647.29 498,-647.78"/>
</a>
</g>
</g>
<!-- Node10 -->
<g id="Node000010" class="node">
<title>Node10</title>
<g id="a_Node000010"><a xlink:href="classGaussQuad.html#ab01b06d5cd9d9d15b01d0c9078b8dc5e" target="_top" xlink:title="Two‑triangle integral for the D operator (Eq.">
<polygon fill="white" stroke="#666666" points="152.88,-847.75 23.62,-847.75 23.62,-827 152.88,-827 152.88,-847.75"/>
<text xml:space="preserve" text-anchor="middle" x="88.25" y="-834.25" font-family="Helvetica,sans-Serif" font-size="10.00">GaussQuad::IntegrateD</text>
</a>
</g>
</g>
<!-- Node1&#45;&gt;Node10 -->
<g id="edge18_Node000001_Node000010" class="edge">
<title>Node1&#45;&gt;Node10</title>
<g id="a_edge18_Node000001_Node000010"><a xlink:title=" ">
<path fill="none" stroke="#63b8ff" d="M493.82,-647.31C488.89,-688.72 471.8,-777.87 414.5,-818.38 373.91,-847.07 235.76,-845.32 153.13,-841.4"/>
<polygon fill="#63b8ff" stroke="#63b8ff" points="497.28,-647.91 494.84,-637.6 490.32,-647.18 497.28,-647.91"/>
</a>
</g>
</g>
<!-- Node11 -->
<g id="Node000011" class="node">
<title>Node11</title>
<g id="a_Node000011"><a xlink:href="classGaussQuad.html#a446b0b21a34640c901189c53ec4081b3" target="_top" xlink:title="I1 with on‑the‑fly kernel evaluation at (r,rp) using gF.">
<polygon fill="white" stroke="#666666" points="356.75,-809.75 270.25,-809.75 270.25,-789 356.75,-789 356.75,-809.75"/>
<text xml:space="preserve" text-anchor="middle" x="313.5" y="-796.25" font-family="Helvetica,sans-Serif" font-size="10.00">GaussQuad::I1</text>
</a>
</g>
</g>
<!-- Node1&#45;&gt;Node11 -->
<g id="edge10_Node000001_Node000011" class="edge">
<title>Node1&#45;&gt;Node11</title>
<g id="a_edge10_Node000001_Node000011"><a xlink:title=" ">
<path fill="none" stroke="#63b8ff" d="M490.71,-646.97C481.63,-680.85 459.16,-746.03 414.5,-779.38 398.19,-791.56 376.35,-796.83 357.24,-798.94"/>
<polygon fill="#63b8ff" stroke="#63b8ff" points="494.05,-648.05 493.1,-637.49 487.26,-646.34 494.05,-648.05"/>
</a>
</g>
</g>
<!-- Node12 -->
<g id="Node000012" class="node">
<title>Node12</title>
<g id="a_Node000012"><a xlink:href="classGaussQuad.html#a017bdf3c80a430f4c381310bd7b680ed" target="_top" xlink:title="I2: vector form with the RWG basis evaluated at the centroid.">
<polygon fill="white" stroke="#666666" points="356.75,-770.75 270.25,-770.75 270.25,-750 356.75,-750 356.75,-770.75"/>
<text xml:space="preserve" text-anchor="middle" x="313.5" y="-757.25" font-family="Helvetica,sans-Serif" font-size="10.00">GaussQuad::I2</text>
</a>
</g>
</g>
<!-- Node1&#45;&gt;Node12 -->
<g id="edge11_Node000001_Node000012" class="edge">
<title>Node1&#45;&gt;Node12</title>
<g id="a_edge11_Node000001_Node000012"><a xlink:title=" ">
<path fill="none" stroke="#63b8ff" d="M486.92,-646.37C474.69,-672.73 450.03,-717.27 414.5,-740.38 397.58,-751.38 375.9,-756.55 357.05,-758.9"/>
<polygon fill="#63b8ff" stroke="#63b8ff" points="490.05,-647.94 490.91,-637.38 483.66,-645.1 490.05,-647.94"/>
</a>
</g>
</g>
<!-- Node13 -->
<g id="Node000013" class="node">
<title>Node13</title>
<g id="a_Node000013"><a xlink:href="classGaussQuad.html#ae59aff5fbf12ed60f4bb65820fdcae91" target="_top" xlink:title="I2 with on‑the‑fly scalar kernel evaluation.">
<polygon fill="white" stroke="#666666" points="356.75,-731.75 270.25,-731.75 270.25,-711 356.75,-711 356.75,-731.75"/>
<text xml:space="preserve" text-anchor="middle" x="313.5" y="-718.25" font-family="Helvetica,sans-Serif" font-size="10.00">GaussQuad::I2</text>
</a>
</g>
</g>
<!-- Node1&#45;&gt;Node13 -->
<g id="edge13_Node000001_Node000013" class="edge">
<title>Node1&#45;&gt;Node13</title>
<g id="a_edge13_Node000001_Node000013"><a xlink:title=" ">
<path fill="none" stroke="#63b8ff" d="M480.29,-645.05C465.37,-662.64 441.17,-687.67 414.5,-701.38 396.86,-710.44 375.52,-715.4 357.08,-718.11"/>
<polygon fill="#63b8ff" stroke="#63b8ff" points="482.99,-647.29 486.63,-637.34 477.57,-642.85 482.99,-647.29"/>
</a>
</g>
</g>
<!-- Node14 -->
<g id="Node000014" class="node">
<title>Node14</title>
<g id="a_Node000014"><a xlink:href="classGaussQuad.html#aa2f7019adfbd7b78e6f91e5554b526b7" target="_top" xlink:title="I4: vector kernel crossed with RWG at the centroid.">
<polygon fill="white" stroke="#666666" points="356.75,-692.75 270.25,-692.75 270.25,-672 356.75,-672 356.75,-692.75"/>
<text xml:space="preserve" text-anchor="middle" x="313.5" y="-679.25" font-family="Helvetica,sans-Serif" font-size="10.00">GaussQuad::I4</text>
</a>
</g>
</g>
<!-- Node1&#45;&gt;Node14 -->
<g id="edge14_Node000001_Node000014" class="edge">
<title>Node1&#45;&gt;Node14</title>
<g id="a_edge14_Node000001_Node000014"><a xlink:title=" ">
<path fill="none" stroke="#63b8ff" d="M461.53,-640.61C447.18,-646.64 430.21,-653.33 414.5,-658.38 395.97,-664.32 375.09,-669.56 357.22,-673.61"/>
<polygon fill="#63b8ff" stroke="#63b8ff" points="462.72,-643.91 470.53,-636.75 459.96,-637.47 462.72,-643.91"/>
</a>
</g>
</g>
<!-- Node15 -->
<g id="Node000015" class="node">
<title>Node15</title>
<g id="a_Node000015"><a xlink:href="classGaussQuad.html#ab896c6e8141cd1e678d4f630fe0fd186" target="_top" xlink:title="Two‑triangle integral for the K operator (Eq.">
<polygon fill="white" stroke="#666666" points="152.5,-673.75 24,-673.75 24,-653 152.5,-653 152.5,-673.75"/>
<text xml:space="preserve" text-anchor="middle" x="88.25" y="-660.25" font-family="Helvetica,sans-Serif" font-size="10.00">GaussQuad::IntegrateK</text>
</a>
</g>
</g>
<!-- Node1&#45;&gt;Node15 -->
<g id="edge22_Node000001_Node000015" class="edge">
<title>Node1&#45;&gt;Node15</title>
<g id="a_edge22_Node000001_Node000015"><a xlink:title=" ">
<path fill="none" stroke="#63b8ff" d="M439.18,-630.66C363.92,-637.7 231.26,-650.1 152.68,-657.45"/>
<polygon fill="#63b8ff" stroke="#63b8ff" points="439.16,-634.18 448.8,-629.76 438.51,-627.21 439.16,-634.18"/>
</a>
</g>
</g>
<!-- Node16 -->
<g id="Node000016" class="node">
<title>Node16</title>
<g id="a_Node000016"><a xlink:href="classGaussQuad.html#a0fb8ea7e979899e9f7e872faed11d6bd" target="_top" xlink:title="I4 with on‑the‑fly vector kernel evaluation.">
<polygon fill="white" stroke="#666666" points="356.75,-616.75 270.25,-616.75 270.25,-596 356.75,-596 356.75,-616.75"/>
<text xml:space="preserve" text-anchor="middle" x="313.5" y="-603.25" font-family="Helvetica,sans-Serif" font-size="10.00">GaussQuad::I4</text>
</a>
</g>
</g>
<!-- Node1&#45;&gt;Node16 -->
<g id="edge16_Node000001_Node000016" class="edge">
<title>Node1&#45;&gt;Node16</title>
<g id="a_edge16_Node000001_Node000016"><a xlink:title=" ">
<path fill="none" stroke="#63b8ff" d="M438.62,-619.39C412.23,-616.62 381.43,-613.39 357.11,-610.84"/>
<polygon fill="#63b8ff" stroke="#63b8ff" points="438.2,-622.86 448.51,-620.42 438.93,-615.9 438.2,-622.86"/>
</a>
</g>
</g>
<!-- Node17 -->
<g id="Node000017" class="node">
<title>Node17</title>
<g id="a_Node000017"><a xlink:href="classGaussQuad.html#a7b4dd3082686af22451b5f405073d33e" target="_top" xlink:title="I5 variant: vector kernel weighted by RWG prefactor (centroid).">
<polygon fill="white" stroke="#666666" points="356.75,-577.75 270.25,-577.75 270.25,-557 356.75,-557 356.75,-577.75"/>
<text xml:space="preserve" text-anchor="middle" x="313.5" y="-564.25" font-family="Helvetica,sans-Serif" font-size="10.00">GaussQuad::I5</text>
</a>
</g>
</g>
<!-- Node1&#45;&gt;Node17 -->
<g id="edge17_Node000001_Node000017" class="edge">
<title>Node1&#45;&gt;Node17</title>
<g id="a_edge17_Node000001_Node000017"><a xlink:title=" ">
<path fill="none" stroke="#63b8ff" d="M466.45,-609.58C451.29,-601.96 432.29,-593.22 414.5,-587.38 396,-581.3 374.93,-576.75 356.92,-573.54"/>
<polygon fill="#63b8ff" stroke="#63b8ff" points="464.42,-612.48 474.91,-613.94 467.62,-606.25 464.42,-612.48"/>
</a>
</g>
</g>
<!-- Node18 -->
<g id="Node000018" class="node">
<title>Node18</title>
<g id="a_Node000018"><a xlink:href="classGreenFHom3D.html#aca136b03c44ad1da34acf91eb5a5e390" target="_top" xlink:title="term at an observation point.">
<polygon fill="white" stroke="#666666" points="395.75,-538.75 231.25,-538.75 231.25,-518 395.75,-518 395.75,-538.75"/>
<text xml:space="preserve" text-anchor="middle" x="313.5" y="-525.25" font-family="Helvetica,sans-Serif" font-size="10.00">GreenFHom3D::IntegrateDelta</text>
</a>
</g>
</g>
<!-- Node1&#45;&gt;Node18 -->
<g id="edge19_Node000001_Node000018" class="edge">
<title>Node1&#45;&gt;Node18</title>
<g id="a_edge19_Node000001_Node000018"><a xlink:title=" ">
<path fill="none" stroke="#63b8ff" d="M481,-606.22C466.18,-588.37 441.69,-562.46 414.5,-548.38 407.35,-544.67 399.58,-541.65 391.64,-539.19"/>
<polygon fill="#63b8ff" stroke="#63b8ff" points="477.89,-607.93 486.89,-613.53 483.34,-603.54 477.89,-607.93"/>
</a>
</g>
</g>
<!-- Node19 -->
<g id="Node000019" class="node">
<title>Node19</title>
<g id="a_Node000019"><a xlink:href="classGreenFHom3DPer2D.html#a233c2185952220bd16acae2142f05cc1" target="_top" xlink:title="term at an observation point.">
<polygon fill="white" stroke="#666666" points="397.25,-500.12 229.75,-500.12 229.75,-466.62 397.25,-466.62 397.25,-500.12"/>
<text xml:space="preserve" text-anchor="start" x="237.75" y="-486.62" font-family="Helvetica,sans-Serif" font-size="10.00">GreenFHom3DPer2D::Integrate</text>
<text xml:space="preserve" text-anchor="middle" x="313.5" y="-473.88" font-family="Helvetica,sans-Serif" font-size="10.00">Delta</text>
</a>
</g>
</g>
<!-- Node1&#45;&gt;Node19 -->
<g id="edge20_Node000001_Node000019" class="edge">
<title>Node1&#45;&gt;Node19</title>
<g id="a_edge20_Node000001_Node000019"><a xlink:title=" ">
<path fill="none" stroke="#63b8ff" d="M486.76,-604.51C474.36,-578.26 449.51,-533.69 414.5,-509.38 409.27,-505.74 403.57,-502.62 397.62,-499.93"/>
<polygon fill="#63b8ff" stroke="#63b8ff" points="483.5,-605.79 490.81,-613.46 489.87,-602.9 483.5,-605.79"/>
</a>
</g>
</g>
<!-- Node20 -->
<g id="Node000020" class="node">
<title>Node20</title>
<g id="a_Node000020"><a xlink:href="classGreenFLayered3D.html#afbdbfdc8fc40fc885f6377d5be242d36" target="_top" xlink:title="term at an observation point.">
<polygon fill="white" stroke="#666666" points="390.5,-448.12 236.5,-448.12 236.5,-414.62 390.5,-414.62 390.5,-448.12"/>
<text xml:space="preserve" text-anchor="start" x="244.5" y="-434.62" font-family="Helvetica,sans-Serif" font-size="10.00">GreenFLayered3D::Integrate</text>
<text xml:space="preserve" text-anchor="middle" x="313.5" y="-421.88" font-family="Helvetica,sans-Serif" font-size="10.00">Delta</text>
</a>
</g>
</g>
<!-- Node1&#45;&gt;Node20 -->
<g id="edge21_Node000001_Node000020" class="edge">
<title>Node1&#45;&gt;Node20</title>
<g id="a_edge21_Node000001_Node000020"><a xlink:title=" ">
<path fill="none" stroke="#63b8ff" d="M491.42,-603.69C483.09,-567.71 461.32,-495.81 414.5,-457.38 407.5,-451.63 399.37,-447.14 390.83,-443.63"/>
<polygon fill="#63b8ff" stroke="#63b8ff" points="487.97,-604.3 493.51,-613.33 494.82,-602.82 487.97,-604.3"/>
</a>
</g>
</g>
<!-- Node21 -->
<g id="Node000021" class="node">
<title>Node21</title>
<g id="a_Node000021"><a xlink:href="classGreenFHom3D.html#a9cece8a4056d65455cfcc94c8c61decd" target="_top" xlink:title="term at an observation point.">
<polygon fill="white" stroke="#666666" points="398,-396.75 229,-396.75 229,-376 398,-376 398,-396.75"/>
<text xml:space="preserve" text-anchor="middle" x="313.5" y="-383.25" font-family="Helvetica,sans-Serif" font-size="10.00">GreenFHom3D::IntegrateKappa</text>
</a>
</g>
</g>
<!-- Node1&#45;&gt;Node21 -->
<g id="edge23_Node000001_Node000021" class="edge">
<title>Node1&#45;&gt;Node21</title>
<g id="a_edge23_Node000001_Node000021"><a xlink:title=" ">
<path fill="none" stroke="#63b8ff" d="M494.5,-603.35C490.7,-558.61 475.45,-456.96 414.5,-405.38 409.64,-401.26 404.18,-397.94 398.36,-395.25"/>
<polygon fill="#63b8ff" stroke="#63b8ff" points="490.99,-603.37 495.2,-613.1 497.97,-602.87 490.99,-603.37"/>
</a>
</g>
</g>
<!-- Node22 -->
<g id="Node000022" class="node">
<title>Node22</title>
<g id="a_Node000022"><a xlink:href="classGreenFHom3DPer2D.html#aadb534ef4509422e6f3e78a0e3999758" target="_top" xlink:title="term at an observation point.">
<polygon fill="white" stroke="#666666" points="397.25,-358.12 229.75,-358.12 229.75,-324.62 397.25,-324.62 397.25,-358.12"/>
<text xml:space="preserve" text-anchor="start" x="237.75" y="-344.62" font-family="Helvetica,sans-Serif" font-size="10.00">GreenFHom3DPer2D::Integrate</text>
<text xml:space="preserve" text-anchor="middle" x="313.5" y="-331.88" font-family="Helvetica,sans-Serif" font-size="10.00">Kappa</text>
</a>
</g>
</g>
<!-- Node1&#45;&gt;Node22 -->
<g id="edge24_Node000001_Node000022" class="edge">
<title>Node1&#45;&gt;Node22</title>
<g id="a_edge24_Node000001_Node000022"><a xlink:title=" ">
<path fill="none" stroke="#63b8ff" d="M495.57,-603.43C493.93,-553.81 482.76,-432.26 414.5,-367.38 409.43,-362.56 403.58,-358.6 397.31,-355.36"/>
<polygon fill="#63b8ff" stroke="#63b8ff" points="492.07,-603.24 495.78,-613.16 499.07,-603.08 492.07,-603.24"/>
</a>
</g>
</g>
<!-- Node23 -->
<g id="Node000023" class="node">
<title>Node23</title>
<g id="a_Node000023"><a xlink:href="classGreenFLayered3D.html#a439eddb43f46fb52f6c84898ea12aa40" target="_top" xlink:title="term at an observation point.">
<polygon fill="white" stroke="#666666" points="390.5,-306.12 236.5,-306.12 236.5,-272.62 390.5,-272.62 390.5,-306.12"/>
<text xml:space="preserve" text-anchor="start" x="244.5" y="-292.62" font-family="Helvetica,sans-Serif" font-size="10.00">GreenFLayered3D::Integrate</text>
<text xml:space="preserve" text-anchor="middle" x="313.5" y="-279.88" font-family="Helvetica,sans-Serif" font-size="10.00">Kappa</text>
</a>
</g>
</g>
<!-- Node1&#45;&gt;Node23 -->
<g id="edge25_Node000001_Node000023" class="edge">
<title>Node1&#45;&gt;Node23</title>
<g id="a_edge25_Node000001_Node000023"><a xlink:title=" ">
<path fill="none" stroke="#63b8ff" d="M492.89,-603.4C484.17,-539.67 455.95,-356.74 414.5,-315.38 407.77,-308.66 399.54,-303.61 390.72,-299.82"/>
<polygon fill="#63b8ff" stroke="#63b8ff" points="489.42,-603.84 494.21,-613.28 496.36,-602.91 489.42,-603.84"/>
</a>
</g>
</g>
<!-- Node24 -->
<g id="Node000024" class="node">
<title>Node24</title>
<g id="a_Node000024"><a xlink:href="classGreenFHom3D.html#a48e8471aabb445e0e50a01c005ff3b98" target="_top" xlink:title="Compute &#160;for all RWGs on a source triangle.">
<polygon fill="white" stroke="#666666" points="393.12,-254.12 233.88,-254.12 233.88,-220.62 393.12,-220.62 393.12,-254.12"/>
<text xml:space="preserve" text-anchor="start" x="241.88" y="-240.62" font-family="Helvetica,sans-Serif" font-size="10.00">GreenFHom3D::SameTriDelta</text>
<text xml:space="preserve" text-anchor="middle" x="313.5" y="-227.88" font-family="Helvetica,sans-Serif" font-size="10.00">Kappa</text>
</a>
</g>
</g>
<!-- Node1&#45;&gt;Node24 -->
<g id="edge26_Node000001_Node000024" class="edge">
<title>Node1&#45;&gt;Node24</title>
<g id="a_edge26_Node000001_Node000024"><a xlink:title=" ">
<path fill="none" stroke="#63b8ff" d="M493.79,-603.48C487.03,-532.89 462.44,-312.95 414.5,-263.38 408.51,-257.19 401.26,-252.4 393.42,-248.72"/>
<polygon fill="#63b8ff" stroke="#63b8ff" points="490.26,-603.37 494.67,-613.01 497.23,-602.73 490.26,-603.37"/>
</a>
</g>
</g>
<!-- Node25 -->
<g id="Node000025" class="node">
<title>Node25</title>
<g id="a_Node000025"><a xlink:href="classGreenFHom3DPer2D.html#a84a8c855a27c895ff24f6771037284a5" target="_top" xlink:title="Compute &#160;for all RWGs on a source triangle.">
<polygon fill="white" stroke="#666666" points="394.62,-202.12 232.38,-202.12 232.38,-168.62 394.62,-168.62 394.62,-202.12"/>
<text xml:space="preserve" text-anchor="start" x="240.38" y="-188.62" font-family="Helvetica,sans-Serif" font-size="10.00">GreenFHom3DPer2D::SameTri</text>
<text xml:space="preserve" text-anchor="middle" x="313.5" y="-175.88" font-family="Helvetica,sans-Serif" font-size="10.00">DeltaKappa</text>
</a>
</g>
</g>
<!-- Node1&#45;&gt;Node25 -->
<g id="edge27_Node000001_Node000025" class="edge">
<title>Node1&#45;&gt;Node25</title>
<g id="a_edge27_Node000001_Node000025"><a xlink:title=" ">
<path fill="none" stroke="#63b8ff" d="M494.45,-603.43C489.46,-526.29 468.95,-269.23 414.5,-211.38 408.97,-205.5 402.29,-200.88 395.04,-197.27"/>
<polygon fill="#63b8ff" stroke="#63b8ff" points="490.94,-603.29 495.05,-613.06 497.93,-602.86 490.94,-603.29"/>
</a>
</g>
</g>
<!-- Node26 -->
<g id="Node000026" class="node">
<title>Node26</title>
<g id="a_Node000026"><a xlink:href="classGreenFLayered3D.html#af46d152fbc30bdc418ff16e5e7a334c6" target="_top" xlink:title="Point–triangle delta/kappa contributions for RHS assembly.">
<polygon fill="white" stroke="#666666" points="387.88,-150.12 239.12,-150.12 239.12,-116.62 387.88,-116.62 387.88,-150.12"/>
<text xml:space="preserve" text-anchor="start" x="247.12" y="-136.62" font-family="Helvetica,sans-Serif" font-size="10.00">GreenFLayered3D::SameTri</text>
<text xml:space="preserve" text-anchor="middle" x="313.5" y="-123.88" font-family="Helvetica,sans-Serif" font-size="10.00">DeltaKappa</text>
</a>
</g>
</g>
<!-- Node1&#45;&gt;Node26 -->
<g id="edge28_Node000001_Node000026" class="edge">
<title>Node1&#45;&gt;Node26</title>
<g id="a_edge28_Node000001_Node000026"><a xlink:title=" ">
<path fill="none" stroke="#63b8ff" d="M494.98,-603.44C491.61,-520.25 475.51,-225.59 414.5,-159.38 407.33,-151.59 398.15,-146.02 388.27,-142.04"/>
<polygon fill="#63b8ff" stroke="#63b8ff" points="491.48,-603.53 495.36,-613.39 498.48,-603.27 491.48,-603.53"/>
</a>
</g>
</g>
<!-- Node27 -->
<g id="Node000027" class="node">
<title>Node27</title>
<g id="a_Node000027"><a xlink:href="classGreenFHom3D.html#a419cbe00b5a2aed70ac546904a8a8d6f" target="_top" xlink:title="Compute &#160;and &#160;for all RWG pairs on two triangles.">
<polygon fill="white" stroke="#666666" points="387.12,-98.75 239.88,-98.75 239.88,-78 387.12,-78 387.12,-98.75"/>
<text xml:space="preserve" text-anchor="middle" x="313.5" y="-85.25" font-family="Helvetica,sans-Serif" font-size="10.00">GreenFHom3D::SameTriDK</text>
</a>
</g>
</g>
<!-- Node1&#45;&gt;Node27 -->
<g id="edge29_Node000001_Node000027" class="edge">
<title>Node1&#45;&gt;Node27</title>
<g id="a_edge29_Node000001_Node000027"><a xlink:title=" ">
<path fill="none" stroke="#63b8ff" d="M495.54,-603.18C494.2,-513.55 484.51,-179.68 414.5,-107.38 407.12,-99.76 397.71,-94.67 387.62,-91.34"/>
<polygon fill="#63b8ff" stroke="#63b8ff" points="492.03,-603.1 495.66,-613.06 499.03,-603.01 492.03,-603.1"/>
</a>
</g>
</g>
<!-- Node28 -->
<g id="Node000028" class="node">
<title>Node28</title>
<g id="a_Node000028"><a xlink:href="classGreenFLayered3D.html#a6c88af86169f8d148c3e9f4da77a77d0" target="_top" xlink:title="Triangle–triangle D/K blocks assembly for all RWG pairs on two triangles.">
<polygon fill="white" stroke="#666666" points="395,-59.75 232,-59.75 232,-39 395,-39 395,-59.75"/>
<text xml:space="preserve" text-anchor="middle" x="313.5" y="-46.25" font-family="Helvetica,sans-Serif" font-size="10.00">GreenFLayered3D::SameTriDK</text>
</a>
</g>
</g>
<!-- Node1&#45;&gt;Node28 -->
<g id="edge31_Node000001_Node000028" class="edge">
<title>Node1&#45;&gt;Node28</title>
<g id="a_edge31_Node000001_Node000028"><a xlink:title=" ">
<path fill="none" stroke="#63b8ff" d="M495.78,-603.39C495.43,-510.09 489.22,-148.11 414.5,-69.38 409.02,-63.6 402.37,-59.23 395.14,-55.96"/>
<polygon fill="#63b8ff" stroke="#63b8ff" points="492.28,-603.21 495.79,-613.2 499.28,-603.2 492.28,-603.21"/>
</a>
</g>
</g>
<!-- Node29 -->
<g id="Node000029" class="node">
<title>Node29</title>
<g id="a_Node000029"><a xlink:href="classDomainLayered3D.html#a267135f0a2f5bfff12f7ac3b25429176" target="_top" xlink:title="Scattering cross section.">
<polygon fill="white" stroke="#666666" points="400.62,-20.75 226.38,-20.75 226.38,0 400.62,0 400.62,-20.75"/>
<text xml:space="preserve" text-anchor="middle" x="313.5" y="-7.25" font-family="Helvetica,sans-Serif" font-size="10.00">DomainLayered3D::scatteringCS</text>
</a>
</g>
</g>
<!-- Node1&#45;&gt;Node29 -->
<g id="edge32_Node000001_Node000029" class="edge">
<title>Node1&#45;&gt;Node29</title>
<g id="a_edge32_Node000001_Node000029"><a xlink:title=" ">
<path fill="none" stroke="#63b8ff" d="M496.01,-603.43C496.7,-506.2 494.38,-115.34 414.5,-30.38 410.5,-26.12 405.87,-22.63 400.83,-19.77"/>
<polygon fill="#63b8ff" stroke="#63b8ff" points="492.51,-603.37 495.92,-613.4 499.51,-603.44 492.51,-603.37"/>
</a>
</g>
</g>
<!-- Node5&#45;&gt;Node6 -->
<g id="edge5_Node000005_Node000006" class="edge">
<title>Node5&#45;&gt;Node6</title>
<g id="a_edge5_Node000005_Node000006"><a xlink:title=" ">
<path fill="none" stroke="#63b8ff" d="M200.91,-1024.88C192.83,-1024.05 184.76,-1023.21 176.85,-1022.4"/>
<polygon fill="#63b8ff" stroke="#63b8ff" points="200.49,-1028.35 210.8,-1025.9 201.21,-1021.39 200.49,-1028.35"/>
</a>
</g>
</g>
<!-- Node9&#45;&gt;Node10 -->
<g id="edge9_Node000009_Node000010" class="edge">
<title>Node9&#45;&gt;Node10</title>
<g id="a_edge9_Node000009_Node000010"><a xlink:title=" ">
<path fill="none" stroke="#63b8ff" d="M258.66,-866.21C226.76,-860.78 186.18,-853.87 152.73,-848.18"/>
<polygon fill="#63b8ff" stroke="#63b8ff" points="258.05,-869.66 268.49,-867.88 259.22,-862.76 258.05,-869.66"/>
</a>
</g>
</g>
<!-- Node12&#45;&gt;Node10 -->
<g id="edge12_Node000012_Node000010" class="edge">
<title>Node12&#45;&gt;Node10</title>
<g id="a_edge12_Node000012_Node000010"><a xlink:title=" ">
<path fill="none" stroke="#63b8ff" d="M258.78,-768.7C243.63,-771.7 227.25,-775.56 212.5,-780.38 174.4,-792.8 132.55,-813.86 108.73,-826.61"/>
<polygon fill="#63b8ff" stroke="#63b8ff" points="259.42,-772.14 268.6,-766.86 258.13,-765.27 259.42,-772.14"/>
</a>
</g>
</g>
<!-- Node14&#45;&gt;Node15 -->
<g id="edge15_Node000014_Node000015" class="edge">
<title>Node14&#45;&gt;Node15</title>
<g id="a_edge15_Node000014_Node000015"><a xlink:title=" ">
<path fill="none" stroke="#63b8ff" d="M258.66,-677.79C226.76,-675.08 186.18,-671.62 152.73,-668.78"/>
<polygon fill="#63b8ff" stroke="#63b8ff" points="258.21,-681.27 268.47,-678.63 258.81,-674.29 258.21,-681.27"/>
</a>
</g>
</g>
</g>
</svg>
