<?xml version="1.0" encoding="UTF-8" standalone="no"?>
<!DOCTYPE svg PUBLIC "-//W3C//DTD SVG 1.1//EN"
 "http://www.w3.org/Graphics/SVG/1.1/DTD/svg11.dtd">
<!-- Generated by graphviz version 13.1.2 (20250809.0930)
 -->
<!-- Title: GreenFHom3DPer2D::Init Pages: 1 -->
<svg width="357pt" height="119pt"
 viewBox="0.00 0.00 357.00 119.00" xmlns="http://www.w3.org/2000/svg" xmlns:xlink="http://www.w3.org/1999/xlink">
<g id="graph0" class="graph" transform="scale(1 1) rotate(0) translate(4 115.12)">
<title>GreenFHom3DPer2D::Init</title>
<!-- Node1 -->
<g id="Node000001" class="node">
<title>Node1</title>
<g id="a_Node000001"><a xlink:title="Common initialization: set lookup flags, build reciprocal lattice, project k, choose Ewald parameter.">
<polygon fill="#999999" stroke="#666666" points="139,-59.75 0,-59.75 0,-39 139,-39 139,-59.75"/>
<text xml:space="preserve" text-anchor="middle" x="69.5" y="-46.25" font-family="Helvetica,sans-Serif" font-size="10.00">GreenFHom3DPer2D::Init</text>
</a>
</g>
</g>
<!-- Node2 -->
<g id="Node000002" class="node">
<title>Node2</title>
<g id="a_Node000002"><a xlink:href="classGreenFHom3DPer.html#a8b1a5f0f63af1baf32caeebbf9b33170" target="_top" xlink:title="Set the number of periodic evaluation terms to accumulate.">
<polygon fill="white" stroke="#666666" points="342.88,-111.12 181.38,-111.12 181.38,-77.62 342.88,-77.62 342.88,-111.12"/>
<text xml:space="preserve" text-anchor="start" x="189.38" y="-97.62" font-family="Helvetica,sans-Serif" font-size="10.00">GreenFHom3DPer::Evaluation</text>
<text xml:space="preserve" text-anchor="middle" x="262.12" y="-84.88" font-family="Helvetica,sans-Serif" font-size="10.00">Terms</text>
</a>
</g>
</g>
<!-- Node1&#45;&gt;Node2 -->
<g id="edge1_Node000001_Node000002" class="edge">
<title>Node1&#45;&gt;Node2</title>
<g id="a_edge1_Node000001_Node000002"><a xlink:title=" ">
<path fill="none" stroke="#63b8ff" d="M116.16,-60.15C134.46,-64.47 156.15,-69.59 177.1,-74.54"/>
<polygon fill="#63b8ff" stroke="#63b8ff" points="176.29,-77.94 186.82,-76.84 177.9,-71.13 176.29,-77.94"/>
</a>
</g>
</g>
<!-- Node3 -->
<g id="Node000003" class="node">
<title>Node3</title>
<g id="a_Node000003"><a xlink:href="classGreenFHom3DPer2D.html#a07235ce91a1e9b3410f5fad888d0e44c" target="_top" xlink:title="Build reciprocal lattice vectors.">
<polygon fill="white" stroke="#666666" points="349.25,-59.75 175,-59.75 175,-39 349.25,-39 349.25,-59.75"/>
<text xml:space="preserve" text-anchor="middle" x="262.12" y="-46.25" font-family="Helvetica,sans-Serif" font-size="10.00">GreenFHom3DPer2D::Reciprocal</text>
</a>
</g>
</g>
<!-- Node1&#45;&gt;Node3 -->
<g id="edge2_Node000001_Node000003" class="edge">
<title>Node1&#45;&gt;Node3</title>
<g id="a_edge2_Node000001_Node000003"><a xlink:title=" ">
<path fill="none" stroke="#63b8ff" d="M139.32,-49.38C147.15,-49.38 155.24,-49.38 163.35,-49.38"/>
<polygon fill="#63b8ff" stroke="#63b8ff" points="163.29,-52.88 173.29,-49.38 163.29,-45.88 163.29,-52.88"/>
</a>
</g>
</g>
<!-- Node4 -->
<g id="Node000004" class="node">
<title>Node4</title>
<g id="a_Node000004"><a xlink:href="classGreenFHom3DPer2D.html#a9352fdb0ead2b5956f3e951122f73e18" target="_top" xlink:title="Project the Bloch vector onto the lattice plane.">
<polygon fill="white" stroke="#666666" points="342.5,-20.75 181.75,-20.75 181.75,0 342.5,0 342.5,-20.75"/>
<text xml:space="preserve" text-anchor="middle" x="262.12" y="-7.25" font-family="Helvetica,sans-Serif" font-size="10.00">GreenFHom3DPer2D::ToPlane</text>
</a>
</g>
</g>
<!-- Node1&#45;&gt;Node4 -->
<g id="edge3_Node000001_Node000004" class="edge">
<title>Node1&#45;&gt;Node4</title>
<g id="a_edge3_Node000001_Node000004"><a xlink:title=" ">
<path fill="none" stroke="#63b8ff" d="M123.6,-38.51C146.33,-33.86 173.07,-28.39 196.9,-23.51"/>
<polygon fill="#63b8ff" stroke="#63b8ff" points="197.4,-26.98 206.5,-21.55 196,-20.13 197.4,-26.98"/>
</a>
</g>
</g>
</g>
</svg>
