<?xml version="1.0" encoding="UTF-8" standalone="no"?>
<!DOCTYPE svg PUBLIC "-//W3C//DTD SVG 1.1//EN"
 "http://www.w3.org/Graphics/SVG/1.1/DTD/svg11.dtd">
<!-- Generated by graphviz version 13.1.2 (20250809.0930)
 -->
<!-- Title: DomainLayered3D::SecFieldEandH Pages: 1 -->
<!--zoomable 144 -->

<svg id="main" version="1.1" xmlns="http://www.w3.org/2000/svg" xmlns:xlink="http://www.w3.org/1999/xlink" xml:space="preserve" onload="init(evt)">

<style type="text/css"><![CDATA[
.node, .edge {opacity: 0.7;}
.node.selected, .edge.selected {opacity: 1;}
.edge:hover path { stroke: red; }
.edge:hover polygon { stroke: red; fill: red; }
]]></style>

<defs>
  <circle id="rim" cx="0" cy="0" r="7"/>
  <circle id="rim2" cx="0" cy="0" r="3.5"/>
  <g id="zoomPlus">
    <use xlink:href="#rim" fill="#404040"><set attributeName="fill" to="#808080" begin="zoomplus.mouseover" end="zoomplus.mouseout"/></use>
    <path d="M-4,0h8M0,-4v8" fill="none" stroke="white" stroke-width="1.5" pointer-events="none"/>
  </g>
  <g id="zoomMin">
    <use xlink:href="#rim" fill="#404040"><set attributeName="fill" to="#808080" begin="zoomminus.mouseover" end="zoomminus.mouseout"/></use>
    <path d="M-4,0h8" fill="none" stroke="white" stroke-width="1.5" pointer-events="none"/>
  </g>
  <g id="arrowUp" transform="translate(30 24)">
    <use xlink:href="#rim"/>
    <path pointer-events="none" fill="none" stroke="white" stroke-width="1.5" d="M0,-3.0v7 M-2.5,-0.5L0,-3.0L2.5,-0.5"/>
  </g>
  <g id="arrowRight" transform="rotate(90) translate(36 -43)">
    <use xlink:href="#rim"/>
    <path pointer-events="none" fill="none" stroke="white" stroke-width="1.5" d="M0,-3.0v7 M-2.5,-0.5L0,-3.0L2.5,-0.5"/>
  </g>
  <g id="arrowDown" transform="rotate(180) translate(-30 -48)">
    <use xlink:href="#rim"/>
    <path pointer-events="none" fill="none" stroke="white" stroke-width="1.5" d="M0,-3.0v7 M-2.5,-0.5L0,-3.0L2.5,-0.5"/>
  </g>
  <g id="arrowLeft" transform="rotate(270) translate(-36 17)">
    <use xlink:href="#rim"/>
    <path pointer-events="none" fill="none" stroke="white" stroke-width="1.5" d="M0,-3.0v7 M-2.5,-0.5L0,-3.0L2.5,-0.5"/>
  </g>
  <g id="resetDef">
    <use xlink:href="#rim2" fill="#404040"><set attributeName="fill" to="#808080" begin="reset.mouseover" end="reset.mouseout"/></use>
  </g>
</defs>
<script type="application/ecmascript">
var viewWidth = 554;
var viewHeight = 144;
var sectionId = 'dynsection-26';
</script>
<script type="application/ecmascript" xlink:href="svg.min.js"/>
<svg id="graph" class="graph">
<g id="viewport">
<title>DomainLayered3D::SecFieldEandH</title>
<!-- Node1 -->
<g id="Node000001" class="node">
<title>Node1</title>
<g id="a_Node000001"><a xlink:title="Secondary fields &#160;at a point.">
<polygon fill="#999999" stroke="#666666" points="153.25,-84.12 0,-84.12 0,-50.62 153.25,-50.62 153.25,-84.12"/>
<text xml:space="preserve" text-anchor="start" x="8" y="-70.62" font-family="Helvetica,sans-Serif" font-size="10.00">DomainLayered3D::SecField</text>
<text xml:space="preserve" text-anchor="middle" x="76.62" y="-57.88" font-family="Helvetica,sans-Serif" font-size="10.00">EandH</text>
</a>
</g>
</g>
<!-- Node2 -->
<g id="Node000002" class="node">
<title>Node2</title>
<g id="a_Node000002"><a xlink:href="classDomainLayered3D.html#ac59236042a0549670326a58ff289f8e2" target="_top" xlink:title="Append a single vector field sample to debug text files.">
<polygon fill="white" stroke="#666666" points="353,-135.75 189.25,-135.75 189.25,-115 353,-115 353,-135.75"/>
<text xml:space="preserve" text-anchor="middle" x="271.12" y="-122.25" font-family="Helvetica,sans-Serif" font-size="10.00">DomainLayered3D::dumpField</text>
</a>
</g>
</g>
<!-- Node1&#45;&gt;Node2 -->
<g id="edge1_Node000001_Node000002" class="edge">
<title>Node1&#45;&gt;Node2</title>
<g id="a_edge1_Node000001_Node000002"><a xlink:title=" ">
<path fill="none" stroke="#63b8ff" d="M125.14,-84.55C144.85,-91.42 168.03,-99.15 189.25,-105.38 196.7,-107.56 204.59,-109.71 212.39,-111.74"/>
<polygon fill="#63b8ff" stroke="#63b8ff" points="211.31,-115.07 221.86,-114.15 213.03,-108.29 211.31,-115.07"/>
</a>
</g>
</g>
<!-- Node3 -->
<g id="Node000003" class="node">
<title>Node3</title>
<g id="a_Node000003"><a xlink:href="classDomainLayered3D.html#a281513a4cb865b8c688dd920a6789955" target="_top" xlink:title="Relative permittivity at a spatial location.">
<polygon fill="white" stroke="#666666" points="345.12,-96.75 197.12,-96.75 197.12,-76 345.12,-76 345.12,-96.75"/>
<text xml:space="preserve" text-anchor="middle" x="271.12" y="-83.25" font-family="Helvetica,sans-Serif" font-size="10.00">DomainLayered3D::Epsilon</text>
</a>
</g>
</g>
<!-- Node1&#45;&gt;Node3 -->
<g id="edge2_Node000001_Node000003" class="edge">
<title>Node1&#45;&gt;Node3</title>
<g id="a_edge2_Node000001_Node000003"><a xlink:title=" ">
<path fill="none" stroke="#63b8ff" d="M153.71,-74.88C164.12,-75.91 174.87,-76.97 185.43,-78.02"/>
<polygon fill="#63b8ff" stroke="#63b8ff" points="184.99,-81.49 195.29,-78.99 185.68,-74.52 184.99,-81.49"/>
</a>
</g>
</g>
<!-- Node4 -->
<g id="Node000004" class="node">
<title>Node4</title>
<g id="a_Node000004"><a xlink:href="classDomainLayered3D.html#ae8e9daf2ca4d1ed649a1e0fe83880160" target="_top" xlink:title="Returns the layer index corresponding to a spatial position.">
<polygon fill="white" stroke="#666666" points="546,-65.12 389,-65.12 389,-31.62 546,-31.62 546,-65.12"/>
<text xml:space="preserve" text-anchor="start" x="397" y="-51.62" font-family="Helvetica,sans-Serif" font-size="10.00">DomainLayered3D::GetLayer</text>
<text xml:space="preserve" text-anchor="middle" x="467.5" y="-38.88" font-family="Helvetica,sans-Serif" font-size="10.00">Index</text>
</a>
</g>
</g>
<!-- Node1&#45;&gt;Node4 -->
<g id="edge4_Node000001_Node000004" class="edge">
<title>Node1&#45;&gt;Node4</title>
<g id="a_edge4_Node000001_Node000004"><a xlink:title=" ">
<path fill="none" stroke="#63b8ff" d="M153.53,-63.67C217.67,-60.53 309.65,-56.04 377.31,-52.73"/>
<polygon fill="#63b8ff" stroke="#63b8ff" points="377.46,-56.23 387.28,-52.25 377.12,-49.24 377.46,-56.23"/>
</a>
</g>
</g>
<!-- Node5 -->
<g id="Node000005" class="node">
<title>Node5</title>
<g id="a_Node000005"><a xlink:href="classDomainLayered3D.html#a295274a8176b2d6f9fc07c7aea9fd89c" target="_top" xlink:title="Relative permeability at a spatial location.">
<polygon fill="white" stroke="#666666" points="335,-20.75 207.25,-20.75 207.25,0 335,0 335,-20.75"/>
<text xml:space="preserve" text-anchor="middle" x="271.12" y="-7.25" font-family="Helvetica,sans-Serif" font-size="10.00">DomainLayered3D::Mu</text>
</a>
</g>
</g>
<!-- Node1&#45;&gt;Node5 -->
<g id="edge5_Node000001_Node000005" class="edge">
<title>Node1&#45;&gt;Node5</title>
<g id="a_edge5_Node000001_Node000005"><a xlink:title=" ">
<path fill="none" stroke="#63b8ff" d="M135.64,-50.2C163.44,-41.96 196.32,-32.23 222.62,-24.44"/>
<polygon fill="#63b8ff" stroke="#63b8ff" points="223.4,-27.86 231.99,-21.67 221.41,-21.15 223.4,-27.86"/>
</a>
</g>
</g>
<!-- Node3&#45;&gt;Node4 -->
<g id="edge3_Node000003_Node000004" class="edge">
<title>Node3&#45;&gt;Node4</title>
<g id="a_edge3_Node000003_Node000004"><a xlink:title=" ">
<path fill="none" stroke="#63b8ff" d="M327.56,-75.54C343.12,-72.5 360.44,-69.11 377.42,-65.79"/>
<polygon fill="#63b8ff" stroke="#63b8ff" points="377.89,-69.26 387.03,-63.91 376.54,-62.39 377.89,-69.26"/>
</a>
</g>
</g>
<!-- Node5&#45;&gt;Node4 -->
<g id="edge6_Node000005_Node000004" class="edge">
<title>Node5&#45;&gt;Node4</title>
<g id="a_edge6_Node000005_Node000004"><a xlink:title=" ">
<path fill="none" stroke="#63b8ff" d="M327.56,-21.21C343.12,-24.25 360.44,-27.64 377.42,-30.96"/>
<polygon fill="#63b8ff" stroke="#63b8ff" points="376.54,-34.36 387.03,-32.84 377.89,-27.49 376.54,-34.36"/>
</a>
</g>
</g>
</g>
</svg>

<g id="navigator" transform="translate(0 0)" fill="#404254">
  <rect fill="#f2f5e9" fill-opacity="0.5" stroke="#606060" stroke-width=".5" x="0" y="0" width="60" height="60"/>
  <use id="zoomplus" xlink:href="#zoomPlus" x="17" y="9" onmousedown="handleZoom(evt,'in')"/>
  <use id="zoomminus" xlink:href="#zoomMin" x="42" y="9" onmousedown="handleZoom(evt,'out')"/>
  <use id="reset" xlink:href="#resetDef" x="30" y="36" onmousedown="handleReset()"/>
   <use id="arrowup" xlink:href="#arrowUp" x="0" y="0" onmousedown="handlePan(0,-1)"/>
  <use id="arrowright" xlink:href="#arrowRight" x="0" y="0" onmousedown="handlePan(1,0)"/>
  <use id="arrowdown" xlink:href="#arrowDown" x="0" y="0" onmousedown="handlePan(0,1)"/>
  <use id="arrowleft" xlink:href="#arrowLeft" x="0" y="0" onmousedown="handlePan(-1,0)"/>
</g>
<svg viewBox="0 0 15 15" width="100%" height="30px" preserveAspectRatio="xMaxYMin meet">
 <g id="arrow_out" transform="scale(0.3 0.3)">
  <a xlink:href="classDomainLayered3D_a2572d0a6f9105bf4f90c42970f76f8a0_cgraph_org.svg" target="_base">
   <rect id="button" ry="5" rx="5" y="6" x="6" height="38" width="38"
        fill="#f2f5e9" fill-opacity="0.5" stroke="#606060" stroke-width="1.0"/>
   <path id="arrow"
     d="M 11.500037,31.436501 C 11.940474,20.09759 22.043105,11.32322 32.158766,21.979434 L 37.068811,17.246167 C 37.068811,17.246167 37.088388,32 37.088388,32 L 22.160133,31.978069 C 22.160133,31.978069 26.997745,27.140456 26.997745,27.140456 C 18.528582,18.264221 13.291696,25.230495 11.500037,31.436501 z"
     style="fill:#404040;"/>
  </a>
 </g>
</svg>

<style type='text/css'>
<![CDATA[
[data-mouse-over-selected='false'] { opacity: 0.7; }
[data-mouse-over-selected='true']  { opacity: 1.0; }
]]>
</style>
<script type="application/ecmascript"><![CDATA[
document.addEventListener('DOMContentLoaded', (event) => {
  highlightEdges();
  highlightAdjacentNodes();
});
]]></script>
</svg>
