<?xml version="1.0" encoding="UTF-8" standalone="no"?>
<!DOCTYPE svg PUBLIC "-//W3C//DTD SVG 1.1//EN"
 "http://www.w3.org/Graphics/SVG/1.1/DTD/svg11.dtd">
<!-- Generated by graphviz version 13.1.2 (20250809.0930)
 -->
<!-- Title: SingSub::SetTriangleRWG Pages: 1 -->
<svg width="360pt" height="352pt"
 viewBox="0.00 0.00 360.00 352.00" xmlns="http://www.w3.org/2000/svg" xmlns:xlink="http://www.w3.org/1999/xlink">

<svg id="main" version="1.1" xmlns="http://www.w3.org/2000/svg" xmlns:xlink="http://www.w3.org/1999/xlink" xml:space="preserve">

<style type="text/css"><![CDATA[
.node, .edge {opacity: 0.7;}
.node.selected, .edge.selected {opacity: 1;}
.edge:hover path { stroke: red; }
.edge:hover polygon { stroke: red; fill: red; }
]]></style>
<script type="application/ecmascript" xlink:href="svg.min.js"/>
<svg id="graph" class="graph">
<g id="graph0" class="graph" transform="scale(1 1) rotate(0) translate(4 347.75)">
<title>SingSub::SetTriangleRWG</title>
<!-- Node1 -->
<g id="Node000001" class="node">
<title>Node1</title>
<g id="a_Node000001"><a xlink:title="Preferred initialization that fills all cached arrays (ILar/ISar).">
<polygon fill="#999999" stroke="#666666" points="351.5,-182.75 212.5,-182.75 212.5,-162 351.5,-162 351.5,-182.75"/>
<text xml:space="preserve" text-anchor="middle" x="282" y="-169.25" font-family="Helvetica,sans-Serif" font-size="10.00">SingSub::SetTriangleRWG</text>
</a>
</g>
</g>
<!-- Node2 -->
<g id="Node000002" class="node">
<title>Node2</title>
<g id="a_Node000002"><a xlink:href="classGreenFHom3D.html#aca136b03c44ad1da34acf91eb5a5e390" target="_top" xlink:title="term at an observation point.">
<polygon fill="white" stroke="#666666" points="170.5,-343.75 6,-343.75 6,-323 170.5,-323 170.5,-343.75"/>
<text xml:space="preserve" text-anchor="middle" x="88.25" y="-330.25" font-family="Helvetica,sans-Serif" font-size="10.00">GreenFHom3D::IntegrateDelta</text>
</a>
</g>
</g>
<!-- Node1&#45;&gt;Node2 -->
<g id="edge1_Node000001_Node000002" class="edge">
<title>Node1&#45;&gt;Node2</title>
<g id="a_edge1_Node000001_Node000002"><a xlink:title=" ">
<path fill="none" stroke="#63b8ff" d="M271.71,-193.21C256.55,-224.7 223.39,-283.96 176.5,-314.38 171.43,-317.67 165.88,-320.39 160.11,-322.66"/>
<polygon fill="#63b8ff" stroke="#63b8ff" points="274.79,-194.89 275.84,-184.34 268.45,-191.93 274.79,-194.89"/>
</a>
</g>
</g>
<!-- Node3 -->
<g id="Node000003" class="node">
<title>Node3</title>
<g id="a_Node000003"><a xlink:href="classGreenFHom3DPer2D.html#a233c2185952220bd16acae2142f05cc1" target="_top" xlink:title="term at an observation point.">
<polygon fill="white" stroke="#666666" points="172,-305.12 4.5,-305.12 4.5,-271.62 172,-271.62 172,-305.12"/>
<text xml:space="preserve" text-anchor="start" x="12.5" y="-291.62" font-family="Helvetica,sans-Serif" font-size="10.00">GreenFHom3DPer2D::Integrate</text>
<text xml:space="preserve" text-anchor="middle" x="88.25" y="-278.88" font-family="Helvetica,sans-Serif" font-size="10.00">Delta</text>
</a>
</g>
</g>
<!-- Node1&#45;&gt;Node3 -->
<g id="edge2_Node000001_Node000003" class="edge">
<title>Node1&#45;&gt;Node3</title>
<g id="a_edge2_Node000001_Node000003"><a xlink:title=" ">
<path fill="none" stroke="#63b8ff" d="M263.79,-191.36C244.41,-211.65 211.09,-243.47 176.5,-262.38 170.4,-265.71 163.82,-268.67 157.1,-271.28"/>
<polygon fill="#63b8ff" stroke="#63b8ff" points="266.12,-193.98 270.4,-184.29 261.01,-189.2 266.12,-193.98"/>
</a>
</g>
</g>
<!-- Node4 -->
<g id="Node000004" class="node">
<title>Node4</title>
<g id="a_Node000004"><a xlink:href="classGreenFHom3D.html#a9cece8a4056d65455cfcc94c8c61decd" target="_top" xlink:title="term at an observation point.">
<polygon fill="white" stroke="#666666" points="172.75,-253.75 3.75,-253.75 3.75,-233 172.75,-233 172.75,-253.75"/>
<text xml:space="preserve" text-anchor="middle" x="88.25" y="-240.25" font-family="Helvetica,sans-Serif" font-size="10.00">GreenFHom3D::IntegrateKappa</text>
</a>
</g>
</g>
<!-- Node1&#45;&gt;Node4 -->
<g id="edge3_Node000001_Node000004" class="edge">
<title>Node1&#45;&gt;Node4</title>
<g id="a_edge3_Node000001_Node000004"><a xlink:title=" ">
<path fill="none" stroke="#63b8ff" d="M252.79,-188.81C232.22,-200.19 203.36,-214.93 176.5,-224.38 167.58,-227.51 157.96,-230.23 148.47,-232.56"/>
<polygon fill="#63b8ff" stroke="#63b8ff" points="254.41,-191.91 261.41,-183.95 250.98,-185.81 254.41,-191.91"/>
</a>
</g>
</g>
<!-- Node5 -->
<g id="Node000005" class="node">
<title>Node5</title>
<g id="a_Node000005"><a xlink:href="classGreenFHom3DPer2D.html#aadb534ef4509422e6f3e78a0e3999758" target="_top" xlink:title="term at an observation point.">
<polygon fill="white" stroke="#666666" points="172,-215.12 4.5,-215.12 4.5,-181.62 172,-181.62 172,-215.12"/>
<text xml:space="preserve" text-anchor="start" x="12.5" y="-201.62" font-family="Helvetica,sans-Serif" font-size="10.00">GreenFHom3DPer2D::Integrate</text>
<text xml:space="preserve" text-anchor="middle" x="88.25" y="-188.88" font-family="Helvetica,sans-Serif" font-size="10.00">Kappa</text>
</a>
</g>
</g>
<!-- Node1&#45;&gt;Node5 -->
<g id="edge4_Node000001_Node000005" class="edge">
<title>Node1&#45;&gt;Node5</title>
<g id="a_edge4_Node000001_Node000005"><a xlink:title=" ">
<path fill="none" stroke="#63b8ff" d="M200.72,-183.26C191.33,-184.53 181.74,-185.83 172.31,-187.11"/>
<polygon fill="#63b8ff" stroke="#63b8ff" points="201.11,-186.74 210.54,-181.93 200.17,-179.8 201.11,-186.74"/>
</a>
</g>
</g>
<!-- Node6 -->
<g id="Node000006" class="node">
<title>Node6</title>
<g id="a_Node000006"><a xlink:href="classGreenFHom3D.html#a48e8471aabb445e0e50a01c005ff3b98" target="_top" xlink:title="Compute &#160;for all RWGs on a source triangle.">
<polygon fill="white" stroke="#666666" points="167.88,-163.12 8.62,-163.12 8.62,-129.62 167.88,-129.62 167.88,-163.12"/>
<text xml:space="preserve" text-anchor="start" x="16.62" y="-149.62" font-family="Helvetica,sans-Serif" font-size="10.00">GreenFHom3D::SameTriDelta</text>
<text xml:space="preserve" text-anchor="middle" x="88.25" y="-136.88" font-family="Helvetica,sans-Serif" font-size="10.00">Kappa</text>
</a>
</g>
</g>
<!-- Node1&#45;&gt;Node6 -->
<g id="edge5_Node000001_Node000006" class="edge">
<title>Node1&#45;&gt;Node6</title>
<g id="a_edge5_Node000001_Node000006"><a xlink:title=" ">
<path fill="none" stroke="#63b8ff" d="M200.94,-161.52C190.16,-160.06 179.11,-158.56 168.35,-157.1"/>
<polygon fill="#63b8ff" stroke="#63b8ff" points="200.17,-164.95 210.54,-162.82 201.11,-158.01 200.17,-164.95"/>
</a>
</g>
</g>
<!-- Node7 -->
<g id="Node000007" class="node">
<title>Node7</title>
<g id="a_Node000007"><a xlink:href="classGreenFHom3DPer2D.html#a84a8c855a27c895ff24f6771037284a5" target="_top" xlink:title="Compute &#160;for all RWGs on a source triangle.">
<polygon fill="white" stroke="#666666" points="169.38,-111.12 7.12,-111.12 7.12,-77.62 169.38,-77.62 169.38,-111.12"/>
<text xml:space="preserve" text-anchor="start" x="15.12" y="-97.62" font-family="Helvetica,sans-Serif" font-size="10.00">GreenFHom3DPer2D::SameTri</text>
<text xml:space="preserve" text-anchor="middle" x="88.25" y="-84.88" font-family="Helvetica,sans-Serif" font-size="10.00">DeltaKappa</text>
</a>
</g>
</g>
<!-- Node1&#45;&gt;Node7 -->
<g id="edge6_Node000001_Node000007" class="edge">
<title>Node1&#45;&gt;Node7</title>
<g id="a_edge6_Node000001_Node000007"><a xlink:title=" ">
<path fill="none" stroke="#63b8ff" d="M251.8,-156.15C231.18,-145.11 202.67,-130.7 176.5,-120.38 168.56,-117.24 160.09,-114.28 151.66,-111.54"/>
<polygon fill="#63b8ff" stroke="#63b8ff" points="250.02,-159.16 260.48,-160.85 253.36,-153.01 250.02,-159.16"/>
</a>
</g>
</g>
<!-- Node8 -->
<g id="Node000008" class="node">
<title>Node8</title>
<g id="a_Node000008"><a xlink:href="classGreenFHom3D.html#a419cbe00b5a2aed70ac546904a8a8d6f" target="_top" xlink:title="Compute &#160;and &#160;for all RWG pairs on two triangles.">
<polygon fill="white" stroke="#666666" points="161.88,-59.75 14.62,-59.75 14.62,-39 161.88,-39 161.88,-59.75"/>
<text xml:space="preserve" text-anchor="middle" x="88.25" y="-46.25" font-family="Helvetica,sans-Serif" font-size="10.00">GreenFHom3D::SameTriDK</text>
</a>
</g>
</g>
<!-- Node1&#45;&gt;Node8 -->
<g id="edge7_Node000001_Node000008" class="edge">
<title>Node1&#45;&gt;Node8</title>
<g id="a_edge7_Node000001_Node000008"><a xlink:title=" ">
<path fill="none" stroke="#63b8ff" d="M266.68,-152.36C248.5,-128.51 214.85,-89.26 176.5,-68.38 170.51,-65.11 164,-62.41 157.33,-60.17"/>
<polygon fill="#63b8ff" stroke="#63b8ff" points="263.82,-154.38 272.59,-160.33 269.44,-150.21 263.82,-154.38"/>
</a>
</g>
</g>
<!-- Node9 -->
<g id="Node000009" class="node">
<title>Node9</title>
<g id="a_Node000009"><a xlink:href="classGreenFHom3DPer2D.html#a1dc9dd84c93ee10b2fb4b1866103d957" target="_top" xlink:title="Compute &#160;and &#160;for all RWG pairs on two triangles.">
<polygon fill="white" stroke="#666666" points="176.5,-20.75 0,-20.75 0,0 176.5,0 176.5,-20.75"/>
<text xml:space="preserve" text-anchor="middle" x="88.25" y="-7.25" font-family="Helvetica,sans-Serif" font-size="10.00">GreenFHom3DPer2D::SameTriDK</text>
</a>
</g>
</g>
<!-- Node1&#45;&gt;Node9 -->
<g id="edge8_Node000001_Node000009" class="edge">
<title>Node1&#45;&gt;Node9</title>
<g id="a_edge8_Node000001_Node000009"><a xlink:title=" ">
<path fill="none" stroke="#63b8ff" d="M271.67,-151.6C256.45,-120.19 223.22,-61.04 176.5,-30.38 170.78,-26.62 164.45,-23.57 157.89,-21.09"/>
<polygon fill="#63b8ff" stroke="#63b8ff" points="268.4,-152.87 275.81,-160.44 274.74,-149.9 268.4,-152.87"/>
</a>
</g>
</g>
</g>
</svg>
</svg>

<style type='text/css'>
<![CDATA[
[data-mouse-over-selected='false'] { opacity: 0.7; }
[data-mouse-over-selected='true']  { opacity: 1.0; }
]]>
</style>
<script type="application/ecmascript"><![CDATA[
document.addEventListener('DOMContentLoaded', (event) => {
  highlightEdges();
  highlightAdjacentNodes();
});
]]></script>
</svg>
