<?xml version="1.0" encoding="UTF-8" standalone="no"?>
<!DOCTYPE svg PUBLIC "-//W3C//DTD SVG 1.1//EN"
 "http://www.w3.org/Graphics/SVG/1.1/DTD/svg11.dtd">
<!-- Generated by graphviz version 13.1.2 (20250809.0930)
 -->
<!-- Title: LayeredMediaUtils::Secondary Pages: 1 -->
<svg width="621pt" height="153pt"
 viewBox="0.00 0.00 621.00 153.00" xmlns="http://www.w3.org/2000/svg" xmlns:xlink="http://www.w3.org/1999/xlink">
<g id="graph0" class="graph" transform="scale(1 1) rotate(0) translate(4 148.75)">
<title>LayeredMediaUtils::Secondary</title>
<!-- Node1 -->
<g id="Node000001" class="node">
<title>Node1</title>
<g id="a_Node000001"><a xlink:title="Computes secondary wave coefficients for a given observation and source layer.">
<polygon fill="#999999" stroke="#666666" points="113.5,-88.12 0,-88.12 0,-54.62 113.5,-54.62 113.5,-88.12"/>
<text xml:space="preserve" text-anchor="start" x="8" y="-74.62" font-family="Helvetica,sans-Serif" font-size="10.00">LayeredMediaUtils::</text>
<text xml:space="preserve" text-anchor="middle" x="56.75" y="-61.88" font-family="Helvetica,sans-Serif" font-size="10.00">Secondary</text>
</a>
</g>
</g>
<!-- Node2 -->
<g id="Node000002" class="node">
<title>Node2</title>
<g id="a_Node000002"><a xlink:href="LayeredMediaUtils_8cpp.html#a50405603197731a46c864b0f39744ed0" target="_top" xlink:title="Computes the square root of a complex number with proper handling of negative imaginary parts.">
<polygon fill="white" stroke="#666666" points="542.5,-126.75 465,-126.75 465,-106 542.5,-106 542.5,-126.75"/>
<text xml:space="preserve" text-anchor="middle" x="503.75" y="-113.25" font-family="Helvetica,sans-Serif" font-size="10.00">complexSqrt</text>
</a>
</g>
</g>
<!-- Node1&#45;&gt;Node2 -->
<g id="edge1_Node000001_Node000002" class="edge">
<title>Node1&#45;&gt;Node2</title>
<g id="a_edge1_Node000001_Node000002"><a xlink:title=" ">
<path fill="none" stroke="#63b8ff" d="M81.71,-88.41C99.48,-99.96 124.8,-114.19 149.5,-120.38 255.31,-146.86 384.6,-134.62 453.67,-124.67"/>
<polygon fill="#63b8ff" stroke="#63b8ff" points="453.76,-128.2 463.14,-123.26 452.73,-121.27 453.76,-128.2"/>
</a>
</g>
</g>
<!-- Node4 -->
<g id="Node000004" class="node">
<title>Node4</title>
<g id="a_Node000004"><a xlink:href="classLayeredMediaUtils.html#a00598e0f83472fd9128419b9dddc7e09" target="_top" xlink:title="Computes the interface transfer matrix for TE or TM waves.">
<polygon fill="white" stroke="#666666" points="279.5,-111.12 149.5,-111.12 149.5,-77.62 279.5,-77.62 279.5,-111.12"/>
<text xml:space="preserve" text-anchor="start" x="157.5" y="-97.62" font-family="Helvetica,sans-Serif" font-size="10.00">LayeredMediaUtils::</text>
<text xml:space="preserve" text-anchor="middle" x="214.5" y="-84.88" font-family="Helvetica,sans-Serif" font-size="10.00">InterfaceTransferMatrix</text>
</a>
</g>
</g>
<!-- Node1&#45;&gt;Node4 -->
<g id="edge4_Node000001_Node000004" class="edge">
<title>Node1&#45;&gt;Node4</title>
<g id="a_edge4_Node000001_Node000004"><a xlink:title=" ">
<path fill="none" stroke="#63b8ff" d="M113.98,-79.68C121.74,-80.82 129.81,-82.02 137.85,-83.2"/>
<polygon fill="#63b8ff" stroke="#63b8ff" points="137.25,-86.65 147.66,-84.65 138.27,-79.73 137.25,-86.65"/>
</a>
</g>
</g>
<!-- Node6 -->
<g id="Node000006" class="node">
<title>Node6</title>
<g id="a_Node000006"><a xlink:href="DomainLayered3D_8cpp.html#ad123e1ae452426e2c00e3189488dedac" target="_top" xlink:title="Computes the LU factorization of a general M&#45;by&#45;N matrix.">
<polygon fill="white" stroke="#666666" points="239.38,-59.75 189.62,-59.75 189.62,-39 239.38,-39 239.38,-59.75"/>
<text xml:space="preserve" text-anchor="middle" x="214.5" y="-46.25" font-family="Helvetica,sans-Serif" font-size="10.00">zgetrf_</text>
</a>
</g>
</g>
<!-- Node1&#45;&gt;Node6 -->
<g id="edge7_Node000001_Node000006" class="edge">
<title>Node1&#45;&gt;Node6</title>
<g id="a_edge7_Node000001_Node000006"><a xlink:title=" ">
<path fill="none" stroke="#63b8ff" d="M113.98,-63.43C135.38,-60.41 159.15,-57.05 178.09,-54.38"/>
<polygon fill="#63b8ff" stroke="#63b8ff" points="178.57,-57.84 187.99,-52.98 177.59,-50.91 178.57,-57.84"/>
</a>
</g>
</g>
<!-- Node7 -->
<g id="Node000007" class="node">
<title>Node7</title>
<g id="a_Node000007"><a xlink:href="DomainLayered3D_8cpp.html#a0d498505ce3081c778d322cdd12e60a4" target="_top" xlink:title="Solves a system of linear equations using the LU factorization.">
<polygon fill="white" stroke="#666666" points="240.12,-20.75 188.88,-20.75 188.88,0 240.12,0 240.12,-20.75"/>
<text xml:space="preserve" text-anchor="middle" x="214.5" y="-7.25" font-family="Helvetica,sans-Serif" font-size="10.00">zgetrs_</text>
</a>
</g>
</g>
<!-- Node1&#45;&gt;Node7 -->
<g id="edge8_Node000001_Node000007" class="edge">
<title>Node1&#45;&gt;Node7</title>
<g id="a_edge8_Node000001_Node000007"><a xlink:title=" ">
<path fill="none" stroke="#63b8ff" d="M93.51,-54.22C110.31,-46.47 130.73,-37.47 149.5,-30.38 158.56,-26.95 168.48,-23.64 177.76,-20.73"/>
<polygon fill="#63b8ff" stroke="#63b8ff" points="178.67,-24.11 187.21,-17.84 176.62,-17.42 178.67,-24.11"/>
</a>
</g>
</g>
<!-- Node3 -->
<g id="Node000003" class="node">
<title>Node3</title>
<g id="a_Node000003"><a xlink:href="Domain_8cpp.html#aafa3e4fa6318b2f8740f4dbd50c367e5" target="_top" xlink:title="Extract the real part of each component of a complex 3&#45;vector.">
<polygon fill="white" stroke="#666666" points="613.25,-126.75 578.5,-126.75 578.5,-106 613.25,-106 613.25,-126.75"/>
<text xml:space="preserve" text-anchor="middle" x="595.88" y="-113.25" font-family="Helvetica,sans-Serif" font-size="10.00">real</text>
</a>
</g>
</g>
<!-- Node2&#45;&gt;Node3 -->
<g id="edge2_Node000002_Node000003" class="edge">
<title>Node2&#45;&gt;Node3</title>
<g id="a_edge2_Node000002_Node000003"><a xlink:title=" ">
<path fill="none" stroke="#63b8ff" d="M542.97,-116.38C550.94,-116.38 559.19,-116.38 566.71,-116.38"/>
<polygon fill="#63b8ff" stroke="#63b8ff" points="566.62,-119.88 576.62,-116.38 566.62,-112.88 566.62,-119.88"/>
</a>
</g>
</g>
<!-- Node3&#45;&gt;Node3 -->
<g id="edge3_Node000003_Node000003" class="edge">
<title>Node3&#45;&gt;Node3</title>
<g id="a_edge3_Node000003_Node000003"><a xlink:title=" ">
<path fill="none" stroke="#63b8ff" d="M581.03,-127.15C575.09,-135.81 580.04,-144.75 595.88,-144.75 604.29,-144.75 609.63,-142.23 611.89,-138.56"/>
<polygon fill="#63b8ff" stroke="#63b8ff" points="615.38,-138.24 610.87,-128.65 608.42,-138.96 615.38,-138.24"/>
</a>
</g>
</g>
<!-- Node5 -->
<g id="Node000005" class="node">
<title>Node5</title>
<g id="a_Node000005"><a xlink:href="classLayeredMediaUtils.html#a212943a3dd5bdeaaa5c92ed21fad87a9" target="_top" xlink:title="Computes Fresnel reflection and transmission coefficients at an interface.">
<polygon fill="white" stroke="#666666" points="429,-111.12 315.5,-111.12 315.5,-77.62 429,-77.62 429,-111.12"/>
<text xml:space="preserve" text-anchor="start" x="323.5" y="-97.62" font-family="Helvetica,sans-Serif" font-size="10.00">LayeredMediaUtils::</text>
<text xml:space="preserve" text-anchor="middle" x="372.25" y="-84.88" font-family="Helvetica,sans-Serif" font-size="10.00">FresnelCoeff</text>
</a>
</g>
</g>
<!-- Node4&#45;&gt;Node5 -->
<g id="edge5_Node000004_Node000005" class="edge">
<title>Node4&#45;&gt;Node5</title>
<g id="a_edge5_Node000004_Node000005"><a xlink:title=" ">
<path fill="none" stroke="#63b8ff" d="M279.75,-94.38C287.63,-94.38 295.7,-94.38 303.63,-94.38"/>
<polygon fill="#63b8ff" stroke="#63b8ff" points="303.6,-97.88 313.6,-94.38 303.6,-90.88 303.6,-97.88"/>
</a>
</g>
</g>
<!-- Node5&#45;&gt;Node2 -->
<g id="edge6_Node000005_Node000002" class="edge">
<title>Node5&#45;&gt;Node2</title>
<g id="a_edge6_Node000005_Node000002"><a xlink:title=" ">
<path fill="none" stroke="#63b8ff" d="M429.3,-103.9C437.29,-105.25 445.46,-106.64 453.31,-107.98"/>
<polygon fill="#63b8ff" stroke="#63b8ff" points="452.59,-111.4 463.04,-109.63 453.77,-104.5 452.59,-111.4"/>
</a>
</g>
</g>
</g>
</svg>
