<?xml version="1.0" encoding="UTF-8" standalone="no"?>
<!DOCTYPE svg PUBLIC "-//W3C//DTD SVG 1.1//EN"
 "http://www.w3.org/Graphics/SVG/1.1/DTD/svg11.dtd">
<!-- Generated by graphviz version 13.1.2 (20250809.0930)
 -->
<!-- Title: SimJob::LoadGaussian Pages: 1 -->
<svg width="206pt" height="47pt"
 viewBox="0.00 0.00 206.00 47.00" xmlns="http://www.w3.org/2000/svg" xmlns:xlink="http://www.w3.org/1999/xlink">
<g id="graph0" class="graph" transform="scale(1 1) rotate(0) translate(4 42.75)">
<title>SimJob::LoadGaussian</title>
<!-- Node1 -->
<g id="Node000001" class="node">
<title>Node1</title>
<g id="a_Node000001"><a xlink:title="Parse and load Gaussian&#45;beam excitation from .">
<polygon fill="#999999" stroke="#666666" points="124,-20.75 0,-20.75 0,0 124,0 124,-20.75"/>
<text xml:space="preserve" text-anchor="middle" x="62" y="-7.25" font-family="Helvetica,sans-Serif" font-size="10.00">SimJob::LoadGaussian</text>
</a>
</g>
</g>
<!-- Node2 -->
<g id="Node000002" class="node">
<title>Node2</title>
<g id="a_Node000002"><a xlink:href="Domain_8cpp.html#aafa3e4fa6318b2f8740f4dbd50c367e5" target="_top" xlink:title="Extract the real part of each component of a complex 3&#45;vector.">
<polygon fill="white" stroke="#666666" points="194.75,-20.75 160,-20.75 160,0 194.75,0 194.75,-20.75"/>
<text xml:space="preserve" text-anchor="middle" x="177.38" y="-7.25" font-family="Helvetica,sans-Serif" font-size="10.00">real</text>
</a>
</g>
</g>
<!-- Node1&#45;&gt;Node2 -->
<g id="edge1_Node000001_Node000002" class="edge">
<title>Node1&#45;&gt;Node2</title>
<g id="a_edge1_Node000001_Node000002"><a xlink:title=" ">
<path fill="none" stroke="#63b8ff" d="M124.33,-10.38C132.76,-10.38 141.04,-10.38 148.44,-10.38"/>
<polygon fill="#63b8ff" stroke="#63b8ff" points="148.4,-13.88 158.4,-10.38 148.4,-6.88 148.4,-13.88"/>
</a>
</g>
</g>
<!-- Node2&#45;&gt;Node2 -->
<g id="edge2_Node000002_Node000002" class="edge">
<title>Node2&#45;&gt;Node2</title>
<g id="a_edge2_Node000002_Node000002"><a xlink:title=" ">
<path fill="none" stroke="#63b8ff" d="M159.59,-20.26C150.94,-29.19 156.87,-38.75 177.38,-38.75 189.23,-38.75 196.21,-35.55 198.32,-31.13"/>
<polygon fill="#63b8ff" stroke="#63b8ff" points="201.74,-30.34 195.58,-21.72 195.02,-32.3 201.74,-30.34"/>
</a>
</g>
</g>
</g>
</svg>
