<?xml version="1.0" encoding="UTF-8" standalone="no"?>
<!DOCTYPE svg PUBLIC "-//W3C//DTD SVG 1.1//EN"
 "http://www.w3.org/Graphics/SVG/1.1/DTD/svg11.dtd">
<!-- Generated by graphviz version 13.1.2 (20250809.0930)
 -->
<!-- Title: GreenFHom3DPer2D::SmoothedTranslate Pages: 1 -->
<!--zoomable 86 -->

<svg id="main" version="1.1" xmlns="http://www.w3.org/2000/svg" xmlns:xlink="http://www.w3.org/1999/xlink" xml:space="preserve" onload="init(evt)">

<style type="text/css"><![CDATA[
.node, .edge {opacity: 0.7;}
.node.selected, .edge.selected {opacity: 1;}
.edge:hover path { stroke: red; }
.edge:hover polygon { stroke: red; fill: red; }
]]></style>

<defs>
  <circle id="rim" cx="0" cy="0" r="7"/>
  <circle id="rim2" cx="0" cy="0" r="3.5"/>
  <g id="zoomPlus">
    <use xlink:href="#rim" fill="#404040"><set attributeName="fill" to="#808080" begin="zoomplus.mouseover" end="zoomplus.mouseout"/></use>
    <path d="M-4,0h8M0,-4v8" fill="none" stroke="white" stroke-width="1.5" pointer-events="none"/>
  </g>
  <g id="zoomMin">
    <use xlink:href="#rim" fill="#404040"><set attributeName="fill" to="#808080" begin="zoomminus.mouseover" end="zoomminus.mouseout"/></use>
    <path d="M-4,0h8" fill="none" stroke="white" stroke-width="1.5" pointer-events="none"/>
  </g>
  <g id="arrowUp" transform="translate(30 24)">
    <use xlink:href="#rim"/>
    <path pointer-events="none" fill="none" stroke="white" stroke-width="1.5" d="M0,-3.0v7 M-2.5,-0.5L0,-3.0L2.5,-0.5"/>
  </g>
  <g id="arrowRight" transform="rotate(90) translate(36 -43)">
    <use xlink:href="#rim"/>
    <path pointer-events="none" fill="none" stroke="white" stroke-width="1.5" d="M0,-3.0v7 M-2.5,-0.5L0,-3.0L2.5,-0.5"/>
  </g>
  <g id="arrowDown" transform="rotate(180) translate(-30 -48)">
    <use xlink:href="#rim"/>
    <path pointer-events="none" fill="none" stroke="white" stroke-width="1.5" d="M0,-3.0v7 M-2.5,-0.5L0,-3.0L2.5,-0.5"/>
  </g>
  <g id="arrowLeft" transform="rotate(270) translate(-36 17)">
    <use xlink:href="#rim"/>
    <path pointer-events="none" fill="none" stroke="white" stroke-width="1.5" d="M0,-3.0v7 M-2.5,-0.5L0,-3.0L2.5,-0.5"/>
  </g>
  <g id="resetDef">
    <use xlink:href="#rim2" fill="#404040"><set attributeName="fill" to="#808080" begin="reset.mouseover" end="reset.mouseout"/></use>
  </g>
</defs>
<script type="application/ecmascript">
var viewWidth = 679;
var viewHeight = 86;
var sectionId = 'dynsection-58';
</script>
<script type="application/ecmascript" xlink:href="svg.min.js"/>
<svg id="graph" class="graph">
<g id="viewport">
<title>GreenFHom3DPer2D::SmoothedTranslate</title>
<!-- Node1 -->
<g id="Node000001" class="node">
<title>Node1</title>
<g id="a_Node000001"><a xlink:title="Smoothed scalar kernel &#160;for a specific translation.">
<polygon fill="#999999" stroke="#666666" points="172.75,-49.12 0,-49.12 0,-15.62 172.75,-15.62 172.75,-49.12"/>
<text xml:space="preserve" text-anchor="start" x="8" y="-35.62" font-family="Helvetica,sans-Serif" font-size="10.00">GreenFHom3DPer2D::Smoothed</text>
<text xml:space="preserve" text-anchor="middle" x="86.38" y="-22.88" font-family="Helvetica,sans-Serif" font-size="10.00">Translate</text>
</a>
</g>
</g>
<!-- Node2 -->
<g id="Node000002" class="node">
<title>Node2</title>
<g id="a_Node000002"><a xlink:href="classGreenFHom3DPer2D.html#accc01158b08720b45256b17ed3536d8b" target="_top" xlink:title="Spatial part for the smoothed scalar kernel .">
<polygon fill="white" stroke="#666666" points="398,-72.12 211.75,-72.12 211.75,-38.62 398,-38.62 398,-72.12"/>
<text xml:space="preserve" text-anchor="start" x="219.75" y="-58.62" font-family="Helvetica,sans-Serif" font-size="10.00">GreenFHom3DPer2D::EwaldSpatial</text>
<text xml:space="preserve" text-anchor="middle" x="304.88" y="-45.88" font-family="Helvetica,sans-Serif" font-size="10.00">Smoothed</text>
</a>
</g>
</g>
<!-- Node1&#45;&gt;Node2 -->
<g id="edge1_Node000001_Node000002" class="edge">
<title>Node1&#45;&gt;Node2</title>
<g id="a_edge1_Node000001_Node000002"><a xlink:title=" ">
<path fill="none" stroke="#63b8ff" d="M172.94,-41.47C181.83,-42.41 190.94,-43.38 200,-44.34"/>
<polygon fill="#63b8ff" stroke="#63b8ff" points="199.63,-47.82 209.94,-45.4 200.37,-40.86 199.63,-47.82"/>
</a>
</g>
</g>
<!-- Node7 -->
<g id="Node000007" class="node">
<title>Node7</title>
<g id="a_Node000007"><a xlink:href="classGreenFHom3DPer2D.html#aad98b9953626259eda54006eecbcf04e" target="_top" xlink:title="Spectral (reciprocal&#45;lattice) part of Ewald sum for .">
<polygon fill="white" stroke="#666666" points="401,-20.75 208.75,-20.75 208.75,0 401,0 401,-20.75"/>
<text xml:space="preserve" text-anchor="middle" x="304.88" y="-7.25" font-family="Helvetica,sans-Serif" font-size="10.00">GreenFHom3DPer2D::EwaldSpectral</text>
</a>
</g>
</g>
<!-- Node1&#45;&gt;Node7 -->
<g id="edge7_Node000001_Node000007" class="edge">
<title>Node1&#45;&gt;Node7</title>
<g id="a_edge7_Node000001_Node000007"><a xlink:title=" ">
<path fill="none" stroke="#63b8ff" d="M172.94,-23.68C180.89,-22.87 189.02,-22.05 197.13,-21.22"/>
<polygon fill="#63b8ff" stroke="#63b8ff" points="197.47,-24.71 207.07,-20.21 196.77,-17.74 197.47,-24.71"/>
</a>
</g>
</g>
<!-- Node3 -->
<g id="Node000003" class="node">
<title>Node3</title>
<g id="a_Node000003"><a xlink:href="classGreenF.html#abf00726011a4eca4109bc43125218d30" target="_top" xlink:title="Evaluate erfc via the 2D lookup table if available.">
<polygon fill="white" stroke="#666666" points="524.25,-62.75 437,-62.75 437,-42 524.25,-42 524.25,-62.75"/>
<text xml:space="preserve" text-anchor="middle" x="480.62" y="-49.25" font-family="Helvetica,sans-Serif" font-size="10.00">GreenF::EvErfc</text>
</a>
</g>
</g>
<!-- Node2&#45;&gt;Node3 -->
<g id="edge2_Node000002_Node000003" class="edge">
<title>Node2&#45;&gt;Node3</title>
<g id="a_edge2_Node000002_Node000003"><a xlink:title=" ">
<path fill="none" stroke="#63b8ff" d="M398.35,-53.78C407.6,-53.62 416.76,-53.46 425.42,-53.31"/>
<polygon fill="#63b8ff" stroke="#63b8ff" points="425.42,-56.81 435.36,-53.14 425.3,-49.81 425.42,-56.81"/>
</a>
</g>
</g>
<!-- Node4 -->
<g id="Node000004" class="node">
<title>Node4</title>
<g id="a_Node000004"><a xlink:href="mathFunctions_8cpp.html#a7916c6b62310fe9cf38ec2a2890aaad4" target="_top" xlink:title="Complementary error function for complex arguments.">
<polygon fill="white" stroke="#666666" points="600.25,-77.75 560.25,-77.75 560.25,-57 600.25,-57 600.25,-77.75"/>
<text xml:space="preserve" text-anchor="middle" x="580.25" y="-64.25" font-family="Helvetica,sans-Serif" font-size="10.00">cerfc</text>
</a>
</g>
</g>
<!-- Node3&#45;&gt;Node4 -->
<g id="edge3_Node000003_Node000004" class="edge">
<title>Node3&#45;&gt;Node4</title>
<g id="a_edge3_Node000003_Node000004"><a xlink:title=" ">
<path fill="none" stroke="#63b8ff" d="M524.73,-59C532.77,-60.23 541.03,-61.5 548.6,-62.67"/>
<polygon fill="#63b8ff" stroke="#63b8ff" points="547.9,-66.1 558.32,-64.16 548.97,-59.18 547.9,-66.1"/>
</a>
</g>
</g>
<!-- Node6 -->
<g id="Node000006" class="node">
<title>Node6</title>
<g id="a_Node000006"><a xlink:href="Domain_8cpp.html#aafa3e4fa6318b2f8740f4dbd50c367e5" target="_top" xlink:title="Extract the real part of each component of a complex 3&#45;vector.">
<polygon fill="white" stroke="#666666" points="597.62,-20.75 562.88,-20.75 562.88,0 597.62,0 597.62,-20.75"/>
<text xml:space="preserve" text-anchor="middle" x="580.25" y="-7.25" font-family="Helvetica,sans-Serif" font-size="10.00">real</text>
</a>
</g>
</g>
<!-- Node3&#45;&gt;Node6 -->
<g id="edge5_Node000003_Node000006" class="edge">
<title>Node3&#45;&gt;Node6</title>
<g id="a_edge5_Node000003_Node000006"><a xlink:title=" ">
<path fill="none" stroke="#63b8ff" d="M506.77,-41.56C520.72,-35.55 538.08,-28.09 552.32,-21.96"/>
<polygon fill="#63b8ff" stroke="#63b8ff" points="553.29,-25.35 561.09,-18.19 550.52,-18.92 553.29,-25.35"/>
</a>
</g>
</g>
<!-- Node5 -->
<g id="Node000005" class="node">
<title>Node5</title>
<g id="a_Node000005"><a xlink:href="mathFunctions_8cpp.html#abc57cde75234d7e165a9ebcdb45f2c29" target="_top" xlink:title="Error function for complex arguments.">
<polygon fill="white" stroke="#666666" points="671,-77.75 636.25,-77.75 636.25,-57 671,-57 671,-77.75"/>
<text xml:space="preserve" text-anchor="middle" x="653.62" y="-64.25" font-family="Helvetica,sans-Serif" font-size="10.00">cerf</text>
</a>
</g>
</g>
<!-- Node4&#45;&gt;Node5 -->
<g id="edge4_Node000004_Node000005" class="edge">
<title>Node4&#45;&gt;Node5</title>
<g id="a_edge4_Node000004_Node000005"><a xlink:title=" ">
<path fill="none" stroke="#63b8ff" d="M600.38,-67.38C607.81,-67.38 616.48,-67.38 624.59,-67.38"/>
<polygon fill="#63b8ff" stroke="#63b8ff" points="624.36,-70.88 634.36,-67.38 624.36,-63.88 624.36,-70.88"/>
</a>
</g>
</g>
<!-- Node6&#45;&gt;Node6 -->
<g id="edge6_Node000006_Node000006" class="edge">
<title>Node6&#45;&gt;Node6</title>
<g id="a_edge6_Node000006_Node000006"><a xlink:title=" ">
<path fill="none" stroke="#63b8ff" d="M568.43,-21.15C563.7,-29.81 567.64,-38.75 580.25,-38.75 586.95,-38.75 591.2,-36.23 593.01,-32.56"/>
<polygon fill="#63b8ff" stroke="#63b8ff" points="596.5,-32.34 592.2,-22.66 589.53,-32.91 596.5,-32.34"/>
</a>
</g>
</g>
<!-- Node7&#45;&gt;Node3 -->
<g id="edge10_Node000007_Node000003" class="edge">
<title>Node7&#45;&gt;Node3</title>
<g id="a_edge10_Node000007_Node000003"><a xlink:title=" ">
<path fill="none" stroke="#63b8ff" d="M364.41,-21.23C376.55,-23.71 389.22,-26.48 401,-29.38 411.76,-32.02 423.26,-35.18 434.05,-38.31"/>
<polygon fill="#63b8ff" stroke="#63b8ff" points="432.93,-41.63 443.52,-41.1 434.91,-34.92 432.93,-41.63"/>
</a>
</g>
</g>
<!-- Node8 -->
<g id="Node000008" class="node">
<title>Node8</title>
<g id="a_Node000008"><a xlink:href="group__greenFunction.html#gac0a52dce23be7dacdf97c68653b6c137" target="_top" xlink:title="Complex square root with a branch cut along the negative real axis.">
<polygon fill="white" stroke="#666666" points="500.62,-20.75 460.62,-20.75 460.62,0 500.62,0 500.62,-20.75"/>
<text xml:space="preserve" text-anchor="middle" x="480.62" y="-7.25" font-family="Helvetica,sans-Serif" font-size="10.00">csqrt</text>
</a>
</g>
</g>
<!-- Node7&#45;&gt;Node8 -->
<g id="edge8_Node000007_Node000008" class="edge">
<title>Node7&#45;&gt;Node8</title>
<g id="a_edge8_Node000007_Node000008"><a xlink:title=" ">
<path fill="none" stroke="#63b8ff" d="M401.39,-10.38C418.54,-10.38 435.23,-10.38 448.76,-10.38"/>
<polygon fill="#63b8ff" stroke="#63b8ff" points="448.71,-13.88 458.71,-10.38 448.71,-6.88 448.71,-13.88"/>
</a>
</g>
</g>
<!-- Node8&#45;&gt;Node6 -->
<g id="edge9_Node000008_Node000006" class="edge">
<title>Node8&#45;&gt;Node6</title>
<g id="a_edge9_Node000008_Node000006"><a xlink:title=" ">
<path fill="none" stroke="#63b8ff" d="M500.91,-10.38C515.26,-10.38 535.06,-10.38 551.16,-10.38"/>
<polygon fill="#63b8ff" stroke="#63b8ff" points="551.09,-13.88 561.09,-10.38 551.09,-6.88 551.09,-13.88"/>
</a>
</g>
</g>
</g>
</svg>

<g id="navigator" transform="translate(0 0)" fill="#404254">
  <rect fill="#f2f5e9" fill-opacity="0.5" stroke="#606060" stroke-width=".5" x="0" y="0" width="60" height="60"/>
  <use id="zoomplus" xlink:href="#zoomPlus" x="17" y="9" onmousedown="handleZoom(evt,'in')"/>
  <use id="zoomminus" xlink:href="#zoomMin" x="42" y="9" onmousedown="handleZoom(evt,'out')"/>
  <use id="reset" xlink:href="#resetDef" x="30" y="36" onmousedown="handleReset()"/>
   <use id="arrowup" xlink:href="#arrowUp" x="0" y="0" onmousedown="handlePan(0,-1)"/>
  <use id="arrowright" xlink:href="#arrowRight" x="0" y="0" onmousedown="handlePan(1,0)"/>
  <use id="arrowdown" xlink:href="#arrowDown" x="0" y="0" onmousedown="handlePan(0,1)"/>
  <use id="arrowleft" xlink:href="#arrowLeft" x="0" y="0" onmousedown="handlePan(-1,0)"/>
</g>
<svg viewBox="0 0 15 15" width="100%" height="30px" preserveAspectRatio="xMaxYMin meet">
 <g id="arrow_out" transform="scale(0.3 0.3)">
  <a xlink:href="classGreenFHom3DPer2D_ab327d41ca91c33e57a154eae221b4016_cgraph_org.svg" target="_base">
   <rect id="button" ry="5" rx="5" y="6" x="6" height="38" width="38"
        fill="#f2f5e9" fill-opacity="0.5" stroke="#606060" stroke-width="1.0"/>
   <path id="arrow"
     d="M 11.500037,31.436501 C 11.940474,20.09759 22.043105,11.32322 32.158766,21.979434 L 37.068811,17.246167 C 37.068811,17.246167 37.088388,32 37.088388,32 L 22.160133,31.978069 C 22.160133,31.978069 26.997745,27.140456 26.997745,27.140456 C 18.528582,18.264221 13.291696,25.230495 11.500037,31.436501 z"
     style="fill:#404040;"/>
  </a>
 </g>
</svg>

<style type='text/css'>
<![CDATA[
[data-mouse-over-selected='false'] { opacity: 0.7; }
[data-mouse-over-selected='true']  { opacity: 1.0; }
]]>
</style>
<script type="application/ecmascript"><![CDATA[
document.addEventListener('DOMContentLoaded', (event) => {
  highlightEdges();
  highlightAdjacentNodes();
});
]]></script>
</svg>
