<?xml version="1.0" encoding="UTF-8" standalone="no"?>
<!DOCTYPE svg PUBLIC "-//W3C//DTD SVG 1.1//EN"
 "http://www.w3.org/Graphics/SVG/1.1/DTD/svg11.dtd">
<!-- Generated by graphviz version 13.1.2 (20250809.0930)
 -->
<!-- Title: TriQuadPol::adaptPolar Pages: 1 -->
<svg width="486pt" height="236pt"
 viewBox="0.00 0.00 486.00 236.00" xmlns="http://www.w3.org/2000/svg" xmlns:xlink="http://www.w3.org/1999/xlink">

<svg id="main" version="1.1" xmlns="http://www.w3.org/2000/svg" xmlns:xlink="http://www.w3.org/1999/xlink" xml:space="preserve">

<style type="text/css"><![CDATA[
.node, .edge {opacity: 0.7;}
.node.selected, .edge.selected {opacity: 1;}
.edge:hover path { stroke: red; }
.edge:hover polygon { stroke: red; fill: red; }
]]></style>
<script type="application/ecmascript" xlink:href="svg.min.js"/>
<svg id="graph" class="graph">
<g id="graph0" class="graph" transform="scale(1 1) rotate(0) translate(4 231.75)">
<title>TriQuadPol::adaptPolar</title>
<!-- Node1 -->
<g id="Node000001" class="node">
<title>Node1</title>
<g id="a_Node000001"><a xlink:title="Build angular sectors and radial bounds, then assemble nodes/weights.">
<polygon fill="#999999" stroke="#666666" points="126.25,-120.75 0,-120.75 0,-100 126.25,-100 126.25,-120.75"/>
<text xml:space="preserve" text-anchor="middle" x="63.12" y="-107.25" font-family="Helvetica,sans-Serif" font-size="10.00">TriQuadPol::adaptPolar</text>
</a>
</g>
</g>
<!-- Node2 -->
<g id="Node000002" class="node">
<title>Node2</title>
<g id="a_Node000002"><a xlink:href="classTriQuadPol.html#aa0a0a7af46125d5359ae00fca0621de2" target="_top" xlink:title="Build angular bins and radial bounds when the point is inside the triangle.">
<polygon fill="white" stroke="#666666" points="296.38,-227.75 185.88,-227.75 185.88,-207 296.38,-207 296.38,-227.75"/>
<text xml:space="preserve" text-anchor="middle" x="241.12" y="-214.25" font-family="Helvetica,sans-Serif" font-size="10.00">TriQuadPol::adaptIn</text>
</a>
</g>
</g>
<!-- Node1&#45;&gt;Node2 -->
<g id="edge1_Node000001_Node000002" class="edge">
<title>Node1&#45;&gt;Node2</title>
<g id="a_edge1_Node000001_Node000002"><a xlink:title=" ">
<path fill="none" stroke="#63b8ff" d="M72.96,-120.98C88.88,-139.39 124.25,-177.19 162.25,-197.38 166.34,-199.55 170.68,-201.49 175.13,-203.24"/>
<polygon fill="#63b8ff" stroke="#63b8ff" points="173.65,-206.42 184.24,-206.44 175.97,-199.82 173.65,-206.42"/>
</a>
</g>
</g>
<!-- Node3 -->
<g id="Node000003" class="node">
<title>Node3</title>
<g id="a_Node000003"><a xlink:href="classTriQuadPol.html#a3f18d2c370480a52cb1364f9dd95ed06" target="_top" xlink:title="Build angular bins/radial bounds when the point is outside the triangle.">
<polygon fill="white" stroke="#666666" points="300.5,-188.75 181.75,-188.75 181.75,-168 300.5,-168 300.5,-188.75"/>
<text xml:space="preserve" text-anchor="middle" x="241.12" y="-175.25" font-family="Helvetica,sans-Serif" font-size="10.00">TriQuadPol::adaptOut</text>
</a>
</g>
</g>
<!-- Node1&#45;&gt;Node3 -->
<g id="edge2_Node000001_Node000003" class="edge">
<title>Node1&#45;&gt;Node3</title>
<g id="a_edge2_Node000001_Node000003"><a xlink:title=" ">
<path fill="none" stroke="#63b8ff" d="M82.38,-121.05C101.69,-131.96 133.29,-148.76 162.25,-159.38 167.22,-161.19 172.42,-162.89 177.69,-164.46"/>
<polygon fill="#63b8ff" stroke="#63b8ff" points="176.5,-167.77 187.07,-167.1 178.4,-161.03 176.5,-167.77"/>
</a>
</g>
</g>
<!-- Node4 -->
<g id="Node000004" class="node">
<title>Node4</title>
<g id="a_Node000004"><a xlink:href="classTriQuadPol.html#a70845b7e565aa1befcffd099f850215b" target="_top" xlink:title="Expand &#45;bins into ( ) Gauss products and convert to barycentric nodes.">
<polygon fill="white" stroke="#666666" points="314,-150.12 168.25,-150.12 168.25,-116.62 314,-116.62 314,-150.12"/>
<text xml:space="preserve" text-anchor="start" x="176.25" y="-136.62" font-family="Helvetica,sans-Serif" font-size="10.00">TriQuadPol::assembleFrom</text>
<text xml:space="preserve" text-anchor="middle" x="241.12" y="-123.88" font-family="Helvetica,sans-Serif" font-size="10.00">Polar</text>
</a>
</g>
</g>
<!-- Node1&#45;&gt;Node4 -->
<g id="edge3_Node000001_Node000004" class="edge">
<title>Node1&#45;&gt;Node4</title>
<g id="a_edge3_Node000001_Node000004"><a xlink:title=" ">
<path fill="none" stroke="#63b8ff" d="M126.67,-118.55C136.36,-119.82 146.5,-121.14 156.57,-122.46"/>
<polygon fill="#63b8ff" stroke="#63b8ff" points="156,-125.91 166.37,-123.74 156.91,-118.97 156,-125.91"/>
</a>
</g>
</g>
<!-- Node5 -->
<g id="Node000005" class="node">
<title>Node5</title>
<g id="a_Node000005"><a xlink:href="classTriQuadPol.html#a143954247825794d0dc5c0d0e3d98365" target="_top" xlink:title="Straight&#45;line segment between two vertices written in polar form about posInPlane.">
<polygon fill="white" stroke="#666666" points="303.88,-98.75 178.38,-98.75 178.38,-78 303.88,-78 303.88,-98.75"/>
<text xml:space="preserve" text-anchor="middle" x="241.12" y="-85.25" font-family="Helvetica,sans-Serif" font-size="10.00">TriQuadPol::lineInPolar</text>
</a>
</g>
</g>
<!-- Node1&#45;&gt;Node5 -->
<g id="edge4_Node000001_Node000005" class="edge">
<title>Node1&#45;&gt;Node5</title>
<g id="a_edge4_Node000001_Node000005"><a xlink:title=" ">
<path fill="none" stroke="#63b8ff" d="M126.67,-102.56C139.72,-100.93 153.58,-99.19 166.97,-97.52"/>
<polygon fill="#63b8ff" stroke="#63b8ff" points="167.09,-101.03 176.57,-96.32 166.22,-94.09 167.09,-101.03"/>
</a>
</g>
</g>
<!-- Node6 -->
<g id="Node000006" class="node">
<title>Node6</title>
<g id="a_Node000006"><a xlink:href="classTriQuadPol.html#ad2163791262ee9d63337474eb7bbe8d7" target="_top" xlink:title="2D triangle membership test (local plane coordinates).">
<polygon fill="white" stroke="#666666" points="314,-59.75 168.25,-59.75 168.25,-39 314,-39 314,-59.75"/>
<text xml:space="preserve" text-anchor="middle" x="241.12" y="-46.25" font-family="Helvetica,sans-Serif" font-size="10.00">TriQuadPol::pointInTriangle</text>
</a>
</g>
</g>
<!-- Node1&#45;&gt;Node6 -->
<g id="edge5_Node000001_Node000006" class="edge">
<title>Node1&#45;&gt;Node6</title>
<g id="a_edge5_Node000001_Node000006"><a xlink:title=" ">
<path fill="none" stroke="#63b8ff" d="M87.16,-99.64C106.82,-90.74 135.99,-78.18 162.25,-69.38 168.76,-67.19 175.65,-65.11 182.53,-63.17"/>
<polygon fill="#63b8ff" stroke="#63b8ff" points="183.08,-66.64 191.81,-60.64 181.24,-59.89 183.08,-66.64"/>
</a>
</g>
</g>
<!-- Node8 -->
<g id="Node000008" class="node">
<title>Node8</title>
<g id="a_Node000008"><a xlink:href="classTriQuadPol.html#aea4deef1068d5095c5c6afbb741be8d7" target="_top" xlink:title="Build an orthonormal basis on the triangle plane and project (vertices, point).">
<polygon fill="white" stroke="#666666" points="320,-20.75 162.25,-20.75 162.25,0 320,0 320,-20.75"/>
<text xml:space="preserve" text-anchor="middle" x="241.12" y="-7.25" font-family="Helvetica,sans-Serif" font-size="10.00">TriQuadPol::transformInPlane</text>
</a>
</g>
</g>
<!-- Node1&#45;&gt;Node8 -->
<g id="edge7_Node000001_Node000008" class="edge">
<title>Node1&#45;&gt;Node8</title>
<g id="a_edge7_Node000001_Node000008"><a xlink:title=" ">
<path fill="none" stroke="#63b8ff" d="M74.21,-99.56C90.87,-82.32 125.95,-48.71 162.25,-30.38 166.2,-28.38 170.37,-26.57 174.64,-24.93"/>
<polygon fill="#63b8ff" stroke="#63b8ff" points="175.66,-28.28 183.97,-21.71 173.37,-21.67 175.66,-28.28"/>
</a>
</g>
</g>
<!-- Node7 -->
<g id="Node000007" class="node">
<title>Node7</title>
<g id="a_Node000007"><a xlink:href="classTriQuadPol.html#a7573c6d68c4bfe8898024684eda5e12e" target="_top" xlink:title="Return true if a, b, c all have the same sign (non&#45;strict).">
<polygon fill="white" stroke="#666666" points="477.75,-59.75 356,-59.75 356,-39 477.75,-39 477.75,-59.75"/>
<text xml:space="preserve" text-anchor="middle" x="416.88" y="-46.25" font-family="Helvetica,sans-Serif" font-size="10.00">TriQuadPol::sameSign</text>
</a>
</g>
</g>
<!-- Node6&#45;&gt;Node7 -->
<g id="edge6_Node000006_Node000007" class="edge">
<title>Node6&#45;&gt;Node7</title>
<g id="a_edge6_Node000006_Node000007"><a xlink:title=" ">
<path fill="none" stroke="#63b8ff" d="M314.3,-49.38C324.15,-49.38 334.26,-49.38 344.11,-49.38"/>
<polygon fill="#63b8ff" stroke="#63b8ff" points="344,-52.88 354,-49.38 344,-45.88 344,-52.88"/>
</a>
</g>
</g>
<!-- Node9 -->
<g id="Node000009" class="node">
<title>Node9</title>
<g id="a_Node000009"><a xlink:href="classTriQuadPol.html#ad0a8c886e263961bc2935f21ef14dcf7" target="_top" xlink:title="Zero out tiny values for numeric stability.">
<polygon fill="white" stroke="#666666" points="466.88,-20.75 366.88,-20.75 366.88,0 466.88,0 466.88,-20.75"/>
<text xml:space="preserve" text-anchor="middle" x="416.88" y="-7.25" font-family="Helvetica,sans-Serif" font-size="10.00">TriQuadPol::clean</text>
</a>
</g>
</g>
<!-- Node8&#45;&gt;Node9 -->
<g id="edge8_Node000008_Node000009" class="edge">
<title>Node8&#45;&gt;Node9</title>
<g id="a_edge8_Node000008_Node000009"><a xlink:title=" ">
<path fill="none" stroke="#63b8ff" d="M320.36,-10.38C331.99,-10.38 343.83,-10.38 355.04,-10.38"/>
<polygon fill="#63b8ff" stroke="#63b8ff" points="354.93,-13.88 364.93,-10.38 354.93,-6.88 354.93,-13.88"/>
</a>
</g>
</g>
</g>
</svg>
</svg>

<style type='text/css'>
<![CDATA[
[data-mouse-over-selected='false'] { opacity: 0.7; }
[data-mouse-over-selected='true']  { opacity: 1.0; }
]]>
</style>
<script type="application/ecmascript"><![CDATA[
document.addEventListener('DOMContentLoaded', (event) => {
  highlightEdges();
  highlightAdjacentNodes();
});
]]></script>
</svg>
