<?xml version="1.0" encoding="UTF-8" standalone="no"?>
<!DOCTYPE svg PUBLIC "-//W3C//DTD SVG 1.1//EN"
 "http://www.w3.org/Graphics/SVG/1.1/DTD/svg11.dtd">
<!-- Generated by graphviz version 13.1.2 (20250809.0930)
 -->
<!-- Title: SIEForm Pages: 1 -->
<!--zoomable 567 -->

<svg id="main" version="1.1" xmlns="http://www.w3.org/2000/svg" xmlns:xlink="http://www.w3.org/1999/xlink" xml:space="preserve" onload="init(evt)">

<style type="text/css"><![CDATA[
.node, .edge {opacity: 0.7;}
.node.selected, .edge.selected {opacity: 1;}
.edge:hover path { stroke: red; }
.edge:hover polygon { stroke: red; fill: red; }
]]></style>

<defs>
  <circle id="rim" cx="0" cy="0" r="7"/>
  <circle id="rim2" cx="0" cy="0" r="3.5"/>
  <g id="zoomPlus">
    <use xlink:href="#rim" fill="#404040"><set attributeName="fill" to="#808080" begin="zoomplus.mouseover" end="zoomplus.mouseout"/></use>
    <path d="M-4,0h8M0,-4v8" fill="none" stroke="white" stroke-width="1.5" pointer-events="none"/>
  </g>
  <g id="zoomMin">
    <use xlink:href="#rim" fill="#404040"><set attributeName="fill" to="#808080" begin="zoomminus.mouseover" end="zoomminus.mouseout"/></use>
    <path d="M-4,0h8" fill="none" stroke="white" stroke-width="1.5" pointer-events="none"/>
  </g>
  <g id="arrowUp" transform="translate(30 24)">
    <use xlink:href="#rim"/>
    <path pointer-events="none" fill="none" stroke="white" stroke-width="1.5" d="M0,-3.0v7 M-2.5,-0.5L0,-3.0L2.5,-0.5"/>
  </g>
  <g id="arrowRight" transform="rotate(90) translate(36 -43)">
    <use xlink:href="#rim"/>
    <path pointer-events="none" fill="none" stroke="white" stroke-width="1.5" d="M0,-3.0v7 M-2.5,-0.5L0,-3.0L2.5,-0.5"/>
  </g>
  <g id="arrowDown" transform="rotate(180) translate(-30 -48)">
    <use xlink:href="#rim"/>
    <path pointer-events="none" fill="none" stroke="white" stroke-width="1.5" d="M0,-3.0v7 M-2.5,-0.5L0,-3.0L2.5,-0.5"/>
  </g>
  <g id="arrowLeft" transform="rotate(270) translate(-36 17)">
    <use xlink:href="#rim"/>
    <path pointer-events="none" fill="none" stroke="white" stroke-width="1.5" d="M0,-3.0v7 M-2.5,-0.5L0,-3.0L2.5,-0.5"/>
  </g>
  <g id="resetDef">
    <use xlink:href="#rim2" fill="#404040"><set attributeName="fill" to="#808080" begin="reset.mouseover" end="reset.mouseout"/></use>
  </g>
</defs>
<script type="application/ecmascript">
var viewWidth = 160;
var viewHeight = 567;
var sectionId = 'dynsection-0';
</script>
<script type="application/ecmascript" xlink:href="svg.min.js"/>
<svg id="graph" class="graph">
<g id="viewport">
<title>SIEForm</title>
<!-- Node1 -->
<g id="Node000001" class="node">
<title>Node1</title>
<g id="a_Node000001"><a xlink:title="Abstract base class for SIE formulations.">
<polygon fill="#999999" stroke="none" points="151.5,-559.25 0,-559.25 0,-387.75 151.5,-387.75 151.5,-559.25"/>
<text xml:space="preserve" text-anchor="start" x="55.88" y="-545.75" font-family="Helvetica,sans-Serif" font-size="10.00">SIEForm</text>
<text xml:space="preserve" text-anchor="start" x="4" y="-529" font-family="Helvetica,sans-Serif" font-size="10.00">#</text>
<text xml:space="preserve" text-anchor="start" x="16.25" y="-529" font-family="Helvetica,sans-Serif" font-size="10.00">rwgFuns</text>
<text xml:space="preserve" text-anchor="start" x="4" y="-512.25" font-family="Helvetica,sans-Serif" font-size="10.00">#</text>
<text xml:space="preserve" text-anchor="start" x="16.25" y="-512.25" font-family="Helvetica,sans-Serif" font-size="10.00">grnFun</text>
<text xml:space="preserve" text-anchor="start" x="4" y="-495.5" font-family="Helvetica,sans-Serif" font-size="10.00">#</text>
<text xml:space="preserve" text-anchor="start" x="16.25" y="-495.5" font-family="Helvetica,sans-Serif" font-size="10.00">incFields</text>
<text xml:space="preserve" text-anchor="start" x="4" y="-478.75" font-family="Helvetica,sans-Serif" font-size="10.00">#</text>
<text xml:space="preserve" text-anchor="start" x="16.25" y="-478.75" font-family="Helvetica,sans-Serif" font-size="10.00">omega</text>
<text xml:space="preserve" text-anchor="start" x="4" y="-462" font-family="Helvetica,sans-Serif" font-size="10.00">+</text>
<text xml:space="preserve" text-anchor="start" x="16.25" y="-462" font-family="Helvetica,sans-Serif" font-size="10.00">SIEForm()</text>
<text xml:space="preserve" text-anchor="start" x="4" y="-445.25" font-family="Helvetica,sans-Serif" font-size="10.00">+</text>
<text xml:space="preserve" text-anchor="start" x="16.25" y="-445.25" font-family="Helvetica,sans-Serif" font-size="10.00">~SIEForm()</text>
<text xml:space="preserve" text-anchor="start" x="4" y="-428.5" font-family="Helvetica,sans-Serif" font-size="10.00">+</text>
<text xml:space="preserve" text-anchor="start" x="16.25" y="-428.5" font-family="Helvetica,sans-Serif" font-size="10.00">FillLSEMatrix()</text>
<text xml:space="preserve" text-anchor="start" x="4" y="-411.75" font-family="Helvetica,sans-Serif" font-size="10.00">+</text>
<text xml:space="preserve" text-anchor="start" x="16.25" y="-411.75" font-family="Helvetica,sans-Serif" font-size="10.00">FillLSEMatrixAndGradient()</text>
<text xml:space="preserve" text-anchor="start" x="4" y="-395" font-family="Helvetica,sans-Serif" font-size="10.00">+</text>
<text xml:space="preserve" text-anchor="start" x="16.25" y="-395" font-family="Helvetica,sans-Serif" font-size="10.00">FillLSEVector()</text>
<polygon fill="#666666" stroke="#666666" points="0,-540.5 0,-540.5 151.5,-540.5 151.5,-540.5 0,-540.5"/>
<polygon fill="#666666" stroke="#666666" points="0,-473.5 0,-473.5 14.25,-473.5 14.25,-473.5 0,-473.5"/>
<polygon fill="#666666" stroke="#666666" points="14.25,-473.5 14.25,-473.5 151.5,-473.5 151.5,-473.5 14.25,-473.5"/>
<polygon fill="none" stroke="#666666" points="0,-387.75 0,-559.25 151.5,-559.25 151.5,-387.75 0,-387.75"/>
</a>
</g>
</g>
<!-- Node2 -->
<g id="Node000002" class="node">
<title>Node2</title>
<g id="a_Node000002"><a xlink:href="classSIEFormPMCHW.html" target="_top" xlink:title="PMCHWT formulation for SIE in homogeneous and layered media.">
<polygon fill="white" stroke="none" points="151.5,-351.75 0,-351.75 0,0 151.5,0 151.5,-351.75"/>
<text xml:space="preserve" text-anchor="start" x="36.38" y="-338.25" font-family="Helvetica,sans-Serif" font-size="10.00">SIEFormPMCHW</text>
<text xml:space="preserve" text-anchor="start" x="4" y="-321.5" font-family="Helvetica,sans-Serif" font-size="10.00">#</text>
<text xml:space="preserve" text-anchor="start" x="16.25" y="-321.5" font-family="Helvetica,sans-Serif" font-size="10.00">epsilon</text>
<text xml:space="preserve" text-anchor="start" x="4" y="-304.75" font-family="Helvetica,sans-Serif" font-size="10.00">#</text>
<text xml:space="preserve" text-anchor="start" x="16.25" y="-304.75" font-family="Helvetica,sans-Serif" font-size="10.00">mu</text>
<text xml:space="preserve" text-anchor="start" x="4" y="-288" font-family="Helvetica,sans-Serif" font-size="10.00">#</text>
<text xml:space="preserve" text-anchor="start" x="16.25" y="-288" font-family="Helvetica,sans-Serif" font-size="10.00">epsilonLayered</text>
<text xml:space="preserve" text-anchor="start" x="4" y="-271.25" font-family="Helvetica,sans-Serif" font-size="10.00">#</text>
<text xml:space="preserve" text-anchor="start" x="16.25" y="-271.25" font-family="Helvetica,sans-Serif" font-size="10.00">muLayered</text>
<text xml:space="preserve" text-anchor="start" x="4" y="-254.5" font-family="Helvetica,sans-Serif" font-size="10.00">#</text>
<text xml:space="preserve" text-anchor="start" x="16.25" y="-254.5" font-family="Helvetica,sans-Serif" font-size="10.00">zValsInterfaces</text>
<text xml:space="preserve" text-anchor="start" x="4" y="-237.75" font-family="Helvetica,sans-Serif" font-size="10.00">#</text>
<text xml:space="preserve" text-anchor="start" x="16.25" y="-237.75" font-family="Helvetica,sans-Serif" font-size="10.00">midLayerIndex</text>
<text xml:space="preserve" text-anchor="start" x="4" y="-221" font-family="Helvetica,sans-Serif" font-size="10.00">#</text>
<text xml:space="preserve" text-anchor="start" x="16.25" y="-221" font-family="Helvetica,sans-Serif" font-size="10.00">grnFunLayered</text>
<text xml:space="preserve" text-anchor="start" x="4" y="-204.25" font-family="Helvetica,sans-Serif" font-size="10.00">#</text>
<text xml:space="preserve" text-anchor="start" x="16.25" y="-204.25" font-family="Helvetica,sans-Serif" font-size="10.00">threads</text>
<text xml:space="preserve" text-anchor="start" x="4" y="-187.5" font-family="Helvetica,sans-Serif" font-size="10.00">+</text>
<text xml:space="preserve" text-anchor="start" x="16.25" y="-187.5" font-family="Helvetica,sans-Serif" font-size="10.00">SIEFormPMCHW()</text>
<text xml:space="preserve" text-anchor="start" x="4" y="-170.75" font-family="Helvetica,sans-Serif" font-size="10.00">+</text>
<text xml:space="preserve" text-anchor="start" x="16.25" y="-170.75" font-family="Helvetica,sans-Serif" font-size="10.00">SIEFormPMCHW()</text>
<text xml:space="preserve" text-anchor="start" x="4" y="-154" font-family="Helvetica,sans-Serif" font-size="10.00">+</text>
<text xml:space="preserve" text-anchor="start" x="16.25" y="-154" font-family="Helvetica,sans-Serif" font-size="10.00">FillLSEMatrix()</text>
<text xml:space="preserve" text-anchor="start" x="4" y="-137.25" font-family="Helvetica,sans-Serif" font-size="10.00">+</text>
<text xml:space="preserve" text-anchor="start" x="16.25" y="-137.25" font-family="Helvetica,sans-Serif" font-size="10.00">FillLSEMatrixParallel()</text>
<text xml:space="preserve" text-anchor="start" x="4" y="-120.5" font-family="Helvetica,sans-Serif" font-size="10.00">+</text>
<text xml:space="preserve" text-anchor="start" x="16.25" y="-120.5" font-family="Helvetica,sans-Serif" font-size="10.00">FillLSEMatrixAndGradient()</text>
<text xml:space="preserve" text-anchor="start" x="4" y="-103.75" font-family="Helvetica,sans-Serif" font-size="10.00">+</text>
<text xml:space="preserve" text-anchor="start" x="16.25" y="-103.75" font-family="Helvetica,sans-Serif" font-size="10.00">FillLSEMatrixAndGradient</text>
<text xml:space="preserve" text-anchor="start" x="16.25" y="-91" font-family="Helvetica,sans-Serif" font-size="10.00">Parallel()</text>
<text xml:space="preserve" text-anchor="start" x="4" y="-74.25" font-family="Helvetica,sans-Serif" font-size="10.00">+</text>
<text xml:space="preserve" text-anchor="start" x="16.25" y="-74.25" font-family="Helvetica,sans-Serif" font-size="10.00">FillLSEVector()</text>
<text xml:space="preserve" text-anchor="start" x="4" y="-57.5" font-family="Helvetica,sans-Serif" font-size="10.00">+</text>
<text xml:space="preserve" text-anchor="start" x="16.25" y="-57.5" font-family="Helvetica,sans-Serif" font-size="10.00">GetLayerIndex()</text>
<text xml:space="preserve" text-anchor="start" x="4" y="-40.75" font-family="Helvetica,sans-Serif" font-size="10.00">+</text>
<text xml:space="preserve" text-anchor="start" x="16.25" y="-40.75" font-family="Helvetica,sans-Serif" font-size="10.00">AssignThreads()</text>
<text xml:space="preserve" text-anchor="start" x="4" y="-24" font-family="Helvetica,sans-Serif" font-size="10.00">#</text>
<text xml:space="preserve" text-anchor="start" x="16.25" y="-24" font-family="Helvetica,sans-Serif" font-size="10.00">Zr()</text>
<text xml:space="preserve" text-anchor="start" x="4" y="-7.25" font-family="Helvetica,sans-Serif" font-size="10.00">#</text>
<text xml:space="preserve" text-anchor="start" x="16.25" y="-7.25" font-family="Helvetica,sans-Serif" font-size="10.00">ZrLayered()</text>
<polygon fill="#666666" stroke="#666666" points="0,-333 0,-333 151.5,-333 151.5,-333 0,-333"/>
<polygon fill="#666666" stroke="#666666" points="0,-199 0,-199 14.25,-199 14.25,-199 0,-199"/>
<polygon fill="#666666" stroke="#666666" points="14.25,-199 14.25,-199 151.5,-199 151.5,-199 14.25,-199"/>
<polygon fill="none" stroke="#666666" points="0,0 0,-351.75 151.5,-351.75 151.5,0 0,0"/>
</a>
</g>
</g>
<!-- Node1&#45;&gt;Node2 -->
<g id="edge1_Node000001_Node000002" class="edge">
<title>Node1&#45;&gt;Node2</title>
<g id="a_edge1_Node000001_Node000002"><a xlink:title=" ">
<path fill="none" stroke="#63b8ff" d="M75.75,-376.54C75.75,-368.46 75.75,-360.15 75.75,-351.71"/>
<polygon fill="none" stroke="#63b8ff" points="72.25,-376.27 75.75,-386.27 79.25,-376.27 72.25,-376.27"/>
</a>
</g>
</g>
</g>
</svg>

<g id="navigator" transform="translate(0 0)" fill="#404254">
  <rect fill="#f2f5e9" fill-opacity="0.5" stroke="#606060" stroke-width=".5" x="0" y="0" width="60" height="60"/>
  <use id="zoomplus" xlink:href="#zoomPlus" x="17" y="9" onmousedown="handleZoom(evt,'in')"/>
  <use id="zoomminus" xlink:href="#zoomMin" x="42" y="9" onmousedown="handleZoom(evt,'out')"/>
  <use id="reset" xlink:href="#resetDef" x="30" y="36" onmousedown="handleReset()"/>
   <use id="arrowup" xlink:href="#arrowUp" x="0" y="0" onmousedown="handlePan(0,-1)"/>
  <use id="arrowright" xlink:href="#arrowRight" x="0" y="0" onmousedown="handlePan(1,0)"/>
  <use id="arrowdown" xlink:href="#arrowDown" x="0" y="0" onmousedown="handlePan(0,1)"/>
  <use id="arrowleft" xlink:href="#arrowLeft" x="0" y="0" onmousedown="handlePan(-1,0)"/>
</g>
<svg viewBox="0 0 15 15" width="100%" height="30px" preserveAspectRatio="xMaxYMin meet">
 <g id="arrow_out" transform="scale(0.3 0.3)">
  <a xlink:href="classSIEForm__inherit__graph_org.svg" target="_base">
   <rect id="button" ry="5" rx="5" y="6" x="6" height="38" width="38"
        fill="#f2f5e9" fill-opacity="0.5" stroke="#606060" stroke-width="1.0"/>
   <path id="arrow"
     d="M 11.500037,31.436501 C 11.940474,20.09759 22.043105,11.32322 32.158766,21.979434 L 37.068811,17.246167 C 37.068811,17.246167 37.088388,32 37.088388,32 L 22.160133,31.978069 C 22.160133,31.978069 26.997745,27.140456 26.997745,27.140456 C 18.528582,18.264221 13.291696,25.230495 11.500037,31.436501 z"
     style="fill:#404040;"/>
  </a>
 </g>
</svg>

<style type='text/css'>
<![CDATA[
[data-mouse-over-selected='false'] { opacity: 0.7; }
[data-mouse-over-selected='true']  { opacity: 1.0; }
]]>
</style>
<script type="application/ecmascript"><![CDATA[
document.addEventListener('DOMContentLoaded', (event) => {
  highlightEdges();
  highlightAdjacentNodes();
});
]]></script>
</svg>
