<?xml version="1.0" encoding="UTF-8" standalone="no"?>
<!DOCTYPE svg PUBLIC "-//W3C//DTD SVG 1.1//EN"
 "http://www.w3.org/Graphics/SVG/1.1/DTD/svg11.dtd">
<!-- Generated by graphviz version 13.1.2 (20250809.0930)
 -->
<!-- Title: RWGFun::TrianglePtr Pages: 1 -->
<!--zoomable 699 -->

<svg id="main" version="1.1" xmlns="http://www.w3.org/2000/svg" xmlns:xlink="http://www.w3.org/1999/xlink" xml:space="preserve" onload="init(evt)">

<style type="text/css"><![CDATA[
.node, .edge {opacity: 0.7;}
.node.selected, .edge.selected {opacity: 1;}
.edge:hover path { stroke: red; }
.edge:hover polygon { stroke: red; fill: red; }
]]></style>

<defs>
  <circle id="rim" cx="0" cy="0" r="7"/>
  <circle id="rim2" cx="0" cy="0" r="3.5"/>
  <g id="zoomPlus">
    <use xlink:href="#rim" fill="#404040"><set attributeName="fill" to="#808080" begin="zoomplus.mouseover" end="zoomplus.mouseout"/></use>
    <path d="M-4,0h8M0,-4v8" fill="none" stroke="white" stroke-width="1.5" pointer-events="none"/>
  </g>
  <g id="zoomMin">
    <use xlink:href="#rim" fill="#404040"><set attributeName="fill" to="#808080" begin="zoomminus.mouseover" end="zoomminus.mouseout"/></use>
    <path d="M-4,0h8" fill="none" stroke="white" stroke-width="1.5" pointer-events="none"/>
  </g>
  <g id="arrowUp" transform="translate(30 24)">
    <use xlink:href="#rim"/>
    <path pointer-events="none" fill="none" stroke="white" stroke-width="1.5" d="M0,-3.0v7 M-2.5,-0.5L0,-3.0L2.5,-0.5"/>
  </g>
  <g id="arrowRight" transform="rotate(90) translate(36 -43)">
    <use xlink:href="#rim"/>
    <path pointer-events="none" fill="none" stroke="white" stroke-width="1.5" d="M0,-3.0v7 M-2.5,-0.5L0,-3.0L2.5,-0.5"/>
  </g>
  <g id="arrowDown" transform="rotate(180) translate(-30 -48)">
    <use xlink:href="#rim"/>
    <path pointer-events="none" fill="none" stroke="white" stroke-width="1.5" d="M0,-3.0v7 M-2.5,-0.5L0,-3.0L2.5,-0.5"/>
  </g>
  <g id="arrowLeft" transform="rotate(270) translate(-36 17)">
    <use xlink:href="#rim"/>
    <path pointer-events="none" fill="none" stroke="white" stroke-width="1.5" d="M0,-3.0v7 M-2.5,-0.5L0,-3.0L2.5,-0.5"/>
  </g>
  <g id="resetDef">
    <use xlink:href="#rim2" fill="#404040"><set attributeName="fill" to="#808080" begin="reset.mouseover" end="reset.mouseout"/></use>
  </g>
</defs>
<script type="application/ecmascript">
var viewWidth = 493;
var viewHeight = 699;
var sectionId = 'dynsection-6';
</script>
<script type="application/ecmascript" xlink:href="svg.min.js"/>
<svg id="graph" class="graph">
<g id="viewport">
<title>RWGFun::TrianglePtr</title>
<!-- Node1 -->
<g id="Node000001" class="node">
<title>Node1</title>
<g id="a_Node000001"><a xlink:title="Get the pointer to the owner Triangle.">
<polygon fill="#999999" stroke="#666666" points="485.25,-383.12 370.25,-383.12 370.25,-362.38 485.25,-362.38 485.25,-383.12"/>
<text xml:space="preserve" text-anchor="middle" x="427.75" y="-369.62" font-family="Helvetica,sans-Serif" font-size="10.00">RWGFun::TrianglePtr</text>
</a>
</g>
</g>
<!-- Node2 -->
<g id="Node000002" class="node">
<title>Node2</title>
<g id="a_Node000002"><a xlink:href="classGaussQuad.html#afecf86c6fbc2362c30d56fb10454621e" target="_top" xlink:title="I1: integral of scalar kernel times RWG prefactor over the test triangle.">
<polygon fill="white" stroke="#666666" points="293,-691.12 206.5,-691.12 206.5,-670.38 293,-670.38 293,-691.12"/>
<text xml:space="preserve" text-anchor="middle" x="249.75" y="-677.62" font-family="Helvetica,sans-Serif" font-size="10.00">GaussQuad::I1</text>
</a>
</g>
</g>
<!-- Node1&#45;&gt;Node2 -->
<g id="edge1_Node000001_Node000002" class="edge">
<title>Node1&#45;&gt;Node2</title>
<g id="a_edge1_Node000001_Node000002"><a xlink:title=" ">
<path fill="none" stroke="#63b8ff" d="M426.23,-395C423.74,-448.19 409.89,-583.71 334.25,-656.75 323.29,-667.33 307.98,-673.3 293.46,-676.65"/>
<polygon fill="#63b8ff" stroke="#63b8ff" points="429.72,-395.23 426.58,-385.11 422.72,-394.98 429.72,-395.23"/>
</a>
</g>
</g>
<!-- Node3 -->
<g id="Node000003" class="node">
<title>Node3</title>
<g id="a_Node000003"><a xlink:href="classGaussQuad.html#ab01b06d5cd9d9d15b01d0c9078b8dc5e" target="_top" xlink:title="Two‑triangle integral for the D operator (Eq.">
<polygon fill="white" stroke="#666666" points="129.25,-653.12 0,-653.12 0,-632.38 129.25,-632.38 129.25,-653.12"/>
<text xml:space="preserve" text-anchor="middle" x="64.62" y="-639.62" font-family="Helvetica,sans-Serif" font-size="10.00">GaussQuad::IntegrateD</text>
</a>
</g>
</g>
<!-- Node1&#45;&gt;Node3 -->
<g id="edge13_Node000001_Node000003" class="edge">
<title>Node1&#45;&gt;Node3</title>
<g id="a_edge13_Node000001_Node000003"><a xlink:title=" ">
<path fill="none" stroke="#63b8ff" d="M426.11,-394.76C423.35,-444.93 408.89,-567.69 334.25,-623.75 270.04,-671.97 171.08,-664.04 112.9,-653.6"/>
<polygon fill="#63b8ff" stroke="#63b8ff" points="429.6,-395.06 426.54,-384.92 422.61,-394.76 429.6,-395.06"/>
</a>
</g>
</g>
<!-- Node4 -->
<g id="Node000004" class="node">
<title>Node4</title>
<g id="a_Node000004"><a xlink:href="classGaussQuad.html#a446b0b21a34640c901189c53ec4081b3" target="_top" xlink:title="I1 with on‑the‑fly kernel evaluation at (r,rp) using gF.">
<polygon fill="white" stroke="#666666" points="293,-615.12 206.5,-615.12 206.5,-594.38 293,-594.38 293,-615.12"/>
<text xml:space="preserve" text-anchor="middle" x="249.75" y="-601.62" font-family="Helvetica,sans-Serif" font-size="10.00">GaussQuad::I1</text>
</a>
</g>
</g>
<!-- Node1&#45;&gt;Node4 -->
<g id="edge3_Node000001_Node000004" class="edge">
<title>Node1&#45;&gt;Node4</title>
<g id="a_edge3_Node000001_Node000004"><a xlink:title=" ">
<path fill="none" stroke="#63b8ff" d="M423.7,-394.71C416.48,-438.01 394.21,-534.53 334.25,-584.75 322.82,-594.32 307.58,-599.47 293.25,-602.18"/>
<polygon fill="#63b8ff" stroke="#63b8ff" points="427.12,-395.45 425.19,-385.04 420.21,-394.39 427.12,-395.45"/>
</a>
</g>
</g>
<!-- Node5 -->
<g id="Node000005" class="node">
<title>Node5</title>
<g id="a_Node000005"><a xlink:href="classGaussQuad.html#a017bdf3c80a430f4c381310bd7b680ed" target="_top" xlink:title="I2: vector form with the RWG basis evaluated at the centroid.">
<polygon fill="white" stroke="#666666" points="293,-576.12 206.5,-576.12 206.5,-555.38 293,-555.38 293,-576.12"/>
<text xml:space="preserve" text-anchor="middle" x="249.75" y="-562.62" font-family="Helvetica,sans-Serif" font-size="10.00">GaussQuad::I2</text>
</a>
</g>
</g>
<!-- Node1&#45;&gt;Node5 -->
<g id="edge4_Node000001_Node000005" class="edge">
<title>Node1&#45;&gt;Node5</title>
<g id="a_edge4_Node000001_Node000005"><a xlink:title=" ">
<path fill="none" stroke="#63b8ff" d="M421.48,-394.21C411.25,-431.13 385.11,-506.48 334.25,-545.75 322.57,-554.77 307.43,-559.8 293.27,-562.59"/>
<polygon fill="#63b8ff" stroke="#63b8ff" points="424.81,-395.29 423.96,-384.73 418.04,-393.51 424.81,-395.29"/>
</a>
</g>
</g>
<!-- Node6 -->
<g id="Node000006" class="node">
<title>Node6</title>
<g id="a_Node000006"><a xlink:href="classGaussQuad.html#ae59aff5fbf12ed60f4bb65820fdcae91" target="_top" xlink:title="I2 with on‑the‑fly scalar kernel evaluation.">
<polygon fill="white" stroke="#666666" points="293,-537.12 206.5,-537.12 206.5,-516.38 293,-516.38 293,-537.12"/>
<text xml:space="preserve" text-anchor="middle" x="249.75" y="-523.62" font-family="Helvetica,sans-Serif" font-size="10.00">GaussQuad::I2</text>
</a>
</g>
</g>
<!-- Node1&#45;&gt;Node6 -->
<g id="edge6_Node000001_Node000006" class="edge">
<title>Node1&#45;&gt;Node6</title>
<g id="a_edge6_Node000001_Node000006"><a xlink:title=" ">
<path fill="none" stroke="#63b8ff" d="M418.05,-393.96C404.65,-423.9 376.04,-478.11 334.25,-506.75 322.2,-515.01 307.14,-519.88 293.14,-522.74"/>
<polygon fill="#63b8ff" stroke="#63b8ff" points="421.25,-395.39 421.99,-384.82 414.82,-392.62 421.25,-395.39"/>
</a>
</g>
</g>
<!-- Node7 -->
<g id="Node000007" class="node">
<title>Node7</title>
<g id="a_Node000007"><a xlink:href="classGaussQuad.html#aa2f7019adfbd7b78e6f91e5554b526b7" target="_top" xlink:title="I4: vector kernel crossed with RWG at the centroid.">
<polygon fill="white" stroke="#666666" points="293,-498.12 206.5,-498.12 206.5,-477.38 293,-477.38 293,-498.12"/>
<text xml:space="preserve" text-anchor="middle" x="249.75" y="-484.62" font-family="Helvetica,sans-Serif" font-size="10.00">GaussQuad::I4</text>
</a>
</g>
</g>
<!-- Node1&#45;&gt;Node7 -->
<g id="edge7_Node000001_Node000007" class="edge">
<title>Node1&#45;&gt;Node7</title>
<g id="a_edge7_Node000001_Node000007"><a xlink:title=" ">
<path fill="none" stroke="#63b8ff" d="M411.87,-392.33C395.15,-413 366.16,-445.12 334.25,-463.75 321.75,-471.05 306.88,-476.25 293.18,-479.9"/>
<polygon fill="#63b8ff" stroke="#63b8ff" points="414.47,-394.68 417.91,-384.66 408.97,-390.35 414.47,-394.68"/>
</a>
</g>
</g>
<!-- Node8 -->
<g id="Node000008" class="node">
<title>Node8</title>
<g id="a_Node000008"><a xlink:href="classGaussQuad.html#ab896c6e8141cd1e678d4f630fe0fd186" target="_top" xlink:title="Two‑triangle integral for the K operator (Eq.">
<polygon fill="white" stroke="#666666" points="128.88,-479.12 0.38,-479.12 0.38,-458.38 128.88,-458.38 128.88,-479.12"/>
<text xml:space="preserve" text-anchor="middle" x="64.62" y="-465.62" font-family="Helvetica,sans-Serif" font-size="10.00">GaussQuad::IntegrateK</text>
</a>
</g>
</g>
<!-- Node1&#45;&gt;Node8 -->
<g id="edge17_Node000001_Node000008" class="edge">
<title>Node1&#45;&gt;Node8</title>
<g id="a_edge17_Node000001_Node000008"><a xlink:title=" ">
<path fill="none" stroke="#63b8ff" d="M404.58,-390.42C386.66,-403.73 360.24,-421.26 334.25,-430.75 267,-455.32 184.91,-464.11 129.31,-467.2"/>
<polygon fill="#63b8ff" stroke="#63b8ff" points="406.57,-393.31 412.39,-384.46 402.32,-387.74 406.57,-393.31"/>
</a>
</g>
</g>
<!-- Node9 -->
<g id="Node000009" class="node">
<title>Node9</title>
<g id="a_Node000009"><a xlink:href="classGaussQuad.html#a0fb8ea7e979899e9f7e872faed11d6bd" target="_top" xlink:title="I4 with on‑the‑fly vector kernel evaluation.">
<polygon fill="white" stroke="#666666" points="293,-422.12 206.5,-422.12 206.5,-401.38 293,-401.38 293,-422.12"/>
<text xml:space="preserve" text-anchor="middle" x="249.75" y="-408.62" font-family="Helvetica,sans-Serif" font-size="10.00">GaussQuad::I4</text>
</a>
</g>
</g>
<!-- Node1&#45;&gt;Node9 -->
<g id="edge9_Node000001_Node000009" class="edge">
<title>Node1&#45;&gt;Node9</title>
<g id="a_edge9_Node000001_Node000009"><a xlink:title=" ">
<path fill="none" stroke="#63b8ff" d="M366.54,-386.09C342.43,-391.44 315.22,-397.46 293.24,-402.34"/>
<polygon fill="#63b8ff" stroke="#63b8ff" points="367.24,-389.52 376.25,-383.94 365.73,-382.69 367.24,-389.52"/>
</a>
</g>
</g>
<!-- Node10 -->
<g id="Node000010" class="node">
<title>Node10</title>
<g id="a_Node000010"><a xlink:href="classGaussQuad.html#a7b4dd3082686af22451b5f405073d33e" target="_top" xlink:title="I5 variant: vector kernel weighted by RWG prefactor (centroid).">
<polygon fill="white" stroke="#666666" points="293,-383.12 206.5,-383.12 206.5,-362.38 293,-362.38 293,-383.12"/>
<text xml:space="preserve" text-anchor="middle" x="249.75" y="-369.62" font-family="Helvetica,sans-Serif" font-size="10.00">GaussQuad::I5</text>
</a>
</g>
</g>
<!-- Node1&#45;&gt;Node10 -->
<g id="edge10_Node000001_Node000010" class="edge">
<title>Node1&#45;&gt;Node10</title>
<g id="a_edge10_Node000001_Node000010"><a xlink:title=" ">
<path fill="none" stroke="#63b8ff" d="M358.77,-372.75C336.75,-372.75 312.97,-372.75 293.34,-372.75"/>
<polygon fill="#63b8ff" stroke="#63b8ff" points="358.58,-376.25 368.58,-372.75 358.58,-369.25 358.58,-376.25"/>
</a>
</g>
</g>
<!-- Node11 -->
<g id="Node000011" class="node">
<title>Node11</title>
<g id="a_Node000011"><a xlink:href="classGaussQuad.html#ae1cb48d95d2fad8c46a0a4d44b1216d9" target="_top" xlink:title="Integrate on triangle E_inc using centroid evaluation.">
<polygon fill="white" stroke="#666666" points="310.62,-344.12 188.88,-344.12 188.88,-323.38 310.62,-323.38 310.62,-344.12"/>
<text xml:space="preserve" text-anchor="middle" x="249.75" y="-330.62" font-family="Helvetica,sans-Serif" font-size="10.00">GaussQuad::Integrate</text>
</a>
</g>
</g>
<!-- Node1&#45;&gt;Node11 -->
<g id="edge11_Node000001_Node000011" class="edge">
<title>Node1&#45;&gt;Node11</title>
<g id="a_edge11_Node000001_Node000011"><a xlink:title=" ">
<path fill="none" stroke="#63b8ff" d="M366.6,-359.42C344.83,-354.6 320.52,-349.21 299.82,-344.62"/>
<polygon fill="#63b8ff" stroke="#63b8ff" points="365.73,-362.81 376.25,-361.56 367.24,-355.98 365.73,-362.81"/>
</a>
</g>
</g>
<!-- Node12 -->
<g id="Node000012" class="node">
<title>Node12</title>
<g id="a_Node000012"><a xlink:href="classGaussQuad.html#ac053945db0c37c26ac30f3e468550b6e" target="_top" xlink:title="Integrate on triangle &#160;with Dunavant quadrature.">
<polygon fill="white" stroke="#666666" points="310.62,-305.12 188.88,-305.12 188.88,-284.38 310.62,-284.38 310.62,-305.12"/>
<text xml:space="preserve" text-anchor="middle" x="249.75" y="-291.62" font-family="Helvetica,sans-Serif" font-size="10.00">GaussQuad::Integrate</text>
</a>
</g>
</g>
<!-- Node1&#45;&gt;Node12 -->
<g id="edge12_Node000001_Node000012" class="edge">
<title>Node1&#45;&gt;Node12</title>
<g id="a_edge12_Node000001_Node000012"><a xlink:title=" ">
<path fill="none" stroke="#63b8ff" d="M403.68,-355.3C385.64,-342.42 359.47,-325.34 334.25,-314.75 325.59,-311.11 316.14,-308.06 306.8,-305.51"/>
<polygon fill="#63b8ff" stroke="#63b8ff" points="401.45,-358.01 411.59,-361.07 405.57,-352.35 401.45,-358.01"/>
</a>
</g>
</g>
<!-- Node13 -->
<g id="Node000013" class="node">
<title>Node13</title>
<g id="a_Node000013"><a xlink:href="classGreenFHom3D.html#aca136b03c44ad1da34acf91eb5a5e390" target="_top" xlink:title="term at an observation point.">
<polygon fill="white" stroke="#666666" points="332,-266.12 167.5,-266.12 167.5,-245.38 332,-245.38 332,-266.12"/>
<text xml:space="preserve" text-anchor="middle" x="249.75" y="-252.62" font-family="Helvetica,sans-Serif" font-size="10.00">GreenFHom3D::IntegrateDelta</text>
</a>
</g>
</g>
<!-- Node1&#45;&gt;Node13 -->
<g id="edge14_Node000001_Node000013" class="edge">
<title>Node1&#45;&gt;Node13</title>
<g id="a_edge14_Node000001_Node000013"><a xlink:title=" ">
<path fill="none" stroke="#63b8ff" d="M413.3,-352.9C397.16,-330.66 368.01,-295.17 334.25,-275.75 327.79,-272.03 320.67,-269 313.39,-266.54"/>
<polygon fill="#63b8ff" stroke="#63b8ff" points="410.28,-354.69 418.9,-360.85 416,-350.66 410.28,-354.69"/>
</a>
</g>
</g>
<!-- Node14 -->
<g id="Node000014" class="node">
<title>Node14</title>
<g id="a_Node000014"><a xlink:href="classGreenFHom3DPer2D.html#a233c2185952220bd16acae2142f05cc1" target="_top" xlink:title="term at an observation point.">
<polygon fill="white" stroke="#666666" points="333.5,-227.5 166,-227.5 166,-194 333.5,-194 333.5,-227.5"/>
<text xml:space="preserve" text-anchor="start" x="174" y="-214" font-family="Helvetica,sans-Serif" font-size="10.00">GreenFHom3DPer2D::Integrate</text>
<text xml:space="preserve" text-anchor="middle" x="249.75" y="-201.25" font-family="Helvetica,sans-Serif" font-size="10.00">Delta</text>
</a>
</g>
</g>
<!-- Node1&#45;&gt;Node14 -->
<g id="edge15_Node000001_Node000014" class="edge">
<title>Node1&#45;&gt;Node14</title>
<g id="a_edge15_Node000001_Node000014"><a xlink:title=" ">
<path fill="none" stroke="#63b8ff" d="M417.87,-351.6C404.25,-321.67 375.37,-267.22 334.25,-236.75 329.74,-233.41 324.78,-230.48 319.61,-227.93"/>
<polygon fill="#63b8ff" stroke="#63b8ff" points="414.65,-352.98 421.88,-360.73 421.06,-350.16 414.65,-352.98"/>
</a>
</g>
</g>
<!-- Node15 -->
<g id="Node000015" class="node">
<title>Node15</title>
<g id="a_Node000015"><a xlink:href="classGreenFLayered3D.html#afbdbfdc8fc40fc885f6377d5be242d36" target="_top" xlink:title="term at an observation point.">
<polygon fill="white" stroke="#666666" points="326.75,-175.5 172.75,-175.5 172.75,-142 326.75,-142 326.75,-175.5"/>
<text xml:space="preserve" text-anchor="start" x="180.75" y="-162" font-family="Helvetica,sans-Serif" font-size="10.00">GreenFLayered3D::Integrate</text>
<text xml:space="preserve" text-anchor="middle" x="249.75" y="-149.25" font-family="Helvetica,sans-Serif" font-size="10.00">Delta</text>
</a>
</g>
</g>
<!-- Node1&#45;&gt;Node15 -->
<g id="edge16_Node000001_Node000015" class="edge">
<title>Node1&#45;&gt;Node15</title>
<g id="a_edge16_Node000001_Node000015"><a xlink:title=" ">
<path fill="none" stroke="#63b8ff" d="M422.01,-350.91C412.39,-311.82 386.88,-229.77 334.25,-184.75 330.33,-181.39 325.97,-178.47 321.37,-175.92"/>
<polygon fill="#63b8ff" stroke="#63b8ff" points="418.57,-351.57 424.24,-360.52 425.39,-349.98 418.57,-351.57"/>
</a>
</g>
</g>
<!-- Node16 -->
<g id="Node000016" class="node">
<title>Node16</title>
<g id="a_Node000016"><a xlink:href="classGreenFHom3D.html#a9cece8a4056d65455cfcc94c8c61decd" target="_top" xlink:title="term at an observation point.">
<polygon fill="white" stroke="#666666" points="334.25,-124.12 165.25,-124.12 165.25,-103.38 334.25,-103.38 334.25,-124.12"/>
<text xml:space="preserve" text-anchor="middle" x="249.75" y="-110.62" font-family="Helvetica,sans-Serif" font-size="10.00">GreenFHom3D::IntegrateKappa</text>
</a>
</g>
</g>
<!-- Node1&#45;&gt;Node16 -->
<g id="edge18_Node000001_Node000016" class="edge">
<title>Node1&#45;&gt;Node16</title>
<g id="a_edge18_Node000001_Node000016"><a xlink:title=" ">
<path fill="none" stroke="#63b8ff" d="M424.98,-350.51C419.94,-302.89 401.22,-190.7 334.25,-132.75 330.54,-129.54 326.4,-126.84 322,-124.58"/>
<polygon fill="#63b8ff" stroke="#63b8ff" points="421.48,-350.75 425.9,-360.38 428.45,-350.1 421.48,-350.75"/>
</a>
</g>
</g>
<!-- Node17 -->
<g id="Node000017" class="node">
<title>Node17</title>
<g id="a_Node000017"><a xlink:href="classGreenFHom3DPer2D.html#aadb534ef4509422e6f3e78a0e3999758" target="_top" xlink:title="term at an observation point.">
<polygon fill="white" stroke="#666666" points="333.5,-85.5 166,-85.5 166,-52 333.5,-52 333.5,-85.5"/>
<text xml:space="preserve" text-anchor="start" x="174" y="-72" font-family="Helvetica,sans-Serif" font-size="10.00">GreenFHom3DPer2D::Integrate</text>
<text xml:space="preserve" text-anchor="middle" x="249.75" y="-59.25" font-family="Helvetica,sans-Serif" font-size="10.00">Kappa</text>
</a>
</g>
</g>
<!-- Node1&#45;&gt;Node17 -->
<g id="edge19_Node000001_Node000017" class="edge">
<title>Node1&#45;&gt;Node17</title>
<g id="a_edge19_Node000001_Node000017"><a xlink:title=" ">
<path fill="none" stroke="#63b8ff" d="M425.95,-350.71C422.84,-298.61 407.72,-166.81 334.25,-94.75 330.78,-91.35 326.88,-88.39 322.7,-85.82"/>
<polygon fill="#63b8ff" stroke="#63b8ff" points="422.43,-350.57 426.42,-360.38 429.43,-350.22 422.43,-350.57"/>
</a>
</g>
</g>
<!-- Node18 -->
<g id="Node000018" class="node">
<title>Node18</title>
<g id="a_Node000018"><a xlink:href="classGreenFLayered3D.html#a439eddb43f46fb52f6c84898ea12aa40" target="_top" xlink:title="term at an observation point.">
<polygon fill="white" stroke="#666666" points="326.75,-33.5 172.75,-33.5 172.75,0 326.75,0 326.75,-33.5"/>
<text xml:space="preserve" text-anchor="start" x="180.75" y="-20" font-family="Helvetica,sans-Serif" font-size="10.00">GreenFLayered3D::Integrate</text>
<text xml:space="preserve" text-anchor="middle" x="249.75" y="-7.25" font-family="Helvetica,sans-Serif" font-size="10.00">Kappa</text>
</a>
</g>
</g>
<!-- Node1&#45;&gt;Node18 -->
<g id="edge20_Node000001_Node000018" class="edge">
<title>Node1&#45;&gt;Node18</title>
<g id="a_edge20_Node000001_Node000018"><a xlink:title=" ">
<path fill="none" stroke="#63b8ff" d="M427.32,-350.69C427.58,-292.1 420.03,-131.01 334.25,-42.75 330.97,-39.37 327.26,-36.44 323.27,-33.88"/>
<polygon fill="#63b8ff" stroke="#63b8ff" points="423.82,-350.59 427.17,-360.64 430.82,-350.69 423.82,-350.59"/>
</a>
</g>
</g>
<!-- Node2&#45;&gt;Node3 -->
<g id="edge2_Node000002_Node000003" class="edge">
<title>Node2&#45;&gt;Node3</title>
<g id="a_edge2_Node000002_Node000003"><a xlink:title=" ">
<path fill="none" stroke="#63b8ff" d="M195.09,-669.62C170.79,-664.57 142.16,-658.63 118.01,-653.62"/>
<polygon fill="#63b8ff" stroke="#63b8ff" points="194.29,-673.02 204.8,-671.63 195.71,-666.17 194.29,-673.02"/>
</a>
</g>
</g>
<!-- Node5&#45;&gt;Node3 -->
<g id="edge5_Node000005_Node000003" class="edge">
<title>Node5&#45;&gt;Node3</title>
<g id="a_edge5_Node000005_Node000003"><a xlink:title=" ">
<path fill="none" stroke="#63b8ff" d="M195.5,-576.1C185.29,-578.76 174.82,-581.96 165.25,-585.75 133.76,-598.23 100.16,-619.27 81.14,-632"/>
<polygon fill="#63b8ff" stroke="#63b8ff" points="196.05,-579.57 204.94,-573.8 194.39,-572.77 196.05,-579.57"/>
</a>
</g>
</g>
<!-- Node7&#45;&gt;Node8 -->
<g id="edge8_Node000007_Node000008" class="edge">
<title>Node7&#45;&gt;Node8</title>
<g id="a_edge8_Node000007_Node000008"><a xlink:title=" ">
<path fill="none" stroke="#63b8ff" d="M194.85,-482.16C174.22,-480.02 150.5,-477.56 129.06,-475.33"/>
<polygon fill="#63b8ff" stroke="#63b8ff" points="194.46,-485.64 204.77,-483.19 195.19,-478.67 194.46,-485.64"/>
</a>
</g>
</g>
</g>
</svg>

<g id="navigator" transform="translate(0 0)" fill="#404254">
  <rect fill="#f2f5e9" fill-opacity="0.5" stroke="#606060" stroke-width=".5" x="0" y="0" width="60" height="60"/>
  <use id="zoomplus" xlink:href="#zoomPlus" x="17" y="9" onmousedown="handleZoom(evt,'in')"/>
  <use id="zoomminus" xlink:href="#zoomMin" x="42" y="9" onmousedown="handleZoom(evt,'out')"/>
  <use id="reset" xlink:href="#resetDef" x="30" y="36" onmousedown="handleReset()"/>
   <use id="arrowup" xlink:href="#arrowUp" x="0" y="0" onmousedown="handlePan(0,-1)"/>
  <use id="arrowright" xlink:href="#arrowRight" x="0" y="0" onmousedown="handlePan(1,0)"/>
  <use id="arrowdown" xlink:href="#arrowDown" x="0" y="0" onmousedown="handlePan(0,1)"/>
  <use id="arrowleft" xlink:href="#arrowLeft" x="0" y="0" onmousedown="handlePan(-1,0)"/>
</g>
<svg viewBox="0 0 15 15" width="100%" height="30px" preserveAspectRatio="xMaxYMin meet">
 <g id="arrow_out" transform="scale(0.3 0.3)">
  <a xlink:href="classRWGFun_a6d9c854fc60bc02cb51ffb60cf388ccc_icgraph_org.svg" target="_base">
   <rect id="button" ry="5" rx="5" y="6" x="6" height="38" width="38"
        fill="#f2f5e9" fill-opacity="0.5" stroke="#606060" stroke-width="1.0"/>
   <path id="arrow"
     d="M 11.500037,31.436501 C 11.940474,20.09759 22.043105,11.32322 32.158766,21.979434 L 37.068811,17.246167 C 37.068811,17.246167 37.088388,32 37.088388,32 L 22.160133,31.978069 C 22.160133,31.978069 26.997745,27.140456 26.997745,27.140456 C 18.528582,18.264221 13.291696,25.230495 11.500037,31.436501 z"
     style="fill:#404040;"/>
  </a>
 </g>
</svg>

<style type='text/css'>
<![CDATA[
[data-mouse-over-selected='false'] { opacity: 0.7; }
[data-mouse-over-selected='true']  { opacity: 1.0; }
]]>
</style>
<script type="application/ecmascript"><![CDATA[
document.addEventListener('DOMContentLoaded', (event) => {
  highlightEdges();
  highlightAdjacentNodes();
});
]]></script>
</svg>
