<?xml version="1.0" encoding="UTF-8" standalone="no"?>
<!DOCTYPE svg PUBLIC "-//W3C//DTD SVG 1.1//EN"
 "http://www.w3.org/Graphics/SVG/1.1/DTD/svg11.dtd">
<!-- Generated by graphviz version 13.1.2 (20250809.0930)
 -->
<!-- Title: SommerfeldIntegrator::InterIntegrand Pages: 1 -->
<svg width="452pt" height="64pt"
 viewBox="0.00 0.00 452.00 64.00" xmlns="http://www.w3.org/2000/svg" xmlns:xlink="http://www.w3.org/1999/xlink">
<g id="graph0" class="graph" transform="scale(1 1) rotate(0) translate(4 59.5)">
<title>SommerfeldIntegrator::InterIntegrand</title>
<!-- Node1 -->
<g id="Node000001" class="node">
<title>Node1</title>
<g id="a_Node000001"><a xlink:title="Computes the inter&#45;layer Green&#39;s function integrand.">
<polygon fill="#999999" stroke="#666666" points="444,-55.5 320,-55.5 320,-22 444,-22 444,-55.5"/>
<text xml:space="preserve" text-anchor="start" x="328" y="-42" font-family="Helvetica,sans-Serif" font-size="10.00">SommerfeldIntegrator</text>
<text xml:space="preserve" text-anchor="middle" x="382" y="-29.25" font-family="Helvetica,sans-Serif" font-size="10.00">::InterIntegrand</text>
</a>
</g>
</g>
<!-- Node2 -->
<g id="Node000002" class="node">
<title>Node2</title>
<g id="a_Node000002"><a xlink:href="classSommerfeldIntegrator.html#a2537d36d62ecdecc297e19c8127f827a" target="_top" xlink:title="Computes inter&#45;layer coefficients for Green&#39;s function interpolation.">
<polygon fill="white" stroke="#666666" points="124,-55.5 0,-55.5 0,-22 124,-22 124,-55.5"/>
<text xml:space="preserve" text-anchor="start" x="8" y="-42" font-family="Helvetica,sans-Serif" font-size="10.00">SommerfeldIntegrator</text>
<text xml:space="preserve" text-anchor="middle" x="62" y="-29.25" font-family="Helvetica,sans-Serif" font-size="10.00">::Evaluate</text>
</a>
</g>
</g>
<!-- Node1&#45;&gt;Node2 -->
<g id="edge1_Node000001_Node000002" class="edge">
<title>Node1&#45;&gt;Node2</title>
<g id="a_edge1_Node000001_Node000002"><a xlink:title=" ">
<path fill="none" stroke="#63b8ff" d="M308.21,-42.08C300.05,-42.35 291.85,-42.59 284,-42.75 228.9,-43.89 215.1,-43.89 160,-42.75 148.46,-42.51 136.15,-42.12 124.31,-41.66"/>
<polygon fill="#63b8ff" stroke="#63b8ff" points="308.32,-45.58 318.18,-41.72 308.06,-38.58 308.32,-45.58"/>
</a>
</g>
</g>
<!-- Node3 -->
<g id="Node000003" class="node">
<title>Node3</title>
<g id="a_Node000003"><a xlink:href="classSommerfeldIntegrator.html#a5479217de11e54b823a970c39580fa64" target="_top" xlink:title="Computes the inter&#45;layer integration function.">
<polygon fill="white" stroke="#666666" points="284,-33.5 160,-33.5 160,0 284,0 284,-33.5"/>
<text xml:space="preserve" text-anchor="start" x="168" y="-20" font-family="Helvetica,sans-Serif" font-size="10.00">SommerfeldIntegrator</text>
<text xml:space="preserve" text-anchor="middle" x="222" y="-7.25" font-family="Helvetica,sans-Serif" font-size="10.00">::integrationFInter</text>
</a>
</g>
</g>
<!-- Node1&#45;&gt;Node3 -->
<g id="edge2_Node000001_Node000003" class="edge">
<title>Node1&#45;&gt;Node3</title>
<g id="a_edge2_Node000001_Node000003"><a xlink:title=" ">
<path fill="none" stroke="#63b8ff" d="M308.6,-28.67C300.53,-27.54 292.36,-26.41 284.45,-25.31"/>
<polygon fill="#63b8ff" stroke="#63b8ff" points="308.03,-32.12 318.41,-30.04 308.99,-25.19 308.03,-32.12"/>
</a>
</g>
</g>
<!-- Node3&#45;&gt;Node2 -->
<g id="edge3_Node000003_Node000002" class="edge">
<title>Node3&#45;&gt;Node2</title>
<g id="a_edge3_Node000003_Node000002"><a xlink:title=" ">
<path fill="none" stroke="#63b8ff" d="M148.6,-26.83C140.53,-27.96 132.36,-29.09 124.45,-30.19"/>
<polygon fill="#63b8ff" stroke="#63b8ff" points="148.99,-30.31 158.41,-25.46 148.03,-23.38 148.99,-30.31"/>
</a>
</g>
</g>
</g>
</svg>
