<?xml version="1.0" encoding="UTF-8" standalone="no"?>
<!DOCTYPE svg PUBLIC "-//W3C//DTD SVG 1.1//EN"
 "http://www.w3.org/Graphics/SVG/1.1/DTD/svg11.dtd">
<!-- Generated by graphviz version 13.1.2 (20250809.0930)
 -->
<!-- Title: SommerfeldIntegrator::IntraIntegrand Pages: 1 -->
<svg width="310pt" height="68pt"
 viewBox="0.00 0.00 310.00 68.00" xmlns="http://www.w3.org/2000/svg" xmlns:xlink="http://www.w3.org/1999/xlink">
<g id="graph0" class="graph" transform="scale(1 1) rotate(0) translate(4 63.75)">
<title>SommerfeldIntegrator::IntraIntegrand</title>
<!-- Node1 -->
<g id="Node000001" class="node">
<title>Node1</title>
<g id="a_Node000001"><a xlink:title="Computes the intra&#45;layer Green&#39;s function integrand.">
<polygon fill="#999999" stroke="#666666" points="124,-46.12 0,-46.12 0,-12.62 124,-12.62 124,-46.12"/>
<text xml:space="preserve" text-anchor="start" x="8" y="-32.62" font-family="Helvetica,sans-Serif" font-size="10.00">SommerfeldIntegrator</text>
<text xml:space="preserve" text-anchor="middle" x="62" y="-19.88" font-family="Helvetica,sans-Serif" font-size="10.00">::IntraIntegrand</text>
</a>
</g>
</g>
<!-- Node2 -->
<g id="Node000002" class="node">
<title>Node2</title>
<g id="a_Node000002"><a xlink:href="SommerfeldIntegrator_8cpp.html#a93b85379d21563ca5aba6f5eff053826" target="_top" xlink:title="Computes the Bessel function .">
<polygon fill="white" stroke="#666666" points="213.12,-59.75 162.62,-59.75 162.62,-39 213.12,-39 213.12,-59.75"/>
<text xml:space="preserve" text-anchor="middle" x="187.88" y="-46.25" font-family="Helvetica,sans-Serif" font-size="10.00">besselJ</text>
</a>
</g>
</g>
<!-- Node1&#45;&gt;Node2 -->
<g id="edge1_Node000001_Node000002" class="edge">
<title>Node1&#45;&gt;Node2</title>
<g id="a_edge1_Node000001_Node000002"><a xlink:title=" ">
<path fill="none" stroke="#63b8ff" d="M124.21,-39.26C133.41,-40.74 142.63,-42.23 151.06,-43.59"/>
<polygon fill="#63b8ff" stroke="#63b8ff" points="150.44,-47.04 160.87,-45.18 151.55,-40.13 150.44,-47.04"/>
</a>
</g>
</g>
<!-- Node4 -->
<g id="Node000004" class="node">
<title>Node4</title>
<g id="a_Node000004"><a xlink:href="SommerfeldIntegrator_8cpp.html#aa15340ecd95146df9ef36735f56c3417" target="_top" xlink:title="Computes the Hankel function .">
<polygon fill="white" stroke="#666666" points="215.75,-20.75 160,-20.75 160,0 215.75,0 215.75,-20.75"/>
<text xml:space="preserve" text-anchor="middle" x="187.88" y="-7.25" font-family="Helvetica,sans-Serif" font-size="10.00">hankelH</text>
</a>
</g>
</g>
<!-- Node1&#45;&gt;Node4 -->
<g id="edge3_Node000001_Node000004" class="edge">
<title>Node1&#45;&gt;Node4</title>
<g id="a_edge3_Node000001_Node000004"><a xlink:title=" ">
<path fill="none" stroke="#63b8ff" d="M124.21,-19.99C132.47,-18.72 140.74,-17.45 148.45,-16.27"/>
<polygon fill="#63b8ff" stroke="#63b8ff" points="148.78,-19.76 158.13,-14.78 147.72,-12.84 148.78,-19.76"/>
</a>
</g>
</g>
<!-- Node3 -->
<g id="Node000003" class="node">
<title>Node3</title>
<g id="a_Node000003"><a xlink:href="SommerfeldIntegrator_8cpp.html#a384f5925eef2fc5d52e72a65c50174c7" target="_top" xlink:title="Compute complex Bessel functions of the first kind .">
<polygon fill="white" stroke="#666666" points="300,-59.75 253.25,-59.75 253.25,-39 300,-39 300,-59.75"/>
<text xml:space="preserve" text-anchor="middle" x="276.62" y="-46.25" font-family="Helvetica,sans-Serif" font-size="10.00">zbesj_</text>
</a>
</g>
</g>
<!-- Node2&#45;&gt;Node3 -->
<g id="edge2_Node000002_Node000003" class="edge">
<title>Node2&#45;&gt;Node3</title>
<g id="a_edge2_Node000002_Node000003"><a xlink:title=" ">
<path fill="none" stroke="#63b8ff" d="M213.5,-49.38C222.24,-49.38 232.23,-49.38 241.61,-49.38"/>
<polygon fill="#63b8ff" stroke="#63b8ff" points="241.5,-52.88 251.5,-49.38 241.5,-45.88 241.5,-52.88"/>
</a>
</g>
</g>
<!-- Node5 -->
<g id="Node000005" class="node">
<title>Node5</title>
<g id="a_Node000005"><a xlink:href="SommerfeldIntegrator_8cpp.html#a2119f72fafe396d33e9c85025883db96" target="_top" xlink:title="Compute complex Hankel functions of the first kind or second kind .">
<polygon fill="white" stroke="#666666" points="301.5,-20.75 251.75,-20.75 251.75,0 301.5,0 301.5,-20.75"/>
<text xml:space="preserve" text-anchor="middle" x="276.62" y="-7.25" font-family="Helvetica,sans-Serif" font-size="10.00">zbesh_</text>
</a>
</g>
</g>
<!-- Node4&#45;&gt;Node5 -->
<g id="edge4_Node000004_Node000005" class="edge">
<title>Node4&#45;&gt;Node5</title>
<g id="a_edge4_Node000004_Node000005"><a xlink:title=" ">
<path fill="none" stroke="#63b8ff" d="M215.85,-10.38C223.47,-10.38 231.88,-10.38 239.92,-10.38"/>
<polygon fill="#63b8ff" stroke="#63b8ff" points="239.81,-13.88 249.81,-10.38 239.81,-6.88 239.81,-13.88"/>
</a>
</g>
</g>
</g>
</svg>
