<?xml version="1.0" encoding="UTF-8" standalone="no"?>
<!DOCTYPE svg PUBLIC "-//W3C//DTD SVG 1.1//EN"
 "http://www.w3.org/Graphics/SVG/1.1/DTD/svg11.dtd">
<!-- Generated by graphviz version 13.1.2 (20250809.0930)
 -->
<!-- Title: PlaneWave::rvec2cvec Pages: 1 -->
<svg width="689pt" height="118pt"
 viewBox="0.00 0.00 689.00 118.00" xmlns="http://www.w3.org/2000/svg" xmlns:xlink="http://www.w3.org/1999/xlink">
<g id="graph0" class="graph" transform="scale(1 1) rotate(0) translate(4 114.12)">
<title>PlaneWave::rvec2cvec</title>
<!-- Node1 -->
<g id="Node000001" class="node">
<title>Node1</title>
<g id="a_Node000001"><a xlink:title="Convert rvec to cvec (real vector to complex vector).">
<polygon fill="#999999" stroke="#666666" points="680.5,-58.75 555,-58.75 555,-38 680.5,-38 680.5,-58.75"/>
<text xml:space="preserve" text-anchor="middle" x="617.75" y="-45.25" font-family="Helvetica,sans-Serif" font-size="10.00">PlaneWave::rvec2cvec</text>
</a>
</g>
</g>
<!-- Node2 -->
<g id="Node000002" class="node">
<title>Node2</title>
<g id="a_Node000002"><a xlink:href="classPlaneWave.html#ade82a6ff2d60f8df4553d51837525a1c" target="_top" xlink:title="Evaluate the electric and magnetic fields at a given position in layered media.">
<polygon fill="white" stroke="#666666" points="519,-65.12 361.25,-65.12 361.25,-31.62 519,-31.62 519,-65.12"/>
<text xml:space="preserve" text-anchor="start" x="369.25" y="-51.62" font-family="Helvetica,sans-Serif" font-size="10.00">PlaneWave::EvaluateLayered</text>
<text xml:space="preserve" text-anchor="middle" x="440.12" y="-38.88" font-family="Helvetica,sans-Serif" font-size="10.00">EandH</text>
</a>
</g>
</g>
<!-- Node1&#45;&gt;Node2 -->
<g id="edge1_Node000001_Node000002" class="edge">
<title>Node1&#45;&gt;Node2</title>
<g id="a_edge1_Node000001_Node000002"><a xlink:title=" ">
<path fill="none" stroke="#63b8ff" d="M543.38,-48.38C535.46,-48.38 527.38,-48.38 519.41,-48.38"/>
<polygon fill="#63b8ff" stroke="#63b8ff" points="543.32,-51.88 553.32,-48.38 543.32,-44.88 543.32,-51.88"/>
</a>
</g>
</g>
<!-- Node3 -->
<g id="Node000003" class="node">
<title>Node3</title>
<g id="a_Node000003"><a xlink:href="classPlaneWave.html#a80fe83d9acd52a14f7b2f0ea2317b036" target="_top" xlink:title="Integrate layered E and H fields against an RWG basis function.">
<polygon fill="white" stroke="#666666" points="325.25,-110.12 166,-110.12 166,-76.62 325.25,-76.62 325.25,-110.12"/>
<text xml:space="preserve" text-anchor="start" x="174" y="-96.62" font-family="Helvetica,sans-Serif" font-size="10.00">PlaneWave::IntegrateLayered</text>
<text xml:space="preserve" text-anchor="middle" x="245.62" y="-83.88" font-family="Helvetica,sans-Serif" font-size="10.00">EandH</text>
</a>
</g>
</g>
<!-- Node2&#45;&gt;Node3 -->
<g id="edge2_Node000002_Node000003" class="edge">
<title>Node2&#45;&gt;Node3</title>
<g id="a_edge2_Node000002_Node000003"><a xlink:title=" ">
<path fill="none" stroke="#63b8ff" d="M354.62,-68.13C343.14,-70.81 331.44,-73.55 320.18,-76.18"/>
<polygon fill="#63b8ff" stroke="#63b8ff" points="355.11,-71.61 364.05,-65.92 353.52,-64.79 355.11,-71.61"/>
</a>
</g>
</g>
<!-- Node4 -->
<g id="Node000004" class="node">
<title>Node4</title>
<g id="a_Node000004"><a xlink:href="classPlaneWave.html#a07739002b987553f07df880745707fad" target="_top" xlink:title="Construct a plane wave in a layered medium.">
<polygon fill="white" stroke="#666666" points="130,-39.75 0,-39.75 0,-19 130,-19 130,-39.75"/>
<text xml:space="preserve" text-anchor="middle" x="65" y="-26.25" font-family="Helvetica,sans-Serif" font-size="10.00">PlaneWave::PlaneWave</text>
</a>
</g>
</g>
<!-- Node2&#45;&gt;Node4 -->
<g id="edge3_Node000002_Node000004" class="edge">
<title>Node2&#45;&gt;Node4</title>
<g id="a_edge3_Node000002_Node000004"><a xlink:title=" ">
<path fill="none" stroke="#63b8ff" d="M349.43,-43.81C281.9,-40.37 190.92,-35.74 130.46,-32.66"/>
<polygon fill="#63b8ff" stroke="#63b8ff" points="349.23,-47.3 359.39,-44.31 349.59,-40.31 349.23,-47.3"/>
</a>
</g>
</g>
<!-- Node5 -->
<g id="Node000005" class="node">
<title>Node5</title>
<g id="a_Node000005"><a xlink:href="classPlaneWave.html#a1f1fd1b5140ab23b3ec7899e6962e60f" target="_top" xlink:title="Write E and H field values at sample points to CSV files.">
<polygon fill="white" stroke="#666666" points="314.38,-20.75 176.88,-20.75 176.88,0 314.38,0 314.38,-20.75"/>
<text xml:space="preserve" text-anchor="middle" x="245.62" y="-7.25" font-family="Helvetica,sans-Serif" font-size="10.00">PlaneWave::writeEHData</text>
</a>
</g>
</g>
<!-- Node2&#45;&gt;Node5 -->
<g id="edge4_Node000002_Node000005" class="edge">
<title>Node2&#45;&gt;Node5</title>
<g id="a_edge4_Node000002_Node000005"><a xlink:title=" ">
<path fill="none" stroke="#63b8ff" d="M349.56,-30.69C333.18,-27.46 316.55,-24.18 301.56,-21.22"/>
<polygon fill="#63b8ff" stroke="#63b8ff" points="348.85,-34.12 359.34,-32.63 350.21,-27.26 348.85,-34.12"/>
</a>
</g>
</g>
<!-- Node5&#45;&gt;Node4 -->
<g id="edge5_Node000005_Node000004" class="edge">
<title>Node5&#45;&gt;Node4</title>
<g id="a_edge5_Node000005_Node000004"><a xlink:title=" ">
<path fill="none" stroke="#63b8ff" d="M165.43,-18.8C153.69,-20.05 141.71,-21.32 130.32,-22.53"/>
<polygon fill="#63b8ff" stroke="#63b8ff" points="165.51,-22.31 175.08,-17.77 164.77,-15.35 165.51,-22.31"/>
</a>
</g>
</g>
</g>
</svg>
