<?xml version="1.0" encoding="UTF-8" standalone="no"?>
<!DOCTYPE svg PUBLIC "-//W3C//DTD SVG 1.1//EN"
 "http://www.w3.org/Graphics/SVG/1.1/DTD/svg11.dtd">
<!-- Generated by graphviz version 13.1.2 (20250809.0930)
 -->
<!-- Title: GreenFHom3D::GradientSmoothed Pages: 1 -->
<svg width="399pt" height="158pt"
 viewBox="0.00 0.00 399.00 158.00" xmlns="http://www.w3.org/2000/svg" xmlns:xlink="http://www.w3.org/1999/xlink">
<g id="graph0" class="graph" transform="scale(1 1) rotate(0) translate(4 153.75)">
<title>GreenFHom3D::GradientSmoothed</title>
<!-- Node1 -->
<g id="Node000001" class="node">
<title>Node1</title>
<g id="a_Node000001"><a xlink:title="Smoothed gradient kernel.">
<polygon fill="#999999" stroke="#666666" points="390.5,-87.75 205,-87.75 205,-67 390.5,-67 390.5,-87.75"/>
<text xml:space="preserve" text-anchor="middle" x="297.75" y="-74.25" font-family="Helvetica,sans-Serif" font-size="10.00">GreenFHom3D::GradientSmoothed</text>
</a>
</g>
</g>
<!-- Node2 -->
<g id="Node000002" class="node">
<title>Node2</title>
<g id="a_Node000002"><a xlink:href="classGreenFHom3D.html#aca136b03c44ad1da34acf91eb5a5e390" target="_top" xlink:title="term at an observation point.">
<polygon fill="white" stroke="#666666" points="166.75,-149.75 2.25,-149.75 2.25,-129 166.75,-129 166.75,-149.75"/>
<text xml:space="preserve" text-anchor="middle" x="84.5" y="-136.25" font-family="Helvetica,sans-Serif" font-size="10.00">GreenFHom3D::IntegrateDelta</text>
</a>
</g>
</g>
<!-- Node1&#45;&gt;Node2 -->
<g id="edge1_Node000001_Node000002" class="edge">
<title>Node1&#45;&gt;Node2</title>
<g id="a_edge1_Node000001_Node000002"><a xlink:title=" ">
<path fill="none" stroke="#63b8ff" d="M255.39,-91.93C230.51,-100.45 198.12,-111.12 169,-119.38 157.67,-122.59 145.38,-125.72 133.8,-128.52"/>
<polygon fill="#63b8ff" stroke="#63b8ff" points="256.51,-95.25 264.82,-88.68 254.23,-88.63 256.51,-95.25"/>
</a>
</g>
</g>
<!-- Node3 -->
<g id="Node000003" class="node">
<title>Node3</title>
<g id="a_Node000003"><a xlink:href="classGreenFHom3D.html#a9cece8a4056d65455cfcc94c8c61decd" target="_top" xlink:title="term at an observation point.">
<polygon fill="white" stroke="#666666" points="169,-110.75 0,-110.75 0,-90 169,-90 169,-110.75"/>
<text xml:space="preserve" text-anchor="middle" x="84.5" y="-97.25" font-family="Helvetica,sans-Serif" font-size="10.00">GreenFHom3D::IntegrateKappa</text>
</a>
</g>
</g>
<!-- Node1&#45;&gt;Node3 -->
<g id="edge2_Node000001_Node000003" class="edge">
<title>Node1&#45;&gt;Node3</title>
<g id="a_edge2_Node000001_Node000003"><a xlink:title=" ">
<path fill="none" stroke="#63b8ff" d="M193.33,-88.63C185.26,-89.51 177.18,-90.39 169.26,-91.26"/>
<polygon fill="#63b8ff" stroke="#63b8ff" points="193.64,-92.12 203.2,-87.56 192.88,-85.16 193.64,-92.12"/>
</a>
</g>
</g>
<!-- Node4 -->
<g id="Node000004" class="node">
<title>Node4</title>
<g id="a_Node000004"><a xlink:href="classGreenFHom3D.html#a48e8471aabb445e0e50a01c005ff3b98" target="_top" xlink:title="Compute &#160;for all RWGs on a source triangle.">
<polygon fill="white" stroke="#666666" points="164.12,-72.12 4.88,-72.12 4.88,-38.62 164.12,-38.62 164.12,-72.12"/>
<text xml:space="preserve" text-anchor="start" x="12.88" y="-58.62" font-family="Helvetica,sans-Serif" font-size="10.00">GreenFHom3D::SameTriDelta</text>
<text xml:space="preserve" text-anchor="middle" x="84.5" y="-45.88" font-family="Helvetica,sans-Serif" font-size="10.00">Kappa</text>
</a>
</g>
</g>
<!-- Node1&#45;&gt;Node4 -->
<g id="edge3_Node000001_Node000004" class="edge">
<title>Node1&#45;&gt;Node4</title>
<g id="a_edge3_Node000001_Node000004"><a xlink:title=" ">
<path fill="none" stroke="#63b8ff" d="M193.3,-66.6C183.56,-65.59 173.8,-64.57 164.34,-63.59"/>
<polygon fill="#63b8ff" stroke="#63b8ff" points="192.89,-70.08 203.2,-67.63 193.62,-63.12 192.89,-70.08"/>
</a>
</g>
</g>
<!-- Node5 -->
<g id="Node000005" class="node">
<title>Node5</title>
<g id="a_Node000005"><a xlink:href="classGreenFHom3D.html#a419cbe00b5a2aed70ac546904a8a8d6f" target="_top" xlink:title="Compute &#160;and &#160;for all RWG pairs on two triangles.">
<polygon fill="white" stroke="#666666" points="158.12,-20.75 10.88,-20.75 10.88,0 158.12,0 158.12,-20.75"/>
<text xml:space="preserve" text-anchor="middle" x="84.5" y="-7.25" font-family="Helvetica,sans-Serif" font-size="10.00">GreenFHom3D::SameTriDK</text>
</a>
</g>
</g>
<!-- Node1&#45;&gt;Node5 -->
<g id="edge4_Node000001_Node000005" class="edge">
<title>Node1&#45;&gt;Node5</title>
<g id="a_edge4_Node000001_Node000005"><a xlink:title=" ">
<path fill="none" stroke="#63b8ff" d="M260.58,-62.28C235.25,-52.08 200.43,-38.81 169,-29.38 159.03,-26.38 148.27,-23.61 137.9,-21.15"/>
<polygon fill="#63b8ff" stroke="#63b8ff" points="259.18,-65.49 269.76,-66.02 261.82,-59.01 259.18,-65.49"/>
</a>
</g>
</g>
</g>
</svg>
