<?xml version="1.0" encoding="UTF-8" standalone="no"?>
<!DOCTYPE svg PUBLIC "-//W3C//DTD SVG 1.1//EN"
 "http://www.w3.org/Graphics/SVG/1.1/DTD/svg11.dtd">
<!-- Generated by graphviz version 13.1.2 (20250809.0930)
 -->
<!-- Title: Domain::SecFieldH Pages: 1 -->
<svg width="624pt" height="68pt"
 viewBox="0.00 0.00 624.00 68.00" xmlns="http://www.w3.org/2000/svg" xmlns:xlink="http://www.w3.org/1999/xlink">
<g id="graph0" class="graph" transform="scale(1 1) rotate(0) translate(4 63.75)">
<title>Domain::SecFieldH</title>
<!-- Node1 -->
<g id="Node000001" class="node">
<title>Node1</title>
<g id="a_Node000001"><a xlink:title="Secondary (scattered) magnetic field at a point from the solution vector.">
<polygon fill="#999999" stroke="#666666" points="615.5,-39.75 507.25,-39.75 507.25,-19 615.5,-19 615.5,-39.75"/>
<text xml:space="preserve" text-anchor="middle" x="561.38" y="-26.25" font-family="Helvetica,sans-Serif" font-size="10.00">Domain::SecFieldH</text>
</a>
</g>
</g>
<!-- Node2 -->
<g id="Node000002" class="node">
<title>Node2</title>
<g id="a_Node000002"><a xlink:href="classSimJob.html#ae9e4bc91d7636bf3e7fd151c870cd01f" target="_top" xlink:title="Incident and secondary &#160;at pos (domain auto&#45;detected).">
<polygon fill="white" stroke="#666666" points="471.25,-59.75 384.75,-59.75 384.75,-39 471.25,-39 471.25,-59.75"/>
<text xml:space="preserve" text-anchor="middle" x="428" y="-46.25" font-family="Helvetica,sans-Serif" font-size="10.00">SimJob::HField</text>
</a>
</g>
</g>
<!-- Node1&#45;&gt;Node2 -->
<g id="edge1_Node000001_Node000002" class="edge">
<title>Node1&#45;&gt;Node2</title>
<g id="a_edge1_Node000001_Node000002"><a xlink:title=" ">
<path fill="none" stroke="#63b8ff" d="M495.77,-39.21C487.54,-40.46 479.28,-41.72 471.52,-42.9"/>
<polygon fill="#63b8ff" stroke="#63b8ff" points="496.08,-42.7 505.44,-37.74 495.03,-35.78 496.08,-42.7"/>
</a>
</g>
</g>
<!-- Node6 -->
<g id="Node000006" class="node">
<title>Node6</title>
<g id="a_Node000006"><a xlink:href="classSimJob.html#ab9314ccd802a5a430e96e97439fc2459" target="_top" xlink:title="Incident and secondary &#160;at pos with known containing domain.">
<polygon fill="white" stroke="#666666" points="471.25,-20.75 384.75,-20.75 384.75,0 471.25,0 471.25,-20.75"/>
<text xml:space="preserve" text-anchor="middle" x="428" y="-7.25" font-family="Helvetica,sans-Serif" font-size="10.00">SimJob::HField</text>
</a>
</g>
</g>
<!-- Node1&#45;&gt;Node6 -->
<g id="edge5_Node000001_Node000006" class="edge">
<title>Node1&#45;&gt;Node6</title>
<g id="a_edge5_Node000001_Node000006"><a xlink:title=" ">
<path fill="none" stroke="#63b8ff" d="M495.77,-20.03C487.54,-18.84 479.28,-17.65 471.52,-16.52"/>
<polygon fill="#63b8ff" stroke="#63b8ff" points="495.04,-23.46 505.44,-21.43 496.05,-16.53 495.04,-23.46"/>
</a>
</g>
</g>
<!-- Node3 -->
<g id="Node000003" class="node">
<title>Node3</title>
<g id="a_Node000003"><a xlink:href="classSimJob.html#aa492cf9e3639f2dfa91e36364a76729a" target="_top" xlink:title="Thread worker to evaluate fields over posvec in parallel.">
<polygon fill="white" stroke="#666666" points="348.75,-59.75 212.75,-59.75 212.75,-39 348.75,-39 348.75,-59.75"/>
<text xml:space="preserve" text-anchor="middle" x="280.75" y="-46.25" font-family="Helvetica,sans-Serif" font-size="10.00">SimJob::FieldEvalParallel</text>
</a>
</g>
</g>
<!-- Node2&#45;&gt;Node3 -->
<g id="edge2_Node000002_Node000003" class="edge">
<title>Node2&#45;&gt;Node3</title>
<g id="a_edge2_Node000002_Node000003"><a xlink:title=" ">
<path fill="none" stroke="#63b8ff" d="M373.31,-49.38C365.42,-49.38 357.2,-49.38 349.08,-49.38"/>
<polygon fill="#63b8ff" stroke="#63b8ff" points="373.08,-52.88 383.08,-49.38 373.08,-45.88 373.08,-52.88"/>
</a>
</g>
</g>
<!-- Node4 -->
<g id="Node000004" class="node">
<title>Node4</title>
<g id="a_Node000004"><a xlink:href="classSimJob.html#a20b37e2e0aa2502a3ec465a5705b1774" target="_top" xlink:title="Evaluate fields on a set of points read from a file.">
<polygon fill="white" stroke="#666666" points="176.75,-59.75 76.75,-59.75 76.75,-39 176.75,-39 176.75,-59.75"/>
<text xml:space="preserve" text-anchor="middle" x="126.75" y="-46.25" font-family="Helvetica,sans-Serif" font-size="10.00">SimJob::FieldEval</text>
</a>
</g>
</g>
<!-- Node3&#45;&gt;Node4 -->
<g id="edge3_Node000003_Node000004" class="edge">
<title>Node3&#45;&gt;Node4</title>
<g id="a_edge3_Node000003_Node000004"><a xlink:title=" ">
<path fill="none" stroke="#63b8ff" d="M201.4,-49.38C193.16,-49.38 184.94,-49.38 177.16,-49.38"/>
<polygon fill="#63b8ff" stroke="#63b8ff" points="201.12,-52.88 211.12,-49.38 201.12,-45.88 201.12,-52.88"/>
</a>
</g>
</g>
<!-- Node5 -->
<g id="Node000005" class="node">
<title>Node5</title>
<g id="a_Node000005"><a xlink:href="main_8cpp.html#a0ddf1224851353fc92bfbff6f499fa97" target="_top" xlink:title="Main driver routine for the HELIOS SIE simulation program.">
<polygon fill="white" stroke="#666666" points="40.75,-59.75 0,-59.75 0,-39 40.75,-39 40.75,-59.75"/>
<text xml:space="preserve" text-anchor="middle" x="20.38" y="-46.25" font-family="Helvetica,sans-Serif" font-size="10.00">main</text>
</a>
</g>
</g>
<!-- Node4&#45;&gt;Node5 -->
<g id="edge4_Node000004_Node000005" class="edge">
<title>Node4&#45;&gt;Node5</title>
<g id="a_edge4_Node000004_Node000005"><a xlink:title=" ">
<path fill="none" stroke="#63b8ff" d="M64.97,-49.38C56.42,-49.38 48.18,-49.38 41.22,-49.38"/>
<polygon fill="#63b8ff" stroke="#63b8ff" points="64.8,-52.88 74.8,-49.38 64.8,-45.88 64.8,-52.88"/>
</a>
</g>
</g>
</g>
</svg>
