<?xml version="1.0" encoding="UTF-8" standalone="no"?>
<!DOCTYPE svg PUBLIC "-//W3C//DTD SVG 1.1//EN"
 "http://www.w3.org/Graphics/SVG/1.1/DTD/svg11.dtd">
<!-- Generated by graphviz version 13.1.2 (20250809.0930)
 -->
<!-- Title: DomainLayered3D::extinctionCS Pages: 1 -->
<!--zoomable 341 -->

<svg id="main" version="1.1" xmlns="http://www.w3.org/2000/svg" xmlns:xlink="http://www.w3.org/1999/xlink" xml:space="preserve" onload="init(evt)">

<style type="text/css"><![CDATA[
.node, .edge {opacity: 0.7;}
.node.selected, .edge.selected {opacity: 1;}
.edge:hover path { stroke: red; }
.edge:hover polygon { stroke: red; fill: red; }
]]></style>

<defs>
  <circle id="rim" cx="0" cy="0" r="7"/>
  <circle id="rim2" cx="0" cy="0" r="3.5"/>
  <g id="zoomPlus">
    <use xlink:href="#rim" fill="#404040"><set attributeName="fill" to="#808080" begin="zoomplus.mouseover" end="zoomplus.mouseout"/></use>
    <path d="M-4,0h8M0,-4v8" fill="none" stroke="white" stroke-width="1.5" pointer-events="none"/>
  </g>
  <g id="zoomMin">
    <use xlink:href="#rim" fill="#404040"><set attributeName="fill" to="#808080" begin="zoomminus.mouseover" end="zoomminus.mouseout"/></use>
    <path d="M-4,0h8" fill="none" stroke="white" stroke-width="1.5" pointer-events="none"/>
  </g>
  <g id="arrowUp" transform="translate(30 24)">
    <use xlink:href="#rim"/>
    <path pointer-events="none" fill="none" stroke="white" stroke-width="1.5" d="M0,-3.0v7 M-2.5,-0.5L0,-3.0L2.5,-0.5"/>
  </g>
  <g id="arrowRight" transform="rotate(90) translate(36 -43)">
    <use xlink:href="#rim"/>
    <path pointer-events="none" fill="none" stroke="white" stroke-width="1.5" d="M0,-3.0v7 M-2.5,-0.5L0,-3.0L2.5,-0.5"/>
  </g>
  <g id="arrowDown" transform="rotate(180) translate(-30 -48)">
    <use xlink:href="#rim"/>
    <path pointer-events="none" fill="none" stroke="white" stroke-width="1.5" d="M0,-3.0v7 M-2.5,-0.5L0,-3.0L2.5,-0.5"/>
  </g>
  <g id="arrowLeft" transform="rotate(270) translate(-36 17)">
    <use xlink:href="#rim"/>
    <path pointer-events="none" fill="none" stroke="white" stroke-width="1.5" d="M0,-3.0v7 M-2.5,-0.5L0,-3.0L2.5,-0.5"/>
  </g>
  <g id="resetDef">
    <use xlink:href="#rim2" fill="#404040"><set attributeName="fill" to="#808080" begin="reset.mouseover" end="reset.mouseout"/></use>
  </g>
</defs>
<script type="application/ecmascript">
var viewWidth = 569;
var viewHeight = 341;
var sectionId = 'dynsection-15';
</script>
<script type="application/ecmascript" xlink:href="svg.min.js"/>
<svg id="graph" class="graph">
<g id="viewport">
<title>DomainLayered3D::extinctionCS</title>
<!-- Node1 -->
<g id="Node000001" class="node">
<title>Node1</title>
<g id="a_Node000001"><a xlink:title="Extinction cross section.">
<polygon fill="#999999" stroke="#666666" points="174.25,-176.75 0,-176.75 0,-156 174.25,-156 174.25,-176.75"/>
<text xml:space="preserve" text-anchor="middle" x="87.12" y="-163.25" font-family="Helvetica,sans-Serif" font-size="10.00">DomainLayered3D::extinctionCS</text>
</a>
</g>
</g>
<!-- Node2 -->
<g id="Node000002" class="node">
<title>Node2</title>
<g id="a_Node000002"><a xlink:href="classTriangle.html#ab78508a340ec5d345adf114b43563dbf" target="_top" xlink:title="Centroid of the triangle.">
<polygon fill="white" stroke="#666666" points="335.38,-332.75 242.88,-332.75 242.88,-312 335.38,-312 335.38,-332.75"/>
<text xml:space="preserve" text-anchor="middle" x="289.12" y="-319.25" font-family="Helvetica,sans-Serif" font-size="10.00">Triangle::Center</text>
</a>
</g>
</g>
<!-- Node1&#45;&gt;Node2 -->
<g id="edge1_Node000001_Node000002" class="edge">
<title>Node1&#45;&gt;Node2</title>
<g id="a_edge1_Node000001_Node000002"><a xlink:title=" ">
<path fill="none" stroke="#63b8ff" d="M94.58,-177.15C110.65,-203.02 155.17,-268.97 210.25,-302.38 216.83,-306.36 224.18,-309.56 231.67,-312.12"/>
<polygon fill="#63b8ff" stroke="#63b8ff" points="230.63,-315.47 241.22,-315.01 232.65,-308.77 230.63,-315.47"/>
</a>
</g>
</g>
<!-- Node3 -->
<g id="Node000003" class="node">
<title>Node3</title>
<g id="a_Node000003"><a xlink:href="DomainLayered3D_8cpp.html#a37aee72ef7a00576c814a1370473cce7" target="_top" xlink:title="Compute the element&#45;wise complex conjugate of a 3&#45;vector.">
<polygon fill="white" stroke="#666666" points="318.5,-293.75 259.75,-293.75 259.75,-273 318.5,-273 318.5,-293.75"/>
<text xml:space="preserve" text-anchor="middle" x="289.12" y="-280.25" font-family="Helvetica,sans-Serif" font-size="10.00">conjVecL</text>
</a>
</g>
</g>
<!-- Node1&#45;&gt;Node3 -->
<g id="edge2_Node000001_Node000003" class="edge">
<title>Node1&#45;&gt;Node3</title>
<g id="a_edge2_Node000001_Node000003"><a xlink:title=" ">
<path fill="none" stroke="#63b8ff" d="M98.48,-177.19C118.28,-197.24 163.7,-240.23 210.25,-263.38 222.02,-269.23 235.67,-273.48 248.22,-276.52"/>
<polygon fill="#63b8ff" stroke="#63b8ff" points="247.36,-279.91 257.88,-278.65 248.87,-273.08 247.36,-279.91"/>
</a>
</g>
</g>
<!-- Node5 -->
<g id="Node000005" class="node">
<title>Node5</title>
<g id="a_Node000005"><a xlink:href="classDomainLayered3D.html#a281513a4cb865b8c688dd920a6789955" target="_top" xlink:title="Relative permittivity at a spatial location.">
<polygon fill="white" stroke="#666666" points="363.12,-254.75 215.12,-254.75 215.12,-234 363.12,-234 363.12,-254.75"/>
<text xml:space="preserve" text-anchor="middle" x="289.12" y="-241.25" font-family="Helvetica,sans-Serif" font-size="10.00">DomainLayered3D::Epsilon</text>
</a>
</g>
</g>
<!-- Node1&#45;&gt;Node5 -->
<g id="edge5_Node000001_Node000005" class="edge">
<title>Node1&#45;&gt;Node5</title>
<g id="a_edge5_Node000001_Node000005"><a xlink:title=" ">
<path fill="none" stroke="#63b8ff" d="M107.93,-177.24C131.68,-189.92 172.95,-210.87 210.25,-224.38 216.3,-226.57 222.7,-228.62 229.13,-230.51"/>
<polygon fill="#63b8ff" stroke="#63b8ff" points="227.88,-233.79 238.45,-233.12 229.77,-227.05 227.88,-233.79"/>
</a>
</g>
</g>
<!-- Node7 -->
<g id="Node000007" class="node">
<title>Node7</title>
<g id="a_Node000007"><a xlink:href="classTriangle.html#a691ff1d8d3f33df1fe0aae161d14ec49" target="_top" xlink:title="FRONT/BACK normal: FRONT &#45;&gt; +normal, BACK &#45;&gt; −normal.">
<polygon fill="white" stroke="#666666" points="359,-215.75 219.25,-215.75 219.25,-195 359,-195 359,-215.75"/>
<text xml:space="preserve" text-anchor="middle" x="289.12" y="-202.25" font-family="Helvetica,sans-Serif" font-size="10.00">Triangle::FBNormalVector</text>
</a>
</g>
</g>
<!-- Node1&#45;&gt;Node7 -->
<g id="edge7_Node000001_Node000007" class="edge">
<title>Node1&#45;&gt;Node7</title>
<g id="a_edge7_Node000001_Node000007"><a xlink:title=" ">
<path fill="none" stroke="#63b8ff" d="M143.84,-177.24C167.79,-181.91 196,-187.41 221.08,-192.3"/>
<polygon fill="#63b8ff" stroke="#63b8ff" points="220.4,-195.73 230.88,-194.21 221.74,-188.86 220.4,-195.73"/>
</a>
</g>
</g>
<!-- Node8 -->
<g id="Node000008" class="node">
<title>Node8</title>
<g id="a_Node000008"><a xlink:href="classDomainLayered3D.html#ae2e6a313e8a32a981d6d698a47e238cb" target="_top" xlink:title="Total incident electric field at a point from all incident sources.">
<polygon fill="white" stroke="#666666" points="367.25,-176.75 211,-176.75 211,-156 367.25,-156 367.25,-176.75"/>
<text xml:space="preserve" text-anchor="middle" x="289.12" y="-163.25" font-family="Helvetica,sans-Serif" font-size="10.00">DomainLayered3D::IncFieldE</text>
</a>
</g>
</g>
<!-- Node1&#45;&gt;Node8 -->
<g id="edge8_Node000001_Node000008" class="edge">
<title>Node1&#45;&gt;Node8</title>
<g id="a_edge8_Node000001_Node000008"><a xlink:title=" ">
<path fill="none" stroke="#63b8ff" d="M174.68,-166.38C182.79,-166.38 191.02,-166.38 199.15,-166.38"/>
<polygon fill="#63b8ff" stroke="#63b8ff" points="199.04,-169.88 209.04,-166.38 199.04,-162.88 199.04,-169.88"/>
</a>
</g>
</g>
<!-- Node9 -->
<g id="Node000009" class="node">
<title>Node9</title>
<g id="a_Node000009"><a xlink:href="classDomainLayered3D.html#a1224cc02268d1cfe5b51ebf363cda79e" target="_top" xlink:title="Total incident magnetic field at a point from all incident sources.">
<polygon fill="white" stroke="#666666" points="368,-137.75 210.25,-137.75 210.25,-117 368,-117 368,-137.75"/>
<text xml:space="preserve" text-anchor="middle" x="289.12" y="-124.25" font-family="Helvetica,sans-Serif" font-size="10.00">DomainLayered3D::IncFieldH</text>
</a>
</g>
</g>
<!-- Node1&#45;&gt;Node9 -->
<g id="edge9_Node000001_Node000009" class="edge">
<title>Node1&#45;&gt;Node9</title>
<g id="a_edge9_Node000001_Node000009"><a xlink:title=" ">
<path fill="none" stroke="#63b8ff" d="M143.84,-155.51C167.79,-150.84 196,-145.34 221.08,-140.45"/>
<polygon fill="#63b8ff" stroke="#63b8ff" points="221.74,-143.89 230.88,-138.54 220.4,-137.02 221.74,-143.89"/>
</a>
</g>
</g>
<!-- Node10 -->
<g id="Node000010" class="node">
<title>Node10</title>
<g id="a_Node000010"><a xlink:href="classDomainLayered3D.html#a295274a8176b2d6f9fc07c7aea9fd89c" target="_top" xlink:title="Relative permeability at a spatial location.">
<polygon fill="white" stroke="#666666" points="353,-98.75 225.25,-98.75 225.25,-78 353,-78 353,-98.75"/>
<text xml:space="preserve" text-anchor="middle" x="289.12" y="-85.25" font-family="Helvetica,sans-Serif" font-size="10.00">DomainLayered3D::Mu</text>
</a>
</g>
</g>
<!-- Node1&#45;&gt;Node10 -->
<g id="edge10_Node000001_Node000010" class="edge">
<title>Node1&#45;&gt;Node10</title>
<g id="a_edge10_Node000001_Node000010"><a xlink:title=" ">
<path fill="none" stroke="#63b8ff" d="M107.93,-155.51C131.68,-142.83 172.95,-121.88 210.25,-108.38 216.3,-106.18 222.7,-104.13 229.13,-102.24"/>
<polygon fill="#63b8ff" stroke="#63b8ff" points="229.77,-105.7 238.45,-99.63 227.88,-98.96 229.77,-105.7"/>
</a>
</g>
</g>
<!-- Node11 -->
<g id="Node000011" class="node">
<title>Node11</title>
<g id="a_Node000011"><a xlink:href="classTriangle.html#a0752d2c9488c7c44b851b8f75abcaa79" target="_top" xlink:title="Node position (by value) for local index 0..2.">
<polygon fill="white" stroke="#666666" points="332,-59.75 246.25,-59.75 246.25,-39 332,-39 332,-59.75"/>
<text xml:space="preserve" text-anchor="middle" x="289.12" y="-46.25" font-family="Helvetica,sans-Serif" font-size="10.00">Triangle::Node</text>
</a>
</g>
</g>
<!-- Node1&#45;&gt;Node11 -->
<g id="edge12_Node000001_Node000011" class="edge">
<title>Node1&#45;&gt;Node11</title>
<g id="a_edge12_Node000001_Node000011"><a xlink:title=" ">
<path fill="none" stroke="#63b8ff" d="M98.48,-155.56C118.28,-135.51 163.7,-92.52 210.25,-69.38 218.07,-65.49 226.72,-62.3 235.33,-59.72"/>
<polygon fill="#63b8ff" stroke="#63b8ff" points="235.97,-63.17 244.69,-57.15 234.12,-56.42 235.97,-63.17"/>
</a>
</g>
</g>
<!-- Node12 -->
<g id="Node000012" class="node">
<title>Node12</title>
<g id="a_Node000012"><a xlink:href="DomainLayered3D_8cpp.html#a2c019c7f0fe35eb5871f0c0b1ae9bd96" target="_top" xlink:title="Extract the real part of each component of a complex 3&#45;vector.">
<polygon fill="white" stroke="#666666" points="317.75,-20.75 260.5,-20.75 260.5,0 317.75,0 317.75,-20.75"/>
<text xml:space="preserve" text-anchor="middle" x="289.12" y="-7.25" font-family="Helvetica,sans-Serif" font-size="10.00">realVecL</text>
</a>
</g>
</g>
<!-- Node1&#45;&gt;Node12 -->
<g id="edge13_Node000001_Node000012" class="edge">
<title>Node1&#45;&gt;Node12</title>
<g id="a_edge13_Node000001_Node000012"><a xlink:title=" ">
<path fill="none" stroke="#63b8ff" d="M94.58,-155.6C110.65,-129.73 155.17,-63.78 210.25,-30.38 221.97,-23.26 236.16,-18.67 249.21,-15.7"/>
<polygon fill="#63b8ff" stroke="#63b8ff" points="249.67,-19.17 258.79,-13.78 248.3,-12.31 249.67,-19.17"/>
</a>
</g>
</g>
<!-- Node4 -->
<g id="Node000004" class="node">
<title>Node4</title>
<g id="a_Node000004"><a xlink:href="Domain_8cpp.html#abbd88d15240455cf734121fcd73b3a03" target="_top" xlink:title="Compute the element&#45;wise complex conjugate of a 3&#45;vector.">
<polygon fill="white" stroke="#666666" points="500.62,-293.75 464.38,-293.75 464.38,-273 500.62,-273 500.62,-293.75"/>
<text xml:space="preserve" text-anchor="middle" x="482.5" y="-280.25" font-family="Helvetica,sans-Serif" font-size="10.00">conj</text>
</a>
</g>
</g>
<!-- Node3&#45;&gt;Node4 -->
<g id="edge3_Node000003_Node000004" class="edge">
<title>Node3&#45;&gt;Node4</title>
<g id="a_edge3_Node000003_Node000004"><a xlink:title=" ">
<path fill="none" stroke="#63b8ff" d="M318.78,-283.38C354.94,-283.38 416.77,-283.38 452.9,-283.38"/>
<polygon fill="#63b8ff" stroke="#63b8ff" points="452.58,-286.88 462.58,-283.38 452.58,-279.88 452.58,-286.88"/>
</a>
</g>
</g>
<!-- Node4&#45;&gt;Node4 -->
<g id="edge4_Node000004_Node000004" class="edge">
<title>Node4&#45;&gt;Node4</title>
<g id="a_edge4_Node000004_Node000004"><a xlink:title=" ">
<path fill="none" stroke="#63b8ff" d="M464.17,-288.12C435.22,-298.03 441.33,-311.75 482.5,-311.75 517.88,-311.75 527.37,-301.62 510.96,-292.48"/>
<polygon fill="#63b8ff" stroke="#63b8ff" points="512.79,-289.45 502.22,-288.72 510.03,-295.88 512.79,-289.45"/>
</a>
</g>
</g>
<!-- Node6 -->
<g id="Node000006" class="node">
<title>Node6</title>
<g id="a_Node000006"><a xlink:href="classDomainLayered3D.html#ae8e9daf2ca4d1ed649a1e0fe83880160" target="_top" xlink:title="Returns the layer index corresponding to a spatial position.">
<polygon fill="white" stroke="#666666" points="561,-180.12 404,-180.12 404,-146.62 561,-146.62 561,-180.12"/>
<text xml:space="preserve" text-anchor="start" x="412" y="-166.62" font-family="Helvetica,sans-Serif" font-size="10.00">DomainLayered3D::GetLayer</text>
<text xml:space="preserve" text-anchor="middle" x="482.5" y="-153.88" font-family="Helvetica,sans-Serif" font-size="10.00">Index</text>
</a>
</g>
</g>
<!-- Node5&#45;&gt;Node6 -->
<g id="edge6_Node000005_Node000006" class="edge">
<title>Node5&#45;&gt;Node6</title>
<g id="a_edge6_Node000005_Node000006"><a xlink:title=" ">
<path fill="none" stroke="#63b8ff" d="M339.72,-233.56C349.24,-230.95 359.03,-227.88 368,-224.38 394.62,-213.98 422.94,-198.77 444.64,-186.13"/>
<polygon fill="#63b8ff" stroke="#63b8ff" points="446.28,-189.23 453.11,-181.13 442.72,-183.2 446.28,-189.23"/>
</a>
</g>
</g>
<!-- Node10&#45;&gt;Node6 -->
<g id="edge11_Node000010_Node000006" class="edge">
<title>Node10&#45;&gt;Node6</title>
<g id="a_edge11_Node000010_Node000006"><a xlink:title=" ">
<path fill="none" stroke="#63b8ff" d="M338.36,-99.16C348.28,-101.82 358.56,-104.92 368,-108.38 392.74,-117.44 419.29,-130.13 440.49,-141.04"/>
<polygon fill="#63b8ff" stroke="#63b8ff" points="438.61,-144.01 449.09,-145.53 441.85,-137.8 438.61,-144.01"/>
</a>
</g>
</g>
<!-- Node13 -->
<g id="Node000013" class="node">
<title>Node13</title>
<g id="a_Node000013"><a xlink:href="Domain_8cpp.html#aafa3e4fa6318b2f8740f4dbd50c367e5" target="_top" xlink:title="Extract the real part of each component of a complex 3&#45;vector.">
<polygon fill="white" stroke="#666666" points="499.88,-20.75 465.12,-20.75 465.12,0 499.88,0 499.88,-20.75"/>
<text xml:space="preserve" text-anchor="middle" x="482.5" y="-7.25" font-family="Helvetica,sans-Serif" font-size="10.00">real</text>
</a>
</g>
</g>
<!-- Node12&#45;&gt;Node13 -->
<g id="edge14_Node000012_Node000013" class="edge">
<title>Node12&#45;&gt;Node13</title>
<g id="a_edge14_Node000012_Node000013"><a xlink:title=" ">
<path fill="none" stroke="#63b8ff" d="M317.95,-10.38C354.18,-10.38 417.16,-10.38 453.48,-10.38"/>
<polygon fill="#63b8ff" stroke="#63b8ff" points="453.19,-13.88 463.19,-10.38 453.19,-6.88 453.19,-13.88"/>
</a>
</g>
</g>
<!-- Node13&#45;&gt;Node13 -->
<g id="edge15_Node000013_Node000013" class="edge">
<title>Node13&#45;&gt;Node13</title>
<g id="a_edge15_Node000013_Node000013"><a xlink:title=" ">
<path fill="none" stroke="#63b8ff" d="M464.97,-14.85C435.11,-24.78 440.95,-38.75 482.5,-38.75 518.2,-38.75 527.54,-28.43 510.51,-19.23"/>
<polygon fill="#63b8ff" stroke="#63b8ff" points="512,-16.06 501.42,-15.43 509.3,-22.52 512,-16.06"/>
</a>
</g>
</g>
</g>
</svg>

<g id="navigator" transform="translate(0 0)" fill="#404254">
  <rect fill="#f2f5e9" fill-opacity="0.5" stroke="#606060" stroke-width=".5" x="0" y="0" width="60" height="60"/>
  <use id="zoomplus" xlink:href="#zoomPlus" x="17" y="9" onmousedown="handleZoom(evt,'in')"/>
  <use id="zoomminus" xlink:href="#zoomMin" x="42" y="9" onmousedown="handleZoom(evt,'out')"/>
  <use id="reset" xlink:href="#resetDef" x="30" y="36" onmousedown="handleReset()"/>
   <use id="arrowup" xlink:href="#arrowUp" x="0" y="0" onmousedown="handlePan(0,-1)"/>
  <use id="arrowright" xlink:href="#arrowRight" x="0" y="0" onmousedown="handlePan(1,0)"/>
  <use id="arrowdown" xlink:href="#arrowDown" x="0" y="0" onmousedown="handlePan(0,1)"/>
  <use id="arrowleft" xlink:href="#arrowLeft" x="0" y="0" onmousedown="handlePan(-1,0)"/>
</g>
<svg viewBox="0 0 15 15" width="100%" height="30px" preserveAspectRatio="xMaxYMin meet">
 <g id="arrow_out" transform="scale(0.3 0.3)">
  <a xlink:href="classDomainLayered3D_a847bdddcbf4257a73cfcd2766c882f8b_cgraph_org.svg" target="_base">
   <rect id="button" ry="5" rx="5" y="6" x="6" height="38" width="38"
        fill="#f2f5e9" fill-opacity="0.5" stroke="#606060" stroke-width="1.0"/>
   <path id="arrow"
     d="M 11.500037,31.436501 C 11.940474,20.09759 22.043105,11.32322 32.158766,21.979434 L 37.068811,17.246167 C 37.068811,17.246167 37.088388,32 37.088388,32 L 22.160133,31.978069 C 22.160133,31.978069 26.997745,27.140456 26.997745,27.140456 C 18.528582,18.264221 13.291696,25.230495 11.500037,31.436501 z"
     style="fill:#404040;"/>
  </a>
 </g>
</svg>

<style type='text/css'>
<![CDATA[
[data-mouse-over-selected='false'] { opacity: 0.7; }
[data-mouse-over-selected='true']  { opacity: 1.0; }
]]>
</style>
<script type="application/ecmascript"><![CDATA[
document.addEventListener('DOMContentLoaded', (event) => {
  highlightEdges();
  highlightAdjacentNodes();
});
]]></script>
</svg>
