<?xml version="1.0" encoding="UTF-8" standalone="no"?>
<!DOCTYPE svg PUBLIC "-//W3C//DTD SVG 1.1//EN"
 "http://www.w3.org/Graphics/SVG/1.1/DTD/svg11.dtd">
<!-- Generated by graphviz version 13.1.2 (20250809.0930)
 -->
<!-- Title: SimJob::LoadSubjobFromFile Pages: 1 -->
<svg width="375pt" height="68pt"
 viewBox="0.00 0.00 375.00 68.00" xmlns="http://www.w3.org/2000/svg" xmlns:xlink="http://www.w3.org/1999/xlink">
<g id="graph0" class="graph" transform="scale(1 1) rotate(0) translate(4 63.75)">
<title>SimJob::LoadSubjobFromFile</title>
<!-- Node1 -->
<g id="Node000001" class="node">
<title>Node1</title>
<g id="a_Node000001"><a xlink:title="Parse one &#160;(incident specification + label).">
<polygon fill="#999999" stroke="#666666" points="366.75,-39.75 212.75,-39.75 212.75,-19 366.75,-19 366.75,-39.75"/>
<text xml:space="preserve" text-anchor="middle" x="289.75" y="-26.25" font-family="Helvetica,sans-Serif" font-size="10.00">SimJob::LoadSubjobFromFile</text>
</a>
</g>
</g>
<!-- Node2 -->
<g id="Node000002" class="node">
<title>Node2</title>
<g id="a_Node000002"><a xlink:href="classSimJob.html#a20b37e2e0aa2502a3ec465a5705b1774" target="_top" xlink:title="Evaluate fields on a set of points read from a file.">
<polygon fill="white" stroke="#666666" points="176.75,-59.75 76.75,-59.75 76.75,-39 176.75,-39 176.75,-59.75"/>
<text xml:space="preserve" text-anchor="middle" x="126.75" y="-46.25" font-family="Helvetica,sans-Serif" font-size="10.00">SimJob::FieldEval</text>
</a>
</g>
</g>
<!-- Node1&#45;&gt;Node2 -->
<g id="edge1_Node000001_Node000002" class="edge">
<title>Node1&#45;&gt;Node2</title>
<g id="a_edge1_Node000001_Node000002"><a xlink:title=" ">
<path fill="none" stroke="#63b8ff" d="M201.21,-40.25C192.96,-41.27 184.81,-42.29 177.1,-43.24"/>
<polygon fill="#63b8ff" stroke="#63b8ff" points="201.5,-43.74 210.99,-39.03 200.64,-36.79 201.5,-43.74"/>
</a>
</g>
</g>
<!-- Node4 -->
<g id="Node000004" class="node">
<title>Node4</title>
<g id="a_Node000004"><a xlink:href="classSimJob.html#aeca9fd8ceee84fdef75996581fe1093a" target="_top" xlink:title="High&#45;level entry: run a simulation for a given job file.">
<polygon fill="white" stroke="#666666" points="176.38,-20.75 77.12,-20.75 77.12,0 176.38,0 176.38,-20.75"/>
<text xml:space="preserve" text-anchor="middle" x="126.75" y="-7.25" font-family="Helvetica,sans-Serif" font-size="10.00">SimJob::Simulate</text>
</a>
</g>
</g>
<!-- Node1&#45;&gt;Node4 -->
<g id="edge3_Node000001_Node000004" class="edge">
<title>Node1&#45;&gt;Node4</title>
<g id="a_edge3_Node000001_Node000004"><a xlink:title=" ">
<path fill="none" stroke="#63b8ff" d="M201.06,-19.03C192.7,-18.04 184.44,-17.07 176.65,-16.15"/>
<polygon fill="#63b8ff" stroke="#63b8ff" points="200.65,-22.5 210.99,-20.2 201.47,-15.55 200.65,-22.5"/>
</a>
</g>
</g>
<!-- Node3 -->
<g id="Node000003" class="node">
<title>Node3</title>
<g id="a_Node000003"><a xlink:href="main_8cpp.html#a0ddf1224851353fc92bfbff6f499fa97" target="_top" xlink:title="Main driver routine for the HELIOS SIE simulation program.">
<polygon fill="white" stroke="#666666" points="40.75,-39.75 0,-39.75 0,-19 40.75,-19 40.75,-39.75"/>
<text xml:space="preserve" text-anchor="middle" x="20.38" y="-26.25" font-family="Helvetica,sans-Serif" font-size="10.00">main</text>
</a>
</g>
</g>
<!-- Node2&#45;&gt;Node3 -->
<g id="edge2_Node000002_Node000003" class="edge">
<title>Node2&#45;&gt;Node3</title>
<g id="a_edge2_Node000002_Node000003"><a xlink:title=" ">
<path fill="none" stroke="#63b8ff" d="M65.26,-37.78C56.6,-36.13 48.26,-34.53 41.22,-33.18"/>
<polygon fill="#63b8ff" stroke="#63b8ff" points="64.35,-41.17 74.83,-39.62 65.66,-34.3 64.35,-41.17"/>
</a>
</g>
</g>
<!-- Node4&#45;&gt;Node3 -->
<g id="edge4_Node000004_Node000003" class="edge">
<title>Node4&#45;&gt;Node3</title>
<g id="a_edge4_Node000004_Node000003"><a xlink:title=" ">
<path fill="none" stroke="#63b8ff" d="M65.69,-21.31C56.88,-22.91 48.38,-24.46 41.22,-25.76"/>
<polygon fill="#63b8ff" stroke="#63b8ff" points="66.22,-24.77 75.44,-19.53 64.97,-17.88 66.22,-24.77"/>
</a>
</g>
</g>
</g>
</svg>
