<?xml version="1.0" encoding="UTF-8" standalone="no"?>
<!DOCTYPE svg PUBLIC "-//W3C//DTD SVG 1.1//EN"
 "http://www.w3.org/Graphics/SVG/1.1/DTD/svg11.dtd">
<!-- Generated by graphviz version 13.1.2 (20250809.0930)
 -->
<!-- Title: GreenFHom3DPer2D::SmoothedTranslate Pages: 1 -->
<svg width="679pt" height="86pt"
 viewBox="0.00 0.00 679.00 86.00" xmlns="http://www.w3.org/2000/svg" xmlns:xlink="http://www.w3.org/1999/xlink">
<g id="graph0" class="graph" transform="scale(1 1) rotate(0) translate(4 81.75)">
<title>GreenFHom3DPer2D::SmoothedTranslate</title>
<!-- Node1 -->
<g id="Node000001" class="node">
<title>Node1</title>
<g id="a_Node000001"><a xlink:title="Smoothed scalar kernel &#160;for a specific translation.">
<polygon fill="#999999" stroke="#666666" points="172.75,-49.12 0,-49.12 0,-15.62 172.75,-15.62 172.75,-49.12"/>
<text xml:space="preserve" text-anchor="start" x="8" y="-35.62" font-family="Helvetica,sans-Serif" font-size="10.00">GreenFHom3DPer2D::Smoothed</text>
<text xml:space="preserve" text-anchor="middle" x="86.38" y="-22.88" font-family="Helvetica,sans-Serif" font-size="10.00">Translate</text>
</a>
</g>
</g>
<!-- Node2 -->
<g id="Node000002" class="node">
<title>Node2</title>
<g id="a_Node000002"><a xlink:href="classGreenFHom3DPer2D.html#accc01158b08720b45256b17ed3536d8b" target="_top" xlink:title="Spatial part for the smoothed scalar kernel .">
<polygon fill="white" stroke="#666666" points="398,-72.12 211.75,-72.12 211.75,-38.62 398,-38.62 398,-72.12"/>
<text xml:space="preserve" text-anchor="start" x="219.75" y="-58.62" font-family="Helvetica,sans-Serif" font-size="10.00">GreenFHom3DPer2D::EwaldSpatial</text>
<text xml:space="preserve" text-anchor="middle" x="304.88" y="-45.88" font-family="Helvetica,sans-Serif" font-size="10.00">Smoothed</text>
</a>
</g>
</g>
<!-- Node1&#45;&gt;Node2 -->
<g id="edge1_Node000001_Node000002" class="edge">
<title>Node1&#45;&gt;Node2</title>
<g id="a_edge1_Node000001_Node000002"><a xlink:title=" ">
<path fill="none" stroke="#63b8ff" d="M172.94,-41.47C181.83,-42.41 190.94,-43.38 200,-44.34"/>
<polygon fill="#63b8ff" stroke="#63b8ff" points="199.63,-47.82 209.94,-45.4 200.37,-40.86 199.63,-47.82"/>
</a>
</g>
</g>
<!-- Node7 -->
<g id="Node000007" class="node">
<title>Node7</title>
<g id="a_Node000007"><a xlink:href="classGreenFHom3DPer2D.html#aad98b9953626259eda54006eecbcf04e" target="_top" xlink:title="Spectral (reciprocal&#45;lattice) part of Ewald sum for .">
<polygon fill="white" stroke="#666666" points="401,-20.75 208.75,-20.75 208.75,0 401,0 401,-20.75"/>
<text xml:space="preserve" text-anchor="middle" x="304.88" y="-7.25" font-family="Helvetica,sans-Serif" font-size="10.00">GreenFHom3DPer2D::EwaldSpectral</text>
</a>
</g>
</g>
<!-- Node1&#45;&gt;Node7 -->
<g id="edge7_Node000001_Node000007" class="edge">
<title>Node1&#45;&gt;Node7</title>
<g id="a_edge7_Node000001_Node000007"><a xlink:title=" ">
<path fill="none" stroke="#63b8ff" d="M172.94,-23.68C180.89,-22.87 189.02,-22.05 197.13,-21.22"/>
<polygon fill="#63b8ff" stroke="#63b8ff" points="197.47,-24.71 207.07,-20.21 196.77,-17.74 197.47,-24.71"/>
</a>
</g>
</g>
<!-- Node3 -->
<g id="Node000003" class="node">
<title>Node3</title>
<g id="a_Node000003"><a xlink:href="classGreenF.html#abf00726011a4eca4109bc43125218d30" target="_top" xlink:title="Evaluate erfc via the 2D lookup table if available.">
<polygon fill="white" stroke="#666666" points="524.25,-62.75 437,-62.75 437,-42 524.25,-42 524.25,-62.75"/>
<text xml:space="preserve" text-anchor="middle" x="480.62" y="-49.25" font-family="Helvetica,sans-Serif" font-size="10.00">GreenF::EvErfc</text>
</a>
</g>
</g>
<!-- Node2&#45;&gt;Node3 -->
<g id="edge2_Node000002_Node000003" class="edge">
<title>Node2&#45;&gt;Node3</title>
<g id="a_edge2_Node000002_Node000003"><a xlink:title=" ">
<path fill="none" stroke="#63b8ff" d="M398.35,-53.78C407.6,-53.62 416.76,-53.46 425.42,-53.31"/>
<polygon fill="#63b8ff" stroke="#63b8ff" points="425.42,-56.81 435.36,-53.14 425.3,-49.81 425.42,-56.81"/>
</a>
</g>
</g>
<!-- Node4 -->
<g id="Node000004" class="node">
<title>Node4</title>
<g id="a_Node000004"><a xlink:href="mathFunctions_8cpp.html#a7916c6b62310fe9cf38ec2a2890aaad4" target="_top" xlink:title="Complementary error function for complex arguments.">
<polygon fill="white" stroke="#666666" points="600.25,-77.75 560.25,-77.75 560.25,-57 600.25,-57 600.25,-77.75"/>
<text xml:space="preserve" text-anchor="middle" x="580.25" y="-64.25" font-family="Helvetica,sans-Serif" font-size="10.00">cerfc</text>
</a>
</g>
</g>
<!-- Node3&#45;&gt;Node4 -->
<g id="edge3_Node000003_Node000004" class="edge">
<title>Node3&#45;&gt;Node4</title>
<g id="a_edge3_Node000003_Node000004"><a xlink:title=" ">
<path fill="none" stroke="#63b8ff" d="M524.73,-59C532.77,-60.23 541.03,-61.5 548.6,-62.67"/>
<polygon fill="#63b8ff" stroke="#63b8ff" points="547.9,-66.1 558.32,-64.16 548.97,-59.18 547.9,-66.1"/>
</a>
</g>
</g>
<!-- Node6 -->
<g id="Node000006" class="node">
<title>Node6</title>
<g id="a_Node000006"><a xlink:href="Domain_8cpp.html#aafa3e4fa6318b2f8740f4dbd50c367e5" target="_top" xlink:title="Extract the real part of each component of a complex 3&#45;vector.">
<polygon fill="white" stroke="#666666" points="597.62,-20.75 562.88,-20.75 562.88,0 597.62,0 597.62,-20.75"/>
<text xml:space="preserve" text-anchor="middle" x="580.25" y="-7.25" font-family="Helvetica,sans-Serif" font-size="10.00">real</text>
</a>
</g>
</g>
<!-- Node3&#45;&gt;Node6 -->
<g id="edge5_Node000003_Node000006" class="edge">
<title>Node3&#45;&gt;Node6</title>
<g id="a_edge5_Node000003_Node000006"><a xlink:title=" ">
<path fill="none" stroke="#63b8ff" d="M506.77,-41.56C520.72,-35.55 538.08,-28.09 552.32,-21.96"/>
<polygon fill="#63b8ff" stroke="#63b8ff" points="553.29,-25.35 561.09,-18.19 550.52,-18.92 553.29,-25.35"/>
</a>
</g>
</g>
<!-- Node5 -->
<g id="Node000005" class="node">
<title>Node5</title>
<g id="a_Node000005"><a xlink:href="mathFunctions_8cpp.html#abc57cde75234d7e165a9ebcdb45f2c29" target="_top" xlink:title="Error function for complex arguments.">
<polygon fill="white" stroke="#666666" points="671,-77.75 636.25,-77.75 636.25,-57 671,-57 671,-77.75"/>
<text xml:space="preserve" text-anchor="middle" x="653.62" y="-64.25" font-family="Helvetica,sans-Serif" font-size="10.00">cerf</text>
</a>
</g>
</g>
<!-- Node4&#45;&gt;Node5 -->
<g id="edge4_Node000004_Node000005" class="edge">
<title>Node4&#45;&gt;Node5</title>
<g id="a_edge4_Node000004_Node000005"><a xlink:title=" ">
<path fill="none" stroke="#63b8ff" d="M600.38,-67.38C607.81,-67.38 616.48,-67.38 624.59,-67.38"/>
<polygon fill="#63b8ff" stroke="#63b8ff" points="624.36,-70.88 634.36,-67.38 624.36,-63.88 624.36,-70.88"/>
</a>
</g>
</g>
<!-- Node6&#45;&gt;Node6 -->
<g id="edge6_Node000006_Node000006" class="edge">
<title>Node6&#45;&gt;Node6</title>
<g id="a_edge6_Node000006_Node000006"><a xlink:title=" ">
<path fill="none" stroke="#63b8ff" d="M568.43,-21.15C563.7,-29.81 567.64,-38.75 580.25,-38.75 586.95,-38.75 591.2,-36.23 593.01,-32.56"/>
<polygon fill="#63b8ff" stroke="#63b8ff" points="596.5,-32.34 592.2,-22.66 589.53,-32.91 596.5,-32.34"/>
</a>
</g>
</g>
<!-- Node7&#45;&gt;Node3 -->
<g id="edge10_Node000007_Node000003" class="edge">
<title>Node7&#45;&gt;Node3</title>
<g id="a_edge10_Node000007_Node000003"><a xlink:title=" ">
<path fill="none" stroke="#63b8ff" d="M364.41,-21.23C376.55,-23.71 389.22,-26.48 401,-29.38 411.76,-32.02 423.26,-35.18 434.05,-38.31"/>
<polygon fill="#63b8ff" stroke="#63b8ff" points="432.93,-41.63 443.52,-41.1 434.91,-34.92 432.93,-41.63"/>
</a>
</g>
</g>
<!-- Node8 -->
<g id="Node000008" class="node">
<title>Node8</title>
<g id="a_Node000008"><a xlink:href="group__greenFunction.html#gac0a52dce23be7dacdf97c68653b6c137" target="_top" xlink:title="Complex square root with a branch cut along the negative real axis.">
<polygon fill="white" stroke="#666666" points="500.62,-20.75 460.62,-20.75 460.62,0 500.62,0 500.62,-20.75"/>
<text xml:space="preserve" text-anchor="middle" x="480.62" y="-7.25" font-family="Helvetica,sans-Serif" font-size="10.00">csqrt</text>
</a>
</g>
</g>
<!-- Node7&#45;&gt;Node8 -->
<g id="edge8_Node000007_Node000008" class="edge">
<title>Node7&#45;&gt;Node8</title>
<g id="a_edge8_Node000007_Node000008"><a xlink:title=" ">
<path fill="none" stroke="#63b8ff" d="M401.39,-10.38C418.54,-10.38 435.23,-10.38 448.76,-10.38"/>
<polygon fill="#63b8ff" stroke="#63b8ff" points="448.71,-13.88 458.71,-10.38 448.71,-6.88 448.71,-13.88"/>
</a>
</g>
</g>
<!-- Node8&#45;&gt;Node6 -->
<g id="edge9_Node000008_Node000006" class="edge">
<title>Node8&#45;&gt;Node6</title>
<g id="a_edge9_Node000008_Node000006"><a xlink:title=" ">
<path fill="none" stroke="#63b8ff" d="M500.91,-10.38C515.26,-10.38 535.06,-10.38 551.16,-10.38"/>
<polygon fill="#63b8ff" stroke="#63b8ff" points="551.09,-13.88 561.09,-10.38 551.09,-6.88 551.09,-13.88"/>
</a>
</g>
</g>
</g>
</svg>
