<?xml version="1.0" encoding="UTF-8" standalone="no"?>
<!DOCTYPE svg PUBLIC "-//W3C//DTD SVG 1.1//EN"
 "http://www.w3.org/Graphics/SVG/1.1/DTD/svg11.dtd">
<!-- Generated by graphviz version 13.1.2 (20250809.0930)
 -->
<!-- Title: Domain::PrintAllEdges Pages: 1 -->
<svg width="306pt" height="68pt"
 viewBox="0.00 0.00 306.00 68.00" xmlns="http://www.w3.org/2000/svg" xmlns:xlink="http://www.w3.org/1999/xlink">
<g id="graph0" class="graph" transform="scale(1 1) rotate(0) translate(4 63.75)">
<title>Domain::PrintAllEdges</title>
<!-- Node1 -->
<g id="Node000001" class="node">
<title>Node1</title>
<g id="a_Node000001"><a xlink:title="Debug: print all edges and the RWGs that live on them.">
<polygon fill="#999999" stroke="#666666" points="124.75,-39.75 0,-39.75 0,-19 124.75,-19 124.75,-39.75"/>
<text xml:space="preserve" text-anchor="middle" x="62.38" y="-26.25" font-family="Helvetica,sans-Serif" font-size="10.00">Domain::PrintAllEdges</text>
</a>
</g>
</g>
<!-- Node2 -->
<g id="Node000002" class="node">
<title>Node2</title>
<g id="a_Node000002"><a xlink:href="classSurfaceMesh.html#aff6d5c69ce476f61d264b8fbc28e8b23" target="_top" xlink:title="Total number of stored unique edges.">
<polygon fill="white" stroke="#666666" points="298.25,-59.75 160.75,-59.75 160.75,-39 298.25,-39 298.25,-59.75"/>
<text xml:space="preserve" text-anchor="middle" x="229.5" y="-46.25" font-family="Helvetica,sans-Serif" font-size="10.00">SurfaceMesh::EdgeCount</text>
</a>
</g>
</g>
<!-- Node1&#45;&gt;Node2 -->
<g id="edge1_Node000001_Node000002" class="edge">
<title>Node1&#45;&gt;Node2</title>
<g id="a_edge1_Node000001_Node000002"><a xlink:title=" ">
<path fill="none" stroke="#63b8ff" d="M124.86,-36.82C132.71,-37.77 140.84,-38.76 148.93,-39.74"/>
<polygon fill="#63b8ff" stroke="#63b8ff" points="148.45,-43.2 158.8,-40.93 149.29,-36.26 148.45,-43.2"/>
</a>
</g>
</g>
<!-- Node3 -->
<g id="Node000003" class="node">
<title>Node3</title>
<g id="a_Node000003"><a xlink:href="classTriangle.html#a0752d2c9488c7c44b851b8f75abcaa79" target="_top" xlink:title="Node position (by value) for local index 0..2.">
<polygon fill="white" stroke="#666666" points="272.38,-20.75 186.62,-20.75 186.62,0 272.38,0 272.38,-20.75"/>
<text xml:space="preserve" text-anchor="middle" x="229.5" y="-7.25" font-family="Helvetica,sans-Serif" font-size="10.00">Triangle::Node</text>
</a>
</g>
</g>
<!-- Node1&#45;&gt;Node3 -->
<g id="edge2_Node000001_Node000003" class="edge">
<title>Node1&#45;&gt;Node3</title>
<g id="a_edge2_Node000001_Node000003"><a xlink:title=" ">
<path fill="none" stroke="#63b8ff" d="M124.86,-22.3C141.32,-20.41 158.97,-18.38 174.95,-16.54"/>
<polygon fill="#63b8ff" stroke="#63b8ff" points="175.22,-20.03 184.76,-15.41 174.42,-13.07 175.22,-20.03"/>
</a>
</g>
</g>
</g>
</svg>
