<?xml version="1.0" encoding="UTF-8" standalone="no"?>
<!DOCTYPE svg PUBLIC "-//W3C//DTD SVG 1.1//EN"
 "http://www.w3.org/Graphics/SVG/1.1/DTD/svg11.dtd">
<!-- Generated by graphviz version 13.1.2 (20250809.0930)
 -->
<!-- Title: GreenF::EvErfc Pages: 1 -->
<svg width="774pt" height="505pt"
 viewBox="0.00 0.00 774.00 505.00" xmlns="http://www.w3.org/2000/svg" xmlns:xlink="http://www.w3.org/1999/xlink">
<g id="graph0" class="graph" transform="scale(1 1) rotate(0) translate(4 500.5)">
<title>GreenF::EvErfc</title>
<!-- Node1 -->
<g id="Node000001" class="node">
<title>Node1</title>
<g id="a_Node000001"><a xlink:title="Evaluate erfc via the 2D lookup table if available.">
<polygon fill="#999999" stroke="#666666" points="766,-280.12 678.75,-280.12 678.75,-259.38 766,-259.38 766,-280.12"/>
<text xml:space="preserve" text-anchor="middle" x="722.38" y="-266.62" font-family="Helvetica,sans-Serif" font-size="10.00">GreenF::EvErfc</text>
</a>
</g>
</g>
<!-- Node2 -->
<g id="Node000002" class="node">
<title>Node2</title>
<g id="a_Node000002"><a xlink:href="classGreenFHom3DPer2D.html#ad219414131e33eb361fe2240be9612a0" target="_top" xlink:title="Spatial part returning both normal and gradient.">
<polygon fill="white" stroke="#666666" points="632.25,-474.5 461,-474.5 461,-441 632.25,-441 632.25,-474.5"/>
<text xml:space="preserve" text-anchor="start" x="469" y="-461" font-family="Helvetica,sans-Serif" font-size="10.00">GreenFHom3DPer2D::EwaldAnd</text>
<text xml:space="preserve" text-anchor="middle" x="546.62" y="-448.25" font-family="Helvetica,sans-Serif" font-size="10.00">GradientSpatial</text>
</a>
</g>
</g>
<!-- Node1&#45;&gt;Node2 -->
<g id="edge1_Node000001_Node000002" class="edge">
<title>Node1&#45;&gt;Node2</title>
<g id="a_edge1_Node000001_Node000002"><a xlink:title=" ">
<path fill="none" stroke="#63b8ff" d="M716.89,-291.55C708.55,-326.47 687.31,-394.76 642.75,-431.75 638.67,-435.14 634.18,-438.09 629.44,-440.66"/>
<polygon fill="#63b8ff" stroke="#63b8ff" points="720.3,-292.32 719.07,-281.8 713.47,-290.79 720.3,-292.32"/>
</a>
</g>
</g>
<!-- Node7 -->
<g id="Node000007" class="node">
<title>Node7</title>
<g id="a_Node000007"><a xlink:href="classGreenFHom3DPer2D.html#af034587a03115087737a86ed71b664f4" target="_top" xlink:title="Spatial part returning .">
<polygon fill="white" stroke="#666666" points="632.25,-370.5 461,-370.5 461,-337 632.25,-337 632.25,-370.5"/>
<text xml:space="preserve" text-anchor="start" x="469" y="-357" font-family="Helvetica,sans-Serif" font-size="10.00">GreenFHom3DPer2D::EwaldAnd</text>
<text xml:space="preserve" text-anchor="middle" x="546.62" y="-344.25" font-family="Helvetica,sans-Serif" font-size="10.00">GradientSpatialSmoothed</text>
</a>
</g>
</g>
<!-- Node1&#45;&gt;Node7 -->
<g id="edge6_Node000001_Node000007" class="edge">
<title>Node1&#45;&gt;Node7</title>
<g id="a_edge6_Node000001_Node000007"><a xlink:title=" ">
<path fill="none" stroke="#63b8ff" d="M701.26,-287.87C686.13,-300.64 664.37,-317.28 642.75,-327.75 635.97,-331.03 628.71,-333.96 621.34,-336.55"/>
<polygon fill="#63b8ff" stroke="#63b8ff" points="703.35,-290.69 708.62,-281.49 698.77,-285.4 703.35,-290.69"/>
</a>
</g>
</g>
<!-- Node9 -->
<g id="Node000009" class="node">
<title>Node9</title>
<g id="a_Node000009"><a xlink:href="classGreenFHom3DPer2D.html#a025f6ce600bdd42ae02716905c75ba66" target="_top" xlink:title="Spectral part returning .">
<polygon fill="white" stroke="#666666" points="632.25,-422.5 461,-422.5 461,-389 632.25,-389 632.25,-422.5"/>
<text xml:space="preserve" text-anchor="start" x="469" y="-409" font-family="Helvetica,sans-Serif" font-size="10.00">GreenFHom3DPer2D::EwaldAnd</text>
<text xml:space="preserve" text-anchor="middle" x="546.62" y="-396.25" font-family="Helvetica,sans-Serif" font-size="10.00">GradientSpectral</text>
</a>
</g>
</g>
<!-- Node1&#45;&gt;Node9 -->
<g id="edge11_Node000001_Node000009" class="edge">
<title>Node1&#45;&gt;Node9</title>
<g id="a_edge11_Node000001_Node000009"><a xlink:title=" ">
<path fill="none" stroke="#63b8ff" d="M711.98,-290.56C699.66,-315.51 675.65,-356.83 642.75,-379.75 637.97,-383.08 632.79,-385.98 627.39,-388.51"/>
<polygon fill="#63b8ff" stroke="#63b8ff" points="715.04,-292.28 716.17,-281.74 708.72,-289.27 715.04,-292.28"/>
</a>
</g>
</g>
<!-- Node10 -->
<g id="Node000010" class="node">
<title>Node10</title>
<g id="a_Node000010"><a xlink:href="classGreenFHom3DPer2D.html#a1bf2f1eb77a84b027b99ec75d31c8576" target="_top" xlink:title="Spatial (real&#45;space images) part of Ewald sum.">
<polygon fill="white" stroke="#666666" points="639.75,-319.12 453.5,-319.12 453.5,-298.38 639.75,-298.38 639.75,-319.12"/>
<text xml:space="preserve" text-anchor="middle" x="546.62" y="-305.62" font-family="Helvetica,sans-Serif" font-size="10.00">GreenFHom3DPer2D::EwaldSpatial</text>
</a>
</g>
</g>
<!-- Node1&#45;&gt;Node10 -->
<g id="edge14_Node000001_Node000010" class="edge">
<title>Node1&#45;&gt;Node10</title>
<g id="a_edge14_Node000001_Node000010"><a xlink:title=" ">
<path fill="none" stroke="#63b8ff" d="M667.47,-283C659.2,-284.97 650.75,-286.94 642.75,-288.75 629.09,-291.84 614.28,-295.02 600.52,-297.92"/>
<polygon fill="#63b8ff" stroke="#63b8ff" points="668.2,-286.43 677.11,-280.69 666.57,-279.62 668.2,-286.43"/>
</a>
</g>
</g>
<!-- Node14 -->
<g id="Node000014" class="node">
<title>Node14</title>
<g id="a_Node000014"><a xlink:href="classGreenFHom3DPer2D.html#accc01158b08720b45256b17ed3536d8b" target="_top" xlink:title="Spatial part for the smoothed scalar kernel .">
<polygon fill="white" stroke="#666666" points="639.75,-241.5 453.5,-241.5 453.5,-208 639.75,-208 639.75,-241.5"/>
<text xml:space="preserve" text-anchor="start" x="461.5" y="-228" font-family="Helvetica,sans-Serif" font-size="10.00">GreenFHom3DPer2D::EwaldSpatial</text>
<text xml:space="preserve" text-anchor="middle" x="546.62" y="-215.25" font-family="Helvetica,sans-Serif" font-size="10.00">Smoothed</text>
</a>
</g>
</g>
<!-- Node1&#45;&gt;Node14 -->
<g id="edge18_Node000001_Node000014" class="edge">
<title>Node1&#45;&gt;Node14</title>
<g id="a_edge18_Node000001_Node000014"><a xlink:title=" ">
<path fill="none" stroke="#63b8ff" d="M668.77,-256.13C651.52,-251.66 632.13,-246.64 614.01,-241.94"/>
<polygon fill="#63b8ff" stroke="#63b8ff" points="667.73,-259.47 678.29,-258.59 669.49,-252.7 667.73,-259.47"/>
</a>
</g>
</g>
<!-- Node18 -->
<g id="Node000018" class="node">
<title>Node18</title>
<g id="a_Node000018"><a xlink:href="classGreenFHom3DPer2D.html#aad98b9953626259eda54006eecbcf04e" target="_top" xlink:title="Spectral (reciprocal&#45;lattice) part of Ewald sum for .">
<polygon fill="white" stroke="#666666" points="642.75,-280.12 450.5,-280.12 450.5,-259.38 642.75,-259.38 642.75,-280.12"/>
<text xml:space="preserve" text-anchor="middle" x="546.62" y="-266.62" font-family="Helvetica,sans-Serif" font-size="10.00">GreenFHom3DPer2D::EwaldSpectral</text>
</a>
</g>
</g>
<!-- Node1&#45;&gt;Node18 -->
<g id="edge22_Node000001_Node000018" class="edge">
<title>Node1&#45;&gt;Node18</title>
<g id="a_edge22_Node000001_Node000018"><a xlink:title=" ">
<path fill="none" stroke="#63b8ff" d="M667.11,-269.75C659.42,-269.75 651.34,-269.75 643.15,-269.75"/>
<polygon fill="#63b8ff" stroke="#63b8ff" points="666.91,-273.25 676.91,-269.75 666.91,-266.25 666.91,-273.25"/>
</a>
</g>
</g>
<!-- Node19 -->
<g id="Node000019" class="node">
<title>Node19</title>
<g id="a_Node000019"><a xlink:href="classGreenFHom3DPer2D.html#a9e049d83cd897078023b76fb89558d31" target="_top" xlink:title="Spatial part of the source&#45;gradient.">
<polygon fill="white" stroke="#666666" points="629.25,-189.5 464,-189.5 464,-156 629.25,-156 629.25,-189.5"/>
<text xml:space="preserve" text-anchor="start" x="472" y="-176" font-family="Helvetica,sans-Serif" font-size="10.00">GreenFHom3DPer2D::Gradient</text>
<text xml:space="preserve" text-anchor="middle" x="546.62" y="-163.25" font-family="Helvetica,sans-Serif" font-size="10.00">EwaldSpatial</text>
</a>
</g>
</g>
<!-- Node1&#45;&gt;Node19 -->
<g id="edge27_Node000001_Node000019" class="edge">
<title>Node1&#45;&gt;Node19</title>
<g id="a_edge27_Node000001_Node000019"><a xlink:title=" ">
<path fill="none" stroke="#63b8ff" d="M705.1,-250.72C690.36,-234.65 667.25,-212.16 642.75,-198.75 636.59,-195.38 629.97,-192.42 623.18,-189.83"/>
<polygon fill="#63b8ff" stroke="#63b8ff" points="702.11,-252.63 711.37,-257.76 707.33,-247.97 702.11,-252.63"/>
</a>
</g>
</g>
<!-- Node24 -->
<g id="Node000024" class="node">
<title>Node24</title>
<g id="a_Node000024"><a xlink:href="classGreenFHom3DPer2D.html#a11d147713f81b9b9684aa9d39514a2c6" target="_top" xlink:title="Spatial part of the smoothed source&#45;gradient .">
<polygon fill="white" stroke="#666666" points="629.25,-85.5 464,-85.5 464,-52 629.25,-52 629.25,-85.5"/>
<text xml:space="preserve" text-anchor="start" x="472" y="-72" font-family="Helvetica,sans-Serif" font-size="10.00">GreenFHom3DPer2D::Gradient</text>
<text xml:space="preserve" text-anchor="middle" x="546.62" y="-59.25" font-family="Helvetica,sans-Serif" font-size="10.00">EwaldSpatialSmoothed</text>
</a>
</g>
</g>
<!-- Node1&#45;&gt;Node24 -->
<g id="edge32_Node000001_Node000024" class="edge">
<title>Node1&#45;&gt;Node24</title>
<g id="a_edge32_Node000001_Node000024"><a xlink:title=" ">
<path fill="none" stroke="#63b8ff" d="M717.83,-248.28C710.57,-211.29 690.5,-135.6 642.75,-94.75 638.72,-91.3 634.27,-88.3 629.56,-85.7"/>
<polygon fill="#63b8ff" stroke="#63b8ff" points="714.32,-248.53 719.55,-257.74 721.2,-247.28 714.32,-248.53"/>
</a>
</g>
</g>
<!-- Node28 -->
<g id="Node000028" class="node">
<title>Node28</title>
<g id="a_Node000028"><a xlink:href="classGreenFHom3DPer2D.html#a1ab7bcf35b15f67bb9824040c34c8bbc" target="_top" xlink:title="Spectral part of the source&#45;gradient .">
<polygon fill="white" stroke="#666666" points="629.25,-137.5 464,-137.5 464,-104 629.25,-104 629.25,-137.5"/>
<text xml:space="preserve" text-anchor="start" x="472" y="-124" font-family="Helvetica,sans-Serif" font-size="10.00">GreenFHom3DPer2D::Gradient</text>
<text xml:space="preserve" text-anchor="middle" x="546.62" y="-111.25" font-family="Helvetica,sans-Serif" font-size="10.00">EwaldSpectral</text>
</a>
</g>
</g>
<!-- Node1&#45;&gt;Node28 -->
<g id="edge37_Node000001_Node000028" class="edge">
<title>Node1&#45;&gt;Node28</title>
<g id="a_edge37_Node000001_Node000028"><a xlink:title=" ">
<path fill="none" stroke="#63b8ff" d="M713.47,-248.5C702.1,-220.86 678.47,-173.04 642.75,-146.75 638.2,-143.4 633.24,-140.48 628.06,-137.94"/>
<polygon fill="#63b8ff" stroke="#63b8ff" points="710.12,-249.55 717.04,-257.57 716.64,-246.99 710.12,-249.55"/>
</a>
</g>
</g>
<!-- Node3 -->
<g id="Node000003" class="node">
<title>Node3</title>
<g id="a_Node000003"><a xlink:href="classGreenFHom3DPer2D.html#aea4d858bd544ba5e9a8de1197b572b4e" target="_top" xlink:title="Evaluate &#160;for a translation in one call.">
<polygon fill="white" stroke="#666666" points="405.5,-474.5 221.5,-474.5 221.5,-441 405.5,-441 405.5,-474.5"/>
<text xml:space="preserve" text-anchor="start" x="229.5" y="-461" font-family="Helvetica,sans-Serif" font-size="10.00">GreenFHom3DPer2D::Evaluateand</text>
<text xml:space="preserve" text-anchor="middle" x="313.5" y="-448.25" font-family="Helvetica,sans-Serif" font-size="10.00">GradientTranslate</text>
</a>
</g>
</g>
<!-- Node2&#45;&gt;Node3 -->
<g id="edge2_Node000002_Node000003" class="edge">
<title>Node2&#45;&gt;Node3</title>
<g id="a_edge2_Node000002_Node000003"><a xlink:title=" ">
<path fill="none" stroke="#63b8ff" d="M449.1,-457.75C434.7,-457.75 419.9,-457.75 405.61,-457.75"/>
<polygon fill="#63b8ff" stroke="#63b8ff" points="449.03,-461.25 459.03,-457.75 449.03,-454.25 449.03,-461.25"/>
</a>
</g>
</g>
<!-- Node4 -->
<g id="Node000004" class="node">
<title>Node4</title>
<g id="a_Node000004"><a xlink:href="classGreenFHom3DPer2D.html#a233c2185952220bd16acae2142f05cc1" target="_top" xlink:title="term at an observation point.">
<polygon fill="white" stroke="#666666" points="172,-496.5 4.5,-496.5 4.5,-463 172,-463 172,-496.5"/>
<text xml:space="preserve" text-anchor="start" x="12.5" y="-483" font-family="Helvetica,sans-Serif" font-size="10.00">GreenFHom3DPer2D::Integrate</text>
<text xml:space="preserve" text-anchor="middle" x="88.25" y="-470.25" font-family="Helvetica,sans-Serif" font-size="10.00">Delta</text>
</a>
</g>
</g>
<!-- Node3&#45;&gt;Node4 -->
<g id="edge3_Node000003_Node000004" class="edge">
<title>Node3&#45;&gt;Node4</title>
<g id="a_edge3_Node000003_Node000004"><a xlink:title=" ">
<path fill="none" stroke="#63b8ff" d="M209.63,-467.89C197.12,-469.12 184.47,-470.37 172.31,-471.57"/>
<polygon fill="#63b8ff" stroke="#63b8ff" points="209.94,-471.37 219.55,-466.91 209.25,-464.41 209.94,-471.37"/>
</a>
</g>
</g>
<!-- Node5 -->
<g id="Node000005" class="node">
<title>Node5</title>
<g id="a_Node000005"><a xlink:href="classGreenFHom3DPer2D.html#a84a8c855a27c895ff24f6771037284a5" target="_top" xlink:title="Compute &#160;for all RWGs on a source triangle.">
<polygon fill="white" stroke="#666666" points="169.38,-444.5 7.12,-444.5 7.12,-411 169.38,-411 169.38,-444.5"/>
<text xml:space="preserve" text-anchor="start" x="15.12" y="-431" font-family="Helvetica,sans-Serif" font-size="10.00">GreenFHom3DPer2D::SameTri</text>
<text xml:space="preserve" text-anchor="middle" x="88.25" y="-418.25" font-family="Helvetica,sans-Serif" font-size="10.00">DeltaKappa</text>
</a>
</g>
</g>
<!-- Node3&#45;&gt;Node5 -->
<g id="edge4_Node000003_Node000005" class="edge">
<title>Node3&#45;&gt;Node5</title>
<g id="a_edge4_Node000003_Node000005"><a xlink:title=" ">
<path fill="none" stroke="#63b8ff" d="M209.83,-443.95C196.41,-442.15 182.81,-440.32 169.82,-438.58"/>
<polygon fill="#63b8ff" stroke="#63b8ff" points="209.17,-447.4 219.55,-445.26 210.11,-440.46 209.17,-447.4"/>
</a>
</g>
</g>
<!-- Node6 -->
<g id="Node000006" class="node">
<title>Node6</title>
<g id="a_Node000006"><a xlink:href="classGreenFHom3DPer2D.html#a1dc9dd84c93ee10b2fb4b1866103d957" target="_top" xlink:title="Compute &#160;and &#160;for all RWG pairs on two triangles.">
<polygon fill="white" stroke="#666666" points="176.5,-393.12 0,-393.12 0,-372.38 176.5,-372.38 176.5,-393.12"/>
<text xml:space="preserve" text-anchor="middle" x="88.25" y="-379.62" font-family="Helvetica,sans-Serif" font-size="10.00">GreenFHom3DPer2D::SameTriDK</text>
</a>
</g>
</g>
<!-- Node3&#45;&gt;Node6 -->
<g id="edge5_Node000003_Node000006" class="edge">
<title>Node3&#45;&gt;Node6</title>
<g id="a_edge5_Node000003_Node000006"><a xlink:title=" ">
<path fill="none" stroke="#63b8ff" d="M222.5,-436.44C219.08,-434.97 215.73,-433.41 212.5,-431.75 193.97,-422.23 195.21,-410.89 176.5,-401.75 169.81,-398.48 162.57,-395.77 155.21,-393.53"/>
<polygon fill="#63b8ff" stroke="#63b8ff" points="220.96,-439.59 231.55,-440 223.52,-433.08 220.96,-439.59"/>
</a>
</g>
</g>
<!-- Node8 -->
<g id="Node000008" class="node">
<title>Node8</title>
<g id="a_Node000008"><a xlink:href="classGreenFHom3DPer2D.html#ab49a15bcfe7b44d2338c9182f003d385" target="_top" xlink:title="Evaluate &#160;(smoothed) for a translation in one call.">
<polygon fill="white" stroke="#666666" points="405.5,-422.5 221.5,-422.5 221.5,-389 405.5,-389 405.5,-422.5"/>
<text xml:space="preserve" text-anchor="start" x="229.5" y="-409" font-family="Helvetica,sans-Serif" font-size="10.00">GreenFHom3DPer2D::Evaluateand</text>
<text xml:space="preserve" text-anchor="middle" x="313.5" y="-396.25" font-family="Helvetica,sans-Serif" font-size="10.00">GradientSmoothedTranslate</text>
</a>
</g>
</g>
<!-- Node7&#45;&gt;Node8 -->
<g id="edge7_Node000007_Node000008" class="edge">
<title>Node7&#45;&gt;Node8</title>
<g id="a_edge7_Node000007_Node000008"><a xlink:title=" ">
<path fill="none" stroke="#63b8ff" d="M457.95,-373.48C435.89,-378.44 412.39,-383.73 390.93,-388.55"/>
<polygon fill="#63b8ff" stroke="#63b8ff" points="458.52,-376.93 467.51,-371.33 456.98,-370.11 458.52,-376.93"/>
</a>
</g>
</g>
<!-- Node8&#45;&gt;Node4 -->
<g id="edge8_Node000008_Node000004" class="edge">
<title>Node8&#45;&gt;Node4</title>
<g id="a_edge8_Node000008_Node000004"><a xlink:title=" ">
<path fill="none" stroke="#63b8ff" d="M225.86,-426.56C221.3,-428.19 216.82,-429.92 212.5,-431.75 195.24,-439.08 193.63,-446.12 176.5,-453.75 169.28,-456.97 161.55,-459.92 153.79,-462.59"/>
<polygon fill="#63b8ff" stroke="#63b8ff" points="226.83,-429.93 235.19,-423.42 224.6,-423.29 226.83,-429.93"/>
</a>
</g>
</g>
<!-- Node8&#45;&gt;Node5 -->
<g id="edge9_Node000008_Node000005" class="edge">
<title>Node8&#45;&gt;Node5</title>
<g id="a_edge9_Node000008_Node000005"><a xlink:title=" ">
<path fill="none" stroke="#63b8ff" d="M209.83,-415.87C196.41,-417.19 182.81,-418.53 169.82,-419.81"/>
<polygon fill="#63b8ff" stroke="#63b8ff" points="209.94,-419.37 219.55,-414.91 209.25,-412.41 209.94,-419.37"/>
</a>
</g>
</g>
<!-- Node8&#45;&gt;Node6 -->
<g id="edge10_Node000008_Node000006" class="edge">
<title>Node8&#45;&gt;Node6</title>
<g id="a_edge10_Node000008_Node000006"><a xlink:title=" ">
<path fill="none" stroke="#63b8ff" d="M209.71,-395.16C198.76,-394.03 187.7,-392.89 176.95,-391.79"/>
<polygon fill="#63b8ff" stroke="#63b8ff" points="209.24,-398.63 219.55,-396.17 209.96,-391.67 209.24,-398.63"/>
</a>
</g>
</g>
<!-- Node9&#45;&gt;Node3 -->
<g id="edge13_Node000009_Node000003" class="edge">
<title>Node9&#45;&gt;Node3</title>
<g id="a_edge13_Node000009_Node000003"><a xlink:title=" ">
<path fill="none" stroke="#63b8ff" d="M457.95,-425.48C435.89,-430.44 412.39,-435.73 390.93,-440.55"/>
<polygon fill="#63b8ff" stroke="#63b8ff" points="458.52,-428.93 467.51,-423.33 456.98,-422.11 458.52,-428.93"/>
</a>
</g>
</g>
<!-- Node9&#45;&gt;Node8 -->
<g id="edge12_Node000009_Node000008" class="edge">
<title>Node9&#45;&gt;Node8</title>
<g id="a_edge12_Node000009_Node000008"><a xlink:title=" ">
<path fill="none" stroke="#63b8ff" d="M449.1,-405.75C434.7,-405.75 419.9,-405.75 405.61,-405.75"/>
<polygon fill="#63b8ff" stroke="#63b8ff" points="449.03,-409.25 459.03,-405.75 449.03,-402.25 449.03,-409.25"/>
</a>
</g>
</g>
<!-- Node11 -->
<g id="Node000011" class="node">
<title>Node11</title>
<g id="a_Node000011"><a xlink:href="classGreenFHom3DPer2D.html#a268d4706bd313c8eadb38e26b15184f0" target="_top" xlink:title="Scalar &#160;for a specific lattice translation.">
<polygon fill="white" stroke="#666666" points="396.5,-370.5 230.5,-370.5 230.5,-337 396.5,-337 396.5,-370.5"/>
<text xml:space="preserve" text-anchor="start" x="238.5" y="-357" font-family="Helvetica,sans-Serif" font-size="10.00">GreenFHom3DPer2D::Evaluate</text>
<text xml:space="preserve" text-anchor="middle" x="313.5" y="-344.25" font-family="Helvetica,sans-Serif" font-size="10.00">Translate</text>
</a>
</g>
</g>
<!-- Node10&#45;&gt;Node11 -->
<g id="edge15_Node000010_Node000011" class="edge">
<title>Node10&#45;&gt;Node11</title>
<g id="a_edge15_Node000010_Node000011"><a xlink:title=" ">
<path fill="none" stroke="#63b8ff" d="M478.87,-321.75C453.25,-326.74 423.71,-332.49 396.79,-337.73"/>
<polygon fill="#63b8ff" stroke="#63b8ff" points="479.34,-325.22 488.49,-319.88 478,-318.35 479.34,-325.22"/>
</a>
</g>
</g>
<!-- Node12 -->
<g id="Node000012" class="node">
<title>Node12</title>
<g id="a_Node000012"><a xlink:href="classGreenFHom3DPer2D.html#a359a21bc178e1c0d21125f8af5ae4fcb" target="_top" xlink:title="Ewald&#45;summed scalar kernel (2D periodic).">
<polygon fill="white" stroke="#666666" points="389.75,-319.12 237.25,-319.12 237.25,-298.38 389.75,-298.38 389.75,-319.12"/>
<text xml:space="preserve" text-anchor="middle" x="313.5" y="-305.62" font-family="Helvetica,sans-Serif" font-size="10.00">GreenFHom3DPer2D::Ewald</text>
</a>
</g>
</g>
<!-- Node10&#45;&gt;Node12 -->
<g id="edge16_Node000010_Node000012" class="edge">
<title>Node10&#45;&gt;Node12</title>
<g id="a_edge16_Node000010_Node000012"><a xlink:title=" ">
<path fill="none" stroke="#63b8ff" d="M441.88,-308.75C424.41,-308.75 406.59,-308.75 390.02,-308.75"/>
<polygon fill="#63b8ff" stroke="#63b8ff" points="441.77,-312.25 451.77,-308.75 441.77,-305.25 441.77,-312.25"/>
</a>
</g>
</g>
<!-- Node13 -->
<g id="Node000013" class="node">
<title>Node13</title>
<g id="a_Node000013"><a xlink:href="classGreenFHom3DPer2D.html#a4fcccf5350453546ac226492ff19bcd0" target="_top" xlink:title="Scalar Bloch&#45;periodic Green&#39;s function .">
<polygon fill="white" stroke="#666666" points="171.25,-319.12 5.25,-319.12 5.25,-298.38 171.25,-298.38 171.25,-319.12"/>
<text xml:space="preserve" text-anchor="middle" x="88.25" y="-305.62" font-family="Helvetica,sans-Serif" font-size="10.00">GreenFHom3DPer2D::Evaluate</text>
</a>
</g>
</g>
<!-- Node12&#45;&gt;Node13 -->
<g id="edge17_Node000012_Node000013" class="edge">
<title>Node12&#45;&gt;Node13</title>
<g id="a_edge17_Node000012_Node000013"><a xlink:title=" ">
<path fill="none" stroke="#63b8ff" d="M225.43,-308.75C207.74,-308.75 189.17,-308.75 171.65,-308.75"/>
<polygon fill="#63b8ff" stroke="#63b8ff" points="225.4,-312.25 235.4,-308.75 225.4,-305.25 225.4,-312.25"/>
</a>
</g>
</g>
<!-- Node15 -->
<g id="Node000015" class="node">
<title>Node15</title>
<g id="a_Node000015"><a xlink:href="classGreenFHom3DPer2D.html#aa6a46238cd2d01600780fd176a36971d" target="_top" xlink:title="Ewald&#45;summed smoothed scalar kernel.">
<polygon fill="white" stroke="#666666" points="414.5,-280.12 212.5,-280.12 212.5,-259.38 414.5,-259.38 414.5,-280.12"/>
<text xml:space="preserve" text-anchor="middle" x="313.5" y="-266.62" font-family="Helvetica,sans-Serif" font-size="10.00">GreenFHom3DPer2D::EwaldSmoothed</text>
</a>
</g>
</g>
<!-- Node14&#45;&gt;Node15 -->
<g id="edge19_Node000014_Node000015" class="edge">
<title>Node14&#45;&gt;Node15</title>
<g id="a_edge19_Node000014_Node000015"><a xlink:title=" ">
<path fill="none" stroke="#63b8ff" d="M447.99,-244.2C436.7,-246.42 425.35,-248.64 414.5,-250.75 400.8,-253.41 386.03,-256.24 372.15,-258.88"/>
<polygon fill="#63b8ff" stroke="#63b8ff" points="448.62,-247.64 457.76,-242.27 447.27,-240.77 448.62,-247.64"/>
</a>
</g>
</g>
<!-- Node17 -->
<g id="Node000017" class="node">
<title>Node17</title>
<g id="a_Node000017"><a xlink:href="classGreenFHom3DPer2D.html#ab327d41ca91c33e57a154eae221b4016" target="_top" xlink:title="Smoothed scalar kernel &#160;for a specific translation.">
<polygon fill="white" stroke="#666666" points="399.88,-241.5 227.12,-241.5 227.12,-208 399.88,-208 399.88,-241.5"/>
<text xml:space="preserve" text-anchor="start" x="235.12" y="-228" font-family="Helvetica,sans-Serif" font-size="10.00">GreenFHom3DPer2D::Smoothed</text>
<text xml:space="preserve" text-anchor="middle" x="313.5" y="-215.25" font-family="Helvetica,sans-Serif" font-size="10.00">Translate</text>
</a>
</g>
</g>
<!-- Node14&#45;&gt;Node17 -->
<g id="edge21_Node000014_Node000017" class="edge">
<title>Node14&#45;&gt;Node17</title>
<g id="a_edge21_Node000014_Node000017"><a xlink:title=" ">
<path fill="none" stroke="#63b8ff" d="M442.14,-224.75C428.16,-224.75 413.95,-224.75 400.32,-224.75"/>
<polygon fill="#63b8ff" stroke="#63b8ff" points="441.77,-228.25 451.77,-224.75 441.77,-221.25 441.77,-228.25"/>
</a>
</g>
</g>
<!-- Node16 -->
<g id="Node000016" class="node">
<title>Node16</title>
<g id="a_Node000016"><a xlink:href="classGreenFHom3DPer2D.html#a6ab5b9db19bf30afa1828652d428d4a8" target="_top" xlink:title="Smoothed scalar kernel .">
<polygon fill="white" stroke="#666666" points="174.62,-280.12 1.88,-280.12 1.88,-259.38 174.62,-259.38 174.62,-280.12"/>
<text xml:space="preserve" text-anchor="middle" x="88.25" y="-266.62" font-family="Helvetica,sans-Serif" font-size="10.00">GreenFHom3DPer2D::Smoothed</text>
</a>
</g>
</g>
<!-- Node15&#45;&gt;Node16 -->
<g id="edge20_Node000015_Node000016" class="edge">
<title>Node15&#45;&gt;Node16</title>
<g id="a_edge20_Node000015_Node000016"><a xlink:title=" ">
<path fill="none" stroke="#63b8ff" d="M200.82,-269.75C192.08,-269.75 183.33,-269.75 174.8,-269.75"/>
<polygon fill="#63b8ff" stroke="#63b8ff" points="200.79,-273.25 210.79,-269.75 200.79,-266.25 200.79,-273.25"/>
</a>
</g>
</g>
<!-- Node18&#45;&gt;Node11 -->
<g id="edge23_Node000018_Node000011" class="edge">
<title>Node18&#45;&gt;Node11</title>
<g id="a_edge23_Node000018_Node000011"><a xlink:title=" ">
<path fill="none" stroke="#63b8ff" d="M461.18,-284.55C457.5,-286.11 453.92,-287.84 450.5,-289.75 430.19,-301.1 434.53,-315.92 414.5,-327.75 408.86,-331.08 402.8,-333.99 396.55,-336.53"/>
<polygon fill="#63b8ff" stroke="#63b8ff" points="462.25,-287.89 470.38,-281.09 459.78,-281.33 462.25,-287.89"/>
</a>
</g>
</g>
<!-- Node18&#45;&gt;Node12 -->
<g id="edge24_Node000018_Node000012" class="edge">
<title>Node18&#45;&gt;Node12</title>
<g id="a_edge24_Node000018_Node000012"><a xlink:title=" ">
<path fill="none" stroke="#63b8ff" d="M470.16,-282.48C440.69,-287.46 407.25,-293.1 378.94,-297.88"/>
<polygon fill="#63b8ff" stroke="#63b8ff" points="470.47,-285.98 479.75,-280.87 469.31,-279.08 470.47,-285.98"/>
</a>
</g>
</g>
<!-- Node18&#45;&gt;Node15 -->
<g id="edge25_Node000018_Node000015" class="edge">
<title>Node18&#45;&gt;Node15</title>
<g id="a_edge25_Node000018_Node000015"><a xlink:title=" ">
<path fill="none" stroke="#63b8ff" d="M438.98,-269.75C430.95,-269.75 422.85,-269.75 414.86,-269.75"/>
<polygon fill="#63b8ff" stroke="#63b8ff" points="438.77,-273.25 448.77,-269.75 438.77,-266.25 438.77,-273.25"/>
</a>
</g>
</g>
<!-- Node18&#45;&gt;Node17 -->
<g id="edge26_Node000018_Node000017" class="edge">
<title>Node18&#45;&gt;Node17</title>
<g id="a_edge26_Node000018_Node000017"><a xlink:title=" ">
<path fill="none" stroke="#63b8ff" d="M478.98,-256.77C454.46,-252 426.33,-246.52 400.36,-241.47"/>
<polygon fill="#63b8ff" stroke="#63b8ff" points="478,-260.15 488.49,-258.62 479.34,-253.28 478,-260.15"/>
</a>
</g>
</g>
<!-- Node20 -->
<g id="Node000020" class="node">
<title>Node20</title>
<g id="a_Node000020"><a xlink:href="classGreenFHom3DPer2D.html#afdc08576760ed0ae9a61dc378a7faac3" target="_top" xlink:title="Ewald&#45;summed source&#45;gradient.">
<polygon fill="white" stroke="#666666" points="396.12,-189.5 230.88,-189.5 230.88,-156 396.12,-156 396.12,-189.5"/>
<text xml:space="preserve" text-anchor="start" x="238.88" y="-176" font-family="Helvetica,sans-Serif" font-size="10.00">GreenFHom3DPer2D::Gradient</text>
<text xml:space="preserve" text-anchor="middle" x="313.5" y="-163.25" font-family="Helvetica,sans-Serif" font-size="10.00">Ewald</text>
</a>
</g>
</g>
<!-- Node19&#45;&gt;Node20 -->
<g id="edge28_Node000019_Node000020" class="edge">
<title>Node19&#45;&gt;Node20</title>
<g id="a_edge28_Node000019_Node000020"><a xlink:title=" ">
<path fill="none" stroke="#63b8ff" d="M452.43,-172.75C433.95,-172.75 414.67,-172.75 396.59,-172.75"/>
<polygon fill="#63b8ff" stroke="#63b8ff" points="452.3,-176.25 462.3,-172.75 452.3,-169.25 452.3,-176.25"/>
</a>
</g>
</g>
<!-- Node22 -->
<g id="Node000022" class="node">
<title>Node22</title>
<g id="a_Node000022"><a xlink:href="classGreenFHom3DPer2D.html#abfe000753f5712d72cef880cd4a64b3a" target="_top" xlink:title="Source&#45;gradient for a specific translation.">
<polygon fill="white" stroke="#666666" points="396.12,-137.5 230.88,-137.5 230.88,-104 396.12,-104 396.12,-137.5"/>
<text xml:space="preserve" text-anchor="start" x="238.88" y="-124" font-family="Helvetica,sans-Serif" font-size="10.00">GreenFHom3DPer2D::Gradient</text>
<text xml:space="preserve" text-anchor="middle" x="313.5" y="-111.25" font-family="Helvetica,sans-Serif" font-size="10.00">Translate</text>
</a>
</g>
</g>
<!-- Node19&#45;&gt;Node22 -->
<g id="edge30_Node000019_Node000022" class="edge">
<title>Node19&#45;&gt;Node22</title>
<g id="a_edge30_Node000019_Node000022"><a xlink:title=" ">
<path fill="none" stroke="#63b8ff" d="M457.95,-153.02C435.89,-148.06 412.39,-142.77 390.93,-137.95"/>
<polygon fill="#63b8ff" stroke="#63b8ff" points="456.98,-156.39 467.51,-155.17 458.52,-149.57 456.98,-156.39"/>
</a>
</g>
</g>
<!-- Node21 -->
<g id="Node000021" class="node">
<title>Node21</title>
<g id="a_Node000021"><a xlink:href="classGreenFHom3DPer2D.html#adff724f327912641a20c99fa4c9bb464" target="_top" xlink:title="Source&#45;gradient .">
<polygon fill="white" stroke="#666666" points="170.88,-183.12 5.62,-183.12 5.62,-162.38 170.88,-162.38 170.88,-183.12"/>
<text xml:space="preserve" text-anchor="middle" x="88.25" y="-169.62" font-family="Helvetica,sans-Serif" font-size="10.00">GreenFHom3DPer2D::Gradient</text>
</a>
</g>
</g>
<!-- Node20&#45;&gt;Node21 -->
<g id="edge29_Node000020_Node000021" class="edge">
<title>Node20&#45;&gt;Node21</title>
<g id="a_edge29_Node000020_Node000021"><a xlink:title=" ">
<path fill="none" stroke="#63b8ff" d="M219.13,-172.75C203.18,-172.75 186.72,-172.75 171.1,-172.75"/>
<polygon fill="#63b8ff" stroke="#63b8ff" points="219.12,-176.25 229.12,-172.75 219.12,-169.25 219.12,-176.25"/>
</a>
</g>
</g>
<!-- Node23 -->
<g id="Node000023" class="node">
<title>Node23</title>
<g id="a_Node000023"><a xlink:href="classGreenFHom3DPer2D.html#aadb534ef4509422e6f3e78a0e3999758" target="_top" xlink:title="term at an observation point.">
<polygon fill="white" stroke="#666666" points="172,-111.5 4.5,-111.5 4.5,-78 172,-78 172,-111.5"/>
<text xml:space="preserve" text-anchor="start" x="12.5" y="-98" font-family="Helvetica,sans-Serif" font-size="10.00">GreenFHom3DPer2D::Integrate</text>
<text xml:space="preserve" text-anchor="middle" x="88.25" y="-85.25" font-family="Helvetica,sans-Serif" font-size="10.00">Kappa</text>
</a>
</g>
</g>
<!-- Node22&#45;&gt;Node23 -->
<g id="edge31_Node000022_Node000023" class="edge">
<title>Node22&#45;&gt;Node23</title>
<g id="a_edge31_Node000022_Node000023"><a xlink:title=" ">
<path fill="none" stroke="#63b8ff" d="M219.36,-109.9C203.72,-108.08 187.58,-106.2 172.22,-104.41"/>
<polygon fill="#63b8ff" stroke="#63b8ff" points="218.8,-113.36 229.13,-111.04 219.61,-106.41 218.8,-113.36"/>
</a>
</g>
</g>
<!-- Node25 -->
<g id="Node000025" class="node">
<title>Node25</title>
<g id="a_Node000025"><a xlink:href="classGreenFHom3DPer2D.html#a86d2cbdfe3ecb724651159902fabcdad" target="_top" xlink:title="Ewald&#45;summed smoothed source&#45;gradient.">
<polygon fill="white" stroke="#666666" points="396.12,-33.5 230.88,-33.5 230.88,0 396.12,0 396.12,-33.5"/>
<text xml:space="preserve" text-anchor="start" x="238.88" y="-20" font-family="Helvetica,sans-Serif" font-size="10.00">GreenFHom3DPer2D::Gradient</text>
<text xml:space="preserve" text-anchor="middle" x="313.5" y="-7.25" font-family="Helvetica,sans-Serif" font-size="10.00">EwaldSmoothed</text>
</a>
</g>
</g>
<!-- Node24&#45;&gt;Node25 -->
<g id="edge33_Node000024_Node000025" class="edge">
<title>Node24&#45;&gt;Node25</title>
<g id="a_edge33_Node000024_Node000025"><a xlink:title=" ">
<path fill="none" stroke="#63b8ff" d="M457.95,-49.02C435.89,-44.06 412.39,-38.77 390.93,-33.95"/>
<polygon fill="#63b8ff" stroke="#63b8ff" points="456.98,-52.39 467.51,-51.17 458.52,-45.57 456.98,-52.39"/>
</a>
</g>
</g>
<!-- Node27 -->
<g id="Node000027" class="node">
<title>Node27</title>
<g id="a_Node000027"><a xlink:href="classGreenFHom3DPer2D.html#a410f5349268917cf86215e766118032c" target="_top" xlink:title="Smoothed source&#45;gradient for a specific translation.">
<polygon fill="white" stroke="#666666" points="396.12,-85.5 230.88,-85.5 230.88,-52 396.12,-52 396.12,-85.5"/>
<text xml:space="preserve" text-anchor="start" x="238.88" y="-72" font-family="Helvetica,sans-Serif" font-size="10.00">GreenFHom3DPer2D::Gradient</text>
<text xml:space="preserve" text-anchor="middle" x="313.5" y="-59.25" font-family="Helvetica,sans-Serif" font-size="10.00">SmoothedTranslate</text>
</a>
</g>
</g>
<!-- Node24&#45;&gt;Node27 -->
<g id="edge35_Node000024_Node000027" class="edge">
<title>Node24&#45;&gt;Node27</title>
<g id="a_edge35_Node000024_Node000027"><a xlink:title=" ">
<path fill="none" stroke="#63b8ff" d="M452.43,-68.75C433.95,-68.75 414.67,-68.75 396.59,-68.75"/>
<polygon fill="#63b8ff" stroke="#63b8ff" points="452.3,-72.25 462.3,-68.75 452.3,-65.25 452.3,-72.25"/>
</a>
</g>
</g>
<!-- Node26 -->
<g id="Node000026" class="node">
<title>Node26</title>
<g id="a_Node000026"><a xlink:href="classGreenFHom3DPer2D.html#accc5e668a1b137a5279747db2ef0d560" target="_top" xlink:title="Smoothed source&#45;gradient .">
<polygon fill="white" stroke="#666666" points="170.88,-33.5 5.62,-33.5 5.62,0 170.88,0 170.88,-33.5"/>
<text xml:space="preserve" text-anchor="start" x="13.62" y="-20" font-family="Helvetica,sans-Serif" font-size="10.00">GreenFHom3DPer2D::Gradient</text>
<text xml:space="preserve" text-anchor="middle" x="88.25" y="-7.25" font-family="Helvetica,sans-Serif" font-size="10.00">Smoothed</text>
</a>
</g>
</g>
<!-- Node25&#45;&gt;Node26 -->
<g id="edge34_Node000025_Node000026" class="edge">
<title>Node25&#45;&gt;Node26</title>
<g id="a_edge34_Node000025_Node000026"><a xlink:title=" ">
<path fill="none" stroke="#63b8ff" d="M219.13,-16.75C203.18,-16.75 186.72,-16.75 171.1,-16.75"/>
<polygon fill="#63b8ff" stroke="#63b8ff" points="219.12,-20.25 229.12,-16.75 219.12,-13.25 219.12,-20.25"/>
</a>
</g>
</g>
<!-- Node27&#45;&gt;Node23 -->
<g id="edge36_Node000027_Node000023" class="edge">
<title>Node27&#45;&gt;Node23</title>
<g id="a_edge36_Node000027_Node000023"><a xlink:title=" ">
<path fill="none" stroke="#63b8ff" d="M219.36,-79.6C203.72,-81.42 187.58,-83.3 172.22,-85.09"/>
<polygon fill="#63b8ff" stroke="#63b8ff" points="219.61,-83.09 229.13,-78.46 218.8,-76.14 219.61,-83.09"/>
</a>
</g>
</g>
<!-- Node28&#45;&gt;Node20 -->
<g id="edge38_Node000028_Node000020" class="edge">
<title>Node28&#45;&gt;Node20</title>
<g id="a_edge38_Node000028_Node000020"><a xlink:title=" ">
<path fill="none" stroke="#63b8ff" d="M457.95,-140.48C435.89,-145.44 412.39,-150.73 390.93,-155.55"/>
<polygon fill="#63b8ff" stroke="#63b8ff" points="458.52,-143.93 467.51,-138.33 456.98,-137.11 458.52,-143.93"/>
</a>
</g>
</g>
<!-- Node28&#45;&gt;Node22 -->
<g id="edge41_Node000028_Node000022" class="edge">
<title>Node28&#45;&gt;Node22</title>
<g id="a_edge41_Node000028_Node000022"><a xlink:title=" ">
<path fill="none" stroke="#63b8ff" d="M452.43,-120.75C433.95,-120.75 414.67,-120.75 396.59,-120.75"/>
<polygon fill="#63b8ff" stroke="#63b8ff" points="452.3,-124.25 462.3,-120.75 452.3,-117.25 452.3,-124.25"/>
</a>
</g>
</g>
<!-- Node28&#45;&gt;Node25 -->
<g id="edge39_Node000028_Node000025" class="edge">
<title>Node28&#45;&gt;Node25</title>
<g id="a_edge39_Node000028_Node000025"><a xlink:title=" ">
<path fill="none" stroke="#63b8ff" d="M456.01,-98.35C454.12,-97.21 452.28,-96.01 450.5,-94.75 427.56,-78.51 437.54,-58.85 414.5,-42.75 408.91,-38.85 402.78,-35.53 396.39,-32.71"/>
<polygon fill="#63b8ff" stroke="#63b8ff" points="454,-101.25 464.47,-102.88 457.3,-95.08 454,-101.25"/>
</a>
</g>
</g>
<!-- Node28&#45;&gt;Node27 -->
<g id="edge40_Node000028_Node000027" class="edge">
<title>Node28&#45;&gt;Node27</title>
<g id="a_edge40_Node000028_Node000027"><a xlink:title=" ">
<path fill="none" stroke="#63b8ff" d="M457.95,-101.02C435.89,-96.06 412.39,-90.77 390.93,-85.95"/>
<polygon fill="#63b8ff" stroke="#63b8ff" points="456.98,-104.39 467.51,-103.17 458.52,-97.57 456.98,-104.39"/>
</a>
</g>
</g>
</g>
</svg>
