<?xml version="1.0" encoding="UTF-8" standalone="no"?>
<!DOCTYPE svg PUBLIC "-//W3C//DTD SVG 1.1//EN"
 "http://www.w3.org/Graphics/SVG/1.1/DTD/svg11.dtd">
<!-- Generated by graphviz version 13.1.2 (20250809.0930)
 -->
<!-- Title: LayeredMediaUtils::totalTransferMatrix Pages: 1 -->
<svg width="621pt" height="117pt"
 viewBox="0.00 0.00 621.00 117.00" xmlns="http://www.w3.org/2000/svg" xmlns:xlink="http://www.w3.org/1999/xlink">
<g id="graph0" class="graph" transform="scale(1 1) rotate(0) translate(4 112.5)">
<title>LayeredMediaUtils::totalTransferMatrix</title>
<!-- Node1 -->
<g id="Node000001" class="node">
<title>Node1</title>
<g id="a_Node000001"><a xlink:title="Computes the total transfer matrix for the entire layered structure.">
<polygon fill="#999999" stroke="#666666" points="113.5,-56.5 0,-56.5 0,-23 113.5,-23 113.5,-56.5"/>
<text xml:space="preserve" text-anchor="start" x="8" y="-43" font-family="Helvetica,sans-Serif" font-size="10.00">LayeredMediaUtils::</text>
<text xml:space="preserve" text-anchor="middle" x="56.75" y="-30.25" font-family="Helvetica,sans-Serif" font-size="10.00">totalTransferMatrix</text>
</a>
</g>
</g>
<!-- Node2 -->
<g id="Node000002" class="node">
<title>Node2</title>
<g id="a_Node000002"><a xlink:href="classLayeredMediaUtils.html#a00598e0f83472fd9128419b9dddc7e09" target="_top" xlink:title="Computes the interface transfer matrix for TE or TM waves.">
<polygon fill="white" stroke="#666666" points="279.5,-108.5 149.5,-108.5 149.5,-75 279.5,-75 279.5,-108.5"/>
<text xml:space="preserve" text-anchor="start" x="157.5" y="-95" font-family="Helvetica,sans-Serif" font-size="10.00">LayeredMediaUtils::</text>
<text xml:space="preserve" text-anchor="middle" x="214.5" y="-82.25" font-family="Helvetica,sans-Serif" font-size="10.00">InterfaceTransferMatrix</text>
</a>
</g>
</g>
<!-- Node1&#45;&gt;Node2 -->
<g id="edge1_Node000001_Node000002" class="edge">
<title>Node1&#45;&gt;Node2</title>
<g id="a_edge1_Node000001_Node000002"><a xlink:title=" ">
<path fill="none" stroke="#63b8ff" d="M109.18,-56.92C122.67,-61.42 137.35,-66.33 151.33,-71"/>
<polygon fill="#63b8ff" stroke="#63b8ff" points="149.83,-74.18 160.42,-74.03 152.05,-67.54 149.83,-74.18"/>
</a>
</g>
</g>
<!-- Node6 -->
<g id="Node000006" class="node">
<title>Node6</title>
<g id="a_Node000006"><a xlink:href="classLayeredMediaUtils.html#ad48ebb179e3349bad58b015022cbff46" target="_top" xlink:title="Performs matrix multiplication for 2D complex matrices.">
<polygon fill="white" stroke="#666666" points="271.25,-56.5 157.75,-56.5 157.75,-23 271.25,-23 271.25,-56.5"/>
<text xml:space="preserve" text-anchor="start" x="165.75" y="-43" font-family="Helvetica,sans-Serif" font-size="10.00">LayeredMediaUtils::</text>
<text xml:space="preserve" text-anchor="middle" x="214.5" y="-30.25" font-family="Helvetica,sans-Serif" font-size="10.00">matrixMultiply2D</text>
</a>
</g>
</g>
<!-- Node1&#45;&gt;Node6 -->
<g id="edge6_Node000001_Node000006" class="edge">
<title>Node1&#45;&gt;Node6</title>
<g id="a_edge6_Node000001_Node000006"><a xlink:title=" ">
<path fill="none" stroke="#63b8ff" d="M113.98,-39.75C124.35,-39.75 135.27,-39.75 145.93,-39.75"/>
<polygon fill="#63b8ff" stroke="#63b8ff" points="145.84,-43.25 155.84,-39.75 145.84,-36.25 145.84,-43.25"/>
</a>
</g>
</g>
<!-- Node7 -->
<g id="Node000007" class="node">
<title>Node7</title>
<g id="a_Node000007"><a xlink:href="classLayeredMediaUtils.html#ac9168dd49348197009d483b94ff715a4" target="_top" xlink:title="Computes the propagation matrix for a given layer.">
<polygon fill="white" stroke="#666666" points="429,-33.5 315.5,-33.5 315.5,0 429,0 429,-33.5"/>
<text xml:space="preserve" text-anchor="start" x="323.5" y="-20" font-family="Helvetica,sans-Serif" font-size="10.00">LayeredMediaUtils::</text>
<text xml:space="preserve" text-anchor="middle" x="372.25" y="-7.25" font-family="Helvetica,sans-Serif" font-size="10.00">propagationMatrix</text>
</a>
</g>
</g>
<!-- Node1&#45;&gt;Node7 -->
<g id="edge7_Node000001_Node000007" class="edge">
<title>Node1&#45;&gt;Node7</title>
<g id="a_edge7_Node000001_Node000007"><a xlink:title=" ">
<path fill="none" stroke="#63b8ff" d="M108.65,-22.63C121.81,-18.96 136.05,-15.62 149.5,-13.75 200.96,-6.6 259.78,-7.82 303.91,-10.57"/>
<polygon fill="#63b8ff" stroke="#63b8ff" points="303.65,-14.07 313.86,-11.24 304.12,-7.08 303.65,-14.07"/>
</a>
</g>
</g>
<!-- Node3 -->
<g id="Node000003" class="node">
<title>Node3</title>
<g id="a_Node000003"><a xlink:href="classLayeredMediaUtils.html#a212943a3dd5bdeaaa5c92ed21fad87a9" target="_top" xlink:title="Computes Fresnel reflection and transmission coefficients at an interface.">
<polygon fill="white" stroke="#666666" points="429,-96.5 315.5,-96.5 315.5,-63 429,-63 429,-96.5"/>
<text xml:space="preserve" text-anchor="start" x="323.5" y="-83" font-family="Helvetica,sans-Serif" font-size="10.00">LayeredMediaUtils::</text>
<text xml:space="preserve" text-anchor="middle" x="372.25" y="-70.25" font-family="Helvetica,sans-Serif" font-size="10.00">FresnelCoeff</text>
</a>
</g>
</g>
<!-- Node2&#45;&gt;Node3 -->
<g id="edge2_Node000002_Node000003" class="edge">
<title>Node2&#45;&gt;Node3</title>
<g id="a_edge2_Node000002_Node000003"><a xlink:title=" ">
<path fill="none" stroke="#63b8ff" d="M279.75,-86.8C287.63,-86.19 295.7,-85.57 303.63,-84.96"/>
<polygon fill="#63b8ff" stroke="#63b8ff" points="303.9,-88.45 313.6,-84.19 303.36,-81.47 303.9,-88.45"/>
</a>
</g>
</g>
<!-- Node4 -->
<g id="Node000004" class="node">
<title>Node4</title>
<g id="a_Node000004"><a xlink:href="LayeredMediaUtils_8cpp.html#a50405603197731a46c864b0f39744ed0" target="_top" xlink:title="Computes the square root of a complex number with proper handling of negative imaginary parts.">
<polygon fill="white" stroke="#666666" points="542.5,-53.12 465,-53.12 465,-32.38 542.5,-32.38 542.5,-53.12"/>
<text xml:space="preserve" text-anchor="middle" x="503.75" y="-39.62" font-family="Helvetica,sans-Serif" font-size="10.00">complexSqrt</text>
</a>
</g>
</g>
<!-- Node3&#45;&gt;Node4 -->
<g id="edge3_Node000003_Node000004" class="edge">
<title>Node3&#45;&gt;Node4</title>
<g id="a_edge3_Node000003_Node000004"><a xlink:title=" ">
<path fill="none" stroke="#63b8ff" d="M429.3,-63.74C437.47,-61.4 445.84,-59.01 453.86,-56.72"/>
<polygon fill="#63b8ff" stroke="#63b8ff" points="454.8,-60.09 463.46,-53.98 452.88,-53.36 454.8,-60.09"/>
</a>
</g>
</g>
<!-- Node5 -->
<g id="Node000005" class="node">
<title>Node5</title>
<g id="a_Node000005"><a xlink:href="Domain_8cpp.html#aafa3e4fa6318b2f8740f4dbd50c367e5" target="_top" xlink:title="Extract the real part of each component of a complex 3&#45;vector.">
<polygon fill="white" stroke="#666666" points="613.25,-53.12 578.5,-53.12 578.5,-32.38 613.25,-32.38 613.25,-53.12"/>
<text xml:space="preserve" text-anchor="middle" x="595.88" y="-39.62" font-family="Helvetica,sans-Serif" font-size="10.00">real</text>
</a>
</g>
</g>
<!-- Node4&#45;&gt;Node5 -->
<g id="edge4_Node000004_Node000005" class="edge">
<title>Node4&#45;&gt;Node5</title>
<g id="a_edge4_Node000004_Node000005"><a xlink:title=" ">
<path fill="none" stroke="#63b8ff" d="M542.97,-42.75C550.94,-42.75 559.19,-42.75 566.71,-42.75"/>
<polygon fill="#63b8ff" stroke="#63b8ff" points="566.62,-46.25 576.62,-42.75 566.62,-39.25 566.62,-46.25"/>
</a>
</g>
</g>
<!-- Node5&#45;&gt;Node5 -->
<g id="edge5_Node000005_Node000005" class="edge">
<title>Node5&#45;&gt;Node5</title>
<g id="a_edge5_Node000005_Node000005"><a xlink:title=" ">
<path fill="none" stroke="#63b8ff" d="M581.03,-53.52C575.09,-62.18 580.04,-71.12 595.88,-71.12 604.29,-71.12 609.63,-68.6 611.89,-64.94"/>
<polygon fill="#63b8ff" stroke="#63b8ff" points="615.38,-64.62 610.87,-55.03 608.42,-65.33 615.38,-64.62"/>
</a>
</g>
</g>
<!-- Node7&#45;&gt;Node4 -->
<g id="edge8_Node000007_Node000004" class="edge">
<title>Node7&#45;&gt;Node4</title>
<g id="a_edge8_Node000007_Node000004"><a xlink:title=" ">
<path fill="none" stroke="#63b8ff" d="M429.3,-28C437.29,-29.61 445.46,-31.25 453.31,-32.82"/>
<polygon fill="#63b8ff" stroke="#63b8ff" points="452.55,-36.24 463.05,-34.78 453.93,-29.38 452.55,-36.24"/>
</a>
</g>
</g>
</g>
</svg>
