<?xml version="1.0" encoding="UTF-8" standalone="no"?>
<!DOCTYPE svg PUBLIC "-//W3C//DTD SVG 1.1//EN"
 "http://www.w3.org/Graphics/SVG/1.1/DTD/svg11.dtd">
<!-- Generated by graphviz version 13.1.2 (20250809.0930)
 -->
<!-- Title: DomainHom3D::InitGrnFun Pages: 1 -->
<svg width="603pt" height="68pt"
 viewBox="0.00 0.00 603.00 68.00" xmlns="http://www.w3.org/2000/svg" xmlns:xlink="http://www.w3.org/1999/xlink">
<g id="graph0" class="graph" transform="scale(1 1) rotate(0) translate(4 63.75)">
<title>DomainHom3D::InitGrnFun</title>
<!-- Node1 -->
<g id="Node000001" class="node">
<title>Node1</title>
<g id="a_Node000001"><a xlink:title="Instantiate the homogeneous Green&#39;s function for this domain.">
<polygon fill="#999999" stroke="#666666" points="594.75,-39.75 447.5,-39.75 447.5,-19 594.75,-19 594.75,-39.75"/>
<text xml:space="preserve" text-anchor="middle" x="521.12" y="-26.25" font-family="Helvetica,sans-Serif" font-size="10.00">DomainHom3D::InitGrnFun</text>
</a>
</g>
</g>
<!-- Node2 -->
<g id="Node000002" class="node">
<title>Node2</title>
<g id="a_Node000002"><a xlink:href="classDomainHom3D.html#ae2c7b0309cdbeda660e9e937de24c2b6" target="_top" xlink:title="Construct a homogeneous domain and immediately create its Green&#39;s function.">
<polygon fill="white" stroke="#666666" points="411.5,-59.75 239.5,-59.75 239.5,-39 411.5,-39 411.5,-59.75"/>
<text xml:space="preserve" text-anchor="middle" x="325.5" y="-46.25" font-family="Helvetica,sans-Serif" font-size="10.00">DomainHom3D::DomainHom3D</text>
</a>
</g>
</g>
<!-- Node1&#45;&gt;Node2 -->
<g id="edge1_Node000001_Node000002" class="edge">
<title>Node1&#45;&gt;Node2</title>
<g id="a_edge1_Node000001_Node000002"><a xlink:title=" ">
<path fill="none" stroke="#63b8ff" d="M435.95,-38.07C427.92,-38.9 419.77,-39.74 411.73,-40.57"/>
<polygon fill="#63b8ff" stroke="#63b8ff" points="436.11,-41.57 445.69,-37.06 435.39,-34.61 436.11,-41.57"/>
</a>
</g>
</g>
<!-- Node4 -->
<g id="Node000004" class="node">
<title>Node4</title>
<g id="a_Node000004"><a xlink:href="classDomainHom3D.html#a711da6da038d5667d1dffeed2431ae11" target="_top" xlink:title="Construct a homogeneous domain, optionally skipping Green&#39;s function creation.">
<polygon fill="white" stroke="#666666" points="411.5,-20.75 239.5,-20.75 239.5,0 411.5,0 411.5,-20.75"/>
<text xml:space="preserve" text-anchor="middle" x="325.5" y="-7.25" font-family="Helvetica,sans-Serif" font-size="10.00">DomainHom3D::DomainHom3D</text>
</a>
</g>
</g>
<!-- Node1&#45;&gt;Node4 -->
<g id="edge3_Node000001_Node000004" class="edge">
<title>Node1&#45;&gt;Node4</title>
<g id="a_edge3_Node000001_Node000004"><a xlink:title=" ">
<path fill="none" stroke="#63b8ff" d="M435.95,-21.11C427.92,-20.33 419.77,-19.53 411.73,-18.74"/>
<polygon fill="#63b8ff" stroke="#63b8ff" points="435.4,-24.58 445.69,-22.07 436.08,-17.61 435.4,-24.58"/>
</a>
</g>
</g>
<!-- Node3 -->
<g id="Node000003" class="node">
<title>Node3</title>
<g id="a_Node000003"><a xlink:href="classDomainHom3DPer.html#a973f16aa5d1165725d3d0bdab331781f" target="_top" xlink:title="Construct a periodic homogeneous domain and select a periodic Green&#39;s function.">
<polygon fill="white" stroke="#666666" points="203.5,-59.75 0,-59.75 0,-39 203.5,-39 203.5,-59.75"/>
<text xml:space="preserve" text-anchor="middle" x="101.75" y="-46.25" font-family="Helvetica,sans-Serif" font-size="10.00">DomainHom3DPer::DomainHom3DPer</text>
</a>
</g>
</g>
<!-- Node2&#45;&gt;Node3 -->
<g id="edge2_Node000002_Node000003" class="edge">
<title>Node2&#45;&gt;Node3</title>
<g id="a_edge2_Node000002_Node000003"><a xlink:title=" ">
<path fill="none" stroke="#63b8ff" d="M227.84,-49.38C219.83,-49.38 211.72,-49.38 203.68,-49.38"/>
<polygon fill="#63b8ff" stroke="#63b8ff" points="227.57,-52.88 237.57,-49.38 227.57,-45.88 227.57,-52.88"/>
</a>
</g>
</g>
</g>
</svg>
