<?xml version="1.0" encoding="UTF-8" standalone="no"?>
<!DOCTYPE svg PUBLIC "-//W3C//DTD SVG 1.1//EN"
 "http://www.w3.org/Graphics/SVG/1.1/DTD/svg11.dtd">
<!-- Generated by graphviz version 13.1.2 (20250809.0930)
 -->
<!-- Title: GreenF::EvErfc Pages: 1 -->
<svg width="242pt" height="86pt"
 viewBox="0.00 0.00 242.00 86.00" xmlns="http://www.w3.org/2000/svg" xmlns:xlink="http://www.w3.org/1999/xlink">
<g id="graph0" class="graph" transform="scale(1 1) rotate(0) translate(4 81.75)">
<title>GreenF::EvErfc</title>
<!-- Node1 -->
<g id="Node000001" class="node">
<title>Node1</title>
<g id="a_Node000001"><a xlink:title="Evaluate erfc via the 2D lookup table if available.">
<polygon fill="#999999" stroke="#666666" points="87.25,-48.75 0,-48.75 0,-28 87.25,-28 87.25,-48.75"/>
<text xml:space="preserve" text-anchor="middle" x="43.62" y="-35.25" font-family="Helvetica,sans-Serif" font-size="10.00">GreenF::EvErfc</text>
</a>
</g>
</g>
<!-- Node2 -->
<g id="Node000002" class="node">
<title>Node2</title>
<g id="a_Node000002"><a xlink:href="mathFunctions_8cpp.html#a7916c6b62310fe9cf38ec2a2890aaad4" target="_top" xlink:title="Complementary error function for complex arguments.">
<polygon fill="white" stroke="#666666" points="163.25,-77.75 123.25,-77.75 123.25,-57 163.25,-57 163.25,-77.75"/>
<text xml:space="preserve" text-anchor="middle" x="143.25" y="-64.25" font-family="Helvetica,sans-Serif" font-size="10.00">cerfc</text>
</a>
</g>
</g>
<!-- Node1&#45;&gt;Node2 -->
<g id="edge1_Node000001_Node000002" class="edge">
<title>Node1&#45;&gt;Node2</title>
<g id="a_edge1_Node000001_Node000002"><a xlink:title=" ">
<path fill="none" stroke="#63b8ff" d="M80.98,-49.17C91.19,-52.21 102.17,-55.47 111.99,-58.39"/>
<polygon fill="#63b8ff" stroke="#63b8ff" points="110.82,-61.69 121.4,-61.18 112.81,-54.98 110.82,-61.69"/>
</a>
</g>
</g>
<!-- Node4 -->
<g id="Node000004" class="node">
<title>Node4</title>
<g id="a_Node000004"><a xlink:href="Domain_8cpp.html#aafa3e4fa6318b2f8740f4dbd50c367e5" target="_top" xlink:title="Extract the real part of each component of a complex 3&#45;vector.">
<polygon fill="white" stroke="#666666" points="160.62,-20.75 125.88,-20.75 125.88,0 160.62,0 160.62,-20.75"/>
<text xml:space="preserve" text-anchor="middle" x="143.25" y="-7.25" font-family="Helvetica,sans-Serif" font-size="10.00">real</text>
</a>
</g>
</g>
<!-- Node1&#45;&gt;Node4 -->
<g id="edge3_Node000001_Node000004" class="edge">
<title>Node1&#45;&gt;Node4</title>
<g id="a_edge3_Node000001_Node000004"><a xlink:title=" ">
<path fill="none" stroke="#63b8ff" d="M82.37,-27.55C93.09,-24.47 104.56,-21.18 114.57,-18.31"/>
<polygon fill="#63b8ff" stroke="#63b8ff" points="115.4,-21.72 124.05,-15.59 113.47,-14.99 115.4,-21.72"/>
</a>
</g>
</g>
<!-- Node3 -->
<g id="Node000003" class="node">
<title>Node3</title>
<g id="a_Node000003"><a xlink:href="mathFunctions_8cpp.html#abc57cde75234d7e165a9ebcdb45f2c29" target="_top" xlink:title="Error function for complex arguments.">
<polygon fill="white" stroke="#666666" points="234,-77.75 199.25,-77.75 199.25,-57 234,-57 234,-77.75"/>
<text xml:space="preserve" text-anchor="middle" x="216.62" y="-64.25" font-family="Helvetica,sans-Serif" font-size="10.00">cerf</text>
</a>
</g>
</g>
<!-- Node2&#45;&gt;Node3 -->
<g id="edge2_Node000002_Node000003" class="edge">
<title>Node2&#45;&gt;Node3</title>
<g id="a_edge2_Node000002_Node000003"><a xlink:title=" ">
<path fill="none" stroke="#63b8ff" d="M163.38,-67.38C170.81,-67.38 179.48,-67.38 187.59,-67.38"/>
<polygon fill="#63b8ff" stroke="#63b8ff" points="187.36,-70.88 197.36,-67.38 187.36,-63.88 187.36,-70.88"/>
</a>
</g>
</g>
<!-- Node4&#45;&gt;Node4 -->
<g id="edge4_Node000004_Node000004" class="edge">
<title>Node4&#45;&gt;Node4</title>
<g id="a_edge4_Node000004_Node000004"><a xlink:title=" ">
<path fill="none" stroke="#63b8ff" d="M131.43,-21.15C126.7,-29.81 130.64,-38.75 143.25,-38.75 149.95,-38.75 154.2,-36.23 156.01,-32.56"/>
<polygon fill="#63b8ff" stroke="#63b8ff" points="159.5,-32.34 155.2,-22.66 152.53,-32.91 159.5,-32.34"/>
</a>
</g>
</g>
</g>
</svg>
