<?xml version="1.0" encoding="UTF-8" standalone="no"?>
<!DOCTYPE svg PUBLIC "-//W3C//DTD SVG 1.1//EN"
 "http://www.w3.org/Graphics/SVG/1.1/DTD/svg11.dtd">
<!-- Generated by graphviz version 13.1.2 (20250809.0930)
 -->
<!-- Title: GreenFHom3D::GreenFHom3D Pages: 1 -->
<svg width="449pt" height="47pt"
 viewBox="0.00 0.00 449.00 47.00" xmlns="http://www.w3.org/2000/svg" xmlns:xlink="http://www.w3.org/1999/xlink">
<g id="graph0" class="graph" transform="scale(1 1) rotate(0) translate(4 42.75)">
<title>GreenFHom3D::GreenFHom3D</title>
<!-- Node1 -->
<g id="Node000001" class="node">
<title>Node1</title>
<g id="a_Node000001"><a xlink:title="Construct for a homogeneous, magnetic medium.">
<polygon fill="#999999" stroke="#666666" points="166,-20.75 0,-20.75 0,0 166,0 166,-20.75"/>
<text xml:space="preserve" text-anchor="middle" x="83" y="-7.25" font-family="Helvetica,sans-Serif" font-size="10.00">GreenFHom3D::GreenFHom3D</text>
</a>
</g>
</g>
<!-- Node2 -->
<g id="Node000002" class="node">
<title>Node2</title>
<g id="a_Node000002"><a xlink:href="classGreenF.html#a332ac24f39288170f77c18f37fde2c82" target="_top" xlink:title="Constructor for a homogeneous, non&#45;magnetic medium.">
<polygon fill="white" stroke="#666666" points="293.75,-20.75 202,-20.75 202,0 293.75,0 293.75,-20.75"/>
<text xml:space="preserve" text-anchor="middle" x="247.88" y="-7.25" font-family="Helvetica,sans-Serif" font-size="10.00">GreenF::GreenF</text>
</a>
</g>
</g>
<!-- Node1&#45;&gt;Node2 -->
<g id="edge1_Node000001_Node000002" class="edge">
<title>Node1&#45;&gt;Node2</title>
<g id="a_edge1_Node000001_Node000002"><a xlink:title=" ">
<path fill="none" stroke="#63b8ff" d="M166.39,-10.38C174.46,-10.38 182.52,-10.38 190.24,-10.38"/>
<polygon fill="#63b8ff" stroke="#63b8ff" points="190.16,-13.88 200.16,-10.38 190.16,-6.88 190.16,-13.88"/>
</a>
</g>
</g>
<!-- Node3 -->
<g id="Node000003" class="node">
<title>Node3</title>
<g id="a_Node000003"><a xlink:href="group__greenFunction.html#gac0a52dce23be7dacdf97c68653b6c137" target="_top" xlink:title="Complex square root with a branch cut along the negative real axis.">
<polygon fill="white" stroke="#666666" points="369.75,-20.75 329.75,-20.75 329.75,0 369.75,0 369.75,-20.75"/>
<text xml:space="preserve" text-anchor="middle" x="349.75" y="-7.25" font-family="Helvetica,sans-Serif" font-size="10.00">csqrt</text>
</a>
</g>
</g>
<!-- Node2&#45;&gt;Node3 -->
<g id="edge2_Node000002_Node000003" class="edge">
<title>Node2&#45;&gt;Node3</title>
<g id="a_edge2_Node000002_Node000003"><a xlink:title=" ">
<path fill="none" stroke="#63b8ff" d="M294.14,-10.38C302.17,-10.38 310.36,-10.38 317.88,-10.38"/>
<polygon fill="#63b8ff" stroke="#63b8ff" points="317.86,-13.88 327.86,-10.38 317.86,-6.88 317.86,-13.88"/>
</a>
</g>
</g>
<!-- Node4 -->
<g id="Node000004" class="node">
<title>Node4</title>
<g id="a_Node000004"><a xlink:href="Domain_8cpp.html#aafa3e4fa6318b2f8740f4dbd50c367e5" target="_top" xlink:title="Extract the real part of each component of a complex 3&#45;vector.">
<polygon fill="white" stroke="#666666" points="440.5,-20.75 405.75,-20.75 405.75,0 440.5,0 440.5,-20.75"/>
<text xml:space="preserve" text-anchor="middle" x="423.12" y="-7.25" font-family="Helvetica,sans-Serif" font-size="10.00">real</text>
</a>
</g>
</g>
<!-- Node3&#45;&gt;Node4 -->
<g id="edge3_Node000003_Node000004" class="edge">
<title>Node3&#45;&gt;Node4</title>
<g id="a_edge3_Node000003_Node000004"><a xlink:title=" ">
<path fill="none" stroke="#63b8ff" d="M369.88,-10.38C377.31,-10.38 385.98,-10.38 394.09,-10.38"/>
<polygon fill="#63b8ff" stroke="#63b8ff" points="393.86,-13.88 403.86,-10.38 393.86,-6.88 393.86,-13.88"/>
</a>
</g>
</g>
<!-- Node4&#45;&gt;Node4 -->
<g id="edge4_Node000004_Node000004" class="edge">
<title>Node4&#45;&gt;Node4</title>
<g id="a_edge4_Node000004_Node000004"><a xlink:title=" ">
<path fill="none" stroke="#63b8ff" d="M411.3,-21.15C406.57,-29.81 410.51,-38.75 423.12,-38.75 429.82,-38.75 434.08,-36.23 435.88,-32.56"/>
<polygon fill="#63b8ff" stroke="#63b8ff" points="439.38,-32.34 435.07,-22.66 432.4,-32.91 439.38,-32.34"/>
</a>
</g>
</g>
</g>
</svg>
