<?xml version="1.0" encoding="UTF-8" standalone="no"?>
<!DOCTYPE svg PUBLIC "-//W3C//DTD SVG 1.1//EN"
 "http://www.w3.org/Graphics/SVG/1.1/DTD/svg11.dtd">
<!-- Generated by graphviz version 13.1.2 (20250809.0930)
 -->
<!-- Title: GreenFHom3DPer2D::Evaluate Pages: 1 -->
<svg width="861pt" height="125pt"
 viewBox="0.00 0.00 861.00 125.00" xmlns="http://www.w3.org/2000/svg" xmlns:xlink="http://www.w3.org/1999/xlink">
<g id="graph0" class="graph" transform="scale(1 1) rotate(0) translate(4 120.75)">
<title>GreenFHom3DPer2D::Evaluate</title>
<!-- Node1 -->
<g id="Node000001" class="node">
<title>Node1</title>
<g id="a_Node000001"><a xlink:title="Scalar Bloch&#45;periodic Green&#39;s function .">
<polygon fill="#999999" stroke="#666666" points="166,-59.75 0,-59.75 0,-39 166,-39 166,-59.75"/>
<text xml:space="preserve" text-anchor="middle" x="83" y="-46.25" font-family="Helvetica,sans-Serif" font-size="10.00">GreenFHom3DPer2D::Evaluate</text>
</a>
</g>
</g>
<!-- Node2 -->
<g id="Node000002" class="node">
<title>Node2</title>
<g id="a_Node000002"><a xlink:href="classGreenFHom3DPer2D.html#a359a21bc178e1c0d21125f8af5ae4fcb" target="_top" xlink:title="Ewald&#45;summed scalar kernel (2D periodic).">
<polygon fill="white" stroke="#666666" points="354.5,-59.75 202,-59.75 202,-39 354.5,-39 354.5,-59.75"/>
<text xml:space="preserve" text-anchor="middle" x="278.25" y="-46.25" font-family="Helvetica,sans-Serif" font-size="10.00">GreenFHom3DPer2D::Ewald</text>
</a>
</g>
</g>
<!-- Node1&#45;&gt;Node2 -->
<g id="edge1_Node000001_Node000002" class="edge">
<title>Node1&#45;&gt;Node2</title>
<g id="a_edge1_Node000001_Node000002"><a xlink:title=" ">
<path fill="none" stroke="#63b8ff" d="M166.24,-49.38C174.1,-49.38 182.1,-49.38 190.02,-49.38"/>
<polygon fill="#63b8ff" stroke="#63b8ff" points="190.01,-52.88 200.01,-49.38 190.01,-45.88 190.01,-52.88"/>
</a>
</g>
</g>
<!-- Node3 -->
<g id="Node000003" class="node">
<title>Node3</title>
<g id="a_Node000003"><a xlink:href="classGreenFHom3DPer2D.html#a1bf2f1eb77a84b027b99ec75d31c8576" target="_top" xlink:title="Spatial (real&#45;space images) part of Ewald sum.">
<polygon fill="white" stroke="#666666" points="579.75,-98.75 393.5,-98.75 393.5,-78 579.75,-78 579.75,-98.75"/>
<text xml:space="preserve" text-anchor="middle" x="486.62" y="-85.25" font-family="Helvetica,sans-Serif" font-size="10.00">GreenFHom3DPer2D::EwaldSpatial</text>
</a>
</g>
</g>
<!-- Node2&#45;&gt;Node3 -->
<g id="edge2_Node000002_Node000003" class="edge">
<title>Node2&#45;&gt;Node3</title>
<g id="a_edge2_Node000002_Node000003"><a xlink:title=" ">
<path fill="none" stroke="#63b8ff" d="M336.74,-60.24C361.57,-64.93 390.82,-70.46 416.8,-75.37"/>
<polygon fill="#63b8ff" stroke="#63b8ff" points="416.13,-78.8 426.6,-77.22 417.43,-71.92 416.13,-78.8"/>
</a>
</g>
</g>
<!-- Node8 -->
<g id="Node000008" class="node">
<title>Node8</title>
<g id="a_Node000008"><a xlink:href="classGreenFHom3DPer2D.html#aad98b9953626259eda54006eecbcf04e" target="_top" xlink:title="Spectral (reciprocal&#45;lattice) part of Ewald sum for .">
<polygon fill="white" stroke="#666666" points="582.75,-59.75 390.5,-59.75 390.5,-39 582.75,-39 582.75,-59.75"/>
<text xml:space="preserve" text-anchor="middle" x="486.62" y="-46.25" font-family="Helvetica,sans-Serif" font-size="10.00">GreenFHom3DPer2D::EwaldSpectral</text>
</a>
</g>
</g>
<!-- Node2&#45;&gt;Node8 -->
<g id="edge8_Node000002_Node000008" class="edge">
<title>Node2&#45;&gt;Node8</title>
<g id="a_edge8_Node000002_Node000008"><a xlink:title=" ">
<path fill="none" stroke="#63b8ff" d="M354.92,-49.38C362.74,-49.38 370.79,-49.38 378.87,-49.38"/>
<polygon fill="#63b8ff" stroke="#63b8ff" points="378.77,-52.88 388.77,-49.38 378.77,-45.88 378.77,-52.88"/>
</a>
</g>
</g>
<!-- Node10 -->
<g id="Node000010" class="node">
<title>Node10</title>
<g id="a_Node000010"><a xlink:href="classGreenFHom3DPer2D.html#a098b4d59dde268718483b4ac9906e446" target="_top" xlink:title="Map a displacement to the primitive cell.">
<polygon fill="white" stroke="#666666" points="579.75,-20.75 393.5,-20.75 393.5,0 579.75,0 579.75,-20.75"/>
<text xml:space="preserve" text-anchor="middle" x="486.62" y="-7.25" font-family="Helvetica,sans-Serif" font-size="10.00">GreenFHom3DPer2D::PrimitiveCell</text>
</a>
</g>
</g>
<!-- Node2&#45;&gt;Node10 -->
<g id="edge12_Node000002_Node000010" class="edge">
<title>Node2&#45;&gt;Node10</title>
<g id="a_edge12_Node000002_Node000010"><a xlink:title=" ">
<path fill="none" stroke="#63b8ff" d="M336.74,-38.51C361.57,-33.82 390.82,-28.29 416.8,-23.38"/>
<polygon fill="#63b8ff" stroke="#63b8ff" points="417.43,-26.83 426.6,-21.53 416.13,-19.95 417.43,-26.83"/>
</a>
</g>
</g>
<!-- Node4 -->
<g id="Node000004" class="node">
<title>Node4</title>
<g id="a_Node000004"><a xlink:href="classGreenF.html#abf00726011a4eca4109bc43125218d30" target="_top" xlink:title="Evaluate erfc via the 2D lookup table if available.">
<polygon fill="white" stroke="#666666" points="706,-98.75 618.75,-98.75 618.75,-78 706,-78 706,-98.75"/>
<text xml:space="preserve" text-anchor="middle" x="662.38" y="-85.25" font-family="Helvetica,sans-Serif" font-size="10.00">GreenF::EvErfc</text>
</a>
</g>
</g>
<!-- Node3&#45;&gt;Node4 -->
<g id="edge3_Node000003_Node000004" class="edge">
<title>Node3&#45;&gt;Node4</title>
<g id="a_edge3_Node000003_Node000004"><a xlink:title=" ">
<path fill="none" stroke="#63b8ff" d="M580.1,-88.38C589.35,-88.38 598.51,-88.38 607.17,-88.38"/>
<polygon fill="#63b8ff" stroke="#63b8ff" points="607.11,-91.88 617.11,-88.38 607.11,-84.88 607.11,-91.88"/>
</a>
</g>
</g>
<!-- Node5 -->
<g id="Node000005" class="node">
<title>Node5</title>
<g id="a_Node000005"><a xlink:href="mathFunctions_8cpp.html#a7916c6b62310fe9cf38ec2a2890aaad4" target="_top" xlink:title="Complementary error function for complex arguments.">
<polygon fill="white" stroke="#666666" points="782,-116.75 742,-116.75 742,-96 782,-96 782,-116.75"/>
<text xml:space="preserve" text-anchor="middle" x="762" y="-103.25" font-family="Helvetica,sans-Serif" font-size="10.00">cerfc</text>
</a>
</g>
</g>
<!-- Node4&#45;&gt;Node5 -->
<g id="edge4_Node000004_Node000005" class="edge">
<title>Node4&#45;&gt;Node5</title>
<g id="a_edge4_Node000004_Node000005"><a xlink:title=" ">
<path fill="none" stroke="#63b8ff" d="M706.48,-96.32C714.52,-97.81 722.78,-99.33 730.35,-100.72"/>
<polygon fill="#63b8ff" stroke="#63b8ff" points="729.61,-104.15 740.08,-102.52 730.88,-97.26 729.61,-104.15"/>
</a>
</g>
</g>
<!-- Node7 -->
<g id="Node000007" class="node">
<title>Node7</title>
<g id="a_Node000007"><a xlink:href="Domain_8cpp.html#aafa3e4fa6318b2f8740f4dbd50c367e5" target="_top" xlink:title="Extract the real part of each component of a complex 3&#45;vector.">
<polygon fill="white" stroke="#666666" points="779.38,-59.75 744.62,-59.75 744.62,-39 779.38,-39 779.38,-59.75"/>
<text xml:space="preserve" text-anchor="middle" x="762" y="-46.25" font-family="Helvetica,sans-Serif" font-size="10.00">real</text>
</a>
</g>
</g>
<!-- Node4&#45;&gt;Node7 -->
<g id="edge6_Node000004_Node000007" class="edge">
<title>Node4&#45;&gt;Node7</title>
<g id="a_edge6_Node000004_Node000007"><a xlink:title=" ">
<path fill="none" stroke="#63b8ff" d="M690.57,-77.51C704.06,-72.12 720.3,-65.63 733.79,-60.24"/>
<polygon fill="#63b8ff" stroke="#63b8ff" points="734.96,-63.55 742.95,-56.59 732.36,-57.05 734.96,-63.55"/>
</a>
</g>
</g>
<!-- Node6 -->
<g id="Node000006" class="node">
<title>Node6</title>
<g id="a_Node000006"><a xlink:href="mathFunctions_8cpp.html#abc57cde75234d7e165a9ebcdb45f2c29" target="_top" xlink:title="Error function for complex arguments.">
<polygon fill="white" stroke="#666666" points="852.75,-116.75 818,-116.75 818,-96 852.75,-96 852.75,-116.75"/>
<text xml:space="preserve" text-anchor="middle" x="835.38" y="-103.25" font-family="Helvetica,sans-Serif" font-size="10.00">cerf</text>
</a>
</g>
</g>
<!-- Node5&#45;&gt;Node6 -->
<g id="edge5_Node000005_Node000006" class="edge">
<title>Node5&#45;&gt;Node6</title>
<g id="a_edge5_Node000005_Node000006"><a xlink:title=" ">
<path fill="none" stroke="#63b8ff" d="M782.13,-106.38C789.56,-106.38 798.23,-106.38 806.34,-106.38"/>
<polygon fill="#63b8ff" stroke="#63b8ff" points="806.11,-109.88 816.11,-106.38 806.11,-102.88 806.11,-109.88"/>
</a>
</g>
</g>
<!-- Node7&#45;&gt;Node7 -->
<g id="edge7_Node000007_Node000007" class="edge">
<title>Node7&#45;&gt;Node7</title>
<g id="a_edge7_Node000007_Node000007"><a xlink:title=" ">
<path fill="none" stroke="#63b8ff" d="M750.18,-60.15C745.45,-68.81 749.39,-77.75 762,-77.75 768.7,-77.75 772.95,-75.23 774.76,-71.56"/>
<polygon fill="#63b8ff" stroke="#63b8ff" points="778.25,-71.34 773.95,-61.66 771.28,-71.91 778.25,-71.34"/>
</a>
</g>
</g>
<!-- Node8&#45;&gt;Node4 -->
<g id="edge11_Node000008_Node000004" class="edge">
<title>Node8&#45;&gt;Node4</title>
<g id="a_edge11_Node000008_Node000004"><a xlink:title=" ">
<path fill="none" stroke="#63b8ff" d="M540.52,-60.2C554.28,-63.1 569.09,-66.29 582.75,-69.38 590.75,-71.18 599.2,-73.16 607.47,-75.12"/>
<polygon fill="#63b8ff" stroke="#63b8ff" points="606.57,-78.51 617.11,-77.44 608.2,-71.7 606.57,-78.51"/>
</a>
</g>
</g>
<!-- Node9 -->
<g id="Node000009" class="node">
<title>Node9</title>
<g id="a_Node000009"><a xlink:href="group__greenFunction.html#gac0a52dce23be7dacdf97c68653b6c137" target="_top" xlink:title="Complex square root with a branch cut along the negative real axis.">
<polygon fill="white" stroke="#666666" points="682.38,-59.75 642.38,-59.75 642.38,-39 682.38,-39 682.38,-59.75"/>
<text xml:space="preserve" text-anchor="middle" x="662.38" y="-46.25" font-family="Helvetica,sans-Serif" font-size="10.00">csqrt</text>
</a>
</g>
</g>
<!-- Node8&#45;&gt;Node9 -->
<g id="edge9_Node000008_Node000009" class="edge">
<title>Node8&#45;&gt;Node9</title>
<g id="a_edge9_Node000008_Node000009"><a xlink:title=" ">
<path fill="none" stroke="#63b8ff" d="M583.14,-49.38C600.29,-49.38 616.98,-49.38 630.51,-49.38"/>
<polygon fill="#63b8ff" stroke="#63b8ff" points="630.46,-52.88 640.46,-49.38 630.46,-45.88 630.46,-52.88"/>
</a>
</g>
</g>
<!-- Node9&#45;&gt;Node7 -->
<g id="edge10_Node000009_Node000007" class="edge">
<title>Node9&#45;&gt;Node7</title>
<g id="a_edge10_Node000009_Node000007"><a xlink:title=" ">
<path fill="none" stroke="#63b8ff" d="M682.66,-49.38C697.01,-49.38 716.81,-49.38 732.91,-49.38"/>
<polygon fill="#63b8ff" stroke="#63b8ff" points="732.84,-52.88 742.84,-49.38 732.84,-45.88 732.84,-52.88"/>
</a>
</g>
</g>
</g>
</svg>
