<?xml version="1.0" encoding="UTF-8" standalone="no"?>
<!DOCTYPE svg PUBLIC "-//W3C//DTD SVG 1.1//EN"
 "http://www.w3.org/Graphics/SVG/1.1/DTD/svg11.dtd">
<!-- Generated by graphviz version 13.1.2 (20250809.0930)
 -->
<!-- Title: SimJob::Power Pages: 1 -->
<svg width="292pt" height="104pt"
 viewBox="0.00 0.00 292.00 104.00" xmlns="http://www.w3.org/2000/svg" xmlns:xlink="http://www.w3.org/1999/xlink">

<svg id="main" version="1.1" xmlns="http://www.w3.org/2000/svg" xmlns:xlink="http://www.w3.org/1999/xlink" xml:space="preserve">

<style type="text/css"><![CDATA[
.node, .edge {opacity: 0.7;}
.node.selected, .edge.selected {opacity: 1;}
.edge:hover path { stroke: red; }
.edge:hover polygon { stroke: red; fill: red; }
]]></style>
<script type="application/ecmascript" xlink:href="svg.min.js"/>
<svg id="graph" class="graph">
<g id="graph0" class="graph" transform="scale(1 1) rotate(0) translate(4 99.75)">
<title>SimJob::Power</title>
<!-- Node1 -->
<g id="Node000001" class="node">
<title>Node1</title>
<g id="a_Node000001"><a xlink:title="Net time&#45;averaged power crossing the domain&#39;s surface.">
<polygon fill="#999999" stroke="#666666" points="85.75,-48.75 0,-48.75 0,-28 85.75,-28 85.75,-48.75"/>
<text xml:space="preserve" text-anchor="middle" x="42.88" y="-35.25" font-family="Helvetica,sans-Serif" font-size="10.00">SimJob::Power</text>
</a>
</g>
</g>
<!-- Node2 -->
<g id="Node000002" class="node">
<title>Node2</title>
<g id="a_Node000002"><a xlink:href="classDomain.html#a3087596044d4c345f84faaad1291946d" target="_top" xlink:title="Power crossing the domain boundary computed from the RWG solution.">
<polygon fill="white" stroke="#666666" points="212,-48.75 121.75,-48.75 121.75,-28 212,-28 212,-48.75"/>
<text xml:space="preserve" text-anchor="middle" x="166.88" y="-35.25" font-family="Helvetica,sans-Serif" font-size="10.00">Domain::Power</text>
</a>
</g>
</g>
<!-- Node1&#45;&gt;Node2 -->
<g id="edge1_Node000001_Node000002" class="edge">
<title>Node1&#45;&gt;Node2</title>
<g id="a_edge1_Node000001_Node000002"><a xlink:title=" ">
<path fill="none" stroke="#63b8ff" d="M86.2,-38.38C93.97,-38.38 102.18,-38.38 110.26,-38.38"/>
<polygon fill="#63b8ff" stroke="#63b8ff" points="110.03,-41.88 120.03,-38.38 110.03,-34.88 110.03,-41.88"/>
</a>
</g>
</g>
<!-- Node3 -->
<g id="Node000003" class="node">
<title>Node3</title>
<g id="a_Node000003"><a xlink:href="Domain_8cpp.html#abbd88d15240455cf734121fcd73b3a03" target="_top" xlink:title="Compute the element&#45;wise complex conjugate of a 3&#45;vector.">
<polygon fill="white" stroke="#666666" points="284.25,-77.75 248,-77.75 248,-57 284.25,-57 284.25,-77.75"/>
<text xml:space="preserve" text-anchor="middle" x="266.12" y="-64.25" font-family="Helvetica,sans-Serif" font-size="10.00">conj</text>
</a>
</g>
</g>
<!-- Node2&#45;&gt;Node3 -->
<g id="edge2_Node000002_Node000003" class="edge">
<title>Node2&#45;&gt;Node3</title>
<g id="a_edge2_Node000002_Node000003"><a xlink:title=" ">
<path fill="none" stroke="#63b8ff" d="M204.09,-49.17C214.92,-52.4 226.63,-55.89 236.87,-58.95"/>
<polygon fill="#63b8ff" stroke="#63b8ff" points="235.64,-62.24 246.23,-61.74 237.64,-55.53 235.64,-62.24"/>
</a>
</g>
</g>
<!-- Node4 -->
<g id="Node000004" class="node">
<title>Node4</title>
<g id="a_Node000004"><a xlink:href="Domain_8cpp.html#aafa3e4fa6318b2f8740f4dbd50c367e5" target="_top" xlink:title="Extract the real part of each component of a complex 3&#45;vector.">
<polygon fill="white" stroke="#666666" points="283.5,-20.75 248.75,-20.75 248.75,0 283.5,0 283.5,-20.75"/>
<text xml:space="preserve" text-anchor="middle" x="266.12" y="-7.25" font-family="Helvetica,sans-Serif" font-size="10.00">real</text>
</a>
</g>
</g>
<!-- Node2&#45;&gt;Node4 -->
<g id="edge4_Node000002_Node000004" class="edge">
<title>Node2&#45;&gt;Node4</title>
<g id="a_edge4_Node000002_Node000004"><a xlink:title=" ">
<path fill="none" stroke="#63b8ff" d="M205.47,-27.55C216.15,-24.47 227.58,-21.18 237.55,-18.31"/>
<polygon fill="#63b8ff" stroke="#63b8ff" points="238.35,-21.73 246.99,-15.6 236.41,-15 238.35,-21.73"/>
</a>
</g>
</g>
<!-- Node3&#45;&gt;Node3 -->
<g id="edge3_Node000003_Node000003" class="edge">
<title>Node3&#45;&gt;Node3</title>
<g id="a_edge3_Node000003_Node000003"><a xlink:title=" ">
<path fill="none" stroke="#63b8ff" d="M250.13,-78.15C243.74,-86.81 249.07,-95.75 266.12,-95.75 275.19,-95.75 280.94,-93.23 283.38,-89.56"/>
<polygon fill="#63b8ff" stroke="#63b8ff" points="286.86,-89.21 282.28,-79.65 279.91,-89.98 286.86,-89.21"/>
</a>
</g>
</g>
<!-- Node4&#45;&gt;Node4 -->
<g id="edge5_Node000004_Node000004" class="edge">
<title>Node4&#45;&gt;Node4</title>
<g id="a_edge5_Node000004_Node000004"><a xlink:title=" ">
<path fill="none" stroke="#63b8ff" d="M250.13,-21.15C243.74,-29.81 249.07,-38.75 266.12,-38.75 275.19,-38.75 280.94,-36.23 283.38,-32.56"/>
<polygon fill="#63b8ff" stroke="#63b8ff" points="286.86,-32.21 282.28,-22.65 279.91,-32.98 286.86,-32.21"/>
</a>
</g>
</g>
</g>
</svg>
</svg>

<style type='text/css'>
<![CDATA[
[data-mouse-over-selected='false'] { opacity: 0.7; }
[data-mouse-over-selected='true']  { opacity: 1.0; }
]]>
</style>
<script type="application/ecmascript"><![CDATA[
document.addEventListener('DOMContentLoaded', (event) => {
  highlightEdges();
  highlightAdjacentNodes();
});
]]></script>
</svg>
