<?xml version="1.0" encoding="UTF-8" standalone="no"?>
<!DOCTYPE svg PUBLIC "-//W3C//DTD SVG 1.1//EN"
 "http://www.w3.org/Graphics/SVG/1.1/DTD/svg11.dtd">
<!-- Generated by graphviz version 13.1.2 (20250809.0930)
 -->
<!-- Title: LayeredMediaUtils::InterfaceTransferMatrix Pages: 1 -->
<svg width="472pt" height="53pt"
 viewBox="0.00 0.00 472.00 53.00" xmlns="http://www.w3.org/2000/svg" xmlns:xlink="http://www.w3.org/1999/xlink">
<g id="graph0" class="graph" transform="scale(1 1) rotate(0) translate(4 49.12)">
<title>LayeredMediaUtils::InterfaceTransferMatrix</title>
<!-- Node1 -->
<g id="Node000001" class="node">
<title>Node1</title>
<g id="a_Node000001"><a xlink:title="Computes the interface transfer matrix for TE or TM waves.">
<polygon fill="#999999" stroke="#666666" points="130,-33.5 0,-33.5 0,0 130,0 130,-33.5"/>
<text xml:space="preserve" text-anchor="start" x="8" y="-20" font-family="Helvetica,sans-Serif" font-size="10.00">LayeredMediaUtils::</text>
<text xml:space="preserve" text-anchor="middle" x="65" y="-7.25" font-family="Helvetica,sans-Serif" font-size="10.00">InterfaceTransferMatrix</text>
</a>
</g>
</g>
<!-- Node2 -->
<g id="Node000002" class="node">
<title>Node2</title>
<g id="a_Node000002"><a xlink:href="classLayeredMediaUtils.html#a212943a3dd5bdeaaa5c92ed21fad87a9" target="_top" xlink:title="Computes Fresnel reflection and transmission coefficients at an interface.">
<polygon fill="white" stroke="#666666" points="279.5,-33.5 166,-33.5 166,0 279.5,0 279.5,-33.5"/>
<text xml:space="preserve" text-anchor="start" x="174" y="-20" font-family="Helvetica,sans-Serif" font-size="10.00">LayeredMediaUtils::</text>
<text xml:space="preserve" text-anchor="middle" x="222.75" y="-7.25" font-family="Helvetica,sans-Serif" font-size="10.00">FresnelCoeff</text>
</a>
</g>
</g>
<!-- Node1&#45;&gt;Node2 -->
<g id="edge1_Node000001_Node000002" class="edge">
<title>Node1&#45;&gt;Node2</title>
<g id="a_edge1_Node000001_Node000002"><a xlink:title=" ">
<path fill="none" stroke="#63b8ff" d="M130.25,-16.75C138.13,-16.75 146.2,-16.75 154.13,-16.75"/>
<polygon fill="#63b8ff" stroke="#63b8ff" points="154.1,-20.25 164.1,-16.75 154.1,-13.25 154.1,-20.25"/>
</a>
</g>
</g>
<!-- Node3 -->
<g id="Node000003" class="node">
<title>Node3</title>
<g id="a_Node000003"><a xlink:href="LayeredMediaUtils_8cpp.html#a50405603197731a46c864b0f39744ed0" target="_top" xlink:title="Computes the square root of a complex number with proper handling of negative imaginary parts.">
<polygon fill="white" stroke="#666666" points="393,-27.12 315.5,-27.12 315.5,-6.38 393,-6.38 393,-27.12"/>
<text xml:space="preserve" text-anchor="middle" x="354.25" y="-13.62" font-family="Helvetica,sans-Serif" font-size="10.00">complexSqrt</text>
</a>
</g>
</g>
<!-- Node2&#45;&gt;Node3 -->
<g id="edge2_Node000002_Node000003" class="edge">
<title>Node2&#45;&gt;Node3</title>
<g id="a_edge2_Node000002_Node000003"><a xlink:title=" ">
<path fill="none" stroke="#63b8ff" d="M279.8,-16.75C287.7,-16.75 295.77,-16.75 303.54,-16.75"/>
<polygon fill="#63b8ff" stroke="#63b8ff" points="303.52,-20.25 313.52,-16.75 303.52,-13.25 303.52,-20.25"/>
</a>
</g>
</g>
<!-- Node4 -->
<g id="Node000004" class="node">
<title>Node4</title>
<g id="a_Node000004"><a xlink:href="Domain_8cpp.html#aafa3e4fa6318b2f8740f4dbd50c367e5" target="_top" xlink:title="Extract the real part of each component of a complex 3&#45;vector.">
<polygon fill="white" stroke="#666666" points="463.75,-27.12 429,-27.12 429,-6.38 463.75,-6.38 463.75,-27.12"/>
<text xml:space="preserve" text-anchor="middle" x="446.38" y="-13.62" font-family="Helvetica,sans-Serif" font-size="10.00">real</text>
</a>
</g>
</g>
<!-- Node3&#45;&gt;Node4 -->
<g id="edge3_Node000003_Node000004" class="edge">
<title>Node3&#45;&gt;Node4</title>
<g id="a_edge3_Node000003_Node000004"><a xlink:title=" ">
<path fill="none" stroke="#63b8ff" d="M393.47,-16.75C401.44,-16.75 409.69,-16.75 417.21,-16.75"/>
<polygon fill="#63b8ff" stroke="#63b8ff" points="417.12,-20.25 427.12,-16.75 417.12,-13.25 417.12,-20.25"/>
</a>
</g>
</g>
<!-- Node4&#45;&gt;Node4 -->
<g id="edge4_Node000004_Node000004" class="edge">
<title>Node4&#45;&gt;Node4</title>
<g id="a_edge4_Node000004_Node000004"><a xlink:title=" ">
<path fill="none" stroke="#63b8ff" d="M431.53,-27.52C425.59,-36.18 430.54,-45.12 446.38,-45.12 454.79,-45.12 460.13,-42.6 462.39,-38.94"/>
<polygon fill="#63b8ff" stroke="#63b8ff" points="465.88,-38.62 461.37,-29.03 458.92,-39.33 465.88,-38.62"/>
</a>
</g>
</g>
</g>
</svg>
