<?xml version="1.0" encoding="UTF-8" standalone="no"?>
<!DOCTYPE svg PUBLIC "-//W3C//DTD SVG 1.1//EN"
 "http://www.w3.org/Graphics/SVG/1.1/DTD/svg11.dtd">
<!-- Generated by graphviz version 13.1.2 (20250809.0930)
 -->
<!-- Title: DomainHom3DPer::DomainHom3DPer Pages: 1 -->
<svg width="1024pt" height="68pt"
 viewBox="0.00 0.00 1024.00 68.00" xmlns="http://www.w3.org/2000/svg" xmlns:xlink="http://www.w3.org/1999/xlink">
<g id="graph0" class="graph" transform="scale(1 1) rotate(0) translate(4 63.75)">
<title>DomainHom3DPer::DomainHom3DPer</title>
<!-- Node1 -->
<g id="Node000001" class="node">
<title>Node1</title>
<g id="a_Node000001"><a xlink:title="Construct a periodic homogeneous domain and select a periodic Green&#39;s function.">
<polygon fill="#999999" stroke="#666666" points="203.5,-39.75 0,-39.75 0,-19 203.5,-19 203.5,-39.75"/>
<text xml:space="preserve" text-anchor="middle" x="101.75" y="-26.25" font-family="Helvetica,sans-Serif" font-size="10.00">DomainHom3DPer::DomainHom3DPer</text>
</a>
</g>
</g>
<!-- Node2 -->
<g id="Node000002" class="node">
<title>Node2</title>
<g id="a_Node000002"><a xlink:href="classDomainHom3D.html#ae2c7b0309cdbeda660e9e937de24c2b6" target="_top" xlink:title="Construct a homogeneous domain and immediately create its Green&#39;s function.">
<polygon fill="white" stroke="#666666" points="411.5,-39.75 239.5,-39.75 239.5,-19 411.5,-19 411.5,-39.75"/>
<text xml:space="preserve" text-anchor="middle" x="325.5" y="-26.25" font-family="Helvetica,sans-Serif" font-size="10.00">DomainHom3D::DomainHom3D</text>
</a>
</g>
</g>
<!-- Node1&#45;&gt;Node2 -->
<g id="edge1_Node000001_Node000002" class="edge">
<title>Node1&#45;&gt;Node2</title>
<g id="a_edge1_Node000001_Node000002"><a xlink:title=" ">
<path fill="none" stroke="#63b8ff" d="M203.89,-29.38C211.8,-29.38 219.77,-29.38 227.64,-29.38"/>
<polygon fill="#63b8ff" stroke="#63b8ff" points="227.58,-32.88 237.58,-29.38 227.58,-25.88 227.58,-32.88"/>
</a>
</g>
</g>
<!-- Node3 -->
<g id="Node000003" class="node">
<title>Node3</title>
<g id="a_Node000003"><a xlink:href="classDomain.html#a3f6f9e8ec932680440098679b6fe3300" target="_top" xlink:title="Construct a domain over a mesh region at a given vacuum wavelength.">
<polygon fill="white" stroke="#666666" points="570.38,-59.75 471.88,-59.75 471.88,-39 570.38,-39 570.38,-59.75"/>
<text xml:space="preserve" text-anchor="middle" x="521.12" y="-46.25" font-family="Helvetica,sans-Serif" font-size="10.00">Domain::Domain</text>
</a>
</g>
</g>
<!-- Node2&#45;&gt;Node3 -->
<g id="edge2_Node000002_Node000003" class="edge">
<title>Node2&#45;&gt;Node3</title>
<g id="a_edge2_Node000002_Node000003"><a xlink:title=" ">
<path fill="none" stroke="#63b8ff" d="M411.99,-38.21C428.22,-39.88 444.87,-41.6 460.1,-43.18"/>
<polygon fill="#63b8ff" stroke="#63b8ff" points="459.63,-46.64 469.94,-44.19 460.35,-39.68 459.63,-46.64"/>
</a>
</g>
</g>
<!-- Node6 -->
<g id="Node000006" class="node">
<title>Node6</title>
<g id="a_Node000006"><a xlink:href="classDomainHom3D.html#a3877e2d1f2020c251b5e3c74e5c40594" target="_top" xlink:title="Instantiate the homogeneous Green&#39;s function for this domain.">
<polygon fill="white" stroke="#666666" points="594.75,-20.75 447.5,-20.75 447.5,0 594.75,0 594.75,-20.75"/>
<text xml:space="preserve" text-anchor="middle" x="521.12" y="-7.25" font-family="Helvetica,sans-Serif" font-size="10.00">DomainHom3D::InitGrnFun</text>
</a>
</g>
</g>
<!-- Node2&#45;&gt;Node6 -->
<g id="edge5_Node000002_Node000006" class="edge">
<title>Node2&#45;&gt;Node6</title>
<g id="a_edge5_Node000002_Node000006"><a xlink:title=" ">
<path fill="none" stroke="#63b8ff" d="M411.99,-20.99C419.89,-20.21 427.88,-19.43 435.77,-18.65"/>
<polygon fill="#63b8ff" stroke="#63b8ff" points="436.1,-22.14 445.71,-17.68 435.42,-15.17 436.1,-22.14"/>
</a>
</g>
</g>
<!-- Node4 -->
<g id="Node000004" class="node">
<title>Node4</title>
<g id="a_Node000004"><a xlink:href="classDomain.html#a753296cc63cedb73b537311031521178" target="_top" xlink:title="Add all boundary triangles belonging to region dIndex and build RWGs.">
<polygon fill="white" stroke="#666666" points="804.25,-59.75 630.75,-59.75 630.75,-39 804.25,-39 804.25,-59.75"/>
<text xml:space="preserve" text-anchor="middle" x="717.5" y="-46.25" font-family="Helvetica,sans-Serif" font-size="10.00">Domain::AddTrianglesFromMesh</text>
</a>
</g>
</g>
<!-- Node3&#45;&gt;Node4 -->
<g id="edge3_Node000003_Node000004" class="edge">
<title>Node3&#45;&gt;Node4</title>
<g id="a_edge3_Node000003_Node000004"><a xlink:title=" ">
<path fill="none" stroke="#63b8ff" d="M570.67,-49.38C585.52,-49.38 602.42,-49.38 619.31,-49.38"/>
<polygon fill="#63b8ff" stroke="#63b8ff" points="618.87,-52.88 628.87,-49.38 618.87,-45.88 618.87,-52.88"/>
</a>
</g>
</g>
<!-- Node5 -->
<g id="Node000005" class="node">
<title>Node5</title>
<g id="a_Node000005"><a xlink:href="classSurfaceMesh.html#a7681019f61e9c1542c893c177117dac4" target="_top" xlink:title="Triangles bordering a given domain (FRONT or BACK).">
<polygon fill="white" stroke="#666666" points="1016,-59.75 840.25,-59.75 840.25,-39 1016,-39 1016,-59.75"/>
<text xml:space="preserve" text-anchor="middle" x="928.12" y="-46.25" font-family="Helvetica,sans-Serif" font-size="10.00">SurfaceMesh::BorderingTriangles</text>
</a>
</g>
</g>
<!-- Node4&#45;&gt;Node5 -->
<g id="edge4_Node000004_Node000005" class="edge">
<title>Node4&#45;&gt;Node5</title>
<g id="a_edge4_Node000004_Node000005"><a xlink:title=" ">
<path fill="none" stroke="#63b8ff" d="M804.56,-49.38C812.49,-49.38 820.57,-49.38 828.61,-49.38"/>
<polygon fill="#63b8ff" stroke="#63b8ff" points="828.4,-52.88 838.4,-49.38 828.4,-45.88 828.4,-52.88"/>
</a>
</g>
</g>
</g>
</svg>
