<?xml version="1.0" encoding="UTF-8" standalone="no"?>
<!DOCTYPE svg PUBLIC "-//W3C//DTD SVG 1.1//EN"
 "http://www.w3.org/Graphics/SVG/1.1/DTD/svg11.dtd">
<!-- Generated by graphviz version 13.1.2 (20250809.0930)
 -->
<!-- Title: DomainHom3D::extinctionCS Pages: 1 -->
<svg width="420pt" height="242pt"
 viewBox="0.00 0.00 420.00 242.00" xmlns="http://www.w3.org/2000/svg" xmlns:xlink="http://www.w3.org/1999/xlink">

<svg id="main" version="1.1" xmlns="http://www.w3.org/2000/svg" xmlns:xlink="http://www.w3.org/1999/xlink" xml:space="preserve">

<style type="text/css"><![CDATA[
.node, .edge {opacity: 0.7;}
.node.selected, .edge.selected {opacity: 1;}
.edge:hover path { stroke: red; }
.edge:hover polygon { stroke: red; fill: red; }
]]></style>
<script type="application/ecmascript" xlink:href="svg.min.js"/>
<svg id="graph" class="graph">
<g id="graph0" class="graph" transform="scale(1 1) rotate(0) translate(4 237.75)">
<title>DomainHom3D::extinctionCS</title>
<!-- Node1 -->
<g id="Node000001" class="node">
<title>Node1</title>
<g id="a_Node000001"><a xlink:title="Extinction cross section via surface quadrature.">
<polygon fill="#999999" stroke="#666666" points="158.5,-117.75 0,-117.75 0,-97 158.5,-97 158.5,-117.75"/>
<text xml:space="preserve" text-anchor="middle" x="79.25" y="-104.25" font-family="Helvetica,sans-Serif" font-size="10.00">DomainHom3D::extinctionCS</text>
</a>
</g>
</g>
<!-- Node2 -->
<g id="Node000002" class="node">
<title>Node2</title>
<g id="a_Node000002"><a xlink:href="DomainHom3D_8cpp.html#acf27d554499921efb016e1a01ac8b94e" target="_top" xlink:title="Compute the element&#45;wise complex conjugate of a 3&#45;vector.">
<polygon fill="white" stroke="#666666" points="302.75,-215.75 226,-215.75 226,-195 302.75,-195 302.75,-215.75"/>
<text xml:space="preserve" text-anchor="middle" x="264.38" y="-202.25" font-family="Helvetica,sans-Serif" font-size="10.00">conjVecHom</text>
</a>
</g>
</g>
<!-- Node1&#45;&gt;Node2 -->
<g id="edge1_Node000001_Node000002" class="edge">
<title>Node1&#45;&gt;Node2</title>
<g id="a_edge1_Node000001_Node000002"><a xlink:title=" ">
<path fill="none" stroke="#63b8ff" d="M93.13,-118.21C113.45,-134.82 154.75,-166.62 194.5,-185.38 200.93,-188.41 207.92,-191.08 214.89,-193.41"/>
<polygon fill="#63b8ff" stroke="#63b8ff" points="213.73,-196.71 224.32,-196.33 215.8,-190.03 213.73,-196.71"/>
</a>
</g>
</g>
<!-- Node4 -->
<g id="Node000004" class="node">
<title>Node4</title>
<g id="a_Node000004"><a xlink:href="classTriangle.html#a691ff1d8d3f33df1fe0aae161d14ec49" target="_top" xlink:title="FRONT/BACK normal: FRONT &#45;&gt; +normal, BACK &#45;&gt; −normal.">
<polygon fill="white" stroke="#666666" points="334.25,-176.75 194.5,-176.75 194.5,-156 334.25,-156 334.25,-176.75"/>
<text xml:space="preserve" text-anchor="middle" x="264.38" y="-163.25" font-family="Helvetica,sans-Serif" font-size="10.00">Triangle::FBNormalVector</text>
</a>
</g>
</g>
<!-- Node1&#45;&gt;Node4 -->
<g id="edge4_Node000001_Node000004" class="edge">
<title>Node1&#45;&gt;Node4</title>
<g id="a_edge4_Node000001_Node000004"><a xlink:title=" ">
<path fill="none" stroke="#63b8ff" d="M110.67,-118.19C133.62,-126.24 165.92,-137.35 194.5,-146.38 200.81,-148.37 207.48,-150.4 214.07,-152.36"/>
<polygon fill="#63b8ff" stroke="#63b8ff" points="212.99,-155.69 223.58,-155.15 214.97,-148.97 212.99,-155.69"/>
</a>
</g>
</g>
<!-- Node5 -->
<g id="Node000005" class="node">
<title>Node5</title>
<g id="a_Node000005"><a xlink:href="classDomain.html#afe5c1f862e335ab05031b1d6b0b87c42" target="_top" xlink:title="Total incident electric field at a point from all incident sources.">
<polygon fill="white" stroke="#666666" points="316.25,-137.75 212.5,-137.75 212.5,-117 316.25,-117 316.25,-137.75"/>
<text xml:space="preserve" text-anchor="middle" x="264.38" y="-124.25" font-family="Helvetica,sans-Serif" font-size="10.00">Domain::IncFieldE</text>
</a>
</g>
</g>
<!-- Node1&#45;&gt;Node5 -->
<g id="edge5_Node000001_Node000005" class="edge">
<title>Node1&#45;&gt;Node5</title>
<g id="a_edge5_Node000001_Node000005"><a xlink:title=" ">
<path fill="none" stroke="#63b8ff" d="M158.97,-115.97C173.06,-117.51 187.56,-119.09 201.11,-120.57"/>
<polygon fill="#63b8ff" stroke="#63b8ff" points="200.4,-124.02 210.72,-121.62 201.16,-117.06 200.4,-124.02"/>
</a>
</g>
</g>
<!-- Node6 -->
<g id="Node000006" class="node">
<title>Node6</title>
<g id="a_Node000006"><a xlink:href="classDomain.html#a832a36e6ba8ae02be3dd493bd2577d4a" target="_top" xlink:title="Total incident magnetic field at a point from all incident sources.">
<polygon fill="white" stroke="#666666" points="317,-98.75 211.75,-98.75 211.75,-78 317,-78 317,-98.75"/>
<text xml:space="preserve" text-anchor="middle" x="264.38" y="-85.25" font-family="Helvetica,sans-Serif" font-size="10.00">Domain::IncFieldH</text>
</a>
</g>
</g>
<!-- Node1&#45;&gt;Node6 -->
<g id="edge6_Node000001_Node000006" class="edge">
<title>Node1&#45;&gt;Node6</title>
<g id="a_edge6_Node000001_Node000006"><a xlink:title=" ">
<path fill="none" stroke="#63b8ff" d="M158.97,-99.21C172.7,-97.78 186.81,-96.32 200.05,-94.95"/>
<polygon fill="#63b8ff" stroke="#63b8ff" points="200.34,-98.43 209.92,-93.92 199.61,-91.47 200.34,-98.43"/>
</a>
</g>
</g>
<!-- Node7 -->
<g id="Node000007" class="node">
<title>Node7</title>
<g id="a_Node000007"><a xlink:href="classTriangle.html#a0752d2c9488c7c44b851b8f75abcaa79" target="_top" xlink:title="Node position (by value) for local index 0..2.">
<polygon fill="white" stroke="#666666" points="307.25,-59.75 221.5,-59.75 221.5,-39 307.25,-39 307.25,-59.75"/>
<text xml:space="preserve" text-anchor="middle" x="264.38" y="-46.25" font-family="Helvetica,sans-Serif" font-size="10.00">Triangle::Node</text>
</a>
</g>
</g>
<!-- Node1&#45;&gt;Node7 -->
<g id="edge7_Node000001_Node000007" class="edge">
<title>Node1&#45;&gt;Node7</title>
<g id="a_edge7_Node000001_Node000007"><a xlink:title=" ">
<path fill="none" stroke="#63b8ff" d="M111.67,-96.56C134.56,-88.77 166.36,-78.14 194.5,-69.38 200.82,-67.41 207.49,-65.39 214.08,-63.44"/>
<polygon fill="#63b8ff" stroke="#63b8ff" points="214.98,-66.82 223.59,-60.65 213.01,-60.11 214.98,-66.82"/>
</a>
</g>
</g>
<!-- Node8 -->
<g id="Node000008" class="node">
<title>Node8</title>
<g id="a_Node000008"><a xlink:href="DomainHom3D_8cpp.html#a40914d7aec9b5a14a562be6061d9324b" target="_top" xlink:title="Extract the real part of each component of a complex 3&#45;vector.">
<polygon fill="white" stroke="#666666" points="302,-20.75 226.75,-20.75 226.75,0 302,0 302,-20.75"/>
<text xml:space="preserve" text-anchor="middle" x="264.38" y="-7.25" font-family="Helvetica,sans-Serif" font-size="10.00">realVecHom</text>
</a>
</g>
</g>
<!-- Node1&#45;&gt;Node8 -->
<g id="edge8_Node000001_Node000008" class="edge">
<title>Node1&#45;&gt;Node8</title>
<g id="a_edge8_Node000001_Node000008"><a xlink:title=" ">
<path fill="none" stroke="#63b8ff" d="M93.15,-96.69C113.51,-80.31 154.86,-48.93 194.5,-30.38 201.16,-27.26 208.42,-24.51 215.65,-22.13"/>
<polygon fill="#63b8ff" stroke="#63b8ff" points="216.52,-25.53 225.05,-19.25 214.46,-18.83 216.52,-25.53"/>
</a>
</g>
</g>
<!-- Node3 -->
<g id="Node000003" class="node">
<title>Node3</title>
<g id="a_Node000003"><a xlink:href="Domain_8cpp.html#abbd88d15240455cf734121fcd73b3a03" target="_top" xlink:title="Compute the element&#45;wise complex conjugate of a 3&#45;vector.">
<polygon fill="white" stroke="#666666" points="406.5,-215.75 370.25,-215.75 370.25,-195 406.5,-195 406.5,-215.75"/>
<text xml:space="preserve" text-anchor="middle" x="388.38" y="-202.25" font-family="Helvetica,sans-Serif" font-size="10.00">conj</text>
</a>
</g>
</g>
<!-- Node2&#45;&gt;Node3 -->
<g id="edge2_Node000002_Node000003" class="edge">
<title>Node2&#45;&gt;Node3</title>
<g id="a_edge2_Node000002_Node000003"><a xlink:title=" ">
<path fill="none" stroke="#63b8ff" d="M302.97,-205.38C320.89,-205.38 341.98,-205.38 358.6,-205.38"/>
<polygon fill="#63b8ff" stroke="#63b8ff" points="358.28,-208.88 368.28,-205.38 358.28,-201.88 358.28,-208.88"/>
</a>
</g>
</g>
<!-- Node3&#45;&gt;Node3 -->
<g id="edge3_Node000003_Node000003" class="edge">
<title>Node3&#45;&gt;Node3</title>
<g id="a_edge3_Node000003_Node000003"><a xlink:title=" ">
<path fill="none" stroke="#63b8ff" d="M369.9,-214.68C359.69,-223.76 365.85,-233.75 388.38,-233.75 402.1,-233.75 409.75,-230.04 411.32,-225.09"/>
<polygon fill="#63b8ff" stroke="#63b8ff" points="414.61,-223.88 407.45,-216.07 408.18,-226.64 414.61,-223.88"/>
</a>
</g>
</g>
<!-- Node9 -->
<g id="Node000009" class="node">
<title>Node9</title>
<g id="a_Node000009"><a xlink:href="Domain_8cpp.html#aafa3e4fa6318b2f8740f4dbd50c367e5" target="_top" xlink:title="Extract the real part of each component of a complex 3&#45;vector.">
<polygon fill="white" stroke="#666666" points="405.75,-20.75 371,-20.75 371,0 405.75,0 405.75,-20.75"/>
<text xml:space="preserve" text-anchor="middle" x="388.38" y="-7.25" font-family="Helvetica,sans-Serif" font-size="10.00">real</text>
</a>
</g>
</g>
<!-- Node8&#45;&gt;Node9 -->
<g id="edge9_Node000008_Node000009" class="edge">
<title>Node8&#45;&gt;Node9</title>
<g id="a_edge9_Node000008_Node000009"><a xlink:title=" ">
<path fill="none" stroke="#63b8ff" d="M302.31,-10.38C320.59,-10.38 342.32,-10.38 359.23,-10.38"/>
<polygon fill="#63b8ff" stroke="#63b8ff" points="359.07,-13.88 369.07,-10.38 359.07,-6.88 359.07,-13.88"/>
</a>
</g>
</g>
<!-- Node9&#45;&gt;Node9 -->
<g id="edge10_Node000009_Node000009" class="edge">
<title>Node9&#45;&gt;Node9</title>
<g id="a_edge10_Node000009_Node000009"><a xlink:title=" ">
<path fill="none" stroke="#63b8ff" d="M370.58,-19.09C359.44,-28.33 365.37,-38.75 388.38,-38.75 403.11,-38.75 410.85,-34.47 411.57,-28.97"/>
<polygon fill="#63b8ff" stroke="#63b8ff" points="414.76,-27.52 406.9,-20.42 408.62,-30.87 414.76,-27.52"/>
</a>
</g>
</g>
</g>
</svg>
</svg>

<style type='text/css'>
<![CDATA[
[data-mouse-over-selected='false'] { opacity: 0.7; }
[data-mouse-over-selected='true']  { opacity: 1.0; }
]]>
</style>
<script type="application/ecmascript"><![CDATA[
document.addEventListener('DOMContentLoaded', (event) => {
  highlightEdges();
  highlightAdjacentNodes();
});
]]></script>
</svg>
