<?xml version="1.0" encoding="UTF-8" standalone="no"?>
<!DOCTYPE svg PUBLIC "-//W3C//DTD SVG 1.1//EN"
 "http://www.w3.org/Graphics/SVG/1.1/DTD/svg11.dtd">
<!-- Generated by graphviz version 13.1.2 (20250809.0930)
 -->
<!-- Title: GreenFHom3D::IntegrateKappa Pages: 1 -->
<!--zoomable 419 -->

<svg id="main" version="1.1" xmlns="http://www.w3.org/2000/svg" xmlns:xlink="http://www.w3.org/1999/xlink" xml:space="preserve" onload="init(evt)">

<style type="text/css"><![CDATA[
.node, .edge {opacity: 0.7;}
.node.selected, .edge.selected {opacity: 1;}
.edge:hover path { stroke: red; }
.edge:hover polygon { stroke: red; fill: red; }
]]></style>

<defs>
  <circle id="rim" cx="0" cy="0" r="7"/>
  <circle id="rim2" cx="0" cy="0" r="3.5"/>
  <g id="zoomPlus">
    <use xlink:href="#rim" fill="#404040"><set attributeName="fill" to="#808080" begin="zoomplus.mouseover" end="zoomplus.mouseout"/></use>
    <path d="M-4,0h8M0,-4v8" fill="none" stroke="white" stroke-width="1.5" pointer-events="none"/>
  </g>
  <g id="zoomMin">
    <use xlink:href="#rim" fill="#404040"><set attributeName="fill" to="#808080" begin="zoomminus.mouseover" end="zoomminus.mouseout"/></use>
    <path d="M-4,0h8" fill="none" stroke="white" stroke-width="1.5" pointer-events="none"/>
  </g>
  <g id="arrowUp" transform="translate(30 24)">
    <use xlink:href="#rim"/>
    <path pointer-events="none" fill="none" stroke="white" stroke-width="1.5" d="M0,-3.0v7 M-2.5,-0.5L0,-3.0L2.5,-0.5"/>
  </g>
  <g id="arrowRight" transform="rotate(90) translate(36 -43)">
    <use xlink:href="#rim"/>
    <path pointer-events="none" fill="none" stroke="white" stroke-width="1.5" d="M0,-3.0v7 M-2.5,-0.5L0,-3.0L2.5,-0.5"/>
  </g>
  <g id="arrowDown" transform="rotate(180) translate(-30 -48)">
    <use xlink:href="#rim"/>
    <path pointer-events="none" fill="none" stroke="white" stroke-width="1.5" d="M0,-3.0v7 M-2.5,-0.5L0,-3.0L2.5,-0.5"/>
  </g>
  <g id="arrowLeft" transform="rotate(270) translate(-36 17)">
    <use xlink:href="#rim"/>
    <path pointer-events="none" fill="none" stroke="white" stroke-width="1.5" d="M0,-3.0v7 M-2.5,-0.5L0,-3.0L2.5,-0.5"/>
  </g>
  <g id="resetDef">
    <use xlink:href="#rim2" fill="#404040"><set attributeName="fill" to="#808080" begin="reset.mouseover" end="reset.mouseout"/></use>
  </g>
</defs>
<script type="application/ecmascript">
var viewWidth = 673;
var viewHeight = 419;
var sectionId = 'dynsection-16';
</script>
<script type="application/ecmascript" xlink:href="svg.min.js"/>
<svg id="graph" class="graph">
<g id="viewport">
<title>GreenFHom3D::IntegrateKappa</title>
<!-- Node1 -->
<g id="Node000001" class="node">
<title>Node1</title>
<g id="a_Node000001"><a xlink:title="term at an observation point.">
<polygon fill="#999999" stroke="#666666" points="169,-215.75 0,-215.75 0,-195 169,-195 169,-215.75"/>
<text xml:space="preserve" text-anchor="middle" x="84.5" y="-202.25" font-family="Helvetica,sans-Serif" font-size="10.00">GreenFHom3D::IntegrateKappa</text>
</a>
</g>
</g>
<!-- Node2 -->
<g id="Node000002" class="node">
<title>Node2</title>
<g id="a_Node000002"><a xlink:href="classTriangle.html#a1d3d08deeb999f339d2e821a877521ba" target="_top" xlink:title="Surface area of the triangle.">
<polygon fill="white" stroke="#666666" points="339.12,-410.75 256.38,-410.75 256.38,-390 339.12,-390 339.12,-410.75"/>
<text xml:space="preserve" text-anchor="middle" x="297.75" y="-397.25" font-family="Helvetica,sans-Serif" font-size="10.00">Triangle::Area</text>
</a>
</g>
</g>
<!-- Node1&#45;&gt;Node2 -->
<g id="edge1_Node000001_Node000002" class="edge">
<title>Node1&#45;&gt;Node2</title>
<g id="a_edge1_Node000001_Node000002"><a xlink:title=" ">
<path fill="none" stroke="#63b8ff" d="M89.48,-216.11C101.56,-247.1 140.94,-337.19 205,-380.38 216.84,-388.36 231.32,-393.22 245.24,-396.16"/>
<polygon fill="#63b8ff" stroke="#63b8ff" points="244.28,-399.54 254.74,-397.86 245.52,-392.65 244.28,-399.54"/>
</a>
</g>
</g>
<!-- Node3 -->
<g id="Node000003" class="node">
<title>Node3</title>
<g id="a_Node000003"><a xlink:href="classTriangle.html#ab78508a340ec5d345adf114b43563dbf" target="_top" xlink:title="Centroid of the triangle.">
<polygon fill="white" stroke="#666666" points="344,-371.75 251.5,-371.75 251.5,-351 344,-351 344,-371.75"/>
<text xml:space="preserve" text-anchor="middle" x="297.75" y="-358.25" font-family="Helvetica,sans-Serif" font-size="10.00">Triangle::Center</text>
</a>
</g>
</g>
<!-- Node1&#45;&gt;Node3 -->
<g id="edge2_Node000001_Node000003" class="edge">
<title>Node1&#45;&gt;Node3</title>
<g id="a_edge2_Node000001_Node000003"><a xlink:title=" ">
<path fill="none" stroke="#63b8ff" d="M91.45,-215.9C106.67,-241.79 149.75,-308.84 205,-341.38 215.65,-347.65 228.03,-351.96 240.19,-354.92"/>
<polygon fill="#63b8ff" stroke="#63b8ff" points="239.25,-358.3 249.76,-356.96 240.71,-351.45 239.25,-358.3"/>
</a>
</g>
</g>
<!-- Node4 -->
<g id="Node000004" class="node">
<title>Node4</title>
<g id="a_Node000004"><a xlink:href="classRWGFun.html#a7540ce2f84c6b42a29c2808504c47d42" target="_top" xlink:title="Evaluate the RWG vector shape function at a point on the triangle.">
<polygon fill="white" stroke="#666666" points="350.75,-332.75 244.75,-332.75 244.75,-312 350.75,-312 350.75,-332.75"/>
<text xml:space="preserve" text-anchor="middle" x="297.75" y="-319.25" font-family="Helvetica,sans-Serif" font-size="10.00">RWGFun::Evaluate</text>
</a>
</g>
</g>
<!-- Node1&#45;&gt;Node4 -->
<g id="edge3_Node000001_Node000004" class="edge">
<title>Node1&#45;&gt;Node4</title>
<g id="a_edge3_Node000001_Node000004"><a xlink:title=" ">
<path fill="none" stroke="#63b8ff" d="M95.21,-216.05C114.2,-236.24 158.52,-280.03 205,-302.38 213.86,-306.64 223.64,-310 233.41,-312.65"/>
<polygon fill="#63b8ff" stroke="#63b8ff" points="232.37,-316 242.92,-314.99 234.04,-309.2 232.37,-316"/>
</a>
</g>
</g>
<!-- Node5 -->
<g id="Node000005" class="node">
<title>Node5</title>
<g id="a_Node000005"><a xlink:href="classGreenFHom3D.html#a30fa3b981731ca85587da62ed511f547" target="_top" xlink:title="Gradient w.r.t.">
<polygon fill="white" stroke="#666666" points="365.75,-293.75 229.75,-293.75 229.75,-273 365.75,-273 365.75,-293.75"/>
<text xml:space="preserve" text-anchor="middle" x="297.75" y="-280.25" font-family="Helvetica,sans-Serif" font-size="10.00">GreenFHom3D::Gradient</text>
</a>
</g>
</g>
<!-- Node1&#45;&gt;Node5 -->
<g id="edge4_Node000001_Node000005" class="edge">
<title>Node1&#45;&gt;Node5</title>
<g id="a_edge4_Node000001_Node000005"><a xlink:title=" ">
<path fill="none" stroke="#63b8ff" d="M103.95,-216.05C126.93,-228.93 167.74,-250.48 205,-263.38 211.85,-265.75 219.1,-267.9 226.39,-269.84"/>
<polygon fill="#63b8ff" stroke="#63b8ff" points="225.42,-273.2 235.97,-272.24 227.13,-266.41 225.42,-273.2"/>
</a>
</g>
</g>
<!-- Node6 -->
<g id="Node000006" class="node">
<title>Node6</title>
<g id="a_Node000006"><a xlink:href="classGreenFHom3D.html#a39ccf7f27bff59110fb0d667bb74146f" target="_top" xlink:title="Smoothed gradient kernel.">
<polygon fill="white" stroke="#666666" points="390.5,-254.75 205,-254.75 205,-234 390.5,-234 390.5,-254.75"/>
<text xml:space="preserve" text-anchor="middle" x="297.75" y="-241.25" font-family="Helvetica,sans-Serif" font-size="10.00">GreenFHom3D::GradientSmoothed</text>
</a>
</g>
</g>
<!-- Node1&#45;&gt;Node6 -->
<g id="edge5_Node000001_Node000006" class="edge">
<title>Node1&#45;&gt;Node6</title>
<g id="a_edge5_Node000001_Node000006"><a xlink:title=" ">
<path fill="none" stroke="#63b8ff" d="M144.34,-216.24C169.88,-220.95 199.98,-226.51 226.65,-231.43"/>
<polygon fill="#63b8ff" stroke="#63b8ff" points="225.9,-234.85 236.37,-233.23 227.17,-227.97 225.9,-234.85"/>
</a>
</g>
</g>
<!-- Node7 -->
<g id="Node000007" class="node">
<title>Node7</title>
<g id="a_Node000007"><a xlink:href="classGreenFHom3D.html#ac928f16e6e79c75c002d9a721a8858d8" target="_top" xlink:title="Default constructor (initializes with zeroed wavenumber and no lookup table).">
<polygon fill="white" stroke="#666666" points="380.75,-215.75 214.75,-215.75 214.75,-195 380.75,-195 380.75,-215.75"/>
<text xml:space="preserve" text-anchor="middle" x="297.75" y="-202.25" font-family="Helvetica,sans-Serif" font-size="10.00">GreenFHom3D::GreenFHom3D</text>
</a>
</g>
</g>
<!-- Node1&#45;&gt;Node7 -->
<g id="edge6_Node000001_Node000007" class="edge">
<title>Node1&#45;&gt;Node7</title>
<g id="a_edge6_Node000001_Node000007"><a xlink:title=" ">
<path fill="none" stroke="#63b8ff" d="M169.3,-205.38C180.44,-205.38 191.92,-205.38 203.22,-205.38"/>
<polygon fill="#63b8ff" stroke="#63b8ff" points="202.92,-208.88 212.92,-205.38 202.92,-201.88 202.92,-208.88"/>
</a>
</g>
</g>
<!-- Node11 -->
<g id="Node000011" class="node">
<title>Node11</title>
<g id="a_Node000011"><a xlink:href="classSingSub.html#ab61a21e3498d2d6a4c0796254cf126ed" target="_top" xlink:title="K4(q) vector term.">
<polygon fill="white" stroke="#666666" points="334.62,-176.75 260.88,-176.75 260.88,-156 334.62,-156 334.62,-176.75"/>
<text xml:space="preserve" text-anchor="middle" x="297.75" y="-163.25" font-family="Helvetica,sans-Serif" font-size="10.00">SingSub::K4</text>
</a>
</g>
</g>
<!-- Node1&#45;&gt;Node11 -->
<g id="edge11_Node000001_Node000011" class="edge">
<title>Node1&#45;&gt;Node11</title>
<g id="a_edge11_Node000001_Node000011"><a xlink:title=" ">
<path fill="none" stroke="#63b8ff" d="M144.34,-194.51C177.51,-188.39 218.38,-180.84 249.45,-175.11"/>
<polygon fill="#63b8ff" stroke="#63b8ff" points="249.73,-178.61 258.93,-173.36 248.46,-171.73 249.73,-178.61"/>
</a>
</g>
</g>
<!-- Node13 -->
<g id="Node000013" class="node">
<title>Node13</title>
<g id="a_Node000013"><a xlink:href="classTriangle.html#a0752d2c9488c7c44b851b8f75abcaa79" target="_top" xlink:title="Node position (by value) for local index 0..2.">
<polygon fill="white" stroke="#666666" points="340.62,-137.75 254.88,-137.75 254.88,-117 340.62,-117 340.62,-137.75"/>
<text xml:space="preserve" text-anchor="middle" x="297.75" y="-124.25" font-family="Helvetica,sans-Serif" font-size="10.00">Triangle::Node</text>
</a>
</g>
</g>
<!-- Node1&#45;&gt;Node13 -->
<g id="edge13_Node000001_Node000013" class="edge">
<title>Node1&#45;&gt;Node13</title>
<g id="a_edge13_Node000001_Node000013"><a xlink:title=" ">
<path fill="none" stroke="#63b8ff" d="M103.95,-194.7C126.93,-181.82 167.74,-160.27 205,-147.38 217.27,-143.13 230.79,-139.59 243.59,-136.72"/>
<polygon fill="#63b8ff" stroke="#63b8ff" points="244.08,-140.2 253.13,-134.7 242.62,-133.35 244.08,-140.2"/>
</a>
</g>
</g>
<!-- Node14 -->
<g id="Node000014" class="node">
<title>Node14</title>
<g id="a_Node000014"><a xlink:href="classTriangle.html#a6e7daa074db3d147b33763bfd2a6e83b" target="_top" xlink:title="Perimeter (sum of edge lengths).">
<polygon fill="white" stroke="#666666" points="351.88,-98.75 243.62,-98.75 243.62,-78 351.88,-78 351.88,-98.75"/>
<text xml:space="preserve" text-anchor="middle" x="297.75" y="-85.25" font-family="Helvetica,sans-Serif" font-size="10.00">Triangle::Perimeter</text>
</a>
</g>
</g>
<!-- Node1&#45;&gt;Node14 -->
<g id="edge14_Node000001_Node000014" class="edge">
<title>Node1&#45;&gt;Node14</title>
<g id="a_edge14_Node000001_Node000014"><a xlink:title=" ">
<path fill="none" stroke="#63b8ff" d="M95.21,-194.7C114.2,-174.51 158.52,-130.72 205,-108.38 213.55,-104.26 222.96,-100.98 232.39,-98.38"/>
<polygon fill="#63b8ff" stroke="#63b8ff" points="233.11,-101.81 241.96,-95.98 231.41,-95.02 233.11,-101.81"/>
</a>
</g>
</g>
<!-- Node15 -->
<g id="Node000015" class="node">
<title>Node15</title>
<g id="a_Node000015"><a xlink:href="classSingSub.html#a20337fe20529d26c1775c8ba6d47cad0" target="_top" xlink:title="Preferred initialization that fills all cached arrays (ILar/ISar).">
<polygon fill="white" stroke="#666666" points="367.25,-59.75 228.25,-59.75 228.25,-39 367.25,-39 367.25,-59.75"/>
<text xml:space="preserve" text-anchor="middle" x="297.75" y="-46.25" font-family="Helvetica,sans-Serif" font-size="10.00">SingSub::SetTriangleRWG</text>
</a>
</g>
</g>
<!-- Node1&#45;&gt;Node15 -->
<g id="edge15_Node000001_Node000015" class="edge">
<title>Node1&#45;&gt;Node15</title>
<g id="a_edge15_Node000001_Node000015"><a xlink:title=" ">
<path fill="none" stroke="#63b8ff" d="M91.45,-194.85C106.67,-168.96 149.75,-101.91 205,-69.38 208.84,-67.11 212.91,-65.11 217.11,-63.32"/>
<polygon fill="#63b8ff" stroke="#63b8ff" points="218.21,-66.65 226.36,-59.88 215.77,-60.09 218.21,-66.65"/>
</a>
</g>
</g>
<!-- Node16 -->
<g id="Node000016" class="node">
<title>Node16</title>
<g id="a_Node000016"><a xlink:href="classRWGFun.html#a6d9c854fc60bc02cb51ffb60cf388ccc" target="_top" xlink:title="Get the pointer to the owner Triangle.">
<polygon fill="white" stroke="#666666" points="355.25,-20.75 240.25,-20.75 240.25,0 355.25,0 355.25,-20.75"/>
<text xml:space="preserve" text-anchor="middle" x="297.75" y="-7.25" font-family="Helvetica,sans-Serif" font-size="10.00">RWGFun::TrianglePtr</text>
</a>
</g>
</g>
<!-- Node1&#45;&gt;Node16 -->
<g id="edge16_Node000001_Node000016" class="edge">
<title>Node1&#45;&gt;Node16</title>
<g id="a_edge16_Node000001_Node000016"><a xlink:title=" ">
<path fill="none" stroke="#63b8ff" d="M89.48,-194.64C101.56,-163.65 140.94,-73.56 205,-30.38 212.32,-25.44 220.65,-21.7 229.23,-18.87"/>
<polygon fill="#63b8ff" stroke="#63b8ff" points="230.06,-22.27 238.72,-16.16 228.14,-15.54 230.06,-22.27"/>
</a>
</g>
</g>
<!-- Node8 -->
<g id="Node000008" class="node">
<title>Node8</title>
<g id="a_Node000008"><a xlink:href="classGreenF.html#a332ac24f39288170f77c18f37fde2c82" target="_top" xlink:title="Constructor for a homogeneous, non&#45;magnetic medium.">
<polygon fill="white" stroke="#666666" points="518.25,-215.75 426.5,-215.75 426.5,-195 518.25,-195 518.25,-215.75"/>
<text xml:space="preserve" text-anchor="middle" x="472.38" y="-202.25" font-family="Helvetica,sans-Serif" font-size="10.00">GreenF::GreenF</text>
</a>
</g>
</g>
<!-- Node7&#45;&gt;Node8 -->
<g id="edge7_Node000007_Node000008" class="edge">
<title>Node7&#45;&gt;Node8</title>
<g id="a_edge7_Node000007_Node000008"><a xlink:title=" ">
<path fill="none" stroke="#63b8ff" d="M381.02,-205.38C392.5,-205.38 404.07,-205.38 414.93,-205.38"/>
<polygon fill="#63b8ff" stroke="#63b8ff" points="414.87,-208.88 424.87,-205.38 414.87,-201.88 414.87,-208.88"/>
</a>
</g>
</g>
<!-- Node9 -->
<g id="Node000009" class="node">
<title>Node9</title>
<g id="a_Node000009"><a xlink:href="group__greenFunction.html#gac0a52dce23be7dacdf97c68653b6c137" target="_top" xlink:title="Complex square root with a branch cut along the negative real axis.">
<polygon fill="white" stroke="#666666" points="594.25,-215.75 554.25,-215.75 554.25,-195 594.25,-195 594.25,-215.75"/>
<text xml:space="preserve" text-anchor="middle" x="574.25" y="-202.25" font-family="Helvetica,sans-Serif" font-size="10.00">csqrt</text>
</a>
</g>
</g>
<!-- Node8&#45;&gt;Node9 -->
<g id="edge8_Node000008_Node000009" class="edge">
<title>Node8&#45;&gt;Node9</title>
<g id="a_edge8_Node000008_Node000009"><a xlink:title=" ">
<path fill="none" stroke="#63b8ff" d="M518.64,-205.38C526.67,-205.38 534.86,-205.38 542.38,-205.38"/>
<polygon fill="#63b8ff" stroke="#63b8ff" points="542.36,-208.88 552.36,-205.38 542.36,-201.88 542.36,-208.88"/>
</a>
</g>
</g>
<!-- Node10 -->
<g id="Node000010" class="node">
<title>Node10</title>
<g id="a_Node000010"><a xlink:href="Domain_8cpp.html#aafa3e4fa6318b2f8740f4dbd50c367e5" target="_top" xlink:title="Extract the real part of each component of a complex 3&#45;vector.">
<polygon fill="white" stroke="#666666" points="665,-215.75 630.25,-215.75 630.25,-195 665,-195 665,-215.75"/>
<text xml:space="preserve" text-anchor="middle" x="647.62" y="-202.25" font-family="Helvetica,sans-Serif" font-size="10.00">real</text>
</a>
</g>
</g>
<!-- Node9&#45;&gt;Node10 -->
<g id="edge9_Node000009_Node000010" class="edge">
<title>Node9&#45;&gt;Node10</title>
<g id="a_edge9_Node000009_Node000010"><a xlink:title=" ">
<path fill="none" stroke="#63b8ff" d="M594.38,-205.38C601.81,-205.38 610.48,-205.38 618.59,-205.38"/>
<polygon fill="#63b8ff" stroke="#63b8ff" points="618.36,-208.88 628.36,-205.38 618.36,-201.88 618.36,-208.88"/>
</a>
</g>
</g>
<!-- Node10&#45;&gt;Node10 -->
<g id="edge10_Node000010_Node000010" class="edge">
<title>Node10&#45;&gt;Node10</title>
<g id="a_edge10_Node000010_Node000010"><a xlink:title=" ">
<path fill="none" stroke="#63b8ff" d="M635.8,-216.15C631.07,-224.81 635.01,-233.75 647.62,-233.75 654.32,-233.75 658.58,-231.23 660.38,-227.56"/>
<polygon fill="#63b8ff" stroke="#63b8ff" points="663.88,-227.34 659.57,-217.66 656.9,-227.91 663.88,-227.34"/>
</a>
</g>
</g>
<!-- Node12 -->
<g id="Node000012" class="node">
<title>Node12</title>
<g id="a_Node000012"><a xlink:href="classSingSub.html#a3e9e0b5a61df98d8f8138544c7df3da0" target="_top" xlink:title="K3(q) vector term.">
<polygon fill="white" stroke="#666666" points="509.25,-176.75 435.5,-176.75 435.5,-156 509.25,-156 509.25,-176.75"/>
<text xml:space="preserve" text-anchor="middle" x="472.38" y="-163.25" font-family="Helvetica,sans-Serif" font-size="10.00">SingSub::K3</text>
</a>
</g>
</g>
<!-- Node11&#45;&gt;Node12 -->
<g id="edge12_Node000011_Node000012" class="edge">
<title>Node11&#45;&gt;Node12</title>
<g id="a_edge12_Node000011_Node000012"><a xlink:title=" ">
<path fill="none" stroke="#63b8ff" d="M334.94,-166.38C360.83,-166.38 395.94,-166.38 424.05,-166.38"/>
<polygon fill="#63b8ff" stroke="#63b8ff" points="423.72,-169.88 433.72,-166.38 423.72,-162.88 423.72,-169.88"/>
</a>
</g>
</g>
</g>
</svg>

<g id="navigator" transform="translate(0 0)" fill="#404254">
  <rect fill="#f2f5e9" fill-opacity="0.5" stroke="#606060" stroke-width=".5" x="0" y="0" width="60" height="60"/>
  <use id="zoomplus" xlink:href="#zoomPlus" x="17" y="9" onmousedown="handleZoom(evt,'in')"/>
  <use id="zoomminus" xlink:href="#zoomMin" x="42" y="9" onmousedown="handleZoom(evt,'out')"/>
  <use id="reset" xlink:href="#resetDef" x="30" y="36" onmousedown="handleReset()"/>
   <use id="arrowup" xlink:href="#arrowUp" x="0" y="0" onmousedown="handlePan(0,-1)"/>
  <use id="arrowright" xlink:href="#arrowRight" x="0" y="0" onmousedown="handlePan(1,0)"/>
  <use id="arrowdown" xlink:href="#arrowDown" x="0" y="0" onmousedown="handlePan(0,1)"/>
  <use id="arrowleft" xlink:href="#arrowLeft" x="0" y="0" onmousedown="handlePan(-1,0)"/>
</g>
<svg viewBox="0 0 15 15" width="100%" height="30px" preserveAspectRatio="xMaxYMin meet">
 <g id="arrow_out" transform="scale(0.3 0.3)">
  <a xlink:href="classGreenFHom3D_a9cece8a4056d65455cfcc94c8c61decd_cgraph_org.svg" target="_base">
   <rect id="button" ry="5" rx="5" y="6" x="6" height="38" width="38"
        fill="#f2f5e9" fill-opacity="0.5" stroke="#606060" stroke-width="1.0"/>
   <path id="arrow"
     d="M 11.500037,31.436501 C 11.940474,20.09759 22.043105,11.32322 32.158766,21.979434 L 37.068811,17.246167 C 37.068811,17.246167 37.088388,32 37.088388,32 L 22.160133,31.978069 C 22.160133,31.978069 26.997745,27.140456 26.997745,27.140456 C 18.528582,18.264221 13.291696,25.230495 11.500037,31.436501 z"
     style="fill:#404040;"/>
  </a>
 </g>
</svg>

<style type='text/css'>
<![CDATA[
[data-mouse-over-selected='false'] { opacity: 0.7; }
[data-mouse-over-selected='true']  { opacity: 1.0; }
]]>
</style>
<script type="application/ecmascript"><![CDATA[
document.addEventListener('DOMContentLoaded', (event) => {
  highlightEdges();
  highlightAdjacentNodes();
});
]]></script>
</svg>
