<?xml version="1.0" encoding="UTF-8" standalone="no"?>
<!DOCTYPE svg PUBLIC "-//W3C//DTD SVG 1.1//EN"
 "http://www.w3.org/Graphics/SVG/1.1/DTD/svg11.dtd">
<!-- Generated by graphviz version 13.1.2 (20250809.0930)
 -->
<!-- Title: GreenFHom3DPer2D::EwaldAndGradientSpectral Pages: 1 -->
<svg width="449pt" height="86pt"
 viewBox="0.00 0.00 449.00 86.00" xmlns="http://www.w3.org/2000/svg" xmlns:xlink="http://www.w3.org/1999/xlink">

<svg id="main" version="1.1" xmlns="http://www.w3.org/2000/svg" xmlns:xlink="http://www.w3.org/1999/xlink" xml:space="preserve">

<style type="text/css"><![CDATA[
.node, .edge {opacity: 0.7;}
.node.selected, .edge.selected {opacity: 1;}
.edge:hover path { stroke: red; }
.edge:hover polygon { stroke: red; fill: red; }
]]></style>
<script type="application/ecmascript" xlink:href="svg.min.js"/>
<svg id="graph" class="graph">
<g id="graph0" class="graph" transform="scale(1 1) rotate(0) translate(4 81.75)">
<title>GreenFHom3DPer2D::EwaldAndGradientSpectral</title>
<!-- Node1 -->
<g id="Node000001" class="node">
<title>Node1</title>
<g id="a_Node000001"><a xlink:title="Spectral part returning .">
<polygon fill="#999999" stroke="#666666" points="171.25,-46.12 0,-46.12 0,-12.62 171.25,-12.62 171.25,-46.12"/>
<text xml:space="preserve" text-anchor="start" x="8" y="-32.62" font-family="Helvetica,sans-Serif" font-size="10.00">GreenFHom3DPer2D::EwaldAnd</text>
<text xml:space="preserve" text-anchor="middle" x="85.62" y="-19.88" font-family="Helvetica,sans-Serif" font-size="10.00">GradientSpectral</text>
</a>
</g>
</g>
<!-- Node2 -->
<g id="Node000002" class="node">
<title>Node2</title>
<g id="a_Node000002"><a xlink:href="group__greenFunction.html#gac0a52dce23be7dacdf97c68653b6c137" target="_top" xlink:title="Complex square root with a branch cut along the negative real axis.">
<polygon fill="white" stroke="#666666" points="270.88,-59.75 230.88,-59.75 230.88,-39 270.88,-39 270.88,-59.75"/>
<text xml:space="preserve" text-anchor="middle" x="250.88" y="-46.25" font-family="Helvetica,sans-Serif" font-size="10.00">csqrt</text>
</a>
</g>
</g>
<!-- Node1&#45;&gt;Node2 -->
<g id="edge1_Node000001_Node000002" class="edge">
<title>Node1&#45;&gt;Node2</title>
<g id="a_edge1_Node000001_Node000002"><a xlink:title=" ">
<path fill="none" stroke="#63b8ff" d="M171.6,-39.79C188.73,-41.88 205.68,-43.96 219.39,-45.64"/>
<polygon fill="#63b8ff" stroke="#63b8ff" points="218.68,-49.08 229.03,-46.82 219.53,-42.13 218.68,-49.08"/>
</a>
</g>
</g>
<!-- Node4 -->
<g id="Node000004" class="node">
<title>Node4</title>
<g id="a_Node000004"><a xlink:href="classGreenF.html#abf00726011a4eca4109bc43125218d30" target="_top" xlink:title="Evaluate erfc via the 2D lookup table if available.">
<polygon fill="white" stroke="#666666" points="294.5,-20.75 207.25,-20.75 207.25,0 294.5,0 294.5,-20.75"/>
<text xml:space="preserve" text-anchor="middle" x="250.88" y="-7.25" font-family="Helvetica,sans-Serif" font-size="10.00">GreenF::EvErfc</text>
</a>
</g>
</g>
<!-- Node1&#45;&gt;Node4 -->
<g id="edge4_Node000001_Node000004" class="edge">
<title>Node1&#45;&gt;Node4</title>
<g id="a_edge4_Node000001_Node000004"><a xlink:title=" ">
<path fill="none" stroke="#63b8ff" d="M171.6,-19.49C179.73,-18.54 187.81,-17.6 195.53,-16.7"/>
<polygon fill="#63b8ff" stroke="#63b8ff" points="195.88,-20.18 205.41,-15.55 195.07,-13.23 195.88,-20.18"/>
</a>
</g>
</g>
<!-- Node3 -->
<g id="Node000003" class="node">
<title>Node3</title>
<g id="a_Node000003"><a xlink:href="Domain_8cpp.html#aafa3e4fa6318b2f8740f4dbd50c367e5" target="_top" xlink:title="Extract the real part of each component of a complex 3&#45;vector.">
<polygon fill="white" stroke="#666666" points="367.88,-59.75 333.12,-59.75 333.12,-39 367.88,-39 367.88,-59.75"/>
<text xml:space="preserve" text-anchor="middle" x="350.5" y="-46.25" font-family="Helvetica,sans-Serif" font-size="10.00">real</text>
</a>
</g>
</g>
<!-- Node2&#45;&gt;Node3 -->
<g id="edge2_Node000002_Node000003" class="edge">
<title>Node2&#45;&gt;Node3</title>
<g id="a_edge2_Node000002_Node000003"><a xlink:title=" ">
<path fill="none" stroke="#63b8ff" d="M271.16,-49.38C285.51,-49.38 305.31,-49.38 321.41,-49.38"/>
<polygon fill="#63b8ff" stroke="#63b8ff" points="321.34,-52.88 331.34,-49.38 321.34,-45.88 321.34,-52.88"/>
</a>
</g>
</g>
<!-- Node3&#45;&gt;Node3 -->
<g id="edge3_Node000003_Node000003" class="edge">
<title>Node3&#45;&gt;Node3</title>
<g id="a_edge3_Node000003_Node000003"><a xlink:title=" ">
<path fill="none" stroke="#63b8ff" d="M338.68,-60.15C333.95,-68.81 337.89,-77.75 350.5,-77.75 357.2,-77.75 361.45,-75.23 363.26,-71.56"/>
<polygon fill="#63b8ff" stroke="#63b8ff" points="366.75,-71.34 362.45,-61.66 359.78,-71.91 366.75,-71.34"/>
</a>
</g>
</g>
<!-- Node4&#45;&gt;Node3 -->
<g id="edge7_Node000004_Node000003" class="edge">
<title>Node4&#45;&gt;Node3</title>
<g id="a_edge7_Node000004_Node000003"><a xlink:title=" ">
<path fill="none" stroke="#63b8ff" d="M279.07,-21.24C292.56,-26.63 308.8,-33.12 322.29,-38.51"/>
<polygon fill="#63b8ff" stroke="#63b8ff" points="320.86,-41.7 331.45,-42.16 323.46,-35.2 320.86,-41.7"/>
</a>
</g>
</g>
<!-- Node5 -->
<g id="Node000005" class="node">
<title>Node5</title>
<g id="a_Node000005"><a xlink:href="mathFunctions_8cpp.html#a7916c6b62310fe9cf38ec2a2890aaad4" target="_top" xlink:title="Complementary error function for complex arguments.">
<polygon fill="white" stroke="#666666" points="370.5,-20.75 330.5,-20.75 330.5,0 370.5,0 370.5,-20.75"/>
<text xml:space="preserve" text-anchor="middle" x="350.5" y="-7.25" font-family="Helvetica,sans-Serif" font-size="10.00">cerfc</text>
</a>
</g>
</g>
<!-- Node4&#45;&gt;Node5 -->
<g id="edge5_Node000004_Node000005" class="edge">
<title>Node4&#45;&gt;Node5</title>
<g id="a_edge5_Node000004_Node000005"><a xlink:title=" ">
<path fill="none" stroke="#63b8ff" d="M294.98,-10.38C302.93,-10.38 311.08,-10.38 318.58,-10.38"/>
<polygon fill="#63b8ff" stroke="#63b8ff" points="318.55,-13.88 328.55,-10.38 318.55,-6.88 318.55,-13.88"/>
</a>
</g>
</g>
<!-- Node6 -->
<g id="Node000006" class="node">
<title>Node6</title>
<g id="a_Node000006"><a xlink:href="mathFunctions_8cpp.html#abc57cde75234d7e165a9ebcdb45f2c29" target="_top" xlink:title="Error function for complex arguments.">
<polygon fill="white" stroke="#666666" points="441.25,-20.75 406.5,-20.75 406.5,0 441.25,0 441.25,-20.75"/>
<text xml:space="preserve" text-anchor="middle" x="423.88" y="-7.25" font-family="Helvetica,sans-Serif" font-size="10.00">cerf</text>
</a>
</g>
</g>
<!-- Node5&#45;&gt;Node6 -->
<g id="edge6_Node000005_Node000006" class="edge">
<title>Node5&#45;&gt;Node6</title>
<g id="a_edge6_Node000005_Node000006"><a xlink:title=" ">
<path fill="none" stroke="#63b8ff" d="M370.63,-10.38C378.06,-10.38 386.73,-10.38 394.84,-10.38"/>
<polygon fill="#63b8ff" stroke="#63b8ff" points="394.61,-13.88 404.61,-10.38 394.61,-6.88 394.61,-13.88"/>
</a>
</g>
</g>
</g>
</svg>
</svg>

<style type='text/css'>
<![CDATA[
[data-mouse-over-selected='false'] { opacity: 0.7; }
[data-mouse-over-selected='true']  { opacity: 1.0; }
]]>
</style>
<script type="application/ecmascript"><![CDATA[
document.addEventListener('DOMContentLoaded', (event) => {
  highlightEdges();
  highlightAdjacentNodes();
});
]]></script>
</svg>
