<?xml version="1.0" encoding="UTF-8" standalone="no"?>
<!DOCTYPE svg PUBLIC "-//W3C//DTD SVG 1.1//EN"
 "http://www.w3.org/Graphics/SVG/1.1/DTD/svg11.dtd">
<!-- Generated by graphviz version 13.1.2 (20250809.0930)
 -->
<!-- Title: GaussQuad::I4 Pages: 1 -->
<svg width="246pt" height="146pt"
 viewBox="0.00 0.00 246.00 146.00" xmlns="http://www.w3.org/2000/svg" xmlns:xlink="http://www.w3.org/1999/xlink">
<g id="graph0" class="graph" transform="scale(1 1) rotate(0) translate(4 141.75)">
<title>GaussQuad::I4</title>
<!-- Node1 -->
<g id="Node000001" class="node">
<title>Node1</title>
<g id="a_Node000001"><a xlink:title="I4: vector kernel crossed with RWG at the centroid.">
<polygon fill="#999999" stroke="#666666" points="86.5,-78.75 0,-78.75 0,-58 86.5,-58 86.5,-78.75"/>
<text xml:space="preserve" text-anchor="middle" x="43.25" y="-65.25" font-family="Helvetica,sans-Serif" font-size="10.00">GaussQuad::I4</text>
</a>
</g>
</g>
<!-- Node2 -->
<g id="Node000002" class="node">
<title>Node2</title>
<g id="a_Node000002"><a xlink:href="classTriangle.html#a1d3d08deeb999f339d2e821a877521ba" target="_top" xlink:title="Surface area of the triangle.">
<polygon fill="white" stroke="#666666" points="221.38,-137.75 138.62,-137.75 138.62,-117 221.38,-117 221.38,-137.75"/>
<text xml:space="preserve" text-anchor="middle" x="180" y="-124.25" font-family="Helvetica,sans-Serif" font-size="10.00">Triangle::Area</text>
</a>
</g>
</g>
<!-- Node1&#45;&gt;Node2 -->
<g id="edge1_Node000001_Node000002" class="edge">
<title>Node1&#45;&gt;Node2</title>
<g id="a_edge1_Node000001_Node000002"><a xlink:title=" ">
<path fill="none" stroke="#63b8ff" d="M64.2,-79.16C79.83,-87.41 102.24,-98.78 122.5,-107.38 126.76,-109.18 131.24,-110.96 135.74,-112.67"/>
<polygon fill="#63b8ff" stroke="#63b8ff" points="134.16,-115.82 144.75,-116 136.58,-109.25 134.16,-115.82"/>
</a>
</g>
</g>
<!-- Node3 -->
<g id="Node000003" class="node">
<title>Node3</title>
<g id="a_Node000003"><a xlink:href="classTriangle.html#ab78508a340ec5d345adf114b43563dbf" target="_top" xlink:title="Centroid of the triangle.">
<polygon fill="white" stroke="#666666" points="226.25,-98.75 133.75,-98.75 133.75,-78 226.25,-78 226.25,-98.75"/>
<text xml:space="preserve" text-anchor="middle" x="180" y="-85.25" font-family="Helvetica,sans-Serif" font-size="10.00">Triangle::Center</text>
</a>
</g>
</g>
<!-- Node1&#45;&gt;Node3 -->
<g id="edge2_Node000001_Node000003" class="edge">
<title>Node1&#45;&gt;Node3</title>
<g id="a_edge2_Node000001_Node000003"><a xlink:title=" ">
<path fill="none" stroke="#63b8ff" d="M86.89,-74.7C98.1,-76.37 110.39,-78.19 122.22,-79.95"/>
<polygon fill="#63b8ff" stroke="#63b8ff" points="121.48,-83.38 131.88,-81.38 122.5,-76.45 121.48,-83.38"/>
</a>
</g>
</g>
<!-- Node4 -->
<g id="Node000004" class="node">
<title>Node4</title>
<g id="a_Node000004"><a xlink:href="classRWGFun.html#a7540ce2f84c6b42a29c2808504c47d42" target="_top" xlink:title="Evaluate the RWG vector shape function at a point on the triangle.">
<polygon fill="white" stroke="#666666" points="233,-59.75 127,-59.75 127,-39 233,-39 233,-59.75"/>
<text xml:space="preserve" text-anchor="middle" x="180" y="-46.25" font-family="Helvetica,sans-Serif" font-size="10.00">RWGFun::Evaluate</text>
</a>
</g>
</g>
<!-- Node1&#45;&gt;Node4 -->
<g id="edge3_Node000001_Node000004" class="edge">
<title>Node1&#45;&gt;Node4</title>
<g id="a_edge3_Node000001_Node000004"><a xlink:title=" ">
<path fill="none" stroke="#63b8ff" d="M86.89,-62.36C95.97,-61.08 105.76,-59.7 115.44,-58.34"/>
<polygon fill="#63b8ff" stroke="#63b8ff" points="115.8,-61.82 125.21,-56.96 114.82,-54.89 115.8,-61.82"/>
</a>
</g>
</g>
<!-- Node5 -->
<g id="Node000005" class="node">
<title>Node5</title>
<g id="a_Node000005"><a xlink:href="classRWGFun.html#a6d9c854fc60bc02cb51ffb60cf388ccc" target="_top" xlink:title="Get the pointer to the owner Triangle.">
<polygon fill="white" stroke="#666666" points="237.5,-20.75 122.5,-20.75 122.5,0 237.5,0 237.5,-20.75"/>
<text xml:space="preserve" text-anchor="middle" x="180" y="-7.25" font-family="Helvetica,sans-Serif" font-size="10.00">RWGFun::TrianglePtr</text>
</a>
</g>
</g>
<!-- Node1&#45;&gt;Node5 -->
<g id="edge4_Node000001_Node000005" class="edge">
<title>Node1&#45;&gt;Node5</title>
<g id="a_edge4_Node000001_Node000005"><a xlink:title=" ">
<path fill="none" stroke="#63b8ff" d="M64.88,-57.57C80.5,-49.59 102.58,-38.71 122.5,-30.38 126.82,-28.57 131.37,-26.78 135.93,-25.06"/>
<polygon fill="#63b8ff" stroke="#63b8ff" points="136.89,-28.43 145.07,-21.7 134.48,-21.86 136.89,-28.43"/>
</a>
</g>
</g>
</g>
</svg>
