<?xml version="1.0" encoding="UTF-8" standalone="no"?>
<!DOCTYPE svg PUBLIC "-//W3C//DTD SVG 1.1//EN"
 "http://www.w3.org/Graphics/SVG/1.1/DTD/svg11.dtd">
<!-- Generated by graphviz version 13.1.2 (20250809.0930)
 -->
<!-- Title: DomainHom3D::absorptionCS Pages: 1 -->
<svg width="423pt" height="242pt"
 viewBox="0.00 0.00 423.00 242.00" xmlns="http://www.w3.org/2000/svg" xmlns:xlink="http://www.w3.org/1999/xlink">
<g id="graph0" class="graph" transform="scale(1 1) rotate(0) translate(4 237.75)">
<title>DomainHom3D::absorptionCS</title>
<!-- Node1 -->
<g id="Node000001" class="node">
<title>Node1</title>
<g id="a_Node000001"><a xlink:title="Absorption cross section via surface quadrature.">
<polygon fill="#999999" stroke="#666666" points="161.5,-117.75 0,-117.75 0,-97 161.5,-97 161.5,-117.75"/>
<text xml:space="preserve" text-anchor="middle" x="80.75" y="-104.25" font-family="Helvetica,sans-Serif" font-size="10.00">DomainHom3D::absorptionCS</text>
</a>
</g>
</g>
<!-- Node2 -->
<g id="Node000002" class="node">
<title>Node2</title>
<g id="a_Node000002"><a xlink:href="DomainHom3D_8cpp.html#acf27d554499921efb016e1a01ac8b94e" target="_top" xlink:title="Compute the element&#45;wise complex conjugate of a 3&#45;vector.">
<polygon fill="white" stroke="#666666" points="305.75,-215.75 229,-215.75 229,-195 305.75,-195 305.75,-215.75"/>
<text xml:space="preserve" text-anchor="middle" x="267.38" y="-202.25" font-family="Helvetica,sans-Serif" font-size="10.00">conjVecHom</text>
</a>
</g>
</g>
<!-- Node1&#45;&gt;Node2 -->
<g id="edge1_Node000001_Node000002" class="edge">
<title>Node1&#45;&gt;Node2</title>
<g id="a_edge1_Node000001_Node000002"><a xlink:title=" ">
<path fill="none" stroke="#63b8ff" d="M94.82,-118.2C115.45,-134.8 157.34,-166.58 197.5,-185.38 203.94,-188.39 210.93,-191.05 217.91,-193.37"/>
<polygon fill="#63b8ff" stroke="#63b8ff" points="216.75,-196.68 227.34,-196.29 218.82,-189.99 216.75,-196.68"/>
</a>
</g>
</g>
<!-- Node4 -->
<g id="Node000004" class="node">
<title>Node4</title>
<g id="a_Node000004"><a xlink:href="classTriangle.html#a691ff1d8d3f33df1fe0aae161d14ec49" target="_top" xlink:title="FRONT/BACK normal: FRONT &#45;&gt; +normal, BACK &#45;&gt; −normal.">
<polygon fill="white" stroke="#666666" points="337.25,-176.75 197.5,-176.75 197.5,-156 337.25,-156 337.25,-176.75"/>
<text xml:space="preserve" text-anchor="middle" x="267.38" y="-163.25" font-family="Helvetica,sans-Serif" font-size="10.00">Triangle::FBNormalVector</text>
</a>
</g>
</g>
<!-- Node1&#45;&gt;Node4 -->
<g id="edge4_Node000001_Node000004" class="edge">
<title>Node1&#45;&gt;Node4</title>
<g id="a_edge4_Node000001_Node000004"><a xlink:title=" ">
<path fill="none" stroke="#63b8ff" d="M112.59,-118.16C135.84,-126.2 168.56,-137.3 197.5,-146.38 203.82,-148.36 210.48,-150.38 217.08,-152.33"/>
<polygon fill="#63b8ff" stroke="#63b8ff" points="216,-155.67 226.58,-155.13 217.98,-148.95 216,-155.67"/>
</a>
</g>
</g>
<!-- Node5 -->
<g id="Node000005" class="node">
<title>Node5</title>
<g id="a_Node000005"><a xlink:href="classDomain.html#afe5c1f862e335ab05031b1d6b0b87c42" target="_top" xlink:title="Total incident electric field at a point from all incident sources.">
<polygon fill="white" stroke="#666666" points="319.25,-137.75 215.5,-137.75 215.5,-117 319.25,-117 319.25,-137.75"/>
<text xml:space="preserve" text-anchor="middle" x="267.38" y="-124.25" font-family="Helvetica,sans-Serif" font-size="10.00">Domain::IncFieldE</text>
</a>
</g>
</g>
<!-- Node1&#45;&gt;Node5 -->
<g id="edge5_Node000001_Node000005" class="edge">
<title>Node1&#45;&gt;Node5</title>
<g id="a_edge5_Node000001_Node000005"><a xlink:title=" ">
<path fill="none" stroke="#63b8ff" d="M161.92,-116.06C175.99,-117.58 190.44,-119.15 203.93,-120.61"/>
<polygon fill="#63b8ff" stroke="#63b8ff" points="203.19,-124.05 213.51,-121.65 203.94,-117.09 203.19,-124.05"/>
</a>
</g>
</g>
<!-- Node6 -->
<g id="Node000006" class="node">
<title>Node6</title>
<g id="a_Node000006"><a xlink:href="classDomain.html#a832a36e6ba8ae02be3dd493bd2577d4a" target="_top" xlink:title="Total incident magnetic field at a point from all incident sources.">
<polygon fill="white" stroke="#666666" points="320,-98.75 214.75,-98.75 214.75,-78 320,-78 320,-98.75"/>
<text xml:space="preserve" text-anchor="middle" x="267.38" y="-85.25" font-family="Helvetica,sans-Serif" font-size="10.00">Domain::IncFieldH</text>
</a>
</g>
</g>
<!-- Node1&#45;&gt;Node6 -->
<g id="edge6_Node000001_Node000006" class="edge">
<title>Node1&#45;&gt;Node6</title>
<g id="a_edge6_Node000001_Node000006"><a xlink:title=" ">
<path fill="none" stroke="#63b8ff" d="M161.92,-99.12C175.7,-97.71 189.84,-96.25 203.09,-94.89"/>
<polygon fill="#63b8ff" stroke="#63b8ff" points="203.38,-98.38 212.97,-93.87 202.66,-91.41 203.38,-98.38"/>
</a>
</g>
</g>
<!-- Node7 -->
<g id="Node000007" class="node">
<title>Node7</title>
<g id="a_Node000007"><a xlink:href="classTriangle.html#a0752d2c9488c7c44b851b8f75abcaa79" target="_top" xlink:title="Node position (by value) for local index 0..2.">
<polygon fill="white" stroke="#666666" points="310.25,-59.75 224.5,-59.75 224.5,-39 310.25,-39 310.25,-59.75"/>
<text xml:space="preserve" text-anchor="middle" x="267.38" y="-46.25" font-family="Helvetica,sans-Serif" font-size="10.00">Triangle::Node</text>
</a>
</g>
</g>
<!-- Node1&#45;&gt;Node7 -->
<g id="edge7_Node000001_Node000007" class="edge">
<title>Node1&#45;&gt;Node7</title>
<g id="a_edge7_Node000001_Node000007"><a xlink:title=" ">
<path fill="none" stroke="#63b8ff" d="M113.59,-96.59C136.79,-88.82 169.01,-78.19 197.5,-69.38 203.83,-67.42 210.49,-65.41 217.09,-63.46"/>
<polygon fill="#63b8ff" stroke="#63b8ff" points="217.99,-66.85 226.6,-60.67 216.02,-60.13 217.99,-66.85"/>
</a>
</g>
</g>
<!-- Node8 -->
<g id="Node000008" class="node">
<title>Node8</title>
<g id="a_Node000008"><a xlink:href="DomainHom3D_8cpp.html#a40914d7aec9b5a14a562be6061d9324b" target="_top" xlink:title="Extract the real part of each component of a complex 3&#45;vector.">
<polygon fill="white" stroke="#666666" points="305,-20.75 229.75,-20.75 229.75,0 305,0 305,-20.75"/>
<text xml:space="preserve" text-anchor="middle" x="267.38" y="-7.25" font-family="Helvetica,sans-Serif" font-size="10.00">realVecHom</text>
</a>
</g>
</g>
<!-- Node1&#45;&gt;Node8 -->
<g id="edge8_Node000001_Node000008" class="edge">
<title>Node1&#45;&gt;Node8</title>
<g id="a_edge8_Node000001_Node000008"><a xlink:title=" ">
<path fill="none" stroke="#63b8ff" d="M94.85,-96.7C115.51,-80.33 157.44,-48.98 197.5,-30.38 204.17,-27.28 211.44,-24.54 218.66,-22.17"/>
<polygon fill="#63b8ff" stroke="#63b8ff" points="219.53,-25.56 228.07,-19.29 217.48,-18.87 219.53,-25.56"/>
</a>
</g>
</g>
<!-- Node3 -->
<g id="Node000003" class="node">
<title>Node3</title>
<g id="a_Node000003"><a xlink:href="Domain_8cpp.html#abbd88d15240455cf734121fcd73b3a03" target="_top" xlink:title="Compute the element&#45;wise complex conjugate of a 3&#45;vector.">
<polygon fill="white" stroke="#666666" points="409.5,-215.75 373.25,-215.75 373.25,-195 409.5,-195 409.5,-215.75"/>
<text xml:space="preserve" text-anchor="middle" x="391.38" y="-202.25" font-family="Helvetica,sans-Serif" font-size="10.00">conj</text>
</a>
</g>
</g>
<!-- Node2&#45;&gt;Node3 -->
<g id="edge2_Node000002_Node000003" class="edge">
<title>Node2&#45;&gt;Node3</title>
<g id="a_edge2_Node000002_Node000003"><a xlink:title=" ">
<path fill="none" stroke="#63b8ff" d="M305.97,-205.38C323.89,-205.38 344.98,-205.38 361.6,-205.38"/>
<polygon fill="#63b8ff" stroke="#63b8ff" points="361.28,-208.88 371.28,-205.38 361.28,-201.88 361.28,-208.88"/>
</a>
</g>
</g>
<!-- Node3&#45;&gt;Node3 -->
<g id="edge3_Node000003_Node000003" class="edge">
<title>Node3&#45;&gt;Node3</title>
<g id="a_edge3_Node000003_Node000003"><a xlink:title=" ">
<path fill="none" stroke="#63b8ff" d="M372.9,-214.68C362.69,-223.76 368.85,-233.75 391.38,-233.75 405.1,-233.75 412.75,-230.04 414.32,-225.09"/>
<polygon fill="#63b8ff" stroke="#63b8ff" points="417.61,-223.88 410.45,-216.07 411.18,-226.64 417.61,-223.88"/>
</a>
</g>
</g>
<!-- Node9 -->
<g id="Node000009" class="node">
<title>Node9</title>
<g id="a_Node000009"><a xlink:href="Domain_8cpp.html#aafa3e4fa6318b2f8740f4dbd50c367e5" target="_top" xlink:title="Extract the real part of each component of a complex 3&#45;vector.">
<polygon fill="white" stroke="#666666" points="408.75,-20.75 374,-20.75 374,0 408.75,0 408.75,-20.75"/>
<text xml:space="preserve" text-anchor="middle" x="391.38" y="-7.25" font-family="Helvetica,sans-Serif" font-size="10.00">real</text>
</a>
</g>
</g>
<!-- Node8&#45;&gt;Node9 -->
<g id="edge9_Node000008_Node000009" class="edge">
<title>Node8&#45;&gt;Node9</title>
<g id="a_edge9_Node000008_Node000009"><a xlink:title=" ">
<path fill="none" stroke="#63b8ff" d="M305.31,-10.38C323.59,-10.38 345.32,-10.38 362.23,-10.38"/>
<polygon fill="#63b8ff" stroke="#63b8ff" points="362.07,-13.88 372.07,-10.38 362.07,-6.88 362.07,-13.88"/>
</a>
</g>
</g>
<!-- Node9&#45;&gt;Node9 -->
<g id="edge10_Node000009_Node000009" class="edge">
<title>Node9&#45;&gt;Node9</title>
<g id="a_edge10_Node000009_Node000009"><a xlink:title=" ">
<path fill="none" stroke="#63b8ff" d="M373.58,-19.09C362.44,-28.33 368.37,-38.75 391.38,-38.75 406.11,-38.75 413.85,-34.47 414.57,-28.97"/>
<polygon fill="#63b8ff" stroke="#63b8ff" points="417.76,-27.52 409.9,-20.42 411.62,-30.87 417.76,-27.52"/>
</a>
</g>
</g>
</g>
</svg>
