<?xml version="1.0" encoding="UTF-8" standalone="no"?>
<!DOCTYPE svg PUBLIC "-//W3C//DTD SVG 1.1//EN"
 "http://www.w3.org/Graphics/SVG/1.1/DTD/svg11.dtd">
<!-- Generated by graphviz version 13.1.2 (20250809.0930)
 -->
<!-- Title: SurfaceMesh::ConvertMeshFile Pages: 1 -->
<!--zoomable 185 -->

<svg id="main" version="1.1" xmlns="http://www.w3.org/2000/svg" xmlns:xlink="http://www.w3.org/1999/xlink" xml:space="preserve" onload="init(evt)">

<style type="text/css"><![CDATA[
.node, .edge {opacity: 0.7;}
.node.selected, .edge.selected {opacity: 1;}
.edge:hover path { stroke: red; }
.edge:hover polygon { stroke: red; fill: red; }
]]></style>

<defs>
  <circle id="rim" cx="0" cy="0" r="7"/>
  <circle id="rim2" cx="0" cy="0" r="3.5"/>
  <g id="zoomPlus">
    <use xlink:href="#rim" fill="#404040"><set attributeName="fill" to="#808080" begin="zoomplus.mouseover" end="zoomplus.mouseout"/></use>
    <path d="M-4,0h8M0,-4v8" fill="none" stroke="white" stroke-width="1.5" pointer-events="none"/>
  </g>
  <g id="zoomMin">
    <use xlink:href="#rim" fill="#404040"><set attributeName="fill" to="#808080" begin="zoomminus.mouseover" end="zoomminus.mouseout"/></use>
    <path d="M-4,0h8" fill="none" stroke="white" stroke-width="1.5" pointer-events="none"/>
  </g>
  <g id="arrowUp" transform="translate(30 24)">
    <use xlink:href="#rim"/>
    <path pointer-events="none" fill="none" stroke="white" stroke-width="1.5" d="M0,-3.0v7 M-2.5,-0.5L0,-3.0L2.5,-0.5"/>
  </g>
  <g id="arrowRight" transform="rotate(90) translate(36 -43)">
    <use xlink:href="#rim"/>
    <path pointer-events="none" fill="none" stroke="white" stroke-width="1.5" d="M0,-3.0v7 M-2.5,-0.5L0,-3.0L2.5,-0.5"/>
  </g>
  <g id="arrowDown" transform="rotate(180) translate(-30 -48)">
    <use xlink:href="#rim"/>
    <path pointer-events="none" fill="none" stroke="white" stroke-width="1.5" d="M0,-3.0v7 M-2.5,-0.5L0,-3.0L2.5,-0.5"/>
  </g>
  <g id="arrowLeft" transform="rotate(270) translate(-36 17)">
    <use xlink:href="#rim"/>
    <path pointer-events="none" fill="none" stroke="white" stroke-width="1.5" d="M0,-3.0v7 M-2.5,-0.5L0,-3.0L2.5,-0.5"/>
  </g>
  <g id="resetDef">
    <use xlink:href="#rim2" fill="#404040"><set attributeName="fill" to="#808080" begin="reset.mouseover" end="reset.mouseout"/></use>
  </g>
</defs>
<script type="application/ecmascript">
var viewWidth = 969;
var viewHeight = 185;
var sectionId = 'dynsection-4';
</script>
<script type="application/ecmascript" xlink:href="svg.min.js"/>
<svg id="graph" class="graph">
<g id="viewport">
<title>SurfaceMesh::ConvertMeshFile</title>
<!-- Node1 -->
<g id="Node000001" class="node">
<title>Node1</title>
<g id="a_Node000001"><a xlink:title="Convert/modify a mesh according to a conversion job file.">
<polygon fill="#999999" stroke="#666666" points="166.75,-78.75 0,-78.75 0,-58 166.75,-58 166.75,-78.75"/>
<text xml:space="preserve" text-anchor="middle" x="83.38" y="-65.25" font-family="Helvetica,sans-Serif" font-size="10.00">SurfaceMesh::ConvertMeshFile</text>
</a>
</g>
</g>
<!-- Node2 -->
<g id="Node000002" class="node">
<title>Node2</title>
<g id="a_Node000002"><a xlink:href="classSurfaceMesh.html#aa64ebb4992ea98778f79c272568c68d2" target="_top" xlink:title="Load a mesh from file by extension.">
<polygon fill="white" stroke="#666666" points="359.38,-137.75 209.12,-137.75 209.12,-117 359.38,-117 359.38,-137.75"/>
<text xml:space="preserve" text-anchor="middle" x="284.25" y="-124.25" font-family="Helvetica,sans-Serif" font-size="10.00">SurfaceMesh::LoadFromFile</text>
</a>
</g>
</g>
<!-- Node1&#45;&gt;Node2 -->
<g id="edge1_Node000001_Node000002" class="edge">
<title>Node1&#45;&gt;Node2</title>
<g id="a_edge1_Node000001_Node000002"><a xlink:title=" ">
<path fill="none" stroke="#63b8ff" d="M114.84,-79.11C138.63,-87.32 172.6,-98.68 202.75,-107.38 210.27,-109.55 218.23,-111.7 226.1,-113.74"/>
<polygon fill="#63b8ff" stroke="#63b8ff" points="225.09,-117.09 235.65,-116.17 226.82,-110.31 225.09,-117.09"/>
</a>
</g>
</g>
<!-- Node10 -->
<g id="Node000010" class="node">
<title>Node10</title>
<g id="a_Node000010"><a xlink:href="classSurfaceMesh.html#a365f60555e50472cef70095f3ac9027e" target="_top" xlink:title="Remove all triangles on or below a plane (strict &gt; 1e&#45;10 kept).">
<polygon fill="white" stroke="#666666" points="360.5,-98.75 208,-98.75 208,-78 360.5,-78 360.5,-98.75"/>
<text xml:space="preserve" text-anchor="middle" x="284.25" y="-85.25" font-family="Helvetica,sans-Serif" font-size="10.00">SurfaceMesh::RemovePlane</text>
</a>
</g>
</g>
<!-- Node1&#45;&gt;Node10 -->
<g id="edge13_Node000001_Node000010" class="edge">
<title>Node1&#45;&gt;Node10</title>
<g id="a_edge13_Node000001_Node000010"><a xlink:title=" ">
<path fill="none" stroke="#63b8ff" d="M166.99,-76.68C176.65,-77.66 186.54,-78.65 196.26,-79.63"/>
<polygon fill="#63b8ff" stroke="#63b8ff" points="195.77,-83.09 206.07,-80.61 196.47,-76.13 195.77,-83.09"/>
</a>
</g>
</g>
<!-- Node11 -->
<g id="Node000011" class="node">
<title>Node11</title>
<g id="a_Node000011"><a xlink:href="classSurfaceMesh.html#a4c66cbdeb07f2fd62429d6a949518cad" target="_top" xlink:title="Write current mesh to the custom &quot;.mesh&quot; format.">
<polygon fill="white" stroke="#666666" points="365.75,-59.75 202.75,-59.75 202.75,-39 365.75,-39 365.75,-59.75"/>
<text xml:space="preserve" text-anchor="middle" x="284.25" y="-46.25" font-family="Helvetica,sans-Serif" font-size="10.00">SurfaceMesh::SaveToMeshFile</text>
</a>
</g>
</g>
<!-- Node1&#45;&gt;Node11 -->
<g id="edge14_Node000001_Node000011" class="edge">
<title>Node1&#45;&gt;Node11</title>
<g id="a_edge14_Node000001_Node000011"><a xlink:title=" ">
<path fill="none" stroke="#63b8ff" d="M166.99,-60.48C174.97,-59.72 183.09,-58.94 191.16,-58.17"/>
<polygon fill="#63b8ff" stroke="#63b8ff" points="191.36,-61.67 200.99,-57.23 190.7,-54.7 191.36,-61.67"/>
</a>
</g>
</g>
<!-- Node13 -->
<g id="Node000013" class="node">
<title>Node13</title>
<g id="a_Node000013"><a xlink:href="classSurfaceMesh.html#ab8758aecb743f6df45e760074e2592fb" target="_top" xlink:title="Replace all occurrences of domain ID n1 with n2 in triangles.">
<polygon fill="white" stroke="#666666" points="356.38,-20.75 212.12,-20.75 212.12,0 356.38,0 356.38,-20.75"/>
<text xml:space="preserve" text-anchor="middle" x="284.25" y="-7.25" font-family="Helvetica,sans-Serif" font-size="10.00">SurfaceMesh::SwitchIndex</text>
</a>
</g>
</g>
<!-- Node1&#45;&gt;Node13 -->
<g id="edge16_Node000001_Node000013" class="edge">
<title>Node1&#45;&gt;Node13</title>
<g id="a_edge16_Node000001_Node000013"><a xlink:title=" ">
<path fill="none" stroke="#63b8ff" d="M115.85,-57.63C139.6,-49.69 173.06,-38.82 202.75,-30.38 210.38,-28.21 218.44,-26.05 226.41,-23.99"/>
<polygon fill="#63b8ff" stroke="#63b8ff" points="227.26,-27.39 236.09,-21.53 225.54,-20.6 227.26,-27.39"/>
</a>
</g>
</g>
<!-- Node3 -->
<g id="Node000003" class="node">
<title>Node3</title>
<g id="a_Node000003"><a xlink:href="classSurfaceMesh.html#ad8ac4a9fe716d917b92e245d091ab553" target="_top" xlink:title="Read mesh from the custom &quot;.mesh&quot; text format.">
<polygon fill="white" stroke="#666666" points="582.38,-176.75 405.88,-176.75 405.88,-156 582.38,-156 582.38,-176.75"/>
<text xml:space="preserve" text-anchor="middle" x="494.12" y="-163.25" font-family="Helvetica,sans-Serif" font-size="10.00">SurfaceMesh::LoadFromMeshFile</text>
</a>
</g>
</g>
<!-- Node2&#45;&gt;Node3 -->
<g id="edge2_Node000002_Node000003" class="edge">
<title>Node2&#45;&gt;Node3</title>
<g id="a_edge2_Node000002_Node000003"><a xlink:title=" ">
<path fill="none" stroke="#63b8ff" d="M343.15,-138.24C368.28,-142.95 397.9,-148.51 424.15,-153.43"/>
<polygon fill="#63b8ff" stroke="#63b8ff" points="423.21,-156.82 433.68,-155.22 424.5,-149.94 423.21,-156.82"/>
</a>
</g>
</g>
<!-- Node8 -->
<g id="Node000008" class="node">
<title>Node8</title>
<g id="a_Node000008"><a xlink:href="classSurfaceMesh.html#ab392f262cacf93c286ef49cbe95f2a66" target="_top" xlink:title="Read mesh from a COMSOL &quot;.mphtxt&quot; file.">
<polygon fill="white" stroke="#666666" points="586.5,-137.75 401.75,-137.75 401.75,-117 586.5,-117 586.5,-137.75"/>
<text xml:space="preserve" text-anchor="middle" x="494.12" y="-124.25" font-family="Helvetica,sans-Serif" font-size="10.00">SurfaceMesh::LoadFromMphtxtFile</text>
</a>
</g>
</g>
<!-- Node2&#45;&gt;Node8 -->
<g id="edge7_Node000002_Node000008" class="edge">
<title>Node2&#45;&gt;Node8</title>
<g id="a_edge7_Node000002_Node000008"><a xlink:title=" ">
<path fill="none" stroke="#63b8ff" d="M359.71,-127.38C369.53,-127.38 379.73,-127.38 389.92,-127.38"/>
<polygon fill="#63b8ff" stroke="#63b8ff" points="389.89,-130.88 399.89,-127.38 389.89,-123.88 389.89,-130.88"/>
</a>
</g>
</g>
<!-- Node9 -->
<g id="Node000009" class="node">
<title>Node9</title>
<g id="a_Node000009"><a xlink:href="classSurfaceMesh.html#ae7486b3dfa647ae8ee6063bd6297f5ff" target="_top" xlink:title="Read mesh from a Gmsh &quot;.msh&quot; file (v2 text).">
<polygon fill="white" stroke="#666666" points="579.38,-98.75 408.88,-98.75 408.88,-78 579.38,-78 579.38,-98.75"/>
<text xml:space="preserve" text-anchor="middle" x="494.12" y="-85.25" font-family="Helvetica,sans-Serif" font-size="10.00">SurfaceMesh::LoadFromMshFile</text>
</a>
</g>
</g>
<!-- Node2&#45;&gt;Node9 -->
<g id="edge10_Node000002_Node000009" class="edge">
<title>Node2&#45;&gt;Node9</title>
<g id="a_edge10_Node000002_Node000009"><a xlink:title=" ">
<path fill="none" stroke="#63b8ff" d="M343.15,-116.51C368.28,-111.8 397.9,-106.24 424.15,-101.32"/>
<polygon fill="#63b8ff" stroke="#63b8ff" points="424.5,-104.81 433.68,-99.53 423.21,-97.93 424.5,-104.81"/>
</a>
</g>
</g>
<!-- Node4 -->
<g id="Node000004" class="node">
<title>Node4</title>
<g id="a_Node000004"><a xlink:href="classSurfaceMesh.html#ad8c7eef9fac668b92caf8b4418dcb4ff" target="_top" xlink:title="Insert edge (n1,n2) if not already present (directly or via BC image).">
<polygon fill="white" stroke="#666666" points="781.75,-156.75 622.5,-156.75 622.5,-136 781.75,-136 781.75,-156.75"/>
<text xml:space="preserve" text-anchor="middle" x="702.12" y="-143.25" font-family="Helvetica,sans-Serif" font-size="10.00">SurfaceMesh::AddEdgeTested</text>
</a>
</g>
</g>
<!-- Node3&#45;&gt;Node4 -->
<g id="edge3_Node000003_Node000004" class="edge">
<title>Node3&#45;&gt;Node4</title>
<g id="a_edge3_Node000003_Node000004"><a xlink:title=" ">
<path fill="none" stroke="#63b8ff" d="M582.79,-157.86C592.05,-156.96 601.48,-156.05 610.78,-155.15"/>
<polygon fill="#63b8ff" stroke="#63b8ff" points="610.9,-158.65 620.52,-154.2 610.23,-151.68 610.9,-158.65"/>
</a>
</g>
</g>
<!-- Node7 -->
<g id="Node000007" class="node">
<title>Node7</title>
<g id="a_Node000007"><a xlink:href="group__driver.html#ga3859b179ce92396b3d9187e4437d8826" target="_top" xlink:title="Read a value of type T from a text stream, skipping lines beginning with &#39;#&#39;.">
<polygon fill="white" stroke="#666666" points="752.5,-117.75 651.75,-117.75 651.75,-97 752.5,-97 752.5,-117.75"/>
<text xml:space="preserve" text-anchor="middle" x="702.12" y="-104.25" font-family="Helvetica,sans-Serif" font-size="10.00">ReadCommented</text>
</a>
</g>
</g>
<!-- Node3&#45;&gt;Node7 -->
<g id="edge6_Node000003_Node000007" class="edge">
<title>Node3&#45;&gt;Node7</title>
<g id="a_edge6_Node000003_Node000007"><a xlink:title=" ">
<path fill="none" stroke="#63b8ff" d="M555.75,-155.52C566.15,-152.98 576.74,-149.94 586.5,-146.38 603.49,-140.16 605.62,-133.87 622.5,-127.38 628.25,-125.16 634.33,-123.12 640.46,-121.26"/>
<polygon fill="#63b8ff" stroke="#63b8ff" points="641.39,-124.63 650.04,-118.52 639.46,-117.9 641.39,-124.63"/>
</a>
</g>
</g>
<!-- Node5 -->
<g id="Node000005" class="node">
<title>Node5</title>
<g id="a_Node000005"><a xlink:href="classSurfaceMesh.html#a7c57c7085e749775a96cb25a5424834e" target="_top" xlink:title="Find the index of an edge mapped between n1,n2 via a stored symmetry op.">
<polygon fill="white" stroke="#666666" points="960.5,-175.75 817.75,-175.75 817.75,-155 960.5,-155 960.5,-175.75"/>
<text xml:space="preserve" text-anchor="middle" x="889.12" y="-162.25" font-family="Helvetica,sans-Serif" font-size="10.00">SurfaceMesh::FindEdgeBC</text>
</a>
</g>
</g>
<!-- Node4&#45;&gt;Node5 -->
<g id="edge4_Node000004_Node000005" class="edge">
<title>Node4&#45;&gt;Node5</title>
<g id="a_edge4_Node000004_Node000005"><a xlink:title=" ">
<path fill="none" stroke="#63b8ff" d="M782.12,-154.49C789.97,-155.29 797.96,-156.11 805.84,-156.92"/>
<polygon fill="#63b8ff" stroke="#63b8ff" points="805.48,-160.41 815.79,-157.95 806.2,-153.44 805.48,-160.41"/>
</a>
</g>
</g>
<!-- Node6 -->
<g id="Node000006" class="node">
<title>Node6</title>
<g id="a_Node000006"><a xlink:href="classSurfaceMesh.html#a45445ddd5776f8236dc72058cc1c7b18" target="_top" xlink:title="Find the index of an existing edge between two nodes (direct match).">
<polygon fill="white" stroke="#666666" points="960.12,-136.75 818.12,-136.75 818.12,-116 960.12,-116 960.12,-136.75"/>
<text xml:space="preserve" text-anchor="middle" x="889.12" y="-123.25" font-family="Helvetica,sans-Serif" font-size="10.00">SurfaceMesh::FindEdgeFB</text>
</a>
</g>
</g>
<!-- Node4&#45;&gt;Node6 -->
<g id="edge5_Node000004_Node000006" class="edge">
<title>Node4&#45;&gt;Node6</title>
<g id="a_edge5_Node000004_Node000006"><a xlink:title=" ">
<path fill="none" stroke="#63b8ff" d="M782.12,-137.84C790.2,-136.96 798.41,-136.07 806.52,-135.2"/>
<polygon fill="#63b8ff" stroke="#63b8ff" points="806.8,-138.69 816.37,-134.13 806.05,-131.73 806.8,-138.69"/>
</a>
</g>
</g>
<!-- Node8&#45;&gt;Node4 -->
<g id="edge8_Node000008_Node000004" class="edge">
<title>Node8&#45;&gt;Node4</title>
<g id="a_edge8_Node000008_Node000004"><a xlink:title=" ">
<path fill="none" stroke="#63b8ff" d="M586.98,-135.85C594.84,-136.57 602.78,-137.3 610.63,-138.03"/>
<polygon fill="#63b8ff" stroke="#63b8ff" points="610.25,-141.51 620.53,-138.94 610.89,-134.54 610.25,-141.51"/>
</a>
</g>
</g>
<!-- Node8&#45;&gt;Node7 -->
<g id="edge9_Node000008_Node000007" class="edge">
<title>Node8&#45;&gt;Node7</title>
<g id="a_edge9_Node000008_Node000007"><a xlink:title=" ">
<path fill="none" stroke="#63b8ff" d="M586.98,-118.46C605.02,-116.71 623.53,-114.91 640.25,-113.29"/>
<polygon fill="#63b8ff" stroke="#63b8ff" points="640.39,-116.79 650,-112.34 639.71,-109.82 640.39,-116.79"/>
</a>
</g>
</g>
<!-- Node9&#45;&gt;Node4 -->
<g id="edge11_Node000009_Node000004" class="edge">
<title>Node9&#45;&gt;Node4</title>
<g id="a_edge11_Node000009_Node000004"><a xlink:title=" ">
<path fill="none" stroke="#63b8ff" d="M554.71,-99.17C565.43,-101.75 576.39,-104.81 586.5,-108.38 603.37,-114.33 605.74,-120.13 622.5,-126.38 628.5,-128.61 634.86,-130.68 641.24,-132.58"/>
<polygon fill="#63b8ff" stroke="#63b8ff" points="639.94,-135.85 650.51,-135.19 641.84,-129.11 639.94,-135.85"/>
</a>
</g>
</g>
<!-- Node9&#45;&gt;Node7 -->
<g id="edge12_Node000009_Node000007" class="edge">
<title>Node9&#45;&gt;Node7</title>
<g id="a_edge12_Node000009_Node000007"><a xlink:title=" ">
<path fill="none" stroke="#63b8ff" d="M579.8,-96.19C599.93,-98.04 621.02,-99.99 639.87,-101.72"/>
<polygon fill="#63b8ff" stroke="#63b8ff" points="639.5,-105.21 649.78,-102.64 640.14,-98.24 639.5,-105.21"/>
</a>
</g>
</g>
<!-- Node12 -->
<g id="Node000012" class="node">
<title>Node12</title>
<g id="a_Node000012"><a xlink:href="classSurfaceMesh.html#adac4bd062647ba2d6a9662ae3683abc2" target="_top" xlink:title="Return index of a node pointer within the owned node array.">
<polygon fill="white" stroke="#666666" points="571.5,-59.75 416.75,-59.75 416.75,-39 571.5,-39 571.5,-59.75"/>
<text xml:space="preserve" text-anchor="middle" x="494.12" y="-46.25" font-family="Helvetica,sans-Serif" font-size="10.00">SurfaceMesh::GetNodeIndex</text>
</a>
</g>
</g>
<!-- Node11&#45;&gt;Node12 -->
<g id="edge15_Node000011_Node000012" class="edge">
<title>Node11&#45;&gt;Node12</title>
<g id="a_edge15_Node000011_Node000012"><a xlink:title=" ">
<path fill="none" stroke="#63b8ff" d="M366.22,-49.38C379,-49.38 392.27,-49.38 405.21,-49.38"/>
<polygon fill="#63b8ff" stroke="#63b8ff" points="404.95,-52.88 414.95,-49.38 404.95,-45.88 404.95,-52.88"/>
</a>
</g>
</g>
</g>
</svg>

<g id="navigator" transform="translate(0 0)" fill="#404254">
  <rect fill="#f2f5e9" fill-opacity="0.5" stroke="#606060" stroke-width=".5" x="0" y="0" width="60" height="60"/>
  <use id="zoomplus" xlink:href="#zoomPlus" x="17" y="9" onmousedown="handleZoom(evt,'in')"/>
  <use id="zoomminus" xlink:href="#zoomMin" x="42" y="9" onmousedown="handleZoom(evt,'out')"/>
  <use id="reset" xlink:href="#resetDef" x="30" y="36" onmousedown="handleReset()"/>
   <use id="arrowup" xlink:href="#arrowUp" x="0" y="0" onmousedown="handlePan(0,-1)"/>
  <use id="arrowright" xlink:href="#arrowRight" x="0" y="0" onmousedown="handlePan(1,0)"/>
  <use id="arrowdown" xlink:href="#arrowDown" x="0" y="0" onmousedown="handlePan(0,1)"/>
  <use id="arrowleft" xlink:href="#arrowLeft" x="0" y="0" onmousedown="handlePan(-1,0)"/>
</g>
<svg viewBox="0 0 15 15" width="100%" height="30px" preserveAspectRatio="xMaxYMin meet">
 <g id="arrow_out" transform="scale(0.3 0.3)">
  <a xlink:href="classSurfaceMesh_aa8811e2b8b03caa6028d5d154a69ea71_cgraph_org.svg" target="_base">
   <rect id="button" ry="5" rx="5" y="6" x="6" height="38" width="38"
        fill="#f2f5e9" fill-opacity="0.5" stroke="#606060" stroke-width="1.0"/>
   <path id="arrow"
     d="M 11.500037,31.436501 C 11.940474,20.09759 22.043105,11.32322 32.158766,21.979434 L 37.068811,17.246167 C 37.068811,17.246167 37.088388,32 37.088388,32 L 22.160133,31.978069 C 22.160133,31.978069 26.997745,27.140456 26.997745,27.140456 C 18.528582,18.264221 13.291696,25.230495 11.500037,31.436501 z"
     style="fill:#404040;"/>
  </a>
 </g>
</svg>

<style type='text/css'>
<![CDATA[
[data-mouse-over-selected='false'] { opacity: 0.7; }
[data-mouse-over-selected='true']  { opacity: 1.0; }
]]>
</style>
<script type="application/ecmascript"><![CDATA[
document.addEventListener('DOMContentLoaded', (event) => {
  highlightEdges();
  highlightAdjacentNodes();
});
]]></script>
</svg>
