<?xml version="1.0" encoding="UTF-8" standalone="no"?>
<!DOCTYPE svg PUBLIC "-//W3C//DTD SVG 1.1//EN"
 "http://www.w3.org/Graphics/SVG/1.1/DTD/svg11.dtd">
<!-- Generated by graphviz version 13.1.2 (20250809.0930)
 -->
<!-- Title: Triangle::clean Pages: 1 -->
<svg width="442pt" height="42pt"
 viewBox="0.00 0.00 442.00 42.00" xmlns="http://www.w3.org/2000/svg" xmlns:xlink="http://www.w3.org/1999/xlink">
<g id="graph0" class="graph" transform="scale(1 1) rotate(0) translate(4 37.5)">
<title>Triangle::clean</title>
<!-- Node1 -->
<g id="Node000001" class="node">
<title>Node1</title>
<g id="a_Node000001"><a xlink:title="Small helper to zero tiny values (for robust barycentric math).">
<polygon fill="#999999" stroke="#666666" points="433.5,-27.12 347,-27.12 347,-6.38 433.5,-6.38 433.5,-27.12"/>
<text xml:space="preserve" text-anchor="middle" x="390.25" y="-13.62" font-family="Helvetica,sans-Serif" font-size="10.00">Triangle::clean</text>
</a>
</g>
</g>
<!-- Node2 -->
<g id="Node000002" class="node">
<title>Node2</title>
<g id="a_Node000002"><a xlink:href="classTriangle.html#aad716a04591b5c9af864d6c2a89d3a65" target="_top" xlink:title="Test whether a point lies on (or very near) the triangle.">
<polygon fill="white" stroke="#666666" points="311,-27.12 184.75,-27.12 184.75,-6.38 311,-6.38 311,-27.12"/>
<text xml:space="preserve" text-anchor="middle" x="247.88" y="-13.62" font-family="Helvetica,sans-Serif" font-size="10.00">Triangle::containsPoint</text>
</a>
</g>
</g>
<!-- Node1&#45;&gt;Node2 -->
<g id="edge1_Node000001_Node000002" class="edge">
<title>Node1&#45;&gt;Node2</title>
<g id="a_edge1_Node000001_Node000002"><a xlink:title=" ">
<path fill="none" stroke="#63b8ff" d="M335.48,-16.75C327.61,-16.75 319.45,-16.75 311.43,-16.75"/>
<polygon fill="#63b8ff" stroke="#63b8ff" points="335.24,-20.25 345.24,-16.75 335.24,-13.25 335.24,-20.25"/>
</a>
</g>
</g>
<!-- Node3 -->
<g id="Node000003" class="node">
<title>Node3</title>
<g id="a_Node000003"><a xlink:href="classGreenFLayered3D.html#af46d152fbc30bdc418ff16e5e7a334c6" target="_top" xlink:title="Point–triangle delta/kappa contributions for RHS assembly.">
<polygon fill="white" stroke="#666666" points="148.75,-33.5 0,-33.5 0,0 148.75,0 148.75,-33.5"/>
<text xml:space="preserve" text-anchor="start" x="8" y="-20" font-family="Helvetica,sans-Serif" font-size="10.00">GreenFLayered3D::SameTri</text>
<text xml:space="preserve" text-anchor="middle" x="74.38" y="-7.25" font-family="Helvetica,sans-Serif" font-size="10.00">DeltaKappa</text>
</a>
</g>
</g>
<!-- Node2&#45;&gt;Node3 -->
<g id="edge2_Node000002_Node000003" class="edge">
<title>Node2&#45;&gt;Node3</title>
<g id="a_edge2_Node000002_Node000003"><a xlink:title=" ">
<path fill="none" stroke="#63b8ff" d="M173,-16.75C165.08,-16.75 157.01,-16.75 149.09,-16.75"/>
<polygon fill="#63b8ff" stroke="#63b8ff" points="172.96,-20.25 182.96,-16.75 172.96,-13.25 172.96,-20.25"/>
</a>
</g>
</g>
</g>
</svg>
