<?xml version="1.0" encoding="UTF-8" standalone="no"?>
<!DOCTYPE svg PUBLIC "-//W3C//DTD SVG 1.1//EN"
 "http://www.w3.org/Graphics/SVG/1.1/DTD/svg11.dtd">
<!-- Generated by graphviz version 13.1.2 (20250809.0930)
 -->
<!-- Title: GaussQuad::I1 Pages: 1 -->
<svg width="263pt" height="146pt"
 viewBox="0.00 0.00 263.00 146.00" xmlns="http://www.w3.org/2000/svg" xmlns:xlink="http://www.w3.org/1999/xlink">

<svg id="main" version="1.1" xmlns="http://www.w3.org/2000/svg" xmlns:xlink="http://www.w3.org/1999/xlink" xml:space="preserve">

<style type="text/css"><![CDATA[
.node, .edge {opacity: 0.7;}
.node.selected, .edge.selected {opacity: 1;}
.edge:hover path { stroke: red; }
.edge:hover polygon { stroke: red; fill: red; }
]]></style>
<script type="application/ecmascript" xlink:href="svg.min.js"/>
<svg id="graph" class="graph">
<g id="graph0" class="graph" transform="scale(1 1) rotate(0) translate(4 141.75)">
<title>GaussQuad::I1</title>
<!-- Node1 -->
<g id="Node000001" class="node">
<title>Node1</title>
<g id="a_Node000001"><a xlink:title="I1 with on‑the‑fly kernel evaluation at (r,rp) using gF.">
<polygon fill="#999999" stroke="#666666" points="86.5,-78.75 0,-78.75 0,-58 86.5,-58 86.5,-78.75"/>
<text xml:space="preserve" text-anchor="middle" x="43.25" y="-65.25" font-family="Helvetica,sans-Serif" font-size="10.00">GaussQuad::I1</text>
</a>
</g>
</g>
<!-- Node2 -->
<g id="Node000002" class="node">
<title>Node2</title>
<g id="a_Node000002"><a xlink:href="classTriangle.html#a1d3d08deeb999f339d2e821a877521ba" target="_top" xlink:title="Surface area of the triangle.">
<polygon fill="white" stroke="#666666" points="230,-137.75 147.25,-137.75 147.25,-117 230,-117 230,-137.75"/>
<text xml:space="preserve" text-anchor="middle" x="188.62" y="-124.25" font-family="Helvetica,sans-Serif" font-size="10.00">Triangle::Area</text>
</a>
</g>
</g>
<!-- Node1&#45;&gt;Node2 -->
<g id="edge1_Node000001_Node000002" class="edge">
<title>Node1&#45;&gt;Node2</title>
<g id="a_edge1_Node000001_Node000002"><a xlink:title=" ">
<path fill="none" stroke="#63b8ff" d="M63.78,-79.23C79.36,-87.62 101.92,-99.15 122.5,-107.38 127.46,-109.36 132.69,-111.26 137.95,-113.05"/>
<polygon fill="#63b8ff" stroke="#63b8ff" points="136.66,-116.31 147.25,-116.09 138.83,-109.66 136.66,-116.31"/>
</a>
</g>
</g>
<!-- Node3 -->
<g id="Node000003" class="node">
<title>Node3</title>
<g id="a_Node000003"><a xlink:href="classTriangle.html#ab78508a340ec5d345adf114b43563dbf" target="_top" xlink:title="Centroid of the triangle.">
<polygon fill="white" stroke="#666666" points="234.88,-98.75 142.38,-98.75 142.38,-78 234.88,-78 234.88,-98.75"/>
<text xml:space="preserve" text-anchor="middle" x="188.62" y="-85.25" font-family="Helvetica,sans-Serif" font-size="10.00">Triangle::Center</text>
</a>
</g>
</g>
<!-- Node1&#45;&gt;Node3 -->
<g id="edge2_Node000001_Node000003" class="edge">
<title>Node1&#45;&gt;Node3</title>
<g id="a_edge2_Node000001_Node000003"><a xlink:title=" ">
<path fill="none" stroke="#63b8ff" d="M86.88,-74.32C100.69,-76.25 116.24,-78.42 130.91,-80.46"/>
<polygon fill="#63b8ff" stroke="#63b8ff" points="130.03,-83.87 140.41,-81.79 130.99,-76.94 130.03,-83.87"/>
</a>
</g>
</g>
<!-- Node4 -->
<g id="Node000004" class="node">
<title>Node4</title>
<g id="a_Node000004"><a xlink:href="classRWGFun.html#a7cd7779305937d48196453e53d0d4df8" target="_top" xlink:title="Return L_n / A_n (missing factor 1/2 by convention).">
<polygon fill="white" stroke="#666666" points="254.75,-59.75 122.5,-59.75 122.5,-39 254.75,-39 254.75,-59.75"/>
<text xml:space="preserve" text-anchor="middle" x="188.62" y="-46.25" font-family="Helvetica,sans-Serif" font-size="10.00">RWGFun::RWGPreFactor</text>
</a>
</g>
</g>
<!-- Node1&#45;&gt;Node4 -->
<g id="edge3_Node000001_Node000004" class="edge">
<title>Node1&#45;&gt;Node4</title>
<g id="a_edge3_Node000001_Node000004"><a xlink:title=" ">
<path fill="none" stroke="#63b8ff" d="M86.88,-62.73C94.48,-61.72 102.61,-60.64 110.83,-59.55"/>
<polygon fill="#63b8ff" stroke="#63b8ff" points="111.1,-63.05 120.56,-58.26 110.18,-56.11 111.1,-63.05"/>
</a>
</g>
</g>
<!-- Node5 -->
<g id="Node000005" class="node">
<title>Node5</title>
<g id="a_Node000005"><a xlink:href="classRWGFun.html#a6d9c854fc60bc02cb51ffb60cf388ccc" target="_top" xlink:title="Get the pointer to the owner Triangle.">
<polygon fill="white" stroke="#666666" points="246.12,-20.75 131.12,-20.75 131.12,0 246.12,0 246.12,-20.75"/>
<text xml:space="preserve" text-anchor="middle" x="188.62" y="-7.25" font-family="Helvetica,sans-Serif" font-size="10.00">RWGFun::TrianglePtr</text>
</a>
</g>
</g>
<!-- Node1&#45;&gt;Node5 -->
<g id="edge4_Node000001_Node000005" class="edge">
<title>Node1&#45;&gt;Node5</title>
<g id="a_edge4_Node000001_Node000005"><a xlink:title=" ">
<path fill="none" stroke="#63b8ff" d="M64.13,-57.66C79.73,-49.52 102.12,-38.4 122.5,-30.38 127.53,-28.39 132.84,-26.48 138.17,-24.68"/>
<polygon fill="#63b8ff" stroke="#63b8ff" points="139.19,-28.03 147.62,-21.61 137.03,-21.37 139.19,-28.03"/>
</a>
</g>
</g>
</g>
</svg>
</svg>

<style type='text/css'>
<![CDATA[
[data-mouse-over-selected='false'] { opacity: 0.7; }
[data-mouse-over-selected='true']  { opacity: 1.0; }
]]>
</style>
<script type="application/ecmascript"><![CDATA[
document.addEventListener('DOMContentLoaded', (event) => {
  highlightEdges();
  highlightAdjacentNodes();
});
]]></script>
</svg>
