<?xml version="1.0" encoding="UTF-8" standalone="no"?>
<!DOCTYPE svg PUBLIC "-//W3C//DTD SVG 1.1//EN"
 "http://www.w3.org/Graphics/SVG/1.1/DTD/svg11.dtd">
<!-- Generated by graphviz version 13.1.2 (20250809.0930)
 -->
<!-- Title: GreenFHom3D::AboveThreshold Pages: 1 -->
<svg width="393pt" height="107pt"
 viewBox="0.00 0.00 393.00 107.00" xmlns="http://www.w3.org/2000/svg" xmlns:xlink="http://www.w3.org/1999/xlink">
<g id="graph0" class="graph" transform="scale(1 1) rotate(0) translate(4 102.75)">
<title>GreenFHom3D::AboveThreshold</title>
<!-- Node1 -->
<g id="Node000001" class="node">
<title>Node1</title>
<g id="a_Node000001"><a xlink:title="Heuristic test based on .">
<polygon fill="#999999" stroke="#666666" points="385.25,-59.75 212.5,-59.75 212.5,-39 385.25,-39 385.25,-59.75"/>
<text xml:space="preserve" text-anchor="middle" x="298.88" y="-46.25" font-family="Helvetica,sans-Serif" font-size="10.00">GreenFHom3D::AboveThreshold</text>
</a>
</g>
</g>
<!-- Node2 -->
<g id="Node000002" class="node">
<title>Node2</title>
<g id="a_Node000002"><a xlink:href="classGreenFHom3DPer.html#af451f0bfd43404b11e5ea97c9ee84c9d" target="_top" xlink:title="Helper used by near/far tests to assign the nearest image vector.">
<polygon fill="white" stroke="#666666" points="159.25,-98.75 17.25,-98.75 17.25,-78 159.25,-78 159.25,-98.75"/>
<text xml:space="preserve" text-anchor="middle" x="88.25" y="-85.25" font-family="Helvetica,sans-Serif" font-size="10.00">GreenFHom3DPer::Assign</text>
</a>
</g>
</g>
<!-- Node1&#45;&gt;Node2 -->
<g id="edge1_Node000001_Node000002" class="edge">
<title>Node1&#45;&gt;Node2</title>
<g id="a_edge1_Node000001_Node000002"><a xlink:title=" ">
<path fill="none" stroke="#63b8ff" d="M228.7,-62.31C202.36,-67.23 172.63,-72.79 147.41,-77.5"/>
<polygon fill="#63b8ff" stroke="#63b8ff" points="229.09,-65.79 238.27,-60.52 227.8,-58.91 229.09,-65.79"/>
</a>
</g>
</g>
<!-- Node3 -->
<g id="Node000003" class="node">
<title>Node3</title>
<g id="a_Node000003"><a xlink:href="classGreenFHom3D.html#a419cbe00b5a2aed70ac546904a8a8d6f" target="_top" xlink:title="Compute &#160;and &#160;for all RWG pairs on two triangles.">
<polygon fill="white" stroke="#666666" points="161.88,-59.75 14.62,-59.75 14.62,-39 161.88,-39 161.88,-59.75"/>
<text xml:space="preserve" text-anchor="middle" x="88.25" y="-46.25" font-family="Helvetica,sans-Serif" font-size="10.00">GreenFHom3D::SameTriDK</text>
</a>
</g>
</g>
<!-- Node1&#45;&gt;Node3 -->
<g id="edge2_Node000001_Node000003" class="edge">
<title>Node1&#45;&gt;Node3</title>
<g id="a_edge2_Node000001_Node000003"><a xlink:title=" ">
<path fill="none" stroke="#63b8ff" d="M200.81,-49.38C187.87,-49.38 174.79,-49.38 162.36,-49.38"/>
<polygon fill="#63b8ff" stroke="#63b8ff" points="200.6,-52.88 210.6,-49.38 200.6,-45.88 200.6,-52.88"/>
</a>
</g>
</g>
<!-- Node4 -->
<g id="Node000004" class="node">
<title>Node4</title>
<g id="a_Node000004"><a xlink:href="classGreenFHom3DPer2D.html#a1dc9dd84c93ee10b2fb4b1866103d957" target="_top" xlink:title="Compute &#160;and &#160;for all RWG pairs on two triangles.">
<polygon fill="white" stroke="#666666" points="176.5,-20.75 0,-20.75 0,0 176.5,0 176.5,-20.75"/>
<text xml:space="preserve" text-anchor="middle" x="88.25" y="-7.25" font-family="Helvetica,sans-Serif" font-size="10.00">GreenFHom3DPer2D::SameTriDK</text>
</a>
</g>
</g>
<!-- Node1&#45;&gt;Node4 -->
<g id="edge3_Node000001_Node000004" class="edge">
<title>Node1&#45;&gt;Node4</title>
<g id="a_edge3_Node000001_Node000004"><a xlink:title=" ">
<path fill="none" stroke="#63b8ff" d="M228.7,-36.44C202.36,-31.52 172.63,-25.96 147.41,-21.25"/>
<polygon fill="#63b8ff" stroke="#63b8ff" points="227.8,-39.84 238.27,-38.23 229.09,-32.96 227.8,-39.84"/>
</a>
</g>
</g>
</g>
</svg>
