<?xml version="1.0" encoding="UTF-8" standalone="no"?>
<!DOCTYPE svg PUBLIC "-//W3C//DTD SVG 1.1//EN"
 "http://www.w3.org/Graphics/SVG/1.1/DTD/svg11.dtd">
<!-- Generated by graphviz version 13.1.2 (20250809.0930)
 -->
<!-- Title: SurfaceMesh::LoadFromMphtxtFile Pages: 1 -->
<svg width="567pt" height="87pt"
 viewBox="0.00 0.00 567.00 87.00" xmlns="http://www.w3.org/2000/svg" xmlns:xlink="http://www.w3.org/1999/xlink">
<g id="graph0" class="graph" transform="scale(1 1) rotate(0) translate(4 82.75)">
<title>SurfaceMesh::LoadFromMphtxtFile</title>
<!-- Node1 -->
<g id="Node000001" class="node">
<title>Node1</title>
<g id="a_Node000001"><a xlink:title="Read mesh from a COMSOL &quot;.mphtxt&quot; file.">
<polygon fill="#999999" stroke="#666666" points="184.75,-39.75 0,-39.75 0,-19 184.75,-19 184.75,-39.75"/>
<text xml:space="preserve" text-anchor="middle" x="92.38" y="-26.25" font-family="Helvetica,sans-Serif" font-size="10.00">SurfaceMesh::LoadFromMphtxtFile</text>
</a>
</g>
</g>
<!-- Node2 -->
<g id="Node000002" class="node">
<title>Node2</title>
<g id="a_Node000002"><a xlink:href="classSurfaceMesh.html#ad8c7eef9fac668b92caf8b4418dcb4ff" target="_top" xlink:title="Insert edge (n1,n2) if not already present (directly or via BC image).">
<polygon fill="white" stroke="#666666" points="380,-59.75 220.75,-59.75 220.75,-39 380,-39 380,-59.75"/>
<text xml:space="preserve" text-anchor="middle" x="300.38" y="-46.25" font-family="Helvetica,sans-Serif" font-size="10.00">SurfaceMesh::AddEdgeTested</text>
</a>
</g>
</g>
<!-- Node1&#45;&gt;Node2 -->
<g id="edge1_Node000001_Node000002" class="edge">
<title>Node1&#45;&gt;Node2</title>
<g id="a_edge1_Node000001_Node000002"><a xlink:title=" ">
<path fill="none" stroke="#63b8ff" d="M185.23,-38.29C193.09,-39.06 201.03,-39.83 208.88,-40.59"/>
<polygon fill="#63b8ff" stroke="#63b8ff" points="208.49,-44.07 218.78,-41.55 209.16,-37.1 208.49,-44.07"/>
</a>
</g>
</g>
<!-- Node5 -->
<g id="Node000005" class="node">
<title>Node5</title>
<g id="a_Node000005"><a xlink:href="group__driver.html#ga3859b179ce92396b3d9187e4437d8826" target="_top" xlink:title="Read a value of type T from a text stream, skipping lines beginning with &#39;#&#39;.">
<polygon fill="white" stroke="#666666" points="350.75,-20.75 250,-20.75 250,0 350.75,0 350.75,-20.75"/>
<text xml:space="preserve" text-anchor="middle" x="300.38" y="-7.25" font-family="Helvetica,sans-Serif" font-size="10.00">ReadCommented</text>
</a>
</g>
</g>
<!-- Node1&#45;&gt;Node5 -->
<g id="edge4_Node000001_Node000005" class="edge">
<title>Node1&#45;&gt;Node5</title>
<g id="a_edge4_Node000001_Node000005"><a xlink:title=" ">
<path fill="none" stroke="#63b8ff" d="M185.23,-20.9C203.27,-19.24 221.78,-17.53 238.5,-15.99"/>
<polygon fill="#63b8ff" stroke="#63b8ff" points="238.62,-19.49 248.25,-15.09 237.97,-12.52 238.62,-19.49"/>
</a>
</g>
</g>
<!-- Node3 -->
<g id="Node000003" class="node">
<title>Node3</title>
<g id="a_Node000003"><a xlink:href="classSurfaceMesh.html#a7c57c7085e749775a96cb25a5424834e" target="_top" xlink:title="Find the index of an edge mapped between n1,n2 via a stored symmetry op.">
<polygon fill="white" stroke="#666666" points="558.75,-78.75 416,-78.75 416,-58 558.75,-58 558.75,-78.75"/>
<text xml:space="preserve" text-anchor="middle" x="487.38" y="-65.25" font-family="Helvetica,sans-Serif" font-size="10.00">SurfaceMesh::FindEdgeBC</text>
</a>
</g>
</g>
<!-- Node2&#45;&gt;Node3 -->
<g id="edge2_Node000002_Node000003" class="edge">
<title>Node2&#45;&gt;Node3</title>
<g id="a_edge2_Node000002_Node000003"><a xlink:title=" ">
<path fill="none" stroke="#63b8ff" d="M380.37,-57.49C388.22,-58.29 396.21,-59.11 404.09,-59.92"/>
<polygon fill="#63b8ff" stroke="#63b8ff" points="403.73,-63.41 414.04,-60.95 404.45,-56.44 403.73,-63.41"/>
</a>
</g>
</g>
<!-- Node4 -->
<g id="Node000004" class="node">
<title>Node4</title>
<g id="a_Node000004"><a xlink:href="classSurfaceMesh.html#a45445ddd5776f8236dc72058cc1c7b18" target="_top" xlink:title="Find the index of an existing edge between two nodes (direct match).">
<polygon fill="white" stroke="#666666" points="558.38,-39.75 416.38,-39.75 416.38,-19 558.38,-19 558.38,-39.75"/>
<text xml:space="preserve" text-anchor="middle" x="487.38" y="-26.25" font-family="Helvetica,sans-Serif" font-size="10.00">SurfaceMesh::FindEdgeFB</text>
</a>
</g>
</g>
<!-- Node2&#45;&gt;Node4 -->
<g id="edge3_Node000002_Node000004" class="edge">
<title>Node2&#45;&gt;Node4</title>
<g id="a_edge3_Node000002_Node000004"><a xlink:title=" ">
<path fill="none" stroke="#63b8ff" d="M380.37,-40.84C388.45,-39.96 396.66,-39.07 404.77,-38.2"/>
<polygon fill="#63b8ff" stroke="#63b8ff" points="405.05,-41.69 414.62,-37.13 404.3,-34.73 405.05,-41.69"/>
</a>
</g>
</g>
</g>
</svg>
