<?xml version="1.0" encoding="UTF-8" standalone="no"?>
<!DOCTYPE svg PUBLIC "-//W3C//DTD SVG 1.1//EN"
 "http://www.w3.org/Graphics/SVG/1.1/DTD/svg11.dtd">
<!-- Generated by graphviz version 13.1.2 (20250809.0930)
 -->
<!-- Title: DomainLayered3D::SecFieldE Pages: 1 -->
<svg width="524pt" height="54pt"
 viewBox="0.00 0.00 524.00 54.00" xmlns="http://www.w3.org/2000/svg" xmlns:xlink="http://www.w3.org/1999/xlink">
<g id="graph0" class="graph" transform="scale(1 1) rotate(0) translate(4 50.12)">
<title>DomainLayered3D::SecFieldE</title>
<!-- Node1 -->
<g id="Node000001" class="node">
<title>Node1</title>
<g id="a_Node000001"><a xlink:title="Secondary (scattered) electric field at a point from the solution vector.">
<polygon fill="#999999" stroke="#666666" points="159.25,-39.75 0,-39.75 0,-19 159.25,-19 159.25,-39.75"/>
<text xml:space="preserve" text-anchor="middle" x="79.62" y="-26.25" font-family="Helvetica,sans-Serif" font-size="10.00">DomainLayered3D::SecFieldE</text>
</a>
</g>
</g>
<!-- Node2 -->
<g id="Node000002" class="node">
<title>Node2</title>
<g id="a_Node000002"><a xlink:href="classDomainLayered3D.html#ae8e9daf2ca4d1ed649a1e0fe83880160" target="_top" xlink:title="Returns the layer index corresponding to a spatial position.">
<polygon fill="white" stroke="#666666" points="516,-46.12 359,-46.12 359,-12.62 516,-12.62 516,-46.12"/>
<text xml:space="preserve" text-anchor="start" x="367" y="-32.62" font-family="Helvetica,sans-Serif" font-size="10.00">DomainLayered3D::GetLayer</text>
<text xml:space="preserve" text-anchor="middle" x="437.5" y="-19.88" font-family="Helvetica,sans-Serif" font-size="10.00">Index</text>
</a>
</g>
</g>
<!-- Node1&#45;&gt;Node2 -->
<g id="edge1_Node000001_Node000002" class="edge">
<title>Node1&#45;&gt;Node2</title>
<g id="a_edge1_Node000001_Node000002"><a xlink:title=" ">
<path fill="none" stroke="#63b8ff" d="M159.61,-29.38C215.18,-29.38 289.64,-29.38 347.35,-29.38"/>
<polygon fill="#63b8ff" stroke="#63b8ff" points="347.15,-32.88 357.15,-29.38 347.15,-25.88 347.15,-32.88"/>
</a>
</g>
</g>
<!-- Node3 -->
<g id="Node000003" class="node">
<title>Node3</title>
<g id="a_Node000003"><a xlink:href="classDomainLayered3D.html#a295274a8176b2d6f9fc07c7aea9fd89c" target="_top" xlink:title="Relative permeability at a spatial location.">
<polygon fill="white" stroke="#666666" points="323,-20.75 195.25,-20.75 195.25,0 323,0 323,-20.75"/>
<text xml:space="preserve" text-anchor="middle" x="259.12" y="-7.25" font-family="Helvetica,sans-Serif" font-size="10.00">DomainLayered3D::Mu</text>
</a>
</g>
</g>
<!-- Node1&#45;&gt;Node3 -->
<g id="edge2_Node000001_Node000003" class="edge">
<title>Node1&#45;&gt;Node3</title>
<g id="a_edge2_Node000001_Node000003"><a xlink:title=" ">
<path fill="none" stroke="#63b8ff" d="M159.51,-20.93C167.57,-20.07 175.73,-19.19 183.74,-18.34"/>
<polygon fill="#63b8ff" stroke="#63b8ff" points="183.84,-21.85 193.42,-17.3 183.1,-14.89 183.84,-21.85"/>
</a>
</g>
</g>
<!-- Node3&#45;&gt;Node2 -->
<g id="edge3_Node000003_Node000002" class="edge">
<title>Node3&#45;&gt;Node2</title>
<g id="a_edge3_Node000003_Node000002"><a xlink:title=" ">
<path fill="none" stroke="#63b8ff" d="M323.3,-17.18C331.1,-18.02 339.17,-18.89 347.26,-19.76"/>
<polygon fill="#63b8ff" stroke="#63b8ff" points="346.86,-23.24 357.17,-20.83 347.61,-16.28 346.86,-23.24"/>
</a>
</g>
</g>
</g>
</svg>
