<?xml version="1.0" encoding="UTF-8" standalone="no"?>
<!DOCTYPE svg PUBLIC "-//W3C//DTD SVG 1.1//EN"
 "http://www.w3.org/Graphics/SVG/1.1/DTD/svg11.dtd">
<!-- Generated by graphviz version 13.1.2 (20250809.0930)
 -->
<!-- Title: GreenFHom3DPer2D::SameTriDeltaKappa Pages: 1 -->
<!--zoomable 611 -->

<svg id="main" version="1.1" xmlns="http://www.w3.org/2000/svg" xmlns:xlink="http://www.w3.org/1999/xlink" xml:space="preserve" onload="init(evt)">

<style type="text/css"><![CDATA[
.node, .edge {opacity: 0.7;}
.node.selected, .edge.selected {opacity: 1;}
.edge:hover path { stroke: red; }
.edge:hover polygon { stroke: red; fill: red; }
]]></style>

<defs>
  <circle id="rim" cx="0" cy="0" r="7"/>
  <circle id="rim2" cx="0" cy="0" r="3.5"/>
  <g id="zoomPlus">
    <use xlink:href="#rim" fill="#404040"><set attributeName="fill" to="#808080" begin="zoomplus.mouseover" end="zoomplus.mouseout"/></use>
    <path d="M-4,0h8M0,-4v8" fill="none" stroke="white" stroke-width="1.5" pointer-events="none"/>
  </g>
  <g id="zoomMin">
    <use xlink:href="#rim" fill="#404040"><set attributeName="fill" to="#808080" begin="zoomminus.mouseover" end="zoomminus.mouseout"/></use>
    <path d="M-4,0h8" fill="none" stroke="white" stroke-width="1.5" pointer-events="none"/>
  </g>
  <g id="arrowUp" transform="translate(30 24)">
    <use xlink:href="#rim"/>
    <path pointer-events="none" fill="none" stroke="white" stroke-width="1.5" d="M0,-3.0v7 M-2.5,-0.5L0,-3.0L2.5,-0.5"/>
  </g>
  <g id="arrowRight" transform="rotate(90) translate(36 -43)">
    <use xlink:href="#rim"/>
    <path pointer-events="none" fill="none" stroke="white" stroke-width="1.5" d="M0,-3.0v7 M-2.5,-0.5L0,-3.0L2.5,-0.5"/>
  </g>
  <g id="arrowDown" transform="rotate(180) translate(-30 -48)">
    <use xlink:href="#rim"/>
    <path pointer-events="none" fill="none" stroke="white" stroke-width="1.5" d="M0,-3.0v7 M-2.5,-0.5L0,-3.0L2.5,-0.5"/>
  </g>
  <g id="arrowLeft" transform="rotate(270) translate(-36 17)">
    <use xlink:href="#rim"/>
    <path pointer-events="none" fill="none" stroke="white" stroke-width="1.5" d="M0,-3.0v7 M-2.5,-0.5L0,-3.0L2.5,-0.5"/>
  </g>
  <g id="resetDef">
    <use xlink:href="#rim2" fill="#404040"><set attributeName="fill" to="#808080" begin="reset.mouseover" end="reset.mouseout"/></use>
  </g>
</defs>
<script type="application/ecmascript">
var viewWidth = 1112;
var viewHeight = 611;
var sectionId = 'dynsection-55';
</script>
<script type="application/ecmascript" xlink:href="svg.min.js"/>
<svg id="graph" class="graph">
<g id="viewport">
<title>GreenFHom3DPer2D::SameTriDeltaKappa</title>
<!-- Node1 -->
<g id="Node000001" class="node">
<title>Node1</title>
<g id="a_Node000001"><a xlink:title="Compute &#160;for all RWGs on a source triangle.">
<polygon fill="#999999" stroke="#666666" points="162.25,-298.12 0,-298.12 0,-264.62 162.25,-264.62 162.25,-298.12"/>
<text xml:space="preserve" text-anchor="start" x="8" y="-284.62" font-family="Helvetica,sans-Serif" font-size="10.00">GreenFHom3DPer2D::SameTri</text>
<text xml:space="preserve" text-anchor="middle" x="81.12" y="-271.88" font-family="Helvetica,sans-Serif" font-size="10.00">DeltaKappa</text>
</a>
</g>
</g>
<!-- Node2 -->
<g id="Node000002" class="node">
<title>Node2</title>
<g id="a_Node000002"><a xlink:href="classTriangle.html#a1d3d08deeb999f339d2e821a877521ba" target="_top" xlink:title="Surface area of the triangle.">
<polygon fill="white" stroke="#666666" points="333.5,-602.75 250.75,-602.75 250.75,-582 333.5,-582 333.5,-602.75"/>
<text xml:space="preserve" text-anchor="middle" x="292.12" y="-589.25" font-family="Helvetica,sans-Serif" font-size="10.00">Triangle::Area</text>
</a>
</g>
</g>
<!-- Node1&#45;&gt;Node2 -->
<g id="edge1_Node000001_Node000002" class="edge">
<title>Node1&#45;&gt;Node2</title>
<g id="a_edge1_Node000001_Node000002"><a xlink:title=" ">
<path fill="none" stroke="#63b8ff" d="M83.5,-298.32C88.54,-348.64 110.59,-498.3 198.25,-572.38 209.69,-582.05 224.71,-587.37 239.33,-590.22"/>
<polygon fill="#63b8ff" stroke="#63b8ff" points="238.44,-593.62 248.86,-591.71 239.52,-586.71 238.44,-593.62"/>
</a>
</g>
</g>
<!-- Node3 -->
<g id="Node000003" class="node">
<title>Node3</title>
<g id="a_Node000003"><a xlink:href="classTriangle.html#ab78508a340ec5d345adf114b43563dbf" target="_top" xlink:title="Centroid of the triangle.">
<polygon fill="white" stroke="#666666" points="338.38,-563.75 245.88,-563.75 245.88,-543 338.38,-543 338.38,-563.75"/>
<text xml:space="preserve" text-anchor="middle" x="292.12" y="-550.25" font-family="Helvetica,sans-Serif" font-size="10.00">Triangle::Center</text>
</a>
</g>
</g>
<!-- Node1&#45;&gt;Node3 -->
<g id="edge2_Node000001_Node000003" class="edge">
<title>Node1&#45;&gt;Node3</title>
<g id="a_edge2_Node000001_Node000003"><a xlink:title=" ">
<path fill="none" stroke="#63b8ff" d="M84.65,-298.35C92.4,-344.13 120.25,-470.87 198.25,-533.38 208.5,-541.59 221.37,-546.63 234.23,-549.68"/>
<polygon fill="#63b8ff" stroke="#63b8ff" points="233.49,-553.1 243.98,-551.58 234.83,-546.23 233.49,-553.1"/>
</a>
</g>
</g>
<!-- Node4 -->
<g id="Node000004" class="node">
<title>Node4</title>
<g id="a_Node000004"><a xlink:href="classSingSub.html#a9d74100325023b4d1c156bd97ae240b3" target="_top" xlink:title="Update only the RWG/triangle; keep the same observation point r.">
<polygon fill="white" stroke="#666666" points="372.12,-524.75 212.12,-524.75 212.12,-504 372.12,-504 372.12,-524.75"/>
<text xml:space="preserve" text-anchor="middle" x="292.12" y="-511.25" font-family="Helvetica,sans-Serif" font-size="10.00">SingSub::ChangeTriangleRWG</text>
</a>
</g>
</g>
<!-- Node1&#45;&gt;Node4 -->
<g id="edge3_Node000001_Node000004" class="edge">
<title>Node1&#45;&gt;Node4</title>
<g id="a_edge3_Node000001_Node000004"><a xlink:title=" ">
<path fill="none" stroke="#63b8ff" d="M86.19,-298.4C96.87,-339.25 129.77,-443.19 198.25,-494.38 200.24,-495.86 202.31,-497.24 204.45,-498.52"/>
<polygon fill="#63b8ff" stroke="#63b8ff" points="202.4,-501.4 212.89,-502.84 205.59,-495.17 202.4,-501.4"/>
</a>
</g>
</g>
<!-- Node5 -->
<g id="Node000005" class="node">
<title>Node5</title>
<g id="a_Node000005"><a xlink:href="classRWGFun.html#a7540ce2f84c6b42a29c2808504c47d42" target="_top" xlink:title="Evaluate the RWG vector shape function at a point on the triangle.">
<polygon fill="white" stroke="#666666" points="345.12,-485.75 239.12,-485.75 239.12,-465 345.12,-465 345.12,-485.75"/>
<text xml:space="preserve" text-anchor="middle" x="292.12" y="-472.25" font-family="Helvetica,sans-Serif" font-size="10.00">RWGFun::Evaluate</text>
</a>
</g>
</g>
<!-- Node1&#45;&gt;Node5 -->
<g id="edge4_Node000001_Node000005" class="edge">
<title>Node1&#45;&gt;Node5</title>
<g id="a_edge4_Node000001_Node000005"><a xlink:title=" ">
<path fill="none" stroke="#63b8ff" d="M88.3,-298.58C102.03,-334.23 138.7,-416.21 198.25,-456.38 207.06,-462.32 217.34,-466.47 227.77,-469.36"/>
<polygon fill="#63b8ff" stroke="#63b8ff" points="226.65,-472.69 237.19,-471.59 228.26,-465.88 226.65,-472.69"/>
</a>
</g>
</g>
<!-- Node6 -->
<g id="Node000006" class="node">
<title>Node6</title>
<g id="a_Node000006"><a xlink:href="classGreenFHom3DPer2D.html#ab49a15bcfe7b44d2338c9182f003d385" target="_top" xlink:title="Evaluate &#160;(smoothed) for a translation in one call.">
<polygon fill="white" stroke="#666666" points="384.12,-395.12 200.12,-395.12 200.12,-361.62 384.12,-361.62 384.12,-395.12"/>
<text xml:space="preserve" text-anchor="start" x="208.12" y="-381.62" font-family="Helvetica,sans-Serif" font-size="10.00">GreenFHom3DPer2D::Evaluateand</text>
<text xml:space="preserve" text-anchor="middle" x="292.12" y="-368.88" font-family="Helvetica,sans-Serif" font-size="10.00">GradientSmoothedTranslate</text>
</a>
</g>
</g>
<!-- Node1&#45;&gt;Node6 -->
<g id="edge5_Node000001_Node000006" class="edge">
<title>Node1&#45;&gt;Node6</title>
<g id="a_edge5_Node000001_Node000006"><a xlink:title=" ">
<path fill="none" stroke="#63b8ff" d="M105.53,-298.37C128.27,-314.21 164.24,-337.56 198.25,-352.38 202.28,-354.13 206.46,-355.8 210.72,-357.38"/>
<polygon fill="#63b8ff" stroke="#63b8ff" points="209.39,-360.62 219.99,-360.63 211.71,-354.02 209.39,-360.62"/>
</a>
</g>
</g>
<!-- Node14 -->
<g id="Node000014" class="node">
<title>Node14</title>
<g id="a_Node000014"><a xlink:href="classGreenFHom3DPer2D.html#aea4d858bd544ba5e9a8de1197b572b4e" target="_top" xlink:title="Evaluate &#160;for a translation in one call.">
<polygon fill="white" stroke="#666666" points="384.12,-447.12 200.12,-447.12 200.12,-413.62 384.12,-413.62 384.12,-447.12"/>
<text xml:space="preserve" text-anchor="start" x="208.12" y="-433.62" font-family="Helvetica,sans-Serif" font-size="10.00">GreenFHom3DPer2D::Evaluateand</text>
<text xml:space="preserve" text-anchor="middle" x="292.12" y="-420.88" font-family="Helvetica,sans-Serif" font-size="10.00">GradientTranslate</text>
</a>
</g>
</g>
<!-- Node1&#45;&gt;Node14 -->
<g id="edge16_Node000001_Node000014" class="edge">
<title>Node1&#45;&gt;Node14</title>
<g id="a_edge16_Node000001_Node000014"><a xlink:title=" ">
<path fill="none" stroke="#63b8ff" d="M93.54,-298.46C112.24,-325.11 152,-376.43 198.25,-404.38 200.7,-405.85 203.23,-407.25 205.82,-408.57"/>
<polygon fill="#63b8ff" stroke="#63b8ff" points="204.18,-411.67 214.73,-412.65 207.1,-405.3 204.18,-411.67"/>
</a>
</g>
</g>
<!-- Node16 -->
<g id="Node000016" class="node">
<title>Node16</title>
<g id="a_Node000016"><a xlink:href="classGreenFHom3DPer2D.html#a6e7bfc8640c70e6dfaa9f8e14cb916ea" target="_top" xlink:title="Constructor for a non&#45;magnetic medium (2D periodic).">
<polygon fill="white" stroke="#666666" points="386,-343.12 198.25,-343.12 198.25,-309.62 386,-309.62 386,-343.12"/>
<text xml:space="preserve" text-anchor="start" x="206.25" y="-329.62" font-family="Helvetica,sans-Serif" font-size="10.00">GreenFHom3DPer2D::GreenFHom3</text>
<text xml:space="preserve" text-anchor="middle" x="292.12" y="-316.88" font-family="Helvetica,sans-Serif" font-size="10.00">DPer2D</text>
</a>
</g>
</g>
<!-- Node1&#45;&gt;Node16 -->
<g id="edge20_Node000001_Node000016" class="edge">
<title>Node1&#45;&gt;Node16</title>
<g id="a_edge20_Node000001_Node000016"><a xlink:title=" ">
<path fill="none" stroke="#63b8ff" d="M162.03,-298.58C174.51,-301.27 187.49,-304.06 200.19,-306.8"/>
<polygon fill="#63b8ff" stroke="#63b8ff" points="199.27,-310.18 209.78,-308.86 200.74,-303.33 199.27,-310.18"/>
</a>
</g>
</g>
<!-- Node24 -->
<g id="Node000024" class="node">
<title>Node24</title>
<g id="a_Node000024"><a xlink:href="classSingSub.html#aed0bb257cd3c94dccd5b6cc0ecdd1c5e" target="_top" xlink:title="K2(q) vector term.">
<polygon fill="white" stroke="#666666" points="329,-291.75 255.25,-291.75 255.25,-271 329,-271 329,-291.75"/>
<text xml:space="preserve" text-anchor="middle" x="292.12" y="-278.25" font-family="Helvetica,sans-Serif" font-size="10.00">SingSub::K2</text>
</a>
</g>
</g>
<!-- Node1&#45;&gt;Node24 -->
<g id="edge29_Node000001_Node000024" class="edge">
<title>Node1&#45;&gt;Node24</title>
<g id="a_edge29_Node000001_Node000024"><a xlink:title=" ">
<path fill="none" stroke="#63b8ff" d="M162.63,-281.38C190,-281.38 219.7,-281.38 243.64,-281.38"/>
<polygon fill="#63b8ff" stroke="#63b8ff" points="243.38,-284.88 253.38,-281.38 243.38,-277.88 243.38,-284.88"/>
</a>
</g>
</g>
<!-- Node25 -->
<g id="Node000025" class="node">
<title>Node25</title>
<g id="a_Node000025"><a xlink:href="classSingSub.html#a3e9e0b5a61df98d8f8138544c7df3da0" target="_top" xlink:title="K3(q) vector term.">
<polygon fill="white" stroke="#666666" points="557.62,-236.75 483.88,-236.75 483.88,-216 557.62,-216 557.62,-236.75"/>
<text xml:space="preserve" text-anchor="middle" x="520.75" y="-223.25" font-family="Helvetica,sans-Serif" font-size="10.00">SingSub::K3</text>
</a>
</g>
</g>
<!-- Node1&#45;&gt;Node25 -->
<g id="edge30_Node000001_Node000025" class="edge">
<title>Node1&#45;&gt;Node25</title>
<g id="a_edge30_Node000001_Node000025"><a xlink:title=" ">
<path fill="none" stroke="#63b8ff" d="M107.54,-264.33C130.22,-250.21 164.91,-231.24 198.25,-223.38 293.38,-200.94 408.78,-210.6 472.22,-218.94"/>
<polygon fill="#63b8ff" stroke="#63b8ff" points="471.57,-222.39 481.95,-220.27 472.51,-215.45 471.57,-222.39"/>
</a>
</g>
</g>
<!-- Node26 -->
<g id="Node000026" class="node">
<title>Node26</title>
<g id="a_Node000026"><a xlink:href="classSingSub.html#ab61a21e3498d2d6a4c0796254cf126ed" target="_top" xlink:title="K4(q) vector term.">
<polygon fill="white" stroke="#666666" points="329,-252.75 255.25,-252.75 255.25,-232 329,-232 329,-252.75"/>
<text xml:space="preserve" text-anchor="middle" x="292.12" y="-239.25" font-family="Helvetica,sans-Serif" font-size="10.00">SingSub::K4</text>
</a>
</g>
</g>
<!-- Node1&#45;&gt;Node26 -->
<g id="edge31_Node000001_Node000026" class="edge">
<title>Node1&#45;&gt;Node26</title>
<g id="a_edge31_Node000001_Node000026"><a xlink:title=" ">
<path fill="none" stroke="#63b8ff" d="M162.63,-266.35C190,-261.24 219.7,-255.7 243.64,-251.24"/>
<polygon fill="#63b8ff" stroke="#63b8ff" points="244.22,-254.69 253.41,-249.41 242.94,-247.81 244.22,-254.69"/>
</a>
</g>
</g>
<!-- Node27 -->
<g id="Node000027" class="node">
<title>Node27</title>
<g id="a_Node000027"><a xlink:href="classTriangle.html#a0752d2c9488c7c44b851b8f75abcaa79" target="_top" xlink:title="Node position (by value) for local index 0..2.">
<polygon fill="white" stroke="#666666" points="335,-176.75 249.25,-176.75 249.25,-156 335,-156 335,-176.75"/>
<text xml:space="preserve" text-anchor="middle" x="292.12" y="-163.25" font-family="Helvetica,sans-Serif" font-size="10.00">Triangle::Node</text>
</a>
</g>
</g>
<!-- Node1&#45;&gt;Node27 -->
<g id="edge33_Node000001_Node000027" class="edge">
<title>Node1&#45;&gt;Node27</title>
<g id="a_edge33_Node000001_Node000027"><a xlink:title=" ">
<path fill="none" stroke="#63b8ff" d="M99.04,-264.36C120.36,-243.86 158.98,-209.77 198.25,-190.38 210.62,-184.27 224.7,-179.6 238.1,-176.08"/>
<polygon fill="#63b8ff" stroke="#63b8ff" points="238.78,-179.52 247.66,-173.75 237.12,-172.72 238.78,-179.52"/>
</a>
</g>
</g>
<!-- Node28 -->
<g id="Node000028" class="node">
<title>Node28</title>
<g id="a_Node000028"><a xlink:href="classTriangle.html#a6e7daa074db3d147b33763bfd2a6e83b" target="_top" xlink:title="Perimeter (sum of edge lengths).">
<polygon fill="white" stroke="#666666" points="346.25,-137.75 238,-137.75 238,-117 346.25,-117 346.25,-137.75"/>
<text xml:space="preserve" text-anchor="middle" x="292.12" y="-124.25" font-family="Helvetica,sans-Serif" font-size="10.00">Triangle::Perimeter</text>
</a>
</g>
</g>
<!-- Node1&#45;&gt;Node28 -->
<g id="edge34_Node000001_Node000028" class="edge">
<title>Node1&#45;&gt;Node28</title>
<g id="a_edge34_Node000001_Node000028"><a xlink:title=" ">
<path fill="none" stroke="#63b8ff" d="M91.81,-264.27C109.16,-235.3 148.45,-176.85 198.25,-147.38 207.01,-142.19 216.93,-138.35 226.96,-135.49"/>
<polygon fill="#63b8ff" stroke="#63b8ff" points="227.51,-138.96 236.36,-133.14 225.81,-132.17 227.51,-138.96"/>
</a>
</g>
</g>
<!-- Node29 -->
<g id="Node000029" class="node">
<title>Node29</title>
<g id="a_Node000029"><a xlink:href="classGreenFHom3DPer2D.html#a098b4d59dde268718483b4ac9906e446" target="_top" xlink:title="Map a displacement to the primitive cell.">
<polygon fill="white" stroke="#666666" points="385.25,-98.75 199,-98.75 199,-78 385.25,-78 385.25,-98.75"/>
<text xml:space="preserve" text-anchor="middle" x="292.12" y="-85.25" font-family="Helvetica,sans-Serif" font-size="10.00">GreenFHom3DPer2D::PrimitiveCell</text>
</a>
</g>
</g>
<!-- Node1&#45;&gt;Node29 -->
<g id="edge35_Node000001_Node000029" class="edge">
<title>Node1&#45;&gt;Node29</title>
<g id="a_edge35_Node000001_Node000029"><a xlink:title=" ">
<path fill="none" stroke="#63b8ff" d="M88.49,-264.15C102.48,-228.85 139.42,-148.27 198.25,-108.38 200.64,-106.76 203.14,-105.26 205.71,-103.89"/>
<polygon fill="#63b8ff" stroke="#63b8ff" points="207.01,-107.15 214.63,-99.79 204.08,-100.79 207.01,-107.15"/>
</a>
</g>
</g>
<!-- Node30 -->
<g id="Node000030" class="node">
<title>Node30</title>
<g id="a_Node000030"><a xlink:href="classRWGFun.html#a7cd7779305937d48196453e53d0d4df8" target="_top" xlink:title="Return L_n / A_n (missing factor 1/2 by convention).">
<polygon fill="white" stroke="#666666" points="358.25,-59.75 226,-59.75 226,-39 358.25,-39 358.25,-59.75"/>
<text xml:space="preserve" text-anchor="middle" x="292.12" y="-46.25" font-family="Helvetica,sans-Serif" font-size="10.00">RWGFun::RWGPreFactor</text>
</a>
</g>
</g>
<!-- Node1&#45;&gt;Node30 -->
<g id="edge36_Node000001_Node000030" class="edge">
<title>Node1&#45;&gt;Node30</title>
<g id="a_edge36_Node000001_Node000030"><a xlink:title=" ">
<path fill="none" stroke="#63b8ff" d="M86.3,-264.13C97.12,-223.26 130.13,-120.19 198.25,-69.38 203.42,-65.52 209.17,-62.38 215.21,-59.82"/>
<polygon fill="#63b8ff" stroke="#63b8ff" points="215.97,-63.27 224.17,-56.56 213.58,-56.69 215.97,-63.27"/>
</a>
</g>
</g>
<!-- Node31 -->
<g id="Node000031" class="node">
<title>Node31</title>
<g id="a_Node000031"><a xlink:href="classSingSub.html#a20337fe20529d26c1775c8ba6d47cad0" target="_top" xlink:title="Preferred initialization that fills all cached arrays (ILar/ISar).">
<polygon fill="white" stroke="#666666" points="361.62,-20.75 222.62,-20.75 222.62,0 361.62,0 361.62,-20.75"/>
<text xml:space="preserve" text-anchor="middle" x="292.12" y="-7.25" font-family="Helvetica,sans-Serif" font-size="10.00">SingSub::SetTriangleRWG</text>
</a>
</g>
</g>
<!-- Node1&#45;&gt;Node31 -->
<g id="edge37_Node000001_Node000031" class="edge">
<title>Node1&#45;&gt;Node31</title>
<g id="a_edge37_Node000001_Node000031"><a xlink:title=" ">
<path fill="none" stroke="#63b8ff" d="M84.73,-264.13C92.62,-218.25 120.64,-92.47 198.25,-30.38 202.46,-27.01 207.1,-24.18 212,-21.8"/>
<polygon fill="#63b8ff" stroke="#63b8ff" points="213.06,-25.15 220.97,-18.1 210.39,-18.68 213.06,-25.15"/>
</a>
</g>
</g>
<!-- Node7 -->
<g id="Node000007" class="node">
<title>Node7</title>
<g id="a_Node000007"><a xlink:href="classGreenFHom3DPer2D.html#af034587a03115087737a86ed71b664f4" target="_top" xlink:title="Spatial part returning .">
<polygon fill="white" stroke="#666666" points="606.38,-445.12 435.12,-445.12 435.12,-411.62 606.38,-411.62 606.38,-445.12"/>
<text xml:space="preserve" text-anchor="start" x="443.12" y="-431.62" font-family="Helvetica,sans-Serif" font-size="10.00">GreenFHom3DPer2D::EwaldAnd</text>
<text xml:space="preserve" text-anchor="middle" x="520.75" y="-418.88" font-family="Helvetica,sans-Serif" font-size="10.00">GradientSpatialSmoothed</text>
</a>
</g>
</g>
<!-- Node6&#45;&gt;Node7 -->
<g id="edge6_Node000006_Node000007" class="edge">
<title>Node6&#45;&gt;Node7</title>
<g id="a_edge6_Node000006_Node000007"><a xlink:title=" ">
<path fill="none" stroke="#63b8ff" d="M371.12,-395.58C390.26,-399.81 410.89,-404.36 430.52,-408.69"/>
<polygon fill="#63b8ff" stroke="#63b8ff" points="429.62,-412.07 440.14,-410.81 431.13,-405.24 429.62,-412.07"/>
</a>
</g>
</g>
<!-- Node12 -->
<g id="Node000012" class="node">
<title>Node12</title>
<g id="a_Node000012"><a xlink:href="classGreenFHom3DPer2D.html#a025f6ce600bdd42ae02716905c75ba66" target="_top" xlink:title="Spectral part returning .">
<polygon fill="white" stroke="#666666" points="606.38,-393.12 435.12,-393.12 435.12,-359.62 606.38,-359.62 606.38,-393.12"/>
<text xml:space="preserve" text-anchor="start" x="443.12" y="-379.62" font-family="Helvetica,sans-Serif" font-size="10.00">GreenFHom3DPer2D::EwaldAnd</text>
<text xml:space="preserve" text-anchor="middle" x="520.75" y="-366.88" font-family="Helvetica,sans-Serif" font-size="10.00">GradientSpectral</text>
</a>
</g>
</g>
<!-- Node6&#45;&gt;Node12 -->
<g id="edge12_Node000006_Node000012" class="edge">
<title>Node6&#45;&gt;Node12</title>
<g id="a_edge12_Node000006_Node000012"><a xlink:title=" ">
<path fill="none" stroke="#63b8ff" d="M384.32,-377.57C397.26,-377.46 410.6,-377.34 423.62,-377.22"/>
<polygon fill="#63b8ff" stroke="#63b8ff" points="423.49,-380.72 433.46,-377.14 423.43,-373.72 423.49,-380.72"/>
</a>
</g>
</g>
<!-- Node8 -->
<g id="Node000008" class="node">
<title>Node8</title>
<g id="a_Node000008"><a xlink:href="classGreenF.html#abf00726011a4eca4109bc43125218d30" target="_top" xlink:title="Evaluate erfc via the 2D lookup table if available.">
<polygon fill="white" stroke="#666666" points="786.25,-438.75 699,-438.75 699,-418 786.25,-418 786.25,-438.75"/>
<text xml:space="preserve" text-anchor="middle" x="742.62" y="-425.25" font-family="Helvetica,sans-Serif" font-size="10.00">GreenF::EvErfc</text>
</a>
</g>
</g>
<!-- Node7&#45;&gt;Node8 -->
<g id="edge7_Node000007_Node000008" class="edge">
<title>Node7&#45;&gt;Node8</title>
<g id="a_edge7_Node000007_Node000008"><a xlink:title=" ">
<path fill="none" stroke="#63b8ff" d="M606.76,-428.38C633.76,-428.38 662.88,-428.38 687.13,-428.38"/>
<polygon fill="#63b8ff" stroke="#63b8ff" points="687.09,-431.88 697.09,-428.38 687.09,-424.88 687.09,-431.88"/>
</a>
</g>
</g>
<!-- Node9 -->
<g id="Node000009" class="node">
<title>Node9</title>
<g id="a_Node000009"><a xlink:href="mathFunctions_8cpp.html#a7916c6b62310fe9cf38ec2a2890aaad4" target="_top" xlink:title="Complementary error function for complex arguments.">
<polygon fill="white" stroke="#666666" points="931.62,-462.75 891.62,-462.75 891.62,-442 931.62,-442 931.62,-462.75"/>
<text xml:space="preserve" text-anchor="middle" x="911.62" y="-449.25" font-family="Helvetica,sans-Serif" font-size="10.00">cerfc</text>
</a>
</g>
</g>
<!-- Node8&#45;&gt;Node9 -->
<g id="edge8_Node000008_Node000009" class="edge">
<title>Node8&#45;&gt;Node9</title>
<g id="a_edge8_Node000008_Node000009"><a xlink:title=" ">
<path fill="none" stroke="#63b8ff" d="M786.63,-434.56C815.96,-438.77 854.09,-444.25 880.28,-448.01"/>
<polygon fill="#63b8ff" stroke="#63b8ff" points="879.5,-451.44 889.9,-449.4 880.5,-444.51 879.5,-451.44"/>
</a>
</g>
</g>
<!-- Node11 -->
<g id="Node000011" class="node">
<title>Node11</title>
<g id="a_Node000011"><a xlink:href="Domain_8cpp.html#aafa3e4fa6318b2f8740f4dbd50c367e5" target="_top" xlink:title="Extract the real part of each component of a complex 3&#45;vector.">
<polygon fill="white" stroke="#666666" points="1104.25,-405.75 1069.5,-405.75 1069.5,-385 1104.25,-385 1104.25,-405.75"/>
<text xml:space="preserve" text-anchor="middle" x="1086.88" y="-392.25" font-family="Helvetica,sans-Serif" font-size="10.00">real</text>
</a>
</g>
</g>
<!-- Node8&#45;&gt;Node11 -->
<g id="edge10_Node000008_Node000011" class="edge">
<title>Node8&#45;&gt;Node11</title>
<g id="a_edge10_Node000008_Node000011"><a xlink:title=" ">
<path fill="none" stroke="#63b8ff" d="M786.62,-424.23C857.84,-417.36 998.33,-403.82 1058.01,-398.06"/>
<polygon fill="#63b8ff" stroke="#63b8ff" points="1058.02,-401.58 1067.63,-397.13 1057.34,-394.61 1058.02,-401.58"/>
</a>
</g>
</g>
<!-- Node10 -->
<g id="Node000010" class="node">
<title>Node10</title>
<g id="a_Node000010"><a xlink:href="mathFunctions_8cpp.html#abc57cde75234d7e165a9ebcdb45f2c29" target="_top" xlink:title="Error function for complex arguments.">
<polygon fill="white" stroke="#666666" points="1030.88,-462.75 996.12,-462.75 996.12,-442 1030.88,-442 1030.88,-462.75"/>
<text xml:space="preserve" text-anchor="middle" x="1013.5" y="-449.25" font-family="Helvetica,sans-Serif" font-size="10.00">cerf</text>
</a>
</g>
</g>
<!-- Node9&#45;&gt;Node10 -->
<g id="edge9_Node000009_Node000010" class="edge">
<title>Node9&#45;&gt;Node10</title>
<g id="a_edge9_Node000009_Node000010"><a xlink:title=" ">
<path fill="none" stroke="#63b8ff" d="M931.88,-452.38C946.75,-452.38 967.55,-452.38 984.29,-452.38"/>
<polygon fill="#63b8ff" stroke="#63b8ff" points="984.11,-455.88 994.11,-452.38 984.11,-448.88 984.11,-455.88"/>
</a>
</g>
</g>
<!-- Node11&#45;&gt;Node11 -->
<g id="edge11_Node000011_Node000011" class="edge">
<title>Node11&#45;&gt;Node11</title>
<g id="a_edge11_Node000011_Node000011"><a xlink:title=" ">
<path fill="none" stroke="#63b8ff" d="M1075.05,-406.15C1070.32,-414.81 1074.26,-423.75 1086.88,-423.75 1093.57,-423.75 1097.83,-421.23 1099.63,-417.56"/>
<polygon fill="#63b8ff" stroke="#63b8ff" points="1103.13,-417.34 1098.82,-407.66 1096.15,-417.91 1103.13,-417.34"/>
</a>
</g>
</g>
<!-- Node12&#45;&gt;Node8 -->
<g id="edge15_Node000012_Node000008" class="edge">
<title>Node12&#45;&gt;Node8</title>
<g id="a_edge15_Node000012_Node000008"><a xlink:title=" ">
<path fill="none" stroke="#63b8ff" d="M594.66,-393.62C624.98,-400.79 659.56,-408.97 687.56,-415.59"/>
<polygon fill="#63b8ff" stroke="#63b8ff" points="686.72,-418.99 697.25,-417.88 688.33,-412.17 686.72,-418.99"/>
</a>
</g>
</g>
<!-- Node13 -->
<g id="Node000013" class="node">
<title>Node13</title>
<g id="a_Node000013"><a xlink:href="group__greenFunction.html#gac0a52dce23be7dacdf97c68653b6c137" target="_top" xlink:title="Complex square root with a branch cut along the negative real axis.">
<polygon fill="white" stroke="#666666" points="1033.5,-386.75 993.5,-386.75 993.5,-366 1033.5,-366 1033.5,-386.75"/>
<text xml:space="preserve" text-anchor="middle" x="1013.5" y="-373.25" font-family="Helvetica,sans-Serif" font-size="10.00">csqrt</text>
</a>
</g>
</g>
<!-- Node12&#45;&gt;Node13 -->
<g id="edge13_Node000012_Node000013" class="edge">
<title>Node12&#45;&gt;Node13</title>
<g id="a_edge13_Node000012_Node000013"><a xlink:title=" ">
<path fill="none" stroke="#63b8ff" d="M606.67,-376.38C718.15,-376.38 908.33,-376.38 982.05,-376.38"/>
<polygon fill="#63b8ff" stroke="#63b8ff" points="981.73,-379.88 991.73,-376.38 981.73,-372.88 981.73,-379.88"/>
</a>
</g>
</g>
<!-- Node13&#45;&gt;Node11 -->
<g id="edge14_Node000013_Node000011" class="edge">
<title>Node13&#45;&gt;Node11</title>
<g id="a_edge14_Node000013_Node000011"><a xlink:title=" ">
<path fill="none" stroke="#63b8ff" d="M1033.63,-381.47C1041.15,-383.47 1049.93,-385.81 1058.13,-387.99"/>
<polygon fill="#63b8ff" stroke="#63b8ff" points="1057.1,-391.34 1067.66,-390.53 1058.9,-384.57 1057.1,-391.34"/>
</a>
</g>
</g>
<!-- Node14&#45;&gt;Node12 -->
<g id="edge19_Node000014_Node000012" class="edge">
<title>Node14&#45;&gt;Node12</title>
<g id="a_edge19_Node000014_Node000012"><a xlink:title=" ">
<path fill="none" stroke="#63b8ff" d="M365.45,-413.14C388.15,-407.73 413.39,-401.72 436.77,-396.15"/>
<polygon fill="#63b8ff" stroke="#63b8ff" points="437.33,-399.61 446.25,-393.89 435.71,-392.8 437.33,-399.61"/>
</a>
</g>
</g>
<!-- Node15 -->
<g id="Node000015" class="node">
<title>Node15</title>
<g id="a_Node000015"><a xlink:href="classGreenFHom3DPer2D.html#ad219414131e33eb361fe2240be9612a0" target="_top" xlink:title="Spatial part returning both normal and gradient.">
<polygon fill="white" stroke="#666666" points="606.38,-497.12 435.12,-497.12 435.12,-463.62 606.38,-463.62 606.38,-497.12"/>
<text xml:space="preserve" text-anchor="start" x="443.12" y="-483.62" font-family="Helvetica,sans-Serif" font-size="10.00">GreenFHom3DPer2D::EwaldAnd</text>
<text xml:space="preserve" text-anchor="middle" x="520.75" y="-470.88" font-family="Helvetica,sans-Serif" font-size="10.00">GradientSpatial</text>
</a>
</g>
</g>
<!-- Node14&#45;&gt;Node15 -->
<g id="edge17_Node000014_Node000015" class="edge">
<title>Node14&#45;&gt;Node15</title>
<g id="a_edge17_Node000014_Node000015"><a xlink:title=" ">
<path fill="none" stroke="#63b8ff" d="M371.12,-447.58C390.26,-451.81 410.89,-456.36 430.52,-460.69"/>
<polygon fill="#63b8ff" stroke="#63b8ff" points="429.62,-464.07 440.14,-462.81 431.13,-457.24 429.62,-464.07"/>
</a>
</g>
</g>
<!-- Node15&#45;&gt;Node8 -->
<g id="edge18_Node000015_Node000008" class="edge">
<title>Node15&#45;&gt;Node8</title>
<g id="a_edge18_Node000015_Node000008"><a xlink:title=" ">
<path fill="none" stroke="#63b8ff" d="M594.66,-463.13C624.98,-455.96 659.56,-447.78 687.56,-441.16"/>
<polygon fill="#63b8ff" stroke="#63b8ff" points="688.33,-444.58 697.25,-438.87 686.72,-437.76 688.33,-444.58"/>
</a>
</g>
</g>
<!-- Node17 -->
<g id="Node000017" class="node">
<title>Node17</title>
<g id="a_Node000017"><a xlink:href="classGreenFHom3DPer.html#a414d2e05ac1b3d089e2a5556e6e16a93" target="_top" xlink:title="Homogeneous, non‑magnetic constructor with Bloch vector.">
<polygon fill="white" stroke="#666666" points="619.5,-338.75 422,-338.75 422,-318 619.5,-318 619.5,-338.75"/>
<text xml:space="preserve" text-anchor="middle" x="520.75" y="-325.25" font-family="Helvetica,sans-Serif" font-size="10.00">GreenFHom3DPer::GreenFHom3DPer</text>
</a>
</g>
</g>
<!-- Node16&#45;&gt;Node17 -->
<g id="edge21_Node000016_Node000017" class="edge">
<title>Node16&#45;&gt;Node17</title>
<g id="a_edge21_Node000016_Node000017"><a xlink:title=" ">
<path fill="none" stroke="#63b8ff" d="M386.28,-327.2C394.25,-327.27 402.35,-327.34 410.43,-327.41"/>
<polygon fill="#63b8ff" stroke="#63b8ff" points="410.27,-330.91 420.3,-327.5 410.33,-323.91 410.27,-330.91"/>
</a>
</g>
</g>
<!-- Node20 -->
<g id="Node000020" class="node">
<title>Node20</title>
<g id="a_Node000020"><a xlink:href="classGreenFHom3DPer2D.html#a3160d2ff20a3ec478d2fb6e9b72cf79d" target="_top" xlink:title="Common initialization: set lookup flags, build reciprocal lattice, project k, choose Ewald parameter.">
<polygon fill="white" stroke="#666666" points="590.25,-275.75 451.25,-275.75 451.25,-255 590.25,-255 590.25,-275.75"/>
<text xml:space="preserve" text-anchor="middle" x="520.75" y="-262.25" font-family="Helvetica,sans-Serif" font-size="10.00">GreenFHom3DPer2D::Init</text>
</a>
</g>
</g>
<!-- Node16&#45;&gt;Node20 -->
<g id="edge25_Node000016_Node000020" class="edge">
<title>Node16&#45;&gt;Node20</title>
<g id="a_edge25_Node000016_Node000020"><a xlink:title=" ">
<path fill="none" stroke="#63b8ff" d="M357.16,-309.14C392.44,-299.64 435.63,-288.02 468.63,-279.13"/>
<polygon fill="#63b8ff" stroke="#63b8ff" points="469.2,-282.61 477.94,-276.63 467.38,-275.85 469.2,-282.61"/>
</a>
</g>
</g>
<!-- Node18 -->
<g id="Node000018" class="node">
<title>Node18</title>
<g id="a_Node000018"><a xlink:href="classGreenFHom3D.html#ac928f16e6e79c75c002d9a721a8858d8" target="_top" xlink:title="Default constructor (initializes with zeroed wavenumber and no lookup table).">
<polygon fill="white" stroke="#666666" points="825.62,-348.75 659.62,-348.75 659.62,-328 825.62,-328 825.62,-348.75"/>
<text xml:space="preserve" text-anchor="middle" x="742.62" y="-335.25" font-family="Helvetica,sans-Serif" font-size="10.00">GreenFHom3D::GreenFHom3D</text>
</a>
</g>
</g>
<!-- Node17&#45;&gt;Node18 -->
<g id="edge22_Node000017_Node000018" class="edge">
<title>Node17&#45;&gt;Node18</title>
<g id="a_edge22_Node000017_Node000018"><a xlink:title=" ">
<path fill="none" stroke="#63b8ff" d="M619.79,-332.83C629.15,-333.26 638.63,-333.69 647.95,-334.11"/>
<polygon fill="#63b8ff" stroke="#63b8ff" points="647.56,-337.6 657.71,-334.56 647.88,-330.61 647.56,-337.6"/>
</a>
</g>
</g>
<!-- Node19 -->
<g id="Node000019" class="node">
<title>Node19</title>
<g id="a_Node000019"><a xlink:href="classGreenF.html#a332ac24f39288170f77c18f37fde2c82" target="_top" xlink:title="Constructor for a homogeneous, non&#45;magnetic medium.">
<polygon fill="white" stroke="#666666" points="957.5,-348.75 865.75,-348.75 865.75,-328 957.5,-328 957.5,-348.75"/>
<text xml:space="preserve" text-anchor="middle" x="911.62" y="-335.25" font-family="Helvetica,sans-Serif" font-size="10.00">GreenF::GreenF</text>
</a>
</g>
</g>
<!-- Node18&#45;&gt;Node19 -->
<g id="edge23_Node000018_Node000019" class="edge">
<title>Node18&#45;&gt;Node19</title>
<g id="a_edge23_Node000018_Node000019"><a xlink:title=" ">
<path fill="none" stroke="#63b8ff" d="M825.66,-338.38C835.29,-338.38 844.94,-338.38 854.11,-338.38"/>
<polygon fill="#63b8ff" stroke="#63b8ff" points="853.91,-341.88 863.91,-338.38 853.91,-334.88 853.91,-341.88"/>
</a>
</g>
</g>
<!-- Node19&#45;&gt;Node13 -->
<g id="edge24_Node000019_Node000013" class="edge">
<title>Node19&#45;&gt;Node13</title>
<g id="a_edge24_Node000019_Node000013"><a xlink:title=" ">
<path fill="none" stroke="#63b8ff" d="M940.98,-349.16C954.04,-354.13 969.55,-360.03 982.78,-365.07"/>
<polygon fill="#63b8ff" stroke="#63b8ff" points="981.25,-368.23 991.84,-368.51 983.74,-361.69 981.25,-368.23"/>
</a>
</g>
</g>
<!-- Node21 -->
<g id="Node000021" class="node">
<title>Node21</title>
<g id="a_Node000021"><a xlink:href="classGreenFHom3DPer.html#a8b1a5f0f63af1baf32caeebbf9b33170" target="_top" xlink:title="Set the number of periodic evaluation terms to accumulate.">
<polygon fill="white" stroke="#666666" points="823.38,-310.12 661.88,-310.12 661.88,-276.62 823.38,-276.62 823.38,-310.12"/>
<text xml:space="preserve" text-anchor="start" x="669.88" y="-296.62" font-family="Helvetica,sans-Serif" font-size="10.00">GreenFHom3DPer::Evaluation</text>
<text xml:space="preserve" text-anchor="middle" x="742.62" y="-283.88" font-family="Helvetica,sans-Serif" font-size="10.00">Terms</text>
</a>
</g>
</g>
<!-- Node20&#45;&gt;Node21 -->
<g id="edge26_Node000020_Node000021" class="edge">
<title>Node20&#45;&gt;Node21</title>
<g id="a_edge26_Node000020_Node000021"><a xlink:title=" ">
<path fill="none" stroke="#63b8ff" d="M590.72,-274.16C609.65,-276.57 630.47,-279.22 650.45,-281.76"/>
<polygon fill="#63b8ff" stroke="#63b8ff" points="649.9,-285.22 660.26,-283.01 650.78,-278.28 649.9,-285.22"/>
</a>
</g>
</g>
<!-- Node22 -->
<g id="Node000022" class="node">
<title>Node22</title>
<g id="a_Node000022"><a xlink:href="classGreenFHom3DPer2D.html#a07235ce91a1e9b3410f5fad888d0e44c" target="_top" xlink:title="Build reciprocal lattice vectors.">
<polygon fill="white" stroke="#666666" points="829.75,-258.75 655.5,-258.75 655.5,-238 829.75,-238 829.75,-258.75"/>
<text xml:space="preserve" text-anchor="middle" x="742.62" y="-245.25" font-family="Helvetica,sans-Serif" font-size="10.00">GreenFHom3DPer2D::Reciprocal</text>
</a>
</g>
</g>
<!-- Node20&#45;&gt;Node22 -->
<g id="edge27_Node000020_Node000022" class="edge">
<title>Node20&#45;&gt;Node22</title>
<g id="a_edge27_Node000020_Node000022"><a xlink:title=" ">
<path fill="none" stroke="#63b8ff" d="M590.72,-260.04C607.53,-258.74 625.84,-257.33 643.72,-255.94"/>
<polygon fill="#63b8ff" stroke="#63b8ff" points="643.87,-259.44 653.57,-255.18 643.33,-252.46 643.87,-259.44"/>
</a>
</g>
</g>
<!-- Node23 -->
<g id="Node000023" class="node">
<title>Node23</title>
<g id="a_Node000023"><a xlink:href="classGreenFHom3DPer2D.html#a9352fdb0ead2b5956f3e951122f73e18" target="_top" xlink:title="Project the Bloch vector onto the lattice plane.">
<polygon fill="white" stroke="#666666" points="823,-219.75 662.25,-219.75 662.25,-199 823,-199 823,-219.75"/>
<text xml:space="preserve" text-anchor="middle" x="742.62" y="-206.25" font-family="Helvetica,sans-Serif" font-size="10.00">GreenFHom3DPer2D::ToPlane</text>
</a>
</g>
</g>
<!-- Node20&#45;&gt;Node23 -->
<g id="edge28_Node000020_Node000023" class="edge">
<title>Node20&#45;&gt;Node23</title>
<g id="a_edge28_Node000020_Node000023"><a xlink:title=" ">
<path fill="none" stroke="#63b8ff" d="M584.85,-254.56C596.48,-251.97 608.45,-248.92 619.5,-245.38 636.17,-240.03 638.9,-234.94 655.5,-229.38 662.36,-227.08 669.62,-224.95 676.89,-223"/>
<polygon fill="#63b8ff" stroke="#63b8ff" points="677.6,-226.43 686.42,-220.56 675.87,-219.65 677.6,-226.43"/>
</a>
</g>
</g>
<!-- Node26&#45;&gt;Node25 -->
<g id="edge32_Node000026_Node000025" class="edge">
<title>Node26&#45;&gt;Node25</title>
<g id="a_edge32_Node000026_Node000025"><a xlink:title=" ">
<path fill="none" stroke="#63b8ff" d="M329.28,-239.82C368.01,-237.09 429.62,-232.74 472.24,-229.73"/>
<polygon fill="#63b8ff" stroke="#63b8ff" points="472.48,-233.22 482.21,-229.03 471.99,-226.24 472.48,-233.22"/>
</a>
</g>
</g>
</g>
</svg>

<g id="navigator" transform="translate(0 0)" fill="#404254">
  <rect fill="#f2f5e9" fill-opacity="0.5" stroke="#606060" stroke-width=".5" x="0" y="0" width="60" height="60"/>
  <use id="zoomplus" xlink:href="#zoomPlus" x="17" y="9" onmousedown="handleZoom(evt,'in')"/>
  <use id="zoomminus" xlink:href="#zoomMin" x="42" y="9" onmousedown="handleZoom(evt,'out')"/>
  <use id="reset" xlink:href="#resetDef" x="30" y="36" onmousedown="handleReset()"/>
   <use id="arrowup" xlink:href="#arrowUp" x="0" y="0" onmousedown="handlePan(0,-1)"/>
  <use id="arrowright" xlink:href="#arrowRight" x="0" y="0" onmousedown="handlePan(1,0)"/>
  <use id="arrowdown" xlink:href="#arrowDown" x="0" y="0" onmousedown="handlePan(0,1)"/>
  <use id="arrowleft" xlink:href="#arrowLeft" x="0" y="0" onmousedown="handlePan(-1,0)"/>
</g>
<svg viewBox="0 0 15 15" width="100%" height="30px" preserveAspectRatio="xMaxYMin meet">
 <g id="arrow_out" transform="scale(0.3 0.3)">
  <a xlink:href="classGreenFHom3DPer2D_a84a8c855a27c895ff24f6771037284a5_cgraph_org.svg" target="_base">
   <rect id="button" ry="5" rx="5" y="6" x="6" height="38" width="38"
        fill="#f2f5e9" fill-opacity="0.5" stroke="#606060" stroke-width="1.0"/>
   <path id="arrow"
     d="M 11.500037,31.436501 C 11.940474,20.09759 22.043105,11.32322 32.158766,21.979434 L 37.068811,17.246167 C 37.068811,17.246167 37.088388,32 37.088388,32 L 22.160133,31.978069 C 22.160133,31.978069 26.997745,27.140456 26.997745,27.140456 C 18.528582,18.264221 13.291696,25.230495 11.500037,31.436501 z"
     style="fill:#404040;"/>
  </a>
 </g>
</svg>

<style type='text/css'>
<![CDATA[
[data-mouse-over-selected='false'] { opacity: 0.7; }
[data-mouse-over-selected='true']  { opacity: 1.0; }
]]>
</style>
<script type="application/ecmascript"><![CDATA[
document.addEventListener('DOMContentLoaded', (event) => {
  highlightEdges();
  highlightAdjacentNodes();
});
]]></script>
</svg>
