<?xml version="1.0" encoding="UTF-8" standalone="no"?>
<!DOCTYPE svg PUBLIC "-//W3C//DTD SVG 1.1//EN"
 "http://www.w3.org/Graphics/SVG/1.1/DTD/svg11.dtd">
<!-- Generated by graphviz version 13.1.2 (20250809.0930)
 -->
<!-- Title: Triangle::FindCommonEdgeIndices Pages: 1 -->
<svg width="628pt" height="68pt"
 viewBox="0.00 0.00 628.00 68.00" xmlns="http://www.w3.org/2000/svg" xmlns:xlink="http://www.w3.org/1999/xlink">
<g id="graph0" class="graph" transform="scale(1 1) rotate(0) translate(4 63.75)">
<title>Triangle::FindCommonEdgeIndices</title>
<!-- Node1 -->
<g id="Node000001" class="node">
<title>Node1</title>
<g id="a_Node000001"><a xlink:title="Find common edge local indices with T.">
<polygon fill="#999999" stroke="#666666" points="148.75,-46.12 0,-46.12 0,-12.62 148.75,-12.62 148.75,-46.12"/>
<text xml:space="preserve" text-anchor="start" x="8" y="-32.62" font-family="Helvetica,sans-Serif" font-size="10.00">Triangle::FindCommonEdge</text>
<text xml:space="preserve" text-anchor="middle" x="74.38" y="-19.88" font-family="Helvetica,sans-Serif" font-size="10.00">Indices</text>
</a>
</g>
</g>
<!-- Node2 -->
<g id="Node000002" class="node">
<title>Node2</title>
<g id="a_Node000002"><a xlink:href="classTriangle.html#aeecc82e57a00841cb83fd790316b25a3" target="_top" xlink:title="Node pointer for local index 0..2.">
<polygon fill="white" stroke="#666666" points="284,-59.75 184.75,-59.75 184.75,-39 284,-39 284,-59.75"/>
<text xml:space="preserve" text-anchor="middle" x="234.38" y="-46.25" font-family="Helvetica,sans-Serif" font-size="10.00">Triangle::NodePtr</text>
</a>
</g>
</g>
<!-- Node1&#45;&gt;Node2 -->
<g id="edge1_Node000001_Node000002" class="edge">
<title>Node1&#45;&gt;Node2</title>
<g id="a_edge1_Node000001_Node000002"><a xlink:title=" ">
<path fill="none" stroke="#63b8ff" d="M148.82,-38.67C156.95,-39.7 165.15,-40.74 173.08,-41.74"/>
<polygon fill="#63b8ff" stroke="#63b8ff" points="172.61,-45.21 182.97,-42.99 173.49,-38.27 172.61,-45.21"/>
</a>
</g>
</g>
<!-- Node3 -->
<g id="Node000003" class="node">
<title>Node3</title>
<g id="a_Node000003"><a xlink:href="classTriangle.html#a2eae6a9b0378e4b5ba4616a6b6af86fe" target="_top" xlink:title="Construct from 3 node pointers and bordering domains.">
<polygon fill="white" stroke="#666666" points="283.62,-20.75 185.12,-20.75 185.12,0 283.62,0 283.62,-20.75"/>
<text xml:space="preserve" text-anchor="middle" x="234.38" y="-7.25" font-family="Helvetica,sans-Serif" font-size="10.00">Triangle::Triangle</text>
</a>
</g>
</g>
<!-- Node1&#45;&gt;Node3 -->
<g id="edge2_Node000001_Node000003" class="edge">
<title>Node1&#45;&gt;Node3</title>
<g id="a_edge2_Node000001_Node000003"><a xlink:title=" ">
<path fill="none" stroke="#63b8ff" d="M148.82,-20.54C157.15,-19.54 165.56,-18.53 173.68,-17.55"/>
<polygon fill="#63b8ff" stroke="#63b8ff" points="173.91,-21.05 183.42,-16.38 173.07,-14.1 173.91,-21.05"/>
</a>
</g>
</g>
<!-- Node4 -->
<g id="Node000004" class="node">
<title>Node4</title>
<g id="a_Node000004"><a xlink:href="classTriangle.html#ae13d69e28fb7a81ab8257fe0af84ceaa" target="_top" xlink:title="Compute/cached geometry (normal, area, perimeter, center, I1/I2s/I2d).">
<polygon fill="white" stroke="#666666" points="498,-20.75 320,-20.75 320,0 498,0 498,-20.75"/>
<text xml:space="preserve" text-anchor="middle" x="409" y="-7.25" font-family="Helvetica,sans-Serif" font-size="10.00">Triangle::CalculateGeometryData</text>
</a>
</g>
</g>
<!-- Node3&#45;&gt;Node4 -->
<g id="edge3_Node000003_Node000004" class="edge">
<title>Node3&#45;&gt;Node4</title>
<g id="a_edge3_Node000003_Node000004"><a xlink:title=" ">
<path fill="none" stroke="#63b8ff" d="M283.92,-10.38C291.6,-10.38 299.77,-10.38 308.12,-10.38"/>
<polygon fill="#63b8ff" stroke="#63b8ff" points="308.07,-13.88 318.07,-10.38 308.07,-6.88 308.07,-13.88"/>
</a>
</g>
</g>
<!-- Node5 -->
<g id="Node000005" class="node">
<title>Node5</title>
<g id="a_Node000005"><a xlink:href="classTriangle.html#a0752d2c9488c7c44b851b8f75abcaa79" target="_top" xlink:title="Node position (by value) for local index 0..2.">
<polygon fill="white" stroke="#666666" points="619.75,-20.75 534,-20.75 534,0 619.75,0 619.75,-20.75"/>
<text xml:space="preserve" text-anchor="middle" x="576.88" y="-7.25" font-family="Helvetica,sans-Serif" font-size="10.00">Triangle::Node</text>
</a>
</g>
</g>
<!-- Node4&#45;&gt;Node5 -->
<g id="edge4_Node000004_Node000005" class="edge">
<title>Node4&#45;&gt;Node5</title>
<g id="a_edge4_Node000004_Node000005"><a xlink:title=" ">
<path fill="none" stroke="#63b8ff" d="M498.28,-10.38C506.5,-10.38 514.65,-10.38 522.41,-10.38"/>
<polygon fill="#63b8ff" stroke="#63b8ff" points="522.32,-13.88 532.32,-10.38 522.32,-6.88 522.32,-13.88"/>
</a>
</g>
</g>
</g>
</svg>
