<?xml version="1.0" encoding="UTF-8" standalone="no"?>
<!DOCTYPE svg PUBLIC "-//W3C//DTD SVG 1.1//EN"
 "http://www.w3.org/Graphics/SVG/1.1/DTD/svg11.dtd">
<!-- Generated by graphviz version 13.1.2 (20250809.0930)
 -->
<!-- Title: SurfaceMesh::LoadFromMshFile Pages: 1 -->
<svg width="553pt" height="87pt"
 viewBox="0.00 0.00 553.00 87.00" xmlns="http://www.w3.org/2000/svg" xmlns:xlink="http://www.w3.org/1999/xlink">
<g id="graph0" class="graph" transform="scale(1 1) rotate(0) translate(4 82.75)">
<title>SurfaceMesh::LoadFromMshFile</title>
<!-- Node1 -->
<g id="Node000001" class="node">
<title>Node1</title>
<g id="a_Node000001"><a xlink:title="Read mesh from a Gmsh &quot;.msh&quot; file (v2 text).">
<polygon fill="#999999" stroke="#666666" points="170.5,-39.75 0,-39.75 0,-19 170.5,-19 170.5,-39.75"/>
<text xml:space="preserve" text-anchor="middle" x="85.25" y="-26.25" font-family="Helvetica,sans-Serif" font-size="10.00">SurfaceMesh::LoadFromMshFile</text>
</a>
</g>
</g>
<!-- Node2 -->
<g id="Node000002" class="node">
<title>Node2</title>
<g id="a_Node000002"><a xlink:href="classSurfaceMesh.html#ad8c7eef9fac668b92caf8b4418dcb4ff" target="_top" xlink:title="Insert edge (n1,n2) if not already present (directly or via BC image).">
<polygon fill="white" stroke="#666666" points="365.75,-59.75 206.5,-59.75 206.5,-39 365.75,-39 365.75,-59.75"/>
<text xml:space="preserve" text-anchor="middle" x="286.12" y="-46.25" font-family="Helvetica,sans-Serif" font-size="10.00">SurfaceMesh::AddEdgeTested</text>
</a>
</g>
</g>
<!-- Node1&#45;&gt;Node2 -->
<g id="edge1_Node000001_Node000002" class="edge">
<title>Node1&#45;&gt;Node2</title>
<g id="a_edge1_Node000001_Node000002"><a xlink:title=" ">
<path fill="none" stroke="#63b8ff" d="M170.88,-37.89C178.86,-38.69 186.96,-39.5 194.99,-40.31"/>
<polygon fill="#63b8ff" stroke="#63b8ff" points="194.45,-43.77 204.75,-41.29 195.15,-36.81 194.45,-43.77"/>
</a>
</g>
</g>
<!-- Node5 -->
<g id="Node000005" class="node">
<title>Node5</title>
<g id="a_Node000005"><a xlink:href="group__driver.html#ga3859b179ce92396b3d9187e4437d8826" target="_top" xlink:title="Read a value of type T from a text stream, skipping lines beginning with &#39;#&#39;.">
<polygon fill="white" stroke="#666666" points="336.5,-20.75 235.75,-20.75 235.75,0 336.5,0 336.5,-20.75"/>
<text xml:space="preserve" text-anchor="middle" x="286.12" y="-7.25" font-family="Helvetica,sans-Serif" font-size="10.00">ReadCommented</text>
</a>
</g>
</g>
<!-- Node1&#45;&gt;Node5 -->
<g id="edge4_Node000001_Node000005" class="edge">
<title>Node1&#45;&gt;Node5</title>
<g id="a_edge4_Node000001_Node000005"><a xlink:title=" ">
<path fill="none" stroke="#63b8ff" d="M170.88,-21.29C188.75,-19.58 207.27,-17.81 224.06,-16.21"/>
<polygon fill="#63b8ff" stroke="#63b8ff" points="224.25,-19.71 233.87,-15.27 223.59,-12.74 224.25,-19.71"/>
</a>
</g>
</g>
<!-- Node3 -->
<g id="Node000003" class="node">
<title>Node3</title>
<g id="a_Node000003"><a xlink:href="classSurfaceMesh.html#a7c57c7085e749775a96cb25a5424834e" target="_top" xlink:title="Find the index of an edge mapped between n1,n2 via a stored symmetry op.">
<polygon fill="white" stroke="#666666" points="544.5,-78.75 401.75,-78.75 401.75,-58 544.5,-58 544.5,-78.75"/>
<text xml:space="preserve" text-anchor="middle" x="473.12" y="-65.25" font-family="Helvetica,sans-Serif" font-size="10.00">SurfaceMesh::FindEdgeBC</text>
</a>
</g>
</g>
<!-- Node2&#45;&gt;Node3 -->
<g id="edge2_Node000002_Node000003" class="edge">
<title>Node2&#45;&gt;Node3</title>
<g id="a_edge2_Node000002_Node000003"><a xlink:title=" ">
<path fill="none" stroke="#63b8ff" d="M366.12,-57.49C373.97,-58.29 381.96,-59.11 389.84,-59.92"/>
<polygon fill="#63b8ff" stroke="#63b8ff" points="389.48,-63.41 399.79,-60.95 390.2,-56.44 389.48,-63.41"/>
</a>
</g>
</g>
<!-- Node4 -->
<g id="Node000004" class="node">
<title>Node4</title>
<g id="a_Node000004"><a xlink:href="classSurfaceMesh.html#a45445ddd5776f8236dc72058cc1c7b18" target="_top" xlink:title="Find the index of an existing edge between two nodes (direct match).">
<polygon fill="white" stroke="#666666" points="544.12,-39.75 402.12,-39.75 402.12,-19 544.12,-19 544.12,-39.75"/>
<text xml:space="preserve" text-anchor="middle" x="473.12" y="-26.25" font-family="Helvetica,sans-Serif" font-size="10.00">SurfaceMesh::FindEdgeFB</text>
</a>
</g>
</g>
<!-- Node2&#45;&gt;Node4 -->
<g id="edge3_Node000002_Node000004" class="edge">
<title>Node2&#45;&gt;Node4</title>
<g id="a_edge3_Node000002_Node000004"><a xlink:title=" ">
<path fill="none" stroke="#63b8ff" d="M366.12,-40.84C374.2,-39.96 382.41,-39.07 390.52,-38.2"/>
<polygon fill="#63b8ff" stroke="#63b8ff" points="390.8,-41.69 400.37,-37.13 390.05,-34.73 390.8,-41.69"/>
</a>
</g>
</g>
</g>
</svg>
