<?xml version="1.0" encoding="UTF-8" standalone="no"?>
<!DOCTYPE svg PUBLIC "-//W3C//DTD SVG 1.1//EN"
 "http://www.w3.org/Graphics/SVG/1.1/DTD/svg11.dtd">
<!-- Generated by graphviz version 13.1.2 (20250809.0930)
 -->
<!-- Title: GreenFLayered3D::SameTriDeltaKappa Pages: 1 -->
<!--zoomable 595 -->

<svg id="main" version="1.1" xmlns="http://www.w3.org/2000/svg" xmlns:xlink="http://www.w3.org/1999/xlink" xml:space="preserve" onload="init(evt)">

<style type="text/css"><![CDATA[
.node, .edge {opacity: 0.7;}
.node.selected, .edge.selected {opacity: 1;}
.edge:hover path { stroke: red; }
.edge:hover polygon { stroke: red; fill: red; }
]]></style>

<defs>
  <circle id="rim" cx="0" cy="0" r="7"/>
  <circle id="rim2" cx="0" cy="0" r="3.5"/>
  <g id="zoomPlus">
    <use xlink:href="#rim" fill="#404040"><set attributeName="fill" to="#808080" begin="zoomplus.mouseover" end="zoomplus.mouseout"/></use>
    <path d="M-4,0h8M0,-4v8" fill="none" stroke="white" stroke-width="1.5" pointer-events="none"/>
  </g>
  <g id="zoomMin">
    <use xlink:href="#rim" fill="#404040"><set attributeName="fill" to="#808080" begin="zoomminus.mouseover" end="zoomminus.mouseout"/></use>
    <path d="M-4,0h8" fill="none" stroke="white" stroke-width="1.5" pointer-events="none"/>
  </g>
  <g id="arrowUp" transform="translate(30 24)">
    <use xlink:href="#rim"/>
    <path pointer-events="none" fill="none" stroke="white" stroke-width="1.5" d="M0,-3.0v7 M-2.5,-0.5L0,-3.0L2.5,-0.5"/>
  </g>
  <g id="arrowRight" transform="rotate(90) translate(36 -43)">
    <use xlink:href="#rim"/>
    <path pointer-events="none" fill="none" stroke="white" stroke-width="1.5" d="M0,-3.0v7 M-2.5,-0.5L0,-3.0L2.5,-0.5"/>
  </g>
  <g id="arrowDown" transform="rotate(180) translate(-30 -48)">
    <use xlink:href="#rim"/>
    <path pointer-events="none" fill="none" stroke="white" stroke-width="1.5" d="M0,-3.0v7 M-2.5,-0.5L0,-3.0L2.5,-0.5"/>
  </g>
  <g id="arrowLeft" transform="rotate(270) translate(-36 17)">
    <use xlink:href="#rim"/>
    <path pointer-events="none" fill="none" stroke="white" stroke-width="1.5" d="M0,-3.0v7 M-2.5,-0.5L0,-3.0L2.5,-0.5"/>
  </g>
  <g id="resetDef">
    <use xlink:href="#rim2" fill="#404040"><set attributeName="fill" to="#808080" begin="reset.mouseover" end="reset.mouseout"/></use>
  </g>
</defs>
<script type="application/ecmascript">
var viewWidth = 686;
var viewHeight = 595;
var sectionId = 'dynsection-33';
</script>
<script type="application/ecmascript" xlink:href="svg.min.js"/>
<svg id="graph" class="graph">
<g id="viewport">
<title>GreenFLayered3D::SameTriDeltaKappa</title>
<!-- Node1 -->
<g id="Node000001" class="node">
<title>Node1</title>
<g id="a_Node000001"><a xlink:title="Point–triangle delta/kappa contributions for RHS assembly.">
<polygon fill="#999999" stroke="#666666" points="148.75,-331.12 0,-331.12 0,-297.62 148.75,-297.62 148.75,-331.12"/>
<text xml:space="preserve" text-anchor="start" x="8" y="-317.62" font-family="Helvetica,sans-Serif" font-size="10.00">GreenFLayered3D::SameTri</text>
<text xml:space="preserve" text-anchor="middle" x="74.38" y="-304.88" font-family="Helvetica,sans-Serif" font-size="10.00">DeltaKappa</text>
</a>
</g>
</g>
<!-- Node2 -->
<g id="Node000002" class="node">
<title>Node2</title>
<g id="a_Node000002"><a xlink:href="classGreenFLayered3D.html#a44686db66fc60d5a0f7613f692a73a28" target="_top" xlink:title="Checks whether the given positions exceed a predefined distance threshold.">
<polygon fill="white" stroke="#666666" points="373.25,-586.75 184.75,-586.75 184.75,-566 373.25,-566 373.25,-586.75"/>
<text xml:space="preserve" text-anchor="middle" x="279" y="-573.25" font-family="Helvetica,sans-Serif" font-size="10.00">GreenFLayered3D::AboveThreshold</text>
</a>
</g>
</g>
<!-- Node1&#45;&gt;Node2 -->
<g id="edge1_Node000001_Node000002" class="edge">
<title>Node1&#45;&gt;Node2</title>
<g id="a_edge1_Node000001_Node000002"><a xlink:title=" ">
<path fill="none" stroke="#63b8ff" d="M78.09,-331.51C85.98,-375.37 113.03,-492.46 184.75,-552.38 188.61,-555.6 192.84,-558.39 197.32,-560.82"/>
<polygon fill="#63b8ff" stroke="#63b8ff" points="195.53,-563.85 206.07,-564.92 198.5,-557.51 195.53,-563.85"/>
</a>
</g>
</g>
<!-- Node3 -->
<g id="Node000003" class="node">
<title>Node3</title>
<g id="a_Node000003"><a xlink:href="classTriangle.html#a1d3d08deeb999f339d2e821a877521ba" target="_top" xlink:title="Surface area of the triangle.">
<polygon fill="white" stroke="#666666" points="527.62,-549.75 444.88,-549.75 444.88,-529 527.62,-529 527.62,-549.75"/>
<text xml:space="preserve" text-anchor="middle" x="486.25" y="-536.25" font-family="Helvetica,sans-Serif" font-size="10.00">Triangle::Area</text>
</a>
</g>
</g>
<!-- Node1&#45;&gt;Node3 -->
<g id="edge2_Node000001_Node000003" class="edge">
<title>Node1&#45;&gt;Node3</title>
<g id="a_edge2_Node000001_Node000003"><a xlink:title=" ">
<path fill="none" stroke="#63b8ff" d="M78.65,-331.38C87.49,-372.07 115.97,-474.94 184.75,-519.38 224.54,-545.08 358.55,-544.42 433.47,-541.83"/>
<polygon fill="#63b8ff" stroke="#63b8ff" points="433.14,-545.35 443,-541.48 432.88,-538.35 433.14,-545.35"/>
</a>
</g>
</g>
<!-- Node4 -->
<g id="Node000004" class="node">
<title>Node4</title>
<g id="a_Node000004"><a xlink:href="classTriangle.html#ab78508a340ec5d345adf114b43563dbf" target="_top" xlink:title="Centroid of the triangle.">
<polygon fill="white" stroke="#666666" points="325.25,-434.75 232.75,-434.75 232.75,-414 325.25,-414 325.25,-434.75"/>
<text xml:space="preserve" text-anchor="middle" x="279" y="-421.25" font-family="Helvetica,sans-Serif" font-size="10.00">Triangle::Center</text>
</a>
</g>
</g>
<!-- Node1&#45;&gt;Node4 -->
<g id="edge3_Node000001_Node000004" class="edge">
<title>Node1&#45;&gt;Node4</title>
<g id="a_edge3_Node000001_Node000004"><a xlink:title=" ">
<path fill="none" stroke="#63b8ff" d="M91.02,-331.5C110.8,-352.08 146.88,-386.09 184.75,-404.38 196.05,-409.83 208.83,-413.81 221.23,-416.71"/>
<polygon fill="#63b8ff" stroke="#63b8ff" points="220.47,-420.13 230.98,-418.77 221.91,-413.28 220.47,-420.13"/>
</a>
</g>
</g>
<!-- Node5 -->
<g id="Node000005" class="node">
<title>Node5</title>
<g id="a_Node000005"><a xlink:href="classTriangle.html#aad716a04591b5c9af864d6c2a89d3a65" target="_top" xlink:title="Test whether a point lies on (or very near) the triangle.">
<polygon fill="white" stroke="#666666" points="342.12,-510.75 215.88,-510.75 215.88,-490 342.12,-490 342.12,-510.75"/>
<text xml:space="preserve" text-anchor="middle" x="279" y="-497.25" font-family="Helvetica,sans-Serif" font-size="10.00">Triangle::containsPoint</text>
</a>
</g>
</g>
<!-- Node1&#45;&gt;Node5 -->
<g id="edge4_Node000001_Node000005" class="edge">
<title>Node1&#45;&gt;Node5</title>
<g id="a_edge4_Node000001_Node000005"><a xlink:title=" ">
<path fill="none" stroke="#63b8ff" d="M82.05,-331.6C95.88,-364.96 130.96,-438.42 184.75,-476.38 190.9,-480.71 197.77,-484.27 204.92,-487.18"/>
<polygon fill="#63b8ff" stroke="#63b8ff" points="203.52,-490.4 214.11,-490.49 205.89,-483.81 203.52,-490.4"/>
</a>
</g>
</g>
<!-- Node7 -->
<g id="Node000007" class="node">
<title>Node7</title>
<g id="a_Node000007"><a xlink:href="classTriangle.html#a0752d2c9488c7c44b851b8f75abcaa79" target="_top" xlink:title="Node position (by value) for local index 0..2.">
<polygon fill="white" stroke="#666666" points="529.12,-471.75 443.38,-471.75 443.38,-451 529.12,-451 529.12,-471.75"/>
<text xml:space="preserve" text-anchor="middle" x="486.25" y="-458.25" font-family="Helvetica,sans-Serif" font-size="10.00">Triangle::Node</text>
</a>
</g>
</g>
<!-- Node1&#45;&gt;Node7 -->
<g id="edge25_Node000001_Node000007" class="edge">
<title>Node1&#45;&gt;Node7</title>
<g id="a_edge25_Node000001_Node000007"><a xlink:title=" ">
<path fill="none" stroke="#63b8ff" d="M83.98,-331.62C99.53,-360.69 135.38,-418.69 184.75,-443.38 263.63,-482.82 369.09,-478.08 431.81,-470.27"/>
<polygon fill="#63b8ff" stroke="#63b8ff" points="432.06,-473.77 441.51,-468.99 431.14,-466.83 432.06,-473.77"/>
</a>
</g>
</g>
<!-- Node8 -->
<g id="Node000008" class="node">
<title>Node8</title>
<g id="a_Node000008"><a xlink:href="group__greenFunction.html#gac0a52dce23be7dacdf97c68653b6c137" target="_top" xlink:title="Complex square root with a branch cut along the negative real axis.">
<polygon fill="white" stroke="#666666" points="299,-395.75 259,-395.75 259,-375 299,-375 299,-395.75"/>
<text xml:space="preserve" text-anchor="middle" x="279" y="-382.25" font-family="Helvetica,sans-Serif" font-size="10.00">csqrt</text>
</a>
</g>
</g>
<!-- Node1&#45;&gt;Node8 -->
<g id="edge8_Node000001_Node000008" class="edge">
<title>Node1&#45;&gt;Node8</title>
<g id="a_edge8_Node000001_Node000008"><a xlink:title=" ">
<path fill="none" stroke="#63b8ff" d="M106.13,-331.47C127.6,-342.79 157.23,-357.18 184.75,-366.38 205.19,-373.2 229.01,-378.01 247.46,-381.07"/>
<polygon fill="#63b8ff" stroke="#63b8ff" points="246.8,-384.51 257.22,-382.61 247.88,-377.6 246.8,-384.51"/>
</a>
</g>
</g>
<!-- Node10 -->
<g id="Node000010" class="node">
<title>Node10</title>
<g id="a_Node000010"><a xlink:href="classGreenFLayered3D.html#a65ac22e62ec3e3131ffbb10d7bdea307" target="_top" xlink:title="Evaluate quasi&#45;static (QS) contributions for inter&#45;layer interactions.">
<polygon fill="white" stroke="#666666" points="359,-305.12 199,-305.12 199,-271.62 359,-271.62 359,-305.12"/>
<text xml:space="preserve" text-anchor="start" x="207" y="-291.62" font-family="Helvetica,sans-Serif" font-size="10.00">GreenFLayered3D::evalGreen</text>
<text xml:space="preserve" text-anchor="middle" x="279" y="-278.88" font-family="Helvetica,sans-Serif" font-size="10.00">QSInter</text>
</a>
</g>
</g>
<!-- Node1&#45;&gt;Node10 -->
<g id="edge11_Node000001_Node000010" class="edge">
<title>Node1&#45;&gt;Node10</title>
<g id="a_edge11_Node000001_Node000010"><a xlink:title=" ">
<path fill="none" stroke="#63b8ff" d="M149.1,-304.91C161.53,-303.32 174.56,-301.65 187.35,-300.01"/>
<polygon fill="#63b8ff" stroke="#63b8ff" points="187.54,-303.51 197.02,-298.77 186.65,-296.57 187.54,-303.51"/>
</a>
</g>
</g>
<!-- Node12 -->
<g id="Node000012" class="node">
<title>Node12</title>
<g id="a_Node000012"><a xlink:href="classGreenFLayered3D.html#a1fb4fa93c84d77750cac364641945725" target="_top" xlink:title="Return layer index of a 3D point.">
<polygon fill="white" stroke="#666666" points="563.25,-253.12 409.25,-253.12 409.25,-219.62 563.25,-219.62 563.25,-253.12"/>
<text xml:space="preserve" text-anchor="start" x="417.25" y="-239.62" font-family="Helvetica,sans-Serif" font-size="10.00">GreenFLayered3D::GetLayer</text>
<text xml:space="preserve" text-anchor="middle" x="486.25" y="-226.88" font-family="Helvetica,sans-Serif" font-size="10.00">Index</text>
</a>
</g>
</g>
<!-- Node1&#45;&gt;Node12 -->
<g id="edge22_Node000001_Node000012" class="edge">
<title>Node1&#45;&gt;Node12</title>
<g id="a_edge22_Node000001_Node000012"><a xlink:title=" ">
<path fill="none" stroke="#63b8ff" d="M86.7,-297.36C104.27,-272.67 140.71,-227.97 184.75,-210.38 263.88,-178.76 363.83,-197.84 426.16,-215.95"/>
<polygon fill="#63b8ff" stroke="#63b8ff" points="424.93,-219.23 435.52,-218.75 426.94,-212.53 424.93,-219.23"/>
</a>
</g>
</g>
<!-- Node13 -->
<g id="Node000013" class="node">
<title>Node13</title>
<g id="a_Node000013"><a xlink:href="classGreenFLayered3D.html#a7fbd8a47a0074f53111d52920a910392" target="_top" xlink:title="Evaluate quasi&#45;static (QS) contributions for intra&#45;layer interactions.">
<polygon fill="white" stroke="#666666" points="359,-253.12 199,-253.12 199,-219.62 359,-219.62 359,-253.12"/>
<text xml:space="preserve" text-anchor="start" x="207" y="-239.62" font-family="Helvetica,sans-Serif" font-size="10.00">GreenFLayered3D::evalGreen</text>
<text xml:space="preserve" text-anchor="middle" x="279" y="-226.88" font-family="Helvetica,sans-Serif" font-size="10.00">QSIntra</text>
</a>
</g>
</g>
<!-- Node1&#45;&gt;Node13 -->
<g id="edge14_Node000001_Node000013" class="edge">
<title>Node1&#45;&gt;Node13</title>
<g id="a_edge14_Node000001_Node000013"><a xlink:title=" ">
<path fill="none" stroke="#63b8ff" d="M107.76,-297.17C129.2,-286.23 158.16,-272.32 184.75,-262.38 189.7,-260.52 194.85,-258.73 200.06,-257.02"/>
<polygon fill="#63b8ff" stroke="#63b8ff" points="200.91,-260.42 209.38,-254.06 198.79,-253.75 200.91,-260.42"/>
</a>
</g>
</g>
<!-- Node14 -->
<g id="Node000014" class="node">
<title>Node14</title>
<g id="a_Node000014"><a xlink:href="classGreenFLayered3D.html#abb50e8621c63f2b29862c32a8447dd9c" target="_top" xlink:title="Evaluate Green&#39;s&#45;function components for inter&#45;layer interactions by interpolating the smooth (Sommer...">
<polygon fill="white" stroke="#666666" points="359,-163.12 199,-163.12 199,-129.62 359,-129.62 359,-163.12"/>
<text xml:space="preserve" text-anchor="start" x="207" y="-149.62" font-family="Helvetica,sans-Serif" font-size="10.00">GreenFLayered3D::evalGreen</text>
<text xml:space="preserve" text-anchor="middle" x="279" y="-136.88" font-family="Helvetica,sans-Serif" font-size="10.00">SmoothInter</text>
</a>
</g>
</g>
<!-- Node1&#45;&gt;Node14 -->
<g id="edge17_Node000001_Node000014" class="edge">
<title>Node1&#45;&gt;Node14</title>
<g id="a_edge17_Node000001_Node000014"><a xlink:title=" ">
<path fill="none" stroke="#63b8ff" d="M84.49,-297.44C100.83,-268.65 137.82,-210.11 184.75,-177.38 189.65,-173.96 194.95,-170.9 200.45,-168.16"/>
<polygon fill="#63b8ff" stroke="#63b8ff" points="201.51,-171.52 209.16,-164.19 198.6,-165.15 201.51,-171.52"/>
</a>
</g>
</g>
<!-- Node17 -->
<g id="Node000017" class="node">
<title>Node17</title>
<g id="a_Node000017"><a xlink:href="classGreenFLayered3D.html#a834a94e21f64163f651a4729eccc6699" target="_top" xlink:title="Evaluate Green&#39;s function components for intra&#45;layer interactions by interpolating the smooth (Sommer...">
<polygon fill="white" stroke="#666666" points="359,-111.12 199,-111.12 199,-77.62 359,-77.62 359,-111.12"/>
<text xml:space="preserve" text-anchor="start" x="207" y="-97.62" font-family="Helvetica,sans-Serif" font-size="10.00">GreenFLayered3D::evalGreen</text>
<text xml:space="preserve" text-anchor="middle" x="279" y="-84.88" font-family="Helvetica,sans-Serif" font-size="10.00">SmoothIntra</text>
</a>
</g>
</g>
<!-- Node1&#45;&gt;Node17 -->
<g id="edge20_Node000001_Node000017" class="edge">
<title>Node1&#45;&gt;Node17</title>
<g id="a_edge20_Node000001_Node000017"><a xlink:title=" ">
<path fill="none" stroke="#63b8ff" d="M80.13,-297.15C91.53,-259.19 124.03,-167.95 184.75,-120.38 186.25,-119.2 187.8,-118.08 189.39,-117"/>
<polygon fill="#63b8ff" stroke="#63b8ff" points="190.78,-120.25 197.63,-112.17 187.24,-114.21 190.78,-120.25"/>
</a>
</g>
</g>
<!-- Node18 -->
<g id="Node000018" class="node">
<title>Node18</title>
<g id="a_Node000018"><a xlink:href="classTriQuadPol.html#a937d9b0718e7914525a47db7954a1ef4" target="_top" xlink:title="Quadrature nodes (barycentric triples).">
<polygon fill="white" stroke="#666666" points="351.5,-59.75 206.5,-59.75 206.5,-39 351.5,-39 351.5,-59.75"/>
<text xml:space="preserve" text-anchor="middle" x="279" y="-46.25" font-family="Helvetica,sans-Serif" font-size="10.00">TriQuadPol::getQuadPoints</text>
</a>
</g>
</g>
<!-- Node1&#45;&gt;Node18 -->
<g id="edge23_Node000001_Node000018" class="edge">
<title>Node1&#45;&gt;Node18</title>
<g id="a_edge23_Node000001_Node000018"><a xlink:title=" ">
<path fill="none" stroke="#63b8ff" d="M77.57,-297.45C84.36,-252.41 109.32,-128.96 184.75,-68.38 188.1,-65.68 191.74,-63.34 195.56,-61.31"/>
<polygon fill="#63b8ff" stroke="#63b8ff" points="196.99,-64.5 204.69,-57.23 194.13,-58.11 196.99,-64.5"/>
</a>
</g>
</g>
<!-- Node19 -->
<g id="Node000019" class="node">
<title>Node19</title>
<g id="a_Node000019"><a xlink:href="classTriQuadPol.html#a23097391f76d79ed0e0a3584400d4497" target="_top" xlink:title="Quadrature weights (include all Jacobian factors and r).">
<polygon fill="white" stroke="#666666" points="356,-20.75 202,-20.75 202,0 356,0 356,-20.75"/>
<text xml:space="preserve" text-anchor="middle" x="279" y="-7.25" font-family="Helvetica,sans-Serif" font-size="10.00">TriQuadPol::getQuadWeights</text>
</a>
</g>
</g>
<!-- Node1&#45;&gt;Node19 -->
<g id="edge24_Node000001_Node000019" class="edge">
<title>Node1&#45;&gt;Node19</title>
<g id="a_edge24_Node000001_Node000019"><a xlink:title=" ">
<path fill="none" stroke="#63b8ff" d="M76.53,-297.14C80.84,-247.39 100.41,-102.47 184.75,-30.38 186.95,-28.49 189.29,-26.77 191.73,-25.21"/>
<polygon fill="#63b8ff" stroke="#63b8ff" points="193.15,-28.42 200.29,-20.59 189.83,-22.26 193.15,-28.42"/>
</a>
</g>
</g>
<!-- Node20 -->
<g id="Node000020" class="node">
<title>Node20</title>
<g id="a_Node000020"><a xlink:href="classGreenFLayered3D.html#a74a468a93bf93bd4acd39989502a10fd" target="_top" xlink:title="Write complex data with associated 2D coordinates to a text file.">
<polygon fill="white" stroke="#666666" points="361.62,-357.12 196.38,-357.12 196.38,-323.62 361.62,-323.62 361.62,-357.12"/>
<text xml:space="preserve" text-anchor="start" x="204.38" y="-343.62" font-family="Helvetica,sans-Serif" font-size="10.00">GreenFLayered3D::writeVector</text>
<text xml:space="preserve" text-anchor="middle" x="279" y="-330.88" font-family="Helvetica,sans-Serif" font-size="10.00">ToFile</text>
</a>
</g>
</g>
<!-- Node1&#45;&gt;Node20 -->
<g id="edge26_Node000001_Node000020" class="edge">
<title>Node1&#45;&gt;Node20</title>
<g id="a_edge26_Node000001_Node000020"><a xlink:title=" ">
<path fill="none" stroke="#63b8ff" d="M149.1,-323.84C160.68,-325.32 172.77,-326.87 184.72,-328.41"/>
<polygon fill="#63b8ff" stroke="#63b8ff" points="184.24,-331.87 194.6,-329.67 185.13,-324.93 184.24,-331.87"/>
</a>
</g>
</g>
<!-- Node5&#45;&gt;Node3 -->
<g id="edge5_Node000005_Node000003" class="edge">
<title>Node5&#45;&gt;Node3</title>
<g id="a_edge5_Node000005_Node000003"><a xlink:title=" ">
<path fill="none" stroke="#63b8ff" d="M337.17,-511.24C367.33,-516.97 404.05,-523.95 433.38,-529.52"/>
<polygon fill="#63b8ff" stroke="#63b8ff" points="432.67,-532.95 443.15,-531.38 433.98,-526.07 432.67,-532.95"/>
</a>
</g>
</g>
<!-- Node6 -->
<g id="Node000006" class="node">
<title>Node6</title>
<g id="a_Node000006"><a xlink:href="classTriangle.html#a837631cb39cc7af167b9f54436aadcae" target="_top" xlink:title="Small helper to zero tiny values (for robust barycentric math).">
<polygon fill="white" stroke="#666666" points="529.5,-510.75 443,-510.75 443,-490 529.5,-490 529.5,-510.75"/>
<text xml:space="preserve" text-anchor="middle" x="486.25" y="-497.25" font-family="Helvetica,sans-Serif" font-size="10.00">Triangle::clean</text>
</a>
</g>
</g>
<!-- Node5&#45;&gt;Node6 -->
<g id="edge6_Node000005_Node000006" class="edge">
<title>Node5&#45;&gt;Node6</title>
<g id="a_edge6_Node000005_Node000006"><a xlink:title=" ">
<path fill="none" stroke="#63b8ff" d="M342.42,-500.38C370.8,-500.38 404.05,-500.38 431.33,-500.38"/>
<polygon fill="#63b8ff" stroke="#63b8ff" points="431.1,-503.88 441.1,-500.38 431.1,-496.88 431.1,-503.88"/>
</a>
</g>
</g>
<!-- Node5&#45;&gt;Node7 -->
<g id="edge7_Node000005_Node000007" class="edge">
<title>Node5&#45;&gt;Node7</title>
<g id="a_edge7_Node000005_Node000007"><a xlink:title=" ">
<path fill="none" stroke="#63b8ff" d="M337.17,-489.51C366.81,-483.88 402.78,-477.05 431.85,-471.52"/>
<polygon fill="#63b8ff" stroke="#63b8ff" points="432.37,-474.99 441.54,-469.68 431.06,-468.11 432.37,-474.99"/>
</a>
</g>
</g>
<!-- Node9 -->
<g id="Node000009" class="node">
<title>Node9</title>
<g id="a_Node000009"><a xlink:href="Domain_8cpp.html#aafa3e4fa6318b2f8740f4dbd50c367e5" target="_top" xlink:title="Extract the real part of each component of a complex 3&#45;vector.">
<polygon fill="white" stroke="#666666" points="503.62,-372.75 468.88,-372.75 468.88,-352 503.62,-352 503.62,-372.75"/>
<text xml:space="preserve" text-anchor="middle" x="486.25" y="-359.25" font-family="Helvetica,sans-Serif" font-size="10.00">real</text>
</a>
</g>
</g>
<!-- Node8&#45;&gt;Node9 -->
<g id="edge9_Node000008_Node000009" class="edge">
<title>Node8&#45;&gt;Node9</title>
<g id="a_edge9_Node000008_Node000009"><a xlink:title=" ">
<path fill="none" stroke="#63b8ff" d="M299.31,-383.21C335.73,-379.13 414.71,-370.28 457.07,-365.53"/>
<polygon fill="#63b8ff" stroke="#63b8ff" points="457.41,-369.02 466.96,-364.42 456.63,-362.06 457.41,-369.02"/>
</a>
</g>
</g>
<!-- Node9&#45;&gt;Node9 -->
<g id="edge10_Node000009_Node000009" class="edge">
<title>Node9&#45;&gt;Node9</title>
<g id="a_edge10_Node000009_Node000009"><a xlink:title=" ">
<path fill="none" stroke="#63b8ff" d="M468.59,-368.65C449.61,-378.38 455.5,-390.75 486.25,-390.75 510.27,-390.75 519.12,-383.2 512.79,-375.26"/>
<polygon fill="#63b8ff" stroke="#63b8ff" points="515.24,-372.71 505.12,-369.55 511.06,-378.33 515.24,-372.71"/>
</a>
</g>
</g>
<!-- Node11 -->
<g id="Node000011" class="node">
<title>Node11</title>
<g id="a_Node000011"><a xlink:href="classGreenFLayered3D.html#a41c1370112d040a3dc4c44a5853022ed" target="_top" xlink:title="Fresnel reflection/transmission at interface (delegates to utils).">
<polygon fill="white" stroke="#666666" points="558.75,-305.12 413.75,-305.12 413.75,-271.62 558.75,-271.62 558.75,-305.12"/>
<text xml:space="preserve" text-anchor="start" x="421.75" y="-291.62" font-family="Helvetica,sans-Serif" font-size="10.00">GreenFLayered3D::Fresnel</text>
<text xml:space="preserve" text-anchor="middle" x="486.25" y="-278.88" font-family="Helvetica,sans-Serif" font-size="10.00">Coeff</text>
</a>
</g>
</g>
<!-- Node10&#45;&gt;Node11 -->
<g id="edge12_Node000010_Node000011" class="edge">
<title>Node10&#45;&gt;Node11</title>
<g id="a_edge12_Node000010_Node000011"><a xlink:title=" ">
<path fill="none" stroke="#63b8ff" d="M359.36,-288.38C373.42,-288.38 388.1,-288.38 402.26,-288.38"/>
<polygon fill="#63b8ff" stroke="#63b8ff" points="401.97,-291.88 411.97,-288.38 401.97,-284.88 401.97,-291.88"/>
</a>
</g>
</g>
<!-- Node10&#45;&gt;Node12 -->
<g id="edge13_Node000010_Node000012" class="edge">
<title>Node10&#45;&gt;Node12</title>
<g id="a_edge13_Node000010_Node000012"><a xlink:title=" ">
<path fill="none" stroke="#63b8ff" d="M348.06,-271.13C366.69,-266.41 387.04,-261.26 406.23,-256.39"/>
<polygon fill="#63b8ff" stroke="#63b8ff" points="407.07,-259.79 415.91,-253.94 405.35,-253.01 407.07,-259.79"/>
</a>
</g>
</g>
<!-- Node13&#45;&gt;Node11 -->
<g id="edge15_Node000013_Node000011" class="edge">
<title>Node13&#45;&gt;Node11</title>
<g id="a_edge15_Node000013_Node000011"><a xlink:title=" ">
<path fill="none" stroke="#63b8ff" d="M348.06,-253.62C366.69,-258.34 387.04,-263.49 406.23,-268.36"/>
<polygon fill="#63b8ff" stroke="#63b8ff" points="405.35,-271.74 415.91,-270.81 407.07,-264.96 405.35,-271.74"/>
</a>
</g>
</g>
<!-- Node13&#45;&gt;Node12 -->
<g id="edge16_Node000013_Node000012" class="edge">
<title>Node13&#45;&gt;Node12</title>
<g id="a_edge16_Node000013_Node000012"><a xlink:title=" ">
<path fill="none" stroke="#63b8ff" d="M359.36,-236.38C371.79,-236.38 384.71,-236.38 397.33,-236.38"/>
<polygon fill="#63b8ff" stroke="#63b8ff" points="397.29,-239.88 407.29,-236.38 397.29,-232.88 397.29,-239.88"/>
</a>
</g>
</g>
<!-- Node15 -->
<g id="Node000015" class="node">
<title>Node15</title>
<g id="a_Node000015"><a xlink:href="classGreenFLayered3D.html#a6c09f9ac63d604111b76842e774c65c8" target="_top" xlink:title="Evaluate 2D interpolant at one query point.">
<polygon fill="white" stroke="#666666" points="562.5,-137.12 410,-137.12 410,-103.62 562.5,-103.62 562.5,-137.12"/>
<text xml:space="preserve" text-anchor="start" x="418" y="-123.62" font-family="Helvetica,sans-Serif" font-size="10.00">GreenFLayered3D::evaluate</text>
<text xml:space="preserve" text-anchor="middle" x="486.25" y="-110.88" font-family="Helvetica,sans-Serif" font-size="10.00">SinglePoint</text>
</a>
</g>
</g>
<!-- Node14&#45;&gt;Node15 -->
<g id="edge18_Node000014_Node000015" class="edge">
<title>Node14&#45;&gt;Node15</title>
<g id="a_edge18_Node000014_Node000015"><a xlink:title=" ">
<path fill="none" stroke="#63b8ff" d="M359.36,-136.32C372.18,-134.7 385.52,-133.01 398.51,-131.36"/>
<polygon fill="#63b8ff" stroke="#63b8ff" points="398.83,-134.85 408.31,-130.12 397.95,-127.91 398.83,-134.85"/>
</a>
</g>
</g>
<!-- Node16 -->
<g id="Node000016" class="node">
<title>Node16</title>
<g id="a_Node000016"><a xlink:href="GreenFLayered3D_8cpp.html#a8aa29777c4e70a4d7c032b4c6fb0387d" target="_top" xlink:title="External REGRIDPACK routine for evaluating a 2D interpolation function.">
<polygon fill="white" stroke="#666666" points="677.5,-130.75 599.25,-130.75 599.25,-110 677.5,-110 677.5,-130.75"/>
<text xml:space="preserve" text-anchor="middle" x="638.38" y="-117.25" font-family="Helvetica,sans-Serif" font-size="10.00">rgrd2_eval_c</text>
</a>
</g>
</g>
<!-- Node15&#45;&gt;Node16 -->
<g id="edge19_Node000015_Node000016" class="edge">
<title>Node15&#45;&gt;Node16</title>
<g id="a_edge19_Node000015_Node000016"><a xlink:title=" ">
<path fill="none" stroke="#63b8ff" d="M562.75,-120.38C571.19,-120.38 579.62,-120.38 587.62,-120.38"/>
<polygon fill="#63b8ff" stroke="#63b8ff" points="587.46,-123.88 597.46,-120.38 587.46,-116.88 587.46,-123.88"/>
</a>
</g>
</g>
<!-- Node17&#45;&gt;Node15 -->
<g id="edge21_Node000017_Node000015" class="edge">
<title>Node17&#45;&gt;Node15</title>
<g id="a_edge21_Node000017_Node000015"><a xlink:title=" ">
<path fill="none" stroke="#63b8ff" d="M359.36,-104.43C372.18,-106.05 385.52,-107.74 398.51,-109.39"/>
<polygon fill="#63b8ff" stroke="#63b8ff" points="397.95,-112.84 408.31,-110.63 398.83,-105.9 397.95,-112.84"/>
</a>
</g>
</g>
<!-- Node20&#45;&gt;Node9 -->
<g id="edge27_Node000020_Node000009" class="edge">
<title>Node20&#45;&gt;Node9</title>
<g id="a_edge27_Node000020_Node000009"><a xlink:title=" ">
<path fill="none" stroke="#63b8ff" d="M362.01,-349.16C395.82,-352.79 432.75,-356.75 457.28,-359.38"/>
<polygon fill="#63b8ff" stroke="#63b8ff" points="456.76,-362.84 467.07,-360.43 457.5,-355.88 456.76,-362.84"/>
</a>
</g>
</g>
</g>
</svg>

<g id="navigator" transform="translate(0 0)" fill="#404254">
  <rect fill="#f2f5e9" fill-opacity="0.5" stroke="#606060" stroke-width=".5" x="0" y="0" width="60" height="60"/>
  <use id="zoomplus" xlink:href="#zoomPlus" x="17" y="9" onmousedown="handleZoom(evt,'in')"/>
  <use id="zoomminus" xlink:href="#zoomMin" x="42" y="9" onmousedown="handleZoom(evt,'out')"/>
  <use id="reset" xlink:href="#resetDef" x="30" y="36" onmousedown="handleReset()"/>
   <use id="arrowup" xlink:href="#arrowUp" x="0" y="0" onmousedown="handlePan(0,-1)"/>
  <use id="arrowright" xlink:href="#arrowRight" x="0" y="0" onmousedown="handlePan(1,0)"/>
  <use id="arrowdown" xlink:href="#arrowDown" x="0" y="0" onmousedown="handlePan(0,1)"/>
  <use id="arrowleft" xlink:href="#arrowLeft" x="0" y="0" onmousedown="handlePan(-1,0)"/>
</g>
<svg viewBox="0 0 15 15" width="100%" height="30px" preserveAspectRatio="xMaxYMin meet">
 <g id="arrow_out" transform="scale(0.3 0.3)">
  <a xlink:href="classGreenFLayered3D_af46d152fbc30bdc418ff16e5e7a334c6_cgraph_org.svg" target="_base">
   <rect id="button" ry="5" rx="5" y="6" x="6" height="38" width="38"
        fill="#f2f5e9" fill-opacity="0.5" stroke="#606060" stroke-width="1.0"/>
   <path id="arrow"
     d="M 11.500037,31.436501 C 11.940474,20.09759 22.043105,11.32322 32.158766,21.979434 L 37.068811,17.246167 C 37.068811,17.246167 37.088388,32 37.088388,32 L 22.160133,31.978069 C 22.160133,31.978069 26.997745,27.140456 26.997745,27.140456 C 18.528582,18.264221 13.291696,25.230495 11.500037,31.436501 z"
     style="fill:#404040;"/>
  </a>
 </g>
</svg>

<style type='text/css'>
<![CDATA[
[data-mouse-over-selected='false'] { opacity: 0.7; }
[data-mouse-over-selected='true']  { opacity: 1.0; }
]]>
</style>
<script type="application/ecmascript"><![CDATA[
document.addEventListener('DOMContentLoaded', (event) => {
  highlightEdges();
  highlightAdjacentNodes();
});
]]></script>
</svg>
