<?xml version="1.0" encoding="UTF-8" standalone="no"?>
<!DOCTYPE svg PUBLIC "-//W3C//DTD SVG 1.1//EN"
 "http://www.w3.org/Graphics/SVG/1.1/DTD/svg11.dtd">
<!-- Generated by graphviz version 13.1.2 (20250809.0930)
 -->
<!-- Title: SimJob::ContainingDomain Pages: 1 -->
<!--zoomable 184 -->

<svg id="main" version="1.1" xmlns="http://www.w3.org/2000/svg" xmlns:xlink="http://www.w3.org/1999/xlink" xml:space="preserve" onload="init(evt)">

<style type="text/css"><![CDATA[
.node, .edge {opacity: 0.7;}
.node.selected, .edge.selected {opacity: 1;}
.edge:hover path { stroke: red; }
.edge:hover polygon { stroke: red; fill: red; }
]]></style>

<defs>
  <circle id="rim" cx="0" cy="0" r="7"/>
  <circle id="rim2" cx="0" cy="0" r="3.5"/>
  <g id="zoomPlus">
    <use xlink:href="#rim" fill="#404040"><set attributeName="fill" to="#808080" begin="zoomplus.mouseover" end="zoomplus.mouseout"/></use>
    <path d="M-4,0h8M0,-4v8" fill="none" stroke="white" stroke-width="1.5" pointer-events="none"/>
  </g>
  <g id="zoomMin">
    <use xlink:href="#rim" fill="#404040"><set attributeName="fill" to="#808080" begin="zoomminus.mouseover" end="zoomminus.mouseout"/></use>
    <path d="M-4,0h8" fill="none" stroke="white" stroke-width="1.5" pointer-events="none"/>
  </g>
  <g id="arrowUp" transform="translate(30 24)">
    <use xlink:href="#rim"/>
    <path pointer-events="none" fill="none" stroke="white" stroke-width="1.5" d="M0,-3.0v7 M-2.5,-0.5L0,-3.0L2.5,-0.5"/>
  </g>
  <g id="arrowRight" transform="rotate(90) translate(36 -43)">
    <use xlink:href="#rim"/>
    <path pointer-events="none" fill="none" stroke="white" stroke-width="1.5" d="M0,-3.0v7 M-2.5,-0.5L0,-3.0L2.5,-0.5"/>
  </g>
  <g id="arrowDown" transform="rotate(180) translate(-30 -48)">
    <use xlink:href="#rim"/>
    <path pointer-events="none" fill="none" stroke="white" stroke-width="1.5" d="M0,-3.0v7 M-2.5,-0.5L0,-3.0L2.5,-0.5"/>
  </g>
  <g id="arrowLeft" transform="rotate(270) translate(-36 17)">
    <use xlink:href="#rim"/>
    <path pointer-events="none" fill="none" stroke="white" stroke-width="1.5" d="M0,-3.0v7 M-2.5,-0.5L0,-3.0L2.5,-0.5"/>
  </g>
  <g id="resetDef">
    <use xlink:href="#rim2" fill="#404040"><set attributeName="fill" to="#808080" begin="reset.mouseover" end="reset.mouseout"/></use>
  </g>
</defs>
<script type="application/ecmascript">
var viewWidth = 704;
var viewHeight = 184;
var sectionId = 'dynsection-6';
</script>
<script type="application/ecmascript" xlink:href="svg.min.js"/>
<svg id="graph" class="graph">
<g id="viewport">
<title>SimJob::ContainingDomain</title>
<!-- Node1 -->
<g id="Node000001" class="node">
<title>Node1</title>
<g id="a_Node000001"><a xlink:title="Find which domain contains a point.">
<polygon fill="#999999" stroke="#666666" points="695.75,-117.75 549.25,-117.75 549.25,-97 695.75,-97 695.75,-117.75"/>
<text xml:space="preserve" text-anchor="middle" x="622.5" y="-104.25" font-family="Helvetica,sans-Serif" font-size="10.00">SimJob::ContainingDomain</text>
</a>
</g>
</g>
<!-- Node2 -->
<g id="Node000002" class="node">
<title>Node2</title>
<g id="a_Node000002"><a xlink:href="classSimJob.html#a746e46ef2aa6843c2f4da96e472c75a3" target="_top" xlink:title="Incident and secondary &#160;at pos (domain auto&#45;detected).">
<polygon fill="white" stroke="#666666" points="500.5,-136.75 415.5,-136.75 415.5,-116 500.5,-116 500.5,-136.75"/>
<text xml:space="preserve" text-anchor="middle" x="458" y="-123.25" font-family="Helvetica,sans-Serif" font-size="10.00">SimJob::EField</text>
</a>
</g>
</g>
<!-- Node1&#45;&gt;Node2 -->
<g id="edge1_Node000001_Node000002" class="edge">
<title>Node1&#45;&gt;Node2</title>
<g id="a_edge1_Node000001_Node000002"><a xlink:title=" ">
<path fill="none" stroke="#63b8ff" d="M537.62,-117.18C524.88,-118.67 512.23,-120.15 500.92,-121.47"/>
<polygon fill="#63b8ff" stroke="#63b8ff" points="537.78,-120.69 547.3,-116.05 536.96,-113.74 537.78,-120.69"/>
</a>
</g>
</g>
<!-- Node4 -->
<g id="Node000004" class="node">
<title>Node4</title>
<g id="a_Node000004"><a xlink:href="classSimJob.html#a20b37e2e0aa2502a3ec465a5705b1774" target="_top" xlink:title="Evaluate fields on a set of points read from a file.">
<polygon fill="white" stroke="#666666" points="176.75,-98.75 76.75,-98.75 76.75,-78 176.75,-78 176.75,-98.75"/>
<text xml:space="preserve" text-anchor="middle" x="126.75" y="-85.25" font-family="Helvetica,sans-Serif" font-size="10.00">SimJob::FieldEval</text>
</a>
</g>
</g>
<!-- Node1&#45;&gt;Node4 -->
<g id="edge5_Node000001_Node000004" class="edge">
<title>Node1&#45;&gt;Node4</title>
<g id="a_edge5_Node000001_Node000004"><a xlink:title=" ">
<path fill="none" stroke="#63b8ff" d="M537.56,-104.14C433.97,-100.16 261.24,-93.51 176.98,-90.27"/>
<polygon fill="#63b8ff" stroke="#63b8ff" points="537.27,-107.64 547.4,-104.52 537.54,-100.64 537.27,-107.64"/>
</a>
</g>
</g>
<!-- Node6 -->
<g id="Node000006" class="node">
<title>Node6</title>
<g id="a_Node000006"><a xlink:href="classSimJob.html#ae9e4bc91d7636bf3e7fd151c870cd01f" target="_top" xlink:title="Incident and secondary &#160;at pos (domain auto&#45;detected).">
<polygon fill="white" stroke="#666666" points="501.25,-175.75 414.75,-175.75 414.75,-155 501.25,-155 501.25,-175.75"/>
<text xml:space="preserve" text-anchor="middle" x="458" y="-162.25" font-family="Helvetica,sans-Serif" font-size="10.00">SimJob::HField</text>
</a>
</g>
</g>
<!-- Node1&#45;&gt;Node6 -->
<g id="edge6_Node000001_Node000006" class="edge">
<title>Node1&#45;&gt;Node6</title>
<g id="a_edge6_Node000001_Node000006"><a xlink:title=" ">
<path fill="none" stroke="#63b8ff" d="M580.53,-122C552.16,-132.12 515.02,-145.38 489.3,-154.56"/>
<polygon fill="#63b8ff" stroke="#63b8ff" points="581.65,-125.32 589.89,-118.66 579.3,-118.72 581.65,-125.32"/>
</a>
</g>
</g>
<!-- Node7 -->
<g id="Node000007" class="node">
<title>Node7</title>
<g id="a_Node000007"><a xlink:href="classSimJob.html#ae16a5d8bdcf14121a812acd22b3c573a" target="_top" xlink:title="Parse and load dipole excitation from .">
<polygon fill="white" stroke="#666666" points="513.25,-60.75 402.75,-60.75 402.75,-40 513.25,-40 513.25,-60.75"/>
<text xml:space="preserve" text-anchor="middle" x="458" y="-47.25" font-family="Helvetica,sans-Serif" font-size="10.00">SimJob::LoadDipole</text>
</a>
</g>
</g>
<!-- Node1&#45;&gt;Node7 -->
<g id="edge8_Node000001_Node000007" class="edge">
<title>Node1&#45;&gt;Node7</title>
<g id="a_edge8_Node000001_Node000007"><a xlink:title=" ">
<path fill="none" stroke="#63b8ff" d="M579.85,-92.77C551.77,-82.92 515.33,-70.13 489.83,-61.19"/>
<polygon fill="#63b8ff" stroke="#63b8ff" points="578.53,-96.01 589.12,-96.02 580.85,-89.41 578.53,-96.01"/>
</a>
</g>
</g>
<!-- Node3 -->
<g id="Node000003" class="node">
<title>Node3</title>
<g id="a_Node000003"><a xlink:href="classSimJob.html#aa492cf9e3639f2dfa91e36364a76729a" target="_top" xlink:title="Thread worker to evaluate fields over posvec in parallel.">
<polygon fill="white" stroke="#666666" points="357.75,-136.75 221.75,-136.75 221.75,-116 357.75,-116 357.75,-136.75"/>
<text xml:space="preserve" text-anchor="middle" x="289.75" y="-123.25" font-family="Helvetica,sans-Serif" font-size="10.00">SimJob::FieldEvalParallel</text>
</a>
</g>
</g>
<!-- Node2&#45;&gt;Node3 -->
<g id="edge2_Node000002_Node000003" class="edge">
<title>Node2&#45;&gt;Node3</title>
<g id="a_edge2_Node000002_Node000003"><a xlink:title=" ">
<path fill="none" stroke="#63b8ff" d="M403.77,-126.38C389.29,-126.38 373.41,-126.38 358.24,-126.38"/>
<polygon fill="#63b8ff" stroke="#63b8ff" points="403.53,-129.88 413.53,-126.38 403.53,-122.88 403.53,-129.88"/>
</a>
</g>
</g>
<!-- Node3&#45;&gt;Node4 -->
<g id="edge3_Node000003_Node000004" class="edge">
<title>Node3&#45;&gt;Node4</title>
<g id="a_edge3_Node000003_Node000004"><a xlink:title=" ">
<path fill="none" stroke="#63b8ff" d="M232.04,-112.99C212.89,-108.47 191.77,-103.48 173.57,-99.19"/>
<polygon fill="#63b8ff" stroke="#63b8ff" points="231.03,-116.35 241.57,-115.24 232.64,-109.54 231.03,-116.35"/>
</a>
</g>
</g>
<!-- Node5 -->
<g id="Node000005" class="node">
<title>Node5</title>
<g id="a_Node000005"><a xlink:href="main_8cpp.html#a0ddf1224851353fc92bfbff6f499fa97" target="_top" xlink:title="Main driver routine for the HELIOS SIE simulation program.">
<polygon fill="white" stroke="#666666" points="40.75,-78.75 0,-78.75 0,-58 40.75,-58 40.75,-78.75"/>
<text xml:space="preserve" text-anchor="middle" x="20.38" y="-65.25" font-family="Helvetica,sans-Serif" font-size="10.00">main</text>
</a>
</g>
</g>
<!-- Node4&#45;&gt;Node5 -->
<g id="edge4_Node000004_Node000005" class="edge">
<title>Node4&#45;&gt;Node5</title>
<g id="a_edge4_Node000004_Node000005"><a xlink:title=" ">
<path fill="none" stroke="#63b8ff" d="M65.26,-76.78C56.6,-75.13 48.26,-73.53 41.22,-72.18"/>
<polygon fill="#63b8ff" stroke="#63b8ff" points="64.35,-80.17 74.83,-78.62 65.66,-73.3 64.35,-80.17"/>
</a>
</g>
</g>
<!-- Node6&#45;&gt;Node3 -->
<g id="edge7_Node000006_Node000003" class="edge">
<title>Node6&#45;&gt;Node3</title>
<g id="a_edge7_Node000006_Node000003"><a xlink:title=" ">
<path fill="none" stroke="#63b8ff" d="M403.68,-152.87C382.17,-147.82 357.58,-142.05 336.85,-137.19"/>
<polygon fill="#63b8ff" stroke="#63b8ff" points="402.61,-156.21 413.14,-155.09 404.21,-149.4 402.61,-156.21"/>
</a>
</g>
</g>
<!-- Node8 -->
<g id="Node000008" class="node">
<title>Node8</title>
<g id="a_Node000008"><a xlink:href="classSimJob.html#a83d402c189aeefdce43afbd3cb66f709" target="_top" xlink:title="Parse a full &#160;block from the already&#45;open JobParser.">
<polygon fill="white" stroke="#666666" points="350.25,-21.75 229.25,-21.75 229.25,-1 350.25,-1 350.25,-21.75"/>
<text xml:space="preserve" text-anchor="middle" x="289.75" y="-8.25" font-family="Helvetica,sans-Serif" font-size="10.00">SimJob::LoadFromFile</text>
</a>
</g>
</g>
<!-- Node7&#45;&gt;Node8 -->
<g id="edge9_Node000007_Node000008" class="edge">
<title>Node7&#45;&gt;Node8</title>
<g id="a_edge9_Node000007_Node000008"><a xlink:title=" ">
<path fill="none" stroke="#63b8ff" d="M399.62,-36.91C379.2,-32.12 356.48,-26.79 337.1,-22.25"/>
<polygon fill="#63b8ff" stroke="#63b8ff" points="398.68,-40.29 409.22,-39.17 400.28,-33.47 398.68,-40.29"/>
</a>
</g>
</g>
<!-- Node12 -->
<g id="Node000012" class="node">
<title>Node12</title>
<g id="a_Node000012"><a xlink:href="classSimJob.html#adba2c6ff445d17b3d75443f94a7de5eb" target="_top" xlink:title="Parse one &#160;(incident specification + label).">
<polygon fill="white" stroke="#666666" points="366.75,-60.75 212.75,-60.75 212.75,-40 366.75,-40 366.75,-60.75"/>
<text xml:space="preserve" text-anchor="middle" x="289.75" y="-47.25" font-family="Helvetica,sans-Serif" font-size="10.00">SimJob::LoadSubjobFromFile</text>
</a>
</g>
</g>
<!-- Node7&#45;&gt;Node12 -->
<g id="edge15_Node000007_Node000012" class="edge">
<title>Node7&#45;&gt;Node12</title>
<g id="a_edge15_Node000007_Node000012"><a xlink:title=" ">
<path fill="none" stroke="#63b8ff" d="M391.15,-50.38C383.23,-50.38 375.09,-50.38 367.03,-50.38"/>
<polygon fill="#63b8ff" stroke="#63b8ff" points="391.05,-53.88 401.05,-50.38 391.05,-46.88 391.05,-53.88"/>
</a>
</g>
</g>
<!-- Node8&#45;&gt;Node4 -->
<g id="edge12_Node000008_Node000004" class="edge">
<title>Node8&#45;&gt;Node4</title>
<g id="a_edge12_Node000008_Node000004"><a xlink:title=" ">
<path fill="none" stroke="#63b8ff" d="M222.75,-26.3C219.29,-27.83 215.93,-29.52 212.75,-31.38 192.93,-42.94 195.77,-55.55 176.75,-68.38 171.57,-71.87 165.68,-74.92 159.83,-77.51"/>
<polygon fill="#63b8ff" stroke="#63b8ff" points="223.91,-29.6 231.94,-22.7 221.36,-23.08 223.91,-29.6"/>
</a>
</g>
</g>
<!-- Node9 -->
<g id="Node000009" class="node">
<title>Node9</title>
<g id="a_Node000009"><a xlink:href="classSimJob.html#a12a443329f3e49a5a94a6af72403d93b" target="_top" xlink:title="Casimir workflow entry (uses gradient matrices if enabled).">
<polygon fill="white" stroke="#666666" points="173.38,-20.75 80.12,-20.75 80.12,0 173.38,0 173.38,-20.75"/>
<text xml:space="preserve" text-anchor="middle" x="126.75" y="-7.25" font-family="Helvetica,sans-Serif" font-size="10.00">SimJob::Casimir</text>
</a>
</g>
</g>
<!-- Node8&#45;&gt;Node9 -->
<g id="edge10_Node000008_Node000009" class="edge">
<title>Node8&#45;&gt;Node9</title>
<g id="a_edge10_Node000008_Node000009"><a xlink:title=" ">
<path fill="none" stroke="#63b8ff" d="M217.53,-10.93C202.65,-10.84 187.33,-10.75 173.66,-10.66"/>
<polygon fill="#63b8ff" stroke="#63b8ff" points="217.26,-14.43 227.29,-10.99 217.31,-7.43 217.26,-14.43"/>
</a>
</g>
</g>
<!-- Node11 -->
<g id="Node000011" class="node">
<title>Node11</title>
<g id="a_Node000011"><a xlink:href="classSimJob.html#aeca9fd8ceee84fdef75996581fe1093a" target="_top" xlink:title="High&#45;level entry: run a simulation for a given job file.">
<polygon fill="white" stroke="#666666" points="176.38,-59.75 77.12,-59.75 77.12,-39 176.38,-39 176.38,-59.75"/>
<text xml:space="preserve" text-anchor="middle" x="126.75" y="-46.25" font-family="Helvetica,sans-Serif" font-size="10.00">SimJob::Simulate</text>
</a>
</g>
</g>
<!-- Node8&#45;&gt;Node11 -->
<g id="edge13_Node000008_Node000011" class="edge">
<title>Node8&#45;&gt;Node11</title>
<g id="a_edge13_Node000008_Node000011"><a xlink:title=" ">
<path fill="none" stroke="#63b8ff" d="M232.04,-24.76C212.89,-29.28 191.77,-34.27 173.57,-38.56"/>
<polygon fill="#63b8ff" stroke="#63b8ff" points="232.64,-28.21 241.57,-22.51 231.03,-21.4 232.64,-28.21"/>
</a>
</g>
</g>
<!-- Node10 -->
<g id="Node000010" class="node">
<title>Node10</title>
<g id="a_Node000010"><a xlink:href="casimir_8cpp.html#a0ddf1224851353fc92bfbff6f499fa97" target="_top" xlink:title="Main driver routine for the simulation program.">
<polygon fill="white" stroke="#666666" points="40.75,-20.75 0,-20.75 0,0 40.75,0 40.75,-20.75"/>
<text xml:space="preserve" text-anchor="middle" x="20.38" y="-7.25" font-family="Helvetica,sans-Serif" font-size="10.00">main</text>
</a>
</g>
</g>
<!-- Node9&#45;&gt;Node10 -->
<g id="edge11_Node000009_Node000010" class="edge">
<title>Node9&#45;&gt;Node10</title>
<g id="a_edge11_Node000009_Node000010"><a xlink:title=" ">
<path fill="none" stroke="#63b8ff" d="M68.19,-10.38C58.44,-10.38 48.95,-10.38 41.08,-10.38"/>
<polygon fill="#63b8ff" stroke="#63b8ff" points="68.15,-13.88 78.15,-10.38 68.15,-6.88 68.15,-13.88"/>
</a>
</g>
</g>
<!-- Node11&#45;&gt;Node5 -->
<g id="edge14_Node000011_Node000005" class="edge">
<title>Node11&#45;&gt;Node5</title>
<g id="a_edge14_Node000011_Node000005"><a xlink:title=" ">
<path fill="none" stroke="#63b8ff" d="M65.69,-60.31C56.88,-61.91 48.38,-63.46 41.22,-64.76"/>
<polygon fill="#63b8ff" stroke="#63b8ff" points="66.22,-63.77 75.44,-58.53 64.97,-56.88 66.22,-63.77"/>
</a>
</g>
</g>
<!-- Node12&#45;&gt;Node4 -->
<g id="edge16_Node000012_Node000004" class="edge">
<title>Node12&#45;&gt;Node4</title>
<g id="a_edge16_Node000012_Node000004"><a xlink:title=" ">
<path fill="none" stroke="#63b8ff" d="M232.04,-63.76C212.89,-68.28 191.77,-73.27 173.57,-77.56"/>
<polygon fill="#63b8ff" stroke="#63b8ff" points="232.64,-67.21 241.57,-61.51 231.03,-60.4 232.64,-67.21"/>
</a>
</g>
</g>
<!-- Node12&#45;&gt;Node11 -->
<g id="edge17_Node000012_Node000011" class="edge">
<title>Node12&#45;&gt;Node11</title>
<g id="a_edge17_Node000012_Node000011"><a xlink:title=" ">
<path fill="none" stroke="#63b8ff" d="M201.06,-49.83C192.7,-49.78 184.44,-49.73 176.65,-49.68"/>
<polygon fill="#63b8ff" stroke="#63b8ff" points="200.96,-53.33 210.98,-49.89 201,-46.33 200.96,-53.33"/>
</a>
</g>
</g>
</g>
</svg>

<g id="navigator" transform="translate(0 0)" fill="#404254">
  <rect fill="#f2f5e9" fill-opacity="0.5" stroke="#606060" stroke-width=".5" x="0" y="0" width="60" height="60"/>
  <use id="zoomplus" xlink:href="#zoomPlus" x="17" y="9" onmousedown="handleZoom(evt,'in')"/>
  <use id="zoomminus" xlink:href="#zoomMin" x="42" y="9" onmousedown="handleZoom(evt,'out')"/>
  <use id="reset" xlink:href="#resetDef" x="30" y="36" onmousedown="handleReset()"/>
   <use id="arrowup" xlink:href="#arrowUp" x="0" y="0" onmousedown="handlePan(0,-1)"/>
  <use id="arrowright" xlink:href="#arrowRight" x="0" y="0" onmousedown="handlePan(1,0)"/>
  <use id="arrowdown" xlink:href="#arrowDown" x="0" y="0" onmousedown="handlePan(0,1)"/>
  <use id="arrowleft" xlink:href="#arrowLeft" x="0" y="0" onmousedown="handlePan(-1,0)"/>
</g>
<svg viewBox="0 0 15 15" width="100%" height="30px" preserveAspectRatio="xMaxYMin meet">
 <g id="arrow_out" transform="scale(0.3 0.3)">
  <a xlink:href="classSimJob_ab3887eb9e217b1d6424ff85aec4b1793_icgraph_org.svg" target="_base">
   <rect id="button" ry="5" rx="5" y="6" x="6" height="38" width="38"
        fill="#f2f5e9" fill-opacity="0.5" stroke="#606060" stroke-width="1.0"/>
   <path id="arrow"
     d="M 11.500037,31.436501 C 11.940474,20.09759 22.043105,11.32322 32.158766,21.979434 L 37.068811,17.246167 C 37.068811,17.246167 37.088388,32 37.088388,32 L 22.160133,31.978069 C 22.160133,31.978069 26.997745,27.140456 26.997745,27.140456 C 18.528582,18.264221 13.291696,25.230495 11.500037,31.436501 z"
     style="fill:#404040;"/>
  </a>
 </g>
</svg>

<style type='text/css'>
<![CDATA[
[data-mouse-over-selected='false'] { opacity: 0.7; }
[data-mouse-over-selected='true']  { opacity: 1.0; }
]]>
</style>
<script type="application/ecmascript"><![CDATA[
document.addEventListener('DOMContentLoaded', (event) => {
  highlightEdges();
  highlightAdjacentNodes();
});
]]></script>
</svg>
