<?xml version="1.0" encoding="UTF-8" standalone="no"?>
<!DOCTYPE svg PUBLIC "-//W3C//DTD SVG 1.1//EN"
 "http://www.w3.org/Graphics/SVG/1.1/DTD/svg11.dtd">
<!-- Generated by graphviz version 13.1.2 (20250809.0930)
 -->
<!-- Title: GreenFLayered3D::IntegrateDelta Pages: 1 -->
<svg width="691pt" height="677pt"
 viewBox="0.00 0.00 691.00 677.00" xmlns="http://www.w3.org/2000/svg" xmlns:xlink="http://www.w3.org/1999/xlink">
<g id="graph0" class="graph" transform="scale(1 1) rotate(0) translate(4 672.75)">
<title>GreenFLayered3D::IntegrateDelta</title>
<!-- Node1 -->
<g id="Node000001" class="node">
<title>Node1</title>
<g id="a_Node000001"><a xlink:title="term at an observation point.">
<polygon fill="#999999" stroke="#666666" points="154,-341.12 0,-341.12 0,-307.62 154,-307.62 154,-341.12"/>
<text xml:space="preserve" text-anchor="start" x="8" y="-327.62" font-family="Helvetica,sans-Serif" font-size="10.00">GreenFLayered3D::Integrate</text>
<text xml:space="preserve" text-anchor="middle" x="77" y="-314.88" font-family="Helvetica,sans-Serif" font-size="10.00">Delta</text>
</a>
</g>
</g>
<!-- Node2 -->
<g id="Node000002" class="node">
<title>Node2</title>
<g id="a_Node000002"><a xlink:href="classGreenFLayered3D.html#a44686db66fc60d5a0f7613f692a73a28" target="_top" xlink:title="Checks whether the given positions exceed a predefined distance threshold.">
<polygon fill="white" stroke="#666666" points="378.5,-668.75 190,-668.75 190,-648 378.5,-648 378.5,-668.75"/>
<text xml:space="preserve" text-anchor="middle" x="284.25" y="-655.25" font-family="Helvetica,sans-Serif" font-size="10.00">GreenFLayered3D::AboveThreshold</text>
</a>
</g>
</g>
<!-- Node1&#45;&gt;Node2 -->
<g id="edge1_Node000001_Node000002" class="edge">
<title>Node1&#45;&gt;Node2</title>
<g id="a_edge1_Node000001_Node000002"><a xlink:title=" ">
<path fill="none" stroke="#63b8ff" d="M78.59,-341.47C81.4,-394.47 97.51,-557.3 190,-638.38 191.46,-639.65 192.97,-640.85 194.54,-641.98"/>
<polygon fill="#63b8ff" stroke="#63b8ff" points="192.38,-644.77 202.75,-646.93 195.99,-638.77 192.38,-644.77"/>
</a>
</g>
</g>
<!-- Node3 -->
<g id="Node000003" class="node">
<title>Node3</title>
<g id="a_Node000003"><a xlink:href="classTriangle.html#a1d3d08deeb999f339d2e821a877521ba" target="_top" xlink:title="Surface area of the triangle.">
<polygon fill="white" stroke="#666666" points="325.62,-629.75 242.88,-629.75 242.88,-609 325.62,-609 325.62,-629.75"/>
<text xml:space="preserve" text-anchor="middle" x="284.25" y="-616.25" font-family="Helvetica,sans-Serif" font-size="10.00">Triangle::Area</text>
</a>
</g>
</g>
<!-- Node1&#45;&gt;Node3 -->
<g id="edge2_Node000001_Node000003" class="edge">
<title>Node1&#45;&gt;Node3</title>
<g id="a_edge2_Node000001_Node000003"><a xlink:title=" ">
<path fill="none" stroke="#63b8ff" d="M79.55,-341.43C84.93,-390 107.24,-529.99 190,-599.38 201.63,-609.12 216.88,-614.45 231.67,-617.28"/>
<polygon fill="#63b8ff" stroke="#63b8ff" points="230.92,-620.71 241.33,-618.76 231.97,-613.79 230.92,-620.71"/>
</a>
</g>
</g>
<!-- Node4 -->
<g id="Node000004" class="node">
<title>Node4</title>
<g id="a_Node000004"><a xlink:href="classTriangle.html#ab78508a340ec5d345adf114b43563dbf" target="_top" xlink:title="Centroid of the triangle.">
<polygon fill="white" stroke="#666666" points="330.5,-590.75 238,-590.75 238,-570 330.5,-570 330.5,-590.75"/>
<text xml:space="preserve" text-anchor="middle" x="284.25" y="-577.25" font-family="Helvetica,sans-Serif" font-size="10.00">Triangle::Center</text>
</a>
</g>
</g>
<!-- Node1&#45;&gt;Node4 -->
<g id="edge3_Node000001_Node000004" class="edge">
<title>Node1&#45;&gt;Node4</title>
<g id="a_edge3_Node000001_Node000004"><a xlink:title=" ">
<path fill="none" stroke="#63b8ff" d="M80.82,-341.55C89,-385.48 116.92,-502.54 190,-560.38 200.55,-568.72 213.8,-573.79 226.96,-576.81"/>
<polygon fill="#63b8ff" stroke="#63b8ff" points="225.98,-580.19 236.46,-578.61 227.29,-573.31 225.98,-580.19"/>
</a>
</g>
</g>
<!-- Node5 -->
<g id="Node000005" class="node">
<title>Node5</title>
<g id="a_Node000005"><a xlink:href="group__greenFunction.html#gac0a52dce23be7dacdf97c68653b6c137" target="_top" xlink:title="Complex square root with a branch cut along the negative real axis.">
<polygon fill="white" stroke="#666666" points="304.25,-551.75 264.25,-551.75 264.25,-531 304.25,-531 304.25,-551.75"/>
<text xml:space="preserve" text-anchor="middle" x="284.25" y="-538.25" font-family="Helvetica,sans-Serif" font-size="10.00">csqrt</text>
</a>
</g>
</g>
<!-- Node1&#45;&gt;Node5 -->
<g id="edge4_Node000001_Node000005" class="edge">
<title>Node1&#45;&gt;Node5</title>
<g id="a_edge4_Node000001_Node000005"><a xlink:title=" ">
<path fill="none" stroke="#63b8ff" d="M82.4,-341.4C93.36,-380.26 125.79,-475.7 190,-522.38 208.04,-535.49 232.98,-540.05 252.53,-541.44"/>
<polygon fill="#63b8ff" stroke="#63b8ff" points="252.24,-544.93 262.38,-541.88 252.55,-537.94 252.24,-544.93"/>
</a>
</g>
</g>
<!-- Node7 -->
<g id="Node000007" class="node">
<title>Node7</title>
<g id="a_Node000007"><a xlink:href="classGreenFLayered3D.html#a65ac22e62ec3e3131ffbb10d7bdea307" target="_top" xlink:title="Evaluate quasi&#45;static (QS) contributions for inter&#45;layer interactions.">
<polygon fill="white" stroke="#666666" points="364.25,-461.12 204.25,-461.12 204.25,-427.62 364.25,-427.62 364.25,-461.12"/>
<text xml:space="preserve" text-anchor="start" x="212.25" y="-447.62" font-family="Helvetica,sans-Serif" font-size="10.00">GreenFLayered3D::evalGreen</text>
<text xml:space="preserve" text-anchor="middle" x="284.25" y="-434.88" font-family="Helvetica,sans-Serif" font-size="10.00">QSInter</text>
</a>
</g>
</g>
<!-- Node1&#45;&gt;Node7 -->
<g id="edge7_Node000001_Node000007" class="edge">
<title>Node1&#45;&gt;Node7</title>
<g id="a_edge7_Node000001_Node000007"><a xlink:title=" ">
<path fill="none" stroke="#63b8ff" d="M93.79,-341.52C114.09,-362.58 151.37,-398.02 190,-418.38 193.02,-419.97 196.16,-421.47 199.36,-422.89"/>
<polygon fill="#63b8ff" stroke="#63b8ff" points="197.81,-426.04 208.4,-426.57 200.45,-419.56 197.81,-426.04"/>
</a>
</g>
</g>
<!-- Node9 -->
<g id="Node000009" class="node">
<title>Node9</title>
<g id="a_Node000009"><a xlink:href="classGreenFLayered3D.html#a1fb4fa93c84d77750cac364641945725" target="_top" xlink:title="Return layer index of a 3D point.">
<polygon fill="white" stroke="#666666" points="568.5,-409.12 414.5,-409.12 414.5,-375.62 568.5,-375.62 568.5,-409.12"/>
<text xml:space="preserve" text-anchor="start" x="422.5" y="-395.62" font-family="Helvetica,sans-Serif" font-size="10.00">GreenFLayered3D::GetLayer</text>
<text xml:space="preserve" text-anchor="middle" x="491.5" y="-382.88" font-family="Helvetica,sans-Serif" font-size="10.00">Index</text>
</a>
</g>
</g>
<!-- Node1&#45;&gt;Node9 -->
<g id="edge19_Node000001_Node000009" class="edge">
<title>Node1&#45;&gt;Node9</title>
<g id="a_edge19_Node000001_Node000009"><a xlink:title=" ">
<path fill="none" stroke="#63b8ff" d="M154.26,-333.13C215.18,-340.57 302.62,-352.29 378.5,-366.38 388.59,-368.25 399.14,-370.42 409.57,-372.69"/>
<polygon fill="#63b8ff" stroke="#63b8ff" points="408.8,-376.1 419.32,-374.85 410.32,-369.27 408.8,-376.1"/>
</a>
</g>
</g>
<!-- Node10 -->
<g id="Node000010" class="node">
<title>Node10</title>
<g id="a_Node000010"><a xlink:href="classGreenFLayered3D.html#a7fbd8a47a0074f53111d52920a910392" target="_top" xlink:title="Evaluate quasi&#45;static (QS) contributions for intra&#45;layer interactions.">
<polygon fill="white" stroke="#666666" points="364.25,-409.12 204.25,-409.12 204.25,-375.62 364.25,-375.62 364.25,-409.12"/>
<text xml:space="preserve" text-anchor="start" x="212.25" y="-395.62" font-family="Helvetica,sans-Serif" font-size="10.00">GreenFLayered3D::evalGreen</text>
<text xml:space="preserve" text-anchor="middle" x="284.25" y="-382.88" font-family="Helvetica,sans-Serif" font-size="10.00">QSIntra</text>
</a>
</g>
</g>
<!-- Node1&#45;&gt;Node10 -->
<g id="edge10_Node000001_Node000010" class="edge">
<title>Node1&#45;&gt;Node10</title>
<g id="a_edge10_Node000001_Node000010"><a xlink:title=" ">
<path fill="none" stroke="#63b8ff" d="M130.06,-341.62C157.54,-350.73 191.48,-361.97 220.42,-371.56"/>
<polygon fill="#63b8ff" stroke="#63b8ff" points="219.22,-374.85 229.81,-374.67 221.42,-368.2 219.22,-374.85"/>
</a>
</g>
</g>
<!-- Node11 -->
<g id="Node000011" class="node">
<title>Node11</title>
<g id="a_Node000011"><a xlink:href="classGreenFLayered3D.html#abb50e8621c63f2b29862c32a8447dd9c" target="_top" xlink:title="Evaluate Green&#39;s&#45;function components for inter&#45;layer interactions by interpolating the smooth (Sommer...">
<polygon fill="white" stroke="#666666" points="364.25,-319.12 204.25,-319.12 204.25,-285.62 364.25,-285.62 364.25,-319.12"/>
<text xml:space="preserve" text-anchor="start" x="212.25" y="-305.62" font-family="Helvetica,sans-Serif" font-size="10.00">GreenFLayered3D::evalGreen</text>
<text xml:space="preserve" text-anchor="middle" x="284.25" y="-292.88" font-family="Helvetica,sans-Serif" font-size="10.00">SmoothInter</text>
</a>
</g>
</g>
<!-- Node1&#45;&gt;Node11 -->
<g id="edge13_Node000001_Node000011" class="edge">
<title>Node1&#45;&gt;Node11</title>
<g id="a_edge13_Node000001_Node000011"><a xlink:title=" ">
<path fill="none" stroke="#63b8ff" d="M154.43,-316.18C166.95,-314.84 180.02,-313.44 192.84,-312.07"/>
<polygon fill="#63b8ff" stroke="#63b8ff" points="192.94,-315.58 202.51,-311.03 192.19,-308.62 192.94,-315.58"/>
</a>
</g>
</g>
<!-- Node14 -->
<g id="Node000014" class="node">
<title>Node14</title>
<g id="a_Node000014"><a xlink:href="classGreenFLayered3D.html#a834a94e21f64163f651a4729eccc6699" target="_top" xlink:title="Evaluate Green&#39;s function components for intra&#45;layer interactions by interpolating the smooth (Sommer...">
<polygon fill="white" stroke="#666666" points="364.25,-267.12 204.25,-267.12 204.25,-233.62 364.25,-233.62 364.25,-267.12"/>
<text xml:space="preserve" text-anchor="start" x="212.25" y="-253.62" font-family="Helvetica,sans-Serif" font-size="10.00">GreenFLayered3D::evalGreen</text>
<text xml:space="preserve" text-anchor="middle" x="284.25" y="-240.88" font-family="Helvetica,sans-Serif" font-size="10.00">SmoothIntra</text>
</a>
</g>
</g>
<!-- Node1&#45;&gt;Node14 -->
<g id="edge16_Node000001_Node000014" class="edge">
<title>Node1&#45;&gt;Node14</title>
<g id="a_edge16_Node000001_Node000014"><a xlink:title=" ">
<path fill="none" stroke="#63b8ff" d="M114.59,-307.23C136.24,-297.46 164.36,-285.4 190,-276.38 195.31,-274.5 200.83,-272.68 206.42,-270.92"/>
<polygon fill="#63b8ff" stroke="#63b8ff" points="207.21,-274.34 215.74,-268.06 205.16,-267.64 207.21,-274.34"/>
</a>
</g>
</g>
<!-- Node15 -->
<g id="Node000015" class="node">
<title>Node15</title>
<g id="a_Node000015"><a xlink:href="classRWGFun.html#a7540ce2f84c6b42a29c2808504c47d42" target="_top" xlink:title="Evaluate the RWG vector shape function at a point on the triangle.">
<polygon fill="white" stroke="#666666" points="337.25,-215.75 231.25,-215.75 231.25,-195 337.25,-195 337.25,-215.75"/>
<text xml:space="preserve" text-anchor="middle" x="284.25" y="-202.25" font-family="Helvetica,sans-Serif" font-size="10.00">RWGFun::Evaluate</text>
</a>
</g>
</g>
<!-- Node1&#45;&gt;Node15 -->
<g id="edge18_Node000001_Node000015" class="edge">
<title>Node1&#45;&gt;Node15</title>
<g id="a_edge18_Node000001_Node000015"><a xlink:title=" ">
<path fill="none" stroke="#63b8ff" d="M91.96,-307.21C111.43,-284.5 148.99,-244.94 190,-224.38 199.22,-219.75 209.49,-216.25 219.74,-213.61"/>
<polygon fill="#63b8ff" stroke="#63b8ff" points="220.38,-217.05 229.34,-211.39 218.81,-210.23 220.38,-217.05"/>
</a>
</g>
</g>
<!-- Node16 -->
<g id="Node000016" class="node">
<title>Node16</title>
<g id="a_Node000016"><a xlink:href="classTriQuadPol.html#a937d9b0718e7914525a47db7954a1ef4" target="_top" xlink:title="Quadrature nodes (barycentric triples).">
<polygon fill="white" stroke="#666666" points="356.75,-176.75 211.75,-176.75 211.75,-156 356.75,-156 356.75,-176.75"/>
<text xml:space="preserve" text-anchor="middle" x="284.25" y="-163.25" font-family="Helvetica,sans-Serif" font-size="10.00">TriQuadPol::getQuadPoints</text>
</a>
</g>
</g>
<!-- Node1&#45;&gt;Node16 -->
<g id="edge20_Node000001_Node000016" class="edge">
<title>Node1&#45;&gt;Node16</title>
<g id="a_edge20_Node000001_Node000016"><a xlink:title=" ">
<path fill="none" stroke="#63b8ff" d="M86.78,-307.23C102.93,-277.55 140.29,-216.86 190,-186.38 193.52,-184.21 197.25,-182.28 201.1,-180.56"/>
<polygon fill="#63b8ff" stroke="#63b8ff" points="202.1,-183.93 210.13,-177.02 199.54,-177.41 202.1,-183.93"/>
</a>
</g>
</g>
<!-- Node17 -->
<g id="Node000017" class="node">
<title>Node17</title>
<g id="a_Node000017"><a xlink:href="classTriQuadPol.html#a23097391f76d79ed0e0a3584400d4497" target="_top" xlink:title="Quadrature weights (include all Jacobian factors and r).">
<polygon fill="white" stroke="#666666" points="361.25,-137.75 207.25,-137.75 207.25,-117 361.25,-117 361.25,-137.75"/>
<text xml:space="preserve" text-anchor="middle" x="284.25" y="-124.25" font-family="Helvetica,sans-Serif" font-size="10.00">TriQuadPol::getQuadWeights</text>
</a>
</g>
</g>
<!-- Node1&#45;&gt;Node17 -->
<g id="edge21_Node000001_Node000017" class="edge">
<title>Node1&#45;&gt;Node17</title>
<g id="a_edge21_Node000001_Node000017"><a xlink:title=" ">
<path fill="none" stroke="#63b8ff" d="M83.64,-307.31C96.42,-271.5 131.09,-188.46 190,-147.38 192.23,-145.82 194.57,-144.38 196.98,-143.04"/>
<polygon fill="#63b8ff" stroke="#63b8ff" points="198.35,-146.26 205.88,-138.81 195.35,-139.94 198.35,-146.26"/>
</a>
</g>
</g>
<!-- Node18 -->
<g id="Node000018" class="node">
<title>Node18</title>
<g id="a_Node000018"><a xlink:href="classTriangle.html#a0752d2c9488c7c44b851b8f75abcaa79" target="_top" xlink:title="Node position (by value) for local index 0..2.">
<polygon fill="white" stroke="#666666" points="327.12,-98.75 241.38,-98.75 241.38,-78 327.12,-78 327.12,-98.75"/>
<text xml:space="preserve" text-anchor="middle" x="284.25" y="-85.25" font-family="Helvetica,sans-Serif" font-size="10.00">Triangle::Node</text>
</a>
</g>
</g>
<!-- Node1&#45;&gt;Node18 -->
<g id="edge22_Node000001_Node000018" class="edge">
<title>Node1&#45;&gt;Node18</title>
<g id="a_edge22_Node000001_Node000018"><a xlink:title=" ">
<path fill="none" stroke="#63b8ff" d="M81.58,-307.43C91.2,-266.26 121.66,-160.52 190,-108.38 201.42,-99.66 215.82,-94.55 229.86,-91.61"/>
<polygon fill="#63b8ff" stroke="#63b8ff" points="230.23,-95.1 239.49,-89.95 229.04,-88.2 230.23,-95.1"/>
</a>
</g>
</g>
<!-- Node19 -->
<g id="Node000019" class="node">
<title>Node19</title>
<g id="a_Node000019"><a xlink:href="classRWGFun.html#a7cd7779305937d48196453e53d0d4df8" target="_top" xlink:title="Return L_n / A_n (missing factor 1/2 by convention).">
<polygon fill="white" stroke="#666666" points="350.38,-59.75 218.12,-59.75 218.12,-39 350.38,-39 350.38,-59.75"/>
<text xml:space="preserve" text-anchor="middle" x="284.25" y="-46.25" font-family="Helvetica,sans-Serif" font-size="10.00">RWGFun::RWGPreFactor</text>
</a>
</g>
</g>
<!-- Node1&#45;&gt;Node19 -->
<g id="edge23_Node000001_Node000019" class="edge">
<title>Node1&#45;&gt;Node19</title>
<g id="a_edge23_Node000001_Node000019"><a xlink:title=" ">
<path fill="none" stroke="#63b8ff" d="M80.16,-307.21C86.96,-260.93 112.24,-132.78 190,-69.38 195.18,-65.15 201.04,-61.76 207.25,-59.05"/>
<polygon fill="#63b8ff" stroke="#63b8ff" points="208.36,-62.37 216.53,-55.62 205.93,-55.8 208.36,-62.37"/>
</a>
</g>
</g>
<!-- Node20 -->
<g id="Node000020" class="node">
<title>Node20</title>
<g id="a_Node000020"><a xlink:href="classRWGFun.html#a6d9c854fc60bc02cb51ffb60cf388ccc" target="_top" xlink:title="Get the pointer to the owner Triangle.">
<polygon fill="white" stroke="#666666" points="341.75,-20.75 226.75,-20.75 226.75,0 341.75,0 341.75,-20.75"/>
<text xml:space="preserve" text-anchor="middle" x="284.25" y="-7.25" font-family="Helvetica,sans-Serif" font-size="10.00">RWGFun::TrianglePtr</text>
</a>
</g>
</g>
<!-- Node1&#45;&gt;Node20 -->
<g id="edge24_Node000001_Node000020" class="edge">
<title>Node1&#45;&gt;Node20</title>
<g id="a_edge24_Node000001_Node000020"><a xlink:title=" ">
<path fill="none" stroke="#63b8ff" d="M79.06,-307.27C83.16,-256.48 102.53,-105.41 190,-30.38 197.32,-24.1 206.13,-19.64 215.38,-16.5"/>
<polygon fill="#63b8ff" stroke="#63b8ff" points="216.24,-19.9 224.91,-13.81 214.34,-13.16 216.24,-19.9"/>
</a>
</g>
</g>
<!-- Node21 -->
<g id="Node000021" class="node">
<title>Node21</title>
<g id="a_Node000021"><a xlink:href="classGreenFLayered3D.html#a74a468a93bf93bd4acd39989502a10fd" target="_top" xlink:title="Write complex data with associated 2D coordinates to a text file.">
<polygon fill="white" stroke="#666666" points="366.88,-513.12 201.62,-513.12 201.62,-479.62 366.88,-479.62 366.88,-513.12"/>
<text xml:space="preserve" text-anchor="start" x="209.62" y="-499.62" font-family="Helvetica,sans-Serif" font-size="10.00">GreenFLayered3D::writeVector</text>
<text xml:space="preserve" text-anchor="middle" x="284.25" y="-486.88" font-family="Helvetica,sans-Serif" font-size="10.00">ToFile</text>
</a>
</g>
</g>
<!-- Node1&#45;&gt;Node21 -->
<g id="edge25_Node000001_Node000021" class="edge">
<title>Node1&#45;&gt;Node21</title>
<g id="a_edge25_Node000001_Node000021"><a xlink:title=" ">
<path fill="none" stroke="#63b8ff" d="M86.22,-341.23C101.98,-371.76 139.44,-436.22 190,-470.38 191.96,-471.7 193.98,-472.95 196.06,-474.15"/>
<polygon fill="#63b8ff" stroke="#63b8ff" points="194.27,-477.16 204.77,-478.59 197.45,-470.93 194.27,-477.16"/>
</a>
</g>
</g>
<!-- Node6 -->
<g id="Node000006" class="node">
<title>Node6</title>
<g id="a_Node000006"><a xlink:href="Domain_8cpp.html#aafa3e4fa6318b2f8740f4dbd50c367e5" target="_top" xlink:title="Extract the real part of each component of a complex 3&#45;vector.">
<polygon fill="white" stroke="#666666" points="508.88,-528.75 474.12,-528.75 474.12,-508 508.88,-508 508.88,-528.75"/>
<text xml:space="preserve" text-anchor="middle" x="491.5" y="-515.25" font-family="Helvetica,sans-Serif" font-size="10.00">real</text>
</a>
</g>
</g>
<!-- Node5&#45;&gt;Node6 -->
<g id="edge5_Node000005_Node000006" class="edge">
<title>Node5&#45;&gt;Node6</title>
<g id="a_edge5_Node000005_Node000006"><a xlink:title=" ">
<path fill="none" stroke="#63b8ff" d="M304.56,-539.21C340.98,-535.13 419.96,-526.28 462.32,-521.53"/>
<polygon fill="#63b8ff" stroke="#63b8ff" points="462.66,-525.02 472.21,-520.42 461.88,-518.06 462.66,-525.02"/>
</a>
</g>
</g>
<!-- Node6&#45;&gt;Node6 -->
<g id="edge6_Node000006_Node000006" class="edge">
<title>Node6&#45;&gt;Node6</title>
<g id="a_edge6_Node000006_Node000006"><a xlink:title=" ">
<path fill="none" stroke="#63b8ff" d="M473.84,-524.65C454.86,-534.38 460.75,-546.75 491.5,-546.75 515.52,-546.75 524.37,-539.2 518.04,-531.26"/>
<polygon fill="#63b8ff" stroke="#63b8ff" points="520.49,-528.71 510.37,-525.55 516.31,-534.33 520.49,-528.71"/>
</a>
</g>
</g>
<!-- Node8 -->
<g id="Node000008" class="node">
<title>Node8</title>
<g id="a_Node000008"><a xlink:href="classGreenFLayered3D.html#a41c1370112d040a3dc4c44a5853022ed" target="_top" xlink:title="Fresnel reflection/transmission at interface (delegates to utils).">
<polygon fill="white" stroke="#666666" points="564,-461.12 419,-461.12 419,-427.62 564,-427.62 564,-461.12"/>
<text xml:space="preserve" text-anchor="start" x="427" y="-447.62" font-family="Helvetica,sans-Serif" font-size="10.00">GreenFLayered3D::Fresnel</text>
<text xml:space="preserve" text-anchor="middle" x="491.5" y="-434.88" font-family="Helvetica,sans-Serif" font-size="10.00">Coeff</text>
</a>
</g>
</g>
<!-- Node7&#45;&gt;Node8 -->
<g id="edge8_Node000007_Node000008" class="edge">
<title>Node7&#45;&gt;Node8</title>
<g id="a_edge8_Node000007_Node000008"><a xlink:title=" ">
<path fill="none" stroke="#63b8ff" d="M364.61,-444.38C378.67,-444.38 393.35,-444.38 407.51,-444.38"/>
<polygon fill="#63b8ff" stroke="#63b8ff" points="407.22,-447.88 417.22,-444.38 407.22,-440.88 407.22,-447.88"/>
</a>
</g>
</g>
<!-- Node7&#45;&gt;Node9 -->
<g id="edge9_Node000007_Node000009" class="edge">
<title>Node7&#45;&gt;Node9</title>
<g id="a_edge9_Node000007_Node000009"><a xlink:title=" ">
<path fill="none" stroke="#63b8ff" d="M353.31,-427.13C371.94,-422.41 392.29,-417.26 411.48,-412.39"/>
<polygon fill="#63b8ff" stroke="#63b8ff" points="412.32,-415.79 421.16,-409.94 410.6,-409.01 412.32,-415.79"/>
</a>
</g>
</g>
<!-- Node10&#45;&gt;Node8 -->
<g id="edge11_Node000010_Node000008" class="edge">
<title>Node10&#45;&gt;Node8</title>
<g id="a_edge11_Node000010_Node000008"><a xlink:title=" ">
<path fill="none" stroke="#63b8ff" d="M353.31,-409.62C371.94,-414.34 392.29,-419.49 411.48,-424.36"/>
<polygon fill="#63b8ff" stroke="#63b8ff" points="410.6,-427.74 421.16,-426.81 412.32,-420.96 410.6,-427.74"/>
</a>
</g>
</g>
<!-- Node10&#45;&gt;Node9 -->
<g id="edge12_Node000010_Node000009" class="edge">
<title>Node10&#45;&gt;Node9</title>
<g id="a_edge12_Node000010_Node000009"><a xlink:title=" ">
<path fill="none" stroke="#63b8ff" d="M364.61,-392.38C377.04,-392.38 389.96,-392.38 402.58,-392.38"/>
<polygon fill="#63b8ff" stroke="#63b8ff" points="402.54,-395.88 412.54,-392.38 402.54,-388.88 402.54,-395.88"/>
</a>
</g>
</g>
<!-- Node12 -->
<g id="Node000012" class="node">
<title>Node12</title>
<g id="a_Node000012"><a xlink:href="classGreenFLayered3D.html#a6c09f9ac63d604111b76842e774c65c8" target="_top" xlink:title="Evaluate 2D interpolant at one query point.">
<polygon fill="white" stroke="#666666" points="567.75,-293.12 415.25,-293.12 415.25,-259.62 567.75,-259.62 567.75,-293.12"/>
<text xml:space="preserve" text-anchor="start" x="423.25" y="-279.62" font-family="Helvetica,sans-Serif" font-size="10.00">GreenFLayered3D::evaluate</text>
<text xml:space="preserve" text-anchor="middle" x="491.5" y="-266.88" font-family="Helvetica,sans-Serif" font-size="10.00">SinglePoint</text>
</a>
</g>
</g>
<!-- Node11&#45;&gt;Node12 -->
<g id="edge14_Node000011_Node000012" class="edge">
<title>Node11&#45;&gt;Node12</title>
<g id="a_edge14_Node000011_Node000012"><a xlink:title=" ">
<path fill="none" stroke="#63b8ff" d="M364.61,-292.32C377.43,-290.7 390.77,-289.01 403.76,-287.36"/>
<polygon fill="#63b8ff" stroke="#63b8ff" points="404.08,-290.85 413.56,-286.12 403.2,-283.91 404.08,-290.85"/>
</a>
</g>
</g>
<!-- Node13 -->
<g id="Node000013" class="node">
<title>Node13</title>
<g id="a_Node000013"><a xlink:href="GreenFLayered3D_8cpp.html#a8aa29777c4e70a4d7c032b4c6fb0387d" target="_top" xlink:title="External REGRIDPACK routine for evaluating a 2D interpolation function.">
<polygon fill="white" stroke="#666666" points="682.75,-286.75 604.5,-286.75 604.5,-266 682.75,-266 682.75,-286.75"/>
<text xml:space="preserve" text-anchor="middle" x="643.62" y="-273.25" font-family="Helvetica,sans-Serif" font-size="10.00">rgrd2_eval_c</text>
</a>
</g>
</g>
<!-- Node12&#45;&gt;Node13 -->
<g id="edge15_Node000012_Node000013" class="edge">
<title>Node12&#45;&gt;Node13</title>
<g id="a_edge15_Node000012_Node000013"><a xlink:title=" ">
<path fill="none" stroke="#63b8ff" d="M568,-276.38C576.44,-276.38 584.87,-276.38 592.87,-276.38"/>
<polygon fill="#63b8ff" stroke="#63b8ff" points="592.71,-279.88 602.71,-276.38 592.71,-272.88 592.71,-279.88"/>
</a>
</g>
</g>
<!-- Node14&#45;&gt;Node12 -->
<g id="edge17_Node000014_Node000012" class="edge">
<title>Node14&#45;&gt;Node12</title>
<g id="a_edge17_Node000014_Node000012"><a xlink:title=" ">
<path fill="none" stroke="#63b8ff" d="M364.61,-260.43C377.43,-262.05 390.77,-263.74 403.76,-265.39"/>
<polygon fill="#63b8ff" stroke="#63b8ff" points="403.2,-268.84 413.56,-266.63 404.08,-261.9 403.2,-268.84"/>
</a>
</g>
</g>
<!-- Node21&#45;&gt;Node6 -->
<g id="edge26_Node000021_Node000006" class="edge">
<title>Node21&#45;&gt;Node6</title>
<g id="a_edge26_Node000021_Node000006"><a xlink:title=" ">
<path fill="none" stroke="#63b8ff" d="M367.26,-505.16C401.07,-508.79 438,-512.75 462.53,-515.38"/>
<polygon fill="#63b8ff" stroke="#63b8ff" points="462.01,-518.84 472.32,-516.43 462.75,-511.88 462.01,-518.84"/>
</a>
</g>
</g>
</g>
</svg>
