<?xml version="1.0" encoding="UTF-8" standalone="no"?>
<!DOCTYPE svg PUBLIC "-//W3C//DTD SVG 1.1//EN"
 "http://www.w3.org/Graphics/SVG/1.1/DTD/svg11.dtd">
<!-- Generated by graphviz version 13.1.2 (20250809.0930)
 -->
<!-- Title: GreenFHom3DPer2D::EwaldSpectral Pages: 1 -->
<svg width="470pt" height="86pt"
 viewBox="0.00 0.00 470.00 86.00" xmlns="http://www.w3.org/2000/svg" xmlns:xlink="http://www.w3.org/1999/xlink">
<g id="graph0" class="graph" transform="scale(1 1) rotate(0) translate(4 81.75)">
<title>GreenFHom3DPer2D::EwaldSpectral</title>
<!-- Node1 -->
<g id="Node000001" class="node">
<title>Node1</title>
<g id="a_Node000001"><a xlink:title="Spectral (reciprocal&#45;lattice) part of Ewald sum for .">
<polygon fill="#999999" stroke="#666666" points="192.25,-39.75 0,-39.75 0,-19 192.25,-19 192.25,-39.75"/>
<text xml:space="preserve" text-anchor="middle" x="96.12" y="-26.25" font-family="Helvetica,sans-Serif" font-size="10.00">GreenFHom3DPer2D::EwaldSpectral</text>
</a>
</g>
</g>
<!-- Node2 -->
<g id="Node000002" class="node">
<title>Node2</title>
<g id="a_Node000002"><a xlink:href="group__greenFunction.html#gac0a52dce23be7dacdf97c68653b6c137" target="_top" xlink:title="Complex square root with a branch cut along the negative real axis.">
<polygon fill="white" stroke="#666666" points="291.88,-59.75 251.88,-59.75 251.88,-39 291.88,-39 291.88,-59.75"/>
<text xml:space="preserve" text-anchor="middle" x="271.88" y="-46.25" font-family="Helvetica,sans-Serif" font-size="10.00">csqrt</text>
</a>
</g>
</g>
<!-- Node1&#45;&gt;Node2 -->
<g id="edge1_Node000001_Node000002" class="edge">
<title>Node1&#45;&gt;Node2</title>
<g id="a_edge1_Node000001_Node000002"><a xlink:title=" ">
<path fill="none" stroke="#63b8ff" d="M191.37,-40.22C209.02,-42.25 226.26,-44.24 240.15,-45.84"/>
<polygon fill="#63b8ff" stroke="#63b8ff" points="239.58,-49.3 249.91,-46.96 240.38,-42.34 239.58,-49.3"/>
</a>
</g>
</g>
<!-- Node4 -->
<g id="Node000004" class="node">
<title>Node4</title>
<g id="a_Node000004"><a xlink:href="classGreenF.html#abf00726011a4eca4109bc43125218d30" target="_top" xlink:title="Evaluate erfc via the 2D lookup table if available.">
<polygon fill="white" stroke="#666666" points="315.5,-20.75 228.25,-20.75 228.25,0 315.5,0 315.5,-20.75"/>
<text xml:space="preserve" text-anchor="middle" x="271.88" y="-7.25" font-family="Helvetica,sans-Serif" font-size="10.00">GreenF::EvErfc</text>
</a>
</g>
</g>
<!-- Node1&#45;&gt;Node4 -->
<g id="edge4_Node000001_Node000004" class="edge">
<title>Node1&#45;&gt;Node4</title>
<g id="a_edge4_Node000001_Node000004"><a xlink:title=" ">
<path fill="none" stroke="#63b8ff" d="M192.64,-18.93C200.81,-18.04 208.88,-17.15 216.55,-16.32"/>
<polygon fill="#63b8ff" stroke="#63b8ff" points="216.78,-19.81 226.34,-15.24 216.02,-12.85 216.78,-19.81"/>
</a>
</g>
</g>
<!-- Node3 -->
<g id="Node000003" class="node">
<title>Node3</title>
<g id="a_Node000003"><a xlink:href="Domain_8cpp.html#aafa3e4fa6318b2f8740f4dbd50c367e5" target="_top" xlink:title="Extract the real part of each component of a complex 3&#45;vector.">
<polygon fill="white" stroke="#666666" points="388.88,-59.75 354.12,-59.75 354.12,-39 388.88,-39 388.88,-59.75"/>
<text xml:space="preserve" text-anchor="middle" x="371.5" y="-46.25" font-family="Helvetica,sans-Serif" font-size="10.00">real</text>
</a>
</g>
</g>
<!-- Node2&#45;&gt;Node3 -->
<g id="edge2_Node000002_Node000003" class="edge">
<title>Node2&#45;&gt;Node3</title>
<g id="a_edge2_Node000002_Node000003"><a xlink:title=" ">
<path fill="none" stroke="#63b8ff" d="M292.16,-49.38C306.51,-49.38 326.31,-49.38 342.41,-49.38"/>
<polygon fill="#63b8ff" stroke="#63b8ff" points="342.34,-52.88 352.34,-49.38 342.34,-45.88 342.34,-52.88"/>
</a>
</g>
</g>
<!-- Node3&#45;&gt;Node3 -->
<g id="edge3_Node000003_Node000003" class="edge">
<title>Node3&#45;&gt;Node3</title>
<g id="a_edge3_Node000003_Node000003"><a xlink:title=" ">
<path fill="none" stroke="#63b8ff" d="M359.68,-60.15C354.95,-68.81 358.89,-77.75 371.5,-77.75 378.2,-77.75 382.45,-75.23 384.26,-71.56"/>
<polygon fill="#63b8ff" stroke="#63b8ff" points="387.75,-71.34 383.45,-61.66 380.78,-71.91 387.75,-71.34"/>
</a>
</g>
</g>
<!-- Node4&#45;&gt;Node3 -->
<g id="edge7_Node000004_Node000003" class="edge">
<title>Node4&#45;&gt;Node3</title>
<g id="a_edge7_Node000004_Node000003"><a xlink:title=" ">
<path fill="none" stroke="#63b8ff" d="M300.07,-21.24C313.56,-26.63 329.8,-33.12 343.29,-38.51"/>
<polygon fill="#63b8ff" stroke="#63b8ff" points="341.86,-41.7 352.45,-42.16 344.46,-35.2 341.86,-41.7"/>
</a>
</g>
</g>
<!-- Node5 -->
<g id="Node000005" class="node">
<title>Node5</title>
<g id="a_Node000005"><a xlink:href="mathFunctions_8cpp.html#a7916c6b62310fe9cf38ec2a2890aaad4" target="_top" xlink:title="Complementary error function for complex arguments.">
<polygon fill="white" stroke="#666666" points="391.5,-20.75 351.5,-20.75 351.5,0 391.5,0 391.5,-20.75"/>
<text xml:space="preserve" text-anchor="middle" x="371.5" y="-7.25" font-family="Helvetica,sans-Serif" font-size="10.00">cerfc</text>
</a>
</g>
</g>
<!-- Node4&#45;&gt;Node5 -->
<g id="edge5_Node000004_Node000005" class="edge">
<title>Node4&#45;&gt;Node5</title>
<g id="a_edge5_Node000004_Node000005"><a xlink:title=" ">
<path fill="none" stroke="#63b8ff" d="M315.98,-10.38C323.93,-10.38 332.08,-10.38 339.58,-10.38"/>
<polygon fill="#63b8ff" stroke="#63b8ff" points="339.55,-13.88 349.55,-10.38 339.55,-6.88 339.55,-13.88"/>
</a>
</g>
</g>
<!-- Node6 -->
<g id="Node000006" class="node">
<title>Node6</title>
<g id="a_Node000006"><a xlink:href="mathFunctions_8cpp.html#abc57cde75234d7e165a9ebcdb45f2c29" target="_top" xlink:title="Error function for complex arguments.">
<polygon fill="white" stroke="#666666" points="462.25,-20.75 427.5,-20.75 427.5,0 462.25,0 462.25,-20.75"/>
<text xml:space="preserve" text-anchor="middle" x="444.88" y="-7.25" font-family="Helvetica,sans-Serif" font-size="10.00">cerf</text>
</a>
</g>
</g>
<!-- Node5&#45;&gt;Node6 -->
<g id="edge6_Node000005_Node000006" class="edge">
<title>Node5&#45;&gt;Node6</title>
<g id="a_edge6_Node000005_Node000006"><a xlink:title=" ">
<path fill="none" stroke="#63b8ff" d="M391.63,-10.38C399.06,-10.38 407.73,-10.38 415.84,-10.38"/>
<polygon fill="#63b8ff" stroke="#63b8ff" points="415.61,-13.88 425.61,-10.38 415.61,-6.88 415.61,-13.88"/>
</a>
</g>
</g>
</g>
</svg>
