<?xml version="1.0" encoding="UTF-8" standalone="no"?>
<!DOCTYPE svg PUBLIC "-//W3C//DTD SVG 1.1//EN"
 "http://www.w3.org/Graphics/SVG/1.1/DTD/svg11.dtd">
<!-- Generated by graphviz version 13.1.2 (20250809.0930)
 -->
<!-- Title: GreenFHom3D::SameTriDeltaKappa Pages: 1 -->
<!--zoomable 612 -->

<svg id="main" version="1.1" xmlns="http://www.w3.org/2000/svg" xmlns:xlink="http://www.w3.org/1999/xlink" xml:space="preserve" onload="init(evt)">

<style type="text/css"><![CDATA[
.node, .edge {opacity: 0.7;}
.node.selected, .edge.selected {opacity: 1;}
.edge:hover path { stroke: red; }
.edge:hover polygon { stroke: red; fill: red; }
]]></style>

<defs>
  <circle id="rim" cx="0" cy="0" r="7"/>
  <circle id="rim2" cx="0" cy="0" r="3.5"/>
  <g id="zoomPlus">
    <use xlink:href="#rim" fill="#404040"><set attributeName="fill" to="#808080" begin="zoomplus.mouseover" end="zoomplus.mouseout"/></use>
    <path d="M-4,0h8M0,-4v8" fill="none" stroke="white" stroke-width="1.5" pointer-events="none"/>
  </g>
  <g id="zoomMin">
    <use xlink:href="#rim" fill="#404040"><set attributeName="fill" to="#808080" begin="zoomminus.mouseover" end="zoomminus.mouseout"/></use>
    <path d="M-4,0h8" fill="none" stroke="white" stroke-width="1.5" pointer-events="none"/>
  </g>
  <g id="arrowUp" transform="translate(30 24)">
    <use xlink:href="#rim"/>
    <path pointer-events="none" fill="none" stroke="white" stroke-width="1.5" d="M0,-3.0v7 M-2.5,-0.5L0,-3.0L2.5,-0.5"/>
  </g>
  <g id="arrowRight" transform="rotate(90) translate(36 -43)">
    <use xlink:href="#rim"/>
    <path pointer-events="none" fill="none" stroke="white" stroke-width="1.5" d="M0,-3.0v7 M-2.5,-0.5L0,-3.0L2.5,-0.5"/>
  </g>
  <g id="arrowDown" transform="rotate(180) translate(-30 -48)">
    <use xlink:href="#rim"/>
    <path pointer-events="none" fill="none" stroke="white" stroke-width="1.5" d="M0,-3.0v7 M-2.5,-0.5L0,-3.0L2.5,-0.5"/>
  </g>
  <g id="arrowLeft" transform="rotate(270) translate(-36 17)">
    <use xlink:href="#rim"/>
    <path pointer-events="none" fill="none" stroke="white" stroke-width="1.5" d="M0,-3.0v7 M-2.5,-0.5L0,-3.0L2.5,-0.5"/>
  </g>
  <g id="resetDef">
    <use xlink:href="#rim2" fill="#404040"><set attributeName="fill" to="#808080" begin="reset.mouseover" end="reset.mouseout"/></use>
  </g>
</defs>
<script type="application/ecmascript">
var viewWidth = 663;
var viewHeight = 612;
var sectionId = 'dynsection-19';
</script>
<script type="application/ecmascript" xlink:href="svg.min.js"/>
<svg id="graph" class="graph">
<g id="viewport">
<title>GreenFHom3D::SameTriDeltaKappa</title>
<!-- Node1 -->
<g id="Node000001" class="node">
<title>Node1</title>
<g id="a_Node000001"><a xlink:title="Compute &#160;for all RWGs on a source triangle.">
<polygon fill="#999999" stroke="#666666" points="159.25,-317.12 0,-317.12 0,-283.62 159.25,-283.62 159.25,-317.12"/>
<text xml:space="preserve" text-anchor="start" x="8" y="-303.62" font-family="Helvetica,sans-Serif" font-size="10.00">GreenFHom3D::SameTriDelta</text>
<text xml:space="preserve" text-anchor="middle" x="79.62" y="-290.88" font-family="Helvetica,sans-Serif" font-size="10.00">Kappa</text>
</a>
</g>
</g>
<!-- Node2 -->
<g id="Node000002" class="node">
<title>Node2</title>
<g id="a_Node000002"><a xlink:href="classTriangle.html#a1d3d08deeb999f339d2e821a877521ba" target="_top" xlink:title="Surface area of the triangle.">
<polygon fill="white" stroke="#666666" points="329.38,-603.75 246.62,-603.75 246.62,-583 329.38,-583 329.38,-603.75"/>
<text xml:space="preserve" text-anchor="middle" x="288" y="-590.25" font-family="Helvetica,sans-Serif" font-size="10.00">Triangle::Area</text>
</a>
</g>
</g>
<!-- Node1&#45;&gt;Node2 -->
<g id="edge1_Node000001_Node000002" class="edge">
<title>Node1&#45;&gt;Node2</title>
<g id="a_edge1_Node000001_Node000002"><a xlink:title=" ">
<path fill="none" stroke="#63b8ff" d="M82.4,-317.31C88.41,-365.52 112.46,-504.5 195.25,-573.38 206.42,-582.67 220.95,-587.92 235.13,-590.81"/>
<polygon fill="#63b8ff" stroke="#63b8ff" points="234.43,-594.24 244.86,-592.41 235.56,-587.33 234.43,-594.24"/>
</a>
</g>
</g>
<!-- Node3 -->
<g id="Node000003" class="node">
<title>Node3</title>
<g id="a_Node000003"><a xlink:href="classTriangle.html#ab78508a340ec5d345adf114b43563dbf" target="_top" xlink:title="Centroid of the triangle.">
<polygon fill="white" stroke="#666666" points="334.25,-564.75 241.75,-564.75 241.75,-544 334.25,-544 334.25,-564.75"/>
<text xml:space="preserve" text-anchor="middle" x="288" y="-551.25" font-family="Helvetica,sans-Serif" font-size="10.00">Triangle::Center</text>
</a>
</g>
</g>
<!-- Node1&#45;&gt;Node3 -->
<g id="edge2_Node000001_Node000003" class="edge">
<title>Node1&#45;&gt;Node3</title>
<g id="a_edge2_Node000001_Node000003"><a xlink:title=" ">
<path fill="none" stroke="#63b8ff" d="M83.71,-317.4C92.53,-360.96 122.09,-477.01 195.25,-534.38 205.37,-542.31 217.97,-547.25 230.55,-550.3"/>
<polygon fill="#63b8ff" stroke="#63b8ff" points="229.57,-553.67 240.06,-552.21 230.95,-546.81 229.57,-553.67"/>
</a>
</g>
</g>
<!-- Node4 -->
<g id="Node000004" class="node">
<title>Node4</title>
<g id="a_Node000004"><a xlink:href="classSingSub.html#a9d74100325023b4d1c156bd97ae240b3" target="_top" xlink:title="Update only the RWG/triangle; keep the same observation point r.">
<polygon fill="white" stroke="#666666" points="368,-525.75 208,-525.75 208,-505 368,-505 368,-525.75"/>
<text xml:space="preserve" text-anchor="middle" x="288" y="-512.25" font-family="Helvetica,sans-Serif" font-size="10.00">SingSub::ChangeTriangleRWG</text>
</a>
</g>
</g>
<!-- Node1&#45;&gt;Node4 -->
<g id="edge3_Node000001_Node000004" class="edge">
<title>Node1&#45;&gt;Node4</title>
<g id="a_edge3_Node000001_Node000004"><a xlink:title=" ">
<path fill="none" stroke="#63b8ff" d="M85.46,-317.38C97.29,-355.73 131.49,-449.18 195.25,-495.38 197.34,-496.89 199.53,-498.3 201.78,-499.6"/>
<polygon fill="#63b8ff" stroke="#63b8ff" points="200.21,-502.72 210.73,-504 203.3,-496.44 200.21,-502.72"/>
</a>
</g>
</g>
<!-- Node5 -->
<g id="Node000005" class="node">
<title>Node5</title>
<g id="a_Node000005"><a xlink:href="classGreenFHom3D.html#a049e83f08bff1b6c003a35f478973609" target="_top" xlink:title="Scalar Green&#39;s function .">
<polygon fill="white" stroke="#666666" points="356.38,-486.75 219.62,-486.75 219.62,-466 356.38,-466 356.38,-486.75"/>
<text xml:space="preserve" text-anchor="middle" x="288" y="-473.25" font-family="Helvetica,sans-Serif" font-size="10.00">GreenFHom3D::Evaluate</text>
</a>
</g>
</g>
<!-- Node1&#45;&gt;Node5 -->
<g id="edge4_Node000001_Node000005" class="edge">
<title>Node1&#45;&gt;Node5</title>
<g id="a_edge4_Node000001_Node000005"><a xlink:title=" ">
<path fill="none" stroke="#63b8ff" d="M88.03,-317.4C103.13,-349.96 140.71,-420.96 195.25,-456.38 199.52,-459.15 204.11,-461.54 208.88,-463.61"/>
<polygon fill="#63b8ff" stroke="#63b8ff" points="207.56,-466.85 218.15,-467.09 210.02,-460.29 207.56,-466.85"/>
</a>
</g>
</g>
<!-- Node6 -->
<g id="Node000006" class="node">
<title>Node6</title>
<g id="a_Node000006"><a xlink:href="classRWGFun.html#a7540ce2f84c6b42a29c2808504c47d42" target="_top" xlink:title="Evaluate the RWG vector shape function at a point on the triangle.">
<polygon fill="white" stroke="#666666" points="341,-447.75 235,-447.75 235,-427 341,-427 341,-447.75"/>
<text xml:space="preserve" text-anchor="middle" x="288" y="-434.25" font-family="Helvetica,sans-Serif" font-size="10.00">RWGFun::Evaluate</text>
</a>
</g>
</g>
<!-- Node1&#45;&gt;Node6 -->
<g id="edge5_Node000001_Node000006" class="edge">
<title>Node1&#45;&gt;Node6</title>
<g id="a_edge5_Node000001_Node000006"><a xlink:title=" ">
<path fill="none" stroke="#63b8ff" d="M92.16,-317.35C110.71,-343.23 149.71,-392.19 195.25,-417.38 203.96,-422.19 213.73,-425.85 223.56,-428.62"/>
<polygon fill="#63b8ff" stroke="#63b8ff" points="222.61,-431.99 233.16,-431.03 224.31,-425.2 222.61,-431.99"/>
</a>
</g>
</g>
<!-- Node7 -->
<g id="Node000007" class="node">
<title>Node7</title>
<g id="a_Node000007"><a xlink:href="classGreenFHom3D.html#a30fa3b981731ca85587da62ed511f547" target="_top" xlink:title="Gradient w.r.t.">
<polygon fill="white" stroke="#666666" points="356,-408.75 220,-408.75 220,-388 356,-388 356,-408.75"/>
<text xml:space="preserve" text-anchor="middle" x="288" y="-395.25" font-family="Helvetica,sans-Serif" font-size="10.00">GreenFHom3D::Gradient</text>
</a>
</g>
</g>
<!-- Node1&#45;&gt;Node7 -->
<g id="edge6_Node000001_Node000007" class="edge">
<title>Node1&#45;&gt;Node7</title>
<g id="a_edge6_Node000001_Node000007"><a xlink:title=" ">
<path fill="none" stroke="#63b8ff" d="M100.35,-317.31C122.14,-335.16 158.98,-362.78 195.25,-378.38 200.45,-380.61 205.93,-382.61 211.52,-384.39"/>
<polygon fill="#63b8ff" stroke="#63b8ff" points="210.31,-387.69 220.89,-387.14 212.28,-380.97 210.31,-387.69"/>
</a>
</g>
</g>
<!-- Node8 -->
<g id="Node000008" class="node">
<title>Node8</title>
<g id="a_Node000008"><a xlink:href="classGreenFHom3D.html#a39ccf7f27bff59110fb0d667bb74146f" target="_top" xlink:title="Smoothed gradient kernel.">
<polygon fill="white" stroke="#666666" points="380.75,-369.75 195.25,-369.75 195.25,-349 380.75,-349 380.75,-369.75"/>
<text xml:space="preserve" text-anchor="middle" x="288" y="-356.25" font-family="Helvetica,sans-Serif" font-size="10.00">GreenFHom3D::GradientSmoothed</text>
</a>
</g>
</g>
<!-- Node1&#45;&gt;Node8 -->
<g id="edge7_Node000001_Node000008" class="edge">
<title>Node1&#45;&gt;Node8</title>
<g id="a_edge7_Node000001_Node000008"><a xlink:title=" ">
<path fill="none" stroke="#63b8ff" d="M127.37,-317.62C148.01,-324.89 172.67,-333.09 195.25,-339.38 203.64,-341.71 212.53,-343.94 221.34,-346.01"/>
<polygon fill="#63b8ff" stroke="#63b8ff" points="220.41,-349.39 230.94,-348.2 221.97,-342.56 220.41,-349.39"/>
</a>
</g>
</g>
<!-- Node9 -->
<g id="Node000009" class="node">
<title>Node9</title>
<g id="a_Node000009"><a xlink:href="classGreenFHom3D.html#ac928f16e6e79c75c002d9a721a8858d8" target="_top" xlink:title="Default constructor (initializes with zeroed wavenumber and no lookup table).">
<polygon fill="white" stroke="#666666" points="371,-330.75 205,-330.75 205,-310 371,-310 371,-330.75"/>
<text xml:space="preserve" text-anchor="middle" x="288" y="-317.25" font-family="Helvetica,sans-Serif" font-size="10.00">GreenFHom3D::GreenFHom3D</text>
</a>
</g>
</g>
<!-- Node1&#45;&gt;Node9 -->
<g id="edge8_Node000001_Node000009" class="edge">
<title>Node1&#45;&gt;Node9</title>
<g id="a_edge8_Node000001_Node000009"><a xlink:title=" ">
<path fill="none" stroke="#63b8ff" d="M159.53,-308.02C170.62,-309.1 182.12,-310.21 193.45,-311.31"/>
<polygon fill="#63b8ff" stroke="#63b8ff" points="192.92,-314.77 203.21,-312.25 193.59,-307.81 192.92,-314.77"/>
</a>
</g>
</g>
<!-- Node13 -->
<g id="Node000013" class="node">
<title>Node13</title>
<g id="a_Node000013"><a xlink:href="classSingSub.html#aed0bb257cd3c94dccd5b6cc0ecdd1c5e" target="_top" xlink:title="K2(q) vector term.">
<polygon fill="white" stroke="#666666" points="324.88,-291.75 251.12,-291.75 251.12,-271 324.88,-271 324.88,-291.75"/>
<text xml:space="preserve" text-anchor="middle" x="288" y="-278.25" font-family="Helvetica,sans-Serif" font-size="10.00">SingSub::K2</text>
</a>
</g>
</g>
<!-- Node1&#45;&gt;Node13 -->
<g id="edge13_Node000001_Node000013" class="edge">
<title>Node1&#45;&gt;Node13</title>
<g id="a_edge13_Node000001_Node000013"><a xlink:title=" ">
<path fill="none" stroke="#63b8ff" d="M159.53,-293.11C186.52,-290.63 215.86,-287.92 239.58,-285.74"/>
<polygon fill="#63b8ff" stroke="#63b8ff" points="239.59,-289.25 249.23,-284.85 238.95,-282.28 239.59,-289.25"/>
</a>
</g>
</g>
<!-- Node14 -->
<g id="Node000014" class="node">
<title>Node14</title>
<g id="a_Node000014"><a xlink:href="classSingSub.html#a3e9e0b5a61df98d8f8138544c7df3da0" target="_top" xlink:title="K3(q) vector term.">
<polygon fill="white" stroke="#666666" points="499.5,-234.75 425.75,-234.75 425.75,-214 499.5,-214 499.5,-234.75"/>
<text xml:space="preserve" text-anchor="middle" x="462.62" y="-221.25" font-family="Helvetica,sans-Serif" font-size="10.00">SingSub::K3</text>
</a>
</g>
</g>
<!-- Node1&#45;&gt;Node14 -->
<g id="edge14_Node000001_Node000014" class="edge">
<title>Node1&#45;&gt;Node14</title>
<g id="a_edge14_Node000001_Node000014"><a xlink:title=" ">
<path fill="none" stroke="#63b8ff" d="M126.38,-283.13C147.15,-275.84 172.19,-267.8 195.25,-262.38 270.87,-244.6 360.65,-233.88 414.28,-228.55"/>
<polygon fill="#63b8ff" stroke="#63b8ff" points="414.36,-232.06 423.98,-227.61 413.69,-225.09 414.36,-232.06"/>
</a>
</g>
</g>
<!-- Node15 -->
<g id="Node000015" class="node">
<title>Node15</title>
<g id="a_Node000015"><a xlink:href="classSingSub.html#ab61a21e3498d2d6a4c0796254cf126ed" target="_top" xlink:title="K4(q) vector term.">
<polygon fill="white" stroke="#666666" points="324.88,-215.75 251.12,-215.75 251.12,-195 324.88,-195 324.88,-215.75"/>
<text xml:space="preserve" text-anchor="middle" x="288" y="-202.25" font-family="Helvetica,sans-Serif" font-size="10.00">SingSub::K4</text>
</a>
</g>
</g>
<!-- Node1&#45;&gt;Node15 -->
<g id="edge15_Node000001_Node000015" class="edge">
<title>Node1&#45;&gt;Node15</title>
<g id="a_edge15_Node000001_Node000015"><a xlink:title=" ">
<path fill="none" stroke="#63b8ff" d="M103.64,-283.23C126.01,-267.28 161.47,-243.86 195.25,-229.38 209.36,-223.32 225.36,-218.5 240,-214.8"/>
<polygon fill="#63b8ff" stroke="#63b8ff" points="240.5,-218.28 249.41,-212.55 238.87,-211.48 240.5,-218.28"/>
</a>
</g>
</g>
<!-- Node16 -->
<g id="Node000016" class="node">
<title>Node16</title>
<g id="a_Node000016"><a xlink:href="classTriangle.html#a0752d2c9488c7c44b851b8f75abcaa79" target="_top" xlink:title="Node position (by value) for local index 0..2.">
<polygon fill="white" stroke="#666666" points="330.88,-176.75 245.12,-176.75 245.12,-156 330.88,-156 330.88,-176.75"/>
<text xml:space="preserve" text-anchor="middle" x="288" y="-163.25" font-family="Helvetica,sans-Serif" font-size="10.00">Triangle::Node</text>
</a>
</g>
</g>
<!-- Node1&#45;&gt;Node16 -->
<g id="edge17_Node000001_Node000016" class="edge">
<title>Node1&#45;&gt;Node16</title>
<g id="a_edge17_Node000001_Node000016"><a xlink:title=" ">
<path fill="none" stroke="#63b8ff" d="M92.58,-283.43C111.38,-258.12 150.39,-210.8 195.25,-186.38 207.11,-179.92 220.89,-175.55 234.12,-172.59"/>
<polygon fill="#63b8ff" stroke="#63b8ff" points="234.43,-176.09 243.56,-170.71 233.07,-169.23 234.43,-176.09"/>
</a>
</g>
</g>
<!-- Node17 -->
<g id="Node000017" class="node">
<title>Node17</title>
<g id="a_Node000017"><a xlink:href="classTriangle.html#a6e7daa074db3d147b33763bfd2a6e83b" target="_top" xlink:title="Perimeter (sum of edge lengths).">
<polygon fill="white" stroke="#666666" points="342.12,-137.75 233.88,-137.75 233.88,-117 342.12,-117 342.12,-137.75"/>
<text xml:space="preserve" text-anchor="middle" x="288" y="-124.25" font-family="Helvetica,sans-Serif" font-size="10.00">Triangle::Perimeter</text>
</a>
</g>
</g>
<!-- Node1&#45;&gt;Node17 -->
<g id="edge18_Node000001_Node000017" class="edge">
<title>Node1&#45;&gt;Node17</title>
<g id="a_edge18_Node000001_Node000017"><a xlink:title=" ">
<path fill="none" stroke="#63b8ff" d="M88.24,-283.43C103.58,-251.38 141.36,-182.01 195.25,-147.38 203.52,-142.06 212.99,-138.14 222.62,-135.25"/>
<polygon fill="#63b8ff" stroke="#63b8ff" points="223.27,-138.7 232.06,-132.79 221.5,-131.93 223.27,-138.7"/>
</a>
</g>
</g>
<!-- Node18 -->
<g id="Node000018" class="node">
<title>Node18</title>
<g id="a_Node000018"><a xlink:href="classRWGFun.html#a7cd7779305937d48196453e53d0d4df8" target="_top" xlink:title="Return L_n / A_n (missing factor 1/2 by convention).">
<polygon fill="white" stroke="#666666" points="354.12,-98.75 221.88,-98.75 221.88,-78 354.12,-78 354.12,-98.75"/>
<text xml:space="preserve" text-anchor="middle" x="288" y="-85.25" font-family="Helvetica,sans-Serif" font-size="10.00">RWGFun::RWGPreFactor</text>
</a>
</g>
</g>
<!-- Node1&#45;&gt;Node18 -->
<g id="edge19_Node000001_Node000018" class="edge">
<title>Node1&#45;&gt;Node18</title>
<g id="a_edge19_Node000001_Node000018"><a xlink:title=" ">
<path fill="none" stroke="#63b8ff" d="M85.63,-283.34C97.71,-245.4 132.22,-153.72 195.25,-108.38 200.01,-104.95 205.24,-102.1 210.72,-99.72"/>
<polygon fill="#63b8ff" stroke="#63b8ff" points="211.93,-103 220.08,-96.23 209.48,-96.44 211.93,-103"/>
</a>
</g>
</g>
<!-- Node19 -->
<g id="Node000019" class="node">
<title>Node19</title>
<g id="a_Node000019"><a xlink:href="classSingSub.html#a20337fe20529d26c1775c8ba6d47cad0" target="_top" xlink:title="Preferred initialization that fills all cached arrays (ILar/ISar).">
<polygon fill="white" stroke="#666666" points="357.5,-59.75 218.5,-59.75 218.5,-39 357.5,-39 357.5,-59.75"/>
<text xml:space="preserve" text-anchor="middle" x="288" y="-46.25" font-family="Helvetica,sans-Serif" font-size="10.00">SingSub::SetTriangleRWG</text>
</a>
</g>
</g>
<!-- Node1&#45;&gt;Node19 -->
<g id="edge20_Node000001_Node000019" class="edge">
<title>Node1&#45;&gt;Node19</title>
<g id="a_edge20_Node000001_Node000019"><a xlink:title=" ">
<path fill="none" stroke="#63b8ff" d="M83.84,-283.24C92.91,-239.99 122.88,-125.82 195.25,-69.38 199.19,-66.3 203.5,-63.68 208.04,-61.44"/>
<polygon fill="#63b8ff" stroke="#63b8ff" points="209.02,-64.83 216.88,-57.72 206.3,-58.37 209.02,-64.83"/>
</a>
</g>
</g>
<!-- Node20 -->
<g id="Node000020" class="node">
<title>Node20</title>
<g id="a_Node000020"><a xlink:href="classGreenFHom3D.html#adff9d901394dd07c05a111b607c89075" target="_top" xlink:title="Smoothed scalar kernel used under singularity subtraction.">
<polygon fill="white" stroke="#666666" points="359.75,-20.75 216.25,-20.75 216.25,0 359.75,0 359.75,-20.75"/>
<text xml:space="preserve" text-anchor="middle" x="288" y="-7.25" font-family="Helvetica,sans-Serif" font-size="10.00">GreenFHom3D::Smoothed</text>
</a>
</g>
</g>
<!-- Node1&#45;&gt;Node20 -->
<g id="edge21_Node000001_Node000020" class="edge">
<title>Node1&#45;&gt;Node20</title>
<g id="a_edge21_Node000001_Node000020"><a xlink:title=" ">
<path fill="none" stroke="#63b8ff" d="M82.51,-283.28C88.76,-235.27 113.3,-98.28 195.25,-30.38 198.52,-27.67 202.07,-25.3 205.81,-23.24"/>
<polygon fill="#63b8ff" stroke="#63b8ff" points="207.14,-26.48 214.74,-19.1 204.2,-20.13 207.14,-26.48"/>
</a>
</g>
</g>
<!-- Node10 -->
<g id="Node000010" class="node">
<title>Node10</title>
<g id="a_Node000010"><a xlink:href="classGreenF.html#a332ac24f39288170f77c18f37fde2c82" target="_top" xlink:title="Constructor for a homogeneous, non&#45;magnetic medium.">
<polygon fill="white" stroke="#666666" points="508.5,-330.75 416.75,-330.75 416.75,-310 508.5,-310 508.5,-330.75"/>
<text xml:space="preserve" text-anchor="middle" x="462.62" y="-317.25" font-family="Helvetica,sans-Serif" font-size="10.00">GreenF::GreenF</text>
</a>
</g>
</g>
<!-- Node9&#45;&gt;Node10 -->
<g id="edge9_Node000009_Node000010" class="edge">
<title>Node9&#45;&gt;Node10</title>
<g id="a_edge9_Node000009_Node000010"><a xlink:title=" ">
<path fill="none" stroke="#63b8ff" d="M371.27,-320.38C382.75,-320.38 394.32,-320.38 405.18,-320.38"/>
<polygon fill="#63b8ff" stroke="#63b8ff" points="405.12,-323.88 415.12,-320.38 405.12,-316.88 405.12,-323.88"/>
</a>
</g>
</g>
<!-- Node11 -->
<g id="Node000011" class="node">
<title>Node11</title>
<g id="a_Node000011"><a xlink:href="group__greenFunction.html#gac0a52dce23be7dacdf97c68653b6c137" target="_top" xlink:title="Complex square root with a branch cut along the negative real axis.">
<polygon fill="white" stroke="#666666" points="584.5,-330.75 544.5,-330.75 544.5,-310 584.5,-310 584.5,-330.75"/>
<text xml:space="preserve" text-anchor="middle" x="564.5" y="-317.25" font-family="Helvetica,sans-Serif" font-size="10.00">csqrt</text>
</a>
</g>
</g>
<!-- Node10&#45;&gt;Node11 -->
<g id="edge10_Node000010_Node000011" class="edge">
<title>Node10&#45;&gt;Node11</title>
<g id="a_edge10_Node000010_Node000011"><a xlink:title=" ">
<path fill="none" stroke="#63b8ff" d="M508.89,-320.38C516.92,-320.38 525.11,-320.38 532.63,-320.38"/>
<polygon fill="#63b8ff" stroke="#63b8ff" points="532.61,-323.88 542.61,-320.38 532.61,-316.88 532.61,-323.88"/>
</a>
</g>
</g>
<!-- Node12 -->
<g id="Node000012" class="node">
<title>Node12</title>
<g id="a_Node000012"><a xlink:href="Domain_8cpp.html#aafa3e4fa6318b2f8740f4dbd50c367e5" target="_top" xlink:title="Extract the real part of each component of a complex 3&#45;vector.">
<polygon fill="white" stroke="#666666" points="655.25,-330.75 620.5,-330.75 620.5,-310 655.25,-310 655.25,-330.75"/>
<text xml:space="preserve" text-anchor="middle" x="637.88" y="-317.25" font-family="Helvetica,sans-Serif" font-size="10.00">real</text>
</a>
</g>
</g>
<!-- Node11&#45;&gt;Node12 -->
<g id="edge11_Node000011_Node000012" class="edge">
<title>Node11&#45;&gt;Node12</title>
<g id="a_edge11_Node000011_Node000012"><a xlink:title=" ">
<path fill="none" stroke="#63b8ff" d="M584.63,-320.38C592.06,-320.38 600.73,-320.38 608.84,-320.38"/>
<polygon fill="#63b8ff" stroke="#63b8ff" points="608.61,-323.88 618.61,-320.38 608.61,-316.88 608.61,-323.88"/>
</a>
</g>
</g>
<!-- Node12&#45;&gt;Node12 -->
<g id="edge12_Node000012_Node000012" class="edge">
<title>Node12&#45;&gt;Node12</title>
<g id="a_edge12_Node000012_Node000012"><a xlink:title=" ">
<path fill="none" stroke="#63b8ff" d="M626.05,-331.15C621.32,-339.81 625.26,-348.75 637.88,-348.75 644.57,-348.75 648.83,-346.23 650.63,-342.56"/>
<polygon fill="#63b8ff" stroke="#63b8ff" points="654.13,-342.34 649.82,-332.66 647.15,-342.91 654.13,-342.34"/>
</a>
</g>
</g>
<!-- Node15&#45;&gt;Node14 -->
<g id="edge16_Node000015_Node000014" class="edge">
<title>Node15&#45;&gt;Node14</title>
<g id="a_edge16_Node000015_Node000014"><a xlink:title=" ">
<path fill="none" stroke="#63b8ff" d="M325.19,-209.36C351.08,-212.21 386.19,-216.07 414.3,-219.17"/>
<polygon fill="#63b8ff" stroke="#63b8ff" points="413.66,-222.62 423.98,-220.23 414.42,-215.66 413.66,-222.62"/>
</a>
</g>
</g>
</g>
</svg>

<g id="navigator" transform="translate(0 0)" fill="#404254">
  <rect fill="#f2f5e9" fill-opacity="0.5" stroke="#606060" stroke-width=".5" x="0" y="0" width="60" height="60"/>
  <use id="zoomplus" xlink:href="#zoomPlus" x="17" y="9" onmousedown="handleZoom(evt,'in')"/>
  <use id="zoomminus" xlink:href="#zoomMin" x="42" y="9" onmousedown="handleZoom(evt,'out')"/>
  <use id="reset" xlink:href="#resetDef" x="30" y="36" onmousedown="handleReset()"/>
   <use id="arrowup" xlink:href="#arrowUp" x="0" y="0" onmousedown="handlePan(0,-1)"/>
  <use id="arrowright" xlink:href="#arrowRight" x="0" y="0" onmousedown="handlePan(1,0)"/>
  <use id="arrowdown" xlink:href="#arrowDown" x="0" y="0" onmousedown="handlePan(0,1)"/>
  <use id="arrowleft" xlink:href="#arrowLeft" x="0" y="0" onmousedown="handlePan(-1,0)"/>
</g>
<svg viewBox="0 0 15 15" width="100%" height="30px" preserveAspectRatio="xMaxYMin meet">
 <g id="arrow_out" transform="scale(0.3 0.3)">
  <a xlink:href="classGreenFHom3D_a48e8471aabb445e0e50a01c005ff3b98_cgraph_org.svg" target="_base">
   <rect id="button" ry="5" rx="5" y="6" x="6" height="38" width="38"
        fill="#f2f5e9" fill-opacity="0.5" stroke="#606060" stroke-width="1.0"/>
   <path id="arrow"
     d="M 11.500037,31.436501 C 11.940474,20.09759 22.043105,11.32322 32.158766,21.979434 L 37.068811,17.246167 C 37.068811,17.246167 37.088388,32 37.088388,32 L 22.160133,31.978069 C 22.160133,31.978069 26.997745,27.140456 26.997745,27.140456 C 18.528582,18.264221 13.291696,25.230495 11.500037,31.436501 z"
     style="fill:#404040;"/>
  </a>
 </g>
</svg>

<style type='text/css'>
<![CDATA[
[data-mouse-over-selected='false'] { opacity: 0.7; }
[data-mouse-over-selected='true']  { opacity: 1.0; }
]]>
</style>
<script type="application/ecmascript"><![CDATA[
document.addEventListener('DOMContentLoaded', (event) => {
  highlightEdges();
  highlightAdjacentNodes();
});
]]></script>
</svg>
