<?xml version="1.0" encoding="UTF-8" standalone="no"?>
<!DOCTYPE svg PUBLIC "-//W3C//DTD SVG 1.1//EN"
 "http://www.w3.org/Graphics/SVG/1.1/DTD/svg11.dtd">
<!-- Generated by graphviz version 13.1.2 (20250809.0930)
 -->
<!-- Title: GreenFLayered3D::SameTriDK Pages: 1 -->
<!--zoomable 629 -->

<svg id="main" version="1.1" xmlns="http://www.w3.org/2000/svg" xmlns:xlink="http://www.w3.org/1999/xlink" xml:space="preserve" onload="init(evt)">

<style type="text/css"><![CDATA[
.node, .edge {opacity: 0.7;}
.node.selected, .edge.selected {opacity: 1;}
.edge:hover path { stroke: red; }
.edge:hover polygon { stroke: red; fill: red; }
]]></style>

<defs>
  <circle id="rim" cx="0" cy="0" r="7"/>
  <circle id="rim2" cx="0" cy="0" r="3.5"/>
  <g id="zoomPlus">
    <use xlink:href="#rim" fill="#404040"><set attributeName="fill" to="#808080" begin="zoomplus.mouseover" end="zoomplus.mouseout"/></use>
    <path d="M-4,0h8M0,-4v8" fill="none" stroke="white" stroke-width="1.5" pointer-events="none"/>
  </g>
  <g id="zoomMin">
    <use xlink:href="#rim" fill="#404040"><set attributeName="fill" to="#808080" begin="zoomminus.mouseover" end="zoomminus.mouseout"/></use>
    <path d="M-4,0h8" fill="none" stroke="white" stroke-width="1.5" pointer-events="none"/>
  </g>
  <g id="arrowUp" transform="translate(30 24)">
    <use xlink:href="#rim"/>
    <path pointer-events="none" fill="none" stroke="white" stroke-width="1.5" d="M0,-3.0v7 M-2.5,-0.5L0,-3.0L2.5,-0.5"/>
  </g>
  <g id="arrowRight" transform="rotate(90) translate(36 -43)">
    <use xlink:href="#rim"/>
    <path pointer-events="none" fill="none" stroke="white" stroke-width="1.5" d="M0,-3.0v7 M-2.5,-0.5L0,-3.0L2.5,-0.5"/>
  </g>
  <g id="arrowDown" transform="rotate(180) translate(-30 -48)">
    <use xlink:href="#rim"/>
    <path pointer-events="none" fill="none" stroke="white" stroke-width="1.5" d="M0,-3.0v7 M-2.5,-0.5L0,-3.0L2.5,-0.5"/>
  </g>
  <g id="arrowLeft" transform="rotate(270) translate(-36 17)">
    <use xlink:href="#rim"/>
    <path pointer-events="none" fill="none" stroke="white" stroke-width="1.5" d="M0,-3.0v7 M-2.5,-0.5L0,-3.0L2.5,-0.5"/>
  </g>
  <g id="resetDef">
    <use xlink:href="#rim2" fill="#404040"><set attributeName="fill" to="#808080" begin="reset.mouseover" end="reset.mouseout"/></use>
  </g>
</defs>
<script type="application/ecmascript">
var viewWidth = 927;
var viewHeight = 629;
var sectionId = 'dynsection-34';
</script>
<script type="application/ecmascript" xlink:href="svg.min.js"/>
<svg id="graph" class="graph">
<g id="viewport">
<title>GreenFLayered3D::SameTriDK</title>
<!-- Node1 -->
<g id="Node000001" class="node">
<title>Node1</title>
<g id="a_Node000001"><a xlink:title="Triangle–triangle D/K blocks assembly for all RWG pairs on two triangles.">
<polygon fill="#999999" stroke="#666666" points="163,-318.75 0,-318.75 0,-298 163,-298 163,-318.75"/>
<text xml:space="preserve" text-anchor="middle" x="81.5" y="-305.25" font-family="Helvetica,sans-Serif" font-size="10.00">GreenFLayered3D::SameTriDK</text>
</a>
</g>
</g>
<!-- Node2 -->
<g id="Node000002" class="node">
<title>Node2</title>
<g id="a_Node000002"><a xlink:href="classGreenFLayered3D.html#a44686db66fc60d5a0f7613f692a73a28" target="_top" xlink:title="Checks whether the given positions exceed a predefined distance threshold.">
<polygon fill="white" stroke="#666666" points="387.5,-620.75 199,-620.75 199,-600 387.5,-600 387.5,-620.75"/>
<text xml:space="preserve" text-anchor="middle" x="293.25" y="-607.25" font-family="Helvetica,sans-Serif" font-size="10.00">GreenFLayered3D::AboveThreshold</text>
</a>
</g>
</g>
<!-- Node1&#45;&gt;Node2 -->
<g id="edge1_Node000001_Node000002" class="edge">
<title>Node1&#45;&gt;Node2</title>
<g id="a_edge1_Node000001_Node000002"><a xlink:title=" ">
<path fill="none" stroke="#63b8ff" d="M83.45,-319.11C87.79,-361.12 109.5,-515.73 199,-590.38 200.53,-591.65 202.12,-592.85 203.77,-593.98"/>
<polygon fill="#63b8ff" stroke="#63b8ff" points="201.98,-596.99 212.39,-598.94 205.47,-590.92 201.98,-596.99"/>
</a>
</g>
</g>
<!-- Node3 -->
<g id="Node000003" class="node">
<title>Node3</title>
<g id="a_Node000003"><a xlink:href="classTriangle.html#a1d3d08deeb999f339d2e821a877521ba" target="_top" xlink:title="Surface area of the triangle.">
<polygon fill="white" stroke="#666666" points="334.62,-581.75 251.88,-581.75 251.88,-561 334.62,-561 334.62,-581.75"/>
<text xml:space="preserve" text-anchor="middle" x="293.25" y="-568.25" font-family="Helvetica,sans-Serif" font-size="10.00">Triangle::Area</text>
</a>
</g>
</g>
<!-- Node1&#45;&gt;Node3 -->
<g id="edge2_Node000001_Node000003" class="edge">
<title>Node1&#45;&gt;Node3</title>
<g id="a_edge2_Node000001_Node000003"><a xlink:title=" ">
<path fill="none" stroke="#63b8ff" d="M84.24,-319.2C91,-357.63 119.27,-488.53 199,-551.38 210.81,-560.69 225.98,-565.91 240.64,-568.77"/>
<polygon fill="#63b8ff" stroke="#63b8ff" points="239.77,-572.17 250.19,-570.29 240.87,-565.26 239.77,-572.17"/>
</a>
</g>
</g>
<!-- Node4 -->
<g id="Node000004" class="node">
<title>Node4</title>
<g id="a_Node000004"><a xlink:href="classTriangle.html#ab78508a340ec5d345adf114b43563dbf" target="_top" xlink:title="Centroid of the triangle.">
<polygon fill="white" stroke="#666666" points="339.5,-542.75 247,-542.75 247,-522 339.5,-522 339.5,-542.75"/>
<text xml:space="preserve" text-anchor="middle" x="293.25" y="-529.25" font-family="Helvetica,sans-Serif" font-size="10.00">Triangle::Center</text>
</a>
</g>
</g>
<!-- Node1&#45;&gt;Node4 -->
<g id="edge3_Node000001_Node000004" class="edge">
<title>Node1&#45;&gt;Node4</title>
<g id="a_edge3_Node000001_Node000004"><a xlink:title=" ">
<path fill="none" stroke="#63b8ff" d="M85.19,-318.88C94.48,-352.91 128.56,-460.84 199,-512.38 209.65,-520.16 222.7,-525.04 235.62,-528.07"/>
<polygon fill="#63b8ff" stroke="#63b8ff" points="234.92,-531.49 245.4,-529.98 236.26,-524.62 234.92,-531.49"/>
</a>
</g>
</g>
<!-- Node5 -->
<g id="Node000005" class="node">
<title>Node5</title>
<g id="a_Node000005"><a xlink:href="group__greenFunction.html#gac0a52dce23be7dacdf97c68653b6c137" target="_top" xlink:title="Complex square root with a branch cut along the negative real axis.">
<polygon fill="white" stroke="#666666" points="313.25,-503.75 273.25,-503.75 273.25,-483 313.25,-483 313.25,-503.75"/>
<text xml:space="preserve" text-anchor="middle" x="293.25" y="-490.25" font-family="Helvetica,sans-Serif" font-size="10.00">csqrt</text>
</a>
</g>
</g>
<!-- Node1&#45;&gt;Node5 -->
<g id="edge4_Node000001_Node000005" class="edge">
<title>Node1&#45;&gt;Node5</title>
<g id="a_edge4_Node000001_Node000005"><a xlink:title=" ">
<path fill="none" stroke="#63b8ff" d="M87,-318.97C99.85,-347.94 139.7,-428.96 199,-469.38 217.53,-482 242.25,-487.99 261.58,-490.82"/>
<polygon fill="#63b8ff" stroke="#63b8ff" points="260.96,-494.27 271.32,-492.03 261.82,-487.33 260.96,-494.27"/>
</a>
</g>
</g>
<!-- Node7 -->
<g id="Node000007" class="node">
<title>Node7</title>
<g id="a_Node000007"><a xlink:href="classGreenFLayered3D.html#a65ac22e62ec3e3131ffbb10d7bdea307" target="_top" xlink:title="Evaluate quasi&#45;static (QS) contributions for inter&#45;layer interactions.">
<polygon fill="white" stroke="#666666" points="583.5,-486.12 423.5,-486.12 423.5,-452.62 583.5,-452.62 583.5,-486.12"/>
<text xml:space="preserve" text-anchor="start" x="431.5" y="-472.62" font-family="Helvetica,sans-Serif" font-size="10.00">GreenFLayered3D::evalGreen</text>
<text xml:space="preserve" text-anchor="middle" x="503.5" y="-459.88" font-family="Helvetica,sans-Serif" font-size="10.00">QSInter</text>
</a>
</g>
</g>
<!-- Node1&#45;&gt;Node7 -->
<g id="edge7_Node000001_Node000007" class="edge">
<title>Node1&#45;&gt;Node7</title>
<g id="a_edge7_Node000001_Node000007"><a xlink:title=" ">
<path fill="none" stroke="#63b8ff" d="M89.4,-319.13C105.39,-343.03 147.57,-400.49 199,-426.38 265.12,-459.65 348.99,-469.46 411.79,-471.48"/>
<polygon fill="#63b8ff" stroke="#63b8ff" points="411.67,-474.98 421.75,-471.73 411.85,-467.98 411.67,-474.98"/>
</a>
</g>
</g>
<!-- Node9 -->
<g id="Node000009" class="node">
<title>Node9</title>
<g id="a_Node000009"><a xlink:href="classGreenFLayered3D.html#a1fb4fa93c84d77750cac364641945725" target="_top" xlink:title="Return layer index of a 3D point.">
<polygon fill="white" stroke="#666666" points="785.5,-400.12 631.5,-400.12 631.5,-366.62 785.5,-366.62 785.5,-400.12"/>
<text xml:space="preserve" text-anchor="start" x="639.5" y="-386.62" font-family="Helvetica,sans-Serif" font-size="10.00">GreenFLayered3D::GetLayer</text>
<text xml:space="preserve" text-anchor="middle" x="708.5" y="-373.88" font-family="Helvetica,sans-Serif" font-size="10.00">Index</text>
</a>
</g>
</g>
<!-- Node1&#45;&gt;Node9 -->
<g id="edge24_Node000001_Node000009" class="edge">
<title>Node1&#45;&gt;Node9</title>
<g id="a_edge24_Node000001_Node000009"><a xlink:title=" ">
<path fill="none" stroke="#63b8ff" d="M163.25,-318.06C281.01,-332.2 499.01,-358.36 620.31,-372.91"/>
<polygon fill="#63b8ff" stroke="#63b8ff" points="619.53,-376.34 629.88,-374.06 620.37,-369.39 619.53,-376.34"/>
</a>
</g>
</g>
<!-- Node10 -->
<g id="Node000010" class="node">
<title>Node10</title>
<g id="a_Node000010"><a xlink:href="classGreenFLayered3D.html#a7fbd8a47a0074f53111d52920a910392" target="_top" xlink:title="Evaluate quasi&#45;static (QS) contributions for intra&#45;layer interactions.">
<polygon fill="white" stroke="#666666" points="583.5,-434.12 423.5,-434.12 423.5,-400.62 583.5,-400.62 583.5,-434.12"/>
<text xml:space="preserve" text-anchor="start" x="431.5" y="-420.62" font-family="Helvetica,sans-Serif" font-size="10.00">GreenFLayered3D::evalGreen</text>
<text xml:space="preserve" text-anchor="middle" x="503.5" y="-407.88" font-family="Helvetica,sans-Serif" font-size="10.00">QSIntra</text>
</a>
</g>
</g>
<!-- Node1&#45;&gt;Node10 -->
<g id="edge10_Node000001_Node000010" class="edge">
<title>Node1&#45;&gt;Node10</title>
<g id="a_edge10_Node000001_Node000010"><a xlink:title=" ">
<path fill="none" stroke="#63b8ff" d="M92.09,-319.2C110.51,-339.1 153.08,-381.08 199,-398.38 267.14,-424.03 349.95,-427.56 411.84,-425.36"/>
<polygon fill="#63b8ff" stroke="#63b8ff" points="411.79,-428.86 421.64,-424.94 411.5,-421.87 411.79,-428.86"/>
</a>
</g>
</g>
<!-- Node11 -->
<g id="Node000011" class="node">
<title>Node11</title>
<g id="a_Node000011"><a xlink:href="classGreenFLayered3D.html#abb50e8621c63f2b29862c32a8447dd9c" target="_top" xlink:title="Evaluate Green&#39;s&#45;function components for inter&#45;layer interactions by interpolating the smooth (Sommer...">
<polygon fill="white" stroke="#666666" points="583.5,-306.12 423.5,-306.12 423.5,-272.62 583.5,-272.62 583.5,-306.12"/>
<text xml:space="preserve" text-anchor="start" x="431.5" y="-292.62" font-family="Helvetica,sans-Serif" font-size="10.00">GreenFLayered3D::evalGreen</text>
<text xml:space="preserve" text-anchor="middle" x="503.5" y="-279.88" font-family="Helvetica,sans-Serif" font-size="10.00">SmoothInter</text>
</a>
</g>
</g>
<!-- Node1&#45;&gt;Node11 -->
<g id="edge13_Node000001_Node000011" class="edge">
<title>Node1&#45;&gt;Node11</title>
<g id="a_edge13_Node000001_Node000011"><a xlink:title=" ">
<path fill="none" stroke="#63b8ff" d="M163.48,-304.71C234.67,-301.49 338.17,-296.81 412.06,-293.47"/>
<polygon fill="#63b8ff" stroke="#63b8ff" points="411.85,-296.98 421.68,-293.03 411.53,-289.99 411.85,-296.98"/>
</a>
</g>
</g>
<!-- Node14 -->
<g id="Node000014" class="node">
<title>Node14</title>
<g id="a_Node000014"><a xlink:href="classGreenFLayered3D.html#a834a94e21f64163f651a4729eccc6699" target="_top" xlink:title="Evaluate Green&#39;s function components for intra&#45;layer interactions by interpolating the smooth (Sommer...">
<polygon fill="white" stroke="#666666" points="583.5,-254.12 423.5,-254.12 423.5,-220.62 583.5,-220.62 583.5,-254.12"/>
<text xml:space="preserve" text-anchor="start" x="431.5" y="-240.62" font-family="Helvetica,sans-Serif" font-size="10.00">GreenFLayered3D::evalGreen</text>
<text xml:space="preserve" text-anchor="middle" x="503.5" y="-227.88" font-family="Helvetica,sans-Serif" font-size="10.00">SmoothIntra</text>
</a>
</g>
</g>
<!-- Node1&#45;&gt;Node14 -->
<g id="edge16_Node000001_Node000014" class="edge">
<title>Node1&#45;&gt;Node14</title>
<g id="a_edge16_Node000001_Node000014"><a xlink:title=" ">
<path fill="none" stroke="#63b8ff" d="M146.75,-297.51C217.64,-285.53 332.25,-266.16 412.16,-252.65"/>
<polygon fill="#63b8ff" stroke="#63b8ff" points="412.43,-256.15 421.71,-251.03 411.27,-249.25 412.43,-256.15"/>
</a>
</g>
</g>
<!-- Node15 -->
<g id="Node000015" class="node">
<title>Node15</title>
<g id="a_Node000015"><a xlink:href="classRWGFun.html#a7540ce2f84c6b42a29c2808504c47d42" target="_top" xlink:title="Evaluate the RWG vector shape function at a point on the triangle.">
<polygon fill="white" stroke="#666666" points="346.25,-223.75 240.25,-223.75 240.25,-203 346.25,-203 346.25,-223.75"/>
<text xml:space="preserve" text-anchor="middle" x="293.25" y="-210.25" font-family="Helvetica,sans-Serif" font-size="10.00">RWGFun::Evaluate</text>
</a>
</g>
</g>
<!-- Node1&#45;&gt;Node15 -->
<g id="edge18_Node000001_Node000015" class="edge">
<title>Node1&#45;&gt;Node15</title>
<g id="a_edge18_Node000001_Node000015"><a xlink:title=" ">
<path fill="none" stroke="#63b8ff" d="M96.82,-297.7C118.08,-282.33 159.72,-253.96 199,-237.38 208.5,-233.36 218.84,-229.89 229.05,-226.93"/>
<polygon fill="#63b8ff" stroke="#63b8ff" points="229.87,-230.34 238.59,-224.32 228.02,-223.59 229.87,-230.34"/>
</a>
</g>
</g>
<!-- Node16 -->
<g id="Node000016" class="node">
<title>Node16</title>
<g id="a_Node000016"><a xlink:href="classTriangle.html#a6a5a3532e273e1fbb69b26eea2f509c0" target="_top" xlink:title="Count common nodes with triangle T (0..3).">
<polygon fill="white" stroke="#666666" points="358.62,-184.75 227.88,-184.75 227.88,-164 358.62,-164 358.62,-184.75"/>
<text xml:space="preserve" text-anchor="middle" x="293.25" y="-171.25" font-family="Helvetica,sans-Serif" font-size="10.00">Triangle::FindAdjacency</text>
</a>
</g>
</g>
<!-- Node1&#45;&gt;Node16 -->
<g id="edge19_Node000001_Node000016" class="edge">
<title>Node1&#45;&gt;Node16</title>
<g id="a_edge19_Node000001_Node000016"><a xlink:title=" ">
<path fill="none" stroke="#63b8ff" d="M90.13,-297.55C106.94,-274.58 149.64,-220.89 199,-194.38 204.7,-191.31 210.83,-188.72 217.13,-186.52"/>
<polygon fill="#63b8ff" stroke="#63b8ff" points="217.89,-189.95 226.4,-183.64 215.81,-183.27 217.89,-189.95"/>
</a>
</g>
</g>
<!-- Node20 -->
<g id="Node000020" class="node">
<title>Node20</title>
<g id="a_Node000020"><a xlink:href="classTriangle.html#a0752d2c9488c7c44b851b8f75abcaa79" target="_top" xlink:title="Node position (by value) for local index 0..2.">
<polygon fill="white" stroke="#666666" points="919.25,-144.75 833.5,-144.75 833.5,-124 919.25,-124 919.25,-144.75"/>
<text xml:space="preserve" text-anchor="middle" x="876.38" y="-131.25" font-family="Helvetica,sans-Serif" font-size="10.00">Triangle::Node</text>
</a>
</g>
</g>
<!-- Node1&#45;&gt;Node20 -->
<g id="edge27_Node000001_Node000020" class="edge">
<title>Node1&#45;&gt;Node20</title>
<g id="a_edge27_Node000001_Node000020"><a xlink:title=" ">
<path fill="none" stroke="#63b8ff" d="M86.85,-297.81C99.32,-269.02 138.28,-189.07 199,-155.38 305.29,-96.39 681.69,-119.04 822.07,-129.89"/>
<polygon fill="#63b8ff" stroke="#63b8ff" points="821.59,-133.37 831.83,-130.66 822.13,-126.39 821.59,-133.37"/>
</a>
</g>
</g>
<!-- Node21 -->
<g id="Node000021" class="node">
<title>Node21</title>
<g id="a_Node000021"><a xlink:href="classSingCancellation.html#a9f0341d9a5435ccf830d35c34a752d13" target="_top" xlink:title="Access the paired barycentric nodes for triangle i.">
<polygon fill="white" stroke="#666666" points="378.5,-98.75 208,-98.75 208,-78 378.5,-78 378.5,-98.75"/>
<text xml:space="preserve" text-anchor="middle" x="293.25" y="-85.25" font-family="Helvetica,sans-Serif" font-size="10.00">SingCancellation::getPointsMap</text>
</a>
</g>
</g>
<!-- Node1&#45;&gt;Node21 -->
<g id="edge25_Node000001_Node000021" class="edge">
<title>Node1&#45;&gt;Node21</title>
<g id="a_edge25_Node000001_Node000021"><a xlink:title=" ">
<path fill="none" stroke="#63b8ff" d="M85.55,-297.92C95.68,-265.05 131.53,-162.94 199,-112.38 203.56,-108.95 208.57,-106.02 213.82,-103.5"/>
<polygon fill="#63b8ff" stroke="#63b8ff" points="214.89,-106.84 222.76,-99.74 212.18,-100.39 214.89,-106.84"/>
</a>
</g>
</g>
<!-- Node22 -->
<g id="Node000022" class="node">
<title>Node22</title>
<g id="a_Node000022"><a xlink:href="classSingCancellation.html#a1e39f550c512d7f609257be4f9610082" target="_top" xlink:title="Access the weights associated with each paired sampling point.">
<polygon fill="white" stroke="#666666" points="372.5,-59.75 214,-59.75 214,-39 372.5,-39 372.5,-59.75"/>
<text xml:space="preserve" text-anchor="middle" x="293.25" y="-46.25" font-family="Helvetica,sans-Serif" font-size="10.00">SingCancellation::getWeights</text>
</a>
</g>
</g>
<!-- Node1&#45;&gt;Node22 -->
<g id="edge26_Node000001_Node000022" class="edge">
<title>Node1&#45;&gt;Node22</title>
<g id="a_edge26_Node000001_Node000022"><a xlink:title=" ">
<path fill="none" stroke="#63b8ff" d="M84.3,-297.72C91.26,-259.92 120.13,-131.13 199,-69.38 200.76,-68 202.59,-66.71 204.49,-65.5"/>
<polygon fill="#63b8ff" stroke="#63b8ff" points="205.94,-68.7 213.08,-60.88 202.62,-62.54 205.94,-68.7"/>
</a>
</g>
</g>
<!-- Node23 -->
<g id="Node000023" class="node">
<title>Node23</title>
<g id="a_Node000023"><a xlink:href="classRWGFun.html#a7cd7779305937d48196453e53d0d4df8" target="_top" xlink:title="Return L_n / A_n (missing factor 1/2 by convention).">
<polygon fill="white" stroke="#666666" points="359.38,-20.75 227.12,-20.75 227.12,0 359.38,0 359.38,-20.75"/>
<text xml:space="preserve" text-anchor="middle" x="293.25" y="-7.25" font-family="Helvetica,sans-Serif" font-size="10.00">RWGFun::RWGPreFactor</text>
</a>
</g>
</g>
<!-- Node1&#45;&gt;Node23 -->
<g id="edge28_Node000001_Node000023" class="edge">
<title>Node1&#45;&gt;Node23</title>
<g id="a_edge28_Node000001_Node000023"><a xlink:title=" ">
<path fill="none" stroke="#63b8ff" d="M83.54,-297.51C88.15,-255.67 110.6,-103.72 199,-30.38 204.14,-26.11 209.98,-22.69 216.17,-19.96"/>
<polygon fill="#63b8ff" stroke="#63b8ff" points="217.28,-23.28 225.43,-16.51 214.84,-16.72 217.28,-23.28"/>
</a>
</g>
</g>
<!-- Node24 -->
<g id="Node000024" class="node">
<title>Node24</title>
<g id="a_Node000024"><a xlink:href="classGreenFLayered3D.html#a87c30d7c2782fd16b17a54bf12777cf0" target="_top" xlink:title="Test assembly of same&#45;triangle D and K matrix elements.">
<polygon fill="white" stroke="#666666" points="371.38,-389.12 215.12,-389.12 215.12,-355.62 371.38,-355.62 371.38,-389.12"/>
<text xml:space="preserve" text-anchor="start" x="223.12" y="-375.62" font-family="Helvetica,sans-Serif" font-size="10.00">GreenFLayered3D::testSame</text>
<text xml:space="preserve" text-anchor="middle" x="293.25" y="-362.88" font-family="Helvetica,sans-Serif" font-size="10.00">TriDK</text>
</a>
</g>
</g>
<!-- Node1&#45;&gt;Node24 -->
<g id="edge29_Node000001_Node000024" class="edge">
<title>Node1&#45;&gt;Node24</title>
<g id="a_edge29_Node000001_Node000024"><a xlink:title=" ">
<path fill="none" stroke="#63b8ff" d="M118.08,-319.23C147.32,-328.15 189.55,-341.04 225.11,-351.89"/>
<polygon fill="#63b8ff" stroke="#63b8ff" points="223.88,-355.17 234.46,-354.74 225.92,-348.48 223.88,-355.17"/>
</a>
</g>
</g>
<!-- Node6 -->
<g id="Node000006" class="node">
<title>Node6</title>
<g id="a_Node000006"><a xlink:href="Domain_8cpp.html#aafa3e4fa6318b2f8740f4dbd50c367e5" target="_top" xlink:title="Extract the real part of each component of a complex 3&#45;vector.">
<polygon fill="white" stroke="#666666" points="520.88,-524.75 486.12,-524.75 486.12,-504 520.88,-504 520.88,-524.75"/>
<text xml:space="preserve" text-anchor="middle" x="503.5" y="-511.25" font-family="Helvetica,sans-Serif" font-size="10.00">real</text>
</a>
</g>
</g>
<!-- Node5&#45;&gt;Node6 -->
<g id="edge5_Node000005_Node000006" class="edge">
<title>Node5&#45;&gt;Node6</title>
<g id="a_edge5_Node000005_Node000006"><a xlink:title=" ">
<path fill="none" stroke="#63b8ff" d="M313.47,-495.31C350.39,-499.04 431.38,-507.2 474.38,-511.54"/>
<polygon fill="#63b8ff" stroke="#63b8ff" points="473.87,-515.01 484.17,-512.53 474.57,-508.04 473.87,-515.01"/>
</a>
</g>
</g>
<!-- Node6&#45;&gt;Node6 -->
<g id="edge6_Node000006_Node000006" class="edge">
<title>Node6&#45;&gt;Node6</title>
<g id="a_edge6_Node000006_Node000006"><a xlink:title=" ">
<path fill="none" stroke="#63b8ff" d="M485.79,-518.58C453.15,-528.52 459.06,-542.75 503.5,-542.75 542.21,-542.75 551.68,-531.96 531.91,-522.6"/>
<polygon fill="#63b8ff" stroke="#63b8ff" points="533.22,-519.35 522.62,-519.11 530.75,-525.9 533.22,-519.35"/>
</a>
</g>
</g>
<!-- Node8 -->
<g id="Node000008" class="node">
<title>Node8</title>
<g id="a_Node000008"><a xlink:href="classGreenFLayered3D.html#a41c1370112d040a3dc4c44a5853022ed" target="_top" xlink:title="Fresnel reflection/transmission at interface (delegates to utils).">
<polygon fill="white" stroke="#666666" points="781,-474.12 636,-474.12 636,-440.62 781,-440.62 781,-474.12"/>
<text xml:space="preserve" text-anchor="start" x="644" y="-460.62" font-family="Helvetica,sans-Serif" font-size="10.00">GreenFLayered3D::Fresnel</text>
<text xml:space="preserve" text-anchor="middle" x="708.5" y="-447.88" font-family="Helvetica,sans-Serif" font-size="10.00">Coeff</text>
</a>
</g>
</g>
<!-- Node7&#45;&gt;Node8 -->
<g id="edge8_Node000007_Node000008" class="edge">
<title>Node7&#45;&gt;Node8</title>
<g id="a_edge8_Node000007_Node000008"><a xlink:title=" ">
<path fill="none" stroke="#63b8ff" d="M583.86,-464.68C597.24,-463.89 611.15,-463.07 624.62,-462.27"/>
<polygon fill="#63b8ff" stroke="#63b8ff" points="624.52,-465.79 634.29,-461.7 624.1,-458.8 624.52,-465.79"/>
</a>
</g>
</g>
<!-- Node7&#45;&gt;Node9 -->
<g id="edge9_Node000007_Node000009" class="edge">
<title>Node7&#45;&gt;Node9</title>
<g id="a_edge9_Node000007_Node000009"><a xlink:title=" ">
<path fill="none" stroke="#63b8ff" d="M559.66,-452.26C567.72,-449.46 575.87,-446.46 583.5,-443.38 611.21,-432.17 641.43,-417.6 665.09,-405.62"/>
<polygon fill="#63b8ff" stroke="#63b8ff" points="666.47,-408.85 673.79,-401.19 663.29,-402.61 666.47,-408.85"/>
</a>
</g>
</g>
<!-- Node10&#45;&gt;Node8 -->
<g id="edge11_Node000010_Node000008" class="edge">
<title>Node10&#45;&gt;Node8</title>
<g id="a_edge11_Node000010_Node000008"><a xlink:title=" ">
<path fill="none" stroke="#63b8ff" d="M583.86,-433.01C597.24,-435.65 611.15,-438.39 624.62,-441.04"/>
<polygon fill="#63b8ff" stroke="#63b8ff" points="623.83,-444.46 634.32,-442.96 625.18,-437.59 623.83,-444.46"/>
</a>
</g>
</g>
<!-- Node10&#45;&gt;Node9 -->
<g id="edge12_Node000010_Node000009" class="edge">
<title>Node10&#45;&gt;Node9</title>
<g id="a_edge12_Node000010_Node000009"><a xlink:title=" ">
<path fill="none" stroke="#63b8ff" d="M583.86,-404.08C595.78,-402.09 608.12,-400.02 620.2,-398"/>
<polygon fill="#63b8ff" stroke="#63b8ff" points="620.41,-401.51 629.7,-396.41 619.26,-394.61 620.41,-401.51"/>
</a>
</g>
</g>
<!-- Node12 -->
<g id="Node000012" class="node">
<title>Node12</title>
<g id="a_Node000012"><a xlink:href="classGreenFLayered3D.html#a6c09f9ac63d604111b76842e774c65c8" target="_top" xlink:title="Evaluate 2D interpolant at one query point.">
<polygon fill="white" stroke="#666666" points="784.75,-280.12 632.25,-280.12 632.25,-246.62 784.75,-246.62 784.75,-280.12"/>
<text xml:space="preserve" text-anchor="start" x="640.25" y="-266.62" font-family="Helvetica,sans-Serif" font-size="10.00">GreenFLayered3D::evaluate</text>
<text xml:space="preserve" text-anchor="middle" x="708.5" y="-253.88" font-family="Helvetica,sans-Serif" font-size="10.00">SinglePoint</text>
</a>
</g>
</g>
<!-- Node11&#45;&gt;Node12 -->
<g id="edge14_Node000011_Node000012" class="edge">
<title>Node11&#45;&gt;Node12</title>
<g id="a_edge14_Node000011_Node000012"><a xlink:title=" ">
<path fill="none" stroke="#63b8ff" d="M583.86,-279.21C595.95,-277.66 608.48,-276.06 620.72,-274.49"/>
<polygon fill="#63b8ff" stroke="#63b8ff" points="620.88,-278 630.35,-273.26 619.99,-271.05 620.88,-278"/>
</a>
</g>
</g>
<!-- Node13 -->
<g id="Node000013" class="node">
<title>Node13</title>
<g id="a_Node000013"><a xlink:href="GreenFLayered3D_8cpp.html#a8aa29777c4e70a4d7c032b4c6fb0387d" target="_top" xlink:title="External REGRIDPACK routine for evaluating a 2D interpolation function.">
<polygon fill="white" stroke="#666666" points="915.5,-273.75 837.25,-273.75 837.25,-253 915.5,-253 915.5,-273.75"/>
<text xml:space="preserve" text-anchor="middle" x="876.38" y="-260.25" font-family="Helvetica,sans-Serif" font-size="10.00">rgrd2_eval_c</text>
</a>
</g>
</g>
<!-- Node12&#45;&gt;Node13 -->
<g id="edge15_Node000012_Node000013" class="edge">
<title>Node12&#45;&gt;Node13</title>
<g id="a_edge15_Node000012_Node000013"><a xlink:title=" ">
<path fill="none" stroke="#63b8ff" d="M785.16,-263.38C798.89,-263.38 812.9,-263.38 825.65,-263.38"/>
<polygon fill="#63b8ff" stroke="#63b8ff" points="825.45,-266.88 835.45,-263.38 825.45,-259.88 825.45,-266.88"/>
</a>
</g>
</g>
<!-- Node14&#45;&gt;Node12 -->
<g id="edge17_Node000014_Node000012" class="edge">
<title>Node14&#45;&gt;Node12</title>
<g id="a_edge17_Node000014_Node000012"><a xlink:title=" ">
<path fill="none" stroke="#63b8ff" d="M583.86,-247.54C595.95,-249.09 608.48,-250.69 620.72,-252.26"/>
<polygon fill="#63b8ff" stroke="#63b8ff" points="619.99,-255.7 630.35,-253.49 620.88,-248.75 619.99,-255.7"/>
</a>
</g>
</g>
<!-- Node17 -->
<g id="Node000017" class="node">
<title>Node17</title>
<g id="a_Node000017"><a xlink:href="classTriangle.html#aeecc82e57a00841cb83fd790316b25a3" target="_top" xlink:title="Node pointer for local index 0..2.">
<polygon fill="white" stroke="#666666" points="553.12,-202.75 453.88,-202.75 453.88,-182 553.12,-182 553.12,-202.75"/>
<text xml:space="preserve" text-anchor="middle" x="503.5" y="-189.25" font-family="Helvetica,sans-Serif" font-size="10.00">Triangle::NodePtr</text>
</a>
</g>
</g>
<!-- Node16&#45;&gt;Node17 -->
<g id="edge20_Node000016_Node000017" class="edge">
<title>Node16&#45;&gt;Node17</title>
<g id="a_edge20_Node000016_Node000017"><a xlink:title=" ">
<path fill="none" stroke="#63b8ff" d="M359,-179.97C385.63,-182.27 416.28,-184.92 442.4,-187.18"/>
<polygon fill="#63b8ff" stroke="#63b8ff" points="441.9,-190.65 452.17,-188.02 442.51,-183.68 441.9,-190.65"/>
</a>
</g>
</g>
<!-- Node18 -->
<g id="Node000018" class="node">
<title>Node18</title>
<g id="a_Node000018"><a xlink:href="classTriangle.html#a2eae6a9b0378e4b5ba4616a6b6af86fe" target="_top" xlink:title="Construct from 3 node pointers and bordering domains.">
<polygon fill="white" stroke="#666666" points="552.75,-163.75 454.25,-163.75 454.25,-143 552.75,-143 552.75,-163.75"/>
<text xml:space="preserve" text-anchor="middle" x="503.5" y="-150.25" font-family="Helvetica,sans-Serif" font-size="10.00">Triangle::Triangle</text>
</a>
</g>
</g>
<!-- Node16&#45;&gt;Node18 -->
<g id="edge21_Node000016_Node000018" class="edge">
<title>Node16&#45;&gt;Node18</title>
<g id="a_edge21_Node000016_Node000018"><a xlink:title=" ">
<path fill="none" stroke="#63b8ff" d="M359,-167.85C385.73,-165.15 416.52,-162.05 442.71,-159.4"/>
<polygon fill="#63b8ff" stroke="#63b8ff" points="442.9,-162.9 452.5,-158.42 442.2,-155.94 442.9,-162.9"/>
</a>
</g>
</g>
<!-- Node19 -->
<g id="Node000019" class="node">
<title>Node19</title>
<g id="a_Node000019"><a xlink:href="classTriangle.html#ae13d69e28fb7a81ab8257fe0af84ceaa" target="_top" xlink:title="Compute/cached geometry (normal, area, perimeter, center, I1/I2s/I2d).">
<polygon fill="white" stroke="#666666" points="797.5,-163.75 619.5,-163.75 619.5,-143 797.5,-143 797.5,-163.75"/>
<text xml:space="preserve" text-anchor="middle" x="708.5" y="-150.25" font-family="Helvetica,sans-Serif" font-size="10.00">Triangle::CalculateGeometryData</text>
</a>
</g>
</g>
<!-- Node18&#45;&gt;Node19 -->
<g id="edge22_Node000018_Node000019" class="edge">
<title>Node18&#45;&gt;Node19</title>
<g id="a_edge22_Node000018_Node000019"><a xlink:title=" ">
<path fill="none" stroke="#63b8ff" d="M553.12,-153.38C569.62,-153.38 588.69,-153.38 607.69,-153.38"/>
<polygon fill="#63b8ff" stroke="#63b8ff" points="607.65,-156.88 617.65,-153.38 607.65,-149.88 607.65,-156.88"/>
</a>
</g>
</g>
<!-- Node19&#45;&gt;Node20 -->
<g id="edge23_Node000019_Node000020" class="edge">
<title>Node19&#45;&gt;Node20</title>
<g id="a_edge23_Node000019_Node000020"><a xlink:title=" ">
<path fill="none" stroke="#63b8ff" d="M797.78,-143.26C806,-142.32 814.15,-141.39 821.91,-140.5"/>
<polygon fill="#63b8ff" stroke="#63b8ff" points="822.29,-143.98 831.83,-139.36 821.49,-137.02 822.29,-143.98"/>
</a>
</g>
</g>
<!-- Node24&#45;&gt;Node7 -->
<g id="edge30_Node000024_Node000007" class="edge">
<title>Node24&#45;&gt;Node7</title>
<g id="a_edge30_Node000024_Node000007"><a xlink:title=" ">
<path fill="none" stroke="#63b8ff" d="M321.74,-389.42C347.4,-404.86 387.11,-427.55 423.5,-443.38 427.3,-445.03 431.24,-446.63 435.24,-448.19"/>
<polygon fill="#63b8ff" stroke="#63b8ff" points="433.91,-451.43 444.5,-451.64 436.35,-444.87 433.91,-451.43"/>
</a>
</g>
</g>
<!-- Node24&#45;&gt;Node9 -->
<g id="edge34_Node000024_Node000009" class="edge">
<title>Node24&#45;&gt;Node9</title>
<g id="a_edge34_Node000024_Node000009"><a xlink:title=" ">
<path fill="none" stroke="#63b8ff" d="M371.49,-374.43C442.16,-376.31 546.6,-379.09 620.24,-381.05"/>
<polygon fill="#63b8ff" stroke="#63b8ff" points="619.73,-384.54 629.82,-381.31 619.92,-377.54 619.73,-384.54"/>
</a>
</g>
</g>
<!-- Node24&#45;&gt;Node10 -->
<g id="edge31_Node000024_Node000010" class="edge">
<title>Node24&#45;&gt;Node10</title>
<g id="a_edge31_Node000024_Node000010"><a xlink:title=" ">
<path fill="none" stroke="#63b8ff" d="M371.79,-389.13C384.89,-391.96 398.6,-394.92 411.99,-397.82"/>
<polygon fill="#63b8ff" stroke="#63b8ff" points="411.16,-401.22 421.67,-399.91 412.64,-394.38 411.16,-401.22"/>
</a>
</g>
</g>
<!-- Node24&#45;&gt;Node11 -->
<g id="edge32_Node000024_Node000011" class="edge">
<title>Node24&#45;&gt;Node11</title>
<g id="a_edge32_Node000024_Node000011"><a xlink:title=" ">
<path fill="none" stroke="#63b8ff" d="M337.4,-355.18C369.79,-342.27 414.33,-324.51 448.99,-310.7"/>
<polygon fill="#63b8ff" stroke="#63b8ff" points="450.01,-314.06 458,-307.11 447.41,-307.56 450.01,-314.06"/>
</a>
</g>
</g>
<!-- Node24&#45;&gt;Node14 -->
<g id="edge33_Node000024_Node000014" class="edge">
<title>Node24&#45;&gt;Node14</title>
<g id="a_edge33_Node000024_Node000014"><a xlink:title=" ">
<path fill="none" stroke="#63b8ff" d="M310.23,-355.28C333.21,-331.6 377.88,-288.85 423.5,-263.38 426.13,-261.91 428.85,-260.51 431.64,-259.17"/>
<polygon fill="#63b8ff" stroke="#63b8ff" points="432.82,-262.47 440.56,-255.23 430,-256.07 432.82,-262.47"/>
</a>
</g>
</g>
</g>
</svg>

<g id="navigator" transform="translate(0 0)" fill="#404254">
  <rect fill="#f2f5e9" fill-opacity="0.5" stroke="#606060" stroke-width=".5" x="0" y="0" width="60" height="60"/>
  <use id="zoomplus" xlink:href="#zoomPlus" x="17" y="9" onmousedown="handleZoom(evt,'in')"/>
  <use id="zoomminus" xlink:href="#zoomMin" x="42" y="9" onmousedown="handleZoom(evt,'out')"/>
  <use id="reset" xlink:href="#resetDef" x="30" y="36" onmousedown="handleReset()"/>
   <use id="arrowup" xlink:href="#arrowUp" x="0" y="0" onmousedown="handlePan(0,-1)"/>
  <use id="arrowright" xlink:href="#arrowRight" x="0" y="0" onmousedown="handlePan(1,0)"/>
  <use id="arrowdown" xlink:href="#arrowDown" x="0" y="0" onmousedown="handlePan(0,1)"/>
  <use id="arrowleft" xlink:href="#arrowLeft" x="0" y="0" onmousedown="handlePan(-1,0)"/>
</g>
<svg viewBox="0 0 15 15" width="100%" height="30px" preserveAspectRatio="xMaxYMin meet">
 <g id="arrow_out" transform="scale(0.3 0.3)">
  <a xlink:href="classGreenFLayered3D_a6c88af86169f8d148c3e9f4da77a77d0_cgraph_org.svg" target="_base">
   <rect id="button" ry="5" rx="5" y="6" x="6" height="38" width="38"
        fill="#f2f5e9" fill-opacity="0.5" stroke="#606060" stroke-width="1.0"/>
   <path id="arrow"
     d="M 11.500037,31.436501 C 11.940474,20.09759 22.043105,11.32322 32.158766,21.979434 L 37.068811,17.246167 C 37.068811,17.246167 37.088388,32 37.088388,32 L 22.160133,31.978069 C 22.160133,31.978069 26.997745,27.140456 26.997745,27.140456 C 18.528582,18.264221 13.291696,25.230495 11.500037,31.436501 z"
     style="fill:#404040;"/>
  </a>
 </g>
</svg>

<style type='text/css'>
<![CDATA[
[data-mouse-over-selected='false'] { opacity: 0.7; }
[data-mouse-over-selected='true']  { opacity: 1.0; }
]]>
</style>
<script type="application/ecmascript"><![CDATA[
document.addEventListener('DOMContentLoaded', (event) => {
  highlightEdges();
  highlightAdjacentNodes();
});
]]></script>
</svg>
