<?xml version="1.0" encoding="UTF-8" standalone="no"?>
<!DOCTYPE svg PUBLIC "-//W3C//DTD SVG 1.1//EN"
 "http://www.w3.org/Graphics/SVG/1.1/DTD/svg11.dtd">
<!-- Generated by graphviz version 13.1.2 (20250809.0930)
 -->
<!-- Title: SommerfeldIntegrator::Evaluate Pages: 1 -->
<!--zoomable 492 -->

<svg id="main" version="1.1" xmlns="http://www.w3.org/2000/svg" xmlns:xlink="http://www.w3.org/1999/xlink" xml:space="preserve" onload="init(evt)">

<style type="text/css"><![CDATA[
.node, .edge {opacity: 0.7;}
.node.selected, .edge.selected {opacity: 1;}
.edge:hover path { stroke: red; }
.edge:hover polygon { stroke: red; fill: red; }
]]></style>

<defs>
  <circle id="rim" cx="0" cy="0" r="7"/>
  <circle id="rim2" cx="0" cy="0" r="3.5"/>
  <g id="zoomPlus">
    <use xlink:href="#rim" fill="#404040"><set attributeName="fill" to="#808080" begin="zoomplus.mouseover" end="zoomplus.mouseout"/></use>
    <path d="M-4,0h8M0,-4v8" fill="none" stroke="white" stroke-width="1.5" pointer-events="none"/>
  </g>
  <g id="zoomMin">
    <use xlink:href="#rim" fill="#404040"><set attributeName="fill" to="#808080" begin="zoomminus.mouseover" end="zoomminus.mouseout"/></use>
    <path d="M-4,0h8" fill="none" stroke="white" stroke-width="1.5" pointer-events="none"/>
  </g>
  <g id="arrowUp" transform="translate(30 24)">
    <use xlink:href="#rim"/>
    <path pointer-events="none" fill="none" stroke="white" stroke-width="1.5" d="M0,-3.0v7 M-2.5,-0.5L0,-3.0L2.5,-0.5"/>
  </g>
  <g id="arrowRight" transform="rotate(90) translate(36 -43)">
    <use xlink:href="#rim"/>
    <path pointer-events="none" fill="none" stroke="white" stroke-width="1.5" d="M0,-3.0v7 M-2.5,-0.5L0,-3.0L2.5,-0.5"/>
  </g>
  <g id="arrowDown" transform="rotate(180) translate(-30 -48)">
    <use xlink:href="#rim"/>
    <path pointer-events="none" fill="none" stroke="white" stroke-width="1.5" d="M0,-3.0v7 M-2.5,-0.5L0,-3.0L2.5,-0.5"/>
  </g>
  <g id="arrowLeft" transform="rotate(270) translate(-36 17)">
    <use xlink:href="#rim"/>
    <path pointer-events="none" fill="none" stroke="white" stroke-width="1.5" d="M0,-3.0v7 M-2.5,-0.5L0,-3.0L2.5,-0.5"/>
  </g>
  <g id="resetDef">
    <use xlink:href="#rim2" fill="#404040"><set attributeName="fill" to="#808080" begin="reset.mouseover" end="reset.mouseout"/></use>
  </g>
</defs>
<script type="application/ecmascript">
var viewWidth = 817;
var viewHeight = 492;
var sectionId = 'dynsection-1';
</script>
<script type="application/ecmascript" xlink:href="svg.min.js"/>
<svg id="graph" class="graph">
<g id="viewport">
<title>SommerfeldIntegrator::Evaluate</title>
<!-- Node1 -->
<g id="Node000001" class="node">
<title>Node1</title>
<g id="a_Node000001"><a xlink:title="Computes inter&#45;layer coefficients for Green&#39;s function interpolation.">
<polygon fill="#999999" stroke="#666666" points="124,-268.5 0,-268.5 0,-235 124,-235 124,-268.5"/>
<text xml:space="preserve" text-anchor="start" x="8" y="-255" font-family="Helvetica,sans-Serif" font-size="10.00">SommerfeldIntegrator</text>
<text xml:space="preserve" text-anchor="middle" x="62" y="-242.25" font-family="Helvetica,sans-Serif" font-size="10.00">::Evaluate</text>
</a>
</g>
</g>
<!-- Node2 -->
<g id="Node000002" class="node">
<title>Node2</title>
<g id="a_Node000002"><a xlink:href="structIntegrandInter.html#a2668c7d108e647d129889975d618ecfc" target="_top" xlink:title="Function to create a flattened structure.">
<polygon fill="white" stroke="#666666" points="449.25,-409.12 326.75,-409.12 326.75,-388.38 449.25,-388.38 449.25,-409.12"/>
<text xml:space="preserve" text-anchor="middle" x="388" y="-395.62" font-family="Helvetica,sans-Serif" font-size="10.00">IntegrandInter::flatten</text>
</a>
</g>
</g>
<!-- Node1&#45;&gt;Node2 -->
<g id="edge1_Node000001_Node000002" class="edge">
<title>Node1&#45;&gt;Node2</title>
<g id="a_edge1_Node000001_Node000002"><a xlink:title=" ">
<path fill="none" stroke="#63b8ff" d="M67.03,-268.82C76.37,-304.06 103.18,-384.24 160,-416.75 219.88,-451.01 303.61,-430.2 350.84,-413.48"/>
<polygon fill="#63b8ff" stroke="#63b8ff" points="351.87,-416.83 360.05,-410.09 349.45,-410.26 351.87,-416.83"/>
</a>
</g>
</g>
<!-- Node5 -->
<g id="Node000005" class="node">
<title>Node5</title>
<g id="a_Node000005"><a xlink:href="SommerfeldIntegrator_8cpp.html#a451453beb5b95daba5d1e92047643b13" target="_top" xlink:title="Performs Gauss&#45;Kronrod integration.">
<polygon fill="white" stroke="#666666" points="266.38,-484.12 183.62,-484.12 183.62,-463.38 266.38,-463.38 266.38,-484.12"/>
<text xml:space="preserve" text-anchor="middle" x="225" y="-470.62" font-family="Helvetica,sans-Serif" font-size="10.00">gaussKronrod</text>
</a>
</g>
</g>
<!-- Node1&#45;&gt;Node5 -->
<g id="edge4_Node000001_Node000005" class="edge">
<title>Node1&#45;&gt;Node5</title>
<g id="a_edge4_Node000001_Node000005"><a xlink:title=" ">
<path fill="none" stroke="#63b8ff" d="M66.83,-268.93C76.13,-306.85 103.45,-398.43 160,-449.75 163.81,-453.21 168.17,-456.18 172.77,-458.74"/>
<polygon fill="#63b8ff" stroke="#63b8ff" points="171.25,-461.89 181.78,-463.04 174.26,-455.57 171.25,-461.89"/>
</a>
</g>
</g>
<!-- Node7 -->
<g id="Node000007" class="node">
<title>Node7</title>
<g id="a_Node000007"><a xlink:href="SommerfeldIntegrator_8cpp.html#a5c189341c1c2b58a6edd7bb6d77f3390" target="_top" xlink:title="Extract one row (across all columns) at a specific depth in a 3D matrix.">
<polygon fill="white" stroke="#666666" points="290,-408.12 160,-408.12 160,-387.38 290,-387.38 290,-408.12"/>
<text xml:space="preserve" text-anchor="middle" x="225" y="-394.62" font-family="Helvetica,sans-Serif" font-size="10.00">getColumnAtRowDepth</text>
</a>
</g>
</g>
<!-- Node1&#45;&gt;Node7 -->
<g id="edge6_Node000001_Node000007" class="edge">
<title>Node1&#45;&gt;Node7</title>
<g id="a_edge6_Node000001_Node000007"><a xlink:title=" ">
<path fill="none" stroke="#63b8ff" d="M71.58,-268.71C86.1,-295.75 118.1,-348.54 160,-377.75 162.22,-379.29 164.56,-380.72 166.98,-382.05"/>
<polygon fill="#63b8ff" stroke="#63b8ff" points="165.4,-385.17 175.94,-386.25 168.37,-378.83 165.4,-385.17"/>
</a>
</g>
</g>
<!-- Node8 -->
<g id="Node000008" class="node">
<title>Node8</title>
<g id="a_Node000008"><a xlink:href="SommerfeldIntegrator_8cpp.html#a227a630955115f778548ee81c152897b" target="_top" xlink:title="Extract all depth elements at a specific row and column in a 3D matrix.">
<polygon fill="white" stroke="#666666" points="290,-369.12 160,-369.12 160,-348.38 290,-348.38 290,-369.12"/>
<text xml:space="preserve" text-anchor="middle" x="225" y="-355.62" font-family="Helvetica,sans-Serif" font-size="10.00">getDepthAtRowColumn</text>
</a>
</g>
</g>
<!-- Node1&#45;&gt;Node8 -->
<g id="edge7_Node000001_Node000008" class="edge">
<title>Node1&#45;&gt;Node8</title>
<g id="a_edge7_Node000001_Node000008"><a xlink:title=" ">
<path fill="none" stroke="#63b8ff" d="M77.79,-268.86C95.51,-288.37 126.96,-319.97 160,-338.75 163.19,-340.56 166.56,-342.23 170.02,-343.77"/>
<polygon fill="#63b8ff" stroke="#63b8ff" points="168.6,-346.97 179.18,-347.41 171.19,-340.46 168.6,-346.97"/>
</a>
</g>
</g>
<!-- Node9 -->
<g id="Node000009" class="node">
<title>Node9</title>
<g id="a_Node000009"><a xlink:href="SommerfeldIntegrator_8cpp.html#a85b9f46fa6967ea992a869f4371d5214" target="_top" xlink:title="Extract one column (across all rows) at a specific depth in a 3D matrix.">
<polygon fill="white" stroke="#666666" points="290,-330.12 160,-330.12 160,-309.38 290,-309.38 290,-330.12"/>
<text xml:space="preserve" text-anchor="middle" x="225" y="-316.62" font-family="Helvetica,sans-Serif" font-size="10.00">getRowAtColumnDepth</text>
</a>
</g>
</g>
<!-- Node1&#45;&gt;Node9 -->
<g id="edge8_Node000001_Node000009" class="edge">
<title>Node1&#45;&gt;Node9</title>
<g id="a_edge8_Node000001_Node000009"><a xlink:title=" ">
<path fill="none" stroke="#63b8ff" d="M93.37,-268.86C112.17,-279.01 137.03,-291.62 160,-300.75 164.12,-302.39 168.44,-303.96 172.81,-305.45"/>
<polygon fill="#63b8ff" stroke="#63b8ff" points="171.65,-308.75 182.24,-308.51 173.81,-302.1 171.65,-308.75"/>
</a>
</g>
</g>
<!-- Node10 -->
<g id="Node000010" class="node">
<title>Node10</title>
<g id="a_Node000010"><a xlink:href="classSommerfeldIntegrator.html#a5479217de11e54b823a970c39580fa64" target="_top" xlink:title="Computes the inter&#45;layer integration function.">
<polygon fill="white" stroke="#666666" points="287,-291.5 163,-291.5 163,-258 287,-258 287,-291.5"/>
<text xml:space="preserve" text-anchor="start" x="171" y="-278" font-family="Helvetica,sans-Serif" font-size="10.00">SommerfeldIntegrator</text>
<text xml:space="preserve" text-anchor="middle" x="225" y="-265.25" font-family="Helvetica,sans-Serif" font-size="10.00">::integrationFInter</text>
</a>
</g>
</g>
<!-- Node1&#45;&gt;Node10 -->
<g id="edge9_Node000001_Node000010" class="edge">
<title>Node1&#45;&gt;Node10</title>
<g id="a_edge9_Node000001_Node000010"><a xlink:title=" ">
<path fill="none" stroke="#63b8ff" d="M124.33,-260.51C133.14,-261.77 142.27,-263.07 151.28,-264.36"/>
<polygon fill="#63b8ff" stroke="#63b8ff" points="150.68,-267.81 161.08,-265.76 151.67,-260.88 150.68,-267.81"/>
</a>
</g>
</g>
<!-- Node11 -->
<g id="Node000011" class="node">
<title>Node11</title>
<g id="a_Node000011"><a xlink:href="classSommerfeldIntegrator.html#a9467786ef80af13f1b6f4317fb6ae80a" target="_top" xlink:title="Computes the inter&#45;layer Green&#39;s function integrand.">
<polygon fill="white" stroke="#666666" points="450,-268.5 326,-268.5 326,-235 450,-235 450,-268.5"/>
<text xml:space="preserve" text-anchor="start" x="334" y="-255" font-family="Helvetica,sans-Serif" font-size="10.00">SommerfeldIntegrator</text>
<text xml:space="preserve" text-anchor="middle" x="388" y="-242.25" font-family="Helvetica,sans-Serif" font-size="10.00">::InterIntegrand</text>
</a>
</g>
</g>
<!-- Node1&#45;&gt;Node11 -->
<g id="edge18_Node000001_Node000011" class="edge">
<title>Node1&#45;&gt;Node11</title>
<g id="a_edge18_Node000001_Node000011"><a xlink:title=" ">
<path fill="none" stroke="#63b8ff" d="M124.31,-249.57C136.15,-249.23 148.46,-248.93 160,-248.75 217.77,-247.86 232.23,-247.86 290,-248.75 297.84,-248.87 306.04,-249.05 314.21,-249.26"/>
<polygon fill="#63b8ff" stroke="#63b8ff" points="314.09,-252.75 324.18,-249.53 314.28,-245.76 314.09,-252.75"/>
</a>
</g>
</g>
<!-- Node18 -->
<g id="Node000018" class="node">
<title>Node18</title>
<g id="a_Node000018"><a xlink:href="SommerfeldIntegrator_8cpp.html#a5535ba494c54ae267b6b889fbf34a339" target="_top" xlink:title="Flatten 3D complex tensor grid (column&#45;major order).">
<polygon fill="white" stroke="#666666" points="270.88,-202.12 179.12,-202.12 179.12,-181.38 270.88,-181.38 270.88,-202.12"/>
<text xml:space="preserve" text-anchor="middle" x="225" y="-188.62" font-family="Helvetica,sans-Serif" font-size="10.00">interpolateInter</text>
</a>
</g>
</g>
<!-- Node1&#45;&gt;Node18 -->
<g id="edge19_Node000001_Node000018" class="edge">
<title>Node1&#45;&gt;Node18</title>
<g id="a_edge19_Node000001_Node000018"><a xlink:title=" ">
<path fill="none" stroke="#63b8ff" d="M109.14,-234.56C132.93,-225.69 161.66,-214.98 184.43,-206.5"/>
<polygon fill="#63b8ff" stroke="#63b8ff" points="185.52,-209.83 193.67,-203.05 183.08,-203.27 185.52,-209.83"/>
</a>
</g>
</g>
<!-- Node19 -->
<g id="Node000019" class="node">
<title>Node19</title>
<g id="a_Node000019"><a xlink:href="SommerfeldIntegrator_8cpp.html#a5384eb4c9aebb470421b74dae88a9a1c" target="_top" xlink:title="Retrieves the imaginary part of a selected member of the computed integrand.">
<polygon fill="white" stroke="#666666" points="275.75,-163.12 174.25,-163.12 174.25,-142.38 275.75,-142.38 275.75,-163.12"/>
<text xml:space="preserve" text-anchor="middle" x="225" y="-149.62" font-family="Helvetica,sans-Serif" font-size="10.00">pickImagMember</text>
</a>
</g>
</g>
<!-- Node1&#45;&gt;Node19 -->
<g id="edge20_Node000001_Node000019" class="edge">
<title>Node1&#45;&gt;Node19</title>
<g id="a_edge20_Node000001_Node000019"><a xlink:title=" ">
<path fill="none" stroke="#63b8ff" d="M79.76,-234.68C98.02,-216.95 128.82,-189.51 160,-172.75 163.44,-170.9 167.07,-169.2 170.79,-167.63"/>
<polygon fill="#63b8ff" stroke="#63b8ff" points="171.91,-170.94 180,-164.1 169.41,-164.41 171.91,-170.94"/>
</a>
</g>
</g>
<!-- Node20 -->
<g id="Node000020" class="node">
<title>Node20</title>
<g id="a_Node000020"><a xlink:href="SommerfeldIntegrator_8cpp.html#a959789f60c38ac9b62d804949d79fe03" target="_top" xlink:title="Retrieves the real part of a selected member of the computed integrand.">
<polygon fill="white" stroke="#666666" points="274.25,-124.12 175.75,-124.12 175.75,-103.38 274.25,-103.38 274.25,-124.12"/>
<text xml:space="preserve" text-anchor="middle" x="225" y="-110.62" font-family="Helvetica,sans-Serif" font-size="10.00">pickRealMember</text>
</a>
</g>
</g>
<!-- Node1&#45;&gt;Node20 -->
<g id="edge21_Node000001_Node000020" class="edge">
<title>Node1&#45;&gt;Node20</title>
<g id="a_edge21_Node000001_Node000020"><a xlink:title=" ">
<path fill="none" stroke="#63b8ff" d="M72.6,-234.63C87.83,-208.98 119.97,-160.72 160,-133.75 162.49,-132.07 165.14,-130.53 167.87,-129.11"/>
<polygon fill="#63b8ff" stroke="#63b8ff" points="169.03,-132.42 176.7,-125.12 166.15,-126.04 169.03,-132.42"/>
</a>
</g>
</g>
<!-- Node21 -->
<g id="Node000021" class="node">
<title>Node21</title>
<g id="a_Node000021"><a xlink:href="classSommerfeldIntegrator.html#a22d5ef6859dfee2cb33c026abeafa091" target="_top" xlink:title="Selects and processes 3D data based on the given input parameters.">
<polygon fill="white" stroke="#666666" points="287,-85.5 163,-85.5 163,-52 287,-52 287,-85.5"/>
<text xml:space="preserve" text-anchor="start" x="171" y="-72" font-family="Helvetica,sans-Serif" font-size="10.00">SommerfeldIntegrator</text>
<text xml:space="preserve" text-anchor="middle" x="225" y="-59.25" font-family="Helvetica,sans-Serif" font-size="10.00">::selectData3D</text>
</a>
</g>
</g>
<!-- Node1&#45;&gt;Node21 -->
<g id="edge22_Node000001_Node000021" class="edge">
<title>Node1&#45;&gt;Node21</title>
<g id="a_edge22_Node000001_Node000021"><a xlink:title=" ">
<path fill="none" stroke="#63b8ff" d="M69.35,-234.66C81.94,-202.92 113.01,-134.46 160,-94.75 161.11,-93.81 162.25,-92.91 163.43,-92.03"/>
<polygon fill="#63b8ff" stroke="#63b8ff" points="165.2,-95.06 171.72,-86.7 161.41,-89.17 165.2,-95.06"/>
</a>
</g>
</g>
<!-- Node22 -->
<g id="Node000022" class="node">
<title>Node22</title>
<g id="a_Node000022"><a xlink:href="classSommerfeldIntegrator.html#ae6b066494d7f0e8d6dfd9c8e282f9e5a" target="_top" xlink:title="Dump a 3D complex matrix to text (i j k Re Im) for debugging.">
<polygon fill="white" stroke="#666666" points="287,-33.5 163,-33.5 163,0 287,0 287,-33.5"/>
<text xml:space="preserve" text-anchor="start" x="171" y="-20" font-family="Helvetica,sans-Serif" font-size="10.00">SommerfeldIntegrator</text>
<text xml:space="preserve" text-anchor="middle" x="225" y="-7.25" font-family="Helvetica,sans-Serif" font-size="10.00">::write3DMatrixToFile</text>
</a>
</g>
</g>
<!-- Node1&#45;&gt;Node22 -->
<g id="edge23_Node000001_Node000022" class="edge">
<title>Node1&#45;&gt;Node22</title>
<g id="a_edge23_Node000001_Node000022"><a xlink:title=" ">
<path fill="none" stroke="#63b8ff" d="M66.45,-234.63C75.19,-195.42 101.78,-98.2 160,-42.75 160.76,-42.03 161.54,-41.32 162.35,-40.64"/>
<polygon fill="#63b8ff" stroke="#63b8ff" points="164.31,-43.54 170.39,-34.86 160.22,-37.85 164.31,-43.54"/>
</a>
</g>
</g>
<!-- Node3 -->
<g id="Node000003" class="node">
<title>Node3</title>
<g id="a_Node000003"><a xlink:href="structIntegrandInter.html#a2ea9f2fbbfb494f9b9debd5f7f4f362b" target="_top" xlink:title="Extract selected elements from a 3D array into a compact 3D structure.">
<polygon fill="white" stroke="#666666" points="639.25,-409.12 486,-409.12 486,-388.38 639.25,-388.38 639.25,-409.12"/>
<text xml:space="preserve" text-anchor="middle" x="562.62" y="-395.62" font-family="Helvetica,sans-Serif" font-size="10.00">IntegrandInter::flattenVector</text>
</a>
</g>
</g>
<!-- Node2&#45;&gt;Node3 -->
<g id="edge2_Node000002_Node000003" class="edge">
<title>Node2&#45;&gt;Node3</title>
<g id="a_edge2_Node000002_Node000003"><a xlink:title=" ">
<path fill="none" stroke="#63b8ff" d="M449.38,-398.75C457.4,-398.75 465.75,-398.75 474.11,-398.75"/>
<polygon fill="#63b8ff" stroke="#63b8ff" points="473.99,-402.25 483.99,-398.75 473.99,-395.25 473.99,-402.25"/>
</a>
</g>
</g>
<!-- Node4 -->
<g id="Node000004" class="node">
<title>Node4</title>
<g id="a_Node000004"><a xlink:href="structIntegrandInter.html#adb71cb8507ba98a63b290ec0acd8d628" target="_top" xlink:title="Bounds&#45;checked access to a 3D array element.">
<polygon fill="white" stroke="#666666" points="809,-409.12 675.25,-409.12 675.25,-388.38 809,-388.38 809,-409.12"/>
<text xml:space="preserve" text-anchor="middle" x="742.12" y="-395.62" font-family="Helvetica,sans-Serif" font-size="10.00">IntegrandInter::getValue</text>
</a>
</g>
</g>
<!-- Node3&#45;&gt;Node4 -->
<g id="edge3_Node000003_Node000004" class="edge">
<title>Node3&#45;&gt;Node4</title>
<g id="a_edge3_Node000003_Node000004"><a xlink:title=" ">
<path fill="none" stroke="#63b8ff" d="M639.67,-398.75C647.58,-398.75 655.62,-398.75 663.53,-398.75"/>
<polygon fill="#63b8ff" stroke="#63b8ff" points="663.51,-402.25 673.51,-398.75 663.51,-395.25 663.51,-402.25"/>
</a>
</g>
</g>
<!-- Node6 -->
<g id="Node000006" class="node">
<title>Node6</title>
<g id="a_Node000006"><a xlink:href="SommerfeldIntegrator_8cpp.html#a9d3834c50a37c06607ab377700f8ba4d" target="_top" xlink:title="Adaptive Gauss–Kronrod quadrature (QUADPACK driver routine DQAGE).">
<polygon fill="white" stroke="#666666" points="413.62,-484.12 362.38,-484.12 362.38,-463.38 413.62,-463.38 413.62,-484.12"/>
<text xml:space="preserve" text-anchor="middle" x="388" y="-470.62" font-family="Helvetica,sans-Serif" font-size="10.00">dqage_</text>
</a>
</g>
</g>
<!-- Node5&#45;&gt;Node6 -->
<g id="edge5_Node000005_Node000006" class="edge">
<title>Node5&#45;&gt;Node6</title>
<g id="a_edge5_Node000005_Node000006"><a xlink:title=" ">
<path fill="none" stroke="#63b8ff" d="M266.63,-473.75C292.52,-473.75 325.78,-473.75 350.77,-473.75"/>
<polygon fill="#63b8ff" stroke="#63b8ff" points="350.45,-477.25 360.45,-473.75 350.45,-470.25 350.45,-477.25"/>
</a>
</g>
</g>
<!-- Node10&#45;&gt;Node2 -->
<g id="edge10_Node000010_Node000002" class="edge">
<title>Node10&#45;&gt;Node2</title>
<g id="a_edge10_Node000010_Node000002"><a xlink:title=" ">
<path fill="none" stroke="#63b8ff" d="M274.27,-291.86C279.75,-294.52 285.11,-297.49 290,-300.75 322.99,-322.75 353.89,-357.31 371.6,-378.96"/>
<polygon fill="#63b8ff" stroke="#63b8ff" points="368.84,-381.11 377.83,-386.73 374.31,-376.74 368.84,-381.11"/>
</a>
</g>
</g>
<!-- Node10&#45;&gt;Node11 -->
<g id="edge11_Node000010_Node000011" class="edge">
<title>Node10&#45;&gt;Node11</title>
<g id="a_edge11_Node000010_Node000011"><a xlink:title=" ">
<path fill="none" stroke="#63b8ff" d="M287.33,-265.99C296.14,-264.73 305.27,-263.43 314.28,-262.14"/>
<polygon fill="#63b8ff" stroke="#63b8ff" points="314.67,-265.62 324.08,-260.74 313.68,-258.69 314.67,-265.62"/>
</a>
</g>
</g>
<!-- Node12 -->
<g id="Node000012" class="node">
<title>Node12</title>
<g id="a_Node000012"><a xlink:href="SommerfeldIntegrator_8cpp.html#a93b85379d21563ca5aba6f5eff053826" target="_top" xlink:title="Computes the Bessel function .">
<polygon fill="white" stroke="#666666" points="587.88,-262.12 537.38,-262.12 537.38,-241.38 587.88,-241.38 587.88,-262.12"/>
<text xml:space="preserve" text-anchor="middle" x="562.62" y="-248.62" font-family="Helvetica,sans-Serif" font-size="10.00">besselJ</text>
</a>
</g>
</g>
<!-- Node11&#45;&gt;Node12 -->
<g id="edge12_Node000011_Node000012" class="edge">
<title>Node11&#45;&gt;Node12</title>
<g id="a_edge12_Node000011_Node000012"><a xlink:title=" ">
<path fill="none" stroke="#63b8ff" d="M450.35,-251.75C475.53,-251.75 503.82,-251.75 525.57,-251.75"/>
<polygon fill="#63b8ff" stroke="#63b8ff" points="525.41,-255.25 535.41,-251.75 525.41,-248.25 525.41,-255.25"/>
</a>
</g>
</g>
<!-- Node14 -->
<g id="Node000014" class="node">
<title>Node14</title>
<g id="a_Node000014"><a xlink:href="SommerfeldIntegrator_8cpp.html#aa15340ecd95146df9ef36735f56c3417" target="_top" xlink:title="Computes the Hankel function .">
<polygon fill="white" stroke="#666666" points="590.5,-223.12 534.75,-223.12 534.75,-202.38 590.5,-202.38 590.5,-223.12"/>
<text xml:space="preserve" text-anchor="middle" x="562.62" y="-209.62" font-family="Helvetica,sans-Serif" font-size="10.00">hankelH</text>
</a>
</g>
</g>
<!-- Node11&#45;&gt;Node14 -->
<g id="edge14_Node000011_Node000014" class="edge">
<title>Node11&#45;&gt;Node14</title>
<g id="a_edge14_Node000011_Node000014"><a xlink:title=" ">
<path fill="none" stroke="#63b8ff" d="M450.35,-237.89C474.83,-232.36 502.24,-226.17 523.73,-221.31"/>
<polygon fill="#63b8ff" stroke="#63b8ff" points="524.23,-224.79 533.21,-219.17 522.69,-217.96 524.23,-224.79"/>
</a>
</g>
</g>
<!-- Node16 -->
<g id="Node000016" class="node">
<title>Node16</title>
<g id="a_Node000016"><a xlink:href="classSommerfeldIntegrator.html#a81c32ffee2aefc0eecbbbd7235c80e70" target="_top" xlink:title="Computes secondary wave contributions in a layered medium.">
<polygon fill="white" stroke="#666666" points="624.62,-313.5 500.62,-313.5 500.62,-280 624.62,-280 624.62,-313.5"/>
<text xml:space="preserve" text-anchor="start" x="508.62" y="-300" font-family="Helvetica,sans-Serif" font-size="10.00">SommerfeldIntegrator</text>
<text xml:space="preserve" text-anchor="middle" x="562.62" y="-287.25" font-family="Helvetica,sans-Serif" font-size="10.00">::Secondary</text>
</a>
</g>
</g>
<!-- Node11&#45;&gt;Node16 -->
<g id="edge16_Node000011_Node000016" class="edge">
<title>Node11&#45;&gt;Node16</title>
<g id="a_edge16_Node000011_Node000016"><a xlink:title=" ">
<path fill="none" stroke="#63b8ff" d="M450.35,-267.74C462.99,-271.04 476.42,-274.54 489.4,-277.92"/>
<polygon fill="#63b8ff" stroke="#63b8ff" points="488.16,-281.22 498.72,-280.35 489.93,-274.44 488.16,-281.22"/>
</a>
</g>
</g>
<!-- Node13 -->
<g id="Node000013" class="node">
<title>Node13</title>
<g id="a_Node000013"><a xlink:href="SommerfeldIntegrator_8cpp.html#a384f5925eef2fc5d52e72a65c50174c7" target="_top" xlink:title="Compute complex Bessel functions of the first kind .">
<polygon fill="white" stroke="#666666" points="765.5,-262.12 718.75,-262.12 718.75,-241.38 765.5,-241.38 765.5,-262.12"/>
<text xml:space="preserve" text-anchor="middle" x="742.12" y="-248.62" font-family="Helvetica,sans-Serif" font-size="10.00">zbesj_</text>
</a>
</g>
</g>
<!-- Node12&#45;&gt;Node13 -->
<g id="edge13_Node000012_Node000013" class="edge">
<title>Node12&#45;&gt;Node13</title>
<g id="a_edge13_Node000012_Node000013"><a xlink:title=" ">
<path fill="none" stroke="#63b8ff" d="M588.31,-251.75C619.15,-251.75 672.11,-251.75 706.87,-251.75"/>
<polygon fill="#63b8ff" stroke="#63b8ff" points="706.83,-255.25 716.83,-251.75 706.83,-248.25 706.83,-255.25"/>
</a>
</g>
</g>
<!-- Node15 -->
<g id="Node000015" class="node">
<title>Node15</title>
<g id="a_Node000015"><a xlink:href="SommerfeldIntegrator_8cpp.html#a2119f72fafe396d33e9c85025883db96" target="_top" xlink:title="Compute complex Hankel functions of the first kind or second kind .">
<polygon fill="white" stroke="#666666" points="767,-223.12 717.25,-223.12 717.25,-202.38 767,-202.38 767,-223.12"/>
<text xml:space="preserve" text-anchor="middle" x="742.12" y="-209.62" font-family="Helvetica,sans-Serif" font-size="10.00">zbesh_</text>
</a>
</g>
</g>
<!-- Node14&#45;&gt;Node15 -->
<g id="edge15_Node000014_Node000015" class="edge">
<title>Node14&#45;&gt;Node15</title>
<g id="a_edge15_Node000014_Node000015"><a xlink:title=" ">
<path fill="none" stroke="#63b8ff" d="M590.97,-212.75C621.76,-212.75 671.91,-212.75 705.68,-212.75"/>
<polygon fill="#63b8ff" stroke="#63b8ff" points="705.37,-216.25 715.37,-212.75 705.37,-209.25 705.37,-216.25"/>
</a>
</g>
</g>
<!-- Node17 -->
<g id="Node000017" class="node">
<title>Node17</title>
<g id="a_Node000017"><a xlink:href="classSommerfeldIntegrator.html#ac555c6dc86d0b7fb03ea49df9668daf8" target="_top" xlink:title="Computes distances from interfaces for inter&#45;layer secondary wave calculations.">
<polygon fill="white" stroke="#666666" points="804.12,-313.5 680.12,-313.5 680.12,-280 804.12,-280 804.12,-313.5"/>
<text xml:space="preserve" text-anchor="start" x="688.12" y="-300" font-family="Helvetica,sans-Serif" font-size="10.00">SommerfeldIntegrator</text>
<text xml:space="preserve" text-anchor="middle" x="742.12" y="-287.25" font-family="Helvetica,sans-Serif" font-size="10.00">::interDist</text>
</a>
</g>
</g>
<!-- Node16&#45;&gt;Node17 -->
<g id="edge17_Node000016_Node000017" class="edge">
<title>Node16&#45;&gt;Node17</title>
<g id="a_edge17_Node000016_Node000017"><a xlink:title=" ">
<path fill="none" stroke="#63b8ff" d="M624.71,-296.75C638.72,-296.75 653.74,-296.75 668.19,-296.75"/>
<polygon fill="#63b8ff" stroke="#63b8ff" points="668.11,-300.25 678.11,-296.75 668.11,-293.25 668.11,-300.25"/>
</a>
</g>
</g>
<!-- Node23 -->
<g id="Node000023" class="node">
<title>Node23</title>
<g id="a_Node000023"><a xlink:href="Domain_8cpp.html#aafa3e4fa6318b2f8740f4dbd50c367e5" target="_top" xlink:title="Extract the real part of each component of a complex 3&#45;vector.">
<polygon fill="white" stroke="#666666" points="405.38,-27.12 370.62,-27.12 370.62,-6.38 405.38,-6.38 405.38,-27.12"/>
<text xml:space="preserve" text-anchor="middle" x="388" y="-13.62" font-family="Helvetica,sans-Serif" font-size="10.00">real</text>
</a>
</g>
</g>
<!-- Node22&#45;&gt;Node23 -->
<g id="edge24_Node000022_Node000023" class="edge">
<title>Node22&#45;&gt;Node23</title>
<g id="a_edge24_Node000022_Node000023"><a xlink:title=" ">
<path fill="none" stroke="#63b8ff" d="M287.33,-16.75C312.05,-16.75 339.34,-16.75 359.11,-16.75"/>
<polygon fill="#63b8ff" stroke="#63b8ff" points="358.83,-20.25 368.83,-16.75 358.83,-13.25 358.83,-20.25"/>
</a>
</g>
</g>
<!-- Node23&#45;&gt;Node23 -->
<g id="edge25_Node000023_Node000023" class="edge">
<title>Node23&#45;&gt;Node23</title>
<g id="a_edge25_Node000023_Node000023"><a xlink:title=" ">
<path fill="none" stroke="#63b8ff" d="M370.29,-22.46C348.51,-32.27 354.41,-45.12 388,-45.12 415.29,-45.12 424.3,-36.64 415.04,-28.2"/>
<polygon fill="#63b8ff" stroke="#63b8ff" points="417.35,-25.51 407,-23.25 413.69,-31.47 417.35,-25.51"/>
</a>
</g>
</g>
</g>
</svg>

<g id="navigator" transform="translate(0 0)" fill="#404254">
  <rect fill="#f2f5e9" fill-opacity="0.5" stroke="#606060" stroke-width=".5" x="0" y="0" width="60" height="60"/>
  <use id="zoomplus" xlink:href="#zoomPlus" x="17" y="9" onmousedown="handleZoom(evt,'in')"/>
  <use id="zoomminus" xlink:href="#zoomMin" x="42" y="9" onmousedown="handleZoom(evt,'out')"/>
  <use id="reset" xlink:href="#resetDef" x="30" y="36" onmousedown="handleReset()"/>
   <use id="arrowup" xlink:href="#arrowUp" x="0" y="0" onmousedown="handlePan(0,-1)"/>
  <use id="arrowright" xlink:href="#arrowRight" x="0" y="0" onmousedown="handlePan(1,0)"/>
  <use id="arrowdown" xlink:href="#arrowDown" x="0" y="0" onmousedown="handlePan(0,1)"/>
  <use id="arrowleft" xlink:href="#arrowLeft" x="0" y="0" onmousedown="handlePan(-1,0)"/>
</g>
<svg viewBox="0 0 15 15" width="100%" height="30px" preserveAspectRatio="xMaxYMin meet">
 <g id="arrow_out" transform="scale(0.3 0.3)">
  <a xlink:href="classSommerfeldIntegrator_a2537d36d62ecdecc297e19c8127f827a_cgraph_org.svg" target="_base">
   <rect id="button" ry="5" rx="5" y="6" x="6" height="38" width="38"
        fill="#f2f5e9" fill-opacity="0.5" stroke="#606060" stroke-width="1.0"/>
   <path id="arrow"
     d="M 11.500037,31.436501 C 11.940474,20.09759 22.043105,11.32322 32.158766,21.979434 L 37.068811,17.246167 C 37.068811,17.246167 37.088388,32 37.088388,32 L 22.160133,31.978069 C 22.160133,31.978069 26.997745,27.140456 26.997745,27.140456 C 18.528582,18.264221 13.291696,25.230495 11.500037,31.436501 z"
     style="fill:#404040;"/>
  </a>
 </g>
</svg>

<style type='text/css'>
<![CDATA[
[data-mouse-over-selected='false'] { opacity: 0.7; }
[data-mouse-over-selected='true']  { opacity: 1.0; }
]]>
</style>
<script type="application/ecmascript"><![CDATA[
document.addEventListener('DOMContentLoaded', (event) => {
  highlightEdges();
  highlightAdjacentNodes();
});
]]></script>
</svg>
