<?xml version="1.0" encoding="UTF-8" standalone="no"?>
<!DOCTYPE svg PUBLIC "-//W3C//DTD SVG 1.1//EN"
 "http://www.w3.org/Graphics/SVG/1.1/DTD/svg11.dtd">
<!-- Generated by graphviz version 13.1.2 (20250809.0930)
 -->
<!-- Title: TriQuadPol::TriQuadPol Pages: 1 -->
<!--zoomable 236 -->

<svg id="main" version="1.1" xmlns="http://www.w3.org/2000/svg" xmlns:xlink="http://www.w3.org/1999/xlink" xml:space="preserve" onload="init(evt)">

<style type="text/css"><![CDATA[
.node, .edge {opacity: 0.7;}
.node.selected, .edge.selected {opacity: 1;}
.edge:hover path { stroke: red; }
.edge:hover polygon { stroke: red; fill: red; }
]]></style>

<defs>
  <circle id="rim" cx="0" cy="0" r="7"/>
  <circle id="rim2" cx="0" cy="0" r="3.5"/>
  <g id="zoomPlus">
    <use xlink:href="#rim" fill="#404040"><set attributeName="fill" to="#808080" begin="zoomplus.mouseover" end="zoomplus.mouseout"/></use>
    <path d="M-4,0h8M0,-4v8" fill="none" stroke="white" stroke-width="1.5" pointer-events="none"/>
  </g>
  <g id="zoomMin">
    <use xlink:href="#rim" fill="#404040"><set attributeName="fill" to="#808080" begin="zoomminus.mouseover" end="zoomminus.mouseout"/></use>
    <path d="M-4,0h8" fill="none" stroke="white" stroke-width="1.5" pointer-events="none"/>
  </g>
  <g id="arrowUp" transform="translate(30 24)">
    <use xlink:href="#rim"/>
    <path pointer-events="none" fill="none" stroke="white" stroke-width="1.5" d="M0,-3.0v7 M-2.5,-0.5L0,-3.0L2.5,-0.5"/>
  </g>
  <g id="arrowRight" transform="rotate(90) translate(36 -43)">
    <use xlink:href="#rim"/>
    <path pointer-events="none" fill="none" stroke="white" stroke-width="1.5" d="M0,-3.0v7 M-2.5,-0.5L0,-3.0L2.5,-0.5"/>
  </g>
  <g id="arrowDown" transform="rotate(180) translate(-30 -48)">
    <use xlink:href="#rim"/>
    <path pointer-events="none" fill="none" stroke="white" stroke-width="1.5" d="M0,-3.0v7 M-2.5,-0.5L0,-3.0L2.5,-0.5"/>
  </g>
  <g id="arrowLeft" transform="rotate(270) translate(-36 17)">
    <use xlink:href="#rim"/>
    <path pointer-events="none" fill="none" stroke="white" stroke-width="1.5" d="M0,-3.0v7 M-2.5,-0.5L0,-3.0L2.5,-0.5"/>
  </g>
  <g id="resetDef">
    <use xlink:href="#rim2" fill="#404040"><set attributeName="fill" to="#808080" begin="reset.mouseover" end="reset.mouseout"/></use>
  </g>
</defs>
<script type="application/ecmascript">
var viewWidth = 647;
var viewHeight = 236;
var sectionId = 'dynsection-1';
</script>
<script type="application/ecmascript" xlink:href="svg.min.js"/>
<svg id="graph" class="graph">
<g id="viewport">
<title>TriQuadPol::TriQuadPol</title>
<!-- Node1 -->
<g id="Node000001" class="node">
<title>Node1</title>
<g id="a_Node000001"><a xlink:title="Construct and immediately adapt the polar quadrature.">
<polygon fill="#999999" stroke="#666666" points="125.5,-120.75 0,-120.75 0,-100 125.5,-100 125.5,-120.75"/>
<text xml:space="preserve" text-anchor="middle" x="62.75" y="-107.25" font-family="Helvetica,sans-Serif" font-size="10.00">TriQuadPol::TriQuadPol</text>
</a>
</g>
</g>
<!-- Node2 -->
<g id="Node000002" class="node">
<title>Node2</title>
<g id="a_Node000002"><a xlink:href="classTriQuadPol.html#abb4388c4a651d097c0c93376c45010e3" target="_top" xlink:title="Build angular sectors and radial bounds, then assemble nodes/weights.">
<polygon fill="white" stroke="#666666" points="287.75,-120.75 161.5,-120.75 161.5,-100 287.75,-100 287.75,-120.75"/>
<text xml:space="preserve" text-anchor="middle" x="224.62" y="-107.25" font-family="Helvetica,sans-Serif" font-size="10.00">TriQuadPol::adaptPolar</text>
</a>
</g>
</g>
<!-- Node1&#45;&gt;Node2 -->
<g id="edge1_Node000001_Node000002" class="edge">
<title>Node1&#45;&gt;Node2</title>
<g id="a_edge1_Node000001_Node000002"><a xlink:title=" ">
<path fill="none" stroke="#63b8ff" d="M125.56,-110.38C133.51,-110.38 141.7,-110.38 149.81,-110.38"/>
<polygon fill="#63b8ff" stroke="#63b8ff" points="149.67,-113.88 159.67,-110.38 149.67,-106.88 149.67,-113.88"/>
</a>
</g>
</g>
<!-- Node3 -->
<g id="Node000003" class="node">
<title>Node3</title>
<g id="a_Node000003"><a xlink:href="classTriQuadPol.html#aa0a0a7af46125d5359ae00fca0621de2" target="_top" xlink:title="Build angular bins and radial bounds when the point is inside the triangle.">
<polygon fill="white" stroke="#666666" points="457.88,-227.75 347.38,-227.75 347.38,-207 457.88,-207 457.88,-227.75"/>
<text xml:space="preserve" text-anchor="middle" x="402.62" y="-214.25" font-family="Helvetica,sans-Serif" font-size="10.00">TriQuadPol::adaptIn</text>
</a>
</g>
</g>
<!-- Node2&#45;&gt;Node3 -->
<g id="edge2_Node000002_Node000003" class="edge">
<title>Node2&#45;&gt;Node3</title>
<g id="a_edge2_Node000002_Node000003"><a xlink:title=" ">
<path fill="none" stroke="#63b8ff" d="M234.46,-120.98C250.38,-139.39 285.75,-177.19 323.75,-197.38 327.84,-199.55 332.18,-201.49 336.63,-203.24"/>
<polygon fill="#63b8ff" stroke="#63b8ff" points="335.15,-206.42 345.74,-206.44 337.47,-199.82 335.15,-206.42"/>
</a>
</g>
</g>
<!-- Node4 -->
<g id="Node000004" class="node">
<title>Node4</title>
<g id="a_Node000004"><a xlink:href="classTriQuadPol.html#a3f18d2c370480a52cb1364f9dd95ed06" target="_top" xlink:title="Build angular bins/radial bounds when the point is outside the triangle.">
<polygon fill="white" stroke="#666666" points="462,-188.75 343.25,-188.75 343.25,-168 462,-168 462,-188.75"/>
<text xml:space="preserve" text-anchor="middle" x="402.62" y="-175.25" font-family="Helvetica,sans-Serif" font-size="10.00">TriQuadPol::adaptOut</text>
</a>
</g>
</g>
<!-- Node2&#45;&gt;Node4 -->
<g id="edge3_Node000002_Node000004" class="edge">
<title>Node2&#45;&gt;Node4</title>
<g id="a_edge3_Node000002_Node000004"><a xlink:title=" ">
<path fill="none" stroke="#63b8ff" d="M243.88,-121.05C263.19,-131.96 294.79,-148.76 323.75,-159.38 328.72,-161.19 333.92,-162.89 339.19,-164.46"/>
<polygon fill="#63b8ff" stroke="#63b8ff" points="338,-167.77 348.57,-167.1 339.9,-161.03 338,-167.77"/>
</a>
</g>
</g>
<!-- Node5 -->
<g id="Node000005" class="node">
<title>Node5</title>
<g id="a_Node000005"><a xlink:href="classTriQuadPol.html#a70845b7e565aa1befcffd099f850215b" target="_top" xlink:title="Expand &#45;bins into ( ) Gauss products and convert to barycentric nodes.">
<polygon fill="white" stroke="#666666" points="475.5,-150.12 329.75,-150.12 329.75,-116.62 475.5,-116.62 475.5,-150.12"/>
<text xml:space="preserve" text-anchor="start" x="337.75" y="-136.62" font-family="Helvetica,sans-Serif" font-size="10.00">TriQuadPol::assembleFrom</text>
<text xml:space="preserve" text-anchor="middle" x="402.62" y="-123.88" font-family="Helvetica,sans-Serif" font-size="10.00">Polar</text>
</a>
</g>
</g>
<!-- Node2&#45;&gt;Node5 -->
<g id="edge4_Node000002_Node000005" class="edge">
<title>Node2&#45;&gt;Node5</title>
<g id="a_edge4_Node000002_Node000005"><a xlink:title=" ">
<path fill="none" stroke="#63b8ff" d="M288.17,-118.55C297.86,-119.82 308,-121.14 318.07,-122.46"/>
<polygon fill="#63b8ff" stroke="#63b8ff" points="317.5,-125.91 327.87,-123.74 318.41,-118.97 317.5,-125.91"/>
</a>
</g>
</g>
<!-- Node6 -->
<g id="Node000006" class="node">
<title>Node6</title>
<g id="a_Node000006"><a xlink:href="classTriQuadPol.html#a143954247825794d0dc5c0d0e3d98365" target="_top" xlink:title="Straight&#45;line segment between two vertices written in polar form about posInPlane.">
<polygon fill="white" stroke="#666666" points="465.38,-98.75 339.88,-98.75 339.88,-78 465.38,-78 465.38,-98.75"/>
<text xml:space="preserve" text-anchor="middle" x="402.62" y="-85.25" font-family="Helvetica,sans-Serif" font-size="10.00">TriQuadPol::lineInPolar</text>
</a>
</g>
</g>
<!-- Node2&#45;&gt;Node6 -->
<g id="edge5_Node000002_Node000006" class="edge">
<title>Node2&#45;&gt;Node6</title>
<g id="a_edge5_Node000002_Node000006"><a xlink:title=" ">
<path fill="none" stroke="#63b8ff" d="M288.17,-102.56C301.22,-100.93 315.08,-99.19 328.47,-97.52"/>
<polygon fill="#63b8ff" stroke="#63b8ff" points="328.59,-101.03 338.07,-96.32 327.72,-94.09 328.59,-101.03"/>
</a>
</g>
</g>
<!-- Node7 -->
<g id="Node000007" class="node">
<title>Node7</title>
<g id="a_Node000007"><a xlink:href="classTriQuadPol.html#ad2163791262ee9d63337474eb7bbe8d7" target="_top" xlink:title="2D triangle membership test (local plane coordinates).">
<polygon fill="white" stroke="#666666" points="475.5,-59.75 329.75,-59.75 329.75,-39 475.5,-39 475.5,-59.75"/>
<text xml:space="preserve" text-anchor="middle" x="402.62" y="-46.25" font-family="Helvetica,sans-Serif" font-size="10.00">TriQuadPol::pointInTriangle</text>
</a>
</g>
</g>
<!-- Node2&#45;&gt;Node7 -->
<g id="edge6_Node000002_Node000007" class="edge">
<title>Node2&#45;&gt;Node7</title>
<g id="a_edge6_Node000002_Node000007"><a xlink:title=" ">
<path fill="none" stroke="#63b8ff" d="M248.66,-99.64C268.32,-90.74 297.49,-78.18 323.75,-69.38 330.26,-67.19 337.15,-65.11 344.03,-63.17"/>
<polygon fill="#63b8ff" stroke="#63b8ff" points="344.58,-66.64 353.31,-60.64 342.74,-59.89 344.58,-66.64"/>
</a>
</g>
</g>
<!-- Node9 -->
<g id="Node000009" class="node">
<title>Node9</title>
<g id="a_Node000009"><a xlink:href="classTriQuadPol.html#aea4deef1068d5095c5c6afbb741be8d7" target="_top" xlink:title="Build an orthonormal basis on the triangle plane and project (vertices, point).">
<polygon fill="white" stroke="#666666" points="481.5,-20.75 323.75,-20.75 323.75,0 481.5,0 481.5,-20.75"/>
<text xml:space="preserve" text-anchor="middle" x="402.62" y="-7.25" font-family="Helvetica,sans-Serif" font-size="10.00">TriQuadPol::transformInPlane</text>
</a>
</g>
</g>
<!-- Node2&#45;&gt;Node9 -->
<g id="edge8_Node000002_Node000009" class="edge">
<title>Node2&#45;&gt;Node9</title>
<g id="a_edge8_Node000002_Node000009"><a xlink:title=" ">
<path fill="none" stroke="#63b8ff" d="M235.71,-99.56C252.37,-82.32 287.45,-48.71 323.75,-30.38 327.7,-28.38 331.87,-26.57 336.14,-24.93"/>
<polygon fill="#63b8ff" stroke="#63b8ff" points="337.16,-28.28 345.47,-21.71 334.87,-21.67 337.16,-28.28"/>
</a>
</g>
</g>
<!-- Node8 -->
<g id="Node000008" class="node">
<title>Node8</title>
<g id="a_Node000008"><a xlink:href="classTriQuadPol.html#a7573c6d68c4bfe8898024684eda5e12e" target="_top" xlink:title="Return true if a, b, c all have the same sign (non&#45;strict).">
<polygon fill="white" stroke="#666666" points="639.25,-59.75 517.5,-59.75 517.5,-39 639.25,-39 639.25,-59.75"/>
<text xml:space="preserve" text-anchor="middle" x="578.38" y="-46.25" font-family="Helvetica,sans-Serif" font-size="10.00">TriQuadPol::sameSign</text>
</a>
</g>
</g>
<!-- Node7&#45;&gt;Node8 -->
<g id="edge7_Node000007_Node000008" class="edge">
<title>Node7&#45;&gt;Node8</title>
<g id="a_edge7_Node000007_Node000008"><a xlink:title=" ">
<path fill="none" stroke="#63b8ff" d="M475.8,-49.38C485.65,-49.38 495.76,-49.38 505.61,-49.38"/>
<polygon fill="#63b8ff" stroke="#63b8ff" points="505.5,-52.88 515.5,-49.38 505.5,-45.88 505.5,-52.88"/>
</a>
</g>
</g>
<!-- Node10 -->
<g id="Node000010" class="node">
<title>Node10</title>
<g id="a_Node000010"><a xlink:href="classTriQuadPol.html#ad0a8c886e263961bc2935f21ef14dcf7" target="_top" xlink:title="Zero out tiny values for numeric stability.">
<polygon fill="white" stroke="#666666" points="628.38,-20.75 528.38,-20.75 528.38,0 628.38,0 628.38,-20.75"/>
<text xml:space="preserve" text-anchor="middle" x="578.38" y="-7.25" font-family="Helvetica,sans-Serif" font-size="10.00">TriQuadPol::clean</text>
</a>
</g>
</g>
<!-- Node9&#45;&gt;Node10 -->
<g id="edge9_Node000009_Node000010" class="edge">
<title>Node9&#45;&gt;Node10</title>
<g id="a_edge9_Node000009_Node000010"><a xlink:title=" ">
<path fill="none" stroke="#63b8ff" d="M481.86,-10.38C493.49,-10.38 505.33,-10.38 516.54,-10.38"/>
<polygon fill="#63b8ff" stroke="#63b8ff" points="516.43,-13.88 526.43,-10.38 516.43,-6.88 516.43,-13.88"/>
</a>
</g>
</g>
</g>
</svg>

<g id="navigator" transform="translate(0 0)" fill="#404254">
  <rect fill="#f2f5e9" fill-opacity="0.5" stroke="#606060" stroke-width=".5" x="0" y="0" width="60" height="60"/>
  <use id="zoomplus" xlink:href="#zoomPlus" x="17" y="9" onmousedown="handleZoom(evt,'in')"/>
  <use id="zoomminus" xlink:href="#zoomMin" x="42" y="9" onmousedown="handleZoom(evt,'out')"/>
  <use id="reset" xlink:href="#resetDef" x="30" y="36" onmousedown="handleReset()"/>
   <use id="arrowup" xlink:href="#arrowUp" x="0" y="0" onmousedown="handlePan(0,-1)"/>
  <use id="arrowright" xlink:href="#arrowRight" x="0" y="0" onmousedown="handlePan(1,0)"/>
  <use id="arrowdown" xlink:href="#arrowDown" x="0" y="0" onmousedown="handlePan(0,1)"/>
  <use id="arrowleft" xlink:href="#arrowLeft" x="0" y="0" onmousedown="handlePan(-1,0)"/>
</g>
<svg viewBox="0 0 15 15" width="100%" height="30px" preserveAspectRatio="xMaxYMin meet">
 <g id="arrow_out" transform="scale(0.3 0.3)">
  <a xlink:href="classTriQuadPol_a4f5e17f2daa1107f7ad126c30a32958c_cgraph_org.svg" target="_base">
   <rect id="button" ry="5" rx="5" y="6" x="6" height="38" width="38"
        fill="#f2f5e9" fill-opacity="0.5" stroke="#606060" stroke-width="1.0"/>
   <path id="arrow"
     d="M 11.500037,31.436501 C 11.940474,20.09759 22.043105,11.32322 32.158766,21.979434 L 37.068811,17.246167 C 37.068811,17.246167 37.088388,32 37.088388,32 L 22.160133,31.978069 C 22.160133,31.978069 26.997745,27.140456 26.997745,27.140456 C 18.528582,18.264221 13.291696,25.230495 11.500037,31.436501 z"
     style="fill:#404040;"/>
  </a>
 </g>
</svg>

<style type='text/css'>
<![CDATA[
[data-mouse-over-selected='false'] { opacity: 0.7; }
[data-mouse-over-selected='true']  { opacity: 1.0; }
]]>
</style>
<script type="application/ecmascript"><![CDATA[
document.addEventListener('DOMContentLoaded', (event) => {
  highlightEdges();
  highlightAdjacentNodes();
});
]]></script>
</svg>
