<?xml version="1.0" encoding="UTF-8" standalone="no"?>
<!DOCTYPE svg PUBLIC "-//W3C//DTD SVG 1.1//EN"
 "http://www.w3.org/Graphics/SVG/1.1/DTD/svg11.dtd">
<!-- Generated by graphviz version 13.1.2 (20250809.0930)
 -->
<!-- Title: SimJob::EandHField Pages: 1 -->
<svg width="418pt" height="126pt"
 viewBox="0.00 0.00 418.00 126.00" xmlns="http://www.w3.org/2000/svg" xmlns:xlink="http://www.w3.org/1999/xlink">

<svg id="main" version="1.1" xmlns="http://www.w3.org/2000/svg" xmlns:xlink="http://www.w3.org/1999/xlink" xml:space="preserve">

<style type="text/css"><![CDATA[
.node, .edge {opacity: 0.7;}
.node.selected, .edge.selected {opacity: 1;}
.edge:hover path { stroke: red; }
.edge:hover polygon { stroke: red; fill: red; }
]]></style>
<script type="application/ecmascript" xlink:href="svg.min.js"/>
<svg id="graph" class="graph">
<g id="graph0" class="graph" transform="scale(1 1) rotate(0) translate(4 121.75)">
<title>SimJob::EandHField</title>
<!-- Node1 -->
<g id="Node000001" class="node">
<title>Node1</title>
<g id="a_Node000001"><a xlink:title="Return both , &#160;incident and secondary pairs at pos.">
<polygon fill="#999999" stroke="#666666" points="110.5,-78.75 0,-78.75 0,-58 110.5,-58 110.5,-78.75"/>
<text xml:space="preserve" text-anchor="middle" x="55.25" y="-65.25" font-family="Helvetica,sans-Serif" font-size="10.00">SimJob::EandHField</text>
</a>
</g>
</g>
<!-- Node2 -->
<g id="Node000002" class="node">
<title>Node2</title>
<g id="a_Node000002"><a xlink:href="classDomain.html#afe5c1f862e335ab05031b1d6b0b87c42" target="_top" xlink:title="Total incident electric field at a point from all incident sources.">
<polygon fill="white" stroke="#666666" points="264.5,-117.75 160.75,-117.75 160.75,-97 264.5,-97 264.5,-117.75"/>
<text xml:space="preserve" text-anchor="middle" x="212.62" y="-104.25" font-family="Helvetica,sans-Serif" font-size="10.00">Domain::IncFieldE</text>
</a>
</g>
</g>
<!-- Node1&#45;&gt;Node2 -->
<g id="edge1_Node000001_Node000002" class="edge">
<title>Node1&#45;&gt;Node2</title>
<g id="a_edge1_Node000001_Node000002"><a xlink:title=" ">
<path fill="none" stroke="#63b8ff" d="M99.53,-79.24C117.39,-83.72 138.28,-88.97 157.16,-93.7"/>
<polygon fill="#63b8ff" stroke="#63b8ff" points="156.29,-97.09 166.84,-96.13 157.99,-90.3 156.29,-97.09"/>
</a>
</g>
</g>
<!-- Node3 -->
<g id="Node000003" class="node">
<title>Node3</title>
<g id="a_Node000003"><a xlink:href="classDomain.html#a832a36e6ba8ae02be3dd493bd2577d4a" target="_top" xlink:title="Total incident magnetic field at a point from all incident sources.">
<polygon fill="white" stroke="#666666" points="265.25,-78.75 160,-78.75 160,-58 265.25,-58 265.25,-78.75"/>
<text xml:space="preserve" text-anchor="middle" x="212.62" y="-65.25" font-family="Helvetica,sans-Serif" font-size="10.00">Domain::IncFieldH</text>
</a>
</g>
</g>
<!-- Node1&#45;&gt;Node3 -->
<g id="edge2_Node000001_Node000003" class="edge">
<title>Node1&#45;&gt;Node3</title>
<g id="a_edge2_Node000001_Node000003"><a xlink:title=" ">
<path fill="none" stroke="#63b8ff" d="M110.59,-68.38C122.79,-68.38 135.83,-68.38 148.35,-68.38"/>
<polygon fill="#63b8ff" stroke="#63b8ff" points="148.15,-71.88 158.15,-68.38 148.15,-64.88 148.15,-71.88"/>
</a>
</g>
</g>
<!-- Node4 -->
<g id="Node000004" class="node">
<title>Node4</title>
<g id="a_Node000004"><a xlink:href="classDomain.html#a1d339cb7979c5b2d03d069fc09b40696" target="_top" xlink:title="Secondary fields &#160;at a point.">
<polygon fill="white" stroke="#666666" points="278.75,-39.75 146.5,-39.75 146.5,-19 278.75,-19 278.75,-39.75"/>
<text xml:space="preserve" text-anchor="middle" x="212.62" y="-26.25" font-family="Helvetica,sans-Serif" font-size="10.00">Domain::SecFieldEandH</text>
</a>
</g>
</g>
<!-- Node1&#45;&gt;Node4 -->
<g id="edge3_Node000001_Node000004" class="edge">
<title>Node1&#45;&gt;Node4</title>
<g id="a_edge3_Node000001_Node000004"><a xlink:title=" ">
<path fill="none" stroke="#63b8ff" d="M99.53,-57.51C117.39,-53.03 138.28,-47.78 157.16,-43.05"/>
<polygon fill="#63b8ff" stroke="#63b8ff" points="157.99,-46.45 166.84,-40.62 156.29,-39.66 157.99,-46.45"/>
</a>
</g>
</g>
<!-- Node5 -->
<g id="Node000005" class="node">
<title>Node5</title>
<g id="a_Node000005"><a xlink:href="classDomain.html#a928ea926ed97bac309194301a8b509c3" target="_top" xlink:title="Relative permittivity at a spatial location.">
<polygon fill="white" stroke="#666666" points="410.25,-59.75 314.75,-59.75 314.75,-39 410.25,-39 410.25,-59.75"/>
<text xml:space="preserve" text-anchor="middle" x="362.5" y="-46.25" font-family="Helvetica,sans-Serif" font-size="10.00">Domain::Epsilon</text>
</a>
</g>
</g>
<!-- Node4&#45;&gt;Node5 -->
<g id="edge4_Node000004_Node000005" class="edge">
<title>Node4&#45;&gt;Node5</title>
<g id="a_edge4_Node000004_Node000005"><a xlink:title=" ">
<path fill="none" stroke="#63b8ff" d="M278.92,-38.21C286.92,-39.29 295.06,-40.39 302.96,-41.46"/>
<polygon fill="#63b8ff" stroke="#63b8ff" points="302.43,-44.92 312.81,-42.79 303.37,-37.98 302.43,-44.92"/>
</a>
</g>
</g>
<!-- Node6 -->
<g id="Node000006" class="node">
<title>Node6</title>
<g id="a_Node000006"><a xlink:href="classDomain.html#a22745c7dfa178d41cfa4fb0b5b120595" target="_top" xlink:title="Relative permeability at a spatial location.">
<polygon fill="white" stroke="#666666" points="400.12,-20.75 324.88,-20.75 324.88,0 400.12,0 400.12,-20.75"/>
<text xml:space="preserve" text-anchor="middle" x="362.5" y="-7.25" font-family="Helvetica,sans-Serif" font-size="10.00">Domain::Mu</text>
</a>
</g>
</g>
<!-- Node4&#45;&gt;Node6 -->
<g id="edge5_Node000004_Node000006" class="edge">
<title>Node4&#45;&gt;Node6</title>
<g id="a_edge5_Node000004_Node000006"><a xlink:title=" ">
<path fill="none" stroke="#63b8ff" d="M278.92,-20.99C290.52,-19.5 302.4,-17.97 313.41,-16.55"/>
<polygon fill="#63b8ff" stroke="#63b8ff" points="313.55,-20.06 323.02,-15.32 312.66,-13.12 313.55,-20.06"/>
</a>
</g>
</g>
</g>
</svg>
</svg>

<style type='text/css'>
<![CDATA[
[data-mouse-over-selected='false'] { opacity: 0.7; }
[data-mouse-over-selected='true']  { opacity: 1.0; }
]]>
</style>
<script type="application/ecmascript"><![CDATA[
document.addEventListener('DOMContentLoaded', (event) => {
  highlightEdges();
  highlightAdjacentNodes();
});
]]></script>
</svg>
