<?xml version="1.0" encoding="UTF-8" standalone="no"?>
<!DOCTYPE svg PUBLIC "-//W3C//DTD SVG 1.1//EN"
 "http://www.w3.org/Graphics/SVG/1.1/DTD/svg11.dtd">
<!-- Generated by graphviz version 13.1.2 (20250809.0930)
 -->
<!-- Title: Bsp3D::LocDist Pages: 1 -->
<svg width="480pt" height="68pt"
 viewBox="0.00 0.00 480.00 68.00" xmlns="http://www.w3.org/2000/svg" xmlns:xlink="http://www.w3.org/1999/xlink">
<g id="graph0" class="graph" transform="scale(1 1) rotate(0) translate(4 63.75)">
<title>Bsp3D::LocDist</title>
<!-- Node1 -->
<g id="Node000001" class="node">
<title>Node1</title>
<g id="a_Node000001"><a xlink:title="Signed distance from a point to the splitter plane.">
<polygon fill="#999999" stroke="#666666" points="472,-40.75 382.5,-40.75 382.5,-20 472,-20 472,-40.75"/>
<text xml:space="preserve" text-anchor="middle" x="427.25" y="-27.25" font-family="Helvetica,sans-Serif" font-size="10.00">Bsp3D::LocDist</text>
</a>
</g>
</g>
<!-- Node2 -->
<g id="Node000002" class="node">
<title>Node2</title>
<g id="a_Node000002"><a xlink:href="classBsp3D.html#aeef40776817ce8cec917de1fb2e84f7a" target="_top" xlink:title="Classify a point relative to the splitter plane.">
<polygon fill="white" stroke="#666666" points="346.5,-21.75 257,-21.75 257,-1 346.5,-1 346.5,-21.75"/>
<text xml:space="preserve" text-anchor="middle" x="301.75" y="-8.25" font-family="Helvetica,sans-Serif" font-size="10.00">Bsp3D::LocTest</text>
</a>
</g>
</g>
<!-- Node1&#45;&gt;Node2 -->
<g id="edge1_Node000001_Node000002" class="edge">
<title>Node1&#45;&gt;Node2</title>
<g id="a_edge1_Node000001_Node000002"><a xlink:title=" ">
<path fill="none" stroke="#63b8ff" d="M370.76,-21.84C362.69,-20.6 354.48,-19.33 346.68,-18.13"/>
<polygon fill="#63b8ff" stroke="#63b8ff" points="370.1,-25.28 380.52,-23.34 371.17,-18.36 370.1,-25.28"/>
</a>
</g>
</g>
<!-- Node3 -->
<g id="Node000003" class="node">
<title>Node3</title>
<g id="a_Node000003"><a xlink:href="classBsp3D.html#a53fed4500360085faceb956c49913117" target="_top" xlink:title="Clip a polygon against the splitter, dispatching fragments to children.">
<polygon fill="white" stroke="#666666" points="220.25,-59.75 124,-59.75 124,-39 220.25,-39 220.25,-59.75"/>
<text xml:space="preserve" text-anchor="middle" x="172.12" y="-46.25" font-family="Helvetica,sans-Serif" font-size="10.00">Bsp3D::SplitPoly</text>
</a>
</g>
</g>
<!-- Node1&#45;&gt;Node3 -->
<g id="edge5_Node000001_Node000003" class="edge">
<title>Node1&#45;&gt;Node3</title>
<g id="a_edge5_Node000001_Node000003"><a xlink:title=" ">
<path fill="none" stroke="#63b8ff" d="M370.85,-34.53C325.91,-37.91 263.24,-42.61 220.58,-45.81"/>
<polygon fill="#63b8ff" stroke="#63b8ff" points="370.94,-38.04 380.65,-33.8 370.42,-31.06 370.94,-38.04"/>
</a>
</g>
</g>
<!-- Node2&#45;&gt;Node3 -->
<g id="edge2_Node000002_Node000003" class="edge">
<title>Node2&#45;&gt;Node3</title>
<g id="a_edge2_Node000002_Node000003"><a xlink:title=" ">
<path fill="none" stroke="#63b8ff" d="M253.65,-25.4C239.05,-29.74 223.2,-34.47 209.45,-38.56"/>
<polygon fill="#63b8ff" stroke="#63b8ff" points="254.48,-28.8 263.07,-22.59 252.49,-22.09 254.48,-28.8"/>
</a>
</g>
</g>
<!-- Node5 -->
<g id="Node000005" class="node">
<title>Node5</title>
<g id="a_Node000005"><a xlink:href="classBsp3D.html#a7f8ee74b1c8aff83c5a1cebf21356b54" target="_top" xlink:title="Recursive point&#45;location query through the BSP tree.">
<polygon fill="white" stroke="#666666" points="221,-20.75 123.25,-20.75 123.25,0 221,0 221,-20.75"/>
<text xml:space="preserve" text-anchor="middle" x="172.12" y="-7.25" font-family="Helvetica,sans-Serif" font-size="10.00">Bsp3D::TestPoint</text>
</a>
</g>
</g>
<!-- Node2&#45;&gt;Node5 -->
<g id="edge4_Node000002_Node000005" class="edge">
<title>Node2&#45;&gt;Node5</title>
<g id="a_edge4_Node000002_Node000005"><a xlink:title=" ">
<path fill="none" stroke="#63b8ff" d="M245.37,-10.94C237.42,-10.88 229.3,-10.82 221.5,-10.75"/>
<polygon fill="#63b8ff" stroke="#63b8ff" points="245.29,-14.44 255.32,-11.02 245.34,-7.44 245.29,-14.44"/>
</a>
</g>
</g>
<!-- Node4 -->
<g id="Node000004" class="node">
<title>Node4</title>
<g id="a_Node000004"><a xlink:href="classBsp3D.html#a214442602cb9f9276144dbe828ed793d" target="_top" xlink:title="Recursively branch on the current splitter and distribute elements.">
<polygon fill="white" stroke="#666666" points="87.25,-59.75 0,-59.75 0,-39 87.25,-39 87.25,-59.75"/>
<text xml:space="preserve" text-anchor="middle" x="43.62" y="-46.25" font-family="Helvetica,sans-Serif" font-size="10.00">Bsp3D::Branch</text>
</a>
</g>
</g>
<!-- Node3&#45;&gt;Node4 -->
<g id="edge3_Node000003_Node000004" class="edge">
<title>Node3&#45;&gt;Node4</title>
<g id="a_edge3_Node000003_Node000004"><a xlink:title=" ">
<path fill="none" stroke="#63b8ff" d="M112.31,-49.38C103.9,-49.38 95.38,-49.38 87.35,-49.38"/>
<polygon fill="#63b8ff" stroke="#63b8ff" points="112.15,-52.88 122.15,-49.38 112.15,-45.88 112.15,-52.88"/>
</a>
</g>
</g>
</g>
</svg>
