<?xml version="1.0" encoding="UTF-8" standalone="no"?>
<!DOCTYPE svg PUBLIC "-//W3C//DTD SVG 1.1//EN"
 "http://www.w3.org/Graphics/SVG/1.1/DTD/svg11.dtd">
<!-- Generated by graphviz version 13.1.2 (20250809.0930)
 -->
<!-- Title: GreenFHom3DPer2D::GradientEwaldSpatial Pages: 1 -->
<svg width="578pt" height="94pt"
 viewBox="0.00 0.00 578.00 94.00" xmlns="http://www.w3.org/2000/svg" xmlns:xlink="http://www.w3.org/1999/xlink">
<g id="graph0" class="graph" transform="scale(1 1) rotate(0) translate(4 89.5)">
<title>GreenFHom3DPer2D::GradientEwaldSpatial</title>
<!-- Node1 -->
<g id="Node000001" class="node">
<title>Node1</title>
<g id="a_Node000001"><a xlink:title="Spatial part of the source&#45;gradient.">
<polygon fill="#999999" stroke="#666666" points="570,-59.5 404.75,-59.5 404.75,-26 570,-26 570,-59.5"/>
<text xml:space="preserve" text-anchor="start" x="412.75" y="-46" font-family="Helvetica,sans-Serif" font-size="10.00">GreenFHom3DPer2D::Gradient</text>
<text xml:space="preserve" text-anchor="middle" x="487.38" y="-33.25" font-family="Helvetica,sans-Serif" font-size="10.00">EwaldSpatial</text>
</a>
</g>
</g>
<!-- Node2 -->
<g id="Node000002" class="node">
<title>Node2</title>
<g id="a_Node000002"><a xlink:href="classGreenFHom3DPer2D.html#afdc08576760ed0ae9a61dc378a7faac3" target="_top" xlink:title="Ewald&#45;summed source&#45;gradient.">
<polygon fill="white" stroke="#666666" points="368.75,-85.5 203.5,-85.5 203.5,-52 368.75,-52 368.75,-85.5"/>
<text xml:space="preserve" text-anchor="start" x="211.5" y="-72" font-family="Helvetica,sans-Serif" font-size="10.00">GreenFHom3DPer2D::Gradient</text>
<text xml:space="preserve" text-anchor="middle" x="286.12" y="-59.25" font-family="Helvetica,sans-Serif" font-size="10.00">Ewald</text>
</a>
</g>
</g>
<!-- Node1&#45;&gt;Node2 -->
<g id="edge1_Node000001_Node000002" class="edge">
<title>Node1&#45;&gt;Node2</title>
<g id="a_edge1_Node000001_Node000002"><a xlink:title=" ">
<path fill="none" stroke="#63b8ff" d="M393.15,-54.92C385.09,-55.97 376.99,-57.02 369.03,-58.06"/>
<polygon fill="#63b8ff" stroke="#63b8ff" points="393.51,-58.4 402.97,-53.63 392.6,-51.46 393.51,-58.4"/>
</a>
</g>
</g>
<!-- Node4 -->
<g id="Node000004" class="node">
<title>Node4</title>
<g id="a_Node000004"><a xlink:href="classGreenFHom3DPer2D.html#abfe000753f5712d72cef880cd4a64b3a" target="_top" xlink:title="Source&#45;gradient for a specific translation.">
<polygon fill="white" stroke="#666666" points="368.75,-33.5 203.5,-33.5 203.5,0 368.75,0 368.75,-33.5"/>
<text xml:space="preserve" text-anchor="start" x="211.5" y="-20" font-family="Helvetica,sans-Serif" font-size="10.00">GreenFHom3DPer2D::Gradient</text>
<text xml:space="preserve" text-anchor="middle" x="286.12" y="-7.25" font-family="Helvetica,sans-Serif" font-size="10.00">Translate</text>
</a>
</g>
</g>
<!-- Node1&#45;&gt;Node4 -->
<g id="edge3_Node000001_Node000004" class="edge">
<title>Node1&#45;&gt;Node4</title>
<g id="a_edge3_Node000001_Node000004"><a xlink:title=" ">
<path fill="none" stroke="#63b8ff" d="M393.15,-30.58C385.09,-29.53 376.99,-28.48 369.03,-27.44"/>
<polygon fill="#63b8ff" stroke="#63b8ff" points="392.6,-34.04 402.97,-31.87 393.51,-27.1 392.6,-34.04"/>
</a>
</g>
</g>
<!-- Node3 -->
<g id="Node000003" class="node">
<title>Node3</title>
<g id="a_Node000003"><a xlink:href="classGreenFHom3DPer2D.html#adff724f327912641a20c99fa4c9bb464" target="_top" xlink:title="Source&#45;gradient .">
<polygon fill="white" stroke="#666666" points="166.38,-79.12 1.12,-79.12 1.12,-58.38 166.38,-58.38 166.38,-79.12"/>
<text xml:space="preserve" text-anchor="middle" x="83.75" y="-65.62" font-family="Helvetica,sans-Serif" font-size="10.00">GreenFHom3DPer2D::Gradient</text>
</a>
</g>
</g>
<!-- Node2&#45;&gt;Node3 -->
<g id="edge2_Node000002_Node000003" class="edge">
<title>Node2&#45;&gt;Node3</title>
<g id="a_edge2_Node000002_Node000003"><a xlink:title=" ">
<path fill="none" stroke="#63b8ff" d="M191.72,-68.75C183.36,-68.75 174.95,-68.75 166.7,-68.75"/>
<polygon fill="#63b8ff" stroke="#63b8ff" points="191.53,-72.25 201.53,-68.75 191.53,-65.25 191.53,-72.25"/>
</a>
</g>
</g>
<!-- Node5 -->
<g id="Node000005" class="node">
<title>Node5</title>
<g id="a_Node000005"><a xlink:href="classGreenFHom3DPer2D.html#aadb534ef4509422e6f3e78a0e3999758" target="_top" xlink:title="term at an observation point.">
<polygon fill="white" stroke="#666666" points="167.5,-33.5 0,-33.5 0,0 167.5,0 167.5,-33.5"/>
<text xml:space="preserve" text-anchor="start" x="8" y="-20" font-family="Helvetica,sans-Serif" font-size="10.00">GreenFHom3DPer2D::Integrate</text>
<text xml:space="preserve" text-anchor="middle" x="83.75" y="-7.25" font-family="Helvetica,sans-Serif" font-size="10.00">Kappa</text>
</a>
</g>
</g>
<!-- Node4&#45;&gt;Node5 -->
<g id="edge4_Node000004_Node000005" class="edge">
<title>Node4&#45;&gt;Node5</title>
<g id="a_edge4_Node000004_Node000005"><a xlink:title=" ">
<path fill="none" stroke="#63b8ff" d="M191.58,-16.75C183.71,-16.75 175.78,-16.75 168,-16.75"/>
<polygon fill="#63b8ff" stroke="#63b8ff" points="191.53,-20.25 201.53,-16.75 191.53,-13.25 191.53,-20.25"/>
</a>
</g>
</g>
</g>
</svg>
