<?xml version="1.0" encoding="UTF-8" standalone="no"?>
<!DOCTYPE svg PUBLIC "-//W3C//DTD SVG 1.1//EN"
 "http://www.w3.org/Graphics/SVG/1.1/DTD/svg11.dtd">
<!-- Generated by graphviz version 13.1.2 (20250809.0930)
 -->
<!-- Title: Triangle::FindCommonVertexIndices Pages: 1 -->
<svg width="635pt" height="68pt"
 viewBox="0.00 0.00 635.00 68.00" xmlns="http://www.w3.org/2000/svg" xmlns:xlink="http://www.w3.org/1999/xlink">
<g id="graph0" class="graph" transform="scale(1 1) rotate(0) translate(4 63.75)">
<title>Triangle::FindCommonVertexIndices</title>
<!-- Node1 -->
<g id="Node000001" class="node">
<title>Node1</title>
<g id="a_Node000001"><a xlink:title="Find common vertex local indices with T.">
<polygon fill="#999999" stroke="#666666" points="156.25,-46.12 0,-46.12 0,-12.62 156.25,-12.62 156.25,-46.12"/>
<text xml:space="preserve" text-anchor="start" x="8" y="-32.62" font-family="Helvetica,sans-Serif" font-size="10.00">Triangle::FindCommonVertex</text>
<text xml:space="preserve" text-anchor="middle" x="78.12" y="-19.88" font-family="Helvetica,sans-Serif" font-size="10.00">Indices</text>
</a>
</g>
</g>
<!-- Node2 -->
<g id="Node000002" class="node">
<title>Node2</title>
<g id="a_Node000002"><a xlink:href="classTriangle.html#aeecc82e57a00841cb83fd790316b25a3" target="_top" xlink:title="Node pointer for local index 0..2.">
<polygon fill="white" stroke="#666666" points="291.5,-59.75 192.25,-59.75 192.25,-39 291.5,-39 291.5,-59.75"/>
<text xml:space="preserve" text-anchor="middle" x="241.88" y="-46.25" font-family="Helvetica,sans-Serif" font-size="10.00">Triangle::NodePtr</text>
</a>
</g>
</g>
<!-- Node1&#45;&gt;Node2 -->
<g id="edge1_Node000001_Node000002" class="edge">
<title>Node1&#45;&gt;Node2</title>
<g id="a_edge1_Node000001_Node000002"><a xlink:title=" ">
<path fill="none" stroke="#63b8ff" d="M156.68,-38.96C164.75,-39.96 172.85,-40.96 180.68,-41.93"/>
<polygon fill="#63b8ff" stroke="#63b8ff" points="180.06,-45.38 190.41,-43.14 180.92,-38.43 180.06,-45.38"/>
</a>
</g>
</g>
<!-- Node3 -->
<g id="Node000003" class="node">
<title>Node3</title>
<g id="a_Node000003"><a xlink:href="classTriangle.html#a2eae6a9b0378e4b5ba4616a6b6af86fe" target="_top" xlink:title="Construct from 3 node pointers and bordering domains.">
<polygon fill="white" stroke="#666666" points="291.12,-20.75 192.62,-20.75 192.62,0 291.12,0 291.12,-20.75"/>
<text xml:space="preserve" text-anchor="middle" x="241.88" y="-7.25" font-family="Helvetica,sans-Serif" font-size="10.00">Triangle::Triangle</text>
</a>
</g>
</g>
<!-- Node1&#45;&gt;Node3 -->
<g id="edge2_Node000001_Node000003" class="edge">
<title>Node1&#45;&gt;Node3</title>
<g id="a_edge2_Node000001_Node000003"><a xlink:title=" ">
<path fill="none" stroke="#63b8ff" d="M156.68,-20.26C164.85,-19.3 173.07,-18.34 181,-17.41"/>
<polygon fill="#63b8ff" stroke="#63b8ff" points="181.34,-20.89 190.86,-16.25 180.52,-13.94 181.34,-20.89"/>
</a>
</g>
</g>
<!-- Node4 -->
<g id="Node000004" class="node">
<title>Node4</title>
<g id="a_Node000004"><a xlink:href="classTriangle.html#ae13d69e28fb7a81ab8257fe0af84ceaa" target="_top" xlink:title="Compute/cached geometry (normal, area, perimeter, center, I1/I2s/I2d).">
<polygon fill="white" stroke="#666666" points="505.5,-20.75 327.5,-20.75 327.5,0 505.5,0 505.5,-20.75"/>
<text xml:space="preserve" text-anchor="middle" x="416.5" y="-7.25" font-family="Helvetica,sans-Serif" font-size="10.00">Triangle::CalculateGeometryData</text>
</a>
</g>
</g>
<!-- Node3&#45;&gt;Node4 -->
<g id="edge3_Node000003_Node000004" class="edge">
<title>Node3&#45;&gt;Node4</title>
<g id="a_edge3_Node000003_Node000004"><a xlink:title=" ">
<path fill="none" stroke="#63b8ff" d="M291.42,-10.38C299.1,-10.38 307.27,-10.38 315.62,-10.38"/>
<polygon fill="#63b8ff" stroke="#63b8ff" points="315.57,-13.88 325.57,-10.38 315.57,-6.88 315.57,-13.88"/>
</a>
</g>
</g>
<!-- Node5 -->
<g id="Node000005" class="node">
<title>Node5</title>
<g id="a_Node000005"><a xlink:href="classTriangle.html#a0752d2c9488c7c44b851b8f75abcaa79" target="_top" xlink:title="Node position (by value) for local index 0..2.">
<polygon fill="white" stroke="#666666" points="627.25,-20.75 541.5,-20.75 541.5,0 627.25,0 627.25,-20.75"/>
<text xml:space="preserve" text-anchor="middle" x="584.38" y="-7.25" font-family="Helvetica,sans-Serif" font-size="10.00">Triangle::Node</text>
</a>
</g>
</g>
<!-- Node4&#45;&gt;Node5 -->
<g id="edge4_Node000004_Node000005" class="edge">
<title>Node4&#45;&gt;Node5</title>
<g id="a_edge4_Node000004_Node000005"><a xlink:title=" ">
<path fill="none" stroke="#63b8ff" d="M505.78,-10.38C514,-10.38 522.15,-10.38 529.91,-10.38"/>
<polygon fill="#63b8ff" stroke="#63b8ff" points="529.82,-13.88 539.82,-10.38 529.82,-6.88 529.82,-13.88"/>
</a>
</g>
</g>
</g>
</svg>
