<?xml version="1.0" encoding="UTF-8" standalone="no"?>
<!DOCTYPE svg PUBLIC "-//W3C//DTD SVG 1.1//EN"
 "http://www.w3.org/Graphics/SVG/1.1/DTD/svg11.dtd">
<!-- Generated by graphviz version 13.1.2 (20250809.0930)
 -->
<!-- Title: GreenFLayered3D::GreenFLayered3D Pages: 1 -->
<!--zoomable 275 -->

<svg id="main" version="1.1" xmlns="http://www.w3.org/2000/svg" xmlns:xlink="http://www.w3.org/1999/xlink" xml:space="preserve" onload="init(evt)">

<style type="text/css"><![CDATA[
.node, .edge {opacity: 0.7;}
.node.selected, .edge.selected {opacity: 1;}
.edge:hover path { stroke: red; }
.edge:hover polygon { stroke: red; fill: red; }
]]></style>

<defs>
  <circle id="rim" cx="0" cy="0" r="7"/>
  <circle id="rim2" cx="0" cy="0" r="3.5"/>
  <g id="zoomPlus">
    <use xlink:href="#rim" fill="#404040"><set attributeName="fill" to="#808080" begin="zoomplus.mouseover" end="zoomplus.mouseout"/></use>
    <path d="M-4,0h8M0,-4v8" fill="none" stroke="white" stroke-width="1.5" pointer-events="none"/>
  </g>
  <g id="zoomMin">
    <use xlink:href="#rim" fill="#404040"><set attributeName="fill" to="#808080" begin="zoomminus.mouseover" end="zoomminus.mouseout"/></use>
    <path d="M-4,0h8" fill="none" stroke="white" stroke-width="1.5" pointer-events="none"/>
  </g>
  <g id="arrowUp" transform="translate(30 24)">
    <use xlink:href="#rim"/>
    <path pointer-events="none" fill="none" stroke="white" stroke-width="1.5" d="M0,-3.0v7 M-2.5,-0.5L0,-3.0L2.5,-0.5"/>
  </g>
  <g id="arrowRight" transform="rotate(90) translate(36 -43)">
    <use xlink:href="#rim"/>
    <path pointer-events="none" fill="none" stroke="white" stroke-width="1.5" d="M0,-3.0v7 M-2.5,-0.5L0,-3.0L2.5,-0.5"/>
  </g>
  <g id="arrowDown" transform="rotate(180) translate(-30 -48)">
    <use xlink:href="#rim"/>
    <path pointer-events="none" fill="none" stroke="white" stroke-width="1.5" d="M0,-3.0v7 M-2.5,-0.5L0,-3.0L2.5,-0.5"/>
  </g>
  <g id="arrowLeft" transform="rotate(270) translate(-36 17)">
    <use xlink:href="#rim"/>
    <path pointer-events="none" fill="none" stroke="white" stroke-width="1.5" d="M0,-3.0v7 M-2.5,-0.5L0,-3.0L2.5,-0.5"/>
  </g>
  <g id="resetDef">
    <use xlink:href="#rim2" fill="#404040"><set attributeName="fill" to="#808080" begin="reset.mouseover" end="reset.mouseout"/></use>
  </g>
</defs>
<script type="application/ecmascript">
var viewWidth = 654;
var viewHeight = 275;
var sectionId = 'dynsection-3';
</script>
<script type="application/ecmascript" xlink:href="svg.min.js"/>
<svg id="graph" class="graph">
<g id="viewport">
<title>GreenFLayered3D::GreenFLayered3D</title>
<!-- Node1 -->
<g id="Node000001" class="node">
<title>Node1</title>
<g id="a_Node000001"><a xlink:title="Construct layered Green&#39;s function (magnetic layers).">
<polygon fill="#999999" stroke="#666666" points="197.5,-78.75 0,-78.75 0,-58 197.5,-58 197.5,-78.75"/>
<text xml:space="preserve" text-anchor="middle" x="98.75" y="-65.25" font-family="Helvetica,sans-Serif" font-size="10.00">GreenFLayered3D::GreenFLayered3D</text>
</a>
</g>
</g>
<!-- Node2 -->
<g id="Node000002" class="node">
<title>Node2</title>
<g id="a_Node000002"><a xlink:href="classGreenFLayered3D.html#ac014fbe12a1544418cc22938332942a4" target="_top" xlink:title="Fill all interpolation tables with Green&#39;s function values.">
<polygon fill="white" stroke="#666666" points="386.75,-176.12 233.5,-176.12 233.5,-142.62 386.75,-142.62 386.75,-176.12"/>
<text xml:space="preserve" text-anchor="start" x="241.5" y="-162.62" font-family="Helvetica,sans-Serif" font-size="10.00">GreenFLayered3D::FillGreen</text>
<text xml:space="preserve" text-anchor="middle" x="310.12" y="-149.88" font-family="Helvetica,sans-Serif" font-size="10.00">FTable</text>
</a>
</g>
</g>
<!-- Node1&#45;&gt;Node2 -->
<g id="edge1_Node000001_Node000002" class="edge">
<title>Node1&#45;&gt;Node2</title>
<g id="a_edge1_Node000001_Node000002"><a xlink:title=" ">
<path fill="none" stroke="#63b8ff" d="M124.59,-79.17C157.64,-93.54 216.84,-119.27 259.28,-137.71"/>
<polygon fill="#63b8ff" stroke="#63b8ff" points="257.73,-140.85 268.3,-141.63 260.52,-134.44 257.73,-140.85"/>
</a>
</g>
</g>
<!-- Node7 -->
<g id="Node000007" class="node">
<title>Node7</title>
<g id="a_Node000007"><a xlink:href="classGreenF.html#a332ac24f39288170f77c18f37fde2c82" target="_top" xlink:title="Constructor for a homogeneous, non&#45;magnetic medium.">
<polygon fill="white" stroke="#666666" points="356,-98.75 264.25,-98.75 264.25,-78 356,-78 356,-98.75"/>
<text xml:space="preserve" text-anchor="middle" x="310.12" y="-85.25" font-family="Helvetica,sans-Serif" font-size="10.00">GreenF::GreenF</text>
</a>
</g>
</g>
<!-- Node1&#45;&gt;Node7 -->
<g id="edge6_Node000001_Node000007" class="edge">
<title>Node1&#45;&gt;Node7</title>
<g id="a_edge6_Node000001_Node000007"><a xlink:title=" ">
<path fill="none" stroke="#63b8ff" d="M197.69,-77.73C216.46,-79.52 235.51,-81.34 252.43,-82.96"/>
<polygon fill="#63b8ff" stroke="#63b8ff" points="251.98,-86.43 262.27,-83.9 252.65,-79.46 251.98,-86.43"/>
</a>
</g>
</g>
<!-- Node10 -->
<g id="Node000010" class="node">
<title>Node10</title>
<g id="a_Node000010"><a xlink:href="GreenFLayered3D_8cpp.html#a00cc14542110c9977f8a47cf96cbfe60" target="_top" xlink:title="Initialize the selector map for inter&#45;layer coefficients.">
<polygon fill="white" stroke="#666666" points="339.88,-59.75 280.38,-59.75 280.38,-39 339.88,-39 339.88,-59.75"/>
<text xml:space="preserve" text-anchor="middle" x="310.12" y="-46.25" font-family="Helvetica,sans-Serif" font-size="10.00">interMap</text>
</a>
</g>
</g>
<!-- Node1&#45;&gt;Node10 -->
<g id="edge10_Node000001_Node000010" class="edge">
<title>Node1&#45;&gt;Node10</title>
<g id="a_edge10_Node000001_Node000010"><a xlink:title=" ">
<path fill="none" stroke="#63b8ff" d="M197.69,-59.49C222.78,-57.21 248.39,-54.89 268.72,-53.04"/>
<polygon fill="#63b8ff" stroke="#63b8ff" points="268.89,-56.54 278.53,-52.15 268.26,-49.57 268.89,-56.54"/>
</a>
</g>
</g>
<!-- Node11 -->
<g id="Node000011" class="node">
<title>Node11</title>
<g id="a_Node000011"><a xlink:href="GreenFLayered3D_8cpp.html#a4ed7a5ed9f037ca61716cecc33bb3a52" target="_top" xlink:title="Initialize the selector map for intra&#45;layer coefficients.">
<polygon fill="white" stroke="#666666" points="339.88,-20.75 280.38,-20.75 280.38,0 339.88,0 339.88,-20.75"/>
<text xml:space="preserve" text-anchor="middle" x="310.12" y="-7.25" font-family="Helvetica,sans-Serif" font-size="10.00">intraMap</text>
</a>
</g>
</g>
<!-- Node1&#45;&gt;Node11 -->
<g id="edge11_Node000001_Node000011" class="edge">
<title>Node1&#45;&gt;Node11</title>
<g id="a_edge11_Node000001_Node000011"><a xlink:title=" ">
<path fill="none" stroke="#63b8ff" d="M137.17,-57.54C163.96,-49.84 200.91,-39.31 233.5,-30.38 244.99,-27.22 257.49,-23.88 268.96,-20.85"/>
<polygon fill="#63b8ff" stroke="#63b8ff" points="269.76,-24.26 278.54,-18.33 267.98,-17.49 269.76,-24.26"/>
</a>
</g>
</g>
<!-- Node3 -->
<g id="Node000003" class="node">
<title>Node3</title>
<g id="a_Node000003"><a xlink:href="classGreenFLayered3D.html#a412af9133282962ec12affb1509c6507" target="_top" xlink:title="Fill inter&#45;layer tables between two different layers.">
<polygon fill="white" stroke="#666666" points="569.25,-266.75 422.75,-266.75 422.75,-246 569.25,-246 569.25,-266.75"/>
<text xml:space="preserve" text-anchor="middle" x="496" y="-253.25" font-family="Helvetica,sans-Serif" font-size="10.00">GreenFLayered3D::FillInter</text>
</a>
</g>
</g>
<!-- Node2&#45;&gt;Node3 -->
<g id="edge2_Node000002_Node000003" class="edge">
<title>Node2&#45;&gt;Node3</title>
<g id="a_edge2_Node000002_Node000003"><a xlink:title=" ">
<path fill="none" stroke="#63b8ff" d="M330.77,-176.37C352.09,-193.99 387.78,-221.19 422.75,-237.38 426.27,-239 429.95,-240.51 433.71,-241.91"/>
<polygon fill="#63b8ff" stroke="#63b8ff" points="432.42,-245.16 443.01,-245.05 434.66,-238.53 432.42,-245.16"/>
</a>
</g>
</g>
<!-- Node4 -->
<g id="Node000004" class="node">
<title>Node4</title>
<g id="a_Node000004"><a xlink:href="classGreenFLayered3D.html#a0cb3c4922d84b741f69e6a8996ebd5d5" target="_top" xlink:title="Fill intra&#45;layer tables for internal layers (plus/minus sides).">
<polygon fill="white" stroke="#666666" points="569.25,-228.12 422.75,-228.12 422.75,-194.62 569.25,-194.62 569.25,-228.12"/>
<text xml:space="preserve" text-anchor="start" x="430.75" y="-214.62" font-family="Helvetica,sans-Serif" font-size="10.00">GreenFLayered3D::FillIntra</text>
<text xml:space="preserve" text-anchor="middle" x="496" y="-201.88" font-family="Helvetica,sans-Serif" font-size="10.00">Inside</text>
</a>
</g>
</g>
<!-- Node2&#45;&gt;Node4 -->
<g id="edge3_Node000002_Node000004" class="edge">
<title>Node2&#45;&gt;Node4</title>
<g id="a_edge3_Node000002_Node000004"><a xlink:title=" ">
<path fill="none" stroke="#63b8ff" d="M372.1,-176.62C388.48,-181.25 406.34,-186.3 423.25,-191.08"/>
<polygon fill="#63b8ff" stroke="#63b8ff" points="422.16,-194.41 432.74,-193.77 424.07,-187.68 422.16,-194.41"/>
</a>
</g>
</g>
<!-- Node5 -->
<g id="Node000005" class="node">
<title>Node5</title>
<g id="a_Node000005"><a xlink:href="classGreenFLayered3D.html#abe83b87d2228f9ad198e2924d841682d" target="_top" xlink:title="Fill intra&#45;layer tables for bottom/top half&#45;spaces.">
<polygon fill="white" stroke="#666666" points="569.25,-176.12 422.75,-176.12 422.75,-142.62 569.25,-142.62 569.25,-176.12"/>
<text xml:space="preserve" text-anchor="start" x="430.75" y="-162.62" font-family="Helvetica,sans-Serif" font-size="10.00">GreenFLayered3D::FillIntra</text>
<text xml:space="preserve" text-anchor="middle" x="496" y="-149.88" font-family="Helvetica,sans-Serif" font-size="10.00">TopBottom</text>
</a>
</g>
</g>
<!-- Node2&#45;&gt;Node5 -->
<g id="edge4_Node000002_Node000005" class="edge">
<title>Node2&#45;&gt;Node5</title>
<g id="a_edge4_Node000002_Node000005"><a xlink:title=" ">
<path fill="none" stroke="#63b8ff" d="M387.24,-159.38C395.07,-159.38 403.07,-159.38 410.98,-159.38"/>
<polygon fill="#63b8ff" stroke="#63b8ff" points="410.97,-162.88 420.97,-159.38 410.97,-155.88 410.97,-162.88"/>
</a>
</g>
</g>
<!-- Node6 -->
<g id="Node000006" class="node">
<title>Node6</title>
<g id="a_Node000006"><a xlink:href="classGreenFLayered3D.html#a41c1370112d040a3dc4c44a5853022ed" target="_top" xlink:title="Fresnel reflection/transmission at interface (delegates to utils).">
<polygon fill="white" stroke="#666666" points="568.5,-124.12 423.5,-124.12 423.5,-90.62 568.5,-90.62 568.5,-124.12"/>
<text xml:space="preserve" text-anchor="start" x="431.5" y="-110.62" font-family="Helvetica,sans-Serif" font-size="10.00">GreenFLayered3D::Fresnel</text>
<text xml:space="preserve" text-anchor="middle" x="496" y="-97.88" font-family="Helvetica,sans-Serif" font-size="10.00">Coeff</text>
</a>
</g>
</g>
<!-- Node2&#45;&gt;Node6 -->
<g id="edge5_Node000002_Node000006" class="edge">
<title>Node2&#45;&gt;Node6</title>
<g id="a_edge5_Node000002_Node000006"><a xlink:title=" ">
<path fill="none" stroke="#63b8ff" d="M372.1,-142.13C388.48,-137.5 406.34,-132.45 423.25,-127.67"/>
<polygon fill="#63b8ff" stroke="#63b8ff" points="424.07,-131.07 432.74,-124.98 422.16,-124.34 424.07,-131.07"/>
</a>
</g>
</g>
<!-- Node8 -->
<g id="Node000008" class="node">
<title>Node8</title>
<g id="a_Node000008"><a xlink:href="group__greenFunction.html#gac0a52dce23be7dacdf97c68653b6c137" target="_top" xlink:title="Complex square root with a branch cut along the negative real axis.">
<polygon fill="white" stroke="#666666" points="516,-72.75 476,-72.75 476,-52 516,-52 516,-72.75"/>
<text xml:space="preserve" text-anchor="middle" x="496" y="-59.25" font-family="Helvetica,sans-Serif" font-size="10.00">csqrt</text>
</a>
</g>
</g>
<!-- Node7&#45;&gt;Node8 -->
<g id="edge7_Node000007_Node000008" class="edge">
<title>Node7&#45;&gt;Node8</title>
<g id="a_edge7_Node000007_Node000008"><a xlink:title=" ">
<path fill="none" stroke="#63b8ff" d="M356.11,-82.01C389.75,-77.26 434.85,-70.88 464.41,-66.7"/>
<polygon fill="#63b8ff" stroke="#63b8ff" points="464.75,-70.19 474.17,-65.32 463.77,-63.26 464.75,-70.19"/>
</a>
</g>
</g>
<!-- Node9 -->
<g id="Node000009" class="node">
<title>Node9</title>
<g id="a_Node000009"><a xlink:href="Domain_8cpp.html#aafa3e4fa6318b2f8740f4dbd50c367e5" target="_top" xlink:title="Extract the real part of each component of a complex 3&#45;vector.">
<polygon fill="white" stroke="#666666" points="640,-72.75 605.25,-72.75 605.25,-52 640,-52 640,-72.75"/>
<text xml:space="preserve" text-anchor="middle" x="622.62" y="-59.25" font-family="Helvetica,sans-Serif" font-size="10.00">real</text>
</a>
</g>
</g>
<!-- Node8&#45;&gt;Node9 -->
<g id="edge8_Node000008_Node000009" class="edge">
<title>Node8&#45;&gt;Node9</title>
<g id="a_edge8_Node000008_Node000009"><a xlink:title=" ">
<path fill="none" stroke="#63b8ff" d="M516.47,-62.38C537.23,-62.38 570.27,-62.38 593.77,-62.38"/>
<polygon fill="#63b8ff" stroke="#63b8ff" points="593.56,-65.88 603.56,-62.38 593.56,-58.88 593.56,-65.88"/>
</a>
</g>
</g>
<!-- Node9&#45;&gt;Node9 -->
<g id="edge9_Node000009_Node000009" class="edge">
<title>Node9&#45;&gt;Node9</title>
<g id="a_edge9_Node000009_Node000009"><a xlink:title=" ">
<path fill="none" stroke="#63b8ff" d="M604.82,-70.8C592.95,-80.11 598.88,-90.75 622.62,-90.75 638.21,-90.75 646.12,-86.17 646.36,-80.39"/>
<polygon fill="#63b8ff" stroke="#63b8ff" points="649.46,-78.75 641.23,-72.09 643.51,-82.43 649.46,-78.75"/>
</a>
</g>
</g>
</g>
</svg>

<g id="navigator" transform="translate(0 0)" fill="#404254">
  <rect fill="#f2f5e9" fill-opacity="0.5" stroke="#606060" stroke-width=".5" x="0" y="0" width="60" height="60"/>
  <use id="zoomplus" xlink:href="#zoomPlus" x="17" y="9" onmousedown="handleZoom(evt,'in')"/>
  <use id="zoomminus" xlink:href="#zoomMin" x="42" y="9" onmousedown="handleZoom(evt,'out')"/>
  <use id="reset" xlink:href="#resetDef" x="30" y="36" onmousedown="handleReset()"/>
   <use id="arrowup" xlink:href="#arrowUp" x="0" y="0" onmousedown="handlePan(0,-1)"/>
  <use id="arrowright" xlink:href="#arrowRight" x="0" y="0" onmousedown="handlePan(1,0)"/>
  <use id="arrowdown" xlink:href="#arrowDown" x="0" y="0" onmousedown="handlePan(0,1)"/>
  <use id="arrowleft" xlink:href="#arrowLeft" x="0" y="0" onmousedown="handlePan(-1,0)"/>
</g>
<svg viewBox="0 0 15 15" width="100%" height="30px" preserveAspectRatio="xMaxYMin meet">
 <g id="arrow_out" transform="scale(0.3 0.3)">
  <a xlink:href="classGreenFLayered3D_a4f699484c9505951b38acc2cb5fa3194_cgraph_org.svg" target="_base">
   <rect id="button" ry="5" rx="5" y="6" x="6" height="38" width="38"
        fill="#f2f5e9" fill-opacity="0.5" stroke="#606060" stroke-width="1.0"/>
   <path id="arrow"
     d="M 11.500037,31.436501 C 11.940474,20.09759 22.043105,11.32322 32.158766,21.979434 L 37.068811,17.246167 C 37.068811,17.246167 37.088388,32 37.088388,32 L 22.160133,31.978069 C 22.160133,31.978069 26.997745,27.140456 26.997745,27.140456 C 18.528582,18.264221 13.291696,25.230495 11.500037,31.436501 z"
     style="fill:#404040;"/>
  </a>
 </g>
</svg>

<style type='text/css'>
<![CDATA[
[data-mouse-over-selected='false'] { opacity: 0.7; }
[data-mouse-over-selected='true']  { opacity: 1.0; }
]]>
</style>
<script type="application/ecmascript"><![CDATA[
document.addEventListener('DOMContentLoaded', (event) => {
  highlightEdges();
  highlightAdjacentNodes();
});
]]></script>
</svg>
