<?xml version="1.0" encoding="UTF-8" standalone="no"?>
<!DOCTYPE svg PUBLIC "-//W3C//DTD SVG 1.1//EN"
 "http://www.w3.org/Graphics/SVG/1.1/DTD/svg11.dtd">
<!-- Generated by graphviz version 13.1.2 (20250809.0930)
 -->
<!-- Title: DomainLayered3D::Mu Pages: 1 -->
<svg width="349pt" height="236pt"
 viewBox="0.00 0.00 349.00 236.00" xmlns="http://www.w3.org/2000/svg" xmlns:xlink="http://www.w3.org/1999/xlink">

<svg id="main" version="1.1" xmlns="http://www.w3.org/2000/svg" xmlns:xlink="http://www.w3.org/1999/xlink" xml:space="preserve">

<style type="text/css"><![CDATA[
.node, .edge {opacity: 0.7;}
.node.selected, .edge.selected {opacity: 1;}
.edge:hover path { stroke: red; }
.edge:hover polygon { stroke: red; fill: red; }
]]></style>
<script type="application/ecmascript" xlink:href="svg.min.js"/>
<svg id="graph" class="graph">
<g id="graph0" class="graph" transform="scale(1 1) rotate(0) translate(4 232.12)">
<title>DomainLayered3D::Mu</title>
<!-- Node1 -->
<g id="Node000001" class="node">
<title>Node1</title>
<g id="a_Node000001"><a xlink:title="Relative permeability at a spatial location.">
<polygon fill="#999999" stroke="#666666" points="341,-130.12 213.25,-130.12 213.25,-109.38 341,-109.38 341,-130.12"/>
<text xml:space="preserve" text-anchor="middle" x="277.12" y="-116.62" font-family="Helvetica,sans-Serif" font-size="10.00">DomainLayered3D::Mu</text>
</a>
</g>
</g>
<!-- Node2 -->
<g id="Node000002" class="node">
<title>Node2</title>
<g id="a_Node000002"><a xlink:href="classDomainLayered3D.html#a4e5fb098bcc6edc2f594da23e0b64fb3" target="_top" xlink:title="Absorption cross section.">
<polygon fill="white" stroke="#666666" points="177.25,-228.12 0,-228.12 0,-207.38 177.25,-207.38 177.25,-228.12"/>
<text xml:space="preserve" text-anchor="middle" x="88.62" y="-214.62" font-family="Helvetica,sans-Serif" font-size="10.00">DomainLayered3D::absorptionCS</text>
</a>
</g>
</g>
<!-- Node1&#45;&gt;Node2 -->
<g id="edge1_Node000001_Node000002" class="edge">
<title>Node1&#45;&gt;Node2</title>
<g id="a_edge1_Node000001_Node000002"><a xlink:title=" ">
<path fill="none" stroke="#63b8ff" d="M257.8,-138.4C239.15,-156.3 208.61,-182.75 177.25,-197.75 169.51,-201.45 161.05,-204.49 152.54,-206.97"/>
<polygon fill="#63b8ff" stroke="#63b8ff" points="260.19,-140.96 264.87,-131.45 255.28,-135.97 260.19,-140.96"/>
</a>
</g>
</g>
<!-- Node3 -->
<g id="Node000003" class="node">
<title>Node3</title>
<g id="a_Node000003"><a xlink:href="classDomainLayered3D.html#a6551ae7ca5dac2a5dda2d78b15d78ecc" target="_top" xlink:title="Add a Dipole excitation in the layered medium.">
<polygon fill="white" stroke="#666666" points="170.12,-189.12 7.12,-189.12 7.12,-168.38 170.12,-168.38 170.12,-189.12"/>
<text xml:space="preserve" text-anchor="middle" x="88.62" y="-175.62" font-family="Helvetica,sans-Serif" font-size="10.00">DomainLayered3D::AddDipole</text>
</a>
</g>
</g>
<!-- Node1&#45;&gt;Node3 -->
<g id="edge2_Node000001_Node000003" class="edge">
<title>Node1&#45;&gt;Node3</title>
<g id="a_edge2_Node000001_Node000003"><a xlink:title=" ">
<path fill="none" stroke="#63b8ff" d="M241.3,-134.98C222.56,-142.79 198.91,-152.05 177.25,-158.75 166.22,-162.16 154.24,-165.27 142.79,-167.97"/>
<polygon fill="#63b8ff" stroke="#63b8ff" points="242.47,-138.29 250.31,-131.17 239.74,-131.84 242.47,-138.29"/>
</a>
</g>
</g>
<!-- Node4 -->
<g id="Node000004" class="node">
<title>Node4</title>
<g id="a_Node000004"><a xlink:href="classDomainLayered3D.html#a847bdddcbf4257a73cfcd2766c882f8b" target="_top" xlink:title="Extinction cross section.">
<polygon fill="white" stroke="#666666" points="175.75,-150.12 1.5,-150.12 1.5,-129.38 175.75,-129.38 175.75,-150.12"/>
<text xml:space="preserve" text-anchor="middle" x="88.62" y="-136.62" font-family="Helvetica,sans-Serif" font-size="10.00">DomainLayered3D::extinctionCS</text>
</a>
</g>
</g>
<!-- Node1&#45;&gt;Node4 -->
<g id="edge3_Node000001_Node000004" class="edge">
<title>Node1&#45;&gt;Node4</title>
<g id="a_edge3_Node000001_Node000004"><a xlink:title=" ">
<path fill="none" stroke="#63b8ff" d="M201.7,-127.73C193.31,-128.63 184.71,-129.55 176.19,-130.47"/>
<polygon fill="#63b8ff" stroke="#63b8ff" points="201.91,-131.23 211.48,-126.68 201.16,-124.27 201.91,-131.23"/>
</a>
</g>
</g>
<!-- Node5 -->
<g id="Node000005" class="node">
<title>Node5</title>
<g id="a_Node000005"><a xlink:href="classDomainLayered3D.html#a267135f0a2f5bfff12f7ac3b25429176" target="_top" xlink:title="Scattering cross section.">
<polygon fill="white" stroke="#666666" points="175.75,-111.12 1.5,-111.12 1.5,-90.38 175.75,-90.38 175.75,-111.12"/>
<text xml:space="preserve" text-anchor="middle" x="88.62" y="-97.62" font-family="Helvetica,sans-Serif" font-size="10.00">DomainLayered3D::scatteringCS</text>
</a>
</g>
</g>
<!-- Node1&#45;&gt;Node5 -->
<g id="edge4_Node000001_Node000005" class="edge">
<title>Node1&#45;&gt;Node5</title>
<g id="a_edge4_Node000001_Node000005"><a xlink:title=" ">
<path fill="none" stroke="#63b8ff" d="M201.7,-112.17C193.31,-111.31 184.71,-110.44 176.19,-109.57"/>
<polygon fill="#63b8ff" stroke="#63b8ff" points="201.18,-115.63 211.48,-113.16 201.89,-108.67 201.18,-115.63"/>
</a>
</g>
</g>
<!-- Node6 -->
<g id="Node000006" class="node">
<title>Node6</title>
<g id="a_Node000006"><a xlink:href="classDomainLayered3D.html#a110d03c8733184e065d4e41ba22b113f" target="_top" xlink:title="Secondary (scattered) electric field at a point from the solution vector.">
<polygon fill="white" stroke="#666666" points="168.25,-72.12 9,-72.12 9,-51.38 168.25,-51.38 168.25,-72.12"/>
<text xml:space="preserve" text-anchor="middle" x="88.62" y="-58.62" font-family="Helvetica,sans-Serif" font-size="10.00">DomainLayered3D::SecFieldE</text>
</a>
</g>
</g>
<!-- Node1&#45;&gt;Node6 -->
<g id="edge5_Node000001_Node000006" class="edge">
<title>Node1&#45;&gt;Node6</title>
<g id="a_edge5_Node000001_Node000006"><a xlink:title=" ">
<path fill="none" stroke="#63b8ff" d="M240.23,-104.54C221.65,-97.03 198.47,-88.21 177.25,-81.75 166.2,-78.39 154.22,-75.3 142.77,-72.6"/>
<polygon fill="#63b8ff" stroke="#63b8ff" points="238.88,-107.77 249.46,-108.32 241.54,-101.29 238.88,-107.77"/>
</a>
</g>
</g>
<!-- Node7 -->
<g id="Node000007" class="node">
<title>Node7</title>
<g id="a_Node000007"><a xlink:href="classDomainLayered3D.html#a2572d0a6f9105bf4f90c42970f76f8a0" target="_top" xlink:title="Secondary fields &#160;at a point.">
<polygon fill="white" stroke="#666666" points="165.25,-33.5 12,-33.5 12,0 165.25,0 165.25,-33.5"/>
<text xml:space="preserve" text-anchor="start" x="20" y="-20" font-family="Helvetica,sans-Serif" font-size="10.00">DomainLayered3D::SecField</text>
<text xml:space="preserve" text-anchor="middle" x="88.62" y="-7.25" font-family="Helvetica,sans-Serif" font-size="10.00">EandH</text>
</a>
</g>
</g>
<!-- Node1&#45;&gt;Node7 -->
<g id="edge6_Node000001_Node000007" class="edge">
<title>Node1&#45;&gt;Node7</title>
<g id="a_edge6_Node000001_Node000007"><a xlink:title=" ">
<path fill="none" stroke="#63b8ff" d="M256.93,-101.21C238.03,-83.88 207.68,-58.4 177.25,-42.75 170.9,-39.48 164.07,-36.56 157.14,-33.97"/>
<polygon fill="#63b8ff" stroke="#63b8ff" points="254.43,-103.67 264.12,-107.95 259.21,-98.56 254.43,-103.67"/>
</a>
</g>
</g>
</g>
</svg>
</svg>

<style type='text/css'>
<![CDATA[
[data-mouse-over-selected='false'] { opacity: 0.7; }
[data-mouse-over-selected='true']  { opacity: 1.0; }
]]>
</style>
<script type="application/ecmascript"><![CDATA[
document.addEventListener('DOMContentLoaded', (event) => {
  highlightEdges();
  highlightAdjacentNodes();
});
]]></script>
</svg>
