<?xml version="1.0" encoding="UTF-8" standalone="no"?>
<!DOCTYPE svg PUBLIC "-//W3C//DTD SVG 1.1//EN"
 "http://www.w3.org/Graphics/SVG/1.1/DTD/svg11.dtd">
<!-- Generated by graphviz version 13.1.2 (20250809.0930)
 -->
<!-- Title: LookupTable Pages: 1 -->
<svg width="96pt" height="196pt"
 viewBox="0.00 0.00 96.00 196.00" xmlns="http://www.w3.org/2000/svg" xmlns:xlink="http://www.w3.org/1999/xlink">
<g id="graph0" class="graph" transform="scale(1 1) rotate(0) translate(4 192.25)">
<title>LookupTable</title>
<!-- Node1 -->
<g id="Node000001" class="node">
<title>Node1</title>
<g id="a_Node000001"><a xlink:title="Represents a 2D lookup table for complex functions (text format).">
<polygon fill="#999999" stroke="none" points="87.75,-188.25 0,-188.25 0,0 87.75,0 87.75,-188.25"/>
<text xml:space="preserve" text-anchor="start" x="13.88" y="-174.75" font-family="Helvetica,sans-Serif" font-size="10.00">LookupTable</text>
<text xml:space="preserve" text-anchor="start" x="4" y="-158" font-family="Helvetica,sans-Serif" font-size="10.00">+</text>
<text xml:space="preserve" text-anchor="start" x="16.25" y="-158" font-family="Helvetica,sans-Serif" font-size="10.00">arg</text>
<text xml:space="preserve" text-anchor="start" x="4" y="-141.25" font-family="Helvetica,sans-Serif" font-size="10.00">+</text>
<text xml:space="preserve" text-anchor="start" x="16.25" y="-141.25" font-family="Helvetica,sans-Serif" font-size="10.00">fun</text>
<text xml:space="preserve" text-anchor="start" x="4" y="-124.5" font-family="Helvetica,sans-Serif" font-size="10.00">+</text>
<text xml:space="preserve" text-anchor="start" x="16.25" y="-124.5" font-family="Helvetica,sans-Serif" font-size="10.00">sizeRe</text>
<text xml:space="preserve" text-anchor="start" x="4" y="-107.75" font-family="Helvetica,sans-Serif" font-size="10.00">+</text>
<text xml:space="preserve" text-anchor="start" x="16.25" y="-107.75" font-family="Helvetica,sans-Serif" font-size="10.00">sizeIm</text>
<text xml:space="preserve" text-anchor="start" x="4" y="-91" font-family="Helvetica,sans-Serif" font-size="10.00">+</text>
<text xml:space="preserve" text-anchor="start" x="16.25" y="-91" font-family="Helvetica,sans-Serif" font-size="10.00">maxRe</text>
<text xml:space="preserve" text-anchor="start" x="4" y="-74.25" font-family="Helvetica,sans-Serif" font-size="10.00">+</text>
<text xml:space="preserve" text-anchor="start" x="16.25" y="-74.25" font-family="Helvetica,sans-Serif" font-size="10.00">maxIm</text>
<text xml:space="preserve" text-anchor="start" x="4" y="-57.5" font-family="Helvetica,sans-Serif" font-size="10.00">+</text>
<text xml:space="preserve" text-anchor="start" x="16.25" y="-57.5" font-family="Helvetica,sans-Serif" font-size="10.00">incRe</text>
<text xml:space="preserve" text-anchor="start" x="4" y="-40.75" font-family="Helvetica,sans-Serif" font-size="10.00">+</text>
<text xml:space="preserve" text-anchor="start" x="16.25" y="-40.75" font-family="Helvetica,sans-Serif" font-size="10.00">incIm</text>
<text xml:space="preserve" text-anchor="start" x="4" y="-24" font-family="Helvetica,sans-Serif" font-size="10.00">+</text>
<text xml:space="preserve" text-anchor="start" x="16.25" y="-24" font-family="Helvetica,sans-Serif" font-size="10.00">LookupTable()</text>
<text xml:space="preserve" text-anchor="start" x="4" y="-7.25" font-family="Helvetica,sans-Serif" font-size="10.00">+</text>
<text xml:space="preserve" text-anchor="start" x="16.25" y="-7.25" font-family="Helvetica,sans-Serif" font-size="10.00">LookupTable()</text>
<polygon fill="#666666" stroke="#666666" points="0,-169.5 0,-169.5 87.75,-169.5 87.75,-169.5 0,-169.5"/>
<polygon fill="#666666" stroke="#666666" points="0,-35.5 0,-35.5 14.25,-35.5 14.25,-35.5 0,-35.5"/>
<polygon fill="#666666" stroke="#666666" points="14.25,-35.5 14.25,-35.5 87.75,-35.5 87.75,-35.5 14.25,-35.5"/>
<polygon fill="none" stroke="#666666" points="0,0 0,-188.25 87.75,-188.25 87.75,0 0,0"/>
</a>
</g>
</g>
</g>
</svg>
