<?xml version="1.0" encoding="UTF-8" standalone="no"?>
<!DOCTYPE svg PUBLIC "-//W3C//DTD SVG 1.1//EN"
 "http://www.w3.org/Graphics/SVG/1.1/DTD/svg11.dtd">
<!-- Generated by graphviz version 13.1.2 (20250809.0930)
 -->
<!-- Title: Triangle::Area Pages: 1 -->
<svg width="488pt" height="996pt"
 viewBox="0.00 0.00 488.00 996.00" xmlns="http://www.w3.org/2000/svg" xmlns:xlink="http://www.w3.org/1999/xlink">
<g id="graph0" class="graph" transform="scale(1 1) rotate(0) translate(4 991.75)">
<title>Triangle::Area</title>
<!-- Node1 -->
<g id="Node000001" class="node">
<title>Node1</title>
<g id="a_Node000001"><a xlink:title="Surface area of the triangle.">
<polygon fill="#999999" stroke="#666666" points="480,-541.75 397.25,-541.75 397.25,-521 480,-521 480,-541.75"/>
<text xml:space="preserve" text-anchor="middle" x="438.62" y="-528.25" font-family="Helvetica,sans-Serif" font-size="10.00">Triangle::Area</text>
</a>
</g>
</g>
<!-- Node2 -->
<g id="Node000002" class="node">
<title>Node2</title>
<g id="a_Node000002"><a xlink:href="classTriangle.html#aad716a04591b5c9af864d6c2a89d3a65" target="_top" xlink:title="Test whether a point lies on (or very near) the triangle.">
<polygon fill="white" stroke="#666666" points="336.12,-987.75 209.88,-987.75 209.88,-967 336.12,-967 336.12,-987.75"/>
<text xml:space="preserve" text-anchor="middle" x="273" y="-974.25" font-family="Helvetica,sans-Serif" font-size="10.00">Triangle::containsPoint</text>
</a>
</g>
</g>
<!-- Node1&#45;&gt;Node2 -->
<g id="edge1_Node000001_Node000002" class="edge">
<title>Node1&#45;&gt;Node2</title>
<g id="a_edge1_Node000001_Node000002"><a xlink:title=" ">
<path fill="none" stroke="#63b8ff" d="M436.66,-553.19C432.8,-631.03 415.86,-893.65 361.25,-953.38 354.57,-960.68 345.9,-965.84 336.61,-969.47"/>
<polygon fill="#63b8ff" stroke="#63b8ff" points="440.15,-553.64 437.12,-543.49 433.15,-553.31 440.15,-553.64"/>
</a>
</g>
</g>
<!-- Node3 -->
<g id="Node000003" class="node">
<title>Node3</title>
<g id="a_Node000003"><a xlink:href="classGreenFLayered3D.html#af46d152fbc30bdc418ff16e5e7a334c6" target="_top" xlink:title="Point–triangle delta/kappa contributions for RHS assembly.">
<polygon fill="white" stroke="#666666" points="148.75,-975.12 0,-975.12 0,-941.62 148.75,-941.62 148.75,-975.12"/>
<text xml:space="preserve" text-anchor="start" x="8" y="-961.62" font-family="Helvetica,sans-Serif" font-size="10.00">GreenFLayered3D::SameTri</text>
<text xml:space="preserve" text-anchor="middle" x="74.38" y="-948.88" font-family="Helvetica,sans-Serif" font-size="10.00">DeltaKappa</text>
</a>
</g>
</g>
<!-- Node1&#45;&gt;Node3 -->
<g id="edge23_Node000001_Node000003" class="edge">
<title>Node1&#45;&gt;Node3</title>
<g id="a_edge23_Node000001_Node000003"><a xlink:title=" ">
<path fill="none" stroke="#63b8ff" d="M436.58,-553.17C432.55,-627.52 415.41,-869.46 361.25,-920.38 331.47,-948.37 223.42,-956.11 149.03,-958.05"/>
<polygon fill="#63b8ff" stroke="#63b8ff" points="440.06,-553.69 437.08,-543.52 433.07,-553.33 440.06,-553.69"/>
</a>
</g>
</g>
<!-- Node4 -->
<g id="Node000004" class="node">
<title>Node4</title>
<g id="a_Node000004"><a xlink:href="classGaussQuad.html#afecf86c6fbc2362c30d56fb10454621e" target="_top" xlink:title="I1: integral of scalar kernel times RWG prefactor over the test triangle.">
<polygon fill="white" stroke="#666666" points="316.25,-911.75 229.75,-911.75 229.75,-891 316.25,-891 316.25,-911.75"/>
<text xml:space="preserve" text-anchor="middle" x="273" y="-898.25" font-family="Helvetica,sans-Serif" font-size="10.00">GaussQuad::I1</text>
</a>
</g>
</g>
<!-- Node1&#45;&gt;Node4 -->
<g id="edge3_Node000001_Node000004" class="edge">
<title>Node1&#45;&gt;Node4</title>
<g id="a_edge3_Node000001_Node000004"><a xlink:title=" ">
<path fill="none" stroke="#63b8ff" d="M435.72,-553.14C429.33,-621.45 406.42,-829.83 361.25,-877.38 349.67,-889.56 332.53,-895.75 316.5,-898.83"/>
<polygon fill="#63b8ff" stroke="#63b8ff" points="439.17,-553.87 436.59,-543.6 432.2,-553.24 439.17,-553.87"/>
</a>
</g>
</g>
<!-- Node5 -->
<g id="Node000005" class="node">
<title>Node5</title>
<g id="a_Node000005"><a xlink:href="classGaussQuad.html#ab01b06d5cd9d9d15b01d0c9078b8dc5e" target="_top" xlink:title="Two‑triangle integral for the D operator (Eq.">
<polygon fill="white" stroke="#666666" points="139,-873.75 9.75,-873.75 9.75,-853 139,-853 139,-873.75"/>
<text xml:space="preserve" text-anchor="middle" x="74.38" y="-860.25" font-family="Helvetica,sans-Serif" font-size="10.00">GaussQuad::IntegrateD</text>
</a>
</g>
</g>
<!-- Node1&#45;&gt;Node5 -->
<g id="edge13_Node000001_Node000005" class="edge">
<title>Node1&#45;&gt;Node5</title>
<g id="a_edge13_Node000001_Node000005"><a xlink:title=" ">
<path fill="none" stroke="#63b8ff" d="M435.6,-553.1C429.1,-617.67 406.51,-806.33 361.25,-844.38 328.84,-871.62 213.1,-871.03 139.2,-867.58"/>
<polygon fill="#63b8ff" stroke="#63b8ff" points="439.06,-553.72 436.54,-543.42 432.09,-553.04 439.06,-553.72"/>
</a>
</g>
</g>
<!-- Node6 -->
<g id="Node000006" class="node">
<title>Node6</title>
<g id="a_Node000006"><a xlink:href="classGaussQuad.html#a446b0b21a34640c901189c53ec4081b3" target="_top" xlink:title="I1 with on‑the‑fly kernel evaluation at (r,rp) using gF.">
<polygon fill="white" stroke="#666666" points="316.25,-835.75 229.75,-835.75 229.75,-815 316.25,-815 316.25,-835.75"/>
<text xml:space="preserve" text-anchor="middle" x="273" y="-822.25" font-family="Helvetica,sans-Serif" font-size="10.00">GaussQuad::I1</text>
</a>
</g>
</g>
<!-- Node1&#45;&gt;Node6 -->
<g id="edge5_Node000001_Node000006" class="edge">
<title>Node1&#45;&gt;Node6</title>
<g id="a_edge5_Node000001_Node000006"><a xlink:title=" ">
<path fill="none" stroke="#63b8ff" d="M438.5,-553.7C439.24,-605.86 433.37,-736.54 361.25,-805.38 349.33,-816.75 332.33,-822.13 316.49,-824.54"/>
<polygon fill="#63b8ff" stroke="#63b8ff" points="442,-553.63 438.24,-543.72 435,-553.81 442,-553.63"/>
</a>
</g>
</g>
<!-- Node7 -->
<g id="Node000007" class="node">
<title>Node7</title>
<g id="a_Node000007"><a xlink:href="classGaussQuad.html#a017bdf3c80a430f4c381310bd7b680ed" target="_top" xlink:title="I2: vector form with the RWG basis evaluated at the centroid.">
<polygon fill="white" stroke="#666666" points="316.25,-796.75 229.75,-796.75 229.75,-776 316.25,-776 316.25,-796.75"/>
<text xml:space="preserve" text-anchor="middle" x="273" y="-783.25" font-family="Helvetica,sans-Serif" font-size="10.00">GaussQuad::I2</text>
</a>
</g>
</g>
<!-- Node1&#45;&gt;Node7 -->
<g id="edge6_Node000001_Node000007" class="edge">
<title>Node1&#45;&gt;Node7</title>
<g id="a_edge6_Node000001_Node000007"><a xlink:title=" ">
<path fill="none" stroke="#63b8ff" d="M437.27,-553.67C435.27,-600.44 423.74,-709.2 361.25,-766.38 349.21,-777.39 332.37,-782.73 316.69,-785.2"/>
<polygon fill="#63b8ff" stroke="#63b8ff" points="440.77,-553.83 437.58,-543.73 433.77,-553.62 440.77,-553.83"/>
</a>
</g>
</g>
<!-- Node8 -->
<g id="Node000008" class="node">
<title>Node8</title>
<g id="a_Node000008"><a xlink:href="classGaussQuad.html#ae59aff5fbf12ed60f4bb65820fdcae91" target="_top" xlink:title="I2 with on‑the‑fly scalar kernel evaluation.">
<polygon fill="white" stroke="#666666" points="316.25,-757.75 229.75,-757.75 229.75,-737 316.25,-737 316.25,-757.75"/>
<text xml:space="preserve" text-anchor="middle" x="273" y="-744.25" font-family="Helvetica,sans-Serif" font-size="10.00">GaussQuad::I2</text>
</a>
</g>
</g>
<!-- Node1&#45;&gt;Node8 -->
<g id="edge8_Node000001_Node000008" class="edge">
<title>Node1&#45;&gt;Node8</title>
<g id="a_edge8_Node000001_Node000008"><a xlink:title=" ">
<path fill="none" stroke="#63b8ff" d="M435.69,-553.02C430.85,-593.65 414.49,-681.4 361.25,-727.38 348.9,-738.04 332,-743.32 316.37,-745.84"/>
<polygon fill="#63b8ff" stroke="#63b8ff" points="439.14,-553.62 436.71,-543.31 432.18,-552.89 439.14,-553.62"/>
</a>
</g>
</g>
<!-- Node9 -->
<g id="Node000009" class="node">
<title>Node9</title>
<g id="a_Node000009"><a xlink:href="classGaussQuad.html#aa2f7019adfbd7b78e6f91e5554b526b7" target="_top" xlink:title="I4: vector kernel crossed with RWG at the centroid.">
<polygon fill="white" stroke="#666666" points="316.25,-718.75 229.75,-718.75 229.75,-698 316.25,-698 316.25,-718.75"/>
<text xml:space="preserve" text-anchor="middle" x="273" y="-705.25" font-family="Helvetica,sans-Serif" font-size="10.00">GaussQuad::I4</text>
</a>
</g>
</g>
<!-- Node1&#45;&gt;Node9 -->
<g id="edge9_Node000001_Node000009" class="edge">
<title>Node1&#45;&gt;Node9</title>
<g id="a_edge9_Node000001_Node000009"><a xlink:title=" ">
<path fill="none" stroke="#63b8ff" d="M432.84,-552.93C424.32,-586.19 403.32,-649.78 361.25,-684.38 348.63,-694.75 331.86,-700.66 316.4,-704.01"/>
<polygon fill="#63b8ff" stroke="#63b8ff" points="436.14,-554.17 435.07,-543.63 429.33,-552.54 436.14,-554.17"/>
</a>
</g>
</g>
<!-- Node10 -->
<g id="Node000010" class="node">
<title>Node10</title>
<g id="a_Node000010"><a xlink:href="classGaussQuad.html#ab896c6e8141cd1e678d4f630fe0fd186" target="_top" xlink:title="Two‑triangle integral for the K operator (Eq.">
<polygon fill="white" stroke="#666666" points="138.62,-699.75 10.12,-699.75 10.12,-679 138.62,-679 138.62,-699.75"/>
<text xml:space="preserve" text-anchor="middle" x="74.38" y="-686.25" font-family="Helvetica,sans-Serif" font-size="10.00">GaussQuad::IntegrateK</text>
</a>
</g>
</g>
<!-- Node1&#45;&gt;Node10 -->
<g id="edge17_Node000001_Node000010" class="edge">
<title>Node1&#45;&gt;Node10</title>
<g id="a_edge17_Node000001_Node000010"><a xlink:title=" ">
<path fill="none" stroke="#63b8ff" d="M430.62,-552.42C420.22,-580.11 397.86,-628.01 361.25,-651.38 325.48,-674.2 211.75,-683.46 138.98,-687.11"/>
<polygon fill="#63b8ff" stroke="#63b8ff" points="433.8,-553.93 433.85,-543.34 427.2,-551.59 433.8,-553.93"/>
</a>
</g>
</g>
<!-- Node11 -->
<g id="Node000011" class="node">
<title>Node11</title>
<g id="a_Node000011"><a xlink:href="classGaussQuad.html#a0fb8ea7e979899e9f7e872faed11d6bd" target="_top" xlink:title="I4 with on‑the‑fly vector kernel evaluation.">
<polygon fill="white" stroke="#666666" points="316.25,-642.75 229.75,-642.75 229.75,-622 316.25,-622 316.25,-642.75"/>
<text xml:space="preserve" text-anchor="middle" x="273" y="-629.25" font-family="Helvetica,sans-Serif" font-size="10.00">GaussQuad::I4</text>
</a>
</g>
</g>
<!-- Node1&#45;&gt;Node11 -->
<g id="edge11_Node000001_Node000011" class="edge">
<title>Node1&#45;&gt;Node11</title>
<g id="a_edge11_Node000001_Node000011"><a xlink:title=" ">
<path fill="none" stroke="#63b8ff" d="M423.99,-551.6C410.32,-570.27 387.57,-597.3 361.25,-612.38 347.76,-620.1 331.5,-624.84 316.69,-627.75"/>
<polygon fill="#63b8ff" stroke="#63b8ff" points="426.83,-553.65 429.74,-543.46 421.11,-549.61 426.83,-553.65"/>
</a>
</g>
</g>
<!-- Node12 -->
<g id="Node000012" class="node">
<title>Node12</title>
<g id="a_Node000012"><a xlink:href="classGaussQuad.html#a7b4dd3082686af22451b5f405073d33e" target="_top" xlink:title="I5 variant: vector kernel weighted by RWG prefactor (centroid).">
<polygon fill="white" stroke="#666666" points="316.25,-603.75 229.75,-603.75 229.75,-583 316.25,-583 316.25,-603.75"/>
<text xml:space="preserve" text-anchor="middle" x="273" y="-590.25" font-family="Helvetica,sans-Serif" font-size="10.00">GaussQuad::I5</text>
</a>
</g>
</g>
<!-- Node1&#45;&gt;Node12 -->
<g id="edge12_Node000001_Node000012" class="edge">
<title>Node1&#45;&gt;Node12</title>
<g id="a_edge12_Node000001_Node000012"><a xlink:title=" ">
<path fill="none" stroke="#63b8ff" d="M411.61,-548.05C397.23,-556.64 378.77,-566.7 361.25,-573.38 347.02,-578.8 330.9,-583 316.42,-586.12"/>
<polygon fill="#63b8ff" stroke="#63b8ff" points="413.3,-551.11 419.99,-542.9 409.64,-545.15 413.3,-551.11"/>
</a>
</g>
</g>
<!-- Node13 -->
<g id="Node000013" class="node">
<title>Node13</title>
<g id="a_Node000013"><a xlink:href="classGreenFHom3D.html#aca136b03c44ad1da34acf91eb5a5e390" target="_top" xlink:title="term at an observation point.">
<polygon fill="white" stroke="#666666" points="355.25,-564.75 190.75,-564.75 190.75,-544 355.25,-544 355.25,-564.75"/>
<text xml:space="preserve" text-anchor="middle" x="273" y="-551.25" font-family="Helvetica,sans-Serif" font-size="10.00">GreenFHom3D::IntegrateDelta</text>
</a>
</g>
</g>
<!-- Node1&#45;&gt;Node13 -->
<g id="edge14_Node000001_Node000013" class="edge">
<title>Node1&#45;&gt;Node13</title>
<g id="a_edge14_Node000001_Node000013"><a xlink:title=" ">
<path fill="none" stroke="#63b8ff" d="M385.69,-538.68C374.74,-540.21 362.97,-541.87 351.32,-543.51"/>
<polygon fill="#63b8ff" stroke="#63b8ff" points="385.84,-542.19 395.26,-537.33 384.87,-535.26 385.84,-542.19"/>
</a>
</g>
</g>
<!-- Node14 -->
<g id="Node000014" class="node">
<title>Node14</title>
<g id="a_Node000014"><a xlink:href="classGreenFHom3DPer2D.html#a233c2185952220bd16acae2142f05cc1" target="_top" xlink:title="term at an observation point.">
<polygon fill="white" stroke="#666666" points="356.75,-526.12 189.25,-526.12 189.25,-492.62 356.75,-492.62 356.75,-526.12"/>
<text xml:space="preserve" text-anchor="start" x="197.25" y="-512.62" font-family="Helvetica,sans-Serif" font-size="10.00">GreenFHom3DPer2D::Integrate</text>
<text xml:space="preserve" text-anchor="middle" x="273" y="-499.88" font-family="Helvetica,sans-Serif" font-size="10.00">Delta</text>
</a>
</g>
</g>
<!-- Node1&#45;&gt;Node14 -->
<g id="edge15_Node000001_Node000014" class="edge">
<title>Node1&#45;&gt;Node14</title>
<g id="a_edge15_Node000001_Node000014"><a xlink:title=" ">
<path fill="none" stroke="#63b8ff" d="M385.58,-524.38C376.48,-523.15 366.82,-521.85 357.13,-520.55"/>
<polygon fill="#63b8ff" stroke="#63b8ff" points="384.88,-527.81 395.26,-525.68 385.81,-520.88 384.88,-527.81"/>
</a>
</g>
</g>
<!-- Node15 -->
<g id="Node000015" class="node">
<title>Node15</title>
<g id="a_Node000015"><a xlink:href="classGreenFLayered3D.html#afbdbfdc8fc40fc885f6377d5be242d36" target="_top" xlink:title="term at an observation point.">
<polygon fill="white" stroke="#666666" points="350,-474.12 196,-474.12 196,-440.62 350,-440.62 350,-474.12"/>
<text xml:space="preserve" text-anchor="start" x="204" y="-460.62" font-family="Helvetica,sans-Serif" font-size="10.00">GreenFLayered3D::Integrate</text>
<text xml:space="preserve" text-anchor="middle" x="273" y="-447.88" font-family="Helvetica,sans-Serif" font-size="10.00">Delta</text>
</a>
</g>
</g>
<!-- Node1&#45;&gt;Node15 -->
<g id="edge16_Node000001_Node000015" class="edge">
<title>Node1&#45;&gt;Node15</title>
<g id="a_edge16_Node000001_Node000015"><a xlink:title=" ">
<path fill="none" stroke="#63b8ff" d="M413.81,-514.04C399.2,-504.02 379.79,-491.78 361.25,-483.38 354.2,-480.18 346.64,-477.25 339.05,-474.61"/>
<polygon fill="#63b8ff" stroke="#63b8ff" points="411.65,-516.8 421.85,-519.68 415.67,-511.07 411.65,-516.8"/>
</a>
</g>
</g>
<!-- Node16 -->
<g id="Node000016" class="node">
<title>Node16</title>
<g id="a_Node000016"><a xlink:href="classGreenFHom3D.html#a9cece8a4056d65455cfcc94c8c61decd" target="_top" xlink:title="term at an observation point.">
<polygon fill="white" stroke="#666666" points="357.5,-422.75 188.5,-422.75 188.5,-402 357.5,-402 357.5,-422.75"/>
<text xml:space="preserve" text-anchor="middle" x="273" y="-409.25" font-family="Helvetica,sans-Serif" font-size="10.00">GreenFHom3D::IntegrateKappa</text>
</a>
</g>
</g>
<!-- Node1&#45;&gt;Node16 -->
<g id="edge18_Node000001_Node000016" class="edge">
<title>Node1&#45;&gt;Node16</title>
<g id="a_edge18_Node000001_Node000016"><a xlink:title=" ">
<path fill="none" stroke="#63b8ff" d="M427.45,-510.5C415.08,-487.42 391.98,-450.92 361.25,-431.38 356.15,-428.13 350.58,-425.43 344.8,-423.19"/>
<polygon fill="#63b8ff" stroke="#63b8ff" points="424.27,-511.98 431.96,-519.28 430.5,-508.78 424.27,-511.98"/>
</a>
</g>
</g>
<!-- Node17 -->
<g id="Node000017" class="node">
<title>Node17</title>
<g id="a_Node000017"><a xlink:href="classGreenFHom3DPer2D.html#aadb534ef4509422e6f3e78a0e3999758" target="_top" xlink:title="term at an observation point.">
<polygon fill="white" stroke="#666666" points="356.75,-384.12 189.25,-384.12 189.25,-350.62 356.75,-350.62 356.75,-384.12"/>
<text xml:space="preserve" text-anchor="start" x="197.25" y="-370.62" font-family="Helvetica,sans-Serif" font-size="10.00">GreenFHom3DPer2D::Integrate</text>
<text xml:space="preserve" text-anchor="middle" x="273" y="-357.88" font-family="Helvetica,sans-Serif" font-size="10.00">Kappa</text>
</a>
</g>
</g>
<!-- Node1&#45;&gt;Node17 -->
<g id="edge19_Node000001_Node000017" class="edge">
<title>Node1&#45;&gt;Node17</title>
<g id="a_edge19_Node000001_Node000017"><a xlink:title=" ">
<path fill="none" stroke="#63b8ff" d="M431.45,-509.88C421.62,-479.46 399.49,-424.13 361.25,-393.38 357.06,-390.01 352.45,-387.07 347.6,-384.52"/>
<polygon fill="#63b8ff" stroke="#63b8ff" points="428.01,-510.58 434.29,-519.11 434.7,-508.53 428.01,-510.58"/>
</a>
</g>
</g>
<!-- Node18 -->
<g id="Node000018" class="node">
<title>Node18</title>
<g id="a_Node000018"><a xlink:href="classGreenFLayered3D.html#a439eddb43f46fb52f6c84898ea12aa40" target="_top" xlink:title="term at an observation point.">
<polygon fill="white" stroke="#666666" points="350,-332.12 196,-332.12 196,-298.62 350,-298.62 350,-332.12"/>
<text xml:space="preserve" text-anchor="start" x="204" y="-318.62" font-family="Helvetica,sans-Serif" font-size="10.00">GreenFLayered3D::Integrate</text>
<text xml:space="preserve" text-anchor="middle" x="273" y="-305.88" font-family="Helvetica,sans-Serif" font-size="10.00">Kappa</text>
</a>
</g>
</g>
<!-- Node1&#45;&gt;Node18 -->
<g id="edge20_Node000001_Node000018" class="edge">
<title>Node1&#45;&gt;Node18</title>
<g id="a_edge20_Node000001_Node000018"><a xlink:title=" ">
<path fill="none" stroke="#63b8ff" d="M435,-509.32C429.14,-469.84 411.28,-386.97 361.25,-341.38 357.51,-337.97 353.34,-335.01 348.91,-332.43"/>
<polygon fill="#63b8ff" stroke="#63b8ff" points="431.51,-509.57 436.31,-519.01 438.44,-508.63 431.51,-509.57"/>
</a>
</g>
</g>
<!-- Node19 -->
<g id="Node000019" class="node">
<title>Node19</title>
<g id="a_Node000019"><a xlink:href="classGreenFHom3D.html#a48e8471aabb445e0e50a01c005ff3b98" target="_top" xlink:title="Compute &#160;for all RWGs on a source triangle.">
<polygon fill="white" stroke="#666666" points="352.62,-280.12 193.38,-280.12 193.38,-246.62 352.62,-246.62 352.62,-280.12"/>
<text xml:space="preserve" text-anchor="start" x="201.38" y="-266.62" font-family="Helvetica,sans-Serif" font-size="10.00">GreenFHom3D::SameTriDelta</text>
<text xml:space="preserve" text-anchor="middle" x="273" y="-253.88" font-family="Helvetica,sans-Serif" font-size="10.00">Kappa</text>
</a>
</g>
</g>
<!-- Node1&#45;&gt;Node19 -->
<g id="edge21_Node000001_Node000019" class="edge">
<title>Node1&#45;&gt;Node19</title>
<g id="a_edge21_Node000001_Node000019"><a xlink:title=" ">
<path fill="none" stroke="#63b8ff" d="M437.23,-509.39C435.15,-462.22 423.53,-350.66 361.25,-289.38 357.87,-286.05 354.08,-283.15 350.03,-280.61"/>
<polygon fill="#63b8ff" stroke="#63b8ff" points="433.72,-509.25 437.54,-519.13 440.72,-509.03 433.72,-509.25"/>
</a>
</g>
</g>
<!-- Node20 -->
<g id="Node000020" class="node">
<title>Node20</title>
<g id="a_Node000020"><a xlink:href="classGreenFHom3DPer2D.html#a84a8c855a27c895ff24f6771037284a5" target="_top" xlink:title="Compute &#160;for all RWGs on a source triangle.">
<polygon fill="white" stroke="#666666" points="354.12,-228.12 191.88,-228.12 191.88,-194.62 354.12,-194.62 354.12,-228.12"/>
<text xml:space="preserve" text-anchor="start" x="199.88" y="-214.62" font-family="Helvetica,sans-Serif" font-size="10.00">GreenFHom3DPer2D::SameTri</text>
<text xml:space="preserve" text-anchor="middle" x="273" y="-201.88" font-family="Helvetica,sans-Serif" font-size="10.00">DeltaKappa</text>
</a>
</g>
</g>
<!-- Node1&#45;&gt;Node20 -->
<g id="edge22_Node000001_Node000020" class="edge">
<title>Node1&#45;&gt;Node20</title>
<g id="a_edge22_Node000001_Node000020"><a xlink:title=" ">
<path fill="none" stroke="#63b8ff" d="M434.73,-509.4C426.24,-448.1 399.54,-277.05 361.25,-237.38 357.96,-233.96 354.24,-230.99 350.24,-228.41"/>
<polygon fill="#63b8ff" stroke="#63b8ff" points="431.25,-509.79 436.06,-519.23 438.19,-508.86 431.25,-509.79"/>
</a>
</g>
</g>
<!-- Node21 -->
<g id="Node000021" class="node">
<title>Node21</title>
<g id="a_Node000021"><a xlink:href="classGreenFHom3D.html#a419cbe00b5a2aed70ac546904a8a8d6f" target="_top" xlink:title="Compute &#160;and &#160;for all RWG pairs on two triangles.">
<polygon fill="white" stroke="#666666" points="346.62,-176.75 199.38,-176.75 199.38,-156 346.62,-156 346.62,-176.75"/>
<text xml:space="preserve" text-anchor="middle" x="273" y="-163.25" font-family="Helvetica,sans-Serif" font-size="10.00">GreenFHom3D::SameTriDK</text>
</a>
</g>
</g>
<!-- Node1&#45;&gt;Node21 -->
<g id="edge24_Node000001_Node000021" class="edge">
<title>Node1&#45;&gt;Node21</title>
<g id="a_edge24_Node000001_Node000021"><a xlink:title=" ">
<path fill="none" stroke="#63b8ff" d="M435.83,-509.51C429.75,-440.89 407.69,-231.68 361.25,-185.38 357.08,-181.22 352.22,-177.87 346.98,-175.19"/>
<polygon fill="#63b8ff" stroke="#63b8ff" points="432.31,-509.44 436.65,-519.1 439.29,-508.84 432.31,-509.44"/>
</a>
</g>
</g>
<!-- Node22 -->
<g id="Node000022" class="node">
<title>Node22</title>
<g id="a_Node000022"><a xlink:href="classGreenFHom3DPer2D.html#a1dc9dd84c93ee10b2fb4b1866103d957" target="_top" xlink:title="Compute &#160;and &#160;for all RWG pairs on two triangles.">
<polygon fill="white" stroke="#666666" points="361.25,-137.75 184.75,-137.75 184.75,-117 361.25,-117 361.25,-137.75"/>
<text xml:space="preserve" text-anchor="middle" x="273" y="-124.25" font-family="Helvetica,sans-Serif" font-size="10.00">GreenFHom3DPer2D::SameTriDK</text>
</a>
</g>
</g>
<!-- Node1&#45;&gt;Node22 -->
<g id="edge25_Node000001_Node000022" class="edge">
<title>Node1&#45;&gt;Node22</title>
<g id="a_edge25_Node000001_Node000022"><a xlink:title=" ">
<path fill="none" stroke="#63b8ff" d="M436.3,-509.1C431.44,-435.2 412.18,-199.81 361.25,-147.38 357.68,-143.7 353.57,-140.63 349.14,-138.09"/>
<polygon fill="#63b8ff" stroke="#63b8ff" points="432.81,-509.32 436.93,-519.08 439.79,-508.88 432.81,-509.32"/>
</a>
</g>
</g>
<!-- Node23 -->
<g id="Node000023" class="node">
<title>Node23</title>
<g id="a_Node000023"><a xlink:href="classGreenFLayered3D.html#a6c88af86169f8d148c3e9f4da77a77d0" target="_top" xlink:title="Triangle–triangle D/K blocks assembly for all RWG pairs on two triangles.">
<polygon fill="white" stroke="#666666" points="354.5,-98.75 191.5,-98.75 191.5,-78 354.5,-78 354.5,-98.75"/>
<text xml:space="preserve" text-anchor="middle" x="273" y="-85.25" font-family="Helvetica,sans-Serif" font-size="10.00">GreenFLayered3D::SameTriDK</text>
</a>
</g>
</g>
<!-- Node1&#45;&gt;Node23 -->
<g id="edge26_Node000001_Node000023" class="edge">
<title>Node1&#45;&gt;Node23</title>
<g id="a_edge26_Node000001_Node000023"><a xlink:title=" ">
<path fill="none" stroke="#63b8ff" d="M436.76,-509.42C433.22,-431.12 417.25,-167.06 361.25,-108.38 357.71,-104.67 353.63,-101.58 349.21,-99.02"/>
<polygon fill="#63b8ff" stroke="#63b8ff" points="433.25,-509.35 437.18,-519.19 440.25,-509.05 433.25,-509.35"/>
</a>
</g>
</g>
<!-- Node24 -->
<g id="Node000024" class="node">
<title>Node24</title>
<g id="a_Node000024"><a xlink:href="classGreenFHom3D.html#aee15ec1616a294e10b554f1afbb97845" target="_top" xlink:title="Same as SameTriDK plus gradients (if provided by the GF).">
<polygon fill="white" stroke="#666666" points="350.38,-59.75 195.62,-59.75 195.62,-39 350.38,-39 350.38,-59.75"/>
<text xml:space="preserve" text-anchor="middle" x="273" y="-46.25" font-family="Helvetica,sans-Serif" font-size="10.00">GreenFHom3D::SameTriDKG</text>
</a>
</g>
</g>
<!-- Node1&#45;&gt;Node24 -->
<g id="edge27_Node000001_Node000024" class="edge">
<title>Node1&#45;&gt;Node24</title>
<g id="a_edge27_Node000001_Node000024"><a xlink:title=" ">
<path fill="none" stroke="#63b8ff" d="M437.12,-509.3C434.77,-426.28 422.24,-134.23 361.25,-69.38 357.84,-65.75 353.93,-62.72 349.68,-60.19"/>
<polygon fill="#63b8ff" stroke="#63b8ff" points="433.62,-509.15 437.37,-519.06 440.61,-508.97 433.62,-509.15"/>
</a>
</g>
</g>
<!-- Node25 -->
<g id="Node000025" class="node">
<title>Node25</title>
<g id="a_Node000025"><a xlink:href="classGreenFLayered3D.html#a52cce9be0f67bd1b5aa9b2cdb01e4164" target="_top" xlink:title="Same as SameTriDK and additionally accumulates gradients.">
<polygon fill="white" stroke="#666666" points="358.25,-20.75 187.75,-20.75 187.75,0 358.25,0 358.25,-20.75"/>
<text xml:space="preserve" text-anchor="middle" x="273" y="-7.25" font-family="Helvetica,sans-Serif" font-size="10.00">GreenFLayered3D::SameTriDKG</text>
</a>
</g>
</g>
<!-- Node1&#45;&gt;Node25 -->
<g id="edge28_Node000001_Node000025" class="edge">
<title>Node1&#45;&gt;Node25</title>
<g id="a_edge28_Node000001_Node000025"><a xlink:title=" ">
<path fill="none" stroke="#63b8ff" d="M437.43,-509.15C436.21,-421.55 427.23,-101.43 361.25,-30.38 357.87,-26.73 353.97,-23.69 349.73,-21.15"/>
<polygon fill="#63b8ff" stroke="#63b8ff" points="433.93,-509.07 437.55,-519.02 440.93,-508.98 433.93,-509.07"/>
</a>
</g>
</g>
<!-- Node2&#45;&gt;Node3 -->
<g id="edge2_Node000002_Node000003" class="edge">
<title>Node2&#45;&gt;Node3</title>
<g id="a_edge2_Node000002_Node000003"><a xlink:title=" ">
<path fill="none" stroke="#63b8ff" d="M198.5,-970.27C182.33,-968.71 165.21,-967.06 149.03,-965.49"/>
<polygon fill="#63b8ff" stroke="#63b8ff" points="197.72,-973.71 208.01,-971.19 198.39,-966.75 197.72,-973.71"/>
</a>
</g>
</g>
<!-- Node4&#45;&gt;Node5 -->
<g id="edge4_Node000004_Node000005" class="edge">
<title>Node4&#45;&gt;Node5</title>
<g id="a_edge4_Node000004_Node000005"><a xlink:title=" ">
<path fill="none" stroke="#63b8ff" d="M218.17,-890.97C191.23,-885.76 158.64,-879.47 131.4,-874.2"/>
<polygon fill="#63b8ff" stroke="#63b8ff" points="217.37,-894.38 227.85,-892.84 218.7,-887.51 217.37,-894.38"/>
</a>
</g>
</g>
<!-- Node7&#45;&gt;Node5 -->
<g id="edge7_Node000007_Node000005" class="edge">
<title>Node7&#45;&gt;Node5</title>
<g id="a_edge7_Node000007_Node000005"><a xlink:title=" ">
<path fill="none" stroke="#63b8ff" d="M218.54,-796.36C207.22,-799.1 195.47,-802.43 184.75,-806.38 150.59,-818.96 113.57,-839.96 92.55,-852.66"/>
<polygon fill="#63b8ff" stroke="#63b8ff" points="219.21,-799.79 228.18,-794.15 217.65,-792.97 219.21,-799.79"/>
</a>
</g>
</g>
<!-- Node9&#45;&gt;Node10 -->
<g id="edge10_Node000009_Node000010" class="edge">
<title>Node9&#45;&gt;Node10</title>
<g id="a_edge10_Node000009_Node000010"><a xlink:title=" ">
<path fill="none" stroke="#63b8ff" d="M218.08,-703.16C193.58,-700.8 164.43,-697.98 138.88,-695.51"/>
<polygon fill="#63b8ff" stroke="#63b8ff" points="217.54,-706.63 227.83,-704.11 218.21,-699.66 217.54,-706.63"/>
</a>
</g>
</g>
</g>
</svg>
