<?xml version="1.0" encoding="UTF-8" standalone="no"?>
<!DOCTYPE svg PUBLIC "-//W3C//DTD SVG 1.1//EN"
 "http://www.w3.org/Graphics/SVG/1.1/DTD/svg11.dtd">
<!-- Generated by graphviz version 13.1.2 (20250809.0930)
 -->
<!-- Title: PlaneWave::PlaneWave Pages: 1 -->
<svg width="333pt" height="119pt"
 viewBox="0.00 0.00 333.00 119.00" xmlns="http://www.w3.org/2000/svg" xmlns:xlink="http://www.w3.org/1999/xlink">
<g id="graph0" class="graph" transform="scale(1 1) rotate(0) translate(4 115.12)">
<title>PlaneWave::PlaneWave</title>
<!-- Node1 -->
<g id="Node000001" class="node">
<title>Node1</title>
<g id="a_Node000001"><a xlink:title="Construct a homogeneous plane wave.">
<polygon fill="#999999" stroke="#666666" points="325.25,-72.12 195.25,-72.12 195.25,-51.38 325.25,-51.38 325.25,-72.12"/>
<text xml:space="preserve" text-anchor="middle" x="260.25" y="-58.62" font-family="Helvetica,sans-Serif" font-size="10.00">PlaneWave::PlaneWave</text>
</a>
</g>
</g>
<!-- Node2 -->
<g id="Node000002" class="node">
<title>Node2</title>
<g id="a_Node000002"><a xlink:href="classPlaneWave.html#abe7fa331497162f9b0e3cd59c3332c34" target="_top" xlink:title="Integrate electric field against an RWG basis function.">
<polygon fill="white" stroke="#666666" points="142.75,-111.12 16.5,-111.12 16.5,-90.38 142.75,-90.38 142.75,-111.12"/>
<text xml:space="preserve" text-anchor="middle" x="79.62" y="-97.62" font-family="Helvetica,sans-Serif" font-size="10.00">PlaneWave::IntegrateE</text>
</a>
</g>
</g>
<!-- Node1&#45;&gt;Node2 -->
<g id="edge1_Node000001_Node000002" class="edge">
<title>Node1&#45;&gt;Node2</title>
<g id="a_edge1_Node000001_Node000002"><a xlink:title=" ">
<path fill="none" stroke="#63b8ff" d="M198.51,-75.01C176.34,-79.85 151.54,-85.27 130.42,-89.88"/>
<polygon fill="#63b8ff" stroke="#63b8ff" points="198.99,-78.49 208.01,-72.94 197.5,-71.65 198.99,-78.49"/>
</a>
</g>
</g>
<!-- Node3 -->
<g id="Node000003" class="node">
<title>Node3</title>
<g id="a_Node000003"><a xlink:href="classPlaneWave.html#a9b36a0f26c234a178795b1a431d53a03" target="_top" xlink:title="Integrate magnetic field against an RWG basis function.">
<polygon fill="white" stroke="#666666" points="143.5,-72.12 15.75,-72.12 15.75,-51.38 143.5,-51.38 143.5,-72.12"/>
<text xml:space="preserve" text-anchor="middle" x="79.62" y="-58.62" font-family="Helvetica,sans-Serif" font-size="10.00">PlaneWave::IntegrateH</text>
</a>
</g>
</g>
<!-- Node1&#45;&gt;Node3 -->
<g id="edge2_Node000001_Node000003" class="edge">
<title>Node1&#45;&gt;Node3</title>
<g id="a_edge2_Node000001_Node000003"><a xlink:title=" ">
<path fill="none" stroke="#63b8ff" d="M183.33,-61.75C170.16,-61.75 156.6,-61.75 143.82,-61.75"/>
<polygon fill="#63b8ff" stroke="#63b8ff" points="183.25,-65.25 193.25,-61.75 183.25,-58.25 183.25,-65.25"/>
</a>
</g>
</g>
<!-- Node4 -->
<g id="Node000004" class="node">
<title>Node4</title>
<g id="a_Node000004"><a xlink:href="classPlaneWave.html#a80fe83d9acd52a14f7b2f0ea2317b036" target="_top" xlink:title="Integrate layered E and H fields against an RWG basis function.">
<polygon fill="white" stroke="#666666" points="159.25,-33.5 0,-33.5 0,0 159.25,0 159.25,-33.5"/>
<text xml:space="preserve" text-anchor="start" x="8" y="-20" font-family="Helvetica,sans-Serif" font-size="10.00">PlaneWave::IntegrateLayered</text>
<text xml:space="preserve" text-anchor="middle" x="79.62" y="-7.25" font-family="Helvetica,sans-Serif" font-size="10.00">EandH</text>
</a>
</g>
</g>
<!-- Node1&#45;&gt;Node4 -->
<g id="edge3_Node000001_Node000004" class="edge">
<title>Node1&#45;&gt;Node4</title>
<g id="a_edge3_Node000001_Node000004"><a xlink:title=" ">
<path fill="none" stroke="#63b8ff" d="M205.42,-48.19C187.63,-43.71 167.59,-38.66 148.87,-33.94"/>
<polygon fill="#63b8ff" stroke="#63b8ff" points="204.45,-51.55 215,-50.6 206.16,-44.76 204.45,-51.55"/>
</a>
</g>
</g>
</g>
</svg>
