<?xml version="1.0" encoding="UTF-8" standalone="no"?>
<!DOCTYPE svg PUBLIC "-//W3C//DTD SVG 1.1//EN"
 "http://www.w3.org/Graphics/SVG/1.1/DTD/svg11.dtd">
<!-- Generated by graphviz version 13.1.2 (20250809.0930)
 -->
<!-- Title: CLParser Pages: 1 -->
<svg width="303pt" height="253pt"
 viewBox="0.00 0.00 303.00 253.00" xmlns="http://www.w3.org/2000/svg" xmlns:xlink="http://www.w3.org/1999/xlink">

<svg id="main" version="1.1" xmlns="http://www.w3.org/2000/svg" xmlns:xlink="http://www.w3.org/1999/xlink" xml:space="preserve">

<style type="text/css"><![CDATA[
.node, .edge {opacity: 0.7;}
.node.selected, .edge.selected {opacity: 1;}
.edge:hover path { stroke: red; }
.edge:hover polygon { stroke: red; fill: red; }
]]></style>
<script type="application/ecmascript" xlink:href="svg.min.js"/>
<svg id="graph" class="graph">
<g id="graph0" class="graph" transform="scale(1 1) rotate(0) translate(4 249)">
<title>CLParser</title>
<!-- Node1 -->
<g id="Node000001" class="node">
<title>Node1</title>
<g id="a_Node000001"><a xlink:title="Abstract base for all command&#45;line option parsers.">
<polygon fill="#999999" stroke="none" points="166.5,-245 88.5,-245 88.5,-140.5 166.5,-140.5 166.5,-245"/>
<text xml:space="preserve" text-anchor="start" x="106.5" y="-231.5" font-family="Helvetica,sans-Serif" font-size="10.00">CLParser</text>
<text xml:space="preserve" text-anchor="start" x="92.5" y="-214.75" font-family="Helvetica,sans-Serif" font-size="10.00">#</text>
<text xml:space="preserve" text-anchor="start" x="104.75" y="-214.75" font-family="Helvetica,sans-Serif" font-size="10.00">option</text>
<text xml:space="preserve" text-anchor="start" x="92.5" y="-198" font-family="Helvetica,sans-Serif" font-size="10.00">+</text>
<text xml:space="preserve" text-anchor="start" x="104.75" y="-198" font-family="Helvetica,sans-Serif" font-size="10.00">CLParser()</text>
<text xml:space="preserve" text-anchor="start" x="92.5" y="-181.25" font-family="Helvetica,sans-Serif" font-size="10.00">+</text>
<text xml:space="preserve" text-anchor="start" x="104.75" y="-181.25" font-family="Helvetica,sans-Serif" font-size="10.00">CLParser()</text>
<text xml:space="preserve" text-anchor="start" x="92.5" y="-164.5" font-family="Helvetica,sans-Serif" font-size="10.00">+</text>
<text xml:space="preserve" text-anchor="start" x="104.75" y="-164.5" font-family="Helvetica,sans-Serif" font-size="10.00">~CLParser()</text>
<text xml:space="preserve" text-anchor="start" x="92.5" y="-147.75" font-family="Helvetica,sans-Serif" font-size="10.00">+</text>
<text xml:space="preserve" text-anchor="start" x="104.75" y="-147.75" font-family="Helvetica,sans-Serif" font-size="10.00">Parse()</text>
<polygon fill="#666666" stroke="#666666" points="88.5,-226.25 88.5,-226.25 166.5,-226.25 166.5,-226.25 88.5,-226.25"/>
<polygon fill="#666666" stroke="#666666" points="88.5,-209.5 88.5,-209.5 102.75,-209.5 102.75,-209.5 88.5,-209.5"/>
<polygon fill="#666666" stroke="#666666" points="102.75,-209.5 102.75,-209.5 166.5,-209.5 166.5,-209.5 102.75,-209.5"/>
<polygon fill="none" stroke="#666666" points="88.5,-140.5 88.5,-245 166.5,-245 166.5,-140.5 88.5,-140.5"/>
</a>
</g>
</g>
<!-- Node2 -->
<g id="Node000002" class="node">
<title>Node2</title>
<g id="a_Node000002"><a xlink:href="classCLFlag.html" target="_top" xlink:title="Boolean flag option with no argument.">
<polygon fill="white" stroke="none" points="69,-104.5 0,-104.5 0,0 69,0 69,-104.5"/>
<text xml:space="preserve" text-anchor="start" x="18" y="-91" font-family="Helvetica,sans-Serif" font-size="10.00">CLFlag</text>
<text xml:space="preserve" text-anchor="start" x="4" y="-74.25" font-family="Helvetica,sans-Serif" font-size="10.00">#</text>
<text xml:space="preserve" text-anchor="start" x="16.25" y="-74.25" font-family="Helvetica,sans-Serif" font-size="10.00">target</text>
<text xml:space="preserve" text-anchor="start" x="4" y="-57.5" font-family="Helvetica,sans-Serif" font-size="10.00">+</text>
<text xml:space="preserve" text-anchor="start" x="16.25" y="-57.5" font-family="Helvetica,sans-Serif" font-size="10.00">CLFlag()</text>
<text xml:space="preserve" text-anchor="start" x="4" y="-40.75" font-family="Helvetica,sans-Serif" font-size="10.00">+</text>
<text xml:space="preserve" text-anchor="start" x="16.25" y="-40.75" font-family="Helvetica,sans-Serif" font-size="10.00">CLFlag()</text>
<text xml:space="preserve" text-anchor="start" x="4" y="-24" font-family="Helvetica,sans-Serif" font-size="10.00">+</text>
<text xml:space="preserve" text-anchor="start" x="16.25" y="-24" font-family="Helvetica,sans-Serif" font-size="10.00">~CLFlag()</text>
<text xml:space="preserve" text-anchor="start" x="4" y="-7.25" font-family="Helvetica,sans-Serif" font-size="10.00">+</text>
<text xml:space="preserve" text-anchor="start" x="16.25" y="-7.25" font-family="Helvetica,sans-Serif" font-size="10.00">Parse()</text>
<polygon fill="#666666" stroke="#666666" points="0,-85.75 0,-85.75 69,-85.75 69,-85.75 0,-85.75"/>
<polygon fill="#666666" stroke="#666666" points="0,-69 0,-69 14.25,-69 14.25,-69 0,-69"/>
<polygon fill="#666666" stroke="#666666" points="14.25,-69 14.25,-69 69,-69 69,-69 14.25,-69"/>
<polygon fill="none" stroke="#666666" points="0,0 0,-104.5 69,-104.5 69,0 0,0"/>
</a>
</g>
</g>
<!-- Node1&#45;&gt;Node2 -->
<g id="edge1_Node000001_Node000002" class="edge">
<title>Node1&#45;&gt;Node2</title>
<g id="a_edge1_Node000001_Node000002"><a xlink:title=" ">
<path fill="none" stroke="#63b8ff" d="M86.89,-131.27C80.83,-122.24 74.63,-113.02 68.72,-104.22"/>
<polygon fill="none" stroke="#63b8ff" points="83.81,-132.96 92.29,-139.31 89.62,-129.06 83.81,-132.96"/>
</a>
</g>
</g>
<!-- Node3 -->
<g id="Node000003" class="node">
<title>Node3</title>
<g id="a_Node000003"><a xlink:href="classCLOption.html" target="_top" xlink:title="Typed option expecting a value (e.g., &quot;&#45;th 8&quot;, &quot;&#45;l 2&quot;).">
<polygon fill="white" stroke="none" points="167.88,-104.5 87.12,-104.5 87.12,0 167.88,0 167.88,-104.5"/>
<text xml:space="preserve" text-anchor="start" x="91.12" y="-91" font-family="Helvetica,sans-Serif" font-size="10.00">CLOption&lt; T &gt;</text>
<text xml:space="preserve" text-anchor="start" x="91.25" y="-74.25" font-family="Helvetica,sans-Serif" font-size="10.00">#</text>
<text xml:space="preserve" text-anchor="start" x="103.62" y="-74.25" font-family="Helvetica,sans-Serif" font-size="10.00">target</text>
<text xml:space="preserve" text-anchor="start" x="91.25" y="-57.5" font-family="Helvetica,sans-Serif" font-size="10.00">+</text>
<text xml:space="preserve" text-anchor="start" x="103.62" y="-57.5" font-family="Helvetica,sans-Serif" font-size="10.00">CLOption()</text>
<text xml:space="preserve" text-anchor="start" x="91.25" y="-40.75" font-family="Helvetica,sans-Serif" font-size="10.00">+</text>
<text xml:space="preserve" text-anchor="start" x="103.62" y="-40.75" font-family="Helvetica,sans-Serif" font-size="10.00">CLOption()</text>
<text xml:space="preserve" text-anchor="start" x="91.25" y="-24" font-family="Helvetica,sans-Serif" font-size="10.00">+</text>
<text xml:space="preserve" text-anchor="start" x="103.62" y="-24" font-family="Helvetica,sans-Serif" font-size="10.00">~CLOption()</text>
<text xml:space="preserve" text-anchor="start" x="91.25" y="-7.25" font-family="Helvetica,sans-Serif" font-size="10.00">+</text>
<text xml:space="preserve" text-anchor="start" x="103.62" y="-7.25" font-family="Helvetica,sans-Serif" font-size="10.00">Parse()</text>
<polygon fill="#666666" stroke="#666666" points="87.12,-85.75 87.12,-85.75 167.88,-85.75 167.88,-85.75 87.12,-85.75"/>
<polygon fill="#666666" stroke="#666666" points="87.12,-69 87.12,-69 101.62,-69 101.62,-69 87.12,-69"/>
<polygon fill="#666666" stroke="#666666" points="101.62,-69 101.62,-69 167.88,-69 167.88,-69 101.62,-69"/>
<polygon fill="none" stroke="#666666" points="87.12,0 87.12,-104.5 167.88,-104.5 167.88,0 87.12,0"/>
</a>
</g>
</g>
<!-- Node1&#45;&gt;Node3 -->
<g id="edge2_Node000001_Node000003" class="edge">
<title>Node1&#45;&gt;Node3</title>
<g id="a_edge2_Node000001_Node000003"><a xlink:title=" ">
<path fill="none" stroke="#63b8ff" d="M127.5,-129.27C127.5,-120.89 127.5,-112.37 127.5,-104.22"/>
<polygon fill="none" stroke="#63b8ff" points="124,-129.06 127.5,-139.06 131,-129.06 124,-129.06"/>
</a>
</g>
</g>
<!-- Node4 -->
<g id="Node000004" class="node">
<title>Node4</title>
<g id="a_Node000004"><a xlink:href="classCLStringOption.html" target="_top" xlink:title="Option that captures a string argument.">
<polygon fill="white" stroke="none" points="294.88,-104.5 186.12,-104.5 186.12,0 294.88,0 294.88,-104.5"/>
<text xml:space="preserve" text-anchor="start" x="204.12" y="-91" font-family="Helvetica,sans-Serif" font-size="10.00">CLStringOption</text>
<text xml:space="preserve" text-anchor="start" x="190.12" y="-74.25" font-family="Helvetica,sans-Serif" font-size="10.00">#</text>
<text xml:space="preserve" text-anchor="start" x="202.38" y="-74.25" font-family="Helvetica,sans-Serif" font-size="10.00">target</text>
<text xml:space="preserve" text-anchor="start" x="190.12" y="-57.5" font-family="Helvetica,sans-Serif" font-size="10.00">+</text>
<text xml:space="preserve" text-anchor="start" x="202.38" y="-57.5" font-family="Helvetica,sans-Serif" font-size="10.00">CLStringOption()</text>
<text xml:space="preserve" text-anchor="start" x="190.12" y="-40.75" font-family="Helvetica,sans-Serif" font-size="10.00">+</text>
<text xml:space="preserve" text-anchor="start" x="202.38" y="-40.75" font-family="Helvetica,sans-Serif" font-size="10.00">CLStringOption()</text>
<text xml:space="preserve" text-anchor="start" x="190.12" y="-24" font-family="Helvetica,sans-Serif" font-size="10.00">+</text>
<text xml:space="preserve" text-anchor="start" x="202.38" y="-24" font-family="Helvetica,sans-Serif" font-size="10.00">~CLStringOption()</text>
<text xml:space="preserve" text-anchor="start" x="190.12" y="-7.25" font-family="Helvetica,sans-Serif" font-size="10.00">+</text>
<text xml:space="preserve" text-anchor="start" x="202.38" y="-7.25" font-family="Helvetica,sans-Serif" font-size="10.00">Parse()</text>
<polygon fill="#666666" stroke="#666666" points="186.12,-85.75 186.12,-85.75 294.88,-85.75 294.88,-85.75 186.12,-85.75"/>
<polygon fill="#666666" stroke="#666666" points="186.12,-69 186.12,-69 200.38,-69 200.38,-69 186.12,-69"/>
<polygon fill="#666666" stroke="#666666" points="200.38,-69 200.38,-69 294.88,-69 294.88,-69 200.38,-69"/>
<polygon fill="none" stroke="#666666" points="186.12,0 186.12,-104.5 294.88,-104.5 294.88,0 186.12,0"/>
</a>
</g>
</g>
<!-- Node1&#45;&gt;Node4 -->
<g id="edge3_Node000001_Node000004" class="edge">
<title>Node1&#45;&gt;Node4</title>
<g id="a_edge3_Node000001_Node000004"><a xlink:title=" ">
<path fill="none" stroke="#63b8ff" d="M173.62,-135.22C181.97,-124.99 190.63,-114.37 198.84,-104.31"/>
<polygon fill="none" stroke="#63b8ff" points="170.95,-132.95 167.35,-142.91 176.38,-137.38 170.95,-132.95"/>
</a>
</g>
</g>
</g>
</svg>
</svg>

<style type='text/css'>
<![CDATA[
[data-mouse-over-selected='false'] { opacity: 0.7; }
[data-mouse-over-selected='true']  { opacity: 1.0; }
]]>
</style>
<script type="application/ecmascript"><![CDATA[
document.addEventListener('DOMContentLoaded', (event) => {
  highlightEdges();
  highlightAdjacentNodes();
});
]]></script>
</svg>
