<?xml version="1.0" encoding="UTF-8" standalone="no"?>
<!DOCTYPE svg PUBLIC "-//W3C//DTD SVG 1.1//EN"
 "http://www.w3.org/Graphics/SVG/1.1/DTD/svg11.dtd">
<!-- Generated by graphviz version 13.1.2 (20250809.0930)
 -->
<!-- Title: Triangle::Perimeter Pages: 1 -->
<svg width="567pt" height="442pt"
 viewBox="0.00 0.00 567.00 442.00" xmlns="http://www.w3.org/2000/svg" xmlns:xlink="http://www.w3.org/1999/xlink">
<g id="graph0" class="graph" transform="scale(1 1) rotate(0) translate(4 438.12)">
<title>Triangle::Perimeter</title>
<!-- Node1 -->
<g id="Node000001" class="node">
<title>Node1</title>
<g id="a_Node000001"><a xlink:title="Perimeter (sum of edge lengths).">
<polygon fill="#999999" stroke="#666666" points="558.75,-243.12 450.5,-243.12 450.5,-222.38 558.75,-222.38 558.75,-243.12"/>
<text xml:space="preserve" text-anchor="middle" x="504.62" y="-229.62" font-family="Helvetica,sans-Serif" font-size="10.00">Triangle::Perimeter</text>
</a>
</g>
</g>
<!-- Node2 -->
<g id="Node000002" class="node">
<title>Node2</title>
<g id="a_Node000002"><a xlink:href="classGreenFHom3D.html#a2cd095383b467cb6ca12819e2cd5dc61" target="_top" xlink:title="Heuristic test for two triangles using center distance vs.">
<polygon fill="white" stroke="#666666" points="399.88,-434.12 227.12,-434.12 227.12,-413.38 399.88,-413.38 399.88,-434.12"/>
<text xml:space="preserve" text-anchor="middle" x="313.5" y="-420.62" font-family="Helvetica,sans-Serif" font-size="10.00">GreenFHom3D::AboveThreshold</text>
</a>
</g>
</g>
<!-- Node1&#45;&gt;Node2 -->
<g id="edge1_Node000001_Node000002" class="edge">
<title>Node1&#45;&gt;Node2</title>
<g id="a_edge1_Node000001_Node000002"><a xlink:title=" ">
<path fill="none" stroke="#63b8ff" d="M498.86,-254.14C489.48,-290.92 465.02,-365.83 414.5,-403.75 409.54,-407.47 404.07,-410.55 398.32,-413.09"/>
<polygon fill="#63b8ff" stroke="#63b8ff" points="502.19,-255.25 501.12,-244.71 495.38,-253.62 502.19,-255.25"/>
</a>
</g>
</g>
<!-- Node3 -->
<g id="Node000003" class="node">
<title>Node3</title>
<g id="a_Node000003"><a xlink:href="classGreenFLayered3D.html#a1e2aea0bdd06e2c0082b6ae0787a018b" target="_top" xlink:title="Checks whether the given point&#45;triangle pair exceeds a predefined distance threshold.">
<polygon fill="white" stroke="#666666" points="407.75,-395.12 219.25,-395.12 219.25,-374.38 407.75,-374.38 407.75,-395.12"/>
<text xml:space="preserve" text-anchor="middle" x="313.5" y="-381.62" font-family="Helvetica,sans-Serif" font-size="10.00">GreenFLayered3D::AboveThreshold</text>
</a>
</g>
</g>
<!-- Node1&#45;&gt;Node3 -->
<g id="edge2_Node000001_Node000003" class="edge">
<title>Node1&#45;&gt;Node3</title>
<g id="a_edge2_Node000001_Node000003"><a xlink:title=" ">
<path fill="none" stroke="#63b8ff" d="M495.51,-253.84C482.93,-283.59 455.75,-337.3 414.5,-364.75 408.97,-368.43 402.92,-371.46 396.61,-373.95"/>
<polygon fill="#63b8ff" stroke="#63b8ff" points="498.67,-255.37 499.19,-244.78 492.19,-252.74 498.67,-255.37"/>
</a>
</g>
</g>
<!-- Node4 -->
<g id="Node000004" class="node">
<title>Node4</title>
<g id="a_Node000004"><a xlink:href="classGreenFLayered3D.html#a41dad600791549400d82f6c44238f373" target="_top" xlink:title="Checks whether the given triangles exceed a predefined threshold.">
<polygon fill="white" stroke="#666666" points="407.75,-356.12 219.25,-356.12 219.25,-335.38 407.75,-335.38 407.75,-356.12"/>
<text xml:space="preserve" text-anchor="middle" x="313.5" y="-342.62" font-family="Helvetica,sans-Serif" font-size="10.00">GreenFLayered3D::AboveThreshold</text>
</a>
</g>
</g>
<!-- Node1&#45;&gt;Node4 -->
<g id="edge3_Node000001_Node000004" class="edge">
<title>Node1&#45;&gt;Node4</title>
<g id="a_edge3_Node000001_Node000004"><a xlink:title=" ">
<path fill="none" stroke="#63b8ff" d="M490.4,-252.9C474.93,-274.75 447.21,-308.88 414.5,-326.75 408.61,-329.97 402.26,-332.65 395.72,-334.88"/>
<polygon fill="#63b8ff" stroke="#63b8ff" points="493.18,-255.03 495.95,-244.81 487.41,-251.08 493.18,-255.03"/>
</a>
</g>
</g>
<!-- Node5 -->
<g id="Node000005" class="node">
<title>Node5</title>
<g id="a_Node000005"><a xlink:href="classGreenFHom3DPer2D.html#a4049a59ae5bbd1406d1da47e6de62af8" target="_top" xlink:title="Far/near heuristic for translated triangle pairs.">
<polygon fill="white" stroke="#666666" points="414.5,-317.5 212.5,-317.5 212.5,-284 414.5,-284 414.5,-317.5"/>
<text xml:space="preserve" text-anchor="start" x="220.5" y="-304" font-family="Helvetica,sans-Serif" font-size="10.00">GreenFHom3DPer2D::AboveThreshold</text>
<text xml:space="preserve" text-anchor="middle" x="313.5" y="-291.25" font-family="Helvetica,sans-Serif" font-size="10.00">Translate</text>
</a>
</g>
</g>
<!-- Node1&#45;&gt;Node5 -->
<g id="edge4_Node000001_Node000005" class="edge">
<title>Node1&#45;&gt;Node5</title>
<g id="a_edge4_Node000001_Node000005"><a xlink:title=" ">
<path fill="none" stroke="#63b8ff" d="M473.64,-248.59C456.63,-257.14 434.74,-267.42 414.5,-274.75 405.81,-277.89 396.58,-280.83 387.36,-283.5"/>
<polygon fill="#63b8ff" stroke="#63b8ff" points="474.89,-251.88 482.2,-244.22 471.71,-245.65 474.89,-251.88"/>
</a>
</g>
</g>
<!-- Node7 -->
<g id="Node000007" class="node">
<title>Node7</title>
<g id="a_Node000007"><a xlink:href="classGreenFHom3D.html#aca136b03c44ad1da34acf91eb5a5e390" target="_top" xlink:title="term at an observation point.">
<polygon fill="white" stroke="#666666" points="395.75,-266.12 231.25,-266.12 231.25,-245.38 395.75,-245.38 395.75,-266.12"/>
<text xml:space="preserve" text-anchor="middle" x="313.5" y="-252.62" font-family="Helvetica,sans-Serif" font-size="10.00">GreenFHom3D::IntegrateDelta</text>
</a>
</g>
</g>
<!-- Node1&#45;&gt;Node7 -->
<g id="edge6_Node000001_Node000007" class="edge">
<title>Node1&#45;&gt;Node7</title>
<g id="a_edge6_Node000001_Node000007"><a xlink:title=" ">
<path fill="none" stroke="#63b8ff" d="M438.87,-240.63C425.09,-242.3 410.38,-244.09 396.07,-245.83"/>
<polygon fill="#63b8ff" stroke="#63b8ff" points="439.18,-244.11 448.69,-239.43 438.34,-237.16 439.18,-244.11"/>
</a>
</g>
</g>
<!-- Node8 -->
<g id="Node000008" class="node">
<title>Node8</title>
<g id="a_Node000008"><a xlink:href="classGreenFHom3DPer2D.html#a233c2185952220bd16acae2142f05cc1" target="_top" xlink:title="term at an observation point.">
<polygon fill="white" stroke="#666666" points="397.25,-227.5 229.75,-227.5 229.75,-194 397.25,-194 397.25,-227.5"/>
<text xml:space="preserve" text-anchor="start" x="237.75" y="-214" font-family="Helvetica,sans-Serif" font-size="10.00">GreenFHom3DPer2D::Integrate</text>
<text xml:space="preserve" text-anchor="middle" x="313.5" y="-201.25" font-family="Helvetica,sans-Serif" font-size="10.00">Delta</text>
</a>
</g>
</g>
<!-- Node1&#45;&gt;Node8 -->
<g id="edge7_Node000001_Node000008" class="edge">
<title>Node1&#45;&gt;Node8</title>
<g id="a_edge7_Node000001_Node000008"><a xlink:title=" ">
<path fill="none" stroke="#63b8ff" d="M438.77,-225.21C425.48,-223.66 411.32,-222.01 397.5,-220.41"/>
<polygon fill="#63b8ff" stroke="#63b8ff" points="438.35,-228.68 448.68,-226.36 439.16,-221.73 438.35,-228.68"/>
</a>
</g>
</g>
<!-- Node9 -->
<g id="Node000009" class="node">
<title>Node9</title>
<g id="a_Node000009"><a xlink:href="classGreenFHom3D.html#a9cece8a4056d65455cfcc94c8c61decd" target="_top" xlink:title="term at an observation point.">
<polygon fill="white" stroke="#666666" points="398,-176.12 229,-176.12 229,-155.38 398,-155.38 398,-176.12"/>
<text xml:space="preserve" text-anchor="middle" x="313.5" y="-162.62" font-family="Helvetica,sans-Serif" font-size="10.00">GreenFHom3D::IntegrateKappa</text>
</a>
</g>
</g>
<!-- Node1&#45;&gt;Node9 -->
<g id="edge8_Node000001_Node000009" class="edge">
<title>Node1&#45;&gt;Node9</title>
<g id="a_edge8_Node000001_Node000009"><a xlink:title=" ">
<path fill="none" stroke="#63b8ff" d="M477.86,-216.13C460.57,-205.68 436.93,-192.71 414.5,-184.75 405.51,-181.56 395.86,-178.87 386.23,-176.61"/>
<polygon fill="#63b8ff" stroke="#63b8ff" points="475.62,-218.86 485.97,-221.14 479.3,-212.91 475.62,-218.86"/>
</a>
</g>
</g>
<!-- Node10 -->
<g id="Node000010" class="node">
<title>Node10</title>
<g id="a_Node000010"><a xlink:href="classGreenFHom3DPer2D.html#aadb534ef4509422e6f3e78a0e3999758" target="_top" xlink:title="term at an observation point.">
<polygon fill="white" stroke="#666666" points="397.25,-137.5 229.75,-137.5 229.75,-104 397.25,-104 397.25,-137.5"/>
<text xml:space="preserve" text-anchor="start" x="237.75" y="-124" font-family="Helvetica,sans-Serif" font-size="10.00">GreenFHom3DPer2D::Integrate</text>
<text xml:space="preserve" text-anchor="middle" x="313.5" y="-111.25" font-family="Helvetica,sans-Serif" font-size="10.00">Kappa</text>
</a>
</g>
</g>
<!-- Node1&#45;&gt;Node10 -->
<g id="edge9_Node000001_Node000010" class="edge">
<title>Node1&#45;&gt;Node10</title>
<g id="a_edge9_Node000001_Node000010"><a xlink:title=" ">
<path fill="none" stroke="#63b8ff" d="M488.56,-213.21C472.35,-193.54 444.8,-163.74 414.5,-146.75 408.55,-143.42 402.17,-140.5 395.61,-137.95"/>
<polygon fill="#63b8ff" stroke="#63b8ff" points="485.63,-215.16 494.62,-220.77 491.1,-210.78 485.63,-215.16"/>
</a>
</g>
</g>
<!-- Node11 -->
<g id="Node000011" class="node">
<title>Node11</title>
<g id="a_Node000011"><a xlink:href="classGreenFHom3D.html#a48e8471aabb445e0e50a01c005ff3b98" target="_top" xlink:title="Compute &#160;for all RWGs on a source triangle.">
<polygon fill="white" stroke="#666666" points="393.12,-85.5 233.88,-85.5 233.88,-52 393.12,-52 393.12,-85.5"/>
<text xml:space="preserve" text-anchor="start" x="241.88" y="-72" font-family="Helvetica,sans-Serif" font-size="10.00">GreenFHom3D::SameTriDelta</text>
<text xml:space="preserve" text-anchor="middle" x="313.5" y="-59.25" font-family="Helvetica,sans-Serif" font-size="10.00">Kappa</text>
</a>
</g>
</g>
<!-- Node1&#45;&gt;Node11 -->
<g id="edge10_Node000001_Node000011" class="edge">
<title>Node1&#45;&gt;Node11</title>
<g id="a_edge10_Node000001_Node000011"><a xlink:title=" ">
<path fill="none" stroke="#63b8ff" d="M495.74,-211.48C483.29,-180.89 456.13,-124.84 414.5,-94.75 408.1,-90.13 400.95,-86.32 393.49,-83.2"/>
<polygon fill="#63b8ff" stroke="#63b8ff" points="492.48,-212.75 499.37,-220.79 499,-210.2 492.48,-212.75"/>
</a>
</g>
</g>
<!-- Node12 -->
<g id="Node000012" class="node">
<title>Node12</title>
<g id="a_Node000012"><a xlink:href="classGreenFHom3DPer2D.html#a84a8c855a27c895ff24f6771037284a5" target="_top" xlink:title="Compute &#160;for all RWGs on a source triangle.">
<polygon fill="white" stroke="#666666" points="394.62,-33.5 232.38,-33.5 232.38,0 394.62,0 394.62,-33.5"/>
<text xml:space="preserve" text-anchor="start" x="240.38" y="-20" font-family="Helvetica,sans-Serif" font-size="10.00">GreenFHom3DPer2D::SameTri</text>
<text xml:space="preserve" text-anchor="middle" x="313.5" y="-7.25" font-family="Helvetica,sans-Serif" font-size="10.00">DeltaKappa</text>
</a>
</g>
</g>
<!-- Node1&#45;&gt;Node12 -->
<g id="edge11_Node000001_Node000012" class="edge">
<title>Node1&#45;&gt;Node12</title>
<g id="a_edge11_Node000001_Node000012"><a xlink:title=" ">
<path fill="none" stroke="#63b8ff" d="M499.7,-211.01C491.37,-171.36 468.11,-87.29 414.5,-42.75 408.57,-37.82 401.81,-33.81 394.66,-30.56"/>
<polygon fill="#63b8ff" stroke="#63b8ff" points="496.24,-211.59 501.61,-220.73 503.11,-210.24 496.24,-211.59"/>
</a>
</g>
</g>
<!-- Node6 -->
<g id="Node000006" class="node">
<title>Node6</title>
<g id="a_Node000006"><a xlink:href="classGreenFHom3DPer2D.html#a1dc9dd84c93ee10b2fb4b1866103d957" target="_top" xlink:title="Compute &#160;and &#160;for all RWG pairs on two triangles.">
<polygon fill="white" stroke="#666666" points="176.5,-311.12 0,-311.12 0,-290.38 176.5,-290.38 176.5,-311.12"/>
<text xml:space="preserve" text-anchor="middle" x="88.25" y="-297.62" font-family="Helvetica,sans-Serif" font-size="10.00">GreenFHom3DPer2D::SameTriDK</text>
</a>
</g>
</g>
<!-- Node5&#45;&gt;Node6 -->
<g id="edge5_Node000005_Node000006" class="edge">
<title>Node5&#45;&gt;Node6</title>
<g id="a_edge5_Node000005_Node000006"><a xlink:title=" ">
<path fill="none" stroke="#63b8ff" d="M200.91,-300.75C192.83,-300.75 184.76,-300.75 176.85,-300.75"/>
<polygon fill="#63b8ff" stroke="#63b8ff" points="200.79,-304.25 210.79,-300.75 200.79,-297.25 200.79,-304.25"/>
</a>
</g>
</g>
</g>
</svg>
