<?xml version="1.0" encoding="UTF-8" standalone="no"?>
<!DOCTYPE svg PUBLIC "-//W3C//DTD SVG 1.1//EN"
 "http://www.w3.org/Graphics/SVG/1.1/DTD/svg11.dtd">
<!-- Generated by graphviz version 13.1.2 (20250809.0930)
 -->
<!-- Title: GreenFHom3DPer2D::GradientSmoothedTranslate Pages: 1 -->
<!--zoomable 94 -->

<svg id="main" version="1.1" xmlns="http://www.w3.org/2000/svg" xmlns:xlink="http://www.w3.org/1999/xlink" xml:space="preserve" onload="init(evt)">

<style type="text/css"><![CDATA[
.node, .edge {opacity: 0.7;}
.node.selected, .edge.selected {opacity: 1;}
.edge:hover path { stroke: red; }
.edge:hover polygon { stroke: red; fill: red; }
]]></style>

<defs>
  <circle id="rim" cx="0" cy="0" r="7"/>
  <circle id="rim2" cx="0" cy="0" r="3.5"/>
  <g id="zoomPlus">
    <use xlink:href="#rim" fill="#404040"><set attributeName="fill" to="#808080" begin="zoomplus.mouseover" end="zoomplus.mouseout"/></use>
    <path d="M-4,0h8M0,-4v8" fill="none" stroke="white" stroke-width="1.5" pointer-events="none"/>
  </g>
  <g id="zoomMin">
    <use xlink:href="#rim" fill="#404040"><set attributeName="fill" to="#808080" begin="zoomminus.mouseover" end="zoomminus.mouseout"/></use>
    <path d="M-4,0h8" fill="none" stroke="white" stroke-width="1.5" pointer-events="none"/>
  </g>
  <g id="arrowUp" transform="translate(30 24)">
    <use xlink:href="#rim"/>
    <path pointer-events="none" fill="none" stroke="white" stroke-width="1.5" d="M0,-3.0v7 M-2.5,-0.5L0,-3.0L2.5,-0.5"/>
  </g>
  <g id="arrowRight" transform="rotate(90) translate(36 -43)">
    <use xlink:href="#rim"/>
    <path pointer-events="none" fill="none" stroke="white" stroke-width="1.5" d="M0,-3.0v7 M-2.5,-0.5L0,-3.0L2.5,-0.5"/>
  </g>
  <g id="arrowDown" transform="rotate(180) translate(-30 -48)">
    <use xlink:href="#rim"/>
    <path pointer-events="none" fill="none" stroke="white" stroke-width="1.5" d="M0,-3.0v7 M-2.5,-0.5L0,-3.0L2.5,-0.5"/>
  </g>
  <g id="arrowLeft" transform="rotate(270) translate(-36 17)">
    <use xlink:href="#rim"/>
    <path pointer-events="none" fill="none" stroke="white" stroke-width="1.5" d="M0,-3.0v7 M-2.5,-0.5L0,-3.0L2.5,-0.5"/>
  </g>
  <g id="resetDef">
    <use xlink:href="#rim2" fill="#404040"><set attributeName="fill" to="#808080" begin="reset.mouseover" end="reset.mouseout"/></use>
  </g>
</defs>
<script type="application/ecmascript">
var viewWidth = 645;
var viewHeight = 94;
var sectionId = 'dynsection-41';
</script>
<script type="application/ecmascript" xlink:href="svg.min.js"/>
<svg id="graph" class="graph">
<g id="viewport">
<title>GreenFHom3DPer2D::GradientSmoothedTranslate</title>
<!-- Node1 -->
<g id="Node000001" class="node">
<title>Node1</title>
<g id="a_Node000001"><a xlink:title="Smoothed source&#45;gradient for a specific translation.">
<polygon fill="#999999" stroke="#666666" points="165.25,-59.5 0,-59.5 0,-26 165.25,-26 165.25,-59.5"/>
<text xml:space="preserve" text-anchor="start" x="8" y="-46" font-family="Helvetica,sans-Serif" font-size="10.00">GreenFHom3DPer2D::Gradient</text>
<text xml:space="preserve" text-anchor="middle" x="82.62" y="-33.25" font-family="Helvetica,sans-Serif" font-size="10.00">SmoothedTranslate</text>
</a>
</g>
</g>
<!-- Node2 -->
<g id="Node000002" class="node">
<title>Node2</title>
<g id="a_Node000002"><a xlink:href="classGreenFHom3DPer2D.html#a11d147713f81b9b9684aa9d39514a2c6" target="_top" xlink:title="Spatial part of the smoothed source&#45;gradient .">
<polygon fill="white" stroke="#666666" points="366.5,-85.5 201.25,-85.5 201.25,-52 366.5,-52 366.5,-85.5"/>
<text xml:space="preserve" text-anchor="start" x="209.25" y="-72" font-family="Helvetica,sans-Serif" font-size="10.00">GreenFHom3DPer2D::Gradient</text>
<text xml:space="preserve" text-anchor="middle" x="283.88" y="-59.25" font-family="Helvetica,sans-Serif" font-size="10.00">EwaldSpatialSmoothed</text>
</a>
</g>
</g>
<!-- Node1&#45;&gt;Node2 -->
<g id="edge1_Node000001_Node000002" class="edge">
<title>Node1&#45;&gt;Node2</title>
<g id="a_edge1_Node000001_Node000002"><a xlink:title=" ">
<path fill="none" stroke="#63b8ff" d="M165.53,-53.44C173.48,-54.48 181.59,-55.53 189.64,-56.58"/>
<polygon fill="#63b8ff" stroke="#63b8ff" points="189.1,-60.04 199.47,-57.87 190,-53.1 189.1,-60.04"/>
</a>
</g>
</g>
<!-- Node7 -->
<g id="Node000007" class="node">
<title>Node7</title>
<g id="a_Node000007"><a xlink:href="classGreenFHom3DPer2D.html#a1ab7bcf35b15f67bb9824040c34c8bbc" target="_top" xlink:title="Spectral part of the source&#45;gradient .">
<polygon fill="white" stroke="#666666" points="366.5,-33.5 201.25,-33.5 201.25,0 366.5,0 366.5,-33.5"/>
<text xml:space="preserve" text-anchor="start" x="209.25" y="-20" font-family="Helvetica,sans-Serif" font-size="10.00">GreenFHom3DPer2D::Gradient</text>
<text xml:space="preserve" text-anchor="middle" x="283.88" y="-7.25" font-family="Helvetica,sans-Serif" font-size="10.00">EwaldSpectral</text>
</a>
</g>
</g>
<!-- Node1&#45;&gt;Node7 -->
<g id="edge7_Node000001_Node000007" class="edge">
<title>Node1&#45;&gt;Node7</title>
<g id="a_edge7_Node000001_Node000007"><a xlink:title=" ">
<path fill="none" stroke="#63b8ff" d="M165.53,-32.06C173.48,-31.02 181.59,-29.97 189.64,-28.92"/>
<polygon fill="#63b8ff" stroke="#63b8ff" points="190,-32.4 199.47,-27.63 189.1,-25.46 190,-32.4"/>
</a>
</g>
</g>
<!-- Node3 -->
<g id="Node000003" class="node">
<title>Node3</title>
<g id="a_Node000003"><a xlink:href="classGreenF.html#abf00726011a4eca4109bc43125218d30" target="_top" xlink:title="Evaluate erfc via the 2D lookup table if available.">
<polygon fill="white" stroke="#666666" points="489.75,-72.12 402.5,-72.12 402.5,-51.38 489.75,-51.38 489.75,-72.12"/>
<text xml:space="preserve" text-anchor="middle" x="446.12" y="-58.62" font-family="Helvetica,sans-Serif" font-size="10.00">GreenF::EvErfc</text>
</a>
</g>
</g>
<!-- Node2&#45;&gt;Node3 -->
<g id="edge2_Node000002_Node000003" class="edge">
<title>Node2&#45;&gt;Node3</title>
<g id="a_edge2_Node000002_Node000003"><a xlink:title=" ">
<path fill="none" stroke="#63b8ff" d="M366.88,-65.17C374.96,-64.82 383.01,-64.46 390.71,-64.13"/>
<polygon fill="#63b8ff" stroke="#63b8ff" points="390.73,-67.63 400.57,-63.7 390.43,-60.64 390.73,-67.63"/>
</a>
</g>
</g>
<!-- Node4 -->
<g id="Node000004" class="node">
<title>Node4</title>
<g id="a_Node000004"><a xlink:href="mathFunctions_8cpp.html#a7916c6b62310fe9cf38ec2a2890aaad4" target="_top" xlink:title="Complementary error function for complex arguments.">
<polygon fill="white" stroke="#666666" points="565.75,-84.12 525.75,-84.12 525.75,-63.38 565.75,-63.38 565.75,-84.12"/>
<text xml:space="preserve" text-anchor="middle" x="545.75" y="-70.62" font-family="Helvetica,sans-Serif" font-size="10.00">cerfc</text>
</a>
</g>
</g>
<!-- Node3&#45;&gt;Node4 -->
<g id="edge3_Node000003_Node000004" class="edge">
<title>Node3&#45;&gt;Node4</title>
<g id="a_edge3_Node000003_Node000004"><a xlink:title=" ">
<path fill="none" stroke="#63b8ff" d="M490.23,-67.05C498.27,-68.04 506.53,-69.05 514.1,-69.98"/>
<polygon fill="#63b8ff" stroke="#63b8ff" points="513.46,-73.43 523.81,-71.18 514.32,-66.48 513.46,-73.43"/>
</a>
</g>
</g>
<!-- Node6 -->
<g id="Node000006" class="node">
<title>Node6</title>
<g id="a_Node000006"><a xlink:href="Domain_8cpp.html#aafa3e4fa6318b2f8740f4dbd50c367e5" target="_top" xlink:title="Extract the real part of each component of a complex 3&#45;vector.">
<polygon fill="white" stroke="#666666" points="563.12,-27.12 528.38,-27.12 528.38,-6.38 563.12,-6.38 563.12,-27.12"/>
<text xml:space="preserve" text-anchor="middle" x="545.75" y="-13.62" font-family="Helvetica,sans-Serif" font-size="10.00">real</text>
</a>
</g>
</g>
<!-- Node3&#45;&gt;Node6 -->
<g id="edge5_Node000003_Node000006" class="edge">
<title>Node3&#45;&gt;Node6</title>
<g id="a_edge5_Node000003_Node000006"><a xlink:title=" ">
<path fill="none" stroke="#63b8ff" d="M470.26,-51.09C484.51,-44.52 502.83,-36.07 517.74,-29.2"/>
<polygon fill="#63b8ff" stroke="#63b8ff" points="518.9,-32.52 526.51,-25.16 515.97,-26.16 518.9,-32.52"/>
</a>
</g>
</g>
<!-- Node5 -->
<g id="Node000005" class="node">
<title>Node5</title>
<g id="a_Node000005"><a xlink:href="mathFunctions_8cpp.html#abc57cde75234d7e165a9ebcdb45f2c29" target="_top" xlink:title="Error function for complex arguments.">
<polygon fill="white" stroke="#666666" points="636.5,-84.12 601.75,-84.12 601.75,-63.38 636.5,-63.38 636.5,-84.12"/>
<text xml:space="preserve" text-anchor="middle" x="619.12" y="-70.62" font-family="Helvetica,sans-Serif" font-size="10.00">cerf</text>
</a>
</g>
</g>
<!-- Node4&#45;&gt;Node5 -->
<g id="edge4_Node000004_Node000005" class="edge">
<title>Node4&#45;&gt;Node5</title>
<g id="a_edge4_Node000004_Node000005"><a xlink:title=" ">
<path fill="none" stroke="#63b8ff" d="M565.88,-73.75C573.31,-73.75 581.98,-73.75 590.09,-73.75"/>
<polygon fill="#63b8ff" stroke="#63b8ff" points="589.86,-77.25 599.86,-73.75 589.86,-70.25 589.86,-77.25"/>
</a>
</g>
</g>
<!-- Node6&#45;&gt;Node6 -->
<g id="edge6_Node000006_Node000006" class="edge">
<title>Node6&#45;&gt;Node6</title>
<g id="a_edge6_Node000006_Node000006"><a xlink:title=" ">
<path fill="none" stroke="#63b8ff" d="M533.93,-27.52C529.2,-36.18 533.14,-45.12 545.75,-45.12 552.45,-45.12 556.7,-42.6 558.51,-38.94"/>
<polygon fill="#63b8ff" stroke="#63b8ff" points="562,-38.71 557.7,-29.03 555.03,-39.28 562,-38.71"/>
</a>
</g>
</g>
<!-- Node7&#45;&gt;Node3 -->
<g id="edge10_Node000007_Node000003" class="edge">
<title>Node7&#45;&gt;Node3</title>
<g id="a_edge10_Node000007_Node000003"><a xlink:title=" ">
<path fill="none" stroke="#63b8ff" d="M345.92,-33.89C362.29,-38.49 379.78,-43.4 395.46,-47.8"/>
<polygon fill="#63b8ff" stroke="#63b8ff" points="394.47,-51.16 405.05,-50.5 396.37,-44.42 394.47,-51.16"/>
</a>
</g>
</g>
<!-- Node8 -->
<g id="Node000008" class="node">
<title>Node8</title>
<g id="a_Node000008"><a xlink:href="group__greenFunction.html#gac0a52dce23be7dacdf97c68653b6c137" target="_top" xlink:title="Complex square root with a branch cut along the negative real axis.">
<polygon fill="white" stroke="#666666" points="466.12,-27.12 426.12,-27.12 426.12,-6.38 466.12,-6.38 466.12,-27.12"/>
<text xml:space="preserve" text-anchor="middle" x="446.12" y="-13.62" font-family="Helvetica,sans-Serif" font-size="10.00">csqrt</text>
</a>
</g>
</g>
<!-- Node7&#45;&gt;Node8 -->
<g id="edge8_Node000007_Node000008" class="edge">
<title>Node7&#45;&gt;Node8</title>
<g id="a_edge8_Node000007_Node000008"><a xlink:title=" ">
<path fill="none" stroke="#63b8ff" d="M366.88,-16.75C383.91,-16.75 400.83,-16.75 414.56,-16.75"/>
<polygon fill="#63b8ff" stroke="#63b8ff" points="414.21,-20.25 424.21,-16.75 414.21,-13.25 414.21,-20.25"/>
</a>
</g>
</g>
<!-- Node8&#45;&gt;Node6 -->
<g id="edge9_Node000008_Node000006" class="edge">
<title>Node8&#45;&gt;Node6</title>
<g id="a_edge9_Node000008_Node000006"><a xlink:title=" ">
<path fill="none" stroke="#63b8ff" d="M466.41,-16.75C480.76,-16.75 500.56,-16.75 516.66,-16.75"/>
<polygon fill="#63b8ff" stroke="#63b8ff" points="516.59,-20.25 526.59,-16.75 516.59,-13.25 516.59,-20.25"/>
</a>
</g>
</g>
</g>
</svg>

<g id="navigator" transform="translate(0 0)" fill="#404254">
  <rect fill="#f2f5e9" fill-opacity="0.5" stroke="#606060" stroke-width=".5" x="0" y="0" width="60" height="60"/>
  <use id="zoomplus" xlink:href="#zoomPlus" x="17" y="9" onmousedown="handleZoom(evt,'in')"/>
  <use id="zoomminus" xlink:href="#zoomMin" x="42" y="9" onmousedown="handleZoom(evt,'out')"/>
  <use id="reset" xlink:href="#resetDef" x="30" y="36" onmousedown="handleReset()"/>
   <use id="arrowup" xlink:href="#arrowUp" x="0" y="0" onmousedown="handlePan(0,-1)"/>
  <use id="arrowright" xlink:href="#arrowRight" x="0" y="0" onmousedown="handlePan(1,0)"/>
  <use id="arrowdown" xlink:href="#arrowDown" x="0" y="0" onmousedown="handlePan(0,1)"/>
  <use id="arrowleft" xlink:href="#arrowLeft" x="0" y="0" onmousedown="handlePan(-1,0)"/>
</g>
<svg viewBox="0 0 15 15" width="100%" height="30px" preserveAspectRatio="xMaxYMin meet">
 <g id="arrow_out" transform="scale(0.3 0.3)">
  <a xlink:href="classGreenFHom3DPer2D_a410f5349268917cf86215e766118032c_cgraph_org.svg" target="_base">
   <rect id="button" ry="5" rx="5" y="6" x="6" height="38" width="38"
        fill="#f2f5e9" fill-opacity="0.5" stroke="#606060" stroke-width="1.0"/>
   <path id="arrow"
     d="M 11.500037,31.436501 C 11.940474,20.09759 22.043105,11.32322 32.158766,21.979434 L 37.068811,17.246167 C 37.068811,17.246167 37.088388,32 37.088388,32 L 22.160133,31.978069 C 22.160133,31.978069 26.997745,27.140456 26.997745,27.140456 C 18.528582,18.264221 13.291696,25.230495 11.500037,31.436501 z"
     style="fill:#404040;"/>
  </a>
 </g>
</svg>

<style type='text/css'>
<![CDATA[
[data-mouse-over-selected='false'] { opacity: 0.7; }
[data-mouse-over-selected='true']  { opacity: 1.0; }
]]>
</style>
<script type="application/ecmascript"><![CDATA[
document.addEventListener('DOMContentLoaded', (event) => {
  highlightEdges();
  highlightAdjacentNodes();
});
]]></script>
</svg>
