<?xml version="1.0" encoding="UTF-8" standalone="no"?>
<!DOCTYPE svg PUBLIC "-//W3C//DTD SVG 1.1//EN"
 "http://www.w3.org/Graphics/SVG/1.1/DTD/svg11.dtd">
<!-- Generated by graphviz version 13.1.2 (20250809.0930)
 -->
<!-- Title: GreenFLayered3D::EvaluateDyadic Pages: 1 -->
<!--zoomable 370 -->

<svg id="main" version="1.1" xmlns="http://www.w3.org/2000/svg" xmlns:xlink="http://www.w3.org/1999/xlink" xml:space="preserve" onload="init(evt)">

<style type="text/css"><![CDATA[
.node, .edge {opacity: 0.7;}
.node.selected, .edge.selected {opacity: 1;}
.edge:hover path { stroke: red; }
.edge:hover polygon { stroke: red; fill: red; }
]]></style>

<defs>
  <circle id="rim" cx="0" cy="0" r="7"/>
  <circle id="rim2" cx="0" cy="0" r="3.5"/>
  <g id="zoomPlus">
    <use xlink:href="#rim" fill="#404040"><set attributeName="fill" to="#808080" begin="zoomplus.mouseover" end="zoomplus.mouseout"/></use>
    <path d="M-4,0h8M0,-4v8" fill="none" stroke="white" stroke-width="1.5" pointer-events="none"/>
  </g>
  <g id="zoomMin">
    <use xlink:href="#rim" fill="#404040"><set attributeName="fill" to="#808080" begin="zoomminus.mouseover" end="zoomminus.mouseout"/></use>
    <path d="M-4,0h8" fill="none" stroke="white" stroke-width="1.5" pointer-events="none"/>
  </g>
  <g id="arrowUp" transform="translate(30 24)">
    <use xlink:href="#rim"/>
    <path pointer-events="none" fill="none" stroke="white" stroke-width="1.5" d="M0,-3.0v7 M-2.5,-0.5L0,-3.0L2.5,-0.5"/>
  </g>
  <g id="arrowRight" transform="rotate(90) translate(36 -43)">
    <use xlink:href="#rim"/>
    <path pointer-events="none" fill="none" stroke="white" stroke-width="1.5" d="M0,-3.0v7 M-2.5,-0.5L0,-3.0L2.5,-0.5"/>
  </g>
  <g id="arrowDown" transform="rotate(180) translate(-30 -48)">
    <use xlink:href="#rim"/>
    <path pointer-events="none" fill="none" stroke="white" stroke-width="1.5" d="M0,-3.0v7 M-2.5,-0.5L0,-3.0L2.5,-0.5"/>
  </g>
  <g id="arrowLeft" transform="rotate(270) translate(-36 17)">
    <use xlink:href="#rim"/>
    <path pointer-events="none" fill="none" stroke="white" stroke-width="1.5" d="M0,-3.0v7 M-2.5,-0.5L0,-3.0L2.5,-0.5"/>
  </g>
  <g id="resetDef">
    <use xlink:href="#rim2" fill="#404040"><set attributeName="fill" to="#808080" begin="reset.mouseover" end="reset.mouseout"/></use>
  </g>
</defs>
<script type="application/ecmascript">
var viewWidth = 661;
var viewHeight = 370;
var sectionId = 'dynsection-16';
</script>
<script type="application/ecmascript" xlink:href="svg.min.js"/>
<svg id="graph" class="graph">
<g id="viewport">
<title>GreenFLayered3D::EvaluateDyadic</title>
<!-- Node1 -->
<g id="Node000001" class="node">
<title>Node1</title>
<g id="a_Node000001"><a xlink:title="Evaluates the secondary terms for dipole incident field in layered background.">
<polygon fill="#999999" stroke="#666666" points="152.5,-191.12 0,-191.12 0,-157.62 152.5,-157.62 152.5,-191.12"/>
<text xml:space="preserve" text-anchor="start" x="8" y="-177.62" font-family="Helvetica,sans-Serif" font-size="10.00">GreenFLayered3D::Evaluate</text>
<text xml:space="preserve" text-anchor="middle" x="76.25" y="-164.88" font-family="Helvetica,sans-Serif" font-size="10.00">Dyadic</text>
</a>
</g>
</g>
<!-- Node2 -->
<g id="Node000002" class="node">
<title>Node2</title>
<g id="a_Node000002"><a xlink:href="group__greenFunction.html#gac0a52dce23be7dacdf97c68653b6c137" target="_top" xlink:title="Complex square root with a branch cut along the negative real axis.">
<polygon fill="white" stroke="#666666" points="288.5,-343.75 248.5,-343.75 248.5,-323 288.5,-323 288.5,-343.75"/>
<text xml:space="preserve" text-anchor="middle" x="268.5" y="-330.25" font-family="Helvetica,sans-Serif" font-size="10.00">csqrt</text>
</a>
</g>
</g>
<!-- Node1&#45;&gt;Node2 -->
<g id="edge1_Node000001_Node000002" class="edge">
<title>Node1&#45;&gt;Node2</title>
<g id="a_edge1_Node000001_Node000002"><a xlink:title=" ">
<path fill="none" stroke="#63b8ff" d="M86.03,-191.46C102.15,-221.06 139.38,-281.76 188.5,-313.38 203,-322.71 221.61,-327.69 237.12,-330.35"/>
<polygon fill="#63b8ff" stroke="#63b8ff" points="236.37,-333.77 246.77,-331.74 237.37,-326.84 236.37,-333.77"/>
</a>
</g>
</g>
<!-- Node4 -->
<g id="Node000004" class="node">
<title>Node4</title>
<g id="a_Node000004"><a xlink:href="GreenFLayered3D_8cpp.html#af70e64942498ae51d2c2f9c57b43560c" target="_top" xlink:title="Creates a dyadic product of two 3D vectors.">
<polygon fill="white" stroke="#666666" points="292.62,-304.75 244.38,-304.75 244.38,-284 292.62,-284 292.62,-304.75"/>
<text xml:space="preserve" text-anchor="middle" x="268.5" y="-291.25" font-family="Helvetica,sans-Serif" font-size="10.00">dyadic</text>
</a>
</g>
</g>
<!-- Node1&#45;&gt;Node4 -->
<g id="edge4_Node000001_Node000004" class="edge">
<title>Node1&#45;&gt;Node4</title>
<g id="a_edge4_Node000001_Node000004"><a xlink:title=" ">
<path fill="none" stroke="#63b8ff" d="M91.16,-191.51C110.55,-214.22 147.92,-253.91 188.5,-275.38 202.18,-282.61 218.63,-287.13 232.98,-289.94"/>
<polygon fill="#63b8ff" stroke="#63b8ff" points="232,-293.32 242.45,-291.58 233.19,-286.42 232,-293.32"/>
</a>
</g>
</g>
<!-- Node5 -->
<g id="Node000005" class="node">
<title>Node5</title>
<g id="a_Node000005"><a xlink:href="classGreenFLayered3D.html#a65ac22e62ec3e3131ffbb10d7bdea307" target="_top" xlink:title="Evaluate quasi&#45;static (QS) contributions for inter&#45;layer interactions.">
<polygon fill="white" stroke="#666666" points="348.5,-266.12 188.5,-266.12 188.5,-232.62 348.5,-232.62 348.5,-266.12"/>
<text xml:space="preserve" text-anchor="start" x="196.5" y="-252.62" font-family="Helvetica,sans-Serif" font-size="10.00">GreenFLayered3D::evalGreen</text>
<text xml:space="preserve" text-anchor="middle" x="268.5" y="-239.88" font-family="Helvetica,sans-Serif" font-size="10.00">QSInter</text>
</a>
</g>
</g>
<!-- Node1&#45;&gt;Node5 -->
<g id="edge5_Node000001_Node000005" class="edge">
<title>Node1&#45;&gt;Node5</title>
<g id="a_edge5_Node000001_Node000005"><a xlink:title=" ">
<path fill="none" stroke="#63b8ff" d="M113.96,-191.62C135.47,-201.45 163.28,-213.7 188.5,-223.38 192.9,-225.06 197.46,-226.74 202.07,-228.39"/>
<polygon fill="#63b8ff" stroke="#63b8ff" points="200.84,-231.67 211.43,-231.66 203.14,-225.06 200.84,-231.67"/>
</a>
</g>
</g>
<!-- Node7 -->
<g id="Node000007" class="node">
<title>Node7</title>
<g id="a_Node000007"><a xlink:href="classGreenFLayered3D.html#a1fb4fa93c84d77750cac364641945725" target="_top" xlink:title="Return layer index of a 3D point.">
<polygon fill="white" stroke="#666666" points="538.5,-214.12 384.5,-214.12 384.5,-180.62 538.5,-180.62 538.5,-214.12"/>
<text xml:space="preserve" text-anchor="start" x="392.5" y="-200.62" font-family="Helvetica,sans-Serif" font-size="10.00">GreenFLayered3D::GetLayer</text>
<text xml:space="preserve" text-anchor="middle" x="461.5" y="-187.88" font-family="Helvetica,sans-Serif" font-size="10.00">Index</text>
</a>
</g>
</g>
<!-- Node1&#45;&gt;Node7 -->
<g id="edge16_Node000001_Node000007" class="edge">
<title>Node1&#45;&gt;Node7</title>
<g id="a_edge16_Node000001_Node000007"><a xlink:title=" ">
<path fill="none" stroke="#63b8ff" d="M152.93,-168.5C207.48,-165.48 282.76,-163.84 348.5,-171.38 361,-172.81 374.14,-175.11 386.84,-177.77"/>
<polygon fill="#63b8ff" stroke="#63b8ff" points="385.86,-181.14 396.38,-179.86 387.36,-174.3 385.86,-181.14"/>
</a>
</g>
</g>
<!-- Node8 -->
<g id="Node000008" class="node">
<title>Node8</title>
<g id="a_Node000008"><a xlink:href="classGreenFLayered3D.html#a7fbd8a47a0074f53111d52920a910392" target="_top" xlink:title="Evaluate quasi&#45;static (QS) contributions for intra&#45;layer interactions.">
<polygon fill="white" stroke="#666666" points="348.5,-214.12 188.5,-214.12 188.5,-180.62 348.5,-180.62 348.5,-214.12"/>
<text xml:space="preserve" text-anchor="start" x="196.5" y="-200.62" font-family="Helvetica,sans-Serif" font-size="10.00">GreenFLayered3D::evalGreen</text>
<text xml:space="preserve" text-anchor="middle" x="268.5" y="-187.88" font-family="Helvetica,sans-Serif" font-size="10.00">QSIntra</text>
</a>
</g>
</g>
<!-- Node1&#45;&gt;Node8 -->
<g id="edge8_Node000001_Node000008" class="edge">
<title>Node1&#45;&gt;Node8</title>
<g id="a_edge8_Node000001_Node000008"><a xlink:title=" ">
<path fill="none" stroke="#63b8ff" d="M152.99,-183.53C160.88,-184.48 168.95,-185.46 176.98,-186.43"/>
<polygon fill="#63b8ff" stroke="#63b8ff" points="176.43,-189.89 186.78,-187.62 177.27,-182.94 176.43,-189.89"/>
</a>
</g>
</g>
<!-- Node9 -->
<g id="Node000009" class="node">
<title>Node9</title>
<g id="a_Node000009"><a xlink:href="classGreenFLayered3D.html#abb50e8621c63f2b29862c32a8447dd9c" target="_top" xlink:title="Evaluate Green&#39;s&#45;function components for inter&#45;layer interactions by interpolating the smooth (Sommer...">
<polygon fill="white" stroke="#666666" points="348.5,-124.12 188.5,-124.12 188.5,-90.62 348.5,-90.62 348.5,-124.12"/>
<text xml:space="preserve" text-anchor="start" x="196.5" y="-110.62" font-family="Helvetica,sans-Serif" font-size="10.00">GreenFLayered3D::evalGreen</text>
<text xml:space="preserve" text-anchor="middle" x="268.5" y="-97.88" font-family="Helvetica,sans-Serif" font-size="10.00">SmoothInter</text>
</a>
</g>
</g>
<!-- Node1&#45;&gt;Node9 -->
<g id="edge11_Node000001_Node000009" class="edge">
<title>Node1&#45;&gt;Node9</title>
<g id="a_edge11_Node000001_Node000009"><a xlink:title=" ">
<path fill="none" stroke="#63b8ff" d="M125.75,-157.29C150.81,-148.47 181.61,-137.62 208.09,-128.3"/>
<polygon fill="#63b8ff" stroke="#63b8ff" points="209.06,-131.67 217.33,-125.04 206.74,-125.06 209.06,-131.67"/>
</a>
</g>
</g>
<!-- Node12 -->
<g id="Node000012" class="node">
<title>Node12</title>
<g id="a_Node000012"><a xlink:href="classGreenFLayered3D.html#a834a94e21f64163f651a4729eccc6699" target="_top" xlink:title="Evaluate Green&#39;s function components for intra&#45;layer interactions by interpolating the smooth (Sommer...">
<polygon fill="white" stroke="#666666" points="348.5,-72.12 188.5,-72.12 188.5,-38.62 348.5,-38.62 348.5,-72.12"/>
<text xml:space="preserve" text-anchor="start" x="196.5" y="-58.62" font-family="Helvetica,sans-Serif" font-size="10.00">GreenFLayered3D::evalGreen</text>
<text xml:space="preserve" text-anchor="middle" x="268.5" y="-45.88" font-family="Helvetica,sans-Serif" font-size="10.00">SmoothIntra</text>
</a>
</g>
</g>
<!-- Node1&#45;&gt;Node12 -->
<g id="edge14_Node000001_Node000012" class="edge">
<title>Node1&#45;&gt;Node12</title>
<g id="a_edge14_Node000001_Node000012"><a xlink:title=" ">
<path fill="none" stroke="#63b8ff" d="M93.45,-157.34C113.87,-136.75 150.87,-102.28 188.5,-81.38 191.19,-79.88 193.98,-78.46 196.83,-77.1"/>
<polygon fill="#63b8ff" stroke="#63b8ff" points="198.23,-80.3 205.99,-73.09 195.42,-73.89 198.23,-80.3"/>
</a>
</g>
</g>
<!-- Node13 -->
<g id="Node000013" class="node">
<title>Node13</title>
<g id="a_Node000013"><a xlink:href="GreenFLayered3D_8cpp.html#ada57d57674c0b17b830f10579db01b30" target="_top" xlink:title="Computes the cross product of a vector with each row or column of a dyad.">
<polygon fill="white" stroke="#666666" points="311.38,-20.75 225.62,-20.75 225.62,0 311.38,0 311.38,-20.75"/>
<text xml:space="preserve" text-anchor="middle" x="268.5" y="-7.25" font-family="Helvetica,sans-Serif" font-size="10.00">vecCrossDyad</text>
</a>
</g>
</g>
<!-- Node1&#45;&gt;Node13 -->
<g id="edge17_Node000001_Node000013" class="edge">
<title>Node1&#45;&gt;Node13</title>
<g id="a_edge17_Node000001_Node000013"><a xlink:title=" ">
<path fill="none" stroke="#63b8ff" d="M85.3,-157.46C100.77,-126.86 137.68,-62.39 188.5,-29.38 196.24,-24.35 205.18,-20.65 214.2,-17.93"/>
<polygon fill="#63b8ff" stroke="#63b8ff" points="214.91,-21.36 223.71,-15.45 213.15,-14.59 214.91,-21.36"/>
</a>
</g>
</g>
<!-- Node3 -->
<g id="Node000003" class="node">
<title>Node3</title>
<g id="a_Node000003"><a xlink:href="Domain_8cpp.html#aafa3e4fa6318b2f8740f4dbd50c367e5" target="_top" xlink:title="Extract the real part of each component of a complex 3&#45;vector.">
<polygon fill="white" stroke="#666666" points="478.88,-343.75 444.12,-343.75 444.12,-323 478.88,-323 478.88,-343.75"/>
<text xml:space="preserve" text-anchor="middle" x="461.5" y="-330.25" font-family="Helvetica,sans-Serif" font-size="10.00">real</text>
</a>
</g>
</g>
<!-- Node2&#45;&gt;Node3 -->
<g id="edge2_Node000002_Node000003" class="edge">
<title>Node2&#45;&gt;Node3</title>
<g id="a_edge2_Node000002_Node000003"><a xlink:title=" ">
<path fill="none" stroke="#63b8ff" d="M288.87,-333.38C322.83,-333.38 393.24,-333.38 432.51,-333.38"/>
<polygon fill="#63b8ff" stroke="#63b8ff" points="432.33,-336.88 442.33,-333.38 432.33,-329.88 432.33,-336.88"/>
</a>
</g>
</g>
<!-- Node3&#45;&gt;Node3 -->
<g id="edge3_Node000003_Node000003" class="edge">
<title>Node3&#45;&gt;Node3</title>
<g id="a_edge3_Node000003_Node000003"><a xlink:title=" ">
<path fill="none" stroke="#63b8ff" d="M443.84,-339.65C424.86,-349.38 430.75,-361.75 461.5,-361.75 485.52,-361.75 494.37,-354.2 488.04,-346.26"/>
<polygon fill="#63b8ff" stroke="#63b8ff" points="490.49,-343.71 480.37,-340.55 486.31,-349.33 490.49,-343.71"/>
</a>
</g>
</g>
<!-- Node6 -->
<g id="Node000006" class="node">
<title>Node6</title>
<g id="a_Node000006"><a xlink:href="classGreenFLayered3D.html#a41c1370112d040a3dc4c44a5853022ed" target="_top" xlink:title="Fresnel reflection/transmission at interface (delegates to utils).">
<polygon fill="white" stroke="#666666" points="534,-266.12 389,-266.12 389,-232.62 534,-232.62 534,-266.12"/>
<text xml:space="preserve" text-anchor="start" x="397" y="-252.62" font-family="Helvetica,sans-Serif" font-size="10.00">GreenFLayered3D::Fresnel</text>
<text xml:space="preserve" text-anchor="middle" x="461.5" y="-239.88" font-family="Helvetica,sans-Serif" font-size="10.00">Coeff</text>
</a>
</g>
</g>
<!-- Node5&#45;&gt;Node6 -->
<g id="edge6_Node000005_Node000006" class="edge">
<title>Node5&#45;&gt;Node6</title>
<g id="a_edge6_Node000005_Node000006"><a xlink:title=" ">
<path fill="none" stroke="#63b8ff" d="M348.84,-249.38C358.24,-249.38 367.86,-249.38 377.31,-249.38"/>
<polygon fill="#63b8ff" stroke="#63b8ff" points="377.22,-252.88 387.22,-249.38 377.22,-245.88 377.22,-252.88"/>
</a>
</g>
</g>
<!-- Node5&#45;&gt;Node7 -->
<g id="edge7_Node000005_Node000007" class="edge">
<title>Node5&#45;&gt;Node7</title>
<g id="a_edge7_Node000005_Node000007"><a xlink:title=" ">
<path fill="none" stroke="#63b8ff" d="M332.83,-232.13C350.01,-227.46 368.76,-222.35 386.47,-217.53"/>
<polygon fill="#63b8ff" stroke="#63b8ff" points="387.15,-220.97 395.88,-214.97 385.31,-214.22 387.15,-220.97"/>
</a>
</g>
</g>
<!-- Node8&#45;&gt;Node6 -->
<g id="edge9_Node000008_Node000006" class="edge">
<title>Node8&#45;&gt;Node6</title>
<g id="a_edge9_Node000008_Node000006"><a xlink:title=" ">
<path fill="none" stroke="#63b8ff" d="M332.83,-214.62C350.01,-219.29 368.76,-224.4 386.47,-229.22"/>
<polygon fill="#63b8ff" stroke="#63b8ff" points="385.31,-232.53 395.88,-231.78 387.15,-225.78 385.31,-232.53"/>
</a>
</g>
</g>
<!-- Node8&#45;&gt;Node7 -->
<g id="edge10_Node000008_Node000007" class="edge">
<title>Node8&#45;&gt;Node7</title>
<g id="a_edge10_Node000008_Node000007"><a xlink:title=" ">
<path fill="none" stroke="#63b8ff" d="M348.84,-197.38C356.78,-197.38 364.88,-197.38 372.9,-197.38"/>
<polygon fill="#63b8ff" stroke="#63b8ff" points="372.65,-200.88 382.65,-197.38 372.65,-193.88 372.65,-200.88"/>
</a>
</g>
</g>
<!-- Node10 -->
<g id="Node000010" class="node">
<title>Node10</title>
<g id="a_Node000010"><a xlink:href="classGreenFLayered3D.html#a6c09f9ac63d604111b76842e774c65c8" target="_top" xlink:title="Evaluate 2D interpolant at one query point.">
<polygon fill="white" stroke="#666666" points="537.75,-98.12 385.25,-98.12 385.25,-64.62 537.75,-64.62 537.75,-98.12"/>
<text xml:space="preserve" text-anchor="start" x="393.25" y="-84.62" font-family="Helvetica,sans-Serif" font-size="10.00">GreenFLayered3D::evaluate</text>
<text xml:space="preserve" text-anchor="middle" x="461.5" y="-71.88" font-family="Helvetica,sans-Serif" font-size="10.00">SinglePoint</text>
</a>
</g>
</g>
<!-- Node9&#45;&gt;Node10 -->
<g id="edge12_Node000009_Node000010" class="edge">
<title>Node9&#45;&gt;Node10</title>
<g id="a_edge12_Node000009_Node000010"><a xlink:title=" ">
<path fill="none" stroke="#63b8ff" d="M348.84,-96.57C357.02,-95.46 365.35,-94.33 373.6,-93.2"/>
<polygon fill="#63b8ff" stroke="#63b8ff" points="373.84,-96.7 383.28,-91.89 372.9,-89.77 373.84,-96.7"/>
</a>
</g>
</g>
<!-- Node11 -->
<g id="Node000011" class="node">
<title>Node11</title>
<g id="a_Node000011"><a xlink:href="GreenFLayered3D_8cpp.html#a8aa29777c4e70a4d7c032b4c6fb0387d" target="_top" xlink:title="External REGRIDPACK routine for evaluating a 2D interpolation function.">
<polygon fill="white" stroke="#666666" points="652.75,-91.75 574.5,-91.75 574.5,-71 652.75,-71 652.75,-91.75"/>
<text xml:space="preserve" text-anchor="middle" x="613.62" y="-78.25" font-family="Helvetica,sans-Serif" font-size="10.00">rgrd2_eval_c</text>
</a>
</g>
</g>
<!-- Node10&#45;&gt;Node11 -->
<g id="edge13_Node000010_Node000011" class="edge">
<title>Node10&#45;&gt;Node11</title>
<g id="a_edge13_Node000010_Node000011"><a xlink:title=" ">
<path fill="none" stroke="#63b8ff" d="M538,-81.38C546.44,-81.38 554.87,-81.38 562.87,-81.38"/>
<polygon fill="#63b8ff" stroke="#63b8ff" points="562.71,-84.88 572.71,-81.38 562.71,-77.88 562.71,-84.88"/>
</a>
</g>
</g>
<!-- Node12&#45;&gt;Node10 -->
<g id="edge15_Node000012_Node000010" class="edge">
<title>Node12&#45;&gt;Node10</title>
<g id="a_edge15_Node000012_Node000010"><a xlink:title=" ">
<path fill="none" stroke="#63b8ff" d="M348.84,-66.18C357.02,-67.29 365.35,-68.42 373.6,-69.55"/>
<polygon fill="#63b8ff" stroke="#63b8ff" points="372.9,-72.98 383.28,-70.86 373.84,-66.05 372.9,-72.98"/>
</a>
</g>
</g>
</g>
</svg>

<g id="navigator" transform="translate(0 0)" fill="#404254">
  <rect fill="#f2f5e9" fill-opacity="0.5" stroke="#606060" stroke-width=".5" x="0" y="0" width="60" height="60"/>
  <use id="zoomplus" xlink:href="#zoomPlus" x="17" y="9" onmousedown="handleZoom(evt,'in')"/>
  <use id="zoomminus" xlink:href="#zoomMin" x="42" y="9" onmousedown="handleZoom(evt,'out')"/>
  <use id="reset" xlink:href="#resetDef" x="30" y="36" onmousedown="handleReset()"/>
   <use id="arrowup" xlink:href="#arrowUp" x="0" y="0" onmousedown="handlePan(0,-1)"/>
  <use id="arrowright" xlink:href="#arrowRight" x="0" y="0" onmousedown="handlePan(1,0)"/>
  <use id="arrowdown" xlink:href="#arrowDown" x="0" y="0" onmousedown="handlePan(0,1)"/>
  <use id="arrowleft" xlink:href="#arrowLeft" x="0" y="0" onmousedown="handlePan(-1,0)"/>
</g>
<svg viewBox="0 0 15 15" width="100%" height="30px" preserveAspectRatio="xMaxYMin meet">
 <g id="arrow_out" transform="scale(0.3 0.3)">
  <a xlink:href="classGreenFLayered3D_aea3c88abd8cb25bd99d64a4eeda84a85_cgraph_org.svg" target="_base">
   <rect id="button" ry="5" rx="5" y="6" x="6" height="38" width="38"
        fill="#f2f5e9" fill-opacity="0.5" stroke="#606060" stroke-width="1.0"/>
   <path id="arrow"
     d="M 11.500037,31.436501 C 11.940474,20.09759 22.043105,11.32322 32.158766,21.979434 L 37.068811,17.246167 C 37.068811,17.246167 37.088388,32 37.088388,32 L 22.160133,31.978069 C 22.160133,31.978069 26.997745,27.140456 26.997745,27.140456 C 18.528582,18.264221 13.291696,25.230495 11.500037,31.436501 z"
     style="fill:#404040;"/>
  </a>
 </g>
</svg>

<style type='text/css'>
<![CDATA[
[data-mouse-over-selected='false'] { opacity: 0.7; }
[data-mouse-over-selected='true']  { opacity: 1.0; }
]]>
</style>
<script type="application/ecmascript"><![CDATA[
document.addEventListener('DOMContentLoaded', (event) => {
  highlightEdges();
  highlightAdjacentNodes();
});
]]></script>
</svg>
