<?xml version="1.0" encoding="UTF-8" standalone="no"?>
<!DOCTYPE svg PUBLIC "-//W3C//DTD SVG 1.1//EN"
 "http://www.w3.org/Graphics/SVG/1.1/DTD/svg11.dtd">
<!-- Generated by graphviz version 13.1.2 (20250809.0930)
 -->
<!-- Title: SommerfeldIntegrator::Secondary Pages: 1 -->
<!--zoomable 64 -->

<svg id="main" version="1.1" xmlns="http://www.w3.org/2000/svg" xmlns:xlink="http://www.w3.org/1999/xlink" xml:space="preserve" onload="init(evt)">

<style type="text/css"><![CDATA[
.node, .edge {opacity: 0.7;}
.node.selected, .edge.selected {opacity: 1;}
.edge:hover path { stroke: red; }
.edge:hover polygon { stroke: red; fill: red; }
]]></style>

<defs>
  <circle id="rim" cx="0" cy="0" r="7"/>
  <circle id="rim2" cx="0" cy="0" r="3.5"/>
  <g id="zoomPlus">
    <use xlink:href="#rim" fill="#404040"><set attributeName="fill" to="#808080" begin="zoomplus.mouseover" end="zoomplus.mouseout"/></use>
    <path d="M-4,0h8M0,-4v8" fill="none" stroke="white" stroke-width="1.5" pointer-events="none"/>
  </g>
  <g id="zoomMin">
    <use xlink:href="#rim" fill="#404040"><set attributeName="fill" to="#808080" begin="zoomminus.mouseover" end="zoomminus.mouseout"/></use>
    <path d="M-4,0h8" fill="none" stroke="white" stroke-width="1.5" pointer-events="none"/>
  </g>
  <g id="arrowUp" transform="translate(30 24)">
    <use xlink:href="#rim"/>
    <path pointer-events="none" fill="none" stroke="white" stroke-width="1.5" d="M0,-3.0v7 M-2.5,-0.5L0,-3.0L2.5,-0.5"/>
  </g>
  <g id="arrowRight" transform="rotate(90) translate(36 -43)">
    <use xlink:href="#rim"/>
    <path pointer-events="none" fill="none" stroke="white" stroke-width="1.5" d="M0,-3.0v7 M-2.5,-0.5L0,-3.0L2.5,-0.5"/>
  </g>
  <g id="arrowDown" transform="rotate(180) translate(-30 -48)">
    <use xlink:href="#rim"/>
    <path pointer-events="none" fill="none" stroke="white" stroke-width="1.5" d="M0,-3.0v7 M-2.5,-0.5L0,-3.0L2.5,-0.5"/>
  </g>
  <g id="arrowLeft" transform="rotate(270) translate(-36 17)">
    <use xlink:href="#rim"/>
    <path pointer-events="none" fill="none" stroke="white" stroke-width="1.5" d="M0,-3.0v7 M-2.5,-0.5L0,-3.0L2.5,-0.5"/>
  </g>
  <g id="resetDef">
    <use xlink:href="#rim2" fill="#404040"><set attributeName="fill" to="#808080" begin="reset.mouseover" end="reset.mouseout"/></use>
  </g>
</defs>
<script type="application/ecmascript">
var viewWidth = 612;
var viewHeight = 64;
var sectionId = 'dynsection-14';
</script>
<script type="application/ecmascript" xlink:href="svg.min.js"/>
<svg id="graph" class="graph">
<g id="viewport">
<title>SommerfeldIntegrator::Secondary</title>
<!-- Node1 -->
<g id="Node000001" class="node">
<title>Node1</title>
<g id="a_Node000001"><a xlink:title="Computes secondary wave contributions in a layered medium.">
<polygon fill="#999999" stroke="#666666" points="604,-55.5 480,-55.5 480,-22 604,-22 604,-55.5"/>
<text xml:space="preserve" text-anchor="start" x="488" y="-42" font-family="Helvetica,sans-Serif" font-size="10.00">SommerfeldIntegrator</text>
<text xml:space="preserve" text-anchor="middle" x="542" y="-29.25" font-family="Helvetica,sans-Serif" font-size="10.00">::Secondary</text>
</a>
</g>
</g>
<!-- Node2 -->
<g id="Node000002" class="node">
<title>Node2</title>
<g id="a_Node000002"><a xlink:href="classSommerfeldIntegrator.html#a9467786ef80af13f1b6f4317fb6ae80a" target="_top" xlink:title="Computes the inter&#45;layer Green&#39;s function integrand.">
<polygon fill="white" stroke="#666666" points="444,-55.5 320,-55.5 320,-22 444,-22 444,-55.5"/>
<text xml:space="preserve" text-anchor="start" x="328" y="-42" font-family="Helvetica,sans-Serif" font-size="10.00">SommerfeldIntegrator</text>
<text xml:space="preserve" text-anchor="middle" x="382" y="-29.25" font-family="Helvetica,sans-Serif" font-size="10.00">::InterIntegrand</text>
</a>
</g>
</g>
<!-- Node1&#45;&gt;Node2 -->
<g id="edge1_Node000001_Node000002" class="edge">
<title>Node1&#45;&gt;Node2</title>
<g id="a_edge1_Node000001_Node000002"><a xlink:title=" ">
<path fill="none" stroke="#63b8ff" d="M468.6,-38.75C460.53,-38.75 452.36,-38.75 444.45,-38.75"/>
<polygon fill="#63b8ff" stroke="#63b8ff" points="468.4,-42.25 478.4,-38.75 468.4,-35.25 468.4,-42.25"/>
</a>
</g>
</g>
<!-- Node3 -->
<g id="Node000003" class="node">
<title>Node3</title>
<g id="a_Node000003"><a xlink:href="classSommerfeldIntegrator.html#a2537d36d62ecdecc297e19c8127f827a" target="_top" xlink:title="Computes inter&#45;layer coefficients for Green&#39;s function interpolation.">
<polygon fill="white" stroke="#666666" points="124,-55.5 0,-55.5 0,-22 124,-22 124,-55.5"/>
<text xml:space="preserve" text-anchor="start" x="8" y="-42" font-family="Helvetica,sans-Serif" font-size="10.00">SommerfeldIntegrator</text>
<text xml:space="preserve" text-anchor="middle" x="62" y="-29.25" font-family="Helvetica,sans-Serif" font-size="10.00">::Evaluate</text>
</a>
</g>
</g>
<!-- Node2&#45;&gt;Node3 -->
<g id="edge2_Node000002_Node000003" class="edge">
<title>Node2&#45;&gt;Node3</title>
<g id="a_edge2_Node000002_Node000003"><a xlink:title=" ">
<path fill="none" stroke="#63b8ff" d="M308.21,-42.08C300.05,-42.35 291.85,-42.59 284,-42.75 228.9,-43.89 215.1,-43.89 160,-42.75 148.46,-42.51 136.15,-42.12 124.31,-41.66"/>
<polygon fill="#63b8ff" stroke="#63b8ff" points="308.32,-45.58 318.18,-41.72 308.06,-38.58 308.32,-45.58"/>
</a>
</g>
</g>
<!-- Node4 -->
<g id="Node000004" class="node">
<title>Node4</title>
<g id="a_Node000004"><a xlink:href="classSommerfeldIntegrator.html#a5479217de11e54b823a970c39580fa64" target="_top" xlink:title="Computes the inter&#45;layer integration function.">
<polygon fill="white" stroke="#666666" points="284,-33.5 160,-33.5 160,0 284,0 284,-33.5"/>
<text xml:space="preserve" text-anchor="start" x="168" y="-20" font-family="Helvetica,sans-Serif" font-size="10.00">SommerfeldIntegrator</text>
<text xml:space="preserve" text-anchor="middle" x="222" y="-7.25" font-family="Helvetica,sans-Serif" font-size="10.00">::integrationFInter</text>
</a>
</g>
</g>
<!-- Node2&#45;&gt;Node4 -->
<g id="edge3_Node000002_Node000004" class="edge">
<title>Node2&#45;&gt;Node4</title>
<g id="a_edge3_Node000002_Node000004"><a xlink:title=" ">
<path fill="none" stroke="#63b8ff" d="M308.6,-28.67C300.53,-27.54 292.36,-26.41 284.45,-25.31"/>
<polygon fill="#63b8ff" stroke="#63b8ff" points="308.03,-32.12 318.41,-30.04 308.99,-25.19 308.03,-32.12"/>
</a>
</g>
</g>
<!-- Node4&#45;&gt;Node3 -->
<g id="edge4_Node000004_Node000003" class="edge">
<title>Node4&#45;&gt;Node3</title>
<g id="a_edge4_Node000004_Node000003"><a xlink:title=" ">
<path fill="none" stroke="#63b8ff" d="M148.6,-26.83C140.53,-27.96 132.36,-29.09 124.45,-30.19"/>
<polygon fill="#63b8ff" stroke="#63b8ff" points="148.99,-30.31 158.41,-25.46 148.03,-23.38 148.99,-30.31"/>
</a>
</g>
</g>
</g>
</svg>

<g id="navigator" transform="translate(0 0)" fill="#404254">
  <rect fill="#f2f5e9" fill-opacity="0.5" stroke="#606060" stroke-width=".5" x="0" y="0" width="60" height="60"/>
  <use id="zoomplus" xlink:href="#zoomPlus" x="17" y="9" onmousedown="handleZoom(evt,'in')"/>
  <use id="zoomminus" xlink:href="#zoomMin" x="42" y="9" onmousedown="handleZoom(evt,'out')"/>
  <use id="reset" xlink:href="#resetDef" x="30" y="36" onmousedown="handleReset()"/>
   <use id="arrowup" xlink:href="#arrowUp" x="0" y="0" onmousedown="handlePan(0,-1)"/>
  <use id="arrowright" xlink:href="#arrowRight" x="0" y="0" onmousedown="handlePan(1,0)"/>
  <use id="arrowdown" xlink:href="#arrowDown" x="0" y="0" onmousedown="handlePan(0,1)"/>
  <use id="arrowleft" xlink:href="#arrowLeft" x="0" y="0" onmousedown="handlePan(-1,0)"/>
</g>
<svg viewBox="0 0 15 15" width="100%" height="30px" preserveAspectRatio="xMaxYMin meet">
 <g id="arrow_out" transform="scale(0.3 0.3)">
  <a xlink:href="classSommerfeldIntegrator_a81c32ffee2aefc0eecbbbd7235c80e70_icgraph_org.svg" target="_base">
   <rect id="button" ry="5" rx="5" y="6" x="6" height="38" width="38"
        fill="#f2f5e9" fill-opacity="0.5" stroke="#606060" stroke-width="1.0"/>
   <path id="arrow"
     d="M 11.500037,31.436501 C 11.940474,20.09759 22.043105,11.32322 32.158766,21.979434 L 37.068811,17.246167 C 37.068811,17.246167 37.088388,32 37.088388,32 L 22.160133,31.978069 C 22.160133,31.978069 26.997745,27.140456 26.997745,27.140456 C 18.528582,18.264221 13.291696,25.230495 11.500037,31.436501 z"
     style="fill:#404040;"/>
  </a>
 </g>
</svg>

<style type='text/css'>
<![CDATA[
[data-mouse-over-selected='false'] { opacity: 0.7; }
[data-mouse-over-selected='true']  { opacity: 1.0; }
]]>
</style>
<script type="application/ecmascript"><![CDATA[
document.addEventListener('DOMContentLoaded', (event) => {
  highlightEdges();
  highlightAdjacentNodes();
});
]]></script>
</svg>
