<?xml version="1.0" encoding="UTF-8" standalone="no"?>
<!DOCTYPE svg PUBLIC "-//W3C//DTD SVG 1.1//EN"
 "http://www.w3.org/Graphics/SVG/1.1/DTD/svg11.dtd">
<!-- Generated by graphviz version 13.1.2 (20250809.0930)
 -->
<!-- Title: GreenFHom3D::SameTriDK Pages: 1 -->
<!--zoomable 885 -->

<svg id="main" version="1.1" xmlns="http://www.w3.org/2000/svg" xmlns:xlink="http://www.w3.org/1999/xlink" xml:space="preserve" onload="init(evt)">

<style type="text/css"><![CDATA[
.node, .edge {opacity: 0.7;}
.node.selected, .edge.selected {opacity: 1;}
.edge:hover path { stroke: red; }
.edge:hover polygon { stroke: red; fill: red; }
]]></style>

<defs>
  <circle id="rim" cx="0" cy="0" r="7"/>
  <circle id="rim2" cx="0" cy="0" r="3.5"/>
  <g id="zoomPlus">
    <use xlink:href="#rim" fill="#404040"><set attributeName="fill" to="#808080" begin="zoomplus.mouseover" end="zoomplus.mouseout"/></use>
    <path d="M-4,0h8M0,-4v8" fill="none" stroke="white" stroke-width="1.5" pointer-events="none"/>
  </g>
  <g id="zoomMin">
    <use xlink:href="#rim" fill="#404040"><set attributeName="fill" to="#808080" begin="zoomminus.mouseover" end="zoomminus.mouseout"/></use>
    <path d="M-4,0h8" fill="none" stroke="white" stroke-width="1.5" pointer-events="none"/>
  </g>
  <g id="arrowUp" transform="translate(30 24)">
    <use xlink:href="#rim"/>
    <path pointer-events="none" fill="none" stroke="white" stroke-width="1.5" d="M0,-3.0v7 M-2.5,-0.5L0,-3.0L2.5,-0.5"/>
  </g>
  <g id="arrowRight" transform="rotate(90) translate(36 -43)">
    <use xlink:href="#rim"/>
    <path pointer-events="none" fill="none" stroke="white" stroke-width="1.5" d="M0,-3.0v7 M-2.5,-0.5L0,-3.0L2.5,-0.5"/>
  </g>
  <g id="arrowDown" transform="rotate(180) translate(-30 -48)">
    <use xlink:href="#rim"/>
    <path pointer-events="none" fill="none" stroke="white" stroke-width="1.5" d="M0,-3.0v7 M-2.5,-0.5L0,-3.0L2.5,-0.5"/>
  </g>
  <g id="arrowLeft" transform="rotate(270) translate(-36 17)">
    <use xlink:href="#rim"/>
    <path pointer-events="none" fill="none" stroke="white" stroke-width="1.5" d="M0,-3.0v7 M-2.5,-0.5L0,-3.0L2.5,-0.5"/>
  </g>
  <g id="resetDef">
    <use xlink:href="#rim2" fill="#404040"><set attributeName="fill" to="#808080" begin="reset.mouseover" end="reset.mouseout"/></use>
  </g>
</defs>
<script type="application/ecmascript">
var viewWidth = 848;
var viewHeight = 885;
var sectionId = 'dynsection-20';
</script>
<script type="application/ecmascript" xlink:href="svg.min.js"/>
<svg id="graph" class="graph">
<g id="viewport">
<title>GreenFHom3D::SameTriDK</title>
<!-- Node1 -->
<g id="Node000001" class="node">
<title>Node1</title>
<g id="a_Node000001"><a xlink:title="Compute &#160;and &#160;for all RWG pairs on two triangles.">
<polygon fill="#999999" stroke="#666666" points="147.25,-449.75 0,-449.75 0,-429 147.25,-429 147.25,-449.75"/>
<text xml:space="preserve" text-anchor="middle" x="73.62" y="-436.25" font-family="Helvetica,sans-Serif" font-size="10.00">GreenFHom3D::SameTriDK</text>
</a>
</g>
</g>
<!-- Node2 -->
<g id="Node000002" class="node">
<title>Node2</title>
<g id="a_Node000002"><a xlink:href="classGreenFHom3D.html#a139d04e746cd17d5b738a972dc5128ad" target="_top" xlink:title="Heuristic test based on .">
<polygon fill="white" stroke="#666666" points="362.38,-876.75 189.62,-876.75 189.62,-856 362.38,-856 362.38,-876.75"/>
<text xml:space="preserve" text-anchor="middle" x="276" y="-863.25" font-family="Helvetica,sans-Serif" font-size="10.00">GreenFHom3D::AboveThreshold</text>
</a>
</g>
</g>
<!-- Node1&#45;&gt;Node2 -->
<g id="edge1_Node000001_Node000002" class="edge">
<title>Node1&#45;&gt;Node2</title>
<g id="a_edge1_Node000001_Node000002"><a xlink:title=" ">
<path fill="none" stroke="#63b8ff" d="M75.97,-450.07C83.55,-508.5 122.69,-788.55 183.25,-846.38 184.31,-847.39 185.41,-848.36 186.55,-849.28"/>
<polygon fill="#63b8ff" stroke="#63b8ff" points="184.34,-852.01 194.6,-854.67 188.24,-846.2 184.34,-852.01"/>
</a>
</g>
</g>
<!-- Node3 -->
<g id="Node000003" class="node">
<title>Node3</title>
<g id="a_Node000003"><a xlink:href="classTriangle.html#a1d3d08deeb999f339d2e821a877521ba" target="_top" xlink:title="Surface area of the triangle.">
<polygon fill="white" stroke="#666666" points="317.38,-837.75 234.62,-837.75 234.62,-817 317.38,-817 317.38,-837.75"/>
<text xml:space="preserve" text-anchor="middle" x="276" y="-824.25" font-family="Helvetica,sans-Serif" font-size="10.00">Triangle::Area</text>
</a>
</g>
</g>
<!-- Node1&#45;&gt;Node3 -->
<g id="edge2_Node000001_Node000003" class="edge">
<title>Node1&#45;&gt;Node3</title>
<g id="a_edge2_Node000001_Node000003"><a xlink:title=" ">
<path fill="none" stroke="#63b8ff" d="M74.18,-450.09C72.76,-499.3 73.75,-705.52 183.25,-807.38 193.99,-817.36 208.51,-822.8 222.83,-825.65"/>
<polygon fill="#63b8ff" stroke="#63b8ff" points="222.27,-829.11 232.69,-827.19 223.35,-822.19 222.27,-829.11"/>
</a>
</g>
</g>
<!-- Node4 -->
<g id="Node000004" class="node">
<title>Node4</title>
<g id="a_Node000004"><a xlink:href="classTriangle.html#ab78508a340ec5d345adf114b43563dbf" target="_top" xlink:title="Centroid of the triangle.">
<polygon fill="white" stroke="#666666" points="322.25,-798.75 229.75,-798.75 229.75,-778 322.25,-778 322.25,-798.75"/>
<text xml:space="preserve" text-anchor="middle" x="276" y="-785.25" font-family="Helvetica,sans-Serif" font-size="10.00">Triangle::Center</text>
</a>
</g>
</g>
<!-- Node1&#45;&gt;Node4 -->
<g id="edge3_Node000001_Node000004" class="edge">
<title>Node1&#45;&gt;Node4</title>
<g id="a_edge3_Node000001_Node000004"><a xlink:title=" ">
<path fill="none" stroke="#63b8ff" d="M74.61,-450.2C75.17,-496.4 83.81,-678.8 183.25,-768.38 192.99,-777.15 205.67,-782.39 218.48,-785.44"/>
<polygon fill="#63b8ff" stroke="#63b8ff" points="217.73,-788.86 228.21,-787.31 219.05,-781.99 217.73,-788.86"/>
</a>
</g>
</g>
<!-- Node5 -->
<g id="Node000005" class="node">
<title>Node5</title>
<g id="a_Node000005"><a xlink:href="classSingSub.html#a9d74100325023b4d1c156bd97ae240b3" target="_top" xlink:title="Update only the RWG/triangle; keep the same observation point r.">
<polygon fill="white" stroke="#666666" points="356,-759.75 196,-759.75 196,-739 356,-739 356,-759.75"/>
<text xml:space="preserve" text-anchor="middle" x="276" y="-746.25" font-family="Helvetica,sans-Serif" font-size="10.00">SingSub::ChangeTriangleRWG</text>
</a>
</g>
</g>
<!-- Node1&#45;&gt;Node5 -->
<g id="edge4_Node000001_Node000005" class="edge">
<title>Node1&#45;&gt;Node5</title>
<g id="a_edge4_Node000001_Node000005"><a xlink:title=" ">
<path fill="none" stroke="#63b8ff" d="M75.14,-450.08C77.8,-492.71 93.62,-651.79 183.25,-729.38 184.56,-730.51 185.92,-731.58 187.32,-732.6"/>
<polygon fill="#63b8ff" stroke="#63b8ff" points="185.46,-735.57 195.83,-737.74 189.08,-729.58 185.46,-735.57"/>
</a>
</g>
</g>
<!-- Node6 -->
<g id="Node000006" class="node">
<title>Node6</title>
<g id="a_Node000006"><a xlink:href="classGreenFHom3D.html#a049e83f08bff1b6c003a35f478973609" target="_top" xlink:title="Scalar Green&#39;s function .">
<polygon fill="white" stroke="#666666" points="344.38,-720.75 207.62,-720.75 207.62,-700 344.38,-700 344.38,-720.75"/>
<text xml:space="preserve" text-anchor="middle" x="276" y="-707.25" font-family="Helvetica,sans-Serif" font-size="10.00">GreenFHom3D::Evaluate</text>
</a>
</g>
</g>
<!-- Node1&#45;&gt;Node6 -->
<g id="edge5_Node000001_Node000006" class="edge">
<title>Node1&#45;&gt;Node6</title>
<g id="a_edge5_Node000001_Node000006"><a xlink:title=" ">
<path fill="none" stroke="#63b8ff" d="M75.85,-450.25C80.85,-489.46 103.5,-624.76 183.25,-690.38 187.44,-693.82 192.08,-696.71 197,-699.12"/>
<polygon fill="#63b8ff" stroke="#63b8ff" points="195.43,-702.26 206.01,-702.87 198.12,-695.8 195.43,-702.26"/>
</a>
</g>
</g>
<!-- Node7 -->
<g id="Node000007" class="node">
<title>Node7</title>
<g id="a_Node000007"><a xlink:href="classRWGFun.html#a7540ce2f84c6b42a29c2808504c47d42" target="_top" xlink:title="Evaluate the RWG vector shape function at a point on the triangle.">
<polygon fill="white" stroke="#666666" points="329,-681.75 223,-681.75 223,-661 329,-661 329,-681.75"/>
<text xml:space="preserve" text-anchor="middle" x="276" y="-668.25" font-family="Helvetica,sans-Serif" font-size="10.00">RWGFun::Evaluate</text>
</a>
</g>
</g>
<!-- Node1&#45;&gt;Node7 -->
<g id="edge6_Node000001_Node000007" class="edge">
<title>Node1&#45;&gt;Node7</title>
<g id="a_edge6_Node000001_Node000007"><a xlink:title=" ">
<path fill="none" stroke="#63b8ff" d="M76.67,-449.77C84.06,-484.47 112.79,-597.14 183.25,-651.38 191.5,-657.73 201.35,-662.16 211.49,-665.22"/>
<polygon fill="#63b8ff" stroke="#63b8ff" points="210.51,-668.59 221.07,-667.67 212.24,-661.8 210.51,-668.59"/>
</a>
</g>
</g>
<!-- Node8 -->
<g id="Node000008" class="node">
<title>Node8</title>
<g id="a_Node000008"><a xlink:href="classTriangle.html#a6a5a3532e273e1fbb69b26eea2f509c0" target="_top" xlink:title="Count common nodes with triangle T (0..3).">
<polygon fill="white" stroke="#666666" points="341.38,-642.75 210.62,-642.75 210.62,-622 341.38,-622 341.38,-642.75"/>
<text xml:space="preserve" text-anchor="middle" x="276" y="-629.25" font-family="Helvetica,sans-Serif" font-size="10.00">Triangle::FindAdjacency</text>
</a>
</g>
</g>
<!-- Node1&#45;&gt;Node8 -->
<g id="edge7_Node000001_Node000008" class="edge">
<title>Node1&#45;&gt;Node8</title>
<g id="a_edge7_Node000001_Node000008"><a xlink:title=" ">
<path fill="none" stroke="#63b8ff" d="M78.3,-450.04C89.19,-480.01 124.25,-565.57 183.25,-608.38 188.46,-612.15 194.21,-615.34 200.23,-618.02"/>
<polygon fill="#63b8ff" stroke="#63b8ff" points="198.55,-621.12 209.14,-621.53 201.11,-614.61 198.55,-621.12"/>
</a>
</g>
</g>
<!-- Node12 -->
<g id="Node000012" class="node">
<title>Node12</title>
<g id="a_Node000012"><a xlink:href="classTriangle.html#a0752d2c9488c7c44b851b8f75abcaa79" target="_top" xlink:title="Node position (by value) for local index 0..2.">
<polygon fill="white" stroke="#666666" points="839.75,-623.75 754,-623.75 754,-603 839.75,-603 839.75,-623.75"/>
<text xml:space="preserve" text-anchor="middle" x="796.88" y="-610.25" font-family="Helvetica,sans-Serif" font-size="10.00">Triangle::Node</text>
</a>
</g>
</g>
<!-- Node1&#45;&gt;Node12 -->
<g id="edge29_Node000001_Node000012" class="edge">
<title>Node1&#45;&gt;Node12</title>
<g id="a_edge29_Node000001_Node000012"><a xlink:title=" ">
<path fill="none" stroke="#63b8ff" d="M79.3,-450.02C91.69,-476.78 128.29,-546.8 183.25,-575.38 232.16,-600.8 602.29,-609.95 742.38,-612.52"/>
<polygon fill="#63b8ff" stroke="#63b8ff" points="742.06,-616.02 752.12,-612.7 742.18,-609.02 742.06,-616.02"/>
</a>
</g>
</g>
<!-- Node13 -->
<g id="Node000013" class="node">
<title>Node13</title>
<g id="a_Node000013"><a xlink:href="classRWGFun.html#a44b3739f9b872e917c6101928a2888a3" target="_top" xlink:title="Get the free vertex position (by value).">
<polygon fill="white" stroke="#666666" points="333.88,-566.75 218.12,-566.75 218.12,-546 333.88,-546 333.88,-566.75"/>
<text xml:space="preserve" text-anchor="middle" x="276" y="-553.25" font-family="Helvetica,sans-Serif" font-size="10.00">RWGFun::FreeVertex</text>
</a>
</g>
</g>
<!-- Node1&#45;&gt;Node13 -->
<g id="edge12_Node000001_Node000013" class="edge">
<title>Node1&#45;&gt;Node13</title>
<g id="a_edge12_Node000001_Node000013"><a xlink:title=" ">
<path fill="none" stroke="#63b8ff" d="M83.23,-450.08C100.12,-470.33 139.78,-514.2 183.25,-536.38 190.54,-540.09 198.5,-543.12 206.58,-545.59"/>
<polygon fill="#63b8ff" stroke="#63b8ff" points="205.6,-548.95 216.17,-548.22 207.45,-542.2 205.6,-548.95"/>
</a>
</g>
</g>
<!-- Node14 -->
<g id="Node000014" class="node">
<title>Node14</title>
<g id="a_Node000014"><a xlink:href="classRWGFun.html#a4b60d75c2f221271c3915f20374c580f" target="_top" xlink:title="Get the pointer to the free vertex.">
<polygon fill="white" stroke="#666666" points="340.62,-527.75 211.38,-527.75 211.38,-507 340.62,-507 340.62,-527.75"/>
<text xml:space="preserve" text-anchor="middle" x="276" y="-514.25" font-family="Helvetica,sans-Serif" font-size="10.00">RWGFun::FreeVertexPtr</text>
</a>
</g>
</g>
<!-- Node1&#45;&gt;Node14 -->
<g id="edge13_Node000001_Node000014" class="edge">
<title>Node1&#45;&gt;Node14</title>
<g id="a_edge13_Node000001_Node000014"><a xlink:title=" ">
<path fill="none" stroke="#63b8ff" d="M91.25,-450.14C112,-463.11 148.94,-484.75 183.25,-497.38 189.68,-499.74 196.46,-501.87 203.32,-503.77"/>
<polygon fill="#63b8ff" stroke="#63b8ff" points="202.09,-507.06 212.65,-506.2 203.85,-500.29 202.09,-507.06"/>
</a>
</g>
</g>
<!-- Node15 -->
<g id="Node000015" class="node">
<title>Node15</title>
<g id="a_Node000015"><a xlink:href="classTriangle.html#aa83f57574ddbd7514530a554eb96bc0e" target="_top" xlink:title="Return cached I1.">
<polygon fill="white" stroke="#666666" points="318.5,-488.75 233.5,-488.75 233.5,-468 318.5,-468 318.5,-488.75"/>
<text xml:space="preserve" text-anchor="middle" x="276" y="-475.25" font-family="Helvetica,sans-Serif" font-size="10.00">Triangle::getI1</text>
</a>
</g>
</g>
<!-- Node1&#45;&gt;Node15 -->
<g id="edge14_Node000001_Node000015" class="edge">
<title>Node1&#45;&gt;Node15</title>
<g id="a_edge14_Node000001_Node000015"><a xlink:title=" ">
<path fill="none" stroke="#63b8ff" d="M130.44,-450.24C159.04,-455.81 193.68,-462.55 221.89,-468.04"/>
<polygon fill="#63b8ff" stroke="#63b8ff" points="221.18,-471.46 231.66,-469.94 222.51,-464.59 221.18,-471.46"/>
</a>
</g>
</g>
<!-- Node16 -->
<g id="Node000016" class="node">
<title>Node16</title>
<g id="a_Node000016"><a xlink:href="classTriangle.html#a02693a813e9e7b1225be9f19e465d01e" target="_top" xlink:title="Return cached I2 (single&#45;vertex) for node pointer r.">
<polygon fill="white" stroke="#666666" points="318.5,-449.75 233.5,-449.75 233.5,-429 318.5,-429 318.5,-449.75"/>
<text xml:space="preserve" text-anchor="middle" x="276" y="-436.25" font-family="Helvetica,sans-Serif" font-size="10.00">Triangle::getI2</text>
</a>
</g>
</g>
<!-- Node1&#45;&gt;Node16 -->
<g id="edge15_Node000001_Node000016" class="edge">
<title>Node1&#45;&gt;Node16</title>
<g id="a_edge15_Node000001_Node000016"><a xlink:title=" ">
<path fill="none" stroke="#63b8ff" d="M147.53,-439.38C172.02,-439.38 198.86,-439.38 221.57,-439.38"/>
<polygon fill="#63b8ff" stroke="#63b8ff" points="221.53,-442.88 231.53,-439.38 221.53,-435.88 221.53,-442.88"/>
</a>
</g>
</g>
<!-- Node17 -->
<g id="Node000017" class="node">
<title>Node17</title>
<g id="a_Node000017"><a xlink:href="classGreenFHom3D.html#a30fa3b981731ca85587da62ed511f547" target="_top" xlink:title="Gradient w.r.t.">
<polygon fill="white" stroke="#666666" points="344,-410.75 208,-410.75 208,-390 344,-390 344,-410.75"/>
<text xml:space="preserve" text-anchor="middle" x="276" y="-397.25" font-family="Helvetica,sans-Serif" font-size="10.00">GreenFHom3D::Gradient</text>
</a>
</g>
</g>
<!-- Node1&#45;&gt;Node17 -->
<g id="edge16_Node000001_Node000017" class="edge">
<title>Node1&#45;&gt;Node17</title>
<g id="a_edge16_Node000001_Node000017"><a xlink:title=" ">
<path fill="none" stroke="#63b8ff" d="M130.44,-428.51C154.55,-423.82 182.95,-418.29 208.17,-413.38"/>
<polygon fill="#63b8ff" stroke="#63b8ff" points="208.5,-416.88 217.65,-411.54 207.17,-410.01 208.5,-416.88"/>
</a>
</g>
</g>
<!-- Node18 -->
<g id="Node000018" class="node">
<title>Node18</title>
<g id="a_Node000018"><a xlink:href="classGreenFHom3D.html#a39ccf7f27bff59110fb0d667bb74146f" target="_top" xlink:title="Smoothed gradient kernel.">
<polygon fill="white" stroke="#666666" points="368.75,-371.75 183.25,-371.75 183.25,-351 368.75,-351 368.75,-371.75"/>
<text xml:space="preserve" text-anchor="middle" x="276" y="-358.25" font-family="Helvetica,sans-Serif" font-size="10.00">GreenFHom3D::GradientSmoothed</text>
</a>
</g>
</g>
<!-- Node1&#45;&gt;Node18 -->
<g id="edge17_Node000001_Node000018" class="edge">
<title>Node1&#45;&gt;Node18</title>
<g id="a_edge17_Node000001_Node000018"><a xlink:title=" ">
<path fill="none" stroke="#63b8ff" d="M91.25,-428.61C112,-415.64 148.94,-394 183.25,-381.38 189.68,-379.01 196.46,-376.88 203.32,-374.98"/>
<polygon fill="#63b8ff" stroke="#63b8ff" points="203.85,-378.46 212.65,-372.55 202.09,-371.69 203.85,-378.46"/>
</a>
</g>
</g>
<!-- Node19 -->
<g id="Node000019" class="node">
<title>Node19</title>
<g id="a_Node000019"><a xlink:href="classGreenFHom3D.html#ac928f16e6e79c75c002d9a721a8858d8" target="_top" xlink:title="Default constructor (initializes with zeroed wavenumber and no lookup table).">
<polygon fill="white" stroke="#666666" points="359,-332.75 193,-332.75 193,-312 359,-312 359,-332.75"/>
<text xml:space="preserve" text-anchor="middle" x="276" y="-319.25" font-family="Helvetica,sans-Serif" font-size="10.00">GreenFHom3D::GreenFHom3D</text>
</a>
</g>
</g>
<!-- Node1&#45;&gt;Node19 -->
<g id="edge18_Node000001_Node000019" class="edge">
<title>Node1&#45;&gt;Node19</title>
<g id="a_edge18_Node000001_Node000019"><a xlink:title=" ">
<path fill="none" stroke="#63b8ff" d="M83.23,-428.67C100.12,-408.42 139.78,-364.55 183.25,-342.38 187.22,-340.35 191.39,-338.53 195.67,-336.89"/>
<polygon fill="#63b8ff" stroke="#63b8ff" points="196.73,-340.23 205.06,-333.68 194.46,-333.61 196.73,-340.23"/>
</a>
</g>
</g>
<!-- Node23 -->
<g id="Node000023" class="node">
<title>Node23</title>
<g id="a_Node000023"><a xlink:href="classGreenFHom3D.html#a701791540c59726195148449d4adda07" target="_top" xlink:title="Half&#45;smoothed scalar kernel for coincident triangles.">
<polygon fill="white" stroke="#666666" points="357.12,-293.75 194.88,-293.75 194.88,-273 357.12,-273 357.12,-293.75"/>
<text xml:space="preserve" text-anchor="middle" x="276" y="-280.25" font-family="Helvetica,sans-Serif" font-size="10.00">GreenFHom3D::halfSmoothed</text>
</a>
</g>
</g>
<!-- Node1&#45;&gt;Node23 -->
<g id="edge23_Node000001_Node000023" class="edge">
<title>Node1&#45;&gt;Node23</title>
<g id="a_edge23_Node000001_Node000023"><a xlink:title=" ">
<path fill="none" stroke="#63b8ff" d="M79.77,-428.85C93,-402.95 130.88,-335.9 183.25,-303.38 186.04,-301.64 188.96,-300.06 191.97,-298.61"/>
<polygon fill="#63b8ff" stroke="#63b8ff" points="193.25,-301.87 201.12,-294.78 190.54,-295.41 193.25,-301.87"/>
</a>
</g>
</g>
<!-- Node24 -->
<g id="Node000024" class="node">
<title>Node24</title>
<g id="a_Node000024"><a xlink:href="classSingSub.html#ac65ad1ad2d03f9de274b24d19f457f6e" target="_top" xlink:title="K1(q) scalar term.">
<polygon fill="white" stroke="#666666" points="312.88,-254.75 239.12,-254.75 239.12,-234 312.88,-234 312.88,-254.75"/>
<text xml:space="preserve" text-anchor="middle" x="276" y="-241.25" font-family="Helvetica,sans-Serif" font-size="10.00">SingSub::K1</text>
</a>
</g>
</g>
<!-- Node1&#45;&gt;Node24 -->
<g id="edge24_Node000001_Node000024" class="edge">
<title>Node1&#45;&gt;Node24</title>
<g id="a_edge24_Node000001_Node000024"><a xlink:title=" ">
<path fill="none" stroke="#63b8ff" d="M77.95,-428.65C88.11,-397.7 121.91,-307.7 183.25,-264.38 196.09,-255.31 212.27,-250.23 227.46,-247.43"/>
<polygon fill="#63b8ff" stroke="#63b8ff" points="227.95,-250.89 237.31,-245.93 226.9,-243.97 227.95,-250.89"/>
</a>
</g>
</g>
<!-- Node25 -->
<g id="Node000025" class="node">
<title>Node25</title>
<g id="a_Node000025"><a xlink:href="classSingSub.html#aed0bb257cd3c94dccd5b6cc0ecdd1c5e" target="_top" xlink:title="K2(q) vector term.">
<polygon fill="white" stroke="#666666" points="312.88,-215.75 239.12,-215.75 239.12,-195 312.88,-195 312.88,-215.75"/>
<text xml:space="preserve" text-anchor="middle" x="276" y="-202.25" font-family="Helvetica,sans-Serif" font-size="10.00">SingSub::K2</text>
</a>
</g>
</g>
<!-- Node1&#45;&gt;Node25 -->
<g id="edge25_Node000001_Node000025" class="edge">
<title>Node1&#45;&gt;Node25</title>
<g id="a_edge25_Node000001_Node000025"><a xlink:title=" ">
<path fill="none" stroke="#63b8ff" d="M76.64,-428.88C83.93,-393.86 112.37,-280.15 183.25,-225.38 195.91,-215.59 212.36,-210.37 227.82,-207.65"/>
<polygon fill="#63b8ff" stroke="#63b8ff" points="227.93,-211.17 237.34,-206.29 226.95,-204.24 227.93,-211.17"/>
</a>
</g>
</g>
<!-- Node26 -->
<g id="Node000026" class="node">
<title>Node26</title>
<g id="a_Node000026"><a xlink:href="classSingSub.html#aa4dc7cddb70399aab67741fe6b0a9397" target="_top" xlink:title="K3n(q) = normal&#45;only contribution of K3(q).">
<polygon fill="white" stroke="#666666" points="315.88,-176.75 236.12,-176.75 236.12,-156 315.88,-156 315.88,-176.75"/>
<text xml:space="preserve" text-anchor="middle" x="276" y="-163.25" font-family="Helvetica,sans-Serif" font-size="10.00">SingSub::K3n</text>
</a>
</g>
</g>
<!-- Node1&#45;&gt;Node26 -->
<g id="edge26_Node000001_Node000026" class="edge">
<title>Node1&#45;&gt;Node26</title>
<g id="a_edge26_Node000001_Node000026"><a xlink:title=" ">
<path fill="none" stroke="#63b8ff" d="M75.78,-428.69C80.62,-389.53 102.88,-252.7 183.25,-186.38 194.87,-176.78 210.07,-171.51 224.73,-168.69"/>
<polygon fill="#63b8ff" stroke="#63b8ff" points="224.94,-172.2 234.28,-167.21 223.87,-165.28 224.94,-172.2"/>
</a>
</g>
</g>
<!-- Node27 -->
<g id="Node000027" class="node">
<title>Node27</title>
<g id="a_Node000027"><a xlink:href="classSingSub.html#ab61a21e3498d2d6a4c0796254cf126ed" target="_top" xlink:title="K4(q) vector term.">
<polygon fill="white" stroke="#666666" points="312.88,-137.75 239.12,-137.75 239.12,-117 312.88,-117 312.88,-137.75"/>
<text xml:space="preserve" text-anchor="middle" x="276" y="-124.25" font-family="Helvetica,sans-Serif" font-size="10.00">SingSub::K4</text>
</a>
</g>
</g>
<!-- Node1&#45;&gt;Node27 -->
<g id="edge27_Node000001_Node000027" class="edge">
<title>Node1&#45;&gt;Node27</title>
<g id="a_edge27_Node000001_Node000027"><a xlink:title=" ">
<path fill="none" stroke="#63b8ff" d="M75.12,-428.6C77.68,-385.68 93.17,-225.54 183.25,-147.38 195.44,-136.8 211.92,-131.41 227.55,-128.78"/>
<polygon fill="#63b8ff" stroke="#63b8ff" points="227.74,-132.29 237.2,-127.52 226.83,-125.35 227.74,-132.29"/>
</a>
</g>
</g>
<!-- Node29 -->
<g id="Node000029" class="node">
<title>Node29</title>
<g id="a_Node000029"><a xlink:href="classRWGFun.html#a7cd7779305937d48196453e53d0d4df8" target="_top" xlink:title="Return L_n / A_n (missing factor 1/2 by convention).">
<polygon fill="white" stroke="#666666" points="342.12,-98.75 209.88,-98.75 209.88,-78 342.12,-78 342.12,-98.75"/>
<text xml:space="preserve" text-anchor="middle" x="276" y="-85.25" font-family="Helvetica,sans-Serif" font-size="10.00">RWGFun::RWGPreFactor</text>
</a>
</g>
</g>
<!-- Node1&#45;&gt;Node29 -->
<g id="edge30_Node000001_Node000029" class="edge">
<title>Node1&#45;&gt;Node29</title>
<g id="a_edge30_Node000001_Node000029"><a xlink:title=" ">
<path fill="none" stroke="#63b8ff" d="M74.58,-428.8C75.01,-382.84 83.12,-198.73 183.25,-108.38 187.94,-104.14 193.31,-100.73 199.05,-97.99"/>
<polygon fill="#63b8ff" stroke="#63b8ff" points="200.31,-101.26 208.31,-94.32 197.72,-94.76 200.31,-101.26"/>
</a>
</g>
</g>
<!-- Node30 -->
<g id="Node000030" class="node">
<title>Node30</title>
<g id="a_Node000030"><a xlink:href="classSingSub.html#a20337fe20529d26c1775c8ba6d47cad0" target="_top" xlink:title="Preferred initialization that fills all cached arrays (ILar/ISar).">
<polygon fill="white" stroke="#666666" points="345.5,-59.75 206.5,-59.75 206.5,-39 345.5,-39 345.5,-59.75"/>
<text xml:space="preserve" text-anchor="middle" x="276" y="-46.25" font-family="Helvetica,sans-Serif" font-size="10.00">SingSub::SetTriangleRWG</text>
</a>
</g>
</g>
<!-- Node1&#45;&gt;Node30 -->
<g id="edge31_Node000001_Node000030" class="edge">
<title>Node1&#45;&gt;Node30</title>
<g id="a_edge31_Node000001_Node000030"><a xlink:title=" ">
<path fill="none" stroke="#63b8ff" d="M74.16,-428.6C72.65,-379.13 73.27,-171.82 183.25,-69.38 187.04,-65.84 191.31,-62.88 195.87,-60.4"/>
<polygon fill="#63b8ff" stroke="#63b8ff" points="197.22,-63.63 204.89,-56.32 194.34,-57.25 197.22,-63.63"/>
</a>
</g>
</g>
<!-- Node31 -->
<g id="Node000031" class="node">
<title>Node31</title>
<g id="a_Node000031"><a xlink:href="classGreenFHom3D.html#adff9d901394dd07c05a111b607c89075" target="_top" xlink:title="Smoothed scalar kernel used under singularity subtraction.">
<polygon fill="white" stroke="#666666" points="347.75,-20.75 204.25,-20.75 204.25,0 347.75,0 347.75,-20.75"/>
<text xml:space="preserve" text-anchor="middle" x="276" y="-7.25" font-family="Helvetica,sans-Serif" font-size="10.00">GreenFHom3D::Smoothed</text>
</a>
</g>
</g>
<!-- Node1&#45;&gt;Node31 -->
<g id="edge32_Node000001_Node000031" class="edge">
<title>Node1&#45;&gt;Node31</title>
<g id="a_edge32_Node000001_Node000031"><a xlink:title=" ">
<path fill="none" stroke="#63b8ff" d="M75.97,-428.63C83.5,-369.91 122.44,-88.51 183.25,-30.38 186.38,-27.38 189.85,-24.8 193.55,-22.56"/>
<polygon fill="#63b8ff" stroke="#63b8ff" points="195.08,-25.71 202.47,-18.12 191.96,-19.44 195.08,-25.71"/>
</a>
</g>
</g>
<!-- Node9 -->
<g id="Node000009" class="node">
<title>Node9</title>
<g id="a_Node000009"><a xlink:href="classTriangle.html#aeecc82e57a00841cb83fd790316b25a3" target="_top" xlink:title="Node pointer for local index 0..2.">
<polygon fill="white" stroke="#666666" points="504,-681.75 404.75,-681.75 404.75,-661 504,-661 504,-681.75"/>
<text xml:space="preserve" text-anchor="middle" x="454.38" y="-668.25" font-family="Helvetica,sans-Serif" font-size="10.00">Triangle::NodePtr</text>
</a>
</g>
</g>
<!-- Node8&#45;&gt;Node9 -->
<g id="edge8_Node000008_Node000009" class="edge">
<title>Node8&#45;&gt;Node9</title>
<g id="a_edge8_Node000008_Node000009"><a xlink:title=" ">
<path fill="none" stroke="#63b8ff" d="M327.01,-643.22C340.56,-646.17 355.22,-649.38 368.75,-652.38 377.03,-654.21 385.76,-656.15 394.35,-658.07"/>
<polygon fill="#63b8ff" stroke="#63b8ff" points="393.5,-661.47 404.02,-660.24 395.03,-654.64 393.5,-661.47"/>
</a>
</g>
</g>
<!-- Node10 -->
<g id="Node000010" class="node">
<title>Node10</title>
<g id="a_Node000010"><a xlink:href="classTriangle.html#a2eae6a9b0378e4b5ba4616a6b6af86fe" target="_top" xlink:title="Construct from 3 node pointers and bordering domains.">
<polygon fill="white" stroke="#666666" points="503.62,-642.75 405.12,-642.75 405.12,-622 503.62,-622 503.62,-642.75"/>
<text xml:space="preserve" text-anchor="middle" x="454.38" y="-629.25" font-family="Helvetica,sans-Serif" font-size="10.00">Triangle::Triangle</text>
</a>
</g>
</g>
<!-- Node8&#45;&gt;Node10 -->
<g id="edge9_Node000008_Node000010" class="edge">
<title>Node8&#45;&gt;Node10</title>
<g id="a_edge9_Node000008_Node000010"><a xlink:title=" ">
<path fill="none" stroke="#63b8ff" d="M341.67,-632.38C358.61,-632.38 376.79,-632.38 393.47,-632.38"/>
<polygon fill="#63b8ff" stroke="#63b8ff" points="393.22,-635.88 403.22,-632.38 393.22,-628.88 393.22,-635.88"/>
</a>
</g>
</g>
<!-- Node11 -->
<g id="Node000011" class="node">
<title>Node11</title>
<g id="a_Node000011"><a xlink:href="classTriangle.html#ae13d69e28fb7a81ab8257fe0af84ceaa" target="_top" xlink:title="Compute/cached geometry (normal, area, perimeter, center, I1/I2s/I2d).">
<polygon fill="white" stroke="#666666" points="718,-642.75 540,-642.75 540,-622 718,-622 718,-642.75"/>
<text xml:space="preserve" text-anchor="middle" x="629" y="-629.25" font-family="Helvetica,sans-Serif" font-size="10.00">Triangle::CalculateGeometryData</text>
</a>
</g>
</g>
<!-- Node10&#45;&gt;Node11 -->
<g id="edge10_Node000010_Node000011" class="edge">
<title>Node10&#45;&gt;Node11</title>
<g id="a_edge10_Node000010_Node000011"><a xlink:title=" ">
<path fill="none" stroke="#63b8ff" d="M503.92,-632.38C511.6,-632.38 519.77,-632.38 528.12,-632.38"/>
<polygon fill="#63b8ff" stroke="#63b8ff" points="528.07,-635.88 538.07,-632.38 528.07,-628.88 528.07,-635.88"/>
</a>
</g>
</g>
<!-- Node11&#45;&gt;Node12 -->
<g id="edge11_Node000011_Node000012" class="edge">
<title>Node11&#45;&gt;Node12</title>
<g id="a_edge11_Node000011_Node000012"><a xlink:title=" ">
<path fill="none" stroke="#63b8ff" d="M718.28,-622.26C726.5,-621.32 734.65,-620.39 742.41,-619.5"/>
<polygon fill="#63b8ff" stroke="#63b8ff" points="742.79,-622.98 752.33,-618.36 741.99,-616.02 742.79,-622.98"/>
</a>
</g>
</g>
<!-- Node20 -->
<g id="Node000020" class="node">
<title>Node20</title>
<g id="a_Node000020"><a xlink:href="classGreenF.html#a332ac24f39288170f77c18f37fde2c82" target="_top" xlink:title="Constructor for a homogeneous, non&#45;magnetic medium.">
<polygon fill="white" stroke="#666666" points="500.25,-332.75 408.5,-332.75 408.5,-312 500.25,-312 500.25,-332.75"/>
<text xml:space="preserve" text-anchor="middle" x="454.38" y="-319.25" font-family="Helvetica,sans-Serif" font-size="10.00">GreenF::GreenF</text>
</a>
</g>
</g>
<!-- Node19&#45;&gt;Node20 -->
<g id="edge19_Node000019_Node000020" class="edge">
<title>Node19&#45;&gt;Node20</title>
<g id="a_edge19_Node000019_Node000020"><a xlink:title=" ">
<path fill="none" stroke="#63b8ff" d="M359.25,-322.38C372.04,-322.38 385.01,-322.38 397.05,-322.38"/>
<polygon fill="#63b8ff" stroke="#63b8ff" points="396.77,-325.88 406.77,-322.38 396.77,-318.88 396.77,-325.88"/>
</a>
</g>
</g>
<!-- Node21 -->
<g id="Node000021" class="node">
<title>Node21</title>
<g id="a_Node000021"><a xlink:href="group__greenFunction.html#gac0a52dce23be7dacdf97c68653b6c137" target="_top" xlink:title="Complex square root with a branch cut along the negative real axis.">
<polygon fill="white" stroke="#666666" points="649,-332.75 609,-332.75 609,-312 649,-312 649,-332.75"/>
<text xml:space="preserve" text-anchor="middle" x="629" y="-319.25" font-family="Helvetica,sans-Serif" font-size="10.00">csqrt</text>
</a>
</g>
</g>
<!-- Node20&#45;&gt;Node21 -->
<g id="edge20_Node000020_Node000021" class="edge">
<title>Node20&#45;&gt;Node21</title>
<g id="a_edge20_Node000020_Node000021"><a xlink:title=" ">
<path fill="none" stroke="#63b8ff" d="M500.73,-322.38C531.22,-322.38 570.59,-322.38 597.42,-322.38"/>
<polygon fill="#63b8ff" stroke="#63b8ff" points="597.27,-325.88 607.27,-322.38 597.27,-318.88 597.27,-325.88"/>
</a>
</g>
</g>
<!-- Node22 -->
<g id="Node000022" class="node">
<title>Node22</title>
<g id="a_Node000022"><a xlink:href="Domain_8cpp.html#aafa3e4fa6318b2f8740f4dbd50c367e5" target="_top" xlink:title="Extract the real part of each component of a complex 3&#45;vector.">
<polygon fill="white" stroke="#666666" points="814.25,-332.75 779.5,-332.75 779.5,-312 814.25,-312 814.25,-332.75"/>
<text xml:space="preserve" text-anchor="middle" x="796.88" y="-319.25" font-family="Helvetica,sans-Serif" font-size="10.00">real</text>
</a>
</g>
</g>
<!-- Node21&#45;&gt;Node22 -->
<g id="edge21_Node000021_Node000022" class="edge">
<title>Node21&#45;&gt;Node22</title>
<g id="a_edge21_Node000021_Node000022"><a xlink:title=" ">
<path fill="none" stroke="#63b8ff" d="M649.35,-322.38C678.58,-322.38 734.14,-322.38 767.81,-322.38"/>
<polygon fill="#63b8ff" stroke="#63b8ff" points="767.62,-325.88 777.62,-322.38 767.62,-318.88 767.62,-325.88"/>
</a>
</g>
</g>
<!-- Node22&#45;&gt;Node22 -->
<g id="edge22_Node000022_Node000022" class="edge">
<title>Node22&#45;&gt;Node22</title>
<g id="a_edge22_Node000022_Node000022"><a xlink:title=" ">
<path fill="none" stroke="#63b8ff" d="M779.28,-327.81C756.09,-337.65 761.96,-350.75 796.88,-350.75 825.52,-350.75 834.61,-341.94 824.16,-333.34"/>
<polygon fill="#63b8ff" stroke="#63b8ff" points="826.21,-330.47 815.79,-328.56 822.74,-336.55 826.21,-330.47"/>
</a>
</g>
</g>
<!-- Node28 -->
<g id="Node000028" class="node">
<title>Node28</title>
<g id="a_Node000028"><a xlink:href="classSingSub.html#a3e9e0b5a61df98d8f8138544c7df3da0" target="_top" xlink:title="K3(q) vector term.">
<polygon fill="white" stroke="#666666" points="491.25,-137.75 417.5,-137.75 417.5,-117 491.25,-117 491.25,-137.75"/>
<text xml:space="preserve" text-anchor="middle" x="454.38" y="-124.25" font-family="Helvetica,sans-Serif" font-size="10.00">SingSub::K3</text>
</a>
</g>
</g>
<!-- Node27&#45;&gt;Node28 -->
<g id="edge28_Node000027_Node000028" class="edge">
<title>Node27&#45;&gt;Node28</title>
<g id="a_edge28_Node000027_Node000028"><a xlink:title=" ">
<path fill="none" stroke="#63b8ff" d="M313.12,-127.38C339.9,-127.38 376.66,-127.38 405.83,-127.38"/>
<polygon fill="#63b8ff" stroke="#63b8ff" points="405.49,-130.88 415.49,-127.38 405.49,-123.88 405.49,-130.88"/>
</a>
</g>
</g>
</g>
</svg>

<g id="navigator" transform="translate(0 0)" fill="#404254">
  <rect fill="#f2f5e9" fill-opacity="0.5" stroke="#606060" stroke-width=".5" x="0" y="0" width="60" height="60"/>
  <use id="zoomplus" xlink:href="#zoomPlus" x="17" y="9" onmousedown="handleZoom(evt,'in')"/>
  <use id="zoomminus" xlink:href="#zoomMin" x="42" y="9" onmousedown="handleZoom(evt,'out')"/>
  <use id="reset" xlink:href="#resetDef" x="30" y="36" onmousedown="handleReset()"/>
   <use id="arrowup" xlink:href="#arrowUp" x="0" y="0" onmousedown="handlePan(0,-1)"/>
  <use id="arrowright" xlink:href="#arrowRight" x="0" y="0" onmousedown="handlePan(1,0)"/>
  <use id="arrowdown" xlink:href="#arrowDown" x="0" y="0" onmousedown="handlePan(0,1)"/>
  <use id="arrowleft" xlink:href="#arrowLeft" x="0" y="0" onmousedown="handlePan(-1,0)"/>
</g>
<svg viewBox="0 0 15 15" width="100%" height="30px" preserveAspectRatio="xMaxYMin meet">
 <g id="arrow_out" transform="scale(0.3 0.3)">
  <a xlink:href="classGreenFHom3D_a419cbe00b5a2aed70ac546904a8a8d6f_cgraph_org.svg" target="_base">
   <rect id="button" ry="5" rx="5" y="6" x="6" height="38" width="38"
        fill="#f2f5e9" fill-opacity="0.5" stroke="#606060" stroke-width="1.0"/>
   <path id="arrow"
     d="M 11.500037,31.436501 C 11.940474,20.09759 22.043105,11.32322 32.158766,21.979434 L 37.068811,17.246167 C 37.068811,17.246167 37.088388,32 37.088388,32 L 22.160133,31.978069 C 22.160133,31.978069 26.997745,27.140456 26.997745,27.140456 C 18.528582,18.264221 13.291696,25.230495 11.500037,31.436501 z"
     style="fill:#404040;"/>
  </a>
 </g>
</svg>

<style type='text/css'>
<![CDATA[
[data-mouse-over-selected='false'] { opacity: 0.7; }
[data-mouse-over-selected='true']  { opacity: 1.0; }
]]>
</style>
<script type="application/ecmascript"><![CDATA[
document.addEventListener('DOMContentLoaded', (event) => {
  highlightEdges();
  highlightAdjacentNodes();
});
]]></script>
</svg>
