<?xml version="1.0" encoding="UTF-8" standalone="no"?>
<!DOCTYPE svg PUBLIC "-//W3C//DTD SVG 1.1//EN"
 "http://www.w3.org/Graphics/SVG/1.1/DTD/svg11.dtd">
<!-- Generated by graphviz version 13.1.2 (20250809.0930)
 -->
<!-- Title: DomainLayered3D::InitGrnFun Pages: 1 -->
<svg width="411pt" height="68pt"
 viewBox="0.00 0.00 411.00 68.00" xmlns="http://www.w3.org/2000/svg" xmlns:xlink="http://www.w3.org/1999/xlink">
<g id="graph0" class="graph" transform="scale(1 1) rotate(0) translate(4 63.75)">
<title>DomainLayered3D::InitGrnFun</title>
<!-- Node1 -->
<g id="Node000001" class="node">
<title>Node1</title>
<g id="a_Node000001"><a xlink:title="Initialize per‑layer homogeneous Green&#39;s functions and the layered Green&#39;s function.">
<polygon fill="#999999" stroke="#666666" points="402.5,-39.75 239.5,-39.75 239.5,-19 402.5,-19 402.5,-39.75"/>
<text xml:space="preserve" text-anchor="middle" x="321" y="-26.25" font-family="Helvetica,sans-Serif" font-size="10.00">DomainLayered3D::InitGrnFun</text>
</a>
</g>
</g>
<!-- Node2 -->
<g id="Node000002" class="node">
<title>Node2</title>
<g id="a_Node000002"><a xlink:href="classDomainLayered3D.html#ad0d867ee7289e485c4bc01077fbdb59a" target="_top" xlink:title="Constructs a 3D layered domain with given material properties and geometry.">
<polygon fill="white" stroke="#666666" points="203.5,-59.75 0,-59.75 0,-39 203.5,-39 203.5,-59.75"/>
<text xml:space="preserve" text-anchor="middle" x="101.75" y="-46.25" font-family="Helvetica,sans-Serif" font-size="10.00">DomainLayered3D::DomainLayered3D</text>
</a>
</g>
</g>
<!-- Node1&#45;&gt;Node2 -->
<g id="edge1_Node000001_Node000002" class="edge">
<title>Node1&#45;&gt;Node2</title>
<g id="a_edge1_Node000001_Node000002"><a xlink:title=" ">
<path fill="none" stroke="#63b8ff" d="M227.7,-37.87C219.85,-38.6 211.87,-39.33 203.96,-40.06"/>
<polygon fill="#63b8ff" stroke="#63b8ff" points="227.96,-41.36 237.6,-36.96 227.32,-34.39 227.96,-41.36"/>
</a>
</g>
</g>
<!-- Node3 -->
<g id="Node000003" class="node">
<title>Node3</title>
<g id="a_Node000003"><a xlink:href="classDomainLayered3D.html#a35b7f667fbf74add0773fd4d1a3d0146" target="_top" xlink:title="Construct without creating Green&#39;s functions (owner/aggregate path).">
<polygon fill="white" stroke="#666666" points="203.5,-20.75 0,-20.75 0,0 203.5,0 203.5,-20.75"/>
<text xml:space="preserve" text-anchor="middle" x="101.75" y="-7.25" font-family="Helvetica,sans-Serif" font-size="10.00">DomainLayered3D::DomainLayered3D</text>
</a>
</g>
</g>
<!-- Node1&#45;&gt;Node3 -->
<g id="edge2_Node000001_Node000003" class="edge">
<title>Node1&#45;&gt;Node3</title>
<g id="a_edge2_Node000001_Node000003"><a xlink:title=" ">
<path fill="none" stroke="#63b8ff" d="M227.7,-21.3C219.85,-20.62 211.87,-19.92 203.96,-19.23"/>
<polygon fill="#63b8ff" stroke="#63b8ff" points="227.33,-24.78 237.6,-22.17 227.94,-17.81 227.33,-24.78"/>
</a>
</g>
</g>
</g>
</svg>
