<?xml version="1.0" encoding="UTF-8" standalone="no"?>
<!DOCTYPE svg PUBLIC "-//W3C//DTD SVG 1.1//EN"
 "http://www.w3.org/Graphics/SVG/1.1/DTD/svg11.dtd">
<!-- Generated by graphviz version 13.1.2 (20250809.0930)
 -->
<!-- Title: DomainLayered3D::DomainLayered3D Pages: 1 -->
<!--zoomable 68 -->

<svg id="main" version="1.1" xmlns="http://www.w3.org/2000/svg" xmlns:xlink="http://www.w3.org/1999/xlink" xml:space="preserve" onload="init(evt)">

<style type="text/css"><![CDATA[
.node, .edge {opacity: 0.7;}
.node.selected, .edge.selected {opacity: 1;}
.edge:hover path { stroke: red; }
.edge:hover polygon { stroke: red; fill: red; }
]]></style>

<defs>
  <circle id="rim" cx="0" cy="0" r="7"/>
  <circle id="rim2" cx="0" cy="0" r="3.5"/>
  <g id="zoomPlus">
    <use xlink:href="#rim" fill="#404040"><set attributeName="fill" to="#808080" begin="zoomplus.mouseover" end="zoomplus.mouseout"/></use>
    <path d="M-4,0h8M0,-4v8" fill="none" stroke="white" stroke-width="1.5" pointer-events="none"/>
  </g>
  <g id="zoomMin">
    <use xlink:href="#rim" fill="#404040"><set attributeName="fill" to="#808080" begin="zoomminus.mouseover" end="zoomminus.mouseout"/></use>
    <path d="M-4,0h8" fill="none" stroke="white" stroke-width="1.5" pointer-events="none"/>
  </g>
  <g id="arrowUp" transform="translate(30 24)">
    <use xlink:href="#rim"/>
    <path pointer-events="none" fill="none" stroke="white" stroke-width="1.5" d="M0,-3.0v7 M-2.5,-0.5L0,-3.0L2.5,-0.5"/>
  </g>
  <g id="arrowRight" transform="rotate(90) translate(36 -43)">
    <use xlink:href="#rim"/>
    <path pointer-events="none" fill="none" stroke="white" stroke-width="1.5" d="M0,-3.0v7 M-2.5,-0.5L0,-3.0L2.5,-0.5"/>
  </g>
  <g id="arrowDown" transform="rotate(180) translate(-30 -48)">
    <use xlink:href="#rim"/>
    <path pointer-events="none" fill="none" stroke="white" stroke-width="1.5" d="M0,-3.0v7 M-2.5,-0.5L0,-3.0L2.5,-0.5"/>
  </g>
  <g id="arrowLeft" transform="rotate(270) translate(-36 17)">
    <use xlink:href="#rim"/>
    <path pointer-events="none" fill="none" stroke="white" stroke-width="1.5" d="M0,-3.0v7 M-2.5,-0.5L0,-3.0L2.5,-0.5"/>
  </g>
  <g id="resetDef">
    <use xlink:href="#rim2" fill="#404040"><set attributeName="fill" to="#808080" begin="reset.mouseover" end="reset.mouseout"/></use>
  </g>
</defs>
<script type="application/ecmascript">
var viewWidth = 832;
var viewHeight = 68;
var sectionId = 'dynsection-3';
</script>
<script type="application/ecmascript" xlink:href="svg.min.js"/>
<svg id="graph" class="graph">
<g id="viewport">
<title>DomainLayered3D::DomainLayered3D</title>
<!-- Node1 -->
<g id="Node000001" class="node">
<title>Node1</title>
<g id="a_Node000001"><a xlink:title="Construct without creating Green&#39;s functions (owner/aggregate path).">
<polygon fill="#999999" stroke="#666666" points="203.5,-39.75 0,-39.75 0,-19 203.5,-19 203.5,-39.75"/>
<text xml:space="preserve" text-anchor="middle" x="101.75" y="-26.25" font-family="Helvetica,sans-Serif" font-size="10.00">DomainLayered3D::DomainLayered3D</text>
</a>
</g>
</g>
<!-- Node2 -->
<g id="Node000002" class="node">
<title>Node2</title>
<g id="a_Node000002"><a xlink:href="classDomain.html#a3f6f9e8ec932680440098679b6fe3300" target="_top" xlink:title="Construct a domain over a mesh region at a given vacuum wavelength.">
<polygon fill="white" stroke="#666666" points="370.25,-59.75 271.75,-59.75 271.75,-39 370.25,-39 370.25,-59.75"/>
<text xml:space="preserve" text-anchor="middle" x="321" y="-46.25" font-family="Helvetica,sans-Serif" font-size="10.00">Domain::Domain</text>
</a>
</g>
</g>
<!-- Node1&#45;&gt;Node2 -->
<g id="edge1_Node000001_Node000002" class="edge">
<title>Node1&#45;&gt;Node2</title>
<g id="a_edge1_Node000001_Node000002"><a xlink:title=" ">
<path fill="none" stroke="#63b8ff" d="M203.74,-38.67C223.01,-40.45 242.6,-42.25 260.07,-43.86"/>
<polygon fill="#63b8ff" stroke="#63b8ff" points="259.73,-47.34 270,-44.77 260.37,-40.37 259.73,-47.34"/>
</a>
</g>
</g>
<!-- Node5 -->
<g id="Node000005" class="node">
<title>Node5</title>
<g id="a_Node000005"><a xlink:href="classDomainLayered3D.html#af630820f17df76fa4348a9dc121c70e7" target="_top" xlink:title="Initialize per‑layer homogeneous Green&#39;s functions and the layered Green&#39;s function.">
<polygon fill="white" stroke="#666666" points="402.5,-20.75 239.5,-20.75 239.5,0 402.5,0 402.5,-20.75"/>
<text xml:space="preserve" text-anchor="middle" x="321" y="-7.25" font-family="Helvetica,sans-Serif" font-size="10.00">DomainLayered3D::InitGrnFun</text>
</a>
</g>
</g>
<!-- Node1&#45;&gt;Node5 -->
<g id="edge4_Node000001_Node000005" class="edge">
<title>Node1&#45;&gt;Node5</title>
<g id="a_edge4_Node000001_Node000005"><a xlink:title=" ">
<path fill="none" stroke="#63b8ff" d="M203.74,-20.54C211.8,-19.84 219.92,-19.13 227.91,-18.43"/>
<polygon fill="#63b8ff" stroke="#63b8ff" points="227.94,-21.94 237.6,-17.58 227.33,-14.97 227.94,-21.94"/>
</a>
</g>
</g>
<!-- Node3 -->
<g id="Node000003" class="node">
<title>Node3</title>
<g id="a_Node000003"><a xlink:href="classDomain.html#a753296cc63cedb73b537311031521178" target="_top" xlink:title="Add all boundary triangles belonging to region dIndex and build RWGs.">
<polygon fill="white" stroke="#666666" points="612,-59.75 438.5,-59.75 438.5,-39 612,-39 612,-59.75"/>
<text xml:space="preserve" text-anchor="middle" x="525.25" y="-46.25" font-family="Helvetica,sans-Serif" font-size="10.00">Domain::AddTrianglesFromMesh</text>
</a>
</g>
</g>
<!-- Node2&#45;&gt;Node3 -->
<g id="edge2_Node000002_Node000003" class="edge">
<title>Node2&#45;&gt;Node3</title>
<g id="a_edge2_Node000002_Node000003"><a xlink:title=" ">
<path fill="none" stroke="#63b8ff" d="M370.7,-49.38C387.6,-49.38 407.21,-49.38 426.64,-49.38"/>
<polygon fill="#63b8ff" stroke="#63b8ff" points="426.53,-52.88 436.53,-49.38 426.53,-45.88 426.53,-52.88"/>
</a>
</g>
</g>
<!-- Node4 -->
<g id="Node000004" class="node">
<title>Node4</title>
<g id="a_Node000004"><a xlink:href="classSurfaceMesh.html#a7681019f61e9c1542c893c177117dac4" target="_top" xlink:title="Triangles bordering a given domain (FRONT or BACK).">
<polygon fill="white" stroke="#666666" points="823.75,-59.75 648,-59.75 648,-39 823.75,-39 823.75,-59.75"/>
<text xml:space="preserve" text-anchor="middle" x="735.88" y="-46.25" font-family="Helvetica,sans-Serif" font-size="10.00">SurfaceMesh::BorderingTriangles</text>
</a>
</g>
</g>
<!-- Node3&#45;&gt;Node4 -->
<g id="edge3_Node000003_Node000004" class="edge">
<title>Node3&#45;&gt;Node4</title>
<g id="a_edge3_Node000003_Node000004"><a xlink:title=" ">
<path fill="none" stroke="#63b8ff" d="M612.31,-49.38C620.24,-49.38 628.32,-49.38 636.36,-49.38"/>
<polygon fill="#63b8ff" stroke="#63b8ff" points="636.15,-52.88 646.15,-49.38 636.15,-45.88 636.15,-52.88"/>
</a>
</g>
</g>
</g>
</svg>

<g id="navigator" transform="translate(0 0)" fill="#404254">
  <rect fill="#f2f5e9" fill-opacity="0.5" stroke="#606060" stroke-width=".5" x="0" y="0" width="60" height="60"/>
  <use id="zoomplus" xlink:href="#zoomPlus" x="17" y="9" onmousedown="handleZoom(evt,'in')"/>
  <use id="zoomminus" xlink:href="#zoomMin" x="42" y="9" onmousedown="handleZoom(evt,'out')"/>
  <use id="reset" xlink:href="#resetDef" x="30" y="36" onmousedown="handleReset()"/>
   <use id="arrowup" xlink:href="#arrowUp" x="0" y="0" onmousedown="handlePan(0,-1)"/>
  <use id="arrowright" xlink:href="#arrowRight" x="0" y="0" onmousedown="handlePan(1,0)"/>
  <use id="arrowdown" xlink:href="#arrowDown" x="0" y="0" onmousedown="handlePan(0,1)"/>
  <use id="arrowleft" xlink:href="#arrowLeft" x="0" y="0" onmousedown="handlePan(-1,0)"/>
</g>
<svg viewBox="0 0 15 15" width="100%" height="30px" preserveAspectRatio="xMaxYMin meet">
 <g id="arrow_out" transform="scale(0.3 0.3)">
  <a xlink:href="classDomainLayered3D_a35b7f667fbf74add0773fd4d1a3d0146_cgraph_org.svg" target="_base">
   <rect id="button" ry="5" rx="5" y="6" x="6" height="38" width="38"
        fill="#f2f5e9" fill-opacity="0.5" stroke="#606060" stroke-width="1.0"/>
   <path id="arrow"
     d="M 11.500037,31.436501 C 11.940474,20.09759 22.043105,11.32322 32.158766,21.979434 L 37.068811,17.246167 C 37.068811,17.246167 37.088388,32 37.088388,32 L 22.160133,31.978069 C 22.160133,31.978069 26.997745,27.140456 26.997745,27.140456 C 18.528582,18.264221 13.291696,25.230495 11.500037,31.436501 z"
     style="fill:#404040;"/>
  </a>
 </g>
</svg>

<style type='text/css'>
<![CDATA[
[data-mouse-over-selected='false'] { opacity: 0.7; }
[data-mouse-over-selected='true']  { opacity: 1.0; }
]]>
</style>
<script type="application/ecmascript"><![CDATA[
document.addEventListener('DOMContentLoaded', (event) => {
  highlightEdges();
  highlightAdjacentNodes();
});
]]></script>
</svg>
