<?xml version="1.0" encoding="UTF-8" standalone="no"?>
<!DOCTYPE svg PUBLIC "-//W3C//DTD SVG 1.1//EN"
 "http://www.w3.org/Graphics/SVG/1.1/DTD/svg11.dtd">
<!-- Generated by graphviz version 13.1.2 (20250809.0930)
 -->
<!-- Title: DomainLayered3D::scatteringCS Pages: 1 -->
<!--zoomable 378 -->

<svg id="main" version="1.1" xmlns="http://www.w3.org/2000/svg" xmlns:xlink="http://www.w3.org/1999/xlink" xml:space="preserve" onload="init(evt)">

<style type="text/css"><![CDATA[
.node, .edge {opacity: 0.7;}
.node.selected, .edge.selected {opacity: 1;}
.edge:hover path { stroke: red; }
.edge:hover polygon { stroke: red; fill: red; }
]]></style>

<defs>
  <circle id="rim" cx="0" cy="0" r="7"/>
  <circle id="rim2" cx="0" cy="0" r="3.5"/>
  <g id="zoomPlus">
    <use xlink:href="#rim" fill="#404040"><set attributeName="fill" to="#808080" begin="zoomplus.mouseover" end="zoomplus.mouseout"/></use>
    <path d="M-4,0h8M0,-4v8" fill="none" stroke="white" stroke-width="1.5" pointer-events="none"/>
  </g>
  <g id="zoomMin">
    <use xlink:href="#rim" fill="#404040"><set attributeName="fill" to="#808080" begin="zoomminus.mouseover" end="zoomminus.mouseout"/></use>
    <path d="M-4,0h8" fill="none" stroke="white" stroke-width="1.5" pointer-events="none"/>
  </g>
  <g id="arrowUp" transform="translate(30 24)">
    <use xlink:href="#rim"/>
    <path pointer-events="none" fill="none" stroke="white" stroke-width="1.5" d="M0,-3.0v7 M-2.5,-0.5L0,-3.0L2.5,-0.5"/>
  </g>
  <g id="arrowRight" transform="rotate(90) translate(36 -43)">
    <use xlink:href="#rim"/>
    <path pointer-events="none" fill="none" stroke="white" stroke-width="1.5" d="M0,-3.0v7 M-2.5,-0.5L0,-3.0L2.5,-0.5"/>
  </g>
  <g id="arrowDown" transform="rotate(180) translate(-30 -48)">
    <use xlink:href="#rim"/>
    <path pointer-events="none" fill="none" stroke="white" stroke-width="1.5" d="M0,-3.0v7 M-2.5,-0.5L0,-3.0L2.5,-0.5"/>
  </g>
  <g id="arrowLeft" transform="rotate(270) translate(-36 17)">
    <use xlink:href="#rim"/>
    <path pointer-events="none" fill="none" stroke="white" stroke-width="1.5" d="M0,-3.0v7 M-2.5,-0.5L0,-3.0L2.5,-0.5"/>
  </g>
  <g id="resetDef">
    <use xlink:href="#rim2" fill="#404040"><set attributeName="fill" to="#808080" begin="reset.mouseover" end="reset.mouseout"/></use>
  </g>
</defs>
<script type="application/ecmascript">
var viewWidth = 569;
var viewHeight = 378;
var sectionId = 'dynsection-24';
</script>
<script type="application/ecmascript" xlink:href="svg.min.js"/>
<svg id="graph" class="graph">
<g id="viewport">
<title>DomainLayered3D::scatteringCS</title>
<!-- Node1 -->
<g id="Node000001" class="node">
<title>Node1</title>
<g id="a_Node000001"><a xlink:title="Scattering cross section.">
<polygon fill="#999999" stroke="#666666" points="174.25,-193.75 0,-193.75 0,-173 174.25,-173 174.25,-193.75"/>
<text xml:space="preserve" text-anchor="middle" x="87.12" y="-180.25" font-family="Helvetica,sans-Serif" font-size="10.00">DomainLayered3D::scatteringCS</text>
</a>
</g>
</g>
<!-- Node2 -->
<g id="Node000002" class="node">
<title>Node2</title>
<g id="a_Node000002"><a xlink:href="classTriangle.html#ab78508a340ec5d345adf114b43563dbf" target="_top" xlink:title="Centroid of the triangle.">
<polygon fill="white" stroke="#666666" points="335.38,-369.75 242.88,-369.75 242.88,-349 335.38,-349 335.38,-369.75"/>
<text xml:space="preserve" text-anchor="middle" x="289.12" y="-356.25" font-family="Helvetica,sans-Serif" font-size="10.00">Triangle::Center</text>
</a>
</g>
</g>
<!-- Node1&#45;&gt;Node2 -->
<g id="edge1_Node000001_Node000002" class="edge">
<title>Node1&#45;&gt;Node2</title>
<g id="a_edge1_Node000001_Node000002"><a xlink:title=" ">
<path fill="none" stroke="#63b8ff" d="M93.28,-194.05C107.59,-222.46 150.66,-300.42 210.25,-339.38 216.69,-343.58 223.96,-346.91 231.41,-349.53"/>
<polygon fill="#63b8ff" stroke="#63b8ff" points="230.35,-352.86 240.93,-352.45 232.4,-346.17 230.35,-352.86"/>
</a>
</g>
</g>
<!-- Node3 -->
<g id="Node000003" class="node">
<title>Node3</title>
<g id="a_Node000003"><a xlink:href="DomainLayered3D_8cpp.html#a37aee72ef7a00576c814a1370473cce7" target="_top" xlink:title="Compute the element&#45;wise complex conjugate of a 3&#45;vector.">
<polygon fill="white" stroke="#666666" points="318.5,-330.75 259.75,-330.75 259.75,-310 318.5,-310 318.5,-330.75"/>
<text xml:space="preserve" text-anchor="middle" x="289.12" y="-317.25" font-family="Helvetica,sans-Serif" font-size="10.00">conjVecL</text>
</a>
</g>
</g>
<!-- Node1&#45;&gt;Node3 -->
<g id="edge2_Node000001_Node000003" class="edge">
<title>Node1&#45;&gt;Node3</title>
<g id="a_edge2_Node000001_Node000003"><a xlink:title=" ">
<path fill="none" stroke="#63b8ff" d="M96,-193.97C113.72,-217.03 159.19,-271.97 210.25,-300.38 221.83,-306.82 235.53,-311.23 248.19,-314.24"/>
<polygon fill="#63b8ff" stroke="#63b8ff" points="247.44,-317.66 257.95,-316.3 248.89,-310.81 247.44,-317.66"/>
</a>
</g>
</g>
<!-- Node5 -->
<g id="Node000005" class="node">
<title>Node5</title>
<g id="a_Node000005"><a xlink:href="classDomainLayered3D.html#a281513a4cb865b8c688dd920a6789955" target="_top" xlink:title="Relative permittivity at a spatial location.">
<polygon fill="white" stroke="#666666" points="363.12,-291.75 215.12,-291.75 215.12,-271 363.12,-271 363.12,-291.75"/>
<text xml:space="preserve" text-anchor="middle" x="289.12" y="-278.25" font-family="Helvetica,sans-Serif" font-size="10.00">DomainLayered3D::Epsilon</text>
</a>
</g>
</g>
<!-- Node1&#45;&gt;Node5 -->
<g id="edge5_Node000001_Node000005" class="edge">
<title>Node1&#45;&gt;Node5</title>
<g id="a_edge5_Node000001_Node000005"><a xlink:title=" ">
<path fill="none" stroke="#63b8ff" d="M101.6,-194.04C123.28,-210.7 167.79,-242.93 210.25,-261.38 215.11,-263.49 220.25,-265.42 225.47,-267.16"/>
<polygon fill="#63b8ff" stroke="#63b8ff" points="224.21,-270.44 234.8,-270.06 226.29,-263.75 224.21,-270.44"/>
</a>
</g>
</g>
<!-- Node7 -->
<g id="Node000007" class="node">
<title>Node7</title>
<g id="a_Node000007"><a xlink:href="classTriangle.html#a691ff1d8d3f33df1fe0aae161d14ec49" target="_top" xlink:title="FRONT/BACK normal: FRONT &#45;&gt; +normal, BACK &#45;&gt; −normal.">
<polygon fill="white" stroke="#666666" points="359,-252.75 219.25,-252.75 219.25,-232 359,-232 359,-252.75"/>
<text xml:space="preserve" text-anchor="middle" x="289.12" y="-239.25" font-family="Helvetica,sans-Serif" font-size="10.00">Triangle::FBNormalVector</text>
</a>
</g>
</g>
<!-- Node1&#45;&gt;Node7 -->
<g id="edge7_Node000001_Node000007" class="edge">
<title>Node1&#45;&gt;Node7</title>
<g id="a_edge7_Node000001_Node000007"><a xlink:title=" ">
<path fill="none" stroke="#63b8ff" d="M120.37,-194.23C144.9,-202.36 179.56,-213.54 210.25,-222.38 217.73,-224.53 225.64,-226.69 233.44,-228.76"/>
<polygon fill="#63b8ff" stroke="#63b8ff" points="232.32,-232.08 242.88,-231.22 234.09,-225.31 232.32,-232.08"/>
</a>
</g>
</g>
<!-- Node8 -->
<g id="Node000008" class="node">
<title>Node8</title>
<g id="a_Node000008"><a xlink:href="classDomainLayered3D.html#ae2e6a313e8a32a981d6d698a47e238cb" target="_top" xlink:title="Total incident electric field at a point from all incident sources.">
<polygon fill="white" stroke="#666666" points="367.25,-213.75 211,-213.75 211,-193 367.25,-193 367.25,-213.75"/>
<text xml:space="preserve" text-anchor="middle" x="289.12" y="-200.25" font-family="Helvetica,sans-Serif" font-size="10.00">DomainLayered3D::IncFieldE</text>
</a>
</g>
</g>
<!-- Node1&#45;&gt;Node8 -->
<g id="edge8_Node000001_Node000008" class="edge">
<title>Node1&#45;&gt;Node8</title>
<g id="a_edge8_Node000001_Node000008"><a xlink:title=" ">
<path fill="none" stroke="#63b8ff" d="M174.68,-192.03C182.79,-192.84 191.02,-193.66 199.15,-194.48"/>
<polygon fill="#63b8ff" stroke="#63b8ff" points="198.75,-197.96 209.05,-195.47 199.45,-190.99 198.75,-197.96"/>
</a>
</g>
</g>
<!-- Node9 -->
<g id="Node000009" class="node">
<title>Node9</title>
<g id="a_Node000009"><a xlink:href="classDomainLayered3D.html#a1224cc02268d1cfe5b51ebf363cda79e" target="_top" xlink:title="Total incident magnetic field at a point from all incident sources.">
<polygon fill="white" stroke="#666666" points="368,-174.75 210.25,-174.75 210.25,-154 368,-154 368,-174.75"/>
<text xml:space="preserve" text-anchor="middle" x="289.12" y="-161.25" font-family="Helvetica,sans-Serif" font-size="10.00">DomainLayered3D::IncFieldH</text>
</a>
</g>
</g>
<!-- Node1&#45;&gt;Node9 -->
<g id="edge9_Node000001_Node000009" class="edge">
<title>Node1&#45;&gt;Node9</title>
<g id="a_edge9_Node000001_Node000009"><a xlink:title=" ">
<path fill="none" stroke="#63b8ff" d="M174.68,-175.15C182.65,-174.4 190.73,-173.63 198.72,-172.87"/>
<polygon fill="#63b8ff" stroke="#63b8ff" points="198.8,-176.38 208.43,-171.95 198.14,-169.41 198.8,-176.38"/>
</a>
</g>
</g>
<!-- Node10 -->
<g id="Node000010" class="node">
<title>Node10</title>
<g id="a_Node000010"><a xlink:href="classDomainLayered3D.html#a295274a8176b2d6f9fc07c7aea9fd89c" target="_top" xlink:title="Relative permeability at a spatial location.">
<polygon fill="white" stroke="#666666" points="353,-135.75 225.25,-135.75 225.25,-115 353,-115 353,-135.75"/>
<text xml:space="preserve" text-anchor="middle" x="289.12" y="-122.25" font-family="Helvetica,sans-Serif" font-size="10.00">DomainLayered3D::Mu</text>
</a>
</g>
</g>
<!-- Node1&#45;&gt;Node10 -->
<g id="edge10_Node000001_Node000010" class="edge">
<title>Node1&#45;&gt;Node10</title>
<g id="a_edge10_Node000001_Node000010"><a xlink:title=" ">
<path fill="none" stroke="#63b8ff" d="M121.42,-172.52C145.9,-164.66 180.02,-153.95 210.25,-145.38 217.73,-143.25 225.65,-141.1 233.46,-139.04"/>
<polygon fill="#63b8ff" stroke="#63b8ff" points="234.1,-142.49 242.9,-136.58 232.34,-135.72 234.1,-142.49"/>
</a>
</g>
</g>
<!-- Node11 -->
<g id="Node000011" class="node">
<title>Node11</title>
<g id="a_Node000011"><a xlink:href="classTriangle.html#a0752d2c9488c7c44b851b8f75abcaa79" target="_top" xlink:title="Node position (by value) for local index 0..2.">
<polygon fill="white" stroke="#666666" points="332,-96.75 246.25,-96.75 246.25,-76 332,-76 332,-96.75"/>
<text xml:space="preserve" text-anchor="middle" x="289.12" y="-83.25" font-family="Helvetica,sans-Serif" font-size="10.00">Triangle::Node</text>
</a>
</g>
</g>
<!-- Node1&#45;&gt;Node11 -->
<g id="edge12_Node000001_Node000011" class="edge">
<title>Node1&#45;&gt;Node11</title>
<g id="a_edge12_Node000001_Node000011"><a xlink:title=" ">
<path fill="none" stroke="#63b8ff" d="M101.98,-172.59C123.82,-156.08 168.13,-124.53 210.25,-106.38 218.09,-102.99 226.64,-100.09 235.1,-97.62"/>
<polygon fill="#63b8ff" stroke="#63b8ff" points="235.91,-101.03 244.64,-95.03 234.08,-94.27 235.91,-101.03"/>
</a>
</g>
</g>
<!-- Node12 -->
<g id="Node000012" class="node">
<title>Node12</title>
<g id="a_Node000012"><a xlink:href="Domain_8cpp.html#aafa3e4fa6318b2f8740f4dbd50c367e5" target="_top" xlink:title="Extract the real part of each component of a complex 3&#45;vector.">
<polygon fill="white" stroke="#666666" points="499.88,-39.75 465.12,-39.75 465.12,-19 499.88,-19 499.88,-39.75"/>
<text xml:space="preserve" text-anchor="middle" x="482.5" y="-26.25" font-family="Helvetica,sans-Serif" font-size="10.00">real</text>
</a>
</g>
</g>
<!-- Node1&#45;&gt;Node12 -->
<g id="edge13_Node000001_Node000012" class="edge">
<title>Node1&#45;&gt;Node12</title>
<g id="a_edge13_Node000001_Node000012"><a xlink:title=" ">
<path fill="none" stroke="#63b8ff" d="M95.54,-172.8C112.66,-149.29 157.57,-92.78 210.25,-67.38 291.96,-27.96 402.52,-26.19 453.56,-27.84"/>
<polygon fill="#63b8ff" stroke="#63b8ff" points="453.27,-31.33 463.41,-28.24 453.56,-24.34 453.27,-31.33"/>
</a>
</g>
</g>
<!-- Node13 -->
<g id="Node000013" class="node">
<title>Node13</title>
<g id="a_Node000013"><a xlink:href="DomainLayered3D_8cpp.html#a2c019c7f0fe35eb5871f0c0b1ae9bd96" target="_top" xlink:title="Extract the real part of each component of a complex 3&#45;vector.">
<polygon fill="white" stroke="#666666" points="317.75,-20.75 260.5,-20.75 260.5,0 317.75,0 317.75,-20.75"/>
<text xml:space="preserve" text-anchor="middle" x="289.12" y="-7.25" font-family="Helvetica,sans-Serif" font-size="10.00">realVecL</text>
</a>
</g>
</g>
<!-- Node1&#45;&gt;Node13 -->
<g id="edge15_Node000001_Node000013" class="edge">
<title>Node1&#45;&gt;Node13</title>
<g id="a_edge15_Node000001_Node000013"><a xlink:title=" ">
<path fill="none" stroke="#63b8ff" d="M93.96,-172.54C109.26,-145.16 153.34,-72.61 210.25,-34.38 221.79,-26.63 235.93,-21.29 248.99,-17.66"/>
<polygon fill="#63b8ff" stroke="#63b8ff" points="249.77,-21.07 258.62,-15.25 248.07,-14.28 249.77,-21.07"/>
</a>
</g>
</g>
<!-- Node4 -->
<g id="Node000004" class="node">
<title>Node4</title>
<g id="a_Node000004"><a xlink:href="Domain_8cpp.html#abbd88d15240455cf734121fcd73b3a03" target="_top" xlink:title="Compute the element&#45;wise complex conjugate of a 3&#45;vector.">
<polygon fill="white" stroke="#666666" points="500.62,-330.75 464.38,-330.75 464.38,-310 500.62,-310 500.62,-330.75"/>
<text xml:space="preserve" text-anchor="middle" x="482.5" y="-317.25" font-family="Helvetica,sans-Serif" font-size="10.00">conj</text>
</a>
</g>
</g>
<!-- Node3&#45;&gt;Node4 -->
<g id="edge3_Node000003_Node000004" class="edge">
<title>Node3&#45;&gt;Node4</title>
<g id="a_edge3_Node000003_Node000004"><a xlink:title=" ">
<path fill="none" stroke="#63b8ff" d="M318.78,-320.38C354.94,-320.38 416.77,-320.38 452.9,-320.38"/>
<polygon fill="#63b8ff" stroke="#63b8ff" points="452.58,-323.88 462.58,-320.38 452.58,-316.88 452.58,-323.88"/>
</a>
</g>
</g>
<!-- Node4&#45;&gt;Node4 -->
<g id="edge4_Node000004_Node000004" class="edge">
<title>Node4&#45;&gt;Node4</title>
<g id="a_edge4_Node000004_Node000004"><a xlink:title=" ">
<path fill="none" stroke="#63b8ff" d="M464.17,-325.12C435.22,-335.03 441.33,-348.75 482.5,-348.75 517.88,-348.75 527.37,-338.62 510.96,-329.48"/>
<polygon fill="#63b8ff" stroke="#63b8ff" points="512.79,-326.45 502.22,-325.72 510.03,-332.88 512.79,-326.45"/>
</a>
</g>
</g>
<!-- Node6 -->
<g id="Node000006" class="node">
<title>Node6</title>
<g id="a_Node000006"><a xlink:href="classDomainLayered3D.html#ae8e9daf2ca4d1ed649a1e0fe83880160" target="_top" xlink:title="Returns the layer index corresponding to a spatial position.">
<polygon fill="white" stroke="#666666" points="561,-217.12 404,-217.12 404,-183.62 561,-183.62 561,-217.12"/>
<text xml:space="preserve" text-anchor="start" x="412" y="-203.62" font-family="Helvetica,sans-Serif" font-size="10.00">DomainLayered3D::GetLayer</text>
<text xml:space="preserve" text-anchor="middle" x="482.5" y="-190.88" font-family="Helvetica,sans-Serif" font-size="10.00">Index</text>
</a>
</g>
</g>
<!-- Node5&#45;&gt;Node6 -->
<g id="edge6_Node000005_Node000006" class="edge">
<title>Node5&#45;&gt;Node6</title>
<g id="a_edge6_Node000005_Node000006"><a xlink:title=" ">
<path fill="none" stroke="#63b8ff" d="M339.72,-270.56C349.24,-267.95 359.03,-264.88 368,-261.38 394.62,-250.98 422.94,-235.77 444.64,-223.13"/>
<polygon fill="#63b8ff" stroke="#63b8ff" points="446.28,-226.23 453.11,-218.13 442.72,-220.2 446.28,-226.23"/>
</a>
</g>
</g>
<!-- Node10&#45;&gt;Node6 -->
<g id="edge11_Node000010_Node000006" class="edge">
<title>Node10&#45;&gt;Node6</title>
<g id="a_edge11_Node000010_Node000006"><a xlink:title=" ">
<path fill="none" stroke="#63b8ff" d="M338.36,-136.16C348.28,-138.82 358.56,-141.92 368,-145.38 392.74,-154.44 419.29,-167.13 440.49,-178.04"/>
<polygon fill="#63b8ff" stroke="#63b8ff" points="438.61,-181.01 449.09,-182.53 441.85,-174.8 438.61,-181.01"/>
</a>
</g>
</g>
<!-- Node12&#45;&gt;Node12 -->
<g id="edge14_Node000012_Node000012" class="edge">
<title>Node12&#45;&gt;Node12</title>
<g id="a_edge14_Node000012_Node000012"><a xlink:title=" ">
<path fill="none" stroke="#63b8ff" d="M464.97,-33.85C435.11,-43.78 440.95,-57.75 482.5,-57.75 518.2,-57.75 527.54,-47.43 510.51,-38.23"/>
<polygon fill="#63b8ff" stroke="#63b8ff" points="512,-35.06 501.42,-34.43 509.3,-41.52 512,-35.06"/>
</a>
</g>
</g>
<!-- Node13&#45;&gt;Node12 -->
<g id="edge16_Node000013_Node000012" class="edge">
<title>Node13&#45;&gt;Node12</title>
<g id="a_edge16_Node000013_Node000012"><a xlink:title=" ">
<path fill="none" stroke="#63b8ff" d="M317.95,-13.14C354.18,-16.73 417.16,-22.99 453.48,-26.59"/>
<polygon fill="#63b8ff" stroke="#63b8ff" points="452.9,-30.05 463.19,-27.56 453.59,-23.09 452.9,-30.05"/>
</a>
</g>
</g>
</g>
</svg>

<g id="navigator" transform="translate(0 0)" fill="#404254">
  <rect fill="#f2f5e9" fill-opacity="0.5" stroke="#606060" stroke-width=".5" x="0" y="0" width="60" height="60"/>
  <use id="zoomplus" xlink:href="#zoomPlus" x="17" y="9" onmousedown="handleZoom(evt,'in')"/>
  <use id="zoomminus" xlink:href="#zoomMin" x="42" y="9" onmousedown="handleZoom(evt,'out')"/>
  <use id="reset" xlink:href="#resetDef" x="30" y="36" onmousedown="handleReset()"/>
   <use id="arrowup" xlink:href="#arrowUp" x="0" y="0" onmousedown="handlePan(0,-1)"/>
  <use id="arrowright" xlink:href="#arrowRight" x="0" y="0" onmousedown="handlePan(1,0)"/>
  <use id="arrowdown" xlink:href="#arrowDown" x="0" y="0" onmousedown="handlePan(0,1)"/>
  <use id="arrowleft" xlink:href="#arrowLeft" x="0" y="0" onmousedown="handlePan(-1,0)"/>
</g>
<svg viewBox="0 0 15 15" width="100%" height="30px" preserveAspectRatio="xMaxYMin meet">
 <g id="arrow_out" transform="scale(0.3 0.3)">
  <a xlink:href="classDomainLayered3D_a267135f0a2f5bfff12f7ac3b25429176_cgraph_org.svg" target="_base">
   <rect id="button" ry="5" rx="5" y="6" x="6" height="38" width="38"
        fill="#f2f5e9" fill-opacity="0.5" stroke="#606060" stroke-width="1.0"/>
   <path id="arrow"
     d="M 11.500037,31.436501 C 11.940474,20.09759 22.043105,11.32322 32.158766,21.979434 L 37.068811,17.246167 C 37.068811,17.246167 37.088388,32 37.088388,32 L 22.160133,31.978069 C 22.160133,31.978069 26.997745,27.140456 26.997745,27.140456 C 18.528582,18.264221 13.291696,25.230495 11.500037,31.436501 z"
     style="fill:#404040;"/>
  </a>
 </g>
</svg>

<style type='text/css'>
<![CDATA[
[data-mouse-over-selected='false'] { opacity: 0.7; }
[data-mouse-over-selected='true']  { opacity: 1.0; }
]]>
</style>
<script type="application/ecmascript"><![CDATA[
document.addEventListener('DOMContentLoaded', (event) => {
  highlightEdges();
  highlightAdjacentNodes();
});
]]></script>
</svg>
