<?xml version="1.0" encoding="UTF-8" standalone="no"?>
<!DOCTYPE svg PUBLIC "-//W3C//DTD SVG 1.1//EN"
 "http://www.w3.org/Graphics/SVG/1.1/DTD/svg11.dtd">
<!-- Generated by graphviz version 13.1.2 (20250809.0930)
 -->
<!-- Title: PlaneWave::writeEHData Pages: 1 -->
<svg width="589pt" height="164pt"
 viewBox="0.00 0.00 589.00 164.00" xmlns="http://www.w3.org/2000/svg" xmlns:xlink="http://www.w3.org/1999/xlink">
<g id="graph0" class="graph" transform="scale(1 1) rotate(0) translate(4 159.75)">
<title>PlaneWave::writeEHData</title>
<!-- Node1 -->
<g id="Node000001" class="node">
<title>Node1</title>
<g id="a_Node000001"><a xlink:title="Write E and H field values at sample points to CSV files.">
<polygon fill="#999999" stroke="#666666" points="137.5,-78.75 0,-78.75 0,-58 137.5,-58 137.5,-78.75"/>
<text xml:space="preserve" text-anchor="middle" x="68.75" y="-65.25" font-family="Helvetica,sans-Serif" font-size="10.00">PlaneWave::writeEHData</text>
</a>
</g>
</g>
<!-- Node2 -->
<g id="Node000002" class="node">
<title>Node2</title>
<g id="a_Node000002"><a xlink:href="classPlaneWave.html#ade82a6ff2d60f8df4553d51837525a1c" target="_top" xlink:title="Evaluate the electric and magnetic fields at a given position in layered media.">
<polygon fill="white" stroke="#666666" points="331.25,-85.12 173.5,-85.12 173.5,-51.62 331.25,-51.62 331.25,-85.12"/>
<text xml:space="preserve" text-anchor="start" x="181.5" y="-71.62" font-family="Helvetica,sans-Serif" font-size="10.00">PlaneWave::EvaluateLayered</text>
<text xml:space="preserve" text-anchor="middle" x="252.38" y="-58.88" font-family="Helvetica,sans-Serif" font-size="10.00">EandH</text>
</a>
</g>
</g>
<!-- Node1&#45;&gt;Node2 -->
<g id="edge1_Node000001_Node000002" class="edge">
<title>Node1&#45;&gt;Node2</title>
<g id="a_edge1_Node000001_Node000002"><a xlink:title=" ">
<path fill="none" stroke="#63b8ff" d="M137.9,-68.38C145.7,-68.38 153.73,-68.38 161.76,-68.38"/>
<polygon fill="#63b8ff" stroke="#63b8ff" points="161.56,-71.88 171.56,-68.38 161.56,-64.88 161.56,-71.88"/>
</a>
</g>
</g>
<!-- Node3 -->
<g id="Node000003" class="node">
<title>Node3</title>
<g id="a_Node000003"><a xlink:href="classPlaneWave.html#a66641ca1cfa189357ce861df408c1d67" target="_top" xlink:title="Computes the square root of a complex number with proper handling of negative imaginary parts.">
<polygon fill="white" stroke="#666666" points="504.75,-137.75 367.25,-137.75 367.25,-117 504.75,-117 504.75,-137.75"/>
<text xml:space="preserve" text-anchor="middle" x="436" y="-124.25" font-family="Helvetica,sans-Serif" font-size="10.00">PlaneWave::complexSqrt</text>
</a>
</g>
</g>
<!-- Node2&#45;&gt;Node3 -->
<g id="edge2_Node000002_Node000003" class="edge">
<title>Node2&#45;&gt;Node3</title>
<g id="a_edge2_Node000002_Node000003"><a xlink:title=" ">
<path fill="none" stroke="#63b8ff" d="M301.99,-85.54C322.12,-92.51 345.75,-100.52 367.25,-107.38 373.46,-109.35 380.02,-111.38 386.5,-113.33"/>
<polygon fill="#63b8ff" stroke="#63b8ff" points="385.25,-116.61 395.83,-116.12 387.25,-109.9 385.25,-116.61"/>
</a>
</g>
</g>
<!-- Node5 -->
<g id="Node000005" class="node">
<title>Node5</title>
<g id="a_Node000005"><a xlink:href="classPlaneWave.html#a21e80621788fddf887cf27b7c6f9bdf7" target="_top" xlink:title="Evaluate the electric field at a given position (homogeneous).">
<polygon fill="white" stroke="#666666" points="498.38,-98.75 373.62,-98.75 373.62,-78 498.38,-78 498.38,-98.75"/>
<text xml:space="preserve" text-anchor="middle" x="436" y="-85.25" font-family="Helvetica,sans-Serif" font-size="10.00">PlaneWave::EvaluateE</text>
</a>
</g>
</g>
<!-- Node2&#45;&gt;Node5 -->
<g id="edge5_Node000002_Node000005" class="edge">
<title>Node2&#45;&gt;Node5</title>
<g id="a_edge5_Node000002_Node000005"><a xlink:title=" ">
<path fill="none" stroke="#63b8ff" d="M331.72,-77C341.83,-78.12 352.16,-79.25 362.18,-80.36"/>
<polygon fill="#63b8ff" stroke="#63b8ff" points="361.51,-83.8 371.83,-81.42 362.27,-76.85 361.51,-83.8"/>
</a>
</g>
</g>
<!-- Node6 -->
<g id="Node000006" class="node">
<title>Node6</title>
<g id="a_Node000006"><a xlink:href="classPlaneWave.html#a25c1de1e9cee6a241765539a4b22f103" target="_top" xlink:title="Evaluate the magnetic field at a given position (homogeneous).">
<polygon fill="white" stroke="#666666" points="499.12,-59.75 372.88,-59.75 372.88,-39 499.12,-39 499.12,-59.75"/>
<text xml:space="preserve" text-anchor="middle" x="436" y="-46.25" font-family="Helvetica,sans-Serif" font-size="10.00">PlaneWave::EvaluateH</text>
</a>
</g>
</g>
<!-- Node2&#45;&gt;Node6 -->
<g id="edge6_Node000002_Node000006" class="edge">
<title>Node2&#45;&gt;Node6</title>
<g id="a_edge6_Node000002_Node000006"><a xlink:title=" ">
<path fill="none" stroke="#63b8ff" d="M331.72,-60.18C341.52,-59.15 351.51,-58.11 361.24,-57.09"/>
<polygon fill="#63b8ff" stroke="#63b8ff" points="361.42,-60.59 371,-56.07 360.69,-53.63 361.42,-60.59"/>
</a>
</g>
</g>
<!-- Node7 -->
<g id="Node000007" class="node">
<title>Node7</title>
<g id="a_Node000007"><a xlink:href="classPlaneWave.html#aa6b2d336c79c07cf23471fe99642d933" target="_top" xlink:title="Convert rvec to cvec (real vector to complex vector).">
<polygon fill="white" stroke="#666666" points="498.75,-20.75 373.25,-20.75 373.25,0 498.75,0 498.75,-20.75"/>
<text xml:space="preserve" text-anchor="middle" x="436" y="-7.25" font-family="Helvetica,sans-Serif" font-size="10.00">PlaneWave::rvec2cvec</text>
</a>
</g>
</g>
<!-- Node2&#45;&gt;Node7 -->
<g id="edge7_Node000002_Node000007" class="edge">
<title>Node2&#45;&gt;Node7</title>
<g id="a_edge7_Node000002_Node000007"><a xlink:title=" ">
<path fill="none" stroke="#63b8ff" d="M303.7,-51.16C323.47,-44.51 346.37,-36.94 367.25,-30.38 373.47,-28.42 380.03,-26.41 386.52,-24.46"/>
<polygon fill="#63b8ff" stroke="#63b8ff" points="387.27,-27.89 395.85,-21.68 385.27,-21.18 387.27,-27.89"/>
</a>
</g>
</g>
<!-- Node4 -->
<g id="Node000004" class="node">
<title>Node4</title>
<g id="a_Node000004"><a xlink:href="Domain_8cpp.html#aafa3e4fa6318b2f8740f4dbd50c367e5" target="_top" xlink:title="Extract the real part of each component of a complex 3&#45;vector.">
<polygon fill="white" stroke="#666666" points="575.5,-137.75 540.75,-137.75 540.75,-117 575.5,-117 575.5,-137.75"/>
<text xml:space="preserve" text-anchor="middle" x="558.12" y="-124.25" font-family="Helvetica,sans-Serif" font-size="10.00">real</text>
</a>
</g>
</g>
<!-- Node3&#45;&gt;Node4 -->
<g id="edge3_Node000003_Node000004" class="edge">
<title>Node3&#45;&gt;Node4</title>
<g id="a_edge3_Node000003_Node000004"><a xlink:title=" ">
<path fill="none" stroke="#63b8ff" d="M505.14,-127.38C513.55,-127.38 521.75,-127.38 529.05,-127.38"/>
<polygon fill="#63b8ff" stroke="#63b8ff" points="528.87,-130.88 538.87,-127.38 528.87,-123.88 528.87,-130.88"/>
</a>
</g>
</g>
<!-- Node4&#45;&gt;Node4 -->
<g id="edge4_Node000004_Node000004" class="edge">
<title>Node4&#45;&gt;Node4</title>
<g id="a_edge4_Node000004_Node000004"><a xlink:title=" ">
<path fill="none" stroke="#63b8ff" d="M540.26,-136.38C529.75,-145.55 535.7,-155.75 558.12,-155.75 572.14,-155.75 579.72,-151.76 580.87,-146.54"/>
<polygon fill="#63b8ff" stroke="#63b8ff" points="584.13,-145.25 576.65,-137.75 577.82,-148.28 584.13,-145.25"/>
</a>
</g>
</g>
</g>
</svg>
