<?xml version="1.0" encoding="UTF-8" standalone="no"?>
<!DOCTYPE svg PUBLIC "-//W3C//DTD SVG 1.1//EN"
 "http://www.w3.org/Graphics/SVG/1.1/DTD/svg11.dtd">
<!-- Generated by graphviz version 13.1.2 (20250809.0930)
 -->
<!-- Title: SIEFormPMCHW::FillLSEMatrix Pages: 1 -->
<svg width="577pt" height="42pt"
 viewBox="0.00 0.00 577.00 42.00" xmlns="http://www.w3.org/2000/svg" xmlns:xlink="http://www.w3.org/1999/xlink">
<g id="graph0" class="graph" transform="scale(1 1) rotate(0) translate(4 37.5)">
<title>SIEFormPMCHW::FillLSEMatrix</title>
<!-- Node1 -->
<g id="Node000001" class="node">
<title>Node1</title>
<g id="a_Node000001"><a xlink:title="Assemble the PMCHWT system matrix for a homogeneous/layered medium.">
<polygon fill="#999999" stroke="#666666" points="163,-27.12 0,-27.12 0,-6.38 163,-6.38 163,-27.12"/>
<text xml:space="preserve" text-anchor="middle" x="81.5" y="-13.62" font-family="Helvetica,sans-Serif" font-size="10.00">SIEFormPMCHW::FillLSEMatrix</text>
</a>
</g>
</g>
<!-- Node2 -->
<g id="Node000002" class="node">
<title>Node2</title>
<g id="a_Node000002"><a xlink:href="classSIEFormPMCHW.html#aa9f13c8634ee9f20c1839a91da17b4a1" target="_top" xlink:title="Worker for parallel homogeneous/layered media assembly (triangle&#45;group partition).">
<polygon fill="white" stroke="#666666" points="362,-33.5 199,-33.5 199,0 362,0 362,-33.5"/>
<text xml:space="preserve" text-anchor="start" x="207" y="-20" font-family="Helvetica,sans-Serif" font-size="10.00">SIEFormPMCHW::FillLSEMatrix</text>
<text xml:space="preserve" text-anchor="middle" x="280.5" y="-7.25" font-family="Helvetica,sans-Serif" font-size="10.00">Parallel</text>
</a>
</g>
</g>
<!-- Node1&#45;&gt;Node2 -->
<g id="edge1_Node000001_Node000002" class="edge">
<title>Node1&#45;&gt;Node2</title>
<g id="a_edge1_Node000001_Node000002"><a xlink:title=" ">
<path fill="none" stroke="#63b8ff" d="M163.48,-16.75C171.25,-16.75 179.17,-16.75 187.05,-16.75"/>
<polygon fill="#63b8ff" stroke="#63b8ff" points="187,-20.25 197,-16.75 187,-13.25 187,-20.25"/>
</a>
</g>
</g>
<!-- Node3 -->
<g id="Node000003" class="node">
<title>Node3</title>
<g id="a_Node000003"><a xlink:href="classSIEFormPMCHW.html#acae01d25783587fe8197f3b69811b1f7" target="_top" xlink:title="Return the layer index for a 3D position (based on z).">
<polygon fill="white" stroke="#666666" points="569.25,-27.12 398,-27.12 398,-6.38 569.25,-6.38 569.25,-27.12"/>
<text xml:space="preserve" text-anchor="middle" x="483.62" y="-13.62" font-family="Helvetica,sans-Serif" font-size="10.00">SIEFormPMCHW::GetLayerIndex</text>
</a>
</g>
</g>
<!-- Node2&#45;&gt;Node3 -->
<g id="edge2_Node000002_Node000003" class="edge">
<title>Node2&#45;&gt;Node3</title>
<g id="a_edge2_Node000002_Node000003"><a xlink:title=" ">
<path fill="none" stroke="#63b8ff" d="M362.44,-16.75C370.3,-16.75 378.33,-16.75 386.33,-16.75"/>
<polygon fill="#63b8ff" stroke="#63b8ff" points="386.07,-20.25 396.07,-16.75 386.07,-13.25 386.07,-20.25"/>
</a>
</g>
</g>
</g>
</svg>
