<?xml version="1.0" encoding="UTF-8" standalone="no"?>
<!DOCTYPE svg PUBLIC "-//W3C//DTD SVG 1.1//EN"
 "http://www.w3.org/Graphics/SVG/1.1/DTD/svg11.dtd">
<!-- Generated by graphviz version 13.1.2 (20250809.0930)
 -->
<!-- Title: GreenFHom3DPer2D::IntegrateDelta Pages: 1 -->
<svg width="1118pt" height="574pt"
 viewBox="0.00 0.00 1118.00 574.00" xmlns="http://www.w3.org/2000/svg" xmlns:xlink="http://www.w3.org/1999/xlink">
<g id="graph0" class="graph" transform="scale(1 1) rotate(0) translate(4 569.75)">
<title>GreenFHom3DPer2D::IntegrateDelta</title>
<!-- Node1 -->
<g id="Node000001" class="node">
<title>Node1</title>
<g id="a_Node000001"><a xlink:title="term at an observation point.">
<polygon fill="#999999" stroke="#666666" points="167.5,-280.12 0,-280.12 0,-246.62 167.5,-246.62 167.5,-280.12"/>
<text xml:space="preserve" text-anchor="start" x="8" y="-266.62" font-family="Helvetica,sans-Serif" font-size="10.00">GreenFHom3DPer2D::Integrate</text>
<text xml:space="preserve" text-anchor="middle" x="83.75" y="-253.88" font-family="Helvetica,sans-Serif" font-size="10.00">Delta</text>
</a>
</g>
</g>
<!-- Node2 -->
<g id="Node000002" class="node">
<title>Node2</title>
<g id="a_Node000002"><a xlink:href="classTriangle.html#a1d3d08deeb999f339d2e821a877521ba" target="_top" xlink:title="Surface area of the triangle.">
<polygon fill="white" stroke="#666666" points="338.75,-565.75 256,-565.75 256,-545 338.75,-545 338.75,-565.75"/>
<text xml:space="preserve" text-anchor="middle" x="297.38" y="-552.25" font-family="Helvetica,sans-Serif" font-size="10.00">Triangle::Area</text>
</a>
</g>
</g>
<!-- Node1&#45;&gt;Node2 -->
<g id="edge1_Node000001_Node000002" class="edge">
<title>Node1&#45;&gt;Node2</title>
<g id="a_edge1_Node000001_Node000002"><a xlink:title=" ">
<path fill="none" stroke="#63b8ff" d="M86.86,-280.62C93.74,-329.05 120.15,-467.19 203.5,-535.38 215.1,-544.86 230.16,-550.13 244.77,-552.99"/>
<polygon fill="#63b8ff" stroke="#63b8ff" points="243.86,-556.39 254.29,-554.49 244.96,-549.48 243.86,-556.39"/>
</a>
</g>
</g>
<!-- Node3 -->
<g id="Node000003" class="node">
<title>Node3</title>
<g id="a_Node000003"><a xlink:href="classTriangle.html#ab78508a340ec5d345adf114b43563dbf" target="_top" xlink:title="Centroid of the triangle.">
<polygon fill="white" stroke="#666666" points="343.62,-526.75 251.12,-526.75 251.12,-506 343.62,-506 343.62,-526.75"/>
<text xml:space="preserve" text-anchor="middle" x="297.38" y="-513.25" font-family="Helvetica,sans-Serif" font-size="10.00">Triangle::Center</text>
</a>
</g>
</g>
<!-- Node1&#45;&gt;Node3 -->
<g id="edge2_Node000001_Node000003" class="edge">
<title>Node1&#45;&gt;Node3</title>
<g id="a_edge2_Node000001_Node000003"><a xlink:title=" ">
<path fill="none" stroke="#63b8ff" d="M88.16,-280.36C97.8,-323.79 129.55,-439.48 203.5,-496.38 213.91,-504.39 226.84,-509.35 239.71,-512.38"/>
<polygon fill="#63b8ff" stroke="#63b8ff" points="238.96,-515.8 249.45,-514.29 240.31,-508.94 238.96,-515.8"/>
</a>
</g>
</g>
<!-- Node4 -->
<g id="Node000004" class="node">
<title>Node4</title>
<g id="a_Node000004"><a xlink:href="classRWGFun.html#a7540ce2f84c6b42a29c2808504c47d42" target="_top" xlink:title="Evaluate the RWG vector shape function at a point on the triangle.">
<polygon fill="white" stroke="#666666" points="350.38,-487.75 244.38,-487.75 244.38,-467 350.38,-467 350.38,-487.75"/>
<text xml:space="preserve" text-anchor="middle" x="297.38" y="-474.25" font-family="Helvetica,sans-Serif" font-size="10.00">RWGFun::Evaluate</text>
</a>
</g>
</g>
<!-- Node1&#45;&gt;Node4 -->
<g id="edge3_Node000001_Node000004" class="edge">
<title>Node1&#45;&gt;Node4</title>
<g id="a_edge3_Node000001_Node000004"><a xlink:title=" ">
<path fill="none" stroke="#63b8ff" d="M89.91,-280.45C102.47,-318.94 138.49,-412.67 203.5,-458.38 212.29,-464.56 222.64,-468.82 233.19,-471.74"/>
<polygon fill="#63b8ff" stroke="#63b8ff" points="232.18,-475.1 242.71,-473.98 233.78,-468.29 232.18,-475.1"/>
</a>
</g>
</g>
<!-- Node5 -->
<g id="Node000005" class="node">
<title>Node5</title>
<g id="a_Node000005"><a xlink:href="classGreenFHom3DPer2D.html#ab49a15bcfe7b44d2338c9182f003d385" target="_top" xlink:title="Evaluate &#160;(smoothed) for a translation in one call.">
<polygon fill="white" stroke="#666666" points="389.38,-449.12 205.38,-449.12 205.38,-415.62 389.38,-415.62 389.38,-449.12"/>
<text xml:space="preserve" text-anchor="start" x="213.38" y="-435.62" font-family="Helvetica,sans-Serif" font-size="10.00">GreenFHom3DPer2D::Evaluateand</text>
<text xml:space="preserve" text-anchor="middle" x="297.38" y="-422.88" font-family="Helvetica,sans-Serif" font-size="10.00">GradientSmoothedTranslate</text>
</a>
</g>
</g>
<!-- Node1&#45;&gt;Node5 -->
<g id="edge4_Node000001_Node000005" class="edge">
<title>Node1&#45;&gt;Node5</title>
<g id="a_edge4_Node000001_Node000005"><a xlink:title=" ">
<path fill="none" stroke="#63b8ff" d="M94.1,-280.34C111.56,-310.4 152.06,-373.01 203.5,-406.38 205.61,-407.74 207.8,-409.04 210.04,-410.27"/>
<polygon fill="#63b8ff" stroke="#63b8ff" points="208.29,-413.32 218.81,-414.58 211.38,-407.03 208.29,-413.32"/>
</a>
</g>
</g>
<!-- Node13 -->
<g id="Node000013" class="node">
<title>Node13</title>
<g id="a_Node000013"><a xlink:href="classGreenFHom3DPer2D.html#aea4d858bd544ba5e9a8de1197b572b4e" target="_top" xlink:title="Evaluate &#160;for a translation in one call.">
<polygon fill="white" stroke="#666666" points="389.38,-397.12 205.38,-397.12 205.38,-363.62 389.38,-363.62 389.38,-397.12"/>
<text xml:space="preserve" text-anchor="start" x="213.38" y="-383.62" font-family="Helvetica,sans-Serif" font-size="10.00">GreenFHom3DPer2D::Evaluateand</text>
<text xml:space="preserve" text-anchor="middle" x="297.38" y="-370.88" font-family="Helvetica,sans-Serif" font-size="10.00">GradientTranslate</text>
</a>
</g>
</g>
<!-- Node1&#45;&gt;Node13 -->
<g id="edge15_Node000001_Node000013" class="edge">
<title>Node1&#45;&gt;Node13</title>
<g id="a_edge15_Node000001_Node000013"><a xlink:title=" ">
<path fill="none" stroke="#63b8ff" d="M102.58,-280.6C124.6,-300.98 164,-334.64 203.5,-354.38 206.8,-356.02 210.21,-357.58 213.7,-359.05"/>
<polygon fill="#63b8ff" stroke="#63b8ff" points="212.35,-362.27 222.94,-362.64 214.89,-355.75 212.35,-362.27"/>
</a>
</g>
</g>
<!-- Node15 -->
<g id="Node000015" class="node">
<title>Node15</title>
<g id="a_Node000015"><a xlink:href="classGreenFHom3DPer2D.html#a6e7bfc8640c70e6dfaa9f8e14cb916ea" target="_top" xlink:title="Constructor for a non&#45;magnetic medium (2D periodic).">
<polygon fill="white" stroke="#666666" points="391.25,-345.12 203.5,-345.12 203.5,-311.62 391.25,-311.62 391.25,-345.12"/>
<text xml:space="preserve" text-anchor="start" x="211.5" y="-331.62" font-family="Helvetica,sans-Serif" font-size="10.00">GreenFHom3DPer2D::GreenFHom3</text>
<text xml:space="preserve" text-anchor="middle" x="297.38" y="-318.88" font-family="Helvetica,sans-Serif" font-size="10.00">DPer2D</text>
</a>
</g>
</g>
<!-- Node1&#45;&gt;Node15 -->
<g id="edge19_Node000001_Node000015" class="edge">
<title>Node1&#45;&gt;Node15</title>
<g id="a_edge19_Node000001_Node000015"><a xlink:title=" ">
<path fill="none" stroke="#63b8ff" d="M135.45,-280.57C156.44,-287.55 181.08,-295.56 203.5,-302.38 209.66,-304.25 216.06,-306.14 222.49,-308.01"/>
<polygon fill="#63b8ff" stroke="#63b8ff" points="221.28,-311.31 231.86,-310.71 223.22,-304.58 221.28,-311.31"/>
</a>
</g>
</g>
<!-- Node23 -->
<g id="Node000023" class="node">
<title>Node23</title>
<g id="a_Node000023"><a xlink:href="classSingSub.html#aed0bb257cd3c94dccd5b6cc0ecdd1c5e" target="_top" xlink:title="K2(q) vector term.">
<polygon fill="white" stroke="#666666" points="334.25,-293.75 260.5,-293.75 260.5,-273 334.25,-273 334.25,-293.75"/>
<text xml:space="preserve" text-anchor="middle" x="297.38" y="-280.25" font-family="Helvetica,sans-Serif" font-size="10.00">SingSub::K2</text>
</a>
</g>
</g>
<!-- Node1&#45;&gt;Node23 -->
<g id="edge28_Node000001_Node000023" class="edge">
<title>Node1&#45;&gt;Node23</title>
<g id="a_edge28_Node000001_Node000023"><a xlink:title=" ">
<path fill="none" stroke="#63b8ff" d="M167.78,-271.22C195.35,-273.83 225.08,-276.64 249,-278.9"/>
<polygon fill="#63b8ff" stroke="#63b8ff" points="248.45,-282.36 258.74,-279.82 249.11,-275.39 248.45,-282.36"/>
</a>
</g>
</g>
<!-- Node24 -->
<g id="Node000024" class="node">
<title>Node24</title>
<g id="a_Node000024"><a xlink:href="classSingSub.html#a3e9e0b5a61df98d8f8138544c7df3da0" target="_top" xlink:title="K3(q) vector term.">
<polygon fill="white" stroke="#666666" points="334.25,-254.75 260.5,-254.75 260.5,-234 334.25,-234 334.25,-254.75"/>
<text xml:space="preserve" text-anchor="middle" x="297.38" y="-241.25" font-family="Helvetica,sans-Serif" font-size="10.00">SingSub::K3</text>
</a>
</g>
</g>
<!-- Node1&#45;&gt;Node24 -->
<g id="edge29_Node000001_Node000024" class="edge">
<title>Node1&#45;&gt;Node24</title>
<g id="a_edge29_Node000001_Node000024"><a xlink:title=" ">
<path fill="none" stroke="#63b8ff" d="M167.78,-255.92C195.35,-253.45 225.08,-250.78 249,-248.63"/>
<polygon fill="#63b8ff" stroke="#63b8ff" points="249.09,-252.13 258.74,-247.75 248.46,-245.16 249.09,-252.13"/>
</a>
</g>
</g>
<!-- Node25 -->
<g id="Node000025" class="node">
<title>Node25</title>
<g id="a_Node000025"><a xlink:href="classTriangle.html#a0752d2c9488c7c44b851b8f75abcaa79" target="_top" xlink:title="Node position (by value) for local index 0..2.">
<polygon fill="white" stroke="#666666" points="340.25,-215.75 254.5,-215.75 254.5,-195 340.25,-195 340.25,-215.75"/>
<text xml:space="preserve" text-anchor="middle" x="297.38" y="-202.25" font-family="Helvetica,sans-Serif" font-size="10.00">Triangle::Node</text>
</a>
</g>
</g>
<!-- Node1&#45;&gt;Node25 -->
<g id="edge30_Node000001_Node000025" class="edge">
<title>Node1&#45;&gt;Node25</title>
<g id="a_edge30_Node000001_Node000025"><a xlink:title=" ">
<path fill="none" stroke="#63b8ff" d="M134.7,-246.2C155.79,-239.25 180.7,-231.46 203.5,-225.38 216.19,-221.99 229.98,-218.77 242.95,-215.95"/>
<polygon fill="#63b8ff" stroke="#63b8ff" points="243.56,-219.39 252.61,-213.89 242.1,-212.55 243.56,-219.39"/>
</a>
</g>
</g>
<!-- Node26 -->
<g id="Node000026" class="node">
<title>Node26</title>
<g id="a_Node000026"><a xlink:href="classTriangle.html#a6e7daa074db3d147b33763bfd2a6e83b" target="_top" xlink:title="Perimeter (sum of edge lengths).">
<polygon fill="white" stroke="#666666" points="351.5,-176.75 243.25,-176.75 243.25,-156 351.5,-156 351.5,-176.75"/>
<text xml:space="preserve" text-anchor="middle" x="297.38" y="-163.25" font-family="Helvetica,sans-Serif" font-size="10.00">Triangle::Perimeter</text>
</a>
</g>
</g>
<!-- Node1&#45;&gt;Node26 -->
<g id="edge31_Node000001_Node000026" class="edge">
<title>Node1&#45;&gt;Node26</title>
<g id="a_edge31_Node000001_Node000026"><a xlink:title=" ">
<path fill="none" stroke="#63b8ff" d="M105.74,-246.36C128.48,-228.75 166.51,-201.74 203.5,-186.38 212.46,-182.65 222.22,-179.58 231.92,-177.07"/>
<polygon fill="#63b8ff" stroke="#63b8ff" points="232.43,-180.54 241.33,-174.8 230.79,-173.74 232.43,-180.54"/>
</a>
</g>
</g>
<!-- Node27 -->
<g id="Node000027" class="node">
<title>Node27</title>
<g id="a_Node000027"><a xlink:href="classGreenFHom3DPer2D.html#a098b4d59dde268718483b4ac9906e446" target="_top" xlink:title="Map a displacement to the primitive cell.">
<polygon fill="white" stroke="#666666" points="390.5,-137.75 204.25,-137.75 204.25,-117 390.5,-117 390.5,-137.75"/>
<text xml:space="preserve" text-anchor="middle" x="297.38" y="-124.25" font-family="Helvetica,sans-Serif" font-size="10.00">GreenFHom3DPer2D::PrimitiveCell</text>
</a>
</g>
</g>
<!-- Node1&#45;&gt;Node27 -->
<g id="edge32_Node000001_Node000027" class="edge">
<title>Node1&#45;&gt;Node27</title>
<g id="a_edge32_Node000001_Node000027"><a xlink:title=" ">
<path fill="none" stroke="#63b8ff" d="M96.88,-246.54C116.32,-220.88 157.04,-172.33 203.5,-147.38 207.21,-145.38 211.09,-143.59 215.09,-141.98"/>
<polygon fill="#63b8ff" stroke="#63b8ff" points="216.23,-145.29 224.46,-138.62 213.86,-138.7 216.23,-145.29"/>
</a>
</g>
</g>
<!-- Node28 -->
<g id="Node000028" class="node">
<title>Node28</title>
<g id="a_Node000028"><a xlink:href="classRWGFun.html#a7cd7779305937d48196453e53d0d4df8" target="_top" xlink:title="Return L_n / A_n (missing factor 1/2 by convention).">
<polygon fill="white" stroke="#666666" points="363.5,-98.75 231.25,-98.75 231.25,-78 363.5,-78 363.5,-98.75"/>
<text xml:space="preserve" text-anchor="middle" x="297.38" y="-85.25" font-family="Helvetica,sans-Serif" font-size="10.00">RWGFun::RWGPreFactor</text>
</a>
</g>
</g>
<!-- Node1&#45;&gt;Node28 -->
<g id="edge33_Node000001_Node000028" class="edge">
<title>Node1&#45;&gt;Node28</title>
<g id="a_edge33_Node000001_Node000028"><a xlink:title=" ">
<path fill="none" stroke="#63b8ff" d="M92.74,-246.19C108.8,-213.7 148.23,-143.38 203.5,-108.38 208.73,-105.07 214.41,-102.3 220.31,-99.98"/>
<polygon fill="#63b8ff" stroke="#63b8ff" points="221.36,-103.32 229.68,-96.77 219.09,-96.7 221.36,-103.32"/>
</a>
</g>
</g>
<!-- Node29 -->
<g id="Node000029" class="node">
<title>Node29</title>
<g id="a_Node000029"><a xlink:href="classSingSub.html#a20337fe20529d26c1775c8ba6d47cad0" target="_top" xlink:title="Preferred initialization that fills all cached arrays (ILar/ISar).">
<polygon fill="white" stroke="#666666" points="366.88,-59.75 227.88,-59.75 227.88,-39 366.88,-39 366.88,-59.75"/>
<text xml:space="preserve" text-anchor="middle" x="297.38" y="-46.25" font-family="Helvetica,sans-Serif" font-size="10.00">SingSub::SetTriangleRWG</text>
</a>
</g>
</g>
<!-- Node1&#45;&gt;Node29 -->
<g id="edge34_Node000001_Node000029" class="edge">
<title>Node1&#45;&gt;Node29</title>
<g id="a_edge34_Node000001_Node000029"><a xlink:title=" ">
<path fill="none" stroke="#63b8ff" d="M90.06,-246.14C102.83,-207.77 139.07,-115.06 203.5,-69.38 207.7,-66.4 212.26,-63.85 217.02,-61.67"/>
<polygon fill="#63b8ff" stroke="#63b8ff" points="218.29,-64.93 226.32,-58.01 215.73,-58.41 218.29,-64.93"/>
</a>
</g>
</g>
<!-- Node30 -->
<g id="Node000030" class="node">
<title>Node30</title>
<g id="a_Node000030"><a xlink:href="classRWGFun.html#a6d9c854fc60bc02cb51ffb60cf388ccc" target="_top" xlink:title="Get the pointer to the owner Triangle.">
<polygon fill="white" stroke="#666666" points="354.88,-20.75 239.88,-20.75 239.88,0 354.88,0 354.88,-20.75"/>
<text xml:space="preserve" text-anchor="middle" x="297.38" y="-7.25" font-family="Helvetica,sans-Serif" font-size="10.00">RWGFun::TrianglePtr</text>
</a>
</g>
</g>
<!-- Node1&#45;&gt;Node30 -->
<g id="edge35_Node000001_Node000030" class="edge">
<title>Node1&#45;&gt;Node30</title>
<g id="a_edge35_Node000001_Node000030"><a xlink:title=" ">
<path fill="none" stroke="#63b8ff" d="M88.16,-246.39C97.8,-202.96 129.55,-87.27 203.5,-30.38 210.84,-24.73 219.43,-20.59 228.37,-17.58"/>
<polygon fill="#63b8ff" stroke="#63b8ff" points="229.27,-20.97 237.93,-14.86 227.35,-14.23 229.27,-20.97"/>
</a>
</g>
</g>
<!-- Node6 -->
<g id="Node000006" class="node">
<title>Node6</title>
<g id="a_Node000006"><a xlink:href="classGreenFHom3DPer2D.html#af034587a03115087737a86ed71b664f4" target="_top" xlink:title="Spatial part returning .">
<polygon fill="white" stroke="#666666" points="611.62,-504.12 440.38,-504.12 440.38,-470.62 611.62,-470.62 611.62,-504.12"/>
<text xml:space="preserve" text-anchor="start" x="448.38" y="-490.62" font-family="Helvetica,sans-Serif" font-size="10.00">GreenFHom3DPer2D::EwaldAnd</text>
<text xml:space="preserve" text-anchor="middle" x="526" y="-477.88" font-family="Helvetica,sans-Serif" font-size="10.00">GradientSpatialSmoothed</text>
</a>
</g>
</g>
<!-- Node5&#45;&gt;Node6 -->
<g id="edge5_Node000005_Node000006" class="edge">
<title>Node5&#45;&gt;Node6</title>
<g id="a_edge5_Node000005_Node000006"><a xlink:title=" ">
<path fill="none" stroke="#63b8ff" d="M369.15,-449.55C392.57,-455.24 418.84,-461.61 443.03,-467.48"/>
<polygon fill="#63b8ff" stroke="#63b8ff" points="441.97,-470.83 452.51,-469.78 443.62,-464.02 441.97,-470.83"/>
</a>
</g>
</g>
<!-- Node11 -->
<g id="Node000011" class="node">
<title>Node11</title>
<g id="a_Node000011"><a xlink:href="classGreenFHom3DPer2D.html#a025f6ce600bdd42ae02716905c75ba66" target="_top" xlink:title="Spectral part returning .">
<polygon fill="white" stroke="#666666" points="611.62,-400.12 440.38,-400.12 440.38,-366.62 611.62,-366.62 611.62,-400.12"/>
<text xml:space="preserve" text-anchor="start" x="448.38" y="-386.62" font-family="Helvetica,sans-Serif" font-size="10.00">GreenFHom3DPer2D::EwaldAnd</text>
<text xml:space="preserve" text-anchor="middle" x="526" y="-373.88" font-family="Helvetica,sans-Serif" font-size="10.00">GradientSpectral</text>
</a>
</g>
</g>
<!-- Node5&#45;&gt;Node11 -->
<g id="edge11_Node000005_Node000011" class="edge">
<title>Node5&#45;&gt;Node11</title>
<g id="a_edge11_Node000005_Node000011"><a xlink:title=" ">
<path fill="none" stroke="#63b8ff" d="M377.96,-415.17C396.1,-411.24 415.52,-407.05 434.1,-403.03"/>
<polygon fill="#63b8ff" stroke="#63b8ff" points="434.71,-406.48 443.75,-400.94 433.23,-399.64 434.71,-406.48"/>
</a>
</g>
</g>
<!-- Node7 -->
<g id="Node000007" class="node">
<title>Node7</title>
<g id="a_Node000007"><a xlink:href="classGreenF.html#abf00726011a4eca4109bc43125218d30" target="_top" xlink:title="Evaluate erfc via the 2D lookup table if available.">
<polygon fill="white" stroke="#666666" points="791.5,-447.75 704.25,-447.75 704.25,-427 791.5,-427 791.5,-447.75"/>
<text xml:space="preserve" text-anchor="middle" x="747.88" y="-434.25" font-family="Helvetica,sans-Serif" font-size="10.00">GreenF::EvErfc</text>
</a>
</g>
</g>
<!-- Node6&#45;&gt;Node7 -->
<g id="edge6_Node000006_Node000007" class="edge">
<title>Node6&#45;&gt;Node7</title>
<g id="a_edge6_Node000006_Node000007"><a xlink:title=" ">
<path fill="none" stroke="#63b8ff" d="M602.67,-470.17C632.23,-463.44 665.47,-455.89 692.58,-449.72"/>
<polygon fill="#63b8ff" stroke="#63b8ff" points="693.34,-453.14 702.32,-447.51 691.79,-446.31 693.34,-453.14"/>
</a>
</g>
</g>
<!-- Node8 -->
<g id="Node000008" class="node">
<title>Node8</title>
<g id="a_Node000008"><a xlink:href="mathFunctions_8cpp.html#a7916c6b62310fe9cf38ec2a2890aaad4" target="_top" xlink:title="Complementary error function for complex arguments.">
<polygon fill="white" stroke="#666666" points="936.88,-485.75 896.88,-485.75 896.88,-465 936.88,-465 936.88,-485.75"/>
<text xml:space="preserve" text-anchor="middle" x="916.88" y="-472.25" font-family="Helvetica,sans-Serif" font-size="10.00">cerfc</text>
</a>
</g>
</g>
<!-- Node7&#45;&gt;Node8 -->
<g id="edge7_Node000007_Node000008" class="edge">
<title>Node7&#45;&gt;Node8</title>
<g id="a_edge7_Node000007_Node000008"><a xlink:title=" ">
<path fill="none" stroke="#63b8ff" d="M791.88,-447.16C821.21,-453.84 859.34,-462.51 885.53,-468.47"/>
<polygon fill="#63b8ff" stroke="#63b8ff" points="884.65,-471.86 895.17,-470.66 886.2,-465.03 884.65,-471.86"/>
</a>
</g>
</g>
<!-- Node10 -->
<g id="Node000010" class="node">
<title>Node10</title>
<g id="a_Node000010"><a xlink:href="Domain_8cpp.html#aafa3e4fa6318b2f8740f4dbd50c367e5" target="_top" xlink:title="Extract the real part of each component of a complex 3&#45;vector.">
<polygon fill="white" stroke="#666666" points="1109.5,-428.75 1074.75,-428.75 1074.75,-408 1109.5,-408 1109.5,-428.75"/>
<text xml:space="preserve" text-anchor="middle" x="1092.12" y="-415.25" font-family="Helvetica,sans-Serif" font-size="10.00">real</text>
</a>
</g>
</g>
<!-- Node7&#45;&gt;Node10 -->
<g id="edge9_Node000007_Node000010" class="edge">
<title>Node7&#45;&gt;Node10</title>
<g id="a_edge9_Node000007_Node000010"><a xlink:title=" ">
<path fill="none" stroke="#63b8ff" d="M791.87,-434.99C863.09,-431.03 1003.58,-423.24 1063.26,-419.92"/>
<polygon fill="#63b8ff" stroke="#63b8ff" points="1063.09,-423.44 1072.88,-419.39 1062.7,-416.45 1063.09,-423.44"/>
</a>
</g>
</g>
<!-- Node9 -->
<g id="Node000009" class="node">
<title>Node9</title>
<g id="a_Node000009"><a xlink:href="mathFunctions_8cpp.html#abc57cde75234d7e165a9ebcdb45f2c29" target="_top" xlink:title="Error function for complex arguments.">
<polygon fill="white" stroke="#666666" points="1036.12,-485.75 1001.38,-485.75 1001.38,-465 1036.12,-465 1036.12,-485.75"/>
<text xml:space="preserve" text-anchor="middle" x="1018.75" y="-472.25" font-family="Helvetica,sans-Serif" font-size="10.00">cerf</text>
</a>
</g>
</g>
<!-- Node8&#45;&gt;Node9 -->
<g id="edge8_Node000008_Node000009" class="edge">
<title>Node8&#45;&gt;Node9</title>
<g id="a_edge8_Node000008_Node000009"><a xlink:title=" ">
<path fill="none" stroke="#63b8ff" d="M937.13,-475.38C952,-475.38 972.8,-475.38 989.54,-475.38"/>
<polygon fill="#63b8ff" stroke="#63b8ff" points="989.36,-478.88 999.36,-475.38 989.36,-471.88 989.36,-478.88"/>
</a>
</g>
</g>
<!-- Node10&#45;&gt;Node10 -->
<g id="edge10_Node000010_Node000010" class="edge">
<title>Node10&#45;&gt;Node10</title>
<g id="a_edge10_Node000010_Node000010"><a xlink:title=" ">
<path fill="none" stroke="#63b8ff" d="M1080.3,-429.15C1075.57,-437.81 1079.51,-446.75 1092.12,-446.75 1098.82,-446.75 1103.08,-444.23 1104.88,-440.56"/>
<polygon fill="#63b8ff" stroke="#63b8ff" points="1108.38,-440.34 1104.07,-430.66 1101.4,-440.91 1108.38,-440.34"/>
</a>
</g>
</g>
<!-- Node11&#45;&gt;Node7 -->
<g id="edge14_Node000011_Node000007" class="edge">
<title>Node11&#45;&gt;Node7</title>
<g id="a_edge14_Node000011_Node000007"><a xlink:title=" ">
<path fill="none" stroke="#63b8ff" d="M597.17,-400.61C628.13,-408.21 663.95,-417.01 692.78,-424.09"/>
<polygon fill="#63b8ff" stroke="#63b8ff" points="691.85,-427.47 702.4,-426.45 693.52,-420.67 691.85,-427.47"/>
</a>
</g>
</g>
<!-- Node12 -->
<g id="Node000012" class="node">
<title>Node12</title>
<g id="a_Node000012"><a xlink:href="group__greenFunction.html#gac0a52dce23be7dacdf97c68653b6c137" target="_top" xlink:title="Complex square root with a branch cut along the negative real axis.">
<polygon fill="white" stroke="#666666" points="1038.75,-409.75 998.75,-409.75 998.75,-389 1038.75,-389 1038.75,-409.75"/>
<text xml:space="preserve" text-anchor="middle" x="1018.75" y="-396.25" font-family="Helvetica,sans-Serif" font-size="10.00">csqrt</text>
</a>
</g>
</g>
<!-- Node11&#45;&gt;Node12 -->
<g id="edge12_Node000011_Node000012" class="edge">
<title>Node11&#45;&gt;Node12</title>
<g id="a_edge12_Node000011_Node000012"><a xlink:title=" ">
<path fill="none" stroke="#63b8ff" d="M611.92,-386.14C723.4,-389.78 913.58,-395.98 987.3,-398.38"/>
<polygon fill="#63b8ff" stroke="#63b8ff" points="986.87,-401.87 996.98,-398.7 987.1,-394.87 986.87,-401.87"/>
</a>
</g>
</g>
<!-- Node12&#45;&gt;Node10 -->
<g id="edge13_Node000012_Node000010" class="edge">
<title>Node12&#45;&gt;Node10</title>
<g id="a_edge13_Node000012_Node000010"><a xlink:title=" ">
<path fill="none" stroke="#63b8ff" d="M1038.88,-404.47C1046.4,-406.47 1055.18,-408.81 1063.38,-410.99"/>
<polygon fill="#63b8ff" stroke="#63b8ff" points="1062.35,-414.34 1072.91,-413.53 1064.15,-407.57 1062.35,-414.34"/>
</a>
</g>
</g>
<!-- Node13&#45;&gt;Node11 -->
<g id="edge18_Node000013_Node000011" class="edge">
<title>Node13&#45;&gt;Node11</title>
<g id="a_edge18_Node000013_Node000011"><a xlink:title=" ">
<path fill="none" stroke="#63b8ff" d="M389.57,-381.58C402.51,-381.75 415.85,-381.93 428.87,-382.1"/>
<polygon fill="#63b8ff" stroke="#63b8ff" points="428.67,-385.6 438.71,-382.23 428.76,-378.6 428.67,-385.6"/>
</a>
</g>
</g>
<!-- Node14 -->
<g id="Node000014" class="node">
<title>Node14</title>
<g id="a_Node000014"><a xlink:href="classGreenFHom3DPer2D.html#ad219414131e33eb361fe2240be9612a0" target="_top" xlink:title="Spatial part returning both normal and gradient.">
<polygon fill="white" stroke="#666666" points="611.62,-452.12 440.38,-452.12 440.38,-418.62 611.62,-418.62 611.62,-452.12"/>
<text xml:space="preserve" text-anchor="start" x="448.38" y="-438.62" font-family="Helvetica,sans-Serif" font-size="10.00">GreenFHom3DPer2D::EwaldAnd</text>
<text xml:space="preserve" text-anchor="middle" x="526" y="-425.88" font-family="Helvetica,sans-Serif" font-size="10.00">GradientSpatial</text>
</a>
</g>
</g>
<!-- Node13&#45;&gt;Node14 -->
<g id="edge16_Node000013_Node000014" class="edge">
<title>Node13&#45;&gt;Node14</title>
<g id="a_edge16_Node000013_Node000014"><a xlink:title=" ">
<path fill="none" stroke="#63b8ff" d="M369.15,-397.55C392.57,-403.24 418.84,-409.61 443.03,-415.48"/>
<polygon fill="#63b8ff" stroke="#63b8ff" points="441.97,-418.83 452.51,-417.78 443.62,-412.02 441.97,-418.83"/>
</a>
</g>
</g>
<!-- Node14&#45;&gt;Node7 -->
<g id="edge17_Node000014_Node000007" class="edge">
<title>Node14&#45;&gt;Node7</title>
<g id="a_edge17_Node000014_Node000007"><a xlink:title=" ">
<path fill="none" stroke="#63b8ff" d="M612.01,-436.15C639.01,-436.39 668.13,-436.66 692.38,-436.88"/>
<polygon fill="#63b8ff" stroke="#63b8ff" points="692.31,-440.38 702.34,-436.97 692.38,-433.38 692.31,-440.38"/>
</a>
</g>
</g>
<!-- Node16 -->
<g id="Node000016" class="node">
<title>Node16</title>
<g id="a_Node000016"><a xlink:href="classGreenFHom3DPer.html#a414d2e05ac1b3d089e2a5556e6e16a93" target="_top" xlink:title="Homogeneous, non‑magnetic constructor with Bloch vector.">
<polygon fill="white" stroke="#666666" points="624.75,-273.75 427.25,-273.75 427.25,-253 624.75,-253 624.75,-273.75"/>
<text xml:space="preserve" text-anchor="middle" x="526" y="-260.25" font-family="Helvetica,sans-Serif" font-size="10.00">GreenFHom3DPer::GreenFHom3DPer</text>
</a>
</g>
</g>
<!-- Node15&#45;&gt;Node16 -->
<g id="edge20_Node000015_Node000016" class="edge">
<title>Node15&#45;&gt;Node16</title>
<g id="a_edge20_Node000015_Node000016"><a xlink:title=" ">
<path fill="none" stroke="#63b8ff" d="M360.35,-311.13C370.67,-308.22 381.27,-305.23 391.25,-302.38 419.81,-294.21 451.76,-284.9 477.26,-277.43"/>
<polygon fill="#63b8ff" stroke="#63b8ff" points="478.07,-280.84 486.68,-274.67 476.1,-274.12 478.07,-280.84"/>
</a>
</g>
</g>
<!-- Node19 -->
<g id="Node000019" class="node">
<title>Node19</title>
<g id="a_Node000019"><a xlink:href="classGreenFHom3DPer2D.html#a3160d2ff20a3ec478d2fb6e9b72cf79d" target="_top" xlink:title="Common initialization: set lookup flags, build reciprocal lattice, project k, choose Ewald parameter.">
<polygon fill="white" stroke="#666666" points="595.5,-337.75 456.5,-337.75 456.5,-317 595.5,-317 595.5,-337.75"/>
<text xml:space="preserve" text-anchor="middle" x="526" y="-324.25" font-family="Helvetica,sans-Serif" font-size="10.00">GreenFHom3DPer2D::Init</text>
</a>
</g>
</g>
<!-- Node15&#45;&gt;Node19 -->
<g id="edge24_Node000015_Node000019" class="edge">
<title>Node15&#45;&gt;Node19</title>
<g id="a_edge24_Node000015_Node000019"><a xlink:title=" ">
<path fill="none" stroke="#63b8ff" d="M391.53,-327.96C409.26,-327.89 427.66,-327.8 444.94,-327.73"/>
<polygon fill="#63b8ff" stroke="#63b8ff" points="444.61,-331.23 454.6,-327.69 444.58,-324.23 444.61,-331.23"/>
</a>
</g>
</g>
<!-- Node17 -->
<g id="Node000017" class="node">
<title>Node17</title>
<g id="a_Node000017"><a xlink:href="classGreenFHom3D.html#ac928f16e6e79c75c002d9a721a8858d8" target="_top" xlink:title="Default constructor (initializes with zeroed wavenumber and no lookup table).">
<polygon fill="white" stroke="#666666" points="830.88,-242.75 664.88,-242.75 664.88,-222 830.88,-222 830.88,-242.75"/>
<text xml:space="preserve" text-anchor="middle" x="747.88" y="-229.25" font-family="Helvetica,sans-Serif" font-size="10.00">GreenFHom3D::GreenFHom3D</text>
</a>
</g>
</g>
<!-- Node16&#45;&gt;Node17 -->
<g id="edge21_Node000016_Node000017" class="edge">
<title>Node16&#45;&gt;Node17</title>
<g id="a_edge21_Node000016_Node000017"><a xlink:title=" ">
<path fill="none" stroke="#63b8ff" d="M603.9,-252.53C621.64,-250.03 640.65,-247.35 658.83,-244.79"/>
<polygon fill="#63b8ff" stroke="#63b8ff" points="659.1,-248.28 668.52,-243.42 658.13,-241.35 659.1,-248.28"/>
</a>
</g>
</g>
<!-- Node18 -->
<g id="Node000018" class="node">
<title>Node18</title>
<g id="a_Node000018"><a xlink:href="classGreenF.html#a332ac24f39288170f77c18f37fde2c82" target="_top" xlink:title="Constructor for a homogeneous, non&#45;magnetic medium.">
<polygon fill="white" stroke="#666666" points="962.75,-307.75 871,-307.75 871,-287 962.75,-287 962.75,-307.75"/>
<text xml:space="preserve" text-anchor="middle" x="916.88" y="-294.25" font-family="Helvetica,sans-Serif" font-size="10.00">GreenF::GreenF</text>
</a>
</g>
</g>
<!-- Node17&#45;&gt;Node18 -->
<g id="edge22_Node000017_Node000018" class="edge">
<title>Node17&#45;&gt;Node18</title>
<g id="a_edge22_Node000017_Node000018"><a xlink:title=" ">
<path fill="none" stroke="#63b8ff" d="M808.87,-243.17C817.76,-245.47 826.71,-248.19 835,-251.38 854.66,-258.94 875.28,-270.73 890.78,-280.49"/>
<polygon fill="#63b8ff" stroke="#63b8ff" points="888.59,-283.24 898.89,-285.72 892.39,-277.36 888.59,-283.24"/>
</a>
</g>
</g>
<!-- Node18&#45;&gt;Node12 -->
<g id="edge23_Node000018_Node000012" class="edge">
<title>Node18&#45;&gt;Node12</title>
<g id="a_edge23_Node000018_Node000012"><a xlink:title=" ">
<path fill="none" stroke="#63b8ff" d="M928.19,-307.91C945.01,-325.09 978.57,-359.36 999.49,-380.73"/>
<polygon fill="#63b8ff" stroke="#63b8ff" points="996.79,-382.97 1006.29,-387.67 1001.79,-378.07 996.79,-382.97"/>
</a>
</g>
</g>
<!-- Node20 -->
<g id="Node000020" class="node">
<title>Node20</title>
<g id="a_Node000020"><a xlink:href="classGreenFHom3DPer.html#a8b1a5f0f63af1baf32caeebbf9b33170" target="_top" xlink:title="Set the number of periodic evaluation terms to accumulate.">
<polygon fill="white" stroke="#666666" points="828.62,-294.12 667.12,-294.12 667.12,-260.62 828.62,-260.62 828.62,-294.12"/>
<text xml:space="preserve" text-anchor="start" x="675.12" y="-280.62" font-family="Helvetica,sans-Serif" font-size="10.00">GreenFHom3DPer::Evaluation</text>
<text xml:space="preserve" text-anchor="middle" x="747.88" y="-267.88" font-family="Helvetica,sans-Serif" font-size="10.00">Terms</text>
</a>
</g>
</g>
<!-- Node19&#45;&gt;Node20 -->
<g id="edge25_Node000019_Node000020" class="edge">
<title>Node19&#45;&gt;Node20</title>
<g id="a_edge25_Node000019_Node000020"><a xlink:title=" ">
<path fill="none" stroke="#63b8ff" d="M574.71,-316.53C599.68,-310.85 631.05,-303.71 660.14,-297.1"/>
<polygon fill="#63b8ff" stroke="#63b8ff" points="660.71,-300.56 669.68,-294.93 659.16,-293.73 660.71,-300.56"/>
</a>
</g>
</g>
<!-- Node21 -->
<g id="Node000021" class="node">
<title>Node21</title>
<g id="a_Node000021"><a xlink:href="classGreenFHom3DPer2D.html#a07235ce91a1e9b3410f5fad888d0e44c" target="_top" xlink:title="Build reciprocal lattice vectors.">
<polygon fill="white" stroke="#666666" points="835,-371.75 660.75,-371.75 660.75,-351 835,-351 835,-371.75"/>
<text xml:space="preserve" text-anchor="middle" x="747.88" y="-358.25" font-family="Helvetica,sans-Serif" font-size="10.00">GreenFHom3DPer2D::Reciprocal</text>
</a>
</g>
</g>
<!-- Node19&#45;&gt;Node21 -->
<g id="edge26_Node000019_Node000021" class="edge">
<title>Node19&#45;&gt;Node21</title>
<g id="a_edge26_Node000019_Node000021"><a xlink:title=" ">
<path fill="none" stroke="#63b8ff" d="M595.97,-338.04C618.05,-341.45 642.7,-345.27 665.57,-348.8"/>
<polygon fill="#63b8ff" stroke="#63b8ff" points="664.73,-352.21 675.14,-350.28 665.8,-345.3 664.73,-352.21"/>
</a>
</g>
</g>
<!-- Node22 -->
<g id="Node000022" class="node">
<title>Node22</title>
<g id="a_Node000022"><a xlink:href="classGreenFHom3DPer2D.html#a9352fdb0ead2b5956f3e951122f73e18" target="_top" xlink:title="Project the Bloch vector onto the lattice plane.">
<polygon fill="white" stroke="#666666" points="828.25,-332.75 667.5,-332.75 667.5,-312 828.25,-312 828.25,-332.75"/>
<text xml:space="preserve" text-anchor="middle" x="747.88" y="-319.25" font-family="Helvetica,sans-Serif" font-size="10.00">GreenFHom3DPer2D::ToPlane</text>
</a>
</g>
</g>
<!-- Node19&#45;&gt;Node22 -->
<g id="edge27_Node000019_Node000022" class="edge">
<title>Node19&#45;&gt;Node22</title>
<g id="a_edge27_Node000019_Node000022"><a xlink:title=" ">
<path fill="none" stroke="#63b8ff" d="M595.97,-325.81C614.9,-325.38 635.72,-324.9 655.7,-324.45"/>
<polygon fill="#63b8ff" stroke="#63b8ff" points="655.58,-327.95 665.5,-324.23 655.42,-320.95 655.58,-327.95"/>
</a>
</g>
</g>
</g>
</svg>
