<?xml version="1.0" encoding="UTF-8" standalone="no"?>
<!DOCTYPE svg PUBLIC "-//W3C//DTD SVG 1.1//EN"
 "http://www.w3.org/Graphics/SVG/1.1/DTD/svg11.dtd">
<!-- Generated by graphviz version 13.1.2 (20250809.0930)
 -->
<!-- Title: SimJob::SolveLSE Pages: 1 -->
<svg width="250pt" height="146pt"
 viewBox="0.00 0.00 250.00 146.00" xmlns="http://www.w3.org/2000/svg" xmlns:xlink="http://www.w3.org/1999/xlink">

<svg id="main" version="1.1" xmlns="http://www.w3.org/2000/svg" xmlns:xlink="http://www.w3.org/1999/xlink" xml:space="preserve">

<style type="text/css"><![CDATA[
.node, .edge {opacity: 0.7;}
.node.selected, .edge.selected {opacity: 1;}
.edge:hover path { stroke: red; }
.edge:hover polygon { stroke: red; fill: red; }
]]></style>
<script type="application/ecmascript" xlink:href="svg.min.js"/>
<svg id="graph" class="graph">
<g id="graph0" class="graph" transform="scale(1 1) rotate(0) translate(4 141.75)">
<title>SimJob::SolveLSE</title>
<!-- Node1 -->
<g id="Node000001" class="node">
<title>Node1</title>
<g id="a_Node000001"><a xlink:title="Solve the current linear system with the chosen solver.">
<polygon fill="#999999" stroke="#666666" points="100,-78.75 0,-78.75 0,-58 100,-58 100,-78.75"/>
<text xml:space="preserve" text-anchor="middle" x="50" y="-65.25" font-family="Helvetica,sans-Serif" font-size="10.00">SimJob::SolveLSE</text>
</a>
</g>
</g>
<!-- Node2 -->
<g id="Node000002" class="node">
<title>Node2</title>
<g id="a_Node000002"><a xlink:href="SimJob_8cpp.html#a5689047dc461187481588ab4352aa2da" target="_top" xlink:title="External conjugate gradient solver (complex version) from cg.f.">
<polygon fill="white" stroke="#666666" points="212.75,-137.75 165.25,-137.75 165.25,-117 212.75,-117 212.75,-137.75"/>
<text xml:space="preserve" text-anchor="middle" x="189" y="-124.25" font-family="Helvetica,sans-Serif" font-size="10.00">cgsqr_</text>
</a>
</g>
</g>
<!-- Node1&#45;&gt;Node2 -->
<g id="edge1_Node000001_Node000002" class="edge">
<title>Node1&#45;&gt;Node2</title>
<g id="a_edge1_Node000001_Node000002"><a xlink:title=" ">
<path fill="none" stroke="#63b8ff" d="M73.56,-79.19C90.59,-87.25 114.6,-98.36 136,-107.38 141.85,-109.84 148.12,-112.35 154.2,-114.73"/>
<polygon fill="#63b8ff" stroke="#63b8ff" points="152.83,-117.95 163.42,-118.28 155.35,-111.42 152.83,-117.95"/>
</a>
</g>
</g>
<!-- Node3 -->
<g id="Node000003" class="node">
<title>Node3</title>
<g id="a_Node000003"><a xlink:href="SimJob_8cpp.html#a81dafa8ebba533efb547fc5dda890a4b" target="_top" xlink:title="Apply Jacobi preconditioning to a complex linear system.">
<polygon fill="white" stroke="#666666" points="242,-98.75 136,-98.75 136,-78 242,-78 242,-98.75"/>
<text xml:space="preserve" text-anchor="middle" x="189" y="-85.25" font-family="Helvetica,sans-Serif" font-size="10.00">JacobiPrecondition</text>
</a>
</g>
</g>
<!-- Node1&#45;&gt;Node3 -->
<g id="edge2_Node000001_Node000003" class="edge">
<title>Node1&#45;&gt;Node3</title>
<g id="a_edge2_Node000001_Node000003"><a xlink:title=" ">
<path fill="none" stroke="#63b8ff" d="M100.46,-75.6C108.27,-76.74 116.45,-77.93 124.53,-79.11"/>
<polygon fill="#63b8ff" stroke="#63b8ff" points="123.94,-82.56 134.34,-80.54 124.95,-75.63 123.94,-82.56"/>
</a>
</g>
</g>
<!-- Node4 -->
<g id="Node000004" class="node">
<title>Node4</title>
<g id="a_Node000004"><a xlink:href="DomainLayered3D_8cpp.html#ad123e1ae452426e2c00e3189488dedac" target="_top" xlink:title="Computes the LU factorization of a general M&#45;by&#45;N matrix.">
<polygon fill="white" stroke="#666666" points="213.88,-59.75 164.12,-59.75 164.12,-39 213.88,-39 213.88,-59.75"/>
<text xml:space="preserve" text-anchor="middle" x="189" y="-46.25" font-family="Helvetica,sans-Serif" font-size="10.00">zgetrf_</text>
</a>
</g>
</g>
<!-- Node1&#45;&gt;Node4 -->
<g id="edge3_Node000001_Node000004" class="edge">
<title>Node1&#45;&gt;Node4</title>
<g id="a_edge3_Node000001_Node000004"><a xlink:title=" ">
<path fill="none" stroke="#63b8ff" d="M100.46,-61.52C117.85,-59.1 137.02,-56.44 152.98,-54.23"/>
<polygon fill="#63b8ff" stroke="#63b8ff" points="153.04,-57.76 162.46,-52.92 152.07,-50.82 153.04,-57.76"/>
</a>
</g>
</g>
<!-- Node5 -->
<g id="Node000005" class="node">
<title>Node5</title>
<g id="a_Node000005"><a xlink:href="DomainLayered3D_8cpp.html#a0d498505ce3081c778d322cdd12e60a4" target="_top" xlink:title="Solves a system of linear equations using the LU factorization.">
<polygon fill="white" stroke="#666666" points="214.62,-20.75 163.38,-20.75 163.38,0 214.62,0 214.62,-20.75"/>
<text xml:space="preserve" text-anchor="middle" x="189" y="-7.25" font-family="Helvetica,sans-Serif" font-size="10.00">zgetrs_</text>
</a>
</g>
</g>
<!-- Node1&#45;&gt;Node5 -->
<g id="edge4_Node000001_Node000005" class="edge">
<title>Node1&#45;&gt;Node5</title>
<g id="a_edge4_Node000001_Node000005"><a xlink:title=" ">
<path fill="none" stroke="#63b8ff" d="M74.31,-57.55C91.3,-49.76 114.95,-39.12 136,-30.38 141.33,-28.16 147.01,-25.89 152.58,-23.71"/>
<polygon fill="#63b8ff" stroke="#63b8ff" points="153.55,-27.08 161.62,-20.22 151.03,-20.55 153.55,-27.08"/>
</a>
</g>
</g>
</g>
</svg>
</svg>

<style type='text/css'>
<![CDATA[
[data-mouse-over-selected='false'] { opacity: 0.7; }
[data-mouse-over-selected='true']  { opacity: 1.0; }
]]>
</style>
<script type="application/ecmascript"><![CDATA[
document.addEventListener('DOMContentLoaded', (event) => {
  highlightEdges();
  highlightAdjacentNodes();
});
]]></script>
</svg>
