<?xml version="1.0" encoding="UTF-8" standalone="no"?>
<!DOCTYPE svg PUBLIC "-//W3C//DTD SVG 1.1//EN"
 "http://www.w3.org/Graphics/SVG/1.1/DTD/svg11.dtd">
<!-- Generated by graphviz version 13.1.2 (20250809.0930)
 -->
<!-- Title: GreenFHom3DPer2D::GradientEwaldSpatialSmoothed Pages: 1 -->
<svg width="443pt" height="86pt"
 viewBox="0.00 0.00 443.00 86.00" xmlns="http://www.w3.org/2000/svg" xmlns:xlink="http://www.w3.org/1999/xlink">

<svg id="main" version="1.1" xmlns="http://www.w3.org/2000/svg" xmlns:xlink="http://www.w3.org/1999/xlink" xml:space="preserve">

<style type="text/css"><![CDATA[
.node, .edge {opacity: 0.7;}
.node.selected, .edge.selected {opacity: 1;}
.edge:hover path { stroke: red; }
.edge:hover polygon { stroke: red; fill: red; }
]]></style>
<script type="application/ecmascript" xlink:href="svg.min.js"/>
<svg id="graph" class="graph">
<g id="graph0" class="graph" transform="scale(1 1) rotate(0) translate(4 81.75)">
<title>GreenFHom3DPer2D::GradientEwaldSpatialSmoothed</title>
<!-- Node1 -->
<g id="Node000001" class="node">
<title>Node1</title>
<g id="a_Node000001"><a xlink:title="Spatial part of the smoothed source&#45;gradient .">
<polygon fill="#999999" stroke="#666666" points="165.25,-55.12 0,-55.12 0,-21.62 165.25,-21.62 165.25,-55.12"/>
<text xml:space="preserve" text-anchor="start" x="8" y="-41.62" font-family="Helvetica,sans-Serif" font-size="10.00">GreenFHom3DPer2D::Gradient</text>
<text xml:space="preserve" text-anchor="middle" x="82.62" y="-28.88" font-family="Helvetica,sans-Serif" font-size="10.00">EwaldSpatialSmoothed</text>
</a>
</g>
</g>
<!-- Node2 -->
<g id="Node000002" class="node">
<title>Node2</title>
<g id="a_Node000002"><a xlink:href="classGreenF.html#abf00726011a4eca4109bc43125218d30" target="_top" xlink:title="Evaluate erfc via the 2D lookup table if available.">
<polygon fill="white" stroke="#666666" points="288.5,-48.75 201.25,-48.75 201.25,-28 288.5,-28 288.5,-48.75"/>
<text xml:space="preserve" text-anchor="middle" x="244.88" y="-35.25" font-family="Helvetica,sans-Serif" font-size="10.00">GreenF::EvErfc</text>
</a>
</g>
</g>
<!-- Node1&#45;&gt;Node2 -->
<g id="edge1_Node000001_Node000002" class="edge">
<title>Node1&#45;&gt;Node2</title>
<g id="a_edge1_Node000001_Node000002"><a xlink:title=" ">
<path fill="none" stroke="#63b8ff" d="M165.63,-38.38C173.71,-38.38 181.76,-38.38 189.46,-38.38"/>
<polygon fill="#63b8ff" stroke="#63b8ff" points="189.32,-41.88 199.32,-38.38 189.32,-34.88 189.32,-41.88"/>
</a>
</g>
</g>
<!-- Node3 -->
<g id="Node000003" class="node">
<title>Node3</title>
<g id="a_Node000003"><a xlink:href="mathFunctions_8cpp.html#a7916c6b62310fe9cf38ec2a2890aaad4" target="_top" xlink:title="Complementary error function for complex arguments.">
<polygon fill="white" stroke="#666666" points="364.5,-77.75 324.5,-77.75 324.5,-57 364.5,-57 364.5,-77.75"/>
<text xml:space="preserve" text-anchor="middle" x="344.5" y="-64.25" font-family="Helvetica,sans-Serif" font-size="10.00">cerfc</text>
</a>
</g>
</g>
<!-- Node2&#45;&gt;Node3 -->
<g id="edge2_Node000002_Node000003" class="edge">
<title>Node2&#45;&gt;Node3</title>
<g id="a_edge2_Node000002_Node000003"><a xlink:title=" ">
<path fill="none" stroke="#63b8ff" d="M282.23,-49.17C292.44,-52.21 303.42,-55.47 313.24,-58.39"/>
<polygon fill="#63b8ff" stroke="#63b8ff" points="312.07,-61.69 322.65,-61.18 314.06,-54.98 312.07,-61.69"/>
</a>
</g>
</g>
<!-- Node5 -->
<g id="Node000005" class="node">
<title>Node5</title>
<g id="a_Node000005"><a xlink:href="Domain_8cpp.html#aafa3e4fa6318b2f8740f4dbd50c367e5" target="_top" xlink:title="Extract the real part of each component of a complex 3&#45;vector.">
<polygon fill="white" stroke="#666666" points="361.88,-20.75 327.12,-20.75 327.12,0 361.88,0 361.88,-20.75"/>
<text xml:space="preserve" text-anchor="middle" x="344.5" y="-7.25" font-family="Helvetica,sans-Serif" font-size="10.00">real</text>
</a>
</g>
</g>
<!-- Node2&#45;&gt;Node5 -->
<g id="edge4_Node000002_Node000005" class="edge">
<title>Node2&#45;&gt;Node5</title>
<g id="a_edge4_Node000002_Node000005"><a xlink:title=" ">
<path fill="none" stroke="#63b8ff" d="M283.62,-27.55C294.34,-24.47 305.81,-21.18 315.82,-18.31"/>
<polygon fill="#63b8ff" stroke="#63b8ff" points="316.65,-21.72 325.3,-15.59 314.72,-14.99 316.65,-21.72"/>
</a>
</g>
</g>
<!-- Node4 -->
<g id="Node000004" class="node">
<title>Node4</title>
<g id="a_Node000004"><a xlink:href="mathFunctions_8cpp.html#abc57cde75234d7e165a9ebcdb45f2c29" target="_top" xlink:title="Error function for complex arguments.">
<polygon fill="white" stroke="#666666" points="435.25,-77.75 400.5,-77.75 400.5,-57 435.25,-57 435.25,-77.75"/>
<text xml:space="preserve" text-anchor="middle" x="417.88" y="-64.25" font-family="Helvetica,sans-Serif" font-size="10.00">cerf</text>
</a>
</g>
</g>
<!-- Node3&#45;&gt;Node4 -->
<g id="edge3_Node000003_Node000004" class="edge">
<title>Node3&#45;&gt;Node4</title>
<g id="a_edge3_Node000003_Node000004"><a xlink:title=" ">
<path fill="none" stroke="#63b8ff" d="M364.63,-67.38C372.06,-67.38 380.73,-67.38 388.84,-67.38"/>
<polygon fill="#63b8ff" stroke="#63b8ff" points="388.61,-70.88 398.61,-67.38 388.61,-63.88 388.61,-70.88"/>
</a>
</g>
</g>
<!-- Node5&#45;&gt;Node5 -->
<g id="edge5_Node000005_Node000005" class="edge">
<title>Node5&#45;&gt;Node5</title>
<g id="a_edge5_Node000005_Node000005"><a xlink:title=" ">
<path fill="none" stroke="#63b8ff" d="M332.68,-21.15C327.95,-29.81 331.89,-38.75 344.5,-38.75 351.2,-38.75 355.45,-36.23 357.26,-32.56"/>
<polygon fill="#63b8ff" stroke="#63b8ff" points="360.75,-32.34 356.45,-22.66 353.78,-32.91 360.75,-32.34"/>
</a>
</g>
</g>
</g>
</svg>
</svg>

<style type='text/css'>
<![CDATA[
[data-mouse-over-selected='false'] { opacity: 0.7; }
[data-mouse-over-selected='true']  { opacity: 1.0; }
]]>
</style>
<script type="application/ecmascript"><![CDATA[
document.addEventListener('DOMContentLoaded', (event) => {
  highlightEdges();
  highlightAdjacentNodes();
});
]]></script>
</svg>
