<?xml version="1.0" encoding="UTF-8" standalone="no"?>
<!DOCTYPE svg PUBLIC "-//W3C//DTD SVG 1.1//EN"
 "http://www.w3.org/Graphics/SVG/1.1/DTD/svg11.dtd">
<!-- Generated by graphviz version 13.1.2 (20250809.0930)
 -->
<!-- Title: LayeredMediaUtils::totalFresnelCoeffs Pages: 1 -->
<!--zoomable 117 -->

<svg id="main" version="1.1" xmlns="http://www.w3.org/2000/svg" xmlns:xlink="http://www.w3.org/1999/xlink" xml:space="preserve" onload="init(evt)">

<style type="text/css"><![CDATA[
.node, .edge {opacity: 0.7;}
.node.selected, .edge.selected {opacity: 1;}
.edge:hover path { stroke: red; }
.edge:hover polygon { stroke: red; fill: red; }
]]></style>

<defs>
  <circle id="rim" cx="0" cy="0" r="7"/>
  <circle id="rim2" cx="0" cy="0" r="3.5"/>
  <g id="zoomPlus">
    <use xlink:href="#rim" fill="#404040"><set attributeName="fill" to="#808080" begin="zoomplus.mouseover" end="zoomplus.mouseout"/></use>
    <path d="M-4,0h8M0,-4v8" fill="none" stroke="white" stroke-width="1.5" pointer-events="none"/>
  </g>
  <g id="zoomMin">
    <use xlink:href="#rim" fill="#404040"><set attributeName="fill" to="#808080" begin="zoomminus.mouseover" end="zoomminus.mouseout"/></use>
    <path d="M-4,0h8" fill="none" stroke="white" stroke-width="1.5" pointer-events="none"/>
  </g>
  <g id="arrowUp" transform="translate(30 24)">
    <use xlink:href="#rim"/>
    <path pointer-events="none" fill="none" stroke="white" stroke-width="1.5" d="M0,-3.0v7 M-2.5,-0.5L0,-3.0L2.5,-0.5"/>
  </g>
  <g id="arrowRight" transform="rotate(90) translate(36 -43)">
    <use xlink:href="#rim"/>
    <path pointer-events="none" fill="none" stroke="white" stroke-width="1.5" d="M0,-3.0v7 M-2.5,-0.5L0,-3.0L2.5,-0.5"/>
  </g>
  <g id="arrowDown" transform="rotate(180) translate(-30 -48)">
    <use xlink:href="#rim"/>
    <path pointer-events="none" fill="none" stroke="white" stroke-width="1.5" d="M0,-3.0v7 M-2.5,-0.5L0,-3.0L2.5,-0.5"/>
  </g>
  <g id="arrowLeft" transform="rotate(270) translate(-36 17)">
    <use xlink:href="#rim"/>
    <path pointer-events="none" fill="none" stroke="white" stroke-width="1.5" d="M0,-3.0v7 M-2.5,-0.5L0,-3.0L2.5,-0.5"/>
  </g>
  <g id="resetDef">
    <use xlink:href="#rim2" fill="#404040"><set attributeName="fill" to="#808080" begin="reset.mouseover" end="reset.mouseout"/></use>
  </g>
</defs>
<script type="application/ecmascript">
var viewWidth = 771;
var viewHeight = 117;
var sectionId = 'dynsection-16';
</script>
<script type="application/ecmascript" xlink:href="svg.min.js"/>
<svg id="graph" class="graph">
<g id="viewport">
<title>LayeredMediaUtils::totalFresnelCoeffs</title>
<!-- Node1 -->
<g id="Node000001" class="node">
<title>Node1</title>
<g id="a_Node000001"><a xlink:title="Computes reflection and transmission coefficients for the entire layered structure.">
<polygon fill="#999999" stroke="#666666" points="113.5,-56.5 0,-56.5 0,-23 113.5,-23 113.5,-56.5"/>
<text xml:space="preserve" text-anchor="start" x="8" y="-43" font-family="Helvetica,sans-Serif" font-size="10.00">LayeredMediaUtils::</text>
<text xml:space="preserve" text-anchor="middle" x="56.75" y="-30.25" font-family="Helvetica,sans-Serif" font-size="10.00">totalFresnelCoeffs</text>
</a>
</g>
</g>
<!-- Node1&#45;&gt;Node1 -->
<g id="edge1_Node000001_Node000001" class="edge">
<title>Node1&#45;&gt;Node1</title>
<g id="a_edge1_Node000001_Node000001"><a xlink:title=" ">
<path fill="none" stroke="#63b8ff" d="M29.88,-56.91C25.31,-66.12 34.27,-74.5 56.75,-74.5 69.05,-74.5 77.3,-71.99 81.5,-68.22"/>
<polygon fill="#63b8ff" stroke="#63b8ff" points="84.94,-68.88 83.35,-58.4 78.06,-67.58 84.94,-68.88"/>
</a>
</g>
</g>
<!-- Node2 -->
<g id="Node000002" class="node">
<title>Node2</title>
<g id="a_Node000002"><a xlink:href="classLayeredMediaUtils.html#a796d55e02d56c610cae065557bc64c10" target="_top" xlink:title="Computes the total transfer matrix for the entire layered structure.">
<polygon fill="white" stroke="#666666" points="263,-56.5 149.5,-56.5 149.5,-23 263,-23 263,-56.5"/>
<text xml:space="preserve" text-anchor="start" x="157.5" y="-43" font-family="Helvetica,sans-Serif" font-size="10.00">LayeredMediaUtils::</text>
<text xml:space="preserve" text-anchor="middle" x="206.25" y="-30.25" font-family="Helvetica,sans-Serif" font-size="10.00">totalTransferMatrix</text>
</a>
</g>
</g>
<!-- Node1&#45;&gt;Node2 -->
<g id="edge2_Node000001_Node000002" class="edge">
<title>Node1&#45;&gt;Node2</title>
<g id="a_edge2_Node000001_Node000002"><a xlink:title=" ">
<path fill="none" stroke="#63b8ff" d="M113.93,-39.75C121.79,-39.75 129.93,-39.75 137.97,-39.75"/>
<polygon fill="#63b8ff" stroke="#63b8ff" points="137.71,-43.25 147.71,-39.75 137.71,-36.25 137.71,-43.25"/>
</a>
</g>
</g>
<!-- Node3 -->
<g id="Node000003" class="node">
<title>Node3</title>
<g id="a_Node000003"><a xlink:href="classLayeredMediaUtils.html#a00598e0f83472fd9128419b9dddc7e09" target="_top" xlink:title="Computes the interface transfer matrix for TE or TM waves.">
<polygon fill="white" stroke="#666666" points="429,-108.5 299,-108.5 299,-75 429,-75 429,-108.5"/>
<text xml:space="preserve" text-anchor="start" x="307" y="-95" font-family="Helvetica,sans-Serif" font-size="10.00">LayeredMediaUtils::</text>
<text xml:space="preserve" text-anchor="middle" x="364" y="-82.25" font-family="Helvetica,sans-Serif" font-size="10.00">InterfaceTransferMatrix</text>
</a>
</g>
</g>
<!-- Node2&#45;&gt;Node3 -->
<g id="edge3_Node000002_Node000003" class="edge">
<title>Node2&#45;&gt;Node3</title>
<g id="a_edge3_Node000002_Node000003"><a xlink:title=" ">
<path fill="none" stroke="#63b8ff" d="M258.68,-56.92C272.17,-61.42 286.85,-66.33 300.83,-71"/>
<polygon fill="#63b8ff" stroke="#63b8ff" points="299.33,-74.18 309.92,-74.03 301.55,-67.54 299.33,-74.18"/>
</a>
</g>
</g>
<!-- Node7 -->
<g id="Node000007" class="node">
<title>Node7</title>
<g id="a_Node000007"><a xlink:href="classLayeredMediaUtils.html#ad48ebb179e3349bad58b015022cbff46" target="_top" xlink:title="Performs matrix multiplication for 2D complex matrices.">
<polygon fill="white" stroke="#666666" points="420.75,-56.5 307.25,-56.5 307.25,-23 420.75,-23 420.75,-56.5"/>
<text xml:space="preserve" text-anchor="start" x="315.25" y="-43" font-family="Helvetica,sans-Serif" font-size="10.00">LayeredMediaUtils::</text>
<text xml:space="preserve" text-anchor="middle" x="364" y="-30.25" font-family="Helvetica,sans-Serif" font-size="10.00">matrixMultiply2D</text>
</a>
</g>
</g>
<!-- Node2&#45;&gt;Node7 -->
<g id="edge8_Node000002_Node000007" class="edge">
<title>Node2&#45;&gt;Node7</title>
<g id="a_edge8_Node000002_Node000007"><a xlink:title=" ">
<path fill="none" stroke="#63b8ff" d="M263.48,-39.75C273.85,-39.75 284.77,-39.75 295.43,-39.75"/>
<polygon fill="#63b8ff" stroke="#63b8ff" points="295.34,-43.25 305.34,-39.75 295.34,-36.25 295.34,-43.25"/>
</a>
</g>
</g>
<!-- Node8 -->
<g id="Node000008" class="node">
<title>Node8</title>
<g id="a_Node000008"><a xlink:href="classLayeredMediaUtils.html#ac9168dd49348197009d483b94ff715a4" target="_top" xlink:title="Computes the propagation matrix for a given layer.">
<polygon fill="white" stroke="#666666" points="578.5,-33.5 465,-33.5 465,0 578.5,0 578.5,-33.5"/>
<text xml:space="preserve" text-anchor="start" x="473" y="-20" font-family="Helvetica,sans-Serif" font-size="10.00">LayeredMediaUtils::</text>
<text xml:space="preserve" text-anchor="middle" x="521.75" y="-7.25" font-family="Helvetica,sans-Serif" font-size="10.00">propagationMatrix</text>
</a>
</g>
</g>
<!-- Node2&#45;&gt;Node8 -->
<g id="edge9_Node000002_Node000008" class="edge">
<title>Node2&#45;&gt;Node8</title>
<g id="a_edge9_Node000002_Node000008"><a xlink:title=" ">
<path fill="none" stroke="#63b8ff" d="M258.15,-22.63C271.31,-18.96 285.55,-15.62 299,-13.75 350.46,-6.6 409.28,-7.82 453.41,-10.57"/>
<polygon fill="#63b8ff" stroke="#63b8ff" points="453.15,-14.07 463.36,-11.24 453.62,-7.08 453.15,-14.07"/>
</a>
</g>
</g>
<!-- Node4 -->
<g id="Node000004" class="node">
<title>Node4</title>
<g id="a_Node000004"><a xlink:href="classLayeredMediaUtils.html#a212943a3dd5bdeaaa5c92ed21fad87a9" target="_top" xlink:title="Computes Fresnel reflection and transmission coefficients at an interface.">
<polygon fill="white" stroke="#666666" points="578.5,-96.5 465,-96.5 465,-63 578.5,-63 578.5,-96.5"/>
<text xml:space="preserve" text-anchor="start" x="473" y="-83" font-family="Helvetica,sans-Serif" font-size="10.00">LayeredMediaUtils::</text>
<text xml:space="preserve" text-anchor="middle" x="521.75" y="-70.25" font-family="Helvetica,sans-Serif" font-size="10.00">FresnelCoeff</text>
</a>
</g>
</g>
<!-- Node3&#45;&gt;Node4 -->
<g id="edge4_Node000003_Node000004" class="edge">
<title>Node3&#45;&gt;Node4</title>
<g id="a_edge4_Node000003_Node000004"><a xlink:title=" ">
<path fill="none" stroke="#63b8ff" d="M429.25,-86.8C437.13,-86.19 445.2,-85.57 453.13,-84.96"/>
<polygon fill="#63b8ff" stroke="#63b8ff" points="453.4,-88.45 463.1,-84.19 452.86,-81.47 453.4,-88.45"/>
</a>
</g>
</g>
<!-- Node5 -->
<g id="Node000005" class="node">
<title>Node5</title>
<g id="a_Node000005"><a xlink:href="LayeredMediaUtils_8cpp.html#a50405603197731a46c864b0f39744ed0" target="_top" xlink:title="Computes the square root of a complex number with proper handling of negative imaginary parts.">
<polygon fill="white" stroke="#666666" points="692,-53.12 614.5,-53.12 614.5,-32.38 692,-32.38 692,-53.12"/>
<text xml:space="preserve" text-anchor="middle" x="653.25" y="-39.62" font-family="Helvetica,sans-Serif" font-size="10.00">complexSqrt</text>
</a>
</g>
</g>
<!-- Node4&#45;&gt;Node5 -->
<g id="edge5_Node000004_Node000005" class="edge">
<title>Node4&#45;&gt;Node5</title>
<g id="a_edge5_Node000004_Node000005"><a xlink:title=" ">
<path fill="none" stroke="#63b8ff" d="M578.8,-63.74C586.97,-61.4 595.34,-59.01 603.36,-56.72"/>
<polygon fill="#63b8ff" stroke="#63b8ff" points="604.3,-60.09 612.96,-53.98 602.38,-53.36 604.3,-60.09"/>
</a>
</g>
</g>
<!-- Node6 -->
<g id="Node000006" class="node">
<title>Node6</title>
<g id="a_Node000006"><a xlink:href="Domain_8cpp.html#aafa3e4fa6318b2f8740f4dbd50c367e5" target="_top" xlink:title="Extract the real part of each component of a complex 3&#45;vector.">
<polygon fill="white" stroke="#666666" points="762.75,-53.12 728,-53.12 728,-32.38 762.75,-32.38 762.75,-53.12"/>
<text xml:space="preserve" text-anchor="middle" x="745.38" y="-39.62" font-family="Helvetica,sans-Serif" font-size="10.00">real</text>
</a>
</g>
</g>
<!-- Node5&#45;&gt;Node6 -->
<g id="edge6_Node000005_Node000006" class="edge">
<title>Node5&#45;&gt;Node6</title>
<g id="a_edge6_Node000005_Node000006"><a xlink:title=" ">
<path fill="none" stroke="#63b8ff" d="M692.47,-42.75C700.44,-42.75 708.69,-42.75 716.21,-42.75"/>
<polygon fill="#63b8ff" stroke="#63b8ff" points="716.12,-46.25 726.12,-42.75 716.12,-39.25 716.12,-46.25"/>
</a>
</g>
</g>
<!-- Node6&#45;&gt;Node6 -->
<g id="edge7_Node000006_Node000006" class="edge">
<title>Node6&#45;&gt;Node6</title>
<g id="a_edge7_Node000006_Node000006"><a xlink:title=" ">
<path fill="none" stroke="#63b8ff" d="M730.53,-53.52C724.59,-62.18 729.54,-71.12 745.38,-71.12 753.79,-71.12 759.13,-68.6 761.39,-64.94"/>
<polygon fill="#63b8ff" stroke="#63b8ff" points="764.88,-64.62 760.37,-55.03 757.92,-65.33 764.88,-64.62"/>
</a>
</g>
</g>
<!-- Node8&#45;&gt;Node5 -->
<g id="edge10_Node000008_Node000005" class="edge">
<title>Node8&#45;&gt;Node5</title>
<g id="a_edge10_Node000008_Node000005"><a xlink:title=" ">
<path fill="none" stroke="#63b8ff" d="M578.8,-28C586.79,-29.61 594.96,-31.25 602.81,-32.82"/>
<polygon fill="#63b8ff" stroke="#63b8ff" points="602.05,-36.24 612.55,-34.78 603.43,-29.38 602.05,-36.24"/>
</a>
</g>
</g>
</g>
</svg>

<g id="navigator" transform="translate(0 0)" fill="#404254">
  <rect fill="#f2f5e9" fill-opacity="0.5" stroke="#606060" stroke-width=".5" x="0" y="0" width="60" height="60"/>
  <use id="zoomplus" xlink:href="#zoomPlus" x="17" y="9" onmousedown="handleZoom(evt,'in')"/>
  <use id="zoomminus" xlink:href="#zoomMin" x="42" y="9" onmousedown="handleZoom(evt,'out')"/>
  <use id="reset" xlink:href="#resetDef" x="30" y="36" onmousedown="handleReset()"/>
   <use id="arrowup" xlink:href="#arrowUp" x="0" y="0" onmousedown="handlePan(0,-1)"/>
  <use id="arrowright" xlink:href="#arrowRight" x="0" y="0" onmousedown="handlePan(1,0)"/>
  <use id="arrowdown" xlink:href="#arrowDown" x="0" y="0" onmousedown="handlePan(0,1)"/>
  <use id="arrowleft" xlink:href="#arrowLeft" x="0" y="0" onmousedown="handlePan(-1,0)"/>
</g>
<svg viewBox="0 0 15 15" width="100%" height="30px" preserveAspectRatio="xMaxYMin meet">
 <g id="arrow_out" transform="scale(0.3 0.3)">
  <a xlink:href="classLayeredMediaUtils_a55529dbdb069b59a6252ab2e446186a0_cgraph_org.svg" target="_base">
   <rect id="button" ry="5" rx="5" y="6" x="6" height="38" width="38"
        fill="#f2f5e9" fill-opacity="0.5" stroke="#606060" stroke-width="1.0"/>
   <path id="arrow"
     d="M 11.500037,31.436501 C 11.940474,20.09759 22.043105,11.32322 32.158766,21.979434 L 37.068811,17.246167 C 37.068811,17.246167 37.088388,32 37.088388,32 L 22.160133,31.978069 C 22.160133,31.978069 26.997745,27.140456 26.997745,27.140456 C 18.528582,18.264221 13.291696,25.230495 11.500037,31.436501 z"
     style="fill:#404040;"/>
  </a>
 </g>
</svg>

<style type='text/css'>
<![CDATA[
[data-mouse-over-selected='false'] { opacity: 0.7; }
[data-mouse-over-selected='true']  { opacity: 1.0; }
]]>
</style>
<script type="application/ecmascript"><![CDATA[
document.addEventListener('DOMContentLoaded', (event) => {
  highlightEdges();
  highlightAdjacentNodes();
});
]]></script>
</svg>
