<?xml version="1.0" encoding="UTF-8" standalone="no"?>
<!DOCTYPE svg PUBLIC "-//W3C//DTD SVG 1.1//EN"
 "http://www.w3.org/Graphics/SVG/1.1/DTD/svg11.dtd">
<!-- Generated by graphviz version 13.1.2 (20250809.0930)
 -->
<!-- Title: SingCancellation::getPermutation Pages: 1 -->
<svg width="616pt" height="98pt"
 viewBox="0.00 0.00 616.00 98.00" xmlns="http://www.w3.org/2000/svg" xmlns:xlink="http://www.w3.org/1999/xlink">
<g id="graph0" class="graph" transform="scale(1 1) rotate(0) translate(4 94.12)">
<title>SingCancellation::getPermutation</title>
<!-- Node1 -->
<g id="Node000001" class="node">
<title>Node1</title>
<g id="a_Node000001"><a xlink:title="Permutation of barycentric components induced by vertex/edge alignment.">
<polygon fill="#999999" stroke="#666666" points="607.5,-58.12 428,-58.12 428,-37.38 607.5,-37.38 607.5,-58.12"/>
<text xml:space="preserve" text-anchor="middle" x="517.75" y="-44.62" font-family="Helvetica,sans-Serif" font-size="10.00">SingCancellation::getPermutation</text>
</a>
</g>
</g>
<!-- Node2 -->
<g id="Node000002" class="node">
<title>Node2</title>
<g id="a_Node000002"><a xlink:href="classSingCancellation.html#aa72d2a4d4365846ffcbee49b07a4baa7" target="_top" xlink:title="Build paired quadrature for triangles sharing a common edge.">
<polygon fill="white" stroke="#666666" points="392,-90.12 221.5,-90.12 221.5,-69.38 392,-69.38 392,-90.12"/>
<text xml:space="preserve" text-anchor="middle" x="306.75" y="-76.62" font-family="Helvetica,sans-Serif" font-size="10.00">SingCancellation::commonEdge</text>
</a>
</g>
</g>
<!-- Node1&#45;&gt;Node2 -->
<g id="edge1_Node000001_Node000002" class="edge">
<title>Node1&#45;&gt;Node2</title>
<g id="a_edge1_Node000001_Node000002"><a xlink:title=" ">
<path fill="none" stroke="#63b8ff" d="M434.85,-60.29C416.21,-63.14 396.56,-66.15 378.43,-68.93"/>
<polygon fill="#63b8ff" stroke="#63b8ff" points="435.14,-63.79 444.5,-58.81 434.08,-56.87 435.14,-63.79"/>
</a>
</g>
</g>
<!-- Node4 -->
<g id="Node000004" class="node">
<title>Node4</title>
<g id="a_Node000004"><a xlink:href="classSingCancellation.html#ac1258c9e1d2e1981e9ceb22477312cfd" target="_top" xlink:title="Build paired quadrature for triangles sharing a single vertex.">
<polygon fill="white" stroke="#666666" points="380,-33.5 233.5,-33.5 233.5,0 380,0 380,-33.5"/>
<text xml:space="preserve" text-anchor="start" x="241.5" y="-20" font-family="Helvetica,sans-Serif" font-size="10.00">SingCancellation::common</text>
<text xml:space="preserve" text-anchor="middle" x="306.75" y="-7.25" font-family="Helvetica,sans-Serif" font-size="10.00">Vertex</text>
</a>
</g>
</g>
<!-- Node1&#45;&gt;Node4 -->
<g id="edge3_Node000001_Node000004" class="edge">
<title>Node1&#45;&gt;Node4</title>
<g id="a_edge3_Node000001_Node000004"><a xlink:title=" ">
<path fill="none" stroke="#63b8ff" d="M432.46,-35.25C415.23,-32.69 397.24,-30.02 380.45,-27.53"/>
<polygon fill="#63b8ff" stroke="#63b8ff" points="431.75,-38.68 442.15,-36.69 432.78,-31.76 431.75,-38.68"/>
</a>
</g>
</g>
<!-- Node3 -->
<g id="Node000003" class="node">
<title>Node3</title>
<g id="a_Node000003"><a xlink:href="classSingCancellation.html#a8931df16b2dd06d74b1aa8a78eab4363" target="_top" xlink:title="Construct and immediately generate the paired quadrature for a triangle pair.">
<polygon fill="white" stroke="#666666" points="185.5,-58.12 0,-58.12 0,-37.38 185.5,-37.38 185.5,-58.12"/>
<text xml:space="preserve" text-anchor="middle" x="92.75" y="-44.62" font-family="Helvetica,sans-Serif" font-size="10.00">SingCancellation::SingCancellation</text>
</a>
</g>
</g>
<!-- Node2&#45;&gt;Node3 -->
<g id="edge2_Node000002_Node000003" class="edge">
<title>Node2&#45;&gt;Node3</title>
<g id="a_edge2_Node000002_Node000003"><a xlink:title=" ">
<path fill="none" stroke="#63b8ff" d="M222.67,-67.21C203.76,-64.36 183.84,-61.35 165.45,-58.57"/>
<polygon fill="#63b8ff" stroke="#63b8ff" points="222.07,-70.66 232.48,-68.69 223.11,-63.74 222.07,-70.66"/>
</a>
</g>
</g>
<!-- Node4&#45;&gt;Node3 -->
<g id="edge5_Node000004_Node000003" class="edge">
<title>Node4&#45;&gt;Node3</title>
<g id="a_edge5_Node000004_Node000003"><a xlink:title=" ">
<path fill="none" stroke="#63b8ff" d="M221.87,-29.02C204.11,-31.61 185.49,-34.33 168.12,-36.88"/>
<polygon fill="#63b8ff" stroke="#63b8ff" points="222.2,-32.5 231.59,-27.59 221.19,-25.58 222.2,-32.5"/>
</a>
</g>
</g>
<!-- Node4&#45;&gt;Node4 -->
<g id="edge4_Node000004_Node000004" class="edge">
<title>Node4&#45;&gt;Node4</title>
<g id="a_edge4_Node000004_Node000004"><a xlink:title=" ">
<path fill="none" stroke="#63b8ff" d="M341.93,-45.05C336.08,-48.92 324.35,-51.5 306.75,-51.5 275.02,-51.5 262.37,-43.12 268.82,-33.91"/>
<polygon fill="#63b8ff" stroke="#63b8ff" points="345.32,-45.93 344.32,-35.38 338.53,-44.26 345.32,-45.93"/>
</a>
</g>
</g>
</g>
</svg>
