<?xml version="1.0" encoding="UTF-8" standalone="no"?>
<!DOCTYPE svg PUBLIC "-//W3C//DTD SVG 1.1//EN"
 "http://www.w3.org/Graphics/SVG/1.1/DTD/svg11.dtd">
<!-- Generated by graphviz version 13.1.2 (20250809.0930)
 -->
<!-- Title: GreenFLayered3D::testSameTriDK Pages: 1 -->
<svg width="665pt" height="236pt"
 viewBox="0.00 0.00 665.00 236.00" xmlns="http://www.w3.org/2000/svg" xmlns:xlink="http://www.w3.org/1999/xlink">
<g id="graph0" class="graph" transform="scale(1 1) rotate(0) translate(4 231.5)">
<title>GreenFLayered3D::testSameTriDK</title>
<!-- Node1 -->
<g id="Node000001" class="node">
<title>Node1</title>
<g id="a_Node000001"><a xlink:title="Test assembly of same&#45;triangle D and K matrix elements.">
<polygon fill="#999999" stroke="#666666" points="156.25,-130.5 0,-130.5 0,-97 156.25,-97 156.25,-130.5"/>
<text xml:space="preserve" text-anchor="start" x="8" y="-117" font-family="Helvetica,sans-Serif" font-size="10.00">GreenFLayered3D::testSame</text>
<text xml:space="preserve" text-anchor="middle" x="78.12" y="-104.25" font-family="Helvetica,sans-Serif" font-size="10.00">TriDK</text>
</a>
</g>
</g>
<!-- Node2 -->
<g id="Node000002" class="node">
<title>Node2</title>
<g id="a_Node000002"><a xlink:href="classGreenFLayered3D.html#a65ac22e62ec3e3131ffbb10d7bdea307" target="_top" xlink:title="Evaluate quasi&#45;static (QS) contributions for inter&#45;layer interactions.">
<polygon fill="white" stroke="#666666" points="352.25,-175.5 192.25,-175.5 192.25,-142 352.25,-142 352.25,-175.5"/>
<text xml:space="preserve" text-anchor="start" x="200.25" y="-162" font-family="Helvetica,sans-Serif" font-size="10.00">GreenFLayered3D::evalGreen</text>
<text xml:space="preserve" text-anchor="middle" x="272.25" y="-149.25" font-family="Helvetica,sans-Serif" font-size="10.00">QSInter</text>
</a>
</g>
</g>
<!-- Node1&#45;&gt;Node2 -->
<g id="edge1_Node000001_Node000002" class="edge">
<title>Node1&#45;&gt;Node2</title>
<g id="a_edge1_Node000001_Node000002"><a xlink:title=" ">
<path fill="none" stroke="#63b8ff" d="M152.58,-130.96C163.82,-133.59 175.5,-136.32 186.95,-139"/>
<polygon fill="#63b8ff" stroke="#63b8ff" points="185.83,-142.34 196.36,-141.21 187.42,-135.52 185.83,-142.34"/>
</a>
</g>
</g>
<!-- Node4 -->
<g id="Node000004" class="node">
<title>Node4</title>
<g id="a_Node000004"><a xlink:href="classGreenFLayered3D.html#a1fb4fa93c84d77750cac364641945725" target="_top" xlink:title="Return layer index of a 3D point.">
<polygon fill="white" stroke="#666666" points="542.25,-175.5 388.25,-175.5 388.25,-142 542.25,-142 542.25,-175.5"/>
<text xml:space="preserve" text-anchor="start" x="396.25" y="-162" font-family="Helvetica,sans-Serif" font-size="10.00">GreenFLayered3D::GetLayer</text>
<text xml:space="preserve" text-anchor="middle" x="465.25" y="-149.25" font-family="Helvetica,sans-Serif" font-size="10.00">Index</text>
</a>
</g>
</g>
<!-- Node1&#45;&gt;Node4 -->
<g id="edge12_Node000001_Node000004" class="edge">
<title>Node1&#45;&gt;Node4</title>
<g id="a_edge12_Node000001_Node000004"><a xlink:title=" ">
<path fill="none" stroke="#63b8ff" d="M156.59,-115.87C211.46,-118.16 286.68,-122.92 352.25,-132.75 363.54,-134.44 375.39,-136.68 386.96,-139.13"/>
<polygon fill="#63b8ff" stroke="#63b8ff" points="385.96,-142.49 396.48,-141.21 387.46,-135.65 385.96,-142.49"/>
</a>
</g>
</g>
<!-- Node5 -->
<g id="Node000005" class="node">
<title>Node5</title>
<g id="a_Node000005"><a xlink:href="classGreenFLayered3D.html#a7fbd8a47a0074f53111d52920a910392" target="_top" xlink:title="Evaluate quasi&#45;static (QS) contributions for intra&#45;layer interactions.">
<polygon fill="white" stroke="#666666" points="352.25,-227.5 192.25,-227.5 192.25,-194 352.25,-194 352.25,-227.5"/>
<text xml:space="preserve" text-anchor="start" x="200.25" y="-214" font-family="Helvetica,sans-Serif" font-size="10.00">GreenFLayered3D::evalGreen</text>
<text xml:space="preserve" text-anchor="middle" x="272.25" y="-201.25" font-family="Helvetica,sans-Serif" font-size="10.00">QSIntra</text>
</a>
</g>
</g>
<!-- Node1&#45;&gt;Node5 -->
<g id="edge4_Node000001_Node000005" class="edge">
<title>Node1&#45;&gt;Node5</title>
<g id="a_edge4_Node000001_Node000005"><a xlink:title=" ">
<path fill="none" stroke="#63b8ff" d="M102.44,-130.75C124.66,-146.37 159.51,-169.37 192.25,-184.75 195.75,-186.4 199.39,-187.98 203.09,-189.5"/>
<polygon fill="#63b8ff" stroke="#63b8ff" points="201.65,-192.7 212.24,-193.07 204.19,-186.18 201.65,-192.7"/>
</a>
</g>
</g>
<!-- Node6 -->
<g id="Node000006" class="node">
<title>Node6</title>
<g id="a_Node000006"><a xlink:href="classGreenFLayered3D.html#abb50e8621c63f2b29862c32a8447dd9c" target="_top" xlink:title="Evaluate Green&#39;s&#45;function components for inter&#45;layer interactions by interpolating the smooth (Sommer...">
<polygon fill="white" stroke="#666666" points="352.25,-33.5 192.25,-33.5 192.25,0 352.25,0 352.25,-33.5"/>
<text xml:space="preserve" text-anchor="start" x="200.25" y="-20" font-family="Helvetica,sans-Serif" font-size="10.00">GreenFLayered3D::evalGreen</text>
<text xml:space="preserve" text-anchor="middle" x="272.25" y="-7.25" font-family="Helvetica,sans-Serif" font-size="10.00">SmoothInter</text>
</a>
</g>
</g>
<!-- Node1&#45;&gt;Node6 -->
<g id="edge7_Node000001_Node000006" class="edge">
<title>Node1&#45;&gt;Node6</title>
<g id="a_edge7_Node000001_Node000006"><a xlink:title=" ">
<path fill="none" stroke="#63b8ff" d="M102.44,-96.75C124.66,-81.13 159.51,-58.13 192.25,-42.75 195.75,-41.1 199.39,-39.52 203.09,-38"/>
<polygon fill="#63b8ff" stroke="#63b8ff" points="204.19,-41.32 212.24,-34.43 201.65,-34.8 204.19,-41.32"/>
</a>
</g>
</g>
<!-- Node9 -->
<g id="Node000009" class="node">
<title>Node9</title>
<g id="a_Node000009"><a xlink:href="classGreenFLayered3D.html#a834a94e21f64163f651a4729eccc6699" target="_top" xlink:title="Evaluate Green&#39;s function components for intra&#45;layer interactions by interpolating the smooth (Sommer...">
<polygon fill="white" stroke="#666666" points="352.25,-85.5 192.25,-85.5 192.25,-52 352.25,-52 352.25,-85.5"/>
<text xml:space="preserve" text-anchor="start" x="200.25" y="-72" font-family="Helvetica,sans-Serif" font-size="10.00">GreenFLayered3D::evalGreen</text>
<text xml:space="preserve" text-anchor="middle" x="272.25" y="-59.25" font-family="Helvetica,sans-Serif" font-size="10.00">SmoothIntra</text>
</a>
</g>
</g>
<!-- Node1&#45;&gt;Node9 -->
<g id="edge10_Node000001_Node000009" class="edge">
<title>Node1&#45;&gt;Node9</title>
<g id="a_edge10_Node000001_Node000009"><a xlink:title=" ">
<path fill="none" stroke="#63b8ff" d="M152.58,-96.54C163.82,-93.91 175.5,-91.18 186.95,-88.5"/>
<polygon fill="#63b8ff" stroke="#63b8ff" points="187.42,-91.98 196.36,-86.29 185.83,-85.16 187.42,-91.98"/>
</a>
</g>
</g>
<!-- Node3 -->
<g id="Node000003" class="node">
<title>Node3</title>
<g id="a_Node000003"><a xlink:href="classGreenFLayered3D.html#a41c1370112d040a3dc4c44a5853022ed" target="_top" xlink:title="Fresnel reflection/transmission at interface (delegates to utils).">
<polygon fill="white" stroke="#666666" points="537.75,-227.5 392.75,-227.5 392.75,-194 537.75,-194 537.75,-227.5"/>
<text xml:space="preserve" text-anchor="start" x="400.75" y="-214" font-family="Helvetica,sans-Serif" font-size="10.00">GreenFLayered3D::Fresnel</text>
<text xml:space="preserve" text-anchor="middle" x="465.25" y="-201.25" font-family="Helvetica,sans-Serif" font-size="10.00">Coeff</text>
</a>
</g>
</g>
<!-- Node2&#45;&gt;Node3 -->
<g id="edge2_Node000002_Node000003" class="edge">
<title>Node2&#45;&gt;Node3</title>
<g id="a_edge2_Node000002_Node000003"><a xlink:title=" ">
<path fill="none" stroke="#63b8ff" d="M336.58,-175.99C353.76,-180.67 372.51,-185.77 390.22,-190.59"/>
<polygon fill="#63b8ff" stroke="#63b8ff" points="389.06,-193.91 399.63,-193.16 390.9,-187.15 389.06,-193.91"/>
</a>
</g>
</g>
<!-- Node2&#45;&gt;Node4 -->
<g id="edge3_Node000002_Node000004" class="edge">
<title>Node2&#45;&gt;Node4</title>
<g id="a_edge3_Node000002_Node000004"><a xlink:title=" ">
<path fill="none" stroke="#63b8ff" d="M352.59,-158.75C360.53,-158.75 368.63,-158.75 376.65,-158.75"/>
<polygon fill="#63b8ff" stroke="#63b8ff" points="376.4,-162.25 386.4,-158.75 376.4,-155.25 376.4,-162.25"/>
</a>
</g>
</g>
<!-- Node5&#45;&gt;Node3 -->
<g id="edge5_Node000005_Node000003" class="edge">
<title>Node5&#45;&gt;Node3</title>
<g id="a_edge5_Node000005_Node000003"><a xlink:title=" ">
<path fill="none" stroke="#63b8ff" d="M352.59,-210.75C361.99,-210.75 371.61,-210.75 381.06,-210.75"/>
<polygon fill="#63b8ff" stroke="#63b8ff" points="380.97,-214.25 390.97,-210.75 380.97,-207.25 380.97,-214.25"/>
</a>
</g>
</g>
<!-- Node5&#45;&gt;Node4 -->
<g id="edge6_Node000005_Node000004" class="edge">
<title>Node5&#45;&gt;Node4</title>
<g id="a_edge6_Node000005_Node000004"><a xlink:title=" ">
<path fill="none" stroke="#63b8ff" d="M336.58,-193.51C353.76,-188.83 372.51,-183.73 390.22,-178.91"/>
<polygon fill="#63b8ff" stroke="#63b8ff" points="390.9,-182.35 399.63,-176.34 389.06,-175.59 390.9,-182.35"/>
</a>
</g>
</g>
<!-- Node7 -->
<g id="Node000007" class="node">
<title>Node7</title>
<g id="a_Node000007"><a xlink:href="classGreenFLayered3D.html#a6c09f9ac63d604111b76842e774c65c8" target="_top" xlink:title="Evaluate 2D interpolant at one query point.">
<polygon fill="white" stroke="#666666" points="541.5,-59.5 389,-59.5 389,-26 541.5,-26 541.5,-59.5"/>
<text xml:space="preserve" text-anchor="start" x="397" y="-46" font-family="Helvetica,sans-Serif" font-size="10.00">GreenFLayered3D::evaluate</text>
<text xml:space="preserve" text-anchor="middle" x="465.25" y="-33.25" font-family="Helvetica,sans-Serif" font-size="10.00">SinglePoint</text>
</a>
</g>
</g>
<!-- Node6&#45;&gt;Node7 -->
<g id="edge8_Node000006_Node000007" class="edge">
<title>Node6&#45;&gt;Node7</title>
<g id="a_edge8_Node000006_Node000007"><a xlink:title=" ">
<path fill="none" stroke="#63b8ff" d="M352.59,-27.55C360.77,-28.66 369.1,-29.8 377.35,-30.92"/>
<polygon fill="#63b8ff" stroke="#63b8ff" points="376.65,-34.36 387.03,-32.24 377.59,-27.42 376.65,-34.36"/>
</a>
</g>
</g>
<!-- Node8 -->
<g id="Node000008" class="node">
<title>Node8</title>
<g id="a_Node000008"><a xlink:href="GreenFLayered3D_8cpp.html#a8aa29777c4e70a4d7c032b4c6fb0387d" target="_top" xlink:title="External REGRIDPACK routine for evaluating a 2D interpolation function.">
<polygon fill="white" stroke="#666666" points="656.5,-53.12 578.25,-53.12 578.25,-32.38 656.5,-32.38 656.5,-53.12"/>
<text xml:space="preserve" text-anchor="middle" x="617.38" y="-39.62" font-family="Helvetica,sans-Serif" font-size="10.00">rgrd2_eval_c</text>
</a>
</g>
</g>
<!-- Node7&#45;&gt;Node8 -->
<g id="edge9_Node000007_Node000008" class="edge">
<title>Node7&#45;&gt;Node8</title>
<g id="a_edge9_Node000007_Node000008"><a xlink:title=" ">
<path fill="none" stroke="#63b8ff" d="M541.75,-42.75C550.19,-42.75 558.62,-42.75 566.62,-42.75"/>
<polygon fill="#63b8ff" stroke="#63b8ff" points="566.46,-46.25 576.46,-42.75 566.46,-39.25 566.46,-46.25"/>
</a>
</g>
</g>
<!-- Node9&#45;&gt;Node7 -->
<g id="edge11_Node000009_Node000007" class="edge">
<title>Node9&#45;&gt;Node7</title>
<g id="a_edge11_Node000009_Node000007"><a xlink:title=" ">
<path fill="none" stroke="#63b8ff" d="M352.59,-57.95C360.77,-56.84 369.1,-55.7 377.35,-54.58"/>
<polygon fill="#63b8ff" stroke="#63b8ff" points="377.59,-58.08 387.03,-53.26 376.65,-51.14 377.59,-58.08"/>
</a>
</g>
</g>
</g>
</svg>
