<?xml version="1.0" encoding="UTF-8" standalone="no"?>
<!DOCTYPE svg PUBLIC "-//W3C//DTD SVG 1.1//EN"
 "http://www.w3.org/Graphics/SVG/1.1/DTD/svg11.dtd">
<!-- Generated by graphviz version 13.1.2 (20250809.0930)
 -->
<!-- Title: RWGFun::FreeVertex Pages: 1 -->
<svg width="336pt" height="68pt"
 viewBox="0.00 0.00 336.00 68.00" xmlns="http://www.w3.org/2000/svg" xmlns:xlink="http://www.w3.org/1999/xlink">
<g id="graph0" class="graph" transform="scale(1 1) rotate(0) translate(4 63.75)">
<title>RWGFun::FreeVertex</title>
<!-- Node1 -->
<g id="Node000001" class="node">
<title>Node1</title>
<g id="a_Node000001"><a xlink:title="Get the free vertex position (by value).">
<polygon fill="#999999" stroke="#666666" points="328.25,-39.75 212.5,-39.75 212.5,-19 328.25,-19 328.25,-39.75"/>
<text xml:space="preserve" text-anchor="middle" x="270.38" y="-26.25" font-family="Helvetica,sans-Serif" font-size="10.00">RWGFun::FreeVertex</text>
</a>
</g>
</g>
<!-- Node2 -->
<g id="Node000002" class="node">
<title>Node2</title>
<g id="a_Node000002"><a xlink:href="classGreenFHom3D.html#a419cbe00b5a2aed70ac546904a8a8d6f" target="_top" xlink:title="Compute &#160;and &#160;for all RWG pairs on two triangles.">
<polygon fill="white" stroke="#666666" points="161.88,-59.75 14.62,-59.75 14.62,-39 161.88,-39 161.88,-59.75"/>
<text xml:space="preserve" text-anchor="middle" x="88.25" y="-46.25" font-family="Helvetica,sans-Serif" font-size="10.00">GreenFHom3D::SameTriDK</text>
</a>
</g>
</g>
<!-- Node1&#45;&gt;Node2 -->
<g id="edge1_Node000001_Node000002" class="edge">
<title>Node1&#45;&gt;Node2</title>
<g id="a_edge1_Node000001_Node000002"><a xlink:title=" ">
<path fill="none" stroke="#63b8ff" d="M201.3,-36.93C188.48,-38.36 175.02,-39.85 162.06,-41.29"/>
<polygon fill="#63b8ff" stroke="#63b8ff" points="201.33,-40.45 210.88,-35.87 200.55,-33.5 201.33,-40.45"/>
</a>
</g>
</g>
<!-- Node3 -->
<g id="Node000003" class="node">
<title>Node3</title>
<g id="a_Node000003"><a xlink:href="classGreenFHom3DPer2D.html#a1dc9dd84c93ee10b2fb4b1866103d957" target="_top" xlink:title="Compute &#160;and &#160;for all RWG pairs on two triangles.">
<polygon fill="white" stroke="#666666" points="176.5,-20.75 0,-20.75 0,0 176.5,0 176.5,-20.75"/>
<text xml:space="preserve" text-anchor="middle" x="88.25" y="-7.25" font-family="Helvetica,sans-Serif" font-size="10.00">GreenFHom3DPer2D::SameTriDK</text>
</a>
</g>
</g>
<!-- Node1&#45;&gt;Node3 -->
<g id="edge2_Node000001_Node000003" class="edge">
<title>Node1&#45;&gt;Node3</title>
<g id="a_edge2_Node000001_Node000003"><a xlink:title=" ">
<path fill="none" stroke="#63b8ff" d="M200.99,-22.16C193.08,-21.33 184.93,-20.47 176.81,-19.61"/>
<polygon fill="#63b8ff" stroke="#63b8ff" points="200.57,-25.64 210.88,-23.2 201.3,-18.67 200.57,-25.64"/>
</a>
</g>
</g>
</g>
</svg>
