<?xml version="1.0" encoding="UTF-8" standalone="no"?>
<!DOCTYPE svg PUBLIC "-//W3C//DTD SVG 1.1//EN"
 "http://www.w3.org/Graphics/SVG/1.1/DTD/svg11.dtd">
<!-- Generated by graphviz version 13.1.2 (20250809.0930)
 -->
<!-- Title: GreenFHom3DPer2D::PrimitiveCell Pages: 1 -->
<svg width="641pt" height="366pt"
 viewBox="0.00 0.00 641.00 366.00" xmlns="http://www.w3.org/2000/svg" xmlns:xlink="http://www.w3.org/1999/xlink">
<g id="graph0" class="graph" transform="scale(1 1) rotate(0) translate(4 361.75)">
<title>GreenFHom3DPer2D::PrimitiveCell</title>
<!-- Node1 -->
<g id="Node000001" class="node">
<title>Node1</title>
<g id="a_Node000001"><a xlink:title="Map a displacement to the primitive cell.">
<polygon fill="#999999" stroke="#666666" points="633,-195.75 446.75,-195.75 446.75,-175 633,-175 633,-195.75"/>
<text xml:space="preserve" text-anchor="middle" x="539.88" y="-182.25" font-family="Helvetica,sans-Serif" font-size="10.00">GreenFHom3DPer2D::PrimitiveCell</text>
</a>
</g>
</g>
<!-- Node2 -->
<g id="Node000002" class="node">
<title>Node2</title>
<g id="a_Node000002"><a xlink:href="classGreenFHom3DPer2D.html#a359a21bc178e1c0d21125f8af5ae4fcb" target="_top" xlink:title="Ewald&#45;summed scalar kernel (2D periodic).">
<polygon fill="white" stroke="#666666" points="386,-357.75 233.5,-357.75 233.5,-337 386,-337 386,-357.75"/>
<text xml:space="preserve" text-anchor="middle" x="309.75" y="-344.25" font-family="Helvetica,sans-Serif" font-size="10.00">GreenFHom3DPer2D::Ewald</text>
</a>
</g>
</g>
<!-- Node1&#45;&gt;Node2 -->
<g id="edge1_Node000001_Node000002" class="edge">
<title>Node1&#45;&gt;Node2</title>
<g id="a_edge1_Node000001_Node000002"><a xlink:title=" ">
<path fill="none" stroke="#63b8ff" d="M526.83,-205.5C506.9,-236.91 463.91,-297.14 410.75,-327.38 403.21,-331.66 394.89,-335.04 386.37,-337.7"/>
<polygon fill="#63b8ff" stroke="#63b8ff" points="529.61,-207.66 531.89,-197.32 523.66,-203.98 529.61,-207.66"/>
</a>
</g>
</g>
<!-- Node4 -->
<g id="Node000004" class="node">
<title>Node4</title>
<g id="a_Node000004"><a xlink:href="classGreenFHom3DPer2D.html#aa6a46238cd2d01600780fd176a36971d" target="_top" xlink:title="Ewald&#45;summed smoothed scalar kernel.">
<polygon fill="white" stroke="#666666" points="410.75,-318.75 208.75,-318.75 208.75,-298 410.75,-298 410.75,-318.75"/>
<text xml:space="preserve" text-anchor="middle" x="309.75" y="-305.25" font-family="Helvetica,sans-Serif" font-size="10.00">GreenFHom3DPer2D::EwaldSmoothed</text>
</a>
</g>
</g>
<!-- Node1&#45;&gt;Node4 -->
<g id="edge3_Node000001_Node000004" class="edge">
<title>Node1&#45;&gt;Node4</title>
<g id="a_edge3_Node000001_Node000004"><a xlink:title=" ">
<path fill="none" stroke="#63b8ff" d="M521.7,-204.17C498.8,-227.97 455.91,-268.4 410.75,-289.38 403.78,-292.61 396.29,-295.3 388.66,-297.53"/>
<polygon fill="#63b8ff" stroke="#63b8ff" points="524.1,-206.72 528.41,-197.04 519.01,-201.92 524.1,-206.72"/>
</a>
</g>
</g>
<!-- Node6 -->
<g id="Node000006" class="node">
<title>Node6</title>
<g id="a_Node000006"><a xlink:href="classGreenFHom3DPer2D.html#afdc08576760ed0ae9a61dc378a7faac3" target="_top" xlink:title="Ewald&#45;summed source&#45;gradient.">
<polygon fill="white" stroke="#666666" points="392.38,-280.12 227.12,-280.12 227.12,-246.62 392.38,-246.62 392.38,-280.12"/>
<text xml:space="preserve" text-anchor="start" x="235.12" y="-266.62" font-family="Helvetica,sans-Serif" font-size="10.00">GreenFHom3DPer2D::Gradient</text>
<text xml:space="preserve" text-anchor="middle" x="309.75" y="-253.88" font-family="Helvetica,sans-Serif" font-size="10.00">Ewald</text>
</a>
</g>
</g>
<!-- Node1&#45;&gt;Node6 -->
<g id="edge5_Node000001_Node000006" class="edge">
<title>Node1&#45;&gt;Node6</title>
<g id="a_edge5_Node000001_Node000006"><a xlink:title=" ">
<path fill="none" stroke="#63b8ff" d="M504.87,-200.6C479.31,-211.7 443.25,-226.61 410.75,-237.38 401.38,-240.48 391.43,-243.45 381.57,-246.2"/>
<polygon fill="#63b8ff" stroke="#63b8ff" points="506,-203.93 513.75,-196.71 503.19,-197.52 506,-203.93"/>
</a>
</g>
</g>
<!-- Node8 -->
<g id="Node000008" class="node">
<title>Node8</title>
<g id="a_Node000008"><a xlink:href="classGreenFHom3DPer2D.html#a86d2cbdfe3ecb724651159902fabcdad" target="_top" xlink:title="Ewald&#45;summed smoothed source&#45;gradient.">
<polygon fill="white" stroke="#666666" points="392.38,-228.12 227.12,-228.12 227.12,-194.62 392.38,-194.62 392.38,-228.12"/>
<text xml:space="preserve" text-anchor="start" x="235.12" y="-214.62" font-family="Helvetica,sans-Serif" font-size="10.00">GreenFHom3DPer2D::Gradient</text>
<text xml:space="preserve" text-anchor="middle" x="309.75" y="-201.88" font-family="Helvetica,sans-Serif" font-size="10.00">EwaldSmoothed</text>
</a>
</g>
</g>
<!-- Node1&#45;&gt;Node8 -->
<g id="edge7_Node000001_Node000008" class="edge">
<title>Node1&#45;&gt;Node8</title>
<g id="a_edge7_Node000001_Node000008"><a xlink:title=" ">
<path fill="none" stroke="#63b8ff" d="M435.08,-197.2C420.87,-198.82 406.44,-200.47 392.7,-202.04"/>
<polygon fill="#63b8ff" stroke="#63b8ff" points="435.37,-200.69 444.91,-196.08 434.58,-193.74 435.37,-200.69"/>
</a>
</g>
</g>
<!-- Node10 -->
<g id="Node000010" class="node">
<title>Node10</title>
<g id="a_Node000010"><a xlink:href="classGreenFHom3DPer2D.html#a233c2185952220bd16acae2142f05cc1" target="_top" xlink:title="term at an observation point.">
<polygon fill="white" stroke="#666666" points="393.5,-176.12 226,-176.12 226,-142.62 393.5,-142.62 393.5,-176.12"/>
<text xml:space="preserve" text-anchor="start" x="234" y="-162.62" font-family="Helvetica,sans-Serif" font-size="10.00">GreenFHom3DPer2D::Integrate</text>
<text xml:space="preserve" text-anchor="middle" x="309.75" y="-149.88" font-family="Helvetica,sans-Serif" font-size="10.00">Delta</text>
</a>
</g>
</g>
<!-- Node1&#45;&gt;Node10 -->
<g id="edge9_Node000001_Node000010" class="edge">
<title>Node1&#45;&gt;Node10</title>
<g id="a_edge9_Node000001_Node000010"><a xlink:title=" ">
<path fill="none" stroke="#63b8ff" d="M435.32,-173.57C421.41,-171.99 407.28,-170.38 393.79,-168.84"/>
<polygon fill="#63b8ff" stroke="#63b8ff" points="434.58,-177.01 444.91,-174.67 435.37,-170.06 434.58,-177.01"/>
</a>
</g>
</g>
<!-- Node11 -->
<g id="Node000011" class="node">
<title>Node11</title>
<g id="a_Node000011"><a xlink:href="classGreenFHom3DPer2D.html#aadb534ef4509422e6f3e78a0e3999758" target="_top" xlink:title="term at an observation point.">
<polygon fill="white" stroke="#666666" points="393.5,-124.12 226,-124.12 226,-90.62 393.5,-90.62 393.5,-124.12"/>
<text xml:space="preserve" text-anchor="start" x="234" y="-110.62" font-family="Helvetica,sans-Serif" font-size="10.00">GreenFHom3DPer2D::Integrate</text>
<text xml:space="preserve" text-anchor="middle" x="309.75" y="-97.88" font-family="Helvetica,sans-Serif" font-size="10.00">Kappa</text>
</a>
</g>
</g>
<!-- Node1&#45;&gt;Node11 -->
<g id="edge10_Node000001_Node000011" class="edge">
<title>Node1&#45;&gt;Node11</title>
<g id="a_edge10_Node000001_Node000011"><a xlink:title=" ">
<path fill="none" stroke="#63b8ff" d="M504.87,-170.15C479.31,-159.05 443.25,-144.14 410.75,-133.38 401.38,-130.27 391.43,-127.3 381.57,-124.55"/>
<polygon fill="#63b8ff" stroke="#63b8ff" points="503.19,-173.23 513.75,-174.04 506,-166.82 503.19,-173.23"/>
</a>
</g>
</g>
<!-- Node12 -->
<g id="Node000012" class="node">
<title>Node12</title>
<g id="a_Node000012"><a xlink:href="classGreenFHom3DPer2D.html#a84a8c855a27c895ff24f6771037284a5" target="_top" xlink:title="Compute &#160;for all RWGs on a source triangle.">
<polygon fill="white" stroke="#666666" points="390.88,-72.12 228.62,-72.12 228.62,-38.62 390.88,-38.62 390.88,-72.12"/>
<text xml:space="preserve" text-anchor="start" x="236.62" y="-58.62" font-family="Helvetica,sans-Serif" font-size="10.00">GreenFHom3DPer2D::SameTri</text>
<text xml:space="preserve" text-anchor="middle" x="309.75" y="-45.88" font-family="Helvetica,sans-Serif" font-size="10.00">DeltaKappa</text>
</a>
</g>
</g>
<!-- Node1&#45;&gt;Node12 -->
<g id="edge11_Node000001_Node000012" class="edge">
<title>Node1&#45;&gt;Node12</title>
<g id="a_edge11_Node000001_Node000012"><a xlink:title=" ">
<path fill="none" stroke="#63b8ff" d="M521.12,-166.68C497.9,-143.33 454.96,-103.73 410.75,-81.38 404.19,-78.06 397.16,-75.13 389.99,-72.57"/>
<polygon fill="#63b8ff" stroke="#63b8ff" points="518.46,-168.97 527.95,-173.68 523.47,-164.08 518.46,-168.97"/>
</a>
</g>
</g>
<!-- Node13 -->
<g id="Node000013" class="node">
<title>Node13</title>
<g id="a_Node000013"><a xlink:href="classGreenFHom3DPer2D.html#a1dc9dd84c93ee10b2fb4b1866103d957" target="_top" xlink:title="Compute &#160;and &#160;for all RWG pairs on two triangles.">
<polygon fill="white" stroke="#666666" points="398,-20.75 221.5,-20.75 221.5,0 398,0 398,-20.75"/>
<text xml:space="preserve" text-anchor="middle" x="309.75" y="-7.25" font-family="Helvetica,sans-Serif" font-size="10.00">GreenFHom3DPer2D::SameTriDK</text>
</a>
</g>
</g>
<!-- Node1&#45;&gt;Node13 -->
<g id="edge12_Node000001_Node000013" class="edge">
<title>Node1&#45;&gt;Node13</title>
<g id="a_edge12_Node000001_Node000013"><a xlink:title=" ">
<path fill="none" stroke="#63b8ff" d="M528.46,-165.15C509.81,-131.14 467.32,-62.94 410.75,-29.38 405.28,-26.13 399.37,-23.42 393.25,-21.16"/>
<polygon fill="#63b8ff" stroke="#63b8ff" points="525.15,-166.39 532.95,-173.57 531.33,-163.1 525.15,-166.39"/>
</a>
</g>
</g>
<!-- Node3 -->
<g id="Node000003" class="node">
<title>Node3</title>
<g id="a_Node000003"><a xlink:href="classGreenFHom3DPer2D.html#a4fcccf5350453546ac226492ff19bcd0" target="_top" xlink:title="Scalar Bloch&#45;periodic Green&#39;s function .">
<polygon fill="white" stroke="#666666" points="169.38,-357.75 3.38,-357.75 3.38,-337 169.38,-337 169.38,-357.75"/>
<text xml:space="preserve" text-anchor="middle" x="86.38" y="-344.25" font-family="Helvetica,sans-Serif" font-size="10.00">GreenFHom3DPer2D::Evaluate</text>
</a>
</g>
</g>
<!-- Node2&#45;&gt;Node3 -->
<g id="edge2_Node000002_Node000003" class="edge">
<title>Node2&#45;&gt;Node3</title>
<g id="a_edge2_Node000002_Node000003"><a xlink:title=" ">
<path fill="none" stroke="#63b8ff" d="M222.02,-347.38C204.84,-347.38 186.84,-347.38 169.8,-347.38"/>
<polygon fill="#63b8ff" stroke="#63b8ff" points="221.67,-350.88 231.67,-347.38 221.67,-343.88 221.67,-350.88"/>
</a>
</g>
</g>
<!-- Node5 -->
<g id="Node000005" class="node">
<title>Node5</title>
<g id="a_Node000005"><a xlink:href="classGreenFHom3DPer2D.html#a6ab5b9db19bf30afa1828652d428d4a8" target="_top" xlink:title="Smoothed scalar kernel .">
<polygon fill="white" stroke="#666666" points="172.75,-318.75 0,-318.75 0,-298 172.75,-298 172.75,-318.75"/>
<text xml:space="preserve" text-anchor="middle" x="86.38" y="-305.25" font-family="Helvetica,sans-Serif" font-size="10.00">GreenFHom3DPer2D::Smoothed</text>
</a>
</g>
</g>
<!-- Node4&#45;&gt;Node5 -->
<g id="edge4_Node000004_Node000005" class="edge">
<title>Node4&#45;&gt;Node5</title>
<g id="a_edge4_Node000004_Node000005"><a xlink:title=" ">
<path fill="none" stroke="#63b8ff" d="M197.07,-308.38C189.03,-308.38 181,-308.38 173.14,-308.38"/>
<polygon fill="#63b8ff" stroke="#63b8ff" points="196.91,-311.88 206.91,-308.38 196.91,-304.88 196.91,-311.88"/>
</a>
</g>
</g>
<!-- Node7 -->
<g id="Node000007" class="node">
<title>Node7</title>
<g id="a_Node000007"><a xlink:href="classGreenFHom3DPer2D.html#adff724f327912641a20c99fa4c9bb464" target="_top" xlink:title="Source&#45;gradient .">
<polygon fill="white" stroke="#666666" points="169,-273.75 3.75,-273.75 3.75,-253 169,-253 169,-273.75"/>
<text xml:space="preserve" text-anchor="middle" x="86.38" y="-260.25" font-family="Helvetica,sans-Serif" font-size="10.00">GreenFHom3DPer2D::Gradient</text>
</a>
</g>
</g>
<!-- Node6&#45;&gt;Node7 -->
<g id="edge6_Node000006_Node000007" class="edge">
<title>Node6&#45;&gt;Node7</title>
<g id="a_edge6_Node000006_Node000007"><a xlink:title=" ">
<path fill="none" stroke="#63b8ff" d="M215.56,-263.38C200.21,-263.38 184.41,-263.38 169.36,-263.38"/>
<polygon fill="#63b8ff" stroke="#63b8ff" points="215.12,-266.88 225.12,-263.38 215.12,-259.88 215.12,-266.88"/>
</a>
</g>
</g>
<!-- Node9 -->
<g id="Node000009" class="node">
<title>Node9</title>
<g id="a_Node000009"><a xlink:href="classGreenFHom3DPer2D.html#accc5e668a1b137a5279747db2ef0d560" target="_top" xlink:title="Smoothed source&#45;gradient .">
<polygon fill="white" stroke="#666666" points="169,-228.12 3.75,-228.12 3.75,-194.62 169,-194.62 169,-228.12"/>
<text xml:space="preserve" text-anchor="start" x="11.75" y="-214.62" font-family="Helvetica,sans-Serif" font-size="10.00">GreenFHom3DPer2D::Gradient</text>
<text xml:space="preserve" text-anchor="middle" x="86.38" y="-201.88" font-family="Helvetica,sans-Serif" font-size="10.00">Smoothed</text>
</a>
</g>
</g>
<!-- Node8&#45;&gt;Node9 -->
<g id="edge8_Node000008_Node000009" class="edge">
<title>Node8&#45;&gt;Node9</title>
<g id="a_edge8_Node000008_Node000009"><a xlink:title=" ">
<path fill="none" stroke="#63b8ff" d="M215.56,-211.38C200.21,-211.38 184.41,-211.38 169.36,-211.38"/>
<polygon fill="#63b8ff" stroke="#63b8ff" points="215.12,-214.88 225.12,-211.38 215.12,-207.88 215.12,-214.88"/>
</a>
</g>
</g>
</g>
</svg>
