<?xml version="1.0" encoding="UTF-8" standalone="no"?>
<!DOCTYPE svg PUBLIC "-//W3C//DTD SVG 1.1//EN"
 "http://www.w3.org/Graphics/SVG/1.1/DTD/svg11.dtd">
<!-- Generated by graphviz version 13.1.2 (20250809.0930)
 -->
<!-- Title: SurfaceMesh::LoadFromMeshFile Pages: 1 -->
<svg width="650pt" height="29pt"
 viewBox="0.00 0.00 650.00 29.00" xmlns="http://www.w3.org/2000/svg" xmlns:xlink="http://www.w3.org/1999/xlink">
<g id="graph0" class="graph" transform="scale(1 1) rotate(0) translate(4 24.75)">
<title>SurfaceMesh::LoadFromMeshFile</title>
<!-- Node1 -->
<g id="Node000001" class="node">
<title>Node1</title>
<g id="a_Node000001"><a xlink:title="Read mesh from the custom &quot;.mesh&quot; text format.">
<polygon fill="#999999" stroke="#666666" points="642.25,-20.75 465.75,-20.75 465.75,0 642.25,0 642.25,-20.75"/>
<text xml:space="preserve" text-anchor="middle" x="554" y="-7.25" font-family="Helvetica,sans-Serif" font-size="10.00">SurfaceMesh::LoadFromMeshFile</text>
</a>
</g>
</g>
<!-- Node2 -->
<g id="Node000002" class="node">
<title>Node2</title>
<g id="a_Node000002"><a xlink:href="classSurfaceMesh.html#aa64ebb4992ea98778f79c272568c68d2" target="_top" xlink:title="Load a mesh from file by extension.">
<polygon fill="white" stroke="#666666" points="429.75,-20.75 279.5,-20.75 279.5,0 429.75,0 429.75,-20.75"/>
<text xml:space="preserve" text-anchor="middle" x="354.62" y="-7.25" font-family="Helvetica,sans-Serif" font-size="10.00">SurfaceMesh::LoadFromFile</text>
</a>
</g>
</g>
<!-- Node1&#45;&gt;Node2 -->
<g id="edge1_Node000001_Node000002" class="edge">
<title>Node1&#45;&gt;Node2</title>
<g id="a_edge1_Node000001_Node000002"><a xlink:title=" ">
<path fill="none" stroke="#63b8ff" d="M453.96,-10.38C445.94,-10.38 437.92,-10.38 430.11,-10.38"/>
<polygon fill="#63b8ff" stroke="#63b8ff" points="453.77,-13.88 463.77,-10.38 453.77,-6.88 453.77,-13.88"/>
</a>
</g>
</g>
<!-- Node3 -->
<g id="Node000003" class="node">
<title>Node3</title>
<g id="a_Node000003"><a xlink:href="classSurfaceMesh.html#aa8811e2b8b03caa6028d5d154a69ea71" target="_top" xlink:title="Convert/modify a mesh according to a conversion job file.">
<polygon fill="white" stroke="#666666" points="243.5,-20.75 76.75,-20.75 76.75,0 243.5,0 243.5,-20.75"/>
<text xml:space="preserve" text-anchor="middle" x="160.12" y="-7.25" font-family="Helvetica,sans-Serif" font-size="10.00">SurfaceMesh::ConvertMeshFile</text>
</a>
</g>
</g>
<!-- Node2&#45;&gt;Node3 -->
<g id="edge2_Node000002_Node000003" class="edge">
<title>Node2&#45;&gt;Node3</title>
<g id="a_edge2_Node000002_Node000003"><a xlink:title=" ">
<path fill="none" stroke="#63b8ff" d="M267.73,-10.38C259.84,-10.38 251.85,-10.38 243.99,-10.38"/>
<polygon fill="#63b8ff" stroke="#63b8ff" points="267.69,-13.88 277.69,-10.38 267.69,-6.88 267.69,-13.88"/>
</a>
</g>
</g>
<!-- Node4 -->
<g id="Node000004" class="node">
<title>Node4</title>
<g id="a_Node000004"><a xlink:href="main_8cpp.html#a0ddf1224851353fc92bfbff6f499fa97" target="_top" xlink:title="Main driver routine for the HELIOS SIE simulation program.">
<polygon fill="white" stroke="#666666" points="40.75,-20.75 0,-20.75 0,0 40.75,0 40.75,-20.75"/>
<text xml:space="preserve" text-anchor="middle" x="20.38" y="-7.25" font-family="Helvetica,sans-Serif" font-size="10.00">main</text>
</a>
</g>
</g>
<!-- Node3&#45;&gt;Node4 -->
<g id="edge3_Node000003_Node000004" class="edge">
<title>Node3&#45;&gt;Node4</title>
<g id="a_edge3_Node000003_Node000004"><a xlink:title=" ">
<path fill="none" stroke="#63b8ff" d="M65.11,-10.38C56.26,-10.38 48.05,-10.38 41.19,-10.38"/>
<polygon fill="#63b8ff" stroke="#63b8ff" points="65.1,-13.88 75.1,-10.38 65.1,-6.88 65.1,-13.88"/>
</a>
</g>
</g>
</g>
</svg>
