<?xml version="1.0" encoding="UTF-8" standalone="no"?>
<!DOCTYPE svg PUBLIC "-//W3C//DTD SVG 1.1//EN"
 "http://www.w3.org/Graphics/SVG/1.1/DTD/svg11.dtd">
<!-- Generated by graphviz version 13.1.2 (20250809.0930)
 -->
<!-- Title: GreenFHom3DPer2D::EvaluateandGradientTranslate Pages: 1 -->
<svg width="669pt" height="94pt"
 viewBox="0.00 0.00 669.00 94.00" xmlns="http://www.w3.org/2000/svg" xmlns:xlink="http://www.w3.org/1999/xlink">
<g id="graph0" class="graph" transform="scale(1 1) rotate(0) translate(4 89.5)">
<title>GreenFHom3DPer2D::EvaluateandGradientTranslate</title>
<!-- Node1 -->
<g id="Node000001" class="node">
<title>Node1</title>
<g id="a_Node000001"><a xlink:title="Evaluate &#160;for a translation in one call.">
<polygon fill="#999999" stroke="#666666" points="184,-59.5 0,-59.5 0,-26 184,-26 184,-59.5"/>
<text xml:space="preserve" text-anchor="start" x="8" y="-46" font-family="Helvetica,sans-Serif" font-size="10.00">GreenFHom3DPer2D::Evaluateand</text>
<text xml:space="preserve" text-anchor="middle" x="92" y="-33.25" font-family="Helvetica,sans-Serif" font-size="10.00">GradientTranslate</text>
</a>
</g>
</g>
<!-- Node2 -->
<g id="Node000002" class="node">
<title>Node2</title>
<g id="a_Node000002"><a xlink:href="classGreenFHom3DPer2D.html#ad219414131e33eb361fe2240be9612a0" target="_top" xlink:title="Spatial part returning both normal and gradient.">
<polygon fill="white" stroke="#666666" points="391.25,-85.5 220,-85.5 220,-52 391.25,-52 391.25,-85.5"/>
<text xml:space="preserve" text-anchor="start" x="228" y="-72" font-family="Helvetica,sans-Serif" font-size="10.00">GreenFHom3DPer2D::EwaldAnd</text>
<text xml:space="preserve" text-anchor="middle" x="305.62" y="-59.25" font-family="Helvetica,sans-Serif" font-size="10.00">GradientSpatial</text>
</a>
</g>
</g>
<!-- Node1&#45;&gt;Node2 -->
<g id="edge1_Node000001_Node000002" class="edge">
<title>Node1&#45;&gt;Node2</title>
<g id="a_edge1_Node000001_Node000002"><a xlink:title=" ">
<path fill="none" stroke="#63b8ff" d="M184.28,-53.96C192.27,-54.95 200.36,-55.94 208.39,-56.93"/>
<polygon fill="#63b8ff" stroke="#63b8ff" points="207.8,-60.38 218.16,-58.13 208.66,-53.43 207.8,-60.38"/>
</a>
</g>
</g>
<!-- Node7 -->
<g id="Node000007" class="node">
<title>Node7</title>
<g id="a_Node000007"><a xlink:href="classGreenFHom3DPer2D.html#a025f6ce600bdd42ae02716905c75ba66" target="_top" xlink:title="Spectral part returning .">
<polygon fill="white" stroke="#666666" points="391.25,-33.5 220,-33.5 220,0 391.25,0 391.25,-33.5"/>
<text xml:space="preserve" text-anchor="start" x="228" y="-20" font-family="Helvetica,sans-Serif" font-size="10.00">GreenFHom3DPer2D::EwaldAnd</text>
<text xml:space="preserve" text-anchor="middle" x="305.62" y="-7.25" font-family="Helvetica,sans-Serif" font-size="10.00">GradientSpectral</text>
</a>
</g>
</g>
<!-- Node1&#45;&gt;Node7 -->
<g id="edge7_Node000001_Node000007" class="edge">
<title>Node1&#45;&gt;Node7</title>
<g id="a_edge7_Node000001_Node000007"><a xlink:title=" ">
<path fill="none" stroke="#63b8ff" d="M184.28,-31.54C192.27,-30.55 200.36,-29.56 208.39,-28.57"/>
<polygon fill="#63b8ff" stroke="#63b8ff" points="208.66,-32.07 218.16,-27.37 207.8,-25.12 208.66,-32.07"/>
</a>
</g>
</g>
<!-- Node3 -->
<g id="Node000003" class="node">
<title>Node3</title>
<g id="a_Node000003"><a xlink:href="classGreenF.html#abf00726011a4eca4109bc43125218d30" target="_top" xlink:title="Evaluate erfc via the 2D lookup table if available.">
<polygon fill="white" stroke="#666666" points="514.5,-72.12 427.25,-72.12 427.25,-51.38 514.5,-51.38 514.5,-72.12"/>
<text xml:space="preserve" text-anchor="middle" x="470.88" y="-58.62" font-family="Helvetica,sans-Serif" font-size="10.00">GreenF::EvErfc</text>
</a>
</g>
</g>
<!-- Node2&#45;&gt;Node3 -->
<g id="edge2_Node000002_Node000003" class="edge">
<title>Node2&#45;&gt;Node3</title>
<g id="a_edge2_Node000002_Node000003"><a xlink:title=" ">
<path fill="none" stroke="#63b8ff" d="M391.6,-65.11C399.73,-64.76 407.81,-64.41 415.53,-64.08"/>
<polygon fill="#63b8ff" stroke="#63b8ff" points="415.56,-67.58 425.4,-63.66 415.26,-60.59 415.56,-67.58"/>
</a>
</g>
</g>
<!-- Node4 -->
<g id="Node000004" class="node">
<title>Node4</title>
<g id="a_Node000004"><a xlink:href="mathFunctions_8cpp.html#a7916c6b62310fe9cf38ec2a2890aaad4" target="_top" xlink:title="Complementary error function for complex arguments.">
<polygon fill="white" stroke="#666666" points="590.5,-84.12 550.5,-84.12 550.5,-63.38 590.5,-63.38 590.5,-84.12"/>
<text xml:space="preserve" text-anchor="middle" x="570.5" y="-70.62" font-family="Helvetica,sans-Serif" font-size="10.00">cerfc</text>
</a>
</g>
</g>
<!-- Node3&#45;&gt;Node4 -->
<g id="edge3_Node000003_Node000004" class="edge">
<title>Node3&#45;&gt;Node4</title>
<g id="a_edge3_Node000003_Node000004"><a xlink:title=" ">
<path fill="none" stroke="#63b8ff" d="M514.98,-67.05C523.02,-68.04 531.28,-69.05 538.85,-69.98"/>
<polygon fill="#63b8ff" stroke="#63b8ff" points="538.21,-73.43 548.56,-71.18 539.07,-66.48 538.21,-73.43"/>
</a>
</g>
</g>
<!-- Node6 -->
<g id="Node000006" class="node">
<title>Node6</title>
<g id="a_Node000006"><a xlink:href="Domain_8cpp.html#aafa3e4fa6318b2f8740f4dbd50c367e5" target="_top" xlink:title="Extract the real part of each component of a complex 3&#45;vector.">
<polygon fill="white" stroke="#666666" points="587.88,-27.12 553.12,-27.12 553.12,-6.38 587.88,-6.38 587.88,-27.12"/>
<text xml:space="preserve" text-anchor="middle" x="570.5" y="-13.62" font-family="Helvetica,sans-Serif" font-size="10.00">real</text>
</a>
</g>
</g>
<!-- Node3&#45;&gt;Node6 -->
<g id="edge5_Node000003_Node000006" class="edge">
<title>Node3&#45;&gt;Node6</title>
<g id="a_edge5_Node000003_Node000006"><a xlink:title=" ">
<path fill="none" stroke="#63b8ff" d="M495.01,-51.09C509.26,-44.52 527.58,-36.07 542.49,-29.2"/>
<polygon fill="#63b8ff" stroke="#63b8ff" points="543.65,-32.52 551.26,-25.16 540.72,-26.16 543.65,-32.52"/>
</a>
</g>
</g>
<!-- Node5 -->
<g id="Node000005" class="node">
<title>Node5</title>
<g id="a_Node000005"><a xlink:href="mathFunctions_8cpp.html#abc57cde75234d7e165a9ebcdb45f2c29" target="_top" xlink:title="Error function for complex arguments.">
<polygon fill="white" stroke="#666666" points="661.25,-84.12 626.5,-84.12 626.5,-63.38 661.25,-63.38 661.25,-84.12"/>
<text xml:space="preserve" text-anchor="middle" x="643.88" y="-70.62" font-family="Helvetica,sans-Serif" font-size="10.00">cerf</text>
</a>
</g>
</g>
<!-- Node4&#45;&gt;Node5 -->
<g id="edge4_Node000004_Node000005" class="edge">
<title>Node4&#45;&gt;Node5</title>
<g id="a_edge4_Node000004_Node000005"><a xlink:title=" ">
<path fill="none" stroke="#63b8ff" d="M590.63,-73.75C598.06,-73.75 606.73,-73.75 614.84,-73.75"/>
<polygon fill="#63b8ff" stroke="#63b8ff" points="614.61,-77.25 624.61,-73.75 614.61,-70.25 614.61,-77.25"/>
</a>
</g>
</g>
<!-- Node6&#45;&gt;Node6 -->
<g id="edge6_Node000006_Node000006" class="edge">
<title>Node6&#45;&gt;Node6</title>
<g id="a_edge6_Node000006_Node000006"><a xlink:title=" ">
<path fill="none" stroke="#63b8ff" d="M558.68,-27.52C553.95,-36.18 557.89,-45.12 570.5,-45.12 577.2,-45.12 581.45,-42.6 583.26,-38.94"/>
<polygon fill="#63b8ff" stroke="#63b8ff" points="586.75,-38.71 582.45,-29.03 579.78,-39.28 586.75,-38.71"/>
</a>
</g>
</g>
<!-- Node7&#45;&gt;Node3 -->
<g id="edge10_Node000007_Node000003" class="edge">
<title>Node7&#45;&gt;Node3</title>
<g id="a_edge10_Node000007_Node000003"><a xlink:title=" ">
<path fill="none" stroke="#63b8ff" d="M368.81,-33.89C385.65,-38.53 403.66,-43.5 419.74,-47.93"/>
<polygon fill="#63b8ff" stroke="#63b8ff" points="418.5,-51.22 429.07,-50.5 420.36,-44.47 418.5,-51.22"/>
</a>
</g>
</g>
<!-- Node8 -->
<g id="Node000008" class="node">
<title>Node8</title>
<g id="a_Node000008"><a xlink:href="group__greenFunction.html#gac0a52dce23be7dacdf97c68653b6c137" target="_top" xlink:title="Complex square root with a branch cut along the negative real axis.">
<polygon fill="white" stroke="#666666" points="490.88,-27.12 450.88,-27.12 450.88,-6.38 490.88,-6.38 490.88,-27.12"/>
<text xml:space="preserve" text-anchor="middle" x="470.88" y="-13.62" font-family="Helvetica,sans-Serif" font-size="10.00">csqrt</text>
</a>
</g>
</g>
<!-- Node7&#45;&gt;Node8 -->
<g id="edge8_Node000007_Node000008" class="edge">
<title>Node7&#45;&gt;Node8</title>
<g id="a_edge8_Node000007_Node000008"><a xlink:title=" ">
<path fill="none" stroke="#63b8ff" d="M391.6,-16.75C408.73,-16.75 425.68,-16.75 439.39,-16.75"/>
<polygon fill="#63b8ff" stroke="#63b8ff" points="439.02,-20.25 449.02,-16.75 439.02,-13.25 439.02,-20.25"/>
</a>
</g>
</g>
<!-- Node8&#45;&gt;Node6 -->
<g id="edge9_Node000008_Node000006" class="edge">
<title>Node8&#45;&gt;Node6</title>
<g id="a_edge9_Node000008_Node000006"><a xlink:title=" ">
<path fill="none" stroke="#63b8ff" d="M491.16,-16.75C505.51,-16.75 525.31,-16.75 541.41,-16.75"/>
<polygon fill="#63b8ff" stroke="#63b8ff" points="541.34,-20.25 551.34,-16.75 541.34,-13.25 541.34,-20.25"/>
</a>
</g>
</g>
</g>
</svg>
