<?xml version="1.0" encoding="UTF-8" standalone="no"?>
<!DOCTYPE svg PUBLIC "-//W3C//DTD SVG 1.1//EN"
 "http://www.w3.org/Graphics/SVG/1.1/DTD/svg11.dtd">
<!-- Generated by graphviz version 13.1.2 (20250809.0930)
 -->
<!-- Title: PlaneWave::EvaluateLayeredEandH Pages: 1 -->
<svg width="415pt" height="164pt"
 viewBox="0.00 0.00 415.00 164.00" xmlns="http://www.w3.org/2000/svg" xmlns:xlink="http://www.w3.org/1999/xlink">
<g id="graph0" class="graph" transform="scale(1 1) rotate(0) translate(4 159.75)">
<title>PlaneWave::EvaluateLayeredEandH</title>
<!-- Node1 -->
<g id="Node000001" class="node">
<title>Node1</title>
<g id="a_Node000001"><a xlink:title="Evaluate the electric and magnetic fields at a given position in layered media.">
<polygon fill="#999999" stroke="#666666" points="157.75,-85.12 0,-85.12 0,-51.62 157.75,-51.62 157.75,-85.12"/>
<text xml:space="preserve" text-anchor="start" x="8" y="-71.62" font-family="Helvetica,sans-Serif" font-size="10.00">PlaneWave::EvaluateLayered</text>
<text xml:space="preserve" text-anchor="middle" x="78.88" y="-58.88" font-family="Helvetica,sans-Serif" font-size="10.00">EandH</text>
</a>
</g>
</g>
<!-- Node2 -->
<g id="Node000002" class="node">
<title>Node2</title>
<g id="a_Node000002"><a xlink:href="classPlaneWave.html#a66641ca1cfa189357ce861df408c1d67" target="_top" xlink:title="Computes the square root of a complex number with proper handling of negative imaginary parts.">
<polygon fill="white" stroke="#666666" points="331.25,-137.75 193.75,-137.75 193.75,-117 331.25,-117 331.25,-137.75"/>
<text xml:space="preserve" text-anchor="middle" x="262.5" y="-124.25" font-family="Helvetica,sans-Serif" font-size="10.00">PlaneWave::complexSqrt</text>
</a>
</g>
</g>
<!-- Node1&#45;&gt;Node2 -->
<g id="edge1_Node000001_Node000002" class="edge">
<title>Node1&#45;&gt;Node2</title>
<g id="a_edge1_Node000001_Node000002"><a xlink:title=" ">
<path fill="none" stroke="#63b8ff" d="M128.49,-85.54C148.62,-92.51 172.25,-100.52 193.75,-107.38 199.96,-109.35 206.52,-111.38 213,-113.33"/>
<polygon fill="#63b8ff" stroke="#63b8ff" points="211.75,-116.61 222.33,-116.12 213.75,-109.9 211.75,-116.61"/>
</a>
</g>
</g>
<!-- Node4 -->
<g id="Node000004" class="node">
<title>Node4</title>
<g id="a_Node000004"><a xlink:href="classPlaneWave.html#a21e80621788fddf887cf27b7c6f9bdf7" target="_top" xlink:title="Evaluate the electric field at a given position (homogeneous).">
<polygon fill="white" stroke="#666666" points="324.88,-98.75 200.12,-98.75 200.12,-78 324.88,-78 324.88,-98.75"/>
<text xml:space="preserve" text-anchor="middle" x="262.5" y="-85.25" font-family="Helvetica,sans-Serif" font-size="10.00">PlaneWave::EvaluateE</text>
</a>
</g>
</g>
<!-- Node1&#45;&gt;Node4 -->
<g id="edge4_Node000001_Node000004" class="edge">
<title>Node1&#45;&gt;Node4</title>
<g id="a_edge4_Node000001_Node000004"><a xlink:title=" ">
<path fill="none" stroke="#63b8ff" d="M158.22,-77C168.33,-78.12 178.66,-79.25 188.68,-80.36"/>
<polygon fill="#63b8ff" stroke="#63b8ff" points="188.01,-83.8 198.33,-81.42 188.77,-76.85 188.01,-83.8"/>
</a>
</g>
</g>
<!-- Node5 -->
<g id="Node000005" class="node">
<title>Node5</title>
<g id="a_Node000005"><a xlink:href="classPlaneWave.html#a25c1de1e9cee6a241765539a4b22f103" target="_top" xlink:title="Evaluate the magnetic field at a given position (homogeneous).">
<polygon fill="white" stroke="#666666" points="325.62,-59.75 199.38,-59.75 199.38,-39 325.62,-39 325.62,-59.75"/>
<text xml:space="preserve" text-anchor="middle" x="262.5" y="-46.25" font-family="Helvetica,sans-Serif" font-size="10.00">PlaneWave::EvaluateH</text>
</a>
</g>
</g>
<!-- Node1&#45;&gt;Node5 -->
<g id="edge5_Node000001_Node000005" class="edge">
<title>Node1&#45;&gt;Node5</title>
<g id="a_edge5_Node000001_Node000005"><a xlink:title=" ">
<path fill="none" stroke="#63b8ff" d="M158.22,-60.18C168.02,-59.15 178.01,-58.11 187.74,-57.09"/>
<polygon fill="#63b8ff" stroke="#63b8ff" points="187.92,-60.59 197.5,-56.07 187.19,-53.63 187.92,-60.59"/>
</a>
</g>
</g>
<!-- Node6 -->
<g id="Node000006" class="node">
<title>Node6</title>
<g id="a_Node000006"><a xlink:href="classPlaneWave.html#aa6b2d336c79c07cf23471fe99642d933" target="_top" xlink:title="Convert rvec to cvec (real vector to complex vector).">
<polygon fill="white" stroke="#666666" points="325.25,-20.75 199.75,-20.75 199.75,0 325.25,0 325.25,-20.75"/>
<text xml:space="preserve" text-anchor="middle" x="262.5" y="-7.25" font-family="Helvetica,sans-Serif" font-size="10.00">PlaneWave::rvec2cvec</text>
</a>
</g>
</g>
<!-- Node1&#45;&gt;Node6 -->
<g id="edge6_Node000001_Node000006" class="edge">
<title>Node1&#45;&gt;Node6</title>
<g id="a_edge6_Node000001_Node000006"><a xlink:title=" ">
<path fill="none" stroke="#63b8ff" d="M130.2,-51.16C149.97,-44.51 172.87,-36.94 193.75,-30.38 199.97,-28.42 206.53,-26.41 213.02,-24.46"/>
<polygon fill="#63b8ff" stroke="#63b8ff" points="213.77,-27.89 222.35,-21.68 211.77,-21.18 213.77,-27.89"/>
</a>
</g>
</g>
<!-- Node3 -->
<g id="Node000003" class="node">
<title>Node3</title>
<g id="a_Node000003"><a xlink:href="Domain_8cpp.html#aafa3e4fa6318b2f8740f4dbd50c367e5" target="_top" xlink:title="Extract the real part of each component of a complex 3&#45;vector.">
<polygon fill="white" stroke="#666666" points="402,-137.75 367.25,-137.75 367.25,-117 402,-117 402,-137.75"/>
<text xml:space="preserve" text-anchor="middle" x="384.62" y="-124.25" font-family="Helvetica,sans-Serif" font-size="10.00">real</text>
</a>
</g>
</g>
<!-- Node2&#45;&gt;Node3 -->
<g id="edge2_Node000002_Node000003" class="edge">
<title>Node2&#45;&gt;Node3</title>
<g id="a_edge2_Node000002_Node000003"><a xlink:title=" ">
<path fill="none" stroke="#63b8ff" d="M331.64,-127.38C340.05,-127.38 348.25,-127.38 355.55,-127.38"/>
<polygon fill="#63b8ff" stroke="#63b8ff" points="355.37,-130.88 365.37,-127.38 355.37,-123.88 355.37,-130.88"/>
</a>
</g>
</g>
<!-- Node3&#45;&gt;Node3 -->
<g id="edge3_Node000003_Node000003" class="edge">
<title>Node3&#45;&gt;Node3</title>
<g id="a_edge3_Node000003_Node000003"><a xlink:title=" ">
<path fill="none" stroke="#63b8ff" d="M366.76,-136.38C356.25,-145.55 362.2,-155.75 384.62,-155.75 398.64,-155.75 406.22,-151.76 407.37,-146.54"/>
<polygon fill="#63b8ff" stroke="#63b8ff" points="410.63,-145.25 403.15,-137.75 404.32,-148.28 410.63,-145.25"/>
</a>
</g>
</g>
</g>
</svg>
