<?xml version="1.0" encoding="UTF-8" standalone="no"?>
<!DOCTYPE svg PUBLIC "-//W3C//DTD SVG 1.1//EN"
 "http://www.w3.org/Graphics/SVG/1.1/DTD/svg11.dtd">
<!-- Generated by graphviz version 13.1.2 (20250809.0930)
 -->
<!-- Title: GreenFHom3DPer2D::EvaluateTranslate Pages: 1 -->
<svg width="672pt" height="86pt"
 viewBox="0.00 0.00 672.00 86.00" xmlns="http://www.w3.org/2000/svg" xmlns:xlink="http://www.w3.org/1999/xlink">
<g id="graph0" class="graph" transform="scale(1 1) rotate(0) translate(4 81.75)">
<title>GreenFHom3DPer2D::EvaluateTranslate</title>
<!-- Node1 -->
<g id="Node000001" class="node">
<title>Node1</title>
<g id="a_Node000001"><a xlink:title="Scalar &#160;for a specific lattice translation.">
<polygon fill="#999999" stroke="#666666" points="166,-46.12 0,-46.12 0,-12.62 166,-12.62 166,-46.12"/>
<text xml:space="preserve" text-anchor="start" x="8" y="-32.62" font-family="Helvetica,sans-Serif" font-size="10.00">GreenFHom3DPer2D::Evaluate</text>
<text xml:space="preserve" text-anchor="middle" x="83" y="-19.88" font-family="Helvetica,sans-Serif" font-size="10.00">Translate</text>
</a>
</g>
</g>
<!-- Node2 -->
<g id="Node000002" class="node">
<title>Node2</title>
<g id="a_Node000002"><a xlink:href="classGreenFHom3DPer2D.html#a1bf2f1eb77a84b027b99ec75d31c8576" target="_top" xlink:title="Spatial (real&#45;space images) part of Ewald sum.">
<polygon fill="white" stroke="#666666" points="391.25,-59.75 205,-59.75 205,-39 391.25,-39 391.25,-59.75"/>
<text xml:space="preserve" text-anchor="middle" x="298.12" y="-46.25" font-family="Helvetica,sans-Serif" font-size="10.00">GreenFHom3DPer2D::EwaldSpatial</text>
</a>
</g>
</g>
<!-- Node1&#45;&gt;Node2 -->
<g id="edge1_Node000001_Node000002" class="edge">
<title>Node1&#45;&gt;Node2</title>
<g id="a_edge1_Node000001_Node000002"><a xlink:title=" ">
<path fill="none" stroke="#63b8ff" d="M166.4,-37.11C175.21,-37.93 184.26,-38.78 193.28,-39.63"/>
<polygon fill="#63b8ff" stroke="#63b8ff" points="192.88,-43.11 203.16,-40.56 193.53,-36.14 192.88,-43.11"/>
</a>
</g>
</g>
<!-- Node7 -->
<g id="Node000007" class="node">
<title>Node7</title>
<g id="a_Node000007"><a xlink:href="classGreenFHom3DPer2D.html#aad98b9953626259eda54006eecbcf04e" target="_top" xlink:title="Spectral (reciprocal&#45;lattice) part of Ewald sum for .">
<polygon fill="white" stroke="#666666" points="394.25,-20.75 202,-20.75 202,0 394.25,0 394.25,-20.75"/>
<text xml:space="preserve" text-anchor="middle" x="298.12" y="-7.25" font-family="Helvetica,sans-Serif" font-size="10.00">GreenFHom3DPer2D::EwaldSpectral</text>
</a>
</g>
</g>
<!-- Node1&#45;&gt;Node7 -->
<g id="edge7_Node000001_Node000007" class="edge">
<title>Node1&#45;&gt;Node7</title>
<g id="a_edge7_Node000001_Node000007"><a xlink:title=" ">
<path fill="none" stroke="#63b8ff" d="M166.4,-22.03C174.28,-21.33 182.35,-20.61 190.42,-19.89"/>
<polygon fill="#63b8ff" stroke="#63b8ff" points="190.65,-23.38 200.3,-19.01 190.03,-16.41 190.65,-23.38"/>
</a>
</g>
</g>
<!-- Node3 -->
<g id="Node000003" class="node">
<title>Node3</title>
<g id="a_Node000003"><a xlink:href="classGreenF.html#abf00726011a4eca4109bc43125218d30" target="_top" xlink:title="Evaluate erfc via the 2D lookup table if available.">
<polygon fill="white" stroke="#666666" points="517.5,-59.75 430.25,-59.75 430.25,-39 517.5,-39 517.5,-59.75"/>
<text xml:space="preserve" text-anchor="middle" x="473.88" y="-46.25" font-family="Helvetica,sans-Serif" font-size="10.00">GreenF::EvErfc</text>
</a>
</g>
</g>
<!-- Node2&#45;&gt;Node3 -->
<g id="edge2_Node000002_Node000003" class="edge">
<title>Node2&#45;&gt;Node3</title>
<g id="a_edge2_Node000002_Node000003"><a xlink:title=" ">
<path fill="none" stroke="#63b8ff" d="M391.6,-49.38C400.85,-49.38 410.01,-49.38 418.67,-49.38"/>
<polygon fill="#63b8ff" stroke="#63b8ff" points="418.61,-52.88 428.61,-49.38 418.61,-45.88 418.61,-52.88"/>
</a>
</g>
</g>
<!-- Node4 -->
<g id="Node000004" class="node">
<title>Node4</title>
<g id="a_Node000004"><a xlink:href="mathFunctions_8cpp.html#a7916c6b62310fe9cf38ec2a2890aaad4" target="_top" xlink:title="Complementary error function for complex arguments.">
<polygon fill="white" stroke="#666666" points="593.5,-77.75 553.5,-77.75 553.5,-57 593.5,-57 593.5,-77.75"/>
<text xml:space="preserve" text-anchor="middle" x="573.5" y="-64.25" font-family="Helvetica,sans-Serif" font-size="10.00">cerfc</text>
</a>
</g>
</g>
<!-- Node3&#45;&gt;Node4 -->
<g id="edge3_Node000003_Node000004" class="edge">
<title>Node3&#45;&gt;Node4</title>
<g id="a_edge3_Node000003_Node000004"><a xlink:title=" ">
<path fill="none" stroke="#63b8ff" d="M517.98,-57.32C526.02,-58.81 534.28,-60.33 541.85,-61.72"/>
<polygon fill="#63b8ff" stroke="#63b8ff" points="541.11,-65.15 551.58,-63.52 542.38,-58.26 541.11,-65.15"/>
</a>
</g>
</g>
<!-- Node6 -->
<g id="Node000006" class="node">
<title>Node6</title>
<g id="a_Node000006"><a xlink:href="Domain_8cpp.html#aafa3e4fa6318b2f8740f4dbd50c367e5" target="_top" xlink:title="Extract the real part of each component of a complex 3&#45;vector.">
<polygon fill="white" stroke="#666666" points="590.88,-20.75 556.12,-20.75 556.12,0 590.88,0 590.88,-20.75"/>
<text xml:space="preserve" text-anchor="middle" x="573.5" y="-7.25" font-family="Helvetica,sans-Serif" font-size="10.00">real</text>
</a>
</g>
</g>
<!-- Node3&#45;&gt;Node6 -->
<g id="edge5_Node000003_Node000006" class="edge">
<title>Node3&#45;&gt;Node6</title>
<g id="a_edge5_Node000003_Node000006"><a xlink:title=" ">
<path fill="none" stroke="#63b8ff" d="M502.07,-38.51C515.56,-33.12 531.8,-26.63 545.29,-21.24"/>
<polygon fill="#63b8ff" stroke="#63b8ff" points="546.46,-24.55 554.45,-17.59 543.86,-18.05 546.46,-24.55"/>
</a>
</g>
</g>
<!-- Node5 -->
<g id="Node000005" class="node">
<title>Node5</title>
<g id="a_Node000005"><a xlink:href="mathFunctions_8cpp.html#abc57cde75234d7e165a9ebcdb45f2c29" target="_top" xlink:title="Error function for complex arguments.">
<polygon fill="white" stroke="#666666" points="664.25,-77.75 629.5,-77.75 629.5,-57 664.25,-57 664.25,-77.75"/>
<text xml:space="preserve" text-anchor="middle" x="646.88" y="-64.25" font-family="Helvetica,sans-Serif" font-size="10.00">cerf</text>
</a>
</g>
</g>
<!-- Node4&#45;&gt;Node5 -->
<g id="edge4_Node000004_Node000005" class="edge">
<title>Node4&#45;&gt;Node5</title>
<g id="a_edge4_Node000004_Node000005"><a xlink:title=" ">
<path fill="none" stroke="#63b8ff" d="M593.63,-67.38C601.06,-67.38 609.73,-67.38 617.84,-67.38"/>
<polygon fill="#63b8ff" stroke="#63b8ff" points="617.61,-70.88 627.61,-67.38 617.61,-63.88 617.61,-70.88"/>
</a>
</g>
</g>
<!-- Node6&#45;&gt;Node6 -->
<g id="edge6_Node000006_Node000006" class="edge">
<title>Node6&#45;&gt;Node6</title>
<g id="a_edge6_Node000006_Node000006"><a xlink:title=" ">
<path fill="none" stroke="#63b8ff" d="M561.68,-21.15C556.95,-29.81 560.89,-38.75 573.5,-38.75 580.2,-38.75 584.45,-36.23 586.26,-32.56"/>
<polygon fill="#63b8ff" stroke="#63b8ff" points="589.75,-32.34 585.45,-22.66 582.78,-32.91 589.75,-32.34"/>
</a>
</g>
</g>
<!-- Node7&#45;&gt;Node3 -->
<g id="edge10_Node000007_Node000003" class="edge">
<title>Node7&#45;&gt;Node3</title>
<g id="a_edge10_Node000007_Node000003"><a xlink:title=" ">
<path fill="none" stroke="#63b8ff" d="M352.02,-21.2C365.78,-24.1 380.59,-27.29 394.25,-30.38 402.25,-32.18 410.7,-34.16 418.97,-36.12"/>
<polygon fill="#63b8ff" stroke="#63b8ff" points="418.07,-39.51 428.61,-38.44 419.7,-32.7 418.07,-39.51"/>
</a>
</g>
</g>
<!-- Node8 -->
<g id="Node000008" class="node">
<title>Node8</title>
<g id="a_Node000008"><a xlink:href="group__greenFunction.html#gac0a52dce23be7dacdf97c68653b6c137" target="_top" xlink:title="Complex square root with a branch cut along the negative real axis.">
<polygon fill="white" stroke="#666666" points="493.88,-20.75 453.88,-20.75 453.88,0 493.88,0 493.88,-20.75"/>
<text xml:space="preserve" text-anchor="middle" x="473.88" y="-7.25" font-family="Helvetica,sans-Serif" font-size="10.00">csqrt</text>
</a>
</g>
</g>
<!-- Node7&#45;&gt;Node8 -->
<g id="edge8_Node000007_Node000008" class="edge">
<title>Node7&#45;&gt;Node8</title>
<g id="a_edge8_Node000007_Node000008"><a xlink:title=" ">
<path fill="none" stroke="#63b8ff" d="M394.64,-10.38C411.79,-10.38 428.48,-10.38 442.01,-10.38"/>
<polygon fill="#63b8ff" stroke="#63b8ff" points="441.96,-13.88 451.96,-10.38 441.96,-6.88 441.96,-13.88"/>
</a>
</g>
</g>
<!-- Node8&#45;&gt;Node6 -->
<g id="edge9_Node000008_Node000006" class="edge">
<title>Node8&#45;&gt;Node6</title>
<g id="a_edge9_Node000008_Node000006"><a xlink:title=" ">
<path fill="none" stroke="#63b8ff" d="M494.16,-10.38C508.51,-10.38 528.31,-10.38 544.41,-10.38"/>
<polygon fill="#63b8ff" stroke="#63b8ff" points="544.34,-13.88 554.34,-10.38 544.34,-6.88 544.34,-13.88"/>
</a>
</g>
</g>
</g>
</svg>
