<?xml version="1.0" encoding="UTF-8" standalone="no"?>
<!DOCTYPE svg PUBLIC "-//W3C//DTD SVG 1.1//EN"
 "http://www.w3.org/Graphics/SVG/1.1/DTD/svg11.dtd">
<!-- Generated by graphviz version 13.1.2 (20250809.0930)
 -->
<!-- Title: SimJob::WriteVectorToFile Pages: 1 -->
<svg width="361pt" height="68pt"
 viewBox="0.00 0.00 361.00 68.00" xmlns="http://www.w3.org/2000/svg" xmlns:xlink="http://www.w3.org/1999/xlink">
<g id="graph0" class="graph" transform="scale(1 1) rotate(0) translate(4 63.75)">
<title>SimJob::WriteVectorToFile</title>
<!-- Node1 -->
<g id="Node000001" class="node">
<title>Node1</title>
<g id="a_Node000001"><a xlink:title="Write a 1D Blitz vector in text format.">
<polygon fill="#999999" stroke="#666666" points="352.5,-39.75 212,-39.75 212,-19 352.5,-19 352.5,-39.75"/>
<text xml:space="preserve" text-anchor="middle" x="282.25" y="-26.25" font-family="Helvetica,sans-Serif" font-size="10.00">SimJob::WriteVectorToFile</text>
</a>
</g>
</g>
<!-- Node2 -->
<g id="Node000002" class="node">
<title>Node2</title>
<g id="a_Node000002"><a xlink:href="classSimJob.html#a12a443329f3e49a5a94a6af72403d93b" target="_top" xlink:title="Casimir workflow entry (uses gradient matrices if enabled).">
<polygon fill="white" stroke="#666666" points="173,-59.75 79.75,-59.75 79.75,-39 173,-39 173,-59.75"/>
<text xml:space="preserve" text-anchor="middle" x="126.38" y="-46.25" font-family="Helvetica,sans-Serif" font-size="10.00">SimJob::Casimir</text>
</a>
</g>
</g>
<!-- Node1&#45;&gt;Node2 -->
<g id="edge1_Node000001_Node000002" class="edge">
<title>Node1&#45;&gt;Node2</title>
<g id="a_edge1_Node000001_Node000002"><a xlink:title=" ">
<path fill="none" stroke="#63b8ff" d="M200.17,-39.91C190.88,-41.12 181.66,-42.32 173.07,-43.44"/>
<polygon fill="#63b8ff" stroke="#63b8ff" points="200.55,-43.39 210.02,-38.63 199.65,-36.45 200.55,-43.39"/>
</a>
</g>
</g>
<!-- Node4 -->
<g id="Node000004" class="node">
<title>Node4</title>
<g id="a_Node000004"><a xlink:href="classSimJob.html#aeca9fd8ceee84fdef75996581fe1093a" target="_top" xlink:title="High&#45;level entry: run a simulation for a given job file.">
<polygon fill="white" stroke="#666666" points="176,-20.75 76.75,-20.75 76.75,0 176,0 176,-20.75"/>
<text xml:space="preserve" text-anchor="middle" x="126.38" y="-7.25" font-family="Helvetica,sans-Serif" font-size="10.00">SimJob::Simulate</text>
</a>
</g>
</g>
<!-- Node1&#45;&gt;Node4 -->
<g id="edge3_Node000001_Node000004" class="edge">
<title>Node1&#45;&gt;Node4</title>
<g id="a_edge3_Node000001_Node000004"><a xlink:title=" ">
<path fill="none" stroke="#63b8ff" d="M200.3,-19.38C192.08,-18.36 183.92,-17.36 176.19,-16.4"/>
<polygon fill="#63b8ff" stroke="#63b8ff" points="199.66,-22.83 210.01,-20.58 200.52,-15.88 199.66,-22.83"/>
</a>
</g>
</g>
<!-- Node3 -->
<g id="Node000003" class="node">
<title>Node3</title>
<g id="a_Node000003"><a xlink:href="casimir_8cpp.html#a0ddf1224851353fc92bfbff6f499fa97" target="_top" xlink:title="Main driver routine for the simulation program.">
<polygon fill="white" stroke="#666666" points="40.75,-59.75 0,-59.75 0,-39 40.75,-39 40.75,-59.75"/>
<text xml:space="preserve" text-anchor="middle" x="20.38" y="-46.25" font-family="Helvetica,sans-Serif" font-size="10.00">main</text>
</a>
</g>
</g>
<!-- Node2&#45;&gt;Node3 -->
<g id="edge2_Node000002_Node000003" class="edge">
<title>Node2&#45;&gt;Node3</title>
<g id="a_edge2_Node000002_Node000003"><a xlink:title=" ">
<path fill="none" stroke="#63b8ff" d="M68.02,-49.38C58.31,-49.38 48.85,-49.38 41.01,-49.38"/>
<polygon fill="#63b8ff" stroke="#63b8ff" points="67.94,-52.88 77.94,-49.38 67.94,-45.88 67.94,-52.88"/>
</a>
</g>
</g>
<!-- Node5 -->
<g id="Node000005" class="node">
<title>Node5</title>
<g id="a_Node000005"><a xlink:href="main_8cpp.html#a0ddf1224851353fc92bfbff6f499fa97" target="_top" xlink:title="Main driver routine for the HELIOS SIE simulation program.">
<polygon fill="white" stroke="#666666" points="40.75,-20.75 0,-20.75 0,0 40.75,0 40.75,-20.75"/>
<text xml:space="preserve" text-anchor="middle" x="20.38" y="-7.25" font-family="Helvetica,sans-Serif" font-size="10.00">main</text>
</a>
</g>
</g>
<!-- Node4&#45;&gt;Node5 -->
<g id="edge4_Node000004_Node000005" class="edge">
<title>Node4&#45;&gt;Node5</title>
<g id="a_edge4_Node000004_Node000005"><a xlink:title=" ">
<path fill="none" stroke="#63b8ff" d="M64.98,-10.38C56.35,-10.38 48.03,-10.38 41.02,-10.38"/>
<polygon fill="#63b8ff" stroke="#63b8ff" points="64.91,-13.88 74.91,-10.38 64.91,-6.88 64.91,-13.88"/>
</a>
</g>
</g>
</g>
</svg>
