<?xml version="1.0" encoding="UTF-8" standalone="no"?>
<!DOCTYPE svg PUBLIC "-//W3C//DTD SVG 1.1//EN"
 "http://www.w3.org/Graphics/SVG/1.1/DTD/svg11.dtd">
<!-- Generated by graphviz version 13.1.2 (20250809.0930)
 -->
<!-- Title: Domain::SecFieldE Pages: 1 -->
<svg width="621pt" height="68pt"
 viewBox="0.00 0.00 621.00 68.00" xmlns="http://www.w3.org/2000/svg" xmlns:xlink="http://www.w3.org/1999/xlink">
<g id="graph0" class="graph" transform="scale(1 1) rotate(0) translate(4 63.75)">
<title>Domain::SecFieldE</title>
<!-- Node1 -->
<g id="Node000001" class="node">
<title>Node1</title>
<g id="a_Node000001"><a xlink:title="Secondary (scattered) electric field at a point from the solution vector.">
<polygon fill="#999999" stroke="#666666" points="612.5,-39.75 505.75,-39.75 505.75,-19 612.5,-19 612.5,-39.75"/>
<text xml:space="preserve" text-anchor="middle" x="559.12" y="-26.25" font-family="Helvetica,sans-Serif" font-size="10.00">Domain::SecFieldE</text>
</a>
</g>
</g>
<!-- Node2 -->
<g id="Node000002" class="node">
<title>Node2</title>
<g id="a_Node000002"><a xlink:href="classSimJob.html#a746e46ef2aa6843c2f4da96e472c75a3" target="_top" xlink:title="Incident and secondary &#160;at pos (domain auto&#45;detected).">
<polygon fill="white" stroke="#666666" points="469.75,-59.75 384.75,-59.75 384.75,-39 469.75,-39 469.75,-59.75"/>
<text xml:space="preserve" text-anchor="middle" x="427.25" y="-46.25" font-family="Helvetica,sans-Serif" font-size="10.00">SimJob::EField</text>
</a>
</g>
</g>
<!-- Node1&#45;&gt;Node2 -->
<g id="edge1_Node000001_Node000002" class="edge">
<title>Node1&#45;&gt;Node2</title>
<g id="a_edge1_Node000001_Node000002"><a xlink:title=" ">
<path fill="none" stroke="#63b8ff" d="M494.13,-39.23C485.89,-40.5 477.63,-41.77 469.88,-42.96"/>
<polygon fill="#63b8ff" stroke="#63b8ff" points="494.45,-42.72 503.8,-37.74 493.39,-35.8 494.45,-42.72"/>
</a>
</g>
</g>
<!-- Node6 -->
<g id="Node000006" class="node">
<title>Node6</title>
<g id="a_Node000006"><a xlink:href="classSimJob.html#a10e94801726e68c660938659856c75b2" target="_top" xlink:title="Incident and secondary &#160;at pos with known containing domain.">
<polygon fill="white" stroke="#666666" points="469.75,-20.75 384.75,-20.75 384.75,0 469.75,0 469.75,-20.75"/>
<text xml:space="preserve" text-anchor="middle" x="427.25" y="-7.25" font-family="Helvetica,sans-Serif" font-size="10.00">SimJob::EField</text>
</a>
</g>
</g>
<!-- Node1&#45;&gt;Node6 -->
<g id="edge5_Node000001_Node000006" class="edge">
<title>Node1&#45;&gt;Node6</title>
<g id="a_edge5_Node000001_Node000006"><a xlink:title=" ">
<path fill="none" stroke="#63b8ff" d="M494.13,-20.01C485.89,-18.81 477.63,-17.6 469.88,-16.47"/>
<polygon fill="#63b8ff" stroke="#63b8ff" points="493.4,-23.44 503.8,-21.43 494.41,-16.52 493.4,-23.44"/>
</a>
</g>
</g>
<!-- Node3 -->
<g id="Node000003" class="node">
<title>Node3</title>
<g id="a_Node000003"><a xlink:href="classSimJob.html#aa492cf9e3639f2dfa91e36364a76729a" target="_top" xlink:title="Thread worker to evaluate fields over posvec in parallel.">
<polygon fill="white" stroke="#666666" points="348.75,-59.75 212.75,-59.75 212.75,-39 348.75,-39 348.75,-59.75"/>
<text xml:space="preserve" text-anchor="middle" x="280.75" y="-46.25" font-family="Helvetica,sans-Serif" font-size="10.00">SimJob::FieldEvalParallel</text>
</a>
</g>
</g>
<!-- Node2&#45;&gt;Node3 -->
<g id="edge2_Node000002_Node000003" class="edge">
<title>Node2&#45;&gt;Node3</title>
<g id="a_edge2_Node000002_Node000003"><a xlink:title=" ">
<path fill="none" stroke="#63b8ff" d="M373.21,-49.38C365.35,-49.38 357.15,-49.38 349.04,-49.38"/>
<polygon fill="#63b8ff" stroke="#63b8ff" points="372.94,-52.88 382.94,-49.38 372.94,-45.88 372.94,-52.88"/>
</a>
</g>
</g>
<!-- Node4 -->
<g id="Node000004" class="node">
<title>Node4</title>
<g id="a_Node000004"><a xlink:href="classSimJob.html#a20b37e2e0aa2502a3ec465a5705b1774" target="_top" xlink:title="Evaluate fields on a set of points read from a file.">
<polygon fill="white" stroke="#666666" points="176.75,-59.75 76.75,-59.75 76.75,-39 176.75,-39 176.75,-59.75"/>
<text xml:space="preserve" text-anchor="middle" x="126.75" y="-46.25" font-family="Helvetica,sans-Serif" font-size="10.00">SimJob::FieldEval</text>
</a>
</g>
</g>
<!-- Node3&#45;&gt;Node4 -->
<g id="edge3_Node000003_Node000004" class="edge">
<title>Node3&#45;&gt;Node4</title>
<g id="a_edge3_Node000003_Node000004"><a xlink:title=" ">
<path fill="none" stroke="#63b8ff" d="M201.4,-49.38C193.16,-49.38 184.94,-49.38 177.16,-49.38"/>
<polygon fill="#63b8ff" stroke="#63b8ff" points="201.12,-52.88 211.12,-49.38 201.12,-45.88 201.12,-52.88"/>
</a>
</g>
</g>
<!-- Node5 -->
<g id="Node000005" class="node">
<title>Node5</title>
<g id="a_Node000005"><a xlink:href="main_8cpp.html#a0ddf1224851353fc92bfbff6f499fa97" target="_top" xlink:title="Main driver routine for the HELIOS SIE simulation program.">
<polygon fill="white" stroke="#666666" points="40.75,-59.75 0,-59.75 0,-39 40.75,-39 40.75,-59.75"/>
<text xml:space="preserve" text-anchor="middle" x="20.38" y="-46.25" font-family="Helvetica,sans-Serif" font-size="10.00">main</text>
</a>
</g>
</g>
<!-- Node4&#45;&gt;Node5 -->
<g id="edge4_Node000004_Node000005" class="edge">
<title>Node4&#45;&gt;Node5</title>
<g id="a_edge4_Node000004_Node000005"><a xlink:title=" ">
<path fill="none" stroke="#63b8ff" d="M64.97,-49.38C56.42,-49.38 48.18,-49.38 41.22,-49.38"/>
<polygon fill="#63b8ff" stroke="#63b8ff" points="64.8,-52.88 74.8,-49.38 64.8,-45.88 64.8,-52.88"/>
</a>
</g>
</g>
</g>
</svg>
