<?xml version="1.0" encoding="UTF-8" standalone="no"?>
<!DOCTYPE svg PUBLIC "-//W3C//DTD SVG 1.1//EN"
 "http://www.w3.org/Graphics/SVG/1.1/DTD/svg11.dtd">
<!-- Generated by graphviz version 13.1.2 (20250809.0930)
 -->
<!-- Title: GreenFHom3D::GreenFHom3D Pages: 1 -->
<svg width="844pt" height="255pt"
 viewBox="0.00 0.00 844.00 255.00" xmlns="http://www.w3.org/2000/svg" xmlns:xlink="http://www.w3.org/1999/xlink">
<g id="graph0" class="graph" transform="scale(1 1) rotate(0) translate(4 251.12)">
<title>GreenFHom3D::GreenFHom3D</title>
<!-- Node1 -->
<g id="Node000001" class="node">
<title>Node1</title>
<g id="a_Node000001"><a xlink:title="Default constructor (initializes with zeroed wavenumber and no lookup table).">
<polygon fill="#999999" stroke="#666666" points="835.75,-129.75 669.75,-129.75 669.75,-109 835.75,-109 835.75,-129.75"/>
<text xml:space="preserve" text-anchor="middle" x="752.75" y="-116.25" font-family="Helvetica,sans-Serif" font-size="10.00">GreenFHom3D::GreenFHom3D</text>
</a>
</g>
</g>
<!-- Node2 -->
<g id="Node000002" class="node">
<title>Node2</title>
<g id="a_Node000002"><a xlink:href="classGreenFHom3DPer.html#aa37478b09d78cff44338edc1b4be41ac" target="_top" xlink:title="Homogeneous, magnetic constructor with Bloch vector.">
<polygon fill="white" stroke="#666666" points="633.75,-227.75 436.25,-227.75 436.25,-207 633.75,-207 633.75,-227.75"/>
<text xml:space="preserve" text-anchor="middle" x="535" y="-214.25" font-family="Helvetica,sans-Serif" font-size="10.00">GreenFHom3DPer::GreenFHom3DPer</text>
</a>
</g>
</g>
<!-- Node1&#45;&gt;Node2 -->
<g id="edge1_Node000001_Node000002" class="edge">
<title>Node1&#45;&gt;Node2</title>
<g id="a_edge1_Node000001_Node000002"><a xlink:title=" ">
<path fill="none" stroke="#63b8ff" d="M730.52,-137.08C707.93,-154.99 670.47,-182.15 633.75,-197.38 624.87,-201.06 615.24,-204.08 605.62,-206.56"/>
<polygon fill="#63b8ff" stroke="#63b8ff" points="732.49,-139.99 738.06,-130.98 728.09,-134.55 732.49,-139.99"/>
</a>
</g>
</g>
<!-- Node3 -->
<g id="Node000003" class="node">
<title>Node3</title>
<g id="a_Node000003"><a xlink:href="classGreenFHom3DPer.html#a414d2e05ac1b3d089e2a5556e6e16a93" target="_top" xlink:title="Homogeneous, non‑magnetic constructor with Bloch vector.">
<polygon fill="white" stroke="#666666" points="633.75,-188.75 436.25,-188.75 436.25,-168 633.75,-168 633.75,-188.75"/>
<text xml:space="preserve" text-anchor="middle" x="535" y="-175.25" font-family="Helvetica,sans-Serif" font-size="10.00">GreenFHom3DPer::GreenFHom3DPer</text>
</a>
</g>
</g>
<!-- Node1&#45;&gt;Node3 -->
<g id="edge2_Node000001_Node000003" class="edge">
<title>Node1&#45;&gt;Node3</title>
<g id="a_edge2_Node000001_Node000003"><a xlink:title=" ">
<path fill="none" stroke="#63b8ff" d="M711.87,-133.85C689.17,-141.77 660.09,-151.35 633.75,-158.38 621.2,-161.72 607.61,-164.82 594.67,-167.54"/>
<polygon fill="#63b8ff" stroke="#63b8ff" points="712.76,-137.25 721.03,-130.62 710.44,-130.65 712.76,-137.25"/>
</a>
</g>
</g>
<!-- Node10 -->
<g id="Node000010" class="node">
<title>Node10</title>
<g id="a_Node000010"><a xlink:href="classGreenFHom3D.html#aca136b03c44ad1da34acf91eb5a5e390" target="_top" xlink:title="term at an observation point.">
<polygon fill="white" stroke="#666666" points="617.25,-149.75 452.75,-149.75 452.75,-129 617.25,-129 617.25,-149.75"/>
<text xml:space="preserve" text-anchor="middle" x="535" y="-136.25" font-family="Helvetica,sans-Serif" font-size="10.00">GreenFHom3D::IntegrateDelta</text>
</a>
</g>
</g>
<!-- Node1&#45;&gt;Node10 -->
<g id="edge9_Node000001_Node000010" class="edge">
<title>Node1&#45;&gt;Node10</title>
<g id="a_edge9_Node000001_Node000010"><a xlink:title=" ">
<path fill="none" stroke="#63b8ff" d="M658.07,-128.06C644.64,-129.3 630.91,-130.58 617.73,-131.8"/>
<polygon fill="#63b8ff" stroke="#63b8ff" points="658.12,-131.57 667.75,-127.16 657.47,-124.6 658.12,-131.57"/>
</a>
</g>
</g>
<!-- Node11 -->
<g id="Node000011" class="node">
<title>Node11</title>
<g id="a_Node000011"><a xlink:href="classGreenFHom3D.html#a9cece8a4056d65455cfcc94c8c61decd" target="_top" xlink:title="term at an observation point.">
<polygon fill="white" stroke="#666666" points="619.5,-110.75 450.5,-110.75 450.5,-90 619.5,-90 619.5,-110.75"/>
<text xml:space="preserve" text-anchor="middle" x="535" y="-97.25" font-family="Helvetica,sans-Serif" font-size="10.00">GreenFHom3D::IntegrateKappa</text>
</a>
</g>
</g>
<!-- Node1&#45;&gt;Node11 -->
<g id="edge10_Node000001_Node000011" class="edge">
<title>Node1&#45;&gt;Node11</title>
<g id="a_edge10_Node000001_Node000011"><a xlink:title=" ">
<path fill="none" stroke="#63b8ff" d="M658.16,-111.13C645.42,-110.01 632.42,-108.87 619.87,-107.76"/>
<polygon fill="#63b8ff" stroke="#63b8ff" points="657.48,-114.59 667.75,-111.98 658.1,-107.61 657.48,-114.59"/>
</a>
</g>
</g>
<!-- Node12 -->
<g id="Node000012" class="node">
<title>Node12</title>
<g id="a_Node000012"><a xlink:href="classGreenFHom3D.html#a48e8471aabb445e0e50a01c005ff3b98" target="_top" xlink:title="Compute &#160;for all RWGs on a source triangle.">
<polygon fill="white" stroke="#666666" points="614.62,-72.12 455.38,-72.12 455.38,-38.62 614.62,-38.62 614.62,-72.12"/>
<text xml:space="preserve" text-anchor="start" x="463.38" y="-58.62" font-family="Helvetica,sans-Serif" font-size="10.00">GreenFHom3D::SameTriDelta</text>
<text xml:space="preserve" text-anchor="middle" x="535" y="-45.88" font-family="Helvetica,sans-Serif" font-size="10.00">Kappa</text>
</a>
</g>
</g>
<!-- Node1&#45;&gt;Node12 -->
<g id="edge11_Node000001_Node000012" class="edge">
<title>Node1&#45;&gt;Node12</title>
<g id="a_edge11_Node000001_Node000012"><a xlink:title=" ">
<path fill="none" stroke="#63b8ff" d="M708.79,-104.95C686.49,-97.61 658.75,-88.72 633.75,-81.38 623.73,-78.43 613.08,-75.45 602.64,-72.61"/>
<polygon fill="#63b8ff" stroke="#63b8ff" points="707.55,-108.23 718.15,-108.05 709.75,-101.58 707.55,-108.23"/>
</a>
</g>
</g>
<!-- Node13 -->
<g id="Node000013" class="node">
<title>Node13</title>
<g id="a_Node000013"><a xlink:href="classGreenFHom3D.html#a419cbe00b5a2aed70ac546904a8a8d6f" target="_top" xlink:title="Compute &#160;and &#160;for all RWG pairs on two triangles.">
<polygon fill="white" stroke="#666666" points="608.62,-20.75 461.38,-20.75 461.38,0 608.62,0 608.62,-20.75"/>
<text xml:space="preserve" text-anchor="middle" x="535" y="-7.25" font-family="Helvetica,sans-Serif" font-size="10.00">GreenFHom3D::SameTriDK</text>
</a>
</g>
</g>
<!-- Node1&#45;&gt;Node13 -->
<g id="edge12_Node000001_Node000013" class="edge">
<title>Node1&#45;&gt;Node13</title>
<g id="a_edge12_Node000001_Node000013"><a xlink:title=" ">
<path fill="none" stroke="#63b8ff" d="M733.11,-100.69C711.26,-79.92 673,-46.99 633.75,-29.38 625.94,-25.87 617.5,-23.01 608.96,-20.68"/>
<polygon fill="#63b8ff" stroke="#63b8ff" points="730.47,-103 740.08,-107.46 735.35,-97.98 730.47,-103"/>
</a>
</g>
</g>
<!-- Node4 -->
<g id="Node000004" class="node">
<title>Node4</title>
<g id="a_Node000004"><a xlink:href="classGreenFHom3DPer2D.html#ad3b0693d618bd75c472df152d72760e7" target="_top" xlink:title="Constructor for a magnetic medium (2D periodic).">
<polygon fill="white" stroke="#666666" points="400.25,-221.12 212.5,-221.12 212.5,-187.62 400.25,-187.62 400.25,-221.12"/>
<text xml:space="preserve" text-anchor="start" x="220.5" y="-207.62" font-family="Helvetica,sans-Serif" font-size="10.00">GreenFHom3DPer2D::GreenFHom3</text>
<text xml:space="preserve" text-anchor="middle" x="306.38" y="-194.88" font-family="Helvetica,sans-Serif" font-size="10.00">DPer2D</text>
</a>
</g>
</g>
<!-- Node3&#45;&gt;Node4 -->
<g id="edge3_Node000003_Node000004" class="edge">
<title>Node3&#45;&gt;Node4</title>
<g id="a_edge3_Node000003_Node000004"><a xlink:title=" ">
<path fill="none" stroke="#63b8ff" d="M428.3,-190.5C419.05,-191.56 409.74,-192.63 400.6,-193.68"/>
<polygon fill="#63b8ff" stroke="#63b8ff" points="428.49,-194 438.03,-189.39 427.69,-187.05 428.49,-194"/>
</a>
</g>
</g>
<!-- Node5 -->
<g id="Node000005" class="node">
<title>Node5</title>
<g id="a_Node000005"><a xlink:href="classGreenFHom3DPer2D.html#a6e7bfc8640c70e6dfaa9f8e14cb916ea" target="_top" xlink:title="Constructor for a non&#45;magnetic medium (2D periodic).">
<polygon fill="white" stroke="#666666" points="400.25,-169.12 212.5,-169.12 212.5,-135.62 400.25,-135.62 400.25,-169.12"/>
<text xml:space="preserve" text-anchor="start" x="220.5" y="-155.62" font-family="Helvetica,sans-Serif" font-size="10.00">GreenFHom3DPer2D::GreenFHom3</text>
<text xml:space="preserve" text-anchor="middle" x="306.38" y="-142.88" font-family="Helvetica,sans-Serif" font-size="10.00">DPer2D</text>
</a>
</g>
</g>
<!-- Node3&#45;&gt;Node5 -->
<g id="edge4_Node000003_Node000005" class="edge">
<title>Node3&#45;&gt;Node5</title>
<g id="a_edge4_Node000003_Node000005"><a xlink:title=" ">
<path fill="none" stroke="#63b8ff" d="M428.3,-166.25C419.05,-165.19 409.74,-164.12 400.6,-163.07"/>
<polygon fill="#63b8ff" stroke="#63b8ff" points="427.69,-169.7 438.03,-167.36 428.49,-162.75 427.69,-169.7"/>
</a>
</g>
</g>
<!-- Node6 -->
<g id="Node000006" class="node">
<title>Node6</title>
<g id="a_Node000006"><a xlink:href="classGreenFHom3DPer2D.html#a233c2185952220bd16acae2142f05cc1" target="_top" xlink:title="term at an observation point.">
<polygon fill="white" stroke="#666666" points="172,-247.12 4.5,-247.12 4.5,-213.62 172,-213.62 172,-247.12"/>
<text xml:space="preserve" text-anchor="start" x="12.5" y="-233.62" font-family="Helvetica,sans-Serif" font-size="10.00">GreenFHom3DPer2D::Integrate</text>
<text xml:space="preserve" text-anchor="middle" x="88.25" y="-220.88" font-family="Helvetica,sans-Serif" font-size="10.00">Delta</text>
</a>
</g>
</g>
<!-- Node5&#45;&gt;Node6 -->
<g id="edge5_Node000005_Node000006" class="edge">
<title>Node5&#45;&gt;Node6</title>
<g id="a_edge5_Node000005_Node000006"><a xlink:title=" ">
<path fill="none" stroke="#63b8ff" d="M223.33,-173.59C219.63,-175.09 216,-176.69 212.5,-178.38 194.72,-186.95 194.21,-195.66 176.5,-204.38 169.84,-207.66 162.68,-210.61 155.43,-213.24"/>
<polygon fill="#63b8ff" stroke="#63b8ff" points="224.4,-176.93 232.52,-170.11 221.93,-170.38 224.4,-176.93"/>
</a>
</g>
</g>
<!-- Node7 -->
<g id="Node000007" class="node">
<title>Node7</title>
<g id="a_Node000007"><a xlink:href="classGreenFHom3DPer2D.html#aadb534ef4509422e6f3e78a0e3999758" target="_top" xlink:title="term at an observation point.">
<polygon fill="white" stroke="#666666" points="172,-195.12 4.5,-195.12 4.5,-161.62 172,-161.62 172,-195.12"/>
<text xml:space="preserve" text-anchor="start" x="12.5" y="-181.62" font-family="Helvetica,sans-Serif" font-size="10.00">GreenFHom3DPer2D::Integrate</text>
<text xml:space="preserve" text-anchor="middle" x="88.25" y="-168.88" font-family="Helvetica,sans-Serif" font-size="10.00">Kappa</text>
</a>
</g>
</g>
<!-- Node5&#45;&gt;Node7 -->
<g id="edge6_Node000005_Node000007" class="edge">
<title>Node5&#45;&gt;Node7</title>
<g id="a_edge6_Node000005_Node000007"><a xlink:title=" ">
<path fill="none" stroke="#63b8ff" d="M200.91,-164.94C191.31,-166.1 181.67,-167.26 172.3,-168.38"/>
<polygon fill="#63b8ff" stroke="#63b8ff" points="201.14,-168.44 210.65,-163.77 200.3,-161.49 201.14,-168.44"/>
</a>
</g>
</g>
<!-- Node8 -->
<g id="Node000008" class="node">
<title>Node8</title>
<g id="a_Node000008"><a xlink:href="classGreenFHom3DPer2D.html#a84a8c855a27c895ff24f6771037284a5" target="_top" xlink:title="Compute &#160;for all RWGs on a source triangle.">
<polygon fill="white" stroke="#666666" points="169.38,-143.12 7.12,-143.12 7.12,-109.62 169.38,-109.62 169.38,-143.12"/>
<text xml:space="preserve" text-anchor="start" x="15.12" y="-129.62" font-family="Helvetica,sans-Serif" font-size="10.00">GreenFHom3DPer2D::SameTri</text>
<text xml:space="preserve" text-anchor="middle" x="88.25" y="-116.88" font-family="Helvetica,sans-Serif" font-size="10.00">DeltaKappa</text>
</a>
</g>
</g>
<!-- Node5&#45;&gt;Node8 -->
<g id="edge7_Node000005_Node000008" class="edge">
<title>Node5&#45;&gt;Node8</title>
<g id="a_edge7_Node000005_Node000008"><a xlink:title=" ">
<path fill="none" stroke="#63b8ff" d="M200.81,-139.8C190.32,-138.53 179.79,-137.27 169.61,-136.04"/>
<polygon fill="#63b8ff" stroke="#63b8ff" points="200.3,-143.26 210.65,-140.98 201.14,-136.31 200.3,-143.26"/>
</a>
</g>
</g>
<!-- Node9 -->
<g id="Node000009" class="node">
<title>Node9</title>
<g id="a_Node000009"><a xlink:href="classGreenFHom3DPer2D.html#a1dc9dd84c93ee10b2fb4b1866103d957" target="_top" xlink:title="Compute &#160;and &#160;for all RWG pairs on two triangles.">
<polygon fill="white" stroke="#666666" points="176.5,-91.75 0,-91.75 0,-71 176.5,-71 176.5,-91.75"/>
<text xml:space="preserve" text-anchor="middle" x="88.25" y="-78.25" font-family="Helvetica,sans-Serif" font-size="10.00">GreenFHom3DPer2D::SameTriDK</text>
</a>
</g>
</g>
<!-- Node5&#45;&gt;Node9 -->
<g id="edge8_Node000005_Node000009" class="edge">
<title>Node5&#45;&gt;Node9</title>
<g id="a_edge8_Node000005_Node000009"><a xlink:title=" ">
<path fill="none" stroke="#63b8ff" d="M257.08,-130.63C233.18,-120.45 203.69,-108.76 176.5,-100.38 166.57,-97.32 155.87,-94.56 145.47,-92.15"/>
<polygon fill="#63b8ff" stroke="#63b8ff" points="255.68,-133.84 266.25,-134.58 258.45,-127.41 255.68,-133.84"/>
</a>
</g>
</g>
</g>
</svg>
