<?xml version="1.0" encoding="UTF-8" standalone="no"?>
<!DOCTYPE svg PUBLIC "-//W3C//DTD SVG 1.1//EN"
 "http://www.w3.org/Graphics/SVG/1.1/DTD/svg11.dtd">
<!-- Generated by graphviz version 13.1.2 (20250809.0930)
 -->
<!-- Title: DomainLayered3D::IncFieldH Pages: 1 -->
<svg width="379pt" height="107pt"
 viewBox="0.00 0.00 379.00 107.00" xmlns="http://www.w3.org/2000/svg" xmlns:xlink="http://www.w3.org/1999/xlink">
<g id="graph0" class="graph" transform="scale(1 1) rotate(0) translate(4 102.75)">
<title>DomainLayered3D::IncFieldH</title>
<!-- Node1 -->
<g id="Node000001" class="node">
<title>Node1</title>
<g id="a_Node000001"><a xlink:title="Total incident magnetic field at a point from all incident sources.">
<polygon fill="#999999" stroke="#666666" points="371,-59.75 213.25,-59.75 213.25,-39 371,-39 371,-59.75"/>
<text xml:space="preserve" text-anchor="middle" x="292.12" y="-46.25" font-family="Helvetica,sans-Serif" font-size="10.00">DomainLayered3D::IncFieldH</text>
</a>
</g>
</g>
<!-- Node2 -->
<g id="Node000002" class="node">
<title>Node2</title>
<g id="a_Node000002"><a xlink:href="classDomainLayered3D.html#a4e5fb098bcc6edc2f594da23e0b64fb3" target="_top" xlink:title="Absorption cross section.">
<polygon fill="white" stroke="#666666" points="177.25,-98.75 0,-98.75 0,-78 177.25,-78 177.25,-98.75"/>
<text xml:space="preserve" text-anchor="middle" x="88.62" y="-85.25" font-family="Helvetica,sans-Serif" font-size="10.00">DomainLayered3D::absorptionCS</text>
</a>
</g>
</g>
<!-- Node1&#45;&gt;Node2 -->
<g id="edge1_Node000001_Node000002" class="edge">
<title>Node1&#45;&gt;Node2</title>
<g id="a_edge1_Node000001_Node000002"><a xlink:title=" ">
<path fill="none" stroke="#63b8ff" d="M223.97,-62.37C198.62,-67.28 170.05,-72.81 145.8,-77.5"/>
<polygon fill="#63b8ff" stroke="#63b8ff" points="224.36,-65.86 233.51,-60.53 223.03,-58.99 224.36,-65.86"/>
</a>
</g>
</g>
<!-- Node3 -->
<g id="Node000003" class="node">
<title>Node3</title>
<g id="a_Node000003"><a xlink:href="classDomainLayered3D.html#a847bdddcbf4257a73cfcd2766c882f8b" target="_top" xlink:title="Extinction cross section.">
<polygon fill="white" stroke="#666666" points="175.75,-59.75 1.5,-59.75 1.5,-39 175.75,-39 175.75,-59.75"/>
<text xml:space="preserve" text-anchor="middle" x="88.62" y="-46.25" font-family="Helvetica,sans-Serif" font-size="10.00">DomainLayered3D::extinctionCS</text>
</a>
</g>
</g>
<!-- Node1&#45;&gt;Node3 -->
<g id="edge2_Node000001_Node000003" class="edge">
<title>Node1&#45;&gt;Node3</title>
<g id="a_edge2_Node000001_Node000003"><a xlink:title=" ">
<path fill="none" stroke="#63b8ff" d="M201.52,-49.38C193.08,-49.38 184.54,-49.38 176.13,-49.38"/>
<polygon fill="#63b8ff" stroke="#63b8ff" points="201.42,-52.88 211.42,-49.38 201.42,-45.88 201.42,-52.88"/>
</a>
</g>
</g>
<!-- Node4 -->
<g id="Node000004" class="node">
<title>Node4</title>
<g id="a_Node000004"><a xlink:href="classDomainLayered3D.html#a267135f0a2f5bfff12f7ac3b25429176" target="_top" xlink:title="Scattering cross section.">
<polygon fill="white" stroke="#666666" points="175.75,-20.75 1.5,-20.75 1.5,0 175.75,0 175.75,-20.75"/>
<text xml:space="preserve" text-anchor="middle" x="88.62" y="-7.25" font-family="Helvetica,sans-Serif" font-size="10.00">DomainLayered3D::scatteringCS</text>
</a>
</g>
</g>
<!-- Node1&#45;&gt;Node4 -->
<g id="edge3_Node000001_Node000004" class="edge">
<title>Node1&#45;&gt;Node4</title>
<g id="a_edge3_Node000001_Node000004"><a xlink:title=" ">
<path fill="none" stroke="#63b8ff" d="M223.97,-36.38C198.62,-31.47 170.05,-25.94 145.8,-21.25"/>
<polygon fill="#63b8ff" stroke="#63b8ff" points="223.03,-39.76 233.51,-38.22 224.36,-32.89 223.03,-39.76"/>
</a>
</g>
</g>
</g>
</svg>
