<?xml version="1.0" encoding="UTF-8" standalone="no"?>
<!DOCTYPE svg PUBLIC "-//W3C//DTD SVG 1.1//EN"
 "http://www.w3.org/Graphics/SVG/1.1/DTD/svg11.dtd">
<!-- Generated by graphviz version 13.1.2 (20250809.0930)
 -->
<!-- Title: GreenFLayered3D::GetLayerIndex Pages: 1 -->
<!--zoomable 396 -->

<svg id="main" version="1.1" xmlns="http://www.w3.org/2000/svg" xmlns:xlink="http://www.w3.org/1999/xlink" xml:space="preserve" onload="init(evt)">

<style type="text/css"><![CDATA[
.node, .edge {opacity: 0.7;}
.node.selected, .edge.selected {opacity: 1;}
.edge:hover path { stroke: red; }
.edge:hover polygon { stroke: red; fill: red; }
]]></style>

<defs>
  <circle id="rim" cx="0" cy="0" r="7"/>
  <circle id="rim2" cx="0" cy="0" r="3.5"/>
  <g id="zoomPlus">
    <use xlink:href="#rim" fill="#404040"><set attributeName="fill" to="#808080" begin="zoomplus.mouseover" end="zoomplus.mouseout"/></use>
    <path d="M-4,0h8M0,-4v8" fill="none" stroke="white" stroke-width="1.5" pointer-events="none"/>
  </g>
  <g id="zoomMin">
    <use xlink:href="#rim" fill="#404040"><set attributeName="fill" to="#808080" begin="zoomminus.mouseover" end="zoomminus.mouseout"/></use>
    <path d="M-4,0h8" fill="none" stroke="white" stroke-width="1.5" pointer-events="none"/>
  </g>
  <g id="arrowUp" transform="translate(30 24)">
    <use xlink:href="#rim"/>
    <path pointer-events="none" fill="none" stroke="white" stroke-width="1.5" d="M0,-3.0v7 M-2.5,-0.5L0,-3.0L2.5,-0.5"/>
  </g>
  <g id="arrowRight" transform="rotate(90) translate(36 -43)">
    <use xlink:href="#rim"/>
    <path pointer-events="none" fill="none" stroke="white" stroke-width="1.5" d="M0,-3.0v7 M-2.5,-0.5L0,-3.0L2.5,-0.5"/>
  </g>
  <g id="arrowDown" transform="rotate(180) translate(-30 -48)">
    <use xlink:href="#rim"/>
    <path pointer-events="none" fill="none" stroke="white" stroke-width="1.5" d="M0,-3.0v7 M-2.5,-0.5L0,-3.0L2.5,-0.5"/>
  </g>
  <g id="arrowLeft" transform="rotate(270) translate(-36 17)">
    <use xlink:href="#rim"/>
    <path pointer-events="none" fill="none" stroke="white" stroke-width="1.5" d="M0,-3.0v7 M-2.5,-0.5L0,-3.0L2.5,-0.5"/>
  </g>
  <g id="resetDef">
    <use xlink:href="#rim2" fill="#404040"><set attributeName="fill" to="#808080" begin="reset.mouseover" end="reset.mouseout"/></use>
  </g>
</defs>
<script type="application/ecmascript">
var viewWidth = 778;
var viewHeight = 396;
var sectionId = 'dynsection-26';
</script>
<script type="application/ecmascript" xlink:href="svg.min.js"/>
<svg id="graph" class="graph">
<g id="viewport">
<title>GreenFLayered3D::GetLayerIndex</title>
<!-- Node1 -->
<g id="Node000001" class="node">
<title>Node1</title>
<g id="a_Node000001"><a xlink:title="Return layer index of a 3D point.">
<polygon fill="#999999" stroke="#666666" points="769.75,-211.45 615.75,-211.45 615.75,-177.95 769.75,-177.95 769.75,-211.45"/>
<text xml:space="preserve" text-anchor="start" x="623.75" y="-197.95" font-family="Helvetica,sans-Serif" font-size="10.00">GreenFLayered3D::GetLayer</text>
<text xml:space="preserve" text-anchor="middle" x="692.75" y="-185.2" font-family="Helvetica,sans-Serif" font-size="10.00">Index</text>
</a>
</g>
</g>
<!-- Node2 -->
<g id="Node000002" class="node">
<title>Node2</title>
<g id="a_Node000002"><a xlink:href="classGreenFLayered3D.html#a1e2aea0bdd06e2c0082b6ae0787a018b" target="_top" xlink:title="Checks whether the given point&#45;triangle pair exceeds a predefined distance threshold.">
<polygon fill="white" stroke="#666666" points="579.75,-388.08 391.25,-388.08 391.25,-367.33 579.75,-367.33 579.75,-388.08"/>
<text xml:space="preserve" text-anchor="middle" x="485.5" y="-374.58" font-family="Helvetica,sans-Serif" font-size="10.00">GreenFLayered3D::AboveThreshold</text>
</a>
</g>
</g>
<!-- Node1&#45;&gt;Node2 -->
<g id="edge1_Node000001_Node000002" class="edge">
<title>Node1&#45;&gt;Node2</title>
<g id="a_edge1_Node000001_Node000002"><a xlink:title=" ">
<path fill="none" stroke="#63b8ff" d="M680.68,-222.2C664.35,-259.12 630.17,-323.94 579.75,-357.7 574.25,-361.39 568.19,-364.41 561.88,-366.88"/>
<polygon fill="#63b8ff" stroke="#63b8ff" points="683.86,-223.67 684.58,-213.1 677.43,-220.91 683.86,-223.67"/>
</a>
</g>
</g>
<!-- Node3 -->
<g id="Node000003" class="node">
<title>Node3</title>
<g id="a_Node000003"><a xlink:href="classGreenFLayered3D.html#a41dad600791549400d82f6c44238f373" target="_top" xlink:title="Checks whether the given triangles exceed a predefined threshold.">
<polygon fill="white" stroke="#666666" points="579.75,-349.08 391.25,-349.08 391.25,-328.33 579.75,-328.33 579.75,-349.08"/>
<text xml:space="preserve" text-anchor="middle" x="485.5" y="-335.58" font-family="Helvetica,sans-Serif" font-size="10.00">GreenFLayered3D::AboveThreshold</text>
</a>
</g>
</g>
<!-- Node1&#45;&gt;Node3 -->
<g id="edge2_Node000001_Node000003" class="edge">
<title>Node1&#45;&gt;Node3</title>
<g id="a_edge2_Node000001_Node000003"><a xlink:title=" ">
<path fill="none" stroke="#63b8ff" d="M673.95,-221.32C654.17,-248.83 619.69,-290.98 579.75,-314.7 570.26,-320.33 559.47,-324.66 548.68,-327.97"/>
<polygon fill="#63b8ff" stroke="#63b8ff" points="676.81,-223.35 679.69,-213.15 671.08,-219.32 676.81,-223.35"/>
</a>
</g>
</g>
<!-- Node4 -->
<g id="Node000004" class="node">
<title>Node4</title>
<g id="a_Node000004"><a xlink:href="classGreenFLayered3D.html#a65ac22e62ec3e3131ffbb10d7bdea307" target="_top" xlink:title="Evaluate quasi&#45;static (QS) contributions for inter&#45;layer interactions.">
<polygon fill="white" stroke="#666666" points="565.5,-234.45 405.5,-234.45 405.5,-200.95 565.5,-200.95 565.5,-234.45"/>
<text xml:space="preserve" text-anchor="start" x="413.5" y="-220.95" font-family="Helvetica,sans-Serif" font-size="10.00">GreenFLayered3D::evalGreen</text>
<text xml:space="preserve" text-anchor="middle" x="485.5" y="-208.2" font-family="Helvetica,sans-Serif" font-size="10.00">QSInter</text>
</a>
</g>
</g>
<!-- Node1&#45;&gt;Node4 -->
<g id="edge3_Node000001_Node000004" class="edge">
<title>Node1&#45;&gt;Node4</title>
<g id="a_edge3_Node000001_Node000004"><a xlink:title=" ">
<path fill="none" stroke="#63b8ff" d="M604.2,-204.51C591.42,-205.94 578.33,-207.41 565.74,-208.82"/>
<polygon fill="#63b8ff" stroke="#63b8ff" points="604.27,-208.03 613.82,-203.43 603.49,-201.07 604.27,-208.03"/>
</a>
</g>
</g>
<!-- Node5 -->
<g id="Node000005" class="node">
<title>Node5</title>
<g id="a_Node000005"><a xlink:href="classGreenFLayered3D.html#aea3c88abd8cb25bd99d64a4eeda84a85" target="_top" xlink:title="Evaluates the secondary terms for dipole incident field in layered background.">
<polygon fill="white" stroke="#666666" points="353.38,-331.45 200.88,-331.45 200.88,-297.95 353.38,-297.95 353.38,-331.45"/>
<text xml:space="preserve" text-anchor="start" x="208.88" y="-317.95" font-family="Helvetica,sans-Serif" font-size="10.00">GreenFLayered3D::Evaluate</text>
<text xml:space="preserve" text-anchor="middle" x="277.12" y="-305.2" font-family="Helvetica,sans-Serif" font-size="10.00">Dyadic</text>
</a>
</g>
</g>
<!-- Node1&#45;&gt;Node5 -->
<g id="edge18_Node000001_Node000005" class="edge">
<title>Node1&#45;&gt;Node5</title>
<g id="a_edge18_Node000001_Node000005"><a xlink:title=" ">
<path fill="none" stroke="#63b8ff" d="M662.87,-218.89C641.33,-235.61 610.44,-256.88 579.75,-268.7 506.22,-297.02 416.3,-307.96 353.87,-312.15"/>
<polygon fill="#63b8ff" stroke="#63b8ff" points="664.94,-221.71 670.6,-212.76 660.59,-216.23 664.94,-221.71"/>
</a>
</g>
</g>
<!-- Node6 -->
<g id="Node000006" class="node">
<title>Node6</title>
<g id="a_Node000006"><a xlink:href="classGreenFLayered3D.html#afbdbfdc8fc40fc885f6377d5be242d36" target="_top" xlink:title="term at an observation point.">
<polygon fill="white" stroke="#666666" points="354.12,-279.45 200.12,-279.45 200.12,-245.95 354.12,-245.95 354.12,-279.45"/>
<text xml:space="preserve" text-anchor="start" x="208.12" y="-265.95" font-family="Helvetica,sans-Serif" font-size="10.00">GreenFLayered3D::Integrate</text>
<text xml:space="preserve" text-anchor="middle" x="277.12" y="-253.2" font-family="Helvetica,sans-Serif" font-size="10.00">Delta</text>
</a>
</g>
</g>
<!-- Node1&#45;&gt;Node6 -->
<g id="edge19_Node000001_Node000006" class="edge">
<title>Node1&#45;&gt;Node6</title>
<g id="a_edge19_Node000001_Node000006"><a xlink:title=" ">
<path fill="none" stroke="#63b8ff" d="M650.17,-217.05C629.58,-227.02 603.99,-237.83 579.75,-243.7 504.66,-261.89 416.16,-265.44 354.52,-265.17"/>
<polygon fill="#63b8ff" stroke="#63b8ff" points="651.69,-220.2 659.09,-212.61 648.57,-213.93 651.69,-220.2"/>
</a>
</g>
</g>
<!-- Node7 -->
<g id="Node000007" class="node">
<title>Node7</title>
<g id="a_Node000007"><a xlink:href="classGreenFLayered3D.html#a439eddb43f46fb52f6c84898ea12aa40" target="_top" xlink:title="term at an observation point.">
<polygon fill="white" stroke="#666666" points="354.12,-189.45 200.12,-189.45 200.12,-155.95 354.12,-155.95 354.12,-189.45"/>
<text xml:space="preserve" text-anchor="start" x="208.12" y="-175.95" font-family="Helvetica,sans-Serif" font-size="10.00">GreenFLayered3D::Integrate</text>
<text xml:space="preserve" text-anchor="middle" x="277.12" y="-163.2" font-family="Helvetica,sans-Serif" font-size="10.00">Kappa</text>
</a>
</g>
</g>
<!-- Node1&#45;&gt;Node7 -->
<g id="edge20_Node000001_Node000007" class="edge">
<title>Node1&#45;&gt;Node7</title>
<g id="a_edge20_Node000001_Node000007"><a xlink:title=" ">
<path fill="none" stroke="#63b8ff" d="M604.25,-190.05C530.17,-186.11 425.06,-180.52 354.38,-176.76"/>
<polygon fill="#63b8ff" stroke="#63b8ff" points="603.72,-193.52 613.89,-190.56 604.09,-186.53 603.72,-193.52"/>
</a>
</g>
</g>
<!-- Node8 -->
<g id="Node000008" class="node">
<title>Node8</title>
<g id="a_Node000008"><a xlink:href="classGreenFLayered3D.html#af46d152fbc30bdc418ff16e5e7a334c6" target="_top" xlink:title="Point–triangle delta/kappa contributions for RHS assembly.">
<polygon fill="white" stroke="#666666" points="351.5,-137.45 202.75,-137.45 202.75,-103.95 351.5,-103.95 351.5,-137.45"/>
<text xml:space="preserve" text-anchor="start" x="210.75" y="-123.95" font-family="Helvetica,sans-Serif" font-size="10.00">GreenFLayered3D::SameTri</text>
<text xml:space="preserve" text-anchor="middle" x="277.12" y="-111.2" font-family="Helvetica,sans-Serif" font-size="10.00">DeltaKappa</text>
</a>
</g>
</g>
<!-- Node1&#45;&gt;Node8 -->
<g id="edge21_Node000001_Node000008" class="edge">
<title>Node1&#45;&gt;Node8</title>
<g id="a_edge21_Node000001_Node000008"><a xlink:title=" ">
<path fill="none" stroke="#63b8ff" d="M670.56,-169.07C650.04,-146.44 616.69,-115.04 579.75,-101.7 499.31,-72.66 399.02,-88.3 336.77,-103.5"/>
<polygon fill="#63b8ff" stroke="#63b8ff" points="667.8,-171.23 677.03,-176.42 673.05,-166.6 667.8,-171.23"/>
</a>
</g>
</g>
<!-- Node9 -->
<g id="Node000009" class="node">
<title>Node9</title>
<g id="a_Node000009"><a xlink:href="classGreenFLayered3D.html#a6c88af86169f8d148c3e9f4da77a77d0" target="_top" xlink:title="Triangle–triangle D/K blocks assembly for all RWG pairs on two triangles.">
<polygon fill="white" stroke="#666666" points="163,-56.08 0,-56.08 0,-35.33 163,-35.33 163,-56.08"/>
<text xml:space="preserve" text-anchor="middle" x="81.5" y="-42.58" font-family="Helvetica,sans-Serif" font-size="10.00">GreenFLayered3D::SameTriDK</text>
</a>
</g>
</g>
<!-- Node1&#45;&gt;Node9 -->
<g id="edge22_Node000001_Node000009" class="edge">
<title>Node1&#45;&gt;Node9</title>
<g id="a_edge22_Node000001_Node000009"><a xlink:title=" ">
<path fill="none" stroke="#63b8ff" d="M679.25,-167.54C662.07,-133.63 627.73,-76.8 579.75,-49.7 427.54,36.28 205,-11.26 118.63,-34.89"/>
<polygon fill="#63b8ff" stroke="#63b8ff" points="676.01,-168.88 683.55,-176.32 682.29,-165.8 676.01,-168.88"/>
</a>
</g>
</g>
<!-- Node10 -->
<g id="Node000010" class="node">
<title>Node10</title>
<g id="a_Node000010"><a xlink:href="classGreenFLayered3D.html#a87c30d7c2782fd16b17a54bf12777cf0" target="_top" xlink:title="Test assembly of same&#45;triangle D and K matrix elements.">
<polygon fill="white" stroke="#666666" points="355.25,-85.45 199,-85.45 199,-51.95 355.25,-51.95 355.25,-85.45"/>
<text xml:space="preserve" text-anchor="start" x="207" y="-71.95" font-family="Helvetica,sans-Serif" font-size="10.00">GreenFLayered3D::testSame</text>
<text xml:space="preserve" text-anchor="middle" x="277.12" y="-59.2" font-family="Helvetica,sans-Serif" font-size="10.00">TriDK</text>
</a>
</g>
</g>
<!-- Node1&#45;&gt;Node10 -->
<g id="edge23_Node000001_Node000010" class="edge">
<title>Node1&#45;&gt;Node10</title>
<g id="a_edge23_Node000001_Node000010"><a xlink:title=" ">
<path fill="none" stroke="#63b8ff" d="M674.76,-168.45C655.44,-141.18 621.15,-100.01 579.75,-81.7 508.69,-50.27 418.78,-50.88 355.68,-56.97"/>
<polygon fill="#63b8ff" stroke="#63b8ff" points="671.78,-170.29 680.33,-176.54 677.55,-166.32 671.78,-170.29"/>
</a>
</g>
</g>
<!-- Node11 -->
<g id="Node000011" class="node">
<title>Node11</title>
<g id="a_Node000011"><a xlink:href="classGreenFLayered3D.html#a7fbd8a47a0074f53111d52920a910392" target="_top" xlink:title="Evaluate quasi&#45;static (QS) contributions for intra&#45;layer interactions.">
<polygon fill="white" stroke="#666666" points="565.5,-144.45 405.5,-144.45 405.5,-110.95 565.5,-110.95 565.5,-144.45"/>
<text xml:space="preserve" text-anchor="start" x="413.5" y="-130.95" font-family="Helvetica,sans-Serif" font-size="10.00">GreenFLayered3D::evalGreen</text>
<text xml:space="preserve" text-anchor="middle" x="485.5" y="-118.2" font-family="Helvetica,sans-Serif" font-size="10.00">QSIntra</text>
</a>
</g>
</g>
<!-- Node1&#45;&gt;Node11 -->
<g id="edge11_Node000001_Node000011" class="edge">
<title>Node1&#45;&gt;Node11</title>
<g id="a_edge11_Node000001_Node000011"><a xlink:title=" ">
<path fill="none" stroke="#63b8ff" d="M628.46,-174.04C599.89,-164.71 566.52,-153.82 539.31,-144.94"/>
<polygon fill="#63b8ff" stroke="#63b8ff" points="627.13,-177.29 637.72,-177.06 629.3,-170.63 627.13,-177.29"/>
</a>
</g>
</g>
<!-- Node4&#45;&gt;Node5 -->
<g id="edge4_Node000004_Node000005" class="edge">
<title>Node4&#45;&gt;Node5</title>
<g id="a_edge4_Node000004_Node000005"><a xlink:title=" ">
<path fill="none" stroke="#63b8ff" d="M447.41,-240.38C422.04,-255.3 387.33,-274.62 355.25,-288.7 348.13,-291.82 340.52,-294.81 332.94,-297.56"/>
<polygon fill="#63b8ff" stroke="#63b8ff" points="448.88,-243.57 455.69,-235.46 445.3,-237.56 448.88,-243.57"/>
</a>
</g>
</g>
<!-- Node4&#45;&gt;Node6 -->
<g id="edge5_Node000004_Node000006" class="edge">
<title>Node4&#45;&gt;Node6</title>
<g id="a_edge5_Node000004_Node000006"><a xlink:title=" ">
<path fill="none" stroke="#63b8ff" d="M394.51,-237.32C381.2,-240.22 367.6,-243.19 354.6,-246.02"/>
<polygon fill="#63b8ff" stroke="#63b8ff" points="395.09,-240.78 404.12,-235.23 393.6,-233.94 395.09,-240.78"/>
</a>
</g>
</g>
<!-- Node4&#45;&gt;Node7 -->
<g id="edge6_Node000004_Node000007" class="edge">
<title>Node4&#45;&gt;Node7</title>
<g id="a_edge6_Node000004_Node000007"><a xlink:title=" ">
<path fill="none" stroke="#63b8ff" d="M394.51,-198.08C381.2,-195.18 367.6,-192.21 354.6,-189.38"/>
<polygon fill="#63b8ff" stroke="#63b8ff" points="393.6,-201.46 404.12,-200.17 395.09,-194.62 393.6,-201.46"/>
</a>
</g>
</g>
<!-- Node4&#45;&gt;Node8 -->
<g id="edge7_Node000004_Node000008" class="edge">
<title>Node4&#45;&gt;Node8</title>
<g id="a_edge7_Node000004_Node000008"><a xlink:title=" ">
<path fill="none" stroke="#63b8ff" d="M447.41,-195.03C422.04,-180.1 387.33,-160.78 355.25,-146.7 348.13,-143.58 340.52,-140.59 332.94,-137.84"/>
<polygon fill="#63b8ff" stroke="#63b8ff" points="445.3,-197.85 455.69,-199.94 448.88,-191.83 445.3,-197.85"/>
</a>
</g>
</g>
<!-- Node4&#45;&gt;Node9 -->
<g id="edge8_Node000004_Node000009" class="edge">
<title>Node4&#45;&gt;Node9</title>
<g id="a_edge8_Node000004_Node000009"><a xlink:title=" ">
<path fill="none" stroke="#63b8ff" d="M394.02,-230.2C335.08,-234.04 258.4,-230.63 199,-198.7 137.83,-165.82 99.15,-85.37 86.8,-56.35"/>
<polygon fill="#63b8ff" stroke="#63b8ff" points="393.96,-233.71 403.67,-229.48 393.44,-226.73 393.96,-233.71"/>
</a>
</g>
</g>
<!-- Node4&#45;&gt;Node10 -->
<g id="edge9_Node000004_Node000010" class="edge">
<title>Node4&#45;&gt;Node10</title>
<g id="a_edge9_Node000004_Node000010"><a xlink:title=" ">
<path fill="none" stroke="#63b8ff" d="M443.64,-194.95C426.19,-183.96 406.41,-169.69 391.25,-153.7 370.12,-131.4 379.25,-113.87 355.25,-94.7 351.05,-91.35 346.41,-88.42 341.53,-85.86"/>
<polygon fill="#63b8ff" stroke="#63b8ff" points="441.4,-197.68 451.76,-199.91 445.05,-191.71 441.4,-197.68"/>
</a>
</g>
</g>
<!-- Node10&#45;&gt;Node9 -->
<g id="edge10_Node000010_Node000009" class="edge">
<title>Node10&#45;&gt;Node9</title>
<g id="a_edge10_Node000010_Node000009"><a xlink:title=" ">
<path fill="none" stroke="#63b8ff" d="M187.43,-58.16C179.36,-57.21 171.22,-56.24 163.22,-55.29"/>
<polygon fill="#63b8ff" stroke="#63b8ff" points="186.92,-61.63 197.26,-59.33 187.74,-54.68 186.92,-61.63"/>
</a>
</g>
</g>
<!-- Node11&#45;&gt;Node5 -->
<g id="edge12_Node000011_Node000005" class="edge">
<title>Node11&#45;&gt;Node5</title>
<g id="a_edge12_Node000011_Node000005"><a xlink:title=" ">
<path fill="none" stroke="#63b8ff" d="M439.63,-150.67C422.58,-161.23 404.17,-175.13 391.25,-191.7 362.97,-227.96 388.25,-256.68 355.25,-288.7 351.8,-292.05 347.91,-294.96 343.75,-297.5"/>
<polygon fill="#63b8ff" stroke="#63b8ff" points="441.35,-153.72 448.17,-145.61 437.78,-147.7 441.35,-153.72"/>
</a>
</g>
</g>
<!-- Node11&#45;&gt;Node6 -->
<g id="edge13_Node000011_Node000006" class="edge">
<title>Node11&#45;&gt;Node6</title>
<g id="a_edge13_Node000011_Node000006"><a xlink:title=" ">
<path fill="none" stroke="#63b8ff" d="M448.73,-151.1C407.59,-178.01 341.01,-221.56 304.38,-245.53"/>
<polygon fill="#63b8ff" stroke="#63b8ff" points="450.64,-154.03 457.1,-145.63 446.81,-148.17 450.64,-154.03"/>
</a>
</g>
</g>
<!-- Node11&#45;&gt;Node7 -->
<g id="edge14_Node000011_Node000007" class="edge">
<title>Node11&#45;&gt;Node7</title>
<g id="a_edge14_Node000011_Node000007"><a xlink:title=" ">
<path fill="none" stroke="#63b8ff" d="M394.51,-147.32C381.2,-150.22 367.6,-153.19 354.6,-156.02"/>
<polygon fill="#63b8ff" stroke="#63b8ff" points="395.09,-150.78 404.12,-145.23 393.6,-143.94 395.09,-150.78"/>
</a>
</g>
</g>
<!-- Node11&#45;&gt;Node8 -->
<g id="edge15_Node000011_Node000008" class="edge">
<title>Node11&#45;&gt;Node8</title>
<g id="a_edge15_Node000011_Node000008"><a xlink:title=" ">
<path fill="none" stroke="#63b8ff" d="M393.83,-124.62C379.79,-124.15 365.43,-123.66 351.83,-123.2"/>
<polygon fill="#63b8ff" stroke="#63b8ff" points="393.38,-128.11 403.49,-124.95 393.62,-121.12 393.38,-128.11"/>
</a>
</g>
</g>
<!-- Node11&#45;&gt;Node9 -->
<g id="edge16_Node000011_Node000009" class="edge">
<title>Node11&#45;&gt;Node9</title>
<g id="a_edge16_Node000011_Node000009"><a xlink:title=" ">
<path fill="none" stroke="#63b8ff" d="M457.77,-103.29C433.19,-82.61 394.66,-54.5 355.25,-42.7 284.93,-21.65 199.78,-27.19 143.53,-34.84"/>
<polygon fill="#63b8ff" stroke="#63b8ff" points="455.17,-105.67 465.03,-109.54 459.74,-100.36 455.17,-105.67"/>
</a>
</g>
</g>
<!-- Node11&#45;&gt;Node10 -->
<g id="edge17_Node000011_Node000010" class="edge">
<title>Node11&#45;&gt;Node10</title>
<g id="a_edge17_Node000011_Node000010"><a xlink:title=" ">
<path fill="none" stroke="#63b8ff" d="M413.26,-107.33C388.89,-100.37 361.87,-92.64 338.45,-85.95"/>
<polygon fill="#63b8ff" stroke="#63b8ff" points="412.22,-110.68 422.8,-110.06 414.15,-103.95 412.22,-110.68"/>
</a>
</g>
</g>
</g>
</svg>

<g id="navigator" transform="translate(0 0)" fill="#404254">
  <rect fill="#f2f5e9" fill-opacity="0.5" stroke="#606060" stroke-width=".5" x="0" y="0" width="60" height="60"/>
  <use id="zoomplus" xlink:href="#zoomPlus" x="17" y="9" onmousedown="handleZoom(evt,'in')"/>
  <use id="zoomminus" xlink:href="#zoomMin" x="42" y="9" onmousedown="handleZoom(evt,'out')"/>
  <use id="reset" xlink:href="#resetDef" x="30" y="36" onmousedown="handleReset()"/>
   <use id="arrowup" xlink:href="#arrowUp" x="0" y="0" onmousedown="handlePan(0,-1)"/>
  <use id="arrowright" xlink:href="#arrowRight" x="0" y="0" onmousedown="handlePan(1,0)"/>
  <use id="arrowdown" xlink:href="#arrowDown" x="0" y="0" onmousedown="handlePan(0,1)"/>
  <use id="arrowleft" xlink:href="#arrowLeft" x="0" y="0" onmousedown="handlePan(-1,0)"/>
</g>
<svg viewBox="0 0 15 15" width="100%" height="30px" preserveAspectRatio="xMaxYMin meet">
 <g id="arrow_out" transform="scale(0.3 0.3)">
  <a xlink:href="classGreenFLayered3D_a1fb4fa93c84d77750cac364641945725_icgraph_org.svg" target="_base">
   <rect id="button" ry="5" rx="5" y="6" x="6" height="38" width="38"
        fill="#f2f5e9" fill-opacity="0.5" stroke="#606060" stroke-width="1.0"/>
   <path id="arrow"
     d="M 11.500037,31.436501 C 11.940474,20.09759 22.043105,11.32322 32.158766,21.979434 L 37.068811,17.246167 C 37.068811,17.246167 37.088388,32 37.088388,32 L 22.160133,31.978069 C 22.160133,31.978069 26.997745,27.140456 26.997745,27.140456 C 18.528582,18.264221 13.291696,25.230495 11.500037,31.436501 z"
     style="fill:#404040;"/>
  </a>
 </g>
</svg>

<style type='text/css'>
<![CDATA[
[data-mouse-over-selected='false'] { opacity: 0.7; }
[data-mouse-over-selected='true']  { opacity: 1.0; }
]]>
</style>
<script type="application/ecmascript"><![CDATA[
document.addEventListener('DOMContentLoaded', (event) => {
  highlightEdges();
  highlightAdjacentNodes();
});
]]></script>
</svg>
