<?xml version="1.0" encoding="UTF-8" standalone="no"?>
<!DOCTYPE svg PUBLIC "-//W3C//DTD SVG 1.1//EN"
 "http://www.w3.org/Graphics/SVG/1.1/DTD/svg11.dtd">
<!-- Generated by graphviz version 13.1.2 (20250809.0930)
 -->
<!-- Title: GreenFHom3DPer2D::GradientEwald Pages: 1 -->
<svg width="666pt" height="132pt"
 viewBox="0.00 0.00 666.00 132.00" xmlns="http://www.w3.org/2000/svg" xmlns:xlink="http://www.w3.org/1999/xlink">
<g id="graph0" class="graph" transform="scale(1 1) rotate(0) translate(4 128.12)">
<title>GreenFHom3DPer2D::GradientEwald</title>
<!-- Node1 -->
<g id="Node000001" class="node">
<title>Node1</title>
<g id="a_Node000001"><a xlink:title="Ewald&#45;summed source&#45;gradient.">
<polygon fill="#999999" stroke="#666666" points="165.25,-72.12 0,-72.12 0,-38.62 165.25,-38.62 165.25,-72.12"/>
<text xml:space="preserve" text-anchor="start" x="8" y="-58.62" font-family="Helvetica,sans-Serif" font-size="10.00">GreenFHom3DPer2D::Gradient</text>
<text xml:space="preserve" text-anchor="middle" x="82.62" y="-45.88" font-family="Helvetica,sans-Serif" font-size="10.00">Ewald</text>
</a>
</g>
</g>
<!-- Node2 -->
<g id="Node000002" class="node">
<title>Node2</title>
<g id="a_Node000002"><a xlink:href="classGreenFHom3DPer2D.html#a9e049d83cd897078023b76fb89558d31" target="_top" xlink:title="Spatial part of the source&#45;gradient.">
<polygon fill="white" stroke="#666666" points="377,-124.12 211.75,-124.12 211.75,-90.62 377,-90.62 377,-124.12"/>
<text xml:space="preserve" text-anchor="start" x="219.75" y="-110.62" font-family="Helvetica,sans-Serif" font-size="10.00">GreenFHom3DPer2D::Gradient</text>
<text xml:space="preserve" text-anchor="middle" x="294.38" y="-97.88" font-family="Helvetica,sans-Serif" font-size="10.00">EwaldSpatial</text>
</a>
</g>
</g>
<!-- Node1&#45;&gt;Node2 -->
<g id="edge1_Node000001_Node000002" class="edge">
<title>Node1&#45;&gt;Node2</title>
<g id="a_edge1_Node000001_Node000002"><a xlink:title=" ">
<path fill="none" stroke="#63b8ff" d="M153.18,-72.62C172.31,-77.36 193.21,-82.54 212.9,-87.42"/>
<polygon fill="#63b8ff" stroke="#63b8ff" points="211.99,-90.81 222.54,-89.81 213.68,-84.01 211.99,-90.81"/>
</a>
</g>
</g>
<!-- Node7 -->
<g id="Node000007" class="node">
<title>Node7</title>
<g id="a_Node000007"><a xlink:href="classGreenFHom3DPer2D.html#a1ab7bcf35b15f67bb9824040c34c8bbc" target="_top" xlink:title="Spectral part of the source&#45;gradient .">
<polygon fill="white" stroke="#666666" points="377,-72.12 211.75,-72.12 211.75,-38.62 377,-38.62 377,-72.12"/>
<text xml:space="preserve" text-anchor="start" x="219.75" y="-58.62" font-family="Helvetica,sans-Serif" font-size="10.00">GreenFHom3DPer2D::Gradient</text>
<text xml:space="preserve" text-anchor="middle" x="294.38" y="-45.88" font-family="Helvetica,sans-Serif" font-size="10.00">EwaldSpectral</text>
</a>
</g>
</g>
<!-- Node1&#45;&gt;Node7 -->
<g id="edge7_Node000001_Node000007" class="edge">
<title>Node1&#45;&gt;Node7</title>
<g id="a_edge7_Node000001_Node000007"><a xlink:title=" ">
<path fill="none" stroke="#63b8ff" d="M165.62,-55.38C176.91,-55.38 188.57,-55.38 200.04,-55.38"/>
<polygon fill="#63b8ff" stroke="#63b8ff" points="199.92,-58.88 209.92,-55.38 199.92,-51.88 199.92,-58.88"/>
</a>
</g>
</g>
<!-- Node9 -->
<g id="Node000009" class="node">
<title>Node9</title>
<g id="a_Node000009"><a xlink:href="classGreenFHom3DPer2D.html#a098b4d59dde268718483b4ac9906e446" target="_top" xlink:title="Map a displacement to the primitive cell.">
<polygon fill="white" stroke="#666666" points="387.5,-20.75 201.25,-20.75 201.25,0 387.5,0 387.5,-20.75"/>
<text xml:space="preserve" text-anchor="middle" x="294.38" y="-7.25" font-family="Helvetica,sans-Serif" font-size="10.00">GreenFHom3DPer2D::PrimitiveCell</text>
</a>
</g>
</g>
<!-- Node1&#45;&gt;Node9 -->
<g id="edge11_Node000001_Node000009" class="edge">
<title>Node1&#45;&gt;Node9</title>
<g id="a_edge11_Node000001_Node000009"><a xlink:title=" ">
<path fill="none" stroke="#63b8ff" d="M160.78,-38.16C174.26,-35.19 188.16,-32.17 201.25,-29.38 210.22,-27.46 219.69,-25.47 229,-23.53"/>
<polygon fill="#63b8ff" stroke="#63b8ff" points="229.69,-26.96 238.77,-21.51 228.26,-20.11 229.69,-26.96"/>
</a>
</g>
</g>
<!-- Node3 -->
<g id="Node000003" class="node">
<title>Node3</title>
<g id="a_Node000003"><a xlink:href="classGreenF.html#abf00726011a4eca4109bc43125218d30" target="_top" xlink:title="Evaluate erfc via the 2D lookup table if available.">
<polygon fill="white" stroke="#666666" points="510.75,-110.75 423.5,-110.75 423.5,-90 510.75,-90 510.75,-110.75"/>
<text xml:space="preserve" text-anchor="middle" x="467.12" y="-97.25" font-family="Helvetica,sans-Serif" font-size="10.00">GreenF::EvErfc</text>
</a>
</g>
</g>
<!-- Node2&#45;&gt;Node3 -->
<g id="edge2_Node000002_Node000003" class="edge">
<title>Node2&#45;&gt;Node3</title>
<g id="a_edge2_Node000002_Node000003"><a xlink:title=" ">
<path fill="none" stroke="#63b8ff" d="M377.25,-104.02C389.06,-103.53 400.97,-103.05 412.06,-102.59"/>
<polygon fill="#63b8ff" stroke="#63b8ff" points="411.92,-106.1 421.76,-102.19 411.63,-99.11 411.92,-106.1"/>
</a>
</g>
</g>
<!-- Node4 -->
<g id="Node000004" class="node">
<title>Node4</title>
<g id="a_Node000004"><a xlink:href="mathFunctions_8cpp.html#a7916c6b62310fe9cf38ec2a2890aaad4" target="_top" xlink:title="Complementary error function for complex arguments.">
<polygon fill="white" stroke="#666666" points="586.75,-122.75 546.75,-122.75 546.75,-102 586.75,-102 586.75,-122.75"/>
<text xml:space="preserve" text-anchor="middle" x="566.75" y="-109.25" font-family="Helvetica,sans-Serif" font-size="10.00">cerfc</text>
</a>
</g>
</g>
<!-- Node3&#45;&gt;Node4 -->
<g id="edge3_Node000003_Node000004" class="edge">
<title>Node3&#45;&gt;Node4</title>
<g id="a_edge3_Node000003_Node000004"><a xlink:title=" ">
<path fill="none" stroke="#63b8ff" d="M511.23,-105.67C519.27,-106.66 527.53,-107.68 535.1,-108.61"/>
<polygon fill="#63b8ff" stroke="#63b8ff" points="534.46,-112.06 544.81,-109.8 535.32,-105.11 534.46,-112.06"/>
</a>
</g>
</g>
<!-- Node6 -->
<g id="Node000006" class="node">
<title>Node6</title>
<g id="a_Node000006"><a xlink:href="Domain_8cpp.html#aafa3e4fa6318b2f8740f4dbd50c367e5" target="_top" xlink:title="Extract the real part of each component of a complex 3&#45;vector.">
<polygon fill="white" stroke="#666666" points="584.12,-65.75 549.38,-65.75 549.38,-45 584.12,-45 584.12,-65.75"/>
<text xml:space="preserve" text-anchor="middle" x="566.75" y="-52.25" font-family="Helvetica,sans-Serif" font-size="10.00">real</text>
</a>
</g>
</g>
<!-- Node3&#45;&gt;Node6 -->
<g id="edge5_Node000003_Node000006" class="edge">
<title>Node3&#45;&gt;Node6</title>
<g id="a_edge5_Node000003_Node000006"><a xlink:title=" ">
<path fill="none" stroke="#63b8ff" d="M491.26,-89.71C505.51,-83.14 523.83,-74.7 538.74,-67.82"/>
<polygon fill="#63b8ff" stroke="#63b8ff" points="539.9,-71.15 547.51,-63.78 536.97,-64.79 539.9,-71.15"/>
</a>
</g>
</g>
<!-- Node5 -->
<g id="Node000005" class="node">
<title>Node5</title>
<g id="a_Node000005"><a xlink:href="mathFunctions_8cpp.html#abc57cde75234d7e165a9ebcdb45f2c29" target="_top" xlink:title="Error function for complex arguments.">
<polygon fill="white" stroke="#666666" points="657.5,-122.75 622.75,-122.75 622.75,-102 657.5,-102 657.5,-122.75"/>
<text xml:space="preserve" text-anchor="middle" x="640.12" y="-109.25" font-family="Helvetica,sans-Serif" font-size="10.00">cerf</text>
</a>
</g>
</g>
<!-- Node4&#45;&gt;Node5 -->
<g id="edge4_Node000004_Node000005" class="edge">
<title>Node4&#45;&gt;Node5</title>
<g id="a_edge4_Node000004_Node000005"><a xlink:title=" ">
<path fill="none" stroke="#63b8ff" d="M586.88,-112.38C594.31,-112.38 602.98,-112.38 611.09,-112.38"/>
<polygon fill="#63b8ff" stroke="#63b8ff" points="610.86,-115.88 620.86,-112.38 610.86,-108.88 610.86,-115.88"/>
</a>
</g>
</g>
<!-- Node6&#45;&gt;Node6 -->
<g id="edge6_Node000006_Node000006" class="edge">
<title>Node6&#45;&gt;Node6</title>
<g id="a_edge6_Node000006_Node000006"><a xlink:title=" ">
<path fill="none" stroke="#63b8ff" d="M554.93,-66.15C550.2,-74.81 554.14,-83.75 566.75,-83.75 573.45,-83.75 577.7,-81.23 579.51,-77.56"/>
<polygon fill="#63b8ff" stroke="#63b8ff" points="583,-77.34 578.7,-67.66 576.03,-77.91 583,-77.34"/>
</a>
</g>
</g>
<!-- Node7&#45;&gt;Node3 -->
<g id="edge10_Node000007_Node000003" class="edge">
<title>Node7&#45;&gt;Node3</title>
<g id="a_edge10_Node000007_Node000003"><a xlink:title=" ">
<path fill="none" stroke="#63b8ff" d="M360.42,-72.52C378.2,-77.2 397.23,-82.22 414.17,-86.68"/>
<polygon fill="#63b8ff" stroke="#63b8ff" points="412.95,-89.98 423.51,-89.14 414.73,-83.21 412.95,-89.98"/>
</a>
</g>
</g>
<!-- Node8 -->
<g id="Node000008" class="node">
<title>Node8</title>
<g id="a_Node000008"><a xlink:href="group__greenFunction.html#gac0a52dce23be7dacdf97c68653b6c137" target="_top" xlink:title="Complex square root with a branch cut along the negative real axis.">
<polygon fill="white" stroke="#666666" points="487.12,-65.75 447.12,-65.75 447.12,-45 487.12,-45 487.12,-65.75"/>
<text xml:space="preserve" text-anchor="middle" x="467.12" y="-52.25" font-family="Helvetica,sans-Serif" font-size="10.00">csqrt</text>
</a>
</g>
</g>
<!-- Node7&#45;&gt;Node8 -->
<g id="edge8_Node000007_Node000008" class="edge">
<title>Node7&#45;&gt;Node8</title>
<g id="a_edge8_Node000007_Node000008"><a xlink:title=" ">
<path fill="none" stroke="#63b8ff" d="M377.25,-55.38C398.19,-55.38 419.41,-55.38 435.86,-55.38"/>
<polygon fill="#63b8ff" stroke="#63b8ff" points="435.41,-58.88 445.41,-55.38 435.41,-51.88 435.41,-58.88"/>
</a>
</g>
</g>
<!-- Node8&#45;&gt;Node6 -->
<g id="edge9_Node000008_Node000006" class="edge">
<title>Node8&#45;&gt;Node6</title>
<g id="a_edge9_Node000008_Node000006"><a xlink:title=" ">
<path fill="none" stroke="#63b8ff" d="M487.41,-55.38C501.76,-55.38 521.56,-55.38 537.66,-55.38"/>
<polygon fill="#63b8ff" stroke="#63b8ff" points="537.59,-58.88 547.59,-55.38 537.59,-51.88 537.59,-58.88"/>
</a>
</g>
</g>
</g>
</svg>
