<?xml version="1.0" encoding="UTF-8" standalone="no"?>
<!DOCTYPE svg PUBLIC "-//W3C//DTD SVG 1.1//EN"
 "http://www.w3.org/Graphics/SVG/1.1/DTD/svg11.dtd">
<!-- Generated by graphviz version 13.1.2 (20250809.0930)
 -->
<!-- Title: SurfaceMesh::FindEdgeBC Pages: 1 -->
<!--zoomable 107 -->

<svg id="main" version="1.1" xmlns="http://www.w3.org/2000/svg" xmlns:xlink="http://www.w3.org/1999/xlink" xml:space="preserve" onload="init(evt)">

<style type="text/css"><![CDATA[
.node, .edge {opacity: 0.7;}
.node.selected, .edge.selected {opacity: 1;}
.edge:hover path { stroke: red; }
.edge:hover polygon { stroke: red; fill: red; }
]]></style>

<defs>
  <circle id="rim" cx="0" cy="0" r="7"/>
  <circle id="rim2" cx="0" cy="0" r="3.5"/>
  <g id="zoomPlus">
    <use xlink:href="#rim" fill="#404040"><set attributeName="fill" to="#808080" begin="zoomplus.mouseover" end="zoomplus.mouseout"/></use>
    <path d="M-4,0h8M0,-4v8" fill="none" stroke="white" stroke-width="1.5" pointer-events="none"/>
  </g>
  <g id="zoomMin">
    <use xlink:href="#rim" fill="#404040"><set attributeName="fill" to="#808080" begin="zoomminus.mouseover" end="zoomminus.mouseout"/></use>
    <path d="M-4,0h8" fill="none" stroke="white" stroke-width="1.5" pointer-events="none"/>
  </g>
  <g id="arrowUp" transform="translate(30 24)">
    <use xlink:href="#rim"/>
    <path pointer-events="none" fill="none" stroke="white" stroke-width="1.5" d="M0,-3.0v7 M-2.5,-0.5L0,-3.0L2.5,-0.5"/>
  </g>
  <g id="arrowRight" transform="rotate(90) translate(36 -43)">
    <use xlink:href="#rim"/>
    <path pointer-events="none" fill="none" stroke="white" stroke-width="1.5" d="M0,-3.0v7 M-2.5,-0.5L0,-3.0L2.5,-0.5"/>
  </g>
  <g id="arrowDown" transform="rotate(180) translate(-30 -48)">
    <use xlink:href="#rim"/>
    <path pointer-events="none" fill="none" stroke="white" stroke-width="1.5" d="M0,-3.0v7 M-2.5,-0.5L0,-3.0L2.5,-0.5"/>
  </g>
  <g id="arrowLeft" transform="rotate(270) translate(-36 17)">
    <use xlink:href="#rim"/>
    <path pointer-events="none" fill="none" stroke="white" stroke-width="1.5" d="M0,-3.0v7 M-2.5,-0.5L0,-3.0L2.5,-0.5"/>
  </g>
  <g id="resetDef">
    <use xlink:href="#rim2" fill="#404040"><set attributeName="fill" to="#808080" begin="reset.mouseover" end="reset.mouseout"/></use>
  </g>
</defs>
<script type="application/ecmascript">
var viewWidth = 1033;
var viewHeight = 107;
var sectionId = 'dynsection-7';
</script>
<script type="application/ecmascript" xlink:href="svg.min.js"/>
<svg id="graph" class="graph">
<g id="viewport">
<title>SurfaceMesh::FindEdgeBC</title>
<!-- Node1 -->
<g id="Node000001" class="node">
<title>Node1</title>
<g id="a_Node000001"><a xlink:title="Find the index of an edge mapped between n1,n2 via a stored symmetry op.">
<polygon fill="#999999" stroke="#666666" points="1024.5,-59.75 881.75,-59.75 881.75,-39 1024.5,-39 1024.5,-59.75"/>
<text xml:space="preserve" text-anchor="middle" x="953.12" y="-46.25" font-family="Helvetica,sans-Serif" font-size="10.00">SurfaceMesh::FindEdgeBC</text>
</a>
</g>
</g>
<!-- Node2 -->
<g id="Node000002" class="node">
<title>Node2</title>
<g id="a_Node000002"><a xlink:href="classSurfaceMesh.html#ad8c7eef9fac668b92caf8b4418dcb4ff" target="_top" xlink:title="Insert edge (n1,n2) if not already present (directly or via BC image).">
<polygon fill="white" stroke="#666666" points="845.75,-59.75 686.5,-59.75 686.5,-39 845.75,-39 845.75,-59.75"/>
<text xml:space="preserve" text-anchor="middle" x="766.12" y="-46.25" font-family="Helvetica,sans-Serif" font-size="10.00">SurfaceMesh::AddEdgeTested</text>
</a>
</g>
</g>
<!-- Node1&#45;&gt;Node2 -->
<g id="edge1_Node000001_Node000002" class="edge">
<title>Node1&#45;&gt;Node2</title>
<g id="a_edge1_Node000001_Node000002"><a xlink:title=" ">
<path fill="none" stroke="#63b8ff" d="M869.92,-49.38C862.02,-49.38 854.02,-49.38 846.15,-49.38"/>
<polygon fill="#63b8ff" stroke="#63b8ff" points="869.88,-52.88 879.88,-49.38 869.88,-45.88 869.88,-52.88"/>
</a>
</g>
</g>
<!-- Node3 -->
<g id="Node000003" class="node">
<title>Node3</title>
<g id="a_Node000003"><a xlink:href="classSurfaceMesh.html#ad8ac4a9fe716d917b92e245d091ab553" target="_top" xlink:title="Read mesh from the custom &quot;.mesh&quot; text format.">
<polygon fill="white" stroke="#666666" points="646.38,-98.75 469.88,-98.75 469.88,-78 646.38,-78 646.38,-98.75"/>
<text xml:space="preserve" text-anchor="middle" x="558.12" y="-85.25" font-family="Helvetica,sans-Serif" font-size="10.00">SurfaceMesh::LoadFromMeshFile</text>
</a>
</g>
</g>
<!-- Node2&#45;&gt;Node3 -->
<g id="edge2_Node000002_Node000003" class="edge">
<title>Node2&#45;&gt;Node3</title>
<g id="a_edge2_Node000002_Node000003"><a xlink:title=" ">
<path fill="none" stroke="#63b8ff" d="M696.47,-62.37C670.55,-67.28 641.35,-72.81 616.56,-77.5"/>
<polygon fill="#63b8ff" stroke="#63b8ff" points="697.08,-65.82 706.26,-60.52 695.78,-58.94 697.08,-65.82"/>
</a>
</g>
</g>
<!-- Node7 -->
<g id="Node000007" class="node">
<title>Node7</title>
<g id="a_Node000007"><a xlink:href="classSurfaceMesh.html#ab392f262cacf93c286ef49cbe95f2a66" target="_top" xlink:title="Read mesh from a COMSOL &quot;.mphtxt&quot; file.">
<polygon fill="white" stroke="#666666" points="650.5,-59.75 465.75,-59.75 465.75,-39 650.5,-39 650.5,-59.75"/>
<text xml:space="preserve" text-anchor="middle" x="558.12" y="-46.25" font-family="Helvetica,sans-Serif" font-size="10.00">SurfaceMesh::LoadFromMphtxtFile</text>
</a>
</g>
</g>
<!-- Node2&#45;&gt;Node7 -->
<g id="edge6_Node000002_Node000007" class="edge">
<title>Node2&#45;&gt;Node7</title>
<g id="a_edge6_Node000002_Node000007"><a xlink:title=" ">
<path fill="none" stroke="#63b8ff" d="M674.56,-49.38C666.64,-49.38 658.62,-49.38 650.7,-49.38"/>
<polygon fill="#63b8ff" stroke="#63b8ff" points="674.56,-52.88 684.56,-49.38 674.56,-45.88 674.56,-52.88"/>
</a>
</g>
</g>
<!-- Node8 -->
<g id="Node000008" class="node">
<title>Node8</title>
<g id="a_Node000008"><a xlink:href="classSurfaceMesh.html#ae7486b3dfa647ae8ee6063bd6297f5ff" target="_top" xlink:title="Read mesh from a Gmsh &quot;.msh&quot; file (v2 text).">
<polygon fill="white" stroke="#666666" points="643.38,-20.75 472.88,-20.75 472.88,0 643.38,0 643.38,-20.75"/>
<text xml:space="preserve" text-anchor="middle" x="558.12" y="-7.25" font-family="Helvetica,sans-Serif" font-size="10.00">SurfaceMesh::LoadFromMshFile</text>
</a>
</g>
</g>
<!-- Node2&#45;&gt;Node8 -->
<g id="edge8_Node000002_Node000008" class="edge">
<title>Node2&#45;&gt;Node8</title>
<g id="a_edge8_Node000002_Node000008"><a xlink:title=" ">
<path fill="none" stroke="#63b8ff" d="M696.47,-36.38C670.55,-31.47 641.35,-25.94 616.56,-21.25"/>
<polygon fill="#63b8ff" stroke="#63b8ff" points="695.78,-39.81 706.26,-38.23 697.08,-32.93 695.78,-39.81"/>
</a>
</g>
</g>
<!-- Node4 -->
<g id="Node000004" class="node">
<title>Node4</title>
<g id="a_Node000004"><a xlink:href="classSurfaceMesh.html#aa64ebb4992ea98778f79c272568c68d2" target="_top" xlink:title="Load a mesh from file by extension.">
<polygon fill="white" stroke="#666666" points="429.75,-59.75 279.5,-59.75 279.5,-39 429.75,-39 429.75,-59.75"/>
<text xml:space="preserve" text-anchor="middle" x="354.62" y="-46.25" font-family="Helvetica,sans-Serif" font-size="10.00">SurfaceMesh::LoadFromFile</text>
</a>
</g>
</g>
<!-- Node3&#45;&gt;Node4 -->
<g id="edge3_Node000003_Node000004" class="edge">
<title>Node3&#45;&gt;Node4</title>
<g id="a_edge3_Node000003_Node000004"><a xlink:title=" ">
<path fill="none" stroke="#63b8ff" d="M489.97,-75.38C464.62,-70.47 436.05,-64.94 411.8,-60.25"/>
<polygon fill="#63b8ff" stroke="#63b8ff" points="489.03,-78.76 499.51,-77.22 490.36,-71.89 489.03,-78.76"/>
</a>
</g>
</g>
<!-- Node5 -->
<g id="Node000005" class="node">
<title>Node5</title>
<g id="a_Node000005"><a xlink:href="classSurfaceMesh.html#aa8811e2b8b03caa6028d5d154a69ea71" target="_top" xlink:title="Convert/modify a mesh according to a conversion job file.">
<polygon fill="white" stroke="#666666" points="243.5,-59.75 76.75,-59.75 76.75,-39 243.5,-39 243.5,-59.75"/>
<text xml:space="preserve" text-anchor="middle" x="160.12" y="-46.25" font-family="Helvetica,sans-Serif" font-size="10.00">SurfaceMesh::ConvertMeshFile</text>
</a>
</g>
</g>
<!-- Node4&#45;&gt;Node5 -->
<g id="edge4_Node000004_Node000005" class="edge">
<title>Node4&#45;&gt;Node5</title>
<g id="a_edge4_Node000004_Node000005"><a xlink:title=" ">
<path fill="none" stroke="#63b8ff" d="M267.73,-49.38C259.84,-49.38 251.85,-49.38 243.99,-49.38"/>
<polygon fill="#63b8ff" stroke="#63b8ff" points="267.69,-52.88 277.69,-49.38 267.69,-45.88 267.69,-52.88"/>
</a>
</g>
</g>
<!-- Node6 -->
<g id="Node000006" class="node">
<title>Node6</title>
<g id="a_Node000006"><a xlink:href="main_8cpp.html#a0ddf1224851353fc92bfbff6f499fa97" target="_top" xlink:title="Main driver routine for the HELIOS SIE simulation program.">
<polygon fill="white" stroke="#666666" points="40.75,-59.75 0,-59.75 0,-39 40.75,-39 40.75,-59.75"/>
<text xml:space="preserve" text-anchor="middle" x="20.38" y="-46.25" font-family="Helvetica,sans-Serif" font-size="10.00">main</text>
</a>
</g>
</g>
<!-- Node5&#45;&gt;Node6 -->
<g id="edge5_Node000005_Node000006" class="edge">
<title>Node5&#45;&gt;Node6</title>
<g id="a_edge5_Node000005_Node000006"><a xlink:title=" ">
<path fill="none" stroke="#63b8ff" d="M65.11,-49.38C56.26,-49.38 48.05,-49.38 41.19,-49.38"/>
<polygon fill="#63b8ff" stroke="#63b8ff" points="65.1,-52.88 75.1,-49.38 65.1,-45.88 65.1,-52.88"/>
</a>
</g>
</g>
<!-- Node7&#45;&gt;Node4 -->
<g id="edge7_Node000007_Node000004" class="edge">
<title>Node7&#45;&gt;Node4</title>
<g id="a_edge7_Node000007_Node000004"><a xlink:title=" ">
<path fill="none" stroke="#63b8ff" d="M454.09,-49.38C446.01,-49.38 437.95,-49.38 430.11,-49.38"/>
<polygon fill="#63b8ff" stroke="#63b8ff" points="454,-52.88 464,-49.38 454,-45.88 454,-52.88"/>
</a>
</g>
</g>
<!-- Node8&#45;&gt;Node4 -->
<g id="edge9_Node000008_Node000004" class="edge">
<title>Node8&#45;&gt;Node4</title>
<g id="a_edge9_Node000008_Node000004"><a xlink:title=" ">
<path fill="none" stroke="#63b8ff" d="M489.97,-23.37C464.62,-28.28 436.05,-33.81 411.8,-38.5"/>
<polygon fill="#63b8ff" stroke="#63b8ff" points="490.36,-26.86 499.51,-21.53 489.03,-19.99 490.36,-26.86"/>
</a>
</g>
</g>
</g>
</svg>

<g id="navigator" transform="translate(0 0)" fill="#404254">
  <rect fill="#f2f5e9" fill-opacity="0.5" stroke="#606060" stroke-width=".5" x="0" y="0" width="60" height="60"/>
  <use id="zoomplus" xlink:href="#zoomPlus" x="17" y="9" onmousedown="handleZoom(evt,'in')"/>
  <use id="zoomminus" xlink:href="#zoomMin" x="42" y="9" onmousedown="handleZoom(evt,'out')"/>
  <use id="reset" xlink:href="#resetDef" x="30" y="36" onmousedown="handleReset()"/>
   <use id="arrowup" xlink:href="#arrowUp" x="0" y="0" onmousedown="handlePan(0,-1)"/>
  <use id="arrowright" xlink:href="#arrowRight" x="0" y="0" onmousedown="handlePan(1,0)"/>
  <use id="arrowdown" xlink:href="#arrowDown" x="0" y="0" onmousedown="handlePan(0,1)"/>
  <use id="arrowleft" xlink:href="#arrowLeft" x="0" y="0" onmousedown="handlePan(-1,0)"/>
</g>
<svg viewBox="0 0 15 15" width="100%" height="30px" preserveAspectRatio="xMaxYMin meet">
 <g id="arrow_out" transform="scale(0.3 0.3)">
  <a xlink:href="classSurfaceMesh_a7c57c7085e749775a96cb25a5424834e_icgraph_org.svg" target="_base">
   <rect id="button" ry="5" rx="5" y="6" x="6" height="38" width="38"
        fill="#f2f5e9" fill-opacity="0.5" stroke="#606060" stroke-width="1.0"/>
   <path id="arrow"
     d="M 11.500037,31.436501 C 11.940474,20.09759 22.043105,11.32322 32.158766,21.979434 L 37.068811,17.246167 C 37.068811,17.246167 37.088388,32 37.088388,32 L 22.160133,31.978069 C 22.160133,31.978069 26.997745,27.140456 26.997745,27.140456 C 18.528582,18.264221 13.291696,25.230495 11.500037,31.436501 z"
     style="fill:#404040;"/>
  </a>
 </g>
</svg>

<style type='text/css'>
<![CDATA[
[data-mouse-over-selected='false'] { opacity: 0.7; }
[data-mouse-over-selected='true']  { opacity: 1.0; }
]]>
</style>
<script type="application/ecmascript"><![CDATA[
document.addEventListener('DOMContentLoaded', (event) => {
  highlightEdges();
  highlightAdjacentNodes();
});
]]></script>
</svg>
