<?xml version="1.0" encoding="UTF-8" standalone="no"?>
<!DOCTYPE svg PUBLIC "-//W3C//DTD SVG 1.1//EN"
 "http://www.w3.org/Graphics/SVG/1.1/DTD/svg11.dtd">
<!-- Generated by graphviz version 13.1.2 (20250809.0930)
 -->
<!-- Title: DomainLayered3D::GetLayerIndex Pages: 1 -->
<!--zoomable 506 -->

<svg id="main" version="1.1" xmlns="http://www.w3.org/2000/svg" xmlns:xlink="http://www.w3.org/1999/xlink" xml:space="preserve" onload="init(evt)">

<style type="text/css"><![CDATA[
.node, .edge {opacity: 0.7;}
.node.selected, .edge.selected {opacity: 1;}
.edge:hover path { stroke: red; }
.edge:hover polygon { stroke: red; fill: red; }
]]></style>

<defs>
  <circle id="rim" cx="0" cy="0" r="7"/>
  <circle id="rim2" cx="0" cy="0" r="3.5"/>
  <g id="zoomPlus">
    <use xlink:href="#rim" fill="#404040"><set attributeName="fill" to="#808080" begin="zoomplus.mouseover" end="zoomplus.mouseout"/></use>
    <path d="M-4,0h8M0,-4v8" fill="none" stroke="white" stroke-width="1.5" pointer-events="none"/>
  </g>
  <g id="zoomMin">
    <use xlink:href="#rim" fill="#404040"><set attributeName="fill" to="#808080" begin="zoomminus.mouseover" end="zoomminus.mouseout"/></use>
    <path d="M-4,0h8" fill="none" stroke="white" stroke-width="1.5" pointer-events="none"/>
  </g>
  <g id="arrowUp" transform="translate(30 24)">
    <use xlink:href="#rim"/>
    <path pointer-events="none" fill="none" stroke="white" stroke-width="1.5" d="M0,-3.0v7 M-2.5,-0.5L0,-3.0L2.5,-0.5"/>
  </g>
  <g id="arrowRight" transform="rotate(90) translate(36 -43)">
    <use xlink:href="#rim"/>
    <path pointer-events="none" fill="none" stroke="white" stroke-width="1.5" d="M0,-3.0v7 M-2.5,-0.5L0,-3.0L2.5,-0.5"/>
  </g>
  <g id="arrowDown" transform="rotate(180) translate(-30 -48)">
    <use xlink:href="#rim"/>
    <path pointer-events="none" fill="none" stroke="white" stroke-width="1.5" d="M0,-3.0v7 M-2.5,-0.5L0,-3.0L2.5,-0.5"/>
  </g>
  <g id="arrowLeft" transform="rotate(270) translate(-36 17)">
    <use xlink:href="#rim"/>
    <path pointer-events="none" fill="none" stroke="white" stroke-width="1.5" d="M0,-3.0v7 M-2.5,-0.5L0,-3.0L2.5,-0.5"/>
  </g>
  <g id="resetDef">
    <use xlink:href="#rim2" fill="#404040"><set attributeName="fill" to="#808080" begin="reset.mouseover" end="reset.mouseout"/></use>
  </g>
</defs>
<script type="application/ecmascript">
var viewWidth = 589;
var viewHeight = 506;
var sectionId = 'dynsection-17';
</script>
<script type="application/ecmascript" xlink:href="svg.min.js"/>
<svg id="graph" class="graph">
<g id="viewport">
<title>DomainLayered3D::GetLayerIndex</title>
<!-- Node1 -->
<g id="Node000001" class="node">
<title>Node1</title>
<g id="a_Node000001"><a xlink:title="Returns the layer index corresponding to a spatial position.">
<polygon fill="#999999" stroke="#666666" points="580.5,-135.12 423.5,-135.12 423.5,-101.62 580.5,-101.62 580.5,-135.12"/>
<text xml:space="preserve" text-anchor="start" x="431.5" y="-121.62" font-family="Helvetica,sans-Serif" font-size="10.00">DomainLayered3D::GetLayer</text>
<text xml:space="preserve" text-anchor="middle" x="502" y="-108.88" font-family="Helvetica,sans-Serif" font-size="10.00">Index</text>
</a>
</g>
</g>
<!-- Node2 -->
<g id="Node000002" class="node">
<title>Node2</title>
<g id="a_Node000002"><a xlink:href="classDomainLayered3D.html#a281513a4cb865b8c688dd920a6789955" target="_top" xlink:title="Relative permittivity at a spatial location.">
<polygon fill="white" stroke="#666666" points="387.5,-146.75 239.5,-146.75 239.5,-126 387.5,-126 387.5,-146.75"/>
<text xml:space="preserve" text-anchor="middle" x="313.5" y="-133.25" font-family="Helvetica,sans-Serif" font-size="10.00">DomainLayered3D::Epsilon</text>
</a>
</g>
</g>
<!-- Node1&#45;&gt;Node2 -->
<g id="edge1_Node000001_Node000002" class="edge">
<title>Node1&#45;&gt;Node2</title>
<g id="a_edge1_Node000001_Node000002"><a xlink:title=" ">
<path fill="none" stroke="#63b8ff" d="M411.94,-126.97C403.9,-127.75 395.82,-128.53 387.94,-129.29"/>
<polygon fill="#63b8ff" stroke="#63b8ff" points="412.13,-130.47 421.75,-126.02 411.46,-123.5 412.13,-130.47"/>
</a>
</g>
</g>
<!-- Node7 -->
<g id="Node000007" class="node">
<title>Node7</title>
<g id="a_Node000007"><a xlink:href="classDomainLayered3D.html#a2572d0a6f9105bf4f90c42970f76f8a0" target="_top" xlink:title="Secondary fields &#160;at a point.">
<polygon fill="white" stroke="#666666" points="178.38,-111.12 25.12,-111.12 25.12,-77.62 178.38,-77.62 178.38,-111.12"/>
<text xml:space="preserve" text-anchor="start" x="33.12" y="-97.62" font-family="Helvetica,sans-Serif" font-size="10.00">DomainLayered3D::SecField</text>
<text xml:space="preserve" text-anchor="middle" x="101.75" y="-84.88" font-family="Helvetica,sans-Serif" font-size="10.00">EandH</text>
</a>
</g>
</g>
<!-- Node1&#45;&gt;Node7 -->
<g id="edge16_Node000001_Node000007" class="edge">
<title>Node1&#45;&gt;Node7</title>
<g id="a_edge16_Node000001_Node000007"><a xlink:title=" ">
<path fill="none" stroke="#63b8ff" d="M411.81,-113C341.68,-108.77 245.04,-102.95 178.6,-98.95"/>
<polygon fill="#63b8ff" stroke="#63b8ff" points="411.56,-116.49 421.76,-113.6 411.99,-109.5 411.56,-116.49"/>
</a>
</g>
</g>
<!-- Node8 -->
<g id="Node000008" class="node">
<title>Node8</title>
<g id="a_Node000008"><a xlink:href="classDomainLayered3D.html#ae0399e203da7a532c55264015d172e99" target="_top" xlink:title="Secondary (scattered) magnetic field at a point from the solution vector.">
<polygon fill="white" stroke="#666666" points="182.12,-20.75 21.38,-20.75 21.38,0 182.12,0 182.12,-20.75"/>
<text xml:space="preserve" text-anchor="middle" x="101.75" y="-7.25" font-family="Helvetica,sans-Serif" font-size="10.00">DomainLayered3D::SecFieldH</text>
</a>
</g>
</g>
<!-- Node1&#45;&gt;Node8 -->
<g id="edge17_Node000001_Node000008" class="edge">
<title>Node1&#45;&gt;Node8</title>
<g id="a_edge17_Node000001_Node000008"><a xlink:title=" ">
<path fill="none" stroke="#63b8ff" d="M457.08,-96.43C436.37,-86.76 411.08,-75.91 387.5,-68.38 307.96,-42.96 285.34,-46.95 203.5,-30.38 188.73,-27.38 172.74,-24.19 157.93,-21.25"/>
<polygon fill="#63b8ff" stroke="#63b8ff" points="455.56,-99.58 466.09,-100.71 458.56,-93.26 455.56,-99.58"/>
</a>
</g>
</g>
<!-- Node9 -->
<g id="Node000009" class="node">
<title>Node9</title>
<g id="a_Node000009"><a xlink:href="classDomainLayered3D.html#a295274a8176b2d6f9fc07c7aea9fd89c" target="_top" xlink:title="Relative permeability at a spatial location.">
<polygon fill="white" stroke="#666666" points="377.38,-185.75 249.62,-185.75 249.62,-165 377.38,-165 377.38,-185.75"/>
<text xml:space="preserve" text-anchor="middle" x="313.5" y="-172.25" font-family="Helvetica,sans-Serif" font-size="10.00">DomainLayered3D::Mu</text>
</a>
</g>
</g>
<!-- Node1&#45;&gt;Node9 -->
<g id="edge8_Node000001_Node000009" class="edge">
<title>Node1&#45;&gt;Node9</title>
<g id="a_edge8_Node000001_Node000009"><a xlink:title=" ">
<path fill="none" stroke="#63b8ff" d="M439.26,-139.09C422.51,-144.55 404.36,-150.32 387.5,-155.38 377.18,-158.47 365.98,-161.63 355.52,-164.5"/>
<polygon fill="#63b8ff" stroke="#63b8ff" points="440.18,-142.48 448.59,-136.04 438,-135.82 440.18,-142.48"/>
</a>
</g>
</g>
<!-- Node10 -->
<g id="Node000010" class="node">
<title>Node10</title>
<g id="a_Node000010"><a xlink:href="classDomainLayered3D.html#a110d03c8733184e065d4e41ba22b113f" target="_top" xlink:title="Secondary (scattered) electric field at a point from the solution vector.">
<polygon fill="white" stroke="#666666" points="181.38,-59.75 22.12,-59.75 22.12,-39 181.38,-39 181.38,-59.75"/>
<text xml:space="preserve" text-anchor="middle" x="101.75" y="-46.25" font-family="Helvetica,sans-Serif" font-size="10.00">DomainLayered3D::SecFieldE</text>
</a>
</g>
</g>
<!-- Node1&#45;&gt;Node10 -->
<g id="edge15_Node000001_Node000010" class="edge">
<title>Node1&#45;&gt;Node10</title>
<g id="a_edge15_Node000001_Node000010"><a xlink:title=" ">
<path fill="none" stroke="#63b8ff" d="M411.92,-102.64C403.67,-101.2 395.43,-99.76 387.5,-98.38 311.52,-85.14 224.09,-70.13 166.38,-60.25"/>
<polygon fill="#63b8ff" stroke="#63b8ff" points="411.22,-106.07 421.67,-104.35 412.43,-99.18 411.22,-106.07"/>
</a>
</g>
</g>
<!-- Node11 -->
<g id="Node000011" class="node">
<title>Node11</title>
<g id="a_Node000011"><a xlink:href="classDomainLayered3D.html#a76fc8705ab75f3e6599693f9544821e9" target="_top" xlink:title="Computes the slicing of points with respect to interfaces.">
<polygon fill="white" stroke="#666666" points="381.12,-356.75 245.88,-356.75 245.88,-336 381.12,-336 381.12,-356.75"/>
<text xml:space="preserve" text-anchor="middle" x="313.5" y="-343.25" font-family="Helvetica,sans-Serif" font-size="10.00">DomainLayered3D::slice</text>
</a>
</g>
</g>
<!-- Node1&#45;&gt;Node11 -->
<g id="edge18_Node000001_Node000011" class="edge">
<title>Node1&#45;&gt;Node11</title>
<g id="a_edge18_Node000001_Node000011"><a xlink:title=" ">
<path fill="none" stroke="#63b8ff" d="M479.71,-144.4C438.94,-194.24 351.4,-301.27 323.34,-335.56"/>
<polygon fill="#63b8ff" stroke="#63b8ff" points="482.4,-146.64 486.02,-136.68 476.98,-142.21 482.4,-146.64"/>
</a>
</g>
</g>
<!-- Node3 -->
<g id="Node000003" class="node">
<title>Node3</title>
<g id="a_Node000003"><a xlink:href="classDomainLayered3D.html#a4e5fb098bcc6edc2f594da23e0b64fb3" target="_top" xlink:title="Absorption cross section.">
<polygon fill="white" stroke="#666666" points="190.38,-227.75 13.12,-227.75 13.12,-207 190.38,-207 190.38,-227.75"/>
<text xml:space="preserve" text-anchor="middle" x="101.75" y="-214.25" font-family="Helvetica,sans-Serif" font-size="10.00">DomainLayered3D::absorptionCS</text>
</a>
</g>
</g>
<!-- Node2&#45;&gt;Node3 -->
<g id="edge2_Node000002_Node000003" class="edge">
<title>Node2&#45;&gt;Node3</title>
<g id="a_edge2_Node000002_Node000003"><a xlink:title=" ">
<path fill="none" stroke="#63b8ff" d="M248.2,-151.61C245.19,-153.06 242.27,-154.64 239.5,-156.38 218.94,-169.23 224.51,-185.26 203.5,-197.38 197.09,-201.07 190.11,-204.1 182.91,-206.57"/>
<polygon fill="#63b8ff" stroke="#63b8ff" points="249.47,-154.88 257.33,-147.78 246.76,-148.42 249.47,-154.88"/>
</a>
</g>
</g>
<!-- Node4 -->
<g id="Node000004" class="node">
<title>Node4</title>
<g id="a_Node000004"><a xlink:href="classDomainLayered3D.html#a6551ae7ca5dac2a5dda2d78b15d78ecc" target="_top" xlink:title="Add a Dipole excitation in the layered medium.">
<polygon fill="white" stroke="#666666" points="183.25,-266.75 20.25,-266.75 20.25,-246 183.25,-246 183.25,-266.75"/>
<text xml:space="preserve" text-anchor="middle" x="101.75" y="-253.25" font-family="Helvetica,sans-Serif" font-size="10.00">DomainLayered3D::AddDipole</text>
</a>
</g>
</g>
<!-- Node2&#45;&gt;Node4 -->
<g id="edge3_Node000002_Node000004" class="edge">
<title>Node2&#45;&gt;Node4</title>
<g id="a_edge3_Node000002_Node000004"><a xlink:title=" ">
<path fill="none" stroke="#63b8ff" d="M244.13,-152.82C242.52,-153.93 240.98,-155.11 239.5,-156.38 209.87,-181.72 234.01,-212.1 203.5,-236.38 197.57,-241.09 190.83,-244.8 183.72,-247.69"/>
<polygon fill="#63b8ff" stroke="#63b8ff" points="245.64,-155.99 252.59,-147.99 242.17,-149.91 245.64,-155.99"/>
</a>
</g>
</g>
<!-- Node5 -->
<g id="Node000005" class="node">
<title>Node5</title>
<g id="a_Node000005"><a xlink:href="classDomainLayered3D.html#a847bdddcbf4257a73cfcd2766c882f8b" target="_top" xlink:title="Extinction cross section.">
<polygon fill="white" stroke="#666666" points="188.88,-188.75 14.62,-188.75 14.62,-168 188.88,-168 188.88,-188.75"/>
<text xml:space="preserve" text-anchor="middle" x="101.75" y="-175.25" font-family="Helvetica,sans-Serif" font-size="10.00">DomainLayered3D::extinctionCS</text>
</a>
</g>
</g>
<!-- Node2&#45;&gt;Node5 -->
<g id="edge4_Node000002_Node000005" class="edge">
<title>Node2&#45;&gt;Node5</title>
<g id="a_edge4_Node000002_Node000005"><a xlink:title=" ">
<path fill="none" stroke="#63b8ff" d="M248.01,-149.43C233.38,-152.38 217.91,-155.49 203.5,-158.38 188.64,-161.35 172.54,-164.55 157.66,-167.51"/>
<polygon fill="#63b8ff" stroke="#63b8ff" points="248.41,-152.92 257.52,-147.51 247.03,-146.05 248.41,-152.92"/>
</a>
</g>
</g>
<!-- Node6 -->
<g id="Node000006" class="node">
<title>Node6</title>
<g id="a_Node000006"><a xlink:href="classDomainLayered3D.html#a267135f0a2f5bfff12f7ac3b25429176" target="_top" xlink:title="Scattering cross section.">
<polygon fill="white" stroke="#666666" points="188.88,-149.75 14.62,-149.75 14.62,-129 188.88,-129 188.88,-149.75"/>
<text xml:space="preserve" text-anchor="middle" x="101.75" y="-136.25" font-family="Helvetica,sans-Serif" font-size="10.00">DomainLayered3D::scatteringCS</text>
</a>
</g>
</g>
<!-- Node2&#45;&gt;Node6 -->
<g id="edge5_Node000002_Node000006" class="edge">
<title>Node2&#45;&gt;Node6</title>
<g id="a_edge5_Node000002_Node000006"><a xlink:title=" ">
<path fill="none" stroke="#63b8ff" d="M227.99,-137.58C215.15,-137.77 201.9,-137.96 189.02,-138.14"/>
<polygon fill="#63b8ff" stroke="#63b8ff" points="227.68,-141.09 237.63,-137.45 227.58,-134.09 227.68,-141.09"/>
</a>
</g>
</g>
<!-- Node2&#45;&gt;Node7 -->
<g id="edge6_Node000002_Node000007" class="edge">
<title>Node2&#45;&gt;Node7</title>
<g id="a_edge6_Node000002_Node000007"><a xlink:title=" ">
<path fill="none" stroke="#63b8ff" d="M247.11,-123.28C225.37,-118.93 200.99,-114.05 178.53,-109.55"/>
<polygon fill="#63b8ff" stroke="#63b8ff" points="246.23,-126.68 256.73,-125.21 247.61,-119.81 246.23,-126.68"/>
</a>
</g>
</g>
<!-- Node2&#45;&gt;Node8 -->
<g id="edge7_Node000002_Node000008" class="edge">
<title>Node2&#45;&gt;Node8</title>
<g id="a_edge7_Node000002_Node000008"><a xlink:title=" ">
<path fill="none" stroke="#63b8ff" d="M298.06,-116.56C279.19,-92.21 243.76,-51.52 203.5,-30.38 196.47,-26.68 188.85,-23.67 181.04,-21.22"/>
<polygon fill="#63b8ff" stroke="#63b8ff" points="295.16,-118.52 303.98,-124.39 300.75,-114.3 295.16,-118.52"/>
</a>
</g>
</g>
<!-- Node9&#45;&gt;Node3 -->
<g id="edge9_Node000009_Node000003" class="edge">
<title>Node9&#45;&gt;Node3</title>
<g id="a_edge9_Node000009_Node000003"><a xlink:title=" ">
<path fill="none" stroke="#63b8ff" d="M248.01,-188.43C233.38,-191.38 217.91,-194.49 203.5,-197.38 188.64,-200.35 172.54,-203.55 157.66,-206.51"/>
<polygon fill="#63b8ff" stroke="#63b8ff" points="248.41,-191.92 257.52,-186.51 247.03,-185.05 248.41,-191.92"/>
</a>
</g>
</g>
<!-- Node9&#45;&gt;Node4 -->
<g id="edge10_Node000009_Node000004" class="edge">
<title>Node9&#45;&gt;Node4</title>
<g id="a_edge10_Node000009_Node000004"><a xlink:title=" ">
<path fill="none" stroke="#63b8ff" d="M287.41,-192.43C266,-206.24 233.93,-225.16 203.5,-236.38 193.63,-240.01 182.95,-243.04 172.37,-245.54"/>
<polygon fill="#63b8ff" stroke="#63b8ff" points="289.31,-195.37 295.75,-186.96 285.47,-189.52 289.31,-195.37"/>
</a>
</g>
</g>
<!-- Node9&#45;&gt;Node5 -->
<g id="edge11_Node000009_Node000005" class="edge">
<title>Node9&#45;&gt;Node5</title>
<g id="a_edge11_Node000009_Node000005"><a xlink:title=" ">
<path fill="none" stroke="#63b8ff" d="M237.96,-176.44C222.14,-176.67 205.31,-176.91 189.09,-177.14"/>
<polygon fill="#63b8ff" stroke="#63b8ff" points="237.82,-179.94 247.77,-176.3 237.72,-172.94 237.82,-179.94"/>
</a>
</g>
</g>
<!-- Node9&#45;&gt;Node6 -->
<g id="edge12_Node000009_Node000006" class="edge">
<title>Node9&#45;&gt;Node6</title>
<g id="a_edge12_Node000009_Node000006"><a xlink:title=" ">
<path fill="none" stroke="#63b8ff" d="M238.23,-162.63C214.57,-158.57 188.63,-154.11 165.84,-150.2"/>
<polygon fill="#63b8ff" stroke="#63b8ff" points="237.34,-166.03 247.79,-164.27 238.53,-159.13 237.34,-166.03"/>
</a>
</g>
</g>
<!-- Node9&#45;&gt;Node7 -->
<g id="edge14_Node000009_Node000007" class="edge">
<title>Node9&#45;&gt;Node7</title>
<g id="a_edge14_Node000009_Node000007"><a xlink:title=" ">
<path fill="none" stroke="#63b8ff" d="M249.53,-160.39C246.06,-158.87 242.69,-157.2 239.5,-155.38 220.13,-144.3 222.95,-131.31 203.5,-120.38 195.78,-116.04 187.33,-112.41 178.7,-109.38"/>
<polygon fill="#63b8ff" stroke="#63b8ff" points="248.15,-163.6 258.74,-163.97 250.69,-157.08 248.15,-163.6"/>
</a>
</g>
</g>
<!-- Node9&#45;&gt;Node10 -->
<g id="edge13_Node000009_Node000010" class="edge">
<title>Node9&#45;&gt;Node10</title>
<g id="a_edge13_Node000009_Node000010"><a xlink:title=" ">
<path fill="none" stroke="#63b8ff" d="M244.08,-158.99C242.49,-157.86 240.96,-156.66 239.5,-155.38 208.12,-127.69 235.97,-94.77 203.5,-68.38 197.08,-63.15 189.66,-59.2 181.83,-56.23"/>
<polygon fill="#63b8ff" stroke="#63b8ff" points="242.08,-161.87 252.48,-163.88 245.6,-155.82 242.08,-161.87"/>
</a>
</g>
</g>
<!-- Node11&#45;&gt;Node4 -->
<g id="edge19_Node000011_Node000004" class="edge">
<title>Node11&#45;&gt;Node4</title>
<g id="a_edge19_Node000011_Node000004"><a xlink:title=" ">
<path fill="none" stroke="#63b8ff" d="M290.67,-328.43C269.63,-312.07 236.25,-288.53 203.5,-275.38 195.49,-272.16 186.9,-269.48 178.23,-267.25"/>
<polygon fill="#63b8ff" stroke="#63b8ff" points="288.49,-331.17 298.5,-334.65 292.84,-325.69 288.49,-331.17"/>
</a>
</g>
</g>
<!-- Node12 -->
<g id="Node000012" class="node">
<title>Node12</title>
<g id="a_Node000012"><a xlink:href="classDomainLayered3D.html#ad0d867ee7289e485c4bc01077fbdb59a" target="_top" xlink:title="Constructs a 3D layered domain with given material properties and geometry.">
<polygon fill="white" stroke="#666666" points="203.5,-446.75 0,-446.75 0,-426 203.5,-426 203.5,-446.75"/>
<text xml:space="preserve" text-anchor="middle" x="101.75" y="-433.25" font-family="Helvetica,sans-Serif" font-size="10.00">DomainLayered3D::DomainLayered3D</text>
</a>
</g>
</g>
<!-- Node11&#45;&gt;Node12 -->
<g id="edge20_Node000011_Node000012" class="edge">
<title>Node11&#45;&gt;Node12</title>
<g id="a_edge20_Node000011_Node000012"><a xlink:title=" ">
<path fill="none" stroke="#63b8ff" d="M290.67,-364.32C269.63,-380.68 236.25,-404.22 203.5,-417.38 195.49,-420.59 186.9,-423.27 178.23,-425.5"/>
<polygon fill="#63b8ff" stroke="#63b8ff" points="292.84,-367.06 298.5,-358.1 288.49,-361.58 292.84,-367.06"/>
</a>
</g>
</g>
<!-- Node13 -->
<g id="Node000013" class="node">
<title>Node13</title>
<g id="a_Node000013"><a xlink:href="classDomainLayered3D.html#ab55a37fee77313a2f5e2bd4c2be927f0" target="_top" xlink:title="Initialize the layered Green&#39;s function used for field evaluation.">
<polygon fill="white" stroke="#666666" points="185.5,-408.12 18,-408.12 18,-374.62 185.5,-374.62 185.5,-408.12"/>
<text xml:space="preserve" text-anchor="start" x="26" y="-394.62" font-family="Helvetica,sans-Serif" font-size="10.00">DomainLayered3D::newGrnFun</text>
<text xml:space="preserve" text-anchor="middle" x="101.75" y="-381.88" font-family="Helvetica,sans-Serif" font-size="10.00">Layered</text>
</a>
</g>
</g>
<!-- Node11&#45;&gt;Node13 -->
<g id="edge21_Node000011_Node000013" class="edge">
<title>Node11&#45;&gt;Node13</title>
<g id="a_edge21_Node000011_Node000013"><a xlink:title=" ">
<path fill="none" stroke="#63b8ff" d="M250.86,-359.6C229.65,-364.15 205.58,-369.31 183.11,-374.14"/>
<polygon fill="#63b8ff" stroke="#63b8ff" points="251.47,-363.05 260.51,-357.53 250,-356.2 251.47,-363.05"/>
</a>
</g>
</g>
<!-- Node14 -->
<g id="Node000014" class="node">
<title>Node14</title>
<g id="a_Node000014"><a xlink:href="classDomainLayered3D.html#acd442aab27d1f56d8211a164f85f341a" target="_top" xlink:title="Self&#45;test: grid generation (prints to console).">
<polygon fill="white" stroke="#666666" points="179.5,-356.75 24,-356.75 24,-336 179.5,-336 179.5,-356.75"/>
<text xml:space="preserve" text-anchor="middle" x="101.75" y="-343.25" font-family="Helvetica,sans-Serif" font-size="10.00">DomainLayered3D::test_grid</text>
</a>
</g>
</g>
<!-- Node11&#45;&gt;Node14 -->
<g id="edge22_Node000011_Node000014" class="edge">
<title>Node11&#45;&gt;Node14</title>
<g id="a_edge22_Node000011_Node000014"><a xlink:title=" ">
<path fill="none" stroke="#63b8ff" d="M234.04,-346.38C216.25,-346.38 197.37,-346.38 179.64,-346.38"/>
<polygon fill="#63b8ff" stroke="#63b8ff" points="234.04,-349.88 244.04,-346.38 234.04,-342.88 234.04,-349.88"/>
</a>
</g>
</g>
<!-- Node15 -->
<g id="Node000015" class="node">
<title>Node15</title>
<g id="a_Node000015"><a xlink:href="classDomainLayered3D.html#a9ca4f1cf49de04c5df6a664e656dbf85" target="_top" xlink:title="Self&#45;test: tabulation range computation (prints to console).">
<polygon fill="white" stroke="#666666" points="167.5,-318.12 36,-318.12 36,-284.62 167.5,-284.62 167.5,-318.12"/>
<text xml:space="preserve" text-anchor="start" x="44" y="-304.62" font-family="Helvetica,sans-Serif" font-size="10.00">DomainLayered3D::test</text>
<text xml:space="preserve" text-anchor="middle" x="101.75" y="-291.88" font-family="Helvetica,sans-Serif" font-size="10.00">_range</text>
</a>
</g>
</g>
<!-- Node11&#45;&gt;Node15 -->
<g id="edge23_Node000011_Node000015" class="edge">
<title>Node11&#45;&gt;Node15</title>
<g id="a_edge23_Node000011_Node000015"><a xlink:title=" ">
<path fill="none" stroke="#63b8ff" d="M251.08,-333.2C224.95,-327.59 194.44,-321.05 167.91,-315.35"/>
<polygon fill="#63b8ff" stroke="#63b8ff" points="250,-336.55 260.51,-335.22 251.47,-329.7 250,-336.55"/>
</a>
</g>
</g>
<!-- Node16 -->
<g id="Node000016" class="node">
<title>Node16</title>
<g id="a_Node000016"><a xlink:href="classDomainLayered3D.html#adf153d4382b02cff7ced37500e7f624f" target="_top" xlink:title="Self&#45;test: slicing of points with respect to interfaces (prints to console).">
<polygon fill="white" stroke="#666666" points="167.5,-498.12 36,-498.12 36,-464.62 167.5,-464.62 167.5,-498.12"/>
<text xml:space="preserve" text-anchor="start" x="44" y="-484.62" font-family="Helvetica,sans-Serif" font-size="10.00">DomainLayered3D::test</text>
<text xml:space="preserve" text-anchor="middle" x="101.75" y="-471.88" font-family="Helvetica,sans-Serif" font-size="10.00">_slice</text>
</a>
</g>
</g>
<!-- Node11&#45;&gt;Node16 -->
<g id="edge24_Node000011_Node000016" class="edge">
<title>Node11&#45;&gt;Node16</title>
<g id="a_edge24_Node000011_Node000016"><a xlink:title=" ">
<path fill="none" stroke="#63b8ff" d="M297.99,-366.39C279.04,-391.06 243.53,-432.51 203.5,-455.38 192.6,-461.6 180.19,-466.36 167.9,-470"/>
<polygon fill="#63b8ff" stroke="#63b8ff" points="300.74,-368.56 303.94,-358.45 295.14,-364.36 300.74,-368.56"/>
</a>
</g>
</g>
</g>
</svg>

<g id="navigator" transform="translate(0 0)" fill="#404254">
  <rect fill="#f2f5e9" fill-opacity="0.5" stroke="#606060" stroke-width=".5" x="0" y="0" width="60" height="60"/>
  <use id="zoomplus" xlink:href="#zoomPlus" x="17" y="9" onmousedown="handleZoom(evt,'in')"/>
  <use id="zoomminus" xlink:href="#zoomMin" x="42" y="9" onmousedown="handleZoom(evt,'out')"/>
  <use id="reset" xlink:href="#resetDef" x="30" y="36" onmousedown="handleReset()"/>
   <use id="arrowup" xlink:href="#arrowUp" x="0" y="0" onmousedown="handlePan(0,-1)"/>
  <use id="arrowright" xlink:href="#arrowRight" x="0" y="0" onmousedown="handlePan(1,0)"/>
  <use id="arrowdown" xlink:href="#arrowDown" x="0" y="0" onmousedown="handlePan(0,1)"/>
  <use id="arrowleft" xlink:href="#arrowLeft" x="0" y="0" onmousedown="handlePan(-1,0)"/>
</g>
<svg viewBox="0 0 15 15" width="100%" height="30px" preserveAspectRatio="xMaxYMin meet">
 <g id="arrow_out" transform="scale(0.3 0.3)">
  <a xlink:href="classDomainLayered3D_ae8e9daf2ca4d1ed649a1e0fe83880160_icgraph_org.svg" target="_base">
   <rect id="button" ry="5" rx="5" y="6" x="6" height="38" width="38"
        fill="#f2f5e9" fill-opacity="0.5" stroke="#606060" stroke-width="1.0"/>
   <path id="arrow"
     d="M 11.500037,31.436501 C 11.940474,20.09759 22.043105,11.32322 32.158766,21.979434 L 37.068811,17.246167 C 37.068811,17.246167 37.088388,32 37.088388,32 L 22.160133,31.978069 C 22.160133,31.978069 26.997745,27.140456 26.997745,27.140456 C 18.528582,18.264221 13.291696,25.230495 11.500037,31.436501 z"
     style="fill:#404040;"/>
  </a>
 </g>
</svg>

<style type='text/css'>
<![CDATA[
[data-mouse-over-selected='false'] { opacity: 0.7; }
[data-mouse-over-selected='true']  { opacity: 1.0; }
]]>
</style>
<script type="application/ecmascript"><![CDATA[
document.addEventListener('DOMContentLoaded', (event) => {
  highlightEdges();
  highlightAdjacentNodes();
});
]]></script>
</svg>
