<?xml version="1.0" encoding="UTF-8" standalone="no"?>
<!DOCTYPE svg PUBLIC "-//W3C//DTD SVG 1.1//EN"
 "http://www.w3.org/Graphics/SVG/1.1/DTD/svg11.dtd">
<!-- Generated by graphviz version 13.1.2 (20250809.0930)
 -->
<!-- Title: LayeredMediaUtils::matrixMultiply2D Pages: 1 -->
<svg width="422pt" height="94pt"
 viewBox="0.00 0.00 422.00 94.00" xmlns="http://www.w3.org/2000/svg" xmlns:xlink="http://www.w3.org/1999/xlink">
<g id="graph0" class="graph" transform="scale(1 1) rotate(0) translate(4 89.5)">
<title>LayeredMediaUtils::matrixMultiply2D</title>
<!-- Node1 -->
<g id="Node000001" class="node">
<title>Node1</title>
<g id="a_Node000001"><a xlink:title="Performs matrix multiplication for 2D complex matrices.">
<polygon fill="#999999" stroke="#666666" points="414,-59.5 300.5,-59.5 300.5,-26 414,-26 414,-59.5"/>
<text xml:space="preserve" text-anchor="start" x="308.5" y="-46" font-family="Helvetica,sans-Serif" font-size="10.00">LayeredMediaUtils::</text>
<text xml:space="preserve" text-anchor="middle" x="357.25" y="-33.25" font-family="Helvetica,sans-Serif" font-size="10.00">matrixMultiply2D</text>
</a>
</g>
</g>
<!-- Node2 -->
<g id="Node000002" class="node">
<title>Node2</title>
<g id="a_Node000002"><a xlink:href="classLayeredMediaUtils.html#a72265396a660e7e7d93c56a0b35d11d0" target="_top" xlink:title="Performs matrix multiplication for 2D/3D complex matrices.">
<polygon fill="white" stroke="#666666" points="264.5,-85.5 149.5,-85.5 149.5,-52 264.5,-52 264.5,-85.5"/>
<text xml:space="preserve" text-anchor="start" x="157.5" y="-72" font-family="Helvetica,sans-Serif" font-size="10.00">LayeredMediaUtils::</text>
<text xml:space="preserve" text-anchor="middle" x="207" y="-59.25" font-family="Helvetica,sans-Serif" font-size="10.00">matrixMultiplication</text>
</a>
</g>
</g>
<!-- Node1&#45;&gt;Node2 -->
<g id="edge1_Node000001_Node000002" class="edge">
<title>Node1&#45;&gt;Node2</title>
<g id="a_edge1_Node000001_Node000002"><a xlink:title=" ">
<path fill="none" stroke="#63b8ff" d="M289.14,-54.52C280.95,-55.96 272.64,-57.41 264.62,-58.82"/>
<polygon fill="#63b8ff" stroke="#63b8ff" points="289.47,-58.02 298.71,-52.84 288.26,-51.12 289.47,-58.02"/>
</a>
</g>
</g>
<!-- Node3 -->
<g id="Node000003" class="node">
<title>Node3</title>
<g id="a_Node000003"><a xlink:href="classLayeredMediaUtils.html#a796d55e02d56c610cae065557bc64c10" target="_top" xlink:title="Computes the total transfer matrix for the entire layered structure.">
<polygon fill="white" stroke="#666666" points="263.75,-33.5 150.25,-33.5 150.25,0 263.75,0 263.75,-33.5"/>
<text xml:space="preserve" text-anchor="start" x="158.25" y="-20" font-family="Helvetica,sans-Serif" font-size="10.00">LayeredMediaUtils::</text>
<text xml:space="preserve" text-anchor="middle" x="207" y="-7.25" font-family="Helvetica,sans-Serif" font-size="10.00">totalTransferMatrix</text>
</a>
</g>
</g>
<!-- Node1&#45;&gt;Node3 -->
<g id="edge2_Node000001_Node000003" class="edge">
<title>Node1&#45;&gt;Node3</title>
<g id="a_edge2_Node000001_Node000003"><a xlink:title=" ">
<path fill="none" stroke="#63b8ff" d="M288.98,-30.95C280.67,-29.5 272.25,-28.02 264.13,-26.59"/>
<polygon fill="#63b8ff" stroke="#63b8ff" points="288.26,-34.38 298.71,-32.66 289.47,-27.48 288.26,-34.38"/>
</a>
</g>
</g>
<!-- Node4 -->
<g id="Node000004" class="node">
<title>Node4</title>
<g id="a_Node000004"><a xlink:href="classLayeredMediaUtils.html#a55529dbdb069b59a6252ab2e446186a0" target="_top" xlink:title="Computes reflection and transmission coefficients for the entire layered structure.">
<polygon fill="white" stroke="#666666" points="113.5,-33.5 0,-33.5 0,0 113.5,0 113.5,-33.5"/>
<text xml:space="preserve" text-anchor="start" x="8" y="-20" font-family="Helvetica,sans-Serif" font-size="10.00">LayeredMediaUtils::</text>
<text xml:space="preserve" text-anchor="middle" x="56.75" y="-7.25" font-family="Helvetica,sans-Serif" font-size="10.00">totalFresnelCoeffs</text>
</a>
</g>
</g>
<!-- Node3&#45;&gt;Node4 -->
<g id="edge3_Node000003_Node000004" class="edge">
<title>Node3&#45;&gt;Node4</title>
<g id="a_edge3_Node000003_Node000004"><a xlink:title=" ">
<path fill="none" stroke="#63b8ff" d="M138.45,-16.75C130.23,-16.75 121.9,-16.75 113.88,-16.75"/>
<polygon fill="#63b8ff" stroke="#63b8ff" points="138.44,-20.25 148.44,-16.75 138.44,-13.25 138.44,-20.25"/>
</a>
</g>
</g>
<!-- Node4&#45;&gt;Node4 -->
<g id="edge4_Node000004_Node000004" class="edge">
<title>Node4&#45;&gt;Node4</title>
<g id="a_edge4_Node000004_Node000004"><a xlink:title=" ">
<path fill="none" stroke="#63b8ff" d="M81.63,-45.22C77.4,-48.99 69.11,-51.5 56.75,-51.5 34.15,-51.5 25.15,-43.12 29.74,-33.91"/>
<polygon fill="#63b8ff" stroke="#63b8ff" points="85.06,-45.88 83.48,-35.4 78.18,-44.58 85.06,-45.88"/>
</a>
</g>
</g>
</g>
</svg>
