<?xml version="1.0" encoding="UTF-8" standalone="no"?>
<!DOCTYPE svg PUBLIC "-//W3C//DTD SVG 1.1//EN"
 "http://www.w3.org/Graphics/SVG/1.1/DTD/svg11.dtd">
<!-- Generated by graphviz version 13.1.2 (20250809.0930)
 -->
<!-- Title: SimJob::LoadFromFile Pages: 1 -->
<svg width="504pt" height="458pt"
 viewBox="0.00 0.00 504.00 458.00" xmlns="http://www.w3.org/2000/svg" xmlns:xlink="http://www.w3.org/1999/xlink">
<g id="graph0" class="graph" transform="scale(1 1) rotate(0) translate(4 453.75)">
<title>SimJob::LoadFromFile</title>
<!-- Node1 -->
<g id="Node000001" class="node">
<title>Node1</title>
<g id="a_Node000001"><a xlink:title="Parse a full &#160;block from the already&#45;open JobParser.">
<polygon fill="#999999" stroke="#666666" points="121,-215.75 0,-215.75 0,-195 121,-195 121,-215.75"/>
<text xml:space="preserve" text-anchor="middle" x="60.5" y="-202.25" font-family="Helvetica,sans-Serif" font-size="10.00">SimJob::LoadFromFile</text>
</a>
</g>
</g>
<!-- Node2 -->
<g id="Node000002" class="node">
<title>Node2</title>
<g id="a_Node000002"><a xlink:href="classSimJob.html#ae16a5d8bdcf14121a812acd22b3c573a" target="_top" xlink:title="Parse and load dipole excitation from .">
<polygon fill="white" stroke="#666666" points="290.38,-410.75 179.88,-410.75 179.88,-390 290.38,-390 290.38,-410.75"/>
<text xml:space="preserve" text-anchor="middle" x="235.12" y="-397.25" font-family="Helvetica,sans-Serif" font-size="10.00">SimJob::LoadDipole</text>
</a>
</g>
</g>
<!-- Node1&#45;&gt;Node2 -->
<g id="edge1_Node000001_Node000002" class="edge">
<title>Node1&#45;&gt;Node2</title>
<g id="a_edge1_Node000001_Node000002"><a xlink:title=" ">
<path fill="none" stroke="#63b8ff" d="M64.09,-215.96C72.14,-246.55 99.69,-335.67 157,-380.38 160.74,-383.29 164.87,-385.79 169.2,-387.92"/>
<polygon fill="#63b8ff" stroke="#63b8ff" points="167.66,-391.07 178.23,-391.69 170.35,-384.61 167.66,-391.07"/>
</a>
</g>
</g>
<!-- Node6 -->
<g id="Node000006" class="node">
<title>Node6</title>
<g id="a_Node000006"><a xlink:href="classSimJob.html#a9a630e54dbd3c59d8d0c5872fe082478" target="_top" xlink:title="Parse and load homogeneous domain definition from .">
<polygon fill="white" stroke="#666666" points="293.75,-371.75 176.5,-371.75 176.5,-351 293.75,-351 293.75,-371.75"/>
<text xml:space="preserve" text-anchor="middle" x="235.12" y="-358.25" font-family="Helvetica,sans-Serif" font-size="10.00">SimJob::LoadDomain</text>
</a>
</g>
</g>
<!-- Node1&#45;&gt;Node6 -->
<g id="edge5_Node000001_Node000006" class="edge">
<title>Node1&#45;&gt;Node6</title>
<g id="a_edge5_Node000001_Node000006"><a xlink:title=" ">
<path fill="none" stroke="#63b8ff" d="M65.9,-216.16C77.02,-242.04 108.87,-308.01 157,-341.38 159.72,-343.26 162.6,-344.97 165.59,-346.51"/>
<polygon fill="#63b8ff" stroke="#63b8ff" points="164.17,-349.71 174.73,-350.56 167.01,-343.31 164.17,-349.71"/>
</a>
</g>
</g>
<!-- Node7 -->
<g id="Node000007" class="node">
<title>Node7</title>
<g id="a_Node000007"><a xlink:href="classSimJob.html#a4aed0b2fa9b728b0fcb8834d6cd9c3fd" target="_top" xlink:title="Parse and load layered&#45;media domain from .">
<polygon fill="white" stroke="#666666" points="313.25,-332.75 157,-332.75 157,-312 313.25,-312 313.25,-332.75"/>
<text xml:space="preserve" text-anchor="middle" x="235.12" y="-319.25" font-family="Helvetica,sans-Serif" font-size="10.00">SimJob::LoadDomainLayered</text>
</a>
</g>
</g>
<!-- Node1&#45;&gt;Node7 -->
<g id="edge6_Node000001_Node000007" class="edge">
<title>Node1&#45;&gt;Node7</title>
<g id="a_edge6_Node000001_Node000007"><a xlink:title=" ">
<path fill="none" stroke="#63b8ff" d="M68.83,-215.96C83.28,-236.02 117.5,-279.58 157,-302.38 160.17,-304.21 163.52,-305.87 166.96,-307.39"/>
<polygon fill="#63b8ff" stroke="#63b8ff" points="165.53,-310.59 176.12,-310.96 168.07,-304.07 165.53,-310.59"/>
</a>
</g>
</g>
<!-- Node8 -->
<g id="Node000008" class="node">
<title>Node8</title>
<g id="a_Node000008"><a xlink:href="classSimJob.html#a9d261a88162a72dc73b70f0f71d69164" target="_top" xlink:title="Parse and load periodic domain definition from .">
<polygon fill="white" stroke="#666666" points="301.62,-293.75 168.62,-293.75 168.62,-273 301.62,-273 301.62,-293.75"/>
<text xml:space="preserve" text-anchor="middle" x="235.12" y="-280.25" font-family="Helvetica,sans-Serif" font-size="10.00">SimJob::LoadDomainPer</text>
</a>
</g>
</g>
<!-- Node1&#45;&gt;Node8 -->
<g id="edge7_Node000001_Node000008" class="edge">
<title>Node1&#45;&gt;Node8</title>
<g id="a_edge7_Node000001_Node000008"><a xlink:title=" ">
<path fill="none" stroke="#63b8ff" d="M75.99,-216.04C94.1,-228.92 126.44,-250.47 157,-263.38 162.12,-265.54 167.54,-267.52 173.04,-269.32"/>
<polygon fill="#63b8ff" stroke="#63b8ff" points="171.6,-272.54 182.19,-272.11 173.64,-265.84 171.6,-272.54"/>
</a>
</g>
</g>
<!-- Node10 -->
<g id="Node000010" class="node">
<title>Node10</title>
<g id="a_Node000010"><a xlink:href="classSimJob.html#a762457879a5f323daff8a2802ee937bd" target="_top" xlink:title="Parse and load Gaussian&#45;beam excitation from .">
<polygon fill="white" stroke="#666666" points="297.12,-254.75 173.12,-254.75 173.12,-234 297.12,-234 297.12,-254.75"/>
<text xml:space="preserve" text-anchor="middle" x="235.12" y="-241.25" font-family="Helvetica,sans-Serif" font-size="10.00">SimJob::LoadGaussian</text>
</a>
</g>
</g>
<!-- Node1&#45;&gt;Node10 -->
<g id="edge9_Node000001_Node000010" class="edge">
<title>Node1&#45;&gt;Node10</title>
<g id="a_edge9_Node000001_Node000010"><a xlink:title=" ">
<path fill="none" stroke="#63b8ff" d="M109.59,-216.24C129.8,-220.8 153.51,-226.16 174.79,-230.97"/>
<polygon fill="#63b8ff" stroke="#63b8ff" points="174,-234.38 184.52,-233.17 175.54,-227.55 174,-234.38"/>
</a>
</g>
</g>
<!-- Node12 -->
<g id="Node000012" class="node">
<title>Node12</title>
<g id="a_Node000012"><a xlink:href="classSimJob.html#a6d48eb7a13a50bdc8f9dc965165ed873" target="_top" xlink:title="Parse and load simulation label from &#160;section.">
<polygon fill="white" stroke="#666666" points="287.75,-215.75 182.5,-215.75 182.5,-195 287.75,-195 287.75,-215.75"/>
<text xml:space="preserve" text-anchor="middle" x="235.12" y="-202.25" font-family="Helvetica,sans-Serif" font-size="10.00">SimJob::LoadLabel</text>
</a>
</g>
</g>
<!-- Node1&#45;&gt;Node12 -->
<g id="edge12_Node000001_Node000012" class="edge">
<title>Node1&#45;&gt;Node12</title>
<g id="a_edge12_Node000001_Node000012"><a xlink:title=" ">
<path fill="none" stroke="#63b8ff" d="M121.39,-205.38C137.3,-205.38 154.53,-205.38 170.62,-205.38"/>
<polygon fill="#63b8ff" stroke="#63b8ff" points="170.59,-208.88 180.59,-205.38 170.59,-201.88 170.59,-208.88"/>
</a>
</g>
</g>
<!-- Node13 -->
<g id="Node000013" class="node">
<title>Node13</title>
<g id="a_Node000013"><a xlink:href="classSimJob.html#a7bb5eda7b7e62f899d8bf72ba8f33742" target="_top" xlink:title="Parse and load mesh data from &#160;(non&#45;periodic case).">
<polygon fill="white" stroke="#666666" points="287.75,-176.75 182.5,-176.75 182.5,-156 287.75,-156 287.75,-176.75"/>
<text xml:space="preserve" text-anchor="middle" x="235.12" y="-163.25" font-family="Helvetica,sans-Serif" font-size="10.00">SimJob::LoadMesh</text>
</a>
</g>
</g>
<!-- Node1&#45;&gt;Node13 -->
<g id="edge13_Node000001_Node000013" class="edge">
<title>Node1&#45;&gt;Node13</title>
<g id="a_edge13_Node000001_Node000013"><a xlink:title=" ">
<path fill="none" stroke="#63b8ff" d="M109.59,-194.51C129.8,-189.95 153.51,-184.59 174.79,-179.78"/>
<polygon fill="#63b8ff" stroke="#63b8ff" points="175.54,-183.2 184.52,-177.58 174,-176.37 175.54,-183.2"/>
</a>
</g>
</g>
<!-- Node14 -->
<g id="Node000014" class="node">
<title>Node14</title>
<g id="a_Node000014"><a xlink:href="classSimJob.html#ac940b4b962fac361f3746deef6eb2e19" target="_top" xlink:title="Parse and load periodic mesh from &#160;(applies symmetry operations).">
<polygon fill="white" stroke="#666666" points="295.62,-137.75 174.62,-137.75 174.62,-117 295.62,-117 295.62,-137.75"/>
<text xml:space="preserve" text-anchor="middle" x="235.12" y="-124.25" font-family="Helvetica,sans-Serif" font-size="10.00">SimJob::LoadMeshPer</text>
</a>
</g>
</g>
<!-- Node1&#45;&gt;Node14 -->
<g id="edge14_Node000001_Node000014" class="edge">
<title>Node1&#45;&gt;Node14</title>
<g id="a_edge14_Node000001_Node000014"><a xlink:title=" ">
<path fill="none" stroke="#63b8ff" d="M75.99,-194.71C94.1,-181.83 126.44,-160.28 157,-147.38 162.12,-145.21 167.54,-143.23 173.04,-141.43"/>
<polygon fill="#63b8ff" stroke="#63b8ff" points="173.64,-144.91 182.19,-138.64 171.6,-138.21 173.64,-144.91"/>
</a>
</g>
</g>
<!-- Node15 -->
<g id="Node000015" class="node">
<title>Node15</title>
<g id="a_Node000015"><a xlink:href="classSimJob.html#a99c23586a8ba7184a750c694da6d9628" target="_top" xlink:title="Parse and load periodicity parameters from .">
<polygon fill="white" stroke="#666666" points="300.5,-98.75 169.75,-98.75 169.75,-78 300.5,-78 300.5,-98.75"/>
<text xml:space="preserve" text-anchor="middle" x="235.12" y="-85.25" font-family="Helvetica,sans-Serif" font-size="10.00">SimJob::LoadPeriodicity</text>
</a>
</g>
</g>
<!-- Node1&#45;&gt;Node15 -->
<g id="edge15_Node000001_Node000015" class="edge">
<title>Node1&#45;&gt;Node15</title>
<g id="a_edge15_Node000001_Node000015"><a xlink:title=" ">
<path fill="none" stroke="#63b8ff" d="M68.83,-194.79C83.28,-174.73 117.5,-131.17 157,-108.38 160.17,-106.54 163.52,-104.88 166.96,-103.36"/>
<polygon fill="#63b8ff" stroke="#63b8ff" points="168.07,-106.68 176.12,-99.79 165.53,-100.16 168.07,-106.68"/>
</a>
</g>
</g>
<!-- Node16 -->
<g id="Node000016" class="node">
<title>Node16</title>
<g id="a_Node000016"><a xlink:href="classSimJob.html#a9b33589923ea7f4e5b671e55ecf2b320" target="_top" xlink:title="Parse and load plane&#45;wave excitation from .">
<polygon fill="white" stroke="#666666" points="301.25,-59.75 169,-59.75 169,-39 301.25,-39 301.25,-59.75"/>
<text xml:space="preserve" text-anchor="middle" x="235.12" y="-46.25" font-family="Helvetica,sans-Serif" font-size="10.00">SimJob::LoadPlanewave</text>
</a>
</g>
</g>
<!-- Node1&#45;&gt;Node16 -->
<g id="edge16_Node000001_Node000016" class="edge">
<title>Node1&#45;&gt;Node16</title>
<g id="a_edge16_Node000001_Node000016"><a xlink:title=" ">
<path fill="none" stroke="#63b8ff" d="M65.9,-194.59C77.02,-168.71 108.87,-102.74 157,-69.38 159.34,-67.75 161.8,-66.27 164.34,-64.9"/>
<polygon fill="#63b8ff" stroke="#63b8ff" points="165.54,-68.2 173.15,-60.83 162.61,-61.84 165.54,-68.2"/>
</a>
</g>
</g>
<!-- Node17 -->
<g id="Node000017" class="node">
<title>Node17</title>
<g id="a_Node000017"><a xlink:href="classSimJob.html#a21c36c1d2aa7937ca484527515e35263" target="_top" xlink:title="Parse and load wavelength from .">
<polygon fill="white" stroke="#666666" points="303.5,-20.75 166.75,-20.75 166.75,0 303.5,0 303.5,-20.75"/>
<text xml:space="preserve" text-anchor="middle" x="235.12" y="-7.25" font-family="Helvetica,sans-Serif" font-size="10.00">SimJob::LoadWavelength</text>
</a>
</g>
</g>
<!-- Node1&#45;&gt;Node17 -->
<g id="edge17_Node000001_Node000017" class="edge">
<title>Node1&#45;&gt;Node17</title>
<g id="a_edge17_Node000001_Node000017"><a xlink:title=" ">
<path fill="none" stroke="#63b8ff" d="M64.09,-194.79C72.14,-164.2 99.69,-75.08 157,-30.38 158.95,-28.85 161,-27.45 163.14,-26.15"/>
<polygon fill="#63b8ff" stroke="#63b8ff" points="164.29,-29.49 171.58,-21.8 161.09,-23.27 164.29,-29.49"/>
</a>
</g>
</g>
<!-- Node3 -->
<g id="Node000003" class="node">
<title>Node3</title>
<g id="a_Node000003"><a xlink:href="classDomain.html#a6a3c61914bab1ebbc02613a6ec8db802" target="_top" xlink:title="Add a Dipole excitation (ownership transferred to Domain).">
<polygon fill="white" stroke="#666666" points="477.75,-449.75 367.25,-449.75 367.25,-429 477.75,-429 477.75,-449.75"/>
<text xml:space="preserve" text-anchor="middle" x="422.5" y="-436.25" font-family="Helvetica,sans-Serif" font-size="10.00">Domain::AddDipole</text>
</a>
</g>
</g>
<!-- Node2&#45;&gt;Node3 -->
<g id="edge2_Node000002_Node000003" class="edge">
<title>Node2&#45;&gt;Node3</title>
<g id="a_edge2_Node000002_Node000003"><a xlink:title=" ">
<path fill="none" stroke="#63b8ff" d="M287.76,-411.24C309.77,-415.87 335.64,-421.31 358.73,-426.17"/>
<polygon fill="#63b8ff" stroke="#63b8ff" points="357.83,-429.56 368.34,-428.19 359.27,-422.71 357.83,-429.56"/>
</a>
</g>
</g>
<!-- Node4 -->
<g id="Node000004" class="node">
<title>Node4</title>
<g id="a_Node000004"><a xlink:href="classSimJob.html#ab3887eb9e217b1d6424ff85aec4b1793" target="_top" xlink:title="Find which domain contains a point.">
<polygon fill="white" stroke="#666666" points="495.75,-410.75 349.25,-410.75 349.25,-390 495.75,-390 495.75,-410.75"/>
<text xml:space="preserve" text-anchor="middle" x="422.5" y="-397.25" font-family="Helvetica,sans-Serif" font-size="10.00">SimJob::ContainingDomain</text>
</a>
</g>
</g>
<!-- Node2&#45;&gt;Node4 -->
<g id="edge3_Node000002_Node000004" class="edge">
<title>Node2&#45;&gt;Node4</title>
<g id="a_edge3_Node000002_Node000004"><a xlink:title=" ">
<path fill="none" stroke="#63b8ff" d="M290.74,-400.38C305.44,-400.38 321.68,-400.38 337.57,-400.38"/>
<polygon fill="#63b8ff" stroke="#63b8ff" points="337.54,-403.88 347.54,-400.38 337.54,-396.88 337.54,-403.88"/>
</a>
</g>
</g>
<!-- Node5 -->
<g id="Node000005" class="node">
<title>Node5</title>
<g id="a_Node000005"><a xlink:href="classDomain.html#a4ca094ed1d16b191f026d0c23e1fc75a" target="_top" xlink:title="Return this domain&#39;s integer index.">
<polygon fill="white" stroke="#666666" points="466.12,-371.75 378.88,-371.75 378.88,-351 466.12,-351 466.12,-371.75"/>
<text xml:space="preserve" text-anchor="middle" x="422.5" y="-358.25" font-family="Helvetica,sans-Serif" font-size="10.00">Domain::Index</text>
</a>
</g>
</g>
<!-- Node2&#45;&gt;Node5 -->
<g id="edge4_Node000002_Node000005" class="edge">
<title>Node2&#45;&gt;Node5</title>
<g id="a_edge4_Node000002_Node000005"><a xlink:title=" ">
<path fill="none" stroke="#63b8ff" d="M287.76,-389.51C312.57,-384.29 342.29,-378.04 367.41,-372.76"/>
<polygon fill="#63b8ff" stroke="#63b8ff" points="368.04,-376.2 377.11,-370.71 366.6,-369.35 368.04,-376.2"/>
</a>
</g>
</g>
<!-- Node9 -->
<g id="Node000009" class="node">
<title>Node9</title>
<g id="a_Node000009"><a xlink:href="classDomain.html#a2b8fcaa668f1959aa9864f7a016d3ee1" target="_top" xlink:title="Provide an erfc lookup table to the Green&#39;s function implementation.">
<polygon fill="white" stroke="#666666" points="490.5,-302.75 354.5,-302.75 354.5,-282 490.5,-282 490.5,-302.75"/>
<text xml:space="preserve" text-anchor="middle" x="422.5" y="-289.25" font-family="Helvetica,sans-Serif" font-size="10.00">Domain::InitLookupTable</text>
</a>
</g>
</g>
<!-- Node8&#45;&gt;Node9 -->
<g id="edge8_Node000008_Node000009" class="edge">
<title>Node8&#45;&gt;Node9</title>
<g id="a_edge8_Node000008_Node000009"><a xlink:title=" ">
<path fill="none" stroke="#63b8ff" d="M302,-286.57C315.26,-287.22 329.31,-287.9 342.94,-288.56"/>
<polygon fill="#63b8ff" stroke="#63b8ff" points="342.6,-292.05 352.76,-289.04 342.94,-285.06 342.6,-292.05"/>
</a>
</g>
</g>
<!-- Node11 -->
<g id="Node000011" class="node">
<title>Node11</title>
<g id="a_Node000011"><a xlink:href="Domain_8cpp.html#aafa3e4fa6318b2f8740f4dbd50c367e5" target="_top" xlink:title="Extract the real part of each component of a complex 3&#45;vector.">
<polygon fill="white" stroke="#666666" points="439.88,-245.75 405.12,-245.75 405.12,-225 439.88,-225 439.88,-245.75"/>
<text xml:space="preserve" text-anchor="middle" x="422.5" y="-232.25" font-family="Helvetica,sans-Serif" font-size="10.00">real</text>
</a>
</g>
</g>
<!-- Node10&#45;&gt;Node11 -->
<g id="edge10_Node000010_Node000011" class="edge">
<title>Node10&#45;&gt;Node11</title>
<g id="a_edge10_Node000010_Node000011"><a xlink:title=" ">
<path fill="none" stroke="#63b8ff" d="M297.59,-241.39C330.02,-239.82 368.22,-237.96 393.54,-236.73"/>
<polygon fill="#63b8ff" stroke="#63b8ff" points="393.52,-240.24 403.34,-236.26 393.19,-233.25 393.52,-240.24"/>
</a>
</g>
</g>
<!-- Node11&#45;&gt;Node11 -->
<g id="edge11_Node000011_Node000011" class="edge">
<title>Node11&#45;&gt;Node11</title>
<g id="a_edge11_Node000011_Node000011"><a xlink:title=" ">
<path fill="none" stroke="#63b8ff" d="M404.74,-240.12C376.69,-250.03 382.61,-263.75 422.5,-263.75 456.47,-263.75 465.81,-253.8 450.51,-244.73"/>
<polygon fill="#63b8ff" stroke="#63b8ff" points="452.2,-241.65 441.64,-240.74 449.33,-248.03 452.2,-241.65"/>
</a>
</g>
</g>
</g>
</svg>
