<?xml version="1.0" encoding="UTF-8" standalone="no"?>
<!DOCTYPE svg PUBLIC "-//W3C//DTD SVG 1.1//EN"
 "http://www.w3.org/Graphics/SVG/1.1/DTD/svg11.dtd">
<!-- Generated by graphviz version 13.1.2 (20250809.0930)
 -->
<!-- Title: Triangle::CalculateGeometryData Pages: 1 -->
<svg width="779pt" height="226pt"
 viewBox="0.00 0.00 779.00 226.00" xmlns="http://www.w3.org/2000/svg" xmlns:xlink="http://www.w3.org/1999/xlink">
<g id="graph0" class="graph" transform="scale(1 1) rotate(0) translate(4 222.12)">
<title>Triangle::CalculateGeometryData</title>
<!-- Node1 -->
<g id="Node000001" class="node">
<title>Node1</title>
<g id="a_Node000001"><a xlink:title="Compute/cached geometry (normal, area, perimeter, center, I1/I2s/I2d).">
<polygon fill="#999999" stroke="#666666" points="770.5,-159.12 592.5,-159.12 592.5,-138.38 770.5,-138.38 770.5,-159.12"/>
<text xml:space="preserve" text-anchor="middle" x="681.5" y="-145.62" font-family="Helvetica,sans-Serif" font-size="10.00">Triangle::CalculateGeometryData</text>
</a>
</g>
</g>
<!-- Node2 -->
<g id="Node000002" class="node">
<title>Node2</title>
<g id="a_Node000002"><a xlink:href="classTriangle.html#a6d275a4d9441732ebcd00c514ff4bb2f" target="_top" xlink:title="Replace the three node pointers and recompute cached geometry.">
<polygon fill="white" stroke="#666666" points="542.25,-218.12 419,-218.12 419,-197.38 542.25,-197.38 542.25,-218.12"/>
<text xml:space="preserve" text-anchor="middle" x="480.62" y="-204.62" font-family="Helvetica,sans-Serif" font-size="10.00">Triangle::AssignNodes</text>
</a>
</g>
</g>
<!-- Node1&#45;&gt;Node2 -->
<g id="edge1_Node000001_Node000002" class="edge">
<title>Node1&#45;&gt;Node2</title>
<g id="a_edge1_Node000001_Node000002"><a xlink:title=" ">
<path fill="none" stroke="#63b8ff" d="M636.71,-163.04C613.04,-170.63 583.25,-179.97 556.5,-187.75 545.78,-190.87 534.14,-194.07 523.3,-196.96"/>
<polygon fill="#63b8ff" stroke="#63b8ff" points="637.58,-166.43 646.02,-160.04 635.43,-159.77 637.58,-166.43"/>
</a>
</g>
</g>
<!-- Node3 -->
<g id="Node000003" class="node">
<title>Node3</title>
<g id="a_Node000003"><a xlink:href="classTriangle.html#aa59e8d6a6ca3db504228bff7913812bb" target="_top" xlink:title="Set front/back domain indices; recomputes cached geometry.">
<polygon fill="white" stroke="#666666" points="556.5,-179.12 404.75,-179.12 404.75,-158.38 556.5,-158.38 556.5,-179.12"/>
<text xml:space="preserve" text-anchor="middle" x="480.62" y="-165.62" font-family="Helvetica,sans-Serif" font-size="10.00">Triangle::SetDomainIndeces</text>
</a>
</g>
</g>
<!-- Node1&#45;&gt;Node3 -->
<g id="edge2_Node000001_Node000003" class="edge">
<title>Node1&#45;&gt;Node3</title>
<g id="a_edge2_Node000001_Node000003"><a xlink:title=" ">
<path fill="none" stroke="#63b8ff" d="M580.81,-158.78C572.79,-159.58 564.78,-160.39 556.98,-161.17"/>
<polygon fill="#63b8ff" stroke="#63b8ff" points="581.01,-162.27 590.61,-157.79 580.31,-155.31 581.01,-162.27"/>
</a>
</g>
</g>
<!-- Node4 -->
<g id="Node000004" class="node">
<title>Node4</title>
<g id="a_Node000004"><a xlink:href="classTriangle.html#afaab90bcc5fa1fcf60db1e924b8cc856" target="_top" xlink:title="Construct from 3 node pointers; domains can be set later.">
<polygon fill="white" stroke="#666666" points="529.88,-140.12 431.38,-140.12 431.38,-119.38 529.88,-119.38 529.88,-140.12"/>
<text xml:space="preserve" text-anchor="middle" x="480.62" y="-126.62" font-family="Helvetica,sans-Serif" font-size="10.00">Triangle::Triangle</text>
</a>
</g>
</g>
<!-- Node1&#45;&gt;Node4 -->
<g id="edge3_Node000001_Node000004" class="edge">
<title>Node1&#45;&gt;Node4</title>
<g id="a_edge3_Node000001_Node000004"><a xlink:title=" ">
<path fill="none" stroke="#63b8ff" d="M580.86,-139.23C563.23,-137.55 545.61,-135.86 530.22,-134.39"/>
<polygon fill="#63b8ff" stroke="#63b8ff" points="580.32,-142.69 590.61,-140.16 580.98,-135.73 580.32,-142.69"/>
</a>
</g>
</g>
<!-- Node5 -->
<g id="Node000005" class="node">
<title>Node5</title>
<g id="a_Node000005"><a xlink:href="classTriangle.html#a2eae6a9b0378e4b5ba4616a6b6af86fe" target="_top" xlink:title="Construct from 3 node pointers and bordering domains.">
<polygon fill="white" stroke="#666666" points="529.88,-101.12 431.38,-101.12 431.38,-80.38 529.88,-80.38 529.88,-101.12"/>
<text xml:space="preserve" text-anchor="middle" x="480.62" y="-87.62" font-family="Helvetica,sans-Serif" font-size="10.00">Triangle::Triangle</text>
</a>
</g>
</g>
<!-- Node1&#45;&gt;Node5 -->
<g id="edge4_Node000001_Node000005" class="edge">
<title>Node1&#45;&gt;Node5</title>
<g id="a_edge4_Node000001_Node000005"><a xlink:title=" ">
<path fill="none" stroke="#63b8ff" d="M635.69,-134.59C612.17,-127.26 582.85,-118.3 556.5,-110.75 545.76,-107.67 534.12,-104.49 523.28,-101.59"/>
<polygon fill="#63b8ff" stroke="#63b8ff" points="634.35,-137.84 644.94,-137.48 636.44,-131.16 634.35,-137.84"/>
</a>
</g>
</g>
<!-- Node6 -->
<g id="Node000006" class="node">
<title>Node6</title>
<g id="a_Node000006"><a xlink:href="classTriangle.html#a6a5a3532e273e1fbb69b26eea2f509c0" target="_top" xlink:title="Count common nodes with triangle T (0..3).">
<polygon fill="white" stroke="#666666" points="356,-163.12 225.25,-163.12 225.25,-142.38 356,-142.38 356,-163.12"/>
<text xml:space="preserve" text-anchor="middle" x="290.62" y="-149.62" font-family="Helvetica,sans-Serif" font-size="10.00">Triangle::FindAdjacency</text>
</a>
</g>
</g>
<!-- Node5&#45;&gt;Node6 -->
<g id="edge5_Node000005_Node000006" class="edge">
<title>Node5&#45;&gt;Node6</title>
<g id="a_edge5_Node000005_Node000006"><a xlink:title=" ">
<path fill="none" stroke="#63b8ff" d="M420.14,-104.94C414.87,-106.71 409.67,-108.64 404.75,-110.75 387.51,-118.13 386.01,-125.43 368.75,-132.75 360.35,-136.31 351.15,-139.37 342.13,-141.94"/>
<polygon fill="#63b8ff" stroke="#63b8ff" points="421.05,-108.32 429.56,-102 418.97,-101.64 421.05,-108.32"/>
</a>
</g>
</g>
<!-- Node10 -->
<g id="Node000010" class="node">
<title>Node10</title>
<g id="a_Node000010"><a xlink:href="classTriangle.html#a110eb211c31cc4fa6a936d8d4c201306" target="_top" xlink:title="Count common nodes with T after translating T by vector t.">
<polygon fill="white" stroke="#666666" points="356,-124.12 225.25,-124.12 225.25,-103.38 356,-103.38 356,-124.12"/>
<text xml:space="preserve" text-anchor="middle" x="290.62" y="-110.62" font-family="Helvetica,sans-Serif" font-size="10.00">Triangle::FindAdjacency</text>
</a>
</g>
</g>
<!-- Node5&#45;&gt;Node10 -->
<g id="edge9_Node000005_Node000010" class="edge">
<title>Node5&#45;&gt;Node10</title>
<g id="a_edge9_Node000005_Node000010"><a xlink:title=" ">
<path fill="none" stroke="#63b8ff" d="M419.9,-98.06C399.6,-100.54 376.84,-103.33 356.18,-105.85"/>
<polygon fill="#63b8ff" stroke="#63b8ff" points="420.21,-101.55 429.71,-96.86 419.36,-94.6 420.21,-101.55"/>
</a>
</g>
</g>
<!-- Node11 -->
<g id="Node000011" class="node">
<title>Node11</title>
<g id="a_Node000011"><a xlink:href="classTriangle.html#aab413203fc04781220ce7cf8224105bd" target="_top" xlink:title="Find common edge local indices with T.">
<polygon fill="white" stroke="#666666" points="365,-85.5 216.25,-85.5 216.25,-52 365,-52 365,-85.5"/>
<text xml:space="preserve" text-anchor="start" x="224.25" y="-72" font-family="Helvetica,sans-Serif" font-size="10.00">Triangle::FindCommonEdge</text>
<text xml:space="preserve" text-anchor="middle" x="290.62" y="-59.25" font-family="Helvetica,sans-Serif" font-size="10.00">Indices</text>
</a>
</g>
</g>
<!-- Node5&#45;&gt;Node11 -->
<g id="edge10_Node000005_Node000011" class="edge">
<title>Node5&#45;&gt;Node11</title>
<g id="a_edge10_Node000005_Node000011"><a xlink:title=" ">
<path fill="none" stroke="#63b8ff" d="M420.1,-83.78C402.74,-81.75 383.56,-79.51 365.44,-77.39"/>
<polygon fill="#63b8ff" stroke="#63b8ff" points="419.37,-87.22 429.71,-84.91 420.18,-80.27 419.37,-87.22"/>
</a>
</g>
</g>
<!-- Node12 -->
<g id="Node000012" class="node">
<title>Node12</title>
<g id="a_Node000012"><a xlink:href="classTriangle.html#aa137190a0a6fd9adadee37a8228313d6" target="_top" xlink:title="Find common vertex local indices with T.">
<polygon fill="white" stroke="#666666" points="368.75,-33.5 212.5,-33.5 212.5,0 368.75,0 368.75,-33.5"/>
<text xml:space="preserve" text-anchor="start" x="220.5" y="-20" font-family="Helvetica,sans-Serif" font-size="10.00">Triangle::FindCommonVertex</text>
<text xml:space="preserve" text-anchor="middle" x="290.62" y="-7.25" font-family="Helvetica,sans-Serif" font-size="10.00">Indices</text>
</a>
</g>
</g>
<!-- Node5&#45;&gt;Node12 -->
<g id="edge11_Node000005_Node000012" class="edge">
<title>Node5&#45;&gt;Node12</title>
<g id="a_edge11_Node000005_Node000012"><a xlink:title=" ">
<path fill="none" stroke="#63b8ff" d="M446.11,-75.37C424.27,-65.57 395.05,-52.85 368.75,-42.75 360.97,-39.76 352.68,-36.77 344.52,-33.93"/>
<polygon fill="#63b8ff" stroke="#63b8ff" points="444.56,-78.51 455.12,-79.44 447.45,-72.14 444.56,-78.51"/>
</a>
</g>
</g>
<!-- Node7 -->
<g id="Node000007" class="node">
<title>Node7</title>
<g id="a_Node000007"><a xlink:href="classGreenFHom3D.html#a419cbe00b5a2aed70ac546904a8a8d6f" target="_top" xlink:title="Compute &#160;and &#160;for all RWG pairs on two triangles.">
<polygon fill="white" stroke="#666666" points="161.88,-202.12 14.62,-202.12 14.62,-181.38 161.88,-181.38 161.88,-202.12"/>
<text xml:space="preserve" text-anchor="middle" x="88.25" y="-188.62" font-family="Helvetica,sans-Serif" font-size="10.00">GreenFHom3D::SameTriDK</text>
</a>
</g>
</g>
<!-- Node6&#45;&gt;Node7 -->
<g id="edge6_Node000006_Node000007" class="edge">
<title>Node6&#45;&gt;Node7</title>
<g id="a_edge6_Node000006_Node000007"><a xlink:title=" ">
<path fill="none" stroke="#63b8ff" d="M222.51,-165.81C197.38,-170.7 169.12,-176.2 145.11,-180.88"/>
<polygon fill="#63b8ff" stroke="#63b8ff" points="223.18,-169.25 232.32,-163.9 221.84,-162.38 223.18,-169.25"/>
</a>
</g>
</g>
<!-- Node8 -->
<g id="Node000008" class="node">
<title>Node8</title>
<g id="a_Node000008"><a xlink:href="classGreenFHom3DPer2D.html#a1dc9dd84c93ee10b2fb4b1866103d957" target="_top" xlink:title="Compute &#160;and &#160;for all RWG pairs on two triangles.">
<polygon fill="white" stroke="#666666" points="176.5,-163.12 0,-163.12 0,-142.38 176.5,-142.38 176.5,-163.12"/>
<text xml:space="preserve" text-anchor="middle" x="88.25" y="-149.62" font-family="Helvetica,sans-Serif" font-size="10.00">GreenFHom3DPer2D::SameTriDK</text>
</a>
</g>
</g>
<!-- Node6&#45;&gt;Node8 -->
<g id="edge7_Node000006_Node000008" class="edge">
<title>Node6&#45;&gt;Node8</title>
<g id="a_edge7_Node000006_Node000008"><a xlink:title=" ">
<path fill="none" stroke="#63b8ff" d="M213.51,-152.75C201.51,-152.75 189.02,-152.75 176.79,-152.75"/>
<polygon fill="#63b8ff" stroke="#63b8ff" points="213.33,-156.25 223.33,-152.75 213.33,-149.25 213.33,-156.25"/>
</a>
</g>
</g>
<!-- Node9 -->
<g id="Node000009" class="node">
<title>Node9</title>
<g id="a_Node000009"><a xlink:href="classGreenFLayered3D.html#a6c88af86169f8d148c3e9f4da77a77d0" target="_top" xlink:title="Triangle–triangle D/K blocks assembly for all RWG pairs on two triangles.">
<polygon fill="white" stroke="#666666" points="169.75,-124.12 6.75,-124.12 6.75,-103.38 169.75,-103.38 169.75,-124.12"/>
<text xml:space="preserve" text-anchor="middle" x="88.25" y="-110.62" font-family="Helvetica,sans-Serif" font-size="10.00">GreenFLayered3D::SameTriDK</text>
</a>
</g>
</g>
<!-- Node6&#45;&gt;Node9 -->
<g id="edge8_Node000006_Node000009" class="edge">
<title>Node6&#45;&gt;Node9</title>
<g id="a_edge8_Node000006_Node000009"><a xlink:title=" ">
<path fill="none" stroke="#63b8ff" d="M222.51,-139.69C197.38,-134.8 169.12,-129.3 145.11,-124.62"/>
<polygon fill="#63b8ff" stroke="#63b8ff" points="221.84,-143.12 232.32,-141.6 223.18,-136.25 221.84,-143.12"/>
</a>
</g>
</g>
</g>
</svg>
