<?xml version="1.0" encoding="UTF-8" standalone="no"?>
<!DOCTYPE svg PUBLIC "-//W3C//DTD SVG 1.1//EN"
 "http://www.w3.org/Graphics/SVG/1.1/DTD/svg11.dtd">
<!-- Generated by graphviz version 13.1.2 (20250809.0930)
 -->
<!-- Title: GreenFHom3DPer2D::EwaldSpectral Pages: 1 -->
<svg width="647pt" height="171pt"
 viewBox="0.00 0.00 647.00 171.00" xmlns="http://www.w3.org/2000/svg" xmlns:xlink="http://www.w3.org/1999/xlink">
<g id="graph0" class="graph" transform="scale(1 1) rotate(0) translate(4 166.5)">
<title>GreenFHom3DPer2D::EwaldSpectral</title>
<!-- Node1 -->
<g id="Node000001" class="node">
<title>Node1</title>
<g id="a_Node000001"><a xlink:title="Spectral (reciprocal&#45;lattice) part of Ewald sum for .">
<polygon fill="#999999" stroke="#666666" points="639,-91.12 446.75,-91.12 446.75,-70.38 639,-70.38 639,-91.12"/>
<text xml:space="preserve" text-anchor="middle" x="542.88" y="-77.62" font-family="Helvetica,sans-Serif" font-size="10.00">GreenFHom3DPer2D::EwaldSpectral</text>
</a>
</g>
</g>
<!-- Node2 -->
<g id="Node000002" class="node">
<title>Node2</title>
<g id="a_Node000002"><a xlink:href="classGreenFHom3DPer2D.html#a268d4706bd313c8eadb38e26b15184f0" target="_top" xlink:title="Scalar &#160;for a specific lattice translation.">
<polygon fill="white" stroke="#666666" points="392.75,-162.5 226.75,-162.5 226.75,-129 392.75,-129 392.75,-162.5"/>
<text xml:space="preserve" text-anchor="start" x="234.75" y="-149" font-family="Helvetica,sans-Serif" font-size="10.00">GreenFHom3DPer2D::Evaluate</text>
<text xml:space="preserve" text-anchor="middle" x="309.75" y="-136.25" font-family="Helvetica,sans-Serif" font-size="10.00">Translate</text>
</a>
</g>
</g>
<!-- Node1&#45;&gt;Node2 -->
<g id="edge1_Node000001_Node000002" class="edge">
<title>Node1&#45;&gt;Node2</title>
<g id="a_edge1_Node000001_Node000002"><a xlink:title=" ">
<path fill="none" stroke="#63b8ff" d="M495.95,-94.84C470.84,-102.43 439.15,-111.84 410.75,-119.75 400.3,-122.66 389.2,-125.65 378.34,-128.52"/>
<polygon fill="#63b8ff" stroke="#63b8ff" points="496.63,-98.29 505.18,-92.03 494.6,-91.59 496.63,-98.29"/>
</a>
</g>
</g>
<!-- Node3 -->
<g id="Node000003" class="node">
<title>Node3</title>
<g id="a_Node000003"><a xlink:href="classGreenFHom3DPer2D.html#a359a21bc178e1c0d21125f8af5ae4fcb" target="_top" xlink:title="Ewald&#45;summed scalar kernel (2D periodic).">
<polygon fill="white" stroke="#666666" points="386,-111.12 233.5,-111.12 233.5,-90.38 386,-90.38 386,-111.12"/>
<text xml:space="preserve" text-anchor="middle" x="309.75" y="-97.62" font-family="Helvetica,sans-Serif" font-size="10.00">GreenFHom3DPer2D::Ewald</text>
</a>
</g>
</g>
<!-- Node1&#45;&gt;Node3 -->
<g id="edge2_Node000001_Node000003" class="edge">
<title>Node1&#45;&gt;Node3</title>
<g id="a_edge2_Node000001_Node000003"><a xlink:title=" ">
<path fill="none" stroke="#63b8ff" d="M435.2,-89.98C418.75,-91.4 402.06,-92.85 386.47,-94.2"/>
<polygon fill="#63b8ff" stroke="#63b8ff" points="435.36,-93.48 445.03,-89.13 434.76,-86.51 435.36,-93.48"/>
</a>
</g>
</g>
<!-- Node5 -->
<g id="Node000005" class="node">
<title>Node5</title>
<g id="a_Node000005"><a xlink:href="classGreenFHom3DPer2D.html#aa6a46238cd2d01600780fd176a36971d" target="_top" xlink:title="Ewald&#45;summed smoothed scalar kernel.">
<polygon fill="white" stroke="#666666" points="410.75,-72.12 208.75,-72.12 208.75,-51.38 410.75,-51.38 410.75,-72.12"/>
<text xml:space="preserve" text-anchor="middle" x="309.75" y="-58.62" font-family="Helvetica,sans-Serif" font-size="10.00">GreenFHom3DPer2D::EwaldSmoothed</text>
</a>
</g>
</g>
<!-- Node1&#45;&gt;Node5 -->
<g id="edge4_Node000001_Node000005" class="edge">
<title>Node1&#45;&gt;Node5</title>
<g id="a_edge4_Node000001_Node000005"><a xlink:title=" ">
<path fill="none" stroke="#63b8ff" d="M435.23,-71.98C427.2,-71.32 419.1,-70.66 411.11,-70"/>
<polygon fill="#63b8ff" stroke="#63b8ff" points="434.77,-75.46 445.02,-72.79 435.35,-68.48 434.77,-75.46"/>
</a>
</g>
</g>
<!-- Node7 -->
<g id="Node000007" class="node">
<title>Node7</title>
<g id="a_Node000007"><a xlink:href="classGreenFHom3DPer2D.html#ab327d41ca91c33e57a154eae221b4016" target="_top" xlink:title="Smoothed scalar kernel &#160;for a specific translation.">
<polygon fill="white" stroke="#666666" points="396.12,-33.5 223.38,-33.5 223.38,0 396.12,0 396.12,-33.5"/>
<text xml:space="preserve" text-anchor="start" x="231.38" y="-20" font-family="Helvetica,sans-Serif" font-size="10.00">GreenFHom3DPer2D::Smoothed</text>
<text xml:space="preserve" text-anchor="middle" x="309.75" y="-7.25" font-family="Helvetica,sans-Serif" font-size="10.00">Translate</text>
</a>
</g>
</g>
<!-- Node1&#45;&gt;Node7 -->
<g id="edge6_Node000001_Node000007" class="edge">
<title>Node1&#45;&gt;Node7</title>
<g id="a_edge6_Node000001_Node000007"><a xlink:title=" ">
<path fill="none" stroke="#63b8ff" d="M494.53,-66.69C469.64,-59.38 438.6,-50.4 410.75,-42.75 400.2,-39.85 389,-36.86 378.06,-33.98"/>
<polygon fill="#63b8ff" stroke="#63b8ff" points="493.46,-70.02 504.04,-69.49 495.44,-63.3 493.46,-70.02"/>
</a>
</g>
</g>
<!-- Node4 -->
<g id="Node000004" class="node">
<title>Node4</title>
<g id="a_Node000004"><a xlink:href="classGreenFHom3DPer2D.html#a4fcccf5350453546ac226492ff19bcd0" target="_top" xlink:title="Scalar Bloch&#45;periodic Green&#39;s function .">
<polygon fill="white" stroke="#666666" points="169.38,-111.12 3.38,-111.12 3.38,-90.38 169.38,-90.38 169.38,-111.12"/>
<text xml:space="preserve" text-anchor="middle" x="86.38" y="-97.62" font-family="Helvetica,sans-Serif" font-size="10.00">GreenFHom3DPer2D::Evaluate</text>
</a>
</g>
</g>
<!-- Node3&#45;&gt;Node4 -->
<g id="edge3_Node000003_Node000004" class="edge">
<title>Node3&#45;&gt;Node4</title>
<g id="a_edge3_Node000003_Node000004"><a xlink:title=" ">
<path fill="none" stroke="#63b8ff" d="M222.02,-100.75C204.84,-100.75 186.84,-100.75 169.8,-100.75"/>
<polygon fill="#63b8ff" stroke="#63b8ff" points="221.67,-104.25 231.67,-100.75 221.67,-97.25 221.67,-104.25"/>
</a>
</g>
</g>
<!-- Node6 -->
<g id="Node000006" class="node">
<title>Node6</title>
<g id="a_Node000006"><a xlink:href="classGreenFHom3DPer2D.html#a6ab5b9db19bf30afa1828652d428d4a8" target="_top" xlink:title="Smoothed scalar kernel .">
<polygon fill="white" stroke="#666666" points="172.75,-72.12 0,-72.12 0,-51.38 172.75,-51.38 172.75,-72.12"/>
<text xml:space="preserve" text-anchor="middle" x="86.38" y="-58.62" font-family="Helvetica,sans-Serif" font-size="10.00">GreenFHom3DPer2D::Smoothed</text>
</a>
</g>
</g>
<!-- Node5&#45;&gt;Node6 -->
<g id="edge5_Node000005_Node000006" class="edge">
<title>Node5&#45;&gt;Node6</title>
<g id="a_edge5_Node000005_Node000006"><a xlink:title=" ">
<path fill="none" stroke="#63b8ff" d="M197.07,-61.75C189.03,-61.75 181,-61.75 173.14,-61.75"/>
<polygon fill="#63b8ff" stroke="#63b8ff" points="196.91,-65.25 206.91,-61.75 196.91,-58.25 196.91,-65.25"/>
</a>
</g>
</g>
</g>
</svg>
