<?xml version="1.0" encoding="UTF-8" standalone="no"?>
<!DOCTYPE svg PUBLIC "-//W3C//DTD SVG 1.1//EN"
 "http://www.w3.org/Graphics/SVG/1.1/DTD/svg11.dtd">
<!-- Generated by graphviz version 13.1.2 (20250809.0930)
 -->
<!-- Title: GreenFHom3DPer2D::Gradient Pages: 1 -->
<svg width="867pt" height="132pt"
 viewBox="0.00 0.00 867.00 132.00" xmlns="http://www.w3.org/2000/svg" xmlns:xlink="http://www.w3.org/1999/xlink">
<g id="graph0" class="graph" transform="scale(1 1) rotate(0) translate(4 128.12)">
<title>GreenFHom3DPer2D::Gradient</title>
<!-- Node1 -->
<g id="Node000001" class="node">
<title>Node1</title>
<g id="a_Node000001"><a xlink:title="Source&#45;gradient .">
<polygon fill="#999999" stroke="#666666" points="165.25,-65.75 0,-65.75 0,-45 165.25,-45 165.25,-65.75"/>
<text xml:space="preserve" text-anchor="middle" x="82.62" y="-52.25" font-family="Helvetica,sans-Serif" font-size="10.00">GreenFHom3DPer2D::Gradient</text>
</a>
</g>
</g>
<!-- Node2 -->
<g id="Node000002" class="node">
<title>Node2</title>
<g id="a_Node000002"><a xlink:href="classGreenFHom3DPer2D.html#afdc08576760ed0ae9a61dc378a7faac3" target="_top" xlink:title="Ewald&#45;summed source&#45;gradient.">
<polygon fill="white" stroke="#666666" points="366.5,-72.12 201.25,-72.12 201.25,-38.62 366.5,-38.62 366.5,-72.12"/>
<text xml:space="preserve" text-anchor="start" x="209.25" y="-58.62" font-family="Helvetica,sans-Serif" font-size="10.00">GreenFHom3DPer2D::Gradient</text>
<text xml:space="preserve" text-anchor="middle" x="283.88" y="-45.88" font-family="Helvetica,sans-Serif" font-size="10.00">Ewald</text>
</a>
</g>
</g>
<!-- Node1&#45;&gt;Node2 -->
<g id="edge1_Node000001_Node000002" class="edge">
<title>Node1&#45;&gt;Node2</title>
<g id="a_edge1_Node000001_Node000002"><a xlink:title=" ">
<path fill="none" stroke="#63b8ff" d="M165.53,-55.38C173.48,-55.38 181.59,-55.38 189.64,-55.38"/>
<polygon fill="#63b8ff" stroke="#63b8ff" points="189.45,-58.88 199.45,-55.38 189.45,-51.88 189.45,-58.88"/>
</a>
</g>
</g>
<!-- Node3 -->
<g id="Node000003" class="node">
<title>Node3</title>
<g id="a_Node000003"><a xlink:href="classGreenFHom3DPer2D.html#a9e049d83cd897078023b76fb89558d31" target="_top" xlink:title="Spatial part of the source&#45;gradient.">
<polygon fill="white" stroke="#666666" points="578.25,-124.12 413,-124.12 413,-90.62 578.25,-90.62 578.25,-124.12"/>
<text xml:space="preserve" text-anchor="start" x="421" y="-110.62" font-family="Helvetica,sans-Serif" font-size="10.00">GreenFHom3DPer2D::Gradient</text>
<text xml:space="preserve" text-anchor="middle" x="495.62" y="-97.88" font-family="Helvetica,sans-Serif" font-size="10.00">EwaldSpatial</text>
</a>
</g>
</g>
<!-- Node2&#45;&gt;Node3 -->
<g id="edge2_Node000002_Node000003" class="edge">
<title>Node2&#45;&gt;Node3</title>
<g id="a_edge2_Node000002_Node000003"><a xlink:title=" ">
<path fill="none" stroke="#63b8ff" d="M354.43,-72.62C373.56,-77.36 394.46,-82.54 414.15,-87.42"/>
<polygon fill="#63b8ff" stroke="#63b8ff" points="413.24,-90.81 423.79,-89.81 414.93,-84.01 413.24,-90.81"/>
</a>
</g>
</g>
<!-- Node8 -->
<g id="Node000008" class="node">
<title>Node8</title>
<g id="a_Node000008"><a xlink:href="classGreenFHom3DPer2D.html#a1ab7bcf35b15f67bb9824040c34c8bbc" target="_top" xlink:title="Spectral part of the source&#45;gradient .">
<polygon fill="white" stroke="#666666" points="578.25,-72.12 413,-72.12 413,-38.62 578.25,-38.62 578.25,-72.12"/>
<text xml:space="preserve" text-anchor="start" x="421" y="-58.62" font-family="Helvetica,sans-Serif" font-size="10.00">GreenFHom3DPer2D::Gradient</text>
<text xml:space="preserve" text-anchor="middle" x="495.62" y="-45.88" font-family="Helvetica,sans-Serif" font-size="10.00">EwaldSpectral</text>
</a>
</g>
</g>
<!-- Node2&#45;&gt;Node8 -->
<g id="edge8_Node000002_Node000008" class="edge">
<title>Node2&#45;&gt;Node8</title>
<g id="a_edge8_Node000002_Node000008"><a xlink:title=" ">
<path fill="none" stroke="#63b8ff" d="M366.87,-55.38C378.16,-55.38 389.82,-55.38 401.29,-55.38"/>
<polygon fill="#63b8ff" stroke="#63b8ff" points="401.17,-58.88 411.17,-55.38 401.17,-51.88 401.17,-58.88"/>
</a>
</g>
</g>
<!-- Node10 -->
<g id="Node000010" class="node">
<title>Node10</title>
<g id="a_Node000010"><a xlink:href="classGreenFHom3DPer2D.html#a098b4d59dde268718483b4ac9906e446" target="_top" xlink:title="Map a displacement to the primitive cell.">
<polygon fill="white" stroke="#666666" points="588.75,-20.75 402.5,-20.75 402.5,0 588.75,0 588.75,-20.75"/>
<text xml:space="preserve" text-anchor="middle" x="495.62" y="-7.25" font-family="Helvetica,sans-Serif" font-size="10.00">GreenFHom3DPer2D::PrimitiveCell</text>
</a>
</g>
</g>
<!-- Node2&#45;&gt;Node10 -->
<g id="edge12_Node000002_Node000010" class="edge">
<title>Node2&#45;&gt;Node10</title>
<g id="a_edge12_Node000002_Node000010"><a xlink:title=" ">
<path fill="none" stroke="#63b8ff" d="M362.03,-38.16C375.51,-35.19 389.41,-32.17 402.5,-29.38 411.47,-27.46 420.94,-25.47 430.25,-23.53"/>
<polygon fill="#63b8ff" stroke="#63b8ff" points="430.94,-26.96 440.02,-21.51 429.51,-20.11 430.94,-26.96"/>
</a>
</g>
</g>
<!-- Node4 -->
<g id="Node000004" class="node">
<title>Node4</title>
<g id="a_Node000004"><a xlink:href="classGreenF.html#abf00726011a4eca4109bc43125218d30" target="_top" xlink:title="Evaluate erfc via the 2D lookup table if available.">
<polygon fill="white" stroke="#666666" points="712,-110.75 624.75,-110.75 624.75,-90 712,-90 712,-110.75"/>
<text xml:space="preserve" text-anchor="middle" x="668.38" y="-97.25" font-family="Helvetica,sans-Serif" font-size="10.00">GreenF::EvErfc</text>
</a>
</g>
</g>
<!-- Node3&#45;&gt;Node4 -->
<g id="edge3_Node000003_Node000004" class="edge">
<title>Node3&#45;&gt;Node4</title>
<g id="a_edge3_Node000003_Node000004"><a xlink:title=" ">
<path fill="none" stroke="#63b8ff" d="M578.5,-104.02C590.31,-103.53 602.22,-103.05 613.31,-102.59"/>
<polygon fill="#63b8ff" stroke="#63b8ff" points="613.17,-106.1 623.01,-102.19 612.88,-99.11 613.17,-106.1"/>
</a>
</g>
</g>
<!-- Node5 -->
<g id="Node000005" class="node">
<title>Node5</title>
<g id="a_Node000005"><a xlink:href="mathFunctions_8cpp.html#a7916c6b62310fe9cf38ec2a2890aaad4" target="_top" xlink:title="Complementary error function for complex arguments.">
<polygon fill="white" stroke="#666666" points="788,-122.75 748,-122.75 748,-102 788,-102 788,-122.75"/>
<text xml:space="preserve" text-anchor="middle" x="768" y="-109.25" font-family="Helvetica,sans-Serif" font-size="10.00">cerfc</text>
</a>
</g>
</g>
<!-- Node4&#45;&gt;Node5 -->
<g id="edge4_Node000004_Node000005" class="edge">
<title>Node4&#45;&gt;Node5</title>
<g id="a_edge4_Node000004_Node000005"><a xlink:title=" ">
<path fill="none" stroke="#63b8ff" d="M712.48,-105.67C720.52,-106.66 728.78,-107.68 736.35,-108.61"/>
<polygon fill="#63b8ff" stroke="#63b8ff" points="735.71,-112.06 746.06,-109.8 736.57,-105.11 735.71,-112.06"/>
</a>
</g>
</g>
<!-- Node7 -->
<g id="Node000007" class="node">
<title>Node7</title>
<g id="a_Node000007"><a xlink:href="Domain_8cpp.html#aafa3e4fa6318b2f8740f4dbd50c367e5" target="_top" xlink:title="Extract the real part of each component of a complex 3&#45;vector.">
<polygon fill="white" stroke="#666666" points="785.38,-65.75 750.62,-65.75 750.62,-45 785.38,-45 785.38,-65.75"/>
<text xml:space="preserve" text-anchor="middle" x="768" y="-52.25" font-family="Helvetica,sans-Serif" font-size="10.00">real</text>
</a>
</g>
</g>
<!-- Node4&#45;&gt;Node7 -->
<g id="edge6_Node000004_Node000007" class="edge">
<title>Node4&#45;&gt;Node7</title>
<g id="a_edge6_Node000004_Node000007"><a xlink:title=" ">
<path fill="none" stroke="#63b8ff" d="M692.51,-89.71C706.76,-83.14 725.08,-74.7 739.99,-67.82"/>
<polygon fill="#63b8ff" stroke="#63b8ff" points="741.15,-71.15 748.76,-63.78 738.22,-64.79 741.15,-71.15"/>
</a>
</g>
</g>
<!-- Node6 -->
<g id="Node000006" class="node">
<title>Node6</title>
<g id="a_Node000006"><a xlink:href="mathFunctions_8cpp.html#abc57cde75234d7e165a9ebcdb45f2c29" target="_top" xlink:title="Error function for complex arguments.">
<polygon fill="white" stroke="#666666" points="858.75,-122.75 824,-122.75 824,-102 858.75,-102 858.75,-122.75"/>
<text xml:space="preserve" text-anchor="middle" x="841.38" y="-109.25" font-family="Helvetica,sans-Serif" font-size="10.00">cerf</text>
</a>
</g>
</g>
<!-- Node5&#45;&gt;Node6 -->
<g id="edge5_Node000005_Node000006" class="edge">
<title>Node5&#45;&gt;Node6</title>
<g id="a_edge5_Node000005_Node000006"><a xlink:title=" ">
<path fill="none" stroke="#63b8ff" d="M788.13,-112.38C795.56,-112.38 804.23,-112.38 812.34,-112.38"/>
<polygon fill="#63b8ff" stroke="#63b8ff" points="812.11,-115.88 822.11,-112.38 812.11,-108.88 812.11,-115.88"/>
</a>
</g>
</g>
<!-- Node7&#45;&gt;Node7 -->
<g id="edge7_Node000007_Node000007" class="edge">
<title>Node7&#45;&gt;Node7</title>
<g id="a_edge7_Node000007_Node000007"><a xlink:title=" ">
<path fill="none" stroke="#63b8ff" d="M756.18,-66.15C751.45,-74.81 755.39,-83.75 768,-83.75 774.7,-83.75 778.95,-81.23 780.76,-77.56"/>
<polygon fill="#63b8ff" stroke="#63b8ff" points="784.25,-77.34 779.95,-67.66 777.28,-77.91 784.25,-77.34"/>
</a>
</g>
</g>
<!-- Node8&#45;&gt;Node4 -->
<g id="edge11_Node000008_Node000004" class="edge">
<title>Node8&#45;&gt;Node4</title>
<g id="a_edge11_Node000008_Node000004"><a xlink:title=" ">
<path fill="none" stroke="#63b8ff" d="M561.67,-72.52C579.45,-77.2 598.48,-82.22 615.42,-86.68"/>
<polygon fill="#63b8ff" stroke="#63b8ff" points="614.2,-89.98 624.76,-89.14 615.98,-83.21 614.2,-89.98"/>
</a>
</g>
</g>
<!-- Node9 -->
<g id="Node000009" class="node">
<title>Node9</title>
<g id="a_Node000009"><a xlink:href="group__greenFunction.html#gac0a52dce23be7dacdf97c68653b6c137" target="_top" xlink:title="Complex square root with a branch cut along the negative real axis.">
<polygon fill="white" stroke="#666666" points="688.38,-65.75 648.38,-65.75 648.38,-45 688.38,-45 688.38,-65.75"/>
<text xml:space="preserve" text-anchor="middle" x="668.38" y="-52.25" font-family="Helvetica,sans-Serif" font-size="10.00">csqrt</text>
</a>
</g>
</g>
<!-- Node8&#45;&gt;Node9 -->
<g id="edge9_Node000008_Node000009" class="edge">
<title>Node8&#45;&gt;Node9</title>
<g id="a_edge9_Node000008_Node000009"><a xlink:title=" ">
<path fill="none" stroke="#63b8ff" d="M578.5,-55.38C599.44,-55.38 620.66,-55.38 637.11,-55.38"/>
<polygon fill="#63b8ff" stroke="#63b8ff" points="636.66,-58.88 646.66,-55.38 636.66,-51.88 636.66,-58.88"/>
</a>
</g>
</g>
<!-- Node9&#45;&gt;Node7 -->
<g id="edge10_Node000009_Node000007" class="edge">
<title>Node9&#45;&gt;Node7</title>
<g id="a_edge10_Node000009_Node000007"><a xlink:title=" ">
<path fill="none" stroke="#63b8ff" d="M688.66,-55.38C703.01,-55.38 722.81,-55.38 738.91,-55.38"/>
<polygon fill="#63b8ff" stroke="#63b8ff" points="738.84,-58.88 748.84,-55.38 738.84,-51.88 738.84,-58.88"/>
</a>
</g>
</g>
</g>
</svg>
