<?xml version="1.0" encoding="UTF-8" standalone="no"?>
<!DOCTYPE svg PUBLIC "-//W3C//DTD SVG 1.1//EN"
 "http://www.w3.org/Graphics/SVG/1.1/DTD/svg11.dtd">
<!-- Generated by graphviz version 13.1.2 (20250809.0930)
 -->
<!-- Title: DomainLayered3D::DomainLayered3D Pages: 1 -->
<svg width="845pt" height="195pt"
 viewBox="0.00 0.00 845.00 195.00" xmlns="http://www.w3.org/2000/svg" xmlns:xlink="http://www.w3.org/1999/xlink">
<g id="graph0" class="graph" transform="scale(1 1) rotate(0) translate(4 191.12)">
<title>DomainLayered3D::DomainLayered3D</title>
<!-- Node1 -->
<g id="Node000001" class="node">
<title>Node1</title>
<g id="a_Node000001"><a xlink:title="Constructs a 3D layered domain with given material properties and geometry.">
<polygon fill="#999999" stroke="#666666" points="203.5,-98.75 0,-98.75 0,-78 203.5,-78 203.5,-98.75"/>
<text xml:space="preserve" text-anchor="middle" x="101.75" y="-85.25" font-family="Helvetica,sans-Serif" font-size="10.00">DomainLayered3D::DomainLayered3D</text>
</a>
</g>
</g>
<!-- Node2 -->
<g id="Node000002" class="node">
<title>Node2</title>
<g id="a_Node000002"><a xlink:href="classDomainLayered3D.html#a5379311442fe1bbc7808308726ee510d" target="_top" xlink:title="Computes the grid points for tabulation.">
<polygon fill="white" stroke="#666666" points="415.25,-179.75 239.5,-179.75 239.5,-159 415.25,-159 415.25,-179.75"/>
<text xml:space="preserve" text-anchor="middle" x="327.38" y="-166.25" font-family="Helvetica,sans-Serif" font-size="10.00">DomainLayered3D::computeGrid</text>
</a>
</g>
</g>
<!-- Node1&#45;&gt;Node2 -->
<g id="edge1_Node000001_Node000002" class="edge">
<title>Node1&#45;&gt;Node2</title>
<g id="a_edge1_Node000001_Node000002"><a xlink:title=" ">
<path fill="none" stroke="#63b8ff" d="M125.59,-99.25C152.43,-111.75 198.51,-132.34 239.5,-146.38 249.15,-149.68 259.53,-152.8 269.65,-155.6"/>
<polygon fill="#63b8ff" stroke="#63b8ff" points="268.44,-158.9 279.01,-158.13 270.27,-152.15 268.44,-158.9"/>
</a>
</g>
</g>
<!-- Node5 -->
<g id="Node000005" class="node">
<title>Node5</title>
<g id="a_Node000005"><a xlink:href="classDomain.html#a3f6f9e8ec932680440098679b6fe3300" target="_top" xlink:title="Construct a domain over a mesh region at a given vacuum wavelength.">
<polygon fill="white" stroke="#666666" points="376.62,-137.75 278.12,-137.75 278.12,-117 376.62,-117 376.62,-137.75"/>
<text xml:space="preserve" text-anchor="middle" x="327.38" y="-124.25" font-family="Helvetica,sans-Serif" font-size="10.00">Domain::Domain</text>
</a>
</g>
</g>
<!-- Node1&#45;&gt;Node5 -->
<g id="edge4_Node000001_Node000005" class="edge">
<title>Node1&#45;&gt;Node5</title>
<g id="a_edge4_Node000001_Node000005"><a xlink:title=" ">
<path fill="none" stroke="#63b8ff" d="M165.04,-99.24C196.81,-104.78 235.26,-111.48 266.66,-116.96"/>
<polygon fill="#63b8ff" stroke="#63b8ff" points="265.93,-120.39 276.39,-118.66 267.14,-113.49 265.93,-120.39"/>
</a>
</g>
</g>
<!-- Node8 -->
<g id="Node000008" class="node">
<title>Node8</title>
<g id="a_Node000008"><a xlink:href="classDomainLayered3D.html#af630820f17df76fa4348a9dc121c70e7" target="_top" xlink:title="Initialize per‑layer homogeneous Green&#39;s functions and the layered Green&#39;s function.">
<polygon fill="white" stroke="#666666" points="408.88,-98.75 245.88,-98.75 245.88,-78 408.88,-78 408.88,-98.75"/>
<text xml:space="preserve" text-anchor="middle" x="327.38" y="-85.25" font-family="Helvetica,sans-Serif" font-size="10.00">DomainLayered3D::InitGrnFun</text>
</a>
</g>
</g>
<!-- Node1&#45;&gt;Node8 -->
<g id="edge7_Node000001_Node000008" class="edge">
<title>Node1&#45;&gt;Node8</title>
<g id="a_edge7_Node000001_Node000008"><a xlink:title=" ">
<path fill="none" stroke="#63b8ff" d="M203.77,-88.38C213.94,-88.38 224.24,-88.38 234.31,-88.38"/>
<polygon fill="#63b8ff" stroke="#63b8ff" points="234.06,-91.88 244.06,-88.38 234.06,-84.88 234.06,-91.88"/>
</a>
</g>
</g>
<!-- Node9 -->
<g id="Node000009" class="node">
<title>Node9</title>
<g id="a_Node000009"><a xlink:href="classDomainLayered3D.html#a76fc8705ab75f3e6599693f9544821e9" target="_top" xlink:title="Computes the slicing of points with respect to interfaces.">
<polygon fill="white" stroke="#666666" points="395,-59.75 259.75,-59.75 259.75,-39 395,-39 395,-59.75"/>
<text xml:space="preserve" text-anchor="middle" x="327.38" y="-46.25" font-family="Helvetica,sans-Serif" font-size="10.00">DomainLayered3D::slice</text>
</a>
</g>
</g>
<!-- Node1&#45;&gt;Node9 -->
<g id="edge8_Node000001_Node000009" class="edge">
<title>Node1&#45;&gt;Node9</title>
<g id="a_edge8_Node000001_Node000009"><a xlink:title=" ">
<path fill="none" stroke="#63b8ff" d="M165.04,-77.51C192.31,-72.76 224.5,-67.14 252.93,-62.18"/>
<polygon fill="#63b8ff" stroke="#63b8ff" points="253.29,-65.67 262.54,-60.51 252.09,-58.78 253.29,-65.67"/>
</a>
</g>
</g>
<!-- Node11 -->
<g id="Node000011" class="node">
<title>Node11</title>
<g id="a_Node000011"><a xlink:href="classSurfaceMesh.html#a4a88f03484758605cc254297149c7d29" target="_top" xlink:title="Minimum and maximum z among all nodes.">
<polygon fill="white" stroke="#666666" points="392,-20.75 262.75,-20.75 262.75,0 392,0 392,-20.75"/>
<text xml:space="preserve" text-anchor="middle" x="327.38" y="-7.25" font-family="Helvetica,sans-Serif" font-size="10.00">SurfaceMesh::zMinMax</text>
</a>
</g>
</g>
<!-- Node1&#45;&gt;Node11 -->
<g id="edge10_Node000001_Node000011" class="edge">
<title>Node1&#45;&gt;Node11</title>
<g id="a_edge10_Node000001_Node000011"><a xlink:title=" ">
<path fill="none" stroke="#63b8ff" d="M124.56,-77.72C151.18,-65.04 197.8,-43.9 239.5,-30.38 246.62,-28.06 254.15,-25.91 261.69,-23.94"/>
<polygon fill="#63b8ff" stroke="#63b8ff" points="262.36,-27.38 271.21,-21.56 260.66,-20.59 262.36,-27.38"/>
</a>
</g>
</g>
<!-- Node3 -->
<g id="Node000003" class="node">
<title>Node3</title>
<g id="a_Node000003"><a xlink:href="classDomainLayered3D.html#af0fc42edd76b3e69a326990cefcbcd37" target="_top" xlink:title="Calculates the tabulation range for a group of points.">
<polygon fill="white" stroke="#666666" points="616.5,-187.12 459.5,-187.12 459.5,-153.62 616.5,-153.62 616.5,-187.12"/>
<text xml:space="preserve" text-anchor="start" x="467.5" y="-173.62" font-family="Helvetica,sans-Serif" font-size="10.00">DomainLayered3D::calculate</text>
<text xml:space="preserve" text-anchor="middle" x="538" y="-160.88" font-family="Helvetica,sans-Serif" font-size="10.00">Range</text>
</a>
</g>
</g>
<!-- Node2&#45;&gt;Node3 -->
<g id="edge2_Node000002_Node000003" class="edge">
<title>Node2&#45;&gt;Node3</title>
<g id="a_edge2_Node000002_Node000003"><a xlink:title=" ">
<path fill="none" stroke="#63b8ff" d="M415.64,-169.79C426.22,-169.84 437.04,-169.9 447.65,-169.95"/>
<polygon fill="#63b8ff" stroke="#63b8ff" points="447.52,-173.45 457.54,-169.99 447.55,-166.45 447.52,-173.45"/>
</a>
</g>
</g>
<!-- Node4 -->
<g id="Node000004" class="node">
<title>Node4</title>
<g id="a_Node000004"><a xlink:href="DomainLayered3D_8cpp.html#a83b3a83c01e3d7a487d4ae2ec65695f5" target="_top" xlink:title="Adjusts the Z&#45;coordinate range with a margin while ensuring boundaries.">
<polygon fill="white" stroke="#666666" points="790.38,-180.75 706.88,-180.75 706.88,-160 790.38,-160 790.38,-180.75"/>
<text xml:space="preserve" text-anchor="middle" x="748.62" y="-167.25" font-family="Helvetica,sans-Serif" font-size="10.00">adjustZRange</text>
</a>
</g>
</g>
<!-- Node3&#45;&gt;Node4 -->
<g id="edge3_Node000003_Node000004" class="edge">
<title>Node3&#45;&gt;Node4</title>
<g id="a_edge3_Node000003_Node000004"><a xlink:title=" ">
<path fill="none" stroke="#63b8ff" d="M616.98,-170.38C643.14,-170.38 671.66,-170.38 695.36,-170.38"/>
<polygon fill="#63b8ff" stroke="#63b8ff" points="695.07,-173.88 705.07,-170.38 695.07,-166.88 695.07,-173.88"/>
</a>
</g>
</g>
<!-- Node6 -->
<g id="Node000006" class="node">
<title>Node6</title>
<g id="a_Node000006"><a xlink:href="classDomain.html#a753296cc63cedb73b537311031521178" target="_top" xlink:title="Add all boundary triangles belonging to region dIndex and build RWGs.">
<polygon fill="white" stroke="#666666" points="624.75,-135.75 451.25,-135.75 451.25,-115 624.75,-115 624.75,-135.75"/>
<text xml:space="preserve" text-anchor="middle" x="538" y="-122.25" font-family="Helvetica,sans-Serif" font-size="10.00">Domain::AddTrianglesFromMesh</text>
</a>
</g>
</g>
<!-- Node5&#45;&gt;Node6 -->
<g id="edge5_Node000005_Node000006" class="edge">
<title>Node5&#45;&gt;Node6</title>
<g id="a_edge5_Node000005_Node000006"><a xlink:title=" ">
<path fill="none" stroke="#63b8ff" d="M377.02,-126.91C395.79,-126.73 417.95,-126.52 439.7,-126.31"/>
<polygon fill="#63b8ff" stroke="#63b8ff" points="439.54,-129.81 449.51,-126.21 439.47,-122.81 439.54,-129.81"/>
</a>
</g>
</g>
<!-- Node7 -->
<g id="Node000007" class="node">
<title>Node7</title>
<g id="a_Node000007"><a xlink:href="classSurfaceMesh.html#a7681019f61e9c1542c893c177117dac4" target="_top" xlink:title="Triangles bordering a given domain (FRONT or BACK).">
<polygon fill="white" stroke="#666666" points="836.5,-135.75 660.75,-135.75 660.75,-115 836.5,-115 836.5,-135.75"/>
<text xml:space="preserve" text-anchor="middle" x="748.62" y="-122.25" font-family="Helvetica,sans-Serif" font-size="10.00">SurfaceMesh::BorderingTriangles</text>
</a>
</g>
</g>
<!-- Node6&#45;&gt;Node7 -->
<g id="edge6_Node000006_Node000007" class="edge">
<title>Node6&#45;&gt;Node7</title>
<g id="a_edge6_Node000006_Node000007"><a xlink:title=" ">
<path fill="none" stroke="#63b8ff" d="M625.06,-125.38C632.99,-125.38 641.07,-125.38 649.11,-125.38"/>
<polygon fill="#63b8ff" stroke="#63b8ff" points="648.9,-128.88 658.9,-125.38 648.9,-121.88 648.9,-128.88"/>
</a>
</g>
</g>
<!-- Node10 -->
<g id="Node000010" class="node">
<title>Node10</title>
<g id="a_Node000010"><a xlink:href="classDomainLayered3D.html#ae8e9daf2ca4d1ed649a1e0fe83880160" target="_top" xlink:title="Returns the layer index corresponding to a spatial position.">
<polygon fill="white" stroke="#666666" points="616.5,-66.12 459.5,-66.12 459.5,-32.62 616.5,-32.62 616.5,-66.12"/>
<text xml:space="preserve" text-anchor="start" x="467.5" y="-52.62" font-family="Helvetica,sans-Serif" font-size="10.00">DomainLayered3D::GetLayer</text>
<text xml:space="preserve" text-anchor="middle" x="538" y="-39.88" font-family="Helvetica,sans-Serif" font-size="10.00">Index</text>
</a>
</g>
</g>
<!-- Node9&#45;&gt;Node10 -->
<g id="edge9_Node000009_Node000010" class="edge">
<title>Node9&#45;&gt;Node10</title>
<g id="a_edge9_Node000009_Node000010"><a xlink:title=" ">
<path fill="none" stroke="#63b8ff" d="M395.25,-49.38C411.96,-49.38 430.16,-49.38 447.77,-49.38"/>
<polygon fill="#63b8ff" stroke="#63b8ff" points="447.73,-52.88 457.73,-49.38 447.73,-45.88 447.73,-52.88"/>
</a>
</g>
</g>
</g>
</svg>
