<?xml version="1.0" encoding="UTF-8" standalone="no"?>
<!DOCTYPE svg PUBLIC "-//W3C//DTD SVG 1.1//EN"
 "http://www.w3.org/Graphics/SVG/1.1/DTD/svg11.dtd">
<!-- Generated by graphviz version 13.1.2 (20250809.0930)
 -->
<!-- Title: Gaussian::Gaussian Pages: 1 -->
<svg width="275pt" height="68pt"
 viewBox="0.00 0.00 275.00 68.00" xmlns="http://www.w3.org/2000/svg" xmlns:xlink="http://www.w3.org/1999/xlink">
<g id="graph0" class="graph" transform="scale(1 1) rotate(0) translate(4 63.75)">
<title>Gaussian::Gaussian</title>
<!-- Node1 -->
<g id="Node000001" class="node">
<title>Node1</title>
<g id="a_Node000001"><a xlink:title="Construct a Gaussian beam in a homogeneous medium.">
<polygon fill="#999999" stroke="#666666" points="266.75,-39.75 154.75,-39.75 154.75,-19 266.75,-19 266.75,-39.75"/>
<text xml:space="preserve" text-anchor="middle" x="210.75" y="-26.25" font-family="Helvetica,sans-Serif" font-size="10.00">Gaussian::Gaussian</text>
</a>
</g>
</g>
<!-- Node2 -->
<g id="Node000002" class="node">
<title>Node2</title>
<g id="a_Node000002"><a xlink:href="classGaussian.html#a7c63c2889ab8b3c019c3d04c568c2ad4" target="_top" xlink:title="RWG projection of the incident electric field.">
<polygon fill="white" stroke="#666666" points="118,-59.75 0.75,-59.75 0.75,-39 118,-39 118,-59.75"/>
<text xml:space="preserve" text-anchor="middle" x="59.38" y="-46.25" font-family="Helvetica,sans-Serif" font-size="10.00">Gaussian::IntegrateE</text>
</a>
</g>
</g>
<!-- Node1&#45;&gt;Node2 -->
<g id="edge1_Node000001_Node000002" class="edge">
<title>Node1&#45;&gt;Node2</title>
<g id="a_edge1_Node000001_Node000002"><a xlink:title=" ">
<path fill="none" stroke="#63b8ff" d="M143.32,-38.27C135,-39.38 126.53,-40.52 118.35,-41.61"/>
<polygon fill="#63b8ff" stroke="#63b8ff" points="143.61,-41.76 153.05,-36.97 142.68,-34.82 143.61,-41.76"/>
</a>
</g>
</g>
<!-- Node3 -->
<g id="Node000003" class="node">
<title>Node3</title>
<g id="a_Node000003"><a xlink:href="classGaussian.html#a5a2bbd00d15351a497efe6cd5fb333d3" target="_top" xlink:title="RWG projection of the incident magnetic field.">
<polygon fill="white" stroke="#666666" points="118.75,-20.75 0,-20.75 0,0 118.75,0 118.75,-20.75"/>
<text xml:space="preserve" text-anchor="middle" x="59.38" y="-7.25" font-family="Helvetica,sans-Serif" font-size="10.00">Gaussian::IntegrateH</text>
</a>
</g>
</g>
<!-- Node1&#45;&gt;Node3 -->
<g id="edge2_Node000001_Node000003" class="edge">
<title>Node1&#45;&gt;Node3</title>
<g id="a_edge2_Node000001_Node000003"><a xlink:title=" ">
<path fill="none" stroke="#63b8ff" d="M143.29,-20.92C135.23,-19.9 127.04,-18.85 119.1,-17.85"/>
<polygon fill="#63b8ff" stroke="#63b8ff" points="142.69,-24.37 153.05,-22.16 143.57,-17.43 142.69,-24.37"/>
</a>
</g>
</g>
</g>
</svg>
