<?xml version="1.0" encoding="UTF-8" standalone="no"?>
<!DOCTYPE svg PUBLIC "-//W3C//DTD SVG 1.1//EN"
 "http://www.w3.org/Graphics/SVG/1.1/DTD/svg11.dtd">
<!-- Generated by graphviz version 13.1.2 (20250809.0930)
 -->
<!-- Title: GreenFLayered3D::writeVectorToFile Pages: 1 -->
<svg width="252pt" height="53pt"
 viewBox="0.00 0.00 252.00 53.00" xmlns="http://www.w3.org/2000/svg" xmlns:xlink="http://www.w3.org/1999/xlink">
<g id="graph0" class="graph" transform="scale(1 1) rotate(0) translate(4 49.12)">
<title>GreenFLayered3D::writeVectorToFile</title>
<!-- Node1 -->
<g id="Node000001" class="node">
<title>Node1</title>
<g id="a_Node000001"><a xlink:title="Write complex data with associated 3D coordinates to a text file.">
<polygon fill="#999999" stroke="#666666" points="165.25,-33.5 0,-33.5 0,0 165.25,0 165.25,-33.5"/>
<text xml:space="preserve" text-anchor="start" x="8" y="-20" font-family="Helvetica,sans-Serif" font-size="10.00">GreenFLayered3D::writeVector</text>
<text xml:space="preserve" text-anchor="middle" x="82.62" y="-7.25" font-family="Helvetica,sans-Serif" font-size="10.00">ToFile</text>
</a>
</g>
</g>
<!-- Node2 -->
<g id="Node000002" class="node">
<title>Node2</title>
<g id="a_Node000002"><a xlink:href="Domain_8cpp.html#aafa3e4fa6318b2f8740f4dbd50c367e5" target="_top" xlink:title="Extract the real part of each component of a complex 3&#45;vector.">
<polygon fill="white" stroke="#666666" points="236,-27.12 201.25,-27.12 201.25,-6.38 236,-6.38 236,-27.12"/>
<text xml:space="preserve" text-anchor="middle" x="218.62" y="-13.62" font-family="Helvetica,sans-Serif" font-size="10.00">real</text>
</a>
</g>
</g>
<!-- Node1&#45;&gt;Node2 -->
<g id="edge1_Node000001_Node000002" class="edge">
<title>Node1&#45;&gt;Node2</title>
<g id="a_edge1_Node000001_Node000002"><a xlink:title=" ">
<path fill="none" stroke="#63b8ff" d="M165.43,-16.75C174.09,-16.75 182.4,-16.75 189.74,-16.75"/>
<polygon fill="#63b8ff" stroke="#63b8ff" points="189.57,-20.25 199.57,-16.75 189.57,-13.25 189.57,-20.25"/>
</a>
</g>
</g>
<!-- Node2&#45;&gt;Node2 -->
<g id="edge2_Node000002_Node000002" class="edge">
<title>Node2&#45;&gt;Node2</title>
<g id="a_edge2_Node000002_Node000002"><a xlink:title=" ">
<path fill="none" stroke="#63b8ff" d="M200.75,-24.31C186.37,-33.81 192.33,-45.12 218.62,-45.12 237.11,-45.12 245.55,-39.53 243.93,-32.91"/>
<polygon fill="#63b8ff" stroke="#63b8ff" points="246.67,-30.73 237.49,-25.45 241.38,-35.31 246.67,-30.73"/>
</a>
</g>
</g>
</g>
</svg>
