<?xml version="1.0" encoding="UTF-8" standalone="no"?>
<!DOCTYPE svg PUBLIC "-//W3C//DTD SVG 1.1//EN"
 "http://www.w3.org/Graphics/SVG/1.1/DTD/svg11.dtd">
<!-- Generated by graphviz version 13.1.2 (20250809.0930)
 -->
<!-- Title: SingCancellation::commonVertex Pages: 1 -->
<svg width="370pt" height="132pt"
 viewBox="0.00 0.00 370.00 132.00" xmlns="http://www.w3.org/2000/svg" xmlns:xlink="http://www.w3.org/1999/xlink">
<g id="graph0" class="graph" transform="scale(1 1) rotate(0) translate(4 128.12)">
<title>SingCancellation::commonVertex</title>
<!-- Node1 -->
<g id="Node000001" class="node">
<title>Node1</title>
<g id="a_Node000001"><a xlink:title="Build paired quadrature for triangles sharing a single vertex.">
<polygon fill="#999999" stroke="#666666" points="146.5,-85.5 0,-85.5 0,-52 146.5,-52 146.5,-85.5"/>
<text xml:space="preserve" text-anchor="start" x="8" y="-72" font-family="Helvetica,sans-Serif" font-size="10.00">SingCancellation::common</text>
<text xml:space="preserve" text-anchor="middle" x="73.25" y="-59.25" font-family="Helvetica,sans-Serif" font-size="10.00">Vertex</text>
</a>
</g>
</g>
<!-- Node1&#45;&gt;Node1 -->
<g id="edge1_Node000001_Node000001" class="edge">
<title>Node1&#45;&gt;Node1</title>
<g id="a_edge1_Node000001_Node000001"><a xlink:title=" ">
<path fill="none" stroke="#63b8ff" d="M37.48,-85.91C31.4,-95.12 43.32,-103.5 73.25,-103.5 90.08,-103.5 101.22,-100.85 106.66,-96.89"/>
<polygon fill="#63b8ff" stroke="#63b8ff" points="110.02,-97.91 108.7,-87.39 103.18,-96.44 110.02,-97.91"/>
</a>
</g>
</g>
<!-- Node2 -->
<g id="Node000002" class="node">
<title>Node2</title>
<g id="a_Node000002"><a xlink:href="classSingCancellation.html#af51fe5685bf1d5a85afd61a50eb375fe" target="_top" xlink:title="Permutation of barycentric components induced by vertex/edge alignment.">
<polygon fill="white" stroke="#666666" points="362,-124.12 182.5,-124.12 182.5,-103.38 362,-103.38 362,-124.12"/>
<text xml:space="preserve" text-anchor="middle" x="272.25" y="-110.62" font-family="Helvetica,sans-Serif" font-size="10.00">SingCancellation::getPermutation</text>
</a>
</g>
</g>
<!-- Node1&#45;&gt;Node2 -->
<g id="edge2_Node000001_Node000002" class="edge">
<title>Node1&#45;&gt;Node2</title>
<g id="a_edge2_Node000001_Node000002"><a xlink:title=" ">
<path fill="none" stroke="#63b8ff" d="M144.94,-86C157.44,-88.97 170.34,-91.99 182.5,-94.75 190.93,-96.66 199.82,-98.63 208.58,-100.54"/>
<polygon fill="#63b8ff" stroke="#63b8ff" points="207.59,-103.9 218.1,-102.59 209.07,-97.06 207.59,-103.9"/>
</a>
</g>
</g>
<!-- Node3 -->
<g id="Node000003" class="node">
<title>Node3</title>
<g id="a_Node000003"><a xlink:href="classSingCancellation.html#a671bbe3bcc58c21a3fa62e605fd36be8" target="_top" xlink:title="Write a single matrix column (chosen component) as a MATLAB style vector.">
<polygon fill="white" stroke="#666666" points="353.38,-85.5 191.12,-85.5 191.12,-52 353.38,-52 353.38,-85.5"/>
<text xml:space="preserve" text-anchor="start" x="199.12" y="-72" font-family="Helvetica,sans-Serif" font-size="10.00">SingCancellation::writeMatlab</text>
<text xml:space="preserve" text-anchor="middle" x="272.25" y="-59.25" font-family="Helvetica,sans-Serif" font-size="10.00">MatrixToTxt</text>
</a>
</g>
</g>
<!-- Node1&#45;&gt;Node3 -->
<g id="edge3_Node000001_Node000003" class="edge">
<title>Node1&#45;&gt;Node3</title>
<g id="a_edge3_Node000001_Node000003"><a xlink:title=" ">
<path fill="none" stroke="#63b8ff" d="M146.77,-68.75C157.43,-68.75 168.54,-68.75 179.53,-68.75"/>
<polygon fill="#63b8ff" stroke="#63b8ff" points="179.41,-72.25 189.41,-68.75 179.41,-65.25 179.41,-72.25"/>
</a>
</g>
</g>
<!-- Node4 -->
<g id="Node000004" class="node">
<title>Node4</title>
<g id="a_Node000004"><a xlink:href="classSingCancellation.html#a099933b83efb63d62f2b5d1c26b6b7e8" target="_top" xlink:title="Write a real vector as a MATLAB style column vector.">
<polygon fill="white" stroke="#666666" points="353.38,-33.5 191.12,-33.5 191.12,0 353.38,0 353.38,-33.5"/>
<text xml:space="preserve" text-anchor="start" x="199.12" y="-20" font-family="Helvetica,sans-Serif" font-size="10.00">SingCancellation::writeMatlab</text>
<text xml:space="preserve" text-anchor="middle" x="272.25" y="-7.25" font-family="Helvetica,sans-Serif" font-size="10.00">VectorToTxt</text>
</a>
</g>
</g>
<!-- Node1&#45;&gt;Node4 -->
<g id="edge4_Node000001_Node000004" class="edge">
<title>Node1&#45;&gt;Node4</title>
<g id="a_edge4_Node000001_Node000004"><a xlink:title=" ">
<path fill="none" stroke="#63b8ff" d="M139.57,-51.51C157.37,-46.81 176.81,-41.68 195.15,-36.84"/>
<polygon fill="#63b8ff" stroke="#63b8ff" points="195.86,-40.27 204.64,-34.33 194.08,-33.5 195.86,-40.27"/>
</a>
</g>
</g>
</g>
</svg>
