<?xml version="1.0" encoding="UTF-8" standalone="no"?>
<!DOCTYPE svg PUBLIC "-//W3C//DTD SVG 1.1//EN"
 "http://www.w3.org/Graphics/SVG/1.1/DTD/svg11.dtd">
<!-- Generated by graphviz version 13.1.2 (20250809.0930)
 -->
<!-- Title: Domain::AddDipole Pages: 1 -->
<svg width="668pt" height="107pt"
 viewBox="0.00 0.00 668.00 107.00" xmlns="http://www.w3.org/2000/svg" xmlns:xlink="http://www.w3.org/1999/xlink">
<g id="graph0" class="graph" transform="scale(1 1) rotate(0) translate(4 102.75)">
<title>Domain::AddDipole</title>
<!-- Node1 -->
<g id="Node000001" class="node">
<title>Node1</title>
<g id="a_Node000001"><a xlink:title="Add a Dipole excitation (ownership transferred to Domain).">
<polygon fill="#999999" stroke="#666666" points="659.75,-39.75 549.25,-39.75 549.25,-19 659.75,-19 659.75,-39.75"/>
<text xml:space="preserve" text-anchor="middle" x="604.5" y="-26.25" font-family="Helvetica,sans-Serif" font-size="10.00">Domain::AddDipole</text>
</a>
</g>
</g>
<!-- Node2 -->
<g id="Node000002" class="node">
<title>Node2</title>
<g id="a_Node000002"><a xlink:href="classSimJob.html#ae16a5d8bdcf14121a812acd22b3c573a" target="_top" xlink:title="Parse and load dipole excitation from .">
<polygon fill="white" stroke="#666666" points="513.25,-39.75 402.75,-39.75 402.75,-19 513.25,-19 513.25,-39.75"/>
<text xml:space="preserve" text-anchor="middle" x="458" y="-26.25" font-family="Helvetica,sans-Serif" font-size="10.00">SimJob::LoadDipole</text>
</a>
</g>
</g>
<!-- Node1&#45;&gt;Node2 -->
<g id="edge1_Node000001_Node000002" class="edge">
<title>Node1&#45;&gt;Node2</title>
<g id="a_edge1_Node000001_Node000002"><a xlink:title=" ">
<path fill="none" stroke="#63b8ff" d="M537.38,-29.38C529.46,-29.38 521.44,-29.38 513.71,-29.38"/>
<polygon fill="#63b8ff" stroke="#63b8ff" points="537.36,-32.88 547.36,-29.38 537.36,-25.88 537.36,-32.88"/>
</a>
</g>
</g>
<!-- Node3 -->
<g id="Node000003" class="node">
<title>Node3</title>
<g id="a_Node000003"><a xlink:href="classSimJob.html#a83d402c189aeefdce43afbd3cb66f709" target="_top" xlink:title="Parse a full &#160;block from the already&#45;open JobParser.">
<polygon fill="white" stroke="#666666" points="350.25,-59.75 229.25,-59.75 229.25,-39 350.25,-39 350.25,-59.75"/>
<text xml:space="preserve" text-anchor="middle" x="289.75" y="-46.25" font-family="Helvetica,sans-Serif" font-size="10.00">SimJob::LoadFromFile</text>
</a>
</g>
</g>
<!-- Node2&#45;&gt;Node3 -->
<g id="edge2_Node000002_Node000003" class="edge">
<title>Node2&#45;&gt;Node3</title>
<g id="a_edge2_Node000002_Node000003"><a xlink:title=" ">
<path fill="none" stroke="#63b8ff" d="M391.41,-37.27C377.91,-38.89 363.76,-40.59 350.48,-42.19"/>
<polygon fill="#63b8ff" stroke="#63b8ff" points="391.55,-40.77 401.06,-36.1 390.71,-33.82 391.55,-40.77"/>
</a>
</g>
</g>
<!-- Node9 -->
<g id="Node000009" class="node">
<title>Node9</title>
<g id="a_Node000009"><a xlink:href="classSimJob.html#adba2c6ff445d17b3d75443f94a7de5eb" target="_top" xlink:title="Parse one &#160;(incident specification + label).">
<polygon fill="white" stroke="#666666" points="366.75,-20.75 212.75,-20.75 212.75,0 366.75,0 366.75,-20.75"/>
<text xml:space="preserve" text-anchor="middle" x="289.75" y="-7.25" font-family="Helvetica,sans-Serif" font-size="10.00">SimJob::LoadSubjobFromFile</text>
</a>
</g>
</g>
<!-- Node2&#45;&gt;Node9 -->
<g id="edge9_Node000002_Node000009" class="edge">
<title>Node2&#45;&gt;Node9</title>
<g id="a_edge9_Node000002_Node000009"><a xlink:title=" ">
<path fill="none" stroke="#63b8ff" d="M391.15,-21.85C383.23,-20.94 375.09,-20.01 367.03,-19.09"/>
<polygon fill="#63b8ff" stroke="#63b8ff" points="390.73,-25.32 401.06,-22.98 391.52,-18.37 390.73,-25.32"/>
</a>
</g>
</g>
<!-- Node4 -->
<g id="Node000004" class="node">
<title>Node4</title>
<g id="a_Node000004"><a xlink:href="classSimJob.html#a12a443329f3e49a5a94a6af72403d93b" target="_top" xlink:title="Casimir workflow entry (uses gradient matrices if enabled).">
<polygon fill="white" stroke="#666666" points="173.38,-98.75 80.12,-98.75 80.12,-78 173.38,-78 173.38,-98.75"/>
<text xml:space="preserve" text-anchor="middle" x="126.75" y="-85.25" font-family="Helvetica,sans-Serif" font-size="10.00">SimJob::Casimir</text>
</a>
</g>
</g>
<!-- Node3&#45;&gt;Node4 -->
<g id="edge3_Node000003_Node000004" class="edge">
<title>Node3&#45;&gt;Node4</title>
<g id="a_edge3_Node000003_Node000004"><a xlink:title=" ">
<path fill="none" stroke="#63b8ff" d="M232.91,-62.9C213.2,-67.68 191.32,-72.98 172.64,-77.5"/>
<polygon fill="#63b8ff" stroke="#63b8ff" points="233.54,-66.35 242.43,-60.6 231.89,-59.55 233.54,-66.35"/>
</a>
</g>
</g>
<!-- Node6 -->
<g id="Node000006" class="node">
<title>Node6</title>
<g id="a_Node000006"><a xlink:href="classSimJob.html#a20b37e2e0aa2502a3ec465a5705b1774" target="_top" xlink:title="Evaluate fields on a set of points read from a file.">
<polygon fill="white" stroke="#666666" points="176.75,-59.75 76.75,-59.75 76.75,-39 176.75,-39 176.75,-59.75"/>
<text xml:space="preserve" text-anchor="middle" x="126.75" y="-46.25" font-family="Helvetica,sans-Serif" font-size="10.00">SimJob::FieldEval</text>
</a>
</g>
</g>
<!-- Node3&#45;&gt;Node6 -->
<g id="edge5_Node000003_Node000006" class="edge">
<title>Node3&#45;&gt;Node6</title>
<g id="a_edge5_Node000003_Node000006"><a xlink:title=" ">
<path fill="none" stroke="#63b8ff" d="M217.5,-49.38C203.9,-49.38 189.95,-49.38 177.22,-49.38"/>
<polygon fill="#63b8ff" stroke="#63b8ff" points="217.29,-52.88 227.29,-49.38 217.29,-45.88 217.29,-52.88"/>
</a>
</g>
</g>
<!-- Node8 -->
<g id="Node000008" class="node">
<title>Node8</title>
<g id="a_Node000008"><a xlink:href="classSimJob.html#aeca9fd8ceee84fdef75996581fe1093a" target="_top" xlink:title="High&#45;level entry: run a simulation for a given job file.">
<polygon fill="white" stroke="#666666" points="176.38,-20.75 77.12,-20.75 77.12,0 176.38,0 176.38,-20.75"/>
<text xml:space="preserve" text-anchor="middle" x="126.75" y="-7.25" font-family="Helvetica,sans-Serif" font-size="10.00">SimJob::Simulate</text>
</a>
</g>
</g>
<!-- Node3&#45;&gt;Node8 -->
<g id="edge7_Node000003_Node000008" class="edge">
<title>Node3&#45;&gt;Node8</title>
<g id="a_edge7_Node000003_Node000008"><a xlink:title=" ">
<path fill="none" stroke="#63b8ff" d="M232.91,-35.85C213.2,-31.07 191.32,-25.77 172.64,-21.25"/>
<polygon fill="#63b8ff" stroke="#63b8ff" points="231.89,-39.2 242.43,-38.15 233.54,-32.4 231.89,-39.2"/>
</a>
</g>
</g>
<!-- Node5 -->
<g id="Node000005" class="node">
<title>Node5</title>
<g id="a_Node000005"><a xlink:href="casimir_8cpp.html#a0ddf1224851353fc92bfbff6f499fa97" target="_top" xlink:title="Main driver routine for the simulation program.">
<polygon fill="white" stroke="#666666" points="40.75,-98.75 0,-98.75 0,-78 40.75,-78 40.75,-98.75"/>
<text xml:space="preserve" text-anchor="middle" x="20.38" y="-85.25" font-family="Helvetica,sans-Serif" font-size="10.00">main</text>
</a>
</g>
</g>
<!-- Node4&#45;&gt;Node5 -->
<g id="edge4_Node000004_Node000005" class="edge">
<title>Node4&#45;&gt;Node5</title>
<g id="a_edge4_Node000004_Node000005"><a xlink:title=" ">
<path fill="none" stroke="#63b8ff" d="M68.19,-88.38C58.44,-88.38 48.95,-88.38 41.08,-88.38"/>
<polygon fill="#63b8ff" stroke="#63b8ff" points="68.15,-91.88 78.15,-88.38 68.15,-84.88 68.15,-91.88"/>
</a>
</g>
</g>
<!-- Node7 -->
<g id="Node000007" class="node">
<title>Node7</title>
<g id="a_Node000007"><a xlink:href="main_8cpp.html#a0ddf1224851353fc92bfbff6f499fa97" target="_top" xlink:title="Main driver routine for the HELIOS SIE simulation program.">
<polygon fill="white" stroke="#666666" points="40.75,-40.75 0,-40.75 0,-20 40.75,-20 40.75,-40.75"/>
<text xml:space="preserve" text-anchor="middle" x="20.38" y="-27.25" font-family="Helvetica,sans-Serif" font-size="10.00">main</text>
</a>
</g>
</g>
<!-- Node6&#45;&gt;Node7 -->
<g id="edge6_Node000006_Node000007" class="edge">
<title>Node6&#45;&gt;Node7</title>
<g id="a_edge6_Node000006_Node000007"><a xlink:title=" ">
<path fill="none" stroke="#63b8ff" d="M65.26,-38.36C56.6,-36.79 48.26,-35.27 41.22,-33.99"/>
<polygon fill="#63b8ff" stroke="#63b8ff" points="64.36,-41.76 74.82,-40.1 65.61,-34.87 64.36,-41.76"/>
</a>
</g>
</g>
<!-- Node8&#45;&gt;Node7 -->
<g id="edge8_Node000008_Node000007" class="edge">
<title>Node8&#45;&gt;Node7</title>
<g id="a_edge8_Node000008_Node000007"><a xlink:title=" ">
<path fill="none" stroke="#63b8ff" d="M65.69,-21.88C56.88,-23.57 48.38,-25.2 41.22,-26.57"/>
<polygon fill="#63b8ff" stroke="#63b8ff" points="66.27,-25.34 75.44,-20.02 64.96,-18.46 66.27,-25.34"/>
</a>
</g>
</g>
<!-- Node9&#45;&gt;Node6 -->
<g id="edge10_Node000009_Node000006" class="edge">
<title>Node9&#45;&gt;Node6</title>
<g id="a_edge10_Node000009_Node000006"><a xlink:title=" ">
<path fill="none" stroke="#63b8ff" d="M232.91,-23.9C213.2,-28.68 191.32,-33.98 172.64,-38.5"/>
<polygon fill="#63b8ff" stroke="#63b8ff" points="233.54,-27.35 242.43,-21.6 231.89,-20.55 233.54,-27.35"/>
</a>
</g>
</g>
<!-- Node9&#45;&gt;Node8 -->
<g id="edge11_Node000009_Node000008" class="edge">
<title>Node9&#45;&gt;Node8</title>
<g id="a_edge11_Node000009_Node000008"><a xlink:title=" ">
<path fill="none" stroke="#63b8ff" d="M201.06,-10.38C192.7,-10.38 184.44,-10.38 176.65,-10.38"/>
<polygon fill="#63b8ff" stroke="#63b8ff" points="200.98,-13.88 210.98,-10.38 200.98,-6.88 200.98,-13.88"/>
</a>
</g>
</g>
</g>
</svg>
