<?xml version="1.0" encoding="UTF-8" standalone="no"?>
<!DOCTYPE svg PUBLIC "-//W3C//DTD SVG 1.1//EN"
 "http://www.w3.org/Graphics/SVG/1.1/DTD/svg11.dtd">
<!-- Generated by graphviz version 13.1.2 (20250809.0930)
 -->
<!-- Title: GreenFHom3D::IntegrateDelta Pages: 1 -->
<!--zoomable 575 -->

<svg id="main" version="1.1" xmlns="http://www.w3.org/2000/svg" xmlns:xlink="http://www.w3.org/1999/xlink" xml:space="preserve" onload="init(evt)">

<style type="text/css"><![CDATA[
.node, .edge {opacity: 0.7;}
.node.selected, .edge.selected {opacity: 1;}
.edge:hover path { stroke: red; }
.edge:hover polygon { stroke: red; fill: red; }
]]></style>

<defs>
  <circle id="rim" cx="0" cy="0" r="7"/>
  <circle id="rim2" cx="0" cy="0" r="3.5"/>
  <g id="zoomPlus">
    <use xlink:href="#rim" fill="#404040"><set attributeName="fill" to="#808080" begin="zoomplus.mouseover" end="zoomplus.mouseout"/></use>
    <path d="M-4,0h8M0,-4v8" fill="none" stroke="white" stroke-width="1.5" pointer-events="none"/>
  </g>
  <g id="zoomMin">
    <use xlink:href="#rim" fill="#404040"><set attributeName="fill" to="#808080" begin="zoomminus.mouseover" end="zoomminus.mouseout"/></use>
    <path d="M-4,0h8" fill="none" stroke="white" stroke-width="1.5" pointer-events="none"/>
  </g>
  <g id="arrowUp" transform="translate(30 24)">
    <use xlink:href="#rim"/>
    <path pointer-events="none" fill="none" stroke="white" stroke-width="1.5" d="M0,-3.0v7 M-2.5,-0.5L0,-3.0L2.5,-0.5"/>
  </g>
  <g id="arrowRight" transform="rotate(90) translate(36 -43)">
    <use xlink:href="#rim"/>
    <path pointer-events="none" fill="none" stroke="white" stroke-width="1.5" d="M0,-3.0v7 M-2.5,-0.5L0,-3.0L2.5,-0.5"/>
  </g>
  <g id="arrowDown" transform="rotate(180) translate(-30 -48)">
    <use xlink:href="#rim"/>
    <path pointer-events="none" fill="none" stroke="white" stroke-width="1.5" d="M0,-3.0v7 M-2.5,-0.5L0,-3.0L2.5,-0.5"/>
  </g>
  <g id="arrowLeft" transform="rotate(270) translate(-36 17)">
    <use xlink:href="#rim"/>
    <path pointer-events="none" fill="none" stroke="white" stroke-width="1.5" d="M0,-3.0v7 M-2.5,-0.5L0,-3.0L2.5,-0.5"/>
  </g>
  <g id="resetDef">
    <use xlink:href="#rim2" fill="#404040"><set attributeName="fill" to="#808080" begin="reset.mouseover" end="reset.mouseout"/></use>
  </g>
</defs>
<script type="application/ecmascript">
var viewWidth = 669;
var viewHeight = 575;
var sectionId = 'dynsection-14';
</script>
<script type="application/ecmascript" xlink:href="svg.min.js"/>
<svg id="graph" class="graph">
<g id="viewport">
<title>GreenFHom3D::IntegrateDelta</title>
<!-- Node1 -->
<g id="Node000001" class="node">
<title>Node1</title>
<g id="a_Node000001"><a xlink:title="term at an observation point.">
<polygon fill="#999999" stroke="#666666" points="164.5,-293.75 0,-293.75 0,-273 164.5,-273 164.5,-293.75"/>
<text xml:space="preserve" text-anchor="middle" x="82.25" y="-280.25" font-family="Helvetica,sans-Serif" font-size="10.00">GreenFHom3D::IntegrateDelta</text>
</a>
</g>
</g>
<!-- Node2 -->
<g id="Node000002" class="node">
<title>Node2</title>
<g id="a_Node000002"><a xlink:href="classTriangle.html#a1d3d08deeb999f339d2e821a877521ba" target="_top" xlink:title="Surface area of the triangle.">
<polygon fill="white" stroke="#666666" points="334.62,-566.75 251.88,-566.75 251.88,-546 334.62,-546 334.62,-566.75"/>
<text xml:space="preserve" text-anchor="middle" x="293.25" y="-553.25" font-family="Helvetica,sans-Serif" font-size="10.00">Triangle::Area</text>
</a>
</g>
</g>
<!-- Node1&#45;&gt;Node2 -->
<g id="edge1_Node000001_Node000002" class="edge">
<title>Node1&#45;&gt;Node2</title>
<g id="a_edge1_Node000001_Node000002"><a xlink:title=" ">
<path fill="none" stroke="#63b8ff" d="M84.79,-294.08C91.03,-333.31 118.15,-470.37 200.5,-536.38 211.84,-545.47 226.41,-550.65 240.59,-553.55"/>
<polygon fill="#63b8ff" stroke="#63b8ff" points="239.87,-556.98 250.31,-555.16 241.02,-550.07 239.87,-556.98"/>
</a>
</g>
</g>
<!-- Node3 -->
<g id="Node000003" class="node">
<title>Node3</title>
<g id="a_Node000003"><a xlink:href="classTriangle.html#ab78508a340ec5d345adf114b43563dbf" target="_top" xlink:title="Centroid of the triangle.">
<polygon fill="white" stroke="#666666" points="339.5,-527.75 247,-527.75 247,-507 339.5,-507 339.5,-527.75"/>
<text xml:space="preserve" text-anchor="middle" x="293.25" y="-514.25" font-family="Helvetica,sans-Serif" font-size="10.00">Triangle::Center</text>
</a>
</g>
</g>
<!-- Node1&#45;&gt;Node3 -->
<g id="edge2_Node000001_Node000003" class="edge">
<title>Node1&#45;&gt;Node3</title>
<g id="a_edge2_Node000001_Node000003"><a xlink:title=" ">
<path fill="none" stroke="#63b8ff" d="M85.7,-293.89C94.43,-328.96 127.56,-442.83 200.5,-497.38 210.6,-504.92 222.96,-509.74 235.31,-512.78"/>
<polygon fill="#63b8ff" stroke="#63b8ff" points="234.59,-516.21 245.1,-514.8 236.01,-509.35 234.59,-516.21"/>
</a>
</g>
</g>
<!-- Node4 -->
<g id="Node000004" class="node">
<title>Node4</title>
<g id="a_Node000004"><a xlink:href="classGreenFHom3D.html#a049e83f08bff1b6c003a35f478973609" target="_top" xlink:title="Scalar Green&#39;s function .">
<polygon fill="white" stroke="#666666" points="361.62,-488.75 224.88,-488.75 224.88,-468 361.62,-468 361.62,-488.75"/>
<text xml:space="preserve" text-anchor="middle" x="293.25" y="-475.25" font-family="Helvetica,sans-Serif" font-size="10.00">GreenFHom3D::Evaluate</text>
</a>
</g>
</g>
<!-- Node1&#45;&gt;Node4 -->
<g id="edge3_Node000001_Node000004" class="edge">
<title>Node1&#45;&gt;Node4</title>
<g id="a_edge3_Node000001_Node000004"><a xlink:title=" ">
<path fill="none" stroke="#63b8ff" d="M87.1,-294.11C98.78,-325.09 137.01,-415.17 200.5,-458.38 204.71,-461.24 209.25,-463.7 213.99,-465.82"/>
<polygon fill="#63b8ff" stroke="#63b8ff" points="212.62,-469.04 223.21,-469.38 215.14,-462.51 212.62,-469.04"/>
</a>
</g>
</g>
<!-- Node5 -->
<g id="Node000005" class="node">
<title>Node5</title>
<g id="a_Node000005"><a xlink:href="classRWGFun.html#a7540ce2f84c6b42a29c2808504c47d42" target="_top" xlink:title="Evaluate the RWG vector shape function at a point on the triangle.">
<polygon fill="white" stroke="#666666" points="346.25,-449.75 240.25,-449.75 240.25,-429 346.25,-429 346.25,-449.75"/>
<text xml:space="preserve" text-anchor="middle" x="293.25" y="-436.25" font-family="Helvetica,sans-Serif" font-size="10.00">RWGFun::Evaluate</text>
</a>
</g>
</g>
<!-- Node1&#45;&gt;Node5 -->
<g id="edge4_Node000001_Node000005" class="edge">
<title>Node1&#45;&gt;Node5</title>
<g id="a_edge4_Node000001_Node000005"><a xlink:title=" ">
<path fill="none" stroke="#63b8ff" d="M89.03,-293.9C103.85,-319.8 145.85,-386.84 200.5,-419.38 209.24,-424.58 219.18,-428.44 229.2,-431.29"/>
<polygon fill="#63b8ff" stroke="#63b8ff" points="228.05,-434.61 238.6,-433.65 229.75,-427.82 228.05,-434.61"/>
</a>
</g>
</g>
<!-- Node6 -->
<g id="Node000006" class="node">
<title>Node6</title>
<g id="a_Node000006"><a xlink:href="classGreenFHom3D.html#a30fa3b981731ca85587da62ed511f547" target="_top" xlink:title="Gradient w.r.t.">
<polygon fill="white" stroke="#666666" points="361.25,-410.75 225.25,-410.75 225.25,-390 361.25,-390 361.25,-410.75"/>
<text xml:space="preserve" text-anchor="middle" x="293.25" y="-397.25" font-family="Helvetica,sans-Serif" font-size="10.00">GreenFHom3D::Gradient</text>
</a>
</g>
</g>
<!-- Node1&#45;&gt;Node6 -->
<g id="edge5_Node000001_Node000006" class="edge">
<title>Node1&#45;&gt;Node6</title>
<g id="a_edge5_Node000001_Node000006"><a xlink:title=" ">
<path fill="none" stroke="#63b8ff" d="M92.73,-294.05C111.29,-314.26 154.65,-358.06 200.5,-380.38 204.79,-382.46 209.29,-384.33 213.91,-386.01"/>
<polygon fill="#63b8ff" stroke="#63b8ff" points="212.81,-389.33 223.4,-389.11 214.98,-382.68 212.81,-389.33"/>
</a>
</g>
</g>
<!-- Node7 -->
<g id="Node000007" class="node">
<title>Node7</title>
<g id="a_Node000007"><a xlink:href="classGreenFHom3D.html#a39ccf7f27bff59110fb0d667bb74146f" target="_top" xlink:title="Smoothed gradient kernel.">
<polygon fill="white" stroke="#666666" points="386,-371.75 200.5,-371.75 200.5,-351 386,-351 386,-371.75"/>
<text xml:space="preserve" text-anchor="middle" x="293.25" y="-358.25" font-family="Helvetica,sans-Serif" font-size="10.00">GreenFHom3D::GradientSmoothed</text>
</a>
</g>
</g>
<!-- Node1&#45;&gt;Node7 -->
<g id="edge6_Node000001_Node000007" class="edge">
<title>Node1&#45;&gt;Node7</title>
<g id="a_edge6_Node000001_Node000007"><a xlink:title=" ">
<path fill="none" stroke="#63b8ff" d="M101.32,-294.06C123.85,-306.97 163.85,-328.53 200.5,-341.38 207.16,-343.71 214.2,-345.83 221.29,-347.73"/>
<polygon fill="#63b8ff" stroke="#63b8ff" points="220.41,-351.12 230.96,-350.19 222.13,-344.34 220.41,-351.12"/>
</a>
</g>
</g>
<!-- Node8 -->
<g id="Node000008" class="node">
<title>Node8</title>
<g id="a_Node000008"><a xlink:href="classGreenFHom3D.html#ac928f16e6e79c75c002d9a721a8858d8" target="_top" xlink:title="Default constructor (initializes with zeroed wavenumber and no lookup table).">
<polygon fill="white" stroke="#666666" points="376.25,-332.75 210.25,-332.75 210.25,-312 376.25,-312 376.25,-332.75"/>
<text xml:space="preserve" text-anchor="middle" x="293.25" y="-319.25" font-family="Helvetica,sans-Serif" font-size="10.00">GreenFHom3D::GreenFHom3D</text>
</a>
</g>
</g>
<!-- Node1&#45;&gt;Node8 -->
<g id="edge7_Node000001_Node000008" class="edge">
<title>Node1&#45;&gt;Node8</title>
<g id="a_edge7_Node000001_Node000008"><a xlink:title=" ">
<path fill="none" stroke="#63b8ff" d="M141.47,-294.24C166.73,-298.95 196.51,-304.51 222.9,-309.43"/>
<polygon fill="#63b8ff" stroke="#63b8ff" points="222.02,-312.83 232.49,-311.22 223.31,-305.95 222.02,-312.83"/>
</a>
</g>
</g>
<!-- Node12 -->
<g id="Node000012" class="node">
<title>Node12</title>
<g id="a_Node000012"><a xlink:href="classSingSub.html#aed0bb257cd3c94dccd5b6cc0ecdd1c5e" target="_top" xlink:title="K2(q) vector term.">
<polygon fill="white" stroke="#666666" points="330.12,-293.75 256.38,-293.75 256.38,-273 330.12,-273 330.12,-293.75"/>
<text xml:space="preserve" text-anchor="middle" x="293.25" y="-280.25" font-family="Helvetica,sans-Serif" font-size="10.00">SingSub::K2</text>
</a>
</g>
</g>
<!-- Node1&#45;&gt;Node12 -->
<g id="edge12_Node000001_Node000012" class="edge">
<title>Node1&#45;&gt;Node12</title>
<g id="a_edge12_Node000001_Node000012"><a xlink:title=" ">
<path fill="none" stroke="#63b8ff" d="M164.95,-283.38C191.89,-283.38 220.94,-283.38 244.49,-283.38"/>
<polygon fill="#63b8ff" stroke="#63b8ff" points="244.4,-286.88 254.4,-283.38 244.4,-279.88 244.4,-286.88"/>
</a>
</g>
</g>
<!-- Node13 -->
<g id="Node000013" class="node">
<title>Node13</title>
<g id="a_Node000013"><a xlink:href="classSingSub.html#a3e9e0b5a61df98d8f8138544c7df3da0" target="_top" xlink:title="K3(q) vector term.">
<polygon fill="white" stroke="#666666" points="330.12,-254.75 256.38,-254.75 256.38,-234 330.12,-234 330.12,-254.75"/>
<text xml:space="preserve" text-anchor="middle" x="293.25" y="-241.25" font-family="Helvetica,sans-Serif" font-size="10.00">SingSub::K3</text>
</a>
</g>
</g>
<!-- Node1&#45;&gt;Node13 -->
<g id="edge13_Node000001_Node000013" class="edge">
<title>Node1&#45;&gt;Node13</title>
<g id="a_edge13_Node000001_Node000013"><a xlink:title=" ">
<path fill="none" stroke="#63b8ff" d="M141.47,-272.51C174.03,-266.44 214.1,-258.96 244.74,-253.24"/>
<polygon fill="#63b8ff" stroke="#63b8ff" points="245.32,-256.69 254.51,-251.42 244.03,-249.81 245.32,-256.69"/>
</a>
</g>
</g>
<!-- Node14 -->
<g id="Node000014" class="node">
<title>Node14</title>
<g id="a_Node000014"><a xlink:href="classTriangle.html#a0752d2c9488c7c44b851b8f75abcaa79" target="_top" xlink:title="Node position (by value) for local index 0..2.">
<polygon fill="white" stroke="#666666" points="336.12,-215.75 250.38,-215.75 250.38,-195 336.12,-195 336.12,-215.75"/>
<text xml:space="preserve" text-anchor="middle" x="293.25" y="-202.25" font-family="Helvetica,sans-Serif" font-size="10.00">Triangle::Node</text>
</a>
</g>
</g>
<!-- Node1&#45;&gt;Node14 -->
<g id="edge14_Node000001_Node000014" class="edge">
<title>Node1&#45;&gt;Node14</title>
<g id="a_edge14_Node000001_Node000014"><a xlink:title=" ">
<path fill="none" stroke="#63b8ff" d="M101.32,-272.69C123.85,-259.78 163.85,-238.22 200.5,-225.38 212.76,-221.08 226.27,-217.52 239.07,-214.66"/>
<polygon fill="#63b8ff" stroke="#63b8ff" points="239.55,-218.13 248.61,-212.63 238.1,-211.29 239.55,-218.13"/>
</a>
</g>
</g>
<!-- Node15 -->
<g id="Node000015" class="node">
<title>Node15</title>
<g id="a_Node000015"><a xlink:href="classTriangle.html#a6e7daa074db3d147b33763bfd2a6e83b" target="_top" xlink:title="Perimeter (sum of edge lengths).">
<polygon fill="white" stroke="#666666" points="347.38,-176.75 239.12,-176.75 239.12,-156 347.38,-156 347.38,-176.75"/>
<text xml:space="preserve" text-anchor="middle" x="293.25" y="-163.25" font-family="Helvetica,sans-Serif" font-size="10.00">Triangle::Perimeter</text>
</a>
</g>
</g>
<!-- Node1&#45;&gt;Node15 -->
<g id="edge15_Node000001_Node000015" class="edge">
<title>Node1&#45;&gt;Node15</title>
<g id="a_edge15_Node000001_Node000015"><a xlink:title=" ">
<path fill="none" stroke="#63b8ff" d="M92.73,-272.7C111.29,-252.49 154.65,-208.69 200.5,-186.38 209.03,-182.22 218.43,-178.92 227.86,-176.31"/>
<polygon fill="#63b8ff" stroke="#63b8ff" points="228.58,-179.73 237.42,-173.9 226.87,-172.95 228.58,-179.73"/>
</a>
</g>
</g>
<!-- Node16 -->
<g id="Node000016" class="node">
<title>Node16</title>
<g id="a_Node000016"><a xlink:href="classRWGFun.html#a7cd7779305937d48196453e53d0d4df8" target="_top" xlink:title="Return L_n / A_n (missing factor 1/2 by convention).">
<polygon fill="white" stroke="#666666" points="359.38,-137.75 227.12,-137.75 227.12,-117 359.38,-117 359.38,-137.75"/>
<text xml:space="preserve" text-anchor="middle" x="293.25" y="-124.25" font-family="Helvetica,sans-Serif" font-size="10.00">RWGFun::RWGPreFactor</text>
</a>
</g>
</g>
<!-- Node1&#45;&gt;Node16 -->
<g id="edge16_Node000001_Node000016" class="edge">
<title>Node1&#45;&gt;Node16</title>
<g id="a_edge16_Node000001_Node000016"><a xlink:title=" ">
<path fill="none" stroke="#63b8ff" d="M89.03,-272.85C103.85,-246.95 145.85,-179.91 200.5,-147.38 205.45,-144.43 210.78,-141.91 216.3,-139.77"/>
<polygon fill="#63b8ff" stroke="#63b8ff" points="217.32,-143.12 225.64,-136.57 215.05,-136.5 217.32,-143.12"/>
</a>
</g>
</g>
<!-- Node17 -->
<g id="Node000017" class="node">
<title>Node17</title>
<g id="a_Node000017"><a xlink:href="classSingSub.html#a20337fe20529d26c1775c8ba6d47cad0" target="_top" xlink:title="Preferred initialization that fills all cached arrays (ILar/ISar).">
<polygon fill="white" stroke="#666666" points="362.75,-98.75 223.75,-98.75 223.75,-78 362.75,-78 362.75,-98.75"/>
<text xml:space="preserve" text-anchor="middle" x="293.25" y="-85.25" font-family="Helvetica,sans-Serif" font-size="10.00">SingSub::SetTriangleRWG</text>
</a>
</g>
</g>
<!-- Node1&#45;&gt;Node17 -->
<g id="edge17_Node000001_Node000017" class="edge">
<title>Node1&#45;&gt;Node17</title>
<g id="a_edge17_Node000001_Node000017"><a xlink:title=" ">
<path fill="none" stroke="#63b8ff" d="M87.1,-272.64C98.78,-241.66 137.01,-151.58 200.5,-108.38 204.44,-105.69 208.68,-103.36 213.1,-101.34"/>
<polygon fill="#63b8ff" stroke="#63b8ff" points="214.26,-104.64 222.26,-97.71 211.68,-98.14 214.26,-104.64"/>
</a>
</g>
</g>
<!-- Node18 -->
<g id="Node000018" class="node">
<title>Node18</title>
<g id="a_Node000018"><a xlink:href="classGreenFHom3D.html#adff9d901394dd07c05a111b607c89075" target="_top" xlink:title="Smoothed scalar kernel used under singularity subtraction.">
<polygon fill="white" stroke="#666666" points="365,-59.75 221.5,-59.75 221.5,-39 365,-39 365,-59.75"/>
<text xml:space="preserve" text-anchor="middle" x="293.25" y="-46.25" font-family="Helvetica,sans-Serif" font-size="10.00">GreenFHom3D::Smoothed</text>
</a>
</g>
</g>
<!-- Node1&#45;&gt;Node18 -->
<g id="edge18_Node000001_Node000018" class="edge">
<title>Node1&#45;&gt;Node18</title>
<g id="a_edge18_Node000001_Node000018"><a xlink:title=" ">
<path fill="none" stroke="#63b8ff" d="M85.7,-272.86C94.43,-237.79 127.56,-123.92 200.5,-69.38 203.83,-66.89 207.41,-64.69 211.15,-62.76"/>
<polygon fill="#63b8ff" stroke="#63b8ff" points="212.26,-66.1 219.99,-58.86 209.43,-59.7 212.26,-66.1"/>
</a>
</g>
</g>
<!-- Node19 -->
<g id="Node000019" class="node">
<title>Node19</title>
<g id="a_Node000019"><a xlink:href="classRWGFun.html#a6d9c854fc60bc02cb51ffb60cf388ccc" target="_top" xlink:title="Get the pointer to the owner Triangle.">
<polygon fill="white" stroke="#666666" points="350.75,-20.75 235.75,-20.75 235.75,0 350.75,0 350.75,-20.75"/>
<text xml:space="preserve" text-anchor="middle" x="293.25" y="-7.25" font-family="Helvetica,sans-Serif" font-size="10.00">RWGFun::TrianglePtr</text>
</a>
</g>
</g>
<!-- Node1&#45;&gt;Node19 -->
<g id="edge19_Node000001_Node000019" class="edge">
<title>Node1&#45;&gt;Node19</title>
<g id="a_edge19_Node000001_Node000019"><a xlink:title=" ">
<path fill="none" stroke="#63b8ff" d="M84.79,-272.67C91.03,-233.44 118.15,-96.38 200.5,-30.38 207.48,-24.78 215.67,-20.67 224.25,-17.66"/>
<polygon fill="#63b8ff" stroke="#63b8ff" points="225.21,-21.02 233.8,-14.83 223.22,-14.31 225.21,-21.02"/>
</a>
</g>
</g>
<!-- Node9 -->
<g id="Node000009" class="node">
<title>Node9</title>
<g id="a_Node000009"><a xlink:href="classGreenF.html#a332ac24f39288170f77c18f37fde2c82" target="_top" xlink:title="Constructor for a homogeneous, non&#45;magnetic medium.">
<polygon fill="white" stroke="#666666" points="513.75,-332.75 422,-332.75 422,-312 513.75,-312 513.75,-332.75"/>
<text xml:space="preserve" text-anchor="middle" x="467.88" y="-319.25" font-family="Helvetica,sans-Serif" font-size="10.00">GreenF::GreenF</text>
</a>
</g>
</g>
<!-- Node8&#45;&gt;Node9 -->
<g id="edge8_Node000008_Node000009" class="edge">
<title>Node8&#45;&gt;Node9</title>
<g id="a_edge8_Node000008_Node000009"><a xlink:title=" ">
<path fill="none" stroke="#63b8ff" d="M376.52,-322.38C388,-322.38 399.57,-322.38 410.43,-322.38"/>
<polygon fill="#63b8ff" stroke="#63b8ff" points="410.37,-325.88 420.37,-322.38 410.37,-318.88 410.37,-325.88"/>
</a>
</g>
</g>
<!-- Node10 -->
<g id="Node000010" class="node">
<title>Node10</title>
<g id="a_Node000010"><a xlink:href="group__greenFunction.html#gac0a52dce23be7dacdf97c68653b6c137" target="_top" xlink:title="Complex square root with a branch cut along the negative real axis.">
<polygon fill="white" stroke="#666666" points="589.75,-332.75 549.75,-332.75 549.75,-312 589.75,-312 589.75,-332.75"/>
<text xml:space="preserve" text-anchor="middle" x="569.75" y="-319.25" font-family="Helvetica,sans-Serif" font-size="10.00">csqrt</text>
</a>
</g>
</g>
<!-- Node9&#45;&gt;Node10 -->
<g id="edge9_Node000009_Node000010" class="edge">
<title>Node9&#45;&gt;Node10</title>
<g id="a_edge9_Node000009_Node000010"><a xlink:title=" ">
<path fill="none" stroke="#63b8ff" d="M514.14,-322.38C522.17,-322.38 530.36,-322.38 537.88,-322.38"/>
<polygon fill="#63b8ff" stroke="#63b8ff" points="537.86,-325.88 547.86,-322.38 537.86,-318.88 537.86,-325.88"/>
</a>
</g>
</g>
<!-- Node11 -->
<g id="Node000011" class="node">
<title>Node11</title>
<g id="a_Node000011"><a xlink:href="Domain_8cpp.html#aafa3e4fa6318b2f8740f4dbd50c367e5" target="_top" xlink:title="Extract the real part of each component of a complex 3&#45;vector.">
<polygon fill="white" stroke="#666666" points="660.5,-332.75 625.75,-332.75 625.75,-312 660.5,-312 660.5,-332.75"/>
<text xml:space="preserve" text-anchor="middle" x="643.12" y="-319.25" font-family="Helvetica,sans-Serif" font-size="10.00">real</text>
</a>
</g>
</g>
<!-- Node10&#45;&gt;Node11 -->
<g id="edge10_Node000010_Node000011" class="edge">
<title>Node10&#45;&gt;Node11</title>
<g id="a_edge10_Node000010_Node000011"><a xlink:title=" ">
<path fill="none" stroke="#63b8ff" d="M589.88,-322.38C597.31,-322.38 605.98,-322.38 614.09,-322.38"/>
<polygon fill="#63b8ff" stroke="#63b8ff" points="613.86,-325.88 623.86,-322.38 613.86,-318.88 613.86,-325.88"/>
</a>
</g>
</g>
<!-- Node11&#45;&gt;Node11 -->
<g id="edge11_Node000011_Node000011" class="edge">
<title>Node11&#45;&gt;Node11</title>
<g id="a_edge11_Node000011_Node000011"><a xlink:title=" ">
<path fill="none" stroke="#63b8ff" d="M631.3,-333.15C626.57,-341.81 630.51,-350.75 643.12,-350.75 649.82,-350.75 654.08,-348.23 655.88,-344.56"/>
<polygon fill="#63b8ff" stroke="#63b8ff" points="659.38,-344.34 655.07,-334.66 652.4,-344.91 659.38,-344.34"/>
</a>
</g>
</g>
</g>
</svg>

<g id="navigator" transform="translate(0 0)" fill="#404254">
  <rect fill="#f2f5e9" fill-opacity="0.5" stroke="#606060" stroke-width=".5" x="0" y="0" width="60" height="60"/>
  <use id="zoomplus" xlink:href="#zoomPlus" x="17" y="9" onmousedown="handleZoom(evt,'in')"/>
  <use id="zoomminus" xlink:href="#zoomMin" x="42" y="9" onmousedown="handleZoom(evt,'out')"/>
  <use id="reset" xlink:href="#resetDef" x="30" y="36" onmousedown="handleReset()"/>
   <use id="arrowup" xlink:href="#arrowUp" x="0" y="0" onmousedown="handlePan(0,-1)"/>
  <use id="arrowright" xlink:href="#arrowRight" x="0" y="0" onmousedown="handlePan(1,0)"/>
  <use id="arrowdown" xlink:href="#arrowDown" x="0" y="0" onmousedown="handlePan(0,1)"/>
  <use id="arrowleft" xlink:href="#arrowLeft" x="0" y="0" onmousedown="handlePan(-1,0)"/>
</g>
<svg viewBox="0 0 15 15" width="100%" height="30px" preserveAspectRatio="xMaxYMin meet">
 <g id="arrow_out" transform="scale(0.3 0.3)">
  <a xlink:href="classGreenFHom3D_aca136b03c44ad1da34acf91eb5a5e390_cgraph_org.svg" target="_base">
   <rect id="button" ry="5" rx="5" y="6" x="6" height="38" width="38"
        fill="#f2f5e9" fill-opacity="0.5" stroke="#606060" stroke-width="1.0"/>
   <path id="arrow"
     d="M 11.500037,31.436501 C 11.940474,20.09759 22.043105,11.32322 32.158766,21.979434 L 37.068811,17.246167 C 37.068811,17.246167 37.088388,32 37.088388,32 L 22.160133,31.978069 C 22.160133,31.978069 26.997745,27.140456 26.997745,27.140456 C 18.528582,18.264221 13.291696,25.230495 11.500037,31.436501 z"
     style="fill:#404040;"/>
  </a>
 </g>
</svg>

<style type='text/css'>
<![CDATA[
[data-mouse-over-selected='false'] { opacity: 0.7; }
[data-mouse-over-selected='true']  { opacity: 1.0; }
]]>
</style>
<script type="application/ecmascript"><![CDATA[
document.addEventListener('DOMContentLoaded', (event) => {
  highlightEdges();
  highlightAdjacentNodes();
});
]]></script>
</svg>
