<?xml version="1.0" encoding="UTF-8" standalone="no"?>
<!DOCTYPE svg PUBLIC "-//W3C//DTD SVG 1.1//EN"
 "http://www.w3.org/Graphics/SVG/1.1/DTD/svg11.dtd">
<!-- Generated by graphviz version 13.1.2 (20250809.0930)
 -->
<!-- Title: GreenFLayered3D::FillInter Pages: 1 -->
<svg width="577pt" height="68pt"
 viewBox="0.00 0.00 577.00 68.00" xmlns="http://www.w3.org/2000/svg" xmlns:xlink="http://www.w3.org/1999/xlink">
<g id="graph0" class="graph" transform="scale(1 1) rotate(0) translate(4 63.75)">
<title>GreenFLayered3D::FillInter</title>
<!-- Node1 -->
<g id="Node000001" class="node">
<title>Node1</title>
<g id="a_Node000001"><a xlink:title="Fill inter&#45;layer tables between two different layers.">
<polygon fill="#999999" stroke="#666666" points="569.25,-39.75 422.75,-39.75 422.75,-19 569.25,-19 569.25,-39.75"/>
<text xml:space="preserve" text-anchor="middle" x="496" y="-26.25" font-family="Helvetica,sans-Serif" font-size="10.00">GreenFLayered3D::FillInter</text>
</a>
</g>
</g>
<!-- Node2 -->
<g id="Node000002" class="node">
<title>Node2</title>
<g id="a_Node000002"><a xlink:href="classGreenFLayered3D.html#ac014fbe12a1544418cc22938332942a4" target="_top" xlink:title="Fill all interpolation tables with Green&#39;s function values.">
<polygon fill="white" stroke="#666666" points="386.75,-46.12 233.5,-46.12 233.5,-12.62 386.75,-12.62 386.75,-46.12"/>
<text xml:space="preserve" text-anchor="start" x="241.5" y="-32.62" font-family="Helvetica,sans-Serif" font-size="10.00">GreenFLayered3D::FillGreen</text>
<text xml:space="preserve" text-anchor="middle" x="310.12" y="-19.88" font-family="Helvetica,sans-Serif" font-size="10.00">FTable</text>
</a>
</g>
</g>
<!-- Node1&#45;&gt;Node2 -->
<g id="edge1_Node000001_Node000002" class="edge">
<title>Node1&#45;&gt;Node2</title>
<g id="a_edge1_Node000001_Node000002"><a xlink:title=" ">
<path fill="none" stroke="#63b8ff" d="M410.85,-29.38C402.97,-29.38 395,-29.38 387.2,-29.38"/>
<polygon fill="#63b8ff" stroke="#63b8ff" points="410.81,-32.88 420.81,-29.38 410.81,-25.88 410.81,-32.88"/>
</a>
</g>
</g>
<!-- Node3 -->
<g id="Node000003" class="node">
<title>Node3</title>
<g id="a_Node000003"><a xlink:href="classGreenFLayered3D.html#a4f699484c9505951b38acc2cb5fa3194" target="_top" xlink:title="Construct layered Green&#39;s function (magnetic layers).">
<polygon fill="white" stroke="#666666" points="197.5,-59.75 0,-59.75 0,-39 197.5,-39 197.5,-59.75"/>
<text xml:space="preserve" text-anchor="middle" x="98.75" y="-46.25" font-family="Helvetica,sans-Serif" font-size="10.00">GreenFLayered3D::GreenFLayered3D</text>
</a>
</g>
</g>
<!-- Node2&#45;&gt;Node3 -->
<g id="edge2_Node000002_Node000003" class="edge">
<title>Node2&#45;&gt;Node3</title>
<g id="a_edge2_Node000002_Node000003"><a xlink:title=" ">
<path fill="none" stroke="#63b8ff" d="M221.81,-37.72C213.93,-38.47 205.91,-39.23 197.94,-40"/>
<polygon fill="#63b8ff" stroke="#63b8ff" points="222.11,-41.2 231.73,-36.77 221.45,-34.23 222.11,-41.2"/>
</a>
</g>
</g>
<!-- Node4 -->
<g id="Node000004" class="node">
<title>Node4</title>
<g id="a_Node000004"><a xlink:href="classGreenFLayered3D.html#a865947398024c01996eba4018b9201b7" target="_top" xlink:title="Construct layered Green&#39;s function (non&#45;magnetic layers).">
<polygon fill="white" stroke="#666666" points="197.5,-20.75 0,-20.75 0,0 197.5,0 197.5,-20.75"/>
<text xml:space="preserve" text-anchor="middle" x="98.75" y="-7.25" font-family="Helvetica,sans-Serif" font-size="10.00">GreenFLayered3D::GreenFLayered3D</text>
</a>
</g>
</g>
<!-- Node2&#45;&gt;Node4 -->
<g id="edge3_Node000002_Node000004" class="edge">
<title>Node2&#45;&gt;Node4</title>
<g id="a_edge3_Node000002_Node000004"><a xlink:title=" ">
<path fill="none" stroke="#63b8ff" d="M221.81,-21.45C213.93,-20.74 205.91,-20.01 197.94,-19.29"/>
<polygon fill="#63b8ff" stroke="#63b8ff" points="221.46,-24.93 231.73,-22.35 222.09,-17.96 221.46,-24.93"/>
</a>
</g>
</g>
</g>
</svg>
