<?xml version="1.0" encoding="UTF-8" standalone="no"?>
<!DOCTYPE svg PUBLIC "-//W3C//DTD SVG 1.1//EN"
 "http://www.w3.org/Graphics/SVG/1.1/DTD/svg11.dtd">
<!-- Generated by graphviz version 13.1.2 (20250809.0930)
 -->
<!-- Title: SurfaceMesh::AddEdgeTested Pages: 1 -->
<svg width="854pt" height="107pt"
 viewBox="0.00 0.00 854.00 107.00" xmlns="http://www.w3.org/2000/svg" xmlns:xlink="http://www.w3.org/1999/xlink">
<g id="graph0" class="graph" transform="scale(1 1) rotate(0) translate(4 102.75)">
<title>SurfaceMesh::AddEdgeTested</title>
<!-- Node1 -->
<g id="Node000001" class="node">
<title>Node1</title>
<g id="a_Node000001"><a xlink:title="Insert edge (n1,n2) if not already present (directly or via BC image).">
<polygon fill="#999999" stroke="#666666" points="845.75,-59.75 686.5,-59.75 686.5,-39 845.75,-39 845.75,-59.75"/>
<text xml:space="preserve" text-anchor="middle" x="766.12" y="-46.25" font-family="Helvetica,sans-Serif" font-size="10.00">SurfaceMesh::AddEdgeTested</text>
</a>
</g>
</g>
<!-- Node2 -->
<g id="Node000002" class="node">
<title>Node2</title>
<g id="a_Node000002"><a xlink:href="classSurfaceMesh.html#ad8ac4a9fe716d917b92e245d091ab553" target="_top" xlink:title="Read mesh from the custom &quot;.mesh&quot; text format.">
<polygon fill="white" stroke="#666666" points="646.38,-98.75 469.88,-98.75 469.88,-78 646.38,-78 646.38,-98.75"/>
<text xml:space="preserve" text-anchor="middle" x="558.12" y="-85.25" font-family="Helvetica,sans-Serif" font-size="10.00">SurfaceMesh::LoadFromMeshFile</text>
</a>
</g>
</g>
<!-- Node1&#45;&gt;Node2 -->
<g id="edge1_Node000001_Node000002" class="edge">
<title>Node1&#45;&gt;Node2</title>
<g id="a_edge1_Node000001_Node000002"><a xlink:title=" ">
<path fill="none" stroke="#63b8ff" d="M696.47,-62.37C670.55,-67.28 641.35,-72.81 616.56,-77.5"/>
<polygon fill="#63b8ff" stroke="#63b8ff" points="697.08,-65.82 706.26,-60.52 695.78,-58.94 697.08,-65.82"/>
</a>
</g>
</g>
<!-- Node6 -->
<g id="Node000006" class="node">
<title>Node6</title>
<g id="a_Node000006"><a xlink:href="classSurfaceMesh.html#ab392f262cacf93c286ef49cbe95f2a66" target="_top" xlink:title="Read mesh from a COMSOL &quot;.mphtxt&quot; file.">
<polygon fill="white" stroke="#666666" points="650.5,-59.75 465.75,-59.75 465.75,-39 650.5,-39 650.5,-59.75"/>
<text xml:space="preserve" text-anchor="middle" x="558.12" y="-46.25" font-family="Helvetica,sans-Serif" font-size="10.00">SurfaceMesh::LoadFromMphtxtFile</text>
</a>
</g>
</g>
<!-- Node1&#45;&gt;Node6 -->
<g id="edge5_Node000001_Node000006" class="edge">
<title>Node1&#45;&gt;Node6</title>
<g id="a_edge5_Node000001_Node000006"><a xlink:title=" ">
<path fill="none" stroke="#63b8ff" d="M674.56,-49.38C666.64,-49.38 658.62,-49.38 650.7,-49.38"/>
<polygon fill="#63b8ff" stroke="#63b8ff" points="674.56,-52.88 684.56,-49.38 674.56,-45.88 674.56,-52.88"/>
</a>
</g>
</g>
<!-- Node7 -->
<g id="Node000007" class="node">
<title>Node7</title>
<g id="a_Node000007"><a xlink:href="classSurfaceMesh.html#ae7486b3dfa647ae8ee6063bd6297f5ff" target="_top" xlink:title="Read mesh from a Gmsh &quot;.msh&quot; file (v2 text).">
<polygon fill="white" stroke="#666666" points="643.38,-20.75 472.88,-20.75 472.88,0 643.38,0 643.38,-20.75"/>
<text xml:space="preserve" text-anchor="middle" x="558.12" y="-7.25" font-family="Helvetica,sans-Serif" font-size="10.00">SurfaceMesh::LoadFromMshFile</text>
</a>
</g>
</g>
<!-- Node1&#45;&gt;Node7 -->
<g id="edge7_Node000001_Node000007" class="edge">
<title>Node1&#45;&gt;Node7</title>
<g id="a_edge7_Node000001_Node000007"><a xlink:title=" ">
<path fill="none" stroke="#63b8ff" d="M696.47,-36.38C670.55,-31.47 641.35,-25.94 616.56,-21.25"/>
<polygon fill="#63b8ff" stroke="#63b8ff" points="695.78,-39.81 706.26,-38.23 697.08,-32.93 695.78,-39.81"/>
</a>
</g>
</g>
<!-- Node3 -->
<g id="Node000003" class="node">
<title>Node3</title>
<g id="a_Node000003"><a xlink:href="classSurfaceMesh.html#aa64ebb4992ea98778f79c272568c68d2" target="_top" xlink:title="Load a mesh from file by extension.">
<polygon fill="white" stroke="#666666" points="429.75,-59.75 279.5,-59.75 279.5,-39 429.75,-39 429.75,-59.75"/>
<text xml:space="preserve" text-anchor="middle" x="354.62" y="-46.25" font-family="Helvetica,sans-Serif" font-size="10.00">SurfaceMesh::LoadFromFile</text>
</a>
</g>
</g>
<!-- Node2&#45;&gt;Node3 -->
<g id="edge2_Node000002_Node000003" class="edge">
<title>Node2&#45;&gt;Node3</title>
<g id="a_edge2_Node000002_Node000003"><a xlink:title=" ">
<path fill="none" stroke="#63b8ff" d="M489.97,-75.38C464.62,-70.47 436.05,-64.94 411.8,-60.25"/>
<polygon fill="#63b8ff" stroke="#63b8ff" points="489.03,-78.76 499.51,-77.22 490.36,-71.89 489.03,-78.76"/>
</a>
</g>
</g>
<!-- Node4 -->
<g id="Node000004" class="node">
<title>Node4</title>
<g id="a_Node000004"><a xlink:href="classSurfaceMesh.html#aa8811e2b8b03caa6028d5d154a69ea71" target="_top" xlink:title="Convert/modify a mesh according to a conversion job file.">
<polygon fill="white" stroke="#666666" points="243.5,-59.75 76.75,-59.75 76.75,-39 243.5,-39 243.5,-59.75"/>
<text xml:space="preserve" text-anchor="middle" x="160.12" y="-46.25" font-family="Helvetica,sans-Serif" font-size="10.00">SurfaceMesh::ConvertMeshFile</text>
</a>
</g>
</g>
<!-- Node3&#45;&gt;Node4 -->
<g id="edge3_Node000003_Node000004" class="edge">
<title>Node3&#45;&gt;Node4</title>
<g id="a_edge3_Node000003_Node000004"><a xlink:title=" ">
<path fill="none" stroke="#63b8ff" d="M267.73,-49.38C259.84,-49.38 251.85,-49.38 243.99,-49.38"/>
<polygon fill="#63b8ff" stroke="#63b8ff" points="267.69,-52.88 277.69,-49.38 267.69,-45.88 267.69,-52.88"/>
</a>
</g>
</g>
<!-- Node5 -->
<g id="Node000005" class="node">
<title>Node5</title>
<g id="a_Node000005"><a xlink:href="main_8cpp.html#a0ddf1224851353fc92bfbff6f499fa97" target="_top" xlink:title="Main driver routine for the HELIOS SIE simulation program.">
<polygon fill="white" stroke="#666666" points="40.75,-59.75 0,-59.75 0,-39 40.75,-39 40.75,-59.75"/>
<text xml:space="preserve" text-anchor="middle" x="20.38" y="-46.25" font-family="Helvetica,sans-Serif" font-size="10.00">main</text>
</a>
</g>
</g>
<!-- Node4&#45;&gt;Node5 -->
<g id="edge4_Node000004_Node000005" class="edge">
<title>Node4&#45;&gt;Node5</title>
<g id="a_edge4_Node000004_Node000005"><a xlink:title=" ">
<path fill="none" stroke="#63b8ff" d="M65.11,-49.38C56.26,-49.38 48.05,-49.38 41.19,-49.38"/>
<polygon fill="#63b8ff" stroke="#63b8ff" points="65.1,-52.88 75.1,-49.38 65.1,-45.88 65.1,-52.88"/>
</a>
</g>
</g>
<!-- Node6&#45;&gt;Node3 -->
<g id="edge6_Node000006_Node000003" class="edge">
<title>Node6&#45;&gt;Node3</title>
<g id="a_edge6_Node000006_Node000003"><a xlink:title=" ">
<path fill="none" stroke="#63b8ff" d="M454.09,-49.38C446.01,-49.38 437.95,-49.38 430.11,-49.38"/>
<polygon fill="#63b8ff" stroke="#63b8ff" points="454,-52.88 464,-49.38 454,-45.88 454,-52.88"/>
</a>
</g>
</g>
<!-- Node7&#45;&gt;Node3 -->
<g id="edge8_Node000007_Node000003" class="edge">
<title>Node7&#45;&gt;Node3</title>
<g id="a_edge8_Node000007_Node000003"><a xlink:title=" ">
<path fill="none" stroke="#63b8ff" d="M489.97,-23.37C464.62,-28.28 436.05,-33.81 411.8,-38.5"/>
<polygon fill="#63b8ff" stroke="#63b8ff" points="490.36,-26.86 499.51,-21.53 489.03,-19.99 490.36,-26.86"/>
</a>
</g>
</g>
</g>
</svg>
