<?xml version="1.0" encoding="UTF-8" standalone="no"?>
<!DOCTYPE svg PUBLIC "-//W3C//DTD SVG 1.1//EN"
 "http://www.w3.org/Graphics/SVG/1.1/DTD/svg11.dtd">
<!-- Generated by graphviz version 13.1.2 (20250809.0930)
 -->
<!-- Title: GreenFHom3DPer2D::EwaldAndGradientSpectral Pages: 1 -->
<svg width="612pt" height="132pt"
 viewBox="0.00 0.00 612.00 132.00" xmlns="http://www.w3.org/2000/svg" xmlns:xlink="http://www.w3.org/1999/xlink">
<g id="graph0" class="graph" transform="scale(1 1) rotate(0) translate(4 128.12)">
<title>GreenFHom3DPer2D::EwaldAndGradientSpectral</title>
<!-- Node1 -->
<g id="Node000001" class="node">
<title>Node1</title>
<g id="a_Node000001"><a xlink:title="Spectral part returning .">
<polygon fill="#999999" stroke="#666666" points="603.75,-75.12 432.5,-75.12 432.5,-41.62 603.75,-41.62 603.75,-75.12"/>
<text xml:space="preserve" text-anchor="start" x="440.5" y="-61.62" font-family="Helvetica,sans-Serif" font-size="10.00">GreenFHom3DPer2D::EwaldAnd</text>
<text xml:space="preserve" text-anchor="middle" x="518.12" y="-48.88" font-family="Helvetica,sans-Serif" font-size="10.00">GradientSpectral</text>
</a>
</g>
</g>
<!-- Node2 -->
<g id="Node000002" class="node">
<title>Node2</title>
<g id="a_Node000002"><a xlink:href="classGreenFHom3DPer2D.html#ab49a15bcfe7b44d2338c9182f003d385" target="_top" xlink:title="Evaluate &#160;(smoothed) for a translation in one call.">
<polygon fill="white" stroke="#666666" points="396.5,-101.12 212.5,-101.12 212.5,-67.62 396.5,-67.62 396.5,-101.12"/>
<text xml:space="preserve" text-anchor="start" x="220.5" y="-87.62" font-family="Helvetica,sans-Serif" font-size="10.00">GreenFHom3DPer2D::Evaluateand</text>
<text xml:space="preserve" text-anchor="middle" x="304.5" y="-74.88" font-family="Helvetica,sans-Serif" font-size="10.00">GradientSmoothedTranslate</text>
</a>
</g>
</g>
<!-- Node1&#45;&gt;Node2 -->
<g id="edge1_Node000001_Node000002" class="edge">
<title>Node1&#45;&gt;Node2</title>
<g id="a_edge1_Node000001_Node000002"><a xlink:title=" ">
<path fill="none" stroke="#63b8ff" d="M421.02,-70.18C413.01,-71.17 404.93,-72.16 396.96,-73.14"/>
<polygon fill="#63b8ff" stroke="#63b8ff" points="421.27,-73.68 430.77,-68.98 420.41,-66.73 421.27,-73.68"/>
</a>
</g>
</g>
<!-- Node6 -->
<g id="Node000006" class="node">
<title>Node6</title>
<g id="a_Node000006"><a xlink:href="classGreenFHom3DPer2D.html#aea4d858bd544ba5e9a8de1197b572b4e" target="_top" xlink:title="Evaluate &#160;for a translation in one call.">
<polygon fill="white" stroke="#666666" points="396.5,-49.12 212.5,-49.12 212.5,-15.62 396.5,-15.62 396.5,-49.12"/>
<text xml:space="preserve" text-anchor="start" x="220.5" y="-35.62" font-family="Helvetica,sans-Serif" font-size="10.00">GreenFHom3DPer2D::Evaluateand</text>
<text xml:space="preserve" text-anchor="middle" x="304.5" y="-22.88" font-family="Helvetica,sans-Serif" font-size="10.00">GradientTranslate</text>
</a>
</g>
</g>
<!-- Node1&#45;&gt;Node6 -->
<g id="edge5_Node000001_Node000006" class="edge">
<title>Node1&#45;&gt;Node6</title>
<g id="a_edge5_Node000001_Node000006"><a xlink:title=" ">
<path fill="none" stroke="#63b8ff" d="M421.02,-46.57C413.01,-45.58 404.93,-44.59 396.96,-43.61"/>
<polygon fill="#63b8ff" stroke="#63b8ff" points="420.41,-50.02 430.77,-47.77 421.27,-43.07 420.41,-50.02"/>
</a>
</g>
</g>
<!-- Node3 -->
<g id="Node000003" class="node">
<title>Node3</title>
<g id="a_Node000003"><a xlink:href="classGreenFHom3DPer2D.html#a233c2185952220bd16acae2142f05cc1" target="_top" xlink:title="term at an observation point.">
<polygon fill="white" stroke="#666666" points="172,-124.12 4.5,-124.12 4.5,-90.62 172,-90.62 172,-124.12"/>
<text xml:space="preserve" text-anchor="start" x="12.5" y="-110.62" font-family="Helvetica,sans-Serif" font-size="10.00">GreenFHom3DPer2D::Integrate</text>
<text xml:space="preserve" text-anchor="middle" x="88.25" y="-97.88" font-family="Helvetica,sans-Serif" font-size="10.00">Delta</text>
</a>
</g>
</g>
<!-- Node2&#45;&gt;Node3 -->
<g id="edge2_Node000002_Node000003" class="edge">
<title>Node2&#45;&gt;Node3</title>
<g id="a_edge2_Node000002_Node000003"><a xlink:title=" ">
<path fill="none" stroke="#63b8ff" d="M200.83,-95.4C191.26,-96.42 181.65,-97.46 172.29,-98.46"/>
<polygon fill="#63b8ff" stroke="#63b8ff" points="200.94,-98.9 210.51,-94.36 200.2,-91.94 200.94,-98.9"/>
</a>
</g>
</g>
<!-- Node4 -->
<g id="Node000004" class="node">
<title>Node4</title>
<g id="a_Node000004"><a xlink:href="classGreenFHom3DPer2D.html#a84a8c855a27c895ff24f6771037284a5" target="_top" xlink:title="Compute &#160;for all RWGs on a source triangle.">
<polygon fill="white" stroke="#666666" points="169.38,-72.12 7.12,-72.12 7.12,-38.62 169.38,-38.62 169.38,-72.12"/>
<text xml:space="preserve" text-anchor="start" x="15.12" y="-58.62" font-family="Helvetica,sans-Serif" font-size="10.00">GreenFHom3DPer2D::SameTri</text>
<text xml:space="preserve" text-anchor="middle" x="88.25" y="-45.88" font-family="Helvetica,sans-Serif" font-size="10.00">DeltaKappa</text>
</a>
</g>
</g>
<!-- Node2&#45;&gt;Node4 -->
<g id="edge3_Node000002_Node000004" class="edge">
<title>Node2&#45;&gt;Node4</title>
<g id="a_edge3_Node000002_Node000004"><a xlink:title=" ">
<path fill="none" stroke="#63b8ff" d="M200.72,-70.46C190.27,-69.05 179.77,-67.63 169.6,-66.25"/>
<polygon fill="#63b8ff" stroke="#63b8ff" points="200.14,-73.92 210.52,-71.79 201.08,-66.98 200.14,-73.92"/>
</a>
</g>
</g>
<!-- Node5 -->
<g id="Node000005" class="node">
<title>Node5</title>
<g id="a_Node000005"><a xlink:href="classGreenFHom3DPer2D.html#a1dc9dd84c93ee10b2fb4b1866103d957" target="_top" xlink:title="Compute &#160;and &#160;for all RWG pairs on two triangles.">
<polygon fill="white" stroke="#666666" points="176.5,-20.75 0,-20.75 0,0 176.5,0 176.5,-20.75"/>
<text xml:space="preserve" text-anchor="middle" x="88.25" y="-7.25" font-family="Helvetica,sans-Serif" font-size="10.00">GreenFHom3DPer2D::SameTriDK</text>
</a>
</g>
</g>
<!-- Node2&#45;&gt;Node5 -->
<g id="edge4_Node000002_Node000005" class="edge">
<title>Node2&#45;&gt;Node5</title>
<g id="a_edge4_Node000002_Node000005"><a xlink:title=" ">
<path fill="none" stroke="#63b8ff" d="M222.44,-63.09C219.04,-61.61 215.71,-60.04 212.5,-58.38 194.26,-48.92 195.03,-38.24 176.5,-29.38 169.65,-26.1 162.22,-23.38 154.69,-21.12"/>
<polygon fill="#63b8ff" stroke="#63b8ff" points="220.86,-66.22 231.44,-66.7 223.46,-59.72 220.86,-66.22"/>
</a>
</g>
</g>
<!-- Node6&#45;&gt;Node3 -->
<g id="edge6_Node000006_Node000003" class="edge">
<title>Node6&#45;&gt;Node3</title>
<g id="a_edge6_Node000006_Node000003"><a xlink:title=" ">
<path fill="none" stroke="#63b8ff" d="M224.32,-53.47C220.28,-55.02 216.32,-56.65 212.5,-58.38 195.19,-66.18 193.77,-73.48 176.5,-81.38 169.46,-84.6 161.91,-87.54 154.32,-90.19"/>
<polygon fill="#63b8ff" stroke="#63b8ff" points="225.5,-56.76 233.71,-50.07 223.12,-50.18 225.5,-56.76"/>
</a>
</g>
</g>
<!-- Node6&#45;&gt;Node4 -->
<g id="edge7_Node000006_Node000004" class="edge">
<title>Node6&#45;&gt;Node4</title>
<g id="a_edge7_Node000006_Node000004"><a xlink:title=" ">
<path fill="none" stroke="#63b8ff" d="M200.72,-43.41C190.27,-44.53 179.77,-45.66 169.6,-46.75"/>
<polygon fill="#63b8ff" stroke="#63b8ff" points="200.94,-46.9 210.51,-42.36 200.2,-39.94 200.94,-46.9"/>
</a>
</g>
</g>
<!-- Node6&#45;&gt;Node5 -->
<g id="edge8_Node000006_Node000005" class="edge">
<title>Node6&#45;&gt;Node5</title>
<g id="a_edge8_Node000006_Node000005"><a xlink:title=" ">
<path fill="none" stroke="#63b8ff" d="M200.7,-21.82C192.67,-20.99 184.6,-20.17 176.68,-19.35"/>
<polygon fill="#63b8ff" stroke="#63b8ff" points="200.21,-25.29 210.51,-22.83 200.92,-18.32 200.21,-25.29"/>
</a>
</g>
</g>
</g>
</svg>
