<?xml version="1.0" encoding="UTF-8" standalone="no"?>
<!DOCTYPE svg PUBLIC "-//W3C//DTD SVG 1.1//EN"
 "http://www.w3.org/Graphics/SVG/1.1/DTD/svg11.dtd">
<!-- Generated by graphviz version 13.1.2 (20250809.0930)
 -->
<!-- Title: GreenFLayered3D::evaluateSinglePoint Pages: 1 -->
<svg width="748pt" height="312pt"
 viewBox="0.00 0.00 748.00 312.00" xmlns="http://www.w3.org/2000/svg" xmlns:xlink="http://www.w3.org/1999/xlink">
<g id="graph0" class="graph" transform="scale(1 1) rotate(0) translate(4 307.89)">
<title>GreenFLayered3D::evaluateSinglePoint</title>
<!-- Node1 -->
<g id="Node000001" class="node">
<title>Node1</title>
<g id="a_Node000001"><a xlink:title="Evaluate 2D interpolant at one query point.">
<polygon fill="#999999" stroke="#666666" points="739.75,-147.41 587.25,-147.41 587.25,-113.91 739.75,-113.91 739.75,-147.41"/>
<text xml:space="preserve" text-anchor="start" x="595.25" y="-133.91" font-family="Helvetica,sans-Serif" font-size="10.00">GreenFLayered3D::evaluate</text>
<text xml:space="preserve" text-anchor="middle" x="663.5" y="-121.16" font-family="Helvetica,sans-Serif" font-size="10.00">SinglePoint</text>
</a>
</g>
</g>
<!-- Node2 -->
<g id="Node000002" class="node">
<title>Node2</title>
<g id="a_Node000002"><a xlink:href="classGreenFLayered3D.html#abb50e8621c63f2b29862c32a8447dd9c" target="_top" xlink:title="Evaluate Green&#39;s&#45;function components for inter&#45;layer interactions by interpolating the smooth (Sommer...">
<polygon fill="white" stroke="#666666" points="551.25,-147.41 391.25,-147.41 391.25,-113.91 551.25,-113.91 551.25,-147.41"/>
<text xml:space="preserve" text-anchor="start" x="399.25" y="-133.91" font-family="Helvetica,sans-Serif" font-size="10.00">GreenFLayered3D::evalGreen</text>
<text xml:space="preserve" text-anchor="middle" x="471.25" y="-121.16" font-family="Helvetica,sans-Serif" font-size="10.00">SmoothInter</text>
</a>
</g>
</g>
<!-- Node1&#45;&gt;Node2 -->
<g id="edge1_Node000001_Node000002" class="edge">
<title>Node1&#45;&gt;Node2</title>
<g id="a_edge1_Node000001_Node000002"><a xlink:title=" ">
<path fill="none" stroke="#63b8ff" d="M575.51,-130.66C567.5,-130.66 559.41,-130.66 551.47,-130.66"/>
<polygon fill="#63b8ff" stroke="#63b8ff" points="575.25,-134.16 585.25,-130.66 575.25,-127.16 575.25,-134.16"/>
</a>
</g>
</g>
<!-- Node9 -->
<g id="Node000009" class="node">
<title>Node9</title>
<g id="a_Node000009"><a xlink:href="classGreenFLayered3D.html#a834a94e21f64163f651a4729eccc6699" target="_top" xlink:title="Evaluate Green&#39;s function components for intra&#45;layer interactions by interpolating the smooth (Sommer...">
<polygon fill="white" stroke="#666666" points="551.25,-199.41 391.25,-199.41 391.25,-165.91 551.25,-165.91 551.25,-199.41"/>
<text xml:space="preserve" text-anchor="start" x="399.25" y="-185.91" font-family="Helvetica,sans-Serif" font-size="10.00">GreenFLayered3D::evalGreen</text>
<text xml:space="preserve" text-anchor="middle" x="471.25" y="-173.16" font-family="Helvetica,sans-Serif" font-size="10.00">SmoothIntra</text>
</a>
</g>
</g>
<!-- Node1&#45;&gt;Node9 -->
<g id="edge9_Node000001_Node000009" class="edge">
<title>Node1&#45;&gt;Node9</title>
<g id="a_edge9_Node000001_Node000009"><a xlink:title=" ">
<path fill="none" stroke="#63b8ff" d="M588.58,-150.87C570.94,-155.69 552.26,-160.79 535.17,-165.47"/>
<polygon fill="#63b8ff" stroke="#63b8ff" points="589.23,-154.32 597.95,-148.31 587.38,-147.57 589.23,-154.32"/>
</a>
</g>
</g>
<!-- Node10 -->
<g id="Node000010" class="node">
<title>Node10</title>
<g id="a_Node000010"><a xlink:href="classGreenFLayered3D.html#adb66750a1f30911e4e64f2cb05b61f98" target="_top" xlink:title="Test filling of interpolation tables with Green&#39;s function values.">
<polygon fill="white" stroke="#666666" points="542.62,-95.41 399.88,-95.41 399.88,-61.91 542.62,-61.91 542.62,-95.41"/>
<text xml:space="preserve" text-anchor="start" x="407.88" y="-81.91" font-family="Helvetica,sans-Serif" font-size="10.00">GreenFLayered3D::testFill</text>
<text xml:space="preserve" text-anchor="middle" x="471.25" y="-69.16" font-family="Helvetica,sans-Serif" font-size="10.00">GreenFTable</text>
</a>
</g>
</g>
<!-- Node1&#45;&gt;Node10 -->
<g id="edge16_Node000001_Node000010" class="edge">
<title>Node1&#45;&gt;Node10</title>
<g id="a_edge16_Node000001_Node000010"><a xlink:title=" ">
<path fill="none" stroke="#63b8ff" d="M588.58,-110.46C570.94,-105.64 552.26,-100.53 535.17,-95.86"/>
<polygon fill="#63b8ff" stroke="#63b8ff" points="587.38,-113.76 597.95,-113.02 589.23,-107.01 587.38,-113.76"/>
</a>
</g>
</g>
<!-- Node3 -->
<g id="Node000003" class="node">
<title>Node3</title>
<g id="a_Node000003"><a xlink:href="classGreenFLayered3D.html#aea3c88abd8cb25bd99d64a4eeda84a85" target="_top" xlink:title="Evaluates the secondary terms for dipole incident field in layered background.">
<polygon fill="white" stroke="#666666" points="353.38,-277.41 200.88,-277.41 200.88,-243.91 353.38,-243.91 353.38,-277.41"/>
<text xml:space="preserve" text-anchor="start" x="208.88" y="-263.91" font-family="Helvetica,sans-Serif" font-size="10.00">GreenFLayered3D::Evaluate</text>
<text xml:space="preserve" text-anchor="middle" x="277.12" y="-251.16" font-family="Helvetica,sans-Serif" font-size="10.00">Dyadic</text>
</a>
</g>
</g>
<!-- Node2&#45;&gt;Node3 -->
<g id="edge2_Node000002_Node000003" class="edge">
<title>Node2&#45;&gt;Node3</title>
<g id="a_edge2_Node000002_Node000003"><a xlink:title=" ">
<path fill="none" stroke="#63b8ff" d="M394.16,-154.22C393.16,-155.01 392.19,-155.82 391.25,-156.66 362.75,-182.07 383.66,-209.15 355.25,-234.66 351.47,-238.06 347.22,-241.02 342.72,-243.59"/>
<polygon fill="#63b8ff" stroke="#63b8ff" points="396.1,-157.14 402.45,-148.66 392.2,-151.32 396.1,-157.14"/>
</a>
</g>
</g>
<!-- Node4 -->
<g id="Node000004" class="node">
<title>Node4</title>
<g id="a_Node000004"><a xlink:href="classGreenFLayered3D.html#afbdbfdc8fc40fc885f6377d5be242d36" target="_top" xlink:title="term at an observation point.">
<polygon fill="white" stroke="#666666" points="354.12,-173.41 200.12,-173.41 200.12,-139.91 354.12,-139.91 354.12,-173.41"/>
<text xml:space="preserve" text-anchor="start" x="208.12" y="-159.91" font-family="Helvetica,sans-Serif" font-size="10.00">GreenFLayered3D::Integrate</text>
<text xml:space="preserve" text-anchor="middle" x="277.12" y="-147.16" font-family="Helvetica,sans-Serif" font-size="10.00">Delta</text>
</a>
</g>
</g>
<!-- Node2&#45;&gt;Node4 -->
<g id="edge3_Node000002_Node000004" class="edge">
<title>Node2&#45;&gt;Node4</title>
<g id="a_edge3_Node000002_Node000004"><a xlink:title=" ">
<path fill="none" stroke="#63b8ff" d="M379.86,-142.9C371.35,-144.05 362.78,-145.21 354.41,-146.34"/>
<polygon fill="#63b8ff" stroke="#63b8ff" points="380.06,-146.4 389.5,-141.59 379.12,-139.47 380.06,-146.4"/>
</a>
</g>
</g>
<!-- Node5 -->
<g id="Node000005" class="node">
<title>Node5</title>
<g id="a_Node000005"><a xlink:href="classGreenFLayered3D.html#a439eddb43f46fb52f6c84898ea12aa40" target="_top" xlink:title="term at an observation point.">
<polygon fill="white" stroke="#666666" points="354.12,-121.41 200.12,-121.41 200.12,-87.91 354.12,-87.91 354.12,-121.41"/>
<text xml:space="preserve" text-anchor="start" x="208.12" y="-107.91" font-family="Helvetica,sans-Serif" font-size="10.00">GreenFLayered3D::Integrate</text>
<text xml:space="preserve" text-anchor="middle" x="277.12" y="-95.16" font-family="Helvetica,sans-Serif" font-size="10.00">Kappa</text>
</a>
</g>
</g>
<!-- Node2&#45;&gt;Node5 -->
<g id="edge4_Node000002_Node000005" class="edge">
<title>Node2&#45;&gt;Node5</title>
<g id="a_edge4_Node000002_Node000005"><a xlink:title=" ">
<path fill="none" stroke="#63b8ff" d="M379.86,-118.43C371.35,-117.28 362.78,-116.12 354.41,-114.99"/>
<polygon fill="#63b8ff" stroke="#63b8ff" points="379.12,-121.86 389.5,-119.74 380.06,-114.93 379.12,-121.86"/>
</a>
</g>
</g>
<!-- Node6 -->
<g id="Node000006" class="node">
<title>Node6</title>
<g id="a_Node000006"><a xlink:href="classGreenFLayered3D.html#af46d152fbc30bdc418ff16e5e7a334c6" target="_top" xlink:title="Point–triangle delta/kappa contributions for RHS assembly.">
<polygon fill="white" stroke="#666666" points="351.5,-69.41 202.75,-69.41 202.75,-35.91 351.5,-35.91 351.5,-69.41"/>
<text xml:space="preserve" text-anchor="start" x="210.75" y="-55.91" font-family="Helvetica,sans-Serif" font-size="10.00">GreenFLayered3D::SameTri</text>
<text xml:space="preserve" text-anchor="middle" x="277.12" y="-43.16" font-family="Helvetica,sans-Serif" font-size="10.00">DeltaKappa</text>
</a>
</g>
</g>
<!-- Node2&#45;&gt;Node6 -->
<g id="edge5_Node000002_Node000006" class="edge">
<title>Node2&#45;&gt;Node6</title>
<g id="a_edge5_Node000002_Node000006"><a xlink:title=" ">
<path fill="none" stroke="#63b8ff" d="M400.7,-109.14C397.47,-107.71 394.3,-106.22 391.25,-104.66 373.67,-95.7 372.8,-87.7 355.25,-78.66 348.97,-75.43 342.2,-72.47 335.37,-69.8"/>
<polygon fill="#63b8ff" stroke="#63b8ff" points="399.21,-112.31 409.79,-112.89 401.88,-105.84 399.21,-112.31"/>
</a>
</g>
</g>
<!-- Node7 -->
<g id="Node000007" class="node">
<title>Node7</title>
<g id="a_Node000007"><a xlink:href="classGreenFLayered3D.html#a6c88af86169f8d148c3e9f4da77a77d0" target="_top" xlink:title="Triangle–triangle D/K blocks assembly for all RWG pairs on two triangles.">
<polygon fill="white" stroke="#666666" points="163,-219.04 0,-219.04 0,-198.29 163,-198.29 163,-219.04"/>
<text xml:space="preserve" text-anchor="middle" x="81.5" y="-205.54" font-family="Helvetica,sans-Serif" font-size="10.00">GreenFLayered3D::SameTriDK</text>
</a>
</g>
</g>
<!-- Node2&#45;&gt;Node7 -->
<g id="edge6_Node000002_Node000007" class="edge">
<title>Node2&#45;&gt;Node7</title>
<g id="a_edge6_Node000002_Node000007"><a xlink:title=" ">
<path fill="none" stroke="#63b8ff" d="M394.16,-107.11C393.16,-106.32 392.19,-105.5 391.25,-104.66 362.75,-79.25 387.41,-47.24 355.25,-26.66 296.75,10.76 259.92,6.67 199,-26.66 128.9,-65.02 94.8,-165.54 85.32,-198.23"/>
<polygon fill="#63b8ff" stroke="#63b8ff" points="392.2,-110 402.45,-112.67 396.1,-104.19 392.2,-110"/>
</a>
</g>
</g>
<!-- Node8 -->
<g id="Node000008" class="node">
<title>Node8</title>
<g id="a_Node000008"><a xlink:href="classGreenFLayered3D.html#a87c30d7c2782fd16b17a54bf12777cf0" target="_top" xlink:title="Test assembly of same&#45;triangle D and K matrix elements.">
<polygon fill="white" stroke="#666666" points="355.25,-225.41 199,-225.41 199,-191.91 355.25,-191.91 355.25,-225.41"/>
<text xml:space="preserve" text-anchor="start" x="207" y="-211.91" font-family="Helvetica,sans-Serif" font-size="10.00">GreenFLayered3D::testSame</text>
<text xml:space="preserve" text-anchor="middle" x="277.12" y="-199.16" font-family="Helvetica,sans-Serif" font-size="10.00">TriDK</text>
</a>
</g>
</g>
<!-- Node2&#45;&gt;Node8 -->
<g id="edge7_Node000002_Node000008" class="edge">
<title>Node2&#45;&gt;Node8</title>
<g id="a_edge7_Node000002_Node000008"><a xlink:title=" ">
<path fill="none" stroke="#63b8ff" d="M400.7,-152.19C397.47,-153.61 394.3,-155.11 391.25,-156.66 373.67,-165.63 372.8,-173.63 355.25,-182.66 348.97,-185.9 342.2,-188.86 335.37,-191.53"/>
<polygon fill="#63b8ff" stroke="#63b8ff" points="401.88,-155.49 409.79,-148.44 399.21,-149.02 401.88,-155.49"/>
</a>
</g>
</g>
<!-- Node8&#45;&gt;Node7 -->
<g id="edge8_Node000008_Node000007" class="edge">
<title>Node8&#45;&gt;Node7</title>
<g id="a_edge8_Node000008_Node000007"><a xlink:title=" ">
<path fill="none" stroke="#63b8ff" d="M187.43,-208.66C179.36,-208.66 171.22,-208.66 163.22,-208.66"/>
<polygon fill="#63b8ff" stroke="#63b8ff" points="187.25,-212.16 197.25,-208.66 187.25,-205.16 187.25,-212.16"/>
</a>
</g>
</g>
<!-- Node9&#45;&gt;Node3 -->
<g id="edge10_Node000009_Node000003" class="edge">
<title>Node9&#45;&gt;Node3</title>
<g id="a_edge10_Node000009_Node000003"><a xlink:title=" ">
<path fill="none" stroke="#63b8ff" d="M424.45,-204.64C403.55,-214.33 378.36,-225.57 355.25,-234.66 347.62,-237.67 339.49,-240.64 331.48,-243.45"/>
<polygon fill="#63b8ff" stroke="#63b8ff" points="425.7,-207.92 433.27,-200.51 422.73,-201.58 425.7,-207.92"/>
</a>
</g>
</g>
<!-- Node9&#45;&gt;Node4 -->
<g id="edge11_Node000009_Node000004" class="edge">
<title>Node9&#45;&gt;Node4</title>
<g id="a_edge11_Node000009_Node000004"><a xlink:title=" ">
<path fill="none" stroke="#63b8ff" d="M379.86,-170.43C371.35,-169.28 362.78,-168.12 354.41,-166.99"/>
<polygon fill="#63b8ff" stroke="#63b8ff" points="379.12,-173.86 389.5,-171.74 380.06,-166.93 379.12,-173.86"/>
</a>
</g>
</g>
<!-- Node9&#45;&gt;Node5 -->
<g id="edge12_Node000009_Node000005" class="edge">
<title>Node9&#45;&gt;Node5</title>
<g id="a_edge12_Node000009_Node000005"><a xlink:title=" ">
<path fill="none" stroke="#63b8ff" d="M400.7,-161.14C397.47,-159.71 394.3,-158.22 391.25,-156.66 373.67,-147.7 372.8,-139.7 355.25,-130.66 348.97,-127.43 342.2,-124.47 335.37,-121.8"/>
<polygon fill="#63b8ff" stroke="#63b8ff" points="399.21,-164.31 409.79,-164.89 401.88,-157.84 399.21,-164.31"/>
</a>
</g>
</g>
<!-- Node9&#45;&gt;Node6 -->
<g id="edge13_Node000009_Node000006" class="edge">
<title>Node9&#45;&gt;Node6</title>
<g id="a_edge13_Node000009_Node000006"><a xlink:title=" ">
<path fill="none" stroke="#63b8ff" d="M394.16,-159.11C393.16,-158.32 392.19,-157.5 391.25,-156.66 362.75,-131.25 383.66,-104.18 355.25,-78.66 351.47,-75.27 347.22,-72.31 342.72,-69.74"/>
<polygon fill="#63b8ff" stroke="#63b8ff" points="392.2,-162 402.45,-164.67 396.1,-156.19 392.2,-162"/>
</a>
</g>
</g>
<!-- Node9&#45;&gt;Node7 -->
<g id="edge14_Node000009_Node000007" class="edge">
<title>Node9&#45;&gt;Node7</title>
<g id="a_edge14_Node000009_Node000007"><a xlink:title=" ">
<path fill="none" stroke="#63b8ff" d="M451.28,-208.47C430.84,-233.88 395.74,-271.07 355.25,-286.66 290.45,-311.62 265.44,-306.85 199,-286.66 155.22,-273.36 112.91,-237.53 93.53,-219.43"/>
<polygon fill="#63b8ff" stroke="#63b8ff" points="453.8,-210.93 457.2,-200.9 448.28,-206.62 453.8,-210.93"/>
</a>
</g>
</g>
<!-- Node9&#45;&gt;Node8 -->
<g id="edge15_Node000009_Node000008" class="edge">
<title>Node9&#45;&gt;Node8</title>
<g id="a_edge15_Node000009_Node000008"><a xlink:title=" ">
<path fill="none" stroke="#63b8ff" d="M379.69,-194.92C371.65,-196.01 363.56,-197.1 355.65,-198.17"/>
<polygon fill="#63b8ff" stroke="#63b8ff" points="380.06,-198.4 389.5,-193.59 379.12,-191.47 380.06,-198.4"/>
</a>
</g>
</g>
</g>
</svg>
