<?xml version="1.0" encoding="UTF-8" standalone="no"?>
<!DOCTYPE svg PUBLIC "-//W3C//DTD SVG 1.1//EN"
 "http://www.w3.org/Graphics/SVG/1.1/DTD/svg11.dtd">
<!-- Generated by graphviz version 13.1.2 (20250809.0930)
 -->
<!-- Title: DomainLayered3D::slice Pages: 1 -->
<svg width="383pt" height="261pt"
 viewBox="0.00 0.00 383.00 261.00" xmlns="http://www.w3.org/2000/svg" xmlns:xlink="http://www.w3.org/1999/xlink">
<g id="graph0" class="graph" transform="scale(1 1) rotate(0) translate(4 257.12)">
<title>DomainLayered3D::slice</title>
<!-- Node1 -->
<g id="Node000001" class="node">
<title>Node1</title>
<g id="a_Node000001"><a xlink:title="Computes the slicing of points with respect to interfaces.">
<polygon fill="#999999" stroke="#666666" points="374.75,-146.12 239.5,-146.12 239.5,-125.38 374.75,-125.38 374.75,-146.12"/>
<text xml:space="preserve" text-anchor="middle" x="307.12" y="-132.62" font-family="Helvetica,sans-Serif" font-size="10.00">DomainLayered3D::slice</text>
</a>
</g>
</g>
<!-- Node2 -->
<g id="Node000002" class="node">
<title>Node2</title>
<g id="a_Node000002"><a xlink:href="classDomainLayered3D.html#a6551ae7ca5dac2a5dda2d78b15d78ecc" target="_top" xlink:title="Add a Dipole excitation in the layered medium.">
<polygon fill="white" stroke="#666666" points="183.25,-253.12 20.25,-253.12 20.25,-232.38 183.25,-232.38 183.25,-253.12"/>
<text xml:space="preserve" text-anchor="middle" x="101.75" y="-239.62" font-family="Helvetica,sans-Serif" font-size="10.00">DomainLayered3D::AddDipole</text>
</a>
</g>
</g>
<!-- Node1&#45;&gt;Node2 -->
<g id="edge1_Node000001_Node000002" class="edge">
<title>Node1&#45;&gt;Node2</title>
<g id="a_edge1_Node000001_Node000002"><a xlink:title=" ">
<path fill="none" stroke="#63b8ff" d="M289.22,-154.97C270.37,-175.12 237.98,-206.11 203.5,-222.75 195.87,-226.43 187.6,-229.43 179.2,-231.89"/>
<polygon fill="#63b8ff" stroke="#63b8ff" points="291.71,-157.43 295.87,-147.68 286.54,-152.71 291.71,-157.43"/>
</a>
</g>
</g>
<!-- Node3 -->
<g id="Node000003" class="node">
<title>Node3</title>
<g id="a_Node000003"><a xlink:href="classDomainLayered3D.html#ad0d867ee7289e485c4bc01077fbdb59a" target="_top" xlink:title="Constructs a 3D layered domain with given material properties and geometry.">
<polygon fill="white" stroke="#666666" points="203.5,-214.12 0,-214.12 0,-193.38 203.5,-193.38 203.5,-214.12"/>
<text xml:space="preserve" text-anchor="middle" x="101.75" y="-200.62" font-family="Helvetica,sans-Serif" font-size="10.00">DomainLayered3D::DomainLayered3D</text>
</a>
</g>
</g>
<!-- Node1&#45;&gt;Node3 -->
<g id="edge2_Node000001_Node000003" class="edge">
<title>Node1&#45;&gt;Node3</title>
<g id="a_edge2_Node000001_Node000003"><a xlink:title=" ">
<path fill="none" stroke="#63b8ff" d="M277.39,-151.95C257.26,-162.67 229.43,-176.27 203.5,-184.75 193.77,-187.93 183.33,-190.64 172.99,-192.93"/>
<polygon fill="#63b8ff" stroke="#63b8ff" points="279,-155.06 286.11,-147.22 275.66,-148.91 279,-155.06"/>
</a>
</g>
</g>
<!-- Node4 -->
<g id="Node000004" class="node">
<title>Node4</title>
<g id="a_Node000004"><a xlink:href="classDomainLayered3D.html#ab55a37fee77313a2f5e2bd4c2be927f0" target="_top" xlink:title="Initialize the layered Green&#39;s function used for field evaluation.">
<polygon fill="white" stroke="#666666" points="185.5,-175.5 18,-175.5 18,-142 185.5,-142 185.5,-175.5"/>
<text xml:space="preserve" text-anchor="start" x="26" y="-162" font-family="Helvetica,sans-Serif" font-size="10.00">DomainLayered3D::newGrnFun</text>
<text xml:space="preserve" text-anchor="middle" x="101.75" y="-149.25" font-family="Helvetica,sans-Serif" font-size="10.00">Layered</text>
</a>
</g>
</g>
<!-- Node1&#45;&gt;Node4 -->
<g id="edge3_Node000001_Node000004" class="edge">
<title>Node1&#45;&gt;Node4</title>
<g id="a_edge3_Node000001_Node000004"><a xlink:title=" ">
<path fill="none" stroke="#63b8ff" d="M227.82,-144.61C214,-146.17 199.58,-147.8 185.65,-149.38"/>
<polygon fill="#63b8ff" stroke="#63b8ff" points="228.2,-148.08 237.75,-143.48 227.42,-141.13 228.2,-148.08"/>
</a>
</g>
</g>
<!-- Node5 -->
<g id="Node000005" class="node">
<title>Node5</title>
<g id="a_Node000005"><a xlink:href="classDomainLayered3D.html#acd442aab27d1f56d8211a164f85f341a" target="_top" xlink:title="Self&#45;test: grid generation (prints to console).">
<polygon fill="white" stroke="#666666" points="179.5,-124.12 24,-124.12 24,-103.38 179.5,-103.38 179.5,-124.12"/>
<text xml:space="preserve" text-anchor="middle" x="101.75" y="-110.62" font-family="Helvetica,sans-Serif" font-size="10.00">DomainLayered3D::test_grid</text>
</a>
</g>
</g>
<!-- Node1&#45;&gt;Node5 -->
<g id="edge4_Node000001_Node000005" class="edge">
<title>Node1&#45;&gt;Node5</title>
<g id="a_edge4_Node000001_Node000005"><a xlink:title=" ">
<path fill="none" stroke="#63b8ff" d="M227.94,-127.29C212.18,-125.59 195.62,-123.8 179.89,-122.09"/>
<polygon fill="#63b8ff" stroke="#63b8ff" points="227.43,-130.76 237.75,-128.35 228.18,-123.8 227.43,-130.76"/>
</a>
</g>
</g>
<!-- Node6 -->
<g id="Node000006" class="node">
<title>Node6</title>
<g id="a_Node000006"><a xlink:href="classDomainLayered3D.html#a9ca4f1cf49de04c5df6a664e656dbf85" target="_top" xlink:title="Self&#45;test: tabulation range computation (prints to console).">
<polygon fill="white" stroke="#666666" points="167.5,-85.5 36,-85.5 36,-52 167.5,-52 167.5,-85.5"/>
<text xml:space="preserve" text-anchor="start" x="44" y="-72" font-family="Helvetica,sans-Serif" font-size="10.00">DomainLayered3D::test</text>
<text xml:space="preserve" text-anchor="middle" x="101.75" y="-59.25" font-family="Helvetica,sans-Serif" font-size="10.00">_range</text>
</a>
</g>
</g>
<!-- Node1&#45;&gt;Node6 -->
<g id="edge5_Node000001_Node000006" class="edge">
<title>Node1&#45;&gt;Node6</title>
<g id="a_edge5_Node000001_Node000006"><a xlink:title=" ">
<path fill="none" stroke="#63b8ff" d="M270.98,-120.42C251.35,-112.18 226.32,-102.22 203.5,-94.75 192.08,-91.01 179.8,-87.46 167.87,-84.26"/>
<polygon fill="#63b8ff" stroke="#63b8ff" points="269.6,-123.63 280.17,-124.32 272.33,-117.19 269.6,-123.63"/>
</a>
</g>
</g>
<!-- Node7 -->
<g id="Node000007" class="node">
<title>Node7</title>
<g id="a_Node000007"><a xlink:href="classDomainLayered3D.html#adf153d4382b02cff7ced37500e7f624f" target="_top" xlink:title="Self&#45;test: slicing of points with respect to interfaces (prints to console).">
<polygon fill="white" stroke="#666666" points="167.5,-33.5 36,-33.5 36,0 167.5,0 167.5,-33.5"/>
<text xml:space="preserve" text-anchor="start" x="44" y="-20" font-family="Helvetica,sans-Serif" font-size="10.00">DomainLayered3D::test</text>
<text xml:space="preserve" text-anchor="middle" x="101.75" y="-7.25" font-family="Helvetica,sans-Serif" font-size="10.00">_slice</text>
</a>
</g>
</g>
<!-- Node1&#45;&gt;Node7 -->
<g id="edge6_Node000001_Node000007" class="edge">
<title>Node1&#45;&gt;Node7</title>
<g id="a_edge6_Node000001_Node000007"><a xlink:title=" ">
<path fill="none" stroke="#63b8ff" d="M290.15,-116.52C271.5,-95.32 238.71,-61.73 203.5,-42.75 192.53,-36.84 180.15,-32.22 167.92,-28.63"/>
<polygon fill="#63b8ff" stroke="#63b8ff" points="287.3,-118.57 296.47,-123.87 292.61,-114.01 287.3,-118.57"/>
</a>
</g>
</g>
</g>
</svg>
