<?xml version="1.0" encoding="UTF-8" standalone="no"?>
<!DOCTYPE svg PUBLIC "-//W3C//DTD SVG 1.1//EN"
 "http://www.w3.org/Graphics/SVG/1.1/DTD/svg11.dtd">
<!-- Generated by graphviz version 13.1.2 (20250809.0930)
 -->
<!-- Title: SingSub::K3 Pages: 1 -->
<svg width="498pt" height="269pt"
 viewBox="0.00 0.00 498.00 269.00" xmlns="http://www.w3.org/2000/svg" xmlns:xlink="http://www.w3.org/1999/xlink">

<svg id="main" version="1.1" xmlns="http://www.w3.org/2000/svg" xmlns:xlink="http://www.w3.org/1999/xlink" xml:space="preserve">

<style type="text/css"><![CDATA[
.node, .edge {opacity: 0.7;}
.node.selected, .edge.selected {opacity: 1;}
.edge:hover path { stroke: red; }
.edge:hover polygon { stroke: red; fill: red; }
]]></style>
<script type="application/ecmascript" xlink:href="svg.min.js"/>
<svg id="graph" class="graph">
<g id="graph0" class="graph" transform="scale(1 1) rotate(0) translate(4 265.12)">
<title>SingSub::K3</title>
<!-- Node1 -->
<g id="Node000001" class="node">
<title>Node1</title>
<g id="a_Node000001"><a xlink:title="K3(q) vector term.">
<polygon fill="#999999" stroke="#666666" points="489.75,-171.12 416,-171.12 416,-150.38 489.75,-150.38 489.75,-171.12"/>
<text xml:space="preserve" text-anchor="middle" x="452.88" y="-157.62" font-family="Helvetica,sans-Serif" font-size="10.00">SingSub::K3</text>
</a>
</g>
</g>
<!-- Node2 -->
<g id="Node000002" class="node">
<title>Node2</title>
<g id="a_Node000002"><a xlink:href="classGreenFHom3D.html#aca136b03c44ad1da34acf91eb5a5e390" target="_top" xlink:title="term at an observation point.">
<polygon fill="white" stroke="#666666" points="378.5,-261.12 214,-261.12 214,-240.38 378.5,-240.38 378.5,-261.12"/>
<text xml:space="preserve" text-anchor="middle" x="296.25" y="-247.62" font-family="Helvetica,sans-Serif" font-size="10.00">GreenFHom3D::IntegrateDelta</text>
</a>
</g>
</g>
<!-- Node1&#45;&gt;Node2 -->
<g id="edge1_Node000001_Node000002" class="edge">
<title>Node1&#45;&gt;Node2</title>
<g id="a_edge1_Node000001_Node000002"><a xlink:title=" ">
<path fill="none" stroke="#63b8ff" d="M437.31,-180.25C424.13,-196.49 403.26,-218.97 380,-231.75 374.06,-235.02 367.58,-237.72 360.95,-239.96"/>
<polygon fill="#63b8ff" stroke="#63b8ff" points="439.8,-182.75 443.21,-172.72 434.29,-178.43 439.8,-182.75"/>
</a>
</g>
</g>
<!-- Node3 -->
<g id="Node000003" class="node">
<title>Node3</title>
<g id="a_Node000003"><a xlink:href="classGreenFHom3DPer2D.html#a233c2185952220bd16acae2142f05cc1" target="_top" xlink:title="term at an observation point.">
<polygon fill="white" stroke="#666666" points="380,-222.5 212.5,-222.5 212.5,-189 380,-189 380,-222.5"/>
<text xml:space="preserve" text-anchor="start" x="220.5" y="-209" font-family="Helvetica,sans-Serif" font-size="10.00">GreenFHom3DPer2D::Integrate</text>
<text xml:space="preserve" text-anchor="middle" x="296.25" y="-196.25" font-family="Helvetica,sans-Serif" font-size="10.00">Delta</text>
</a>
</g>
</g>
<!-- Node1&#45;&gt;Node3 -->
<g id="edge2_Node000001_Node000003" class="edge">
<title>Node1&#45;&gt;Node3</title>
<g id="a_edge2_Node000001_Node000003"><a xlink:title=" ">
<path fill="none" stroke="#63b8ff" d="M404.85,-174.44C389.53,-178.89 372.34,-183.9 356.26,-188.58"/>
<polygon fill="#63b8ff" stroke="#63b8ff" points="405.55,-177.88 414.17,-171.72 403.59,-171.16 405.55,-177.88"/>
</a>
</g>
</g>
<!-- Node4 -->
<g id="Node000004" class="node">
<title>Node4</title>
<g id="a_Node000004"><a xlink:href="classSingSub.html#ab61a21e3498d2d6a4c0796254cf126ed" target="_top" xlink:title="K4(q) vector term.">
<polygon fill="white" stroke="#666666" points="333.12,-133.12 259.38,-133.12 259.38,-112.38 333.12,-112.38 333.12,-133.12"/>
<text xml:space="preserve" text-anchor="middle" x="296.25" y="-119.62" font-family="Helvetica,sans-Serif" font-size="10.00">SingSub::K4</text>
</a>
</g>
</g>
<!-- Node1&#45;&gt;Node4 -->
<g id="edge3_Node000001_Node000004" class="edge">
<title>Node1&#45;&gt;Node4</title>
<g id="a_edge3_Node000001_Node000004"><a xlink:title=" ">
<path fill="none" stroke="#63b8ff" d="M404.45,-149.1C381.63,-143.49 354.7,-136.87 333.54,-131.67"/>
<polygon fill="#63b8ff" stroke="#63b8ff" points="403.61,-152.49 414.15,-151.48 405.28,-145.69 403.61,-152.49"/>
</a>
</g>
</g>
<!-- Node7 -->
<g id="Node000007" class="node">
<title>Node7</title>
<g id="a_Node000007"><a xlink:href="classGreenFHom3D.html#a48e8471aabb445e0e50a01c005ff3b98" target="_top" xlink:title="Compute &#160;for all RWGs on a source triangle.">
<polygon fill="white" stroke="#666666" points="167.88,-252.5 8.62,-252.5 8.62,-219 167.88,-219 167.88,-252.5"/>
<text xml:space="preserve" text-anchor="start" x="16.62" y="-239" font-family="Helvetica,sans-Serif" font-size="10.00">GreenFHom3D::SameTriDelta</text>
<text xml:space="preserve" text-anchor="middle" x="88.25" y="-226.25" font-family="Helvetica,sans-Serif" font-size="10.00">Kappa</text>
</a>
</g>
</g>
<!-- Node1&#45;&gt;Node7 -->
<g id="edge10_Node000001_Node000007" class="edge">
<title>Node1&#45;&gt;Node7</title>
<g id="a_edge10_Node000001_Node000007"><a xlink:title=" ">
<path fill="none" stroke="#63b8ff" d="M404.49,-156.27C354.75,-153.42 275.23,-154.19 212.5,-179.75 193.21,-187.61 194.86,-199.91 176.5,-209.75 170.37,-213.04 163.77,-215.96 157.04,-218.55"/>
<polygon fill="#63b8ff" stroke="#63b8ff" points="404.13,-159.75 414.34,-156.92 404.59,-152.77 404.13,-159.75"/>
</a>
</g>
</g>
<!-- Node8 -->
<g id="Node000008" class="node">
<title>Node8</title>
<g id="a_Node000008"><a xlink:href="classGreenFHom3DPer2D.html#a84a8c855a27c895ff24f6771037284a5" target="_top" xlink:title="Compute &#160;for all RWGs on a source triangle.">
<polygon fill="white" stroke="#666666" points="169.38,-33.5 7.12,-33.5 7.12,0 169.38,0 169.38,-33.5"/>
<text xml:space="preserve" text-anchor="start" x="15.12" y="-20" font-family="Helvetica,sans-Serif" font-size="10.00">GreenFHom3DPer2D::SameTri</text>
<text xml:space="preserve" text-anchor="middle" x="88.25" y="-7.25" font-family="Helvetica,sans-Serif" font-size="10.00">DeltaKappa</text>
</a>
</g>
</g>
<!-- Node1&#45;&gt;Node8 -->
<g id="edge11_Node000001_Node000008" class="edge">
<title>Node1&#45;&gt;Node8</title>
<g id="a_edge11_Node000001_Node000008"><a xlink:title=" ">
<path fill="none" stroke="#63b8ff" d="M432.99,-142.45C419.26,-130.02 399.69,-114.02 380,-103.75 313.08,-68.84 230.02,-45.76 169.83,-32.2"/>
<polygon fill="#63b8ff" stroke="#63b8ff" points="430.3,-144.73 440.01,-148.98 435.07,-139.61 430.3,-144.73"/>
</a>
</g>
</g>
<!-- Node5 -->
<g id="Node000005" class="node">
<title>Node5</title>
<g id="a_Node000005"><a xlink:href="classGreenFHom3D.html#a9cece8a4056d65455cfcc94c8c61decd" target="_top" xlink:title="term at an observation point.">
<polygon fill="white" stroke="#666666" points="172.75,-201.12 3.75,-201.12 3.75,-180.38 172.75,-180.38 172.75,-201.12"/>
<text xml:space="preserve" text-anchor="middle" x="88.25" y="-187.62" font-family="Helvetica,sans-Serif" font-size="10.00">GreenFHom3D::IntegrateKappa</text>
</a>
</g>
</g>
<!-- Node4&#45;&gt;Node5 -->
<g id="edge4_Node000004_Node000005" class="edge">
<title>Node4&#45;&gt;Node5</title>
<g id="a_edge4_Node000004_Node000005"><a xlink:title=" ">
<path fill="none" stroke="#63b8ff" d="M247.81,-133.65C236,-137.13 223.55,-141.48 212.5,-146.75 194.91,-155.13 194.36,-163.97 176.5,-171.75 169.11,-174.97 161.12,-177.66 153.08,-179.91"/>
<polygon fill="#63b8ff" stroke="#63b8ff" points="248.72,-137.03 257.42,-130.98 246.85,-130.28 248.72,-137.03"/>
</a>
</g>
</g>
<!-- Node6 -->
<g id="Node000006" class="node">
<title>Node6</title>
<g id="a_Node000006"><a xlink:href="classGreenFHom3DPer2D.html#aadb534ef4509422e6f3e78a0e3999758" target="_top" xlink:title="term at an observation point.">
<polygon fill="white" stroke="#666666" points="172,-162.5 4.5,-162.5 4.5,-129 172,-129 172,-162.5"/>
<text xml:space="preserve" text-anchor="start" x="12.5" y="-149" font-family="Helvetica,sans-Serif" font-size="10.00">GreenFHom3DPer2D::Integrate</text>
<text xml:space="preserve" text-anchor="middle" x="88.25" y="-136.25" font-family="Helvetica,sans-Serif" font-size="10.00">Kappa</text>
</a>
</g>
</g>
<!-- Node4&#45;&gt;Node6 -->
<g id="edge5_Node000004_Node000006" class="edge">
<title>Node4&#45;&gt;Node6</title>
<g id="a_edge5_Node000004_Node000006"><a xlink:title=" ">
<path fill="none" stroke="#63b8ff" d="M247.67,-128.06C225.27,-130.56 197.9,-133.62 172.24,-136.48"/>
<polygon fill="#63b8ff" stroke="#63b8ff" points="247.84,-131.57 257.39,-126.98 247.06,-124.61 247.84,-131.57"/>
</a>
</g>
</g>
<!-- Node4&#45;&gt;Node7 -->
<g id="edge6_Node000004_Node000007" class="edge">
<title>Node4&#45;&gt;Node7</title>
<g id="a_edge6_Node000004_Node000007"><a xlink:title=" ">
<path fill="none" stroke="#63b8ff" d="M248.22,-129.74C235.67,-133.3 222.77,-138.66 212.5,-146.75 187.16,-166.7 201.76,-189.71 176.5,-209.75 172.29,-213.09 167.66,-216 162.79,-218.54"/>
<polygon fill="#63b8ff" stroke="#63b8ff" points="248.73,-133.22 257.6,-127.43 247.05,-126.43 248.73,-133.22"/>
</a>
</g>
</g>
<!-- Node4&#45;&gt;Node8 -->
<g id="edge7_Node000004_Node000008" class="edge">
<title>Node4&#45;&gt;Node8</title>
<g id="a_edge7_Node000004_Node000008"><a xlink:title=" ">
<path fill="none" stroke="#63b8ff" d="M263.48,-106.88C247.64,-98.43 228.5,-87.4 212.5,-75.75 194.95,-62.98 195.38,-53.46 176.5,-42.75 170.59,-39.4 164.2,-36.44 157.66,-33.83"/>
<polygon fill="#63b8ff" stroke="#63b8ff" points="261.52,-109.81 272.01,-111.34 264.76,-103.6 261.52,-109.81"/>
</a>
</g>
</g>
<!-- Node9 -->
<g id="Node000009" class="node">
<title>Node9</title>
<g id="a_Node000009"><a xlink:href="classGreenFHom3D.html#a419cbe00b5a2aed70ac546904a8a8d6f" target="_top" xlink:title="Compute &#160;and &#160;for all RWG pairs on two triangles.">
<polygon fill="white" stroke="#666666" points="161.88,-111.12 14.62,-111.12 14.62,-90.38 161.88,-90.38 161.88,-111.12"/>
<text xml:space="preserve" text-anchor="middle" x="88.25" y="-97.62" font-family="Helvetica,sans-Serif" font-size="10.00">GreenFHom3D::SameTriDK</text>
</a>
</g>
</g>
<!-- Node4&#45;&gt;Node9 -->
<g id="edge8_Node000004_Node000009" class="edge">
<title>Node4&#45;&gt;Node9</title>
<g id="a_edge8_Node000004_Node000009"><a xlink:title=" ">
<path fill="none" stroke="#63b8ff" d="M247.75,-117.68C222.43,-114.97 190.73,-111.59 162.35,-108.56"/>
<polygon fill="#63b8ff" stroke="#63b8ff" points="247.08,-121.12 257.39,-118.71 247.82,-114.16 247.08,-121.12"/>
</a>
</g>
</g>
<!-- Node10 -->
<g id="Node000010" class="node">
<title>Node10</title>
<g id="a_Node000010"><a xlink:href="classGreenFHom3DPer2D.html#a1dc9dd84c93ee10b2fb4b1866103d957" target="_top" xlink:title="Compute &#160;and &#160;for all RWG pairs on two triangles.">
<polygon fill="white" stroke="#666666" points="176.5,-72.12 0,-72.12 0,-51.38 176.5,-51.38 176.5,-72.12"/>
<text xml:space="preserve" text-anchor="middle" x="88.25" y="-58.62" font-family="Helvetica,sans-Serif" font-size="10.00">GreenFHom3DPer2D::SameTriDK</text>
</a>
</g>
</g>
<!-- Node4&#45;&gt;Node10 -->
<g id="edge9_Node000004_Node000010" class="edge">
<title>Node4&#45;&gt;Node10</title>
<g id="a_edge9_Node000004_Node000010"><a xlink:title=" ">
<path fill="none" stroke="#63b8ff" d="M256.03,-108.02C233.05,-99.69 203.35,-89.44 176.5,-81.75 165,-78.46 152.52,-75.33 140.7,-72.58"/>
<polygon fill="#63b8ff" stroke="#63b8ff" points="254.71,-111.27 265.31,-111.42 257.12,-104.7 254.71,-111.27"/>
</a>
</g>
</g>
</g>
</svg>
</svg>

<style type='text/css'>
<![CDATA[
[data-mouse-over-selected='false'] { opacity: 0.7; }
[data-mouse-over-selected='true']  { opacity: 1.0; }
]]>
</style>
<script type="application/ecmascript"><![CDATA[
document.addEventListener('DOMContentLoaded', (event) => {
  highlightEdges();
  highlightAdjacentNodes();
});
]]></script>
</svg>
