<?xml version="1.0" encoding="UTF-8" standalone="no"?>
<!DOCTYPE svg PUBLIC "-//W3C//DTD SVG 1.1//EN"
 "http://www.w3.org/Graphics/SVG/1.1/DTD/svg11.dtd">
<!-- Generated by graphviz version 13.1.2 (20250809.0930)
 -->
<!-- Title: GreenFLayered3D::GreenFLayered3D Pages: 1 -->
<svg width="654pt" height="223pt"
 viewBox="0.00 0.00 654.00 223.00" xmlns="http://www.w3.org/2000/svg" xmlns:xlink="http://www.w3.org/1999/xlink">
<g id="graph0" class="graph" transform="scale(1 1) rotate(0) translate(4 218.75)">
<title>GreenFLayered3D::GreenFLayered3D</title>
<!-- Node1 -->
<g id="Node000001" class="node">
<title>Node1</title>
<g id="a_Node000001"><a xlink:title="Construct layered Green&#39;s function (non&#45;magnetic layers).">
<polygon fill="#999999" stroke="#666666" points="197.5,-68.75 0,-68.75 0,-48 197.5,-48 197.5,-68.75"/>
<text xml:space="preserve" text-anchor="middle" x="98.75" y="-55.25" font-family="Helvetica,sans-Serif" font-size="10.00">GreenFLayered3D::GreenFLayered3D</text>
</a>
</g>
</g>
<!-- Node2 -->
<g id="Node000002" class="node">
<title>Node2</title>
<g id="a_Node000002"><a xlink:href="classGreenFLayered3D.html#ac014fbe12a1544418cc22938332942a4" target="_top" xlink:title="Fill all interpolation tables with Green&#39;s function values.">
<polygon fill="white" stroke="#666666" points="386.75,-124.12 233.5,-124.12 233.5,-90.62 386.75,-90.62 386.75,-124.12"/>
<text xml:space="preserve" text-anchor="start" x="241.5" y="-110.62" font-family="Helvetica,sans-Serif" font-size="10.00">GreenFLayered3D::FillGreen</text>
<text xml:space="preserve" text-anchor="middle" x="310.12" y="-97.88" font-family="Helvetica,sans-Serif" font-size="10.00">FTable</text>
</a>
</g>
</g>
<!-- Node1&#45;&gt;Node2 -->
<g id="edge1_Node000001_Node000002" class="edge">
<title>Node1&#45;&gt;Node2</title>
<g id="a_edge1_Node000001_Node000002"><a xlink:title=" ">
<path fill="none" stroke="#63b8ff" d="M146.22,-69.25C169.3,-74.65 197.92,-81.35 224.7,-87.62"/>
<polygon fill="#63b8ff" stroke="#63b8ff" points="223.64,-90.96 234.17,-89.83 225.23,-84.15 223.64,-90.96"/>
</a>
</g>
</g>
<!-- Node7 -->
<g id="Node000007" class="node">
<title>Node7</title>
<g id="a_Node000007"><a xlink:href="classGreenF.html#a332ac24f39288170f77c18f37fde2c82" target="_top" xlink:title="Constructor for a homogeneous, non&#45;magnetic medium.">
<polygon fill="white" stroke="#666666" points="356,-46.75 264.25,-46.75 264.25,-26 356,-26 356,-46.75"/>
<text xml:space="preserve" text-anchor="middle" x="310.12" y="-33.25" font-family="Helvetica,sans-Serif" font-size="10.00">GreenF::GreenF</text>
</a>
</g>
</g>
<!-- Node1&#45;&gt;Node7 -->
<g id="edge6_Node000001_Node000007" class="edge">
<title>Node1&#45;&gt;Node7</title>
<g id="a_edge6_Node000001_Node000007"><a xlink:title=" ">
<path fill="none" stroke="#63b8ff" d="M197.69,-48.08C216.46,-46.11 235.51,-44.11 252.43,-42.33"/>
<polygon fill="#63b8ff" stroke="#63b8ff" points="252.69,-45.82 262.27,-41.3 251.96,-38.86 252.69,-45.82"/>
</a>
</g>
</g>
<!-- Node3 -->
<g id="Node000003" class="node">
<title>Node3</title>
<g id="a_Node000003"><a xlink:href="classGreenFLayered3D.html#a412af9133282962ec12affb1509c6507" target="_top" xlink:title="Fill inter&#45;layer tables between two different layers.">
<polygon fill="white" stroke="#666666" points="569.25,-214.75 422.75,-214.75 422.75,-194 569.25,-194 569.25,-214.75"/>
<text xml:space="preserve" text-anchor="middle" x="496" y="-201.25" font-family="Helvetica,sans-Serif" font-size="10.00">GreenFLayered3D::FillInter</text>
</a>
</g>
</g>
<!-- Node2&#45;&gt;Node3 -->
<g id="edge2_Node000002_Node000003" class="edge">
<title>Node2&#45;&gt;Node3</title>
<g id="a_edge2_Node000002_Node000003"><a xlink:title=" ">
<path fill="none" stroke="#63b8ff" d="M330.77,-124.37C352.09,-141.99 387.78,-169.19 422.75,-185.38 426.27,-187 429.95,-188.51 433.71,-189.91"/>
<polygon fill="#63b8ff" stroke="#63b8ff" points="432.42,-193.16 443.01,-193.05 434.66,-186.53 432.42,-193.16"/>
</a>
</g>
</g>
<!-- Node4 -->
<g id="Node000004" class="node">
<title>Node4</title>
<g id="a_Node000004"><a xlink:href="classGreenFLayered3D.html#a0cb3c4922d84b741f69e6a8996ebd5d5" target="_top" xlink:title="Fill intra&#45;layer tables for internal layers (plus/minus sides).">
<polygon fill="white" stroke="#666666" points="569.25,-176.12 422.75,-176.12 422.75,-142.62 569.25,-142.62 569.25,-176.12"/>
<text xml:space="preserve" text-anchor="start" x="430.75" y="-162.62" font-family="Helvetica,sans-Serif" font-size="10.00">GreenFLayered3D::FillIntra</text>
<text xml:space="preserve" text-anchor="middle" x="496" y="-149.88" font-family="Helvetica,sans-Serif" font-size="10.00">Inside</text>
</a>
</g>
</g>
<!-- Node2&#45;&gt;Node4 -->
<g id="edge3_Node000002_Node000004" class="edge">
<title>Node2&#45;&gt;Node4</title>
<g id="a_edge3_Node000002_Node000004"><a xlink:title=" ">
<path fill="none" stroke="#63b8ff" d="M372.1,-124.62C388.48,-129.25 406.34,-134.3 423.25,-139.08"/>
<polygon fill="#63b8ff" stroke="#63b8ff" points="422.16,-142.41 432.74,-141.77 424.07,-135.68 422.16,-142.41"/>
</a>
</g>
</g>
<!-- Node5 -->
<g id="Node000005" class="node">
<title>Node5</title>
<g id="a_Node000005"><a xlink:href="classGreenFLayered3D.html#abe83b87d2228f9ad198e2924d841682d" target="_top" xlink:title="Fill intra&#45;layer tables for bottom/top half&#45;spaces.">
<polygon fill="white" stroke="#666666" points="569.25,-124.12 422.75,-124.12 422.75,-90.62 569.25,-90.62 569.25,-124.12"/>
<text xml:space="preserve" text-anchor="start" x="430.75" y="-110.62" font-family="Helvetica,sans-Serif" font-size="10.00">GreenFLayered3D::FillIntra</text>
<text xml:space="preserve" text-anchor="middle" x="496" y="-97.88" font-family="Helvetica,sans-Serif" font-size="10.00">TopBottom</text>
</a>
</g>
</g>
<!-- Node2&#45;&gt;Node5 -->
<g id="edge4_Node000002_Node000005" class="edge">
<title>Node2&#45;&gt;Node5</title>
<g id="a_edge4_Node000002_Node000005"><a xlink:title=" ">
<path fill="none" stroke="#63b8ff" d="M387.24,-107.38C395.07,-107.38 403.07,-107.38 410.98,-107.38"/>
<polygon fill="#63b8ff" stroke="#63b8ff" points="410.97,-110.88 420.97,-107.38 410.97,-103.88 410.97,-110.88"/>
</a>
</g>
</g>
<!-- Node6 -->
<g id="Node000006" class="node">
<title>Node6</title>
<g id="a_Node000006"><a xlink:href="classGreenFLayered3D.html#a41c1370112d040a3dc4c44a5853022ed" target="_top" xlink:title="Fresnel reflection/transmission at interface (delegates to utils).">
<polygon fill="white" stroke="#666666" points="568.5,-72.12 423.5,-72.12 423.5,-38.62 568.5,-38.62 568.5,-72.12"/>
<text xml:space="preserve" text-anchor="start" x="431.5" y="-58.62" font-family="Helvetica,sans-Serif" font-size="10.00">GreenFLayered3D::Fresnel</text>
<text xml:space="preserve" text-anchor="middle" x="496" y="-45.88" font-family="Helvetica,sans-Serif" font-size="10.00">Coeff</text>
</a>
</g>
</g>
<!-- Node2&#45;&gt;Node6 -->
<g id="edge5_Node000002_Node000006" class="edge">
<title>Node2&#45;&gt;Node6</title>
<g id="a_edge5_Node000002_Node000006"><a xlink:title=" ">
<path fill="none" stroke="#63b8ff" d="M372.1,-90.13C388.48,-85.5 406.34,-80.45 423.25,-75.67"/>
<polygon fill="#63b8ff" stroke="#63b8ff" points="424.07,-79.07 432.74,-72.98 422.16,-72.34 424.07,-79.07"/>
</a>
</g>
</g>
<!-- Node8 -->
<g id="Node000008" class="node">
<title>Node8</title>
<g id="a_Node000008"><a xlink:href="group__greenFunction.html#gac0a52dce23be7dacdf97c68653b6c137" target="_top" xlink:title="Complex square root with a branch cut along the negative real axis.">
<polygon fill="white" stroke="#666666" points="516,-20.75 476,-20.75 476,0 516,0 516,-20.75"/>
<text xml:space="preserve" text-anchor="middle" x="496" y="-7.25" font-family="Helvetica,sans-Serif" font-size="10.00">csqrt</text>
</a>
</g>
</g>
<!-- Node7&#45;&gt;Node8 -->
<g id="edge7_Node000007_Node000008" class="edge">
<title>Node7&#45;&gt;Node8</title>
<g id="a_edge7_Node000007_Node000008"><a xlink:title=" ">
<path fill="none" stroke="#63b8ff" d="M356.11,-30.01C389.75,-25.26 434.85,-18.88 464.41,-14.7"/>
<polygon fill="#63b8ff" stroke="#63b8ff" points="464.75,-18.19 474.17,-13.32 463.77,-11.26 464.75,-18.19"/>
</a>
</g>
</g>
<!-- Node9 -->
<g id="Node000009" class="node">
<title>Node9</title>
<g id="a_Node000009"><a xlink:href="Domain_8cpp.html#aafa3e4fa6318b2f8740f4dbd50c367e5" target="_top" xlink:title="Extract the real part of each component of a complex 3&#45;vector.">
<polygon fill="white" stroke="#666666" points="640,-20.75 605.25,-20.75 605.25,0 640,0 640,-20.75"/>
<text xml:space="preserve" text-anchor="middle" x="622.62" y="-7.25" font-family="Helvetica,sans-Serif" font-size="10.00">real</text>
</a>
</g>
</g>
<!-- Node8&#45;&gt;Node9 -->
<g id="edge8_Node000008_Node000009" class="edge">
<title>Node8&#45;&gt;Node9</title>
<g id="a_edge8_Node000008_Node000009"><a xlink:title=" ">
<path fill="none" stroke="#63b8ff" d="M516.47,-10.38C537.23,-10.38 570.27,-10.38 593.77,-10.38"/>
<polygon fill="#63b8ff" stroke="#63b8ff" points="593.56,-13.88 603.56,-10.38 593.56,-6.88 593.56,-13.88"/>
</a>
</g>
</g>
<!-- Node9&#45;&gt;Node9 -->
<g id="edge9_Node000009_Node000009" class="edge">
<title>Node9&#45;&gt;Node9</title>
<g id="a_edge9_Node000009_Node000009"><a xlink:title=" ">
<path fill="none" stroke="#63b8ff" d="M604.82,-18.8C592.95,-28.11 598.88,-38.75 622.62,-38.75 638.21,-38.75 646.12,-34.17 646.36,-28.39"/>
<polygon fill="#63b8ff" stroke="#63b8ff" points="649.46,-26.75 641.23,-20.09 643.51,-30.43 649.46,-26.75"/>
</a>
</g>
</g>
</g>
</svg>
