<?xml version="1.0" encoding="UTF-8" standalone="no"?>
<!DOCTYPE svg PUBLIC "-//W3C//DTD SVG 1.1//EN"
 "http://www.w3.org/Graphics/SVG/1.1/DTD/svg11.dtd">
<!-- Generated by graphviz version 13.1.2 (20250809.0930)
 -->
<!-- Title: Triangle::Triangle Pages: 1 -->
<svg width="511pt" height="210pt"
 viewBox="0.00 0.00 511.00 210.00" xmlns="http://www.w3.org/2000/svg" xmlns:xlink="http://www.w3.org/1999/xlink">
<g id="graph0" class="graph" transform="scale(1 1) rotate(0) translate(4 206.12)">
<title>Triangle::Triangle</title>
<!-- Node1 -->
<g id="Node000001" class="node">
<title>Node1</title>
<g id="a_Node000001"><a xlink:title="Construct from 3 node pointers and bordering domains.">
<polygon fill="#999999" stroke="#666666" points="503.25,-101.12 404.75,-101.12 404.75,-80.38 503.25,-80.38 503.25,-101.12"/>
<text xml:space="preserve" text-anchor="middle" x="454" y="-87.62" font-family="Helvetica,sans-Serif" font-size="10.00">Triangle::Triangle</text>
</a>
</g>
</g>
<!-- Node2 -->
<g id="Node000002" class="node">
<title>Node2</title>
<g id="a_Node000002"><a xlink:href="classTriangle.html#a6a5a3532e273e1fbb69b26eea2f509c0" target="_top" xlink:title="Count common nodes with triangle T (0..3).">
<polygon fill="white" stroke="#666666" points="356,-163.12 225.25,-163.12 225.25,-142.38 356,-142.38 356,-163.12"/>
<text xml:space="preserve" text-anchor="middle" x="290.62" y="-149.62" font-family="Helvetica,sans-Serif" font-size="10.00">Triangle::FindAdjacency</text>
</a>
</g>
</g>
<!-- Node1&#45;&gt;Node2 -->
<g id="edge1_Node000001_Node000002" class="edge">
<title>Node1&#45;&gt;Node2</title>
<g id="a_edge1_Node000001_Node000002"><a xlink:title=" ">
<path fill="none" stroke="#63b8ff" d="M424.3,-106.93C408.32,-115.46 387.84,-125.61 368.75,-132.75 359.55,-136.19 349.52,-139.26 339.83,-141.9"/>
<polygon fill="#63b8ff" stroke="#63b8ff" points="425.66,-110.18 432.77,-102.32 422.32,-104.02 425.66,-110.18"/>
</a>
</g>
</g>
<!-- Node6 -->
<g id="Node000006" class="node">
<title>Node6</title>
<g id="a_Node000006"><a xlink:href="classTriangle.html#a110eb211c31cc4fa6a936d8d4c201306" target="_top" xlink:title="Count common nodes with T after translating T by vector t.">
<polygon fill="white" stroke="#666666" points="356,-124.12 225.25,-124.12 225.25,-103.38 356,-103.38 356,-124.12"/>
<text xml:space="preserve" text-anchor="middle" x="290.62" y="-110.62" font-family="Helvetica,sans-Serif" font-size="10.00">Triangle::FindAdjacency</text>
</a>
</g>
</g>
<!-- Node1&#45;&gt;Node6 -->
<g id="edge5_Node000001_Node000006" class="edge">
<title>Node1&#45;&gt;Node6</title>
<g id="a_edge5_Node000001_Node000006"><a xlink:title=" ">
<path fill="none" stroke="#63b8ff" d="M393.31,-99.26C381.29,-100.97 368.61,-102.78 356.43,-104.51"/>
<polygon fill="#63b8ff" stroke="#63b8ff" points="393.68,-102.74 403.08,-97.86 392.69,-95.81 393.68,-102.74"/>
</a>
</g>
</g>
<!-- Node7 -->
<g id="Node000007" class="node">
<title>Node7</title>
<g id="a_Node000007"><a xlink:href="classTriangle.html#aab413203fc04781220ce7cf8224105bd" target="_top" xlink:title="Find common edge local indices with T.">
<polygon fill="white" stroke="#666666" points="365,-85.5 216.25,-85.5 216.25,-52 365,-52 365,-85.5"/>
<text xml:space="preserve" text-anchor="start" x="224.25" y="-72" font-family="Helvetica,sans-Serif" font-size="10.00">Triangle::FindCommonEdge</text>
<text xml:space="preserve" text-anchor="middle" x="290.62" y="-59.25" font-family="Helvetica,sans-Serif" font-size="10.00">Indices</text>
</a>
</g>
</g>
<!-- Node1&#45;&gt;Node7 -->
<g id="edge6_Node000001_Node000007" class="edge">
<title>Node1&#45;&gt;Node7</title>
<g id="a_edge6_Node000001_Node000007"><a xlink:title=" ">
<path fill="none" stroke="#63b8ff" d="M393.3,-82.61C384.21,-81.37 374.73,-80.08 365.38,-78.8"/>
<polygon fill="#63b8ff" stroke="#63b8ff" points="392.7,-86.06 403.08,-83.94 393.65,-79.13 392.7,-86.06"/>
</a>
</g>
</g>
<!-- Node8 -->
<g id="Node000008" class="node">
<title>Node8</title>
<g id="a_Node000008"><a xlink:href="classTriangle.html#aa137190a0a6fd9adadee37a8228313d6" target="_top" xlink:title="Find common vertex local indices with T.">
<polygon fill="white" stroke="#666666" points="368.75,-33.5 212.5,-33.5 212.5,0 368.75,0 368.75,-33.5"/>
<text xml:space="preserve" text-anchor="start" x="220.5" y="-20" font-family="Helvetica,sans-Serif" font-size="10.00">Triangle::FindCommonVertex</text>
<text xml:space="preserve" text-anchor="middle" x="290.62" y="-7.25" font-family="Helvetica,sans-Serif" font-size="10.00">Indices</text>
</a>
</g>
</g>
<!-- Node1&#45;&gt;Node8 -->
<g id="edge7_Node000001_Node000008" class="edge">
<title>Node1&#45;&gt;Node8</title>
<g id="a_edge7_Node000001_Node000008"><a xlink:title=" ">
<path fill="none" stroke="#63b8ff" d="M427,-74.2C410.68,-64.26 388.98,-51.82 368.75,-42.75 361.79,-39.63 354.33,-36.67 346.9,-33.94"/>
<polygon fill="#63b8ff" stroke="#63b8ff" points="424.77,-76.93 435.11,-79.22 428.45,-70.98 424.77,-76.93"/>
</a>
</g>
</g>
<!-- Node3 -->
<g id="Node000003" class="node">
<title>Node3</title>
<g id="a_Node000003"><a xlink:href="classGreenFHom3D.html#a419cbe00b5a2aed70ac546904a8a8d6f" target="_top" xlink:title="Compute &#160;and &#160;for all RWG pairs on two triangles.">
<polygon fill="white" stroke="#666666" points="161.88,-202.12 14.62,-202.12 14.62,-181.38 161.88,-181.38 161.88,-202.12"/>
<text xml:space="preserve" text-anchor="middle" x="88.25" y="-188.62" font-family="Helvetica,sans-Serif" font-size="10.00">GreenFHom3D::SameTriDK</text>
</a>
</g>
</g>
<!-- Node2&#45;&gt;Node3 -->
<g id="edge2_Node000002_Node000003" class="edge">
<title>Node2&#45;&gt;Node3</title>
<g id="a_edge2_Node000002_Node000003"><a xlink:title=" ">
<path fill="none" stroke="#63b8ff" d="M222.51,-165.81C197.38,-170.7 169.12,-176.2 145.11,-180.88"/>
<polygon fill="#63b8ff" stroke="#63b8ff" points="223.18,-169.25 232.32,-163.9 221.84,-162.38 223.18,-169.25"/>
</a>
</g>
</g>
<!-- Node4 -->
<g id="Node000004" class="node">
<title>Node4</title>
<g id="a_Node000004"><a xlink:href="classGreenFHom3DPer2D.html#a1dc9dd84c93ee10b2fb4b1866103d957" target="_top" xlink:title="Compute &#160;and &#160;for all RWG pairs on two triangles.">
<polygon fill="white" stroke="#666666" points="176.5,-163.12 0,-163.12 0,-142.38 176.5,-142.38 176.5,-163.12"/>
<text xml:space="preserve" text-anchor="middle" x="88.25" y="-149.62" font-family="Helvetica,sans-Serif" font-size="10.00">GreenFHom3DPer2D::SameTriDK</text>
</a>
</g>
</g>
<!-- Node2&#45;&gt;Node4 -->
<g id="edge3_Node000002_Node000004" class="edge">
<title>Node2&#45;&gt;Node4</title>
<g id="a_edge3_Node000002_Node000004"><a xlink:title=" ">
<path fill="none" stroke="#63b8ff" d="M213.51,-152.75C201.51,-152.75 189.02,-152.75 176.79,-152.75"/>
<polygon fill="#63b8ff" stroke="#63b8ff" points="213.33,-156.25 223.33,-152.75 213.33,-149.25 213.33,-156.25"/>
</a>
</g>
</g>
<!-- Node5 -->
<g id="Node000005" class="node">
<title>Node5</title>
<g id="a_Node000005"><a xlink:href="classGreenFLayered3D.html#a6c88af86169f8d148c3e9f4da77a77d0" target="_top" xlink:title="Triangle–triangle D/K blocks assembly for all RWG pairs on two triangles.">
<polygon fill="white" stroke="#666666" points="169.75,-124.12 6.75,-124.12 6.75,-103.38 169.75,-103.38 169.75,-124.12"/>
<text xml:space="preserve" text-anchor="middle" x="88.25" y="-110.62" font-family="Helvetica,sans-Serif" font-size="10.00">GreenFLayered3D::SameTriDK</text>
</a>
</g>
</g>
<!-- Node2&#45;&gt;Node5 -->
<g id="edge4_Node000002_Node000005" class="edge">
<title>Node2&#45;&gt;Node5</title>
<g id="a_edge4_Node000002_Node000005"><a xlink:title=" ">
<path fill="none" stroke="#63b8ff" d="M222.51,-139.69C197.38,-134.8 169.12,-129.3 145.11,-124.62"/>
<polygon fill="#63b8ff" stroke="#63b8ff" points="221.84,-143.12 232.32,-141.6 223.18,-136.25 221.84,-143.12"/>
</a>
</g>
</g>
</g>
</svg>
