<?xml version="1.0" encoding="UTF-8" standalone="no"?>
<!DOCTYPE svg PUBLIC "-//W3C//DTD SVG 1.1//EN"
 "http://www.w3.org/Graphics/SVG/1.1/DTD/svg11.dtd">
<!-- Generated by graphviz version 13.1.2 (20250809.0930)
 -->
<!-- Title: Triangle::containsPoint Pages: 1 -->
<svg width="257pt" height="107pt"
 viewBox="0.00 0.00 257.00 107.00" xmlns="http://www.w3.org/2000/svg" xmlns:xlink="http://www.w3.org/1999/xlink">
<g id="graph0" class="graph" transform="scale(1 1) rotate(0) translate(4 102.75)">
<title>Triangle::containsPoint</title>
<!-- Node1 -->
<g id="Node000001" class="node">
<title>Node1</title>
<g id="a_Node000001"><a xlink:title="Test whether a point lies on (or very near) the triangle.">
<polygon fill="#999999" stroke="#666666" points="126.25,-59.75 0,-59.75 0,-39 126.25,-39 126.25,-59.75"/>
<text xml:space="preserve" text-anchor="middle" x="63.12" y="-46.25" font-family="Helvetica,sans-Serif" font-size="10.00">Triangle::containsPoint</text>
</a>
</g>
</g>
<!-- Node2 -->
<g id="Node000002" class="node">
<title>Node2</title>
<g id="a_Node000002"><a xlink:href="classTriangle.html#a1d3d08deeb999f339d2e821a877521ba" target="_top" xlink:title="Surface area of the triangle.">
<polygon fill="white" stroke="#666666" points="246.88,-98.75 164.12,-98.75 164.12,-78 246.88,-78 246.88,-98.75"/>
<text xml:space="preserve" text-anchor="middle" x="205.5" y="-85.25" font-family="Helvetica,sans-Serif" font-size="10.00">Triangle::Area</text>
</a>
</g>
</g>
<!-- Node1&#45;&gt;Node2 -->
<g id="edge1_Node000001_Node000002" class="edge">
<title>Node1&#45;&gt;Node2</title>
<g id="a_edge1_Node000001_Node000002"><a xlink:title=" ">
<path fill="none" stroke="#63b8ff" d="M103.23,-60.24C119.2,-64.68 137.86,-69.86 154.78,-74.56"/>
<polygon fill="#63b8ff" stroke="#63b8ff" points="153.58,-77.86 164.15,-77.16 155.45,-71.12 153.58,-77.86"/>
</a>
</g>
</g>
<!-- Node3 -->
<g id="Node000003" class="node">
<title>Node3</title>
<g id="a_Node000003"><a xlink:href="classTriangle.html#a837631cb39cc7af167b9f54436aadcae" target="_top" xlink:title="Small helper to zero tiny values (for robust barycentric math).">
<polygon fill="white" stroke="#666666" points="248.75,-59.75 162.25,-59.75 162.25,-39 248.75,-39 248.75,-59.75"/>
<text xml:space="preserve" text-anchor="middle" x="205.5" y="-46.25" font-family="Helvetica,sans-Serif" font-size="10.00">Triangle::clean</text>
</a>
</g>
</g>
<!-- Node1&#45;&gt;Node3 -->
<g id="edge2_Node000001_Node000003" class="edge">
<title>Node1&#45;&gt;Node3</title>
<g id="a_edge2_Node000001_Node000003"><a xlink:title=" ">
<path fill="none" stroke="#63b8ff" d="M126.51,-49.38C134.58,-49.38 142.79,-49.38 150.7,-49.38"/>
<polygon fill="#63b8ff" stroke="#63b8ff" points="150.52,-52.88 160.52,-49.38 150.52,-45.88 150.52,-52.88"/>
</a>
</g>
</g>
<!-- Node4 -->
<g id="Node000004" class="node">
<title>Node4</title>
<g id="a_Node000004"><a xlink:href="classTriangle.html#a0752d2c9488c7c44b851b8f75abcaa79" target="_top" xlink:title="Node position (by value) for local index 0..2.">
<polygon fill="white" stroke="#666666" points="248.38,-20.75 162.62,-20.75 162.62,0 248.38,0 248.38,-20.75"/>
<text xml:space="preserve" text-anchor="middle" x="205.5" y="-7.25" font-family="Helvetica,sans-Serif" font-size="10.00">Triangle::Node</text>
</a>
</g>
</g>
<!-- Node1&#45;&gt;Node4 -->
<g id="edge3_Node000001_Node000004" class="edge">
<title>Node1&#45;&gt;Node4</title>
<g id="a_edge3_Node000001_Node000004"><a xlink:title=" ">
<path fill="none" stroke="#63b8ff" d="M103.23,-38.51C119.2,-34.07 137.86,-28.89 154.78,-24.19"/>
<polygon fill="#63b8ff" stroke="#63b8ff" points="155.45,-27.63 164.15,-21.59 153.58,-20.89 155.45,-27.63"/>
</a>
</g>
</g>
</g>
</svg>
