<?xml version="1.0" encoding="UTF-8" standalone="no"?>
<!DOCTYPE svg PUBLIC "-//W3C//DTD SVG 1.1//EN"
 "http://www.w3.org/Graphics/SVG/1.1/DTD/svg11.dtd">
<!-- Generated by graphviz version 13.1.2 (20250809.0930)
 -->
<!-- Title: Bsp3D::SplitPoly Pages: 1 -->
<svg width="355pt" height="48pt"
 viewBox="0.00 0.00 355.00 48.00" xmlns="http://www.w3.org/2000/svg" xmlns:xlink="http://www.w3.org/1999/xlink">
<g id="graph0" class="graph" transform="scale(1 1) rotate(0) translate(4 43.75)">
<title>Bsp3D::SplitPoly</title>
<!-- Node1 -->
<g id="Node000001" class="node">
<title>Node1</title>
<g id="a_Node000001"><a xlink:title="Clip a polygon against the splitter, dispatching fragments to children.">
<polygon fill="#999999" stroke="#666666" points="96.25,-39.75 0,-39.75 0,-19 96.25,-19 96.25,-39.75"/>
<text xml:space="preserve" text-anchor="middle" x="48.12" y="-26.25" font-family="Helvetica,sans-Serif" font-size="10.00">Bsp3D::SplitPoly</text>
</a>
</g>
</g>
<!-- Node2 -->
<g id="Node000002" class="node">
<title>Node2</title>
<g id="a_Node000002"><a xlink:href="classBsp3D.html#ab86d60e3ac1a432328b7b3115ba76d1b" target="_top" xlink:title="Signed distance from a point to the splitter plane.">
<polygon fill="white" stroke="#666666" points="347.25,-39.75 257.75,-39.75 257.75,-19 347.25,-19 347.25,-39.75"/>
<text xml:space="preserve" text-anchor="middle" x="302.5" y="-26.25" font-family="Helvetica,sans-Serif" font-size="10.00">Bsp3D::LocDist</text>
</a>
</g>
</g>
<!-- Node1&#45;&gt;Node2 -->
<g id="edge1_Node000001_Node000002" class="edge">
<title>Node1&#45;&gt;Node2</title>
<g id="a_edge1_Node000001_Node000002"><a xlink:title=" ">
<path fill="none" stroke="#63b8ff" d="M96.59,-29.38C139.15,-29.38 201.6,-29.38 246.36,-29.38"/>
<polygon fill="#63b8ff" stroke="#63b8ff" points="246.11,-32.88 256.11,-29.38 246.11,-25.88 246.11,-32.88"/>
</a>
</g>
</g>
<!-- Node3 -->
<g id="Node000003" class="node">
<title>Node3</title>
<g id="a_Node000003"><a xlink:href="classBsp3D.html#aeef40776817ce8cec917de1fb2e84f7a" target="_top" xlink:title="Classify a point relative to the splitter plane.">
<polygon fill="white" stroke="#666666" points="221.75,-20.75 132.25,-20.75 132.25,0 221.75,0 221.75,-20.75"/>
<text xml:space="preserve" text-anchor="middle" x="177" y="-7.25" font-family="Helvetica,sans-Serif" font-size="10.00">Bsp3D::LocTest</text>
</a>
</g>
</g>
<!-- Node1&#45;&gt;Node3 -->
<g id="edge2_Node000001_Node000003" class="edge">
<title>Node1&#45;&gt;Node3</title>
<g id="a_edge2_Node000001_Node000003"><a xlink:title=" ">
<path fill="none" stroke="#63b8ff" d="M96.73,-22.25C104.57,-21.07 112.75,-19.85 120.76,-18.65"/>
<polygon fill="#63b8ff" stroke="#63b8ff" points="121.03,-22.15 130.4,-17.2 120,-15.22 121.03,-22.15"/>
</a>
</g>
</g>
<!-- Node3&#45;&gt;Node2 -->
<g id="edge3_Node000003_Node000002" class="edge">
<title>Node3&#45;&gt;Node2</title>
<g id="a_edge3_Node000003_Node000002"><a xlink:title=" ">
<path fill="none" stroke="#63b8ff" d="M222.24,-17.18C230.05,-18.38 238.26,-19.65 246.33,-20.89"/>
<polygon fill="#63b8ff" stroke="#63b8ff" points="245.66,-24.33 256.08,-22.39 246.72,-17.41 245.66,-24.33"/>
</a>
</g>
</g>
</g>
</svg>
