<?xml version="1.0" encoding="UTF-8" standalone="no"?>
<!DOCTYPE svg PUBLIC "-//W3C//DTD SVG 1.1//EN"
 "http://www.w3.org/Graphics/SVG/1.1/DTD/svg11.dtd">
<!-- Generated by graphviz version 13.1.2 (20250809.0930)
 -->
<!-- Title: Triangle::SetDomainIndeces Pages: 1 -->
<svg width="496pt" height="29pt"
 viewBox="0.00 0.00 496.00 29.00" xmlns="http://www.w3.org/2000/svg" xmlns:xlink="http://www.w3.org/1999/xlink">
<g id="graph0" class="graph" transform="scale(1 1) rotate(0) translate(4 24.75)">
<title>Triangle::SetDomainIndeces</title>
<!-- Node1 -->
<g id="Node000001" class="node">
<title>Node1</title>
<g id="a_Node000001"><a xlink:title="Set front/back domain indices; recomputes cached geometry.">
<polygon fill="#999999" stroke="#666666" points="151.75,-20.75 0,-20.75 0,0 151.75,0 151.75,-20.75"/>
<text xml:space="preserve" text-anchor="middle" x="75.88" y="-7.25" font-family="Helvetica,sans-Serif" font-size="10.00">Triangle::SetDomainIndeces</text>
</a>
</g>
</g>
<!-- Node2 -->
<g id="Node000002" class="node">
<title>Node2</title>
<g id="a_Node000002"><a xlink:href="classTriangle.html#ae13d69e28fb7a81ab8257fe0af84ceaa" target="_top" xlink:title="Compute/cached geometry (normal, area, perimeter, center, I1/I2s/I2d).">
<polygon fill="white" stroke="#666666" points="365.75,-20.75 187.75,-20.75 187.75,0 365.75,0 365.75,-20.75"/>
<text xml:space="preserve" text-anchor="middle" x="276.75" y="-7.25" font-family="Helvetica,sans-Serif" font-size="10.00">Triangle::CalculateGeometryData</text>
</a>
</g>
</g>
<!-- Node1&#45;&gt;Node2 -->
<g id="edge1_Node000001_Node000002" class="edge">
<title>Node1&#45;&gt;Node2</title>
<g id="a_edge1_Node000001_Node000002"><a xlink:title=" ">
<path fill="none" stroke="#63b8ff" d="M152.06,-10.38C159.91,-10.38 167.98,-10.38 176.04,-10.38"/>
<polygon fill="#63b8ff" stroke="#63b8ff" points="175.91,-13.88 185.91,-10.38 175.91,-6.88 175.91,-13.88"/>
</a>
</g>
</g>
<!-- Node3 -->
<g id="Node000003" class="node">
<title>Node3</title>
<g id="a_Node000003"><a xlink:href="classTriangle.html#a0752d2c9488c7c44b851b8f75abcaa79" target="_top" xlink:title="Node position (by value) for local index 0..2.">
<polygon fill="white" stroke="#666666" points="487.5,-20.75 401.75,-20.75 401.75,0 487.5,0 487.5,-20.75"/>
<text xml:space="preserve" text-anchor="middle" x="444.62" y="-7.25" font-family="Helvetica,sans-Serif" font-size="10.00">Triangle::Node</text>
</a>
</g>
</g>
<!-- Node2&#45;&gt;Node3 -->
<g id="edge2_Node000002_Node000003" class="edge">
<title>Node2&#45;&gt;Node3</title>
<g id="a_edge2_Node000002_Node000003"><a xlink:title=" ">
<path fill="none" stroke="#63b8ff" d="M366.03,-10.38C374.25,-10.38 382.4,-10.38 390.16,-10.38"/>
<polygon fill="#63b8ff" stroke="#63b8ff" points="390.07,-13.88 400.07,-10.38 390.07,-6.88 390.07,-13.88"/>
</a>
</g>
</g>
</g>
</svg>
