<?xml version="1.0" encoding="UTF-8" standalone="no"?>
<!DOCTYPE svg PUBLIC "-//W3C//DTD SVG 1.1//EN"
 "http://www.w3.org/Graphics/SVG/1.1/DTD/svg11.dtd">
<!-- Generated by graphviz version 13.1.2 (20250809.0930)
 -->
<!-- Title: Gaussian::IntegrateH Pages: 1 -->
<svg width="432pt" height="68pt"
 viewBox="0.00 0.00 432.00 68.00" xmlns="http://www.w3.org/2000/svg" xmlns:xlink="http://www.w3.org/1999/xlink">
<g id="graph0" class="graph" transform="scale(1 1) rotate(0) translate(4 63.75)">
<title>Gaussian::IntegrateH</title>
<!-- Node1 -->
<g id="Node000001" class="node">
<title>Node1</title>
<g id="a_Node000001"><a xlink:title="RWG projection of the incident magnetic field.">
<polygon fill="#999999" stroke="#666666" points="118.75,-39.75 0,-39.75 0,-19 118.75,-19 118.75,-39.75"/>
<text xml:space="preserve" text-anchor="middle" x="59.38" y="-26.25" font-family="Helvetica,sans-Serif" font-size="10.00">Gaussian::IntegrateH</text>
</a>
</g>
</g>
<!-- Node2 -->
<g id="Node000002" class="node">
<title>Node2</title>
<g id="a_Node000002"><a xlink:href="classGaussian.html#ad420298383fc00144d4f1dc9e87b8ee7" target="_top" xlink:title="Evaluate the incident magnetic field .">
<polygon fill="white" stroke="#666666" points="272,-59.75 154.75,-59.75 154.75,-39 272,-39 272,-59.75"/>
<text xml:space="preserve" text-anchor="middle" x="213.38" y="-46.25" font-family="Helvetica,sans-Serif" font-size="10.00">Gaussian::EvaluateH</text>
</a>
</g>
</g>
<!-- Node1&#45;&gt;Node2 -->
<g id="edge1_Node000001_Node000002" class="edge">
<title>Node1&#45;&gt;Node2</title>
<g id="a_edge1_Node000001_Node000002"><a xlink:title=" ">
<path fill="none" stroke="#63b8ff" d="M119.14,-37.11C126.98,-38.14 135.07,-39.2 143.07,-40.26"/>
<polygon fill="#63b8ff" stroke="#63b8ff" points="142.39,-43.7 152.76,-41.53 143.31,-36.76 142.39,-43.7"/>
</a>
</g>
</g>
<!-- Node4 -->
<g id="Node000004" class="node">
<title>Node4</title>
<g id="a_Node000004"><a xlink:href="classGaussian.html#a3621600be0f1a452bc426f15041d4ed4" target="_top" xlink:title="Construct a Gaussian beam in a homogeneous medium.">
<polygon fill="white" stroke="#666666" points="269.38,-20.75 157.38,-20.75 157.38,0 269.38,0 269.38,-20.75"/>
<text xml:space="preserve" text-anchor="middle" x="213.38" y="-7.25" font-family="Helvetica,sans-Serif" font-size="10.00">Gaussian::Gaussian</text>
</a>
</g>
</g>
<!-- Node1&#45;&gt;Node4 -->
<g id="edge3_Node000001_Node000004" class="edge">
<title>Node1&#45;&gt;Node4</title>
<g id="a_edge3_Node000001_Node000004"><a xlink:title=" ">
<path fill="none" stroke="#63b8ff" d="M119.14,-22.03C127.95,-20.93 137.09,-19.79 146.05,-18.67"/>
<polygon fill="#63b8ff" stroke="#63b8ff" points="146.26,-22.17 155.75,-17.45 145.39,-15.22 146.26,-22.17"/>
</a>
</g>
</g>
<!-- Node3 -->
<g id="Node000003" class="node">
<title>Node3</title>
<g id="a_Node000003"><a xlink:href="classGaussian.html#a0cccdedf53f0840888d57144566442b4" target="_top" xlink:title="Evaluate the incident electric field .">
<polygon fill="white" stroke="#666666" points="423.75,-59.75 308,-59.75 308,-39 423.75,-39 423.75,-59.75"/>
<text xml:space="preserve" text-anchor="middle" x="365.88" y="-46.25" font-family="Helvetica,sans-Serif" font-size="10.00">Gaussian::EvaluateE</text>
</a>
</g>
</g>
<!-- Node2&#45;&gt;Node3 -->
<g id="edge2_Node000002_Node000003" class="edge">
<title>Node2&#45;&gt;Node3</title>
<g id="a_edge2_Node000002_Node000003"><a xlink:title=" ">
<path fill="none" stroke="#63b8ff" d="M272.13,-49.38C280.02,-49.38 288.18,-49.38 296.24,-49.38"/>
<polygon fill="#63b8ff" stroke="#63b8ff" points="296.01,-52.88 306.01,-49.38 296.01,-45.88 296.01,-52.88"/>
</a>
</g>
</g>
</g>
</svg>
