<?xml version="1.0" encoding="UTF-8" standalone="no"?>
<!DOCTYPE svg PUBLIC "-//W3C//DTD SVG 1.1//EN"
 "http://www.w3.org/Graphics/SVG/1.1/DTD/svg11.dtd">
<!-- Generated by graphviz version 13.1.2 (20250809.0930)
 -->
<!-- Title: SimJob::HField Pages: 1 -->
<svg width="370pt" height="68pt"
 viewBox="0.00 0.00 370.00 68.00" xmlns="http://www.w3.org/2000/svg" xmlns:xlink="http://www.w3.org/1999/xlink">
<g id="graph0" class="graph" transform="scale(1 1) rotate(0) translate(4 63.75)">
<title>SimJob::HField</title>
<!-- Node1 -->
<g id="Node000001" class="node">
<title>Node1</title>
<g id="a_Node000001"><a xlink:title="Incident and secondary &#160;at pos with known containing domain.">
<polygon fill="#999999" stroke="#666666" points="86.5,-39.75 0,-39.75 0,-19 86.5,-19 86.5,-39.75"/>
<text xml:space="preserve" text-anchor="middle" x="43.25" y="-26.25" font-family="Helvetica,sans-Serif" font-size="10.00">SimJob::HField</text>
</a>
</g>
</g>
<!-- Node2 -->
<g id="Node000002" class="node">
<title>Node2</title>
<g id="a_Node000002"><a xlink:href="classDomain.html#a832a36e6ba8ae02be3dd493bd2577d4a" target="_top" xlink:title="Total incident magnetic field at a point from all incident sources.">
<polygon fill="white" stroke="#666666" points="229.25,-59.75 124,-59.75 124,-39 229.25,-39 229.25,-59.75"/>
<text xml:space="preserve" text-anchor="middle" x="176.62" y="-46.25" font-family="Helvetica,sans-Serif" font-size="10.00">Domain::IncFieldH</text>
</a>
</g>
</g>
<!-- Node1&#45;&gt;Node2 -->
<g id="edge1_Node000001_Node000002" class="edge">
<title>Node1&#45;&gt;Node2</title>
<g id="a_edge1_Node000001_Node000002"><a xlink:title=" ">
<path fill="none" stroke="#63b8ff" d="M86.9,-35.87C95.03,-37.11 103.7,-38.42 112.31,-39.74"/>
<polygon fill="#63b8ff" stroke="#63b8ff" points="111.64,-43.17 122.05,-41.22 112.69,-36.25 111.64,-43.17"/>
</a>
</g>
</g>
<!-- Node3 -->
<g id="Node000003" class="node">
<title>Node3</title>
<g id="a_Node000003"><a xlink:href="classDomain.html#a507d3690b3a17a9f01beb83a2d6b026e" target="_top" xlink:title="Secondary (scattered) magnetic field at a point from the solution vector.">
<polygon fill="white" stroke="#666666" points="230.75,-20.75 122.5,-20.75 122.5,0 230.75,0 230.75,-20.75"/>
<text xml:space="preserve" text-anchor="middle" x="176.62" y="-7.25" font-family="Helvetica,sans-Serif" font-size="10.00">Domain::SecFieldH</text>
</a>
</g>
</g>
<!-- Node1&#45;&gt;Node3 -->
<g id="edge2_Node000001_Node000003" class="edge">
<title>Node1&#45;&gt;Node3</title>
<g id="a_edge2_Node000001_Node000003"><a xlink:title=" ">
<path fill="none" stroke="#63b8ff" d="M86.9,-23.21C94.54,-22.1 102.66,-20.93 110.75,-19.76"/>
<polygon fill="#63b8ff" stroke="#63b8ff" points="111.25,-23.22 120.64,-18.33 110.24,-16.29 111.25,-23.22"/>
</a>
</g>
</g>
<!-- Node4 -->
<g id="Node000004" class="node">
<title>Node4</title>
<g id="a_Node000004"><a xlink:href="classDomain.html#a928ea926ed97bac309194301a8b509c3" target="_top" xlink:title="Relative permittivity at a spatial location.">
<polygon fill="white" stroke="#666666" points="362.25,-20.75 266.75,-20.75 266.75,0 362.25,0 362.25,-20.75"/>
<text xml:space="preserve" text-anchor="middle" x="314.5" y="-7.25" font-family="Helvetica,sans-Serif" font-size="10.00">Domain::Epsilon</text>
</a>
</g>
</g>
<!-- Node3&#45;&gt;Node4 -->
<g id="edge3_Node000003_Node000004" class="edge">
<title>Node3&#45;&gt;Node4</title>
<g id="a_edge3_Node000003_Node000004"><a xlink:title=" ">
<path fill="none" stroke="#63b8ff" d="M230.94,-10.38C238.92,-10.38 247.19,-10.38 255.27,-10.38"/>
<polygon fill="#63b8ff" stroke="#63b8ff" points="255,-13.88 265,-10.38 255,-6.88 255,-13.88"/>
</a>
</g>
</g>
</g>
</svg>
