<?xml version="1.0" encoding="UTF-8" standalone="no"?>
<!DOCTYPE svg PUBLIC "-//W3C//DTD SVG 1.1//EN"
 "http://www.w3.org/Graphics/SVG/1.1/DTD/svg11.dtd">
<!-- Generated by graphviz version 13.1.2 (20250809.0930)
 -->
<!-- Title: PlaneWave::IntegrateH Pages: 1 -->
<svg width="302pt" height="68pt"
 viewBox="0.00 0.00 302.00 68.00" xmlns="http://www.w3.org/2000/svg" xmlns:xlink="http://www.w3.org/1999/xlink">
<g id="graph0" class="graph" transform="scale(1 1) rotate(0) translate(4 63.75)">
<title>PlaneWave::IntegrateH</title>
<!-- Node1 -->
<g id="Node000001" class="node">
<title>Node1</title>
<g id="a_Node000001"><a xlink:title="Integrate magnetic field against an RWG basis function.">
<polygon fill="#999999" stroke="#666666" points="127.75,-39.75 0,-39.75 0,-19 127.75,-19 127.75,-39.75"/>
<text xml:space="preserve" text-anchor="middle" x="63.88" y="-26.25" font-family="Helvetica,sans-Serif" font-size="10.00">PlaneWave::IntegrateH</text>
</a>
</g>
</g>
<!-- Node2 -->
<g id="Node000002" class="node">
<title>Node2</title>
<g id="a_Node000002"><a xlink:href="classPlaneWave.html#a25c1de1e9cee6a241765539a4b22f103" target="_top" xlink:title="Evaluate the magnetic field at a given position (homogeneous).">
<polygon fill="white" stroke="#666666" points="291.88,-59.75 165.62,-59.75 165.62,-39 291.88,-39 291.88,-59.75"/>
<text xml:space="preserve" text-anchor="middle" x="228.75" y="-46.25" font-family="Helvetica,sans-Serif" font-size="10.00">PlaneWave::EvaluateH</text>
</a>
</g>
</g>
<!-- Node1&#45;&gt;Node2 -->
<g id="edge1_Node000001_Node000002" class="edge">
<title>Node1&#45;&gt;Node2</title>
<g id="a_edge1_Node000001_Node000002"><a xlink:title=" ">
<path fill="none" stroke="#63b8ff" d="M127.85,-37.11C136.37,-38.15 145.19,-39.24 153.88,-40.3"/>
<polygon fill="#63b8ff" stroke="#63b8ff" points="153.36,-43.77 163.71,-41.51 154.21,-36.82 153.36,-43.77"/>
</a>
</g>
</g>
<!-- Node3 -->
<g id="Node000003" class="node">
<title>Node3</title>
<g id="a_Node000003"><a xlink:href="classPlaneWave.html#afb2520b5ec768a6ad1bdedf1ec1e8025" target="_top" xlink:title="Construct a homogeneous plane wave.">
<polygon fill="white" stroke="#666666" points="293.75,-20.75 163.75,-20.75 163.75,0 293.75,0 293.75,-20.75"/>
<text xml:space="preserve" text-anchor="middle" x="228.75" y="-7.25" font-family="Helvetica,sans-Serif" font-size="10.00">PlaneWave::PlaneWave</text>
</a>
</g>
</g>
<!-- Node1&#45;&gt;Node3 -->
<g id="edge2_Node000001_Node000003" class="edge">
<title>Node1&#45;&gt;Node3</title>
<g id="a_edge2_Node000001_Node000003"><a xlink:title=" ">
<path fill="none" stroke="#63b8ff" d="M127.85,-22.03C135.76,-21.11 143.91,-20.16 151.99,-19.21"/>
<polygon fill="#63b8ff" stroke="#63b8ff" points="152.3,-22.7 161.83,-18.07 151.49,-15.75 152.3,-22.7"/>
</a>
</g>
</g>
</g>
</svg>
