<?xml version="1.0" encoding="UTF-8" standalone="no"?>
<!DOCTYPE svg PUBLIC "-//W3C//DTD SVG 1.1//EN"
 "http://www.w3.org/Graphics/SVG/1.1/DTD/svg11.dtd">
<!-- Generated by graphviz version 13.1.2 (20250809.0930)
 -->
<!-- Title: SIEForm::SIEForm Pages: 1 -->
<svg width="324pt" height="68pt"
 viewBox="0.00 0.00 324.00 68.00" xmlns="http://www.w3.org/2000/svg" xmlns:xlink="http://www.w3.org/1999/xlink">
<g id="graph0" class="graph" transform="scale(1 1) rotate(0) translate(4 63.75)">
<title>SIEForm::SIEForm</title>
<!-- Node1 -->
<g id="Node000001" class="node">
<title>Node1</title>
<g id="a_Node000001"><a xlink:title="Construct the SIE formulation context.">
<polygon fill="#999999" stroke="#666666" points="316.25,-39.75 214.75,-39.75 214.75,-19 316.25,-19 316.25,-39.75"/>
<text xml:space="preserve" text-anchor="middle" x="265.5" y="-26.25" font-family="Helvetica,sans-Serif" font-size="10.00">SIEForm::SIEForm</text>
</a>
</g>
</g>
<!-- Node2 -->
<g id="Node000002" class="node">
<title>Node2</title>
<g id="a_Node000002"><a xlink:href="classSIEFormPMCHW.html#a2d13661bd0a92a339d703ebf5c93bd2b" target="_top" xlink:title="Construct PMCHWT for a homogeneous medium.">
<polygon fill="white" stroke="#666666" points="178.75,-59.75 0,-59.75 0,-39 178.75,-39 178.75,-59.75"/>
<text xml:space="preserve" text-anchor="middle" x="89.38" y="-46.25" font-family="Helvetica,sans-Serif" font-size="10.00">SIEFormPMCHW::SIEFormPMCHW</text>
</a>
</g>
</g>
<!-- Node1&#45;&gt;Node2 -->
<g id="edge1_Node000001_Node000002" class="edge">
<title>Node1&#45;&gt;Node2</title>
<g id="a_edge1_Node000001_Node000002"><a xlink:title=" ">
<path fill="none" stroke="#63b8ff" d="M203.33,-36.4C195.47,-37.3 187.29,-38.24 179.09,-39.19"/>
<polygon fill="#63b8ff" stroke="#63b8ff" points="203.56,-39.9 213.1,-35.28 202.77,-32.94 203.56,-39.9"/>
</a>
</g>
</g>
<!-- Node3 -->
<g id="Node000003" class="node">
<title>Node3</title>
<g id="a_Node000003"><a xlink:href="classSIEFormPMCHW.html#ae2ae42499fdc0816fc7bef695f6ec488" target="_top" xlink:title="Construct PMCHWT for a layered medium.">
<polygon fill="white" stroke="#666666" points="178.75,-20.75 0,-20.75 0,0 178.75,0 178.75,-20.75"/>
<text xml:space="preserve" text-anchor="middle" x="89.38" y="-7.25" font-family="Helvetica,sans-Serif" font-size="10.00">SIEFormPMCHW::SIEFormPMCHW</text>
</a>
</g>
</g>
<!-- Node1&#45;&gt;Node3 -->
<g id="edge2_Node000001_Node000003" class="edge">
<title>Node1&#45;&gt;Node3</title>
<g id="a_edge2_Node000001_Node000003"><a xlink:title=" ">
<path fill="none" stroke="#63b8ff" d="M203.33,-22.7C195.47,-21.84 187.29,-20.95 179.09,-20.06"/>
<polygon fill="#63b8ff" stroke="#63b8ff" points="202.78,-26.16 213.1,-23.77 203.54,-19.2 202.78,-26.16"/>
</a>
</g>
</g>
</g>
</svg>
