<?xml version="1.0" encoding="UTF-8" standalone="no"?>
<!DOCTYPE svg PUBLIC "-//W3C//DTD SVG 1.1//EN"
 "http://www.w3.org/Graphics/SVG/1.1/DTD/svg11.dtd">
<!-- Generated by graphviz version 13.1.2 (20250809.0930)
 -->
<!-- Title: PlaneWave::cvec2rvec Pages: 1 -->
<svg width="208pt" height="47pt"
 viewBox="0.00 0.00 208.00 47.00" xmlns="http://www.w3.org/2000/svg" xmlns:xlink="http://www.w3.org/1999/xlink">
<g id="graph0" class="graph" transform="scale(1 1) rotate(0) translate(4 42.75)">
<title>PlaneWave::cvec2rvec</title>
<!-- Node1 -->
<g id="Node000001" class="node">
<title>Node1</title>
<g id="a_Node000001"><a xlink:title="Convert cvec to rvec, extracting real or imaginary parts.">
<polygon fill="#999999" stroke="#666666" points="125.5,-20.75 0,-20.75 0,0 125.5,0 125.5,-20.75"/>
<text xml:space="preserve" text-anchor="middle" x="62.75" y="-7.25" font-family="Helvetica,sans-Serif" font-size="10.00">PlaneWave::cvec2rvec</text>
</a>
</g>
</g>
<!-- Node2 -->
<g id="Node000002" class="node">
<title>Node2</title>
<g id="a_Node000002"><a xlink:href="Domain_8cpp.html#aafa3e4fa6318b2f8740f4dbd50c367e5" target="_top" xlink:title="Extract the real part of each component of a complex 3&#45;vector.">
<polygon fill="white" stroke="#666666" points="196.25,-20.75 161.5,-20.75 161.5,0 196.25,0 196.25,-20.75"/>
<text xml:space="preserve" text-anchor="middle" x="178.88" y="-7.25" font-family="Helvetica,sans-Serif" font-size="10.00">real</text>
</a>
</g>
</g>
<!-- Node1&#45;&gt;Node2 -->
<g id="edge1_Node000001_Node000002" class="edge">
<title>Node1&#45;&gt;Node2</title>
<g id="a_edge1_Node000001_Node000002"><a xlink:title=" ">
<path fill="none" stroke="#63b8ff" d="M125.82,-10.38C134.26,-10.38 142.55,-10.38 149.95,-10.38"/>
<polygon fill="#63b8ff" stroke="#63b8ff" points="149.92,-13.88 159.92,-10.38 149.92,-6.88 149.92,-13.88"/>
</a>
</g>
</g>
<!-- Node2&#45;&gt;Node2 -->
<g id="edge2_Node000002_Node000002" class="edge">
<title>Node2&#45;&gt;Node2</title>
<g id="a_edge2_Node000002_Node000002"><a xlink:title=" ">
<path fill="none" stroke="#63b8ff" d="M161.27,-19.97C152.14,-28.98 158.01,-38.75 178.88,-38.75 191.26,-38.75 198.37,-35.3 200.18,-30.62"/>
<polygon fill="#63b8ff" stroke="#63b8ff" points="203.57,-29.7 196.98,-21.4 196.95,-31.99 203.57,-29.7"/>
</a>
</g>
</g>
</g>
</svg>
