<?xml version="1.0" encoding="UTF-8" standalone="no"?>
<!DOCTYPE svg PUBLIC "-//W3C//DTD SVG 1.1//EN"
 "http://www.w3.org/Graphics/SVG/1.1/DTD/svg11.dtd">
<!-- Generated by graphviz version 13.1.2 (20250809.0930)
 -->
<!-- Title: Triangle::FindAdjacency Pages: 1 -->
<svg width="610pt" height="68pt"
 viewBox="0.00 0.00 610.00 68.00" xmlns="http://www.w3.org/2000/svg" xmlns:xlink="http://www.w3.org/1999/xlink">
<g id="graph0" class="graph" transform="scale(1 1) rotate(0) translate(4 63.75)">
<title>Triangle::FindAdjacency</title>
<!-- Node1 -->
<g id="Node000001" class="node">
<title>Node1</title>
<g id="a_Node000001"><a xlink:title="Count common nodes with triangle T (0..3).">
<polygon fill="#999999" stroke="#666666" points="130.75,-39.75 0,-39.75 0,-19 130.75,-19 130.75,-39.75"/>
<text xml:space="preserve" text-anchor="middle" x="65.38" y="-26.25" font-family="Helvetica,sans-Serif" font-size="10.00">Triangle::FindAdjacency</text>
</a>
</g>
</g>
<!-- Node2 -->
<g id="Node000002" class="node">
<title>Node2</title>
<g id="a_Node000002"><a xlink:href="classTriangle.html#aeecc82e57a00841cb83fd790316b25a3" target="_top" xlink:title="Node pointer for local index 0..2.">
<polygon fill="white" stroke="#666666" points="266,-59.75 166.75,-59.75 166.75,-39 266,-39 266,-59.75"/>
<text xml:space="preserve" text-anchor="middle" x="216.38" y="-46.25" font-family="Helvetica,sans-Serif" font-size="10.00">Triangle::NodePtr</text>
</a>
</g>
</g>
<!-- Node1&#45;&gt;Node2 -->
<g id="edge1_Node000001_Node000002" class="edge">
<title>Node1&#45;&gt;Node2</title>
<g id="a_edge1_Node000001_Node000002"><a xlink:title=" ">
<path fill="none" stroke="#63b8ff" d="M130.86,-38.03C138.99,-39.12 147.27,-40.23 155.33,-41.32"/>
<polygon fill="#63b8ff" stroke="#63b8ff" points="154.64,-44.75 165.02,-42.62 155.57,-37.82 154.64,-44.75"/>
</a>
</g>
</g>
<!-- Node3 -->
<g id="Node000003" class="node">
<title>Node3</title>
<g id="a_Node000003"><a xlink:href="classTriangle.html#a2eae6a9b0378e4b5ba4616a6b6af86fe" target="_top" xlink:title="Construct from 3 node pointers and bordering domains.">
<polygon fill="white" stroke="#666666" points="265.62,-20.75 167.12,-20.75 167.12,0 265.62,0 265.62,-20.75"/>
<text xml:space="preserve" text-anchor="middle" x="216.38" y="-7.25" font-family="Helvetica,sans-Serif" font-size="10.00">Triangle::Triangle</text>
</a>
</g>
</g>
<!-- Node1&#45;&gt;Node3 -->
<g id="edge2_Node000001_Node000003" class="edge">
<title>Node1&#45;&gt;Node3</title>
<g id="a_edge2_Node000001_Node000003"><a xlink:title=" ">
<path fill="none" stroke="#63b8ff" d="M130.86,-21.15C139.09,-20.1 147.49,-19.03 155.65,-17.99"/>
<polygon fill="#63b8ff" stroke="#63b8ff" points="155.99,-21.48 165.46,-16.74 155.1,-14.53 155.99,-21.48"/>
</a>
</g>
</g>
<!-- Node4 -->
<g id="Node000004" class="node">
<title>Node4</title>
<g id="a_Node000004"><a xlink:href="classTriangle.html#ae13d69e28fb7a81ab8257fe0af84ceaa" target="_top" xlink:title="Compute/cached geometry (normal, area, perimeter, center, I1/I2s/I2d).">
<polygon fill="white" stroke="#666666" points="480,-20.75 302,-20.75 302,0 480,0 480,-20.75"/>
<text xml:space="preserve" text-anchor="middle" x="391" y="-7.25" font-family="Helvetica,sans-Serif" font-size="10.00">Triangle::CalculateGeometryData</text>
</a>
</g>
</g>
<!-- Node3&#45;&gt;Node4 -->
<g id="edge3_Node000003_Node000004" class="edge">
<title>Node3&#45;&gt;Node4</title>
<g id="a_edge3_Node000003_Node000004"><a xlink:title=" ">
<path fill="none" stroke="#63b8ff" d="M265.92,-10.38C273.6,-10.38 281.77,-10.38 290.12,-10.38"/>
<polygon fill="#63b8ff" stroke="#63b8ff" points="290.07,-13.88 300.07,-10.38 290.07,-6.88 290.07,-13.88"/>
</a>
</g>
</g>
<!-- Node5 -->
<g id="Node000005" class="node">
<title>Node5</title>
<g id="a_Node000005"><a xlink:href="classTriangle.html#a0752d2c9488c7c44b851b8f75abcaa79" target="_top" xlink:title="Node position (by value) for local index 0..2.">
<polygon fill="white" stroke="#666666" points="601.75,-20.75 516,-20.75 516,0 601.75,0 601.75,-20.75"/>
<text xml:space="preserve" text-anchor="middle" x="558.88" y="-7.25" font-family="Helvetica,sans-Serif" font-size="10.00">Triangle::Node</text>
</a>
</g>
</g>
<!-- Node4&#45;&gt;Node5 -->
<g id="edge4_Node000004_Node000005" class="edge">
<title>Node4&#45;&gt;Node5</title>
<g id="a_edge4_Node000004_Node000005"><a xlink:title=" ">
<path fill="none" stroke="#63b8ff" d="M480.28,-10.38C488.5,-10.38 496.65,-10.38 504.41,-10.38"/>
<polygon fill="#63b8ff" stroke="#63b8ff" points="504.32,-13.88 514.32,-10.38 504.32,-6.88 504.32,-13.88"/>
</a>
</g>
</g>
</g>
</svg>
