<?xml version="1.0" encoding="UTF-8" standalone="no"?>
<!DOCTYPE svg PUBLIC "-//W3C//DTD SVG 1.1//EN"
 "http://www.w3.org/Graphics/SVG/1.1/DTD/svg11.dtd">
<!-- Generated by graphviz version 13.1.2 (20250809.0930)
 -->
<!-- Title: DomainLayered3D::test_grid Pages: 1 -->
<svg width="688pt" height="120pt"
 viewBox="0.00 0.00 688.00 120.00" xmlns="http://www.w3.org/2000/svg" xmlns:xlink="http://www.w3.org/1999/xlink">
<g id="graph0" class="graph" transform="scale(1 1) rotate(0) translate(4 115.5)">
<title>DomainLayered3D::test_grid</title>
<!-- Node1 -->
<g id="Node000001" class="node">
<title>Node1</title>
<g id="a_Node000001"><a xlink:title="Self&#45;test: grid generation (prints to console).">
<polygon fill="#999999" stroke="#666666" points="155.5,-66.12 0,-66.12 0,-45.38 155.5,-45.38 155.5,-66.12"/>
<text xml:space="preserve" text-anchor="middle" x="77.75" y="-52.62" font-family="Helvetica,sans-Serif" font-size="10.00">DomainLayered3D::test_grid</text>
</a>
</g>
</g>
<!-- Node2 -->
<g id="Node000002" class="node">
<title>Node2</title>
<g id="a_Node000002"><a xlink:href="classDomainLayered3D.html#a5379311442fe1bbc7808308726ee510d" target="_top" xlink:title="Computes the grid points for tabulation.">
<polygon fill="white" stroke="#666666" points="367.25,-105.12 191.5,-105.12 191.5,-84.38 367.25,-84.38 367.25,-105.12"/>
<text xml:space="preserve" text-anchor="middle" x="279.38" y="-91.62" font-family="Helvetica,sans-Serif" font-size="10.00">DomainLayered3D::computeGrid</text>
</a>
</g>
</g>
<!-- Node1&#45;&gt;Node2 -->
<g id="edge1_Node000001_Node000002" class="edge">
<title>Node1&#45;&gt;Node2</title>
<g id="a_edge1_Node000001_Node000002"><a xlink:title=" ">
<path fill="none" stroke="#63b8ff" d="M134.36,-66.61C158.27,-71.28 186.42,-76.78 211.46,-81.68"/>
<polygon fill="#63b8ff" stroke="#63b8ff" points="210.75,-85.1 221.24,-83.59 212.09,-78.23 210.75,-85.1"/>
</a>
</g>
</g>
<!-- Node5 -->
<g id="Node000005" class="node">
<title>Node5</title>
<g id="a_Node000005"><a xlink:href="DomainLayered3D_8cpp.html#ad63ce0a587a110740b2a7a51b927d893" target="_top" xlink:title="Reads a set of 3D positions from a file.">
<polygon fill="white" stroke="#666666" points="341.38,-66.12 217.38,-66.12 217.38,-45.38 341.38,-45.38 341.38,-66.12"/>
<text xml:space="preserve" text-anchor="middle" x="279.38" y="-52.62" font-family="Helvetica,sans-Serif" font-size="10.00">readPositionsFromFile</text>
</a>
</g>
</g>
<!-- Node1&#45;&gt;Node5 -->
<g id="edge4_Node000001_Node000005" class="edge">
<title>Node1&#45;&gt;Node5</title>
<g id="a_edge4_Node000001_Node000005"><a xlink:title=" ">
<path fill="none" stroke="#63b8ff" d="M155.93,-55.75C172.42,-55.75 189.78,-55.75 206.08,-55.75"/>
<polygon fill="#63b8ff" stroke="#63b8ff" points="205.66,-59.25 215.66,-55.75 205.66,-52.25 205.66,-59.25"/>
</a>
</g>
</g>
<!-- Node6 -->
<g id="Node000006" class="node">
<title>Node6</title>
<g id="a_Node000006"><a xlink:href="classDomainLayered3D.html#a76fc8705ab75f3e6599693f9544821e9" target="_top" xlink:title="Computes the slicing of points with respect to interfaces.">
<polygon fill="white" stroke="#666666" points="347,-27.12 211.75,-27.12 211.75,-6.38 347,-6.38 347,-27.12"/>
<text xml:space="preserve" text-anchor="middle" x="279.38" y="-13.62" font-family="Helvetica,sans-Serif" font-size="10.00">DomainLayered3D::slice</text>
</a>
</g>
</g>
<!-- Node1&#45;&gt;Node6 -->
<g id="edge5_Node000001_Node000006" class="edge">
<title>Node1&#45;&gt;Node6</title>
<g id="a_edge5_Node000001_Node000006"><a xlink:title=" ">
<path fill="none" stroke="#63b8ff" d="M134.36,-44.89C158.27,-40.22 186.42,-34.72 211.46,-29.82"/>
<polygon fill="#63b8ff" stroke="#63b8ff" points="212.09,-33.27 221.24,-27.91 210.75,-26.4 212.09,-33.27"/>
</a>
</g>
</g>
<!-- Node3 -->
<g id="Node000003" class="node">
<title>Node3</title>
<g id="a_Node000003"><a xlink:href="classDomainLayered3D.html#af0fc42edd76b3e69a326990cefcbcd37" target="_top" xlink:title="Calculates the tabulation range for a group of points.">
<polygon fill="white" stroke="#666666" points="560.25,-111.5 403.25,-111.5 403.25,-78 560.25,-78 560.25,-111.5"/>
<text xml:space="preserve" text-anchor="start" x="411.25" y="-98" font-family="Helvetica,sans-Serif" font-size="10.00">DomainLayered3D::calculate</text>
<text xml:space="preserve" text-anchor="middle" x="481.75" y="-85.25" font-family="Helvetica,sans-Serif" font-size="10.00">Range</text>
</a>
</g>
</g>
<!-- Node2&#45;&gt;Node3 -->
<g id="edge2_Node000002_Node000003" class="edge">
<title>Node2&#45;&gt;Node3</title>
<g id="a_edge2_Node000002_Node000003"><a xlink:title=" ">
<path fill="none" stroke="#63b8ff" d="M367.68,-94.75C375.54,-94.75 383.52,-94.75 391.4,-94.75"/>
<polygon fill="#63b8ff" stroke="#63b8ff" points="391.35,-98.25 401.35,-94.75 391.35,-91.25 391.35,-98.25"/>
</a>
</g>
</g>
<!-- Node4 -->
<g id="Node000004" class="node">
<title>Node4</title>
<g id="a_Node000004"><a xlink:href="DomainLayered3D_8cpp.html#a83b3a83c01e3d7a487d4ae2ec65695f5" target="_top" xlink:title="Adjusts the Z&#45;coordinate range with a margin while ensuring boundaries.">
<polygon fill="white" stroke="#666666" points="679.75,-105.12 596.25,-105.12 596.25,-84.38 679.75,-84.38 679.75,-105.12"/>
<text xml:space="preserve" text-anchor="middle" x="638" y="-91.62" font-family="Helvetica,sans-Serif" font-size="10.00">adjustZRange</text>
</a>
</g>
</g>
<!-- Node3&#45;&gt;Node4 -->
<g id="edge3_Node000003_Node000004" class="edge">
<title>Node3&#45;&gt;Node4</title>
<g id="a_edge3_Node000003_Node000004"><a xlink:title=" ">
<path fill="none" stroke="#63b8ff" d="M560.33,-94.75C568.5,-94.75 576.66,-94.75 584.45,-94.75"/>
<polygon fill="#63b8ff" stroke="#63b8ff" points="584.43,-98.25 594.43,-94.75 584.43,-91.25 584.43,-98.25"/>
</a>
</g>
</g>
<!-- Node7 -->
<g id="Node000007" class="node">
<title>Node7</title>
<g id="a_Node000007"><a xlink:href="classDomainLayered3D.html#ae8e9daf2ca4d1ed649a1e0fe83880160" target="_top" xlink:title="Returns the layer index corresponding to a spatial position.">
<polygon fill="white" stroke="#666666" points="560.25,-33.5 403.25,-33.5 403.25,0 560.25,0 560.25,-33.5"/>
<text xml:space="preserve" text-anchor="start" x="411.25" y="-20" font-family="Helvetica,sans-Serif" font-size="10.00">DomainLayered3D::GetLayer</text>
<text xml:space="preserve" text-anchor="middle" x="481.75" y="-7.25" font-family="Helvetica,sans-Serif" font-size="10.00">Index</text>
</a>
</g>
</g>
<!-- Node6&#45;&gt;Node7 -->
<g id="edge6_Node000006_Node000007" class="edge">
<title>Node6&#45;&gt;Node7</title>
<g id="a_edge6_Node000006_Node000007"><a xlink:title=" ">
<path fill="none" stroke="#63b8ff" d="M347.38,-16.75C361.61,-16.75 376.85,-16.75 391.76,-16.75"/>
<polygon fill="#63b8ff" stroke="#63b8ff" points="391.56,-20.25 401.56,-16.75 391.56,-13.25 391.56,-20.25"/>
</a>
</g>
</g>
</g>
</svg>
