<?xml version="1.0" encoding="UTF-8" standalone="no"?>
<!DOCTYPE svg PUBLIC "-//W3C//DTD SVG 1.1//EN"
 "http://www.w3.org/Graphics/SVG/1.1/DTD/svg11.dtd">
<!-- Generated by graphviz version 13.1.2 (20250809.0930)
 -->
<!-- Title: DomainLayered3D::test_slice Pages: 1 -->
<svg width="504pt" height="74pt"
 viewBox="0.00 0.00 504.00 74.00" xmlns="http://www.w3.org/2000/svg" xmlns:xlink="http://www.w3.org/1999/xlink">
<g id="graph0" class="graph" transform="scale(1 1) rotate(0) translate(4 70.12)">
<title>DomainLayered3D::test_slice</title>
<!-- Node1 -->
<g id="Node000001" class="node">
<title>Node1</title>
<g id="a_Node000001"><a xlink:title="Self&#45;test: slicing of points with respect to interfaces (prints to console).">
<polygon fill="#999999" stroke="#666666" points="131.5,-52.5 0,-52.5 0,-19 131.5,-19 131.5,-52.5"/>
<text xml:space="preserve" text-anchor="start" x="8" y="-39" font-family="Helvetica,sans-Serif" font-size="10.00">DomainLayered3D::test</text>
<text xml:space="preserve" text-anchor="middle" x="65.75" y="-26.25" font-family="Helvetica,sans-Serif" font-size="10.00">_slice</text>
</a>
</g>
</g>
<!-- Node2 -->
<g id="Node000002" class="node">
<title>Node2</title>
<g id="a_Node000002"><a xlink:href="DomainLayered3D_8cpp.html#ad63ce0a587a110740b2a7a51b927d893" target="_top" xlink:title="Reads a set of 3D positions from a file.">
<polygon fill="white" stroke="#666666" points="297.12,-66.12 173.12,-66.12 173.12,-45.38 297.12,-45.38 297.12,-66.12"/>
<text xml:space="preserve" text-anchor="middle" x="235.12" y="-52.62" font-family="Helvetica,sans-Serif" font-size="10.00">readPositionsFromFile</text>
</a>
</g>
</g>
<!-- Node1&#45;&gt;Node2 -->
<g id="edge1_Node000001_Node000002" class="edge">
<title>Node1&#45;&gt;Node2</title>
<g id="a_edge1_Node000001_Node000002"><a xlink:title=" ">
<path fill="none" stroke="#63b8ff" d="M131.94,-43.54C141.57,-44.69 151.55,-45.88 161.32,-47.05"/>
<polygon fill="#63b8ff" stroke="#63b8ff" points="160.83,-50.52 171.17,-48.23 161.66,-43.57 160.83,-50.52"/>
</a>
</g>
</g>
<!-- Node3 -->
<g id="Node000003" class="node">
<title>Node3</title>
<g id="a_Node000003"><a xlink:href="classDomainLayered3D.html#a76fc8705ab75f3e6599693f9544821e9" target="_top" xlink:title="Computes the slicing of points with respect to interfaces.">
<polygon fill="white" stroke="#666666" points="302.75,-27.12 167.5,-27.12 167.5,-6.38 302.75,-6.38 302.75,-27.12"/>
<text xml:space="preserve" text-anchor="middle" x="235.12" y="-13.62" font-family="Helvetica,sans-Serif" font-size="10.00">DomainLayered3D::slice</text>
</a>
</g>
</g>
<!-- Node1&#45;&gt;Node3 -->
<g id="edge2_Node000001_Node000003" class="edge">
<title>Node1&#45;&gt;Node3</title>
<g id="a_edge2_Node000001_Node000003"><a xlink:title=" ">
<path fill="none" stroke="#63b8ff" d="M131.94,-28.35C139.8,-27.46 147.89,-26.54 155.91,-25.63"/>
<polygon fill="#63b8ff" stroke="#63b8ff" points="156.14,-29.13 165.68,-24.52 155.35,-22.17 156.14,-29.13"/>
</a>
</g>
</g>
<!-- Node4 -->
<g id="Node000004" class="node">
<title>Node4</title>
<g id="a_Node000004"><a xlink:href="classDomainLayered3D.html#ae8e9daf2ca4d1ed649a1e0fe83880160" target="_top" xlink:title="Returns the layer index corresponding to a spatial position.">
<polygon fill="white" stroke="#666666" points="495.75,-33.5 338.75,-33.5 338.75,0 495.75,0 495.75,-33.5"/>
<text xml:space="preserve" text-anchor="start" x="346.75" y="-20" font-family="Helvetica,sans-Serif" font-size="10.00">DomainLayered3D::GetLayer</text>
<text xml:space="preserve" text-anchor="middle" x="417.25" y="-7.25" font-family="Helvetica,sans-Serif" font-size="10.00">Index</text>
</a>
</g>
</g>
<!-- Node3&#45;&gt;Node4 -->
<g id="edge3_Node000003_Node000004" class="edge">
<title>Node3&#45;&gt;Node4</title>
<g id="a_edge3_Node000003_Node000004"><a xlink:title=" ">
<path fill="none" stroke="#63b8ff" d="M303.2,-16.75C311.02,-16.75 319.08,-16.75 327.14,-16.75"/>
<polygon fill="#63b8ff" stroke="#63b8ff" points="326.98,-20.25 336.98,-16.75 326.98,-13.25 326.98,-20.25"/>
</a>
</g>
</g>
</g>
</svg>
