<?xml version="1.0" encoding="UTF-8" standalone="no"?>
<!DOCTYPE svg PUBLIC "-//W3C//DTD SVG 1.1//EN"
 "http://www.w3.org/Graphics/SVG/1.1/DTD/svg11.dtd">
<!-- Generated by graphviz version 13.1.2 (20250809.0930)
 -->
<!-- Title: GreenFLayered3D::FresnelCoeff Pages: 1 -->
<svg width="782pt" height="401pt"
 viewBox="0.00 0.00 782.00 401.00" xmlns="http://www.w3.org/2000/svg" xmlns:xlink="http://www.w3.org/1999/xlink">
<g id="graph0" class="graph" transform="scale(1 1) rotate(0) translate(4 397.33)">
<title>GreenFLayered3D::FresnelCoeff</title>
<!-- Node1 -->
<g id="Node000001" class="node">
<title>Node1</title>
<g id="a_Node000001"><a xlink:title="Fresnel reflection/transmission at interface (delegates to utils).">
<polygon fill="#999999" stroke="#666666" points="773.5,-201.12 628.5,-201.12 628.5,-167.62 773.5,-167.62 773.5,-201.12"/>
<text xml:space="preserve" text-anchor="start" x="636.5" y="-187.62" font-family="Helvetica,sans-Serif" font-size="10.00">GreenFLayered3D::Fresnel</text>
<text xml:space="preserve" text-anchor="middle" x="701" y="-174.88" font-family="Helvetica,sans-Serif" font-size="10.00">Coeff</text>
</a>
</g>
</g>
<!-- Node2 -->
<g id="Node000002" class="node">
<title>Node2</title>
<g id="a_Node000002"><a xlink:href="classGreenFLayered3D.html#a65ac22e62ec3e3131ffbb10d7bdea307" target="_top" xlink:title="Evaluate quasi&#45;static (QS) contributions for inter&#45;layer interactions.">
<polygon fill="white" stroke="#666666" points="592.5,-253.12 432.5,-253.12 432.5,-219.62 592.5,-219.62 592.5,-253.12"/>
<text xml:space="preserve" text-anchor="start" x="440.5" y="-239.62" font-family="Helvetica,sans-Serif" font-size="10.00">GreenFLayered3D::evalGreen</text>
<text xml:space="preserve" text-anchor="middle" x="512.5" y="-226.88" font-family="Helvetica,sans-Serif" font-size="10.00">QSInter</text>
</a>
</g>
</g>
<!-- Node1&#45;&gt;Node2 -->
<g id="edge1_Node000001_Node000002" class="edge">
<title>Node1&#45;&gt;Node2</title>
<g id="a_edge1_Node000001_Node000002"><a xlink:title=" ">
<path fill="none" stroke="#63b8ff" d="M627.54,-204.58C610.24,-209.4 591.94,-214.51 575.18,-219.18"/>
<polygon fill="#63b8ff" stroke="#63b8ff" points="628.01,-208.08 636.7,-202.02 626.13,-201.34 628.01,-208.08"/>
</a>
</g>
</g>
<!-- Node9 -->
<g id="Node000009" class="node">
<title>Node9</title>
<g id="a_Node000009"><a xlink:href="classGreenFLayered3D.html#a7fbd8a47a0074f53111d52920a910392" target="_top" xlink:title="Evaluate quasi&#45;static (QS) contributions for intra&#45;layer interactions.">
<polygon fill="white" stroke="#666666" points="592.5,-201.12 432.5,-201.12 432.5,-167.62 592.5,-167.62 592.5,-201.12"/>
<text xml:space="preserve" text-anchor="start" x="440.5" y="-187.62" font-family="Helvetica,sans-Serif" font-size="10.00">GreenFLayered3D::evalGreen</text>
<text xml:space="preserve" text-anchor="middle" x="512.5" y="-174.88" font-family="Helvetica,sans-Serif" font-size="10.00">QSIntra</text>
</a>
</g>
</g>
<!-- Node1&#45;&gt;Node9 -->
<g id="edge9_Node000001_Node000009" class="edge">
<title>Node1&#45;&gt;Node9</title>
<g id="a_edge9_Node000001_Node000009"><a xlink:title=" ">
<path fill="none" stroke="#63b8ff" d="M616.9,-184.38C608.87,-184.38 600.74,-184.38 592.75,-184.38"/>
<polygon fill="#63b8ff" stroke="#63b8ff" points="616.65,-187.88 626.65,-184.38 616.65,-180.88 616.65,-187.88"/>
</a>
</g>
</g>
<!-- Node10 -->
<g id="Node000010" class="node">
<title>Node10</title>
<g id="a_Node000010"><a xlink:href="classGreenFLayered3D.html#ac014fbe12a1544418cc22938332942a4" target="_top" xlink:title="Fill all interpolation tables with Green&#39;s function values.">
<polygon fill="white" stroke="#666666" points="589.12,-66.12 435.88,-66.12 435.88,-32.62 589.12,-32.62 589.12,-66.12"/>
<text xml:space="preserve" text-anchor="start" x="443.88" y="-52.62" font-family="Helvetica,sans-Serif" font-size="10.00">GreenFLayered3D::FillGreen</text>
<text xml:space="preserve" text-anchor="middle" x="512.5" y="-39.88" font-family="Helvetica,sans-Serif" font-size="10.00">FTable</text>
</a>
</g>
</g>
<!-- Node1&#45;&gt;Node10 -->
<g id="edge16_Node000001_Node000010" class="edge">
<title>Node1&#45;&gt;Node10</title>
<g id="a_edge16_Node000001_Node000010"><a xlink:title=" ">
<path fill="none" stroke="#63b8ff" d="M667.44,-160.81C630.24,-133.88 570.26,-90.46 537.22,-66.55"/>
<polygon fill="#63b8ff" stroke="#63b8ff" points="665,-163.36 675.15,-166.39 669.11,-157.69 665,-163.36"/>
</a>
</g>
</g>
<!-- Node3 -->
<g id="Node000003" class="node">
<title>Node3</title>
<g id="a_Node000003"><a xlink:href="classGreenFLayered3D.html#aea3c88abd8cb25bd99d64a4eeda84a85" target="_top" xlink:title="Evaluates the secondary terms for dipole incident field in layered background.">
<polygon fill="white" stroke="#666666" points="374,-201.12 221.5,-201.12 221.5,-167.62 374,-167.62 374,-201.12"/>
<text xml:space="preserve" text-anchor="start" x="229.5" y="-187.62" font-family="Helvetica,sans-Serif" font-size="10.00">GreenFLayered3D::Evaluate</text>
<text xml:space="preserve" text-anchor="middle" x="297.75" y="-174.88" font-family="Helvetica,sans-Serif" font-size="10.00">Dyadic</text>
</a>
</g>
</g>
<!-- Node2&#45;&gt;Node3 -->
<g id="edge2_Node000002_Node000003" class="edge">
<title>Node2&#45;&gt;Node3</title>
<g id="a_edge2_Node000002_Node000003"><a xlink:title=" ">
<path fill="none" stroke="#63b8ff" d="M429.96,-216.44C409.9,-211.54 388.59,-206.33 369.11,-201.57"/>
<polygon fill="#63b8ff" stroke="#63b8ff" points="428.94,-219.8 439.48,-218.77 430.6,-213 428.94,-219.8"/>
</a>
</g>
</g>
<!-- Node4 -->
<g id="Node000004" class="node">
<title>Node4</title>
<g id="a_Node000004"><a xlink:href="classGreenFLayered3D.html#afbdbfdc8fc40fc885f6377d5be242d36" target="_top" xlink:title="term at an observation point.">
<polygon fill="white" stroke="#666666" points="374.75,-149.12 220.75,-149.12 220.75,-115.62 374.75,-115.62 374.75,-149.12"/>
<text xml:space="preserve" text-anchor="start" x="228.75" y="-135.62" font-family="Helvetica,sans-Serif" font-size="10.00">GreenFLayered3D::Integrate</text>
<text xml:space="preserve" text-anchor="middle" x="297.75" y="-122.88" font-family="Helvetica,sans-Serif" font-size="10.00">Delta</text>
</a>
</g>
</g>
<!-- Node2&#45;&gt;Node4 -->
<g id="edge3_Node000002_Node000004" class="edge">
<title>Node2&#45;&gt;Node4</title>
<g id="a_edge3_Node000002_Node000004"><a xlink:title=" ">
<path fill="none" stroke="#63b8ff" d="M437.31,-213.7C435.66,-212.64 434.05,-211.53 432.5,-210.38 409.98,-193.55 419.5,-174.54 396.5,-158.38 389.96,-153.78 382.66,-150 375.07,-146.88"/>
<polygon fill="#63b8ff" stroke="#63b8ff" points="435.42,-216.66 445.85,-218.52 438.86,-210.56 435.42,-216.66"/>
</a>
</g>
</g>
<!-- Node5 -->
<g id="Node000005" class="node">
<title>Node5</title>
<g id="a_Node000005"><a xlink:href="classGreenFLayered3D.html#a439eddb43f46fb52f6c84898ea12aa40" target="_top" xlink:title="term at an observation point.">
<polygon fill="white" stroke="#666666" points="374.75,-357.12 220.75,-357.12 220.75,-323.62 374.75,-323.62 374.75,-357.12"/>
<text xml:space="preserve" text-anchor="start" x="228.75" y="-343.62" font-family="Helvetica,sans-Serif" font-size="10.00">GreenFLayered3D::Integrate</text>
<text xml:space="preserve" text-anchor="middle" x="297.75" y="-330.88" font-family="Helvetica,sans-Serif" font-size="10.00">Kappa</text>
</a>
</g>
</g>
<!-- Node2&#45;&gt;Node5 -->
<g id="edge4_Node000002_Node000005" class="edge">
<title>Node2&#45;&gt;Node5</title>
<g id="a_edge4_Node000002_Node000005"><a xlink:title=" ">
<path fill="none" stroke="#63b8ff" d="M482.23,-260.32C459.92,-277.52 427.8,-300.09 396.5,-314.38 389.31,-317.65 381.63,-320.58 373.85,-323.19"/>
<polygon fill="#63b8ff" stroke="#63b8ff" points="484.26,-263.17 489.97,-254.25 479.94,-257.67 484.26,-263.17"/>
</a>
</g>
</g>
<!-- Node6 -->
<g id="Node000006" class="node">
<title>Node6</title>
<g id="a_Node000006"><a xlink:href="classGreenFLayered3D.html#af46d152fbc30bdc418ff16e5e7a334c6" target="_top" xlink:title="Point–triangle delta/kappa contributions for RHS assembly.">
<polygon fill="white" stroke="#666666" points="372.12,-305.12 223.38,-305.12 223.38,-271.62 372.12,-271.62 372.12,-305.12"/>
<text xml:space="preserve" text-anchor="start" x="231.38" y="-291.62" font-family="Helvetica,sans-Serif" font-size="10.00">GreenFLayered3D::SameTri</text>
<text xml:space="preserve" text-anchor="middle" x="297.75" y="-278.88" font-family="Helvetica,sans-Serif" font-size="10.00">DeltaKappa</text>
</a>
</g>
</g>
<!-- Node2&#45;&gt;Node6 -->
<g id="edge5_Node000002_Node000006" class="edge">
<title>Node2&#45;&gt;Node6</title>
<g id="a_edge5_Node000002_Node000006"><a xlink:title=" ">
<path fill="none" stroke="#63b8ff" d="M429.96,-256.31C409.9,-261.21 388.59,-266.42 369.11,-271.18"/>
<polygon fill="#63b8ff" stroke="#63b8ff" points="430.6,-259.75 439.48,-253.98 428.94,-252.95 430.6,-259.75"/>
</a>
</g>
</g>
<!-- Node7 -->
<g id="Node000007" class="node">
<title>Node7</title>
<g id="a_Node000007"><a xlink:href="classGreenFLayered3D.html#a6c88af86169f8d148c3e9f4da77a77d0" target="_top" xlink:title="Triangle–triangle D/K blocks assembly for all RWG pairs on two triangles.">
<polygon fill="white" stroke="#666666" points="163,-246.75 0,-246.75 0,-226 163,-226 163,-246.75"/>
<text xml:space="preserve" text-anchor="middle" x="81.5" y="-233.25" font-family="Helvetica,sans-Serif" font-size="10.00">GreenFLayered3D::SameTriDK</text>
</a>
</g>
</g>
<!-- Node2&#45;&gt;Node7 -->
<g id="edge6_Node000002_Node000007" class="edge">
<title>Node2&#45;&gt;Node7</title>
<g id="a_edge6_Node000002_Node000007"><a xlink:title=" ">
<path fill="none" stroke="#63b8ff" d="M497.03,-263.52C478.51,-295.03 443.15,-345.36 396.5,-366.38 316.47,-402.43 279.15,-402.17 199,-366.38 142.55,-341.16 102.09,-273.58 87.98,-247.17"/>
<polygon fill="#63b8ff" stroke="#63b8ff" points="500.01,-265.36 501.91,-254.94 493.93,-261.9 500.01,-265.36"/>
</a>
</g>
</g>
<!-- Node8 -->
<g id="Node000008" class="node">
<title>Node8</title>
<g id="a_Node000008"><a xlink:href="classGreenFLayered3D.html#a87c30d7c2782fd16b17a54bf12777cf0" target="_top" xlink:title="Test assembly of same&#45;triangle D and K matrix elements.">
<polygon fill="white" stroke="#666666" points="375.88,-253.12 219.62,-253.12 219.62,-219.62 375.88,-219.62 375.88,-253.12"/>
<text xml:space="preserve" text-anchor="start" x="227.62" y="-239.62" font-family="Helvetica,sans-Serif" font-size="10.00">GreenFLayered3D::testSame</text>
<text xml:space="preserve" text-anchor="middle" x="297.75" y="-226.88" font-family="Helvetica,sans-Serif" font-size="10.00">TriDK</text>
</a>
</g>
</g>
<!-- Node2&#45;&gt;Node8 -->
<g id="edge7_Node000002_Node000008" class="edge">
<title>Node2&#45;&gt;Node8</title>
<g id="a_edge7_Node000002_Node000008"><a xlink:title=" ">
<path fill="none" stroke="#63b8ff" d="M421,-236.38C406.11,-236.38 390.8,-236.38 376.27,-236.38"/>
<polygon fill="#63b8ff" stroke="#63b8ff" points="420.77,-239.88 430.77,-236.38 420.77,-232.88 420.77,-239.88"/>
</a>
</g>
</g>
<!-- Node8&#45;&gt;Node7 -->
<g id="edge8_Node000008_Node000007" class="edge">
<title>Node8&#45;&gt;Node7</title>
<g id="a_edge8_Node000008_Node000007"><a xlink:title=" ">
<path fill="none" stroke="#63b8ff" d="M208.16,-236.38C193.32,-236.38 177.98,-236.38 163.35,-236.38"/>
<polygon fill="#63b8ff" stroke="#63b8ff" points="207.89,-239.88 217.89,-236.38 207.89,-232.88 207.89,-239.88"/>
</a>
</g>
</g>
<!-- Node9&#45;&gt;Node3 -->
<g id="edge10_Node000009_Node000003" class="edge">
<title>Node9&#45;&gt;Node3</title>
<g id="a_edge10_Node000009_Node000003"><a xlink:title=" ">
<path fill="none" stroke="#63b8ff" d="M421.01,-184.38C405.4,-184.38 389.32,-184.38 374.16,-184.38"/>
<polygon fill="#63b8ff" stroke="#63b8ff" points="420.77,-187.88 430.77,-184.38 420.77,-180.88 420.77,-187.88"/>
</a>
</g>
</g>
<!-- Node9&#45;&gt;Node4 -->
<g id="edge11_Node000009_Node000004" class="edge">
<title>Node9&#45;&gt;Node4</title>
<g id="a_edge11_Node000009_Node000004"><a xlink:title=" ">
<path fill="none" stroke="#63b8ff" d="M429.96,-164.44C409.9,-159.54 388.59,-154.33 369.11,-149.57"/>
<polygon fill="#63b8ff" stroke="#63b8ff" points="428.94,-167.8 439.48,-166.77 430.6,-161 428.94,-167.8"/>
</a>
</g>
</g>
<!-- Node9&#45;&gt;Node5 -->
<g id="edge12_Node000009_Node000005" class="edge">
<title>Node9&#45;&gt;Node5</title>
<g id="a_edge12_Node000009_Node000005"><a xlink:title=" ">
<path fill="none" stroke="#63b8ff" d="M434.79,-208.24C434.01,-208.93 433.24,-209.64 432.5,-210.38 397.65,-244.7 432.33,-281.08 396.5,-314.38 390.2,-320.23 382.73,-324.8 374.76,-328.36"/>
<polygon fill="#63b8ff" stroke="#63b8ff" points="436.64,-211.23 442.61,-202.48 432.48,-205.59 436.64,-211.23"/>
</a>
</g>
</g>
<!-- Node9&#45;&gt;Node6 -->
<g id="edge13_Node000009_Node000006" class="edge">
<title>Node9&#45;&gt;Node6</title>
<g id="a_edge13_Node000009_Node000006"><a xlink:title=" ">
<path fill="none" stroke="#63b8ff" d="M437.31,-207.05C435.66,-208.11 434.05,-209.22 432.5,-210.38 409.98,-227.2 419.5,-246.21 396.5,-262.38 389.24,-267.47 381.05,-271.57 372.56,-274.87"/>
<polygon fill="#63b8ff" stroke="#63b8ff" points="438.86,-210.19 445.85,-202.23 435.42,-204.09 438.86,-210.19"/>
</a>
</g>
</g>
<!-- Node9&#45;&gt;Node7 -->
<g id="edge14_Node000009_Node000007" class="edge">
<title>Node9&#45;&gt;Node7</title>
<g id="a_edge14_Node000009_Node000007"><a xlink:title=" ">
<path fill="none" stroke="#63b8ff" d="M485.44,-159.91C463.58,-141.18 430.55,-116.83 396.5,-106.38 312.59,-80.6 279.15,-70.58 199,-106.38 142.55,-131.59 102.09,-199.17 87.98,-225.58"/>
<polygon fill="#63b8ff" stroke="#63b8ff" points="482.86,-162.3 492.67,-166.28 487.48,-157.04 482.86,-162.3"/>
</a>
</g>
</g>
<!-- Node9&#45;&gt;Node8 -->
<g id="edge15_Node000009_Node000008" class="edge">
<title>Node9&#45;&gt;Node8</title>
<g id="a_edge15_Node000009_Node000008"><a xlink:title=" ">
<path fill="none" stroke="#63b8ff" d="M429.96,-204.31C409.9,-209.21 388.59,-214.42 369.11,-219.18"/>
<polygon fill="#63b8ff" stroke="#63b8ff" points="430.6,-207.75 439.48,-201.98 428.94,-200.95 430.6,-207.75"/>
</a>
</g>
</g>
<!-- Node11 -->
<g id="Node000011" class="node">
<title>Node11</title>
<g id="a_Node000011"><a xlink:href="classGreenFLayered3D.html#a4f699484c9505951b38acc2cb5fa3194" target="_top" xlink:title="Construct layered Green&#39;s function (magnetic layers).">
<polygon fill="white" stroke="#666666" points="396.5,-20.75 199,-20.75 199,0 396.5,0 396.5,-20.75"/>
<text xml:space="preserve" text-anchor="middle" x="297.75" y="-7.25" font-family="Helvetica,sans-Serif" font-size="10.00">GreenFLayered3D::GreenFLayered3D</text>
</a>
</g>
</g>
<!-- Node10&#45;&gt;Node11 -->
<g id="edge17_Node000010_Node000011" class="edge">
<title>Node10&#45;&gt;Node11</title>
<g id="a_edge17_Node000010_Node000011"><a xlink:title=" ">
<path fill="none" stroke="#63b8ff" d="M424.38,-33.4C402.02,-29.31 378.48,-24.99 357.91,-21.22"/>
<polygon fill="#63b8ff" stroke="#63b8ff" points="423.64,-36.83 434.1,-35.19 424.9,-29.94 423.64,-36.83"/>
</a>
</g>
</g>
<!-- Node12 -->
<g id="Node000012" class="node">
<title>Node12</title>
<g id="a_Node000012"><a xlink:href="classGreenFLayered3D.html#a865947398024c01996eba4018b9201b7" target="_top" xlink:title="Construct layered Green&#39;s function (non&#45;magnetic layers).">
<polygon fill="white" stroke="#666666" points="396.5,-59.75 199,-59.75 199,-39 396.5,-39 396.5,-59.75"/>
<text xml:space="preserve" text-anchor="middle" x="297.75" y="-46.25" font-family="Helvetica,sans-Serif" font-size="10.00">GreenFLayered3D::GreenFLayered3D</text>
</a>
</g>
</g>
<!-- Node10&#45;&gt;Node12 -->
<g id="edge18_Node000010_Node000012" class="edge">
<title>Node10&#45;&gt;Node12</title>
<g id="a_edge18_Node000010_Node000012"><a xlink:title=" ">
<path fill="none" stroke="#63b8ff" d="M424.29,-49.38C415.27,-49.38 406.06,-49.38 396.94,-49.38"/>
<polygon fill="#63b8ff" stroke="#63b8ff" points="424.08,-52.88 434.08,-49.38 424.08,-45.88 424.08,-52.88"/>
</a>
</g>
</g>
</g>
</svg>
