<?xml version="1.0" encoding="UTF-8" standalone="no"?>
<!DOCTYPE svg PUBLIC "-//W3C//DTD SVG 1.1//EN"
 "http://www.w3.org/Graphics/SVG/1.1/DTD/svg11.dtd">
<!-- Generated by graphviz version 13.1.2 (20250809.0930)
 -->
<!-- Title: Triangle::FBNormalVector Pages: 1 -->
<svg width="361pt" height="224pt"
 viewBox="0.00 0.00 361.00 224.00" xmlns="http://www.w3.org/2000/svg" xmlns:xlink="http://www.w3.org/1999/xlink">
<g id="graph0" class="graph" transform="scale(1 1) rotate(0) translate(4 219.75)">
<title>Triangle::FBNormalVector</title>
<!-- Node1 -->
<g id="Node000001" class="node">
<title>Node1</title>
<g id="a_Node000001"><a xlink:title="FRONT/BACK normal: FRONT &#45;&gt; +normal, BACK &#45;&gt; −normal.">
<polygon fill="#999999" stroke="#666666" points="353,-117.75 213.25,-117.75 213.25,-97 353,-97 353,-117.75"/>
<text xml:space="preserve" text-anchor="middle" x="283.12" y="-104.25" font-family="Helvetica,sans-Serif" font-size="10.00">Triangle::FBNormalVector</text>
</a>
</g>
</g>
<!-- Node2 -->
<g id="Node000002" class="node">
<title>Node2</title>
<g id="a_Node000002"><a xlink:href="classDomainHom3D.html#ad19635c8b33f69ebf6cb3cd8788f7f23" target="_top" xlink:title="Absorption cross section via surface quadrature.">
<polygon fill="white" stroke="#666666" points="169.38,-215.75 7.88,-215.75 7.88,-195 169.38,-195 169.38,-215.75"/>
<text xml:space="preserve" text-anchor="middle" x="88.62" y="-202.25" font-family="Helvetica,sans-Serif" font-size="10.00">DomainHom3D::absorptionCS</text>
</a>
</g>
</g>
<!-- Node1&#45;&gt;Node2 -->
<g id="edge1_Node000001_Node000002" class="edge">
<title>Node1&#45;&gt;Node2</title>
<g id="a_edge1_Node000001_Node000002"><a xlink:title=" ">
<path fill="none" stroke="#63b8ff" d="M262.74,-125.74C242.83,-143.6 210.16,-170.2 177.25,-185.38 169.31,-189.03 160.66,-192.05 151.97,-194.53"/>
<polygon fill="#63b8ff" stroke="#63b8ff" points="265.07,-128.35 270.08,-119.01 260.34,-123.19 265.07,-128.35"/>
</a>
</g>
</g>
<!-- Node3 -->
<g id="Node000003" class="node">
<title>Node3</title>
<g id="a_Node000003"><a xlink:href="classDomainLayered3D.html#a4e5fb098bcc6edc2f594da23e0b64fb3" target="_top" xlink:title="Absorption cross section.">
<polygon fill="white" stroke="#666666" points="177.25,-176.75 0,-176.75 0,-156 177.25,-156 177.25,-176.75"/>
<text xml:space="preserve" text-anchor="middle" x="88.62" y="-163.25" font-family="Helvetica,sans-Serif" font-size="10.00">DomainLayered3D::absorptionCS</text>
</a>
</g>
</g>
<!-- Node1&#45;&gt;Node3 -->
<g id="edge2_Node000001_Node000003" class="edge">
<title>Node1&#45;&gt;Node3</title>
<g id="a_edge2_Node000001_Node000003"><a xlink:title=" ">
<path fill="none" stroke="#63b8ff" d="M245.65,-122.29C225.67,-130.11 200.34,-139.48 177.25,-146.38 166.04,-149.72 153.87,-152.83 142.28,-155.54"/>
<polygon fill="#63b8ff" stroke="#63b8ff" points="246.75,-125.62 254.75,-118.68 244.17,-119.11 246.75,-125.62"/>
</a>
</g>
</g>
<!-- Node4 -->
<g id="Node000004" class="node">
<title>Node4</title>
<g id="a_Node000004"><a xlink:href="classDomainHom3D.html#aa6a76dafe56204c15b80e491e6a2b21d" target="_top" xlink:title="Extinction cross section via surface quadrature.">
<polygon fill="white" stroke="#666666" points="167.88,-137.75 9.38,-137.75 9.38,-117 167.88,-117 167.88,-137.75"/>
<text xml:space="preserve" text-anchor="middle" x="88.62" y="-124.25" font-family="Helvetica,sans-Serif" font-size="10.00">DomainHom3D::extinctionCS</text>
</a>
</g>
</g>
<!-- Node1&#45;&gt;Node4 -->
<g id="edge3_Node000001_Node000004" class="edge">
<title>Node1&#45;&gt;Node4</title>
<g id="a_edge3_Node000001_Node000004"><a xlink:title=" ">
<path fill="none" stroke="#63b8ff" d="M201.58,-115.74C190.59,-116.89 179.32,-118.06 168.37,-119.19"/>
<polygon fill="#63b8ff" stroke="#63b8ff" points="201.81,-119.24 211.39,-114.72 201.09,-112.28 201.81,-119.24"/>
</a>
</g>
</g>
<!-- Node5 -->
<g id="Node000005" class="node">
<title>Node5</title>
<g id="a_Node000005"><a xlink:href="classDomainLayered3D.html#a847bdddcbf4257a73cfcd2766c882f8b" target="_top" xlink:title="Extinction cross section.">
<polygon fill="white" stroke="#666666" points="175.75,-98.75 1.5,-98.75 1.5,-78 175.75,-78 175.75,-98.75"/>
<text xml:space="preserve" text-anchor="middle" x="88.62" y="-85.25" font-family="Helvetica,sans-Serif" font-size="10.00">DomainLayered3D::extinctionCS</text>
</a>
</g>
</g>
<!-- Node1&#45;&gt;Node5 -->
<g id="edge4_Node000001_Node000005" class="edge">
<title>Node1&#45;&gt;Node5</title>
<g id="a_edge4_Node000001_Node000005"><a xlink:title=" ">
<path fill="none" stroke="#63b8ff" d="M201.53,-99.42C193.1,-98.59 184.5,-97.74 176.01,-96.9"/>
<polygon fill="#63b8ff" stroke="#63b8ff" points="201.1,-102.89 211.39,-100.39 201.79,-95.93 201.1,-102.89"/>
</a>
</g>
</g>
<!-- Node6 -->
<g id="Node000006" class="node">
<title>Node6</title>
<g id="a_Node000006"><a xlink:href="classDomainHom3D.html#af51c0166dbce1642b143f7bf910b7c12" target="_top" xlink:title="Scattering cross section via surface quadrature.">
<polygon fill="white" stroke="#666666" points="167.88,-59.75 9.38,-59.75 9.38,-39 167.88,-39 167.88,-59.75"/>
<text xml:space="preserve" text-anchor="middle" x="88.62" y="-46.25" font-family="Helvetica,sans-Serif" font-size="10.00">DomainHom3D::scatteringCS</text>
</a>
</g>
</g>
<!-- Node1&#45;&gt;Node6 -->
<g id="edge5_Node000001_Node000006" class="edge">
<title>Node1&#45;&gt;Node6</title>
<g id="a_edge5_Node000001_Node000006"><a xlink:title=" ">
<path fill="none" stroke="#63b8ff" d="M244.53,-92.48C224.71,-84.95 199.88,-76.03 177.25,-69.38 165.87,-66.03 153.53,-62.91 141.79,-60.17"/>
<polygon fill="#63b8ff" stroke="#63b8ff" points="243.26,-95.74 253.85,-96.06 245.78,-89.21 243.26,-95.74"/>
</a>
</g>
</g>
<!-- Node7 -->
<g id="Node000007" class="node">
<title>Node7</title>
<g id="a_Node000007"><a xlink:href="classDomainLayered3D.html#a267135f0a2f5bfff12f7ac3b25429176" target="_top" xlink:title="Scattering cross section.">
<polygon fill="white" stroke="#666666" points="175.75,-20.75 1.5,-20.75 1.5,0 175.75,0 175.75,-20.75"/>
<text xml:space="preserve" text-anchor="middle" x="88.62" y="-7.25" font-family="Helvetica,sans-Serif" font-size="10.00">DomainLayered3D::scatteringCS</text>
</a>
</g>
</g>
<!-- Node1&#45;&gt;Node7 -->
<g id="edge6_Node000001_Node000007" class="edge">
<title>Node1&#45;&gt;Node7</title>
<g id="a_edge6_Node000001_Node000007"><a xlink:title=" ">
<path fill="none" stroke="#63b8ff" d="M262.37,-88.97C242.39,-71.34 209.88,-45.29 177.25,-30.38 169.16,-26.68 160.33,-23.63 151.49,-21.14"/>
<polygon fill="#63b8ff" stroke="#63b8ff" points="259.98,-91.52 269.75,-95.62 264.66,-86.32 259.98,-91.52"/>
</a>
</g>
</g>
</g>
</svg>
