<?xml version="1.0" encoding="UTF-8" standalone="no"?>
<!DOCTYPE svg PUBLIC "-//W3C//DTD SVG 1.1//EN"
 "http://www.w3.org/Graphics/SVG/1.1/DTD/svg11.dtd">
<!-- Generated by graphviz version 13.1.2 (20250809.0930)
 -->
<!-- Title: DomainLayered3D::test_range Pages: 1 -->
<svg width="526pt" height="126pt"
 viewBox="0.00 0.00 526.00 126.00" xmlns="http://www.w3.org/2000/svg" xmlns:xlink="http://www.w3.org/1999/xlink">
<g id="graph0" class="graph" transform="scale(1 1) rotate(0) translate(4 121.5)">
<title>DomainLayered3D::test_range</title>
<!-- Node1 -->
<g id="Node000001" class="node">
<title>Node1</title>
<g id="a_Node000001"><a xlink:title="Self&#45;test: tabulation range computation (prints to console).">
<polygon fill="#999999" stroke="#666666" points="131.5,-72.5 0,-72.5 0,-39 131.5,-39 131.5,-72.5"/>
<text xml:space="preserve" text-anchor="start" x="8" y="-59" font-family="Helvetica,sans-Serif" font-size="10.00">DomainLayered3D::test</text>
<text xml:space="preserve" text-anchor="middle" x="65.75" y="-46.25" font-family="Helvetica,sans-Serif" font-size="10.00">_range</text>
</a>
</g>
</g>
<!-- Node2 -->
<g id="Node000002" class="node">
<title>Node2</title>
<g id="a_Node000002"><a xlink:href="classDomainLayered3D.html#af0fc42edd76b3e69a326990cefcbcd37" target="_top" xlink:title="Calculates the tabulation range for a group of points.">
<polygon fill="white" stroke="#666666" points="324.5,-117.5 167.5,-117.5 167.5,-84 324.5,-84 324.5,-117.5"/>
<text xml:space="preserve" text-anchor="start" x="175.5" y="-104" font-family="Helvetica,sans-Serif" font-size="10.00">DomainLayered3D::calculate</text>
<text xml:space="preserve" text-anchor="middle" x="246" y="-91.25" font-family="Helvetica,sans-Serif" font-size="10.00">Range</text>
</a>
</g>
</g>
<!-- Node1&#45;&gt;Node2 -->
<g id="edge1_Node000001_Node000002" class="edge">
<title>Node1&#45;&gt;Node2</title>
<g id="a_edge1_Node000001_Node000002"><a xlink:title=" ">
<path fill="none" stroke="#63b8ff" d="M131.86,-72.19C142.94,-74.98 154.55,-77.92 165.94,-80.79"/>
<polygon fill="#63b8ff" stroke="#63b8ff" points="164.75,-84.1 175.3,-83.16 166.47,-77.31 164.75,-84.1"/>
</a>
</g>
</g>
<!-- Node4 -->
<g id="Node000004" class="node">
<title>Node4</title>
<g id="a_Node000004"><a xlink:href="DomainLayered3D_8cpp.html#ad63ce0a587a110740b2a7a51b927d893" target="_top" xlink:title="Reads a set of 3D positions from a file.">
<polygon fill="white" stroke="#666666" points="308,-66.12 184,-66.12 184,-45.38 308,-45.38 308,-66.12"/>
<text xml:space="preserve" text-anchor="middle" x="246" y="-52.62" font-family="Helvetica,sans-Serif" font-size="10.00">readPositionsFromFile</text>
</a>
</g>
</g>
<!-- Node1&#45;&gt;Node4 -->
<g id="edge3_Node000001_Node000004" class="edge">
<title>Node1&#45;&gt;Node4</title>
<g id="a_edge3_Node000001_Node000004"><a xlink:title=" ">
<path fill="none" stroke="#63b8ff" d="M131.86,-55.75C145.07,-55.75 159.04,-55.75 172.48,-55.75"/>
<polygon fill="#63b8ff" stroke="#63b8ff" points="172.11,-59.25 182.11,-55.75 172.11,-52.25 172.11,-59.25"/>
</a>
</g>
</g>
<!-- Node5 -->
<g id="Node000005" class="node">
<title>Node5</title>
<g id="a_Node000005"><a xlink:href="classDomainLayered3D.html#a76fc8705ab75f3e6599693f9544821e9" target="_top" xlink:title="Computes the slicing of points with respect to interfaces.">
<polygon fill="white" stroke="#666666" points="313.62,-27.12 178.38,-27.12 178.38,-6.38 313.62,-6.38 313.62,-27.12"/>
<text xml:space="preserve" text-anchor="middle" x="246" y="-13.62" font-family="Helvetica,sans-Serif" font-size="10.00">DomainLayered3D::slice</text>
</a>
</g>
</g>
<!-- Node1&#45;&gt;Node5 -->
<g id="edge4_Node000001_Node000005" class="edge">
<title>Node1&#45;&gt;Node5</title>
<g id="a_edge4_Node000001_Node000005"><a xlink:title=" ">
<path fill="none" stroke="#63b8ff" d="M131.86,-41.5C149.07,-37.74 167.58,-33.69 184.53,-29.98"/>
<polygon fill="#63b8ff" stroke="#63b8ff" points="184.93,-33.48 193.95,-27.92 183.43,-26.64 184.93,-33.48"/>
</a>
</g>
</g>
<!-- Node3 -->
<g id="Node000003" class="node">
<title>Node3</title>
<g id="a_Node000003"><a xlink:href="DomainLayered3D_8cpp.html#a83b3a83c01e3d7a487d4ae2ec65695f5" target="_top" xlink:title="Adjusts the Z&#45;coordinate range with a margin while ensuring boundaries.">
<polygon fill="white" stroke="#666666" points="480.75,-111.12 397.25,-111.12 397.25,-90.38 480.75,-90.38 480.75,-111.12"/>
<text xml:space="preserve" text-anchor="middle" x="439" y="-97.62" font-family="Helvetica,sans-Serif" font-size="10.00">adjustZRange</text>
</a>
</g>
</g>
<!-- Node2&#45;&gt;Node3 -->
<g id="edge2_Node000002_Node000003" class="edge">
<title>Node2&#45;&gt;Node3</title>
<g id="a_edge2_Node000002_Node000003"><a xlink:title=" ">
<path fill="none" stroke="#63b8ff" d="M324.96,-100.75C345.38,-100.75 366.9,-100.75 385.63,-100.75"/>
<polygon fill="#63b8ff" stroke="#63b8ff" points="385.37,-104.25 395.37,-100.75 385.37,-97.25 385.37,-104.25"/>
</a>
</g>
</g>
<!-- Node6 -->
<g id="Node000006" class="node">
<title>Node6</title>
<g id="a_Node000006"><a xlink:href="classDomainLayered3D.html#ae8e9daf2ca4d1ed649a1e0fe83880160" target="_top" xlink:title="Returns the layer index corresponding to a spatial position.">
<polygon fill="white" stroke="#666666" points="517.5,-33.5 360.5,-33.5 360.5,0 517.5,0 517.5,-33.5"/>
<text xml:space="preserve" text-anchor="start" x="368.5" y="-20" font-family="Helvetica,sans-Serif" font-size="10.00">DomainLayered3D::GetLayer</text>
<text xml:space="preserve" text-anchor="middle" x="439" y="-7.25" font-family="Helvetica,sans-Serif" font-size="10.00">Index</text>
</a>
</g>
</g>
<!-- Node5&#45;&gt;Node6 -->
<g id="edge5_Node000005_Node000006" class="edge">
<title>Node5&#45;&gt;Node6</title>
<g id="a_edge5_Node000005_Node000006"><a xlink:title=" ">
<path fill="none" stroke="#63b8ff" d="M314.07,-16.75C325.39,-16.75 337.3,-16.75 349.08,-16.75"/>
<polygon fill="#63b8ff" stroke="#63b8ff" points="348.79,-20.25 358.79,-16.75 348.79,-13.25 348.79,-20.25"/>
</a>
</g>
</g>
</g>
</svg>
