<?xml version="1.0" encoding="UTF-8" standalone="no"?>
<!DOCTYPE svg PUBLIC "-//W3C//DTD SVG 1.1//EN"
 "http://www.w3.org/Graphics/SVG/1.1/DTD/svg11.dtd">
<!-- Generated by graphviz version 13.1.2 (20250809.0930)
 -->
<!-- Title: GreenFHom3DPer2D::SameTriDK Pages: 1 -->
<!--zoomable 817 -->

<svg id="main" version="1.1" xmlns="http://www.w3.org/2000/svg" xmlns:xlink="http://www.w3.org/1999/xlink" xml:space="preserve" onload="init(evt)">

<style type="text/css"><![CDATA[
.node, .edge {opacity: 0.7;}
.node.selected, .edge.selected {opacity: 1;}
.edge:hover path { stroke: red; }
.edge:hover polygon { stroke: red; fill: red; }
]]></style>

<defs>
  <circle id="rim" cx="0" cy="0" r="7"/>
  <circle id="rim2" cx="0" cy="0" r="3.5"/>
  <g id="zoomPlus">
    <use xlink:href="#rim" fill="#404040"><set attributeName="fill" to="#808080" begin="zoomplus.mouseover" end="zoomplus.mouseout"/></use>
    <path d="M-4,0h8M0,-4v8" fill="none" stroke="white" stroke-width="1.5" pointer-events="none"/>
  </g>
  <g id="zoomMin">
    <use xlink:href="#rim" fill="#404040"><set attributeName="fill" to="#808080" begin="zoomminus.mouseover" end="zoomminus.mouseout"/></use>
    <path d="M-4,0h8" fill="none" stroke="white" stroke-width="1.5" pointer-events="none"/>
  </g>
  <g id="arrowUp" transform="translate(30 24)">
    <use xlink:href="#rim"/>
    <path pointer-events="none" fill="none" stroke="white" stroke-width="1.5" d="M0,-3.0v7 M-2.5,-0.5L0,-3.0L2.5,-0.5"/>
  </g>
  <g id="arrowRight" transform="rotate(90) translate(36 -43)">
    <use xlink:href="#rim"/>
    <path pointer-events="none" fill="none" stroke="white" stroke-width="1.5" d="M0,-3.0v7 M-2.5,-0.5L0,-3.0L2.5,-0.5"/>
  </g>
  <g id="arrowDown" transform="rotate(180) translate(-30 -48)">
    <use xlink:href="#rim"/>
    <path pointer-events="none" fill="none" stroke="white" stroke-width="1.5" d="M0,-3.0v7 M-2.5,-0.5L0,-3.0L2.5,-0.5"/>
  </g>
  <g id="arrowLeft" transform="rotate(270) translate(-36 17)">
    <use xlink:href="#rim"/>
    <path pointer-events="none" fill="none" stroke="white" stroke-width="1.5" d="M0,-3.0v7 M-2.5,-0.5L0,-3.0L2.5,-0.5"/>
  </g>
  <g id="resetDef">
    <use xlink:href="#rim2" fill="#404040"><set attributeName="fill" to="#808080" begin="reset.mouseover" end="reset.mouseout"/></use>
  </g>
</defs>
<script type="application/ecmascript">
var viewWidth = 1145;
var viewHeight = 817;
var sectionId = 'dynsection-56';
</script>
<script type="application/ecmascript" xlink:href="svg.min.js"/>
<svg id="graph" class="graph">
<g id="viewport">
<title>GreenFHom3DPer2D::SameTriDK</title>
<!-- Node1 -->
<g id="Node000001" class="node">
<title>Node1</title>
<g id="a_Node000001"><a xlink:title="Compute &#160;and &#160;for all RWG pairs on two triangles.">
<polygon fill="#999999" stroke="#666666" points="176.5,-389.75 0,-389.75 0,-369 176.5,-369 176.5,-389.75"/>
<text xml:space="preserve" text-anchor="middle" x="88.25" y="-376.25" font-family="Helvetica,sans-Serif" font-size="10.00">GreenFHom3DPer2D::SameTriDK</text>
</a>
</g>
</g>
<!-- Node2 -->
<g id="Node000002" class="node">
<title>Node2</title>
<g id="a_Node000002"><a xlink:href="classGreenFHom3D.html#a139d04e746cd17d5b738a972dc5128ad" target="_top" xlink:title="Heuristic test based on .">
<polygon fill="white" stroke="#666666" points="399.88,-808.75 227.12,-808.75 227.12,-788 399.88,-788 399.88,-808.75"/>
<text xml:space="preserve" text-anchor="middle" x="313.5" y="-795.25" font-family="Helvetica,sans-Serif" font-size="10.00">GreenFHom3D::AboveThreshold</text>
</a>
</g>
</g>
<!-- Node1&#45;&gt;Node2 -->
<g id="edge1_Node000001_Node000002" class="edge">
<title>Node1&#45;&gt;Node2</title>
<g id="a_edge1_Node000001_Node000002"><a xlink:title=" ">
<path fill="none" stroke="#63b8ff" d="M89.04,-390.15C88.68,-441.52 94.19,-663.72 212.5,-774.38 215.62,-777.29 219.02,-779.87 222.64,-782.15"/>
<polygon fill="#63b8ff" stroke="#63b8ff" points="220.84,-785.16 231.31,-786.81 224.15,-778.99 220.84,-785.16"/>
</a>
</g>
</g>
<!-- Node3 -->
<g id="Node000003" class="node">
<title>Node3</title>
<g id="a_Node000003"><a xlink:href="classGreenFHom3DPer2D.html#a4049a59ae5bbd1406d1da47e6de62af8" target="_top" xlink:title="Far/near heuristic for translated triangle pairs.">
<polygon fill="white" stroke="#666666" points="414.5,-732.12 212.5,-732.12 212.5,-698.62 414.5,-698.62 414.5,-732.12"/>
<text xml:space="preserve" text-anchor="start" x="220.5" y="-718.62" font-family="Helvetica,sans-Serif" font-size="10.00">GreenFHom3DPer2D::AboveThreshold</text>
<text xml:space="preserve" text-anchor="middle" x="313.5" y="-705.88" font-family="Helvetica,sans-Serif" font-size="10.00">Translate</text>
</a>
</g>
</g>
<!-- Node1&#45;&gt;Node3 -->
<g id="edge2_Node000001_Node000003" class="edge">
<title>Node1&#45;&gt;Node3</title>
<g id="a_edge2_Node000001_Node000003"><a xlink:title=" ">
<path fill="none" stroke="#63b8ff" d="M90.12,-390.12C94.31,-434.41 116.34,-604.46 212.5,-689.38 213.44,-690.21 214.41,-691.01 215.39,-691.79"/>
<polygon fill="#63b8ff" stroke="#63b8ff" points="213.29,-694.6 223.53,-697.3 217.21,-688.8 213.29,-694.6"/>
</a>
</g>
</g>
<!-- Node4 -->
<g id="Node000004" class="node">
<title>Node4</title>
<g id="a_Node000004"><a xlink:href="classTriangle.html#ab78508a340ec5d345adf114b43563dbf" target="_top" xlink:title="Centroid of the triangle.">
<polygon fill="white" stroke="#666666" points="595.5,-767.75 503,-767.75 503,-747 595.5,-747 595.5,-767.75"/>
<text xml:space="preserve" text-anchor="middle" x="549.25" y="-754.25" font-family="Helvetica,sans-Serif" font-size="10.00">Triangle::Center</text>
</a>
</g>
</g>
<!-- Node1&#45;&gt;Node4 -->
<g id="edge6_Node000001_Node000004" class="edge">
<title>Node1&#45;&gt;Node4</title>
<g id="a_edge6_Node000001_Node000004"><a xlink:title=" ">
<path fill="none" stroke="#63b8ff" d="M88.98,-390.06C88.39,-439.99 93.14,-651.55 212.5,-741.38 254.97,-773.34 407.03,-767.91 491.19,-762.12"/>
<polygon fill="#63b8ff" stroke="#63b8ff" points="491.37,-765.62 501.09,-761.42 490.87,-758.64 491.37,-765.62"/>
</a>
</g>
</g>
<!-- Node6 -->
<g id="Node000006" class="node">
<title>Node6</title>
<g id="a_Node000006"><a xlink:href="classTriangle.html#a1d3d08deeb999f339d2e821a877521ba" target="_top" xlink:title="Surface area of the triangle.">
<polygon fill="white" stroke="#666666" points="354.88,-680.75 272.12,-680.75 272.12,-660 354.88,-660 354.88,-680.75"/>
<text xml:space="preserve" text-anchor="middle" x="313.5" y="-667.25" font-family="Helvetica,sans-Serif" font-size="10.00">Triangle::Area</text>
</a>
</g>
</g>
<!-- Node1&#45;&gt;Node6 -->
<g id="edge5_Node000001_Node000006" class="edge">
<title>Node1&#45;&gt;Node6</title>
<g id="a_edge5_Node000001_Node000006"><a xlink:title=" ">
<path fill="none" stroke="#63b8ff" d="M90.63,-390.03C96.55,-431.04 123.62,-579.86 212.5,-650.38 226.02,-661.1 243.75,-666.56 260.52,-669.21"/>
<polygon fill="#63b8ff" stroke="#63b8ff" points="260.05,-672.68 270.41,-670.43 260.92,-665.73 260.05,-672.68"/>
</a>
</g>
</g>
<!-- Node7 -->
<g id="Node000007" class="node">
<title>Node7</title>
<g id="a_Node000007"><a xlink:href="classSingSub.html#a9d74100325023b4d1c156bd97ae240b3" target="_top" xlink:title="Update only the RWG/triangle; keep the same observation point r.">
<polygon fill="white" stroke="#666666" points="393.5,-641.75 233.5,-641.75 233.5,-621 393.5,-621 393.5,-641.75"/>
<text xml:space="preserve" text-anchor="middle" x="313.5" y="-628.25" font-family="Helvetica,sans-Serif" font-size="10.00">SingSub::ChangeTriangleRWG</text>
</a>
</g>
</g>
<!-- Node1&#45;&gt;Node7 -->
<g id="edge7_Node000001_Node000007" class="edge">
<title>Node1&#45;&gt;Node7</title>
<g id="a_edge7_Node000001_Node000007"><a xlink:title=" ">
<path fill="none" stroke="#63b8ff" d="M91.49,-390.03C99.91,-427.25 133.29,-552.41 212.5,-611.38 215.72,-613.77 219.16,-615.9 222.75,-617.8"/>
<polygon fill="#63b8ff" stroke="#63b8ff" points="221.27,-620.97 231.82,-621.89 224.15,-614.59 221.27,-620.97"/>
</a>
</g>
</g>
<!-- Node8 -->
<g id="Node000008" class="node">
<title>Node8</title>
<g id="a_Node000008"><a xlink:href="classRWGFun.html#a7540ce2f84c6b42a29c2808504c47d42" target="_top" xlink:title="Evaluate the RWG vector shape function at a point on the triangle.">
<polygon fill="white" stroke="#666666" points="366.5,-602.75 260.5,-602.75 260.5,-582 366.5,-582 366.5,-602.75"/>
<text xml:space="preserve" text-anchor="middle" x="313.5" y="-589.25" font-family="Helvetica,sans-Serif" font-size="10.00">RWGFun::Evaluate</text>
</a>
</g>
</g>
<!-- Node1&#45;&gt;Node8 -->
<g id="edge8_Node000001_Node000008" class="edge">
<title>Node1&#45;&gt;Node8</title>
<g id="a_edge8_Node000001_Node000008"><a xlink:title=" ">
<path fill="none" stroke="#63b8ff" d="M92.56,-389.92C103.55,-423.04 142.17,-525.64 212.5,-573.38 223.24,-580.67 236.06,-585.34 248.87,-588.29"/>
<polygon fill="#63b8ff" stroke="#63b8ff" points="248.11,-591.71 258.59,-590.18 249.44,-584.84 248.11,-591.71"/>
</a>
</g>
</g>
<!-- Node9 -->
<g id="Node000009" class="node">
<title>Node9</title>
<g id="a_Node000009"><a xlink:href="classGreenFHom3DPer2D.html#ab49a15bcfe7b44d2338c9182f003d385" target="_top" xlink:title="Evaluate &#160;(smoothed) for a translation in one call.">
<polygon fill="white" stroke="#666666" points="405.5,-460.12 221.5,-460.12 221.5,-426.62 405.5,-426.62 405.5,-460.12"/>
<text xml:space="preserve" text-anchor="start" x="229.5" y="-446.62" font-family="Helvetica,sans-Serif" font-size="10.00">GreenFHom3DPer2D::Evaluateand</text>
<text xml:space="preserve" text-anchor="middle" x="313.5" y="-433.88" font-family="Helvetica,sans-Serif" font-size="10.00">GradientSmoothedTranslate</text>
</a>
</g>
</g>
<!-- Node1&#45;&gt;Node9 -->
<g id="edge9_Node000001_Node000009" class="edge">
<title>Node1&#45;&gt;Node9</title>
<g id="a_edge9_Node000001_Node000009"><a xlink:title=" ">
<path fill="none" stroke="#63b8ff" d="M122.87,-390.19C147.58,-398.02 182.02,-408.72 212.5,-417.38 219.38,-419.33 226.53,-421.3 233.72,-423.24"/>
<polygon fill="#63b8ff" stroke="#63b8ff" points="232.58,-426.56 243.15,-425.77 234.4,-419.8 232.58,-426.56"/>
</a>
</g>
</g>
<!-- Node17 -->
<g id="Node000017" class="node">
<title>Node17</title>
<g id="a_Node000017"><a xlink:href="classGreenFHom3DPer2D.html#aea4d858bd544ba5e9a8de1197b572b4e" target="_top" xlink:title="Evaluate &#160;for a translation in one call.">
<polygon fill="white" stroke="#666666" points="405.5,-512.12 221.5,-512.12 221.5,-478.62 405.5,-478.62 405.5,-512.12"/>
<text xml:space="preserve" text-anchor="start" x="229.5" y="-498.62" font-family="Helvetica,sans-Serif" font-size="10.00">GreenFHom3DPer2D::Evaluateand</text>
<text xml:space="preserve" text-anchor="middle" x="313.5" y="-485.88" font-family="Helvetica,sans-Serif" font-size="10.00">GradientTranslate</text>
</a>
</g>
</g>
<!-- Node1&#45;&gt;Node17 -->
<g id="edge20_Node000001_Node000017" class="edge">
<title>Node1&#45;&gt;Node17</title>
<g id="a_edge20_Node000001_Node000017"><a xlink:title=" ">
<path fill="none" stroke="#63b8ff" d="M100.86,-390.24C121.63,-409.09 167.25,-447.93 212.5,-469.38 216.2,-471.13 220.04,-472.78 223.96,-474.33"/>
<polygon fill="#63b8ff" stroke="#63b8ff" points="222.48,-477.51 233.07,-477.67 224.89,-470.94 222.48,-477.51"/>
</a>
</g>
</g>
<!-- Node19 -->
<g id="Node000019" class="node">
<title>Node19</title>
<g id="a_Node000019"><a xlink:href="classTriangle.html#a6a5a3532e273e1fbb69b26eea2f509c0" target="_top" xlink:title="Count common nodes with triangle T (0..3).">
<polygon fill="white" stroke="#666666" points="378.88,-408.75 248.12,-408.75 248.12,-388 378.88,-388 378.88,-408.75"/>
<text xml:space="preserve" text-anchor="middle" x="313.5" y="-395.25" font-family="Helvetica,sans-Serif" font-size="10.00">Triangle::FindAdjacency</text>
</a>
</g>
</g>
<!-- Node1&#45;&gt;Node19 -->
<g id="edge24_Node000001_Node000019" class="edge">
<title>Node1&#45;&gt;Node19</title>
<g id="a_edge24_Node000001_Node000019"><a xlink:title=" ">
<path fill="none" stroke="#63b8ff" d="M176.84,-386.83C196.56,-388.51 217.33,-390.28 236.53,-391.91"/>
<polygon fill="#63b8ff" stroke="#63b8ff" points="236.17,-395.39 246.43,-392.75 236.76,-388.42 236.17,-395.39"/>
</a>
</g>
</g>
<!-- Node23 -->
<g id="Node000023" class="node">
<title>Node23</title>
<g id="a_Node000023"><a xlink:href="classTriangle.html#a0752d2c9488c7c44b851b8f75abcaa79" target="_top" xlink:title="Node position (by value) for local index 0..2.">
<polygon fill="white" stroke="#666666" points="986.75,-364.75 901,-364.75 901,-344 986.75,-344 986.75,-364.75"/>
<text xml:space="preserve" text-anchor="middle" x="943.88" y="-351.25" font-family="Helvetica,sans-Serif" font-size="10.00">Triangle::Node</text>
</a>
</g>
</g>
<!-- Node1&#45;&gt;Node23 -->
<g id="edge45_Node000001_Node000023" class="edge">
<title>Node1&#45;&gt;Node23</title>
<g id="a_edge45_Node000001_Node000023"><a xlink:title=" ">
<path fill="none" stroke="#63b8ff" d="M166.92,-368.55C239.95,-358.95 352.39,-345.66 450.5,-340.38 538.15,-335.66 560.25,-338.29 648,-340.38 732.54,-342.38 830.6,-347.62 889.63,-351.09"/>
<polygon fill="#63b8ff" stroke="#63b8ff" points="889.2,-354.57 899.39,-351.67 889.62,-347.58 889.2,-354.57"/>
</a>
</g>
</g>
<!-- Node24 -->
<g id="Node000024" class="node">
<title>Node24</title>
<g id="a_Node000024"><a xlink:href="classRWGFun.html#a44b3739f9b872e917c6101928a2888a3" target="_top" xlink:title="Get the free vertex position (by value).">
<polygon fill="white" stroke="#666666" points="371.38,-332.75 255.62,-332.75 255.62,-312 371.38,-312 371.38,-332.75"/>
<text xml:space="preserve" text-anchor="middle" x="313.5" y="-319.25" font-family="Helvetica,sans-Serif" font-size="10.00">RWGFun::FreeVertex</text>
</a>
</g>
</g>
<!-- Node1&#45;&gt;Node24 -->
<g id="edge29_Node000001_Node000024" class="edge">
<title>Node1&#45;&gt;Node24</title>
<g id="a_edge29_Node000001_Node000024"><a xlink:title=" ">
<path fill="none" stroke="#63b8ff" d="M128.59,-368.56C152.76,-361.99 184.37,-353.51 212.5,-346.38 226.29,-342.87 241.19,-339.23 255.16,-335.86"/>
<polygon fill="#63b8ff" stroke="#63b8ff" points="255.75,-339.32 264.66,-333.59 254.12,-332.51 255.75,-339.32"/>
</a>
</g>
</g>
<!-- Node25 -->
<g id="Node000025" class="node">
<title>Node25</title>
<g id="a_Node000025"><a xlink:href="classTriangle.html#aa83f57574ddbd7514530a554eb96bc0e" target="_top" xlink:title="Return cached I1.">
<polygon fill="white" stroke="#666666" points="356,-293.75 271,-293.75 271,-273 356,-273 356,-293.75"/>
<text xml:space="preserve" text-anchor="middle" x="313.5" y="-280.25" font-family="Helvetica,sans-Serif" font-size="10.00">Triangle::getI1</text>
</a>
</g>
</g>
<!-- Node1&#45;&gt;Node25 -->
<g id="edge30_Node000001_Node000025" class="edge">
<title>Node1&#45;&gt;Node25</title>
<g id="a_edge30_Node000001_Node000025"><a xlink:title=" ">
<path fill="none" stroke="#63b8ff" d="M102.8,-368.74C124.62,-352.17 169.46,-320.32 212.5,-303.38 227.35,-297.53 244.14,-293.32 259.66,-290.32"/>
<polygon fill="#63b8ff" stroke="#63b8ff" points="259.97,-293.82 269.2,-288.61 258.74,-286.93 259.97,-293.82"/>
</a>
</g>
</g>
<!-- Node26 -->
<g id="Node000026" class="node">
<title>Node26</title>
<g id="a_Node000026"><a xlink:href="classGreenFHom3DPer2D.html#a6e7bfc8640c70e6dfaa9f8e14cb916ea" target="_top" xlink:title="Constructor for a non&#45;magnetic medium (2D periodic).">
<polygon fill="white" stroke="#666666" points="407.38,-564.12 219.62,-564.12 219.62,-530.62 407.38,-530.62 407.38,-564.12"/>
<text xml:space="preserve" text-anchor="start" x="227.62" y="-550.62" font-family="Helvetica,sans-Serif" font-size="10.00">GreenFHom3DPer2D::GreenFHom3</text>
<text xml:space="preserve" text-anchor="middle" x="313.5" y="-537.88" font-family="Helvetica,sans-Serif" font-size="10.00">DPer2D</text>
</a>
</g>
</g>
<!-- Node1&#45;&gt;Node26 -->
<g id="edge31_Node000001_Node000026" class="edge">
<title>Node1&#45;&gt;Node26</title>
<g id="a_edge31_Node000001_Node000026"><a xlink:title=" ">
<path fill="none" stroke="#63b8ff" d="M95.44,-390.23C111.24,-416.94 155.91,-486.27 212.5,-521.38 214.78,-522.79 217.14,-524.13 219.56,-525.4"/>
<polygon fill="#63b8ff" stroke="#63b8ff" points="217.87,-528.47 228.41,-529.56 220.85,-522.14 217.87,-528.47"/>
</a>
</g>
</g>
<!-- Node34 -->
<g id="Node000034" class="node">
<title>Node34</title>
<g id="a_Node000034"><a xlink:href="classSingSub.html#ac65ad1ad2d03f9de274b24d19f457f6e" target="_top" xlink:title="K1(q) scalar term.">
<polygon fill="white" stroke="#666666" points="350.38,-254.75 276.62,-254.75 276.62,-234 350.38,-234 350.38,-254.75"/>
<text xml:space="preserve" text-anchor="middle" x="313.5" y="-241.25" font-family="Helvetica,sans-Serif" font-size="10.00">SingSub::K1</text>
</a>
</g>
</g>
<!-- Node1&#45;&gt;Node34 -->
<g id="edge40_Node000001_Node000034" class="edge">
<title>Node1&#45;&gt;Node34</title>
<g id="a_edge40_Node000001_Node000034"><a xlink:title=" ">
<path fill="none" stroke="#63b8ff" d="M97.15,-368.76C114.95,-345.71 160.68,-290.96 212.5,-264.38 228.65,-256.09 247.91,-251.23 265.19,-248.38"/>
<polygon fill="#63b8ff" stroke="#63b8ff" points="265.32,-251.9 274.71,-247.01 264.31,-244.97 265.32,-251.9"/>
</a>
</g>
</g>
<!-- Node35 -->
<g id="Node000035" class="node">
<title>Node35</title>
<g id="a_Node000035"><a xlink:href="classSingSub.html#aed0bb257cd3c94dccd5b6cc0ecdd1c5e" target="_top" xlink:title="K2(q) vector term.">
<polygon fill="white" stroke="#666666" points="350.38,-215.75 276.62,-215.75 276.62,-195 350.38,-195 350.38,-215.75"/>
<text xml:space="preserve" text-anchor="middle" x="313.5" y="-202.25" font-family="Helvetica,sans-Serif" font-size="10.00">SingSub::K2</text>
</a>
</g>
</g>
<!-- Node1&#45;&gt;Node35 -->
<g id="edge41_Node000001_Node000035" class="edge">
<title>Node1&#45;&gt;Node35</title>
<g id="a_edge41_Node000001_Node000035"><a xlink:title=" ">
<path fill="none" stroke="#63b8ff" d="M94.41,-368.66C108.73,-340.17 151.94,-262.22 212.5,-225.38 228.26,-215.79 247.75,-210.69 265.33,-208.02"/>
<polygon fill="#63b8ff" stroke="#63b8ff" points="265.57,-211.52 275.05,-206.78 264.68,-204.57 265.57,-211.52"/>
</a>
</g>
</g>
<!-- Node36 -->
<g id="Node000036" class="node">
<title>Node36</title>
<g id="a_Node000036"><a xlink:href="classSingSub.html#aa4dc7cddb70399aab67741fe6b0a9397" target="_top" xlink:title="K3n(q) = normal&#45;only contribution of K3(q).">
<polygon fill="white" stroke="#666666" points="353.38,-176.75 273.62,-176.75 273.62,-156 353.38,-156 353.38,-176.75"/>
<text xml:space="preserve" text-anchor="middle" x="313.5" y="-163.25" font-family="Helvetica,sans-Serif" font-size="10.00">SingSub::K3n</text>
</a>
</g>
</g>
<!-- Node1&#45;&gt;Node36 -->
<g id="edge42_Node000001_Node000036" class="edge">
<title>Node1&#45;&gt;Node36</title>
<g id="a_edge42_Node000001_Node000036"><a xlink:title=" ">
<path fill="none" stroke="#63b8ff" d="M92.6,-368.92C103.7,-336.05 142.61,-234.19 212.5,-186.38 226.87,-176.55 244.95,-171.32 261.77,-168.61"/>
<polygon fill="#63b8ff" stroke="#63b8ff" points="262.2,-172.08 271.65,-167.3 261.28,-165.14 262.2,-172.08"/>
</a>
</g>
</g>
<!-- Node37 -->
<g id="Node000037" class="node">
<title>Node37</title>
<g id="a_Node000037"><a xlink:href="classSingSub.html#ab61a21e3498d2d6a4c0796254cf126ed" target="_top" xlink:title="K4(q) vector term.">
<polygon fill="white" stroke="#666666" points="350.38,-137.75 276.62,-137.75 276.62,-117 350.38,-117 350.38,-137.75"/>
<text xml:space="preserve" text-anchor="middle" x="313.5" y="-124.25" font-family="Helvetica,sans-Serif" font-size="10.00">SingSub::K4</text>
</a>
</g>
</g>
<!-- Node1&#45;&gt;Node37 -->
<g id="edge43_Node000001_Node000037" class="edge">
<title>Node1&#45;&gt;Node37</title>
<g id="a_edge43_Node000001_Node000037"><a xlink:title=" ">
<path fill="none" stroke="#63b8ff" d="M91.49,-368.72C99.91,-331.5 133.29,-206.34 212.5,-147.38 227.41,-136.27 246.91,-130.91 264.73,-128.45"/>
<polygon fill="#63b8ff" stroke="#63b8ff" points="265.06,-131.94 274.63,-127.39 264.31,-124.98 265.06,-131.94"/>
</a>
</g>
</g>
<!-- Node39 -->
<g id="Node000039" class="node">
<title>Node39</title>
<g id="a_Node000039"><a xlink:href="classGreenFHom3DPer2D.html#a098b4d59dde268718483b4ac9906e446" target="_top" xlink:title="Map a displacement to the primitive cell.">
<polygon fill="white" stroke="#666666" points="406.62,-98.75 220.38,-98.75 220.38,-78 406.62,-78 406.62,-98.75"/>
<text xml:space="preserve" text-anchor="middle" x="313.5" y="-85.25" font-family="Helvetica,sans-Serif" font-size="10.00">GreenFHom3DPer2D::PrimitiveCell</text>
</a>
</g>
</g>
<!-- Node1&#45;&gt;Node39 -->
<g id="edge46_Node000001_Node000039" class="edge">
<title>Node1&#45;&gt;Node39</title>
<g id="a_edge46_Node000001_Node000039"><a xlink:title=" ">
<path fill="none" stroke="#63b8ff" d="M90.63,-368.72C96.55,-327.71 123.62,-178.89 212.5,-108.38 214.22,-107.01 216,-105.74 217.84,-104.54"/>
<polygon fill="#63b8ff" stroke="#63b8ff" points="219.1,-107.84 226.15,-99.93 215.71,-101.72 219.1,-107.84"/>
</a>
</g>
</g>
<!-- Node40 -->
<g id="Node000040" class="node">
<title>Node40</title>
<g id="a_Node000040"><a xlink:href="classRWGFun.html#a7cd7779305937d48196453e53d0d4df8" target="_top" xlink:title="Return L_n / A_n (missing factor 1/2 by convention).">
<polygon fill="white" stroke="#666666" points="379.62,-59.75 247.38,-59.75 247.38,-39 379.62,-39 379.62,-59.75"/>
<text xml:space="preserve" text-anchor="middle" x="313.5" y="-46.25" font-family="Helvetica,sans-Serif" font-size="10.00">RWGFun::RWGPreFactor</text>
</a>
</g>
</g>
<!-- Node1&#45;&gt;Node40 -->
<g id="edge47_Node000001_Node000040" class="edge">
<title>Node1&#45;&gt;Node40</title>
<g id="a_edge47_Node000001_Node000040"><a xlink:title=" ">
<path fill="none" stroke="#63b8ff" d="M89.97,-368.78C93.58,-324.37 113.74,-151.7 212.5,-69.38 219.38,-63.64 227.46,-59.38 235.98,-56.26"/>
<polygon fill="#63b8ff" stroke="#63b8ff" points="236.99,-59.61 245.51,-53.32 234.92,-52.92 236.99,-59.61"/>
</a>
</g>
</g>
<!-- Node41 -->
<g id="Node000041" class="node">
<title>Node41</title>
<g id="a_Node000041"><a xlink:href="classSingSub.html#a20337fe20529d26c1775c8ba6d47cad0" target="_top" xlink:title="Preferred initialization that fills all cached arrays (ILar/ISar).">
<polygon fill="white" stroke="#666666" points="383,-20.75 244,-20.75 244,0 383,0 383,-20.75"/>
<text xml:space="preserve" text-anchor="middle" x="313.5" y="-7.25" font-family="Helvetica,sans-Serif" font-size="10.00">SingSub::SetTriangleRWG</text>
</a>
</g>
</g>
<!-- Node1&#45;&gt;Node41 -->
<g id="edge48_Node000001_Node000041" class="edge">
<title>Node1&#45;&gt;Node41</title>
<g id="a_edge48_Node000001_Node000041"><a xlink:title=" ">
<path fill="none" stroke="#63b8ff" d="M89.45,-368.8C90.95,-321.15 103.75,-124.67 212.5,-30.38 218.5,-25.17 225.47,-21.18 232.88,-18.13"/>
<polygon fill="#63b8ff" stroke="#63b8ff" points="233.86,-21.49 242.17,-14.92 231.58,-14.88 233.86,-21.49"/>
</a>
</g>
</g>
<!-- Node3&#45;&gt;Node4 -->
<g id="edge3_Node000003_Node000004" class="edge">
<title>Node3&#45;&gt;Node4</title>
<g id="a_edge3_Node000003_Node000004"><a xlink:title=" ">
<path fill="none" stroke="#63b8ff" d="M410.25,-732.58C437.79,-737.53 466.94,-742.77 491.32,-747.15"/>
<polygon fill="#63b8ff" stroke="#63b8ff" points="490.57,-750.57 501.04,-748.89 491.81,-743.68 490.57,-750.57"/>
</a>
</g>
</g>
<!-- Node5 -->
<g id="Node000005" class="node">
<title>Node5</title>
<g id="a_Node000005"><a xlink:href="classTriangle.html#a6e7daa074db3d147b33763bfd2a6e83b" target="_top" xlink:title="Perimeter (sum of edge lengths).">
<polygon fill="white" stroke="#666666" points="603.38,-725.75 495.12,-725.75 495.12,-705 603.38,-705 603.38,-725.75"/>
<text xml:space="preserve" text-anchor="middle" x="549.25" y="-712.25" font-family="Helvetica,sans-Serif" font-size="10.00">Triangle::Perimeter</text>
</a>
</g>
</g>
<!-- Node3&#45;&gt;Node5 -->
<g id="edge4_Node000003_Node000005" class="edge">
<title>Node3&#45;&gt;Node5</title>
<g id="a_edge4_Node000003_Node000005"><a xlink:title=" ">
<path fill="none" stroke="#63b8ff" d="M414.99,-715.38C438.17,-715.38 462.22,-715.38 483.41,-715.38"/>
<polygon fill="#63b8ff" stroke="#63b8ff" points="483.35,-718.88 493.35,-715.38 483.35,-711.88 483.35,-718.88"/>
</a>
</g>
</g>
<!-- Node10 -->
<g id="Node000010" class="node">
<title>Node10</title>
<g id="a_Node000010"><a xlink:href="classGreenFHom3DPer2D.html#af034587a03115087737a86ed71b664f4" target="_top" xlink:title="Spatial part returning .">
<polygon fill="white" stroke="#666666" points="634.88,-460.12 463.62,-460.12 463.62,-426.62 634.88,-426.62 634.88,-460.12"/>
<text xml:space="preserve" text-anchor="start" x="471.62" y="-446.62" font-family="Helvetica,sans-Serif" font-size="10.00">GreenFHom3DPer2D::EwaldAnd</text>
<text xml:space="preserve" text-anchor="middle" x="549.25" y="-433.88" font-family="Helvetica,sans-Serif" font-size="10.00">GradientSpatialSmoothed</text>
</a>
</g>
</g>
<!-- Node9&#45;&gt;Node10 -->
<g id="edge10_Node000009_Node000010" class="edge">
<title>Node9&#45;&gt;Node10</title>
<g id="a_edge10_Node000009_Node000010"><a xlink:title=" ">
<path fill="none" stroke="#63b8ff" d="M405.88,-443.38C421.13,-443.38 436.99,-443.38 452.34,-443.38"/>
<polygon fill="#63b8ff" stroke="#63b8ff" points="451.91,-446.88 461.91,-443.38 451.91,-439.88 451.91,-446.88"/>
</a>
</g>
</g>
<!-- Node15 -->
<g id="Node000015" class="node">
<title>Node15</title>
<g id="a_Node000015"><a xlink:href="classGreenFHom3DPer2D.html#a025f6ce600bdd42ae02716905c75ba66" target="_top" xlink:title="Spectral part returning .">
<polygon fill="white" stroke="#666666" points="634.88,-512.12 463.62,-512.12 463.62,-478.62 634.88,-478.62 634.88,-512.12"/>
<text xml:space="preserve" text-anchor="start" x="471.62" y="-498.62" font-family="Helvetica,sans-Serif" font-size="10.00">GreenFHom3DPer2D::EwaldAnd</text>
<text xml:space="preserve" text-anchor="middle" x="549.25" y="-485.88" font-family="Helvetica,sans-Serif" font-size="10.00">GradientSpectral</text>
</a>
</g>
</g>
<!-- Node9&#45;&gt;Node15 -->
<g id="edge16_Node000009_Node000015" class="edge">
<title>Node9&#45;&gt;Node15</title>
<g id="a_edge16_Node000009_Node000015"><a xlink:title=" ">
<path fill="none" stroke="#63b8ff" d="M392.01,-460.62C413.73,-465.45 437.49,-470.74 459.79,-475.7"/>
<polygon fill="#63b8ff" stroke="#63b8ff" points="458.95,-479.09 469.47,-477.85 460.47,-472.26 458.95,-479.09"/>
</a>
</g>
</g>
<!-- Node11 -->
<g id="Node000011" class="node">
<title>Node11</title>
<g id="a_Node000011"><a xlink:href="classGreenF.html#abf00726011a4eca4109bc43125218d30" target="_top" xlink:title="Evaluate erfc via the 2D lookup table if available.">
<polygon fill="white" stroke="#666666" points="816.62,-470.75 729.38,-470.75 729.38,-450 816.62,-450 816.62,-470.75"/>
<text xml:space="preserve" text-anchor="middle" x="773" y="-457.25" font-family="Helvetica,sans-Serif" font-size="10.00">GreenF::EvErfc</text>
</a>
</g>
</g>
<!-- Node10&#45;&gt;Node11 -->
<g id="edge11_Node000010_Node000011" class="edge">
<title>Node10&#45;&gt;Node11</title>
<g id="a_edge11_Node000010_Node000011"><a xlink:title=" ">
<path fill="none" stroke="#63b8ff" d="M635.35,-449.9C662.98,-452.02 692.86,-454.31 717.62,-456.21"/>
<polygon fill="#63b8ff" stroke="#63b8ff" points="717.22,-459.69 727.46,-456.96 717.75,-452.71 717.22,-459.69"/>
</a>
</g>
</g>
<!-- Node12 -->
<g id="Node000012" class="node">
<title>Node12</title>
<g id="a_Node000012"><a xlink:href="mathFunctions_8cpp.html#a7916c6b62310fe9cf38ec2a2890aaad4" target="_top" xlink:title="Complementary error function for complex arguments.">
<polygon fill="white" stroke="#666666" points="963.88,-432.75 923.88,-432.75 923.88,-412 963.88,-412 963.88,-432.75"/>
<text xml:space="preserve" text-anchor="middle" x="943.88" y="-419.25" font-family="Helvetica,sans-Serif" font-size="10.00">cerfc</text>
</a>
</g>
</g>
<!-- Node11&#45;&gt;Node12 -->
<g id="edge12_Node000011_Node000012" class="edge">
<title>Node11&#45;&gt;Node12</title>
<g id="a_edge12_Node000011_Node000012"><a xlink:title=" ">
<path fill="none" stroke="#63b8ff" d="M817.05,-450.69C847.02,-443.95 886.22,-435.12 912.84,-429.13"/>
<polygon fill="#63b8ff" stroke="#63b8ff" points="913.31,-432.62 922.29,-427.01 911.77,-425.79 913.31,-432.62"/>
</a>
</g>
</g>
<!-- Node14 -->
<g id="Node000014" class="node">
<title>Node14</title>
<g id="a_Node000014"><a xlink:href="Domain_8cpp.html#aafa3e4fa6318b2f8740f4dbd50c367e5" target="_top" xlink:title="Extract the real part of each component of a complex 3&#45;vector.">
<polygon fill="white" stroke="#666666" points="1136.5,-489.75 1101.75,-489.75 1101.75,-469 1136.5,-469 1136.5,-489.75"/>
<text xml:space="preserve" text-anchor="middle" x="1119.12" y="-476.25" font-family="Helvetica,sans-Serif" font-size="10.00">real</text>
</a>
</g>
</g>
<!-- Node11&#45;&gt;Node14 -->
<g id="edge14_Node000011_Node000014" class="edge">
<title>Node11&#45;&gt;Node14</title>
<g id="a_edge14_Node000011_Node000014"><a xlink:title=" ">
<path fill="none" stroke="#63b8ff" d="M816.89,-462.74C888.36,-466.69 1029.9,-474.5 1090.04,-477.82"/>
<polygon fill="#63b8ff" stroke="#63b8ff" points="1089.57,-481.3 1099.75,-478.36 1089.95,-474.31 1089.57,-481.3"/>
</a>
</g>
</g>
<!-- Node13 -->
<g id="Node000013" class="node">
<title>Node13</title>
<g id="a_Node000013"><a xlink:href="mathFunctions_8cpp.html#abc57cde75234d7e165a9ebcdb45f2c29" target="_top" xlink:title="Error function for complex arguments.">
<polygon fill="white" stroke="#666666" points="1063.12,-432.75 1028.38,-432.75 1028.38,-412 1063.12,-412 1063.12,-432.75"/>
<text xml:space="preserve" text-anchor="middle" x="1045.75" y="-419.25" font-family="Helvetica,sans-Serif" font-size="10.00">cerf</text>
</a>
</g>
</g>
<!-- Node12&#45;&gt;Node13 -->
<g id="edge13_Node000012_Node000013" class="edge">
<title>Node12&#45;&gt;Node13</title>
<g id="a_edge13_Node000012_Node000013"><a xlink:title=" ">
<path fill="none" stroke="#63b8ff" d="M964.13,-422.38C979,-422.38 999.8,-422.38 1016.54,-422.38"/>
<polygon fill="#63b8ff" stroke="#63b8ff" points="1016.36,-425.88 1026.36,-422.38 1016.36,-418.88 1016.36,-425.88"/>
</a>
</g>
</g>
<!-- Node14&#45;&gt;Node14 -->
<g id="edge15_Node000014_Node000014" class="edge">
<title>Node14&#45;&gt;Node14</title>
<g id="a_edge15_Node000014_Node000014"><a xlink:title=" ">
<path fill="none" stroke="#63b8ff" d="M1107.3,-490.15C1102.57,-498.81 1106.51,-507.75 1119.12,-507.75 1125.82,-507.75 1130.08,-505.23 1131.88,-501.56"/>
<polygon fill="#63b8ff" stroke="#63b8ff" points="1135.38,-501.34 1131.07,-491.66 1128.4,-501.91 1135.38,-501.34"/>
</a>
</g>
</g>
<!-- Node15&#45;&gt;Node11 -->
<g id="edge19_Node000015_Node000011" class="edge">
<title>Node15&#45;&gt;Node11</title>
<g id="a_edge19_Node000015_Node000011"><a xlink:title=" ">
<path fill="none" stroke="#63b8ff" d="M635.35,-481.94C662.98,-477.58 692.86,-472.87 717.62,-468.96"/>
<polygon fill="#63b8ff" stroke="#63b8ff" points="718.14,-472.42 727.47,-467.4 717.05,-465.51 718.14,-472.42"/>
</a>
</g>
</g>
<!-- Node16 -->
<g id="Node000016" class="node">
<title>Node16</title>
<g id="a_Node000016"><a xlink:href="group__greenFunction.html#gac0a52dce23be7dacdf97c68653b6c137" target="_top" xlink:title="Complex square root with a branch cut along the negative real axis.">
<polygon fill="white" stroke="#666666" points="1065.75,-508.75 1025.75,-508.75 1025.75,-488 1065.75,-488 1065.75,-508.75"/>
<text xml:space="preserve" text-anchor="middle" x="1045.75" y="-495.25" font-family="Helvetica,sans-Serif" font-size="10.00">csqrt</text>
</a>
</g>
</g>
<!-- Node15&#45;&gt;Node16 -->
<g id="edge17_Node000015_Node000016" class="edge">
<title>Node15&#45;&gt;Node16</title>
<g id="a_edge17_Node000015_Node000016"><a xlink:title=" ">
<path fill="none" stroke="#63b8ff" d="M635.26,-495.89C747.48,-496.57 939.52,-497.74 1013.99,-498.19"/>
<polygon fill="#63b8ff" stroke="#63b8ff" points="1013.76,-501.69 1023.78,-498.25 1013.8,-494.69 1013.76,-501.69"/>
</a>
</g>
</g>
<!-- Node16&#45;&gt;Node14 -->
<g id="edge18_Node000016_Node000014" class="edge">
<title>Node16&#45;&gt;Node14</title>
<g id="a_edge18_Node000016_Node000014"><a xlink:title=" ">
<path fill="none" stroke="#63b8ff" d="M1065.88,-493.28C1073.4,-491.28 1082.18,-488.94 1090.38,-486.76"/>
<polygon fill="#63b8ff" stroke="#63b8ff" points="1091.15,-490.18 1099.91,-484.22 1089.35,-483.41 1091.15,-490.18"/>
</a>
</g>
</g>
<!-- Node17&#45;&gt;Node15 -->
<g id="edge23_Node000017_Node000015" class="edge">
<title>Node17&#45;&gt;Node15</title>
<g id="a_edge23_Node000017_Node000015"><a xlink:title=" ">
<path fill="none" stroke="#63b8ff" d="M405.88,-495.38C421.13,-495.38 436.99,-495.38 452.34,-495.38"/>
<polygon fill="#63b8ff" stroke="#63b8ff" points="451.91,-498.88 461.91,-495.38 451.91,-491.88 451.91,-498.88"/>
</a>
</g>
</g>
<!-- Node18 -->
<g id="Node000018" class="node">
<title>Node18</title>
<g id="a_Node000018"><a xlink:href="classGreenFHom3DPer2D.html#ad219414131e33eb361fe2240be9612a0" target="_top" xlink:title="Spatial part returning both normal and gradient.">
<polygon fill="white" stroke="#666666" points="634.88,-564.12 463.62,-564.12 463.62,-530.62 634.88,-530.62 634.88,-564.12"/>
<text xml:space="preserve" text-anchor="start" x="471.62" y="-550.62" font-family="Helvetica,sans-Serif" font-size="10.00">GreenFHom3DPer2D::EwaldAnd</text>
<text xml:space="preserve" text-anchor="middle" x="549.25" y="-537.88" font-family="Helvetica,sans-Serif" font-size="10.00">GradientSpatial</text>
</a>
</g>
</g>
<!-- Node17&#45;&gt;Node18 -->
<g id="edge21_Node000017_Node000018" class="edge">
<title>Node17&#45;&gt;Node18</title>
<g id="a_edge21_Node000017_Node000018"><a xlink:title=" ">
<path fill="none" stroke="#63b8ff" d="M392.01,-512.62C413.73,-517.45 437.49,-522.74 459.79,-527.7"/>
<polygon fill="#63b8ff" stroke="#63b8ff" points="458.95,-531.09 469.47,-529.85 460.47,-524.26 458.95,-531.09"/>
</a>
</g>
</g>
<!-- Node18&#45;&gt;Node11 -->
<g id="edge22_Node000018_Node000011" class="edge">
<title>Node18&#45;&gt;Node11</title>
<g id="a_edge22_Node000018_Node000011"><a xlink:title=" ">
<path fill="none" stroke="#63b8ff" d="M621.51,-530.18C630.51,-527.5 639.53,-524.55 648,-521.38 681.81,-508.7 718.72,-489.85 743.41,-476.46"/>
<polygon fill="#63b8ff" stroke="#63b8ff" points="744.78,-479.7 751.86,-471.82 741.41,-473.56 744.78,-479.7"/>
</a>
</g>
</g>
<!-- Node20 -->
<g id="Node000020" class="node">
<title>Node20</title>
<g id="a_Node000020"><a xlink:href="classTriangle.html#aeecc82e57a00841cb83fd790316b25a3" target="_top" xlink:title="Node pointer for local index 0..2.">
<polygon fill="white" stroke="#666666" points="598.88,-369.75 499.62,-369.75 499.62,-349 598.88,-349 598.88,-369.75"/>
<text xml:space="preserve" text-anchor="middle" x="549.25" y="-356.25" font-family="Helvetica,sans-Serif" font-size="10.00">Triangle::NodePtr</text>
</a>
</g>
</g>
<!-- Node19&#45;&gt;Node20 -->
<g id="edge25_Node000019_Node000020" class="edge">
<title>Node19&#45;&gt;Node20</title>
<g id="a_edge25_Node000019_Node000020"><a xlink:title=" ">
<path fill="none" stroke="#63b8ff" d="M379.3,-387.56C413.41,-381.87 454.96,-374.94 488.32,-369.37"/>
<polygon fill="#63b8ff" stroke="#63b8ff" points="488.52,-372.89 497.8,-367.79 487.36,-365.99 488.52,-372.89"/>
</a>
</g>
</g>
<!-- Node21 -->
<g id="Node000021" class="node">
<title>Node21</title>
<g id="a_Node000021"><a xlink:href="classTriangle.html#a2eae6a9b0378e4b5ba4616a6b6af86fe" target="_top" xlink:title="Construct from 3 node pointers and bordering domains.">
<polygon fill="white" stroke="#666666" points="598.5,-408.75 500,-408.75 500,-388 598.5,-388 598.5,-408.75"/>
<text xml:space="preserve" text-anchor="middle" x="549.25" y="-395.25" font-family="Helvetica,sans-Serif" font-size="10.00">Triangle::Triangle</text>
</a>
</g>
</g>
<!-- Node19&#45;&gt;Node21 -->
<g id="edge26_Node000019_Node000021" class="edge">
<title>Node19&#45;&gt;Node21</title>
<g id="a_edge26_Node000019_Node000021"><a xlink:title=" ">
<path fill="none" stroke="#63b8ff" d="M379.3,-398.38C413.38,-398.38 454.89,-398.38 488.24,-398.38"/>
<polygon fill="#63b8ff" stroke="#63b8ff" points="488.15,-401.88 498.15,-398.38 488.15,-394.88 488.15,-401.88"/>
</a>
</g>
</g>
<!-- Node22 -->
<g id="Node000022" class="node">
<title>Node22</title>
<g id="a_Node000022"><a xlink:href="classTriangle.html#ae13d69e28fb7a81ab8257fe0af84ceaa" target="_top" xlink:title="Compute/cached geometry (normal, area, perimeter, center, I1/I2s/I2d).">
<polygon fill="white" stroke="#666666" points="862,-389.75 684,-389.75 684,-369 862,-369 862,-389.75"/>
<text xml:space="preserve" text-anchor="middle" x="773" y="-376.25" font-family="Helvetica,sans-Serif" font-size="10.00">Triangle::CalculateGeometryData</text>
</a>
</g>
</g>
<!-- Node21&#45;&gt;Node22 -->
<g id="edge27_Node000021_Node000022" class="edge">
<title>Node21&#45;&gt;Node22</title>
<g id="a_edge27_Node000021_Node000022"><a xlink:title=" ">
<path fill="none" stroke="#63b8ff" d="M598.91,-394.21C620.57,-392.35 646.91,-390.09 672.44,-387.91"/>
<polygon fill="#63b8ff" stroke="#63b8ff" points="672.53,-391.41 682.19,-387.07 671.93,-384.44 672.53,-391.41"/>
</a>
</g>
</g>
<!-- Node22&#45;&gt;Node23 -->
<g id="edge28_Node000022_Node000023" class="edge">
<title>Node22&#45;&gt;Node23</title>
<g id="a_edge28_Node000022_Node000023"><a xlink:title=" ">
<path fill="none" stroke="#63b8ff" d="M847.09,-368.56C861.44,-366.43 876.23,-364.24 889.77,-362.24"/>
<polygon fill="#63b8ff" stroke="#63b8ff" points="889.93,-365.75 899.31,-360.82 888.9,-358.83 889.93,-365.75"/>
</a>
</g>
</g>
<!-- Node27 -->
<g id="Node000027" class="node">
<title>Node27</title>
<g id="a_Node000027"><a xlink:href="classGreenFHom3DPer.html#a414d2e05ac1b3d089e2a5556e6e16a93" target="_top" xlink:title="Homogeneous, non‑magnetic constructor with Bloch vector.">
<polygon fill="white" stroke="#666666" points="648,-659.75 450.5,-659.75 450.5,-639 648,-639 648,-659.75"/>
<text xml:space="preserve" text-anchor="middle" x="549.25" y="-646.25" font-family="Helvetica,sans-Serif" font-size="10.00">GreenFHom3DPer::GreenFHom3DPer</text>
</a>
</g>
</g>
<!-- Node26&#45;&gt;Node27 -->
<g id="edge32_Node000026_Node000027" class="edge">
<title>Node26&#45;&gt;Node27</title>
<g id="a_edge32_Node000026_Node000027"><a xlink:title=" ">
<path fill="none" stroke="#63b8ff" d="M396.55,-564.6C402.8,-567.14 408.86,-570.05 414.5,-573.38 434.53,-585.2 431.19,-598.4 450.5,-611.38 464.99,-621.11 482.34,-628.88 498.37,-634.8"/>
<polygon fill="#63b8ff" stroke="#63b8ff" points="497.18,-638.09 507.78,-638.1 499.5,-631.49 497.18,-638.09"/>
</a>
</g>
</g>
<!-- Node30 -->
<g id="Node000030" class="node">
<title>Node30</title>
<g id="a_Node000030"><a xlink:href="classGreenFHom3DPer2D.html#a3160d2ff20a3ec478d2fb6e9b72cf79d" target="_top" xlink:title="Common initialization: set lookup flags, build reciprocal lattice, project k, choose Ewald parameter.">
<polygon fill="white" stroke="#666666" points="618.75,-602.75 479.75,-602.75 479.75,-582 618.75,-582 618.75,-602.75"/>
<text xml:space="preserve" text-anchor="middle" x="549.25" y="-589.25" font-family="Helvetica,sans-Serif" font-size="10.00">GreenFHom3DPer2D::Init</text>
</a>
</g>
</g>
<!-- Node26&#45;&gt;Node30 -->
<g id="edge36_Node000026_Node000030" class="edge">
<title>Node26&#45;&gt;Node30</title>
<g id="a_edge36_Node000026_Node000030"><a xlink:title=" ">
<path fill="none" stroke="#63b8ff" d="M403.87,-564.58C429.46,-569.51 456.92,-574.79 480.94,-579.42"/>
<polygon fill="#63b8ff" stroke="#63b8ff" points="480.11,-582.82 490.59,-581.28 481.43,-575.95 480.11,-582.82"/>
</a>
</g>
</g>
<!-- Node28 -->
<g id="Node000028" class="node">
<title>Node28</title>
<g id="a_Node000028"><a xlink:href="classGreenFHom3D.html#ac928f16e6e79c75c002d9a721a8858d8" target="_top" xlink:title="Default constructor (initializes with zeroed wavenumber and no lookup table).">
<polygon fill="white" stroke="#666666" points="856,-676.75 690,-676.75 690,-656 856,-656 856,-676.75"/>
<text xml:space="preserve" text-anchor="middle" x="773" y="-663.25" font-family="Helvetica,sans-Serif" font-size="10.00">GreenFHom3D::GreenFHom3D</text>
</a>
</g>
</g>
<!-- Node27&#45;&gt;Node28 -->
<g id="edge33_Node000027_Node000028" class="edge">
<title>Node27&#45;&gt;Node28</title>
<g id="a_edge33_Node000027_Node000028"><a xlink:title=" ">
<path fill="none" stroke="#63b8ff" d="M648.48,-656.91C658.39,-657.67 668.43,-658.44 678.29,-659.19"/>
<polygon fill="#63b8ff" stroke="#63b8ff" points="678.02,-662.68 688.25,-659.95 678.55,-655.7 678.02,-662.68"/>
</a>
</g>
</g>
<!-- Node29 -->
<g id="Node000029" class="node">
<title>Node29</title>
<g id="a_Node000029"><a xlink:href="classGreenF.html#a332ac24f39288170f77c18f37fde2c82" target="_top" xlink:title="Constructor for a homogeneous, non&#45;magnetic medium.">
<polygon fill="white" stroke="#666666" points="989.75,-611.75 898,-611.75 898,-591 989.75,-591 989.75,-611.75"/>
<text xml:space="preserve" text-anchor="middle" x="943.88" y="-598.25" font-family="Helvetica,sans-Serif" font-size="10.00">GreenF::GreenF</text>
</a>
</g>
</g>
<!-- Node28&#45;&gt;Node29 -->
<g id="edge34_Node000028_Node000029" class="edge">
<title>Node28&#45;&gt;Node29</title>
<g id="a_edge34_Node000028_Node000029"><a xlink:title=" ">
<path fill="none" stroke="#63b8ff" d="M832.45,-655.55C842.45,-653 852.64,-649.96 862,-646.38 881.45,-638.93 901.93,-627.49 917.42,-618.01"/>
<polygon fill="#63b8ff" stroke="#63b8ff" points="918.92,-621.2 925.53,-612.92 915.2,-615.27 918.92,-621.2"/>
</a>
</g>
</g>
<!-- Node29&#45;&gt;Node16 -->
<g id="edge35_Node000029_Node000016" class="edge">
<title>Node29&#45;&gt;Node16</title>
<g id="a_edge35_Node000029_Node000016"><a xlink:title=" ">
<path fill="none" stroke="#63b8ff" d="M955.19,-590.74C972.01,-573.39 1005.57,-538.78 1026.49,-517.2"/>
<polygon fill="#63b8ff" stroke="#63b8ff" points="1028.84,-519.81 1033.29,-510.19 1023.82,-514.94 1028.84,-519.81"/>
</a>
</g>
</g>
<!-- Node31 -->
<g id="Node000031" class="node">
<title>Node31</title>
<g id="a_Node000031"><a xlink:href="classGreenFHom3DPer.html#a8b1a5f0f63af1baf32caeebbf9b33170" target="_top" xlink:title="Set the number of periodic evaluation terms to accumulate.">
<polygon fill="white" stroke="#666666" points="853.75,-560.12 692.25,-560.12 692.25,-526.62 853.75,-526.62 853.75,-560.12"/>
<text xml:space="preserve" text-anchor="start" x="700.25" y="-546.62" font-family="Helvetica,sans-Serif" font-size="10.00">GreenFHom3DPer::Evaluation</text>
<text xml:space="preserve" text-anchor="middle" x="773" y="-533.88" font-family="Helvetica,sans-Serif" font-size="10.00">Terms</text>
</a>
</g>
</g>
<!-- Node30&#45;&gt;Node31 -->
<g id="edge37_Node000030_Node000031" class="edge">
<title>Node30&#45;&gt;Node31</title>
<g id="a_edge37_Node000030_Node000031"><a xlink:title=" ">
<path fill="none" stroke="#63b8ff" d="M608.49,-581.51C621.51,-578.95 635.25,-576.16 648,-573.38 662.31,-570.25 677.51,-566.74 692.17,-563.25"/>
<polygon fill="#63b8ff" stroke="#63b8ff" points="692.88,-566.68 701.79,-560.95 691.25,-559.88 692.88,-566.68"/>
</a>
</g>
</g>
<!-- Node32 -->
<g id="Node000032" class="node">
<title>Node32</title>
<g id="a_Node000032"><a xlink:href="classGreenFHom3DPer2D.html#a07235ce91a1e9b3410f5fad888d0e44c" target="_top" xlink:title="Build reciprocal lattice vectors.">
<polygon fill="white" stroke="#666666" points="860.12,-637.75 685.88,-637.75 685.88,-617 860.12,-617 860.12,-637.75"/>
<text xml:space="preserve" text-anchor="middle" x="773" y="-624.25" font-family="Helvetica,sans-Serif" font-size="10.00">GreenFHom3DPer2D::Reciprocal</text>
</a>
</g>
</g>
<!-- Node30&#45;&gt;Node32 -->
<g id="edge38_Node000030_Node000032" class="edge">
<title>Node30&#45;&gt;Node32</title>
<g id="a_edge38_Node000030_Node000032"><a xlink:title=" ">
<path fill="none" stroke="#63b8ff" d="M618.89,-603.21C642.06,-606.87 668.13,-610.98 692.09,-614.76"/>
<polygon fill="#63b8ff" stroke="#63b8ff" points="691.38,-618.19 701.8,-616.3 692.47,-611.28 691.38,-618.19"/>
</a>
</g>
</g>
<!-- Node33 -->
<g id="Node000033" class="node">
<title>Node33</title>
<g id="a_Node000033"><a xlink:href="classGreenFHom3DPer2D.html#a9352fdb0ead2b5956f3e951122f73e18" target="_top" xlink:title="Project the Bloch vector onto the lattice plane.">
<polygon fill="white" stroke="#666666" points="853.38,-598.75 692.62,-598.75 692.62,-578 853.38,-578 853.38,-598.75"/>
<text xml:space="preserve" text-anchor="middle" x="773" y="-585.25" font-family="Helvetica,sans-Serif" font-size="10.00">GreenFHom3DPer2D::ToPlane</text>
</a>
</g>
</g>
<!-- Node30&#45;&gt;Node33 -->
<g id="edge39_Node000030_Node000033" class="edge">
<title>Node30&#45;&gt;Node33</title>
<g id="a_edge39_Node000030_Node000033"><a xlink:title=" ">
<path fill="none" stroke="#63b8ff" d="M619.2,-591.13C638.72,-590.78 660.28,-590.39 680.89,-590.02"/>
<polygon fill="#63b8ff" stroke="#63b8ff" points="680.78,-593.52 690.72,-589.84 680.66,-586.52 680.78,-593.52"/>
</a>
</g>
</g>
<!-- Node38 -->
<g id="Node000038" class="node">
<title>Node38</title>
<g id="a_Node000038"><a xlink:href="classSingSub.html#a3e9e0b5a61df98d8f8138544c7df3da0" target="_top" xlink:title="K3(q) vector term.">
<polygon fill="white" stroke="#666666" points="586.12,-137.75 512.38,-137.75 512.38,-117 586.12,-117 586.12,-137.75"/>
<text xml:space="preserve" text-anchor="middle" x="549.25" y="-124.25" font-family="Helvetica,sans-Serif" font-size="10.00">SingSub::K3</text>
</a>
</g>
</g>
<!-- Node37&#45;&gt;Node38 -->
<g id="edge44_Node000037_Node000038" class="edge">
<title>Node37&#45;&gt;Node38</title>
<g id="a_edge44_Node000037_Node000038"><a xlink:title=" ">
<path fill="none" stroke="#63b8ff" d="M350.77,-127.38C391.03,-127.38 456.16,-127.38 500.53,-127.38"/>
<polygon fill="#63b8ff" stroke="#63b8ff" points="500.38,-130.88 510.38,-127.38 500.38,-123.88 500.38,-130.88"/>
</a>
</g>
</g>
</g>
</svg>

<g id="navigator" transform="translate(0 0)" fill="#404254">
  <rect fill="#f2f5e9" fill-opacity="0.5" stroke="#606060" stroke-width=".5" x="0" y="0" width="60" height="60"/>
  <use id="zoomplus" xlink:href="#zoomPlus" x="17" y="9" onmousedown="handleZoom(evt,'in')"/>
  <use id="zoomminus" xlink:href="#zoomMin" x="42" y="9" onmousedown="handleZoom(evt,'out')"/>
  <use id="reset" xlink:href="#resetDef" x="30" y="36" onmousedown="handleReset()"/>
   <use id="arrowup" xlink:href="#arrowUp" x="0" y="0" onmousedown="handlePan(0,-1)"/>
  <use id="arrowright" xlink:href="#arrowRight" x="0" y="0" onmousedown="handlePan(1,0)"/>
  <use id="arrowdown" xlink:href="#arrowDown" x="0" y="0" onmousedown="handlePan(0,1)"/>
  <use id="arrowleft" xlink:href="#arrowLeft" x="0" y="0" onmousedown="handlePan(-1,0)"/>
</g>
<svg viewBox="0 0 15 15" width="100%" height="30px" preserveAspectRatio="xMaxYMin meet">
 <g id="arrow_out" transform="scale(0.3 0.3)">
  <a xlink:href="classGreenFHom3DPer2D_a1dc9dd84c93ee10b2fb4b1866103d957_cgraph_org.svg" target="_base">
   <rect id="button" ry="5" rx="5" y="6" x="6" height="38" width="38"
        fill="#f2f5e9" fill-opacity="0.5" stroke="#606060" stroke-width="1.0"/>
   <path id="arrow"
     d="M 11.500037,31.436501 C 11.940474,20.09759 22.043105,11.32322 32.158766,21.979434 L 37.068811,17.246167 C 37.068811,17.246167 37.088388,32 37.088388,32 L 22.160133,31.978069 C 22.160133,31.978069 26.997745,27.140456 26.997745,27.140456 C 18.528582,18.264221 13.291696,25.230495 11.500037,31.436501 z"
     style="fill:#404040;"/>
  </a>
 </g>
</svg>

<style type='text/css'>
<![CDATA[
[data-mouse-over-selected='false'] { opacity: 0.7; }
[data-mouse-over-selected='true']  { opacity: 1.0; }
]]>
</style>
<script type="application/ecmascript"><![CDATA[
document.addEventListener('DOMContentLoaded', (event) => {
  highlightEdges();
  highlightAdjacentNodes();
});
]]></script>
</svg>
