<?xml version="1.0" encoding="UTF-8" standalone="no"?>
<!DOCTYPE svg PUBLIC "-//W3C//DTD SVG 1.1//EN"
 "http://www.w3.org/Graphics/SVG/1.1/DTD/svg11.dtd">
<!-- Generated by graphviz version 13.1.2 (20250809.0930)
 -->
<!-- Title: GaussQuad::IntegrateK Pages: 1 -->
<svg width="410pt" height="161pt"
 viewBox="0.00 0.00 410.00 161.00" xmlns="http://www.w3.org/2000/svg" xmlns:xlink="http://www.w3.org/1999/xlink">

<svg id="main" version="1.1" xmlns="http://www.w3.org/2000/svg" xmlns:xlink="http://www.w3.org/1999/xlink" xml:space="preserve">

<style type="text/css"><![CDATA[
.node, .edge {opacity: 0.7;}
.node.selected, .edge.selected {opacity: 1;}
.edge:hover path { stroke: red; }
.edge:hover polygon { stroke: red; fill: red; }
]]></style>
<script type="application/ecmascript" xlink:href="svg.min.js"/>
<svg id="graph" class="graph">
<g id="graph0" class="graph" transform="scale(1 1) rotate(0) translate(4 156.75)">
<title>GaussQuad::IntegrateK</title>
<!-- Node1 -->
<g id="Node000001" class="node">
<title>Node1</title>
<g id="a_Node000001"><a xlink:title="Two‑triangle integral for the K operator (Eq.">
<polygon fill="#999999" stroke="#666666" points="128.5,-79.75 0,-79.75 0,-59 128.5,-59 128.5,-79.75"/>
<text xml:space="preserve" text-anchor="middle" x="64.25" y="-66.25" font-family="Helvetica,sans-Serif" font-size="10.00">GaussQuad::IntegrateK</text>
</a>
</g>
</g>
<!-- Node2 -->
<g id="Node000002" class="node">
<title>Node2</title>
<g id="a_Node000002"><a xlink:href="classTriangle.html#a1d3d08deeb999f339d2e821a877521ba" target="_top" xlink:title="Surface area of the triangle.">
<polygon fill="white" stroke="#666666" points="385.88,-152.75 303.12,-152.75 303.12,-132 385.88,-132 385.88,-152.75"/>
<text xml:space="preserve" text-anchor="middle" x="344.5" y="-139.25" font-family="Helvetica,sans-Serif" font-size="10.00">Triangle::Area</text>
</a>
</g>
</g>
<!-- Node1&#45;&gt;Node2 -->
<g id="edge1_Node000001_Node000002" class="edge">
<title>Node1&#45;&gt;Node2</title>
<g id="a_edge1_Node000001_Node000002"><a xlink:title=" ">
<path fill="none" stroke="#63b8ff" d="M90.58,-80.09C110.42,-88.17 138.86,-99.07 164.5,-106.38 206.72,-118.41 255.66,-127.96 291.68,-134.19"/>
<polygon fill="#63b8ff" stroke="#63b8ff" points="290.96,-137.62 301.4,-135.84 292.13,-130.72 290.96,-137.62"/>
</a>
</g>
</g>
<!-- Node3 -->
<g id="Node000003" class="node">
<title>Node3</title>
<g id="a_Node000003"><a xlink:href="classTriangle.html#ab78508a340ec5d345adf114b43563dbf" target="_top" xlink:title="Centroid of the triangle.">
<polygon fill="white" stroke="#666666" points="390.75,-111.75 298.25,-111.75 298.25,-91 390.75,-91 390.75,-111.75"/>
<text xml:space="preserve" text-anchor="middle" x="344.5" y="-98.25" font-family="Helvetica,sans-Serif" font-size="10.00">Triangle::Center</text>
</a>
</g>
</g>
<!-- Node1&#45;&gt;Node3 -->
<g id="edge2_Node000001_Node000003" class="edge">
<title>Node1&#45;&gt;Node3</title>
<g id="a_edge2_Node000001_Node000003"><a xlink:title=" ">
<path fill="none" stroke="#63b8ff" d="M115.81,-80.23C131.37,-83.26 148.58,-86.28 164.5,-88.38 205.34,-93.75 251.73,-97.04 287.05,-98.96"/>
<polygon fill="#63b8ff" stroke="#63b8ff" points="286.43,-102.44 296.6,-99.46 286.79,-95.45 286.43,-102.44"/>
</a>
</g>
</g>
<!-- Node4 -->
<g id="Node000004" class="node">
<title>Node4</title>
<g id="a_Node000004"><a xlink:href="classRWGFun.html#a7540ce2f84c6b42a29c2808504c47d42" target="_top" xlink:title="Evaluate the RWG vector shape function at a point on the triangle.">
<polygon fill="white" stroke="#666666" points="397.5,-68.75 291.5,-68.75 291.5,-48 397.5,-48 397.5,-68.75"/>
<text xml:space="preserve" text-anchor="middle" x="344.5" y="-55.25" font-family="Helvetica,sans-Serif" font-size="10.00">RWGFun::Evaluate</text>
</a>
</g>
</g>
<!-- Node1&#45;&gt;Node4 -->
<g id="edge3_Node000001_Node000004" class="edge">
<title>Node1&#45;&gt;Node4</title>
<g id="a_edge3_Node000001_Node000004"><a xlink:title=" ">
<path fill="none" stroke="#63b8ff" d="M112.19,-58.5C128.64,-55.2 147.3,-52.01 164.5,-50.38 202.77,-46.74 212.59,-48.72 251,-50.38 260.38,-50.78 270.27,-51.41 279.96,-52.15"/>
<polygon fill="#63b8ff" stroke="#63b8ff" points="279.45,-55.62 289.7,-52.94 280.01,-48.65 279.45,-55.62"/>
</a>
</g>
</g>
<!-- Node5 -->
<g id="Node000005" class="node">
<title>Node5</title>
<g id="a_Node000005"><a xlink:href="classGaussQuad.html#aa2f7019adfbd7b78e6f91e5554b526b7" target="_top" xlink:title="I4: vector kernel crossed with RWG at the centroid.">
<polygon fill="white" stroke="#666666" points="251,-79.75 164.5,-79.75 164.5,-59 251,-59 251,-79.75"/>
<text xml:space="preserve" text-anchor="middle" x="207.75" y="-66.25" font-family="Helvetica,sans-Serif" font-size="10.00">GaussQuad::I4</text>
</a>
</g>
</g>
<!-- Node1&#45;&gt;Node5 -->
<g id="edge4_Node000001_Node000005" class="edge">
<title>Node1&#45;&gt;Node5</title>
<g id="a_edge4_Node000001_Node000005"><a xlink:title=" ">
<path fill="none" stroke="#63b8ff" d="M128.96,-69.38C136.85,-69.38 144.86,-69.38 152.59,-69.38"/>
<polygon fill="#63b8ff" stroke="#63b8ff" points="152.54,-72.88 162.54,-69.38 152.54,-65.88 152.54,-72.88"/>
</a>
</g>
</g>
<!-- Node6 -->
<g id="Node000006" class="node">
<title>Node6</title>
<g id="a_Node000006"><a xlink:href="classRWGFun.html#a6d9c854fc60bc02cb51ffb60cf388ccc" target="_top" xlink:title="Get the pointer to the owner Triangle.">
<polygon fill="white" stroke="#666666" points="402,-20.75 287,-20.75 287,0 402,0 402,-20.75"/>
<text xml:space="preserve" text-anchor="middle" x="344.5" y="-7.25" font-family="Helvetica,sans-Serif" font-size="10.00">RWGFun::TrianglePtr</text>
</a>
</g>
</g>
<!-- Node1&#45;&gt;Node6 -->
<g id="edge9_Node000001_Node000006" class="edge">
<title>Node1&#45;&gt;Node6</title>
<g id="a_edge9_Node000001_Node000006"><a xlink:title=" ">
<path fill="none" stroke="#63b8ff" d="M105.68,-58.61C123.64,-53.99 145.07,-48.66 164.5,-44.38 201.13,-36.29 242.24,-28.4 275.81,-22.26"/>
<polygon fill="#63b8ff" stroke="#63b8ff" points="276.19,-25.75 285.4,-20.51 274.94,-18.86 276.19,-25.75"/>
</a>
</g>
</g>
<!-- Node5&#45;&gt;Node2 -->
<g id="edge5_Node000005_Node000002" class="edge">
<title>Node5&#45;&gt;Node2</title>
<g id="a_edge5_Node000005_Node000002"><a xlink:title=" ">
<path fill="none" stroke="#63b8ff" d="M223.2,-80.1C238.5,-91.14 263.63,-108.37 287,-120.38 291.73,-122.8 296.78,-125.13 301.86,-127.3"/>
<polygon fill="#63b8ff" stroke="#63b8ff" points="300.22,-130.41 310.8,-130.94 302.86,-123.93 300.22,-130.41"/>
</a>
</g>
</g>
<!-- Node5&#45;&gt;Node3 -->
<g id="edge6_Node000005_Node000003" class="edge">
<title>Node5&#45;&gt;Node3</title>
<g id="a_edge6_Node000005_Node000003"><a xlink:title=" ">
<path fill="none" stroke="#63b8ff" d="M251.39,-79.5C262.6,-82.16 274.89,-85.08 286.72,-87.89"/>
<polygon fill="#63b8ff" stroke="#63b8ff" points="285.87,-91.29 296.41,-90.19 287.49,-84.48 285.87,-91.29"/>
</a>
</g>
</g>
<!-- Node5&#45;&gt;Node4 -->
<g id="edge7_Node000005_Node000004" class="edge">
<title>Node5&#45;&gt;Node4</title>
<g id="a_edge7_Node000005_Node000004"><a xlink:title=" ">
<path fill="none" stroke="#63b8ff" d="M251.39,-65.89C260.47,-65.15 270.26,-64.35 279.94,-63.56"/>
<polygon fill="#63b8ff" stroke="#63b8ff" points="280.02,-67.07 289.7,-62.77 279.45,-60.09 280.02,-67.07"/>
</a>
</g>
</g>
<!-- Node5&#45;&gt;Node6 -->
<g id="edge8_Node000005_Node000006" class="edge">
<title>Node5&#45;&gt;Node6</title>
<g id="a_edge8_Node000005_Node000006"><a xlink:title=" ">
<path fill="none" stroke="#63b8ff" d="M233.47,-58.55C254.55,-49.32 285.1,-35.94 308.67,-25.63"/>
<polygon fill="#63b8ff" stroke="#63b8ff" points="309.8,-28.95 317.55,-21.73 306.99,-22.54 309.8,-28.95"/>
</a>
</g>
</g>
</g>
</svg>
</svg>

<style type='text/css'>
<![CDATA[
[data-mouse-over-selected='false'] { opacity: 0.7; }
[data-mouse-over-selected='true']  { opacity: 1.0; }
]]>
</style>
<script type="application/ecmascript"><![CDATA[
document.addEventListener('DOMContentLoaded', (event) => {
  highlightEdges();
  highlightAdjacentNodes();
});
]]></script>
</svg>
