<?xml version="1.0" encoding="UTF-8" standalone="no"?>
<!DOCTYPE svg PUBLIC "-//W3C//DTD SVG 1.1//EN"
 "http://www.w3.org/Graphics/SVG/1.1/DTD/svg11.dtd">
<!-- Generated by graphviz version 13.1.2 (20250809.0930)
 -->
<!-- Title: SommerfeldIntegrator::InterIntegrand Pages: 1 -->
<svg width="452pt" height="119pt"
 viewBox="0.00 0.00 452.00 119.00" xmlns="http://www.w3.org/2000/svg" xmlns:xlink="http://www.w3.org/1999/xlink">

<svg id="main" version="1.1" xmlns="http://www.w3.org/2000/svg" xmlns:xlink="http://www.w3.org/1999/xlink" xml:space="preserve">

<style type="text/css"><![CDATA[
.node, .edge {opacity: 0.7;}
.node.selected, .edge.selected {opacity: 1;}
.edge:hover path { stroke: red; }
.edge:hover polygon { stroke: red; fill: red; }
]]></style>
<script type="application/ecmascript" xlink:href="svg.min.js"/>
<svg id="graph" class="graph">
<g id="graph0" class="graph" transform="scale(1 1) rotate(0) translate(4 115.12)">
<title>SommerfeldIntegrator::InterIntegrand</title>
<!-- Node1 -->
<g id="Node000001" class="node">
<title>Node1</title>
<g id="a_Node000001"><a xlink:title="Computes the inter&#45;layer Green&#39;s function integrand.">
<polygon fill="#999999" stroke="#666666" points="124,-78.5 0,-78.5 0,-45 124,-45 124,-78.5"/>
<text xml:space="preserve" text-anchor="start" x="8" y="-65" font-family="Helvetica,sans-Serif" font-size="10.00">SommerfeldIntegrator</text>
<text xml:space="preserve" text-anchor="middle" x="62" y="-52.25" font-family="Helvetica,sans-Serif" font-size="10.00">::InterIntegrand</text>
</a>
</g>
</g>
<!-- Node2 -->
<g id="Node000002" class="node">
<title>Node2</title>
<g id="a_Node000002"><a xlink:href="SommerfeldIntegrator_8cpp.html#a93b85379d21563ca5aba6f5eff053826" target="_top" xlink:title="Computes the Bessel function .">
<polygon fill="white" stroke="#666666" points="247.25,-111.12 196.75,-111.12 196.75,-90.38 247.25,-90.38 247.25,-111.12"/>
<text xml:space="preserve" text-anchor="middle" x="222" y="-97.62" font-family="Helvetica,sans-Serif" font-size="10.00">besselJ</text>
</a>
</g>
</g>
<!-- Node1&#45;&gt;Node2 -->
<g id="edge1_Node000001_Node000002" class="edge">
<title>Node1&#45;&gt;Node2</title>
<g id="a_edge1_Node000001_Node000002"><a xlink:title=" ">
<path fill="none" stroke="#63b8ff" d="M124.09,-76.83C144.74,-81.93 167.13,-87.45 185.17,-91.91"/>
<polygon fill="#63b8ff" stroke="#63b8ff" points="184.33,-95.3 194.87,-94.3 186,-88.51 184.33,-95.3"/>
</a>
</g>
</g>
<!-- Node4 -->
<g id="Node000004" class="node">
<title>Node4</title>
<g id="a_Node000004"><a xlink:href="SommerfeldIntegrator_8cpp.html#aa15340ecd95146df9ef36735f56c3417" target="_top" xlink:title="Computes the Hankel function .">
<polygon fill="white" stroke="#666666" points="249.88,-72.12 194.12,-72.12 194.12,-51.38 249.88,-51.38 249.88,-72.12"/>
<text xml:space="preserve" text-anchor="middle" x="222" y="-58.62" font-family="Helvetica,sans-Serif" font-size="10.00">hankelH</text>
</a>
</g>
</g>
<!-- Node1&#45;&gt;Node4 -->
<g id="edge3_Node000001_Node000004" class="edge">
<title>Node1&#45;&gt;Node4</title>
<g id="a_edge3_Node000001_Node000004"><a xlink:title=" ">
<path fill="none" stroke="#63b8ff" d="M124.09,-61.75C143.7,-61.75 164.87,-61.75 182.41,-61.75"/>
<polygon fill="#63b8ff" stroke="#63b8ff" points="182.39,-65.25 192.39,-61.75 182.39,-58.25 182.39,-65.25"/>
</a>
</g>
</g>
<!-- Node6 -->
<g id="Node000006" class="node">
<title>Node6</title>
<g id="a_Node000006"><a xlink:href="classSommerfeldIntegrator.html#a81c32ffee2aefc0eecbbbd7235c80e70" target="_top" xlink:title="Computes secondary wave contributions in a layered medium.">
<polygon fill="white" stroke="#666666" points="284,-33.5 160,-33.5 160,0 284,0 284,-33.5"/>
<text xml:space="preserve" text-anchor="start" x="168" y="-20" font-family="Helvetica,sans-Serif" font-size="10.00">SommerfeldIntegrator</text>
<text xml:space="preserve" text-anchor="middle" x="222" y="-7.25" font-family="Helvetica,sans-Serif" font-size="10.00">::Secondary</text>
</a>
</g>
</g>
<!-- Node1&#45;&gt;Node6 -->
<g id="edge5_Node000001_Node000006" class="edge">
<title>Node1&#45;&gt;Node6</title>
<g id="a_edge5_Node000001_Node000006"><a xlink:title=" ">
<path fill="none" stroke="#63b8ff" d="M123.18,-44.61C131.77,-42.16 140.67,-39.63 149.44,-37.13"/>
<polygon fill="#63b8ff" stroke="#63b8ff" points="150.35,-40.51 159,-34.41 148.43,-33.78 150.35,-40.51"/>
</a>
</g>
</g>
<!-- Node3 -->
<g id="Node000003" class="node">
<title>Node3</title>
<g id="a_Node000003"><a xlink:href="SommerfeldIntegrator_8cpp.html#a384f5925eef2fc5d52e72a65c50174c7" target="_top" xlink:title="Compute complex Bessel functions of the first kind .">
<polygon fill="white" stroke="#666666" points="405.38,-111.12 358.62,-111.12 358.62,-90.38 405.38,-90.38 405.38,-111.12"/>
<text xml:space="preserve" text-anchor="middle" x="382" y="-97.62" font-family="Helvetica,sans-Serif" font-size="10.00">zbesj_</text>
</a>
</g>
</g>
<!-- Node2&#45;&gt;Node3 -->
<g id="edge2_Node000002_Node000003" class="edge">
<title>Node2&#45;&gt;Node3</title>
<g id="a_edge2_Node000002_Node000003"><a xlink:title=" ">
<path fill="none" stroke="#63b8ff" d="M247.69,-100.75C274.43,-100.75 317.26,-100.75 347.13,-100.75"/>
<polygon fill="#63b8ff" stroke="#63b8ff" points="346.76,-104.25 356.76,-100.75 346.76,-97.25 346.76,-104.25"/>
</a>
</g>
</g>
<!-- Node5 -->
<g id="Node000005" class="node">
<title>Node5</title>
<g id="a_Node000005"><a xlink:href="SommerfeldIntegrator_8cpp.html#a2119f72fafe396d33e9c85025883db96" target="_top" xlink:title="Compute complex Hankel functions of the first kind or second kind .">
<polygon fill="white" stroke="#666666" points="406.88,-72.12 357.12,-72.12 357.12,-51.38 406.88,-51.38 406.88,-72.12"/>
<text xml:space="preserve" text-anchor="middle" x="382" y="-58.62" font-family="Helvetica,sans-Serif" font-size="10.00">zbesh_</text>
</a>
</g>
</g>
<!-- Node4&#45;&gt;Node5 -->
<g id="edge4_Node000004_Node000005" class="edge">
<title>Node4&#45;&gt;Node5</title>
<g id="a_edge4_Node000004_Node000005"><a xlink:title=" ">
<path fill="none" stroke="#63b8ff" d="M250.16,-61.75C276.53,-61.75 316.69,-61.75 345.56,-61.75"/>
<polygon fill="#63b8ff" stroke="#63b8ff" points="345.27,-65.25 355.27,-61.75 345.27,-58.25 345.27,-65.25"/>
</a>
</g>
</g>
<!-- Node7 -->
<g id="Node000007" class="node">
<title>Node7</title>
<g id="a_Node000007"><a xlink:href="classSommerfeldIntegrator.html#ac555c6dc86d0b7fb03ea49df9668daf8" target="_top" xlink:title="Computes distances from interfaces for inter&#45;layer secondary wave calculations.">
<polygon fill="white" stroke="#666666" points="444,-33.5 320,-33.5 320,0 444,0 444,-33.5"/>
<text xml:space="preserve" text-anchor="start" x="328" y="-20" font-family="Helvetica,sans-Serif" font-size="10.00">SommerfeldIntegrator</text>
<text xml:space="preserve" text-anchor="middle" x="382" y="-7.25" font-family="Helvetica,sans-Serif" font-size="10.00">::interDist</text>
</a>
</g>
</g>
<!-- Node6&#45;&gt;Node7 -->
<g id="edge6_Node000006_Node000007" class="edge">
<title>Node6&#45;&gt;Node7</title>
<g id="a_edge6_Node000006_Node000007"><a xlink:title=" ">
<path fill="none" stroke="#63b8ff" d="M284.09,-16.75C292,-16.75 300.16,-16.75 308.23,-16.75"/>
<polygon fill="#63b8ff" stroke="#63b8ff" points="308.04,-20.25 318.04,-16.75 308.04,-13.25 308.04,-20.25"/>
</a>
</g>
</g>
</g>
</svg>
</svg>

<style type='text/css'>
<![CDATA[
[data-mouse-over-selected='false'] { opacity: 0.7; }
[data-mouse-over-selected='true']  { opacity: 1.0; }
]]>
</style>
<script type="application/ecmascript"><![CDATA[
document.addEventListener('DOMContentLoaded', (event) => {
  highlightEdges();
  highlightAdjacentNodes();
});
]]></script>
</svg>
