<?xml version="1.0" encoding="UTF-8" standalone="no"?>
<!DOCTYPE svg PUBLIC "-//W3C//DTD SVG 1.1//EN"
 "http://www.w3.org/Graphics/SVG/1.1/DTD/svg11.dtd">
<!-- Generated by graphviz version 13.1.2 (20250809.0930)
 -->
<!-- Title: GreenFLayered3D::writeVectorToFile Pages: 1 -->
<svg width="363pt" height="198pt"
 viewBox="0.00 0.00 363.00 198.00" xmlns="http://www.w3.org/2000/svg" xmlns:xlink="http://www.w3.org/1999/xlink">
<g id="graph0" class="graph" transform="scale(1 1) rotate(0) translate(4 193.5)">
<title>GreenFLayered3D::writeVectorToFile</title>
<!-- Node1 -->
<g id="Node000001" class="node">
<title>Node1</title>
<g id="a_Node000001"><a xlink:title="Write complex data with associated 2D coordinates to a text file.">
<polygon fill="#999999" stroke="#666666" points="355.25,-111.5 190,-111.5 190,-78 355.25,-78 355.25,-111.5"/>
<text xml:space="preserve" text-anchor="start" x="198" y="-98" font-family="Helvetica,sans-Serif" font-size="10.00">GreenFLayered3D::writeVector</text>
<text xml:space="preserve" text-anchor="middle" x="272.62" y="-85.25" font-family="Helvetica,sans-Serif" font-size="10.00">ToFile</text>
</a>
</g>
</g>
<!-- Node2 -->
<g id="Node000002" class="node">
<title>Node2</title>
<g id="a_Node000002"><a xlink:href="classGreenFLayered3D.html#afbdbfdc8fc40fc885f6377d5be242d36" target="_top" xlink:title="term at an observation point.">
<polygon fill="white" stroke="#666666" points="154,-189.5 0,-189.5 0,-156 154,-156 154,-189.5"/>
<text xml:space="preserve" text-anchor="start" x="8" y="-176" font-family="Helvetica,sans-Serif" font-size="10.00">GreenFLayered3D::Integrate</text>
<text xml:space="preserve" text-anchor="middle" x="77" y="-163.25" font-family="Helvetica,sans-Serif" font-size="10.00">Delta</text>
</a>
</g>
</g>
<!-- Node1&#45;&gt;Node2 -->
<g id="edge1_Node000001_Node000002" class="edge">
<title>Node1&#45;&gt;Node2</title>
<g id="a_edge1_Node000001_Node000002"><a xlink:title=" ">
<path fill="none" stroke="#63b8ff" d="M224.47,-116.71C203.13,-126.36 177.48,-137.56 154,-146.75 146.34,-149.75 138.17,-152.74 130.14,-155.58"/>
<polygon fill="#63b8ff" stroke="#63b8ff" points="225.86,-119.93 233.51,-112.6 222.96,-113.56 225.86,-119.93"/>
</a>
</g>
</g>
<!-- Node3 -->
<g id="Node000003" class="node">
<title>Node3</title>
<g id="a_Node000003"><a xlink:href="classGreenFLayered3D.html#a439eddb43f46fb52f6c84898ea12aa40" target="_top" xlink:title="term at an observation point.">
<polygon fill="white" stroke="#666666" points="154,-137.5 0,-137.5 0,-104 154,-104 154,-137.5"/>
<text xml:space="preserve" text-anchor="start" x="8" y="-124" font-family="Helvetica,sans-Serif" font-size="10.00">GreenFLayered3D::Integrate</text>
<text xml:space="preserve" text-anchor="middle" x="77" y="-111.25" font-family="Helvetica,sans-Serif" font-size="10.00">Kappa</text>
</a>
</g>
</g>
<!-- Node1&#45;&gt;Node3 -->
<g id="edge2_Node000001_Node000003" class="edge">
<title>Node1&#45;&gt;Node3</title>
<g id="a_edge2_Node000001_Node000003"><a xlink:title=" ">
<path fill="none" stroke="#63b8ff" d="M178.25,-107.29C170.26,-108.36 162.23,-109.44 154.39,-110.49"/>
<polygon fill="#63b8ff" stroke="#63b8ff" points="178.57,-110.78 188.01,-105.98 177.63,-103.84 178.57,-110.78"/>
</a>
</g>
</g>
<!-- Node4 -->
<g id="Node000004" class="node">
<title>Node4</title>
<g id="a_Node000004"><a xlink:href="classGreenFLayered3D.html#af46d152fbc30bdc418ff16e5e7a334c6" target="_top" xlink:title="Point–triangle delta/kappa contributions for RHS assembly.">
<polygon fill="white" stroke="#666666" points="151.38,-85.5 2.62,-85.5 2.62,-52 151.38,-52 151.38,-85.5"/>
<text xml:space="preserve" text-anchor="start" x="10.62" y="-72" font-family="Helvetica,sans-Serif" font-size="10.00">GreenFLayered3D::SameTri</text>
<text xml:space="preserve" text-anchor="middle" x="77" y="-59.25" font-family="Helvetica,sans-Serif" font-size="10.00">DeltaKappa</text>
</a>
</g>
</g>
<!-- Node1&#45;&gt;Node4 -->
<g id="edge3_Node000001_Node000004" class="edge">
<title>Node1&#45;&gt;Node4</title>
<g id="a_edge3_Node000001_Node000004"><a xlink:title=" ">
<path fill="none" stroke="#63b8ff" d="M178.24,-82.21C169.32,-81.01 160.35,-79.81 151.65,-78.64"/>
<polygon fill="#63b8ff" stroke="#63b8ff" points="177.63,-85.66 188.01,-83.52 178.57,-78.72 177.63,-85.66"/>
</a>
</g>
</g>
<!-- Node5 -->
<g id="Node000005" class="node">
<title>Node5</title>
<g id="a_Node000005"><a xlink:href="classGreenFLayered3D.html#adb66750a1f30911e4e64f2cb05b61f98" target="_top" xlink:title="Test filling of interpolation tables with Green&#39;s function values.">
<polygon fill="white" stroke="#666666" points="148.38,-33.5 5.62,-33.5 5.62,0 148.38,0 148.38,-33.5"/>
<text xml:space="preserve" text-anchor="start" x="13.62" y="-20" font-family="Helvetica,sans-Serif" font-size="10.00">GreenFLayered3D::testFill</text>
<text xml:space="preserve" text-anchor="middle" x="77" y="-7.25" font-family="Helvetica,sans-Serif" font-size="10.00">GreenFTable</text>
</a>
</g>
</g>
<!-- Node1&#45;&gt;Node5 -->
<g id="edge4_Node000001_Node000005" class="edge">
<title>Node1&#45;&gt;Node5</title>
<g id="a_edge4_Node000001_Node000005"><a xlink:title=" ">
<path fill="none" stroke="#63b8ff" d="M224.47,-72.79C203.13,-63.14 177.48,-51.94 154,-42.75 146.34,-39.75 138.17,-36.76 130.14,-33.92"/>
<polygon fill="#63b8ff" stroke="#63b8ff" points="222.96,-75.94 233.51,-76.9 225.86,-69.57 222.96,-75.94"/>
</a>
</g>
</g>
</g>
</svg>
