<?xml version="1.0" encoding="UTF-8" standalone="no"?>
<!DOCTYPE svg PUBLIC "-//W3C//DTD SVG 1.1//EN"
 "http://www.w3.org/Graphics/SVG/1.1/DTD/svg11.dtd">
<!-- Generated by graphviz version 13.1.2 (20250809.0930)
 -->
<!-- Title: DomainHom3D::AddPlaneWave Pages: 1 -->
<svg width="257pt" height="47pt"
 viewBox="0.00 0.00 257.00 47.00" xmlns="http://www.w3.org/2000/svg" xmlns:xlink="http://www.w3.org/1999/xlink">
<g id="graph0" class="graph" transform="scale(1 1) rotate(0) translate(4 42.75)">
<title>DomainHom3D::AddPlaneWave</title>
<!-- Node1 -->
<g id="Node000001" class="node">
<title>Node1</title>
<g id="a_Node000001"><a xlink:title="Add a PlaneWave excitation (ownership transferred to Domain).">
<polygon fill="#999999" stroke="#666666" points="169.75,-20.75 0,-20.75 0,0 169.75,0 169.75,-20.75"/>
<text xml:space="preserve" text-anchor="middle" x="84.88" y="-7.25" font-family="Helvetica,sans-Serif" font-size="10.00">DomainHom3D::AddPlaneWave</text>
</a>
</g>
</g>
<!-- Node2 -->
<g id="Node000002" class="node">
<title>Node2</title>
<g id="a_Node000002"><a xlink:href="Domain_8cpp.html#aafa3e4fa6318b2f8740f4dbd50c367e5" target="_top" xlink:title="Extract the real part of each component of a complex 3&#45;vector.">
<polygon fill="white" stroke="#666666" points="240.5,-20.75 205.75,-20.75 205.75,0 240.5,0 240.5,-20.75"/>
<text xml:space="preserve" text-anchor="middle" x="223.12" y="-7.25" font-family="Helvetica,sans-Serif" font-size="10.00">real</text>
</a>
</g>
</g>
<!-- Node1&#45;&gt;Node2 -->
<g id="edge1_Node000001_Node000002" class="edge">
<title>Node1&#45;&gt;Node2</title>
<g id="a_edge1_Node000001_Node000002"><a xlink:title=" ">
<path fill="none" stroke="#63b8ff" d="M170.23,-10.38C178.63,-10.38 186.69,-10.38 193.84,-10.38"/>
<polygon fill="#63b8ff" stroke="#63b8ff" points="193.76,-13.88 203.76,-10.38 193.76,-6.88 193.76,-13.88"/>
</a>
</g>
</g>
<!-- Node2&#45;&gt;Node2 -->
<g id="edge2_Node000002_Node000002" class="edge">
<title>Node2&#45;&gt;Node2</title>
<g id="a_edge2_Node000002_Node000002"><a xlink:title=" ">
<path fill="none" stroke="#63b8ff" d="M205.4,-17.64C190.22,-27.2 196.12,-38.75 223.12,-38.75 242.53,-38.75 251.04,-32.79 248.65,-25.88"/>
<polygon fill="#63b8ff" stroke="#63b8ff" points="251.31,-23.59 241.89,-18.74 246.23,-28.41 251.31,-23.59"/>
</a>
</g>
</g>
</g>
</svg>
