<?xml version="1.0" encoding="UTF-8" standalone="no"?>
<!DOCTYPE svg PUBLIC "-//W3C//DTD SVG 1.1//EN"
 "http://www.w3.org/Graphics/SVG/1.1/DTD/svg11.dtd">
<!-- Generated by graphviz version 13.1.2 (20250809.0930)
 -->
<!-- Title: GreenFHom3DPer2D::GreenFHom3DPer2D Pages: 1 -->
<svg width="914pt" height="176pt"
 viewBox="0.00 0.00 914.00 176.00" xmlns="http://www.w3.org/2000/svg" xmlns:xlink="http://www.w3.org/1999/xlink">
<g id="graph0" class="graph" transform="scale(1 1) rotate(0) translate(4 171.75)">
<title>GreenFHom3DPer2D::GreenFHom3DPer2D</title>
<!-- Node1 -->
<g id="Node000001" class="node">
<title>Node1</title>
<g id="a_Node000001"><a xlink:title="Constructor for a magnetic medium (2D periodic).">
<polygon fill="#999999" stroke="#666666" points="187.75,-107.12 0,-107.12 0,-73.62 187.75,-73.62 187.75,-107.12"/>
<text xml:space="preserve" text-anchor="start" x="8" y="-93.62" font-family="Helvetica,sans-Serif" font-size="10.00">GreenFHom3DPer2D::GreenFHom3</text>
<text xml:space="preserve" text-anchor="middle" x="93.88" y="-80.88" font-family="Helvetica,sans-Serif" font-size="10.00">DPer2D</text>
</a>
</g>
</g>
<!-- Node2 -->
<g id="Node000002" class="node">
<title>Node2</title>
<g id="a_Node000002"><a xlink:href="classGreenFHom3DPer.html#a414d2e05ac1b3d089e2a5556e6e16a93" target="_top" xlink:title="Homogeneous, non‑magnetic constructor with Bloch vector.">
<polygon fill="white" stroke="#666666" points="421.25,-134.75 223.75,-134.75 223.75,-114 421.25,-114 421.25,-134.75"/>
<text xml:space="preserve" text-anchor="middle" x="322.5" y="-121.25" font-family="Helvetica,sans-Serif" font-size="10.00">GreenFHom3DPer::GreenFHom3DPer</text>
</a>
</g>
</g>
<!-- Node1&#45;&gt;Node2 -->
<g id="edge1_Node000001_Node000002" class="edge">
<title>Node1&#45;&gt;Node2</title>
<g id="a_edge1_Node000001_Node000002"><a xlink:title=" ">
<path fill="none" stroke="#63b8ff" d="M188.03,-104.35C204.6,-106.84 221.76,-109.41 238.03,-111.85"/>
<polygon fill="#63b8ff" stroke="#63b8ff" points="237.23,-115.27 247.64,-113.29 238.27,-108.35 237.23,-115.27"/>
</a>
</g>
</g>
<!-- Node7 -->
<g id="Node000007" class="node">
<title>Node7</title>
<g id="a_Node000007"><a xlink:href="classGreenFHom3DPer2D.html#a3160d2ff20a3ec478d2fb6e9b72cf79d" target="_top" xlink:title="Common initialization: set lookup flags, build reciprocal lattice, project k, choose Ewald parameter.">
<polygon fill="white" stroke="#666666" points="392,-81.75 253,-81.75 253,-61 392,-61 392,-81.75"/>
<text xml:space="preserve" text-anchor="middle" x="322.5" y="-68.25" font-family="Helvetica,sans-Serif" font-size="10.00">GreenFHom3DPer2D::Init</text>
</a>
</g>
</g>
<!-- Node1&#45;&gt;Node7 -->
<g id="edge7_Node000001_Node000007" class="edge">
<title>Node1&#45;&gt;Node7</title>
<g id="a_edge7_Node000001_Node000007"><a xlink:title=" ">
<path fill="none" stroke="#63b8ff" d="M188.03,-82.56C205.76,-81.08 224.16,-79.54 241.44,-78.09"/>
<polygon fill="#63b8ff" stroke="#63b8ff" points="241.43,-81.6 251.1,-77.28 240.84,-74.62 241.43,-81.6"/>
</a>
</g>
</g>
<!-- Node3 -->
<g id="Node000003" class="node">
<title>Node3</title>
<g id="a_Node000003"><a xlink:href="classGreenFHom3D.html#ac928f16e6e79c75c002d9a721a8858d8" target="_top" xlink:title="Default constructor (initializes with zeroed wavenumber and no lookup table).">
<polygon fill="white" stroke="#666666" points="627.38,-149.75 461.38,-149.75 461.38,-129 627.38,-129 627.38,-149.75"/>
<text xml:space="preserve" text-anchor="middle" x="544.38" y="-136.25" font-family="Helvetica,sans-Serif" font-size="10.00">GreenFHom3D::GreenFHom3D</text>
</a>
</g>
</g>
<!-- Node2&#45;&gt;Node3 -->
<g id="edge2_Node000002_Node000003" class="edge">
<title>Node2&#45;&gt;Node3</title>
<g id="a_edge2_Node000002_Node000003"><a xlink:title=" ">
<path fill="none" stroke="#63b8ff" d="M421.54,-131.06C430.9,-131.7 440.38,-132.35 449.7,-132.98"/>
<polygon fill="#63b8ff" stroke="#63b8ff" points="449.25,-136.46 459.46,-133.65 449.72,-129.48 449.25,-136.46"/>
</a>
</g>
</g>
<!-- Node4 -->
<g id="Node000004" class="node">
<title>Node4</title>
<g id="a_Node000004"><a xlink:href="classGreenF.html#a332ac24f39288170f77c18f37fde2c82" target="_top" xlink:title="Constructor for a homogeneous, non&#45;magnetic medium.">
<polygon fill="white" stroke="#666666" points="759.25,-149.75 667.5,-149.75 667.5,-129 759.25,-129 759.25,-149.75"/>
<text xml:space="preserve" text-anchor="middle" x="713.38" y="-136.25" font-family="Helvetica,sans-Serif" font-size="10.00">GreenF::GreenF</text>
</a>
</g>
</g>
<!-- Node3&#45;&gt;Node4 -->
<g id="edge3_Node000003_Node000004" class="edge">
<title>Node3&#45;&gt;Node4</title>
<g id="a_edge3_Node000003_Node000004"><a xlink:title=" ">
<path fill="none" stroke="#63b8ff" d="M627.41,-139.38C637.04,-139.38 646.69,-139.38 655.86,-139.38"/>
<polygon fill="#63b8ff" stroke="#63b8ff" points="655.66,-142.88 665.66,-139.38 655.66,-135.88 655.66,-142.88"/>
</a>
</g>
</g>
<!-- Node5 -->
<g id="Node000005" class="node">
<title>Node5</title>
<g id="a_Node000005"><a xlink:href="group__greenFunction.html#gac0a52dce23be7dacdf97c68653b6c137" target="_top" xlink:title="Complex square root with a branch cut along the negative real axis.">
<polygon fill="white" stroke="#666666" points="835.25,-149.75 795.25,-149.75 795.25,-129 835.25,-129 835.25,-149.75"/>
<text xml:space="preserve" text-anchor="middle" x="815.25" y="-136.25" font-family="Helvetica,sans-Serif" font-size="10.00">csqrt</text>
</a>
</g>
</g>
<!-- Node4&#45;&gt;Node5 -->
<g id="edge4_Node000004_Node000005" class="edge">
<title>Node4&#45;&gt;Node5</title>
<g id="a_edge4_Node000004_Node000005"><a xlink:title=" ">
<path fill="none" stroke="#63b8ff" d="M759.64,-139.38C767.67,-139.38 775.86,-139.38 783.38,-139.38"/>
<polygon fill="#63b8ff" stroke="#63b8ff" points="783.36,-142.88 793.36,-139.38 783.36,-135.88 783.36,-142.88"/>
</a>
</g>
</g>
<!-- Node6 -->
<g id="Node000006" class="node">
<title>Node6</title>
<g id="a_Node000006"><a xlink:href="Domain_8cpp.html#aafa3e4fa6318b2f8740f4dbd50c367e5" target="_top" xlink:title="Extract the real part of each component of a complex 3&#45;vector.">
<polygon fill="white" stroke="#666666" points="906,-149.75 871.25,-149.75 871.25,-129 906,-129 906,-149.75"/>
<text xml:space="preserve" text-anchor="middle" x="888.62" y="-136.25" font-family="Helvetica,sans-Serif" font-size="10.00">real</text>
</a>
</g>
</g>
<!-- Node5&#45;&gt;Node6 -->
<g id="edge5_Node000005_Node000006" class="edge">
<title>Node5&#45;&gt;Node6</title>
<g id="a_edge5_Node000005_Node000006"><a xlink:title=" ">
<path fill="none" stroke="#63b8ff" d="M835.38,-139.38C842.81,-139.38 851.48,-139.38 859.59,-139.38"/>
<polygon fill="#63b8ff" stroke="#63b8ff" points="859.36,-142.88 869.36,-139.38 859.36,-135.88 859.36,-142.88"/>
</a>
</g>
</g>
<!-- Node6&#45;&gt;Node6 -->
<g id="edge6_Node000006_Node000006" class="edge">
<title>Node6&#45;&gt;Node6</title>
<g id="a_edge6_Node000006_Node000006"><a xlink:title=" ">
<path fill="none" stroke="#63b8ff" d="M876.8,-150.15C872.07,-158.81 876.01,-167.75 888.62,-167.75 895.32,-167.75 899.58,-165.23 901.38,-161.56"/>
<polygon fill="#63b8ff" stroke="#63b8ff" points="904.88,-161.34 900.57,-151.66 897.9,-161.91 904.88,-161.34"/>
</a>
</g>
</g>
<!-- Node8 -->
<g id="Node000008" class="node">
<title>Node8</title>
<g id="a_Node000008"><a xlink:href="classGreenFHom3DPer.html#a8b1a5f0f63af1baf32caeebbf9b33170" target="_top" xlink:title="Set the number of periodic evaluation terms to accumulate.">
<polygon fill="white" stroke="#666666" points="625.12,-111.12 463.62,-111.12 463.62,-77.62 625.12,-77.62 625.12,-111.12"/>
<text xml:space="preserve" text-anchor="start" x="471.62" y="-97.62" font-family="Helvetica,sans-Serif" font-size="10.00">GreenFHom3DPer::Evaluation</text>
<text xml:space="preserve" text-anchor="middle" x="544.38" y="-84.88" font-family="Helvetica,sans-Serif" font-size="10.00">Terms</text>
</a>
</g>
</g>
<!-- Node7&#45;&gt;Node8 -->
<g id="edge8_Node000007_Node000008" class="edge">
<title>Node7&#45;&gt;Node8</title>
<g id="a_edge8_Node000007_Node000008"><a xlink:title=" ">
<path fill="none" stroke="#63b8ff" d="M392.47,-78.59C411.4,-80.57 432.22,-82.75 452.2,-84.84"/>
<polygon fill="#63b8ff" stroke="#63b8ff" points="451.7,-88.3 462.01,-85.86 452.43,-81.34 451.7,-88.3"/>
</a>
</g>
</g>
<!-- Node9 -->
<g id="Node000009" class="node">
<title>Node9</title>
<g id="a_Node000009"><a xlink:href="classGreenFHom3DPer2D.html#a07235ce91a1e9b3410f5fad888d0e44c" target="_top" xlink:title="Build reciprocal lattice vectors.">
<polygon fill="white" stroke="#666666" points="631.5,-59.75 457.25,-59.75 457.25,-39 631.5,-39 631.5,-59.75"/>
<text xml:space="preserve" text-anchor="middle" x="544.38" y="-46.25" font-family="Helvetica,sans-Serif" font-size="10.00">GreenFHom3DPer2D::Reciprocal</text>
</a>
</g>
</g>
<!-- Node7&#45;&gt;Node9 -->
<g id="edge9_Node000007_Node000009" class="edge">
<title>Node7&#45;&gt;Node9</title>
<g id="a_edge9_Node000007_Node000009"><a xlink:title=" ">
<path fill="none" stroke="#63b8ff" d="M392.47,-64.47C409.28,-62.79 427.59,-60.96 445.47,-59.17"/>
<polygon fill="#63b8ff" stroke="#63b8ff" points="445.72,-62.66 455.33,-58.18 445.03,-55.7 445.72,-62.66"/>
</a>
</g>
</g>
<!-- Node10 -->
<g id="Node000010" class="node">
<title>Node10</title>
<g id="a_Node000010"><a xlink:href="classGreenFHom3DPer2D.html#a9352fdb0ead2b5956f3e951122f73e18" target="_top" xlink:title="Project the Bloch vector onto the lattice plane.">
<polygon fill="white" stroke="#666666" points="624.75,-20.75 464,-20.75 464,0 624.75,0 624.75,-20.75"/>
<text xml:space="preserve" text-anchor="middle" x="544.38" y="-7.25" font-family="Helvetica,sans-Serif" font-size="10.00">GreenFHom3DPer2D::ToPlane</text>
</a>
</g>
</g>
<!-- Node7&#45;&gt;Node10 -->
<g id="edge10_Node000007_Node000010" class="edge">
<title>Node7&#45;&gt;Node10</title>
<g id="a_edge10_Node000007_Node000010"><a xlink:title=" ">
<path fill="none" stroke="#63b8ff" d="M356.57,-60.54C383.53,-51.87 422.66,-39.68 457.25,-30.38 465.59,-28.13 474.42,-25.91 483.13,-23.81"/>
<polygon fill="#63b8ff" stroke="#63b8ff" points="483.65,-27.28 492.57,-21.56 482.03,-20.47 483.65,-27.28"/>
</a>
</g>
</g>
</g>
</svg>
