<?xml version="1.0" encoding="UTF-8" standalone="no"?>
<!DOCTYPE svg PUBLIC "-//W3C//DTD SVG 1.1//EN"
 "http://www.w3.org/Graphics/SVG/1.1/DTD/svg11.dtd">
<!-- Generated by graphviz version 13.1.2 (20250809.0930)
 -->
<!-- Title: DomainHom3D::DomainHom3D Pages: 1 -->
<svg width="785pt" height="68pt"
 viewBox="0.00 0.00 785.00 68.00" xmlns="http://www.w3.org/2000/svg" xmlns:xlink="http://www.w3.org/1999/xlink">
<g id="graph0" class="graph" transform="scale(1 1) rotate(0) translate(4 63.75)">
<title>DomainHom3D::DomainHom3D</title>
<!-- Node1 -->
<g id="Node000001" class="node">
<title>Node1</title>
<g id="a_Node000001"><a xlink:title="Construct a homogeneous domain, optionally skipping Green&#39;s function creation.">
<polygon fill="#999999" stroke="#666666" points="172,-39.75 0,-39.75 0,-19 172,-19 172,-39.75"/>
<text xml:space="preserve" text-anchor="middle" x="86" y="-26.25" font-family="Helvetica,sans-Serif" font-size="10.00">DomainHom3D::DomainHom3D</text>
</a>
</g>
</g>
<!-- Node2 -->
<g id="Node000002" class="node">
<title>Node2</title>
<g id="a_Node000002"><a xlink:href="classDomain.html#a3f6f9e8ec932680440098679b6fe3300" target="_top" xlink:title="Construct a domain over a mesh region at a given vacuum wavelength.">
<polygon fill="white" stroke="#666666" points="330.88,-59.75 232.38,-59.75 232.38,-39 330.88,-39 330.88,-59.75"/>
<text xml:space="preserve" text-anchor="middle" x="281.62" y="-46.25" font-family="Helvetica,sans-Serif" font-size="10.00">Domain::Domain</text>
</a>
</g>
</g>
<!-- Node1&#45;&gt;Node2 -->
<g id="edge1_Node000001_Node000002" class="edge">
<title>Node1&#45;&gt;Node2</title>
<g id="a_edge1_Node000001_Node000002"><a xlink:title=" ">
<path fill="none" stroke="#63b8ff" d="M172.49,-38.21C188.72,-39.88 205.37,-41.6 220.6,-43.18"/>
<polygon fill="#63b8ff" stroke="#63b8ff" points="220.13,-46.64 230.44,-44.19 220.85,-39.68 220.13,-46.64"/>
</a>
</g>
</g>
<!-- Node5 -->
<g id="Node000005" class="node">
<title>Node5</title>
<g id="a_Node000005"><a xlink:href="classDomainHom3D.html#a3877e2d1f2020c251b5e3c74e5c40594" target="_top" xlink:title="Instantiate the homogeneous Green&#39;s function for this domain.">
<polygon fill="white" stroke="#666666" points="355.25,-20.75 208,-20.75 208,0 355.25,0 355.25,-20.75"/>
<text xml:space="preserve" text-anchor="middle" x="281.62" y="-7.25" font-family="Helvetica,sans-Serif" font-size="10.00">DomainHom3D::InitGrnFun</text>
</a>
</g>
</g>
<!-- Node1&#45;&gt;Node5 -->
<g id="edge4_Node000001_Node000005" class="edge">
<title>Node1&#45;&gt;Node5</title>
<g id="a_edge4_Node000001_Node000005"><a xlink:title=" ">
<path fill="none" stroke="#63b8ff" d="M172.49,-20.99C180.39,-20.21 188.38,-19.43 196.27,-18.65"/>
<polygon fill="#63b8ff" stroke="#63b8ff" points="196.6,-22.14 206.21,-17.68 195.92,-15.17 196.6,-22.14"/>
</a>
</g>
</g>
<!-- Node3 -->
<g id="Node000003" class="node">
<title>Node3</title>
<g id="a_Node000003"><a xlink:href="classDomain.html#a753296cc63cedb73b537311031521178" target="_top" xlink:title="Add all boundary triangles belonging to region dIndex and build RWGs.">
<polygon fill="white" stroke="#666666" points="564.75,-59.75 391.25,-59.75 391.25,-39 564.75,-39 564.75,-59.75"/>
<text xml:space="preserve" text-anchor="middle" x="478" y="-46.25" font-family="Helvetica,sans-Serif" font-size="10.00">Domain::AddTrianglesFromMesh</text>
</a>
</g>
</g>
<!-- Node2&#45;&gt;Node3 -->
<g id="edge2_Node000002_Node000003" class="edge">
<title>Node2&#45;&gt;Node3</title>
<g id="a_edge2_Node000002_Node000003"><a xlink:title=" ">
<path fill="none" stroke="#63b8ff" d="M331.17,-49.38C346.02,-49.38 362.92,-49.38 379.81,-49.38"/>
<polygon fill="#63b8ff" stroke="#63b8ff" points="379.37,-52.88 389.37,-49.38 379.37,-45.88 379.37,-52.88"/>
</a>
</g>
</g>
<!-- Node4 -->
<g id="Node000004" class="node">
<title>Node4</title>
<g id="a_Node000004"><a xlink:href="classSurfaceMesh.html#a7681019f61e9c1542c893c177117dac4" target="_top" xlink:title="Triangles bordering a given domain (FRONT or BACK).">
<polygon fill="white" stroke="#666666" points="776.5,-59.75 600.75,-59.75 600.75,-39 776.5,-39 776.5,-59.75"/>
<text xml:space="preserve" text-anchor="middle" x="688.62" y="-46.25" font-family="Helvetica,sans-Serif" font-size="10.00">SurfaceMesh::BorderingTriangles</text>
</a>
</g>
</g>
<!-- Node3&#45;&gt;Node4 -->
<g id="edge3_Node000003_Node000004" class="edge">
<title>Node3&#45;&gt;Node4</title>
<g id="a_edge3_Node000003_Node000004"><a xlink:title=" ">
<path fill="none" stroke="#63b8ff" d="M565.06,-49.38C572.99,-49.38 581.07,-49.38 589.11,-49.38"/>
<polygon fill="#63b8ff" stroke="#63b8ff" points="588.9,-52.88 598.9,-49.38 588.9,-45.88 588.9,-52.88"/>
</a>
</g>
</g>
</g>
</svg>
