<?xml version="1.0" encoding="UTF-8" standalone="no"?>
<!DOCTYPE svg PUBLIC "-//W3C//DTD SVG 1.1//EN"
 "http://www.w3.org/Graphics/SVG/1.1/DTD/svg11.dtd">
<!-- Generated by graphviz version 13.1.2 (20250809.0930)
 -->
<!-- Title: LookupTable::LookupTable Pages: 1 -->
<svg width="287pt" height="86pt"
 viewBox="0.00 0.00 287.00 86.00" xmlns="http://www.w3.org/2000/svg" xmlns:xlink="http://www.w3.org/1999/xlink">
<g id="graph0" class="graph" transform="scale(1 1) rotate(0) translate(4 81.75)">
<title>LookupTable::LookupTable</title>
<!-- Node1 -->
<g id="Node000001" class="node">
<title>Node1</title>
<g id="a_Node000001"><a xlink:title="Construct a LookupTable from a text file.">
<polygon fill="#999999" stroke="#666666" points="142,-48.75 0,-48.75 0,-28 142,-28 142,-48.75"/>
<text xml:space="preserve" text-anchor="middle" x="71" y="-35.25" font-family="Helvetica,sans-Serif" font-size="10.00">LookupTable::LookupTable</text>
</a>
</g>
</g>
<!-- Node2 -->
<g id="Node000002" class="node">
<title>Node2</title>
<g id="a_Node000002"><a xlink:href="group__driver.html#ga3859b179ce92396b3d9187e4437d8826" target="_top" xlink:title="Read a value of type T from a text stream, skipping lines beginning with &#39;#&#39;.">
<polygon fill="white" stroke="#666666" points="278.75,-77.75 178,-77.75 178,-57 278.75,-57 278.75,-77.75"/>
<text xml:space="preserve" text-anchor="middle" x="228.38" y="-64.25" font-family="Helvetica,sans-Serif" font-size="10.00">ReadCommented</text>
</a>
</g>
</g>
<!-- Node1&#45;&gt;Node2 -->
<g id="edge1_Node000001_Node000002" class="edge">
<title>Node1&#45;&gt;Node2</title>
<g id="a_edge1_Node000001_Node000002"><a xlink:title=" ">
<path fill="none" stroke="#63b8ff" d="M129.86,-49.17C141.76,-51.39 154.32,-53.74 166.33,-55.98"/>
<polygon fill="#63b8ff" stroke="#63b8ff" points="165.67,-59.42 176.14,-57.81 166.96,-52.54 165.67,-59.42"/>
</a>
</g>
</g>
<!-- Node3 -->
<g id="Node000003" class="node">
<title>Node3</title>
<g id="a_Node000003"><a xlink:href="Domain_8cpp.html#aafa3e4fa6318b2f8740f4dbd50c367e5" target="_top" xlink:title="Extract the real part of each component of a complex 3&#45;vector.">
<polygon fill="white" stroke="#666666" points="245.75,-20.75 211,-20.75 211,0 245.75,0 245.75,-20.75"/>
<text xml:space="preserve" text-anchor="middle" x="228.38" y="-7.25" font-family="Helvetica,sans-Serif" font-size="10.00">real</text>
</a>
</g>
</g>
<!-- Node1&#45;&gt;Node3 -->
<g id="edge2_Node000001_Node000003" class="edge">
<title>Node1&#45;&gt;Node3</title>
<g id="a_edge2_Node000001_Node000003"><a xlink:title=" ">
<path fill="none" stroke="#63b8ff" d="M132.07,-27.55C155.33,-23.36 180.81,-18.77 199.57,-15.39"/>
<polygon fill="#63b8ff" stroke="#63b8ff" points="200.12,-18.84 209.34,-13.62 198.88,-11.95 200.12,-18.84"/>
</a>
</g>
</g>
<!-- Node3&#45;&gt;Node3 -->
<g id="edge3_Node000003_Node000003" class="edge">
<title>Node3&#45;&gt;Node3</title>
<g id="a_edge3_Node000003_Node000003"><a xlink:title=" ">
<path fill="none" stroke="#63b8ff" d="M210.68,-16.37C190.36,-26.14 196.25,-38.75 228.38,-38.75 253.97,-38.75 262.91,-30.74 255.21,-22.54"/>
<polygon fill="#63b8ff" stroke="#63b8ff" points="257.57,-19.91 247.32,-17.21 253.64,-25.71 257.57,-19.91"/>
</a>
</g>
</g>
</g>
</svg>
