<?xml version="1.0" encoding="UTF-8" standalone="no"?>
<!DOCTYPE svg PUBLIC "-//W3C//DTD SVG 1.1//EN"
 "http://www.w3.org/Graphics/SVG/1.1/DTD/svg11.dtd">
<!-- Generated by graphviz version 13.1.2 (20250809.0930)
 -->
<!-- Title: SingSub::ChangeTriangleRWG Pages: 1 -->
<svg width="381pt" height="171pt"
 viewBox="0.00 0.00 381.00 171.00" xmlns="http://www.w3.org/2000/svg" xmlns:xlink="http://www.w3.org/1999/xlink">
<g id="graph0" class="graph" transform="scale(1 1) rotate(0) translate(4 167.12)">
<title>SingSub::ChangeTriangleRWG</title>
<!-- Node1 -->
<g id="Node000001" class="node">
<title>Node1</title>
<g id="a_Node000001"><a xlink:title="Update only the RWG/triangle; keep the same observation point r.">
<polygon fill="#999999" stroke="#666666" points="372.5,-81.75 212.5,-81.75 212.5,-61 372.5,-61 372.5,-81.75"/>
<text xml:space="preserve" text-anchor="middle" x="292.5" y="-68.25" font-family="Helvetica,sans-Serif" font-size="10.00">SingSub::ChangeTriangleRWG</text>
</a>
</g>
</g>
<!-- Node2 -->
<g id="Node000002" class="node">
<title>Node2</title>
<g id="a_Node000002"><a xlink:href="classGreenFHom3D.html#a48e8471aabb445e0e50a01c005ff3b98" target="_top" xlink:title="Compute &#160;for all RWGs on a source triangle.">
<polygon fill="white" stroke="#666666" points="167.88,-163.12 8.62,-163.12 8.62,-129.62 167.88,-129.62 167.88,-163.12"/>
<text xml:space="preserve" text-anchor="start" x="16.62" y="-149.62" font-family="Helvetica,sans-Serif" font-size="10.00">GreenFHom3D::SameTriDelta</text>
<text xml:space="preserve" text-anchor="middle" x="88.25" y="-136.88" font-family="Helvetica,sans-Serif" font-size="10.00">Kappa</text>
</a>
</g>
</g>
<!-- Node1&#45;&gt;Node2 -->
<g id="edge1_Node000001_Node000002" class="edge">
<title>Node1&#45;&gt;Node2</title>
<g id="a_edge1_Node000001_Node000002"><a xlink:title=" ">
<path fill="none" stroke="#63b8ff" d="M258.01,-86.84C235.27,-97.03 204.39,-110.31 176.5,-120.38 168.03,-123.43 159,-126.42 150.09,-129.21"/>
<polygon fill="#63b8ff" stroke="#63b8ff" points="259.41,-90.04 267.08,-82.73 256.53,-83.66 259.41,-90.04"/>
</a>
</g>
</g>
<!-- Node3 -->
<g id="Node000003" class="node">
<title>Node3</title>
<g id="a_Node000003"><a xlink:href="classGreenFHom3DPer2D.html#a84a8c855a27c895ff24f6771037284a5" target="_top" xlink:title="Compute &#160;for all RWGs on a source triangle.">
<polygon fill="white" stroke="#666666" points="169.38,-111.12 7.12,-111.12 7.12,-77.62 169.38,-77.62 169.38,-111.12"/>
<text xml:space="preserve" text-anchor="start" x="15.12" y="-97.62" font-family="Helvetica,sans-Serif" font-size="10.00">GreenFHom3DPer2D::SameTri</text>
<text xml:space="preserve" text-anchor="middle" x="88.25" y="-84.88" font-family="Helvetica,sans-Serif" font-size="10.00">DeltaKappa</text>
</a>
</g>
</g>
<!-- Node1&#45;&gt;Node3 -->
<g id="edge2_Node000001_Node000003" class="edge">
<title>Node1&#45;&gt;Node3</title>
<g id="a_edge2_Node000001_Node000003"><a xlink:title=" ">
<path fill="none" stroke="#63b8ff" d="M200.93,-81.67C190.52,-82.86 179.97,-84.06 169.7,-85.23"/>
<polygon fill="#63b8ff" stroke="#63b8ff" points="201.1,-85.18 210.64,-80.57 200.31,-78.22 201.1,-85.18"/>
</a>
</g>
</g>
<!-- Node4 -->
<g id="Node000004" class="node">
<title>Node4</title>
<g id="a_Node000004"><a xlink:href="classGreenFHom3D.html#a419cbe00b5a2aed70ac546904a8a8d6f" target="_top" xlink:title="Compute &#160;and &#160;for all RWG pairs on two triangles.">
<polygon fill="white" stroke="#666666" points="161.88,-59.75 14.62,-59.75 14.62,-39 161.88,-39 161.88,-59.75"/>
<text xml:space="preserve" text-anchor="middle" x="88.25" y="-46.25" font-family="Helvetica,sans-Serif" font-size="10.00">GreenFHom3D::SameTriDK</text>
</a>
</g>
</g>
<!-- Node1&#45;&gt;Node4 -->
<g id="edge3_Node000001_Node000004" class="edge">
<title>Node1&#45;&gt;Node4</title>
<g id="a_edge3_Node000001_Node000004"><a xlink:title=" ">
<path fill="none" stroke="#63b8ff" d="M200.84,-61.51C187.87,-60.1 174.68,-58.67 162.11,-57.3"/>
<polygon fill="#63b8ff" stroke="#63b8ff" points="200.32,-64.98 210.64,-62.58 201.08,-58.02 200.32,-64.98"/>
</a>
</g>
</g>
<!-- Node5 -->
<g id="Node000005" class="node">
<title>Node5</title>
<g id="a_Node000005"><a xlink:href="classGreenFHom3DPer2D.html#a1dc9dd84c93ee10b2fb4b1866103d957" target="_top" xlink:title="Compute &#160;and &#160;for all RWG pairs on two triangles.">
<polygon fill="white" stroke="#666666" points="176.5,-20.75 0,-20.75 0,0 176.5,0 176.5,-20.75"/>
<text xml:space="preserve" text-anchor="middle" x="88.25" y="-7.25" font-family="Helvetica,sans-Serif" font-size="10.00">GreenFHom3DPer2D::SameTriDK</text>
</a>
</g>
</g>
<!-- Node1&#45;&gt;Node5 -->
<g id="edge4_Node000001_Node000005" class="edge">
<title>Node1&#45;&gt;Node5</title>
<g id="a_edge4_Node000001_Node000005"><a xlink:title=" ">
<path fill="none" stroke="#63b8ff" d="M253.25,-56.47C231.05,-48.14 202.44,-37.94 176.5,-30.38 165.16,-27.07 152.87,-23.96 141.18,-21.23"/>
<polygon fill="#63b8ff" stroke="#63b8ff" points="251.91,-59.7 262.5,-59.97 254.39,-53.16 251.91,-59.7"/>
</a>
</g>
</g>
</g>
</svg>
