<?xml version="1.0" encoding="UTF-8" standalone="no"?>
<!DOCTYPE svg PUBLIC "-//W3C//DTD SVG 1.1//EN"
 "http://www.w3.org/Graphics/SVG/1.1/DTD/svg11.dtd">
<!-- Generated by graphviz version 13.1.2 (20250809.0930)
 -->
<!-- Title: Triangle::Node Pages: 1 -->
<svg width="911pt" height="1337pt"
 viewBox="0.00 0.00 911.00 1337.00" xmlns="http://www.w3.org/2000/svg" xmlns:xlink="http://www.w3.org/1999/xlink">
<g id="graph0" class="graph" transform="scale(1 1) rotate(0) translate(4 1332.75)">
<title>Triangle::Node</title>
<!-- Node1 -->
<g id="Node000001" class="node">
<title>Node1</title>
<g id="a_Node000001"><a xlink:title="Node position (by value) for local index 0..2.">
<polygon fill="#999999" stroke="#666666" points="902.75,-660.75 817,-660.75 817,-640 902.75,-640 902.75,-660.75"/>
<text xml:space="preserve" text-anchor="middle" x="859.88" y="-647.25" font-family="Helvetica,sans-Serif" font-size="10.00">Triangle::Node</text>
</a>
</g>
</g>
<!-- Node2 -->
<g id="Node000002" class="node">
<title>Node2</title>
<g id="a_Node000002"><a xlink:href="classGreenFLayered3D.html#a1e2aea0bdd06e2c0082b6ae0787a018b" target="_top" xlink:title="Checks whether the given point&#45;triangle pair exceeds a predefined distance threshold.">
<polygon fill="white" stroke="#666666" points="781,-1328.75 592.5,-1328.75 592.5,-1308 781,-1308 781,-1328.75"/>
<text xml:space="preserve" text-anchor="middle" x="686.75" y="-1315.25" font-family="Helvetica,sans-Serif" font-size="10.00">GreenFLayered3D::AboveThreshold</text>
</a>
</g>
</g>
<!-- Node1&#45;&gt;Node2 -->
<g id="edge1_Node000001_Node000002" class="edge">
<title>Node1&#45;&gt;Node2</title>
<g id="a_edge1_Node000001_Node000002"><a xlink:title=" ">
<path fill="none" stroke="#63b8ff" d="M857.72,-672.6C851.88,-781.02 824.2,-1251.02 781,-1298.38 777.65,-1302.04 773.81,-1305.13 769.63,-1307.71"/>
<polygon fill="#63b8ff" stroke="#63b8ff" points="861.21,-672.91 858.24,-662.74 854.22,-672.54 861.21,-672.91"/>
</a>
</g>
</g>
<!-- Node3 -->
<g id="Node000003" class="node">
<title>Node3</title>
<g id="a_Node000003"><a xlink:href="classGreenFLayered3D.html#a41dad600791549400d82f6c44238f373" target="_top" xlink:title="Checks whether the given triangles exceed a predefined threshold.">
<polygon fill="white" stroke="#666666" points="781,-1289.75 592.5,-1289.75 592.5,-1269 781,-1269 781,-1289.75"/>
<text xml:space="preserve" text-anchor="middle" x="686.75" y="-1276.25" font-family="Helvetica,sans-Serif" font-size="10.00">GreenFLayered3D::AboveThreshold</text>
</a>
</g>
</g>
<!-- Node1&#45;&gt;Node3 -->
<g id="edge2_Node000001_Node000003" class="edge">
<title>Node1&#45;&gt;Node3</title>
<g id="a_edge2_Node000001_Node000003"><a xlink:title=" ">
<path fill="none" stroke="#63b8ff" d="M859.32,-672.5C860.82,-771.33 861.77,-1171.51 781,-1259.38 777.64,-1263.03 773.78,-1266.11 769.6,-1268.68"/>
<polygon fill="#63b8ff" stroke="#63b8ff" points="862.82,-672.51 859.14,-662.57 855.82,-672.63 862.82,-672.51"/>
</a>
</g>
</g>
<!-- Node4 -->
<g id="Node000004" class="node">
<title>Node4</title>
<g id="a_Node000004"><a xlink:href="classDomainHom3D.html#ad19635c8b33f69ebf6cb3cd8788f7f23" target="_top" xlink:title="Absorption cross section via surface quadrature.">
<polygon fill="white" stroke="#666666" points="767.5,-1250.75 606,-1250.75 606,-1230 767.5,-1230 767.5,-1250.75"/>
<text xml:space="preserve" text-anchor="middle" x="686.75" y="-1237.25" font-family="Helvetica,sans-Serif" font-size="10.00">DomainHom3D::absorptionCS</text>
</a>
</g>
</g>
<!-- Node1&#45;&gt;Node4 -->
<g id="edge3_Node000001_Node000004" class="edge">
<title>Node1&#45;&gt;Node4</title>
<g id="a_edge3_Node000001_Node000004"><a xlink:title=" ">
<path fill="none" stroke="#63b8ff" d="M859.1,-672.26C859.61,-766.77 856.72,-1138.71 781,-1220.38 777.17,-1224.5 772.72,-1227.89 767.87,-1230.65"/>
<polygon fill="#63b8ff" stroke="#63b8ff" points="862.6,-672.32 859.02,-662.34 855.6,-672.37 862.6,-672.32"/>
</a>
</g>
</g>
<!-- Node5 -->
<g id="Node000005" class="node">
<title>Node5</title>
<g id="a_Node000005"><a xlink:href="classDomainLayered3D.html#a4e5fb098bcc6edc2f594da23e0b64fb3" target="_top" xlink:title="Absorption cross section.">
<polygon fill="white" stroke="#666666" points="775.38,-1211.75 598.12,-1211.75 598.12,-1191 775.38,-1191 775.38,-1211.75"/>
<text xml:space="preserve" text-anchor="middle" x="686.75" y="-1198.25" font-family="Helvetica,sans-Serif" font-size="10.00">DomainLayered3D::absorptionCS</text>
</a>
</g>
</g>
<!-- Node1&#45;&gt;Node5 -->
<g id="edge4_Node000001_Node000005" class="edge">
<title>Node1&#45;&gt;Node5</title>
<g id="a_edge4_Node000001_Node000005"><a xlink:title=" ">
<path fill="none" stroke="#63b8ff" d="M858.86,-672.48C858.32,-763.24 851.56,-1106.02 781,-1181.38 777.6,-1185 773.72,-1188.05 769.52,-1190.61"/>
<polygon fill="#63b8ff" stroke="#63b8ff" points="862.36,-672.5 858.89,-662.49 855.36,-672.48 862.36,-672.5"/>
</a>
</g>
</g>
<!-- Node6 -->
<g id="Node000006" class="node">
<title>Node6</title>
<g id="a_Node000006"><a xlink:href="classBsp3D.html#af9a47ebf1f5e7e871fe73572c8b0678c" target="_top" xlink:title="Add a triangle as a new polygon element.">
<polygon fill="white" stroke="#666666" points="743.12,-1172.75 630.38,-1172.75 630.38,-1152 743.12,-1152 743.12,-1172.75"/>
<text xml:space="preserve" text-anchor="middle" x="686.75" y="-1159.25" font-family="Helvetica,sans-Serif" font-size="10.00">Bsp3D::AddElement</text>
</a>
</g>
</g>
<!-- Node1&#45;&gt;Node6 -->
<g id="edge5_Node000001_Node000006" class="edge">
<title>Node1&#45;&gt;Node6</title>
<g id="a_edge5_Node000001_Node000006"><a xlink:title=" ">
<path fill="none" stroke="#63b8ff" d="M858.46,-672.24C856.4,-757.79 844.59,-1068.53 781,-1138.38 771.21,-1149.13 757.3,-1155.35 743.21,-1158.87"/>
<polygon fill="#63b8ff" stroke="#63b8ff" points="861.96,-672.5 858.68,-662.42 854.96,-672.35 861.96,-672.5"/>
</a>
</g>
</g>
<!-- Node7 -->
<g id="Node000007" class="node">
<title>Node7</title>
<g id="a_Node000007"><a xlink:href="classTriangle.html#ae13d69e28fb7a81ab8257fe0af84ceaa" target="_top" xlink:title="Compute/cached geometry (normal, area, perimeter, center, I1/I2s/I2d).">
<polygon fill="white" stroke="#666666" points="775.75,-980.75 597.75,-980.75 597.75,-960 775.75,-960 775.75,-980.75"/>
<text xml:space="preserve" text-anchor="middle" x="686.75" y="-967.25" font-family="Helvetica,sans-Serif" font-size="10.00">Triangle::CalculateGeometryData</text>
</a>
</g>
</g>
<!-- Node1&#45;&gt;Node7 -->
<g id="edge6_Node000001_Node000007" class="edge">
<title>Node1&#45;&gt;Node7</title>
<g id="a_edge6_Node000001_Node000007"><a xlink:title=" ">
<path fill="none" stroke="#63b8ff" d="M857.75,-672.59C854.2,-721.49 839.71,-840.02 781,-915.38 764.83,-936.13 738.46,-950.64 717.88,-959.52"/>
<polygon fill="#63b8ff" stroke="#63b8ff" points="861.23,-672.95 858.36,-662.75 854.24,-672.51 861.23,-672.95"/>
</a>
</g>
</g>
<!-- Node13 -->
<g id="Node000013" class="node">
<title>Node13</title>
<g id="a_Node000013"><a xlink:href="classGreenFHom3D.html#a419cbe00b5a2aed70ac546904a8a8d6f" target="_top" xlink:title="Compute &#160;and &#160;for all RWG pairs on two triangles.">
<polygon fill="white" stroke="#666666" points="161.88,-1124.75 14.62,-1124.75 14.62,-1104 161.88,-1104 161.88,-1124.75"/>
<text xml:space="preserve" text-anchor="middle" x="88.25" y="-1111.25" font-family="Helvetica,sans-Serif" font-size="10.00">GreenFHom3D::SameTriDK</text>
</a>
</g>
</g>
<!-- Node1&#45;&gt;Node13 -->
<g id="edge36_Node000001_Node000013" class="edge">
<title>Node1&#45;&gt;Node13</title>
<g id="a_edge36_Node000001_Node000013"><a xlink:title=" ">
<path fill="none" stroke="#63b8ff" d="M857.75,-672.52C853.39,-749.26 835.1,-1002.12 781,-1058.38 697.48,-1145.22 322.25,-1130.55 162.08,-1119.98"/>
<polygon fill="#63b8ff" stroke="#63b8ff" points="861.24,-672.73 858.29,-662.56 854.25,-672.35 861.24,-672.73"/>
</a>
</g>
</g>
<!-- Node14 -->
<g id="Node000014" class="node">
<title>Node14</title>
<g id="a_Node000014"><a xlink:href="classGreenFHom3DPer2D.html#a1dc9dd84c93ee10b2fb4b1866103d957" target="_top" xlink:title="Compute &#160;and &#160;for all RWG pairs on two triangles.">
<polygon fill="white" stroke="#666666" points="176.5,-1067.75 0,-1067.75 0,-1047 176.5,-1047 176.5,-1067.75"/>
<text xml:space="preserve" text-anchor="middle" x="88.25" y="-1054.25" font-family="Helvetica,sans-Serif" font-size="10.00">GreenFHom3DPer2D::SameTriDK</text>
</a>
</g>
</g>
<!-- Node1&#45;&gt;Node14 -->
<g id="edge37_Node000001_Node000014" class="edge">
<title>Node1&#45;&gt;Node14</title>
<g id="a_edge37_Node000001_Node000014"><a xlink:title=" ">
<path fill="none" stroke="#63b8ff" d="M856.59,-672.45C849.17,-739.91 823.8,-941.65 781,-989.38 610.72,-1179.23 467.32,-1077.7 212.5,-1067.38 200.92,-1066.91 188.74,-1066.19 176.73,-1065.35"/>
<polygon fill="#63b8ff" stroke="#63b8ff" points="860.05,-672.98 857.63,-662.66 853.09,-672.23 860.05,-672.98"/>
</a>
</g>
</g>
<!-- Node15 -->
<g id="Node000015" class="node">
<title>Node15</title>
<g id="a_Node000015"><a xlink:href="classGreenFLayered3D.html#a6c88af86169f8d148c3e9f4da77a77d0" target="_top" xlink:title="Triangle–triangle D/K blocks assembly for all RWG pairs on two triangles.">
<polygon fill="white" stroke="#666666" points="169.75,-951.75 6.75,-951.75 6.75,-931 169.75,-931 169.75,-951.75"/>
<text xml:space="preserve" text-anchor="middle" x="88.25" y="-938.25" font-family="Helvetica,sans-Serif" font-size="10.00">GreenFLayered3D::SameTriDK</text>
</a>
</g>
</g>
<!-- Node1&#45;&gt;Node15 -->
<g id="edge38_Node000001_Node000015" class="edge">
<title>Node1&#45;&gt;Node15</title>
<g id="a_edge38_Node000001_Node000015"><a xlink:title=" ">
<path fill="none" stroke="#63b8ff" d="M856.81,-672.36C851.78,-712.31 835,-796.29 781,-835.38 678.33,-909.69 334.76,-847.95 212.5,-881.38 172.1,-892.42 128.99,-916.64 106,-930.7"/>
<polygon fill="#63b8ff" stroke="#63b8ff" points="860.28,-672.88 857.9,-662.56 853.32,-672.11 860.28,-672.88"/>
</a>
</g>
</g>
<!-- Node16 -->
<g id="Node000016" class="node">
<title>Node16</title>
<g id="a_Node000016"><a xlink:href="classTriangle.html#a110eb211c31cc4fa6a936d8d4c201306" target="_top" xlink:title="Count common nodes with T after translating T by vector t.">
<polygon fill="white" stroke="#666666" points="356,-910.75 225.25,-910.75 225.25,-890 356,-890 356,-910.75"/>
<text xml:space="preserve" text-anchor="middle" x="290.62" y="-897.25" font-family="Helvetica,sans-Serif" font-size="10.00">Triangle::FindAdjacency</text>
</a>
</g>
</g>
<!-- Node1&#45;&gt;Node16 -->
<g id="edge22_Node000001_Node000016" class="edge">
<title>Node1&#45;&gt;Node16</title>
<g id="a_edge22_Node000001_Node000016"><a xlink:title=" ">
<path fill="none" stroke="#63b8ff" d="M858.85,-672.5C857.48,-719.27 846.95,-827.89 781,-877.38 747.83,-902.26 481.25,-902.58 356.09,-901.32"/>
<polygon fill="#63b8ff" stroke="#63b8ff" points="862.35,-672.62 859.01,-662.57 855.35,-672.51 862.35,-672.62"/>
</a>
</g>
</g>
<!-- Node19 -->
<g id="Node000019" class="node">
<title>Node19</title>
<g id="a_Node000019"><a xlink:href="classTriangle.html#aad716a04591b5c9af864d6c2a89d3a65" target="_top" xlink:title="Test whether a point lies on (or very near) the triangle.">
<polygon fill="white" stroke="#666666" points="749.88,-797.75 623.62,-797.75 623.62,-777 749.88,-777 749.88,-797.75"/>
<text xml:space="preserve" text-anchor="middle" x="686.75" y="-784.25" font-family="Helvetica,sans-Serif" font-size="10.00">Triangle::containsPoint</text>
</a>
</g>
</g>
<!-- Node1&#45;&gt;Node19 -->
<g id="edge18_Node000001_Node000019" class="edge">
<title>Node1&#45;&gt;Node19</title>
<g id="a_edge18_Node000001_Node000019"><a xlink:title=" ">
<path fill="none" stroke="#63b8ff" d="M850.7,-671.65C839.29,-698.37 815.97,-743.58 781,-767.38 771.83,-773.62 761.07,-777.96 750.18,-780.97"/>
<polygon fill="#63b8ff" stroke="#63b8ff" points="853.88,-673.11 854.41,-662.53 847.4,-670.47 853.88,-673.11"/>
</a>
</g>
</g>
<!-- Node20 -->
<g id="Node000020" class="node">
<title>Node20</title>
<g id="a_Node000020"><a xlink:href="classGreenFLayered3D.html#af46d152fbc30bdc418ff16e5e7a334c6" target="_top" xlink:title="Point–triangle delta/kappa contributions for RHS assembly.">
<polygon fill="white" stroke="#666666" points="555,-819.12 406.25,-819.12 406.25,-785.62 555,-785.62 555,-819.12"/>
<text xml:space="preserve" text-anchor="start" x="414.25" y="-805.62" font-family="Helvetica,sans-Serif" font-size="10.00">GreenFLayered3D::SameTri</text>
<text xml:space="preserve" text-anchor="middle" x="480.62" y="-792.88" font-family="Helvetica,sans-Serif" font-size="10.00">DeltaKappa</text>
</a>
</g>
</g>
<!-- Node1&#45;&gt;Node20 -->
<g id="edge35_Node000001_Node000020" class="edge">
<title>Node1&#45;&gt;Node20</title>
<g id="a_edge35_Node000001_Node000020"><a xlink:title=" ">
<path fill="none" stroke="#63b8ff" d="M855.44,-671.8C848.5,-707.12 829.13,-776.61 781,-806.38 706.51,-852.45 600.38,-836.14 536.53,-819.6"/>
<polygon fill="#63b8ff" stroke="#63b8ff" points="858.82,-672.8 857.14,-662.34 851.93,-671.57 858.82,-672.8"/>
</a>
</g>
</g>
<!-- Node21 -->
<g id="Node000021" class="node">
<title>Node21</title>
<g id="a_Node000021"><a xlink:href="classDomainHom3D.html#aa6a76dafe56204c15b80e491e6a2b21d" target="_top" xlink:title="Extinction cross section via surface quadrature.">
<polygon fill="white" stroke="#666666" points="766,-758.75 607.5,-758.75 607.5,-738 766,-738 766,-758.75"/>
<text xml:space="preserve" text-anchor="middle" x="686.75" y="-745.25" font-family="Helvetica,sans-Serif" font-size="10.00">DomainHom3D::extinctionCS</text>
</a>
</g>
</g>
<!-- Node1&#45;&gt;Node21 -->
<g id="edge20_Node000001_Node000021" class="edge">
<title>Node1&#45;&gt;Node21</title>
<g id="a_edge20_Node000001_Node000021"><a xlink:title=" ">
<path fill="none" stroke="#63b8ff" d="M844.54,-670.21C830.43,-688.22 807.23,-714.09 781,-728.38 774.17,-732.1 766.7,-735.13 759.06,-737.59"/>
<polygon fill="#63b8ff" stroke="#63b8ff" points="847.25,-672.43 850.49,-662.35 841.66,-668.21 847.25,-672.43"/>
</a>
</g>
</g>
<!-- Node22 -->
<g id="Node000022" class="node">
<title>Node22</title>
<g id="a_Node000022"><a xlink:href="classDomainLayered3D.html#a847bdddcbf4257a73cfcd2766c882f8b" target="_top" xlink:title="Extinction cross section.">
<polygon fill="white" stroke="#666666" points="773.88,-719.75 599.62,-719.75 599.62,-699 773.88,-699 773.88,-719.75"/>
<text xml:space="preserve" text-anchor="middle" x="686.75" y="-706.25" font-family="Helvetica,sans-Serif" font-size="10.00">DomainLayered3D::extinctionCS</text>
</a>
</g>
</g>
<!-- Node1&#45;&gt;Node22 -->
<g id="edge21_Node000001_Node000022" class="edge">
<title>Node1&#45;&gt;Node22</title>
<g id="a_edge21_Node000001_Node000022"><a xlink:title=" ">
<path fill="none" stroke="#63b8ff" d="M830.75,-666.63C816.27,-674.43 798.1,-683.37 781,-689.38 770.85,-692.94 759.84,-695.99 749.06,-698.54"/>
<polygon fill="#63b8ff" stroke="#63b8ff" points="832.19,-669.83 839.25,-661.94 828.8,-663.71 832.19,-669.83"/>
</a>
</g>
</g>
<!-- Node23 -->
<g id="Node000023" class="node">
<title>Node23</title>
<g id="a_Node000023"><a xlink:href="classGaussQuad.html#ae1cb48d95d2fad8c46a0a4d44b1216d9" target="_top" xlink:title="Integrate on triangle E_inc using centroid evaluation.">
<polygon fill="white" stroke="#666666" points="747.62,-680.75 625.88,-680.75 625.88,-660 747.62,-660 747.62,-680.75"/>
<text xml:space="preserve" text-anchor="middle" x="686.75" y="-667.25" font-family="Helvetica,sans-Serif" font-size="10.00">GaussQuad::Integrate</text>
</a>
</g>
</g>
<!-- Node1&#45;&gt;Node23 -->
<g id="edge23_Node000001_Node000023" class="edge">
<title>Node1&#45;&gt;Node23</title>
<g id="a_edge23_Node000001_Node000023"><a xlink:title=" ">
<path fill="none" stroke="#63b8ff" d="M805.28,-656.64C787.09,-658.77 766.64,-661.15 747.97,-663.34"/>
<polygon fill="#63b8ff" stroke="#63b8ff" points="805.55,-660.13 815.07,-655.49 804.73,-653.18 805.55,-660.13"/>
</a>
</g>
</g>
<!-- Node24 -->
<g id="Node000024" class="node">
<title>Node24</title>
<g id="a_Node000024"><a xlink:href="classGaussQuad.html#ac053945db0c37c26ac30f3e468550b6e" target="_top" xlink:title="Integrate on triangle &#160;with Dunavant quadrature.">
<polygon fill="white" stroke="#666666" points="747.62,-641.75 625.88,-641.75 625.88,-621 747.62,-621 747.62,-641.75"/>
<text xml:space="preserve" text-anchor="middle" x="686.75" y="-628.25" font-family="Helvetica,sans-Serif" font-size="10.00">GaussQuad::Integrate</text>
</a>
</g>
</g>
<!-- Node1&#45;&gt;Node24 -->
<g id="edge24_Node000001_Node000024" class="edge">
<title>Node1&#45;&gt;Node24</title>
<g id="a_edge24_Node000001_Node000024"><a xlink:title=" ">
<path fill="none" stroke="#63b8ff" d="M805.28,-644.42C787.09,-642.4 766.64,-640.13 747.97,-638.06"/>
<polygon fill="#63b8ff" stroke="#63b8ff" points="804.74,-647.89 815.07,-645.51 805.52,-640.93 804.74,-647.89"/>
</a>
</g>
</g>
<!-- Node25 -->
<g id="Node000025" class="node">
<title>Node25</title>
<g id="a_Node000025"><a xlink:href="classGreenFHom3D.html#aca136b03c44ad1da34acf91eb5a5e390" target="_top" xlink:title="term at an observation point.">
<polygon fill="white" stroke="#666666" points="769,-602.75 604.5,-602.75 604.5,-582 769,-582 769,-602.75"/>
<text xml:space="preserve" text-anchor="middle" x="686.75" y="-589.25" font-family="Helvetica,sans-Serif" font-size="10.00">GreenFHom3D::IntegrateDelta</text>
</a>
</g>
</g>
<!-- Node1&#45;&gt;Node25 -->
<g id="edge25_Node000001_Node000025" class="edge">
<title>Node1&#45;&gt;Node25</title>
<g id="a_edge25_Node000001_Node000025"><a xlink:title=" ">
<path fill="none" stroke="#63b8ff" d="M830.12,-634.26C815.72,-626.74 797.82,-618.19 781,-612.38 770.67,-608.81 759.47,-605.75 748.53,-603.18"/>
<polygon fill="#63b8ff" stroke="#63b8ff" points="828.11,-637.16 838.58,-638.79 831.41,-630.98 828.11,-637.16"/>
</a>
</g>
</g>
<!-- Node26 -->
<g id="Node000026" class="node">
<title>Node26</title>
<g id="a_Node000026"><a xlink:href="classGreenFHom3DPer2D.html#a233c2185952220bd16acae2142f05cc1" target="_top" xlink:title="term at an observation point.">
<polygon fill="white" stroke="#666666" points="770.5,-564.12 603,-564.12 603,-530.62 770.5,-530.62 770.5,-564.12"/>
<text xml:space="preserve" text-anchor="start" x="611" y="-550.62" font-family="Helvetica,sans-Serif" font-size="10.00">GreenFHom3DPer2D::Integrate</text>
<text xml:space="preserve" text-anchor="middle" x="686.75" y="-537.88" font-family="Helvetica,sans-Serif" font-size="10.00">Delta</text>
</a>
</g>
</g>
<!-- Node1&#45;&gt;Node26 -->
<g id="edge26_Node000001_Node000026" class="edge">
<title>Node1&#45;&gt;Node26</title>
<g id="a_edge26_Node000001_Node000026"><a xlink:title=" ">
<path fill="none" stroke="#63b8ff" d="M844.05,-630.87C829.74,-613.36 806.53,-588.19 781,-573.38 775.19,-570 768.91,-567.05 762.46,-564.46"/>
<polygon fill="#63b8ff" stroke="#63b8ff" points="841.15,-632.84 850.1,-638.51 846.63,-628.5 841.15,-632.84"/>
</a>
</g>
</g>
<!-- Node27 -->
<g id="Node000027" class="node">
<title>Node27</title>
<g id="a_Node000027"><a xlink:href="classGreenFLayered3D.html#afbdbfdc8fc40fc885f6377d5be242d36" target="_top" xlink:title="term at an observation point.">
<polygon fill="white" stroke="#666666" points="763.75,-512.12 609.75,-512.12 609.75,-478.62 763.75,-478.62 763.75,-512.12"/>
<text xml:space="preserve" text-anchor="start" x="617.75" y="-498.62" font-family="Helvetica,sans-Serif" font-size="10.00">GreenFLayered3D::Integrate</text>
<text xml:space="preserve" text-anchor="middle" x="686.75" y="-485.88" font-family="Helvetica,sans-Serif" font-size="10.00">Delta</text>
</a>
</g>
</g>
<!-- Node1&#45;&gt;Node27 -->
<g id="edge27_Node000001_Node000027" class="edge">
<title>Node1&#45;&gt;Node27</title>
<g id="a_edge27_Node000001_Node000027"><a xlink:title=" ">
<path fill="none" stroke="#63b8ff" d="M851.83,-629.37C841.12,-600.64 817.98,-549.48 781,-521.38 775.78,-517.41 769.99,-514.05 763.92,-511.2"/>
<polygon fill="#63b8ff" stroke="#63b8ff" points="848.4,-630.17 855.05,-638.42 855,-627.82 848.4,-630.17"/>
</a>
</g>
</g>
<!-- Node28 -->
<g id="Node000028" class="node">
<title>Node28</title>
<g id="a_Node000028"><a xlink:href="classGreenFHom3D.html#a9cece8a4056d65455cfcc94c8c61decd" target="_top" xlink:title="term at an observation point.">
<polygon fill="white" stroke="#666666" points="771.25,-460.75 602.25,-460.75 602.25,-440 771.25,-440 771.25,-460.75"/>
<text xml:space="preserve" text-anchor="middle" x="686.75" y="-447.25" font-family="Helvetica,sans-Serif" font-size="10.00">GreenFHom3D::IntegrateKappa</text>
</a>
</g>
</g>
<!-- Node1&#45;&gt;Node28 -->
<g id="edge28_Node000001_Node000028" class="edge">
<title>Node1&#45;&gt;Node28</title>
<g id="a_edge28_Node000001_Node000028"><a xlink:title=" ">
<path fill="none" stroke="#63b8ff" d="M856.03,-628.4C849.81,-589.86 831.31,-510.29 781,-469.38 777.03,-466.14 772.65,-463.42 768.02,-461.12"/>
<polygon fill="#63b8ff" stroke="#63b8ff" points="852.56,-628.9 857.47,-638.29 859.49,-627.89 852.56,-628.9"/>
</a>
</g>
</g>
<!-- Node29 -->
<g id="Node000029" class="node">
<title>Node29</title>
<g id="a_Node000029"><a xlink:href="classGreenFHom3DPer2D.html#aadb534ef4509422e6f3e78a0e3999758" target="_top" xlink:title="term at an observation point.">
<polygon fill="white" stroke="#666666" points="770.5,-422.12 603,-422.12 603,-388.62 770.5,-388.62 770.5,-422.12"/>
<text xml:space="preserve" text-anchor="start" x="611" y="-408.62" font-family="Helvetica,sans-Serif" font-size="10.00">GreenFHom3DPer2D::Integrate</text>
<text xml:space="preserve" text-anchor="middle" x="686.75" y="-395.88" font-family="Helvetica,sans-Serif" font-size="10.00">Kappa</text>
</a>
</g>
</g>
<!-- Node1&#45;&gt;Node29 -->
<g id="edge29_Node000001_Node000029" class="edge">
<title>Node1&#45;&gt;Node29</title>
<g id="a_edge29_Node000001_Node000029"><a xlink:title=" ">
<path fill="none" stroke="#63b8ff" d="M857.56,-628.6C853.71,-584.71 838.75,-485.23 781,-431.38 777.44,-428.05 773.48,-425.15 769.27,-422.61"/>
<polygon fill="#63b8ff" stroke="#63b8ff" points="854.05,-628.66 858.29,-638.37 861.03,-628.13 854.05,-628.66"/>
</a>
</g>
</g>
<!-- Node30 -->
<g id="Node000030" class="node">
<title>Node30</title>
<g id="a_Node000030"><a xlink:href="classGreenFLayered3D.html#a439eddb43f46fb52f6c84898ea12aa40" target="_top" xlink:title="term at an observation point.">
<polygon fill="white" stroke="#666666" points="763.75,-370.12 609.75,-370.12 609.75,-336.62 763.75,-336.62 763.75,-370.12"/>
<text xml:space="preserve" text-anchor="start" x="617.75" y="-356.62" font-family="Helvetica,sans-Serif" font-size="10.00">GreenFLayered3D::Integrate</text>
<text xml:space="preserve" text-anchor="middle" x="686.75" y="-343.88" font-family="Helvetica,sans-Serif" font-size="10.00">Kappa</text>
</a>
</g>
</g>
<!-- Node1&#45;&gt;Node30 -->
<g id="edge30_Node000001_Node000030" class="edge">
<title>Node1&#45;&gt;Node30</title>
<g id="a_edge30_Node000001_Node000030"><a xlink:title=" ">
<path fill="none" stroke="#63b8ff" d="M859.31,-628.5C859.09,-577.35 851.16,-448.98 781,-379.38 776.11,-374.52 770.39,-370.56 764.24,-367.32"/>
<polygon fill="#63b8ff" stroke="#63b8ff" points="855.81,-628.22 859.24,-638.25 862.81,-628.27 855.81,-628.22"/>
</a>
</g>
</g>
<!-- Node31 -->
<g id="Node000031" class="node">
<title>Node31</title>
<g id="a_Node000031"><a xlink:href="classDomain.html#aab504e2e699c789b209cf0e288b8a389" target="_top" xlink:title="Debug: print all edges and the RWGs that live on them.">
<polygon fill="white" stroke="#666666" points="749.12,-318.75 624.38,-318.75 624.38,-298 749.12,-298 749.12,-318.75"/>
<text xml:space="preserve" text-anchor="middle" x="686.75" y="-305.25" font-family="Helvetica,sans-Serif" font-size="10.00">Domain::PrintAllEdges</text>
</a>
</g>
</g>
<!-- Node1&#45;&gt;Node31 -->
<g id="edge31_Node000001_Node000031" class="edge">
<title>Node1&#45;&gt;Node31</title>
<g id="a_edge31_Node000001_Node000031"><a xlink:title=" ">
<path fill="none" stroke="#63b8ff" d="M856.6,-628.24C849.39,-562.4 824.87,-369.72 781,-327.38 772.32,-319 761.01,-313.86 749.27,-310.78"/>
<polygon fill="#63b8ff" stroke="#63b8ff" points="853.12,-628.56 857.66,-638.13 860.08,-627.82 853.12,-628.56"/>
</a>
</g>
</g>
<!-- Node32 -->
<g id="Node000032" class="node">
<title>Node32</title>
<g id="a_Node000032"><a xlink:href="classDomain.html#a3eaedce45621dee107b082aca51d80ea" target="_top" xlink:title="Debug: print triangle centroids and RWG evaluations at centroids.">
<polygon fill="white" stroke="#666666" points="769.75,-279.75 603.75,-279.75 603.75,-259 769.75,-259 769.75,-279.75"/>
<text xml:space="preserve" text-anchor="middle" x="686.75" y="-266.25" font-family="Helvetica,sans-Serif" font-size="10.00">Domain::PrintAllRWGCentroids</text>
</a>
</g>
</g>
<!-- Node1&#45;&gt;Node32 -->
<g id="edge32_Node000001_Node000032" class="edge">
<title>Node1&#45;&gt;Node32</title>
<g id="a_edge32_Node000001_Node000032"><a xlink:title=" ">
<path fill="none" stroke="#63b8ff" d="M857.21,-628.47C851.37,-557.84 829.57,-337.89 781,-289.38 777.37,-285.75 773.25,-282.71 768.81,-280.16"/>
<polygon fill="#63b8ff" stroke="#63b8ff" points="853.68,-628.31 857.97,-638 860.66,-627.75 853.68,-628.31"/>
</a>
</g>
</g>
<!-- Node33 -->
<g id="Node000033" class="node">
<title>Node33</title>
<g id="a_Node000033"><a xlink:href="classGreenFHom3D.html#a48e8471aabb445e0e50a01c005ff3b98" target="_top" xlink:title="Compute &#160;for all RWGs on a source triangle.">
<polygon fill="white" stroke="#666666" points="766.38,-241.12 607.12,-241.12 607.12,-207.62 766.38,-207.62 766.38,-241.12"/>
<text xml:space="preserve" text-anchor="start" x="615.12" y="-227.62" font-family="Helvetica,sans-Serif" font-size="10.00">GreenFHom3D::SameTriDelta</text>
<text xml:space="preserve" text-anchor="middle" x="686.75" y="-214.88" font-family="Helvetica,sans-Serif" font-size="10.00">Kappa</text>
</a>
</g>
</g>
<!-- Node1&#45;&gt;Node33 -->
<g id="edge33_Node000001_Node000033" class="edge">
<title>Node1&#45;&gt;Node33</title>
<g id="a_edge33_Node000001_Node000033"><a xlink:title=" ">
<path fill="none" stroke="#63b8ff" d="M857.56,-628.25C852.64,-552.69 832.84,-306.51 781,-250.38 776.78,-245.81 771.83,-242.02 766.46,-238.87"/>
<polygon fill="#63b8ff" stroke="#63b8ff" points="854.06,-628.3 858.18,-638.06 861.05,-627.87 854.06,-628.3"/>
</a>
</g>
</g>
<!-- Node34 -->
<g id="Node000034" class="node">
<title>Node34</title>
<g id="a_Node000034"><a xlink:href="classGreenFHom3DPer2D.html#a84a8c855a27c895ff24f6771037284a5" target="_top" xlink:title="Compute &#160;for all RWGs on a source triangle.">
<polygon fill="white" stroke="#666666" points="767.88,-189.12 605.62,-189.12 605.62,-155.62 767.88,-155.62 767.88,-189.12"/>
<text xml:space="preserve" text-anchor="start" x="613.62" y="-175.62" font-family="Helvetica,sans-Serif" font-size="10.00">GreenFHom3DPer2D::SameTri</text>
<text xml:space="preserve" text-anchor="middle" x="686.75" y="-162.88" font-family="Helvetica,sans-Serif" font-size="10.00">DeltaKappa</text>
</a>
</g>
</g>
<!-- Node1&#45;&gt;Node34 -->
<g id="edge34_Node000001_Node000034" class="edge">
<title>Node1&#45;&gt;Node34</title>
<g id="a_edge34_Node000001_Node000034"><a xlink:title=" ">
<path fill="none" stroke="#63b8ff" d="M858.11,-628.35C854.83,-546.74 839.34,-262.95 781,-198.38 777.28,-194.26 772.97,-190.77 768.29,-187.82"/>
<polygon fill="#63b8ff" stroke="#63b8ff" points="854.61,-628.47 858.49,-638.33 861.61,-628.2 854.61,-628.47"/>
</a>
</g>
</g>
<!-- Node35 -->
<g id="Node000035" class="node">
<title>Node35</title>
<g id="a_Node000035"><a xlink:href="classGreenFHom3D.html#aee15ec1616a294e10b554f1afbb97845" target="_top" xlink:title="Same as SameTriDK plus gradients (if provided by the GF).">
<polygon fill="white" stroke="#666666" points="764.12,-137.75 609.38,-137.75 609.38,-117 764.12,-117 764.12,-137.75"/>
<text xml:space="preserve" text-anchor="middle" x="686.75" y="-124.25" font-family="Helvetica,sans-Serif" font-size="10.00">GreenFHom3D::SameTriDKG</text>
</a>
</g>
</g>
<!-- Node1&#45;&gt;Node35 -->
<g id="edge39_Node000001_Node000035" class="edge">
<title>Node1&#45;&gt;Node35</title>
<g id="a_edge39_Node000001_Node000035"><a xlink:title=" ">
<path fill="none" stroke="#63b8ff" d="M858.69,-628.54C857.49,-541.05 848.48,-217.15 781,-146.38 776.21,-141.35 770.48,-137.47 764.26,-134.48"/>
<polygon fill="#63b8ff" stroke="#63b8ff" points="855.19,-628.4 858.8,-638.36 862.19,-628.32 855.19,-628.4"/>
</a>
</g>
</g>
<!-- Node36 -->
<g id="Node000036" class="node">
<title>Node36</title>
<g id="a_Node000036"><a xlink:href="classGreenFLayered3D.html#a52cce9be0f67bd1b5aa9b2cdb01e4164" target="_top" xlink:title="Same as SameTriDK and additionally accumulates gradients.">
<polygon fill="white" stroke="#666666" points="772,-98.75 601.5,-98.75 601.5,-78 772,-78 772,-98.75"/>
<text xml:space="preserve" text-anchor="middle" x="686.75" y="-85.25" font-family="Helvetica,sans-Serif" font-size="10.00">GreenFLayered3D::SameTriDKG</text>
</a>
</g>
</g>
<!-- Node1&#45;&gt;Node36 -->
<g id="edge40_Node000001_Node000036" class="edge">
<title>Node1&#45;&gt;Node36</title>
<g id="a_edge40_Node000001_Node000036"><a xlink:title=" ">
<path fill="none" stroke="#63b8ff" d="M858.93,-628.1C858.68,-535.91 852.96,-185.44 781,-108.38 777.61,-104.74 773.73,-101.69 769.53,-99.13"/>
<polygon fill="#63b8ff" stroke="#63b8ff" points="855.43,-628.04 858.93,-638.04 862.43,-628.04 855.43,-628.04"/>
</a>
</g>
</g>
<!-- Node37 -->
<g id="Node000037" class="node">
<title>Node37</title>
<g id="a_Node000037"><a xlink:href="classDomainHom3D.html#af51c0166dbce1642b143f7bf910b7c12" target="_top" xlink:title="Scattering cross section via surface quadrature.">
<polygon fill="white" stroke="#666666" points="766,-59.75 607.5,-59.75 607.5,-39 766,-39 766,-59.75"/>
<text xml:space="preserve" text-anchor="middle" x="686.75" y="-46.25" font-family="Helvetica,sans-Serif" font-size="10.00">DomainHom3D::scatteringCS</text>
</a>
</g>
</g>
<!-- Node1&#45;&gt;Node37 -->
<g id="edge41_Node000001_Node000037" class="edge">
<title>Node1&#45;&gt;Node37</title>
<g id="a_edge41_Node000001_Node000037"><a xlink:title=" ">
<path fill="none" stroke="#63b8ff" d="M859.16,-628.36C859.96,-532.53 858.13,-152.77 781,-69.38 776.73,-64.76 771.67,-61.07 766.15,-58.13"/>
<polygon fill="#63b8ff" stroke="#63b8ff" points="855.67,-628.17 859.06,-638.21 862.67,-628.24 855.67,-628.17"/>
</a>
</g>
</g>
<!-- Node38 -->
<g id="Node000038" class="node">
<title>Node38</title>
<g id="a_Node000038"><a xlink:href="classDomainLayered3D.html#a267135f0a2f5bfff12f7ac3b25429176" target="_top" xlink:title="Scattering cross section.">
<polygon fill="white" stroke="#666666" points="773.88,-20.75 599.62,-20.75 599.62,0 773.88,0 773.88,-20.75"/>
<text xml:space="preserve" text-anchor="middle" x="686.75" y="-7.25" font-family="Helvetica,sans-Serif" font-size="10.00">DomainLayered3D::scatteringCS</text>
</a>
</g>
</g>
<!-- Node1&#45;&gt;Node38 -->
<g id="edge42_Node000001_Node000038" class="edge">
<title>Node1&#45;&gt;Node38</title>
<g id="a_edge42_Node000001_Node000038"><a xlink:title=" ">
<path fill="none" stroke="#63b8ff" d="M857.63,-628.79C851.42,-524.44 822.44,-75.56 781,-30.38 777.64,-26.71 773.79,-23.64 769.61,-21.06"/>
<polygon fill="#63b8ff" stroke="#63b8ff" points="854.12,-628.7 858.2,-638.48 861.11,-628.29 854.12,-628.7"/>
</a>
</g>
</g>
<!-- Node8 -->
<g id="Node000008" class="node">
<title>Node8</title>
<g id="a_Node000008"><a xlink:href="classTriangle.html#a6d275a4d9441732ebcd00c514ff4bb2f" target="_top" xlink:title="Replace the three node pointers and recompute cached geometry.">
<polygon fill="white" stroke="#666666" points="542.25,-1019.75 419,-1019.75 419,-999 542.25,-999 542.25,-1019.75"/>
<text xml:space="preserve" text-anchor="middle" x="480.62" y="-1006.25" font-family="Helvetica,sans-Serif" font-size="10.00">Triangle::AssignNodes</text>
</a>
</g>
</g>
<!-- Node7&#45;&gt;Node8 -->
<g id="edge7_Node000007_Node000008" class="edge">
<title>Node7&#45;&gt;Node8</title>
<g id="a_edge7_Node000007_Node000008"><a xlink:title=" ">
<path fill="none" stroke="#63b8ff" d="M617.72,-983.37C592.04,-988.28 563.1,-993.81 538.53,-998.5"/>
<polygon fill="#63b8ff" stroke="#63b8ff" points="618.24,-986.84 627.4,-981.52 616.92,-979.96 618.24,-986.84"/>
</a>
</g>
</g>
<!-- Node9 -->
<g id="Node000009" class="node">
<title>Node9</title>
<g id="a_Node000009"><a xlink:href="classTriangle.html#aa59e8d6a6ca3db504228bff7913812bb" target="_top" xlink:title="Set front/back domain indices; recomputes cached geometry.">
<polygon fill="white" stroke="#666666" points="556.5,-980.75 404.75,-980.75 404.75,-960 556.5,-960 556.5,-980.75"/>
<text xml:space="preserve" text-anchor="middle" x="480.62" y="-967.25" font-family="Helvetica,sans-Serif" font-size="10.00">Triangle::SetDomainIndeces</text>
</a>
</g>
</g>
<!-- Node7&#45;&gt;Node9 -->
<g id="edge8_Node000007_Node000009" class="edge">
<title>Node7&#45;&gt;Node9</title>
<g id="a_edge8_Node000007_Node000009"><a xlink:title=" ">
<path fill="none" stroke="#63b8ff" d="M585.99,-970.38C576.23,-970.38 566.44,-970.38 556.99,-970.38"/>
<polygon fill="#63b8ff" stroke="#63b8ff" points="585.89,-973.88 595.89,-970.38 585.89,-966.88 585.89,-973.88"/>
</a>
</g>
</g>
<!-- Node10 -->
<g id="Node000010" class="node">
<title>Node10</title>
<g id="a_Node000010"><a xlink:href="classTriangle.html#afaab90bcc5fa1fcf60db1e924b8cc856" target="_top" xlink:title="Construct from 3 node pointers; domains can be set later.">
<polygon fill="white" stroke="#666666" points="529.88,-941.75 431.38,-941.75 431.38,-921 529.88,-921 529.88,-941.75"/>
<text xml:space="preserve" text-anchor="middle" x="480.62" y="-928.25" font-family="Helvetica,sans-Serif" font-size="10.00">Triangle::Triangle</text>
</a>
</g>
</g>
<!-- Node7&#45;&gt;Node10 -->
<g id="edge9_Node000007_Node000010" class="edge">
<title>Node7&#45;&gt;Node10</title>
<g id="a_edge9_Node000007_Node000010"><a xlink:title=" ">
<path fill="none" stroke="#63b8ff" d="M617.72,-957.38C589.07,-951.9 556.38,-945.66 530.22,-940.66"/>
<polygon fill="#63b8ff" stroke="#63b8ff" points="616.92,-960.79 627.4,-959.23 618.24,-953.91 616.92,-960.79"/>
</a>
</g>
</g>
<!-- Node11 -->
<g id="Node000011" class="node">
<title>Node11</title>
<g id="a_Node000011"><a xlink:href="classTriangle.html#a2eae6a9b0378e4b5ba4616a6b6af86fe" target="_top" xlink:title="Construct from 3 node pointers and bordering domains.">
<polygon fill="white" stroke="#666666" points="529.88,-1058.75 431.38,-1058.75 431.38,-1038 529.88,-1038 529.88,-1058.75"/>
<text xml:space="preserve" text-anchor="middle" x="480.62" y="-1045.25" font-family="Helvetica,sans-Serif" font-size="10.00">Triangle::Triangle</text>
</a>
</g>
</g>
<!-- Node7&#45;&gt;Node11 -->
<g id="edge10_Node000007_Node000011" class="edge">
<title>Node7&#45;&gt;Node11</title>
<g id="a_edge10_Node000007_Node000011"><a xlink:title=" ">
<path fill="none" stroke="#63b8ff" d="M654.4,-986.16C628.58,-998.74 590.77,-1016.2 556.5,-1028.38 546.99,-1031.75 536.63,-1034.87 526.73,-1037.59"/>
<polygon fill="#63b8ff" stroke="#63b8ff" points="655.9,-989.32 663.33,-981.76 652.81,-983.04 655.9,-989.32"/>
</a>
</g>
</g>
<!-- Node12 -->
<g id="Node000012" class="node">
<title>Node12</title>
<g id="a_Node000012"><a xlink:href="classTriangle.html#a6a5a3532e273e1fbb69b26eea2f509c0" target="_top" xlink:title="Count common nodes with triangle T (0..3).">
<polygon fill="white" stroke="#666666" points="356,-1058.75 225.25,-1058.75 225.25,-1038 356,-1038 356,-1058.75"/>
<text xml:space="preserve" text-anchor="middle" x="290.62" y="-1045.25" font-family="Helvetica,sans-Serif" font-size="10.00">Triangle::FindAdjacency</text>
</a>
</g>
</g>
<!-- Node11&#45;&gt;Node12 -->
<g id="edge11_Node000011_Node000012" class="edge">
<title>Node11&#45;&gt;Node12</title>
<g id="a_edge11_Node000011_Node000012"><a xlink:title=" ">
<path fill="none" stroke="#63b8ff" d="M419.9,-1048.38C399.6,-1048.38 376.84,-1048.38 356.18,-1048.38"/>
<polygon fill="#63b8ff" stroke="#63b8ff" points="419.7,-1051.88 429.7,-1048.38 419.7,-1044.88 419.7,-1051.88"/>
</a>
</g>
</g>
<!-- Node11&#45;&gt;Node16 -->
<g id="edge15_Node000011_Node000016" class="edge">
<title>Node11&#45;&gt;Node16</title>
<g id="a_edge15_Node000011_Node000016"><a xlink:title=" ">
<path fill="none" stroke="#63b8ff" d="M420.39,-1038.62C414.67,-1035.96 409.31,-1032.61 404.75,-1028.38 369.19,-995.4 403.43,-959.27 368.75,-925.38 362.51,-919.27 354.77,-914.66 346.62,-911.18"/>
<polygon fill="#63b8ff" stroke="#63b8ff" points="418.97,-1041.82 429.56,-1042.15 421.48,-1035.29 418.97,-1041.82"/>
</a>
</g>
</g>
<!-- Node17 -->
<g id="Node000017" class="node">
<title>Node17</title>
<g id="a_Node000017"><a xlink:href="classTriangle.html#aab413203fc04781220ce7cf8224105bd" target="_top" xlink:title="Find common edge local indices with T.">
<polygon fill="white" stroke="#666666" points="365,-968.12 216.25,-968.12 216.25,-934.62 365,-934.62 365,-968.12"/>
<text xml:space="preserve" text-anchor="start" x="224.25" y="-954.62" font-family="Helvetica,sans-Serif" font-size="10.00">Triangle::FindCommonEdge</text>
<text xml:space="preserve" text-anchor="middle" x="290.62" y="-941.88" font-family="Helvetica,sans-Serif" font-size="10.00">Indices</text>
</a>
</g>
</g>
<!-- Node11&#45;&gt;Node17 -->
<g id="edge16_Node000011_Node000017" class="edge">
<title>Node11&#45;&gt;Node17</title>
<g id="a_edge16_Node000011_Node000017"><a xlink:title=" ">
<path fill="none" stroke="#63b8ff" d="M420.34,-1036.79C414.83,-1034.48 409.53,-1031.7 404.75,-1028.38 381.99,-1012.51 390.99,-993.96 368.75,-977.38 364.22,-974 359.22,-971.04 354.01,-968.45"/>
<polygon fill="#63b8ff" stroke="#63b8ff" points="419.1,-1040.06 429.69,-1040.18 421.48,-1033.48 419.1,-1040.06"/>
</a>
</g>
</g>
<!-- Node18 -->
<g id="Node000018" class="node">
<title>Node18</title>
<g id="a_Node000018"><a xlink:href="classTriangle.html#aa137190a0a6fd9adadee37a8228313d6" target="_top" xlink:title="Find common vertex local indices with T.">
<polygon fill="white" stroke="#666666" points="368.75,-1020.12 212.5,-1020.12 212.5,-986.62 368.75,-986.62 368.75,-1020.12"/>
<text xml:space="preserve" text-anchor="start" x="220.5" y="-1006.62" font-family="Helvetica,sans-Serif" font-size="10.00">Triangle::FindCommonVertex</text>
<text xml:space="preserve" text-anchor="middle" x="290.62" y="-993.88" font-family="Helvetica,sans-Serif" font-size="10.00">Indices</text>
</a>
</g>
</g>
<!-- Node11&#45;&gt;Node18 -->
<g id="edge17_Node000011_Node000018" class="edge">
<title>Node11&#45;&gt;Node18</title>
<g id="a_edge17_Node000011_Node000018"><a xlink:title=" ">
<path fill="none" stroke="#63b8ff" d="M423.5,-1034.94C404.65,-1030.43 383.34,-1025.33 363.45,-1020.57"/>
<polygon fill="#63b8ff" stroke="#63b8ff" points="422.58,-1038.32 433.12,-1037.24 424.21,-1031.51 422.58,-1038.32"/>
</a>
</g>
</g>
<!-- Node12&#45;&gt;Node13 -->
<g id="edge12_Node000012_Node000013" class="edge">
<title>Node12&#45;&gt;Node13</title>
<g id="a_edge12_Node000012_Node000013"><a xlink:title=" ">
<path fill="none" stroke="#63b8ff" d="M246.44,-1062.6C209.18,-1074.87 156.14,-1092.34 122.21,-1103.52"/>
<polygon fill="#63b8ff" stroke="#63b8ff" points="247.14,-1066.05 255.55,-1059.6 244.95,-1059.4 247.14,-1066.05"/>
</a>
</g>
</g>
<!-- Node12&#45;&gt;Node14 -->
<g id="edge13_Node000012_Node000014" class="edge">
<title>Node12&#45;&gt;Node14</title>
<g id="a_edge13_Node000012_Node000014"><a xlink:title=" ">
<path fill="none" stroke="#63b8ff" d="M213.51,-1051.79C201.51,-1052.33 189.02,-1052.89 176.79,-1053.44"/>
<polygon fill="#63b8ff" stroke="#63b8ff" points="213.5,-1055.3 223.33,-1051.35 213.19,-1048.3 213.5,-1055.3"/>
</a>
</g>
</g>
<!-- Node12&#45;&gt;Node15 -->
<g id="edge14_Node000012_Node000015" class="edge">
<title>Node12&#45;&gt;Node15</title>
<g id="a_edge14_Node000012_Node000015"><a xlink:title=" ">
<path fill="none" stroke="#63b8ff" d="M224.12,-1034.1C220.13,-1032.66 216.23,-1031.09 212.5,-1029.38 167.35,-1008.62 121.69,-970.55 100.88,-952.04"/>
<polygon fill="#63b8ff" stroke="#63b8ff" points="222.77,-1037.34 233.37,-1037.14 224.96,-1030.69 222.77,-1037.34"/>
</a>
</g>
</g>
<!-- Node19&#45;&gt;Node20 -->
<g id="edge19_Node000019_Node000020" class="edge">
<title>Node19&#45;&gt;Node20</title>
<g id="a_edge19_Node000019_Node000020"><a xlink:title=" ">
<path fill="none" stroke="#63b8ff" d="M612.11,-792.79C593.67,-794.14 573.88,-795.6 555.43,-796.95"/>
<polygon fill="#63b8ff" stroke="#63b8ff" points="612.17,-796.29 621.89,-792.07 611.66,-789.31 612.17,-796.29"/>
</a>
</g>
</g>
</g>
</svg>
