<?xml version="1.0" encoding="UTF-8" standalone="no"?>
<!DOCTYPE svg PUBLIC "-//W3C//DTD SVG 1.1//EN"
 "http://www.w3.org/Graphics/SVG/1.1/DTD/svg11.dtd">
<!-- Generated by graphviz version 13.1.2 (20250809.0930)
 -->
<!-- Title: GreenFHom3DPer2D::EwaldAndGradientSpatial Pages: 1 -->
<!--zoomable 132 -->

<svg id="main" version="1.1" xmlns="http://www.w3.org/2000/svg" xmlns:xlink="http://www.w3.org/1999/xlink" xml:space="preserve" onload="init(evt)">

<style type="text/css"><![CDATA[
.node, .edge {opacity: 0.7;}
.node.selected, .edge.selected {opacity: 1;}
.edge:hover path { stroke: red; }
.edge:hover polygon { stroke: red; fill: red; }
]]></style>

<defs>
  <circle id="rim" cx="0" cy="0" r="7"/>
  <circle id="rim2" cx="0" cy="0" r="3.5"/>
  <g id="zoomPlus">
    <use xlink:href="#rim" fill="#404040"><set attributeName="fill" to="#808080" begin="zoomplus.mouseover" end="zoomplus.mouseout"/></use>
    <path d="M-4,0h8M0,-4v8" fill="none" stroke="white" stroke-width="1.5" pointer-events="none"/>
  </g>
  <g id="zoomMin">
    <use xlink:href="#rim" fill="#404040"><set attributeName="fill" to="#808080" begin="zoomminus.mouseover" end="zoomminus.mouseout"/></use>
    <path d="M-4,0h8" fill="none" stroke="white" stroke-width="1.5" pointer-events="none"/>
  </g>
  <g id="arrowUp" transform="translate(30 24)">
    <use xlink:href="#rim"/>
    <path pointer-events="none" fill="none" stroke="white" stroke-width="1.5" d="M0,-3.0v7 M-2.5,-0.5L0,-3.0L2.5,-0.5"/>
  </g>
  <g id="arrowRight" transform="rotate(90) translate(36 -43)">
    <use xlink:href="#rim"/>
    <path pointer-events="none" fill="none" stroke="white" stroke-width="1.5" d="M0,-3.0v7 M-2.5,-0.5L0,-3.0L2.5,-0.5"/>
  </g>
  <g id="arrowDown" transform="rotate(180) translate(-30 -48)">
    <use xlink:href="#rim"/>
    <path pointer-events="none" fill="none" stroke="white" stroke-width="1.5" d="M0,-3.0v7 M-2.5,-0.5L0,-3.0L2.5,-0.5"/>
  </g>
  <g id="arrowLeft" transform="rotate(270) translate(-36 17)">
    <use xlink:href="#rim"/>
    <path pointer-events="none" fill="none" stroke="white" stroke-width="1.5" d="M0,-3.0v7 M-2.5,-0.5L0,-3.0L2.5,-0.5"/>
  </g>
  <g id="resetDef">
    <use xlink:href="#rim2" fill="#404040"><set attributeName="fill" to="#808080" begin="reset.mouseover" end="reset.mouseout"/></use>
  </g>
</defs>
<script type="application/ecmascript">
var viewWidth = 612;
var viewHeight = 132;
var sectionId = 'dynsection-16';
</script>
<script type="application/ecmascript" xlink:href="svg.min.js"/>
<svg id="graph" class="graph">
<g id="viewport">
<title>GreenFHom3DPer2D::EwaldAndGradientSpatial</title>
<!-- Node1 -->
<g id="Node000001" class="node">
<title>Node1</title>
<g id="a_Node000001"><a xlink:title="Spatial part returning both normal and gradient.">
<polygon fill="#999999" stroke="#666666" points="603.75,-72.12 432.5,-72.12 432.5,-38.62 603.75,-38.62 603.75,-72.12"/>
<text xml:space="preserve" text-anchor="start" x="440.5" y="-58.62" font-family="Helvetica,sans-Serif" font-size="10.00">GreenFHom3DPer2D::EwaldAnd</text>
<text xml:space="preserve" text-anchor="middle" x="518.12" y="-45.88" font-family="Helvetica,sans-Serif" font-size="10.00">GradientSpatial</text>
</a>
</g>
</g>
<!-- Node2 -->
<g id="Node000002" class="node">
<title>Node2</title>
<g id="a_Node000002"><a xlink:href="classGreenFHom3DPer2D.html#aea4d858bd544ba5e9a8de1197b572b4e" target="_top" xlink:title="Evaluate &#160;for a translation in one call.">
<polygon fill="white" stroke="#666666" points="396.5,-72.12 212.5,-72.12 212.5,-38.62 396.5,-38.62 396.5,-72.12"/>
<text xml:space="preserve" text-anchor="start" x="220.5" y="-58.62" font-family="Helvetica,sans-Serif" font-size="10.00">GreenFHom3DPer2D::Evaluateand</text>
<text xml:space="preserve" text-anchor="middle" x="304.5" y="-45.88" font-family="Helvetica,sans-Serif" font-size="10.00">GradientTranslate</text>
</a>
</g>
</g>
<!-- Node1&#45;&gt;Node2 -->
<g id="edge1_Node000001_Node000002" class="edge">
<title>Node1&#45;&gt;Node2</title>
<g id="a_edge1_Node000001_Node000002"><a xlink:title=" ">
<path fill="none" stroke="#63b8ff" d="M421.02,-55.38C413.01,-55.38 404.93,-55.38 396.96,-55.38"/>
<polygon fill="#63b8ff" stroke="#63b8ff" points="420.75,-58.88 430.75,-55.38 420.75,-51.88 420.75,-58.88"/>
</a>
</g>
</g>
<!-- Node3 -->
<g id="Node000003" class="node">
<title>Node3</title>
<g id="a_Node000003"><a xlink:href="classGreenFHom3DPer2D.html#a233c2185952220bd16acae2142f05cc1" target="_top" xlink:title="term at an observation point.">
<polygon fill="white" stroke="#666666" points="172,-124.12 4.5,-124.12 4.5,-90.62 172,-90.62 172,-124.12"/>
<text xml:space="preserve" text-anchor="start" x="12.5" y="-110.62" font-family="Helvetica,sans-Serif" font-size="10.00">GreenFHom3DPer2D::Integrate</text>
<text xml:space="preserve" text-anchor="middle" x="88.25" y="-97.88" font-family="Helvetica,sans-Serif" font-size="10.00">Delta</text>
</a>
</g>
</g>
<!-- Node2&#45;&gt;Node3 -->
<g id="edge2_Node000002_Node000003" class="edge">
<title>Node2&#45;&gt;Node3</title>
<g id="a_edge2_Node000002_Node000003"><a xlink:title=" ">
<path fill="none" stroke="#63b8ff" d="M221.38,-75.31C201.18,-80.21 179.72,-85.42 160.1,-90.18"/>
<polygon fill="#63b8ff" stroke="#63b8ff" points="222.09,-78.73 230.98,-72.98 220.44,-71.93 222.09,-78.73"/>
</a>
</g>
</g>
<!-- Node4 -->
<g id="Node000004" class="node">
<title>Node4</title>
<g id="a_Node000004"><a xlink:href="classGreenFHom3DPer2D.html#a84a8c855a27c895ff24f6771037284a5" target="_top" xlink:title="Compute &#160;for all RWGs on a source triangle.">
<polygon fill="white" stroke="#666666" points="169.38,-72.12 7.12,-72.12 7.12,-38.62 169.38,-38.62 169.38,-72.12"/>
<text xml:space="preserve" text-anchor="start" x="15.12" y="-58.62" font-family="Helvetica,sans-Serif" font-size="10.00">GreenFHom3DPer2D::SameTri</text>
<text xml:space="preserve" text-anchor="middle" x="88.25" y="-45.88" font-family="Helvetica,sans-Serif" font-size="10.00">DeltaKappa</text>
</a>
</g>
</g>
<!-- Node2&#45;&gt;Node4 -->
<g id="edge3_Node000002_Node000004" class="edge">
<title>Node2&#45;&gt;Node4</title>
<g id="a_edge3_Node000002_Node000004"><a xlink:title=" ">
<path fill="none" stroke="#63b8ff" d="M200.72,-55.38C190.27,-55.38 179.77,-55.38 169.6,-55.38"/>
<polygon fill="#63b8ff" stroke="#63b8ff" points="200.5,-58.88 210.5,-55.38 200.5,-51.88 200.5,-58.88"/>
</a>
</g>
</g>
<!-- Node5 -->
<g id="Node000005" class="node">
<title>Node5</title>
<g id="a_Node000005"><a xlink:href="classGreenFHom3DPer2D.html#a1dc9dd84c93ee10b2fb4b1866103d957" target="_top" xlink:title="Compute &#160;and &#160;for all RWG pairs on two triangles.">
<polygon fill="white" stroke="#666666" points="176.5,-20.75 0,-20.75 0,0 176.5,0 176.5,-20.75"/>
<text xml:space="preserve" text-anchor="middle" x="88.25" y="-7.25" font-family="Helvetica,sans-Serif" font-size="10.00">GreenFHom3DPer2D::SameTriDK</text>
</a>
</g>
</g>
<!-- Node2&#45;&gt;Node5 -->
<g id="edge4_Node000002_Node000005" class="edge">
<title>Node2&#45;&gt;Node5</title>
<g id="a_edge4_Node000002_Node000005"><a xlink:title=" ">
<path fill="none" stroke="#63b8ff" d="M210.33,-35.81C186.46,-30.79 161.64,-25.58 140.74,-21.19"/>
<polygon fill="#63b8ff" stroke="#63b8ff" points="209.6,-39.23 220.1,-37.86 211.04,-32.38 209.6,-39.23"/>
</a>
</g>
</g>
</g>
</svg>

<g id="navigator" transform="translate(0 0)" fill="#404254">
  <rect fill="#f2f5e9" fill-opacity="0.5" stroke="#606060" stroke-width=".5" x="0" y="0" width="60" height="60"/>
  <use id="zoomplus" xlink:href="#zoomPlus" x="17" y="9" onmousedown="handleZoom(evt,'in')"/>
  <use id="zoomminus" xlink:href="#zoomMin" x="42" y="9" onmousedown="handleZoom(evt,'out')"/>
  <use id="reset" xlink:href="#resetDef" x="30" y="36" onmousedown="handleReset()"/>
   <use id="arrowup" xlink:href="#arrowUp" x="0" y="0" onmousedown="handlePan(0,-1)"/>
  <use id="arrowright" xlink:href="#arrowRight" x="0" y="0" onmousedown="handlePan(1,0)"/>
  <use id="arrowdown" xlink:href="#arrowDown" x="0" y="0" onmousedown="handlePan(0,1)"/>
  <use id="arrowleft" xlink:href="#arrowLeft" x="0" y="0" onmousedown="handlePan(-1,0)"/>
</g>
<svg viewBox="0 0 15 15" width="100%" height="30px" preserveAspectRatio="xMaxYMin meet">
 <g id="arrow_out" transform="scale(0.3 0.3)">
  <a xlink:href="classGreenFHom3DPer2D_ad219414131e33eb361fe2240be9612a0_icgraph_org.svg" target="_base">
   <rect id="button" ry="5" rx="5" y="6" x="6" height="38" width="38"
        fill="#f2f5e9" fill-opacity="0.5" stroke="#606060" stroke-width="1.0"/>
   <path id="arrow"
     d="M 11.500037,31.436501 C 11.940474,20.09759 22.043105,11.32322 32.158766,21.979434 L 37.068811,17.246167 C 37.068811,17.246167 37.088388,32 37.088388,32 L 22.160133,31.978069 C 22.160133,31.978069 26.997745,27.140456 26.997745,27.140456 C 18.528582,18.264221 13.291696,25.230495 11.500037,31.436501 z"
     style="fill:#404040;"/>
  </a>
 </g>
</svg>

<style type='text/css'>
<![CDATA[
[data-mouse-over-selected='false'] { opacity: 0.7; }
[data-mouse-over-selected='true']  { opacity: 1.0; }
]]>
</style>
<script type="application/ecmascript"><![CDATA[
document.addEventListener('DOMContentLoaded', (event) => {
  highlightEdges();
  highlightAdjacentNodes();
});
]]></script>
</svg>
