<?xml version="1.0" encoding="UTF-8" standalone="no"?>
<!DOCTYPE svg PUBLIC "-//W3C//DTD SVG 1.1//EN"
 "http://www.w3.org/Graphics/SVG/1.1/DTD/svg11.dtd">
<!-- Generated by graphviz version 13.1.2 (20250809.0930)
 -->
<!-- Title: Domain::IncFieldH Pages: 1 -->
<svg width="696pt" height="224pt"
 viewBox="0.00 0.00 696.00 224.00" xmlns="http://www.w3.org/2000/svg" xmlns:xlink="http://www.w3.org/1999/xlink">
<g id="graph0" class="graph" transform="scale(1 1) rotate(0) translate(4 219.75)">
<title>Domain::IncFieldH</title>
<!-- Node1 -->
<g id="Node000001" class="node">
<title>Node1</title>
<g id="a_Node000001"><a xlink:title="Total incident magnetic field at a point from all incident sources.">
<polygon fill="#999999" stroke="#666666" points="687.5,-117.75 582.25,-117.75 582.25,-97 687.5,-97 687.5,-117.75"/>
<text xml:space="preserve" text-anchor="middle" x="634.88" y="-104.25" font-family="Helvetica,sans-Serif" font-size="10.00">Domain::IncFieldH</text>
</a>
</g>
</g>
<!-- Node2 -->
<g id="Node000002" class="node">
<title>Node2</title>
<g id="a_Node000002"><a xlink:href="classDomainHom3D.html#ad19635c8b33f69ebf6cb3cd8788f7f23" target="_top" xlink:title="Absorption cross section via surface quadrature.">
<polygon fill="white" stroke="#666666" points="546.25,-215.75 384.75,-215.75 384.75,-195 546.25,-195 546.25,-215.75"/>
<text xml:space="preserve" text-anchor="middle" x="465.5" y="-202.25" font-family="Helvetica,sans-Serif" font-size="10.00">DomainHom3D::absorptionCS</text>
</a>
</g>
</g>
<!-- Node1&#45;&gt;Node2 -->
<g id="edge1_Node000001_Node000002" class="edge">
<title>Node1&#45;&gt;Node2</title>
<g id="a_edge1_Node000001_Node000002"><a xlink:title=" ">
<path fill="none" stroke="#63b8ff" d="M617.55,-126.46C601.25,-144.3 574.61,-170.37 546.25,-185.38 539.31,-189.05 531.67,-192.06 523.95,-194.54"/>
<polygon fill="#63b8ff" stroke="#63b8ff" points="620.05,-128.91 624.07,-119.11 614.81,-124.26 620.05,-128.91"/>
</a>
</g>
</g>
<!-- Node3 -->
<g id="Node000003" class="node">
<title>Node3</title>
<g id="a_Node000003"><a xlink:href="classSimJob.html#a24f10b7bb14c9181341d07a783e00214" target="_top" xlink:title="Return both , &#160;incident and secondary pairs at pos.">
<polygon fill="white" stroke="#666666" points="520.75,-176.75 410.25,-176.75 410.25,-156 520.75,-156 520.75,-176.75"/>
<text xml:space="preserve" text-anchor="middle" x="465.5" y="-163.25" font-family="Helvetica,sans-Serif" font-size="10.00">SimJob::EandHField</text>
</a>
</g>
</g>
<!-- Node1&#45;&gt;Node3 -->
<g id="edge2_Node000001_Node000003" class="edge">
<title>Node1&#45;&gt;Node3</title>
<g id="a_edge2_Node000001_Node000003"><a xlink:title=" ">
<path fill="none" stroke="#63b8ff" d="M602.19,-123.07C585.77,-130.79 565.23,-139.83 546.25,-146.38 536.4,-149.77 525.68,-152.86 515.39,-155.54"/>
<polygon fill="#63b8ff" stroke="#63b8ff" points="603.45,-126.35 610.97,-118.88 600.43,-120.03 603.45,-126.35"/>
</a>
</g>
</g>
<!-- Node7 -->
<g id="Node000007" class="node">
<title>Node7</title>
<g id="a_Node000007"><a xlink:href="classDomainHom3D.html#aa6a76dafe56204c15b80e491e6a2b21d" target="_top" xlink:title="Extinction cross section via surface quadrature.">
<polygon fill="white" stroke="#666666" points="544.75,-137.75 386.25,-137.75 386.25,-117 544.75,-117 544.75,-137.75"/>
<text xml:space="preserve" text-anchor="middle" x="465.5" y="-124.25" font-family="Helvetica,sans-Serif" font-size="10.00">DomainHom3D::extinctionCS</text>
</a>
</g>
</g>
<!-- Node1&#45;&gt;Node7 -->
<g id="edge6_Node000001_Node000007" class="edge">
<title>Node1&#45;&gt;Node7</title>
<g id="a_edge6_Node000001_Node000007"><a xlink:title=" ">
<path fill="none" stroke="#63b8ff" d="M570.42,-114.96C562.19,-115.94 553.68,-116.96 545.24,-117.97"/>
<polygon fill="#63b8ff" stroke="#63b8ff" points="570.82,-118.43 580.33,-113.77 569.99,-111.48 570.82,-118.43"/>
</a>
</g>
</g>
<!-- Node8 -->
<g id="Node000008" class="node">
<title>Node8</title>
<g id="a_Node000008"><a xlink:href="classSimJob.html#ae9e4bc91d7636bf3e7fd151c870cd01f" target="_top" xlink:title="Incident and secondary &#160;at pos (domain auto&#45;detected).">
<polygon fill="white" stroke="#666666" points="508.75,-98.75 422.25,-98.75 422.25,-78 508.75,-78 508.75,-98.75"/>
<text xml:space="preserve" text-anchor="middle" x="465.5" y="-85.25" font-family="Helvetica,sans-Serif" font-size="10.00">SimJob::HField</text>
</a>
</g>
</g>
<!-- Node1&#45;&gt;Node8 -->
<g id="edge7_Node000001_Node000008" class="edge">
<title>Node1&#45;&gt;Node8</title>
<g id="a_edge7_Node000001_Node000008"><a xlink:title=" ">
<path fill="none" stroke="#63b8ff" d="M570.66,-100.2C550.15,-97.87 527.9,-95.34 509.25,-93.23"/>
<polygon fill="#63b8ff" stroke="#63b8ff" points="570,-103.65 580.33,-101.3 570.79,-96.69 570,-103.65"/>
</a>
</g>
</g>
<!-- Node9 -->
<g id="Node000009" class="node">
<title>Node9</title>
<g id="a_Node000009"><a xlink:href="classSimJob.html#ab9314ccd802a5a430e96e97439fc2459" target="_top" xlink:title="Incident and secondary &#160;at pos with known containing domain.">
<polygon fill="white" stroke="#666666" points="508.75,-59.75 422.25,-59.75 422.25,-39 508.75,-39 508.75,-59.75"/>
<text xml:space="preserve" text-anchor="middle" x="465.5" y="-46.25" font-family="Helvetica,sans-Serif" font-size="10.00">SimJob::HField</text>
</a>
</g>
</g>
<!-- Node1&#45;&gt;Node9 -->
<g id="edge9_Node000001_Node000009" class="edge">
<title>Node1&#45;&gt;Node9</title>
<g id="a_edge9_Node000001_Node000009"><a xlink:title=" ">
<path fill="none" stroke="#63b8ff" d="M601.82,-91.97C585.44,-84.49 565.05,-75.76 546.25,-69.38 534.36,-65.33 521.22,-61.71 509.09,-58.69"/>
<polygon fill="#63b8ff" stroke="#63b8ff" points="600.02,-95 610.57,-96.03 602.97,-88.65 600.02,-95"/>
</a>
</g>
</g>
<!-- Node10 -->
<g id="Node000010" class="node">
<title>Node10</title>
<g id="a_Node000010"><a xlink:href="classDomainHom3D.html#af51c0166dbce1642b143f7bf910b7c12" target="_top" xlink:title="Scattering cross section via surface quadrature.">
<polygon fill="white" stroke="#666666" points="544.75,-20.75 386.25,-20.75 386.25,0 544.75,0 544.75,-20.75"/>
<text xml:space="preserve" text-anchor="middle" x="465.5" y="-7.25" font-family="Helvetica,sans-Serif" font-size="10.00">DomainHom3D::scatteringCS</text>
</a>
</g>
</g>
<!-- Node1&#45;&gt;Node10 -->
<g id="edge10_Node000001_Node000010" class="edge">
<title>Node1&#45;&gt;Node10</title>
<g id="a_edge10_Node000001_Node000010"><a xlink:title=" ">
<path fill="none" stroke="#63b8ff" d="M617.23,-88.26C600.88,-70.66 574.35,-45.12 546.25,-30.38 539.17,-26.66 531.37,-23.61 523.51,-21.12"/>
<polygon fill="#63b8ff" stroke="#63b8ff" points="614.49,-90.45 623.79,-95.52 619.68,-85.75 614.49,-90.45"/>
</a>
</g>
</g>
<!-- Node4 -->
<g id="Node000004" class="node">
<title>Node4</title>
<g id="a_Node000004"><a xlink:href="classSimJob.html#aa492cf9e3639f2dfa91e36364a76729a" target="_top" xlink:title="Thread worker to evaluate fields over posvec in parallel.">
<polygon fill="white" stroke="#666666" points="348.75,-137.75 212.75,-137.75 212.75,-117 348.75,-117 348.75,-137.75"/>
<text xml:space="preserve" text-anchor="middle" x="280.75" y="-124.25" font-family="Helvetica,sans-Serif" font-size="10.00">SimJob::FieldEvalParallel</text>
</a>
</g>
</g>
<!-- Node3&#45;&gt;Node4 -->
<g id="edge3_Node000003_Node000004" class="edge">
<title>Node3&#45;&gt;Node4</title>
<g id="a_edge3_Node000003_Node000004"><a xlink:title=" ">
<path fill="none" stroke="#63b8ff" d="M402.36,-153.11C379.67,-148.27 354.3,-142.86 332.7,-138.25"/>
<polygon fill="#63b8ff" stroke="#63b8ff" points="401.6,-156.53 412.11,-155.2 403.06,-149.69 401.6,-156.53"/>
</a>
</g>
</g>
<!-- Node5 -->
<g id="Node000005" class="node">
<title>Node5</title>
<g id="a_Node000005"><a xlink:href="classSimJob.html#a20b37e2e0aa2502a3ec465a5705b1774" target="_top" xlink:title="Evaluate fields on a set of points read from a file.">
<polygon fill="white" stroke="#666666" points="176.75,-137.75 76.75,-137.75 76.75,-117 176.75,-117 176.75,-137.75"/>
<text xml:space="preserve" text-anchor="middle" x="126.75" y="-124.25" font-family="Helvetica,sans-Serif" font-size="10.00">SimJob::FieldEval</text>
</a>
</g>
</g>
<!-- Node4&#45;&gt;Node5 -->
<g id="edge4_Node000004_Node000005" class="edge">
<title>Node4&#45;&gt;Node5</title>
<g id="a_edge4_Node000004_Node000005"><a xlink:title=" ">
<path fill="none" stroke="#63b8ff" d="M201.4,-127.38C193.16,-127.38 184.94,-127.38 177.16,-127.38"/>
<polygon fill="#63b8ff" stroke="#63b8ff" points="201.12,-130.88 211.12,-127.38 201.12,-123.88 201.12,-130.88"/>
</a>
</g>
</g>
<!-- Node6 -->
<g id="Node000006" class="node">
<title>Node6</title>
<g id="a_Node000006"><a xlink:href="main_8cpp.html#a0ddf1224851353fc92bfbff6f499fa97" target="_top" xlink:title="Main driver routine for the HELIOS SIE simulation program.">
<polygon fill="white" stroke="#666666" points="40.75,-137.75 0,-137.75 0,-117 40.75,-117 40.75,-137.75"/>
<text xml:space="preserve" text-anchor="middle" x="20.38" y="-124.25" font-family="Helvetica,sans-Serif" font-size="10.00">main</text>
</a>
</g>
</g>
<!-- Node5&#45;&gt;Node6 -->
<g id="edge5_Node000005_Node000006" class="edge">
<title>Node5&#45;&gt;Node6</title>
<g id="a_edge5_Node000005_Node000006"><a xlink:title=" ">
<path fill="none" stroke="#63b8ff" d="M64.97,-127.38C56.42,-127.38 48.18,-127.38 41.22,-127.38"/>
<polygon fill="#63b8ff" stroke="#63b8ff" points="64.8,-130.88 74.8,-127.38 64.8,-123.88 64.8,-130.88"/>
</a>
</g>
</g>
<!-- Node8&#45;&gt;Node4 -->
<g id="edge8_Node000008_Node000004" class="edge">
<title>Node8&#45;&gt;Node4</title>
<g id="a_edge8_Node000008_Node000004"><a xlink:title=" ">
<path fill="none" stroke="#63b8ff" d="M411.1,-99.77C386.36,-105.05 357.11,-111.29 332.69,-116.5"/>
<polygon fill="#63b8ff" stroke="#63b8ff" points="411.58,-103.25 420.63,-97.74 410.12,-96.4 411.58,-103.25"/>
</a>
</g>
</g>
</g>
</svg>
