<?xml version="1.0" encoding="UTF-8" standalone="no"?>
<!DOCTYPE svg PUBLIC "-//W3C//DTD SVG 1.1//EN"
 "http://www.w3.org/Graphics/SVG/1.1/DTD/svg11.dtd">
<!-- Generated by graphviz version 13.1.2 (20250809.0930)
 -->
<!-- Title: Domain::Power Pages: 1 -->
<svg width="171pt" height="104pt"
 viewBox="0.00 0.00 171.00 104.00" xmlns="http://www.w3.org/2000/svg" xmlns:xlink="http://www.w3.org/1999/xlink">
<g id="graph0" class="graph" transform="scale(1 1) rotate(0) translate(4 99.75)">
<title>Domain::Power</title>
<!-- Node1 -->
<g id="Node000001" class="node">
<title>Node1</title>
<g id="a_Node000001"><a xlink:title="Power crossing the domain boundary computed from the RWG solution.">
<polygon fill="#999999" stroke="#666666" points="90.25,-48.75 0,-48.75 0,-28 90.25,-28 90.25,-48.75"/>
<text xml:space="preserve" text-anchor="middle" x="45.12" y="-35.25" font-family="Helvetica,sans-Serif" font-size="10.00">Domain::Power</text>
</a>
</g>
</g>
<!-- Node2 -->
<g id="Node000002" class="node">
<title>Node2</title>
<g id="a_Node000002"><a xlink:href="Domain_8cpp.html#abbd88d15240455cf734121fcd73b3a03" target="_top" xlink:title="Compute the element&#45;wise complex conjugate of a 3&#45;vector.">
<polygon fill="white" stroke="#666666" points="162.5,-77.75 126.25,-77.75 126.25,-57 162.5,-57 162.5,-77.75"/>
<text xml:space="preserve" text-anchor="middle" x="144.38" y="-64.25" font-family="Helvetica,sans-Serif" font-size="10.00">conj</text>
</a>
</g>
</g>
<!-- Node1&#45;&gt;Node2 -->
<g id="edge1_Node000001_Node000002" class="edge">
<title>Node1&#45;&gt;Node2</title>
<g id="a_edge1_Node000001_Node000002"><a xlink:title=" ">
<path fill="none" stroke="#63b8ff" d="M82.34,-49.17C93.17,-52.4 104.88,-55.89 115.12,-58.95"/>
<polygon fill="#63b8ff" stroke="#63b8ff" points="113.89,-62.24 124.48,-61.74 115.89,-55.53 113.89,-62.24"/>
</a>
</g>
</g>
<!-- Node3 -->
<g id="Node000003" class="node">
<title>Node3</title>
<g id="a_Node000003"><a xlink:href="Domain_8cpp.html#aafa3e4fa6318b2f8740f4dbd50c367e5" target="_top" xlink:title="Extract the real part of each component of a complex 3&#45;vector.">
<polygon fill="white" stroke="#666666" points="161.75,-20.75 127,-20.75 127,0 161.75,0 161.75,-20.75"/>
<text xml:space="preserve" text-anchor="middle" x="144.38" y="-7.25" font-family="Helvetica,sans-Serif" font-size="10.00">real</text>
</a>
</g>
</g>
<!-- Node1&#45;&gt;Node3 -->
<g id="edge3_Node000001_Node000003" class="edge">
<title>Node1&#45;&gt;Node3</title>
<g id="a_edge3_Node000001_Node000003"><a xlink:title=" ">
<path fill="none" stroke="#63b8ff" d="M83.72,-27.55C94.4,-24.47 105.83,-21.18 115.8,-18.31"/>
<polygon fill="#63b8ff" stroke="#63b8ff" points="116.6,-21.73 125.24,-15.6 114.66,-15 116.6,-21.73"/>
</a>
</g>
</g>
<!-- Node2&#45;&gt;Node2 -->
<g id="edge2_Node000002_Node000002" class="edge">
<title>Node2&#45;&gt;Node2</title>
<g id="a_edge2_Node000002_Node000002"><a xlink:title=" ">
<path fill="none" stroke="#63b8ff" d="M128.38,-78.15C121.99,-86.81 127.32,-95.75 144.38,-95.75 153.44,-95.75 159.19,-93.23 161.63,-89.56"/>
<polygon fill="#63b8ff" stroke="#63b8ff" points="165.11,-89.21 160.53,-79.65 158.16,-89.98 165.11,-89.21"/>
</a>
</g>
</g>
<!-- Node3&#45;&gt;Node3 -->
<g id="edge4_Node000003_Node000003" class="edge">
<title>Node3&#45;&gt;Node3</title>
<g id="a_edge4_Node000003_Node000003"><a xlink:title=" ">
<path fill="none" stroke="#63b8ff" d="M128.38,-21.15C121.99,-29.81 127.32,-38.75 144.38,-38.75 153.44,-38.75 159.19,-36.23 161.63,-32.56"/>
<polygon fill="#63b8ff" stroke="#63b8ff" points="165.11,-32.21 160.53,-22.65 158.16,-32.98 165.11,-32.21"/>
</a>
</g>
</g>
</g>
</svg>
