<?xml version="1.0" encoding="UTF-8" standalone="no"?>
<!DOCTYPE svg PUBLIC "-//W3C//DTD SVG 1.1//EN"
 "http://www.w3.org/Graphics/SVG/1.1/DTD/svg11.dtd">
<!-- Generated by graphviz version 13.1.2 (20250809.0930)
 -->
<!-- Title: Gaussian::EvaluateE Pages: 1 -->
<svg width="432pt" height="68pt"
 viewBox="0.00 0.00 432.00 68.00" xmlns="http://www.w3.org/2000/svg" xmlns:xlink="http://www.w3.org/1999/xlink">
<g id="graph0" class="graph" transform="scale(1 1) rotate(0) translate(4 63.75)">
<title>Gaussian::EvaluateE</title>
<!-- Node1 -->
<g id="Node000001" class="node">
<title>Node1</title>
<g id="a_Node000001"><a xlink:title="Evaluate the incident electric field .">
<polygon fill="#999999" stroke="#666666" points="423.75,-39.75 308,-39.75 308,-19 423.75,-19 423.75,-39.75"/>
<text xml:space="preserve" text-anchor="middle" x="365.88" y="-26.25" font-family="Helvetica,sans-Serif" font-size="10.00">Gaussian::EvaluateE</text>
</a>
</g>
</g>
<!-- Node2 -->
<g id="Node000002" class="node">
<title>Node2</title>
<g id="a_Node000002"><a xlink:href="classGaussian.html#ad420298383fc00144d4f1dc9e87b8ee7" target="_top" xlink:title="Evaluate the incident magnetic field .">
<polygon fill="white" stroke="#666666" points="272,-59.75 154.75,-59.75 154.75,-39 272,-39 272,-59.75"/>
<text xml:space="preserve" text-anchor="middle" x="213.38" y="-46.25" font-family="Helvetica,sans-Serif" font-size="10.00">Gaussian::EvaluateH</text>
</a>
</g>
</g>
<!-- Node1&#45;&gt;Node2 -->
<g id="edge1_Node000001_Node000002" class="edge">
<title>Node1&#45;&gt;Node2</title>
<g id="a_edge1_Node000001_Node000002"><a xlink:title=" ">
<path fill="none" stroke="#63b8ff" d="M296.23,-38.5C288.14,-39.57 279.95,-40.66 272.04,-41.71"/>
<polygon fill="#63b8ff" stroke="#63b8ff" points="296.6,-41.98 306.05,-37.19 295.67,-35.04 296.6,-41.98"/>
</a>
</g>
</g>
<!-- Node4 -->
<g id="Node000004" class="node">
<title>Node4</title>
<g id="a_Node000004"><a xlink:href="classGaussian.html#a7c63c2889ab8b3c019c3d04c568c2ad4" target="_top" xlink:title="RWG projection of the incident electric field.">
<polygon fill="white" stroke="#666666" points="272,-20.75 154.75,-20.75 154.75,0 272,0 272,-20.75"/>
<text xml:space="preserve" text-anchor="middle" x="213.38" y="-7.25" font-family="Helvetica,sans-Serif" font-size="10.00">Gaussian::IntegrateE</text>
</a>
</g>
</g>
<!-- Node1&#45;&gt;Node4 -->
<g id="edge3_Node000001_Node000004" class="edge">
<title>Node1&#45;&gt;Node4</title>
<g id="a_edge3_Node000001_Node000004"><a xlink:title=" ">
<path fill="none" stroke="#63b8ff" d="M296.23,-20.71C288.14,-19.69 279.95,-18.65 272.04,-17.66"/>
<polygon fill="#63b8ff" stroke="#63b8ff" points="295.69,-24.17 306.05,-21.95 296.56,-17.22 295.69,-24.17"/>
</a>
</g>
</g>
<!-- Node3 -->
<g id="Node000003" class="node">
<title>Node3</title>
<g id="a_Node000003"><a xlink:href="classGaussian.html#a5a2bbd00d15351a497efe6cd5fb333d3" target="_top" xlink:title="RWG projection of the incident magnetic field.">
<polygon fill="white" stroke="#666666" points="118.75,-59.75 0,-59.75 0,-39 118.75,-39 118.75,-59.75"/>
<text xml:space="preserve" text-anchor="middle" x="59.38" y="-46.25" font-family="Helvetica,sans-Serif" font-size="10.00">Gaussian::IntegrateH</text>
</a>
</g>
</g>
<!-- Node2&#45;&gt;Node3 -->
<g id="edge2_Node000002_Node000003" class="edge">
<title>Node2&#45;&gt;Node3</title>
<g id="a_edge2_Node000002_Node000003"><a xlink:title=" ">
<path fill="none" stroke="#63b8ff" d="M143.21,-49.38C135.16,-49.38 127.01,-49.38 119.12,-49.38"/>
<polygon fill="#63b8ff" stroke="#63b8ff" points="142.96,-52.88 152.96,-49.38 142.96,-45.88 142.96,-52.88"/>
</a>
</g>
</g>
</g>
</svg>
