<?xml version="1.0" encoding="UTF-8" standalone="no"?>
<!DOCTYPE svg PUBLIC "-//W3C//DTD SVG 1.1//EN"
 "http://www.w3.org/Graphics/SVG/1.1/DTD/svg11.dtd">
<!-- Generated by graphviz version 13.1.2 (20250809.0930)
 -->
<!-- Title: GreenFHom3DPer2D::ToPlane Pages: 1 -->
<!--zoomable 184 -->

<svg id="main" version="1.1" xmlns="http://www.w3.org/2000/svg" xmlns:xlink="http://www.w3.org/1999/xlink" xml:space="preserve" onload="init(evt)">

<style type="text/css"><![CDATA[
.node, .edge {opacity: 0.7;}
.node.selected, .edge.selected {opacity: 1;}
.edge:hover path { stroke: red; }
.edge:hover polygon { stroke: red; fill: red; }
]]></style>

<defs>
  <circle id="rim" cx="0" cy="0" r="7"/>
  <circle id="rim2" cx="0" cy="0" r="3.5"/>
  <g id="zoomPlus">
    <use xlink:href="#rim" fill="#404040"><set attributeName="fill" to="#808080" begin="zoomplus.mouseover" end="zoomplus.mouseout"/></use>
    <path d="M-4,0h8M0,-4v8" fill="none" stroke="white" stroke-width="1.5" pointer-events="none"/>
  </g>
  <g id="zoomMin">
    <use xlink:href="#rim" fill="#404040"><set attributeName="fill" to="#808080" begin="zoomminus.mouseover" end="zoomminus.mouseout"/></use>
    <path d="M-4,0h8" fill="none" stroke="white" stroke-width="1.5" pointer-events="none"/>
  </g>
  <g id="arrowUp" transform="translate(30 24)">
    <use xlink:href="#rim"/>
    <path pointer-events="none" fill="none" stroke="white" stroke-width="1.5" d="M0,-3.0v7 M-2.5,-0.5L0,-3.0L2.5,-0.5"/>
  </g>
  <g id="arrowRight" transform="rotate(90) translate(36 -43)">
    <use xlink:href="#rim"/>
    <path pointer-events="none" fill="none" stroke="white" stroke-width="1.5" d="M0,-3.0v7 M-2.5,-0.5L0,-3.0L2.5,-0.5"/>
  </g>
  <g id="arrowDown" transform="rotate(180) translate(-30 -48)">
    <use xlink:href="#rim"/>
    <path pointer-events="none" fill="none" stroke="white" stroke-width="1.5" d="M0,-3.0v7 M-2.5,-0.5L0,-3.0L2.5,-0.5"/>
  </g>
  <g id="arrowLeft" transform="rotate(270) translate(-36 17)">
    <use xlink:href="#rim"/>
    <path pointer-events="none" fill="none" stroke="white" stroke-width="1.5" d="M0,-3.0v7 M-2.5,-0.5L0,-3.0L2.5,-0.5"/>
  </g>
  <g id="resetDef">
    <use xlink:href="#rim2" fill="#404040"><set attributeName="fill" to="#808080" begin="reset.mouseover" end="reset.mouseout"/></use>
  </g>
</defs>
<script type="application/ecmascript">
var viewWidth = 780;
var viewHeight = 184;
var sectionId = 'dynsection-59';
</script>
<script type="application/ecmascript" xlink:href="svg.min.js"/>
<svg id="graph" class="graph">
<g id="viewport">
<title>GreenFHom3DPer2D::ToPlane</title>
<!-- Node1 -->
<g id="Node000001" class="node">
<title>Node1</title>
<g id="a_Node000001"><a xlink:title="Project the Bloch vector onto the lattice plane.">
<polygon fill="#999999" stroke="#666666" points="772,-117.75 611.25,-117.75 611.25,-97 772,-97 772,-117.75"/>
<text xml:space="preserve" text-anchor="middle" x="691.62" y="-104.25" font-family="Helvetica,sans-Serif" font-size="10.00">GreenFHom3DPer2D::ToPlane</text>
</a>
</g>
</g>
<!-- Node2 -->
<g id="Node000002" class="node">
<title>Node2</title>
<g id="a_Node000002"><a xlink:href="classGreenFHom3DPer2D.html#a3160d2ff20a3ec478d2fb6e9b72cf79d" target="_top" xlink:title="Common initialization: set lookup flags, build reciprocal lattice, project k, choose Ewald parameter.">
<polygon fill="white" stroke="#666666" points="575.25,-117.75 436.25,-117.75 436.25,-97 575.25,-97 575.25,-117.75"/>
<text xml:space="preserve" text-anchor="middle" x="505.75" y="-104.25" font-family="Helvetica,sans-Serif" font-size="10.00">GreenFHom3DPer2D::Init</text>
</a>
</g>
</g>
<!-- Node1&#45;&gt;Node2 -->
<g id="edge1_Node000001_Node000002" class="edge">
<title>Node1&#45;&gt;Node2</title>
<g id="a_edge1_Node000001_Node000002"><a xlink:title=" ">
<path fill="none" stroke="#63b8ff" d="M599.45,-107.38C591.42,-107.38 583.38,-107.38 575.58,-107.38"/>
<polygon fill="#63b8ff" stroke="#63b8ff" points="599.26,-110.88 609.26,-107.38 599.26,-103.88 599.26,-110.88"/>
</a>
</g>
</g>
<!-- Node3 -->
<g id="Node000003" class="node">
<title>Node3</title>
<g id="a_Node000003"><a xlink:href="classGreenFHom3DPer2D.html#ad3b0693d618bd75c472df152d72760e7" target="_top" xlink:title="Constructor for a magnetic medium (2D periodic).">
<polygon fill="white" stroke="#666666" points="400.25,-150.12 212.5,-150.12 212.5,-116.62 400.25,-116.62 400.25,-150.12"/>
<text xml:space="preserve" text-anchor="start" x="220.5" y="-136.62" font-family="Helvetica,sans-Serif" font-size="10.00">GreenFHom3DPer2D::GreenFHom3</text>
<text xml:space="preserve" text-anchor="middle" x="306.38" y="-123.88" font-family="Helvetica,sans-Serif" font-size="10.00">DPer2D</text>
</a>
</g>
</g>
<!-- Node2&#45;&gt;Node3 -->
<g id="edge2_Node000002_Node000003" class="edge">
<title>Node2&#45;&gt;Node3</title>
<g id="a_edge2_Node000002_Node000003"><a xlink:title=" ">
<path fill="none" stroke="#63b8ff" d="M424.82,-117.9C416.82,-118.96 408.66,-120.03 400.54,-121.1"/>
<polygon fill="#63b8ff" stroke="#63b8ff" points="425.04,-121.41 434.49,-116.63 424.12,-114.47 425.04,-121.41"/>
</a>
</g>
</g>
<!-- Node4 -->
<g id="Node000004" class="node">
<title>Node4</title>
<g id="a_Node000004"><a xlink:href="classGreenFHom3DPer2D.html#a6e7bfc8640c70e6dfaa9f8e14cb916ea" target="_top" xlink:title="Constructor for a non&#45;magnetic medium (2D periodic).">
<polygon fill="white" stroke="#666666" points="400.25,-98.12 212.5,-98.12 212.5,-64.62 400.25,-64.62 400.25,-98.12"/>
<text xml:space="preserve" text-anchor="start" x="220.5" y="-84.62" font-family="Helvetica,sans-Serif" font-size="10.00">GreenFHom3DPer2D::GreenFHom3</text>
<text xml:space="preserve" text-anchor="middle" x="306.38" y="-71.88" font-family="Helvetica,sans-Serif" font-size="10.00">DPer2D</text>
</a>
</g>
</g>
<!-- Node2&#45;&gt;Node4 -->
<g id="edge3_Node000002_Node000004" class="edge">
<title>Node2&#45;&gt;Node4</title>
<g id="a_edge3_Node000002_Node000004"><a xlink:title=" ">
<path fill="none" stroke="#63b8ff" d="M424.82,-96.85C416.82,-95.79 408.66,-94.72 400.54,-93.65"/>
<polygon fill="#63b8ff" stroke="#63b8ff" points="424.12,-100.28 434.49,-98.12 425.04,-93.34 424.12,-100.28"/>
</a>
</g>
</g>
<!-- Node5 -->
<g id="Node000005" class="node">
<title>Node5</title>
<g id="a_Node000005"><a xlink:href="classGreenFHom3DPer2D.html#a233c2185952220bd16acae2142f05cc1" target="_top" xlink:title="term at an observation point.">
<polygon fill="white" stroke="#666666" points="172,-176.12 4.5,-176.12 4.5,-142.62 172,-142.62 172,-176.12"/>
<text xml:space="preserve" text-anchor="start" x="12.5" y="-162.62" font-family="Helvetica,sans-Serif" font-size="10.00">GreenFHom3DPer2D::Integrate</text>
<text xml:space="preserve" text-anchor="middle" x="88.25" y="-149.88" font-family="Helvetica,sans-Serif" font-size="10.00">Delta</text>
</a>
</g>
</g>
<!-- Node4&#45;&gt;Node5 -->
<g id="edge4_Node000004_Node000005" class="edge">
<title>Node4&#45;&gt;Node5</title>
<g id="a_edge4_Node000004_Node000005"><a xlink:title=" ">
<path fill="none" stroke="#63b8ff" d="M223.33,-102.59C219.63,-104.09 216,-105.69 212.5,-107.38 194.72,-115.95 194.21,-124.66 176.5,-133.38 169.84,-136.66 162.68,-139.61 155.43,-142.24"/>
<polygon fill="#63b8ff" stroke="#63b8ff" points="224.4,-105.93 232.52,-99.11 221.93,-99.38 224.4,-105.93"/>
</a>
</g>
</g>
<!-- Node6 -->
<g id="Node000006" class="node">
<title>Node6</title>
<g id="a_Node000006"><a xlink:href="classGreenFHom3DPer2D.html#aadb534ef4509422e6f3e78a0e3999758" target="_top" xlink:title="term at an observation point.">
<polygon fill="white" stroke="#666666" points="172,-124.12 4.5,-124.12 4.5,-90.62 172,-90.62 172,-124.12"/>
<text xml:space="preserve" text-anchor="start" x="12.5" y="-110.62" font-family="Helvetica,sans-Serif" font-size="10.00">GreenFHom3DPer2D::Integrate</text>
<text xml:space="preserve" text-anchor="middle" x="88.25" y="-97.88" font-family="Helvetica,sans-Serif" font-size="10.00">Kappa</text>
</a>
</g>
</g>
<!-- Node4&#45;&gt;Node6 -->
<g id="edge5_Node000004_Node000006" class="edge">
<title>Node4&#45;&gt;Node6</title>
<g id="a_edge5_Node000004_Node000006"><a xlink:title=" ">
<path fill="none" stroke="#63b8ff" d="M200.91,-93.94C191.31,-95.1 181.67,-96.26 172.3,-97.38"/>
<polygon fill="#63b8ff" stroke="#63b8ff" points="201.14,-97.44 210.65,-92.77 200.3,-90.49 201.14,-97.44"/>
</a>
</g>
</g>
<!-- Node7 -->
<g id="Node000007" class="node">
<title>Node7</title>
<g id="a_Node000007"><a xlink:href="classGreenFHom3DPer2D.html#a84a8c855a27c895ff24f6771037284a5" target="_top" xlink:title="Compute &#160;for all RWGs on a source triangle.">
<polygon fill="white" stroke="#666666" points="169.38,-72.12 7.12,-72.12 7.12,-38.62 169.38,-38.62 169.38,-72.12"/>
<text xml:space="preserve" text-anchor="start" x="15.12" y="-58.62" font-family="Helvetica,sans-Serif" font-size="10.00">GreenFHom3DPer2D::SameTri</text>
<text xml:space="preserve" text-anchor="middle" x="88.25" y="-45.88" font-family="Helvetica,sans-Serif" font-size="10.00">DeltaKappa</text>
</a>
</g>
</g>
<!-- Node4&#45;&gt;Node7 -->
<g id="edge6_Node000004_Node000007" class="edge">
<title>Node4&#45;&gt;Node7</title>
<g id="a_edge6_Node000004_Node000007"><a xlink:title=" ">
<path fill="none" stroke="#63b8ff" d="M200.81,-68.8C190.32,-67.53 179.79,-66.27 169.61,-65.04"/>
<polygon fill="#63b8ff" stroke="#63b8ff" points="200.3,-72.26 210.65,-69.98 201.14,-65.31 200.3,-72.26"/>
</a>
</g>
</g>
<!-- Node8 -->
<g id="Node000008" class="node">
<title>Node8</title>
<g id="a_Node000008"><a xlink:href="classGreenFHom3DPer2D.html#a1dc9dd84c93ee10b2fb4b1866103d957" target="_top" xlink:title="Compute &#160;and &#160;for all RWG pairs on two triangles.">
<polygon fill="white" stroke="#666666" points="176.5,-20.75 0,-20.75 0,0 176.5,0 176.5,-20.75"/>
<text xml:space="preserve" text-anchor="middle" x="88.25" y="-7.25" font-family="Helvetica,sans-Serif" font-size="10.00">GreenFHom3DPer2D::SameTriDK</text>
</a>
</g>
</g>
<!-- Node4&#45;&gt;Node8 -->
<g id="edge7_Node000004_Node000008" class="edge">
<title>Node4&#45;&gt;Node8</title>
<g id="a_edge7_Node000004_Node000008"><a xlink:title=" ">
<path fill="none" stroke="#63b8ff" d="M257.08,-59.63C233.18,-49.45 203.69,-37.76 176.5,-29.38 166.57,-26.32 155.87,-23.56 145.47,-21.15"/>
<polygon fill="#63b8ff" stroke="#63b8ff" points="255.68,-62.84 266.25,-63.58 258.45,-56.41 255.68,-62.84"/>
</a>
</g>
</g>
</g>
</svg>

<g id="navigator" transform="translate(0 0)" fill="#404254">
  <rect fill="#f2f5e9" fill-opacity="0.5" stroke="#606060" stroke-width=".5" x="0" y="0" width="60" height="60"/>
  <use id="zoomplus" xlink:href="#zoomPlus" x="17" y="9" onmousedown="handleZoom(evt,'in')"/>
  <use id="zoomminus" xlink:href="#zoomMin" x="42" y="9" onmousedown="handleZoom(evt,'out')"/>
  <use id="reset" xlink:href="#resetDef" x="30" y="36" onmousedown="handleReset()"/>
   <use id="arrowup" xlink:href="#arrowUp" x="0" y="0" onmousedown="handlePan(0,-1)"/>
  <use id="arrowright" xlink:href="#arrowRight" x="0" y="0" onmousedown="handlePan(1,0)"/>
  <use id="arrowdown" xlink:href="#arrowDown" x="0" y="0" onmousedown="handlePan(0,1)"/>
  <use id="arrowleft" xlink:href="#arrowLeft" x="0" y="0" onmousedown="handlePan(-1,0)"/>
</g>
<svg viewBox="0 0 15 15" width="100%" height="30px" preserveAspectRatio="xMaxYMin meet">
 <g id="arrow_out" transform="scale(0.3 0.3)">
  <a xlink:href="classGreenFHom3DPer2D_a9352fdb0ead2b5956f3e951122f73e18_icgraph_org.svg" target="_base">
   <rect id="button" ry="5" rx="5" y="6" x="6" height="38" width="38"
        fill="#f2f5e9" fill-opacity="0.5" stroke="#606060" stroke-width="1.0"/>
   <path id="arrow"
     d="M 11.500037,31.436501 C 11.940474,20.09759 22.043105,11.32322 32.158766,21.979434 L 37.068811,17.246167 C 37.068811,17.246167 37.088388,32 37.088388,32 L 22.160133,31.978069 C 22.160133,31.978069 26.997745,27.140456 26.997745,27.140456 C 18.528582,18.264221 13.291696,25.230495 11.500037,31.436501 z"
     style="fill:#404040;"/>
  </a>
 </g>
</svg>

<style type='text/css'>
<![CDATA[
[data-mouse-over-selected='false'] { opacity: 0.7; }
[data-mouse-over-selected='true']  { opacity: 1.0; }
]]>
</style>
<script type="application/ecmascript"><![CDATA[
document.addEventListener('DOMContentLoaded', (event) => {
  highlightEdges();
  highlightAdjacentNodes();
});
]]></script>
</svg>
