<?xml version="1.0" encoding="UTF-8" standalone="no"?>
<!DOCTYPE svg PUBLIC "-//W3C//DTD SVG 1.1//EN"
 "http://www.w3.org/Graphics/SVG/1.1/DTD/svg11.dtd">
<!-- Generated by graphviz version 13.1.2 (20250809.0930)
 -->
<!-- Title: LayeredMediaUtils::InterfaceTransferMatrix Pages: 1 -->
<svg width="437pt" height="112pt"
 viewBox="0.00 0.00 437.00 112.00" xmlns="http://www.w3.org/2000/svg" xmlns:xlink="http://www.w3.org/1999/xlink">
<g id="graph0" class="graph" transform="scale(1 1) rotate(0) translate(4 107.5)">
<title>LayeredMediaUtils::InterfaceTransferMatrix</title>
<!-- Node1 -->
<g id="Node000001" class="node">
<title>Node1</title>
<g id="a_Node000001"><a xlink:title="Computes the interface transfer matrix for TE or TM waves.">
<polygon fill="#999999" stroke="#666666" points="429,-68.5 299,-68.5 299,-35 429,-35 429,-68.5"/>
<text xml:space="preserve" text-anchor="start" x="307" y="-55" font-family="Helvetica,sans-Serif" font-size="10.00">LayeredMediaUtils::</text>
<text xml:space="preserve" text-anchor="middle" x="364" y="-42.25" font-family="Helvetica,sans-Serif" font-size="10.00">InterfaceTransferMatrix</text>
</a>
</g>
</g>
<!-- Node2 -->
<g id="Node000002" class="node">
<title>Node2</title>
<g id="a_Node000002"><a xlink:href="classLayeredMediaUtils.html#a6d538561bc5345114e83f7939247866f" target="_top" xlink:title="Computes secondary wave coefficients for a given observation and source layer.">
<polygon fill="white" stroke="#666666" points="263,-98.5 149.5,-98.5 149.5,-65 263,-65 263,-98.5"/>
<text xml:space="preserve" text-anchor="start" x="157.5" y="-85" font-family="Helvetica,sans-Serif" font-size="10.00">LayeredMediaUtils::</text>
<text xml:space="preserve" text-anchor="middle" x="206.25" y="-72.25" font-family="Helvetica,sans-Serif" font-size="10.00">Secondary</text>
</a>
</g>
</g>
<!-- Node1&#45;&gt;Node2 -->
<g id="edge1_Node000001_Node000002" class="edge">
<title>Node1&#45;&gt;Node2</title>
<g id="a_edge1_Node000001_Node000002"><a xlink:title=" ">
<path fill="none" stroke="#63b8ff" d="M287.66,-66.26C279.49,-67.84 271.28,-69.42 263.39,-70.94"/>
<polygon fill="#63b8ff" stroke="#63b8ff" points="288.11,-69.74 297.27,-64.41 286.78,-62.87 288.11,-69.74"/>
</a>
</g>
</g>
<!-- Node4 -->
<g id="Node000004" class="node">
<title>Node4</title>
<g id="a_Node000004"><a xlink:href="classLayeredMediaUtils.html#a796d55e02d56c610cae065557bc64c10" target="_top" xlink:title="Computes the total transfer matrix for the entire layered structure.">
<polygon fill="white" stroke="#666666" points="263,-42.5 149.5,-42.5 149.5,-9 263,-9 263,-42.5"/>
<text xml:space="preserve" text-anchor="start" x="157.5" y="-29" font-family="Helvetica,sans-Serif" font-size="10.00">LayeredMediaUtils::</text>
<text xml:space="preserve" text-anchor="middle" x="206.25" y="-16.25" font-family="Helvetica,sans-Serif" font-size="10.00">totalTransferMatrix</text>
</a>
</g>
</g>
<!-- Node1&#45;&gt;Node4 -->
<g id="edge3_Node000001_Node000004" class="edge">
<title>Node1&#45;&gt;Node4</title>
<g id="a_edge3_Node000001_Node000004"><a xlink:title=" ">
<path fill="none" stroke="#63b8ff" d="M287.66,-39.17C279.49,-37.81 271.28,-36.44 263.39,-35.12"/>
<polygon fill="#63b8ff" stroke="#63b8ff" points="286.82,-42.58 297.26,-40.78 287.97,-35.68 286.82,-42.58"/>
</a>
</g>
</g>
<!-- Node3 -->
<g id="Node000003" class="node">
<title>Node3</title>
<g id="a_Node000003"><a xlink:href="classLayeredMediaUtils.html#ab1660d136377d8e6d7878973475146a8" target="_top" xlink:title="Computes electromagnetic fields at observation points given a source position.">
<polygon fill="white" stroke="#666666" points="113.5,-103.5 0,-103.5 0,-70 113.5,-70 113.5,-103.5"/>
<text xml:space="preserve" text-anchor="start" x="8" y="-90" font-family="Helvetica,sans-Serif" font-size="10.00">LayeredMediaUtils::</text>
<text xml:space="preserve" text-anchor="middle" x="56.75" y="-77.25" font-family="Helvetica,sans-Serif" font-size="10.00">Fields</text>
</a>
</g>
</g>
<!-- Node2&#45;&gt;Node3 -->
<g id="edge2_Node000002_Node000003" class="edge">
<title>Node2&#45;&gt;Node3</title>
<g id="a_edge2_Node000002_Node000003"><a xlink:title=" ">
<path fill="none" stroke="#63b8ff" d="M137.81,-84.04C129.77,-84.31 121.63,-84.58 113.78,-84.85"/>
<polygon fill="#63b8ff" stroke="#63b8ff" points="137.68,-87.54 147.55,-83.71 137.44,-80.55 137.68,-87.54"/>
</a>
</g>
</g>
<!-- Node5 -->
<g id="Node000005" class="node">
<title>Node5</title>
<g id="a_Node000005"><a xlink:href="classLayeredMediaUtils.html#a55529dbdb069b59a6252ab2e446186a0" target="_top" xlink:title="Computes reflection and transmission coefficients for the entire layered structure.">
<polygon fill="white" stroke="#666666" points="113.5,-33.5 0,-33.5 0,0 113.5,0 113.5,-33.5"/>
<text xml:space="preserve" text-anchor="start" x="8" y="-20" font-family="Helvetica,sans-Serif" font-size="10.00">LayeredMediaUtils::</text>
<text xml:space="preserve" text-anchor="middle" x="56.75" y="-7.25" font-family="Helvetica,sans-Serif" font-size="10.00">totalFresnelCoeffs</text>
</a>
</g>
</g>
<!-- Node4&#45;&gt;Node5 -->
<g id="edge4_Node000004_Node000005" class="edge">
<title>Node4&#45;&gt;Node5</title>
<g id="a_edge4_Node000004_Node000005"><a xlink:title=" ">
<path fill="none" stroke="#63b8ff" d="M137.81,-21.63C129.77,-21.14 121.63,-20.65 113.78,-20.17"/>
<polygon fill="#63b8ff" stroke="#63b8ff" points="137.36,-25.11 147.56,-22.23 137.79,-18.13 137.36,-25.11"/>
</a>
</g>
</g>
<!-- Node5&#45;&gt;Node5 -->
<g id="edge5_Node000005_Node000005" class="edge">
<title>Node5&#45;&gt;Node5</title>
<g id="a_edge5_Node000005_Node000005"><a xlink:title=" ">
<path fill="none" stroke="#63b8ff" d="M81.5,-45.22C77.3,-48.99 69.05,-51.5 56.75,-51.5 34.27,-51.5 25.31,-43.12 29.88,-33.91"/>
<polygon fill="#63b8ff" stroke="#63b8ff" points="84.94,-45.88 83.35,-35.4 78.06,-44.58 84.94,-45.88"/>
</a>
</g>
</g>
</g>
</svg>
