<?xml version="1.0" encoding="UTF-8" standalone="no"?>
<!DOCTYPE svg PUBLIC "-//W3C//DTD SVG 1.1//EN"
 "http://www.w3.org/Graphics/SVG/1.1/DTD/svg11.dtd">
<!-- Generated by graphviz version 13.1.2 (20250809.0930)
 -->
<!-- Title: SommerfeldIntegrator::integrationFIntra Pages: 1 -->
<!--zoomable 110 -->

<svg id="main" version="1.1" xmlns="http://www.w3.org/2000/svg" xmlns:xlink="http://www.w3.org/1999/xlink" xml:space="preserve" onload="init(evt)">

<style type="text/css"><![CDATA[
.node, .edge {opacity: 0.7;}
.node.selected, .edge.selected {opacity: 1;}
.edge:hover path { stroke: red; }
.edge:hover polygon { stroke: red; fill: red; }
]]></style>

<defs>
  <circle id="rim" cx="0" cy="0" r="7"/>
  <circle id="rim2" cx="0" cy="0" r="3.5"/>
  <g id="zoomPlus">
    <use xlink:href="#rim" fill="#404040"><set attributeName="fill" to="#808080" begin="zoomplus.mouseover" end="zoomplus.mouseout"/></use>
    <path d="M-4,0h8M0,-4v8" fill="none" stroke="white" stroke-width="1.5" pointer-events="none"/>
  </g>
  <g id="zoomMin">
    <use xlink:href="#rim" fill="#404040"><set attributeName="fill" to="#808080" begin="zoomminus.mouseover" end="zoomminus.mouseout"/></use>
    <path d="M-4,0h8" fill="none" stroke="white" stroke-width="1.5" pointer-events="none"/>
  </g>
  <g id="arrowUp" transform="translate(30 24)">
    <use xlink:href="#rim"/>
    <path pointer-events="none" fill="none" stroke="white" stroke-width="1.5" d="M0,-3.0v7 M-2.5,-0.5L0,-3.0L2.5,-0.5"/>
  </g>
  <g id="arrowRight" transform="rotate(90) translate(36 -43)">
    <use xlink:href="#rim"/>
    <path pointer-events="none" fill="none" stroke="white" stroke-width="1.5" d="M0,-3.0v7 M-2.5,-0.5L0,-3.0L2.5,-0.5"/>
  </g>
  <g id="arrowDown" transform="rotate(180) translate(-30 -48)">
    <use xlink:href="#rim"/>
    <path pointer-events="none" fill="none" stroke="white" stroke-width="1.5" d="M0,-3.0v7 M-2.5,-0.5L0,-3.0L2.5,-0.5"/>
  </g>
  <g id="arrowLeft" transform="rotate(270) translate(-36 17)">
    <use xlink:href="#rim"/>
    <path pointer-events="none" fill="none" stroke="white" stroke-width="1.5" d="M0,-3.0v7 M-2.5,-0.5L0,-3.0L2.5,-0.5"/>
  </g>
  <g id="resetDef">
    <use xlink:href="#rim2" fill="#404040"><set attributeName="fill" to="#808080" begin="reset.mouseover" end="reset.mouseout"/></use>
  </g>
</defs>
<script type="application/ecmascript">
var viewWidth = 651;
var viewHeight = 110;
var sectionId = 'dynsection-6';
</script>
<script type="application/ecmascript" xlink:href="svg.min.js"/>
<svg id="graph" class="graph">
<g id="viewport">
<title>SommerfeldIntegrator::integrationFIntra</title>
<!-- Node1 -->
<g id="Node000001" class="node">
<title>Node1</title>
<g id="a_Node000001"><a xlink:title="Computes the intra&#45;layer integration function.">
<polygon fill="#999999" stroke="#666666" points="124,-85.12 0,-85.12 0,-51.62 124,-51.62 124,-85.12"/>
<text xml:space="preserve" text-anchor="start" x="8" y="-71.62" font-family="Helvetica,sans-Serif" font-size="10.00">SommerfeldIntegrator</text>
<text xml:space="preserve" text-anchor="middle" x="62" y="-58.88" font-family="Helvetica,sans-Serif" font-size="10.00">::integrationFIntra</text>
</a>
</g>
</g>
<!-- Node2 -->
<g id="Node000002" class="node">
<title>Node2</title>
<g id="a_Node000002"><a xlink:href="structIntegrandIntra.html#ae90efd1a4b53a5aa3a88ea39106e61af" target="_top" xlink:title="Function to create a flattened structure.">
<polygon fill="white" stroke="#666666" points="283.25,-101.75 160.75,-101.75 160.75,-81 283.25,-81 283.25,-101.75"/>
<text xml:space="preserve" text-anchor="middle" x="222" y="-88.25" font-family="Helvetica,sans-Serif" font-size="10.00">IntegrandIntra::flatten</text>
</a>
</g>
</g>
<!-- Node1&#45;&gt;Node2 -->
<g id="edge1_Node000001_Node000002" class="edge">
<title>Node1&#45;&gt;Node2</title>
<g id="a_edge1_Node000001_Node000002"><a xlink:title=" ">
<path fill="none" stroke="#63b8ff" d="M124.09,-77.27C132.27,-78.46 140.72,-79.69 149.06,-80.9"/>
<polygon fill="#63b8ff" stroke="#63b8ff" points="148.44,-84.35 158.84,-82.33 149.45,-77.42 148.44,-84.35"/>
</a>
</g>
</g>
<!-- Node5 -->
<g id="Node000005" class="node">
<title>Node5</title>
<g id="a_Node000005"><a xlink:href="classSommerfeldIntegrator.html#a0e528bbac3a3c169464f71e1c1196711" target="_top" xlink:title="Computes the intra&#45;layer Green&#39;s function integrand.">
<polygon fill="white" stroke="#666666" points="284,-63.12 160,-63.12 160,-29.62 284,-29.62 284,-63.12"/>
<text xml:space="preserve" text-anchor="start" x="168" y="-49.62" font-family="Helvetica,sans-Serif" font-size="10.00">SommerfeldIntegrator</text>
<text xml:space="preserve" text-anchor="middle" x="222" y="-36.88" font-family="Helvetica,sans-Serif" font-size="10.00">::IntraIntegrand</text>
</a>
</g>
</g>
<!-- Node1&#45;&gt;Node5 -->
<g id="edge4_Node000001_Node000005" class="edge">
<title>Node1&#45;&gt;Node5</title>
<g id="a_edge4_Node000001_Node000005"><a xlink:title=" ">
<path fill="none" stroke="#63b8ff" d="M124.09,-59.87C132,-58.77 140.16,-57.63 148.23,-56.51"/>
<polygon fill="#63b8ff" stroke="#63b8ff" points="148.63,-59.99 158.06,-55.14 147.67,-53.05 148.63,-59.99"/>
</a>
</g>
</g>
<!-- Node3 -->
<g id="Node000003" class="node">
<title>Node3</title>
<g id="a_Node000003"><a xlink:href="structIntegrandIntra.html#aa1346f5db4418f246e38a86b47482af5" target="_top" xlink:title="Helper function to extract selected elements from a 2D vector.">
<polygon fill="white" stroke="#666666" points="473.25,-101.75 320,-101.75 320,-81 473.25,-81 473.25,-101.75"/>
<text xml:space="preserve" text-anchor="middle" x="396.62" y="-88.25" font-family="Helvetica,sans-Serif" font-size="10.00">IntegrandIntra::flattenVector</text>
</a>
</g>
</g>
<!-- Node2&#45;&gt;Node3 -->
<g id="edge2_Node000002_Node000003" class="edge">
<title>Node2&#45;&gt;Node3</title>
<g id="a_edge2_Node000002_Node000003"><a xlink:title=" ">
<path fill="none" stroke="#63b8ff" d="M283.38,-91.38C291.4,-91.38 299.75,-91.38 308.11,-91.38"/>
<polygon fill="#63b8ff" stroke="#63b8ff" points="307.99,-94.88 317.99,-91.38 307.99,-87.88 307.99,-94.88"/>
</a>
</g>
</g>
<!-- Node4 -->
<g id="Node000004" class="node">
<title>Node4</title>
<g id="a_Node000004"><a xlink:href="structIntegrandIntra.html#af909e5fd6a7e84bf7688bbec4656326b" target="_top" xlink:title="Helper function to safely access matrix elements.">
<polygon fill="white" stroke="#666666" points="643,-101.75 509.25,-101.75 509.25,-81 643,-81 643,-101.75"/>
<text xml:space="preserve" text-anchor="middle" x="576.12" y="-88.25" font-family="Helvetica,sans-Serif" font-size="10.00">IntegrandIntra::getValue</text>
</a>
</g>
</g>
<!-- Node3&#45;&gt;Node4 -->
<g id="edge3_Node000003_Node000004" class="edge">
<title>Node3&#45;&gt;Node4</title>
<g id="a_edge3_Node000003_Node000004"><a xlink:title=" ">
<path fill="none" stroke="#63b8ff" d="M473.67,-91.38C481.58,-91.38 489.62,-91.38 497.53,-91.38"/>
<polygon fill="#63b8ff" stroke="#63b8ff" points="497.51,-94.88 507.51,-91.38 497.51,-87.88 497.51,-94.88"/>
</a>
</g>
</g>
<!-- Node6 -->
<g id="Node000006" class="node">
<title>Node6</title>
<g id="a_Node000006"><a xlink:href="SommerfeldIntegrator_8cpp.html#a93b85379d21563ca5aba6f5eff053826" target="_top" xlink:title="Computes the Bessel function .">
<polygon fill="white" stroke="#666666" points="421.88,-59.75 371.38,-59.75 371.38,-39 421.88,-39 421.88,-59.75"/>
<text xml:space="preserve" text-anchor="middle" x="396.62" y="-46.25" font-family="Helvetica,sans-Serif" font-size="10.00">besselJ</text>
</a>
</g>
</g>
<!-- Node5&#45;&gt;Node6 -->
<g id="edge5_Node000005_Node000006" class="edge">
<title>Node5&#45;&gt;Node6</title>
<g id="a_edge5_Node000005_Node000006"><a xlink:title=" ">
<path fill="none" stroke="#63b8ff" d="M284.35,-47.44C309.53,-47.88 337.82,-48.37 359.57,-48.75"/>
<polygon fill="#63b8ff" stroke="#63b8ff" points="359.35,-52.24 369.41,-48.92 359.47,-45.25 359.35,-52.24"/>
</a>
</g>
</g>
<!-- Node8 -->
<g id="Node000008" class="node">
<title>Node8</title>
<g id="a_Node000008"><a xlink:href="SommerfeldIntegrator_8cpp.html#aa15340ecd95146df9ef36735f56c3417" target="_top" xlink:title="Computes the Hankel function .">
<polygon fill="white" stroke="#666666" points="424.5,-20.75 368.75,-20.75 368.75,0 424.5,0 424.5,-20.75"/>
<text xml:space="preserve" text-anchor="middle" x="396.62" y="-7.25" font-family="Helvetica,sans-Serif" font-size="10.00">hankelH</text>
</a>
</g>
</g>
<!-- Node5&#45;&gt;Node8 -->
<g id="edge7_Node000005_Node000008" class="edge">
<title>Node5&#45;&gt;Node8</title>
<g id="a_edge7_Node000005_Node000008"><a xlink:title=" ">
<path fill="none" stroke="#63b8ff" d="M284.35,-33.58C308.71,-28.5 335.98,-22.81 357.43,-18.34"/>
<polygon fill="#63b8ff" stroke="#63b8ff" points="358.13,-21.77 367.21,-16.3 356.71,-14.92 358.13,-21.77"/>
</a>
</g>
</g>
<!-- Node7 -->
<g id="Node000007" class="node">
<title>Node7</title>
<g id="a_Node000007"><a xlink:href="SommerfeldIntegrator_8cpp.html#a384f5925eef2fc5d52e72a65c50174c7" target="_top" xlink:title="Compute complex Bessel functions of the first kind .">
<polygon fill="white" stroke="#666666" points="599.5,-59.75 552.75,-59.75 552.75,-39 599.5,-39 599.5,-59.75"/>
<text xml:space="preserve" text-anchor="middle" x="576.12" y="-46.25" font-family="Helvetica,sans-Serif" font-size="10.00">zbesj_</text>
</a>
</g>
</g>
<!-- Node6&#45;&gt;Node7 -->
<g id="edge6_Node000006_Node000007" class="edge">
<title>Node6&#45;&gt;Node7</title>
<g id="a_edge6_Node000006_Node000007"><a xlink:title=" ">
<path fill="none" stroke="#63b8ff" d="M422.31,-49.38C453.15,-49.38 506.11,-49.38 540.87,-49.38"/>
<polygon fill="#63b8ff" stroke="#63b8ff" points="540.83,-52.88 550.83,-49.38 540.83,-45.88 540.83,-52.88"/>
</a>
</g>
</g>
<!-- Node9 -->
<g id="Node000009" class="node">
<title>Node9</title>
<g id="a_Node000009"><a xlink:href="SommerfeldIntegrator_8cpp.html#a2119f72fafe396d33e9c85025883db96" target="_top" xlink:title="Compute complex Hankel functions of the first kind or second kind .">
<polygon fill="white" stroke="#666666" points="601,-20.75 551.25,-20.75 551.25,0 601,0 601,-20.75"/>
<text xml:space="preserve" text-anchor="middle" x="576.12" y="-7.25" font-family="Helvetica,sans-Serif" font-size="10.00">zbesh_</text>
</a>
</g>
</g>
<!-- Node8&#45;&gt;Node9 -->
<g id="edge8_Node000008_Node000009" class="edge">
<title>Node8&#45;&gt;Node9</title>
<g id="a_edge8_Node000008_Node000009"><a xlink:title=" ">
<path fill="none" stroke="#63b8ff" d="M424.97,-10.38C455.76,-10.38 505.91,-10.38 539.68,-10.38"/>
<polygon fill="#63b8ff" stroke="#63b8ff" points="539.37,-13.88 549.37,-10.38 539.37,-6.88 539.37,-13.88"/>
</a>
</g>
</g>
</g>
</svg>

<g id="navigator" transform="translate(0 0)" fill="#404254">
  <rect fill="#f2f5e9" fill-opacity="0.5" stroke="#606060" stroke-width=".5" x="0" y="0" width="60" height="60"/>
  <use id="zoomplus" xlink:href="#zoomPlus" x="17" y="9" onmousedown="handleZoom(evt,'in')"/>
  <use id="zoomminus" xlink:href="#zoomMin" x="42" y="9" onmousedown="handleZoom(evt,'out')"/>
  <use id="reset" xlink:href="#resetDef" x="30" y="36" onmousedown="handleReset()"/>
   <use id="arrowup" xlink:href="#arrowUp" x="0" y="0" onmousedown="handlePan(0,-1)"/>
  <use id="arrowright" xlink:href="#arrowRight" x="0" y="0" onmousedown="handlePan(1,0)"/>
  <use id="arrowdown" xlink:href="#arrowDown" x="0" y="0" onmousedown="handlePan(0,1)"/>
  <use id="arrowleft" xlink:href="#arrowLeft" x="0" y="0" onmousedown="handlePan(-1,0)"/>
</g>
<svg viewBox="0 0 15 15" width="100%" height="30px" preserveAspectRatio="xMaxYMin meet">
 <g id="arrow_out" transform="scale(0.3 0.3)">
  <a xlink:href="classSommerfeldIntegrator_a2c805013bb6091b2010bba9a1e256a4d_cgraph_org.svg" target="_base">
   <rect id="button" ry="5" rx="5" y="6" x="6" height="38" width="38"
        fill="#f2f5e9" fill-opacity="0.5" stroke="#606060" stroke-width="1.0"/>
   <path id="arrow"
     d="M 11.500037,31.436501 C 11.940474,20.09759 22.043105,11.32322 32.158766,21.979434 L 37.068811,17.246167 C 37.068811,17.246167 37.088388,32 37.088388,32 L 22.160133,31.978069 C 22.160133,31.978069 26.997745,27.140456 26.997745,27.140456 C 18.528582,18.264221 13.291696,25.230495 11.500037,31.436501 z"
     style="fill:#404040;"/>
  </a>
 </g>
</svg>

<style type='text/css'>
<![CDATA[
[data-mouse-over-selected='false'] { opacity: 0.7; }
[data-mouse-over-selected='true']  { opacity: 1.0; }
]]>
</style>
<script type="application/ecmascript"><![CDATA[
document.addEventListener('DOMContentLoaded', (event) => {
  highlightEdges();
  highlightAdjacentNodes();
});
]]></script>
</svg>
