<?xml version="1.0" encoding="UTF-8" standalone="no"?>
<!DOCTYPE svg PUBLIC "-//W3C//DTD SVG 1.1//EN"
 "http://www.w3.org/Graphics/SVG/1.1/DTD/svg11.dtd">
<!-- Generated by graphviz version 13.1.2 (20250809.0930)
 -->
<!-- Title: GreenFHom3DPer2D::Smoothed Pages: 1 -->
<svg width="917pt" height="125pt"
 viewBox="0.00 0.00 917.00 125.00" xmlns="http://www.w3.org/2000/svg" xmlns:xlink="http://www.w3.org/1999/xlink">
<g id="graph0" class="graph" transform="scale(1 1) rotate(0) translate(4 120.75)">
<title>GreenFHom3DPer2D::Smoothed</title>
<!-- Node1 -->
<g id="Node000001" class="node">
<title>Node1</title>
<g id="a_Node000001"><a xlink:title="Smoothed scalar kernel .">
<polygon fill="#999999" stroke="#666666" points="172.75,-59.75 0,-59.75 0,-39 172.75,-39 172.75,-59.75"/>
<text xml:space="preserve" text-anchor="middle" x="86.38" y="-46.25" font-family="Helvetica,sans-Serif" font-size="10.00">GreenFHom3DPer2D::Smoothed</text>
</a>
</g>
</g>
<!-- Node2 -->
<g id="Node000002" class="node">
<title>Node2</title>
<g id="a_Node000002"><a xlink:href="classGreenFHom3DPer2D.html#aa6a46238cd2d01600780fd176a36971d" target="_top" xlink:title="Ewald&#45;summed smoothed scalar kernel.">
<polygon fill="white" stroke="#666666" points="410.75,-59.75 208.75,-59.75 208.75,-39 410.75,-39 410.75,-59.75"/>
<text xml:space="preserve" text-anchor="middle" x="309.75" y="-46.25" font-family="Helvetica,sans-Serif" font-size="10.00">GreenFHom3DPer2D::EwaldSmoothed</text>
</a>
</g>
</g>
<!-- Node1&#45;&gt;Node2 -->
<g id="edge1_Node000001_Node000002" class="edge">
<title>Node1&#45;&gt;Node2</title>
<g id="a_edge1_Node000001_Node000002"><a xlink:title=" ">
<path fill="none" stroke="#63b8ff" d="M172.96,-49.38C180.82,-49.38 188.85,-49.38 196.9,-49.38"/>
<polygon fill="#63b8ff" stroke="#63b8ff" points="196.74,-52.88 206.74,-49.38 196.74,-45.88 196.74,-52.88"/>
</a>
</g>
</g>
<!-- Node3 -->
<g id="Node000003" class="node">
<title>Node3</title>
<g id="a_Node000003"><a xlink:href="classGreenFHom3DPer2D.html#accc01158b08720b45256b17ed3536d8b" target="_top" xlink:title="Spatial part for the smoothed scalar kernel .">
<polygon fill="white" stroke="#666666" points="636,-111.12 449.75,-111.12 449.75,-77.62 636,-77.62 636,-111.12"/>
<text xml:space="preserve" text-anchor="start" x="457.75" y="-97.62" font-family="Helvetica,sans-Serif" font-size="10.00">GreenFHom3DPer2D::EwaldSpatial</text>
<text xml:space="preserve" text-anchor="middle" x="542.88" y="-84.88" font-family="Helvetica,sans-Serif" font-size="10.00">Smoothed</text>
</a>
</g>
</g>
<!-- Node2&#45;&gt;Node3 -->
<g id="edge2_Node000002_Node000003" class="edge">
<title>Node2&#45;&gt;Node3</title>
<g id="a_edge2_Node000002_Node000003"><a xlink:title=" ">
<path fill="none" stroke="#63b8ff" d="M366.4,-60.21C389.2,-64.65 416.28,-69.92 442.27,-74.98"/>
<polygon fill="#63b8ff" stroke="#63b8ff" points="441.36,-78.37 451.84,-76.85 442.7,-71.5 441.36,-78.37"/>
</a>
</g>
</g>
<!-- Node8 -->
<g id="Node000008" class="node">
<title>Node8</title>
<g id="a_Node000008"><a xlink:href="classGreenFHom3DPer2D.html#aad98b9953626259eda54006eecbcf04e" target="_top" xlink:title="Spectral (reciprocal&#45;lattice) part of Ewald sum for .">
<polygon fill="white" stroke="#666666" points="639,-59.75 446.75,-59.75 446.75,-39 639,-39 639,-59.75"/>
<text xml:space="preserve" text-anchor="middle" x="542.88" y="-46.25" font-family="Helvetica,sans-Serif" font-size="10.00">GreenFHom3DPer2D::EwaldSpectral</text>
</a>
</g>
</g>
<!-- Node2&#45;&gt;Node8 -->
<g id="edge8_Node000002_Node000008" class="edge">
<title>Node2&#45;&gt;Node8</title>
<g id="a_edge8_Node000002_Node000008"><a xlink:title=" ">
<path fill="none" stroke="#63b8ff" d="M411.12,-49.38C419.07,-49.38 427.11,-49.38 435.1,-49.38"/>
<polygon fill="#63b8ff" stroke="#63b8ff" points="434.83,-52.88 444.83,-49.38 434.83,-45.88 434.83,-52.88"/>
</a>
</g>
</g>
<!-- Node10 -->
<g id="Node000010" class="node">
<title>Node10</title>
<g id="a_Node000010"><a xlink:href="classGreenFHom3DPer2D.html#a098b4d59dde268718483b4ac9906e446" target="_top" xlink:title="Map a displacement to the primitive cell.">
<polygon fill="white" stroke="#666666" points="636,-20.75 449.75,-20.75 449.75,0 636,0 636,-20.75"/>
<text xml:space="preserve" text-anchor="middle" x="542.88" y="-7.25" font-family="Helvetica,sans-Serif" font-size="10.00">GreenFHom3DPer2D::PrimitiveCell</text>
</a>
</g>
</g>
<!-- Node2&#45;&gt;Node10 -->
<g id="edge12_Node000002_Node000010" class="edge">
<title>Node2&#45;&gt;Node10</title>
<g id="a_edge12_Node000002_Node000010"><a xlink:title=" ">
<path fill="none" stroke="#63b8ff" d="M375.13,-38.51C403.44,-33.73 436.88,-28.09 466.35,-23.12"/>
<polygon fill="#63b8ff" stroke="#63b8ff" points="466.67,-26.61 475.95,-21.5 465.5,-19.71 466.67,-26.61"/>
</a>
</g>
</g>
<!-- Node4 -->
<g id="Node000004" class="node">
<title>Node4</title>
<g id="a_Node000004"><a xlink:href="classGreenF.html#abf00726011a4eca4109bc43125218d30" target="_top" xlink:title="Evaluate erfc via the 2D lookup table if available.">
<polygon fill="white" stroke="#666666" points="762.25,-101.75 675,-101.75 675,-81 762.25,-81 762.25,-101.75"/>
<text xml:space="preserve" text-anchor="middle" x="718.62" y="-88.25" font-family="Helvetica,sans-Serif" font-size="10.00">GreenF::EvErfc</text>
</a>
</g>
</g>
<!-- Node3&#45;&gt;Node4 -->
<g id="edge3_Node000003_Node000004" class="edge">
<title>Node3&#45;&gt;Node4</title>
<g id="a_edge3_Node000003_Node000004"><a xlink:title=" ">
<path fill="none" stroke="#63b8ff" d="M636.35,-92.78C645.6,-92.62 654.76,-92.46 663.42,-92.31"/>
<polygon fill="#63b8ff" stroke="#63b8ff" points="663.42,-95.81 673.36,-92.14 663.3,-88.81 663.42,-95.81"/>
</a>
</g>
</g>
<!-- Node5 -->
<g id="Node000005" class="node">
<title>Node5</title>
<g id="a_Node000005"><a xlink:href="mathFunctions_8cpp.html#a7916c6b62310fe9cf38ec2a2890aaad4" target="_top" xlink:title="Complementary error function for complex arguments.">
<polygon fill="white" stroke="#666666" points="838.25,-116.75 798.25,-116.75 798.25,-96 838.25,-96 838.25,-116.75"/>
<text xml:space="preserve" text-anchor="middle" x="818.25" y="-103.25" font-family="Helvetica,sans-Serif" font-size="10.00">cerfc</text>
</a>
</g>
</g>
<!-- Node4&#45;&gt;Node5 -->
<g id="edge4_Node000004_Node000005" class="edge">
<title>Node4&#45;&gt;Node5</title>
<g id="a_edge4_Node000004_Node000005"><a xlink:title=" ">
<path fill="none" stroke="#63b8ff" d="M762.73,-98C770.77,-99.23 779.03,-100.5 786.6,-101.67"/>
<polygon fill="#63b8ff" stroke="#63b8ff" points="785.9,-105.1 796.32,-103.16 786.97,-98.18 785.9,-105.1"/>
</a>
</g>
</g>
<!-- Node7 -->
<g id="Node000007" class="node">
<title>Node7</title>
<g id="a_Node000007"><a xlink:href="Domain_8cpp.html#aafa3e4fa6318b2f8740f4dbd50c367e5" target="_top" xlink:title="Extract the real part of each component of a complex 3&#45;vector.">
<polygon fill="white" stroke="#666666" points="835.62,-59.75 800.88,-59.75 800.88,-39 835.62,-39 835.62,-59.75"/>
<text xml:space="preserve" text-anchor="middle" x="818.25" y="-46.25" font-family="Helvetica,sans-Serif" font-size="10.00">real</text>
</a>
</g>
</g>
<!-- Node4&#45;&gt;Node7 -->
<g id="edge6_Node000004_Node000007" class="edge">
<title>Node4&#45;&gt;Node7</title>
<g id="a_edge6_Node000004_Node000007"><a xlink:title=" ">
<path fill="none" stroke="#63b8ff" d="M744.77,-80.56C758.72,-74.55 776.08,-67.09 790.32,-60.96"/>
<polygon fill="#63b8ff" stroke="#63b8ff" points="791.29,-64.35 799.09,-57.19 788.52,-57.92 791.29,-64.35"/>
</a>
</g>
</g>
<!-- Node6 -->
<g id="Node000006" class="node">
<title>Node6</title>
<g id="a_Node000006"><a xlink:href="mathFunctions_8cpp.html#abc57cde75234d7e165a9ebcdb45f2c29" target="_top" xlink:title="Error function for complex arguments.">
<polygon fill="white" stroke="#666666" points="909,-116.75 874.25,-116.75 874.25,-96 909,-96 909,-116.75"/>
<text xml:space="preserve" text-anchor="middle" x="891.62" y="-103.25" font-family="Helvetica,sans-Serif" font-size="10.00">cerf</text>
</a>
</g>
</g>
<!-- Node5&#45;&gt;Node6 -->
<g id="edge5_Node000005_Node000006" class="edge">
<title>Node5&#45;&gt;Node6</title>
<g id="a_edge5_Node000005_Node000006"><a xlink:title=" ">
<path fill="none" stroke="#63b8ff" d="M838.38,-106.38C845.81,-106.38 854.48,-106.38 862.59,-106.38"/>
<polygon fill="#63b8ff" stroke="#63b8ff" points="862.36,-109.88 872.36,-106.38 862.36,-102.88 862.36,-109.88"/>
</a>
</g>
</g>
<!-- Node7&#45;&gt;Node7 -->
<g id="edge7_Node000007_Node000007" class="edge">
<title>Node7&#45;&gt;Node7</title>
<g id="a_edge7_Node000007_Node000007"><a xlink:title=" ">
<path fill="none" stroke="#63b8ff" d="M806.43,-60.15C801.7,-68.81 805.64,-77.75 818.25,-77.75 824.95,-77.75 829.2,-75.23 831.01,-71.56"/>
<polygon fill="#63b8ff" stroke="#63b8ff" points="834.5,-71.34 830.2,-61.66 827.53,-71.91 834.5,-71.34"/>
</a>
</g>
</g>
<!-- Node8&#45;&gt;Node4 -->
<g id="edge11_Node000008_Node000004" class="edge">
<title>Node8&#45;&gt;Node4</title>
<g id="a_edge11_Node000008_Node000004"><a xlink:title=" ">
<path fill="none" stroke="#63b8ff" d="M602.41,-60.23C614.55,-62.71 627.22,-65.48 639,-68.38 649.76,-71.02 661.26,-74.18 672.05,-77.31"/>
<polygon fill="#63b8ff" stroke="#63b8ff" points="670.93,-80.63 681.52,-80.1 672.91,-73.92 670.93,-80.63"/>
</a>
</g>
</g>
<!-- Node9 -->
<g id="Node000009" class="node">
<title>Node9</title>
<g id="a_Node000009"><a xlink:href="group__greenFunction.html#gac0a52dce23be7dacdf97c68653b6c137" target="_top" xlink:title="Complex square root with a branch cut along the negative real axis.">
<polygon fill="white" stroke="#666666" points="738.62,-59.75 698.62,-59.75 698.62,-39 738.62,-39 738.62,-59.75"/>
<text xml:space="preserve" text-anchor="middle" x="718.62" y="-46.25" font-family="Helvetica,sans-Serif" font-size="10.00">csqrt</text>
</a>
</g>
</g>
<!-- Node8&#45;&gt;Node9 -->
<g id="edge9_Node000008_Node000009" class="edge">
<title>Node8&#45;&gt;Node9</title>
<g id="a_edge9_Node000008_Node000009"><a xlink:title=" ">
<path fill="none" stroke="#63b8ff" d="M639.39,-49.38C656.54,-49.38 673.23,-49.38 686.76,-49.38"/>
<polygon fill="#63b8ff" stroke="#63b8ff" points="686.71,-52.88 696.71,-49.38 686.71,-45.88 686.71,-52.88"/>
</a>
</g>
</g>
<!-- Node9&#45;&gt;Node7 -->
<g id="edge10_Node000009_Node000007" class="edge">
<title>Node9&#45;&gt;Node7</title>
<g id="a_edge10_Node000009_Node000007"><a xlink:title=" ">
<path fill="none" stroke="#63b8ff" d="M738.91,-49.38C753.26,-49.38 773.06,-49.38 789.16,-49.38"/>
<polygon fill="#63b8ff" stroke="#63b8ff" points="789.09,-52.88 799.09,-49.38 789.09,-45.88 789.09,-52.88"/>
</a>
</g>
</g>
</g>
</svg>
