<?xml version="1.0" encoding="UTF-8" standalone="no"?>
<!DOCTYPE svg PUBLIC "-//W3C//DTD SVG 1.1//EN"
 "http://www.w3.org/Graphics/SVG/1.1/DTD/svg11.dtd">
<!-- Generated by graphviz version 13.1.2 (20250809.0930)
 -->
<!-- Title: SommerfeldIntegrator::integrationFInter Pages: 1 -->
<!--zoomable 158 -->

<svg id="main" version="1.1" xmlns="http://www.w3.org/2000/svg" xmlns:xlink="http://www.w3.org/1999/xlink" xml:space="preserve" onload="init(evt)">

<style type="text/css"><![CDATA[
.node, .edge {opacity: 0.7;}
.node.selected, .edge.selected {opacity: 1;}
.edge:hover path { stroke: red; }
.edge:hover polygon { stroke: red; fill: red; }
]]></style>

<defs>
  <circle id="rim" cx="0" cy="0" r="7"/>
  <circle id="rim2" cx="0" cy="0" r="3.5"/>
  <g id="zoomPlus">
    <use xlink:href="#rim" fill="#404040"><set attributeName="fill" to="#808080" begin="zoomplus.mouseover" end="zoomplus.mouseout"/></use>
    <path d="M-4,0h8M0,-4v8" fill="none" stroke="white" stroke-width="1.5" pointer-events="none"/>
  </g>
  <g id="zoomMin">
    <use xlink:href="#rim" fill="#404040"><set attributeName="fill" to="#808080" begin="zoomminus.mouseover" end="zoomminus.mouseout"/></use>
    <path d="M-4,0h8" fill="none" stroke="white" stroke-width="1.5" pointer-events="none"/>
  </g>
  <g id="arrowUp" transform="translate(30 24)">
    <use xlink:href="#rim"/>
    <path pointer-events="none" fill="none" stroke="white" stroke-width="1.5" d="M0,-3.0v7 M-2.5,-0.5L0,-3.0L2.5,-0.5"/>
  </g>
  <g id="arrowRight" transform="rotate(90) translate(36 -43)">
    <use xlink:href="#rim"/>
    <path pointer-events="none" fill="none" stroke="white" stroke-width="1.5" d="M0,-3.0v7 M-2.5,-0.5L0,-3.0L2.5,-0.5"/>
  </g>
  <g id="arrowDown" transform="rotate(180) translate(-30 -48)">
    <use xlink:href="#rim"/>
    <path pointer-events="none" fill="none" stroke="white" stroke-width="1.5" d="M0,-3.0v7 M-2.5,-0.5L0,-3.0L2.5,-0.5"/>
  </g>
  <g id="arrowLeft" transform="rotate(270) translate(-36 17)">
    <use xlink:href="#rim"/>
    <path pointer-events="none" fill="none" stroke="white" stroke-width="1.5" d="M0,-3.0v7 M-2.5,-0.5L0,-3.0L2.5,-0.5"/>
  </g>
  <g id="resetDef">
    <use xlink:href="#rim2" fill="#404040"><set attributeName="fill" to="#808080" begin="reset.mouseover" end="reset.mouseout"/></use>
  </g>
</defs>
<script type="application/ecmascript">
var viewWidth = 651;
var viewHeight = 158;
var sectionId = 'dynsection-4';
</script>
<script type="application/ecmascript" xlink:href="svg.min.js"/>
<svg id="graph" class="graph">
<g id="viewport">
<title>SommerfeldIntegrator::integrationFInter</title>
<!-- Node1 -->
<g id="Node000001" class="node">
<title>Node1</title>
<g id="a_Node000001"><a xlink:title="Computes the inter&#45;layer integration function.">
<polygon fill="#999999" stroke="#666666" points="124,-116.5 0,-116.5 0,-83 124,-83 124,-116.5"/>
<text xml:space="preserve" text-anchor="start" x="8" y="-103" font-family="Helvetica,sans-Serif" font-size="10.00">SommerfeldIntegrator</text>
<text xml:space="preserve" text-anchor="middle" x="62" y="-90.25" font-family="Helvetica,sans-Serif" font-size="10.00">::integrationFInter</text>
</a>
</g>
</g>
<!-- Node2 -->
<g id="Node000002" class="node">
<title>Node2</title>
<g id="a_Node000002"><a xlink:href="structIntegrandInter.html#a2668c7d108e647d129889975d618ecfc" target="_top" xlink:title="Function to create a flattened structure.">
<polygon fill="white" stroke="#666666" points="283.25,-141.12 160.75,-141.12 160.75,-120.38 283.25,-120.38 283.25,-141.12"/>
<text xml:space="preserve" text-anchor="middle" x="222" y="-127.62" font-family="Helvetica,sans-Serif" font-size="10.00">IntegrandInter::flatten</text>
</a>
</g>
</g>
<!-- Node1&#45;&gt;Node2 -->
<g id="edge1_Node000001_Node000002" class="edge">
<title>Node1&#45;&gt;Node2</title>
<g id="a_edge1_Node000001_Node000002"><a xlink:title=" ">
<path fill="none" stroke="#63b8ff" d="M124.09,-111.74C134.06,-113.69 144.43,-115.73 154.52,-117.71"/>
<polygon fill="#63b8ff" stroke="#63b8ff" points="153.78,-121.13 164.27,-119.62 155.13,-114.26 153.78,-121.13"/>
</a>
</g>
</g>
<!-- Node5 -->
<g id="Node000005" class="node">
<title>Node5</title>
<g id="a_Node000005"><a xlink:href="classSommerfeldIntegrator.html#a9467786ef80af13f1b6f4317fb6ae80a" target="_top" xlink:title="Computes the inter&#45;layer Green&#39;s function integrand.">
<polygon fill="white" stroke="#666666" points="284,-94.5 160,-94.5 160,-61 284,-61 284,-94.5"/>
<text xml:space="preserve" text-anchor="start" x="168" y="-81" font-family="Helvetica,sans-Serif" font-size="10.00">SommerfeldIntegrator</text>
<text xml:space="preserve" text-anchor="middle" x="222" y="-68.25" font-family="Helvetica,sans-Serif" font-size="10.00">::InterIntegrand</text>
</a>
</g>
</g>
<!-- Node1&#45;&gt;Node5 -->
<g id="edge4_Node000001_Node000005" class="edge">
<title>Node1&#45;&gt;Node5</title>
<g id="a_edge4_Node000001_Node000005"><a xlink:title=" ">
<path fill="none" stroke="#63b8ff" d="M124.09,-91.24C132,-90.14 140.16,-89.01 148.23,-87.88"/>
<polygon fill="#63b8ff" stroke="#63b8ff" points="148.63,-91.36 158.06,-86.51 147.67,-84.43 148.63,-91.36"/>
</a>
</g>
</g>
<!-- Node3 -->
<g id="Node000003" class="node">
<title>Node3</title>
<g id="a_Node000003"><a xlink:href="structIntegrandInter.html#a2ea9f2fbbfb494f9b9debd5f7f4f362b" target="_top" xlink:title="Extract selected elements from a 3D array into a compact 3D structure.">
<polygon fill="white" stroke="#666666" points="473.25,-150.12 320,-150.12 320,-129.38 473.25,-129.38 473.25,-150.12"/>
<text xml:space="preserve" text-anchor="middle" x="396.62" y="-136.62" font-family="Helvetica,sans-Serif" font-size="10.00">IntegrandInter::flattenVector</text>
</a>
</g>
</g>
<!-- Node2&#45;&gt;Node3 -->
<g id="edge2_Node000002_Node000003" class="edge">
<title>Node2&#45;&gt;Node3</title>
<g id="a_edge2_Node000002_Node000003"><a xlink:title=" ">
<path fill="none" stroke="#63b8ff" d="M283.38,-133.9C291.4,-134.32 299.75,-134.75 308.11,-135.19"/>
<polygon fill="#63b8ff" stroke="#63b8ff" points="307.82,-138.68 317.99,-135.7 308.19,-131.69 307.82,-138.68"/>
</a>
</g>
</g>
<!-- Node4 -->
<g id="Node000004" class="node">
<title>Node4</title>
<g id="a_Node000004"><a xlink:href="structIntegrandInter.html#adb71cb8507ba98a63b290ec0acd8d628" target="_top" xlink:title="Bounds&#45;checked access to a 3D array element.">
<polygon fill="white" stroke="#666666" points="643,-150.12 509.25,-150.12 509.25,-129.38 643,-129.38 643,-150.12"/>
<text xml:space="preserve" text-anchor="middle" x="576.12" y="-136.62" font-family="Helvetica,sans-Serif" font-size="10.00">IntegrandInter::getValue</text>
</a>
</g>
</g>
<!-- Node3&#45;&gt;Node4 -->
<g id="edge3_Node000003_Node000004" class="edge">
<title>Node3&#45;&gt;Node4</title>
<g id="a_edge3_Node000003_Node000004"><a xlink:title=" ">
<path fill="none" stroke="#63b8ff" d="M473.67,-139.75C481.58,-139.75 489.62,-139.75 497.53,-139.75"/>
<polygon fill="#63b8ff" stroke="#63b8ff" points="497.51,-143.25 507.51,-139.75 497.51,-136.25 497.51,-143.25"/>
</a>
</g>
</g>
<!-- Node6 -->
<g id="Node000006" class="node">
<title>Node6</title>
<g id="a_Node000006"><a xlink:href="SommerfeldIntegrator_8cpp.html#a93b85379d21563ca5aba6f5eff053826" target="_top" xlink:title="Computes the Bessel function .">
<polygon fill="white" stroke="#666666" points="421.88,-111.12 371.38,-111.12 371.38,-90.38 421.88,-90.38 421.88,-111.12"/>
<text xml:space="preserve" text-anchor="middle" x="396.62" y="-97.62" font-family="Helvetica,sans-Serif" font-size="10.00">besselJ</text>
</a>
</g>
</g>
<!-- Node5&#45;&gt;Node6 -->
<g id="edge5_Node000005_Node000006" class="edge">
<title>Node5&#45;&gt;Node6</title>
<g id="a_edge5_Node000005_Node000006"><a xlink:title=" ">
<path fill="none" stroke="#63b8ff" d="M284.35,-85.92C309.53,-89.28 337.82,-93.05 359.57,-95.95"/>
<polygon fill="#63b8ff" stroke="#63b8ff" points="359.05,-99.41 369.42,-97.26 359.97,-92.47 359.05,-99.41"/>
</a>
</g>
</g>
<!-- Node8 -->
<g id="Node000008" class="node">
<title>Node8</title>
<g id="a_Node000008"><a xlink:href="SommerfeldIntegrator_8cpp.html#aa15340ecd95146df9ef36735f56c3417" target="_top" xlink:title="Computes the Hankel function .">
<polygon fill="white" stroke="#666666" points="424.5,-72.12 368.75,-72.12 368.75,-51.38 424.5,-51.38 424.5,-72.12"/>
<text xml:space="preserve" text-anchor="middle" x="396.62" y="-58.62" font-family="Helvetica,sans-Serif" font-size="10.00">hankelH</text>
</a>
</g>
</g>
<!-- Node5&#45;&gt;Node8 -->
<g id="edge7_Node000005_Node000008" class="edge">
<title>Node5&#45;&gt;Node8</title>
<g id="a_edge7_Node000005_Node000008"><a xlink:title=" ">
<path fill="none" stroke="#63b8ff" d="M284.35,-72.06C308.71,-69.81 335.98,-67.28 357.43,-65.29"/>
<polygon fill="#63b8ff" stroke="#63b8ff" points="357.55,-68.79 367.18,-64.39 356.9,-61.82 357.55,-68.79"/>
</a>
</g>
</g>
<!-- Node10 -->
<g id="Node000010" class="node">
<title>Node10</title>
<g id="a_Node000010"><a xlink:href="classSommerfeldIntegrator.html#a81c32ffee2aefc0eecbbbd7235c80e70" target="_top" xlink:title="Computes secondary wave contributions in a layered medium.">
<polygon fill="white" stroke="#666666" points="458.62,-33.5 334.62,-33.5 334.62,0 458.62,0 458.62,-33.5"/>
<text xml:space="preserve" text-anchor="start" x="342.62" y="-20" font-family="Helvetica,sans-Serif" font-size="10.00">SommerfeldIntegrator</text>
<text xml:space="preserve" text-anchor="middle" x="396.62" y="-7.25" font-family="Helvetica,sans-Serif" font-size="10.00">::Secondary</text>
</a>
</g>
</g>
<!-- Node5&#45;&gt;Node10 -->
<g id="edge9_Node000005_Node000010" class="edge">
<title>Node5&#45;&gt;Node10</title>
<g id="a_edge9_Node000005_Node000010"><a xlink:title=" ">
<path fill="none" stroke="#63b8ff" d="M270.31,-60.52C286.1,-54.81 303.79,-48.46 320,-42.75 324.69,-41.1 329.56,-39.4 334.45,-37.69"/>
<polygon fill="#63b8ff" stroke="#63b8ff" points="335.41,-41.06 343.72,-34.48 333.12,-34.45 335.41,-41.06"/>
</a>
</g>
</g>
<!-- Node7 -->
<g id="Node000007" class="node">
<title>Node7</title>
<g id="a_Node000007"><a xlink:href="SommerfeldIntegrator_8cpp.html#a384f5925eef2fc5d52e72a65c50174c7" target="_top" xlink:title="Compute complex Bessel functions of the first kind .">
<polygon fill="white" stroke="#666666" points="599.5,-111.12 552.75,-111.12 552.75,-90.38 599.5,-90.38 599.5,-111.12"/>
<text xml:space="preserve" text-anchor="middle" x="576.12" y="-97.62" font-family="Helvetica,sans-Serif" font-size="10.00">zbesj_</text>
</a>
</g>
</g>
<!-- Node6&#45;&gt;Node7 -->
<g id="edge6_Node000006_Node000007" class="edge">
<title>Node6&#45;&gt;Node7</title>
<g id="a_edge6_Node000006_Node000007"><a xlink:title=" ">
<path fill="none" stroke="#63b8ff" d="M422.31,-100.75C453.15,-100.75 506.11,-100.75 540.87,-100.75"/>
<polygon fill="#63b8ff" stroke="#63b8ff" points="540.83,-104.25 550.83,-100.75 540.83,-97.25 540.83,-104.25"/>
</a>
</g>
</g>
<!-- Node9 -->
<g id="Node000009" class="node">
<title>Node9</title>
<g id="a_Node000009"><a xlink:href="SommerfeldIntegrator_8cpp.html#a2119f72fafe396d33e9c85025883db96" target="_top" xlink:title="Compute complex Hankel functions of the first kind or second kind .">
<polygon fill="white" stroke="#666666" points="601,-72.12 551.25,-72.12 551.25,-51.38 601,-51.38 601,-72.12"/>
<text xml:space="preserve" text-anchor="middle" x="576.12" y="-58.62" font-family="Helvetica,sans-Serif" font-size="10.00">zbesh_</text>
</a>
</g>
</g>
<!-- Node8&#45;&gt;Node9 -->
<g id="edge8_Node000008_Node000009" class="edge">
<title>Node8&#45;&gt;Node9</title>
<g id="a_edge8_Node000008_Node000009"><a xlink:title=" ">
<path fill="none" stroke="#63b8ff" d="M424.97,-61.75C455.76,-61.75 505.91,-61.75 539.68,-61.75"/>
<polygon fill="#63b8ff" stroke="#63b8ff" points="539.37,-65.25 549.37,-61.75 539.37,-58.25 539.37,-65.25"/>
</a>
</g>
</g>
<!-- Node11 -->
<g id="Node000011" class="node">
<title>Node11</title>
<g id="a_Node000011"><a xlink:href="classSommerfeldIntegrator.html#ac555c6dc86d0b7fb03ea49df9668daf8" target="_top" xlink:title="Computes distances from interfaces for inter&#45;layer secondary wave calculations.">
<polygon fill="white" stroke="#666666" points="638.12,-33.5 514.12,-33.5 514.12,0 638.12,0 638.12,-33.5"/>
<text xml:space="preserve" text-anchor="start" x="522.12" y="-20" font-family="Helvetica,sans-Serif" font-size="10.00">SommerfeldIntegrator</text>
<text xml:space="preserve" text-anchor="middle" x="576.12" y="-7.25" font-family="Helvetica,sans-Serif" font-size="10.00">::interDist</text>
</a>
</g>
</g>
<!-- Node10&#45;&gt;Node11 -->
<g id="edge10_Node000010_Node000011" class="edge">
<title>Node10&#45;&gt;Node11</title>
<g id="a_edge10_Node000010_Node000011"><a xlink:title=" ">
<path fill="none" stroke="#63b8ff" d="M458.71,-16.75C472.72,-16.75 487.74,-16.75 502.19,-16.75"/>
<polygon fill="#63b8ff" stroke="#63b8ff" points="502.11,-20.25 512.11,-16.75 502.11,-13.25 502.11,-20.25"/>
</a>
</g>
</g>
</g>
</svg>

<g id="navigator" transform="translate(0 0)" fill="#404254">
  <rect fill="#f2f5e9" fill-opacity="0.5" stroke="#606060" stroke-width=".5" x="0" y="0" width="60" height="60"/>
  <use id="zoomplus" xlink:href="#zoomPlus" x="17" y="9" onmousedown="handleZoom(evt,'in')"/>
  <use id="zoomminus" xlink:href="#zoomMin" x="42" y="9" onmousedown="handleZoom(evt,'out')"/>
  <use id="reset" xlink:href="#resetDef" x="30" y="36" onmousedown="handleReset()"/>
   <use id="arrowup" xlink:href="#arrowUp" x="0" y="0" onmousedown="handlePan(0,-1)"/>
  <use id="arrowright" xlink:href="#arrowRight" x="0" y="0" onmousedown="handlePan(1,0)"/>
  <use id="arrowdown" xlink:href="#arrowDown" x="0" y="0" onmousedown="handlePan(0,1)"/>
  <use id="arrowleft" xlink:href="#arrowLeft" x="0" y="0" onmousedown="handlePan(-1,0)"/>
</g>
<svg viewBox="0 0 15 15" width="100%" height="30px" preserveAspectRatio="xMaxYMin meet">
 <g id="arrow_out" transform="scale(0.3 0.3)">
  <a xlink:href="classSommerfeldIntegrator_a5479217de11e54b823a970c39580fa64_cgraph_org.svg" target="_base">
   <rect id="button" ry="5" rx="5" y="6" x="6" height="38" width="38"
        fill="#f2f5e9" fill-opacity="0.5" stroke="#606060" stroke-width="1.0"/>
   <path id="arrow"
     d="M 11.500037,31.436501 C 11.940474,20.09759 22.043105,11.32322 32.158766,21.979434 L 37.068811,17.246167 C 37.068811,17.246167 37.088388,32 37.088388,32 L 22.160133,31.978069 C 22.160133,31.978069 26.997745,27.140456 26.997745,27.140456 C 18.528582,18.264221 13.291696,25.230495 11.500037,31.436501 z"
     style="fill:#404040;"/>
  </a>
 </g>
</svg>

<style type='text/css'>
<![CDATA[
[data-mouse-over-selected='false'] { opacity: 0.7; }
[data-mouse-over-selected='true']  { opacity: 1.0; }
]]>
</style>
<script type="application/ecmascript"><![CDATA[
document.addEventListener('DOMContentLoaded', (event) => {
  highlightEdges();
  highlightAdjacentNodes();
});
]]></script>
</svg>
