<?xml version="1.0" encoding="UTF-8" standalone="no"?>
<!DOCTYPE svg PUBLIC "-//W3C//DTD SVG 1.1//EN"
 "http://www.w3.org/Graphics/SVG/1.1/DTD/svg11.dtd">
<!-- Generated by graphviz version 13.1.2 (20250809.0930)
 -->
<!-- Title: TriQuadPol::sameSign Pages: 1 -->
<svg width="635pt" height="29pt"
 viewBox="0.00 0.00 635.00 29.00" xmlns="http://www.w3.org/2000/svg" xmlns:xlink="http://www.w3.org/1999/xlink">
<g id="graph0" class="graph" transform="scale(1 1) rotate(0) translate(4 24.75)">
<title>TriQuadPol::sameSign</title>
<!-- Node1 -->
<g id="Node000001" class="node">
<title>Node1</title>
<g id="a_Node000001"><a xlink:title="Return true if a, b, c all have the same sign (non&#45;strict).">
<polygon fill="#999999" stroke="#666666" points="627.25,-20.75 505.5,-20.75 505.5,0 627.25,0 627.25,-20.75"/>
<text xml:space="preserve" text-anchor="middle" x="566.38" y="-7.25" font-family="Helvetica,sans-Serif" font-size="10.00">TriQuadPol::sameSign</text>
</a>
</g>
</g>
<!-- Node2 -->
<g id="Node000002" class="node">
<title>Node2</title>
<g id="a_Node000002"><a xlink:href="classTriQuadPol.html#ad2163791262ee9d63337474eb7bbe8d7" target="_top" xlink:title="2D triangle membership test (local plane coordinates).">
<polygon fill="white" stroke="#666666" points="469.5,-20.75 323.75,-20.75 323.75,0 469.5,0 469.5,-20.75"/>
<text xml:space="preserve" text-anchor="middle" x="396.62" y="-7.25" font-family="Helvetica,sans-Serif" font-size="10.00">TriQuadPol::pointInTriangle</text>
</a>
</g>
</g>
<!-- Node1&#45;&gt;Node2 -->
<g id="edge1_Node000001_Node000002" class="edge">
<title>Node1&#45;&gt;Node2</title>
<g id="a_edge1_Node000001_Node000002"><a xlink:title=" ">
<path fill="none" stroke="#63b8ff" d="M493.82,-10.38C485.9,-10.38 477.83,-10.38 469.9,-10.38"/>
<polygon fill="#63b8ff" stroke="#63b8ff" points="493.77,-13.88 503.77,-10.38 493.77,-6.88 493.77,-13.88"/>
</a>
</g>
</g>
<!-- Node3 -->
<g id="Node000003" class="node">
<title>Node3</title>
<g id="a_Node000003"><a xlink:href="classTriQuadPol.html#abb4388c4a651d097c0c93376c45010e3" target="_top" xlink:title="Build angular sectors and radial bounds, then assemble nodes/weights.">
<polygon fill="white" stroke="#666666" points="287.75,-20.75 161.5,-20.75 161.5,0 287.75,0 287.75,-20.75"/>
<text xml:space="preserve" text-anchor="middle" x="224.62" y="-7.25" font-family="Helvetica,sans-Serif" font-size="10.00">TriQuadPol::adaptPolar</text>
</a>
</g>
</g>
<!-- Node2&#45;&gt;Node3 -->
<g id="edge2_Node000002_Node000003" class="edge">
<title>Node2&#45;&gt;Node3</title>
<g id="a_edge2_Node000002_Node000003"><a xlink:title=" ">
<path fill="none" stroke="#63b8ff" d="M312.15,-10.38C304.07,-10.38 295.98,-10.38 288.15,-10.38"/>
<polygon fill="#63b8ff" stroke="#63b8ff" points="312.02,-13.88 322.02,-10.38 312.02,-6.88 312.02,-13.88"/>
</a>
</g>
</g>
<!-- Node4 -->
<g id="Node000004" class="node">
<title>Node4</title>
<g id="a_Node000004"><a xlink:href="classTriQuadPol.html#a4f5e17f2daa1107f7ad126c30a32958c" target="_top" xlink:title="Construct and immediately adapt the polar quadrature.">
<polygon fill="white" stroke="#666666" points="125.5,-20.75 0,-20.75 0,0 125.5,0 125.5,-20.75"/>
<text xml:space="preserve" text-anchor="middle" x="62.75" y="-7.25" font-family="Helvetica,sans-Serif" font-size="10.00">TriQuadPol::TriQuadPol</text>
</a>
</g>
</g>
<!-- Node3&#45;&gt;Node4 -->
<g id="edge3_Node000003_Node000004" class="edge">
<title>Node3&#45;&gt;Node4</title>
<g id="a_edge3_Node000003_Node000004"><a xlink:title=" ">
<path fill="none" stroke="#63b8ff" d="M150.02,-10.38C141.94,-10.38 133.77,-10.38 125.85,-10.38"/>
<polygon fill="#63b8ff" stroke="#63b8ff" points="149.84,-13.88 159.84,-10.38 149.84,-6.88 149.84,-13.88"/>
</a>
</g>
</g>
</g>
</svg>
