<?xml version="1.0" encoding="UTF-8" standalone="no"?>
<!DOCTYPE svg PUBLIC "-//W3C//DTD SVG 1.1//EN"
 "http://www.w3.org/Graphics/SVG/1.1/DTD/svg11.dtd">
<!-- Generated by graphviz version 13.1.2 (20250809.0930)
 -->
<!-- Title: GreenFLayered3D::testFillGreenFTable Pages: 1 -->
<svg width="466pt" height="210pt"
 viewBox="0.00 0.00 466.00 210.00" xmlns="http://www.w3.org/2000/svg" xmlns:xlink="http://www.w3.org/1999/xlink">

<svg id="main" version="1.1" xmlns="http://www.w3.org/2000/svg" xmlns:xlink="http://www.w3.org/1999/xlink" xml:space="preserve">

<style type="text/css"><![CDATA[
.node, .edge {opacity: 0.7;}
.node.selected, .edge.selected {opacity: 1;}
.edge:hover path { stroke: red; }
.edge:hover polygon { stroke: red; fill: red; }
]]></style>
<script type="application/ecmascript" xlink:href="svg.min.js"/>
<svg id="graph" class="graph">
<g id="graph0" class="graph" transform="scale(1 1) rotate(0) translate(4 205.5)">
<title>GreenFLayered3D::testFillGreenFTable</title>
<!-- Node1 -->
<g id="Node000001" class="node">
<title>Node1</title>
<g id="a_Node000001"><a xlink:title="Test filling of interpolation tables with Green&#39;s function values.">
<polygon fill="#999999" stroke="#666666" points="142.75,-117.5 0,-117.5 0,-84 142.75,-84 142.75,-117.5"/>
<text xml:space="preserve" text-anchor="start" x="8" y="-104" font-family="Helvetica,sans-Serif" font-size="10.00">GreenFLayered3D::testFill</text>
<text xml:space="preserve" text-anchor="middle" x="71.38" y="-91.25" font-family="Helvetica,sans-Serif" font-size="10.00">GreenFTable</text>
</a>
</g>
</g>
<!-- Node2 -->
<g id="Node000002" class="node">
<title>Node2</title>
<g id="a_Node000002"><a xlink:href="classGreenFLayered3D.html#a6c09f9ac63d604111b76842e774c65c8" target="_top" xlink:title="Evaluate 2D interpolant at one query point.">
<polygon fill="white" stroke="#666666" points="337.62,-201.5 185.12,-201.5 185.12,-168 337.62,-168 337.62,-201.5"/>
<text xml:space="preserve" text-anchor="start" x="193.12" y="-188" font-family="Helvetica,sans-Serif" font-size="10.00">GreenFLayered3D::evaluate</text>
<text xml:space="preserve" text-anchor="middle" x="261.38" y="-175.25" font-family="Helvetica,sans-Serif" font-size="10.00">SinglePoint</text>
</a>
</g>
</g>
<!-- Node1&#45;&gt;Node2 -->
<g id="edge1_Node000001_Node000002" class="edge">
<title>Node1&#45;&gt;Node2</title>
<g id="a_edge1_Node000001_Node000002"><a xlink:title=" ">
<path fill="none" stroke="#63b8ff" d="M100.09,-117.77C121.14,-130.22 151.09,-146.93 178.75,-158.75 182.79,-160.48 186.98,-162.15 191.24,-163.76"/>
<polygon fill="#63b8ff" stroke="#63b8ff" points="189.89,-166.99 200.49,-167.11 192.28,-160.41 189.89,-166.99"/>
</a>
</g>
</g>
<!-- Node4 -->
<g id="Node000004" class="node">
<title>Node4</title>
<g id="a_Node000004"><a xlink:href="GreenFLayered3D_8cpp.html#a91da5052808123dca1302a3c0f653d9a" target="_top" xlink:title="Generate uniformly spaced sample points in a 1D interval.">
<polygon fill="white" stroke="#666666" points="326,-150.12 196.75,-150.12 196.75,-129.38 326,-129.38 326,-150.12"/>
<text xml:space="preserve" text-anchor="middle" x="261.38" y="-136.62" font-family="Helvetica,sans-Serif" font-size="10.00">generateUniformPoints</text>
</a>
</g>
</g>
<!-- Node1&#45;&gt;Node4 -->
<g id="edge3_Node000001_Node000004" class="edge">
<title>Node1&#45;&gt;Node4</title>
<g id="a_edge3_Node000001_Node000004"><a xlink:title=" ">
<path fill="none" stroke="#63b8ff" d="M143.18,-115.44C160.86,-119.11 179.7,-123.01 196.99,-126.6"/>
<polygon fill="#63b8ff" stroke="#63b8ff" points="196.11,-129.99 206.62,-128.6 197.54,-123.14 196.11,-129.99"/>
</a>
</g>
</g>
<!-- Node5 -->
<g id="Node000005" class="node">
<title>Node5</title>
<g id="a_Node000005"><a xlink:href="GreenFLayered3D_8cpp.html#a00cc14542110c9977f8a47cf96cbfe60" target="_top" xlink:title="Initialize the selector map for inter&#45;layer coefficients.">
<polygon fill="white" stroke="#666666" points="291.12,-111.12 231.62,-111.12 231.62,-90.38 291.12,-90.38 291.12,-111.12"/>
<text xml:space="preserve" text-anchor="middle" x="261.38" y="-97.62" font-family="Helvetica,sans-Serif" font-size="10.00">interMap</text>
</a>
</g>
</g>
<!-- Node1&#45;&gt;Node5 -->
<g id="edge4_Node000001_Node000005" class="edge">
<title>Node1&#45;&gt;Node5</title>
<g id="a_edge4_Node000001_Node000005"><a xlink:title=" ">
<path fill="none" stroke="#63b8ff" d="M143.18,-100.75C169.12,-100.75 197.57,-100.75 219.95,-100.75"/>
<polygon fill="#63b8ff" stroke="#63b8ff" points="219.86,-104.25 229.86,-100.75 219.86,-97.25 219.86,-104.25"/>
</a>
</g>
</g>
<!-- Node6 -->
<g id="Node000006" class="node">
<title>Node6</title>
<g id="a_Node000006"><a xlink:href="GreenFLayered3D_8cpp.html#a4ed7a5ed9f037ca61716cecc33bb3a52" target="_top" xlink:title="Initialize the selector map for intra&#45;layer coefficients.">
<polygon fill="white" stroke="#666666" points="291.12,-72.12 231.62,-72.12 231.62,-51.38 291.12,-51.38 291.12,-72.12"/>
<text xml:space="preserve" text-anchor="middle" x="261.38" y="-58.62" font-family="Helvetica,sans-Serif" font-size="10.00">intraMap</text>
</a>
</g>
</g>
<!-- Node1&#45;&gt;Node6 -->
<g id="edge5_Node000001_Node000006" class="edge">
<title>Node1&#45;&gt;Node6</title>
<g id="a_edge5_Node000001_Node000006"><a xlink:title=" ">
<path fill="none" stroke="#63b8ff" d="M143.18,-86.06C169.24,-80.66 197.84,-74.72 220.26,-70.07"/>
<polygon fill="#63b8ff" stroke="#63b8ff" points="220.81,-73.53 229.89,-68.07 219.39,-66.68 220.81,-73.53"/>
</a>
</g>
</g>
<!-- Node7 -->
<g id="Node000007" class="node">
<title>Node7</title>
<g id="a_Node000007"><a xlink:href="classGreenFLayered3D.html#a74a468a93bf93bd4acd39989502a10fd" target="_top" xlink:title="Write complex data with associated 2D coordinates to a text file.">
<polygon fill="white" stroke="#666666" points="344,-33.5 178.75,-33.5 178.75,0 344,0 344,-33.5"/>
<text xml:space="preserve" text-anchor="start" x="186.75" y="-20" font-family="Helvetica,sans-Serif" font-size="10.00">GreenFLayered3D::writeVector</text>
<text xml:space="preserve" text-anchor="middle" x="261.38" y="-7.25" font-family="Helvetica,sans-Serif" font-size="10.00">ToFile</text>
</a>
</g>
</g>
<!-- Node1&#45;&gt;Node7 -->
<g id="edge6_Node000001_Node000007" class="edge">
<title>Node1&#45;&gt;Node7</title>
<g id="a_edge6_Node000001_Node000007"><a xlink:title=" ">
<path fill="none" stroke="#63b8ff" d="M100.09,-83.73C121.14,-71.28 151.09,-54.57 178.75,-42.75 182.79,-41.02 186.98,-39.35 191.24,-37.74"/>
<polygon fill="#63b8ff" stroke="#63b8ff" points="192.28,-41.09 200.49,-34.39 189.89,-34.51 192.28,-41.09"/>
</a>
</g>
</g>
<!-- Node3 -->
<g id="Node000003" class="node">
<title>Node3</title>
<g id="a_Node000003"><a xlink:href="GreenFLayered3D_8cpp.html#a8aa29777c4e70a4d7c032b4c6fb0387d" target="_top" xlink:title="External REGRIDPACK routine for evaluating a 2D interpolation function.">
<polygon fill="white" stroke="#666666" points="458.25,-195.12 380,-195.12 380,-174.38 458.25,-174.38 458.25,-195.12"/>
<text xml:space="preserve" text-anchor="middle" x="419.12" y="-181.62" font-family="Helvetica,sans-Serif" font-size="10.00">rgrd2_eval_c</text>
</a>
</g>
</g>
<!-- Node2&#45;&gt;Node3 -->
<g id="edge2_Node000002_Node000003" class="edge">
<title>Node2&#45;&gt;Node3</title>
<g id="a_edge2_Node000002_Node000003"><a xlink:title=" ">
<path fill="none" stroke="#63b8ff" d="M337.97,-184.75C348.22,-184.75 358.52,-184.75 368.16,-184.75"/>
<polygon fill="#63b8ff" stroke="#63b8ff" points="368.04,-188.25 378.04,-184.75 368.04,-181.25 368.04,-188.25"/>
</a>
</g>
</g>
<!-- Node8 -->
<g id="Node000008" class="node">
<title>Node8</title>
<g id="a_Node000008"><a xlink:href="Domain_8cpp.html#aafa3e4fa6318b2f8740f4dbd50c367e5" target="_top" xlink:title="Extract the real part of each component of a complex 3&#45;vector.">
<polygon fill="white" stroke="#666666" points="436.5,-27.12 401.75,-27.12 401.75,-6.38 436.5,-6.38 436.5,-27.12"/>
<text xml:space="preserve" text-anchor="middle" x="419.12" y="-13.62" font-family="Helvetica,sans-Serif" font-size="10.00">real</text>
</a>
</g>
</g>
<!-- Node7&#45;&gt;Node8 -->
<g id="edge7_Node000007_Node000008" class="edge">
<title>Node7&#45;&gt;Node8</title>
<g id="a_edge7_Node000007_Node000008"><a xlink:title=" ">
<path fill="none" stroke="#63b8ff" d="M344.35,-16.75C360.79,-16.75 376.99,-16.75 390,-16.75"/>
<polygon fill="#63b8ff" stroke="#63b8ff" points="389.88,-20.25 399.88,-16.75 389.88,-13.25 389.88,-20.25"/>
</a>
</g>
</g>
<!-- Node8&#45;&gt;Node8 -->
<g id="edge8_Node000008_Node000008" class="edge">
<title>Node8&#45;&gt;Node8</title>
<g id="a_edge8_Node000008_Node000008"><a xlink:title=" ">
<path fill="none" stroke="#63b8ff" d="M401.39,-22.74C381.02,-32.52 386.93,-45.12 419.12,-45.12 444.78,-45.12 453.75,-37.12 446.02,-28.92"/>
<polygon fill="#63b8ff" stroke="#63b8ff" points="448.36,-26.28 438.11,-23.59 444.45,-32.08 448.36,-26.28"/>
</a>
</g>
</g>
</g>
</svg>
</svg>

<style type='text/css'>
<![CDATA[
[data-mouse-over-selected='false'] { opacity: 0.7; }
[data-mouse-over-selected='true']  { opacity: 1.0; }
]]>
</style>
<script type="application/ecmascript"><![CDATA[
document.addEventListener('DOMContentLoaded', (event) => {
  highlightEdges();
  highlightAdjacentNodes();
});
]]></script>
</svg>
