<?xml version="1.0" encoding="UTF-8" standalone="no"?>
<!DOCTYPE svg PUBLIC "-//W3C//DTD SVG 1.1//EN"
 "http://www.w3.org/Graphics/SVG/1.1/DTD/svg11.dtd">
<!-- Generated by graphviz version 13.1.2 (20250809.0930)
 -->
<!-- Title: CLParser.h Pages: 1 -->
<svg width="353pt" height="86pt"
 viewBox="0.00 0.00 353.00 86.00" xmlns="http://www.w3.org/2000/svg" xmlns:xlink="http://www.w3.org/1999/xlink">
<g id="graph0" class="graph" transform="scale(1 1) rotate(0) translate(4 81.5)">
<title>CLParser.h</title>
<!-- Node1 -->
<g id="Node000001" class="node">
<title>Node1</title>
<g id="a_Node000001"><a xlink:title="Minimal command&#45;line argument parsing utilities.">
<polygon fill="#999999" stroke="#666666" points="194.88,-77.5 128.62,-77.5 128.62,-56.75 194.88,-56.75 194.88,-77.5"/>
<text xml:space="preserve" text-anchor="middle" x="161.75" y="-64" font-family="Helvetica,sans-Serif" font-size="10.00">CLParser.h</text>
</a>
</g>
</g>
<!-- Node2 -->
<g id="Node000002" class="node">
<title>Node2</title>
<g id="a_Node000002"><a xlink:href="casimir_8cpp.html" target="_top" xlink:title="Main entry point for the HELIOS Casimir force routine.">
<polygon fill="white" stroke="#666666" points="71.5,-20.75 0,-20.75 0,0 71.5,0 71.5,-20.75"/>
<text xml:space="preserve" text-anchor="middle" x="35.75" y="-7.25" font-family="Helvetica,sans-Serif" font-size="10.00">casimir.cpp</text>
</a>
</g>
</g>
<!-- Node1&#45;&gt;Node2 -->
<g id="edge1_Node000001_Node000002" class="edge">
<title>Node1&#45;&gt;Node2</title>
<g id="a_edge1_Node000001_Node000002"><a xlink:title=" ">
<path fill="none" stroke="#63b8ff" d="M128.88,-51.84C106.6,-42.16 77.73,-29.62 58.08,-21.08"/>
<polygon fill="#63b8ff" stroke="#63b8ff" points="127.27,-54.96 137.84,-55.73 130.06,-48.54 127.27,-54.96"/>
</a>
</g>
</g>
<!-- Node3 -->
<g id="Node000003" class="node">
<title>Node3</title>
<g id="a_Node000003"><a xlink:href="main_8cpp.html" target="_top" xlink:title="This is the main file for the HELIOS program.">
<polygon fill="white" stroke="#666666" points="150.25,-20.75 89.25,-20.75 89.25,0 150.25,0 150.25,-20.75"/>
<text xml:space="preserve" text-anchor="middle" x="119.75" y="-7.25" font-family="Helvetica,sans-Serif" font-size="10.00">main.cpp</text>
</a>
</g>
</g>
<!-- Node1&#45;&gt;Node3 -->
<g id="edge2_Node000001_Node000003" class="edge">
<title>Node1&#45;&gt;Node3</title>
<g id="a_edge2_Node000001_Node000003"><a xlink:title=" ">
<path fill="none" stroke="#63b8ff" d="M147.43,-47.46C140.63,-38.59 132.79,-28.37 127.19,-21.08"/>
<polygon fill="#63b8ff" stroke="#63b8ff" points="144.46,-49.33 153.32,-55.14 150.01,-45.07 144.46,-49.33"/>
</a>
</g>
</g>
<!-- Node4 -->
<g id="Node000004" class="node">
<title>Node4</title>
<g id="a_Node000004"><a xlink:href="mainpp_8cpp.html" target="_top" xlink:title="This is the main file for the HELIOS program, specifically the post&#45;processing portion.">
<polygon fill="white" stroke="#666666" points="241.25,-20.75 168.25,-20.75 168.25,0 241.25,0 241.25,-20.75"/>
<text xml:space="preserve" text-anchor="middle" x="204.75" y="-7.25" font-family="Helvetica,sans-Serif" font-size="10.00">mainpp.cpp</text>
</a>
</g>
</g>
<!-- Node1&#45;&gt;Node4 -->
<g id="edge3_Node000001_Node000004" class="edge">
<title>Node1&#45;&gt;Node4</title>
<g id="a_edge3_Node000001_Node000004"><a xlink:title=" ">
<path fill="none" stroke="#63b8ff" d="M176.41,-47.46C183.37,-38.59 191.4,-28.37 197.13,-21.08"/>
<polygon fill="#63b8ff" stroke="#63b8ff" points="173.8,-45.12 170.37,-55.15 179.3,-49.44 173.8,-45.12"/>
</a>
</g>
</g>
<!-- Node5 -->
<g id="Node000005" class="node">
<title>Node5</title>
<g id="a_Node000005"><a xlink:href="maintable_8cpp.html" target="_top" xlink:title="Command&#45;line utility to generate, read, and write periodic error&#45;function lookup tables used in the S...">
<polygon fill="white" stroke="#666666" points="344.62,-20.75 258.88,-20.75 258.88,0 344.62,0 344.62,-20.75"/>
<text xml:space="preserve" text-anchor="middle" x="301.75" y="-7.25" font-family="Helvetica,sans-Serif" font-size="10.00">maintable.cpp</text>
</a>
</g>
</g>
<!-- Node1&#45;&gt;Node5 -->
<g id="edge4_Node000001_Node000005" class="edge">
<title>Node1&#45;&gt;Node5</title>
<g id="a_edge4_Node000001_Node000005"><a xlink:title=" ">
<path fill="none" stroke="#63b8ff" d="M197.26,-52.24C222.16,-42.5 254.81,-29.73 276.94,-21.08"/>
<polygon fill="#63b8ff" stroke="#63b8ff" points="196.23,-48.88 188.19,-55.79 198.78,-55.4 196.23,-48.88"/>
</a>
</g>
</g>
</g>
</svg>
