<?xml version="1.0" encoding="UTF-8" standalone="no"?>
<!DOCTYPE svg PUBLIC "-//W3C//DTD SVG 1.1//EN"
 "http://www.w3.org/Graphics/SVG/1.1/DTD/svg11.dtd">
<!-- Generated by graphviz version 13.1.2 (20250809.0930)
 -->
<!-- Title: Domain.h Pages: 1 -->
<svg width="1011pt" height="313pt"
 viewBox="0.00 0.00 1011.00 313.00" xmlns="http://www.w3.org/2000/svg" xmlns:xlink="http://www.w3.org/1999/xlink">
<g id="graph0" class="graph" transform="scale(1 1) rotate(0) translate(4 308.5)">
<title>Domain.h</title>
<!-- Node1 -->
<g id="Node000001" class="node">
<title>Node1</title>
<g id="a_Node000001"><a xlink:title="Abstract simulation domain class for SIE scattering.">
<polygon fill="#999999" stroke="#666666" points="468.25,-304.5 405,-304.5 405,-283.75 468.25,-283.75 468.25,-304.5"/>
<text xml:space="preserve" text-anchor="middle" x="436.62" y="-291" font-family="Helvetica,sans-Serif" font-size="10.00">Domain.h</text>
</a>
</g>
</g>
<!-- Node2 -->
<g id="Node000002" class="node">
<title>Node2</title>
<g id="a_Node000002"><a xlink:href="Domain_8cpp.html" target="_top" xlink:title="Implementation of the Domain base class.">
<polygon fill="white" stroke="#666666" points="329.88,-247.75 255.38,-247.75 255.38,-227 329.88,-227 329.88,-247.75"/>
<text xml:space="preserve" text-anchor="middle" x="292.62" y="-234.25" font-family="Helvetica,sans-Serif" font-size="10.00">Domain.cpp</text>
</a>
</g>
</g>
<!-- Node1&#45;&gt;Node2 -->
<g id="edge1_Node000001_Node000002" class="edge">
<title>Node1&#45;&gt;Node2</title>
<g id="a_edge1_Node000001_Node000002"><a xlink:title=" ">
<path fill="none" stroke="#63b8ff" d="M400.44,-279.37C374.79,-269.62 341.01,-256.77 318.15,-248.08"/>
<polygon fill="#63b8ff" stroke="#63b8ff" points="398.87,-282.52 409.47,-282.8 401.36,-275.97 398.87,-282.52"/>
</a>
</g>
</g>
<!-- Node3 -->
<g id="Node000003" class="node">
<title>Node3</title>
<g id="a_Node000003"><a xlink:href="DomainHom3D_8h.html" target="_top" xlink:title="Homogeneous 3D simulation domain (derived from Domain).">
<polygon fill="white" stroke="#666666" points="447.62,-247.75 347.62,-247.75 347.62,-227 447.62,-227 447.62,-247.75"/>
<text xml:space="preserve" text-anchor="middle" x="397.62" y="-234.25" font-family="Helvetica,sans-Serif" font-size="10.00">DomainHom3D.h</text>
</a>
</g>
</g>
<!-- Node1&#45;&gt;Node3 -->
<g id="edge2_Node000001_Node000003" class="edge">
<title>Node1&#45;&gt;Node3</title>
<g id="a_edge2_Node000001_Node000003"><a xlink:title=" ">
<path fill="none" stroke="#63b8ff" d="M423.13,-274.17C416.86,-265.38 409.68,-255.3 404.54,-248.08"/>
<polygon fill="#63b8ff" stroke="#63b8ff" points="420.12,-275.99 428.77,-282.1 425.82,-271.93 420.12,-275.99"/>
</a>
</g>
</g>
<!-- Node13 -->
<g id="Node000013" class="node">
<title>Node13</title>
<g id="a_Node000013"><a xlink:href="DomainLayered3D_8h.html" target="_top" xlink:title="Layered 3D simulation domain (derived from Domain).">
<polygon fill="white" stroke="#666666" points="485.5,-77.5 369.75,-77.5 369.75,-56.75 485.5,-56.75 485.5,-77.5"/>
<text xml:space="preserve" text-anchor="middle" x="427.62" y="-64" font-family="Helvetica,sans-Serif" font-size="10.00">DomainLayered3D.h</text>
</a>
</g>
</g>
<!-- Node1&#45;&gt;Node13 -->
<g id="edge20_Node000001_Node000013" class="edge">
<title>Node1&#45;&gt;Node13</title>
<g id="a_edge20_Node000001_Node000013"><a xlink:title=" ">
<path fill="none" stroke="#63b8ff" d="M447.51,-273.28C451.17,-265.55 454.79,-256.47 456.62,-247.75 468.92,-189.36 473.36,-170.77 456.62,-113.5 452.64,-99.86 443.16,-86.42 436.12,-77.75"/>
<polygon fill="#63b8ff" stroke="#63b8ff" points="444.44,-271.59 443.01,-282.09 450.68,-274.77 444.44,-271.59"/>
</a>
</g>
</g>
<!-- Node16 -->
<g id="Node000016" class="node">
<title>Node16</title>
<g id="a_Node000016"><a xlink:href="SimJob_8h.html" target="_top" xlink:title="Orchestrates a full simulation run: parse job/subjobs, build the linear system, solve it,...">
<polygon fill="white" stroke="#666666" points="827,-247.75 768.25,-247.75 768.25,-227 827,-227 827,-247.75"/>
<text xml:space="preserve" text-anchor="middle" x="797.62" y="-234.25" font-family="Helvetica,sans-Serif" font-size="10.00">SimJob.h</text>
</a>
</g>
</g>
<!-- Node1&#45;&gt;Node16 -->
<g id="edge21_Node000001_Node000016" class="edge">
<title>Node1&#45;&gt;Node16</title>
<g id="a_edge21_Node000001_Node000016"><a xlink:title=" ">
<path fill="none" stroke="#63b8ff" d="M479.92,-286.56C554.24,-275.29 704.27,-252.53 767.95,-242.88"/>
<polygon fill="#63b8ff" stroke="#63b8ff" points="479.52,-283.08 470.16,-288.04 480.57,-290 479.52,-283.08"/>
</a>
</g>
</g>
<!-- Node4 -->
<g id="Node000004" class="node">
<title>Node4</title>
<g id="a_Node000004"><a xlink:href="DomainHom3D_8cpp.html" target="_top" xlink:title="Implementation of the homogeneous 3D domain.">
<polygon fill="white" stroke="#666666" points="111.25,-20.75 0,-20.75 0,0 111.25,0 111.25,-20.75"/>
<text xml:space="preserve" text-anchor="middle" x="55.62" y="-7.25" font-family="Helvetica,sans-Serif" font-size="10.00">DomainHom3D.cpp</text>
</a>
</g>
</g>
<!-- Node3&#45;&gt;Node4 -->
<g id="edge3_Node000003_Node000004" class="edge">
<title>Node3&#45;&gt;Node4</title>
<g id="a_edge3_Node000003_Node000004"><a xlink:title=" ">
<path fill="none" stroke="#63b8ff" d="M336.52,-225.15C303.39,-217.82 262.26,-206.66 227.62,-191 186.24,-172.28 175.18,-165.93 142.62,-134.25 105.16,-97.8 73.13,-43.3 60.91,-21.21"/>
<polygon fill="#63b8ff" stroke="#63b8ff" points="335.43,-228.5 345.94,-227.17 336.9,-221.65 335.43,-228.5"/>
</a>
</g>
</g>
<!-- Node5 -->
<g id="Node000005" class="node">
<title>Node5</title>
<g id="a_Node000005"><a xlink:href="DomainHom3DPer_8h.html" target="_top" xlink:title="Homogeneous 3D domain with in‑plane periodicity (derived from DomainHom3D).">
<polygon fill="white" stroke="#666666" points="657.12,-191 542.12,-191 542.12,-170.25 657.12,-170.25 657.12,-191"/>
<text xml:space="preserve" text-anchor="middle" x="599.62" y="-177.5" font-family="Helvetica,sans-Serif" font-size="10.00">DomainHom3DPer.h</text>
</a>
</g>
</g>
<!-- Node3&#45;&gt;Node5 -->
<g id="edge4_Node000003_Node000005" class="edge">
<title>Node3&#45;&gt;Node5</title>
<g id="a_edge4_Node000003_Node000005"><a xlink:title=" ">
<path fill="none" stroke="#63b8ff" d="M444.54,-223.66C480.8,-213.83 530.26,-200.43 563.48,-191.42"/>
<polygon fill="#63b8ff" stroke="#63b8ff" points="443.94,-220.2 435.2,-226.19 445.77,-226.95 443.94,-220.2"/>
</a>
</g>
</g>
<!-- Node7 -->
<g id="Node000007" class="node">
<title>Node7</title>
<g id="a_Node000007"><a xlink:href="SimJob_8cpp.html" target="_top" xlink:title="Implementation for the SimJob class.">
<polygon fill="white" stroke="#666666" points="567.62,-20.75 497.62,-20.75 497.62,0 567.62,0 567.62,-20.75"/>
<text xml:space="preserve" text-anchor="middle" x="532.62" y="-7.25" font-family="Helvetica,sans-Serif" font-size="10.00">SimJob.cpp</text>
</a>
</g>
</g>
<!-- Node3&#45;&gt;Node7 -->
<g id="edge7_Node000003_Node000007" class="edge">
<title>Node3&#45;&gt;Node7</title>
<g id="a_edge7_Node000003_Node000007"><a xlink:title=" ">
<path fill="none" stroke="#63b8ff" d="M409.56,-217.19C428.03,-187.43 464.55,-128.26 494.62,-77.5 506.5,-57.45 520.01,-33.72 527.29,-20.84"/>
<polygon fill="#63b8ff" stroke="#63b8ff" points="406.72,-215.13 404.42,-225.47 412.67,-218.83 406.72,-215.13"/>
</a>
</g>
</g>
<!-- Node8 -->
<g id="Node000008" class="node">
<title>Node8</title>
<g id="a_Node000008"><a xlink:href="SommerfeldIntegrator_8h.html" target="_top" xlink:title="Declaration of the SommerfeldIntegrator class, which evaluates Sommerfeld&#45;type integrals for layered ...">
<polygon fill="white" stroke="#666666" points="368.75,-191 236.5,-191 236.5,-170.25 368.75,-170.25 368.75,-191"/>
<text xml:space="preserve" text-anchor="middle" x="302.62" y="-177.5" font-family="Helvetica,sans-Serif" font-size="10.00">SommerfeldIntegrator.h</text>
</a>
</g>
</g>
<!-- Node3&#45;&gt;Node8 -->
<g id="edge8_Node000003_Node000008" class="edge">
<title>Node3&#45;&gt;Node8</title>
<g id="a_edge8_Node000003_Node000008"><a xlink:title=" ">
<path fill="none" stroke="#63b8ff" d="M370.99,-221.03C354.47,-211.5 333.74,-199.56 319.46,-191.33"/>
<polygon fill="#63b8ff" stroke="#63b8ff" points="368.92,-223.87 379.33,-225.83 372.41,-217.81 368.92,-223.87"/>
</a>
</g>
</g>
<!-- Node6 -->
<g id="Node000006" class="node">
<title>Node6</title>
<g id="a_Node000006"><a xlink:href="DomainHom3DPer_8cpp.html" target="_top" xlink:title="Implementation of the homogeneous, periodically replicated 3D domain.">
<polygon fill="white" stroke="#666666" points="705.75,-134.25 579.5,-134.25 579.5,-113.5 705.75,-113.5 705.75,-134.25"/>
<text xml:space="preserve" text-anchor="middle" x="642.62" y="-120.75" font-family="Helvetica,sans-Serif" font-size="10.00">DomainHom3DPer.cpp</text>
</a>
</g>
</g>
<!-- Node5&#45;&gt;Node6 -->
<g id="edge5_Node000005_Node000006" class="edge">
<title>Node5&#45;&gt;Node6</title>
<g id="a_edge5_Node000005_Node000006"><a xlink:title=" ">
<path fill="none" stroke="#63b8ff" d="M614.29,-160.96C621.25,-152.09 629.27,-141.87 635,-134.58"/>
<polygon fill="#63b8ff" stroke="#63b8ff" points="611.67,-158.62 608.25,-168.65 617.18,-162.94 611.67,-158.62"/>
</a>
</g>
</g>
<!-- Node5&#45;&gt;Node7 -->
<g id="edge6_Node000005_Node000007" class="edge">
<title>Node5&#45;&gt;Node7</title>
<g id="a_edge6_Node000005_Node000007"><a xlink:title=" ">
<path fill="none" stroke="#63b8ff" d="M585.88,-160.64C580.6,-152.75 574.84,-143.33 570.62,-134.25 551.93,-93.94 539.34,-42.05 534.66,-20.94"/>
<polygon fill="#63b8ff" stroke="#63b8ff" points="582.92,-162.52 591.5,-168.73 588.67,-158.52 582.92,-162.52"/>
</a>
</g>
</g>
<!-- Node9 -->
<g id="Node000009" class="node">
<title>Node9</title>
<g id="a_Node000009"><a xlink:href="DomainLayered3D_8cpp.html" target="_top" xlink:title="Implementation of the layered 3D domain.">
<polygon fill="white" stroke="#666666" points="256.12,-20.75 129.12,-20.75 129.12,0 256.12,0 256.12,-20.75"/>
<text xml:space="preserve" text-anchor="middle" x="192.62" y="-7.25" font-family="Helvetica,sans-Serif" font-size="10.00">DomainLayered3D.cpp</text>
</a>
</g>
</g>
<!-- Node8&#45;&gt;Node9 -->
<g id="edge9_Node000008_Node000009" class="edge">
<title>Node8&#45;&gt;Node9</title>
<g id="a_edge9_Node000008_Node000009"><a xlink:title=" ">
<path fill="none" stroke="#63b8ff" d="M225.06,-167.41C203.25,-160.7 181.04,-150.32 164.62,-134.25 139.21,-109.36 130.55,-89.42 144.62,-56.75 151.16,-41.58 165.53,-29.12 176.85,-21.12"/>
<polygon fill="#63b8ff" stroke="#63b8ff" points="224.01,-170.75 234.58,-170.09 225.91,-164.01 224.01,-170.75"/>
</a>
</g>
</g>
<!-- Node10 -->
<g id="Node000010" class="node">
<title>Node10</title>
<g id="a_Node000010"><a xlink:href="GreenFLayered3D_8h.html" target="_top" xlink:title="Layered‑medium 3D Green&#39;s function (scalar/gradient/dyadic) + RWG integrals.">
<polygon fill="white" stroke="#666666" points="286,-134.25 173.25,-134.25 173.25,-113.5 286,-113.5 286,-134.25"/>
<text xml:space="preserve" text-anchor="middle" x="229.62" y="-120.75" font-family="Helvetica,sans-Serif" font-size="10.00">GreenFLayered3D.h</text>
</a>
</g>
</g>
<!-- Node8&#45;&gt;Node10 -->
<g id="edge10_Node000008_Node000010" class="edge">
<title>Node8&#45;&gt;Node10</title>
<g id="a_edge10_Node000008_Node000010"><a xlink:title=" ">
<path fill="none" stroke="#63b8ff" d="M280.71,-163.19C268.27,-153.86 253.12,-142.5 242.56,-134.58"/>
<polygon fill="#63b8ff" stroke="#63b8ff" points="278.26,-165.73 288.36,-168.93 282.46,-160.13 278.26,-165.73"/>
</a>
</g>
</g>
<!-- Node15 -->
<g id="Node000015" class="node">
<title>Node15</title>
<g id="a_Node000015"><a xlink:href="SommerfeldIntegrator_8cpp.html" target="_top" xlink:title="Implementation of SommerfeldIntegrator: contour construction, integrand assembly, QUADPACK integratio...">
<polygon fill="white" stroke="#666666" points="447.38,-134.25 303.88,-134.25 303.88,-113.5 447.38,-113.5 447.38,-134.25"/>
<text xml:space="preserve" text-anchor="middle" x="375.62" y="-120.75" font-family="Helvetica,sans-Serif" font-size="10.00">SommerfeldIntegrator.cpp</text>
</a>
</g>
</g>
<!-- Node8&#45;&gt;Node15 -->
<g id="edge19_Node000008_Node000015" class="edge">
<title>Node8&#45;&gt;Node15</title>
<g id="a_edge19_Node000008_Node000015"><a xlink:title=" ">
<path fill="none" stroke="#63b8ff" d="M324.54,-163.19C336.98,-153.86 352.13,-142.5 362.69,-134.58"/>
<polygon fill="#63b8ff" stroke="#63b8ff" points="322.79,-160.13 316.89,-168.93 326.99,-165.73 322.79,-160.13"/>
</a>
</g>
</g>
<!-- Node11 -->
<g id="Node000011" class="node">
<title>Node11</title>
<g id="a_Node000011"><a xlink:href="Dipole_8h.html" target="_top" xlink:title="Incident field generator for electric dipole illumination in homogeneous or layered media.">
<polygon fill="white" stroke="#666666" points="209.88,-77.5 153.38,-77.5 153.38,-56.75 209.88,-56.75 209.88,-77.5"/>
<text xml:space="preserve" text-anchor="middle" x="181.62" y="-64" font-family="Helvetica,sans-Serif" font-size="10.00">Dipole.h</text>
</a>
</g>
</g>
<!-- Node10&#45;&gt;Node11 -->
<g id="edge11_Node000010_Node000011" class="edge">
<title>Node10&#45;&gt;Node11</title>
<g id="a_edge11_Node000010_Node000011"><a xlink:title=" ">
<path fill="none" stroke="#63b8ff" d="M213.51,-104.49C205.68,-95.56 196.6,-85.2 190.13,-77.83"/>
<polygon fill="#63b8ff" stroke="#63b8ff" points="210.82,-106.74 220.05,-111.95 216.09,-102.12 210.82,-106.74"/>
</a>
</g>
</g>
<!-- Node10&#45;&gt;Node13 -->
<g id="edge15_Node000010_Node000013" class="edge">
<title>Node10&#45;&gt;Node13</title>
<g id="a_edge15_Node000010_Node000013"><a xlink:title=" ">
<path fill="none" stroke="#63b8ff" d="M276.07,-110.03C311.57,-100.22 359.77,-86.89 392.2,-77.92"/>
<polygon fill="#63b8ff" stroke="#63b8ff" points="275.19,-106.64 266.48,-112.68 277.05,-113.39 275.19,-106.64"/>
</a>
</g>
</g>
<!-- Node14 -->
<g id="Node000014" class="node">
<title>Node14</title>
<g id="a_Node000014"><a xlink:href="GreenFLayered3D_8cpp.html" target="_top" xlink:title="Implementation of the 3D Green&#39;s Function class in a layered background.">
<polygon fill="white" stroke="#666666" points="351.62,-77.5 227.62,-77.5 227.62,-56.75 351.62,-56.75 351.62,-77.5"/>
<text xml:space="preserve" text-anchor="middle" x="289.62" y="-64" font-family="Helvetica,sans-Serif" font-size="10.00">GreenFLayered3D.cpp</text>
</a>
</g>
</g>
<!-- Node10&#45;&gt;Node14 -->
<g id="edge18_Node000010_Node000014" class="edge">
<title>Node10&#45;&gt;Node14</title>
<g id="a_edge18_Node000010_Node000014"><a xlink:title=" ">
<path fill="none" stroke="#63b8ff" d="M248.85,-105.33C258.84,-96.22 270.66,-85.43 278.99,-77.83"/>
<polygon fill="#63b8ff" stroke="#63b8ff" points="246.5,-102.74 241.47,-112.07 251.22,-107.91 246.5,-102.74"/>
</a>
</g>
</g>
<!-- Node11&#45;&gt;Node4 -->
<g id="edge13_Node000011_Node000004" class="edge">
<title>Node11&#45;&gt;Node4</title>
<g id="a_edge13_Node000011_Node000004"><a xlink:title=" ">
<path fill="none" stroke="#63b8ff" d="M148.76,-51.84C126.47,-42.16 97.6,-29.62 77.96,-21.08"/>
<polygon fill="#63b8ff" stroke="#63b8ff" points="147.14,-54.96 157.71,-55.73 149.93,-48.54 147.14,-54.96"/>
</a>
</g>
</g>
<!-- Node11&#45;&gt;Node9 -->
<g id="edge14_Node000011_Node000009" class="edge">
<title>Node11&#45;&gt;Node9</title>
<g id="a_edge14_Node000011_Node000009"><a xlink:title=" ">
<path fill="none" stroke="#63b8ff" d="M185.84,-45.17C187.5,-36.88 189.33,-27.75 190.68,-21.08"/>
<polygon fill="#63b8ff" stroke="#63b8ff" points="182.43,-44.36 183.89,-54.85 189.29,-45.74 182.43,-44.36"/>
</a>
</g>
</g>
<!-- Node12 -->
<g id="Node000012" class="node">
<title>Node12</title>
<g id="a_Node000012"><a xlink:href="Dipole_8cpp.html" target="_top" xlink:title="Implementation of the Dipole incident source.">
<polygon fill="white" stroke="#666666" points="341.5,-20.75 273.75,-20.75 273.75,0 341.5,0 341.5,-20.75"/>
<text xml:space="preserve" text-anchor="middle" x="307.62" y="-7.25" font-family="Helvetica,sans-Serif" font-size="10.00">Dipole.cpp</text>
</a>
</g>
</g>
<!-- Node11&#45;&gt;Node12 -->
<g id="edge12_Node000011_Node000012" class="edge">
<title>Node11&#45;&gt;Node12</title>
<g id="a_edge12_Node000011_Node000012"><a xlink:title=" ">
<path fill="none" stroke="#63b8ff" d="M214.49,-51.84C236.78,-42.16 265.65,-29.62 285.29,-21.08"/>
<polygon fill="#63b8ff" stroke="#63b8ff" points="213.32,-48.54 205.54,-55.73 216.11,-54.96 213.32,-48.54"/>
</a>
</g>
</g>
<!-- Node13&#45;&gt;Node7 -->
<g id="edge17_Node000013_Node000007" class="edge">
<title>Node13&#45;&gt;Node7</title>
<g id="a_edge17_Node000013_Node000007"><a xlink:title=" ">
<path fill="none" stroke="#63b8ff" d="M456.55,-51.04C474.89,-41.48 498.09,-29.38 514.02,-21.08"/>
<polygon fill="#63b8ff" stroke="#63b8ff" points="454.99,-47.91 447.74,-55.64 458.22,-54.12 454.99,-47.91"/>
</a>
</g>
</g>
<!-- Node13&#45;&gt;Node9 -->
<g id="edge16_Node000013_Node000009" class="edge">
<title>Node13&#45;&gt;Node9</title>
<g id="a_edge16_Node000013_Node000009"><a xlink:title=" ">
<path fill="none" stroke="#63b8ff" d="M374.17,-53.67C331.99,-43.84 273.96,-30.32 234.97,-21.24"/>
<polygon fill="#63b8ff" stroke="#63b8ff" points="373.33,-57.07 383.87,-55.93 374.92,-50.25 373.33,-57.07"/>
</a>
</g>
</g>
<!-- Node16&#45;&gt;Node7 -->
<g id="edge22_Node000016_Node000007" class="edge">
<title>Node16&#45;&gt;Node7</title>
<g id="a_edge22_Node000016_Node000007"><a xlink:title=" ">
<path fill="none" stroke="#63b8ff" d="M777.95,-219.24C769.48,-211.22 759.88,-201.2 752.62,-191 730.38,-159.75 740.99,-141.37 714.62,-113.5 670.55,-66.91 600.42,-35.93 561.33,-21.24"/>
<polygon fill="#63b8ff" stroke="#63b8ff" points="775.36,-221.61 785.1,-225.78 780.08,-216.45 775.36,-221.61"/>
</a>
</g>
</g>
<!-- Node17 -->
<g id="Node000017" class="node">
<title>Node17</title>
<g id="a_Node000017"><a xlink:href="casimir_8cpp.html" target="_top" xlink:title="Main entry point for the HELIOS Casimir force routine.">
<polygon fill="white" stroke="#666666" points="833.38,-191 761.88,-191 761.88,-170.25 833.38,-170.25 833.38,-191"/>
<text xml:space="preserve" text-anchor="middle" x="797.62" y="-177.5" font-family="Helvetica,sans-Serif" font-size="10.00">casimir.cpp</text>
</a>
</g>
</g>
<!-- Node16&#45;&gt;Node17 -->
<g id="edge23_Node000016_Node000017" class="edge">
<title>Node16&#45;&gt;Node17</title>
<g id="a_edge23_Node000016_Node000017"><a xlink:title=" ">
<path fill="none" stroke="#63b8ff" d="M797.62,-215.13C797.62,-206.91 797.62,-197.93 797.62,-191.33"/>
<polygon fill="#63b8ff" stroke="#63b8ff" points="794.13,-215.07 797.63,-225.07 801.13,-215.07 794.13,-215.07"/>
</a>
</g>
</g>
<!-- Node18 -->
<g id="Node000018" class="node">
<title>Node18</title>
<g id="a_Node000018"><a xlink:href="main_8cpp.html" target="_top" xlink:title="This is the main file for the HELIOS program.">
<polygon fill="white" stroke="#666666" points="912.12,-191 851.12,-191 851.12,-170.25 912.12,-170.25 912.12,-191"/>
<text xml:space="preserve" text-anchor="middle" x="881.62" y="-177.5" font-family="Helvetica,sans-Serif" font-size="10.00">main.cpp</text>
</a>
</g>
</g>
<!-- Node16&#45;&gt;Node18 -->
<g id="edge24_Node000016_Node000018" class="edge">
<title>Node16&#45;&gt;Node18</title>
<g id="a_edge24_Node000016_Node000018"><a xlink:title=" ">
<path fill="none" stroke="#63b8ff" d="M822.01,-220.48C836.48,-211.05 854.35,-199.4 866.74,-191.33"/>
<polygon fill="#63b8ff" stroke="#63b8ff" points="820.38,-217.37 813.91,-225.76 824.2,-223.23 820.38,-217.37"/>
</a>
</g>
</g>
<!-- Node19 -->
<g id="Node000019" class="node">
<title>Node19</title>
<g id="a_Node000019"><a xlink:href="mainpp_8cpp.html" target="_top" xlink:title="This is the main file for the HELIOS program, specifically the post&#45;processing portion.">
<polygon fill="white" stroke="#666666" points="1003.12,-191 930.12,-191 930.12,-170.25 1003.12,-170.25 1003.12,-191"/>
<text xml:space="preserve" text-anchor="middle" x="966.62" y="-177.5" font-family="Helvetica,sans-Serif" font-size="10.00">mainpp.cpp</text>
</a>
</g>
</g>
<!-- Node16&#45;&gt;Node19 -->
<g id="edge25_Node000016_Node000019" class="edge">
<title>Node16&#45;&gt;Node19</title>
<g id="a_edge25_Node000016_Node000019"><a xlink:title=" ">
<path fill="none" stroke="#63b8ff" d="M838.05,-223.28C868.22,-213.5 908.81,-200.36 936.24,-191.47"/>
<polygon fill="#63b8ff" stroke="#63b8ff" points="837.32,-219.83 828.89,-226.25 839.48,-226.49 837.32,-219.83"/>
</a>
</g>
</g>
</g>
</svg>
