<?xml version="1.0" encoding="UTF-8" standalone="no"?>
<!DOCTYPE svg PUBLIC "-//W3C//DTD SVG 1.1//EN"
 "http://www.w3.org/Graphics/SVG/1.1/DTD/svg11.dtd">
<!-- Generated by graphviz version 13.1.2 (20250809.0930)
 -->
<!-- Title: DomainHom3D.h Pages: 1 -->
<svg width="773pt" height="256pt"
 viewBox="0.00 0.00 773.00 256.00" xmlns="http://www.w3.org/2000/svg" xmlns:xlink="http://www.w3.org/1999/xlink">
<g id="graph0" class="graph" transform="scale(1 1) rotate(0) translate(4 251.75)">
<title>DomainHom3D.h</title>
<!-- Node1 -->
<g id="Node000001" class="node">
<title>Node1</title>
<g id="a_Node000001"><a xlink:title="Homogeneous 3D simulation domain (derived from Domain).">
<polygon fill="#999999" stroke="#666666" points="598.62,-247.75 498.62,-247.75 498.62,-227 598.62,-227 598.62,-247.75"/>
<text xml:space="preserve" text-anchor="middle" x="548.62" y="-234.25" font-family="Helvetica,sans-Serif" font-size="10.00">DomainHom3D.h</text>
</a>
</g>
</g>
<!-- Node2 -->
<g id="Node000002" class="node">
<title>Node2</title>
<g id="a_Node000002"><a xlink:href="DomainHom3D_8cpp.html" target="_top" xlink:title="Implementation of the homogeneous 3D domain.">
<polygon fill="white" stroke="#666666" points="111.25,-20.75 0,-20.75 0,0 111.25,0 111.25,-20.75"/>
<text xml:space="preserve" text-anchor="middle" x="55.62" y="-7.25" font-family="Helvetica,sans-Serif" font-size="10.00">DomainHom3D.cpp</text>
</a>
</g>
</g>
<!-- Node1&#45;&gt;Node2 -->
<g id="edge1_Node000001_Node000002" class="edge">
<title>Node1&#45;&gt;Node2</title>
<g id="a_edge1_Node000001_Node000002"><a xlink:title=" ">
<path fill="none" stroke="#63b8ff" d="M486.95,-226.93C361.44,-206.31 83.57,-152.95 29.62,-77.5 16.85,-59.64 34.41,-34.65 46.3,-21.08"/>
<polygon fill="#63b8ff" stroke="#63b8ff" points="486.33,-230.38 496.76,-228.53 487.45,-223.47 486.33,-230.38"/>
</a>
</g>
</g>
<!-- Node3 -->
<g id="Node000003" class="node">
<title>Node3</title>
<g id="a_Node000003"><a xlink:href="DomainHom3DPer_8h.html" target="_top" xlink:title="Homogeneous 3D domain with in‑plane periodicity (derived from DomainHom3D).">
<polygon fill="white" stroke="#666666" points="747.12,-191 632.12,-191 632.12,-170.25 747.12,-170.25 747.12,-191"/>
<text xml:space="preserve" text-anchor="middle" x="689.62" y="-177.5" font-family="Helvetica,sans-Serif" font-size="10.00">DomainHom3DPer.h</text>
</a>
</g>
</g>
<!-- Node1&#45;&gt;Node3 -->
<g id="edge2_Node000001_Node000003" class="edge">
<title>Node1&#45;&gt;Node3</title>
<g id="a_edge2_Node000001_Node000003"><a xlink:title=" ">
<path fill="none" stroke="#63b8ff" d="M584.39,-222.49C609.46,-212.75 642.35,-199.98 664.64,-191.33"/>
<polygon fill="#63b8ff" stroke="#63b8ff" points="583.3,-219.16 575.24,-226.04 585.83,-225.68 583.3,-219.16"/>
</a>
</g>
</g>
<!-- Node5 -->
<g id="Node000005" class="node">
<title>Node5</title>
<g id="a_Node000005"><a xlink:href="SimJob_8cpp.html" target="_top" xlink:title="Implementation for the SimJob class.">
<polygon fill="white" stroke="#666666" points="633.62,-20.75 563.62,-20.75 563.62,0 633.62,0 633.62,-20.75"/>
<text xml:space="preserve" text-anchor="middle" x="598.62" y="-7.25" font-family="Helvetica,sans-Serif" font-size="10.00">SimJob.cpp</text>
</a>
</g>
</g>
<!-- Node1&#45;&gt;Node5 -->
<g id="edge5_Node000001_Node000005" class="edge">
<title>Node1&#45;&gt;Node5</title>
<g id="a_edge5_Node000001_Node000005"><a xlink:title=" ">
<path fill="none" stroke="#63b8ff" d="M555.8,-215.84C562.72,-195.38 573.08,-162.96 579.62,-134.25 589.12,-92.58 595.29,-41.86 597.6,-21.02"/>
<polygon fill="#63b8ff" stroke="#63b8ff" points="552.52,-214.61 552.58,-225.21 559.14,-216.89 552.52,-214.61"/>
</a>
</g>
</g>
<!-- Node6 -->
<g id="Node000006" class="node">
<title>Node6</title>
<g id="a_Node000006"><a xlink:href="SommerfeldIntegrator_8h.html" target="_top" xlink:title="Declaration of the SommerfeldIntegrator class, which evaluates Sommerfeld&#45;type integrals for layered ...">
<polygon fill="white" stroke="#666666" points="514.75,-191 382.5,-191 382.5,-170.25 514.75,-170.25 514.75,-191"/>
<text xml:space="preserve" text-anchor="middle" x="448.62" y="-177.5" font-family="Helvetica,sans-Serif" font-size="10.00">SommerfeldIntegrator.h</text>
</a>
</g>
</g>
<!-- Node1&#45;&gt;Node6 -->
<g id="edge6_Node000001_Node000006" class="edge">
<title>Node1&#45;&gt;Node6</title>
<g id="a_edge6_Node000001_Node000006"><a xlink:title=" ">
<path fill="none" stroke="#63b8ff" d="M521.08,-221.29C503.61,-211.73 481.52,-199.63 466.35,-191.33"/>
<polygon fill="#63b8ff" stroke="#63b8ff" points="518.97,-224.13 529.42,-225.86 522.33,-217.99 518.97,-224.13"/>
</a>
</g>
</g>
<!-- Node4 -->
<g id="Node000004" class="node">
<title>Node4</title>
<g id="a_Node000004"><a xlink:href="DomainHom3DPer_8cpp.html" target="_top" xlink:title="Implementation of the homogeneous, periodically replicated 3D domain.">
<polygon fill="white" stroke="#666666" points="752.75,-134.25 626.5,-134.25 626.5,-113.5 752.75,-113.5 752.75,-134.25"/>
<text xml:space="preserve" text-anchor="middle" x="689.62" y="-120.75" font-family="Helvetica,sans-Serif" font-size="10.00">DomainHom3DPer.cpp</text>
</a>
</g>
</g>
<!-- Node3&#45;&gt;Node4 -->
<g id="edge3_Node000003_Node000004" class="edge">
<title>Node3&#45;&gt;Node4</title>
<g id="a_edge3_Node000003_Node000004"><a xlink:title=" ">
<path fill="none" stroke="#63b8ff" d="M689.62,-158.38C689.62,-150.16 689.62,-141.18 689.62,-134.58"/>
<polygon fill="#63b8ff" stroke="#63b8ff" points="686.13,-158.32 689.63,-168.32 693.13,-158.32 686.13,-158.32"/>
</a>
</g>
</g>
<!-- Node3&#45;&gt;Node5 -->
<g id="edge4_Node000003_Node000005" class="edge">
<title>Node3&#45;&gt;Node5</title>
<g id="a_edge4_Node000003_Node000005"><a xlink:title=" ">
<path fill="none" stroke="#63b8ff" d="M725.84,-164.94C749.29,-153.06 773.44,-134.84 761.62,-113.5 733.97,-63.54 670.53,-34.76 631.46,-21.15"/>
<polygon fill="#63b8ff" stroke="#63b8ff" points="724.5,-161.7 716.96,-169.14 727.5,-168.03 724.5,-161.7"/>
</a>
</g>
</g>
<!-- Node7 -->
<g id="Node000007" class="node">
<title>Node7</title>
<g id="a_Node000007"><a xlink:href="DomainLayered3D_8cpp.html" target="_top" xlink:title="Implementation of the layered 3D domain.">
<polygon fill="white" stroke="#666666" points="381.12,-20.75 254.12,-20.75 254.12,0 381.12,0 381.12,-20.75"/>
<text xml:space="preserve" text-anchor="middle" x="317.62" y="-7.25" font-family="Helvetica,sans-Serif" font-size="10.00">DomainLayered3D.cpp</text>
</a>
</g>
</g>
<!-- Node6&#45;&gt;Node7 -->
<g id="edge7_Node000006_Node000007" class="edge">
<title>Node6&#45;&gt;Node7</title>
<g id="a_edge7_Node000006_Node000007"><a xlink:title=" ">
<path fill="none" stroke="#63b8ff" d="M434.77,-160.65C429.17,-152.67 422.83,-143.18 417.62,-134.25 398.31,-101.1 404.26,-86.15 379.62,-56.75 367.2,-41.93 348.96,-29.34 335.48,-21.21"/>
<polygon fill="#63b8ff" stroke="#63b8ff" points="431.76,-162.47 440.43,-168.57 437.46,-158.4 431.76,-162.47"/>
</a>
</g>
</g>
<!-- Node8 -->
<g id="Node000008" class="node">
<title>Node8</title>
<g id="a_Node000008"><a xlink:href="GreenFLayered3D_8h.html" target="_top" xlink:title="Layered‑medium 3D Green&#39;s function (scalar/gradient/dyadic) + RWG integrals.">
<polygon fill="white" stroke="#666666" points="317,-134.25 204.25,-134.25 204.25,-113.5 317,-113.5 317,-134.25"/>
<text xml:space="preserve" text-anchor="middle" x="260.62" y="-120.75" font-family="Helvetica,sans-Serif" font-size="10.00">GreenFLayered3D.h</text>
</a>
</g>
</g>
<!-- Node6&#45;&gt;Node8 -->
<g id="edge8_Node000006_Node000008" class="edge">
<title>Node6&#45;&gt;Node8</title>
<g id="a_edge8_Node000006_Node000008"><a xlink:title=" ">
<path fill="none" stroke="#63b8ff" d="M404.09,-166.66C370.42,-156.85 324.92,-143.6 294.26,-134.67"/>
<polygon fill="#63b8ff" stroke="#63b8ff" points="402.98,-169.98 413.56,-169.41 404.94,-163.26 402.98,-169.98"/>
</a>
</g>
</g>
<!-- Node13 -->
<g id="Node000013" class="node">
<title>Node13</title>
<g id="a_Node000013"><a xlink:href="SommerfeldIntegrator_8cpp.html" target="_top" xlink:title="Implementation of SommerfeldIntegrator: contour construction, integrand assembly, QUADPACK integratio...">
<polygon fill="white" stroke="#666666" points="570.38,-134.25 426.88,-134.25 426.88,-113.5 570.38,-113.5 570.38,-134.25"/>
<text xml:space="preserve" text-anchor="middle" x="498.62" y="-120.75" font-family="Helvetica,sans-Serif" font-size="10.00">SommerfeldIntegrator.cpp</text>
</a>
</g>
</g>
<!-- Node6&#45;&gt;Node13 -->
<g id="edge17_Node000006_Node000013" class="edge">
<title>Node6&#45;&gt;Node13</title>
<g id="a_edge17_Node000006_Node000013"><a xlink:title=" ">
<path fill="none" stroke="#63b8ff" d="M465.16,-161.52C473.37,-152.53 482.96,-142.03 489.76,-134.58"/>
<polygon fill="#63b8ff" stroke="#63b8ff" points="462.74,-158.97 458.58,-168.72 467.91,-163.7 462.74,-158.97"/>
</a>
</g>
</g>
<!-- Node9 -->
<g id="Node000009" class="node">
<title>Node9</title>
<g id="a_Node000009"><a xlink:href="Dipole_8h.html" target="_top" xlink:title="Incident field generator for electric dipole illumination in homogeneous or layered media.">
<polygon fill="white" stroke="#666666" points="236.88,-77.5 180.38,-77.5 180.38,-56.75 236.88,-56.75 236.88,-77.5"/>
<text xml:space="preserve" text-anchor="middle" x="208.62" y="-64" font-family="Helvetica,sans-Serif" font-size="10.00">Dipole.h</text>
</a>
</g>
</g>
<!-- Node8&#45;&gt;Node9 -->
<g id="edge9_Node000008_Node000009" class="edge">
<title>Node8&#45;&gt;Node9</title>
<g id="a_edge9_Node000008_Node000009"><a xlink:title=" ">
<path fill="none" stroke="#63b8ff" d="M243.43,-104.77C234.89,-95.78 224.92,-85.28 217.84,-77.83"/>
<polygon fill="#63b8ff" stroke="#63b8ff" points="240.86,-107.15 250.29,-111.99 245.94,-102.33 240.86,-107.15"/>
</a>
</g>
</g>
<!-- Node11 -->
<g id="Node000011" class="node">
<title>Node11</title>
<g id="a_Node000011"><a xlink:href="DomainLayered3D_8h.html" target="_top" xlink:title="Layered 3D simulation domain (derived from Domain).">
<polygon fill="white" stroke="#666666" points="370.5,-77.5 254.75,-77.5 254.75,-56.75 370.5,-56.75 370.5,-77.5"/>
<text xml:space="preserve" text-anchor="middle" x="312.62" y="-64" font-family="Helvetica,sans-Serif" font-size="10.00">DomainLayered3D.h</text>
</a>
</g>
</g>
<!-- Node8&#45;&gt;Node11 -->
<g id="edge13_Node000008_Node000011" class="edge">
<title>Node8&#45;&gt;Node11</title>
<g id="a_edge13_Node000008_Node000011"><a xlink:title=" ">
<path fill="none" stroke="#63b8ff" d="M277.82,-104.77C286.36,-95.78 296.33,-85.28 303.41,-77.83"/>
<polygon fill="#63b8ff" stroke="#63b8ff" points="275.31,-102.33 270.96,-111.99 280.39,-107.15 275.31,-102.33"/>
</a>
</g>
</g>
<!-- Node12 -->
<g id="Node000012" class="node">
<title>Node12</title>
<g id="a_Node000012"><a xlink:href="GreenFLayered3D_8cpp.html" target="_top" xlink:title="Implementation of the 3D Green&#39;s Function class in a layered background.">
<polygon fill="white" stroke="#666666" points="162.62,-77.5 38.62,-77.5 38.62,-56.75 162.62,-56.75 162.62,-77.5"/>
<text xml:space="preserve" text-anchor="middle" x="100.62" y="-64" font-family="Helvetica,sans-Serif" font-size="10.00">GreenFLayered3D.cpp</text>
</a>
</g>
</g>
<!-- Node8&#45;&gt;Node12 -->
<g id="edge16_Node000008_Node000012" class="edge">
<title>Node8&#45;&gt;Node12</title>
<g id="a_edge16_Node000008_Node000012"><a xlink:title=" ">
<path fill="none" stroke="#63b8ff" d="M221.22,-109.39C192.73,-99.64 154.89,-86.69 129.25,-77.92"/>
<polygon fill="#63b8ff" stroke="#63b8ff" points="219.99,-112.67 230.59,-112.6 222.26,-106.05 219.99,-112.67"/>
</a>
</g>
</g>
<!-- Node9&#45;&gt;Node2 -->
<g id="edge11_Node000009_Node000002" class="edge">
<title>Node9&#45;&gt;Node2</title>
<g id="a_edge11_Node000009_Node000002"><a xlink:title=" ">
<path fill="none" stroke="#63b8ff" d="M170.58,-52.51C143.38,-42.78 107.41,-29.9 83,-21.17"/>
<polygon fill="#63b8ff" stroke="#63b8ff" points="169.25,-55.75 179.85,-55.83 171.61,-49.16 169.25,-55.75"/>
</a>
</g>
</g>
<!-- Node9&#45;&gt;Node7 -->
<g id="edge12_Node000009_Node000007" class="edge">
<title>Node9&#45;&gt;Node7</title>
<g id="a_edge12_Node000009_Node000007"><a xlink:title=" ">
<path fill="none" stroke="#63b8ff" d="M238.38,-51.18C257.47,-41.59 281.7,-29.42 298.31,-21.08"/>
<polygon fill="#63b8ff" stroke="#63b8ff" points="236.83,-48.04 229.46,-55.66 239.97,-54.3 236.83,-48.04"/>
</a>
</g>
</g>
<!-- Node10 -->
<g id="Node000010" class="node">
<title>Node10</title>
<g id="a_Node000010"><a xlink:href="Dipole_8cpp.html" target="_top" xlink:title="Implementation of the Dipole incident source.">
<polygon fill="white" stroke="#666666" points="236.5,-20.75 168.75,-20.75 168.75,0 236.5,0 236.5,-20.75"/>
<text xml:space="preserve" text-anchor="middle" x="202.62" y="-7.25" font-family="Helvetica,sans-Serif" font-size="10.00">Dipole.cpp</text>
</a>
</g>
</g>
<!-- Node9&#45;&gt;Node10 -->
<g id="edge10_Node000009_Node000010" class="edge">
<title>Node9&#45;&gt;Node10</title>
<g id="a_edge10_Node000009_Node000010"><a xlink:title=" ">
<path fill="none" stroke="#63b8ff" d="M206.33,-45.17C205.42,-36.88 204.42,-27.75 203.69,-21.08"/>
<polygon fill="#63b8ff" stroke="#63b8ff" points="202.82,-45.27 207.39,-54.83 209.78,-44.51 202.82,-45.27"/>
</a>
</g>
</g>
<!-- Node11&#45;&gt;Node5 -->
<g id="edge15_Node000011_Node000005" class="edge">
<title>Node11&#45;&gt;Node5</title>
<g id="a_edge15_Node000011_Node000005"><a xlink:title=" ">
<path fill="none" stroke="#63b8ff" d="M375.26,-54.13C432.96,-43.09 516.51,-27.09 563.36,-18.13"/>
<polygon fill="#63b8ff" stroke="#63b8ff" points="374.74,-50.67 365.57,-55.99 376.05,-57.55 374.74,-50.67"/>
</a>
</g>
</g>
<!-- Node11&#45;&gt;Node7 -->
<g id="edge14_Node000011_Node000007" class="edge">
<title>Node11&#45;&gt;Node7</title>
<g id="a_edge14_Node000011_Node000007"><a xlink:title=" ">
<path fill="none" stroke="#63b8ff" d="M314.57,-44.88C315.32,-36.66 316.14,-27.68 316.74,-21.08"/>
<polygon fill="#63b8ff" stroke="#63b8ff" points="311.08,-44.55 313.66,-54.83 318.05,-45.19 311.08,-44.55"/>
</a>
</g>
</g>
</g>
</svg>
