<?xml version="1.0" encoding="UTF-8" standalone="no"?>
<!DOCTYPE svg PUBLIC "-//W3C//DTD SVG 1.1//EN"
 "http://www.w3.org/Graphics/SVG/1.1/DTD/svg11.dtd">
<!-- Generated by graphviz version 13.1.2 (20250809.0930)
 -->
<!-- Title: Domain.h Pages: 1 -->
<svg width="1338pt" height="540pt"
 viewBox="0.00 0.00 1338.00 540.00" xmlns="http://www.w3.org/2000/svg" xmlns:xlink="http://www.w3.org/1999/xlink">
<g id="graph0" class="graph" transform="scale(1 1) rotate(0) translate(4 535.5)">
<title>Domain.h</title>
<!-- Node1 -->
<g id="Node000001" class="node">
<title>Node1</title>
<g id="a_Node000001"><a xlink:title="Abstract simulation domain class for SIE scattering.">
<polygon fill="#999999" stroke="#666666" points="634.62,-531.5 571.38,-531.5 571.38,-510.75 634.62,-510.75 634.62,-531.5"/>
<text xml:space="preserve" text-anchor="middle" x="603" y="-518" font-family="Helvetica,sans-Serif" font-size="10.00">Domain.h</text>
</a>
</g>
</g>
<!-- Node2 -->
<g id="Node000002" class="node">
<title>Node2</title>
<g id="a_Node000002"><a xlink:title=" ">
<polygon fill="#e0e0e0" stroke="#999999" points="1309.5,-20.75 1236.5,-20.75 1236.5,0 1309.5,0 1309.5,-20.75"/>
<text xml:space="preserve" text-anchor="middle" x="1273" y="-7.25" font-family="Helvetica,sans-Serif" font-size="10.00">blitz/array.h</text>
</a>
</g>
</g>
<!-- Node1&#45;&gt;Node2 -->
<g id="edge1_Node000001_Node000002" class="edge">
<title>Node1&#45;&gt;Node2</title>
<g id="a_edge1_Node000001_Node000002"><a xlink:title=" ">
<path fill="none" stroke="#63b8ff" d="M634.83,-520.69C720.67,-521.56 963.59,-519.52 1159,-474.75 1238.43,-456.55 1330,-490.11 1330,-408.62 1330,-408.62 1330,-408.62 1330,-122.88 1330,-86.84 1306.11,-50.73 1289.26,-29.74"/>
<polygon fill="#63b8ff" stroke="#63b8ff" points="1291.98,-27.55 1282.88,-22.13 1286.62,-32.04 1291.98,-27.55"/>
</a>
</g>
</g>
<!-- Node3 -->
<g id="Node000003" class="node">
<title>Node3</title>
<g id="a_Node000003"><a xlink:title=" ">
<polygon fill="#e0e0e0" stroke="#999999" points="274.12,-77.5 219.88,-77.5 219.88,-56.75 274.12,-56.75 274.12,-77.5"/>
<text xml:space="preserve" text-anchor="middle" x="247" y="-64" font-family="Helvetica,sans-Serif" font-size="10.00">fstream</text>
</a>
</g>
</g>
<!-- Node1&#45;&gt;Node3 -->
<g id="edge2_Node000001_Node000003" class="edge">
<title>Node1&#45;&gt;Node3</title>
<g id="a_edge2_Node000001_Node000003"><a xlink:title=" ">
<path fill="none" stroke="#63b8ff" d="M570.93,-517.64C479.32,-509.67 223,-480.9 223,-408.62 223,-408.62 223,-408.62 223,-179.62 223,-147.21 232.81,-110.66 239.89,-88.52"/>
<polygon fill="#63b8ff" stroke="#63b8ff" points="243.14,-89.85 242.98,-79.25 236.5,-87.63 243.14,-89.85"/>
</a>
</g>
</g>
<!-- Node4 -->
<g id="Node000004" class="node">
<title>Node4</title>
<g id="a_Node000004"><a xlink:href="Bsp3D_8h.html" target="_top" xlink:title="3D Binary Space Partitioning (BSP) utilities for triangle meshes.">
<polygon fill="white" stroke="#666666" points="383.25,-191 326.75,-191 326.75,-170.25 383.25,-170.25 383.25,-191"/>
<text xml:space="preserve" text-anchor="middle" x="355" y="-177.5" font-family="Helvetica,sans-Serif" font-size="10.00">Bsp3D.h</text>
</a>
</g>
</g>
<!-- Node1&#45;&gt;Node4 -->
<g id="edge3_Node000001_Node000004" class="edge">
<title>Node1&#45;&gt;Node4</title>
<g id="a_edge3_Node000001_Node000004"><a xlink:title=" ">
<path fill="none" stroke="#63b8ff" d="M571.13,-520.32C522.75,-519.3 429.22,-512.15 361,-474.75 325.67,-455.38 299,-448.91 299,-408.62 299,-408.62 299,-408.62 299,-293.12 299,-257.22 322.48,-221.07 339.03,-200.04"/>
<polygon fill="#63b8ff" stroke="#63b8ff" points="341.65,-202.37 345.29,-192.42 336.24,-197.92 341.65,-202.37"/>
</a>
</g>
</g>
<!-- Node7 -->
<g id="Node000007" class="node">
<title>Node7</title>
<g id="a_Node000007"><a xlink:href="Triangle_8h.html" target="_top" xlink:title="Declaration of the Triangle class (surface element with cached geometry).">
<polygon fill="white" stroke="#666666" points="568.62,-134.25 505.38,-134.25 505.38,-113.5 568.62,-113.5 568.62,-134.25"/>
<text xml:space="preserve" text-anchor="middle" x="537" y="-120.75" font-family="Helvetica,sans-Serif" font-size="10.00">Triangle.h</text>
</a>
</g>
</g>
<!-- Node1&#45;&gt;Node7 -->
<g id="edge70_Node000001_Node000007" class="edge">
<title>Node1&#45;&gt;Node7</title>
<g id="a_edge70_Node000001_Node000007"><a xlink:title=" ">
<path fill="none" stroke="#63b8ff" d="M570.98,-513.22C548.69,-506.83 519.87,-495.13 502,-474.75 467.82,-435.76 479.52,-412.91 475,-361.25 467.8,-278.93 507.45,-185.04 526.82,-144.84"/>
<polygon fill="#63b8ff" stroke="#63b8ff" points="529.94,-146.44 531.23,-135.93 523.66,-143.34 529.94,-146.44"/>
</a>
</g>
</g>
<!-- Node8 -->
<g id="Node000008" class="node">
<title>Node8</title>
<g id="a_Node000008"><a xlink:href="globals_8h.html" target="_top" xlink:title="Global numerical constants, fundamental types, and simple macros.">
<polygon fill="white" stroke="#666666" points="760.12,-77.5 699.88,-77.5 699.88,-56.75 760.12,-56.75 760.12,-77.5"/>
<text xml:space="preserve" text-anchor="middle" x="730" y="-64" font-family="Helvetica,sans-Serif" font-size="10.00">globals.h</text>
</a>
</g>
</g>
<!-- Node1&#45;&gt;Node8 -->
<g id="edge71_Node000001_Node000008" class="edge">
<title>Node1&#45;&gt;Node8</title>
<g id="a_edge71_Node000001_Node000008"><a xlink:title=" ">
<path fill="none" stroke="#63b8ff" d="M635.05,-519.02C730.93,-515.42 1014.34,-502.65 1102,-474.75 1157.81,-456.98 1216,-467.2 1216,-408.62 1216,-408.62 1216,-408.62 1216,-236.38 1216,-171.45 1192.17,-147.72 1137,-113.5 1121.6,-103.95 872.47,-80.82 771.76,-71.81"/>
<polygon fill="#63b8ff" stroke="#63b8ff" points="772.3,-68.34 762.03,-70.94 771.67,-75.31 772.3,-68.34"/>
</a>
</g>
</g>
<!-- Node12 -->
<g id="Node000012" class="node">
<title>Node12</title>
<g id="a_Node000012"><a xlink:href="GreenF_8h.html" target="_top" xlink:title="Abstract base class for electromagnetic Green&#39;s functions.">
<polygon fill="white" stroke="#666666" points="796.38,-361.25 737.62,-361.25 737.62,-340.5 796.38,-340.5 796.38,-361.25"/>
<text xml:space="preserve" text-anchor="middle" x="767" y="-347.75" font-family="Helvetica,sans-Serif" font-size="10.00">GreenF.h</text>
</a>
</g>
</g>
<!-- Node1&#45;&gt;Node12 -->
<g id="edge14_Node000001_Node000012" class="edge">
<title>Node1&#45;&gt;Node12</title>
<g id="a_edge14_Node000001_Node000012"><a xlink:title=" ">
<path fill="none" stroke="#63b8ff" d="M622.06,-510.39C637.14,-502.14 658.2,-489.34 674,-474.75 708.39,-442.98 739.22,-397.23 755.29,-371.45"/>
<polygon fill="#63b8ff" stroke="#63b8ff" points="758.21,-373.38 760.45,-363.02 752.24,-369.72 758.21,-373.38"/>
</a>
</g>
</g>
<!-- Node17 -->
<g id="Node000017" class="node">
<title>Node17</title>
<g id="a_Node000017"><a xlink:href="RWGFun_8h.html" target="_top" xlink:title="Header for the RWGFun class.">
<polygon fill="white" stroke="#666666" points="608.12,-247.75 541.88,-247.75 541.88,-227 608.12,-227 608.12,-247.75"/>
<text xml:space="preserve" text-anchor="middle" x="575" y="-234.25" font-family="Helvetica,sans-Serif" font-size="10.00">RWGFun.h</text>
</a>
</g>
</g>
<!-- Node1&#45;&gt;Node17 -->
<g id="edge61_Node000001_Node000017" class="edge">
<title>Node1&#45;&gt;Node17</title>
<g id="a_edge61_Node000001_Node000017"><a xlink:title=" ">
<path fill="none" stroke="#63b8ff" d="M580.2,-510.32C546.94,-494.3 489,-459.15 489,-408.62 489,-408.62 489,-408.62 489,-349.88 489,-309.12 525.47,-274.16 550.91,-254.73"/>
<polygon fill="#63b8ff" stroke="#63b8ff" points="552.79,-257.69 558.8,-248.96 548.66,-252.04 552.79,-257.69"/>
</a>
</g>
</g>
<!-- Node18 -->
<g id="Node000018" class="node">
<title>Node18</title>
<g id="a_Node000018"><a xlink:href="SurfaceMesh_8h.html" target="_top" xlink:title="Declaration of the SurfaceMesh class and mesh edge struct.">
<polygon fill="white" stroke="#666666" points="875,-191 787,-191 787,-170.25 875,-170.25 875,-191"/>
<text xml:space="preserve" text-anchor="middle" x="831" y="-177.5" font-family="Helvetica,sans-Serif" font-size="10.00">SurfaceMesh.h</text>
</a>
</g>
</g>
<!-- Node1&#45;&gt;Node18 -->
<g id="edge69_Node000001_Node000018" class="edge">
<title>Node1&#45;&gt;Node18</title>
<g id="a_edge69_Node000001_Node000018"><a xlink:title=" ">
<path fill="none" stroke="#63b8ff" d="M634.98,-520.34C750.59,-520.29 1140,-512.41 1140,-408.62 1140,-408.62 1140,-408.62 1140,-349.88 1140,-235.77 975.45,-198.6 886.51,-186.85"/>
<polygon fill="#63b8ff" stroke="#63b8ff" points="887.13,-183.4 876.77,-185.63 886.26,-190.34 887.13,-183.4"/>
</a>
</g>
</g>
<!-- Node26 -->
<g id="Node000026" class="node">
<title>Node26</title>
<g id="a_Node000026"><a xlink:href="IncidentField_8h.html" target="_top" xlink:title="Abstract interface for incident electromagnetic excitations.">
<polygon fill="white" stroke="#666666" points="604.62,-418 517.38,-418 517.38,-397.25 604.62,-397.25 604.62,-418"/>
<text xml:space="preserve" text-anchor="middle" x="561" y="-404.5" font-family="Helvetica,sans-Serif" font-size="10.00">IncidentField.h</text>
</a>
</g>
</g>
<!-- Node1&#45;&gt;Node26 -->
<g id="edge50_Node000001_Node000026" class="edge">
<title>Node1&#45;&gt;Node26</title>
<g id="a_edge50_Node000001_Node000026"><a xlink:title=" ">
<path fill="none" stroke="#63b8ff" d="M599.42,-510.62C592.63,-492.61 577.77,-453.14 568.65,-428.93"/>
<polygon fill="#63b8ff" stroke="#63b8ff" points="572.03,-427.97 565.23,-419.84 565.47,-430.43 572.03,-427.97"/>
</a>
</g>
</g>
<!-- Node31 -->
<g id="Node000031" class="node">
<title>Node31</title>
<g id="a_Node000031"><a xlink:href="SIEForm_8h.html" target="_top" xlink:title="Header for the SIEForm class.">
<polygon fill="white" stroke="#666666" points="665.38,-474.75 600.62,-474.75 600.62,-454 665.38,-454 665.38,-474.75"/>
<text xml:space="preserve" text-anchor="middle" x="633" y="-461.25" font-family="Helvetica,sans-Serif" font-size="10.00">SIEForm.h</text>
</a>
</g>
</g>
<!-- Node1&#45;&gt;Node31 -->
<g id="edge62_Node000001_Node000031" class="edge">
<title>Node1&#45;&gt;Node31</title>
<g id="a_edge62_Node000001_Node000031"><a xlink:title=" ">
<path fill="none" stroke="#63b8ff" d="M608.36,-510.34C612.2,-503.33 617.5,-493.66 622.2,-485.08"/>
<polygon fill="#63b8ff" stroke="#63b8ff" points="625.22,-486.86 626.96,-476.41 619.08,-483.49 625.22,-486.86"/>
</a>
</g>
</g>
<!-- Node5 -->
<g id="Node000005" class="node">
<title>Node5</title>
<g id="a_Node000005"><a xlink:title=" ">
<polygon fill="#e0e0e0" stroke="#999999" points="334.62,-134.25 289.38,-134.25 289.38,-113.5 334.62,-113.5 334.62,-134.25"/>
<text xml:space="preserve" text-anchor="middle" x="312" y="-120.75" font-family="Helvetica,sans-Serif" font-size="10.00">cstdio</text>
</a>
</g>
</g>
<!-- Node4&#45;&gt;Node5 -->
<g id="edge4_Node000004_Node000005" class="edge">
<title>Node4&#45;&gt;Node5</title>
<g id="a_edge4_Node000004_Node000005"><a xlink:title=" ">
<path fill="none" stroke="#63b8ff" d="M347.31,-169.84C341.56,-162.52 333.53,-152.29 326.58,-143.44"/>
<polygon fill="#63b8ff" stroke="#63b8ff" points="329.49,-141.47 320.56,-135.77 323.98,-145.8 329.49,-141.47"/>
</a>
</g>
</g>
<!-- Node6 -->
<g id="Node000006" class="node">
<title>Node6</title>
<g id="a_Node000006"><a xlink:title=" ">
<polygon fill="#e0e0e0" stroke="#999999" points="492.38,-77.5 445.62,-77.5 445.62,-56.75 492.38,-56.75 492.38,-77.5"/>
<text xml:space="preserve" text-anchor="middle" x="469" y="-64" font-family="Helvetica,sans-Serif" font-size="10.00">vector</text>
</a>
</g>
</g>
<!-- Node4&#45;&gt;Node6 -->
<g id="edge5_Node000004_Node000006" class="edge">
<title>Node4&#45;&gt;Node6</title>
<g id="a_edge5_Node000004_Node000006"><a xlink:title=" ">
<path fill="none" stroke="#63b8ff" d="M357.61,-170.01C361.81,-156.09 371.22,-130.17 387,-113.5 400.31,-99.45 418.95,-88.66 435.1,-81.13"/>
<polygon fill="#63b8ff" stroke="#63b8ff" points="436.14,-84.5 443.88,-77.27 433.32,-78.09 436.14,-84.5"/>
</a>
</g>
</g>
<!-- Node4&#45;&gt;Node7 -->
<g id="edge6_Node000004_Node000007" class="edge">
<title>Node4&#45;&gt;Node7</title>
<g id="a_edge6_Node000004_Node000007"><a xlink:title=" ">
<path fill="none" stroke="#63b8ff" d="M383.44,-171.07C413.21,-162.11 460.29,-147.95 494.48,-137.67"/>
<polygon fill="#63b8ff" stroke="#63b8ff" points="495.07,-141.14 503.64,-134.91 493.06,-134.44 495.07,-141.14"/>
</a>
</g>
</g>
<!-- Node4&#45;&gt;Node8 -->
<g id="edge13_Node000004_Node000008" class="edge">
<title>Node4&#45;&gt;Node8</title>
<g id="a_edge13_Node000004_Node000008"><a xlink:title=" ">
<path fill="none" stroke="#63b8ff" d="M367.46,-169.77C386.75,-155.05 425.54,-127.55 463,-113.5 539.13,-84.94 634.23,-74.26 687.94,-70.34"/>
<polygon fill="#63b8ff" stroke="#63b8ff" points="688.15,-73.83 697.88,-69.66 687.67,-66.85 688.15,-73.83"/>
</a>
</g>
</g>
<!-- Node7&#45;&gt;Node6 -->
<g id="edge7_Node000007_Node000006" class="edge">
<title>Node7&#45;&gt;Node6</title>
<g id="a_edge7_Node000007_Node000006"><a xlink:title=" ">
<path fill="none" stroke="#63b8ff" d="M524.84,-113.09C515.17,-105.3 501.42,-94.22 489.98,-85.01"/>
<polygon fill="#63b8ff" stroke="#63b8ff" points="492.21,-82.32 482.23,-78.78 487.82,-87.78 492.21,-82.32"/>
</a>
</g>
</g>
<!-- Node7&#45;&gt;Node8 -->
<g id="edge8_Node000007_Node000008" class="edge">
<title>Node7&#45;&gt;Node8</title>
<g id="a_edge8_Node000007_Node000008"><a xlink:title=" ">
<path fill="none" stroke="#63b8ff" d="M568.87,-113.83C601.62,-104.54 652.75,-90.04 688.61,-79.87"/>
<polygon fill="#63b8ff" stroke="#63b8ff" points="689.55,-83.24 698.22,-77.14 687.64,-76.5 689.55,-83.24"/>
</a>
</g>
</g>
<!-- Node8&#45;&gt;Node2 -->
<g id="edge9_Node000008_Node000002" class="edge">
<title>Node8&#45;&gt;Node2</title>
<g id="a_edge9_Node000008_Node000002"><a xlink:title=" ">
<path fill="none" stroke="#63b8ff" d="M760.36,-63.06C850.22,-54 1115.41,-27.26 1224.89,-16.23"/>
<polygon fill="#63b8ff" stroke="#63b8ff" points="1225.12,-19.72 1234.72,-15.24 1224.41,-12.76 1225.12,-19.72"/>
</a>
</g>
</g>
<!-- Node9 -->
<g id="Node000009" class="node">
<title>Node9</title>
<g id="a_Node000009"><a xlink:title=" ">
<polygon fill="#e0e0e0" stroke="#999999" points="802.5,-20.75 711.5,-20.75 711.5,0 802.5,0 802.5,-20.75"/>
<text xml:space="preserve" text-anchor="middle" x="757" y="-7.25" font-family="Helvetica,sans-Serif" font-size="10.00">blitz/tinyvec2.h</text>
</a>
</g>
</g>
<!-- Node8&#45;&gt;Node9 -->
<g id="edge10_Node000008_Node000009" class="edge">
<title>Node8&#45;&gt;Node9</title>
<g id="a_edge10_Node000008_Node000009"><a xlink:title=" ">
<path fill="none" stroke="#63b8ff" d="M734.83,-56.34C738.24,-49.41 742.95,-39.87 747.14,-31.36"/>
<polygon fill="#63b8ff" stroke="#63b8ff" points="750.26,-32.95 751.55,-22.44 743.98,-29.86 750.26,-32.95"/>
</a>
</g>
</g>
<!-- Node10 -->
<g id="Node000010" class="node">
<title>Node10</title>
<g id="a_Node000010"><a xlink:title=" ">
<polygon fill="#e0e0e0" stroke="#999999" points="693.12,-20.75 596.88,-20.75 596.88,0 693.12,0 693.12,-20.75"/>
<text xml:space="preserve" text-anchor="middle" x="645" y="-7.25" font-family="Helvetica,sans-Serif" font-size="10.00">blitz/tvecglobs.h</text>
</a>
</g>
</g>
<!-- Node8&#45;&gt;Node10 -->
<g id="edge11_Node000008_Node000010" class="edge">
<title>Node8&#45;&gt;Node10</title>
<g id="a_edge11_Node000008_Node000010"><a xlink:title=" ">
<path fill="none" stroke="#63b8ff" d="M714.8,-56.34C702.23,-48.24 684.14,-36.58 669.52,-27.17"/>
<polygon fill="#63b8ff" stroke="#63b8ff" points="671.64,-24.37 661.34,-21.9 667.85,-30.26 671.64,-24.37"/>
</a>
</g>
</g>
<!-- Node11 -->
<g id="Node000011" class="node">
<title>Node11</title>
<g id="a_Node000011"><a xlink:title=" ">
<polygon fill="#e0e0e0" stroke="#999999" points="917,-20.75 859,-20.75 859,0 917,0 917,-20.75"/>
<text xml:space="preserve" text-anchor="middle" x="888" y="-7.25" font-family="Helvetica,sans-Serif" font-size="10.00">complex</text>
</a>
</g>
</g>
<!-- Node8&#45;&gt;Node11 -->
<g id="edge12_Node000008_Node000011" class="edge">
<title>Node8&#45;&gt;Node11</title>
<g id="a_edge12_Node000008_Node000011"><a xlink:title=" ">
<path fill="none" stroke="#63b8ff" d="M758.25,-56.34C783.56,-47.57 820.92,-34.62 849.06,-24.87"/>
<polygon fill="#63b8ff" stroke="#63b8ff" points="850,-28.25 858.3,-21.67 847.71,-21.63 850,-28.25"/>
</a>
</g>
</g>
<!-- Node12&#45;&gt;Node2 -->
<g id="edge15_Node000012_Node000002" class="edge">
<title>Node12&#45;&gt;Node2</title>
<g id="a_edge15_Node000012_Node000002"><a xlink:title=" ">
<path fill="none" stroke="#63b8ff" d="M796.84,-345.92C831.79,-340.4 890.66,-328.25 936,-304.5 1079.58,-229.29 1213.37,-81.47 1257.63,-29.76"/>
<polygon fill="#63b8ff" stroke="#63b8ff" points="1260.27,-32.05 1264.07,-22.16 1254.93,-27.53 1260.27,-32.05"/>
</a>
</g>
</g>
<!-- Node12&#45;&gt;Node8 -->
<g id="edge48_Node000012_Node000008" class="edge">
<title>Node12&#45;&gt;Node8</title>
<g id="a_edge48_Node000012_Node000008"><a xlink:title=" ">
<path fill="none" stroke="#63b8ff" d="M762.28,-340.03C753.99,-322.15 737.12,-282.94 731,-247.75 721.14,-191.08 724.97,-122.83 727.88,-89.1"/>
<polygon fill="#63b8ff" stroke="#63b8ff" points="731.33,-89.75 728.78,-79.47 724.36,-89.1 731.33,-89.75"/>
</a>
</g>
</g>
<!-- Node13 -->
<g id="Node000013" class="node">
<title>Node13</title>
<g id="a_Node000013"><a xlink:title=" ">
<polygon fill="#e0e0e0" stroke="#999999" points="786.38,-247.75 739.62,-247.75 739.62,-227 786.38,-227 786.38,-247.75"/>
<text xml:space="preserve" text-anchor="middle" x="763" y="-234.25" font-family="Helvetica,sans-Serif" font-size="10.00">cmath</text>
</a>
</g>
</g>
<!-- Node12&#45;&gt;Node13 -->
<g id="edge16_Node000012_Node000013" class="edge">
<title>Node12&#45;&gt;Node13</title>
<g id="a_edge16_Node000012_Node000013"><a xlink:title=" ">
<path fill="none" stroke="#63b8ff" d="M766.66,-340.37C766.02,-322.6 764.64,-283.97 763.76,-259.68"/>
<polygon fill="#63b8ff" stroke="#63b8ff" points="767.26,-259.56 763.41,-249.69 760.27,-259.81 767.26,-259.56"/>
</a>
</g>
</g>
<!-- Node14 -->
<g id="Node000014" class="node">
<title>Node14</title>
<g id="a_Node000014"><a xlink:title=" ">
<polygon fill="#e0e0e0" stroke="#999999" points="996.25,-134.25 951.75,-134.25 951.75,-113.5 996.25,-113.5 996.25,-134.25"/>
<text xml:space="preserve" text-anchor="middle" x="974" y="-120.75" font-family="Helvetica,sans-Serif" font-size="10.00">utility</text>
</a>
</g>
</g>
<!-- Node12&#45;&gt;Node14 -->
<g id="edge17_Node000012_Node000014" class="edge">
<title>Node12&#45;&gt;Node14</title>
<g id="a_edge17_Node000012_Node000014"><a xlink:title=" ">
<path fill="none" stroke="#63b8ff" d="M796.54,-343.09C821.57,-336.3 857.52,-324.02 884,-304.5 937.73,-264.9 961.42,-184.13 969.96,-145.87"/>
<polygon fill="#63b8ff" stroke="#63b8ff" points="973.38,-146.63 971.99,-136.13 966.52,-145.2 973.38,-146.63"/>
</a>
</g>
</g>
<!-- Node15 -->
<g id="Node000015" class="node">
<title>Node15</title>
<g id="a_Node000015"><a xlink:href="GaussQuad_8h.html" target="_top" xlink:title="Gaussian quadrature helpers for Green&#39;s functions and incident fields.">
<polygon fill="white" stroke="#666666" points="875.25,-304.5 794.75,-304.5 794.75,-283.75 875.25,-283.75 875.25,-304.5"/>
<text xml:space="preserve" text-anchor="middle" x="835" y="-291" font-family="Helvetica,sans-Serif" font-size="10.00">GaussQuad.h</text>
</a>
</g>
</g>
<!-- Node12&#45;&gt;Node15 -->
<g id="edge18_Node000012_Node000015" class="edge">
<title>Node12&#45;&gt;Node15</title>
<g id="a_edge18_Node000012_Node000015"><a xlink:title=" ">
<path fill="none" stroke="#63b8ff" d="M779.16,-340.09C788.83,-332.3 802.58,-321.22 814.02,-312.01"/>
<polygon fill="#63b8ff" stroke="#63b8ff" points="816.18,-314.78 821.77,-305.78 811.79,-309.32 816.18,-314.78"/>
</a>
</g>
</g>
<!-- Node12&#45;&gt;Node17 -->
<g id="edge42_Node000012_Node000017" class="edge">
<title>Node12&#45;&gt;Node17</title>
<g id="a_edge42_Node000012_Node000017"><a xlink:title=" ">
<path fill="none" stroke="#63b8ff" d="M737.39,-345.32C707.63,-339.63 661.5,-327.68 628,-304.5 610.28,-292.24 595.49,-272.37 586.08,-257.6"/>
<polygon fill="#63b8ff" stroke="#63b8ff" points="589.17,-255.96 580.99,-249.23 583.19,-259.59 589.17,-255.96"/>
</a>
</g>
</g>
<!-- Node22 -->
<g id="Node000022" class="node">
<title>Node22</title>
<g id="a_Node000022"><a xlink:href="mathFunctions_8h.html" target="_top" xlink:title="Header file of the class that provides auxiliary mathematical functionalities for the SIE solver.">
<polygon fill="white" stroke="#666666" points="1111.5,-134.25 1014.5,-134.25 1014.5,-113.5 1111.5,-113.5 1111.5,-134.25"/>
<text xml:space="preserve" text-anchor="middle" x="1063" y="-120.75" font-family="Helvetica,sans-Serif" font-size="10.00">mathFunctions.h</text>
</a>
</g>
</g>
<!-- Node12&#45;&gt;Node22 -->
<g id="edge49_Node000012_Node000022" class="edge">
<title>Node12&#45;&gt;Node22</title>
<g id="a_edge49_Node000012_Node000022"><a xlink:title=" ">
<path fill="none" stroke="#63b8ff" d="M796.81,-345.28C827.06,-339.54 874.28,-327.53 909,-304.5 975.05,-260.69 1029.02,-180.88 1051.6,-144.22"/>
<polygon fill="#63b8ff" stroke="#63b8ff" points="1054.39,-146.37 1056.56,-136 1048.4,-142.75 1054.39,-146.37"/>
</a>
</g>
</g>
<!-- Node25 -->
<g id="Node000025" class="node">
<title>Node25</title>
<g id="a_Node000025"><a xlink:href="SingSub_8h.html" target="_top" xlink:title="Exact subtractions for singular/near&#45;singular triangle integrals.">
<polygon fill="white" stroke="#666666" points="701,-304.5 637,-304.5 637,-283.75 701,-283.75 701,-304.5"/>
<text xml:space="preserve" text-anchor="middle" x="669" y="-291" font-family="Helvetica,sans-Serif" font-size="10.00">SingSub.h</text>
</a>
</g>
</g>
<!-- Node12&#45;&gt;Node25 -->
<g id="edge43_Node000012_Node000025" class="edge">
<title>Node12&#45;&gt;Node25</title>
<g id="a_edge43_Node000012_Node000025"><a xlink:title=" ">
<path fill="none" stroke="#63b8ff" d="M749.48,-340.09C734.71,-331.83 713.32,-319.88 696.3,-310.38"/>
<polygon fill="#63b8ff" stroke="#63b8ff" points="698.13,-307.39 687.69,-305.57 694.71,-313.5 698.13,-307.39"/>
</a>
</g>
</g>
<!-- Node15&#45;&gt;Node8 -->
<g id="edge40_Node000015_Node000008" class="edge">
<title>Node15&#45;&gt;Node8</title>
<g id="a_edge40_Node000015_Node000008"><a xlink:title=" ">
<path fill="none" stroke="#63b8ff" d="M829.04,-283.5C818.13,-265.66 794.54,-226.08 778,-191 761.38,-155.75 745.64,-113.08 736.96,-88.42"/>
<polygon fill="#63b8ff" stroke="#63b8ff" points="740.38,-87.6 733.79,-79.3 733.77,-89.9 740.38,-87.6"/>
</a>
</g>
</g>
<!-- Node15&#45;&gt;Node13 -->
<g id="edge19_Node000015_Node000013" class="edge">
<title>Node15&#45;&gt;Node13</title>
<g id="a_edge19_Node000015_Node000013"><a xlink:title=" ">
<path fill="none" stroke="#63b8ff" d="M822.13,-283.34C811.79,-275.47 797.03,-264.25 784.85,-254.99"/>
<polygon fill="#63b8ff" stroke="#63b8ff" points="787.04,-252.26 776.97,-248.99 782.81,-257.83 787.04,-252.26"/>
</a>
</g>
</g>
<!-- Node16 -->
<g id="Node000016" class="node">
<title>Node16</title>
<g id="a_Node000016"><a xlink:title=" ">
<polygon fill="#e0e0e0" stroke="#999999" points="1028.75,-77.5 969.25,-77.5 969.25,-56.75 1028.75,-56.75 1028.75,-77.5"/>
<text xml:space="preserve" text-anchor="middle" x="999" y="-64" font-family="Helvetica,sans-Serif" font-size="10.00">iostream</text>
</a>
</g>
</g>
<!-- Node15&#45;&gt;Node16 -->
<g id="edge20_Node000015_Node000016" class="edge">
<title>Node15&#45;&gt;Node16</title>
<g id="a_edge20_Node000015_Node000016"><a xlink:title=" ">
<path fill="none" stroke="#63b8ff" d="M875.71,-284.57C941.39,-268.3 1068.65,-226.01 1121,-134.25 1125.57,-126.24 1126.26,-121.07 1121,-113.5 1116.08,-106.41 1073.6,-91.63 1040.13,-80.86"/>
<polygon fill="#63b8ff" stroke="#63b8ff" points="1041.23,-77.54 1030.64,-77.84 1039.11,-84.21 1041.23,-77.54"/>
</a>
</g>
</g>
<!-- Node15&#45;&gt;Node17 -->
<g id="edge21_Node000015_Node000017" class="edge">
<title>Node15&#45;&gt;Node17</title>
<g id="a_edge21_Node000015_Node000017"><a xlink:title=" ">
<path fill="none" stroke="#63b8ff" d="M794.38,-284.57C746.91,-274.57 668.63,-258.09 619.54,-247.75"/>
<polygon fill="#63b8ff" stroke="#63b8ff" points="620.31,-244.34 609.81,-245.7 618.87,-251.19 620.31,-244.34"/>
</a>
</g>
</g>
<!-- Node24 -->
<g id="Node000024" class="node">
<title>Node24</title>
<g id="a_Node000024"><a xlink:href="quadrature_8h.html" target="_top" xlink:title="Declarations of Dunavant (triangle) and Gauss–Legendre (1D) quadrature rules.">
<polygon fill="white" stroke="#666666" points="920.12,-247.75 841.88,-247.75 841.88,-227 920.12,-227 920.12,-247.75"/>
<text xml:space="preserve" text-anchor="middle" x="881" y="-234.25" font-family="Helvetica,sans-Serif" font-size="10.00">quadrature.h</text>
</a>
</g>
</g>
<!-- Node15&#45;&gt;Node24 -->
<g id="edge41_Node000015_Node000024" class="edge">
<title>Node15&#45;&gt;Node24</title>
<g id="a_edge41_Node000015_Node000024"><a xlink:title=" ">
<path fill="none" stroke="#63b8ff" d="M843.22,-283.34C849.44,-275.94 858.15,-265.57 865.64,-256.66"/>
<polygon fill="#63b8ff" stroke="#63b8ff" points="868.12,-259.15 871.87,-249.24 862.76,-254.64 868.12,-259.15"/>
</a>
</g>
</g>
<!-- Node17&#45;&gt;Node7 -->
<g id="edge38_Node000017_Node000007" class="edge">
<title>Node17&#45;&gt;Node7</title>
<g id="a_edge38_Node000017_Node000007"><a xlink:title=" ">
<path fill="none" stroke="#63b8ff" d="M571.76,-226.87C565.65,-208.94 552.29,-169.75 544.03,-145.51"/>
<polygon fill="#63b8ff" stroke="#63b8ff" points="547.37,-144.44 540.83,-136.11 540.74,-146.7 547.37,-144.44"/>
</a>
</g>
</g>
<!-- Node17&#45;&gt;Node8 -->
<g id="edge39_Node000017_Node000008" class="edge">
<title>Node17&#45;&gt;Node8</title>
<g id="a_edge39_Node000017_Node000008"><a xlink:title=" ">
<path fill="none" stroke="#63b8ff" d="M579.8,-226.8C591.19,-204.78 621.71,-149.65 659,-113.5 671.14,-101.73 686.78,-91.35 700.29,-83.49"/>
<polygon fill="#63b8ff" stroke="#63b8ff" points="701.78,-86.67 708.8,-78.73 698.36,-80.56 701.78,-86.67"/>
</a>
</g>
</g>
<!-- Node17&#45;&gt;Node18 -->
<g id="edge22_Node000017_Node000018" class="edge">
<title>Node17&#45;&gt;Node18</title>
<g id="a_edge22_Node000017_Node000018"><a xlink:title=" ">
<path fill="none" stroke="#63b8ff" d="M608.47,-229.22C650.93,-220.14 724.75,-204.35 775.65,-193.46"/>
<polygon fill="#63b8ff" stroke="#63b8ff" points="776.26,-196.91 785.31,-191.4 774.8,-190.07 776.26,-196.91"/>
</a>
</g>
</g>
<!-- Node18&#45;&gt;Node6 -->
<g id="edge25_Node000018_Node000006" class="edge">
<title>Node18&#45;&gt;Node6</title>
<g id="a_edge25_Node000018_Node000006"><a xlink:title=" ">
<path fill="none" stroke="#63b8ff" d="M799.19,-169.83C731.53,-148.99 573.8,-100.41 503.68,-78.81"/>
<polygon fill="#63b8ff" stroke="#63b8ff" points="504.84,-75.5 494.26,-75.9 502.78,-82.19 504.84,-75.5"/>
</a>
</g>
</g>
<!-- Node18&#45;&gt;Node7 -->
<g id="edge31_Node000018_Node000007" class="edge">
<title>Node18&#45;&gt;Node7</title>
<g id="a_edge31_Node000018_Node000007"><a xlink:title=" ">
<path fill="none" stroke="#63b8ff" d="M786.6,-171.78C736.94,-162.94 654.12,-148 583,-134.25 581.98,-134.05 580.96,-133.85 579.92,-133.65"/>
<polygon fill="#63b8ff" stroke="#63b8ff" points="580.63,-130.22 570.14,-131.71 579.27,-137.09 580.63,-130.22"/>
</a>
</g>
</g>
<!-- Node18&#45;&gt;Node8 -->
<g id="edge32_Node000018_Node000008" class="edge">
<title>Node18&#45;&gt;Node8</title>
<g id="a_edge32_Node000018_Node000008"><a xlink:title=" ">
<path fill="none" stroke="#63b8ff" d="M822.39,-170.12C805.55,-151.53 768.03,-110.11 746.34,-86.16"/>
<polygon fill="#63b8ff" stroke="#63b8ff" points="749.2,-84.11 739.89,-79.05 744.01,-88.81 749.2,-84.11"/>
</a>
</g>
</g>
<!-- Node18&#45;&gt;Node14 -->
<g id="edge24_Node000018_Node000014" class="edge">
<title>Node18&#45;&gt;Node14</title>
<g id="a_edge24_Node000018_Node000014"><a xlink:title=" ">
<path fill="none" stroke="#63b8ff" d="M856.57,-169.84C880.08,-160.83 915.09,-147.43 940.76,-137.6"/>
<polygon fill="#63b8ff" stroke="#63b8ff" points="941.98,-140.88 950.07,-134.04 939.48,-134.35 941.98,-140.88"/>
</a>
</g>
</g>
<!-- Node19 -->
<g id="Node000019" class="node">
<title>Node19</title>
<g id="a_Node000019"><a xlink:title=" ">
<polygon fill="#e0e0e0" stroke="#999999" points="846.5,-134.25 815.5,-134.25 815.5,-113.5 846.5,-113.5 846.5,-134.25"/>
<text xml:space="preserve" text-anchor="middle" x="831" y="-120.75" font-family="Helvetica,sans-Serif" font-size="10.00">set</text>
</a>
</g>
</g>
<!-- Node18&#45;&gt;Node19 -->
<g id="edge23_Node000018_Node000019" class="edge">
<title>Node18&#45;&gt;Node19</title>
<g id="a_edge23_Node000018_Node000019"><a xlink:title=" ">
<path fill="none" stroke="#63b8ff" d="M831,-169.84C831,-163.22 831,-154.22 831,-146.02"/>
<polygon fill="#63b8ff" stroke="#63b8ff" points="834.5,-146.09 831,-136.09 827.5,-146.09 834.5,-146.09"/>
</a>
</g>
</g>
<!-- Node20 -->
<g id="Node000020" class="node">
<title>Node20</title>
<g id="a_Node000020"><a xlink:href="JobParser_8h.html" target="_top" xlink:title="Lightweight XML&#45;like tag parser for the solver job file.">
<polygon fill="white" stroke="#666666" points="933.62,-134.25 864.38,-134.25 864.38,-113.5 933.62,-113.5 933.62,-134.25"/>
<text xml:space="preserve" text-anchor="middle" x="899" y="-120.75" font-family="Helvetica,sans-Serif" font-size="10.00">JobParser.h</text>
</a>
</g>
</g>
<!-- Node18&#45;&gt;Node20 -->
<g id="edge26_Node000018_Node000020" class="edge">
<title>Node18&#45;&gt;Node20</title>
<g id="a_edge26_Node000018_Node000020"><a xlink:title=" ">
<path fill="none" stroke="#63b8ff" d="M843.16,-169.84C852.83,-162.05 866.58,-150.97 878.02,-141.76"/>
<polygon fill="#63b8ff" stroke="#63b8ff" points="880.18,-144.53 885.77,-135.53 875.79,-139.07 880.18,-144.53"/>
</a>
</g>
</g>
<!-- Node18&#45;&gt;Node22 -->
<g id="edge33_Node000018_Node000022" class="edge">
<title>Node18&#45;&gt;Node22</title>
<g id="a_edge33_Node000018_Node000022"><a xlink:title=" ">
<path fill="none" stroke="#63b8ff" d="M872.74,-169.77C911.22,-160.69 968.51,-147.17 1010.16,-137.34"/>
<polygon fill="#63b8ff" stroke="#63b8ff" points="1010.8,-140.79 1019.73,-135.09 1009.19,-133.98 1010.8,-140.79"/>
</a>
</g>
</g>
<!-- Node20&#45;&gt;Node3 -->
<g id="edge27_Node000020_Node000003" class="edge">
<title>Node20&#45;&gt;Node3</title>
<g id="a_edge27_Node000020_Node000003"><a xlink:title=" ">
<path fill="none" stroke="#63b8ff" d="M864.01,-114.97C860.97,-114.42 857.94,-113.92 855,-113.5 744.31,-97.65 402.22,-77.06 286.06,-70.34"/>
<polygon fill="#63b8ff" stroke="#63b8ff" points="286.29,-66.85 276.1,-69.77 285.89,-73.84 286.29,-66.85"/>
</a>
</g>
</g>
<!-- Node20&#45;&gt;Node6 -->
<g id="edge30_Node000020_Node000006" class="edge">
<title>Node20&#45;&gt;Node6</title>
<g id="a_edge30_Node000020_Node000006"><a xlink:title=" ">
<path fill="none" stroke="#63b8ff" d="M863.99,-115.11C860.96,-114.53 857.93,-113.98 855,-113.5 726.25,-92.26 571.74,-77.22 503.87,-71.13"/>
<polygon fill="#63b8ff" stroke="#63b8ff" points="504.38,-67.66 494.11,-70.26 503.76,-74.63 504.38,-67.66"/>
</a>
</g>
</g>
<!-- Node20&#45;&gt;Node16 -->
<g id="edge28_Node000020_Node000016" class="edge">
<title>Node20&#45;&gt;Node16</title>
<g id="a_edge28_Node000020_Node000016"><a xlink:title=" ">
<path fill="none" stroke="#63b8ff" d="M916.88,-113.09C932.09,-104.76 954.19,-92.66 971.63,-83.11"/>
<polygon fill="#63b8ff" stroke="#63b8ff" points="972.86,-86.43 979.95,-78.56 969.5,-80.29 972.86,-86.43"/>
</a>
</g>
</g>
<!-- Node21 -->
<g id="Node000021" class="node">
<title>Node21</title>
<g id="a_Node000021"><a xlink:title=" ">
<polygon fill="#e0e0e0" stroke="#999999" points="912.88,-77.5 869.12,-77.5 869.12,-56.75 912.88,-56.75 912.88,-77.5"/>
<text xml:space="preserve" text-anchor="middle" x="891" y="-64" font-family="Helvetica,sans-Serif" font-size="10.00">string</text>
</a>
</g>
</g>
<!-- Node20&#45;&gt;Node21 -->
<g id="edge29_Node000020_Node000021" class="edge">
<title>Node20&#45;&gt;Node21</title>
<g id="a_edge29_Node000020_Node000021"><a xlink:title=" ">
<path fill="none" stroke="#63b8ff" d="M897.57,-113.09C896.59,-106.39 895.26,-97.26 894.05,-88.98"/>
<polygon fill="#63b8ff" stroke="#63b8ff" points="897.55,-88.71 892.64,-79.33 890.62,-89.73 897.55,-88.71"/>
</a>
</g>
</g>
<!-- Node22&#45;&gt;Node6 -->
<g id="edge36_Node000022_Node000006" class="edge">
<title>Node22&#45;&gt;Node6</title>
<g id="a_edge36_Node000022_Node000006"><a xlink:title=" ">
<path fill="none" stroke="#63b8ff" d="M1014.3,-114.73C1011.16,-114.29 1008.04,-113.87 1005,-113.5 816.85,-90.36 590.09,-75.39 504.23,-70.18"/>
<polygon fill="#63b8ff" stroke="#63b8ff" points="504.54,-66.69 494.35,-69.59 504.12,-73.68 504.54,-66.69"/>
</a>
</g>
</g>
<!-- Node22&#45;&gt;Node8 -->
<g id="edge37_Node000022_Node000008" class="edge">
<title>Node22&#45;&gt;Node8</title>
<g id="a_edge37_Node000022_Node000008"><a xlink:title=" ">
<path fill="none" stroke="#63b8ff" d="M1014.22,-114.86C948.71,-104.08 833.42,-85.13 771.73,-74.99"/>
<polygon fill="#63b8ff" stroke="#63b8ff" points="772.43,-71.55 761.99,-73.38 771.29,-78.46 772.43,-71.55"/>
</a>
</g>
</g>
<!-- Node22&#45;&gt;Node11 -->
<g id="edge35_Node000022_Node000011" class="edge">
<title>Node22&#45;&gt;Node11</title>
<g id="a_edge35_Node000022_Node000011"><a xlink:title=" ">
<path fill="none" stroke="#63b8ff" d="M1034.18,-113.09C1012.79,-105.15 983.39,-92.79 960,-77.5 938.82,-63.66 917.9,-43.52 904.11,-29.1"/>
<polygon fill="#63b8ff" stroke="#63b8ff" points="906.93,-27 897.54,-22.08 901.82,-31.78 906.93,-27"/>
</a>
</g>
</g>
<!-- Node23 -->
<g id="Node000023" class="node">
<title>Node23</title>
<g id="a_Node000023"><a xlink:title=" ">
<polygon fill="#e0e0e0" stroke="#999999" points="1097.25,-77.5 1046.75,-77.5 1046.75,-56.75 1097.25,-56.75 1097.25,-77.5"/>
<text xml:space="preserve" text-anchor="middle" x="1072" y="-64" font-family="Helvetica,sans-Serif" font-size="10.00">math.h</text>
</a>
</g>
</g>
<!-- Node22&#45;&gt;Node23 -->
<g id="edge34_Node000022_Node000023" class="edge">
<title>Node22&#45;&gt;Node23</title>
<g id="a_edge34_Node000022_Node000023"><a xlink:title=" ">
<path fill="none" stroke="#63b8ff" d="M1064.61,-113.09C1065.71,-106.39 1067.21,-97.26 1068.57,-88.98"/>
<polygon fill="#63b8ff" stroke="#63b8ff" points="1071.99,-89.76 1070.16,-79.32 1065.08,-88.62 1071.99,-89.76"/>
</a>
</g>
</g>
<!-- Node25&#45;&gt;Node6 -->
<g id="edge44_Node000025_Node000006" class="edge">
<title>Node25&#45;&gt;Node6</title>
<g id="a_edge44_Node000025_Node000006"><a xlink:title=" ">
<path fill="none" stroke="#63b8ff" d="M636.53,-290.33C606.02,-286.04 561,-275.19 533,-247.75 488.16,-203.81 474.63,-126.4 470.63,-89.22"/>
<polygon fill="#63b8ff" stroke="#63b8ff" points="474.13,-89.01 469.72,-79.37 467.16,-89.65 474.13,-89.01"/>
</a>
</g>
</g>
<!-- Node25&#45;&gt;Node7 -->
<g id="edge46_Node000025_Node000007" class="edge">
<title>Node25&#45;&gt;Node7</title>
<g id="a_edge46_Node000025_Node000007"><a xlink:title=" ">
<path fill="none" stroke="#63b8ff" d="M661.52,-283.6C640.39,-256.66 579.9,-179.56 551.75,-143.67"/>
<polygon fill="#63b8ff" stroke="#63b8ff" points="554.58,-141.62 545.66,-135.91 549.08,-145.94 554.58,-141.62"/>
</a>
</g>
</g>
<!-- Node25&#45;&gt;Node8 -->
<g id="edge47_Node000025_Node000008" class="edge">
<title>Node25&#45;&gt;Node8</title>
<g id="a_edge47_Node000025_Node000008"><a xlink:title=" ">
<path fill="none" stroke="#63b8ff" d="M668.94,-283.35C669.09,-255.61 671.82,-174.47 697,-113.5 701.02,-103.77 707.52,-94.17 713.7,-86.32"/>
<polygon fill="#63b8ff" stroke="#63b8ff" points="716.19,-88.81 719.91,-78.89 710.82,-84.32 716.19,-88.81"/>
</a>
</g>
</g>
<!-- Node25&#45;&gt;Node17 -->
<g id="edge45_Node000025_Node000017" class="edge">
<title>Node25&#45;&gt;Node17</title>
<g id="a_edge45_Node000025_Node000017"><a xlink:title=" ">
<path fill="none" stroke="#63b8ff" d="M652.19,-283.34C638.03,-275.08 617.51,-263.13 601.19,-253.63"/>
<polygon fill="#63b8ff" stroke="#63b8ff" points="603.37,-250.85 592.97,-248.84 599.85,-256.9 603.37,-250.85"/>
</a>
</g>
</g>
<!-- Node26&#45;&gt;Node8 -->
<g id="edge52_Node000026_Node000008" class="edge">
<title>Node26&#45;&gt;Node8</title>
<g id="a_edge52_Node000026_Node000008"><a xlink:title=" ">
<path fill="none" stroke="#63b8ff" d="M553.77,-396.94C524.86,-356.95 422.54,-202.57 496,-113.5 519.88,-84.54 627.42,-73.84 688.06,-70.06"/>
<polygon fill="#63b8ff" stroke="#63b8ff" points="688.23,-73.56 698.01,-69.48 687.83,-66.57 688.23,-73.56"/>
</a>
</g>
</g>
<!-- Node26&#45;&gt;Node12 -->
<g id="edge60_Node000026_Node000012" class="edge">
<title>Node26&#45;&gt;Node12</title>
<g id="a_edge60_Node000026_Node000012"><a xlink:title=" ">
<path fill="none" stroke="#63b8ff" d="M597.83,-396.84C633.91,-387.25 688.77,-372.67 726.16,-362.73"/>
<polygon fill="#63b8ff" stroke="#63b8ff" points="726.94,-366.14 735.71,-360.19 725.14,-359.38 726.94,-366.14"/>
</a>
</g>
</g>
<!-- Node26&#45;&gt;Node17 -->
<g id="edge51_Node000026_Node000017" class="edge">
<title>Node26&#45;&gt;Node17</title>
<g id="a_edge51_Node000026_Node000017"><a xlink:title=" ">
<path fill="none" stroke="#63b8ff" d="M559.26,-396.95C555.8,-376.06 549.07,-325.26 557,-283.75 558.63,-275.24 561.83,-266.28 565.08,-258.6"/>
<polygon fill="#63b8ff" stroke="#63b8ff" points="568.26,-260.07 569.24,-249.52 561.9,-257.15 568.26,-260.07"/>
</a>
</g>
</g>
<!-- Node27 -->
<g id="Node000027" class="node">
<title>Node27</title>
<g id="a_Node000027"><a xlink:href="LayeredMediaUtils_8h.html" target="_top" xlink:title="This header declares utility structures and algorithms used throughout the layered&#45;media scattering s...">
<polygon fill="white" stroke="#666666" points="195.25,-134.25 78.75,-134.25 78.75,-113.5 195.25,-113.5 195.25,-134.25"/>
<text xml:space="preserve" text-anchor="middle" x="137" y="-120.75" font-family="Helvetica,sans-Serif" font-size="10.00">LayeredMediaUtils.h</text>
</a>
</g>
</g>
<!-- Node26&#45;&gt;Node27 -->
<g id="edge53_Node000026_Node000027" class="edge">
<title>Node26&#45;&gt;Node27</title>
<g id="a_edge53_Node000026_Node000027"><a xlink:title=" ">
<path fill="none" stroke="#63b8ff" d="M524.96,-396.75C499.48,-389 465.02,-376.89 437,-361.25 318.91,-295.34 198.57,-184.42 154.52,-142.04"/>
<polygon fill="#63b8ff" stroke="#63b8ff" points="157.23,-139.8 147.61,-135.35 152.36,-144.82 157.23,-139.8"/>
</a>
</g>
</g>
<!-- Node27&#45;&gt;Node3 -->
<g id="edge59_Node000027_Node000003" class="edge">
<title>Node27&#45;&gt;Node3</title>
<g id="a_edge59_Node000027_Node000003"><a xlink:title=" ">
<path fill="none" stroke="#63b8ff" d="M156.67,-113.09C173.56,-104.68 198.17,-92.43 217.43,-82.84"/>
<polygon fill="#63b8ff" stroke="#63b8ff" points="218.76,-86.09 226.15,-78.5 215.64,-79.83 218.76,-86.09"/>
</a>
</g>
</g>
<!-- Node27&#45;&gt;Node6 -->
<g id="edge57_Node000027_Node000006" class="edge">
<title>Node27&#45;&gt;Node6</title>
<g id="a_edge57_Node000027_Node000006"><a xlink:title=" ">
<path fill="none" stroke="#63b8ff" d="M195.59,-113.21C264.76,-101.81 377.53,-83.21 434.19,-73.87"/>
<polygon fill="#63b8ff" stroke="#63b8ff" points="434.6,-77.35 443.9,-72.26 433.46,-70.44 434.6,-77.35"/>
</a>
</g>
</g>
<!-- Node27&#45;&gt;Node8 -->
<g id="edge58_Node000027_Node000008" class="edge">
<title>Node27&#45;&gt;Node8</title>
<g id="a_edge58_Node000027_Node000008"><a xlink:title=" ">
<path fill="none" stroke="#63b8ff" d="M195.48,-117.48C315.06,-106.44 584.96,-81.52 688.49,-71.96"/>
<polygon fill="#63b8ff" stroke="#63b8ff" points="688.56,-75.47 698.19,-71.06 687.92,-68.5 688.56,-75.47"/>
</a>
</g>
</g>
<!-- Node28 -->
<g id="Node000028" class="node">
<title>Node28</title>
<g id="a_Node000028"><a xlink:title=" ">
<polygon fill="#e0e0e0" stroke="#999999" points="201.88,-77.5 164.12,-77.5 164.12,-56.75 201.88,-56.75 201.88,-77.5"/>
<text xml:space="preserve" text-anchor="middle" x="183" y="-64" font-family="Helvetica,sans-Serif" font-size="10.00">map</text>
</a>
</g>
</g>
<!-- Node27&#45;&gt;Node28 -->
<g id="edge54_Node000027_Node000028" class="edge">
<title>Node27&#45;&gt;Node28</title>
<g id="a_edge54_Node000027_Node000028"><a xlink:title=" ">
<path fill="none" stroke="#63b8ff" d="M145.22,-113.09C151.44,-105.69 160.15,-95.32 167.64,-86.41"/>
<polygon fill="#63b8ff" stroke="#63b8ff" points="170.12,-88.9 173.87,-78.99 164.76,-84.39 170.12,-88.9"/>
</a>
</g>
</g>
<!-- Node29 -->
<g id="Node000029" class="node">
<title>Node29</title>
<g id="a_Node000029"><a xlink:title=" ">
<polygon fill="#e0e0e0" stroke="#999999" points="64,-77.5 0,-77.5 0,-56.75 64,-56.75 64,-77.5"/>
<text xml:space="preserve" text-anchor="middle" x="32" y="-64" font-family="Helvetica,sans-Serif" font-size="10.00">stdexcept</text>
</a>
</g>
</g>
<!-- Node27&#45;&gt;Node29 -->
<g id="edge55_Node000027_Node000029" class="edge">
<title>Node27&#45;&gt;Node29</title>
<g id="a_edge55_Node000027_Node000029"><a xlink:title=" ">
<path fill="none" stroke="#63b8ff" d="M118.23,-113.09C102.25,-104.76 79.05,-92.66 60.74,-83.11"/>
<polygon fill="#63b8ff" stroke="#63b8ff" points="62.44,-80.05 51.95,-78.53 59.2,-86.26 62.44,-80.05"/>
</a>
</g>
</g>
<!-- Node30 -->
<g id="Node000030" class="node">
<title>Node30</title>
<g id="a_Node000030"><a xlink:title=" ">
<polygon fill="#e0e0e0" stroke="#999999" points="146.38,-77.5 81.62,-77.5 81.62,-56.75 146.38,-56.75 146.38,-77.5"/>
<text xml:space="preserve" text-anchor="middle" x="114" y="-64" font-family="Helvetica,sans-Serif" font-size="10.00">functional</text>
</a>
</g>
</g>
<!-- Node27&#45;&gt;Node30 -->
<g id="edge56_Node000027_Node000030" class="edge">
<title>Node27&#45;&gt;Node30</title>
<g id="a_edge56_Node000027_Node000030"><a xlink:title=" ">
<path fill="none" stroke="#63b8ff" d="M132.89,-113.09C130.01,-106.24 126.06,-96.84 122.52,-88.4"/>
<polygon fill="#63b8ff" stroke="#63b8ff" points="125.76,-87.09 118.66,-79.22 119.31,-89.8 125.76,-87.09"/>
</a>
</g>
</g>
<!-- Node31&#45;&gt;Node2 -->
<g id="edge63_Node000031_Node000002" class="edge">
<title>Node31&#45;&gt;Node2</title>
<g id="a_edge63_Node000031_Node000002"><a xlink:title=" ">
<path fill="none" stroke="#63b8ff" d="M665.87,-460.48C751.62,-451.46 985.99,-417.37 1138,-304.5 1230.87,-235.55 1261.75,-87.17 1270.22,-32.32"/>
<polygon fill="#63b8ff" stroke="#63b8ff" points="1273.67,-32.91 1271.63,-22.52 1266.74,-31.92 1273.67,-32.91"/>
</a>
</g>
</g>
<!-- Node31&#45;&gt;Node6 -->
<g id="edge65_Node000031_Node000006" class="edge">
<title>Node31&#45;&gt;Node6</title>
<g id="a_edge65_Node000031_Node000006"><a xlink:title=" ">
<path fill="none" stroke="#63b8ff" d="M600.24,-456.5C573.64,-449.79 536.08,-437.67 508,-418 375.5,-325.18 327.04,-289.04 280,-134.25 277.32,-125.43 274.29,-120.74 280,-113.5 298.82,-89.63 384.74,-76.89 434.01,-71.43"/>
<polygon fill="#63b8ff" stroke="#63b8ff" points="434.31,-74.92 443.89,-70.38 433.57,-67.96 434.31,-74.92"/>
</a>
</g>
</g>
<!-- Node31&#45;&gt;Node8 -->
<g id="edge64_Node000031_Node000008" class="edge">
<title>Node31&#45;&gt;Node8</title>
<g id="a_edge64_Node000031_Node000008"><a xlink:title=" ">
<path fill="none" stroke="#63b8ff" d="M665.58,-454.55C760.33,-426.8 1034.58,-331.24 1121,-134.25 1124.71,-125.8 1127.13,-120.39 1121,-113.5 1109.47,-100.55 870.37,-79.61 771.86,-71.49"/>
<polygon fill="#63b8ff" stroke="#63b8ff" points="772.33,-68.02 762.07,-70.69 771.76,-74.99 772.33,-68.02"/>
</a>
</g>
</g>
<!-- Node31&#45;&gt;Node12 -->
<g id="edge66_Node000031_Node000012" class="edge">
<title>Node31&#45;&gt;Node12</title>
<g id="a_edge66_Node000031_Node000012"><a xlink:title=" ">
<path fill="none" stroke="#63b8ff" d="M644.42,-453.87C667.06,-435.04 717.86,-392.76 746.45,-368.97"/>
<polygon fill="#63b8ff" stroke="#63b8ff" points="748.61,-371.73 754.06,-362.64 744.13,-366.35 748.61,-371.73"/>
</a>
</g>
</g>
<!-- Node31&#45;&gt;Node17 -->
<g id="edge68_Node000031_Node000017" class="edge">
<title>Node31&#45;&gt;Node17</title>
<g id="a_edge68_Node000031_Node000017"><a xlink:title=" ">
<path fill="none" stroke="#63b8ff" d="M630.51,-453.71C621.77,-419.81 592.4,-305.87 580.29,-258.89"/>
<polygon fill="#63b8ff" stroke="#63b8ff" points="583.75,-258.28 577.86,-249.47 576.97,-260.03 583.75,-258.28"/>
</a>
</g>
</g>
<!-- Node31&#45;&gt;Node26 -->
<g id="edge67_Node000031_Node000026" class="edge">
<title>Node31&#45;&gt;Node26</title>
<g id="a_edge67_Node000031_Node000026"><a xlink:title=" ">
<path fill="none" stroke="#63b8ff" d="M620.13,-453.59C609.79,-445.72 595.03,-434.5 582.85,-425.24"/>
<polygon fill="#63b8ff" stroke="#63b8ff" points="585.04,-422.51 574.97,-419.24 580.81,-428.08 585.04,-422.51"/>
</a>
</g>
</g>
</g>
</svg>
