<?xml version="1.0" encoding="UTF-8" standalone="no"?>
<!DOCTYPE svg PUBLIC "-//W3C//DTD SVG 1.1//EN"
 "http://www.w3.org/Graphics/SVG/1.1/DTD/svg11.dtd">
<!-- Generated by graphviz version 13.1.2 (20250809.0930)
 -->
<!-- Title: conjVecHom Pages: 1 -->
<svg width="157pt" height="47pt"
 viewBox="0.00 0.00 157.00 47.00" xmlns="http://www.w3.org/2000/svg" xmlns:xlink="http://www.w3.org/1999/xlink">
<g id="graph0" class="graph" transform="scale(1 1) rotate(0) translate(4 42.75)">
<title>conjVecHom</title>
<!-- Node1 -->
<g id="Node000001" class="node">
<title>Node1</title>
<g id="a_Node000001"><a xlink:title="Compute the element&#45;wise complex conjugate of a 3&#45;vector.">
<polygon fill="#999999" stroke="#666666" points="76.75,-20.75 0,-20.75 0,0 76.75,0 76.75,-20.75"/>
<text xml:space="preserve" text-anchor="middle" x="38.38" y="-7.25" font-family="Helvetica,sans-Serif" font-size="10.00">conjVecHom</text>
</a>
</g>
</g>
<!-- Node2 -->
<g id="Node000002" class="node">
<title>Node2</title>
<g id="a_Node000002"><a xlink:href="Domain_8cpp.html#abbd88d15240455cf734121fcd73b3a03" target="_top" xlink:title="Compute the element&#45;wise complex conjugate of a 3&#45;vector.">
<polygon fill="white" stroke="#666666" points="149,-20.75 112.75,-20.75 112.75,0 149,0 149,-20.75"/>
<text xml:space="preserve" text-anchor="middle" x="130.88" y="-7.25" font-family="Helvetica,sans-Serif" font-size="10.00">conj</text>
</a>
</g>
</g>
<!-- Node1&#45;&gt;Node2 -->
<g id="edge1_Node000001_Node000002" class="edge">
<title>Node1&#45;&gt;Node2</title>
<g id="a_edge1_Node000001_Node000002"><a xlink:title=" ">
<path fill="none" stroke="#63b8ff" d="M77.23,-10.38C85.15,-10.38 93.37,-10.38 100.9,-10.38"/>
<polygon fill="#63b8ff" stroke="#63b8ff" points="100.87,-13.88 110.87,-10.38 100.87,-6.88 100.87,-13.88"/>
</a>
</g>
</g>
<!-- Node2&#45;&gt;Node2 -->
<g id="edge2_Node000002_Node000002" class="edge">
<title>Node2&#45;&gt;Node2</title>
<g id="a_edge2_Node000002_Node000002"><a xlink:title=" ">
<path fill="none" stroke="#63b8ff" d="M115.97,-21.15C110.01,-29.81 114.98,-38.75 130.88,-38.75 139.32,-38.75 144.68,-36.23 146.96,-32.56"/>
<polygon fill="#63b8ff" stroke="#63b8ff" points="150.44,-32.24 145.94,-22.65 143.48,-32.96 150.44,-32.24"/>
</a>
</g>
</g>
</g>
</svg>
