<?xml version="1.0" encoding="UTF-8" standalone="no"?>
<!DOCTYPE svg PUBLIC "-//W3C//DTD SVG 1.1//EN"
 "http://www.w3.org/Graphics/SVG/1.1/DTD/svg11.dtd">
<!-- Generated by graphviz version 13.1.2 (20250809.0930)
 -->
<!-- Title: adjustZRange Pages: 1 -->
<svg width="736pt" height="158pt"
 viewBox="0.00 0.00 736.00 158.00" xmlns="http://www.w3.org/2000/svg" xmlns:xlink="http://www.w3.org/1999/xlink">
<g id="graph0" class="graph" transform="scale(1 1) rotate(0) translate(4 153.75)">
<title>adjustZRange</title>
<!-- Node1 -->
<g id="Node000001" class="node">
<title>Node1</title>
<g id="a_Node000001"><a xlink:title="Adjusts the Z&#45;coordinate range with a margin while ensuring boundaries.">
<polygon fill="#999999" stroke="#666666" points="727.75,-64.75 644.25,-64.75 644.25,-44 727.75,-44 727.75,-64.75"/>
<text xml:space="preserve" text-anchor="middle" x="686" y="-51.25" font-family="Helvetica,sans-Serif" font-size="10.00">adjustZRange</text>
</a>
</g>
</g>
<!-- Node2 -->
<g id="Node000002" class="node">
<title>Node2</title>
<g id="a_Node000002"><a xlink:href="classDomainLayered3D.html#af0fc42edd76b3e69a326990cefcbcd37" target="_top" xlink:title="Calculates the tabulation range for a group of points.">
<polygon fill="white" stroke="#666666" points="608.25,-71.12 451.25,-71.12 451.25,-37.62 608.25,-37.62 608.25,-71.12"/>
<text xml:space="preserve" text-anchor="start" x="459.25" y="-57.62" font-family="Helvetica,sans-Serif" font-size="10.00">DomainLayered3D::calculate</text>
<text xml:space="preserve" text-anchor="middle" x="529.75" y="-44.88" font-family="Helvetica,sans-Serif" font-size="10.00">Range</text>
</a>
</g>
</g>
<!-- Node1&#45;&gt;Node2 -->
<g id="edge1_Node000001_Node000002" class="edge">
<title>Node1&#45;&gt;Node2</title>
<g id="a_edge1_Node000001_Node000002"><a xlink:title=" ">
<path fill="none" stroke="#63b8ff" d="M632.62,-54.38C624.86,-54.38 616.73,-54.38 608.58,-54.38"/>
<polygon fill="#63b8ff" stroke="#63b8ff" points="632.56,-57.88 642.56,-54.38 632.56,-50.88 632.56,-57.88"/>
</a>
</g>
</g>
<!-- Node3 -->
<g id="Node000003" class="node">
<title>Node3</title>
<g id="a_Node000003"><a xlink:href="classDomainLayered3D.html#a5379311442fe1bbc7808308726ee510d" target="_top" xlink:title="Computes the grid points for tabulation.">
<polygon fill="white" stroke="#666666" points="415.25,-87.75 239.5,-87.75 239.5,-67 415.25,-67 415.25,-87.75"/>
<text xml:space="preserve" text-anchor="middle" x="327.38" y="-74.25" font-family="Helvetica,sans-Serif" font-size="10.00">DomainLayered3D::computeGrid</text>
</a>
</g>
</g>
<!-- Node2&#45;&gt;Node3 -->
<g id="edge2_Node000002_Node000003" class="edge">
<title>Node2&#45;&gt;Node3</title>
<g id="a_edge2_Node000002_Node000003"><a xlink:title=" ">
<path fill="none" stroke="#63b8ff" d="M439.79,-64.59C431.8,-65.5 423.71,-66.43 415.74,-67.35"/>
<polygon fill="#63b8ff" stroke="#63b8ff" points="439.95,-68.09 449.49,-63.47 439.16,-61.14 439.95,-68.09"/>
</a>
</g>
</g>
<!-- Node8 -->
<g id="Node000008" class="node">
<title>Node8</title>
<g id="a_Node000008"><a xlink:href="classDomainLayered3D.html#a9ca4f1cf49de04c5df6a664e656dbf85" target="_top" xlink:title="Self&#45;test: tabulation range computation (prints to console).">
<polygon fill="white" stroke="#666666" points="393.12,-49.12 261.62,-49.12 261.62,-15.62 393.12,-15.62 393.12,-49.12"/>
<text xml:space="preserve" text-anchor="start" x="269.62" y="-35.62" font-family="Helvetica,sans-Serif" font-size="10.00">DomainLayered3D::test</text>
<text xml:space="preserve" text-anchor="middle" x="327.38" y="-22.88" font-family="Helvetica,sans-Serif" font-size="10.00">_range</text>
</a>
</g>
</g>
<!-- Node2&#45;&gt;Node8 -->
<g id="edge7_Node000002_Node000008" class="edge">
<title>Node2&#45;&gt;Node8</title>
<g id="a_edge7_Node000002_Node000008"><a xlink:title=" ">
<path fill="none" stroke="#63b8ff" d="M439.73,-44.6C424.15,-42.89 408.2,-41.14 393.43,-39.52"/>
<polygon fill="#63b8ff" stroke="#63b8ff" points="439.17,-48.06 449.49,-45.67 439.93,-41.1 439.17,-48.06"/>
</a>
</g>
</g>
<!-- Node4 -->
<g id="Node000004" class="node">
<title>Node4</title>
<g id="a_Node000004"><a xlink:href="classDomainLayered3D.html#a6551ae7ca5dac2a5dda2d78b15d78ecc" target="_top" xlink:title="Add a Dipole excitation in the layered medium.">
<polygon fill="white" stroke="#666666" points="183.25,-149.75 20.25,-149.75 20.25,-129 183.25,-129 183.25,-149.75"/>
<text xml:space="preserve" text-anchor="middle" x="101.75" y="-136.25" font-family="Helvetica,sans-Serif" font-size="10.00">DomainLayered3D::AddDipole</text>
</a>
</g>
</g>
<!-- Node3&#45;&gt;Node4 -->
<g id="edge3_Node000003_Node000004" class="edge">
<title>Node3&#45;&gt;Node4</title>
<g id="a_edge3_Node000003_Node000004"><a xlink:title=" ">
<path fill="none" stroke="#63b8ff" d="M287.62,-92.11C263.63,-100.85 232.07,-111.69 203.5,-119.38 190.93,-122.76 177.33,-125.83 164.32,-128.51"/>
<polygon fill="#63b8ff" stroke="#63b8ff" points="288.81,-95.4 296.98,-88.66 286.39,-88.83 288.81,-95.4"/>
</a>
</g>
</g>
<!-- Node5 -->
<g id="Node000005" class="node">
<title>Node5</title>
<g id="a_Node000005"><a xlink:href="classDomainLayered3D.html#ad0d867ee7289e485c4bc01077fbdb59a" target="_top" xlink:title="Constructs a 3D layered domain with given material properties and geometry.">
<polygon fill="white" stroke="#666666" points="203.5,-110.75 0,-110.75 0,-90 203.5,-90 203.5,-110.75"/>
<text xml:space="preserve" text-anchor="middle" x="101.75" y="-97.25" font-family="Helvetica,sans-Serif" font-size="10.00">DomainLayered3D::DomainLayered3D</text>
</a>
</g>
</g>
<!-- Node3&#45;&gt;Node5 -->
<g id="edge4_Node000003_Node000005" class="edge">
<title>Node3&#45;&gt;Node5</title>
<g id="a_edge4_Node000003_Node000005"><a xlink:title=" ">
<path fill="none" stroke="#63b8ff" d="M227.98,-87.49C219.94,-88.32 211.8,-89.16 203.73,-89.99"/>
<polygon fill="#63b8ff" stroke="#63b8ff" points="228.18,-90.99 237.77,-86.49 227.46,-84.03 228.18,-90.99"/>
</a>
</g>
</g>
<!-- Node6 -->
<g id="Node000006" class="node">
<title>Node6</title>
<g id="a_Node000006"><a xlink:href="classDomainLayered3D.html#ab55a37fee77313a2f5e2bd4c2be927f0" target="_top" xlink:title="Initialize the layered Green&#39;s function used for field evaluation.">
<polygon fill="white" stroke="#666666" points="185.5,-72.12 18,-72.12 18,-38.62 185.5,-38.62 185.5,-72.12"/>
<text xml:space="preserve" text-anchor="start" x="26" y="-58.62" font-family="Helvetica,sans-Serif" font-size="10.00">DomainLayered3D::newGrnFun</text>
<text xml:space="preserve" text-anchor="middle" x="101.75" y="-45.88" font-family="Helvetica,sans-Serif" font-size="10.00">Layered</text>
</a>
</g>
</g>
<!-- Node3&#45;&gt;Node6 -->
<g id="edge5_Node000003_Node000006" class="edge">
<title>Node3&#45;&gt;Node6</title>
<g id="a_edge5_Node000003_Node000006"><a xlink:title=" ">
<path fill="none" stroke="#63b8ff" d="M228.08,-67.7C214.02,-66.32 199.68,-64.91 185.95,-63.56"/>
<polygon fill="#63b8ff" stroke="#63b8ff" points="227.47,-71.16 237.77,-68.66 228.16,-64.2 227.47,-71.16"/>
</a>
</g>
</g>
<!-- Node7 -->
<g id="Node000007" class="node">
<title>Node7</title>
<g id="a_Node000007"><a xlink:href="classDomainLayered3D.html#acd442aab27d1f56d8211a164f85f341a" target="_top" xlink:title="Self&#45;test: grid generation (prints to console).">
<polygon fill="white" stroke="#666666" points="179.5,-20.75 24,-20.75 24,0 179.5,0 179.5,-20.75"/>
<text xml:space="preserve" text-anchor="middle" x="101.75" y="-7.25" font-family="Helvetica,sans-Serif" font-size="10.00">DomainLayered3D::test_grid</text>
</a>
</g>
</g>
<!-- Node3&#45;&gt;Node7 -->
<g id="edge6_Node000003_Node000007" class="edge">
<title>Node3&#45;&gt;Node7</title>
<g id="a_edge6_Node000003_Node000007"><a xlink:title=" ">
<path fill="none" stroke="#63b8ff" d="M250.45,-63C246.69,-61.6 243.02,-60.06 239.5,-58.38 220.97,-49.5 222.16,-37.98 203.5,-29.38 196.07,-25.94 188.05,-23.13 179.9,-20.83"/>
<polygon fill="#63b8ff" stroke="#63b8ff" points="249.18,-66.27 259.78,-66.13 251.41,-59.63 249.18,-66.27"/>
</a>
</g>
</g>
</g>
</svg>
