<?xml version="1.0" encoding="UTF-8" standalone="no"?>
<!DOCTYPE svg PUBLIC "-//W3C//DTD SVG 1.1//EN"
 "http://www.w3.org/Graphics/SVG/1.1/DTD/svg11.dtd">
<!-- Generated by graphviz version 13.1.2 (20250809.0930)
 -->
<!-- Title: Domain.cpp Pages: 1 -->
<svg width="1365pt" height="596pt"
 viewBox="0.00 0.00 1365.00 596.00" xmlns="http://www.w3.org/2000/svg" xmlns:xlink="http://www.w3.org/1999/xlink">
<g id="graph0" class="graph" transform="scale(1 1) rotate(0) translate(4 592.25)">
<title>Domain.cpp</title>
<!-- Node1 -->
<g id="Node000001" class="node">
<title>Node1</title>
<g id="a_Node000001"><a xlink:title="Implementation of the Domain base class.">
<polygon fill="#999999" stroke="#666666" points="1027.12,-588.25 952.62,-588.25 952.62,-567.5 1027.12,-567.5 1027.12,-588.25"/>
<text xml:space="preserve" text-anchor="middle" x="989.88" y="-574.75" font-family="Helvetica,sans-Serif" font-size="10.00">Domain.cpp</text>
</a>
</g>
</g>
<!-- Node2 -->
<g id="Node000002" class="node">
<title>Node2</title>
<g id="a_Node000002"><a xlink:href="Domain_8h.html" target="_top" xlink:title="Abstract simulation domain class for SIE scattering.">
<polygon fill="white" stroke="#666666" points="732.5,-531.5 669.25,-531.5 669.25,-510.75 732.5,-510.75 732.5,-531.5"/>
<text xml:space="preserve" text-anchor="middle" x="700.88" y="-518" font-family="Helvetica,sans-Serif" font-size="10.00">Domain.h</text>
</a>
</g>
</g>
<!-- Node1&#45;&gt;Node2 -->
<g id="edge1_Node000001_Node000002" class="edge">
<title>Node1&#45;&gt;Node2</title>
<g id="a_edge1_Node000001_Node000002"><a xlink:title=" ">
<path fill="none" stroke="#63b8ff" d="M952.39,-569.77C898.81,-559.62 800.57,-541.01 744.02,-530.3"/>
<polygon fill="#63b8ff" stroke="#63b8ff" points="744.92,-526.91 734.45,-528.49 743.62,-533.79 744.92,-526.91"/>
</a>
</g>
</g>
<!-- Node17 -->
<g id="Node000017" class="node">
<title>Node17</title>
<g id="a_Node000017"><a xlink:title=" ">
<polygon fill="#e0e0e0" stroke="#999999" points="1234.62,-77.5 1175.12,-77.5 1175.12,-56.75 1234.62,-56.75 1234.62,-77.5"/>
<text xml:space="preserve" text-anchor="middle" x="1204.88" y="-64" font-family="Helvetica,sans-Serif" font-size="10.00">iostream</text>
</a>
</g>
</g>
<!-- Node1&#45;&gt;Node17 -->
<g id="edge73_Node000001_Node000017" class="edge">
<title>Node1&#45;&gt;Node17</title>
<g id="a_edge73_Node000001_Node000017"><a xlink:title=" ">
<path fill="none" stroke="#63b8ff" d="M1020.19,-567.02C1072.82,-548.02 1179.26,-500.7 1218.88,-418 1253.67,-345.36 1242.88,-318.92 1242.88,-238.38 1242.88,-238.38 1242.88,-238.38 1242.88,-179.62 1242.88,-146.01 1227.21,-109.6 1216,-87.84"/>
<polygon fill="#63b8ff" stroke="#63b8ff" points="1219.18,-86.37 1211.36,-79.22 1213.02,-89.69 1219.18,-86.37"/>
</a>
</g>
</g>
<!-- Node3 -->
<g id="Node000003" class="node">
<title>Node3</title>
<g id="a_Node000003"><a xlink:title=" ">
<polygon fill="#e0e0e0" stroke="#999999" points="1336.38,-20.75 1263.38,-20.75 1263.38,0 1336.38,0 1336.38,-20.75"/>
<text xml:space="preserve" text-anchor="middle" x="1299.88" y="-7.25" font-family="Helvetica,sans-Serif" font-size="10.00">blitz/array.h</text>
</a>
</g>
</g>
<!-- Node2&#45;&gt;Node3 -->
<g id="edge2_Node000002_Node000003" class="edge">
<title>Node2&#45;&gt;Node3</title>
<g id="a_edge2_Node000002_Node000003"><a xlink:title=" ">
<path fill="none" stroke="#63b8ff" d="M732.71,-519.87C824.57,-518.69 1088.4,-512.06 1164.88,-474.75 1235.3,-440.39 1356.88,-301.61 1356.88,-238.38 1356.88,-238.38 1356.88,-238.38 1356.88,-122.88 1356.88,-86.84 1332.98,-50.73 1316.13,-29.74"/>
<polygon fill="#63b8ff" stroke="#63b8ff" points="1318.86,-27.55 1309.75,-22.13 1313.49,-32.04 1318.86,-27.55"/>
</a>
</g>
</g>
<!-- Node4 -->
<g id="Node000004" class="node">
<title>Node4</title>
<g id="a_Node000004"><a xlink:title=" ">
<polygon fill="#e0e0e0" stroke="#999999" points="275,-77.5 220.75,-77.5 220.75,-56.75 275,-56.75 275,-77.5"/>
<text xml:space="preserve" text-anchor="middle" x="247.88" y="-64" font-family="Helvetica,sans-Serif" font-size="10.00">fstream</text>
</a>
</g>
</g>
<!-- Node2&#45;&gt;Node4 -->
<g id="edge3_Node000002_Node000004" class="edge">
<title>Node2&#45;&gt;Node4</title>
<g id="a_edge3_Node000002_Node000004"><a xlink:title=" ">
<path fill="none" stroke="#63b8ff" d="M668.9,-519.5C562.18,-516.57 224.88,-500.08 224.88,-408.62 224.88,-408.62 224.88,-408.62 224.88,-236.38 224.88,-181.72 218.53,-166.97 229.88,-113.5 231.67,-105.02 234.91,-96.08 238.14,-88.39"/>
<polygon fill="#63b8ff" stroke="#63b8ff" points="241.33,-89.85 242.25,-79.29 234.95,-86.97 241.33,-89.85"/>
</a>
</g>
</g>
<!-- Node5 -->
<g id="Node000005" class="node">
<title>Node5</title>
<g id="a_Node000005"><a xlink:href="Bsp3D_8h.html" target="_top" xlink:title="3D Binary Space Partitioning (BSP) utilities for triangle meshes.">
<polygon fill="white" stroke="#666666" points="323.12,-191 266.62,-191 266.62,-170.25 323.12,-170.25 323.12,-191"/>
<text xml:space="preserve" text-anchor="middle" x="294.88" y="-177.5" font-family="Helvetica,sans-Serif" font-size="10.00">Bsp3D.h</text>
</a>
</g>
</g>
<!-- Node2&#45;&gt;Node5 -->
<g id="edge4_Node000002_Node000005" class="edge">
<title>Node2&#45;&gt;Node5</title>
<g id="a_edge4_Node000002_Node000005"><a xlink:title=" ">
<path fill="none" stroke="#63b8ff" d="M668.88,-518.44C595.62,-514.16 417.91,-501.3 364.88,-474.75 328.02,-456.3 299.88,-449.84 299.88,-408.62 299.88,-408.62 299.88,-408.62 299.88,-293.12 299.88,-261.7 297.87,-225.34 296.4,-202.92"/>
<polygon fill="#63b8ff" stroke="#63b8ff" points="299.89,-202.71 295.72,-192.97 292.91,-203.19 299.89,-202.71"/>
</a>
</g>
</g>
<!-- Node8 -->
<g id="Node000008" class="node">
<title>Node8</title>
<g id="a_Node000008"><a xlink:href="Triangle_8h.html" target="_top" xlink:title="Declaration of the Triangle class (surface element with cached geometry).">
<polygon fill="white" stroke="#666666" points="480.5,-134.25 417.25,-134.25 417.25,-113.5 480.5,-113.5 480.5,-134.25"/>
<text xml:space="preserve" text-anchor="middle" x="448.88" y="-120.75" font-family="Helvetica,sans-Serif" font-size="10.00">Triangle.h</text>
</a>
</g>
</g>
<!-- Node2&#45;&gt;Node8 -->
<g id="edge71_Node000002_Node000008" class="edge">
<title>Node2&#45;&gt;Node8</title>
<g id="a_edge71_Node000002_Node000008"><a xlink:title=" ">
<path fill="none" stroke="#63b8ff" d="M669.02,-518.39C622.87,-514.91 535.55,-504.62 467.88,-474.75 422.79,-454.85 378.88,-457.9 378.88,-408.62 378.88,-408.62 378.88,-408.62 378.88,-349.88 378.88,-270.57 419.02,-182.34 438.51,-144.19"/>
<polygon fill="#63b8ff" stroke="#63b8ff" points="441.38,-146.24 442.91,-135.75 435.18,-143 441.38,-146.24"/>
</a>
</g>
</g>
<!-- Node9 -->
<g id="Node000009" class="node">
<title>Node9</title>
<g id="a_Node000009"><a xlink:href="globals_8h.html" target="_top" xlink:title="Global numerical constants, fundamental types, and simple macros.">
<polygon fill="white" stroke="#666666" points="932,-77.5 871.75,-77.5 871.75,-56.75 932,-56.75 932,-77.5"/>
<text xml:space="preserve" text-anchor="middle" x="901.88" y="-64" font-family="Helvetica,sans-Serif" font-size="10.00">globals.h</text>
</a>
</g>
</g>
<!-- Node2&#45;&gt;Node9 -->
<g id="edge72_Node000002_Node000009" class="edge">
<title>Node2&#45;&gt;Node9</title>
<g id="a_edge72_Node000002_Node000009"><a xlink:title=" ">
<path fill="none" stroke="#63b8ff" d="M732.78,-519.91C843.57,-518.34 1204.88,-505.75 1204.88,-408.62 1204.88,-408.62 1204.88,-408.62 1204.88,-236.38 1204.88,-176.17 1195.45,-150.38 1147.88,-113.5 1116.6,-89.25 1005.17,-76.53 943.57,-71.22"/>
<polygon fill="#63b8ff" stroke="#63b8ff" points="944.08,-67.75 933.82,-70.4 943.5,-74.72 944.08,-67.75"/>
</a>
</g>
</g>
<!-- Node13 -->
<g id="Node000013" class="node">
<title>Node13</title>
<g id="a_Node000013"><a xlink:href="GreenF_8h.html" target="_top" xlink:title="Abstract base class for electromagnetic Green&#39;s functions.">
<polygon fill="white" stroke="#666666" points="1069.25,-361.25 1010.5,-361.25 1010.5,-340.5 1069.25,-340.5 1069.25,-361.25"/>
<text xml:space="preserve" text-anchor="middle" x="1039.88" y="-347.75" font-family="Helvetica,sans-Serif" font-size="10.00">GreenF.h</text>
</a>
</g>
</g>
<!-- Node2&#45;&gt;Node13 -->
<g id="edge15_Node000002_Node000013" class="edge">
<title>Node2&#45;&gt;Node13</title>
<g id="a_edge15_Node000002_Node000013"><a xlink:title=" ">
<path fill="none" stroke="#63b8ff" d="M727.7,-510.27C750.81,-501.57 784.92,-488.2 813.88,-474.75 888.21,-440.23 972.12,-392.05 1013.66,-367.54"/>
<polygon fill="#63b8ff" stroke="#63b8ff" points="1015.4,-370.59 1022.22,-362.48 1011.83,-364.56 1015.4,-370.59"/>
</a>
</g>
</g>
<!-- Node18 -->
<g id="Node000018" class="node">
<title>Node18</title>
<g id="a_Node000018"><a xlink:href="RWGFun_8h.html" target="_top" xlink:title="Header for the RWGFun class.">
<polygon fill="white" stroke="#666666" points="751,-247.75 684.75,-247.75 684.75,-227 751,-227 751,-247.75"/>
<text xml:space="preserve" text-anchor="middle" x="717.88" y="-234.25" font-family="Helvetica,sans-Serif" font-size="10.00">RWGFun.h</text>
</a>
</g>
</g>
<!-- Node2&#45;&gt;Node18 -->
<g id="edge62_Node000002_Node000018" class="edge">
<title>Node2&#45;&gt;Node18</title>
<g id="a_edge62_Node000002_Node000018"><a xlink:title=" ">
<path fill="none" stroke="#63b8ff" d="M679.4,-510.37C647.39,-494.18 590.88,-458.52 590.88,-408.62 590.88,-408.62 590.88,-408.62 590.88,-349.88 590.88,-301.73 643.04,-269.5 680.51,-252.56"/>
<polygon fill="#63b8ff" stroke="#63b8ff" points="681.45,-255.97 689.24,-248.79 678.67,-249.54 681.45,-255.97"/>
</a>
</g>
</g>
<!-- Node19 -->
<g id="Node000019" class="node">
<title>Node19</title>
<g id="a_Node000019"><a xlink:href="SurfaceMesh_8h.html" target="_top" xlink:title="Declaration of the SurfaceMesh class and mesh edge struct.">
<polygon fill="white" stroke="#666666" points="722.88,-191 634.88,-191 634.88,-170.25 722.88,-170.25 722.88,-191"/>
<text xml:space="preserve" text-anchor="middle" x="678.88" y="-177.5" font-family="Helvetica,sans-Serif" font-size="10.00">SurfaceMesh.h</text>
</a>
</g>
</g>
<!-- Node2&#45;&gt;Node19 -->
<g id="edge70_Node000002_Node000019" class="edge">
<title>Node2&#45;&gt;Node19</title>
<g id="a_edge70_Node000002_Node000019"><a xlink:title=" ">
<path fill="none" stroke="#63b8ff" d="M668.97,-519.85C602.41,-517.43 454.88,-501.59 454.88,-408.62 454.88,-408.62 454.88,-408.62 454.88,-293.12 454.88,-217.98 557.16,-193.48 623.5,-185.49"/>
<polygon fill="#63b8ff" stroke="#63b8ff" points="623.56,-189 633.12,-184.43 622.79,-182.04 623.56,-189"/>
</a>
</g>
</g>
<!-- Node27 -->
<g id="Node000027" class="node">
<title>Node27</title>
<g id="a_Node000027"><a xlink:href="IncidentField_8h.html" target="_top" xlink:title="Abstract interface for incident electromagnetic excitations.">
<polygon fill="white" stroke="#666666" points="744.5,-418 657.25,-418 657.25,-397.25 744.5,-397.25 744.5,-418"/>
<text xml:space="preserve" text-anchor="middle" x="700.88" y="-404.5" font-family="Helvetica,sans-Serif" font-size="10.00">IncidentField.h</text>
</a>
</g>
</g>
<!-- Node2&#45;&gt;Node27 -->
<g id="edge51_Node000002_Node000027" class="edge">
<title>Node2&#45;&gt;Node27</title>
<g id="a_edge51_Node000002_Node000027"><a xlink:title=" ">
<path fill="none" stroke="#63b8ff" d="M700.88,-510.62C700.88,-492.85 700.88,-454.22 700.88,-429.93"/>
<polygon fill="#63b8ff" stroke="#63b8ff" points="704.38,-429.94 700.88,-419.94 697.38,-429.94 704.38,-429.94"/>
</a>
</g>
</g>
<!-- Node32 -->
<g id="Node000032" class="node">
<title>Node32</title>
<g id="a_Node000032"><a xlink:href="SIEForm_8h.html" target="_top" xlink:title="Header for the SIEForm class.">
<polygon fill="white" stroke="#666666" points="805.25,-474.75 740.5,-474.75 740.5,-454 805.25,-454 805.25,-474.75"/>
<text xml:space="preserve" text-anchor="middle" x="772.88" y="-461.25" font-family="Helvetica,sans-Serif" font-size="10.00">SIEForm.h</text>
</a>
</g>
</g>
<!-- Node2&#45;&gt;Node32 -->
<g id="edge63_Node000002_Node000032" class="edge">
<title>Node2&#45;&gt;Node32</title>
<g id="a_edge63_Node000002_Node000032"><a xlink:title=" ">
<path fill="none" stroke="#63b8ff" d="M713.75,-510.34C724.09,-502.47 738.84,-491.25 751.03,-481.99"/>
<polygon fill="#63b8ff" stroke="#63b8ff" points="753.07,-484.83 758.91,-475.99 748.83,-479.26 753.07,-484.83"/>
</a>
</g>
</g>
<!-- Node6 -->
<g id="Node000006" class="node">
<title>Node6</title>
<g id="a_Node000006"><a xlink:title=" ">
<polygon fill="#e0e0e0" stroke="#999999" points="284.5,-134.25 239.25,-134.25 239.25,-113.5 284.5,-113.5 284.5,-134.25"/>
<text xml:space="preserve" text-anchor="middle" x="261.88" y="-120.75" font-family="Helvetica,sans-Serif" font-size="10.00">cstdio</text>
</a>
</g>
</g>
<!-- Node5&#45;&gt;Node6 -->
<g id="edge5_Node000005_Node000006" class="edge">
<title>Node5&#45;&gt;Node6</title>
<g id="a_edge5_Node000005_Node000006"><a xlink:title=" ">
<path fill="none" stroke="#63b8ff" d="M288.98,-169.84C284.7,-162.75 278.79,-152.94 273.58,-144.29"/>
<polygon fill="#63b8ff" stroke="#63b8ff" points="276.66,-142.63 268.5,-135.87 270.67,-146.25 276.66,-142.63"/>
</a>
</g>
</g>
<!-- Node7 -->
<g id="Node000007" class="node">
<title>Node7</title>
<g id="a_Node000007"><a xlink:title=" ">
<polygon fill="#e0e0e0" stroke="#999999" points="442.25,-77.5 395.5,-77.5 395.5,-56.75 442.25,-56.75 442.25,-77.5"/>
<text xml:space="preserve" text-anchor="middle" x="418.88" y="-64" font-family="Helvetica,sans-Serif" font-size="10.00">vector</text>
</a>
</g>
</g>
<!-- Node5&#45;&gt;Node7 -->
<g id="edge6_Node000005_Node000007" class="edge">
<title>Node5&#45;&gt;Node7</title>
<g id="a_edge6_Node000005_Node000007"><a xlink:title=" ">
<path fill="none" stroke="#63b8ff" d="M299.07,-170.04C305.53,-156.15 319.05,-130.28 336.88,-113.5 350.87,-100.33 369.41,-89.65 385.32,-81.97"/>
<polygon fill="#63b8ff" stroke="#63b8ff" points="386.33,-85.36 393.94,-77.99 383.4,-79 386.33,-85.36"/>
</a>
</g>
</g>
<!-- Node5&#45;&gt;Node8 -->
<g id="edge7_Node000005_Node000008" class="edge">
<title>Node5&#45;&gt;Node8</title>
<g id="a_edge7_Node000005_Node000008"><a xlink:title=" ">
<path fill="none" stroke="#63b8ff" d="M322.41,-169.84C346.97,-161.11 383.17,-148.23 410.56,-138.5"/>
<polygon fill="#63b8ff" stroke="#63b8ff" points="411.65,-141.83 419.9,-135.18 409.3,-135.23 411.65,-141.83"/>
</a>
</g>
</g>
<!-- Node5&#45;&gt;Node9 -->
<g id="edge14_Node000005_Node000009" class="edge">
<title>Node5&#45;&gt;Node9</title>
<g id="a_edge14_Node000005_Node000009"><a xlink:title=" ">
<path fill="none" stroke="#63b8ff" d="M323.56,-178.99C380.65,-176.99 511.97,-168.7 615.88,-134.25 634.14,-128.19 635.74,-119.92 653.88,-113.5 723.78,-88.74 809.77,-76.88 859.95,-71.69"/>
<polygon fill="#63b8ff" stroke="#63b8ff" points="860.18,-75.18 869.79,-70.72 859.49,-68.22 860.18,-75.18"/>
</a>
</g>
</g>
<!-- Node8&#45;&gt;Node7 -->
<g id="edge8_Node000008_Node000007" class="edge">
<title>Node8&#45;&gt;Node7</title>
<g id="a_edge8_Node000008_Node000007"><a xlink:title=" ">
<path fill="none" stroke="#63b8ff" d="M443.51,-113.09C439.67,-106.08 434.37,-96.41 429.67,-87.83"/>
<polygon fill="#63b8ff" stroke="#63b8ff" points="432.79,-86.24 424.92,-79.16 426.66,-89.61 432.79,-86.24"/>
</a>
</g>
</g>
<!-- Node8&#45;&gt;Node9 -->
<g id="edge9_Node000008_Node000009" class="edge">
<title>Node8&#45;&gt;Node9</title>
<g id="a_edge9_Node000008_Node000009"><a xlink:title=" ">
<path fill="none" stroke="#63b8ff" d="M480.73,-119.03C560.72,-109.36 770.03,-84.06 859.89,-73.2"/>
<polygon fill="#63b8ff" stroke="#63b8ff" points="860.24,-76.68 869.75,-72.01 859.4,-69.73 860.24,-76.68"/>
</a>
</g>
</g>
<!-- Node9&#45;&gt;Node3 -->
<g id="edge10_Node000009_Node000003" class="edge">
<title>Node9&#45;&gt;Node3</title>
<g id="a_edge10_Node000009_Node000003"><a xlink:title=" ">
<path fill="none" stroke="#63b8ff" d="M932.44,-61.92C1001.22,-52.46 1168.58,-29.44 1251.57,-18.02"/>
<polygon fill="#63b8ff" stroke="#63b8ff" points="1252.01,-21.49 1261.44,-16.66 1251.06,-14.56 1252.01,-21.49"/>
</a>
</g>
</g>
<!-- Node10 -->
<g id="Node000010" class="node">
<title>Node10</title>
<g id="a_Node000010"><a xlink:title=" ">
<polygon fill="#e0e0e0" stroke="#999999" points="950.38,-20.75 859.38,-20.75 859.38,0 950.38,0 950.38,-20.75"/>
<text xml:space="preserve" text-anchor="middle" x="904.88" y="-7.25" font-family="Helvetica,sans-Serif" font-size="10.00">blitz/tinyvec2.h</text>
</a>
</g>
</g>
<!-- Node9&#45;&gt;Node10 -->
<g id="edge11_Node000009_Node000010" class="edge">
<title>Node9&#45;&gt;Node10</title>
<g id="a_edge11_Node000009_Node000010"><a xlink:title=" ">
<path fill="none" stroke="#63b8ff" d="M902.41,-56.34C902.77,-49.72 903.27,-40.72 903.72,-32.52"/>
<polygon fill="#63b8ff" stroke="#63b8ff" points="907.21,-32.77 904.26,-22.59 900.22,-32.38 907.21,-32.77"/>
</a>
</g>
</g>
<!-- Node11 -->
<g id="Node000011" class="node">
<title>Node11</title>
<g id="a_Node000011"><a xlink:title=" ">
<polygon fill="#e0e0e0" stroke="#999999" points="841,-20.75 744.75,-20.75 744.75,0 841,0 841,-20.75"/>
<text xml:space="preserve" text-anchor="middle" x="792.88" y="-7.25" font-family="Helvetica,sans-Serif" font-size="10.00">blitz/tvecglobs.h</text>
</a>
</g>
</g>
<!-- Node9&#45;&gt;Node11 -->
<g id="edge12_Node000009_Node000011" class="edge">
<title>Node9&#45;&gt;Node11</title>
<g id="a_edge12_Node000009_Node000011"><a xlink:title=" ">
<path fill="none" stroke="#63b8ff" d="M882.39,-56.34C865.73,-47.97 841.49,-35.79 822.44,-26.22"/>
<polygon fill="#63b8ff" stroke="#63b8ff" points="824.05,-23.12 813.55,-21.76 820.91,-29.37 824.05,-23.12"/>
</a>
</g>
</g>
<!-- Node12 -->
<g id="Node000012" class="node">
<title>Node12</title>
<g id="a_Node000012"><a xlink:title=" ">
<polygon fill="#e0e0e0" stroke="#999999" points="1037.88,-20.75 979.88,-20.75 979.88,0 1037.88,0 1037.88,-20.75"/>
<text xml:space="preserve" text-anchor="middle" x="1008.88" y="-7.25" font-family="Helvetica,sans-Serif" font-size="10.00">complex</text>
</a>
</g>
</g>
<!-- Node9&#45;&gt;Node12 -->
<g id="edge13_Node000009_Node000012" class="edge">
<title>Node9&#45;&gt;Node12</title>
<g id="a_edge13_Node000009_Node000012"><a xlink:title=" ">
<path fill="none" stroke="#63b8ff" d="M921,-56.34C937.36,-47.97 961.15,-35.79 979.85,-26.22"/>
<polygon fill="#63b8ff" stroke="#63b8ff" points="981.26,-29.44 988.56,-21.77 978.07,-23.21 981.26,-29.44"/>
</a>
</g>
</g>
<!-- Node13&#45;&gt;Node3 -->
<g id="edge16_Node000013_Node000003" class="edge">
<title>Node13&#45;&gt;Node3</title>
<g id="a_edge16_Node000013_Node000003"><a xlink:title=" ">
<path fill="none" stroke="#63b8ff" d="M1069.43,-342.82C1133.78,-326.6 1280.88,-284.48 1280.88,-238.38 1280.88,-238.38 1280.88,-238.38 1280.88,-122.88 1280.88,-90.88 1288.57,-54.45 1294.17,-32.18"/>
<polygon fill="#63b8ff" stroke="#63b8ff" points="1297.53,-33.15 1296.69,-22.59 1290.76,-31.37 1297.53,-33.15"/>
</a>
</g>
</g>
<!-- Node13&#45;&gt;Node9 -->
<g id="edge49_Node000013_Node000009" class="edge">
<title>Node13&#45;&gt;Node9</title>
<g id="a_edge49_Node000013_Node000009"><a xlink:title=" ">
<path fill="none" stroke="#63b8ff" d="M1054.64,-340.29C1065.68,-332.21 1080,-319.57 1086.88,-304.5 1101.18,-273.14 1103.57,-258.63 1089.88,-227 1059.22,-156.21 978.31,-106.25 933.27,-82.95"/>
<polygon fill="#63b8ff" stroke="#63b8ff" points="935.03,-79.92 924.52,-78.54 931.88,-86.17 935.03,-79.92"/>
</a>
</g>
</g>
<!-- Node14 -->
<g id="Node000014" class="node">
<title>Node14</title>
<g id="a_Node000014"><a xlink:title=" ">
<polygon fill="#e0e0e0" stroke="#999999" points="1063.25,-247.75 1016.5,-247.75 1016.5,-227 1063.25,-227 1063.25,-247.75"/>
<text xml:space="preserve" text-anchor="middle" x="1039.88" y="-234.25" font-family="Helvetica,sans-Serif" font-size="10.00">cmath</text>
</a>
</g>
</g>
<!-- Node13&#45;&gt;Node14 -->
<g id="edge17_Node000013_Node000014" class="edge">
<title>Node13&#45;&gt;Node14</title>
<g id="a_edge17_Node000013_Node000014"><a xlink:title=" ">
<path fill="none" stroke="#63b8ff" d="M1039.88,-340.37C1039.88,-322.6 1039.88,-283.97 1039.88,-259.68"/>
<polygon fill="#63b8ff" stroke="#63b8ff" points="1043.38,-259.69 1039.88,-249.69 1036.38,-259.69 1043.38,-259.69"/>
</a>
</g>
</g>
<!-- Node15 -->
<g id="Node000015" class="node">
<title>Node15</title>
<g id="a_Node000015"><a xlink:title=" ">
<polygon fill="#e0e0e0" stroke="#999999" points="795.12,-134.25 750.62,-134.25 750.62,-113.5 795.12,-113.5 795.12,-134.25"/>
<text xml:space="preserve" text-anchor="middle" x="772.88" y="-120.75" font-family="Helvetica,sans-Serif" font-size="10.00">utility</text>
</a>
</g>
</g>
<!-- Node13&#45;&gt;Node15 -->
<g id="edge18_Node000013_Node000015" class="edge">
<title>Node13&#45;&gt;Node15</title>
<g id="a_edge18_Node000013_Node000015"><a xlink:title=" ">
<path fill="none" stroke="#63b8ff" d="M1047.24,-340.29C1063.22,-318.23 1097.65,-263.04 1071.88,-227 1010.27,-140.86 871.54,-126.56 807.04,-124.74"/>
<polygon fill="#63b8ff" stroke="#63b8ff" points="807.11,-121.24 797.05,-124.55 806.98,-128.24 807.11,-121.24"/>
</a>
</g>
</g>
<!-- Node16 -->
<g id="Node000016" class="node">
<title>Node16</title>
<g id="a_Node000016"><a xlink:href="GaussQuad_8h.html" target="_top" xlink:title="Gaussian quadrature helpers for Green&#39;s functions and incident fields.">
<polygon fill="white" stroke="#666666" points="1000.12,-304.5 919.62,-304.5 919.62,-283.75 1000.12,-283.75 1000.12,-304.5"/>
<text xml:space="preserve" text-anchor="middle" x="959.88" y="-291" font-family="Helvetica,sans-Serif" font-size="10.00">GaussQuad.h</text>
</a>
</g>
</g>
<!-- Node13&#45;&gt;Node16 -->
<g id="edge19_Node000013_Node000016" class="edge">
<title>Node13&#45;&gt;Node16</title>
<g id="a_edge19_Node000013_Node000016"><a xlink:title=" ">
<path fill="none" stroke="#63b8ff" d="M1025.57,-340.09C1013.86,-332.07 997.04,-320.56 983.35,-311.19"/>
<polygon fill="#63b8ff" stroke="#63b8ff" points="985.53,-308.44 975.3,-305.68 981.58,-314.22 985.53,-308.44"/>
</a>
</g>
</g>
<!-- Node13&#45;&gt;Node18 -->
<g id="edge43_Node000013_Node000018" class="edge">
<title>Node13&#45;&gt;Node18</title>
<g id="a_edge43_Node000013_Node000018"><a xlink:title=" ">
<path fill="none" stroke="#63b8ff" d="M1011.58,-340.08C953.84,-320.08 822.37,-274.56 756.7,-251.82"/>
<polygon fill="#63b8ff" stroke="#63b8ff" points="758.01,-248.57 747.42,-248.61 755.72,-255.18 758.01,-248.57"/>
</a>
</g>
</g>
<!-- Node23 -->
<g id="Node000023" class="node">
<title>Node23</title>
<g id="a_Node000023"><a xlink:href="mathFunctions_8h.html" target="_top" xlink:title="Header file of the class that provides auxiliary mathematical functionalities for the SIE solver.">
<polygon fill="white" stroke="#666666" points="1138.38,-134.25 1041.38,-134.25 1041.38,-113.5 1138.38,-113.5 1138.38,-134.25"/>
<text xml:space="preserve" text-anchor="middle" x="1089.88" y="-120.75" font-family="Helvetica,sans-Serif" font-size="10.00">mathFunctions.h</text>
</a>
</g>
</g>
<!-- Node13&#45;&gt;Node23 -->
<g id="edge50_Node000013_Node000023" class="edge">
<title>Node13&#45;&gt;Node23</title>
<g id="a_edge50_Node000013_Node000023"><a xlink:title=" ">
<path fill="none" stroke="#63b8ff" d="M1069.51,-345.71C1093.82,-340.56 1126.76,-329.21 1142.88,-304.5 1176.82,-252.45 1130.54,-177.99 1104.9,-143.6"/>
<polygon fill="#63b8ff" stroke="#63b8ff" points="1107.8,-141.64 1098.93,-135.85 1102.26,-145.91 1107.8,-141.64"/>
</a>
</g>
</g>
<!-- Node26 -->
<g id="Node000026" class="node">
<title>Node26</title>
<g id="a_Node000026"><a xlink:href="SingSub_8h.html" target="_top" xlink:title="Exact subtractions for singular/near&#45;singular triangle integrals.">
<polygon fill="white" stroke="#666666" points="562.88,-304.5 498.88,-304.5 498.88,-283.75 562.88,-283.75 562.88,-304.5"/>
<text xml:space="preserve" text-anchor="middle" x="530.88" y="-291" font-family="Helvetica,sans-Serif" font-size="10.00">SingSub.h</text>
</a>
</g>
</g>
<!-- Node13&#45;&gt;Node26 -->
<g id="edge44_Node000013_Node000026" class="edge">
<title>Node13&#45;&gt;Node26</title>
<g id="a_edge44_Node000013_Node000026"><a xlink:title=" ">
<path fill="none" stroke="#63b8ff" d="M1010.31,-346.69C924.59,-337.47 675.64,-310.7 574.43,-299.81"/>
<polygon fill="#63b8ff" stroke="#63b8ff" points="574.94,-296.34 564.62,-298.76 574.19,-303.3 574.94,-296.34"/>
</a>
</g>
</g>
<!-- Node16&#45;&gt;Node9 -->
<g id="edge41_Node000016_Node000009" class="edge">
<title>Node16&#45;&gt;Node9</title>
<g id="a_edge41_Node000016_Node000009"><a xlink:title=" ">
<path fill="none" stroke="#63b8ff" d="M922.6,-283.34C904.54,-276.52 884.51,-265.39 873.88,-247.75 844.35,-198.79 940.94,-206.61 950.88,-191 969.37,-161.94 964.66,-145.06 950.88,-113.5 945.86,-102.03 936.36,-92.16 927.04,-84.58"/>
<polygon fill="#63b8ff" stroke="#63b8ff" points="929.28,-81.89 919.18,-78.7 925.09,-87.49 929.28,-81.89"/>
</a>
</g>
</g>
<!-- Node16&#45;&gt;Node14 -->
<g id="edge20_Node000016_Node000014" class="edge">
<title>Node16&#45;&gt;Node14</title>
<g id="a_edge20_Node000016_Node000014"><a xlink:title=" ">
<path fill="none" stroke="#63b8ff" d="M974.18,-283.34C985.89,-275.32 1002.71,-263.81 1016.4,-254.44"/>
<polygon fill="#63b8ff" stroke="#63b8ff" points="1018.17,-257.47 1024.45,-248.93 1014.22,-251.69 1018.17,-257.47"/>
</a>
</g>
</g>
<!-- Node16&#45;&gt;Node17 -->
<g id="edge21_Node000016_Node000017" class="edge">
<title>Node16&#45;&gt;Node17</title>
<g id="a_edge21_Node000016_Node000017"><a xlink:title=" ">
<path fill="none" stroke="#63b8ff" d="M965.45,-283.31C973.56,-269.61 989.64,-244.47 1007.88,-227 1061.77,-175.36 1091.87,-183.59 1147.88,-134.25 1164.16,-119.9 1180.07,-100.91 1190.92,-86.96"/>
<polygon fill="#63b8ff" stroke="#63b8ff" points="1193.68,-89.12 1196.95,-79.04 1188.11,-84.88 1193.68,-89.12"/>
</a>
</g>
</g>
<!-- Node16&#45;&gt;Node18 -->
<g id="edge22_Node000016_Node000018" class="edge">
<title>Node16&#45;&gt;Node18</title>
<g id="a_edge22_Node000016_Node000018"><a xlink:title=" ">
<path fill="none" stroke="#63b8ff" d="M919.37,-283.96C876.05,-274.16 807.53,-258.66 762.64,-248.5"/>
<polygon fill="#63b8ff" stroke="#63b8ff" points="763.48,-245.11 752.96,-246.31 761.94,-251.93 763.48,-245.11"/>
</a>
</g>
</g>
<!-- Node25 -->
<g id="Node000025" class="node">
<title>Node25</title>
<g id="a_Node000025"><a xlink:href="quadrature_8h.html" target="_top" xlink:title="Declarations of Dunavant (triangle) and Gauss–Legendre (1D) quadrature rules.">
<polygon fill="white" stroke="#666666" points="961,-247.75 882.75,-247.75 882.75,-227 961,-227 961,-247.75"/>
<text xml:space="preserve" text-anchor="middle" x="921.88" y="-234.25" font-family="Helvetica,sans-Serif" font-size="10.00">quadrature.h</text>
</a>
</g>
</g>
<!-- Node16&#45;&gt;Node25 -->
<g id="edge42_Node000016_Node000025" class="edge">
<title>Node16&#45;&gt;Node25</title>
<g id="a_edge42_Node000016_Node000025"><a xlink:title=" ">
<path fill="none" stroke="#63b8ff" d="M953.08,-283.34C948.11,-276.17 941.21,-266.23 935.15,-257.51"/>
<polygon fill="#63b8ff" stroke="#63b8ff" points="938.05,-255.54 929.47,-249.32 932.3,-259.53 938.05,-255.54"/>
</a>
</g>
</g>
<!-- Node18&#45;&gt;Node8 -->
<g id="edge39_Node000018_Node000008" class="edge">
<title>Node18&#45;&gt;Node8</title>
<g id="a_edge39_Node000018_Node000008"><a xlink:title=" ">
<path fill="none" stroke="#63b8ff" d="M694.47,-226.68C646.78,-206.91 538.17,-161.89 482.75,-138.92"/>
<polygon fill="#63b8ff" stroke="#63b8ff" points="484.39,-135.81 473.81,-135.21 481.71,-142.27 484.39,-135.81"/>
</a>
</g>
</g>
<!-- Node18&#45;&gt;Node9 -->
<g id="edge40_Node000018_Node000009" class="edge">
<title>Node18&#45;&gt;Node9</title>
<g id="a_edge40_Node000018_Node000009"><a xlink:title=" ">
<path fill="none" stroke="#63b8ff" d="M751.25,-230.35C777.15,-224.22 812.61,-212.46 836.88,-191 853.54,-176.25 879.93,-118.98 893.38,-88.11"/>
<polygon fill="#63b8ff" stroke="#63b8ff" points="896.52,-89.67 897.26,-79.1 890.09,-86.9 896.52,-89.67"/>
</a>
</g>
</g>
<!-- Node18&#45;&gt;Node19 -->
<g id="edge23_Node000018_Node000019" class="edge">
<title>Node18&#45;&gt;Node19</title>
<g id="a_edge23_Node000018_Node000019"><a xlink:title=" ">
<path fill="none" stroke="#63b8ff" d="M710.9,-226.59C705.74,-219.35 698.56,-209.26 692.3,-200.47"/>
<polygon fill="#63b8ff" stroke="#63b8ff" points="695.32,-198.68 686.67,-192.56 689.62,-202.74 695.32,-198.68"/>
</a>
</g>
</g>
<!-- Node19&#45;&gt;Node7 -->
<g id="edge26_Node000019_Node000007" class="edge">
<title>Node19&#45;&gt;Node7</title>
<g id="a_edge26_Node000019_Node000007"><a xlink:title=" ">
<path fill="none" stroke="#63b8ff" d="M635.86,-169.8C605.07,-162.02 563.01,-149.88 527.88,-134.25 511.02,-126.75 469.9,-100.98 443.26,-83.91"/>
<polygon fill="#63b8ff" stroke="#63b8ff" points="445.41,-81.14 435.11,-78.67 441.63,-87.03 445.41,-81.14"/>
</a>
</g>
</g>
<!-- Node19&#45;&gt;Node8 -->
<g id="edge32_Node000019_Node000008" class="edge">
<title>Node19&#45;&gt;Node8</title>
<g id="a_edge32_Node000019_Node000008"><a xlink:title=" ">
<path fill="none" stroke="#63b8ff" d="M637.49,-169.77C596.35,-159.98 533.53,-145.03 491.84,-135.1"/>
<polygon fill="#63b8ff" stroke="#63b8ff" points="492.69,-131.71 482.15,-132.8 491.07,-138.52 492.69,-131.71"/>
</a>
</g>
</g>
<!-- Node19&#45;&gt;Node9 -->
<g id="edge33_Node000019_Node000009" class="edge">
<title>Node19&#45;&gt;Node9</title>
<g id="a_edge33_Node000019_Node000009"><a xlink:title=" ">
<path fill="none" stroke="#63b8ff" d="M685.43,-169.98C695.75,-155.54 717.17,-128.41 741.88,-113.5 778.47,-91.41 826.25,-79.7 860.04,-73.74"/>
<polygon fill="#63b8ff" stroke="#63b8ff" points="860.58,-77.2 869.87,-72.12 859.43,-70.3 860.58,-77.2"/>
</a>
</g>
</g>
<!-- Node19&#45;&gt;Node15 -->
<g id="edge25_Node000019_Node000015" class="edge">
<title>Node19&#45;&gt;Node15</title>
<g id="a_edge25_Node000019_Node000015"><a xlink:title=" ">
<path fill="none" stroke="#63b8ff" d="M695.68,-169.84C709.85,-161.58 730.37,-149.63 746.69,-140.13"/>
<polygon fill="#63b8ff" stroke="#63b8ff" points="748.03,-143.4 754.91,-135.34 744.5,-137.35 748.03,-143.4"/>
</a>
</g>
</g>
<!-- Node20 -->
<g id="Node000020" class="node">
<title>Node20</title>
<g id="a_Node000020"><a xlink:title=" ">
<polygon fill="#e0e0e0" stroke="#999999" points="694.38,-134.25 663.38,-134.25 663.38,-113.5 694.38,-113.5 694.38,-134.25"/>
<text xml:space="preserve" text-anchor="middle" x="678.88" y="-120.75" font-family="Helvetica,sans-Serif" font-size="10.00">set</text>
</a>
</g>
</g>
<!-- Node19&#45;&gt;Node20 -->
<g id="edge24_Node000019_Node000020" class="edge">
<title>Node19&#45;&gt;Node20</title>
<g id="a_edge24_Node000019_Node000020"><a xlink:title=" ">
<path fill="none" stroke="#63b8ff" d="M678.88,-169.84C678.88,-163.22 678.88,-154.22 678.88,-146.02"/>
<polygon fill="#63b8ff" stroke="#63b8ff" points="682.38,-146.09 678.88,-136.09 675.38,-146.09 682.38,-146.09"/>
</a>
</g>
</g>
<!-- Node21 -->
<g id="Node000021" class="node">
<title>Node21</title>
<g id="a_Node000021"><a xlink:href="JobParser_8h.html" target="_top" xlink:title="Lightweight XML&#45;like tag parser for the solver job file.">
<polygon fill="white" stroke="#666666" points="606.5,-134.25 537.25,-134.25 537.25,-113.5 606.5,-113.5 606.5,-134.25"/>
<text xml:space="preserve" text-anchor="middle" x="571.88" y="-120.75" font-family="Helvetica,sans-Serif" font-size="10.00">JobParser.h</text>
</a>
</g>
</g>
<!-- Node19&#45;&gt;Node21 -->
<g id="edge27_Node000019_Node000021" class="edge">
<title>Node19&#45;&gt;Node21</title>
<g id="a_edge27_Node000019_Node000021"><a xlink:title=" ">
<path fill="none" stroke="#63b8ff" d="M659.75,-169.84C643.39,-161.47 619.6,-149.29 600.9,-139.72"/>
<polygon fill="#63b8ff" stroke="#63b8ff" points="602.68,-136.71 592.19,-135.27 599.49,-142.94 602.68,-136.71"/>
</a>
</g>
</g>
<!-- Node19&#45;&gt;Node23 -->
<g id="edge34_Node000019_Node000023" class="edge">
<title>Node19&#45;&gt;Node23</title>
<g id="a_edge34_Node000019_Node000023"><a xlink:title=" ">
<path fill="none" stroke="#63b8ff" d="M723.25,-173.71C797.29,-163.85 946.13,-144.02 1029.6,-132.9"/>
<polygon fill="#63b8ff" stroke="#63b8ff" points="1029.97,-136.39 1039.43,-131.6 1029.05,-129.45 1029.97,-136.39"/>
</a>
</g>
</g>
<!-- Node21&#45;&gt;Node4 -->
<g id="edge28_Node000021_Node000004" class="edge">
<title>Node21&#45;&gt;Node4</title>
<g id="a_edge28_Node000021_Node000004"><a xlink:title=" ">
<path fill="none" stroke="#63b8ff" d="M536.89,-116.96C475.74,-106.63 349.86,-85.36 286.34,-74.63"/>
<polygon fill="#63b8ff" stroke="#63b8ff" points="287.17,-71.22 276.73,-73 286.01,-78.12 287.17,-71.22"/>
</a>
</g>
</g>
<!-- Node21&#45;&gt;Node7 -->
<g id="edge31_Node000021_Node000007" class="edge">
<title>Node21&#45;&gt;Node7</title>
<g id="a_edge31_Node000021_Node000007"><a xlink:title=" ">
<path fill="none" stroke="#63b8ff" d="M544.52,-113.09C518.99,-103.95 480.78,-90.28 453.21,-80.41"/>
<polygon fill="#63b8ff" stroke="#63b8ff" points="454.5,-77.16 443.9,-77.08 452.14,-83.75 454.5,-77.16"/>
</a>
</g>
</g>
<!-- Node21&#45;&gt;Node17 -->
<g id="edge29_Node000021_Node000017" class="edge">
<title>Node21&#45;&gt;Node17</title>
<g id="a_edge29_Node000021_Node000017"><a xlink:title=" ">
<path fill="none" stroke="#63b8ff" d="M606.96,-118.57C621.47,-116.87 638.47,-114.97 653.88,-113.5 862.43,-93.6 915.34,-97.55 1123.88,-77.5 1136.82,-76.26 1150.91,-74.7 1163.65,-73.21"/>
<polygon fill="#63b8ff" stroke="#63b8ff" points="1163.88,-76.71 1173.4,-72.05 1163.05,-69.76 1163.88,-76.71"/>
</a>
</g>
</g>
<!-- Node22 -->
<g id="Node000022" class="node">
<title>Node22</title>
<g id="a_Node000022"><a xlink:title=" ">
<polygon fill="#e0e0e0" stroke="#999999" points="593.75,-77.5 550,-77.5 550,-56.75 593.75,-56.75 593.75,-77.5"/>
<text xml:space="preserve" text-anchor="middle" x="571.88" y="-64" font-family="Helvetica,sans-Serif" font-size="10.00">string</text>
</a>
</g>
</g>
<!-- Node21&#45;&gt;Node22 -->
<g id="edge30_Node000021_Node000022" class="edge">
<title>Node21&#45;&gt;Node22</title>
<g id="a_edge30_Node000021_Node000022"><a xlink:title=" ">
<path fill="none" stroke="#63b8ff" d="M571.88,-113.09C571.88,-106.47 571.88,-97.47 571.88,-89.27"/>
<polygon fill="#63b8ff" stroke="#63b8ff" points="575.38,-89.34 571.88,-79.34 568.38,-89.34 575.38,-89.34"/>
</a>
</g>
</g>
<!-- Node23&#45;&gt;Node7 -->
<g id="edge37_Node000023_Node000007" class="edge">
<title>Node23&#45;&gt;Node7</title>
<g id="a_edge37_Node000023_Node000007"><a xlink:title=" ">
<path fill="none" stroke="#63b8ff" d="M1041.08,-118.89C912.18,-108.38 564.87,-80.04 453.65,-70.96"/>
<polygon fill="#63b8ff" stroke="#63b8ff" points="454.21,-67.5 443.96,-70.17 453.64,-74.47 454.21,-67.5"/>
</a>
</g>
</g>
<!-- Node23&#45;&gt;Node9 -->
<g id="edge38_Node000023_Node000009" class="edge">
<title>Node23&#45;&gt;Node9</title>
<g id="a_edge38_Node000023_Node000009"><a xlink:title=" ">
<path fill="none" stroke="#63b8ff" d="M1056.26,-113.09C1024.67,-103.88 977.28,-90.08 943.35,-80.2"/>
<polygon fill="#63b8ff" stroke="#63b8ff" points="944.43,-76.87 933.85,-77.44 942.47,-83.59 944.43,-76.87"/>
</a>
</g>
</g>
<!-- Node23&#45;&gt;Node12 -->
<g id="edge36_Node000023_Node000012" class="edge">
<title>Node23&#45;&gt;Node12</title>
<g id="a_edge36_Node000023_Node000012"><a xlink:title=" ">
<path fill="none" stroke="#63b8ff" d="M1082.51,-113.19C1075.57,-104.04 1064.93,-89.9 1055.88,-77.5 1044.23,-61.54 1031.24,-43.22 1021.87,-29.92"/>
<polygon fill="#63b8ff" stroke="#63b8ff" points="1024.98,-28.25 1016.36,-22.08 1019.25,-32.28 1024.98,-28.25"/>
</a>
</g>
</g>
<!-- Node24 -->
<g id="Node000024" class="node">
<title>Node24</title>
<g id="a_Node000024"><a xlink:title=" ">
<polygon fill="#e0e0e0" stroke="#999999" points="1115.12,-77.5 1064.62,-77.5 1064.62,-56.75 1115.12,-56.75 1115.12,-77.5"/>
<text xml:space="preserve" text-anchor="middle" x="1089.88" y="-64" font-family="Helvetica,sans-Serif" font-size="10.00">math.h</text>
</a>
</g>
</g>
<!-- Node23&#45;&gt;Node24 -->
<g id="edge35_Node000023_Node000024" class="edge">
<title>Node23&#45;&gt;Node24</title>
<g id="a_edge35_Node000023_Node000024"><a xlink:title=" ">
<path fill="none" stroke="#63b8ff" d="M1089.88,-113.09C1089.88,-106.47 1089.88,-97.47 1089.88,-89.27"/>
<polygon fill="#63b8ff" stroke="#63b8ff" points="1093.38,-89.34 1089.88,-79.34 1086.38,-89.34 1093.38,-89.34"/>
</a>
</g>
</g>
<!-- Node26&#45;&gt;Node7 -->
<g id="edge45_Node000026_Node000007" class="edge">
<title>Node26&#45;&gt;Node7</title>
<g id="a_edge45_Node000026_Node000007"><a xlink:title=" ">
<path fill="none" stroke="#63b8ff" d="M519.42,-283.46C493.45,-260.7 430.56,-200.59 407.88,-134.25 402.75,-119.26 406.19,-101.51 410.53,-88.18"/>
<polygon fill="#63b8ff" stroke="#63b8ff" points="413.66,-89.8 413.86,-79.2 407.1,-87.36 413.66,-89.8"/>
</a>
</g>
</g>
<!-- Node26&#45;&gt;Node8 -->
<g id="edge47_Node000026_Node000008" class="edge">
<title>Node26&#45;&gt;Node8</title>
<g id="a_edge47_Node000026_Node000008"><a xlink:title=" ">
<path fill="none" stroke="#63b8ff" d="M527.95,-283.51C523.85,-270.45 515.88,-246.52 506.88,-227 493.12,-197.18 473.71,-164.46 461.21,-144.29"/>
<polygon fill="#63b8ff" stroke="#63b8ff" points="464.3,-142.62 456.02,-136.01 458.37,-146.34 464.3,-142.62"/>
</a>
</g>
</g>
<!-- Node26&#45;&gt;Node9 -->
<g id="edge48_Node000026_Node000009" class="edge">
<title>Node26&#45;&gt;Node9</title>
<g id="a_edge48_Node000026_Node000009"><a xlink:title=" ">
<path fill="none" stroke="#63b8ff" d="M552.89,-283.31C590.53,-266.25 669.23,-229.23 731.88,-191 788.22,-156.61 849.99,-109.33 881.27,-84.64"/>
<polygon fill="#63b8ff" stroke="#63b8ff" points="883.11,-87.64 888.77,-78.69 878.76,-82.16 883.11,-87.64"/>
</a>
</g>
</g>
<!-- Node26&#45;&gt;Node18 -->
<g id="edge46_Node000026_Node000018" class="edge">
<title>Node26&#45;&gt;Node18</title>
<g id="a_edge46_Node000026_Node000018"><a xlink:title=" ">
<path fill="none" stroke="#63b8ff" d="M563.02,-283.71C593.42,-274.81 639.31,-261.38 673.25,-251.44"/>
<polygon fill="#63b8ff" stroke="#63b8ff" points="674.19,-254.81 682.81,-248.64 672.22,-248.09 674.19,-254.81"/>
</a>
</g>
</g>
<!-- Node27&#45;&gt;Node9 -->
<g id="edge53_Node000027_Node000009" class="edge">
<title>Node27&#45;&gt;Node9</title>
<g id="a_edge53_Node000027_Node000009"><a xlink:title=" ">
<path fill="none" stroke="#63b8ff" d="M705.62,-396.9C721.94,-363.67 776.25,-255.13 802.88,-227 823.21,-205.51 839.49,-213.35 858.88,-191 877.05,-170.04 875.61,-160.4 884.88,-134.25 890.16,-119.35 894.55,-102.03 897.55,-88.85"/>
<polygon fill="#63b8ff" stroke="#63b8ff" points="900.94,-89.7 899.65,-79.18 894.1,-88.21 900.94,-89.7"/>
</a>
</g>
</g>
<!-- Node27&#45;&gt;Node13 -->
<g id="edge61_Node000027_Node000013" class="edge">
<title>Node27&#45;&gt;Node13</title>
<g id="a_edge61_Node000027_Node000013"><a xlink:title=" ">
<path fill="none" stroke="#63b8ff" d="M744.85,-399.52C810.96,-388.85 935.04,-368.81 999.17,-358.45"/>
<polygon fill="#63b8ff" stroke="#63b8ff" points="999.62,-361.92 1008.93,-356.87 998.5,-355.01 999.62,-361.92"/>
</a>
</g>
</g>
<!-- Node27&#45;&gt;Node18 -->
<g id="edge52_Node000027_Node000018" class="edge">
<title>Node27&#45;&gt;Node18</title>
<g id="a_edge52_Node000027_Node000018"><a xlink:title=" ">
<path fill="none" stroke="#63b8ff" d="M701.84,-397.1C704.5,-370.73 712.02,-296.33 715.74,-259.53"/>
<polygon fill="#63b8ff" stroke="#63b8ff" points="719.21,-260.02 716.73,-249.72 712.24,-259.32 719.21,-260.02"/>
</a>
</g>
</g>
<!-- Node28 -->
<g id="Node000028" class="node">
<title>Node28</title>
<g id="a_Node000028"><a xlink:href="LayeredMediaUtils_8h.html" target="_top" xlink:title="This header declares utility structures and algorithms used throughout the layered&#45;media scattering s...">
<polygon fill="white" stroke="#666666" points="183.12,-134.25 66.62,-134.25 66.62,-113.5 183.12,-113.5 183.12,-134.25"/>
<text xml:space="preserve" text-anchor="middle" x="124.88" y="-120.75" font-family="Helvetica,sans-Serif" font-size="10.00">LayeredMediaUtils.h</text>
</a>
</g>
</g>
<!-- Node27&#45;&gt;Node28 -->
<g id="edge54_Node000027_Node000028" class="edge">
<title>Node27&#45;&gt;Node28</title>
<g id="a_edge54_Node000027_Node000028"><a xlink:title=" ">
<path fill="none" stroke="#63b8ff" d="M680.49,-396.79C642.82,-378.62 559.77,-338.51 489.88,-304.5 386.66,-254.27 360.82,-241.77 257.88,-191 222.3,-173.46 181.47,-153.12 154.53,-139.69"/>
<polygon fill="#63b8ff" stroke="#63b8ff" points="156.1,-136.56 145.59,-135.23 152.98,-142.82 156.1,-136.56"/>
</a>
</g>
</g>
<!-- Node28&#45;&gt;Node4 -->
<g id="edge60_Node000028_Node000004" class="edge">
<title>Node28&#45;&gt;Node4</title>
<g id="a_edge60_Node000028_Node000004"><a xlink:title=" ">
<path fill="none" stroke="#63b8ff" d="M146.86,-113.09C166.02,-104.56 194.04,-92.09 215.71,-82.44"/>
<polygon fill="#63b8ff" stroke="#63b8ff" points="216.98,-85.71 224.69,-78.44 214.13,-79.31 216.98,-85.71"/>
</a>
</g>
</g>
<!-- Node28&#45;&gt;Node7 -->
<g id="edge58_Node000028_Node000007" class="edge">
<title>Node28&#45;&gt;Node7</title>
<g id="a_edge58_Node000028_Node000007"><a xlink:title=" ">
<path fill="none" stroke="#63b8ff" d="M177.78,-113.02C237.59,-101.88 333.27,-84.07 384.25,-74.57"/>
<polygon fill="#63b8ff" stroke="#63b8ff" points="384.64,-78.06 393.83,-72.79 383.35,-71.18 384.64,-78.06"/>
</a>
</g>
</g>
<!-- Node28&#45;&gt;Node9 -->
<g id="edge59_Node000028_Node000009" class="edge">
<title>Node28&#45;&gt;Node9</title>
<g id="a_edge59_Node000028_Node000009"><a xlink:title=" ">
<path fill="none" stroke="#63b8ff" d="M183.45,-117.42C198.57,-116.07 214.82,-114.68 229.88,-113.5 468.12,-94.82 754.26,-77.05 859.98,-70.64"/>
<polygon fill="#63b8ff" stroke="#63b8ff" points="860.1,-74.14 869.87,-70.04 859.68,-67.15 860.1,-74.14"/>
</a>
</g>
</g>
<!-- Node29 -->
<g id="Node000029" class="node">
<title>Node29</title>
<g id="a_Node000029"><a xlink:title=" ">
<polygon fill="#e0e0e0" stroke="#999999" points="37.75,-77.5 0,-77.5 0,-56.75 37.75,-56.75 37.75,-77.5"/>
<text xml:space="preserve" text-anchor="middle" x="18.88" y="-64" font-family="Helvetica,sans-Serif" font-size="10.00">map</text>
</a>
</g>
</g>
<!-- Node28&#45;&gt;Node29 -->
<g id="edge55_Node000028_Node000029" class="edge">
<title>Node28&#45;&gt;Node29</title>
<g id="a_edge55_Node000028_Node000029"><a xlink:title=" ">
<path fill="none" stroke="#63b8ff" d="M105.92,-113.09C89.8,-104.76 66.37,-92.66 47.88,-83.11"/>
<polygon fill="#63b8ff" stroke="#63b8ff" points="49.5,-80 39.01,-78.52 46.29,-86.22 49.5,-80"/>
</a>
</g>
</g>
<!-- Node30 -->
<g id="Node000030" class="node">
<title>Node30</title>
<g id="a_Node000030"><a xlink:title=" ">
<polygon fill="#e0e0e0" stroke="#999999" points="119.88,-77.5 55.88,-77.5 55.88,-56.75 119.88,-56.75 119.88,-77.5"/>
<text xml:space="preserve" text-anchor="middle" x="87.88" y="-64" font-family="Helvetica,sans-Serif" font-size="10.00">stdexcept</text>
</a>
</g>
</g>
<!-- Node28&#45;&gt;Node30 -->
<g id="edge56_Node000028_Node000030" class="edge">
<title>Node28&#45;&gt;Node30</title>
<g id="a_edge56_Node000028_Node000030"><a xlink:title=" ">
<path fill="none" stroke="#63b8ff" d="M118.26,-113.09C113.42,-105.92 106.7,-95.98 100.8,-87.26"/>
<polygon fill="#63b8ff" stroke="#63b8ff" points="103.78,-85.41 95.28,-79.08 97.98,-89.33 103.78,-85.41"/>
</a>
</g>
</g>
<!-- Node31 -->
<g id="Node000031" class="node">
<title>Node31</title>
<g id="a_Node000031"><a xlink:title=" ">
<polygon fill="#e0e0e0" stroke="#999999" points="202.25,-77.5 137.5,-77.5 137.5,-56.75 202.25,-56.75 202.25,-77.5"/>
<text xml:space="preserve" text-anchor="middle" x="169.88" y="-64" font-family="Helvetica,sans-Serif" font-size="10.00">functional</text>
</a>
</g>
</g>
<!-- Node28&#45;&gt;Node31 -->
<g id="edge57_Node000028_Node000031" class="edge">
<title>Node28&#45;&gt;Node31</title>
<g id="a_edge57_Node000028_Node000031"><a xlink:title=" ">
<path fill="none" stroke="#63b8ff" d="M132.92,-113.09C138.94,-105.77 147.34,-95.54 154.62,-86.69"/>
<polygon fill="#63b8ff" stroke="#63b8ff" points="157.29,-88.95 160.94,-79 151.88,-84.5 157.29,-88.95"/>
</a>
</g>
</g>
<!-- Node32&#45;&gt;Node3 -->
<g id="edge64_Node000032_Node000003" class="edge">
<title>Node32&#45;&gt;Node3</title>
<g id="a_edge64_Node000032_Node000003"><a xlink:title=" ">
<path fill="none" stroke="#63b8ff" d="M805.39,-457.36C922.94,-434.71 1318.88,-350.13 1318.88,-238.38 1318.88,-238.38 1318.88,-238.38 1318.88,-122.88 1318.88,-90.88 1311.18,-54.45 1305.58,-32.18"/>
<polygon fill="#63b8ff" stroke="#63b8ff" points="1308.99,-31.37 1303.06,-22.59 1302.22,-33.15 1308.99,-31.37"/>
</a>
</g>
</g>
<!-- Node32&#45;&gt;Node7 -->
<g id="edge66_Node000032_Node000007" class="edge">
<title>Node32&#45;&gt;Node7</title>
<g id="a_edge66_Node000032_Node000007"><a xlink:title=" ">
<path fill="none" stroke="#63b8ff" d="M740.25,-454.24C714.4,-446.36 677.79,-433.79 647.88,-418 571.41,-377.65 548.42,-368.13 489.88,-304.5 432.06,-241.67 415.93,-218.29 400.88,-134.25 399.25,-125.17 399.14,-122.56 400.88,-113.5 402.5,-104.99 405.7,-96.03 408.96,-88.35"/>
<polygon fill="#63b8ff" stroke="#63b8ff" points="412.14,-89.82 413.12,-79.27 405.77,-86.9 412.14,-89.82"/>
</a>
</g>
</g>
<!-- Node32&#45;&gt;Node9 -->
<g id="edge65_Node000032_Node000009" class="edge">
<title>Node32&#45;&gt;Node9</title>
<g id="a_edge65_Node000032_Node000009"><a xlink:title=" ">
<path fill="none" stroke="#63b8ff" d="M779.56,-453.74C791.87,-435.02 816.88,-392.04 816.88,-351.88 816.88,-351.88 816.88,-351.88 816.88,-293.12 816.88,-239.79 856.14,-238.76 879.88,-191 891.92,-166.78 896.9,-160.84 901.88,-134.25 904.69,-119.2 904.57,-101.88 903.81,-88.75"/>
<polygon fill="#63b8ff" stroke="#63b8ff" points="907.33,-88.86 903.08,-79.15 900.35,-89.39 907.33,-88.86"/>
</a>
</g>
</g>
<!-- Node32&#45;&gt;Node13 -->
<g id="edge67_Node000032_Node000013" class="edge">
<title>Node32&#45;&gt;Node13</title>
<g id="a_edge67_Node000032_Node000013"><a xlink:title=" ">
<path fill="none" stroke="#63b8ff" d="M796.1,-453.68C843.34,-433.95 950.8,-389.07 1005.9,-366.06"/>
<polygon fill="#63b8ff" stroke="#63b8ff" points="1007.24,-369.3 1015.11,-362.22 1004.54,-362.84 1007.24,-369.3"/>
</a>
</g>
</g>
<!-- Node32&#45;&gt;Node18 -->
<g id="edge69_Node000032_Node000018" class="edge">
<title>Node32&#45;&gt;Node18</title>
<g id="a_edge69_Node000032_Node000018"><a xlink:title=" ">
<path fill="none" stroke="#63b8ff" d="M770.51,-453.71C762.23,-419.81 734.37,-305.87 722.89,-258.89"/>
<polygon fill="#63b8ff" stroke="#63b8ff" points="726.36,-258.36 720.59,-249.48 719.56,-260.02 726.36,-258.36"/>
</a>
</g>
</g>
<!-- Node32&#45;&gt;Node27 -->
<g id="edge68_Node000032_Node000027" class="edge">
<title>Node32&#45;&gt;Node27</title>
<g id="a_edge68_Node000032_Node000027"><a xlink:title=" ">
<path fill="none" stroke="#63b8ff" d="M760,-453.59C749.66,-445.72 734.91,-434.5 722.72,-425.24"/>
<polygon fill="#63b8ff" stroke="#63b8ff" points="724.92,-422.51 714.84,-419.24 720.68,-428.08 724.92,-422.51"/>
</a>
</g>
</g>
</g>
</svg>
