<?xml version="1.0" encoding="UTF-8" standalone="no"?>
<!DOCTYPE svg PUBLIC "-//W3C//DTD SVG 1.1//EN"
 "http://www.w3.org/Graphics/SVG/1.1/DTD/svg11.dtd">
<!-- Generated by graphviz version 13.1.2 (20250809.0930)
 -->
<!-- Title: DomainLayered3D.h Pages: 1 -->
<svg width="224pt" height="86pt"
 viewBox="0.00 0.00 224.00 86.00" xmlns="http://www.w3.org/2000/svg" xmlns:xlink="http://www.w3.org/1999/xlink">
<g id="graph0" class="graph" transform="scale(1 1) rotate(0) translate(4 81.5)">
<title>DomainLayered3D.h</title>
<!-- Node1 -->
<g id="Node000001" class="node">
<title>Node1</title>
<g id="a_Node000001"><a xlink:title="Layered 3D simulation domain (derived from Domain).">
<polygon fill="#999999" stroke="#666666" points="179.38,-77.5 63.62,-77.5 63.62,-56.75 179.38,-56.75 179.38,-77.5"/>
<text xml:space="preserve" text-anchor="middle" x="121.5" y="-64" font-family="Helvetica,sans-Serif" font-size="10.00">DomainLayered3D.h</text>
</a>
</g>
</g>
<!-- Node2 -->
<g id="Node000002" class="node">
<title>Node2</title>
<g id="a_Node000002"><a xlink:href="DomainLayered3D_8cpp.html" target="_top" xlink:title="Implementation of the layered 3D domain.">
<polygon fill="white" stroke="#666666" points="127,-20.75 0,-20.75 0,0 127,0 127,-20.75"/>
<text xml:space="preserve" text-anchor="middle" x="63.5" y="-7.25" font-family="Helvetica,sans-Serif" font-size="10.00">DomainLayered3D.cpp</text>
</a>
</g>
</g>
<!-- Node1&#45;&gt;Node2 -->
<g id="edge1_Node000001_Node000002" class="edge">
<title>Node1&#45;&gt;Node2</title>
<g id="a_edge1_Node000001_Node000002"><a xlink:title=" ">
<path fill="none" stroke="#63b8ff" d="M102.91,-48.58C93.26,-39.47 81.84,-28.68 73.78,-21.08"/>
<polygon fill="#63b8ff" stroke="#63b8ff" points="100.36,-50.98 110.03,-55.3 105.16,-45.89 100.36,-50.98"/>
</a>
</g>
</g>
<!-- Node3 -->
<g id="Node000003" class="node">
<title>Node3</title>
<g id="a_Node000003"><a xlink:href="SimJob_8cpp.html" target="_top" xlink:title="Implementation for the SimJob class.">
<polygon fill="white" stroke="#666666" points="215.5,-20.75 145.5,-20.75 145.5,0 215.5,0 215.5,-20.75"/>
<text xml:space="preserve" text-anchor="middle" x="180.5" y="-7.25" font-family="Helvetica,sans-Serif" font-size="10.00">SimJob.cpp</text>
</a>
</g>
</g>
<!-- Node1&#45;&gt;Node3 -->
<g id="edge2_Node000001_Node000003" class="edge">
<title>Node1&#45;&gt;Node3</title>
<g id="a_edge2_Node000001_Node000003"><a xlink:title=" ">
<path fill="none" stroke="#63b8ff" d="M140.41,-48.58C150.22,-39.47 161.85,-28.68 170.04,-21.08"/>
<polygon fill="#63b8ff" stroke="#63b8ff" points="138.11,-45.94 133.16,-55.31 142.87,-51.07 138.11,-45.94"/>
</a>
</g>
</g>
</g>
</svg>
