<?xml version="1.0" encoding="UTF-8" standalone="no"?>
<!DOCTYPE svg PUBLIC "-//W3C//DTD SVG 1.1//EN"
 "http://www.w3.org/Graphics/SVG/1.1/DTD/svg11.dtd">
<!-- Generated by graphviz version 13.1.2 (20250809.0930)
 -->
<!-- Title: conjVecL Pages: 1 -->
<svg width="139pt" height="47pt"
 viewBox="0.00 0.00 139.00 47.00" xmlns="http://www.w3.org/2000/svg" xmlns:xlink="http://www.w3.org/1999/xlink">
<g id="graph0" class="graph" transform="scale(1 1) rotate(0) translate(4 42.75)">
<title>conjVecL</title>
<!-- Node1 -->
<g id="Node000001" class="node">
<title>Node1</title>
<g id="a_Node000001"><a xlink:title="Compute the element&#45;wise complex conjugate of a 3&#45;vector.">
<polygon fill="#999999" stroke="#666666" points="58.75,-20.75 0,-20.75 0,0 58.75,0 58.75,-20.75"/>
<text xml:space="preserve" text-anchor="middle" x="29.38" y="-7.25" font-family="Helvetica,sans-Serif" font-size="10.00">conjVecL</text>
</a>
</g>
</g>
<!-- Node2 -->
<g id="Node000002" class="node">
<title>Node2</title>
<g id="a_Node000002"><a xlink:href="Domain_8cpp.html#abbd88d15240455cf734121fcd73b3a03" target="_top" xlink:title="Compute the element&#45;wise complex conjugate of a 3&#45;vector.">
<polygon fill="white" stroke="#666666" points="131,-20.75 94.75,-20.75 94.75,0 131,0 131,-20.75"/>
<text xml:space="preserve" text-anchor="middle" x="112.88" y="-7.25" font-family="Helvetica,sans-Serif" font-size="10.00">conj</text>
</a>
</g>
</g>
<!-- Node1&#45;&gt;Node2 -->
<g id="edge1_Node000001_Node000002" class="edge">
<title>Node1&#45;&gt;Node2</title>
<g id="a_edge1_Node000001_Node000002"><a xlink:title=" ">
<path fill="none" stroke="#63b8ff" d="M58.88,-10.38C66.81,-10.38 75.41,-10.38 83.34,-10.38"/>
<polygon fill="#63b8ff" stroke="#63b8ff" points="83.16,-13.88 93.16,-10.38 83.16,-6.88 83.16,-13.88"/>
</a>
</g>
</g>
<!-- Node2&#45;&gt;Node2 -->
<g id="edge2_Node000002_Node000002" class="edge">
<title>Node2&#45;&gt;Node2</title>
<g id="a_edge2_Node000002_Node000002"><a xlink:title=" ">
<path fill="none" stroke="#63b8ff" d="M99.42,-21.15C94.04,-29.81 98.52,-38.75 112.88,-38.75 120.5,-38.75 125.34,-36.23 127.39,-32.56"/>
<polygon fill="#63b8ff" stroke="#63b8ff" points="130.88,-32.29 126.47,-22.65 123.91,-32.94 130.88,-32.29"/>
</a>
</g>
</g>
</g>
</svg>
