<?xml version="1.0" encoding="UTF-8" standalone="no"?>
<!DOCTYPE svg PUBLIC "-//W3C//DTD SVG 1.1//EN"
 "http://www.w3.org/Graphics/SVG/1.1/DTD/svg11.dtd">
<!-- Generated by graphviz version 13.1.2 (20250809.0930)
 -->
<!-- Title: realVecHom Pages: 1 -->
<svg width="154pt" height="47pt"
 viewBox="0.00 0.00 154.00 47.00" xmlns="http://www.w3.org/2000/svg" xmlns:xlink="http://www.w3.org/1999/xlink">
<g id="graph0" class="graph" transform="scale(1 1) rotate(0) translate(4 42.75)">
<title>realVecHom</title>
<!-- Node1 -->
<g id="Node000001" class="node">
<title>Node1</title>
<g id="a_Node000001"><a xlink:title="Extract the real part of each component of a complex 3&#45;vector.">
<polygon fill="#999999" stroke="#666666" points="75.25,-20.75 0,-20.75 0,0 75.25,0 75.25,-20.75"/>
<text xml:space="preserve" text-anchor="middle" x="37.62" y="-7.25" font-family="Helvetica,sans-Serif" font-size="10.00">realVecHom</text>
</a>
</g>
</g>
<!-- Node2 -->
<g id="Node000002" class="node">
<title>Node2</title>
<g id="a_Node000002"><a xlink:href="Domain_8cpp.html#aafa3e4fa6318b2f8740f4dbd50c367e5" target="_top" xlink:title="Extract the real part of each component of a complex 3&#45;vector.">
<polygon fill="white" stroke="#666666" points="146,-20.75 111.25,-20.75 111.25,0 146,0 146,-20.75"/>
<text xml:space="preserve" text-anchor="middle" x="128.62" y="-7.25" font-family="Helvetica,sans-Serif" font-size="10.00">real</text>
</a>
</g>
</g>
<!-- Node1&#45;&gt;Node2 -->
<g id="edge1_Node000001_Node000002" class="edge">
<title>Node1&#45;&gt;Node2</title>
<g id="a_edge1_Node000001_Node000002"><a xlink:title=" ">
<path fill="none" stroke="#63b8ff" d="M75.6,-10.38C83.52,-10.38 91.78,-10.38 99.32,-10.38"/>
<polygon fill="#63b8ff" stroke="#63b8ff" points="99.27,-13.88 109.27,-10.38 99.27,-6.88 99.27,-13.88"/>
</a>
</g>
</g>
<!-- Node2&#45;&gt;Node2 -->
<g id="edge2_Node000002_Node000002" class="edge">
<title>Node2&#45;&gt;Node2</title>
<g id="a_edge2_Node000002_Node000002"><a xlink:title=" ">
<path fill="none" stroke="#63b8ff" d="M113.96,-21.15C108.1,-29.81 112.98,-38.75 128.62,-38.75 136.93,-38.75 142.21,-36.23 144.45,-32.56"/>
<polygon fill="#63b8ff" stroke="#63b8ff" points="147.93,-32.25 143.44,-22.65 140.97,-32.96 147.93,-32.25"/>
</a>
</g>
</g>
</g>
</svg>
