<?xml version="1.0" encoding="UTF-8" standalone="no"?>
<!DOCTYPE svg PUBLIC "-//W3C//DTD SVG 1.1//EN"
 "http://www.w3.org/Graphics/SVG/1.1/DTD/svg11.dtd">
<!-- Generated by graphviz version 13.1.2 (20250809.0930)
 -->
<!-- Title: zgetrf_ Pages: 1 -->
<svg width="434pt" height="119pt"
 viewBox="0.00 0.00 434.00 119.00" xmlns="http://www.w3.org/2000/svg" xmlns:xlink="http://www.w3.org/1999/xlink">

<svg id="main" version="1.1" xmlns="http://www.w3.org/2000/svg" xmlns:xlink="http://www.w3.org/1999/xlink" xml:space="preserve">

<style type="text/css"><![CDATA[
.node, .edge {opacity: 0.7;}
.node.selected, .edge.selected {opacity: 1;}
.edge:hover path { stroke: red; }
.edge:hover polygon { stroke: red; fill: red; }
]]></style>
<script type="application/ecmascript" xlink:href="svg.min.js"/>
<svg id="graph" class="graph">
<g id="graph0" class="graph" transform="scale(1 1) rotate(0) translate(4 114.75)">
<title>zgetrf_</title>
<!-- Node1 -->
<g id="Node000001" class="node">
<title>Node1</title>
<g id="a_Node000001"><a xlink:title="Computes the LU factorization of a general M&#45;by&#45;N matrix.">
<polygon fill="#999999" stroke="#666666" points="425.5,-65.75 375.75,-65.75 375.75,-45 425.5,-45 425.5,-65.75"/>
<text xml:space="preserve" text-anchor="middle" x="400.62" y="-52.25" font-family="Helvetica,sans-Serif" font-size="10.00">zgetrf_</text>
</a>
</g>
</g>
<!-- Node2 -->
<g id="Node000002" class="node">
<title>Node2</title>
<g id="a_Node000002"><a xlink:href="classSimJob.html#a12a443329f3e49a5a94a6af72403d93b" target="_top" xlink:title="Casimir workflow entry (uses gradient matrices if enabled).">
<polygon fill="white" stroke="#666666" points="329.62,-110.75 236.38,-110.75 236.38,-90 329.62,-90 329.62,-110.75"/>
<text xml:space="preserve" text-anchor="middle" x="283" y="-97.25" font-family="Helvetica,sans-Serif" font-size="10.00">SimJob::Casimir</text>
</a>
</g>
</g>
<!-- Node1&#45;&gt;Node2 -->
<g id="edge1_Node000001_Node000002" class="edge">
<title>Node1&#45;&gt;Node2</title>
<g id="a_edge1_Node000001_Node000002"><a xlink:title=" ">
<path fill="none" stroke="#63b8ff" d="M365.4,-70.81C357.06,-74.41 348.13,-78.13 339.75,-81.38 332.5,-84.18 324.64,-86.99 317.18,-89.56"/>
<polygon fill="#63b8ff" stroke="#63b8ff" points="366.78,-74.02 374.53,-66.8 363.97,-67.61 366.78,-74.02"/>
</a>
</g>
</g>
<!-- Node4 -->
<g id="Node000004" class="node">
<title>Node4</title>
<g id="a_Node000004"><a xlink:href="classLayeredMediaUtils.html#a6d538561bc5345114e83f7939247866f" target="_top" xlink:title="Computes secondary wave coefficients for a given observation and source layer.">
<polygon fill="white" stroke="#666666" points="339.75,-72.12 226.25,-72.12 226.25,-38.62 339.75,-38.62 339.75,-72.12"/>
<text xml:space="preserve" text-anchor="start" x="234.25" y="-58.62" font-family="Helvetica,sans-Serif" font-size="10.00">LayeredMediaUtils::</text>
<text xml:space="preserve" text-anchor="middle" x="283" y="-45.88" font-family="Helvetica,sans-Serif" font-size="10.00">Secondary</text>
</a>
</g>
</g>
<!-- Node1&#45;&gt;Node4 -->
<g id="edge3_Node000001_Node000004" class="edge">
<title>Node1&#45;&gt;Node4</title>
<g id="a_edge3_Node000001_Node000004"><a xlink:title=" ">
<path fill="none" stroke="#63b8ff" d="M364.05,-55.38C356.46,-55.38 348.27,-55.38 340.12,-55.38"/>
<polygon fill="#63b8ff" stroke="#63b8ff" points="363.87,-58.88 373.87,-55.38 363.87,-51.88 363.87,-58.88"/>
</a>
</g>
</g>
<!-- Node6 -->
<g id="Node000006" class="node">
<title>Node6</title>
<g id="a_Node000006"><a xlink:href="classSimJob.html#a3af5b2630698df72bd1aa6b3efdcbb66" target="_top" xlink:title="Solve the current linear system with the chosen solver.">
<polygon fill="white" stroke="#666666" points="333,-20.75 233,-20.75 233,0 333,0 333,-20.75"/>
<text xml:space="preserve" text-anchor="middle" x="283" y="-7.25" font-family="Helvetica,sans-Serif" font-size="10.00">SimJob::SolveLSE</text>
</a>
</g>
</g>
<!-- Node1&#45;&gt;Node6 -->
<g id="edge5_Node000001_Node000006" class="edge">
<title>Node1&#45;&gt;Node6</title>
<g id="a_edge5_Node000001_Node000006"><a xlink:title=" ">
<path fill="none" stroke="#63b8ff" d="M365.4,-39.94C357.06,-36.34 348.13,-32.62 339.75,-29.38 332.5,-26.57 324.64,-23.76 317.18,-21.19"/>
<polygon fill="#63b8ff" stroke="#63b8ff" points="363.97,-43.14 374.53,-43.95 366.78,-36.73 363.97,-43.14"/>
</a>
</g>
</g>
<!-- Node3 -->
<g id="Node000003" class="node">
<title>Node3</title>
<g id="a_Node000003"><a xlink:href="casimir_8cpp.html#a0ddf1224851353fc92bfbff6f499fa97" target="_top" xlink:title="Main driver routine for the simulation program.">
<polygon fill="white" stroke="#666666" points="153.88,-110.75 113.12,-110.75 113.12,-90 153.88,-90 153.88,-110.75"/>
<text xml:space="preserve" text-anchor="middle" x="133.5" y="-97.25" font-family="Helvetica,sans-Serif" font-size="10.00">main</text>
</a>
</g>
</g>
<!-- Node2&#45;&gt;Node3 -->
<g id="edge2_Node000002_Node000003" class="edge">
<title>Node2&#45;&gt;Node3</title>
<g id="a_edge2_Node000002_Node000003"><a xlink:title=" ">
<path fill="none" stroke="#63b8ff" d="M224.88,-100.38C199.85,-100.38 172.14,-100.38 154.08,-100.38"/>
<polygon fill="#63b8ff" stroke="#63b8ff" points="224.63,-103.88 234.63,-100.38 224.63,-96.88 224.63,-103.88"/>
</a>
</g>
</g>
<!-- Node5 -->
<g id="Node000005" class="node">
<title>Node5</title>
<g id="a_Node000005"><a xlink:href="classLayeredMediaUtils.html#ab1660d136377d8e6d7878973475146a8" target="_top" xlink:title="Computes electromagnetic fields at observation points given a source position.">
<polygon fill="white" stroke="#666666" points="190.25,-72.12 76.75,-72.12 76.75,-38.62 190.25,-38.62 190.25,-72.12"/>
<text xml:space="preserve" text-anchor="start" x="84.75" y="-58.62" font-family="Helvetica,sans-Serif" font-size="10.00">LayeredMediaUtils::</text>
<text xml:space="preserve" text-anchor="middle" x="133.5" y="-45.88" font-family="Helvetica,sans-Serif" font-size="10.00">Fields</text>
</a>
</g>
</g>
<!-- Node4&#45;&gt;Node5 -->
<g id="edge4_Node000004_Node000005" class="edge">
<title>Node4&#45;&gt;Node5</title>
<g id="a_edge4_Node000004_Node000005"><a xlink:title=" ">
<path fill="none" stroke="#63b8ff" d="M214.56,-55.38C206.52,-55.38 198.38,-55.38 190.53,-55.38"/>
<polygon fill="#63b8ff" stroke="#63b8ff" points="214.3,-58.88 224.3,-55.38 214.3,-51.88 214.3,-58.88"/>
</a>
</g>
</g>
<!-- Node7 -->
<g id="Node000007" class="node">
<title>Node7</title>
<g id="a_Node000007"><a xlink:href="classSimJob.html#aeca9fd8ceee84fdef75996581fe1093a" target="_top" xlink:title="High&#45;level entry: run a simulation for a given job file.">
<polygon fill="white" stroke="#666666" points="183.12,-20.75 83.88,-20.75 83.88,0 183.12,0 183.12,-20.75"/>
<text xml:space="preserve" text-anchor="middle" x="133.5" y="-7.25" font-family="Helvetica,sans-Serif" font-size="10.00">SimJob::Simulate</text>
</a>
</g>
</g>
<!-- Node6&#45;&gt;Node7 -->
<g id="edge6_Node000006_Node000007" class="edge">
<title>Node6&#45;&gt;Node7</title>
<g id="a_edge6_Node000006_Node000007"><a xlink:title=" ">
<path fill="none" stroke="#63b8ff" d="M221.45,-10.38C208.78,-10.38 195.58,-10.38 183.4,-10.38"/>
<polygon fill="#63b8ff" stroke="#63b8ff" points="221.37,-13.88 231.37,-10.38 221.37,-6.88 221.37,-13.88"/>
</a>
</g>
</g>
<!-- Node8 -->
<g id="Node000008" class="node">
<title>Node8</title>
<g id="a_Node000008"><a xlink:href="main_8cpp.html#a0ddf1224851353fc92bfbff6f499fa97" target="_top" xlink:title="Main driver routine for the HELIOS SIE simulation program.">
<polygon fill="white" stroke="#666666" points="40.75,-20.75 0,-20.75 0,0 40.75,0 40.75,-20.75"/>
<text xml:space="preserve" text-anchor="middle" x="20.38" y="-7.25" font-family="Helvetica,sans-Serif" font-size="10.00">main</text>
</a>
</g>
</g>
<!-- Node7&#45;&gt;Node8 -->
<g id="edge7_Node000007_Node000008" class="edge">
<title>Node7&#45;&gt;Node8</title>
<g id="a_edge7_Node000007_Node000008"><a xlink:title=" ">
<path fill="none" stroke="#63b8ff" d="M72.22,-10.38C61.03,-10.38 50.09,-10.38 41.24,-10.38"/>
<polygon fill="#63b8ff" stroke="#63b8ff" points="71.92,-13.88 81.92,-10.38 71.92,-6.88 71.92,-13.88"/>
</a>
</g>
</g>
</g>
</svg>
</svg>

<style type='text/css'>
<![CDATA[
[data-mouse-over-selected='false'] { opacity: 0.7; }
[data-mouse-over-selected='true']  { opacity: 1.0; }
]]>
</style>
<script type="application/ecmascript"><![CDATA[
document.addEventListener('DOMContentLoaded', (event) => {
  highlightEdges();
  highlightAdjacentNodes();
});
]]></script>
</svg>
