<?xml version="1.0" encoding="UTF-8" standalone="no"?>
<!DOCTYPE svg PUBLIC "-//W3C//DTD SVG 1.1//EN"
 "http://www.w3.org/Graphics/SVG/1.1/DTD/svg11.dtd">
<!-- Generated by graphviz version 13.1.2 (20250809.0930)
 -->
<!-- Title: adjustZRange Pages: 1 -->
<!--zoomable 158 -->

<svg id="main" version="1.1" xmlns="http://www.w3.org/2000/svg" xmlns:xlink="http://www.w3.org/1999/xlink" xml:space="preserve" onload="init(evt)">

<style type="text/css"><![CDATA[
.node, .edge {opacity: 0.7;}
.node.selected, .edge.selected {opacity: 1;}
.edge:hover path { stroke: red; }
.edge:hover polygon { stroke: red; fill: red; }
]]></style>

<defs>
  <circle id="rim" cx="0" cy="0" r="7"/>
  <circle id="rim2" cx="0" cy="0" r="3.5"/>
  <g id="zoomPlus">
    <use xlink:href="#rim" fill="#404040"><set attributeName="fill" to="#808080" begin="zoomplus.mouseover" end="zoomplus.mouseout"/></use>
    <path d="M-4,0h8M0,-4v8" fill="none" stroke="white" stroke-width="1.5" pointer-events="none"/>
  </g>
  <g id="zoomMin">
    <use xlink:href="#rim" fill="#404040"><set attributeName="fill" to="#808080" begin="zoomminus.mouseover" end="zoomminus.mouseout"/></use>
    <path d="M-4,0h8" fill="none" stroke="white" stroke-width="1.5" pointer-events="none"/>
  </g>
  <g id="arrowUp" transform="translate(30 24)">
    <use xlink:href="#rim"/>
    <path pointer-events="none" fill="none" stroke="white" stroke-width="1.5" d="M0,-3.0v7 M-2.5,-0.5L0,-3.0L2.5,-0.5"/>
  </g>
  <g id="arrowRight" transform="rotate(90) translate(36 -43)">
    <use xlink:href="#rim"/>
    <path pointer-events="none" fill="none" stroke="white" stroke-width="1.5" d="M0,-3.0v7 M-2.5,-0.5L0,-3.0L2.5,-0.5"/>
  </g>
  <g id="arrowDown" transform="rotate(180) translate(-30 -48)">
    <use xlink:href="#rim"/>
    <path pointer-events="none" fill="none" stroke="white" stroke-width="1.5" d="M0,-3.0v7 M-2.5,-0.5L0,-3.0L2.5,-0.5"/>
  </g>
  <g id="arrowLeft" transform="rotate(270) translate(-36 17)">
    <use xlink:href="#rim"/>
    <path pointer-events="none" fill="none" stroke="white" stroke-width="1.5" d="M0,-3.0v7 M-2.5,-0.5L0,-3.0L2.5,-0.5"/>
  </g>
  <g id="resetDef">
    <use xlink:href="#rim2" fill="#404040"><set attributeName="fill" to="#808080" begin="reset.mouseover" end="reset.mouseout"/></use>
  </g>
</defs>
<script type="application/ecmascript">
var viewWidth = 736;
var viewHeight = 158;
var sectionId = 'dynsection-1';
</script>
<script type="application/ecmascript" xlink:href="svg.min.js"/>
<svg id="graph" class="graph">
<g id="viewport">
<title>adjustZRange</title>
<!-- Node1 -->
<g id="Node000001" class="node">
<title>Node1</title>
<g id="a_Node000001"><a xlink:title="Adjusts the Z&#45;coordinate range with a margin while ensuring boundaries.">
<polygon fill="#999999" stroke="#666666" points="727.75,-64.75 644.25,-64.75 644.25,-44 727.75,-44 727.75,-64.75"/>
<text xml:space="preserve" text-anchor="middle" x="686" y="-51.25" font-family="Helvetica,sans-Serif" font-size="10.00">adjustZRange</text>
</a>
</g>
</g>
<!-- Node2 -->
<g id="Node000002" class="node">
<title>Node2</title>
<g id="a_Node000002"><a xlink:href="classDomainLayered3D.html#af0fc42edd76b3e69a326990cefcbcd37" target="_top" xlink:title="Calculates the tabulation range for a group of points.">
<polygon fill="white" stroke="#666666" points="608.25,-71.12 451.25,-71.12 451.25,-37.62 608.25,-37.62 608.25,-71.12"/>
<text xml:space="preserve" text-anchor="start" x="459.25" y="-57.62" font-family="Helvetica,sans-Serif" font-size="10.00">DomainLayered3D::calculate</text>
<text xml:space="preserve" text-anchor="middle" x="529.75" y="-44.88" font-family="Helvetica,sans-Serif" font-size="10.00">Range</text>
</a>
</g>
</g>
<!-- Node1&#45;&gt;Node2 -->
<g id="edge1_Node000001_Node000002" class="edge">
<title>Node1&#45;&gt;Node2</title>
<g id="a_edge1_Node000001_Node000002"><a xlink:title=" ">
<path fill="none" stroke="#63b8ff" d="M632.62,-54.38C624.86,-54.38 616.73,-54.38 608.58,-54.38"/>
<polygon fill="#63b8ff" stroke="#63b8ff" points="632.56,-57.88 642.56,-54.38 632.56,-50.88 632.56,-57.88"/>
</a>
</g>
</g>
<!-- Node3 -->
<g id="Node000003" class="node">
<title>Node3</title>
<g id="a_Node000003"><a xlink:href="classDomainLayered3D.html#a5379311442fe1bbc7808308726ee510d" target="_top" xlink:title="Computes the grid points for tabulation.">
<polygon fill="white" stroke="#666666" points="415.25,-87.75 239.5,-87.75 239.5,-67 415.25,-67 415.25,-87.75"/>
<text xml:space="preserve" text-anchor="middle" x="327.38" y="-74.25" font-family="Helvetica,sans-Serif" font-size="10.00">DomainLayered3D::computeGrid</text>
</a>
</g>
</g>
<!-- Node2&#45;&gt;Node3 -->
<g id="edge2_Node000002_Node000003" class="edge">
<title>Node2&#45;&gt;Node3</title>
<g id="a_edge2_Node000002_Node000003"><a xlink:title=" ">
<path fill="none" stroke="#63b8ff" d="M439.79,-64.59C431.8,-65.5 423.71,-66.43 415.74,-67.35"/>
<polygon fill="#63b8ff" stroke="#63b8ff" points="439.95,-68.09 449.49,-63.47 439.16,-61.14 439.95,-68.09"/>
</a>
</g>
</g>
<!-- Node8 -->
<g id="Node000008" class="node">
<title>Node8</title>
<g id="a_Node000008"><a xlink:href="classDomainLayered3D.html#a9ca4f1cf49de04c5df6a664e656dbf85" target="_top" xlink:title="Self&#45;test: tabulation range computation (prints to console).">
<polygon fill="white" stroke="#666666" points="393.12,-49.12 261.62,-49.12 261.62,-15.62 393.12,-15.62 393.12,-49.12"/>
<text xml:space="preserve" text-anchor="start" x="269.62" y="-35.62" font-family="Helvetica,sans-Serif" font-size="10.00">DomainLayered3D::test</text>
<text xml:space="preserve" text-anchor="middle" x="327.38" y="-22.88" font-family="Helvetica,sans-Serif" font-size="10.00">_range</text>
</a>
</g>
</g>
<!-- Node2&#45;&gt;Node8 -->
<g id="edge7_Node000002_Node000008" class="edge">
<title>Node2&#45;&gt;Node8</title>
<g id="a_edge7_Node000002_Node000008"><a xlink:title=" ">
<path fill="none" stroke="#63b8ff" d="M439.73,-44.6C424.15,-42.89 408.2,-41.14 393.43,-39.52"/>
<polygon fill="#63b8ff" stroke="#63b8ff" points="439.17,-48.06 449.49,-45.67 439.93,-41.1 439.17,-48.06"/>
</a>
</g>
</g>
<!-- Node4 -->
<g id="Node000004" class="node">
<title>Node4</title>
<g id="a_Node000004"><a xlink:href="classDomainLayered3D.html#a6551ae7ca5dac2a5dda2d78b15d78ecc" target="_top" xlink:title="Add a Dipole excitation in the layered medium.">
<polygon fill="white" stroke="#666666" points="183.25,-149.75 20.25,-149.75 20.25,-129 183.25,-129 183.25,-149.75"/>
<text xml:space="preserve" text-anchor="middle" x="101.75" y="-136.25" font-family="Helvetica,sans-Serif" font-size="10.00">DomainLayered3D::AddDipole</text>
</a>
</g>
</g>
<!-- Node3&#45;&gt;Node4 -->
<g id="edge3_Node000003_Node000004" class="edge">
<title>Node3&#45;&gt;Node4</title>
<g id="a_edge3_Node000003_Node000004"><a xlink:title=" ">
<path fill="none" stroke="#63b8ff" d="M287.62,-92.11C263.63,-100.85 232.07,-111.69 203.5,-119.38 190.93,-122.76 177.33,-125.83 164.32,-128.51"/>
<polygon fill="#63b8ff" stroke="#63b8ff" points="288.81,-95.4 296.98,-88.66 286.39,-88.83 288.81,-95.4"/>
</a>
</g>
</g>
<!-- Node5 -->
<g id="Node000005" class="node">
<title>Node5</title>
<g id="a_Node000005"><a xlink:href="classDomainLayered3D.html#ad0d867ee7289e485c4bc01077fbdb59a" target="_top" xlink:title="Constructs a 3D layered domain with given material properties and geometry.">
<polygon fill="white" stroke="#666666" points="203.5,-110.75 0,-110.75 0,-90 203.5,-90 203.5,-110.75"/>
<text xml:space="preserve" text-anchor="middle" x="101.75" y="-97.25" font-family="Helvetica,sans-Serif" font-size="10.00">DomainLayered3D::DomainLayered3D</text>
</a>
</g>
</g>
<!-- Node3&#45;&gt;Node5 -->
<g id="edge4_Node000003_Node000005" class="edge">
<title>Node3&#45;&gt;Node5</title>
<g id="a_edge4_Node000003_Node000005"><a xlink:title=" ">
<path fill="none" stroke="#63b8ff" d="M227.98,-87.49C219.94,-88.32 211.8,-89.16 203.73,-89.99"/>
<polygon fill="#63b8ff" stroke="#63b8ff" points="228.18,-90.99 237.77,-86.49 227.46,-84.03 228.18,-90.99"/>
</a>
</g>
</g>
<!-- Node6 -->
<g id="Node000006" class="node">
<title>Node6</title>
<g id="a_Node000006"><a xlink:href="classDomainLayered3D.html#ab55a37fee77313a2f5e2bd4c2be927f0" target="_top" xlink:title="Initialize the layered Green&#39;s function used for field evaluation.">
<polygon fill="white" stroke="#666666" points="185.5,-72.12 18,-72.12 18,-38.62 185.5,-38.62 185.5,-72.12"/>
<text xml:space="preserve" text-anchor="start" x="26" y="-58.62" font-family="Helvetica,sans-Serif" font-size="10.00">DomainLayered3D::newGrnFun</text>
<text xml:space="preserve" text-anchor="middle" x="101.75" y="-45.88" font-family="Helvetica,sans-Serif" font-size="10.00">Layered</text>
</a>
</g>
</g>
<!-- Node3&#45;&gt;Node6 -->
<g id="edge5_Node000003_Node000006" class="edge">
<title>Node3&#45;&gt;Node6</title>
<g id="a_edge5_Node000003_Node000006"><a xlink:title=" ">
<path fill="none" stroke="#63b8ff" d="M228.08,-67.7C214.02,-66.32 199.68,-64.91 185.95,-63.56"/>
<polygon fill="#63b8ff" stroke="#63b8ff" points="227.47,-71.16 237.77,-68.66 228.16,-64.2 227.47,-71.16"/>
</a>
</g>
</g>
<!-- Node7 -->
<g id="Node000007" class="node">
<title>Node7</title>
<g id="a_Node000007"><a xlink:href="classDomainLayered3D.html#acd442aab27d1f56d8211a164f85f341a" target="_top" xlink:title="Self&#45;test: grid generation (prints to console).">
<polygon fill="white" stroke="#666666" points="179.5,-20.75 24,-20.75 24,0 179.5,0 179.5,-20.75"/>
<text xml:space="preserve" text-anchor="middle" x="101.75" y="-7.25" font-family="Helvetica,sans-Serif" font-size="10.00">DomainLayered3D::test_grid</text>
</a>
</g>
</g>
<!-- Node3&#45;&gt;Node7 -->
<g id="edge6_Node000003_Node000007" class="edge">
<title>Node3&#45;&gt;Node7</title>
<g id="a_edge6_Node000003_Node000007"><a xlink:title=" ">
<path fill="none" stroke="#63b8ff" d="M250.45,-63C246.69,-61.6 243.02,-60.06 239.5,-58.38 220.97,-49.5 222.16,-37.98 203.5,-29.38 196.07,-25.94 188.05,-23.13 179.9,-20.83"/>
<polygon fill="#63b8ff" stroke="#63b8ff" points="249.18,-66.27 259.78,-66.13 251.41,-59.63 249.18,-66.27"/>
</a>
</g>
</g>
</g>
</svg>

<g id="navigator" transform="translate(0 0)" fill="#404254">
  <rect fill="#f2f5e9" fill-opacity="0.5" stroke="#606060" stroke-width=".5" x="0" y="0" width="60" height="60"/>
  <use id="zoomplus" xlink:href="#zoomPlus" x="17" y="9" onmousedown="handleZoom(evt,'in')"/>
  <use id="zoomminus" xlink:href="#zoomMin" x="42" y="9" onmousedown="handleZoom(evt,'out')"/>
  <use id="reset" xlink:href="#resetDef" x="30" y="36" onmousedown="handleReset()"/>
   <use id="arrowup" xlink:href="#arrowUp" x="0" y="0" onmousedown="handlePan(0,-1)"/>
  <use id="arrowright" xlink:href="#arrowRight" x="0" y="0" onmousedown="handlePan(1,0)"/>
  <use id="arrowdown" xlink:href="#arrowDown" x="0" y="0" onmousedown="handlePan(0,1)"/>
  <use id="arrowleft" xlink:href="#arrowLeft" x="0" y="0" onmousedown="handlePan(-1,0)"/>
</g>
<svg viewBox="0 0 15 15" width="100%" height="30px" preserveAspectRatio="xMaxYMin meet">
 <g id="arrow_out" transform="scale(0.3 0.3)">
  <a xlink:href="DomainLayered3D_8cpp_a83b3a83c01e3d7a487d4ae2ec65695f5_icgraph_org.svg" target="_base">
   <rect id="button" ry="5" rx="5" y="6" x="6" height="38" width="38"
        fill="#f2f5e9" fill-opacity="0.5" stroke="#606060" stroke-width="1.0"/>
   <path id="arrow"
     d="M 11.500037,31.436501 C 11.940474,20.09759 22.043105,11.32322 32.158766,21.979434 L 37.068811,17.246167 C 37.068811,17.246167 37.088388,32 37.088388,32 L 22.160133,31.978069 C 22.160133,31.978069 26.997745,27.140456 26.997745,27.140456 C 18.528582,18.264221 13.291696,25.230495 11.500037,31.436501 z"
     style="fill:#404040;"/>
  </a>
 </g>
</svg>

<style type='text/css'>
<![CDATA[
[data-mouse-over-selected='false'] { opacity: 0.7; }
[data-mouse-over-selected='true']  { opacity: 1.0; }
]]>
</style>
<script type="application/ecmascript"><![CDATA[
document.addEventListener('DOMContentLoaded', (event) => {
  highlightEdges();
  highlightAdjacentNodes();
});
]]></script>
</svg>
