<?xml version="1.0" encoding="UTF-8" standalone="no"?>
<!DOCTYPE svg PUBLIC "-//W3C//DTD SVG 1.1//EN"
 "http://www.w3.org/Graphics/SVG/1.1/DTD/svg11.dtd">
<!-- Generated by graphviz version 13.1.2 (20250809.0930)
 -->
<!-- Title: conj Pages: 1 -->
<svg width="597pt" height="294pt"
 viewBox="0.00 0.00 597.00 294.00" xmlns="http://www.w3.org/2000/svg" xmlns:xlink="http://www.w3.org/1999/xlink">
<g id="graph0" class="graph" transform="scale(1 1) rotate(0) translate(4 290.31)">
<title>conj</title>
<!-- Node1 -->
<g id="Node000001" class="node">
<title>Node1</title>
<g id="a_Node000001"><a xlink:title="Compute the element&#45;wise complex conjugate of a 3&#45;vector.">
<polygon fill="#999999" stroke="#666666" points="588.5,-156.75 552.25,-156.75 552.25,-136 588.5,-136 588.5,-156.75"/>
<text xml:space="preserve" text-anchor="middle" x="570.38" y="-143.25" font-family="Helvetica,sans-Serif" font-size="10.00">conj</text>
</a>
</g>
</g>
<!-- Node1&#45;&gt;Node1 -->
<g id="edge1_Node000001_Node000001" class="edge">
<title>Node1&#45;&gt;Node1</title>
<g id="a_edge1_Node000001_Node000001"><a xlink:title=" ">
<path fill="none" stroke="#63b8ff" d="M587.63,-168.56C585.19,-172.23 579.44,-174.75 570.38,-174.75 553.32,-174.75 547.99,-165.81 554.38,-157.15"/>
<polygon fill="#63b8ff" stroke="#63b8ff" points="591.11,-168.21 586.53,-158.65 584.16,-168.98 591.11,-168.21"/>
</a>
</g>
</g>
<!-- Node2 -->
<g id="Node000002" class="node">
<title>Node2</title>
<g id="a_Node000002"><a xlink:href="SimJob_8cpp.html#a6c07f30d5cdc5dc98cdc21ce445933cb" target="_top" xlink:title="Compute the element&#45;wise complex conjugate of a 3&#45;vector.">
<polygon fill="white" stroke="#666666" points="498.62,-272.75 443.62,-272.75 443.62,-252 498.62,-252 498.62,-272.75"/>
<text xml:space="preserve" text-anchor="middle" x="471.12" y="-259.25" font-family="Helvetica,sans-Serif" font-size="10.00">ConjVec</text>
</a>
</g>
</g>
<!-- Node1&#45;&gt;Node2 -->
<g id="edge2_Node000001_Node000002" class="edge">
<title>Node1&#45;&gt;Node2</title>
<g id="a_edge2_Node000001_Node000002"><a xlink:title=" ">
<path fill="none" stroke="#63b8ff" d="M553.26,-165.6C532.6,-190.24 497.49,-232.12 481.08,-251.7"/>
<polygon fill="#63b8ff" stroke="#63b8ff" points="555.69,-168.15 559.43,-158.24 550.32,-163.65 555.69,-168.15"/>
</a>
</g>
</g>
<!-- Node5 -->
<g id="Node000005" class="node">
<title>Node5</title>
<g id="a_Node000005"><a xlink:href="DomainHom3D_8cpp.html#acf27d554499921efb016e1a01ac8b94e" target="_top" xlink:title="Compute the element&#45;wise complex conjugate of a 3&#45;vector.">
<polygon fill="white" stroke="#666666" points="509.5,-195.75 432.75,-195.75 432.75,-175 509.5,-175 509.5,-195.75"/>
<text xml:space="preserve" text-anchor="middle" x="471.12" y="-182.25" font-family="Helvetica,sans-Serif" font-size="10.00">conjVecHom</text>
</a>
</g>
</g>
<!-- Node1&#45;&gt;Node5 -->
<g id="edge5_Node000001_Node000005" class="edge">
<title>Node1&#45;&gt;Node5</title>
<g id="a_edge5_Node000001_Node000005"><a xlink:title=" ">
<path fill="none" stroke="#63b8ff" d="M541.47,-157.57C528.09,-162.93 512.13,-169.33 498.9,-174.64"/>
<polygon fill="#63b8ff" stroke="#63b8ff" points="542.61,-160.88 550.58,-153.91 540,-154.38 542.61,-160.88"/>
</a>
</g>
</g>
<!-- Node9 -->
<g id="Node000009" class="node">
<title>Node9</title>
<g id="a_Node000009"><a xlink:href="DomainLayered3D_8cpp.html#a37aee72ef7a00576c814a1370473cce7" target="_top" xlink:title="Compute the element&#45;wise complex conjugate of a 3&#45;vector.">
<polygon fill="white" stroke="#666666" points="500.5,-117.75 441.75,-117.75 441.75,-97 500.5,-97 500.5,-117.75"/>
<text xml:space="preserve" text-anchor="middle" x="471.12" y="-104.25" font-family="Helvetica,sans-Serif" font-size="10.00">conjVecL</text>
</a>
</g>
</g>
<!-- Node1&#45;&gt;Node9 -->
<g id="edge9_Node000001_Node000009" class="edge">
<title>Node1&#45;&gt;Node9</title>
<g id="a_edge9_Node000001_Node000009"><a xlink:title=" ">
<path fill="none" stroke="#63b8ff" d="M541.47,-135.18C528.09,-129.82 512.13,-123.42 498.9,-118.11"/>
<polygon fill="#63b8ff" stroke="#63b8ff" points="540,-138.37 550.58,-138.84 542.61,-131.87 540,-138.37"/>
</a>
</g>
</g>
<!-- Node13 -->
<g id="Node000013" class="node">
<title>Node13</title>
<g id="a_Node000013"><a xlink:href="classDomain.html#a3087596044d4c345f84faaad1291946d" target="_top" xlink:title="Power crossing the domain boundary computed from the RWG solution.">
<polygon fill="white" stroke="#666666" points="516.25,-59.75 426,-59.75 426,-39 516.25,-39 516.25,-59.75"/>
<text xml:space="preserve" text-anchor="middle" x="471.12" y="-46.25" font-family="Helvetica,sans-Serif" font-size="10.00">Domain::Power</text>
</a>
</g>
</g>
<!-- Node1&#45;&gt;Node13 -->
<g id="edge13_Node000001_Node000013" class="edge">
<title>Node1&#45;&gt;Node13</title>
<g id="a_edge13_Node000001_Node000013"><a xlink:title=" ">
<path fill="none" stroke="#63b8ff" d="M552.87,-127.36C542.62,-115.8 529.01,-100.91 516.25,-88.38 506.04,-78.34 493.8,-67.62 484.8,-59.96"/>
<polygon fill="#63b8ff" stroke="#63b8ff" points="550.06,-129.46 559.29,-134.66 555.32,-124.84 550.06,-129.46"/>
</a>
</g>
</g>
<!-- Node3 -->
<g id="Node000003" class="node">
<title>Node3</title>
<g id="a_Node000003"><a xlink:href="classSimJob.html#a20b37e2e0aa2502a3ec465a5705b1774" target="_top" xlink:title="Evaluate fields on a set of points read from a file.">
<polygon fill="white" stroke="#666666" points="176.75,-156.75 76.75,-156.75 76.75,-136 176.75,-136 176.75,-156.75"/>
<text xml:space="preserve" text-anchor="middle" x="126.75" y="-143.25" font-family="Helvetica,sans-Serif" font-size="10.00">SimJob::FieldEval</text>
</a>
</g>
</g>
<!-- Node2&#45;&gt;Node3 -->
<g id="edge3_Node000002_Node000003" class="edge">
<title>Node2&#45;&gt;Node3</title>
<g id="a_edge3_Node000002_Node000003"><a xlink:title=" ">
<path fill="none" stroke="#63b8ff" d="M432.36,-272.74C379.9,-284.97 283.45,-299.4 212.75,-263.38 167.79,-240.46 141.03,-181.4 131.61,-157.08"/>
<polygon fill="#63b8ff" stroke="#63b8ff" points="433.12,-276.16 442.01,-270.39 431.47,-269.36 433.12,-276.16"/>
</a>
</g>
</g>
<!-- Node4 -->
<g id="Node000004" class="node">
<title>Node4</title>
<g id="a_Node000004"><a xlink:href="main_8cpp.html#a0ddf1224851353fc92bfbff6f499fa97" target="_top" xlink:title="Main driver routine for the HELIOS SIE simulation program.">
<polygon fill="white" stroke="#666666" points="40.75,-156.75 0,-156.75 0,-136 40.75,-136 40.75,-156.75"/>
<text xml:space="preserve" text-anchor="middle" x="20.38" y="-143.25" font-family="Helvetica,sans-Serif" font-size="10.00">main</text>
</a>
</g>
</g>
<!-- Node3&#45;&gt;Node4 -->
<g id="edge4_Node000003_Node000004" class="edge">
<title>Node3&#45;&gt;Node4</title>
<g id="a_edge4_Node000003_Node000004"><a xlink:title=" ">
<path fill="none" stroke="#63b8ff" d="M64.97,-146.38C56.42,-146.38 48.18,-146.38 41.22,-146.38"/>
<polygon fill="#63b8ff" stroke="#63b8ff" points="64.8,-149.88 74.8,-146.38 64.8,-142.88 64.8,-149.88"/>
</a>
</g>
</g>
<!-- Node6 -->
<g id="Node000006" class="node">
<title>Node6</title>
<g id="a_Node000006"><a xlink:href="classDomainHom3D.html#ad19635c8b33f69ebf6cb3cd8788f7f23" target="_top" xlink:title="Absorption cross section via surface quadrature.">
<polygon fill="white" stroke="#666666" points="382.12,-254.75 220.62,-254.75 220.62,-234 382.12,-234 382.12,-254.75"/>
<text xml:space="preserve" text-anchor="middle" x="301.38" y="-241.25" font-family="Helvetica,sans-Serif" font-size="10.00">DomainHom3D::absorptionCS</text>
</a>
</g>
</g>
<!-- Node5&#45;&gt;Node6 -->
<g id="edge6_Node000005_Node000006" class="edge">
<title>Node5&#45;&gt;Node6</title>
<g id="a_edge6_Node000005_Node000006"><a xlink:title=" ">
<path fill="none" stroke="#63b8ff" d="M441.1,-201.5C426.18,-209.27 407.5,-218.21 390,-224.38 379.99,-227.9 369.12,-230.96 358.54,-233.56"/>
<polygon fill="#63b8ff" stroke="#63b8ff" points="442.71,-204.61 449.89,-196.82 439.42,-198.43 442.71,-204.61"/>
</a>
</g>
</g>
<!-- Node7 -->
<g id="Node000007" class="node">
<title>Node7</title>
<g id="a_Node000007"><a xlink:href="classDomainHom3D.html#aa6a76dafe56204c15b80e491e6a2b21d" target="_top" xlink:title="Extinction cross section via surface quadrature.">
<polygon fill="white" stroke="#666666" points="380.62,-215.75 222.12,-215.75 222.12,-195 380.62,-195 380.62,-215.75"/>
<text xml:space="preserve" text-anchor="middle" x="301.38" y="-202.25" font-family="Helvetica,sans-Serif" font-size="10.00">DomainHom3D::extinctionCS</text>
</a>
</g>
</g>
<!-- Node5&#45;&gt;Node7 -->
<g id="edge7_Node000005_Node000007" class="edge">
<title>Node5&#45;&gt;Node7</title>
<g id="a_edge7_Node000005_Node000007"><a xlink:title=" ">
<path fill="none" stroke="#63b8ff" d="M421.3,-191.2C408.69,-192.7 394.78,-194.36 381.07,-195.99"/>
<polygon fill="#63b8ff" stroke="#63b8ff" points="421.46,-194.7 430.98,-190.04 420.63,-187.75 421.46,-194.7"/>
</a>
</g>
</g>
<!-- Node8 -->
<g id="Node000008" class="node">
<title>Node8</title>
<g id="a_Node000008"><a xlink:href="classDomainHom3D.html#af51c0166dbce1642b143f7bf910b7c12" target="_top" xlink:title="Scattering cross section via surface quadrature.">
<polygon fill="white" stroke="#666666" points="380.62,-176.75 222.12,-176.75 222.12,-156 380.62,-156 380.62,-176.75"/>
<text xml:space="preserve" text-anchor="middle" x="301.38" y="-163.25" font-family="Helvetica,sans-Serif" font-size="10.00">DomainHom3D::scatteringCS</text>
</a>
</g>
</g>
<!-- Node5&#45;&gt;Node8 -->
<g id="edge8_Node000005_Node000008" class="edge">
<title>Node5&#45;&gt;Node8</title>
<g id="a_edge8_Node000005_Node000008"><a xlink:title=" ">
<path fill="none" stroke="#63b8ff" d="M421.3,-179.84C408.69,-178.42 394.78,-176.84 381.07,-175.29"/>
<polygon fill="#63b8ff" stroke="#63b8ff" points="420.64,-183.29 430.97,-180.94 421.43,-176.34 420.64,-183.29"/>
</a>
</g>
</g>
<!-- Node10 -->
<g id="Node000010" class="node">
<title>Node10</title>
<g id="a_Node000010"><a xlink:href="classDomainLayered3D.html#a4e5fb098bcc6edc2f594da23e0b64fb3" target="_top" xlink:title="Absorption cross section.">
<polygon fill="white" stroke="#666666" points="390,-137.75 212.75,-137.75 212.75,-117 390,-117 390,-137.75"/>
<text xml:space="preserve" text-anchor="middle" x="301.38" y="-124.25" font-family="Helvetica,sans-Serif" font-size="10.00">DomainLayered3D::absorptionCS</text>
</a>
</g>
</g>
<!-- Node9&#45;&gt;Node10 -->
<g id="edge10_Node000009_Node000010" class="edge">
<title>Node9&#45;&gt;Node10</title>
<g id="a_edge10_Node000009_Node000010"><a xlink:title=" ">
<path fill="none" stroke="#63b8ff" d="M429.87,-112.17C417.85,-113.61 404.18,-115.24 390.35,-116.89"/>
<polygon fill="#63b8ff" stroke="#63b8ff" points="430.27,-115.65 439.78,-110.99 429.44,-108.7 430.27,-115.65"/>
</a>
</g>
</g>
<!-- Node11 -->
<g id="Node000011" class="node">
<title>Node11</title>
<g id="a_Node000011"><a xlink:href="classDomainLayered3D.html#a847bdddcbf4257a73cfcd2766c882f8b" target="_top" xlink:title="Extinction cross section.">
<polygon fill="white" stroke="#666666" points="388.5,-98.75 214.25,-98.75 214.25,-78 388.5,-78 388.5,-98.75"/>
<text xml:space="preserve" text-anchor="middle" x="301.38" y="-85.25" font-family="Helvetica,sans-Serif" font-size="10.00">DomainLayered3D::extinctionCS</text>
</a>
</g>
</g>
<!-- Node9&#45;&gt;Node11 -->
<g id="edge11_Node000009_Node000011" class="edge">
<title>Node9&#45;&gt;Node11</title>
<g id="a_edge11_Node000009_Node000011"><a xlink:title=" ">
<path fill="none" stroke="#63b8ff" d="M429.95,-102.82C417.49,-101.41 403.25,-99.8 388.9,-98.18"/>
<polygon fill="#63b8ff" stroke="#63b8ff" points="429.45,-106.29 439.78,-103.94 430.24,-99.34 429.45,-106.29"/>
</a>
</g>
</g>
<!-- Node12 -->
<g id="Node000012" class="node">
<title>Node12</title>
<g id="a_Node000012"><a xlink:href="classDomainLayered3D.html#a267135f0a2f5bfff12f7ac3b25429176" target="_top" xlink:title="Scattering cross section.">
<polygon fill="white" stroke="#666666" points="388.5,-59.75 214.25,-59.75 214.25,-39 388.5,-39 388.5,-59.75"/>
<text xml:space="preserve" text-anchor="middle" x="301.38" y="-46.25" font-family="Helvetica,sans-Serif" font-size="10.00">DomainLayered3D::scatteringCS</text>
</a>
</g>
</g>
<!-- Node9&#45;&gt;Node12 -->
<g id="edge12_Node000009_Node000012" class="edge">
<title>Node9&#45;&gt;Node12</title>
<g id="a_edge12_Node000009_Node000012"><a xlink:title=" ">
<path fill="none" stroke="#63b8ff" d="M440.45,-91.39C425.62,-83.9 407.21,-75.34 390,-69.38 379.83,-65.85 368.77,-62.77 358.05,-60.16"/>
<polygon fill="#63b8ff" stroke="#63b8ff" points="438.71,-94.43 449.2,-95.91 441.92,-88.21 438.71,-94.43"/>
</a>
</g>
</g>
<!-- Node14 -->
<g id="Node000014" class="node">
<title>Node14</title>
<g id="a_Node000014"><a xlink:href="classSimJob.html#a201222576f4e7d4dba3372d1f0615765" target="_top" xlink:title="Net time&#45;averaged power crossing the domain&#39;s surface.">
<polygon fill="white" stroke="#666666" points="344.25,-20.75 258.5,-20.75 258.5,0 344.25,0 344.25,-20.75"/>
<text xml:space="preserve" text-anchor="middle" x="301.38" y="-7.25" font-family="Helvetica,sans-Serif" font-size="10.00">SimJob::Power</text>
</a>
</g>
</g>
<!-- Node13&#45;&gt;Node14 -->
<g id="edge14_Node000013_Node000014" class="edge">
<title>Node13&#45;&gt;Node14</title>
<g id="a_edge14_Node000013_Node000014"><a xlink:title=" ">
<path fill="none" stroke="#63b8ff" d="M414.56,-36.14C406.33,-34.19 397.95,-32.22 390,-30.38 375.26,-26.94 359.11,-23.24 344.73,-19.97"/>
<polygon fill="#63b8ff" stroke="#63b8ff" points="413.63,-39.51 424.17,-38.41 415.24,-32.7 413.63,-39.51"/>
</a>
</g>
</g>
<!-- Node14&#45;&gt;Node3 -->
<g id="edge15_Node000014_Node000003" class="edge">
<title>Node14&#45;&gt;Node3</title>
<g id="a_edge15_Node000014_Node000003"><a xlink:title=" ">
<path fill="none" stroke="#63b8ff" d="M247.34,-16.14C235.3,-19.12 223.03,-23.62 212.75,-30.38 171.23,-57.66 142.9,-112.62 132.34,-135.74"/>
<polygon fill="#63b8ff" stroke="#63b8ff" points="247.75,-19.63 256.8,-14.12 246.29,-12.79 247.75,-19.63"/>
</a>
</g>
</g>
</g>
</svg>
