<?xml version="1.0" encoding="UTF-8" standalone="no"?>
<!DOCTYPE svg PUBLIC "-//W3C//DTD SVG 1.1//EN"
 "http://www.w3.org/Graphics/SVG/1.1/DTD/svg11.dtd">
<!-- Generated by graphviz version 13.1.2 (20250809.0930)
 -->
<!-- Title: realVecHom Pages: 1 -->
<svg width="281pt" height="107pt"
 viewBox="0.00 0.00 281.00 107.00" xmlns="http://www.w3.org/2000/svg" xmlns:xlink="http://www.w3.org/1999/xlink">

<svg id="main" version="1.1" xmlns="http://www.w3.org/2000/svg" xmlns:xlink="http://www.w3.org/1999/xlink" xml:space="preserve">

<style type="text/css"><![CDATA[
.node, .edge {opacity: 0.7;}
.node.selected, .edge.selected {opacity: 1;}
.edge:hover path { stroke: red; }
.edge:hover polygon { stroke: red; fill: red; }
]]></style>
<script type="application/ecmascript" xlink:href="svg.min.js"/>
<svg id="graph" class="graph">
<g id="graph0" class="graph" transform="scale(1 1) rotate(0) translate(4 102.75)">
<title>realVecHom</title>
<!-- Node1 -->
<g id="Node000001" class="node">
<title>Node1</title>
<g id="a_Node000001"><a xlink:title="Extract the real part of each component of a complex 3&#45;vector.">
<polygon fill="#999999" stroke="#666666" points="272.75,-59.75 197.5,-59.75 197.5,-39 272.75,-39 272.75,-59.75"/>
<text xml:space="preserve" text-anchor="middle" x="235.12" y="-46.25" font-family="Helvetica,sans-Serif" font-size="10.00">realVecHom</text>
</a>
</g>
</g>
<!-- Node2 -->
<g id="Node000002" class="node">
<title>Node2</title>
<g id="a_Node000002"><a xlink:href="classDomainHom3D.html#ad19635c8b33f69ebf6cb3cd8788f7f23" target="_top" xlink:title="Absorption cross section via surface quadrature.">
<polygon fill="white" stroke="#666666" points="161.5,-98.75 0,-98.75 0,-78 161.5,-78 161.5,-98.75"/>
<text xml:space="preserve" text-anchor="middle" x="80.75" y="-85.25" font-family="Helvetica,sans-Serif" font-size="10.00">DomainHom3D::absorptionCS</text>
</a>
</g>
</g>
<!-- Node1&#45;&gt;Node2 -->
<g id="edge1_Node000001_Node000002" class="edge">
<title>Node1&#45;&gt;Node2</title>
<g id="a_edge1_Node000001_Node000002"><a xlink:title=" ">
<path fill="none" stroke="#63b8ff" d="M186.19,-61.99C177.96,-64.13 169.49,-66.33 161.5,-68.38 149.75,-71.39 137.01,-74.6 125.23,-77.56"/>
<polygon fill="#63b8ff" stroke="#63b8ff" points="186.94,-65.41 195.73,-59.5 185.17,-58.64 186.94,-65.41"/>
</a>
</g>
</g>
<!-- Node3 -->
<g id="Node000003" class="node">
<title>Node3</title>
<g id="a_Node000003"><a xlink:href="classDomainHom3D.html#aa6a76dafe56204c15b80e491e6a2b21d" target="_top" xlink:title="Extinction cross section via surface quadrature.">
<polygon fill="white" stroke="#666666" points="160,-59.75 1.5,-59.75 1.5,-39 160,-39 160,-59.75"/>
<text xml:space="preserve" text-anchor="middle" x="80.75" y="-46.25" font-family="Helvetica,sans-Serif" font-size="10.00">DomainHom3D::extinctionCS</text>
</a>
</g>
</g>
<!-- Node1&#45;&gt;Node3 -->
<g id="edge2_Node000001_Node000003" class="edge">
<title>Node1&#45;&gt;Node3</title>
<g id="a_edge2_Node000001_Node000003"><a xlink:title=" ">
<path fill="none" stroke="#63b8ff" d="M185.78,-49.38C177.68,-49.38 169.1,-49.38 160.47,-49.38"/>
<polygon fill="#63b8ff" stroke="#63b8ff" points="185.73,-52.88 195.73,-49.38 185.73,-45.88 185.73,-52.88"/>
</a>
</g>
</g>
<!-- Node4 -->
<g id="Node000004" class="node">
<title>Node4</title>
<g id="a_Node000004"><a xlink:href="classDomainHom3D.html#af51c0166dbce1642b143f7bf910b7c12" target="_top" xlink:title="Scattering cross section via surface quadrature.">
<polygon fill="white" stroke="#666666" points="160,-20.75 1.5,-20.75 1.5,0 160,0 160,-20.75"/>
<text xml:space="preserve" text-anchor="middle" x="80.75" y="-7.25" font-family="Helvetica,sans-Serif" font-size="10.00">DomainHom3D::scatteringCS</text>
</a>
</g>
</g>
<!-- Node1&#45;&gt;Node4 -->
<g id="edge3_Node000001_Node000004" class="edge">
<title>Node1&#45;&gt;Node4</title>
<g id="a_edge3_Node000001_Node000004"><a xlink:title=" ">
<path fill="none" stroke="#63b8ff" d="M186.19,-36.76C177.96,-34.62 169.49,-32.42 161.5,-30.38 149.75,-27.36 137.01,-24.15 125.23,-21.19"/>
<polygon fill="#63b8ff" stroke="#63b8ff" points="185.17,-40.11 195.73,-39.25 186.94,-33.34 185.17,-40.11"/>
</a>
</g>
</g>
</g>
</svg>
</svg>

<style type='text/css'>
<![CDATA[
[data-mouse-over-selected='false'] { opacity: 0.7; }
[data-mouse-over-selected='true']  { opacity: 1.0; }
]]>
</style>
<script type="application/ecmascript"><![CDATA[
document.addEventListener('DOMContentLoaded', (event) => {
  highlightEdges();
  highlightAdjacentNodes();
});
]]></script>
</svg>
