<?xml version="1.0" encoding="UTF-8" standalone="no"?>
<!DOCTYPE svg PUBLIC "-//W3C//DTD SVG 1.1//EN"
 "http://www.w3.org/Graphics/SVG/1.1/DTD/svg11.dtd">
<!-- Generated by graphviz version 13.1.2 (20250809.0930)
 -->
<!-- Title: Gaussian.cpp Pages: 1 -->
<!--zoomable 540 -->

<svg id="main" version="1.1" xmlns="http://www.w3.org/2000/svg" xmlns:xlink="http://www.w3.org/1999/xlink" xml:space="preserve" onload="init(evt)">

<style type="text/css"><![CDATA[
.node, .edge {opacity: 0.7;}
.node.selected, .edge.selected {opacity: 1;}
.edge:hover path { stroke: red; }
.edge:hover polygon { stroke: red; fill: red; }
]]></style>

<defs>
  <circle id="rim" cx="0" cy="0" r="7"/>
  <circle id="rim2" cx="0" cy="0" r="3.5"/>
  <g id="zoomPlus">
    <use xlink:href="#rim" fill="#404040"><set attributeName="fill" to="#808080" begin="zoomplus.mouseover" end="zoomplus.mouseout"/></use>
    <path d="M-4,0h8M0,-4v8" fill="none" stroke="white" stroke-width="1.5" pointer-events="none"/>
  </g>
  <g id="zoomMin">
    <use xlink:href="#rim" fill="#404040"><set attributeName="fill" to="#808080" begin="zoomminus.mouseover" end="zoomminus.mouseout"/></use>
    <path d="M-4,0h8" fill="none" stroke="white" stroke-width="1.5" pointer-events="none"/>
  </g>
  <g id="arrowUp" transform="translate(30 24)">
    <use xlink:href="#rim"/>
    <path pointer-events="none" fill="none" stroke="white" stroke-width="1.5" d="M0,-3.0v7 M-2.5,-0.5L0,-3.0L2.5,-0.5"/>
  </g>
  <g id="arrowRight" transform="rotate(90) translate(36 -43)">
    <use xlink:href="#rim"/>
    <path pointer-events="none" fill="none" stroke="white" stroke-width="1.5" d="M0,-3.0v7 M-2.5,-0.5L0,-3.0L2.5,-0.5"/>
  </g>
  <g id="arrowDown" transform="rotate(180) translate(-30 -48)">
    <use xlink:href="#rim"/>
    <path pointer-events="none" fill="none" stroke="white" stroke-width="1.5" d="M0,-3.0v7 M-2.5,-0.5L0,-3.0L2.5,-0.5"/>
  </g>
  <g id="arrowLeft" transform="rotate(270) translate(-36 17)">
    <use xlink:href="#rim"/>
    <path pointer-events="none" fill="none" stroke="white" stroke-width="1.5" d="M0,-3.0v7 M-2.5,-0.5L0,-3.0L2.5,-0.5"/>
  </g>
  <g id="resetDef">
    <use xlink:href="#rim2" fill="#404040"><set attributeName="fill" to="#808080" begin="reset.mouseover" end="reset.mouseout"/></use>
  </g>
</defs>
<script type="application/ecmascript">
var viewWidth = 1050;
var viewHeight = 540;
var sectionId = 'dynsection-0';
</script>
<script type="application/ecmascript" xlink:href="svg.min.js"/>
<svg id="graph" class="graph">
<g id="viewport">
<title>Gaussian.cpp</title>
<!-- Node1 -->
<g id="Node000001" class="node">
<title>Node1</title>
<g id="a_Node000001"><a xlink:title="Implementation of the paraxial Gaussian beam incident field.">
<polygon fill="#999999" stroke="#666666" points="1042.12,-531.5 960.88,-531.5 960.88,-510.75 1042.12,-510.75 1042.12,-531.5"/>
<text xml:space="preserve" text-anchor="middle" x="1001.5" y="-518" font-family="Helvetica,sans-Serif" font-size="10.00">Gaussian.cpp</text>
</a>
</g>
</g>
<!-- Node2 -->
<g id="Node000002" class="node">
<title>Node2</title>
<g id="a_Node000002"><a xlink:href="Gaussian_8h.html" target="_top" xlink:title="Incident field: paraxial Gaussian beam in a homogeneous medium.">
<polygon fill="white" stroke="#666666" points="748.5,-474.75 678.5,-474.75 678.5,-454 748.5,-454 748.5,-474.75"/>
<text xml:space="preserve" text-anchor="middle" x="713.5" y="-461.25" font-family="Helvetica,sans-Serif" font-size="10.00">Gaussian.h</text>
</a>
</g>
</g>
<!-- Node1&#45;&gt;Node2 -->
<g id="edge1_Node000001_Node000002" class="edge">
<title>Node1&#45;&gt;Node2</title>
<g id="a_edge1_Node000001_Node000002"><a xlink:title=" ">
<path fill="none" stroke="#63b8ff" d="M960.54,-512.34C907.62,-502.28 815.72,-484.81 760.16,-474.24"/>
<polygon fill="#63b8ff" stroke="#63b8ff" points="760.85,-470.81 750.37,-472.38 759.54,-477.69 760.85,-470.81"/>
</a>
</g>
</g>
<!-- Node3 -->
<g id="Node000003" class="node">
<title>Node3</title>
<g id="a_Node000003"><a xlink:title=" ">
<polygon fill="#e0e0e0" stroke="#999999" points="999.25,-77.5 939.75,-77.5 939.75,-56.75 999.25,-56.75 999.25,-77.5"/>
<text xml:space="preserve" text-anchor="middle" x="969.5" y="-64" font-family="Helvetica,sans-Serif" font-size="10.00">iostream</text>
</a>
</g>
</g>
<!-- Node1&#45;&gt;Node3 -->
<g id="edge58_Node000001_Node000003" class="edge">
<title>Node1&#45;&gt;Node3</title>
<g id="a_edge58_Node000001_Node000003"><a xlink:title=" ">
<path fill="none" stroke="#63b8ff" d="M1007.27,-510.36C1017.9,-491.43 1039.5,-448.1 1039.5,-408.62 1039.5,-408.62 1039.5,-408.62 1039.5,-179.62 1039.5,-141.63 1009.98,-105.96 989.28,-85.62"/>
<polygon fill="#63b8ff" stroke="#63b8ff" points="991.84,-83.22 982.16,-78.92 987.04,-88.32 991.84,-83.22"/>
</a>
</g>
</g>
<!-- Node5 -->
<g id="Node000005" class="node">
<title>Node5</title>
<g id="a_Node000005"><a xlink:title=" ">
<polygon fill="#e0e0e0" stroke="#999999" points="897.88,-247.75 851.12,-247.75 851.12,-227 897.88,-227 897.88,-247.75"/>
<text xml:space="preserve" text-anchor="middle" x="874.5" y="-234.25" font-family="Helvetica,sans-Serif" font-size="10.00">cmath</text>
</a>
</g>
</g>
<!-- Node1&#45;&gt;Node5 -->
<g id="edge57_Node000001_Node000005" class="edge">
<title>Node1&#45;&gt;Node5</title>
<g id="a_edge57_Node000001_Node000005"><a xlink:title=" ">
<path fill="none" stroke="#63b8ff" d="M1001.5,-510.28C1001.5,-490.85 1001.5,-446.18 1001.5,-408.62 1001.5,-408.62 1001.5,-408.62 1001.5,-349.88 1001.5,-300.34 946.26,-267.64 908.64,-251.12"/>
<polygon fill="#63b8ff" stroke="#63b8ff" points="910.06,-247.92 899.49,-247.29 907.36,-254.38 910.06,-247.92"/>
</a>
</g>
</g>
<!-- Node2&#45;&gt;Node3 -->
<g id="edge2_Node000002_Node000003" class="edge">
<title>Node2&#45;&gt;Node3</title>
<g id="a_edge2_Node000002_Node000003"><a xlink:title=" ">
<path fill="none" stroke="#63b8ff" d="M748.79,-463.2C817.7,-460.82 963.5,-444.78 963.5,-351.88 963.5,-351.88 963.5,-351.88 963.5,-179.62 963.5,-148.19 965.91,-111.83 967.67,-89.41"/>
<polygon fill="#63b8ff" stroke="#63b8ff" points="971.16,-89.72 968.49,-79.47 964.18,-89.15 971.16,-89.72"/>
</a>
</g>
</g>
<!-- Node4 -->
<g id="Node000004" class="node">
<title>Node4</title>
<g id="a_Node000004"><a xlink:href="GaussQuad_8h.html" target="_top" xlink:title="Gaussian quadrature helpers for Green&#39;s functions and incident fields.">
<polygon fill="white" stroke="#666666" points="753.75,-304.5 673.25,-304.5 673.25,-283.75 753.75,-283.75 753.75,-304.5"/>
<text xml:space="preserve" text-anchor="middle" x="713.5" y="-291" font-family="Helvetica,sans-Serif" font-size="10.00">GaussQuad.h</text>
</a>
</g>
</g>
<!-- Node2&#45;&gt;Node4 -->
<g id="edge3_Node000002_Node000004" class="edge">
<title>Node2&#45;&gt;Node4</title>
<g id="a_edge3_Node000002_Node000004"><a xlink:title=" ">
<path fill="none" stroke="#63b8ff" d="M713.5,-453.85C713.5,-427.48 713.5,-353.08 713.5,-316.28"/>
<polygon fill="#63b8ff" stroke="#63b8ff" points="717,-316.48 713.5,-306.48 710,-316.48 717,-316.48"/>
</a>
</g>
</g>
<!-- Node15 -->
<g id="Node000015" class="node">
<title>Node15</title>
<g id="a_Node000015"><a xlink:href="globals_8h.html" target="_top" xlink:title="Global numerical constants, fundamental types, and simple macros.">
<polygon fill="white" stroke="#666666" points="312.62,-77.5 252.38,-77.5 252.38,-56.75 312.62,-56.75 312.62,-77.5"/>
<text xml:space="preserve" text-anchor="middle" x="282.5" y="-64" font-family="Helvetica,sans-Serif" font-size="10.00">globals.h</text>
</a>
</g>
</g>
<!-- Node2&#45;&gt;Node15 -->
<g id="edge56_Node000002_Node000015" class="edge">
<title>Node2&#45;&gt;Node15</title>
<g id="a_edge56_Node000002_Node000015"><a xlink:title=" ">
<path fill="none" stroke="#63b8ff" d="M678.18,-460.94C565.45,-452.61 216.3,-422.34 123.5,-361.25 31.2,-300.49 17.56,-184.19 102.5,-113.5 105.22,-111.24 188.91,-90.73 241.21,-78.07"/>
<polygon fill="#63b8ff" stroke="#63b8ff" points="241.8,-81.53 250.69,-75.77 240.15,-74.72 241.8,-81.53"/>
</a>
</g>
</g>
<!-- Node23 -->
<g id="Node000023" class="node">
<title>Node23</title>
<g id="a_Node000023"><a xlink:href="IncidentField_8h.html" target="_top" xlink:title="Abstract interface for incident electromagnetic excitations.">
<polygon fill="white" stroke="#666666" points="568.12,-418 480.88,-418 480.88,-397.25 568.12,-397.25 568.12,-418"/>
<text xml:space="preserve" text-anchor="middle" x="524.5" y="-404.5" font-family="Helvetica,sans-Serif" font-size="10.00">IncidentField.h</text>
</a>
</g>
</g>
<!-- Node2&#45;&gt;Node23 -->
<g id="edge33_Node000002_Node000023" class="edge">
<title>Node2&#45;&gt;Node23</title>
<g id="a_edge33_Node000002_Node000023"><a xlink:title=" ">
<path fill="none" stroke="#63b8ff" d="M679.71,-453.59C648.9,-444.66 603.15,-431.41 569.3,-421.6"/>
<polygon fill="#63b8ff" stroke="#63b8ff" points="570.35,-418.26 559.77,-418.84 568.4,-424.99 570.35,-418.26"/>
</a>
</g>
</g>
<!-- Node4&#45;&gt;Node3 -->
<g id="edge5_Node000004_Node000003" class="edge">
<title>Node4&#45;&gt;Node3</title>
<g id="a_edge5_Node000004_Node000003"><a xlink:title=" ">
<path fill="none" stroke="#63b8ff" d="M739.25,-283.28C758.3,-275.31 784.33,-262.93 804.5,-247.75 869.47,-198.85 929.82,-122.23 955.92,-87"/>
<polygon fill="#63b8ff" stroke="#63b8ff" points="958.64,-89.2 961.72,-79.07 952.99,-85.07 958.64,-89.2"/>
</a>
</g>
</g>
<!-- Node4&#45;&gt;Node5 -->
<g id="edge4_Node000004_Node000005" class="edge">
<title>Node4&#45;&gt;Node5</title>
<g id="a_edge4_Node000004_Node000005"><a xlink:title=" ">
<path fill="none" stroke="#63b8ff" d="M742.28,-283.34C769.59,-274.05 810.67,-260.08 839.78,-250.18"/>
<polygon fill="#63b8ff" stroke="#63b8ff" points="840.91,-253.5 849.25,-246.96 838.65,-246.87 840.91,-253.5"/>
</a>
</g>
</g>
<!-- Node6 -->
<g id="Node000006" class="node">
<title>Node6</title>
<g id="a_Node000006"><a xlink:href="RWGFun_8h.html" target="_top" xlink:title="Header for the RWGFun class.">
<polygon fill="white" stroke="#666666" points="511.62,-247.75 445.38,-247.75 445.38,-227 511.62,-227 511.62,-247.75"/>
<text xml:space="preserve" text-anchor="middle" x="478.5" y="-234.25" font-family="Helvetica,sans-Serif" font-size="10.00">RWGFun.h</text>
</a>
</g>
</g>
<!-- Node4&#45;&gt;Node6 -->
<g id="edge6_Node000004_Node000006" class="edge">
<title>Node4&#45;&gt;Node6</title>
<g id="a_edge6_Node000004_Node000006"><a xlink:title=" ">
<path fill="none" stroke="#63b8ff" d="M672.83,-283.65C630.99,-273.9 565.99,-258.76 522.85,-248.71"/>
<polygon fill="#63b8ff" stroke="#63b8ff" points="523.84,-245.35 513.31,-246.49 522.26,-252.16 523.84,-245.35"/>
</a>
</g>
</g>
<!-- Node4&#45;&gt;Node15 -->
<g id="edge31_Node000004_Node000015" class="edge">
<title>Node4&#45;&gt;Node15</title>
<g id="a_edge31_Node000004_Node000015"><a xlink:title=" ">
<path fill="none" stroke="#63b8ff" d="M712.12,-283.41C710.89,-274.24 709.18,-260.09 708.5,-247.75 707.99,-238.54 707.24,-236.14 708.5,-227 714.33,-184.59 728.67,-176.66 734.5,-134.25 735.76,-125.11 740.69,-120.34 734.5,-113.5 720.8,-98.35 433.18,-78 324.02,-70.79"/>
<polygon fill="#63b8ff" stroke="#63b8ff" points="324.54,-67.32 314.33,-70.16 324.08,-74.3 324.54,-67.32"/>
</a>
</g>
</g>
<!-- Node22 -->
<g id="Node000022" class="node">
<title>Node22</title>
<g id="a_Node000022"><a xlink:href="quadrature_8h.html" target="_top" xlink:title="Declarations of Dunavant (triangle) and Gauss–Legendre (1D) quadrature rules.">
<polygon fill="white" stroke="#666666" points="795.62,-247.75 717.38,-247.75 717.38,-227 795.62,-227 795.62,-247.75"/>
<text xml:space="preserve" text-anchor="middle" x="756.5" y="-234.25" font-family="Helvetica,sans-Serif" font-size="10.00">quadrature.h</text>
</a>
</g>
</g>
<!-- Node4&#45;&gt;Node22 -->
<g id="edge32_Node000004_Node000022" class="edge">
<title>Node4&#45;&gt;Node22</title>
<g id="a_edge32_Node000004_Node000022"><a xlink:title=" ">
<path fill="none" stroke="#63b8ff" d="M721.19,-283.34C726.94,-276.02 734.97,-265.79 741.92,-256.94"/>
<polygon fill="#63b8ff" stroke="#63b8ff" points="744.52,-259.3 747.94,-249.27 739.01,-254.97 744.52,-259.3"/>
</a>
</g>
</g>
<!-- Node7 -->
<g id="Node000007" class="node">
<title>Node7</title>
<g id="a_Node000007"><a xlink:href="SurfaceMesh_8h.html" target="_top" xlink:title="Declaration of the SurfaceMesh class and mesh edge struct.">
<polygon fill="white" stroke="#666666" points="571.5,-191 483.5,-191 483.5,-170.25 571.5,-170.25 571.5,-191"/>
<text xml:space="preserve" text-anchor="middle" x="527.5" y="-177.5" font-family="Helvetica,sans-Serif" font-size="10.00">SurfaceMesh.h</text>
</a>
</g>
</g>
<!-- Node6&#45;&gt;Node7 -->
<g id="edge7_Node000006_Node000007" class="edge">
<title>Node6&#45;&gt;Node7</title>
<g id="a_edge7_Node000006_Node000007"><a xlink:title=" ">
<path fill="none" stroke="#63b8ff" d="M487.26,-226.59C493.95,-219.11 503.35,-208.61 511.39,-199.63"/>
<polygon fill="#63b8ff" stroke="#63b8ff" points="513.75,-202.24 517.81,-192.46 508.53,-197.57 513.75,-202.24"/>
</a>
</g>
</g>
<!-- Node14 -->
<g id="Node000014" class="node">
<title>Node14</title>
<g id="a_Node000014"><a xlink:href="Triangle_8h.html" target="_top" xlink:title="Declaration of the Triangle class (surface element with cached geometry).">
<polygon fill="white" stroke="#666666" points="450.12,-134.25 386.88,-134.25 386.88,-113.5 450.12,-113.5 450.12,-134.25"/>
<text xml:space="preserve" text-anchor="middle" x="418.5" y="-120.75" font-family="Helvetica,sans-Serif" font-size="10.00">Triangle.h</text>
</a>
</g>
</g>
<!-- Node6&#45;&gt;Node14 -->
<g id="edge29_Node000006_Node000014" class="edge">
<title>Node6&#45;&gt;Node14</title>
<g id="a_edge29_Node000006_Node000014"><a xlink:title=" ">
<path fill="none" stroke="#63b8ff" d="M473.38,-226.87C463.6,-208.69 442.07,-168.67 429.07,-144.52"/>
<polygon fill="#63b8ff" stroke="#63b8ff" points="432.31,-143.16 424.49,-136.01 426.15,-146.47 432.31,-143.16"/>
</a>
</g>
</g>
<!-- Node6&#45;&gt;Node15 -->
<g id="edge30_Node000006_Node000015" class="edge">
<title>Node6&#45;&gt;Node15</title>
<g id="a_edge30_Node000006_Node000015"><a xlink:title=" ">
<path fill="none" stroke="#63b8ff" d="M467.12,-226.6C434.98,-199.01 343.25,-120.27 302.47,-85.27"/>
<polygon fill="#63b8ff" stroke="#63b8ff" points="304.93,-82.77 295.06,-78.91 300.37,-88.08 304.93,-82.77"/>
</a>
</g>
</g>
<!-- Node8 -->
<g id="Node000008" class="node">
<title>Node8</title>
<g id="a_Node000008"><a xlink:title=" ">
<polygon fill="#e0e0e0" stroke="#999999" points="499,-134.25 468,-134.25 468,-113.5 499,-113.5 499,-134.25"/>
<text xml:space="preserve" text-anchor="middle" x="483.5" y="-120.75" font-family="Helvetica,sans-Serif" font-size="10.00">set</text>
</a>
</g>
</g>
<!-- Node7&#45;&gt;Node8 -->
<g id="edge8_Node000007_Node000008" class="edge">
<title>Node7&#45;&gt;Node8</title>
<g id="a_edge8_Node000007_Node000008"><a xlink:title=" ">
<path fill="none" stroke="#63b8ff" d="M519.63,-169.84C513.75,-162.52 505.53,-152.29 498.42,-143.44"/>
<polygon fill="#63b8ff" stroke="#63b8ff" points="501.24,-141.36 492.25,-135.76 495.78,-145.75 501.24,-141.36"/>
</a>
</g>
</g>
<!-- Node9 -->
<g id="Node000009" class="node">
<title>Node9</title>
<g id="a_Node000009"><a xlink:title=" ">
<polygon fill="#e0e0e0" stroke="#999999" points="725.75,-134.25 681.25,-134.25 681.25,-113.5 725.75,-113.5 725.75,-134.25"/>
<text xml:space="preserve" text-anchor="middle" x="703.5" y="-120.75" font-family="Helvetica,sans-Serif" font-size="10.00">utility</text>
</a>
</g>
</g>
<!-- Node7&#45;&gt;Node9 -->
<g id="edge9_Node000007_Node000009" class="edge">
<title>Node7&#45;&gt;Node9</title>
<g id="a_edge9_Node000007_Node000009"><a xlink:title=" ">
<path fill="none" stroke="#63b8ff" d="M558.97,-169.84C590.36,-160.07 638.41,-145.12 670.38,-135.18"/>
<polygon fill="#63b8ff" stroke="#63b8ff" points="671.01,-138.65 679.52,-132.33 668.93,-131.96 671.01,-138.65"/>
</a>
</g>
</g>
<!-- Node10 -->
<g id="Node000010" class="node">
<title>Node10</title>
<g id="a_Node000010"><a xlink:title=" ">
<polygon fill="#e0e0e0" stroke="#999999" points="507.88,-77.5 461.12,-77.5 461.12,-56.75 507.88,-56.75 507.88,-77.5"/>
<text xml:space="preserve" text-anchor="middle" x="484.5" y="-64" font-family="Helvetica,sans-Serif" font-size="10.00">vector</text>
</a>
</g>
</g>
<!-- Node7&#45;&gt;Node10 -->
<g id="edge10_Node000007_Node000010" class="edge">
<title>Node7&#45;&gt;Node10</title>
<g id="a_edge10_Node000007_Node000010"><a xlink:title=" ">
<path fill="none" stroke="#63b8ff" d="M533.13,-170.19C540.26,-156.93 550.57,-132.31 541.5,-113.5 535.65,-101.37 524.82,-91.49 514.15,-84.08"/>
<polygon fill="#63b8ff" stroke="#63b8ff" points="516.14,-81.2 505.83,-78.78 512.39,-87.1 516.14,-81.2"/>
</a>
</g>
</g>
<!-- Node11 -->
<g id="Node000011" class="node">
<title>Node11</title>
<g id="a_Node000011"><a xlink:href="JobParser_8h.html" target="_top" xlink:title="Lightweight XML&#45;like tag parser for the solver job file.">
<polygon fill="white" stroke="#666666" points="663.12,-134.25 593.88,-134.25 593.88,-113.5 663.12,-113.5 663.12,-134.25"/>
<text xml:space="preserve" text-anchor="middle" x="628.5" y="-120.75" font-family="Helvetica,sans-Serif" font-size="10.00">JobParser.h</text>
</a>
</g>
</g>
<!-- Node7&#45;&gt;Node11 -->
<g id="edge11_Node000007_Node000011" class="edge">
<title>Node7&#45;&gt;Node11</title>
<g id="a_edge11_Node000007_Node000011"><a xlink:title=" ">
<path fill="none" stroke="#63b8ff" d="M545.56,-169.84C560.92,-161.51 583.24,-149.41 600.86,-139.86"/>
<polygon fill="#63b8ff" stroke="#63b8ff" points="602.15,-143.14 609.27,-135.3 598.81,-136.99 602.15,-143.14"/>
</a>
</g>
</g>
<!-- Node7&#45;&gt;Node14 -->
<g id="edge16_Node000007_Node000014" class="edge">
<title>Node7&#45;&gt;Node14</title>
<g id="a_edge16_Node000007_Node000014"><a xlink:title=" ">
<path fill="none" stroke="#63b8ff" d="M508.01,-169.84C491.35,-161.47 467.12,-149.29 448.06,-139.72"/>
<polygon fill="#63b8ff" stroke="#63b8ff" points="449.68,-136.62 439.17,-135.26 446.54,-142.87 449.68,-136.62"/>
</a>
</g>
</g>
<!-- Node7&#45;&gt;Node15 -->
<g id="edge23_Node000007_Node000015" class="edge">
<title>Node7&#45;&gt;Node15</title>
<g id="a_edge23_Node000007_Node000015"><a xlink:title=" ">
<path fill="none" stroke="#63b8ff" d="M527.5,-169.93C526.94,-155.41 523.65,-128.19 507.5,-113.5 481.09,-89.48 381.45,-76.86 324.01,-71.44"/>
<polygon fill="#63b8ff" stroke="#63b8ff" points="324.56,-67.98 314.28,-70.56 323.93,-74.95 324.56,-67.98"/>
</a>
</g>
</g>
<!-- Node20 -->
<g id="Node000020" class="node">
<title>Node20</title>
<g id="a_Node000020"><a xlink:href="mathFunctions_8h.html" target="_top" xlink:title="Header file of the class that provides auxiliary mathematical functionalities for the SIE solver.">
<polygon fill="white" stroke="#666666" points="254,-134.25 157,-134.25 157,-113.5 254,-113.5 254,-134.25"/>
<text xml:space="preserve" text-anchor="middle" x="205.5" y="-120.75" font-family="Helvetica,sans-Serif" font-size="10.00">mathFunctions.h</text>
</a>
</g>
</g>
<!-- Node7&#45;&gt;Node20 -->
<g id="edge24_Node000007_Node000020" class="edge">
<title>Node7&#45;&gt;Node20</title>
<g id="a_edge24_Node000007_Node000020"><a xlink:title=" ">
<path fill="none" stroke="#63b8ff" d="M483.07,-172.07C426.51,-162.45 328.59,-145.8 265.46,-135.07"/>
<polygon fill="#63b8ff" stroke="#63b8ff" points="266.42,-131.68 255.97,-133.46 265.24,-138.58 266.42,-131.68"/>
</a>
</g>
</g>
<!-- Node11&#45;&gt;Node3 -->
<g id="edge13_Node000011_Node000003" class="edge">
<title>Node11&#45;&gt;Node3</title>
<g id="a_edge13_Node000011_Node000003"><a xlink:title=" ">
<path fill="none" stroke="#63b8ff" d="M663.52,-115.18C666.55,-114.58 669.58,-114.01 672.5,-113.5 782.96,-94.05 814.78,-98.73 928.1,-77.79"/>
<polygon fill="#63b8ff" stroke="#63b8ff" points="928.66,-81.25 937.84,-75.96 927.37,-74.37 928.66,-81.25"/>
</a>
</g>
</g>
<!-- Node11&#45;&gt;Node10 -->
<g id="edge15_Node000011_Node000010" class="edge">
<title>Node11&#45;&gt;Node10</title>
<g id="a_edge15_Node000011_Node000010"><a xlink:title=" ">
<path fill="none" stroke="#63b8ff" d="M602.76,-113.09C579.25,-104.15 544.35,-90.88 518.55,-81.07"/>
<polygon fill="#63b8ff" stroke="#63b8ff" points="520.12,-77.92 509.53,-77.64 517.63,-84.47 520.12,-77.92"/>
</a>
</g>
</g>
<!-- Node12 -->
<g id="Node000012" class="node">
<title>Node12</title>
<g id="a_Node000012"><a xlink:title=" ">
<polygon fill="#e0e0e0" stroke="#999999" points="701.62,-77.5 647.38,-77.5 647.38,-56.75 701.62,-56.75 701.62,-77.5"/>
<text xml:space="preserve" text-anchor="middle" x="674.5" y="-64" font-family="Helvetica,sans-Serif" font-size="10.00">fstream</text>
</a>
</g>
</g>
<!-- Node11&#45;&gt;Node12 -->
<g id="edge12_Node000011_Node000012" class="edge">
<title>Node11&#45;&gt;Node12</title>
<g id="a_edge12_Node000011_Node000012"><a xlink:title=" ">
<path fill="none" stroke="#63b8ff" d="M636.72,-113.09C642.94,-105.69 651.65,-95.32 659.14,-86.41"/>
<polygon fill="#63b8ff" stroke="#63b8ff" points="661.62,-88.9 665.37,-78.99 656.26,-84.39 661.62,-88.9"/>
</a>
</g>
</g>
<!-- Node13 -->
<g id="Node000013" class="node">
<title>Node13</title>
<g id="a_Node000013"><a xlink:title=" ">
<polygon fill="#e0e0e0" stroke="#999999" points="629.38,-77.5 585.62,-77.5 585.62,-56.75 629.38,-56.75 629.38,-77.5"/>
<text xml:space="preserve" text-anchor="middle" x="607.5" y="-64" font-family="Helvetica,sans-Serif" font-size="10.00">string</text>
</a>
</g>
</g>
<!-- Node11&#45;&gt;Node13 -->
<g id="edge14_Node000011_Node000013" class="edge">
<title>Node11&#45;&gt;Node13</title>
<g id="a_edge14_Node000011_Node000013"><a xlink:title=" ">
<path fill="none" stroke="#63b8ff" d="M624.75,-113.09C622.12,-106.24 618.51,-96.84 615.28,-88.4"/>
<polygon fill="#63b8ff" stroke="#63b8ff" points="618.61,-87.32 611.76,-79.24 612.08,-89.83 618.61,-87.32"/>
</a>
</g>
</g>
<!-- Node14&#45;&gt;Node10 -->
<g id="edge17_Node000014_Node000010" class="edge">
<title>Node14&#45;&gt;Node10</title>
<g id="a_edge17_Node000014_Node000010"><a xlink:title=" ">
<path fill="none" stroke="#63b8ff" d="M430.3,-113.09C439.68,-105.3 453.04,-94.22 464.14,-85.01"/>
<polygon fill="#63b8ff" stroke="#63b8ff" points="466.18,-87.87 471.64,-78.79 461.71,-82.49 466.18,-87.87"/>
</a>
</g>
</g>
<!-- Node14&#45;&gt;Node15 -->
<g id="edge18_Node000014_Node000015" class="edge">
<title>Node14&#45;&gt;Node15</title>
<g id="a_edge18_Node000014_Node000015"><a xlink:title=" ">
<path fill="none" stroke="#63b8ff" d="M394.19,-113.09C372.72,-104.44 341.18,-91.75 317.09,-82.05"/>
<polygon fill="#63b8ff" stroke="#63b8ff" points="318.59,-78.88 308.01,-78.39 315.98,-85.38 318.59,-78.88"/>
</a>
</g>
</g>
<!-- Node16 -->
<g id="Node000016" class="node">
<title>Node16</title>
<g id="a_Node000016"><a xlink:title=" ">
<polygon fill="#e0e0e0" stroke="#999999" points="73,-20.75 0,-20.75 0,0 73,0 73,-20.75"/>
<text xml:space="preserve" text-anchor="middle" x="36.5" y="-7.25" font-family="Helvetica,sans-Serif" font-size="10.00">blitz/array.h</text>
</a>
</g>
</g>
<!-- Node15&#45;&gt;Node16 -->
<g id="edge19_Node000015_Node000016" class="edge">
<title>Node15&#45;&gt;Node16</title>
<g id="a_edge19_Node000015_Node000016"><a xlink:title=" ">
<path fill="none" stroke="#63b8ff" d="M252.28,-58.8C249.32,-58.1 246.35,-57.4 243.5,-56.75 188.98,-44.22 126.19,-30.57 84.2,-21.55"/>
<polygon fill="#63b8ff" stroke="#63b8ff" points="85.19,-18.18 74.67,-19.5 83.72,-25.02 85.19,-18.18"/>
</a>
</g>
</g>
<!-- Node17 -->
<g id="Node000017" class="node">
<title>Node17</title>
<g id="a_Node000017"><a xlink:title=" ">
<polygon fill="#e0e0e0" stroke="#999999" points="320,-20.75 229,-20.75 229,0 320,0 320,-20.75"/>
<text xml:space="preserve" text-anchor="middle" x="274.5" y="-7.25" font-family="Helvetica,sans-Serif" font-size="10.00">blitz/tinyvec2.h</text>
</a>
</g>
</g>
<!-- Node15&#45;&gt;Node17 -->
<g id="edge20_Node000015_Node000017" class="edge">
<title>Node15&#45;&gt;Node17</title>
<g id="a_edge20_Node000015_Node000017"><a xlink:title=" ">
<path fill="none" stroke="#63b8ff" d="M281.07,-56.34C280.09,-49.64 278.76,-40.51 277.55,-32.23"/>
<polygon fill="#63b8ff" stroke="#63b8ff" points="281.05,-31.96 276.14,-22.58 274.12,-32.98 281.05,-31.96"/>
</a>
</g>
</g>
<!-- Node18 -->
<g id="Node000018" class="node">
<title>Node18</title>
<g id="a_Node000018"><a xlink:title=" ">
<polygon fill="#e0e0e0" stroke="#999999" points="434.62,-20.75 338.38,-20.75 338.38,0 434.62,0 434.62,-20.75"/>
<text xml:space="preserve" text-anchor="middle" x="386.5" y="-7.25" font-family="Helvetica,sans-Serif" font-size="10.00">blitz/tvecglobs.h</text>
</a>
</g>
</g>
<!-- Node15&#45;&gt;Node18 -->
<g id="edge21_Node000015_Node000018" class="edge">
<title>Node15&#45;&gt;Node18</title>
<g id="a_edge21_Node000015_Node000018"><a xlink:title=" ">
<path fill="none" stroke="#63b8ff" d="M301.09,-56.34C316.92,-48.01 339.9,-35.91 358.04,-26.36"/>
<polygon fill="#63b8ff" stroke="#63b8ff" points="359.51,-29.54 366.73,-21.78 356.25,-23.34 359.51,-29.54"/>
</a>
</g>
</g>
<!-- Node19 -->
<g id="Node000019" class="node">
<title>Node19</title>
<g id="a_Node000019"><a xlink:title=" ">
<polygon fill="#e0e0e0" stroke="#999999" points="194.5,-20.75 136.5,-20.75 136.5,0 194.5,0 194.5,-20.75"/>
<text xml:space="preserve" text-anchor="middle" x="165.5" y="-7.25" font-family="Helvetica,sans-Serif" font-size="10.00">complex</text>
</a>
</g>
</g>
<!-- Node15&#45;&gt;Node19 -->
<g id="edge22_Node000015_Node000019" class="edge">
<title>Node15&#45;&gt;Node19</title>
<g id="a_edge22_Node000015_Node000019"><a xlink:title=" ">
<path fill="none" stroke="#63b8ff" d="M261.58,-56.34C243.53,-47.89 217.2,-35.57 196.66,-25.96"/>
<polygon fill="#63b8ff" stroke="#63b8ff" points="198.15,-22.79 187.61,-21.72 195.18,-29.13 198.15,-22.79"/>
</a>
</g>
</g>
<!-- Node20&#45;&gt;Node10 -->
<g id="edge27_Node000020_Node000010" class="edge">
<title>Node20&#45;&gt;Node10</title>
<g id="a_edge27_Node000020_Node000010"><a xlink:title=" ">
<path fill="none" stroke="#63b8ff" d="M254.42,-113.28C310.41,-102.29 400.7,-84.57 449.87,-74.92"/>
<polygon fill="#63b8ff" stroke="#63b8ff" points="450.25,-78.41 459.38,-73.05 448.9,-71.54 450.25,-78.41"/>
</a>
</g>
</g>
<!-- Node20&#45;&gt;Node15 -->
<g id="edge28_Node000020_Node000015" class="edge">
<title>Node20&#45;&gt;Node15</title>
<g id="a_edge28_Node000020_Node000015"><a xlink:title=" ">
<path fill="none" stroke="#63b8ff" d="M219.27,-113.09C230.43,-105.15 246.42,-93.78 259.52,-84.46"/>
<polygon fill="#63b8ff" stroke="#63b8ff" points="261.5,-87.35 267.62,-78.71 257.44,-81.65 261.5,-87.35"/>
</a>
</g>
</g>
<!-- Node20&#45;&gt;Node19 -->
<g id="edge26_Node000020_Node000019" class="edge">
<title>Node20&#45;&gt;Node19</title>
<g id="a_edge26_Node000020_Node000019"><a xlink:title=" ">
<path fill="none" stroke="#63b8ff" d="M197.22,-113.13C190.26,-104.38 180.65,-90.9 175.5,-77.5 169.94,-63.05 167.46,-45.7 166.36,-32.41"/>
<polygon fill="#63b8ff" stroke="#63b8ff" points="169.87,-32.4 165.76,-22.63 162.88,-32.83 169.87,-32.4"/>
</a>
</g>
</g>
<!-- Node21 -->
<g id="Node000021" class="node">
<title>Node21</title>
<g id="a_Node000021"><a xlink:title=" ">
<polygon fill="#e0e0e0" stroke="#999999" points="234.75,-77.5 184.25,-77.5 184.25,-56.75 234.75,-56.75 234.75,-77.5"/>
<text xml:space="preserve" text-anchor="middle" x="209.5" y="-64" font-family="Helvetica,sans-Serif" font-size="10.00">math.h</text>
</a>
</g>
</g>
<!-- Node20&#45;&gt;Node21 -->
<g id="edge25_Node000020_Node000021" class="edge">
<title>Node20&#45;&gt;Node21</title>
<g id="a_edge25_Node000020_Node000021"><a xlink:title=" ">
<path fill="none" stroke="#63b8ff" d="M206.22,-113.09C206.7,-106.47 207.36,-97.47 207.96,-89.27"/>
<polygon fill="#63b8ff" stroke="#63b8ff" points="211.44,-89.57 208.68,-79.34 204.46,-89.06 211.44,-89.57"/>
</a>
</g>
</g>
<!-- Node23&#45;&gt;Node6 -->
<g id="edge34_Node000023_Node000006" class="edge">
<title>Node23&#45;&gt;Node6</title>
<g id="a_edge34_Node000023_Node000006"><a xlink:title=" ">
<path fill="none" stroke="#63b8ff" d="M521.9,-397.1C514.65,-370.62 494.17,-295.68 484.15,-259.05"/>
<polygon fill="#63b8ff" stroke="#63b8ff" points="487.6,-258.4 481.59,-249.68 480.85,-260.25 487.6,-258.4"/>
</a>
</g>
</g>
<!-- Node23&#45;&gt;Node15 -->
<g id="edge35_Node000023_Node000015" class="edge">
<title>Node23&#45;&gt;Node15</title>
<g id="a_edge35_Node000023_Node000015"><a xlink:title=" ">
<path fill="none" stroke="#63b8ff" d="M480.5,-404.65C370.16,-398.51 90.5,-375.06 90.5,-295.12 90.5,-295.12 90.5,-295.12 90.5,-179.62 90.5,-145.51 102.61,-134.5 129.5,-113.5 138.45,-106.51 198.7,-89.86 240.87,-78.79"/>
<polygon fill="#63b8ff" stroke="#63b8ff" points="241.7,-82.19 250.49,-76.28 239.93,-75.42 241.7,-82.19"/>
</a>
</g>
</g>
<!-- Node24 -->
<g id="Node000024" class="node">
<title>Node24</title>
<g id="a_Node000024"><a xlink:href="LayeredMediaUtils_8h.html" target="_top" xlink:title="This header declares utility structures and algorithms used throughout the layered&#45;media scattering s...">
<polygon fill="white" stroke="#666666" points="897.75,-134.25 781.25,-134.25 781.25,-113.5 897.75,-113.5 897.75,-134.25"/>
<text xml:space="preserve" text-anchor="middle" x="839.5" y="-120.75" font-family="Helvetica,sans-Serif" font-size="10.00">LayeredMediaUtils.h</text>
</a>
</g>
</g>
<!-- Node23&#45;&gt;Node24 -->
<g id="edge36_Node000023_Node000024" class="edge">
<title>Node23&#45;&gt;Node24</title>
<g id="a_edge36_Node000023_Node000024"><a xlink:title=" ">
<path fill="none" stroke="#63b8ff" d="M568.47,-404.12C652.58,-396.61 834.31,-366.73 906.5,-247.75 928.92,-210.8 887.83,-165.87 860.67,-141.89"/>
<polygon fill="#63b8ff" stroke="#63b8ff" points="863.14,-139.4 853.26,-135.59 858.6,-144.73 863.14,-139.4"/>
</a>
</g>
</g>
<!-- Node28 -->
<g id="Node000028" class="node">
<title>Node28</title>
<g id="a_Node000028"><a xlink:href="GreenF_8h.html" target="_top" xlink:title="Abstract base class for electromagnetic Green&#39;s functions.">
<polygon fill="white" stroke="#666666" points="496.88,-361.25 438.12,-361.25 438.12,-340.5 496.88,-340.5 496.88,-361.25"/>
<text xml:space="preserve" text-anchor="middle" x="467.5" y="-347.75" font-family="Helvetica,sans-Serif" font-size="10.00">GreenF.h</text>
</a>
</g>
</g>
<!-- Node23&#45;&gt;Node28 -->
<g id="edge43_Node000023_Node000028" class="edge">
<title>Node23&#45;&gt;Node28</title>
<g id="a_edge43_Node000023_Node000028"><a xlink:title=" ">
<path fill="none" stroke="#63b8ff" d="M514.31,-396.84C506.37,-389.21 495.13,-378.42 485.66,-369.32"/>
<polygon fill="#63b8ff" stroke="#63b8ff" points="488.33,-367.03 478.69,-362.63 483.48,-372.08 488.33,-367.03"/>
</a>
</g>
</g>
<!-- Node24&#45;&gt;Node10 -->
<g id="edge40_Node000024_Node000010" class="edge">
<title>Node24&#45;&gt;Node10</title>
<g id="a_edge40_Node000024_Node000010"><a xlink:title=" ">
<path fill="none" stroke="#63b8ff" d="M780.88,-113.83C706.48,-102.36 580.49,-82.93 519.57,-73.53"/>
<polygon fill="#63b8ff" stroke="#63b8ff" points="520.2,-70.09 509.78,-72.02 519.13,-77.01 520.2,-70.09"/>
</a>
</g>
</g>
<!-- Node24&#45;&gt;Node12 -->
<g id="edge42_Node000024_Node000012" class="edge">
<title>Node24&#45;&gt;Node12</title>
<g id="a_edge42_Node000024_Node000012"><a xlink:title=" ">
<path fill="none" stroke="#63b8ff" d="M810,-113.09C782.88,-104.09 742.5,-90.69 712.87,-80.86"/>
<polygon fill="#63b8ff" stroke="#63b8ff" points="714.13,-77.59 703.53,-77.76 711.92,-84.23 714.13,-77.59"/>
</a>
</g>
</g>
<!-- Node24&#45;&gt;Node15 -->
<g id="edge41_Node000024_Node000015" class="edge">
<title>Node24&#45;&gt;Node15</title>
<g id="a_edge41_Node000024_Node000015"><a xlink:title=" ">
<path fill="none" stroke="#63b8ff" d="M780.97,-115.07C776.42,-114.52 771.88,-113.99 767.5,-113.5 603.72,-95.18 408.24,-78.46 324.23,-71.52"/>
<polygon fill="#63b8ff" stroke="#63b8ff" points="324.66,-68.04 314.41,-70.71 324.09,-75.02 324.66,-68.04"/>
</a>
</g>
</g>
<!-- Node25 -->
<g id="Node000025" class="node">
<title>Node25</title>
<g id="a_Node000025"><a xlink:title=" ">
<polygon fill="#e0e0e0" stroke="#999999" points="921.38,-77.5 883.62,-77.5 883.62,-56.75 921.38,-56.75 921.38,-77.5"/>
<text xml:space="preserve" text-anchor="middle" x="902.5" y="-64" font-family="Helvetica,sans-Serif" font-size="10.00">map</text>
</a>
</g>
</g>
<!-- Node24&#45;&gt;Node25 -->
<g id="edge37_Node000024_Node000025" class="edge">
<title>Node24&#45;&gt;Node25</title>
<g id="a_edge37_Node000024_Node000025"><a xlink:title=" ">
<path fill="none" stroke="#63b8ff" d="M850.76,-113.09C859.63,-105.38 872.21,-94.45 882.75,-85.29"/>
<polygon fill="#63b8ff" stroke="#63b8ff" points="884.94,-88.02 890.19,-78.82 880.35,-82.74 884.94,-88.02"/>
</a>
</g>
</g>
<!-- Node26 -->
<g id="Node000026" class="node">
<title>Node26</title>
<g id="a_Node000026"><a xlink:title=" ">
<polygon fill="#e0e0e0" stroke="#999999" points="783.5,-77.5 719.5,-77.5 719.5,-56.75 783.5,-56.75 783.5,-77.5"/>
<text xml:space="preserve" text-anchor="middle" x="751.5" y="-64" font-family="Helvetica,sans-Serif" font-size="10.00">stdexcept</text>
</a>
</g>
</g>
<!-- Node24&#45;&gt;Node26 -->
<g id="edge38_Node000024_Node000026" class="edge">
<title>Node24&#45;&gt;Node26</title>
<g id="a_edge38_Node000024_Node000026"><a xlink:title=" ">
<path fill="none" stroke="#63b8ff" d="M823.77,-113.09C810.63,-104.91 791.66,-93.11 776.45,-83.65"/>
<polygon fill="#63b8ff" stroke="#63b8ff" points="778.72,-80.94 768.38,-78.63 775.02,-86.88 778.72,-80.94"/>
</a>
</g>
</g>
<!-- Node27 -->
<g id="Node000027" class="node">
<title>Node27</title>
<g id="a_Node000027"><a xlink:title=" ">
<polygon fill="#e0e0e0" stroke="#999999" points="865.88,-77.5 801.12,-77.5 801.12,-56.75 865.88,-56.75 865.88,-77.5"/>
<text xml:space="preserve" text-anchor="middle" x="833.5" y="-64" font-family="Helvetica,sans-Serif" font-size="10.00">functional</text>
</a>
</g>
</g>
<!-- Node24&#45;&gt;Node27 -->
<g id="edge39_Node000024_Node000027" class="edge">
<title>Node24&#45;&gt;Node27</title>
<g id="a_edge39_Node000024_Node000027"><a xlink:title=" ">
<path fill="none" stroke="#63b8ff" d="M838.43,-113.09C837.7,-106.47 836.72,-97.47 835.82,-89.27"/>
<polygon fill="#63b8ff" stroke="#63b8ff" points="839.3,-88.89 834.73,-79.33 832.34,-89.65 839.3,-88.89"/>
</a>
</g>
</g>
<!-- Node28&#45;&gt;Node4 -->
<g id="edge47_Node000028_Node000004" class="edge">
<title>Node28&#45;&gt;Node4</title>
<g id="a_edge47_Node000028_Node000004"><a xlink:title=" ">
<path fill="none" stroke="#63b8ff" d="M497.17,-343.27C537.96,-334.19 611.95,-317.73 661.9,-306.61"/>
<polygon fill="#63b8ff" stroke="#63b8ff" points="662.63,-310.03 671.63,-304.44 661.11,-303.2 662.63,-310.03"/>
</a>
</g>
</g>
<!-- Node28&#45;&gt;Node5 -->
<g id="edge45_Node000028_Node000005" class="edge">
<title>Node28&#45;&gt;Node5</title>
<g id="a_edge45_Node000028_Node000005"><a xlink:title=" ">
<path fill="none" stroke="#63b8ff" d="M497.3,-349C551.57,-346.61 669.54,-337.7 762.5,-304.5 796.1,-292.5 830.88,-270.13 852.59,-254.76"/>
<polygon fill="#63b8ff" stroke="#63b8ff" points="854.59,-257.63 860.64,-248.94 850.49,-251.96 854.59,-257.63"/>
</a>
</g>
</g>
<!-- Node28&#45;&gt;Node6 -->
<g id="edge48_Node000028_Node000006" class="edge">
<title>Node28&#45;&gt;Node6</title>
<g id="a_edge48_Node000028_Node000006"><a xlink:title=" ">
<path fill="none" stroke="#63b8ff" d="M468.44,-340.37C470.2,-322.52 474.04,-283.61 476.43,-259.34"/>
<polygon fill="#63b8ff" stroke="#63b8ff" points="479.89,-259.98 477.38,-249.68 472.92,-259.29 479.89,-259.98"/>
</a>
</g>
</g>
<!-- Node28&#45;&gt;Node9 -->
<g id="edge46_Node000028_Node000009" class="edge">
<title>Node28&#45;&gt;Node9</title>
<g id="a_edge46_Node000028_Node000009"><a xlink:title=" ">
<path fill="none" stroke="#63b8ff" d="M477.64,-340.21C514.03,-305.52 638.34,-187 685.32,-142.21"/>
<polygon fill="#63b8ff" stroke="#63b8ff" points="687.48,-144.98 692.3,-135.55 682.65,-139.92 687.48,-144.98"/>
</a>
</g>
</g>
<!-- Node28&#45;&gt;Node15 -->
<g id="edge54_Node000028_Node000015" class="edge">
<title>Node28&#45;&gt;Node15</title>
<g id="a_edge54_Node000028_Node000015"><a xlink:title=" ">
<path fill="none" stroke="#63b8ff" d="M437.71,-346.56C354.99,-336.54 128.5,-303.2 128.5,-238.38 128.5,-238.38 128.5,-238.38 128.5,-179.62 128.5,-149.05 126.36,-135.6 147.5,-113.5 154.27,-106.43 204.32,-90.74 241.52,-79.8"/>
<polygon fill="#63b8ff" stroke="#63b8ff" points="242.04,-83.3 250.66,-77.14 240.08,-76.58 242.04,-83.3"/>
</a>
</g>
</g>
<!-- Node28&#45;&gt;Node16 -->
<g id="edge44_Node000028_Node000016" class="edge">
<title>Node28&#45;&gt;Node16</title>
<g id="a_edge44_Node000028_Node000016"><a xlink:title=" ">
<path fill="none" stroke="#63b8ff" d="M437.88,-350.45C382.25,-350.47 259.37,-345.39 166.5,-304.5 87,-269.5 14.5,-268.49 14.5,-181.62 14.5,-181.62 14.5,-181.62 14.5,-122.88 14.5,-90.58 23.49,-54 29.98,-31.82"/>
<polygon fill="#63b8ff" stroke="#63b8ff" points="33.24,-33.13 32.81,-22.54 26.55,-31.08 33.24,-33.13"/>
</a>
</g>
</g>
<!-- Node28&#45;&gt;Node20 -->
<g id="edge55_Node000028_Node000020" class="edge">
<title>Node28&#45;&gt;Node20</title>
<g id="a_edge55_Node000028_Node000020"><a xlink:title=" ">
<path fill="none" stroke="#63b8ff" d="M442.23,-340.09C423.18,-332.07 396.95,-319.61 376.5,-304.5 309.71,-255.16 246.5,-178.21 219.38,-143.26"/>
<polygon fill="#63b8ff" stroke="#63b8ff" points="222.5,-141.58 213.64,-135.77 216.95,-145.84 222.5,-141.58"/>
</a>
</g>
</g>
<!-- Node29 -->
<g id="Node000029" class="node">
<title>Node29</title>
<g id="a_Node000029"><a xlink:href="SingSub_8h.html" target="_top" xlink:title="Exact subtractions for singular/near&#45;singular triangle integrals.">
<polygon fill="white" stroke="#666666" points="449.5,-304.5 385.5,-304.5 385.5,-283.75 449.5,-283.75 449.5,-304.5"/>
<text xml:space="preserve" text-anchor="middle" x="417.5" y="-291" font-family="Helvetica,sans-Serif" font-size="10.00">SingSub.h</text>
</a>
</g>
</g>
<!-- Node28&#45;&gt;Node29 -->
<g id="edge49_Node000028_Node000029" class="edge">
<title>Node28&#45;&gt;Node29</title>
<g id="a_edge49_Node000028_Node000029"><a xlink:title=" ">
<path fill="none" stroke="#63b8ff" d="M458.56,-340.09C451.74,-332.61 442.14,-322.11 433.94,-313.13"/>
<polygon fill="#63b8ff" stroke="#63b8ff" points="436.71,-310.97 427.38,-305.95 431.54,-315.69 436.71,-310.97"/>
</a>
</g>
</g>
<!-- Node29&#45;&gt;Node6 -->
<g id="edge51_Node000029_Node000006" class="edge">
<title>Node29&#45;&gt;Node6</title>
<g id="a_edge51_Node000029_Node000006"><a xlink:title=" ">
<path fill="none" stroke="#63b8ff" d="M428.41,-283.34C436.99,-275.63 449.17,-264.7 459.38,-255.54"/>
<polygon fill="#63b8ff" stroke="#63b8ff" points="461.46,-258.37 466.56,-249.09 456.78,-253.16 461.46,-258.37"/>
</a>
</g>
</g>
<!-- Node29&#45;&gt;Node10 -->
<g id="edge50_Node000029_Node000010" class="edge">
<title>Node29&#45;&gt;Node10</title>
<g id="a_edge50_Node000029_Node000010"><a xlink:title=" ">
<path fill="none" stroke="#63b8ff" d="M410.78,-283.64C391.59,-255.29 340.28,-169.71 377.5,-113.5 393.46,-89.39 425.08,-78.05 449.83,-72.75"/>
<polygon fill="#63b8ff" stroke="#63b8ff" points="450.31,-76.22 459.49,-70.93 449.02,-69.34 450.31,-76.22"/>
</a>
</g>
</g>
<!-- Node29&#45;&gt;Node14 -->
<g id="edge52_Node000029_Node000014" class="edge">
<title>Node29&#45;&gt;Node14</title>
<g id="a_edge52_Node000029_Node000014"><a xlink:title=" ">
<path fill="none" stroke="#63b8ff" d="M417.56,-283.6C417.71,-257.23 418.16,-182.83 418.37,-146.03"/>
<polygon fill="#63b8ff" stroke="#63b8ff" points="421.87,-146.25 418.43,-136.23 414.87,-146.21 421.87,-146.25"/>
</a>
</g>
</g>
<!-- Node29&#45;&gt;Node15 -->
<g id="edge53_Node000029_Node000015" class="edge">
<title>Node29&#45;&gt;Node15</title>
<g id="a_edge53_Node000029_Node000015"><a xlink:title=" ">
<path fill="none" stroke="#63b8ff" d="M407.27,-283.3C398.45,-274.51 385.72,-260.99 376.5,-247.75 338.89,-193.76 306.08,-122.82 291.12,-88.49"/>
<polygon fill="#63b8ff" stroke="#63b8ff" points="294.35,-87.16 287.19,-79.35 287.92,-89.92 294.35,-87.16"/>
</a>
</g>
</g>
</g>
</svg>

<g id="navigator" transform="translate(0 0)" fill="#404254">
  <rect fill="#f2f5e9" fill-opacity="0.5" stroke="#606060" stroke-width=".5" x="0" y="0" width="60" height="60"/>
  <use id="zoomplus" xlink:href="#zoomPlus" x="17" y="9" onmousedown="handleZoom(evt,'in')"/>
  <use id="zoomminus" xlink:href="#zoomMin" x="42" y="9" onmousedown="handleZoom(evt,'out')"/>
  <use id="reset" xlink:href="#resetDef" x="30" y="36" onmousedown="handleReset()"/>
   <use id="arrowup" xlink:href="#arrowUp" x="0" y="0" onmousedown="handlePan(0,-1)"/>
  <use id="arrowright" xlink:href="#arrowRight" x="0" y="0" onmousedown="handlePan(1,0)"/>
  <use id="arrowdown" xlink:href="#arrowDown" x="0" y="0" onmousedown="handlePan(0,1)"/>
  <use id="arrowleft" xlink:href="#arrowLeft" x="0" y="0" onmousedown="handlePan(-1,0)"/>
</g>
<svg viewBox="0 0 15 15" width="100%" height="30px" preserveAspectRatio="xMaxYMin meet">
 <g id="arrow_out" transform="scale(0.3 0.3)">
  <a xlink:href="Gaussian_8cpp__incl_org.svg" target="_base">
   <rect id="button" ry="5" rx="5" y="6" x="6" height="38" width="38"
        fill="#f2f5e9" fill-opacity="0.5" stroke="#606060" stroke-width="1.0"/>
   <path id="arrow"
     d="M 11.500037,31.436501 C 11.940474,20.09759 22.043105,11.32322 32.158766,21.979434 L 37.068811,17.246167 C 37.068811,17.246167 37.088388,32 37.088388,32 L 22.160133,31.978069 C 22.160133,31.978069 26.997745,27.140456 26.997745,27.140456 C 18.528582,18.264221 13.291696,25.230495 11.500037,31.436501 z"
     style="fill:#404040;"/>
  </a>
 </g>
</svg>

<style type='text/css'>
<![CDATA[
[data-mouse-over-selected='false'] { opacity: 0.7; }
[data-mouse-over-selected='true']  { opacity: 1.0; }
]]>
</style>
<script type="application/ecmascript"><![CDATA[
document.addEventListener('DOMContentLoaded', (event) => {
  highlightEdges();
  highlightAdjacentNodes();
});
]]></script>
</svg>
