<?xml version="1.0" encoding="UTF-8" standalone="no"?>
<!DOCTYPE svg PUBLIC "-//W3C//DTD SVG 1.1//EN"
 "http://www.w3.org/Graphics/SVG/1.1/DTD/svg11.dtd">
<!-- Generated by graphviz version 13.1.2 (20250809.0930)
 -->
<!-- Title: Gaussian.h Pages: 1 -->
<!--zoomable 483 -->

<svg id="main" version="1.1" xmlns="http://www.w3.org/2000/svg" xmlns:xlink="http://www.w3.org/1999/xlink" xml:space="preserve" onload="init(evt)">

<style type="text/css"><![CDATA[
.node, .edge {opacity: 0.7;}
.node.selected, .edge.selected {opacity: 1;}
.edge:hover path { stroke: red; }
.edge:hover polygon { stroke: red; fill: red; }
]]></style>

<defs>
  <circle id="rim" cx="0" cy="0" r="7"/>
  <circle id="rim2" cx="0" cy="0" r="3.5"/>
  <g id="zoomPlus">
    <use xlink:href="#rim" fill="#404040"><set attributeName="fill" to="#808080" begin="zoomplus.mouseover" end="zoomplus.mouseout"/></use>
    <path d="M-4,0h8M0,-4v8" fill="none" stroke="white" stroke-width="1.5" pointer-events="none"/>
  </g>
  <g id="zoomMin">
    <use xlink:href="#rim" fill="#404040"><set attributeName="fill" to="#808080" begin="zoomminus.mouseover" end="zoomminus.mouseout"/></use>
    <path d="M-4,0h8" fill="none" stroke="white" stroke-width="1.5" pointer-events="none"/>
  </g>
  <g id="arrowUp" transform="translate(30 24)">
    <use xlink:href="#rim"/>
    <path pointer-events="none" fill="none" stroke="white" stroke-width="1.5" d="M0,-3.0v7 M-2.5,-0.5L0,-3.0L2.5,-0.5"/>
  </g>
  <g id="arrowRight" transform="rotate(90) translate(36 -43)">
    <use xlink:href="#rim"/>
    <path pointer-events="none" fill="none" stroke="white" stroke-width="1.5" d="M0,-3.0v7 M-2.5,-0.5L0,-3.0L2.5,-0.5"/>
  </g>
  <g id="arrowDown" transform="rotate(180) translate(-30 -48)">
    <use xlink:href="#rim"/>
    <path pointer-events="none" fill="none" stroke="white" stroke-width="1.5" d="M0,-3.0v7 M-2.5,-0.5L0,-3.0L2.5,-0.5"/>
  </g>
  <g id="arrowLeft" transform="rotate(270) translate(-36 17)">
    <use xlink:href="#rim"/>
    <path pointer-events="none" fill="none" stroke="white" stroke-width="1.5" d="M0,-3.0v7 M-2.5,-0.5L0,-3.0L2.5,-0.5"/>
  </g>
  <g id="resetDef">
    <use xlink:href="#rim2" fill="#404040"><set attributeName="fill" to="#808080" begin="reset.mouseover" end="reset.mouseout"/></use>
  </g>
</defs>
<script type="application/ecmascript">
var viewWidth = 1156;
var viewHeight = 483;
var sectionId = 'dynsection-0';
</script>
<script type="application/ecmascript" xlink:href="svg.min.js"/>
<svg id="graph" class="graph">
<g id="viewport">
<title>Gaussian.h</title>
<!-- Node1 -->
<g id="Node000001" class="node">
<title>Node1</title>
<g id="a_Node000001"><a xlink:title="Incident field: paraxial Gaussian beam in a homogeneous medium.">
<polygon fill="#999999" stroke="#666666" points="92,-474.75 22,-474.75 22,-454 92,-454 92,-474.75"/>
<text xml:space="preserve" text-anchor="middle" x="57" y="-461.25" font-family="Helvetica,sans-Serif" font-size="10.00">Gaussian.h</text>
</a>
</g>
</g>
<!-- Node2 -->
<g id="Node000002" class="node">
<title>Node2</title>
<g id="a_Node000002"><a xlink:title=" ">
<polygon fill="#e0e0e0" stroke="#999999" points="163.75,-77.5 104.25,-77.5 104.25,-56.75 163.75,-56.75 163.75,-77.5"/>
<text xml:space="preserve" text-anchor="middle" x="134" y="-64" font-family="Helvetica,sans-Serif" font-size="10.00">iostream</text>
</a>
</g>
</g>
<!-- Node1&#45;&gt;Node2 -->
<g id="edge1_Node000001_Node000002" class="edge">
<title>Node1&#45;&gt;Node2</title>
<g id="a_edge1_Node000001_Node000002"><a xlink:title=" ">
<path fill="none" stroke="#63b8ff" d="M48.09,-453.78C32.06,-435.46 0,-393.62 0,-351.88 0,-351.88 0,-351.88 0,-179.62 0,-130.52 53.82,-98.87 93.25,-82.28"/>
<polygon fill="#63b8ff" stroke="#63b8ff" points="94.54,-85.53 102.52,-78.56 91.94,-79.03 94.54,-85.53"/>
</a>
</g>
</g>
<!-- Node3 -->
<g id="Node000003" class="node">
<title>Node3</title>
<g id="a_Node000003"><a xlink:href="GaussQuad_8h.html" target="_top" xlink:title="Gaussian quadrature helpers for Green&#39;s functions and incident fields.">
<polygon fill="white" stroke="#666666" points="246.25,-304.5 165.75,-304.5 165.75,-283.75 246.25,-283.75 246.25,-304.5"/>
<text xml:space="preserve" text-anchor="middle" x="206" y="-291" font-family="Helvetica,sans-Serif" font-size="10.00">GaussQuad.h</text>
</a>
</g>
</g>
<!-- Node1&#45;&gt;Node3 -->
<g id="edge2_Node000001_Node000003" class="edge">
<title>Node1&#45;&gt;Node3</title>
<g id="a_edge2_Node000001_Node000003"><a xlink:title=" ">
<path fill="none" stroke="#63b8ff" d="M65.44,-453.85C89.4,-426.79 158.16,-349.15 189.76,-313.46"/>
<polygon fill="#63b8ff" stroke="#63b8ff" points="192.27,-315.91 196.28,-306.1 187.03,-311.27 192.27,-315.91"/>
</a>
</g>
</g>
<!-- Node14 -->
<g id="Node000014" class="node">
<title>Node14</title>
<g id="a_Node000014"><a xlink:href="globals_8h.html" target="_top" xlink:title="Global numerical constants, fundamental types, and simple macros.">
<polygon fill="white" stroke="#666666" points="574.12,-77.5 513.88,-77.5 513.88,-56.75 574.12,-56.75 574.12,-77.5"/>
<text xml:space="preserve" text-anchor="middle" x="544" y="-64" font-family="Helvetica,sans-Serif" font-size="10.00">globals.h</text>
</a>
</g>
</g>
<!-- Node1&#45;&gt;Node14 -->
<g id="edge55_Node000001_Node000014" class="edge">
<title>Node1&#45;&gt;Node14</title>
<g id="a_edge55_Node000001_Node000014"><a xlink:title=" ">
<path fill="none" stroke="#63b8ff" d="M54.2,-453.63C48.91,-434.36 38,-389.97 38,-351.88 38,-351.88 38,-351.88 38,-293.12 38,-90.53 380.87,-69.01 502.13,-67.74"/>
<polygon fill="#63b8ff" stroke="#63b8ff" points="501.99,-71.24 511.97,-67.68 501.95,-64.24 501.99,-71.24"/>
</a>
</g>
</g>
<!-- Node22 -->
<g id="Node000022" class="node">
<title>Node22</title>
<g id="a_Node000022"><a xlink:href="IncidentField_8h.html" target="_top" xlink:title="Abstract interface for incident electromagnetic excitations.">
<polygon fill="white" stroke="#666666" points="440.62,-418 353.38,-418 353.38,-397.25 440.62,-397.25 440.62,-418"/>
<text xml:space="preserve" text-anchor="middle" x="397" y="-404.5" font-family="Helvetica,sans-Serif" font-size="10.00">IncidentField.h</text>
</a>
</g>
</g>
<!-- Node1&#45;&gt;Node22 -->
<g id="edge32_Node000001_Node000022" class="edge">
<title>Node1&#45;&gt;Node22</title>
<g id="a_edge32_Node000001_Node000022"><a xlink:title=" ">
<path fill="none" stroke="#63b8ff" d="M92.42,-457.67C151.71,-448.12 271.46,-428.84 341.85,-417.51"/>
<polygon fill="#63b8ff" stroke="#63b8ff" points="342.32,-420.98 351.63,-415.93 341.2,-414.06 342.32,-420.98"/>
</a>
</g>
</g>
<!-- Node3&#45;&gt;Node2 -->
<g id="edge4_Node000003_Node000002" class="edge">
<title>Node3&#45;&gt;Node2</title>
<g id="a_edge4_Node000003_Node000002"><a xlink:title=" ">
<path fill="none" stroke="#63b8ff" d="M202.91,-283.46C192.06,-249.56 155.6,-135.62 140.57,-88.64"/>
<polygon fill="#63b8ff" stroke="#63b8ff" points="143.92,-87.66 137.54,-79.2 137.26,-89.79 143.92,-87.66"/>
</a>
</g>
</g>
<!-- Node4 -->
<g id="Node000004" class="node">
<title>Node4</title>
<g id="a_Node000004"><a xlink:title=" ">
<polygon fill="#e0e0e0" stroke="#999999" points="284.38,-247.75 237.62,-247.75 237.62,-227 284.38,-227 284.38,-247.75"/>
<text xml:space="preserve" text-anchor="middle" x="261" y="-234.25" font-family="Helvetica,sans-Serif" font-size="10.00">cmath</text>
</a>
</g>
</g>
<!-- Node3&#45;&gt;Node4 -->
<g id="edge3_Node000003_Node000004" class="edge">
<title>Node3&#45;&gt;Node4</title>
<g id="a_edge3_Node000003_Node000004"><a xlink:title=" ">
<path fill="none" stroke="#63b8ff" d="M215.83,-283.34C223.42,-275.78 234.12,-265.14 243.2,-256.1"/>
<polygon fill="#63b8ff" stroke="#63b8ff" points="245.56,-258.68 250.18,-249.15 240.62,-253.72 245.56,-258.68"/>
</a>
</g>
</g>
<!-- Node5 -->
<g id="Node000005" class="node">
<title>Node5</title>
<g id="a_Node000005"><a xlink:href="RWGFun_8h.html" target="_top" xlink:title="Header for the RWGFun class.">
<polygon fill="white" stroke="#666666" points="497.12,-247.75 430.88,-247.75 430.88,-227 497.12,-227 497.12,-247.75"/>
<text xml:space="preserve" text-anchor="middle" x="464" y="-234.25" font-family="Helvetica,sans-Serif" font-size="10.00">RWGFun.h</text>
</a>
</g>
</g>
<!-- Node3&#45;&gt;Node5 -->
<g id="edge5_Node000003_Node000005" class="edge">
<title>Node3&#45;&gt;Node5</title>
<g id="a_edge5_Node000003_Node000005"><a xlink:title=" ">
<path fill="none" stroke="#63b8ff" d="M246.6,-284.51C293.63,-274.53 370.87,-258.14 419.5,-247.82"/>
<polygon fill="#63b8ff" stroke="#63b8ff" points="420.08,-251.27 429.13,-245.77 418.63,-244.43 420.08,-251.27"/>
</a>
</g>
</g>
<!-- Node3&#45;&gt;Node14 -->
<g id="edge30_Node000003_Node000014" class="edge">
<title>Node3&#45;&gt;Node14</title>
<g id="a_edge30_Node000003_Node000014"><a xlink:title=" ">
<path fill="none" stroke="#63b8ff" d="M204.49,-283.58C200.35,-253.57 192.11,-160.29 241,-113.5 277.66,-78.41 427.98,-70.42 502.17,-68.63"/>
<polygon fill="#63b8ff" stroke="#63b8ff" points="501.96,-72.13 511.89,-68.42 501.81,-65.13 501.96,-72.13"/>
</a>
</g>
</g>
<!-- Node21 -->
<g id="Node000021" class="node">
<title>Node21</title>
<g id="a_Node000021"><a xlink:href="quadrature_8h.html" target="_top" xlink:title="Declarations of Dunavant (triangle) and Gauss–Legendre (1D) quadrature rules.">
<polygon fill="white" stroke="#666666" points="144.12,-247.75 65.88,-247.75 65.88,-227 144.12,-227 144.12,-247.75"/>
<text xml:space="preserve" text-anchor="middle" x="105" y="-234.25" font-family="Helvetica,sans-Serif" font-size="10.00">quadrature.h</text>
</a>
</g>
</g>
<!-- Node3&#45;&gt;Node21 -->
<g id="edge31_Node000003_Node000021" class="edge">
<title>Node3&#45;&gt;Node21</title>
<g id="a_edge31_Node000003_Node000021"><a xlink:title=" ">
<path fill="none" stroke="#63b8ff" d="M187.94,-283.34C172.58,-275.01 150.26,-262.91 132.64,-253.36"/>
<polygon fill="#63b8ff" stroke="#63b8ff" points="134.69,-250.49 124.23,-248.8 131.35,-256.64 134.69,-250.49"/>
</a>
</g>
</g>
<!-- Node6 -->
<g id="Node000006" class="node">
<title>Node6</title>
<g id="a_Node000006"><a xlink:href="SurfaceMesh_8h.html" target="_top" xlink:title="Declaration of the SurfaceMesh class and mesh edge struct.">
<polygon fill="white" stroke="#666666" points="576,-191 488,-191 488,-170.25 576,-170.25 576,-191"/>
<text xml:space="preserve" text-anchor="middle" x="532" y="-177.5" font-family="Helvetica,sans-Serif" font-size="10.00">SurfaceMesh.h</text>
</a>
</g>
</g>
<!-- Node5&#45;&gt;Node6 -->
<g id="edge6_Node000005_Node000006" class="edge">
<title>Node5&#45;&gt;Node6</title>
<g id="a_edge6_Node000005_Node000006"><a xlink:title=" ">
<path fill="none" stroke="#63b8ff" d="M476.16,-226.59C485.83,-218.8 499.58,-207.72 511.02,-198.51"/>
<polygon fill="#63b8ff" stroke="#63b8ff" points="513.18,-201.28 518.77,-192.28 508.79,-195.82 513.18,-201.28"/>
</a>
</g>
</g>
<!-- Node13 -->
<g id="Node000013" class="node">
<title>Node13</title>
<g id="a_Node000013"><a xlink:href="Triangle_8h.html" target="_top" xlink:title="Declaration of the Triangle class (surface element with cached geometry).">
<polygon fill="white" stroke="#666666" points="697.62,-134.25 634.38,-134.25 634.38,-113.5 697.62,-113.5 697.62,-134.25"/>
<text xml:space="preserve" text-anchor="middle" x="666" y="-120.75" font-family="Helvetica,sans-Serif" font-size="10.00">Triangle.h</text>
</a>
</g>
</g>
<!-- Node5&#45;&gt;Node13 -->
<g id="edge28_Node000005_Node000013" class="edge">
<title>Node5&#45;&gt;Node13</title>
<g id="a_edge28_Node000005_Node000013"><a xlink:title=" ">
<path fill="none" stroke="#63b8ff" d="M497.39,-227.08C522.45,-219.36 557.09,-207.04 585,-191 608.68,-177.39 632.51,-156.93 648.13,-142.38"/>
<polygon fill="#63b8ff" stroke="#63b8ff" points="650.38,-145.07 655.22,-135.64 645.56,-139.99 650.38,-145.07"/>
</a>
</g>
</g>
<!-- Node5&#45;&gt;Node14 -->
<g id="edge29_Node000005_Node000014" class="edge">
<title>Node5&#45;&gt;Node14</title>
<g id="a_edge29_Node000005_Node000014"><a xlink:title=" ">
<path fill="none" stroke="#63b8ff" d="M442.31,-226.65C400.21,-206.47 314.56,-158.19 350,-113.5 368.64,-89.99 451.11,-77.51 502.34,-71.9"/>
<polygon fill="#63b8ff" stroke="#63b8ff" points="502.61,-75.39 512.19,-70.87 501.88,-68.43 502.61,-75.39"/>
</a>
</g>
</g>
<!-- Node7 -->
<g id="Node000007" class="node">
<title>Node7</title>
<g id="a_Node000007"><a xlink:title=" ">
<polygon fill="#e0e0e0" stroke="#999999" points="539.5,-134.25 508.5,-134.25 508.5,-113.5 539.5,-113.5 539.5,-134.25"/>
<text xml:space="preserve" text-anchor="middle" x="524" y="-120.75" font-family="Helvetica,sans-Serif" font-size="10.00">set</text>
</a>
</g>
</g>
<!-- Node6&#45;&gt;Node7 -->
<g id="edge7_Node000006_Node000007" class="edge">
<title>Node6&#45;&gt;Node7</title>
<g id="a_edge7_Node000006_Node000007"><a xlink:title=" ">
<path fill="none" stroke="#63b8ff" d="M530.57,-169.84C529.59,-163.14 528.26,-154.01 527.05,-145.73"/>
<polygon fill="#63b8ff" stroke="#63b8ff" points="530.55,-145.46 525.64,-136.08 523.62,-146.48 530.55,-145.46"/>
</a>
</g>
</g>
<!-- Node8 -->
<g id="Node000008" class="node">
<title>Node8</title>
<g id="a_Node000008"><a xlink:title=" ">
<polygon fill="#e0e0e0" stroke="#999999" points="403.25,-134.25 358.75,-134.25 358.75,-113.5 403.25,-113.5 403.25,-134.25"/>
<text xml:space="preserve" text-anchor="middle" x="381" y="-120.75" font-family="Helvetica,sans-Serif" font-size="10.00">utility</text>
</a>
</g>
</g>
<!-- Node6&#45;&gt;Node8 -->
<g id="edge8_Node000006_Node000008" class="edge">
<title>Node6&#45;&gt;Node8</title>
<g id="a_edge8_Node000006_Node000008"><a xlink:title=" ">
<path fill="none" stroke="#63b8ff" d="M505,-169.84C479.51,-160.59 441.21,-146.7 413.93,-136.81"/>
<polygon fill="#63b8ff" stroke="#63b8ff" points="415.36,-133.61 404.76,-133.49 412.97,-140.19 415.36,-133.61"/>
</a>
</g>
</g>
<!-- Node9 -->
<g id="Node000009" class="node">
<title>Node9</title>
<g id="a_Node000009"><a xlink:title=" ">
<polygon fill="#e0e0e0" stroke="#999999" points="700.38,-77.5 653.62,-77.5 653.62,-56.75 700.38,-56.75 700.38,-77.5"/>
<text xml:space="preserve" text-anchor="middle" x="677" y="-64" font-family="Helvetica,sans-Serif" font-size="10.00">vector</text>
</a>
</g>
</g>
<!-- Node6&#45;&gt;Node9 -->
<g id="edge9_Node000006_Node000009" class="edge">
<title>Node6&#45;&gt;Node9</title>
<g id="a_edge9_Node000006_Node000009"><a xlink:title=" ">
<path fill="none" stroke="#63b8ff" d="M544.61,-169.93C569.36,-150.9 624.52,-108.48 655.26,-84.84"/>
<polygon fill="#63b8ff" stroke="#63b8ff" points="657.32,-87.67 663.11,-78.8 653.05,-82.13 657.32,-87.67"/>
</a>
</g>
</g>
<!-- Node10 -->
<g id="Node000010" class="node">
<title>Node10</title>
<g id="a_Node000010"><a xlink:href="JobParser_8h.html" target="_top" xlink:title="Lightweight XML&#45;like tag parser for the solver job file.">
<polygon fill="white" stroke="#666666" points="490.62,-134.25 421.38,-134.25 421.38,-113.5 490.62,-113.5 490.62,-134.25"/>
<text xml:space="preserve" text-anchor="middle" x="456" y="-120.75" font-family="Helvetica,sans-Serif" font-size="10.00">JobParser.h</text>
</a>
</g>
</g>
<!-- Node6&#45;&gt;Node10 -->
<g id="edge10_Node000006_Node000010" class="edge">
<title>Node6&#45;&gt;Node10</title>
<g id="a_edge10_Node000006_Node000010"><a xlink:title=" ">
<path fill="none" stroke="#63b8ff" d="M518.41,-169.84C507.39,-161.9 491.61,-150.53 478.68,-141.21"/>
<polygon fill="#63b8ff" stroke="#63b8ff" points="480.86,-138.47 470.7,-135.46 476.77,-144.15 480.86,-138.47"/>
</a>
</g>
</g>
<!-- Node6&#45;&gt;Node13 -->
<g id="edge15_Node000006_Node000013" class="edge">
<title>Node6&#45;&gt;Node13</title>
<g id="a_edge15_Node000006_Node000013"><a xlink:title=" ">
<path fill="none" stroke="#63b8ff" d="M555.96,-169.84C577.01,-161.23 607.9,-148.61 631.6,-138.93"/>
<polygon fill="#63b8ff" stroke="#63b8ff" points="632.92,-142.17 640.85,-135.15 630.27,-135.69 632.92,-142.17"/>
</a>
</g>
</g>
<!-- Node6&#45;&gt;Node14 -->
<g id="edge22_Node000006_Node000014" class="edge">
<title>Node6&#45;&gt;Node14</title>
<g id="a_edge22_Node000006_Node000014"><a xlink:title=" ">
<path fill="none" stroke="#63b8ff" d="M536.85,-169.83C541.01,-160.83 546.69,-147 549,-134.25 551.74,-119.14 550.27,-101.83 548.23,-88.71"/>
<polygon fill="#63b8ff" stroke="#63b8ff" points="551.72,-88.33 546.49,-79.11 544.83,-89.57 551.72,-88.33"/>
</a>
</g>
</g>
<!-- Node19 -->
<g id="Node000019" class="node">
<title>Node19</title>
<g id="a_Node000019"><a xlink:href="mathFunctions_8h.html" target="_top" xlink:title="Header file of the class that provides auxiliary mathematical functionalities for the SIE solver.">
<polygon fill="white" stroke="#666666" points="889.5,-134.25 792.5,-134.25 792.5,-113.5 889.5,-113.5 889.5,-134.25"/>
<text xml:space="preserve" text-anchor="middle" x="841" y="-120.75" font-family="Helvetica,sans-Serif" font-size="10.00">mathFunctions.h</text>
</a>
</g>
</g>
<!-- Node6&#45;&gt;Node19 -->
<g id="edge23_Node000006_Node000019" class="edge">
<title>Node6&#45;&gt;Node19</title>
<g id="a_edge23_Node000006_Node000019"><a xlink:title=" ">
<path fill="none" stroke="#63b8ff" d="M576.27,-171.78C630.05,-162.25 720.99,-146.14 781.02,-135.5"/>
<polygon fill="#63b8ff" stroke="#63b8ff" points="781.5,-138.97 790.73,-133.78 780.27,-132.08 781.5,-138.97"/>
</a>
</g>
</g>
<!-- Node10&#45;&gt;Node2 -->
<g id="edge12_Node000010_Node000002" class="edge">
<title>Node10&#45;&gt;Node2</title>
<g id="a_edge12_Node000010_Node000002"><a xlink:title=" ">
<path fill="none" stroke="#63b8ff" d="M420.97,-115.25C417.94,-114.64 414.92,-114.05 412,-113.5 328.27,-97.76 229.75,-82.43 175.35,-74.24"/>
<polygon fill="#63b8ff" stroke="#63b8ff" points="176.02,-70.8 165.61,-72.78 174.98,-77.72 176.02,-70.8"/>
</a>
</g>
</g>
<!-- Node10&#45;&gt;Node9 -->
<g id="edge14_Node000010_Node000009" class="edge">
<title>Node10&#45;&gt;Node9</title>
<g id="a_edge14_Node000010_Node000009"><a xlink:title=" ">
<path fill="none" stroke="#63b8ff" d="M490.96,-115.03C526.77,-106.87 584.28,-93.44 642.41,-78.1"/>
<polygon fill="#63b8ff" stroke="#63b8ff" points="643.04,-81.56 651.81,-75.61 641.24,-74.79 643.04,-81.56"/>
</a>
</g>
</g>
<!-- Node11 -->
<g id="Node000011" class="node">
<title>Node11</title>
<g id="a_Node000011"><a xlink:title=" ">
<polygon fill="#e0e0e0" stroke="#999999" points="773.12,-77.5 718.88,-77.5 718.88,-56.75 773.12,-56.75 773.12,-77.5"/>
<text xml:space="preserve" text-anchor="middle" x="746" y="-64" font-family="Helvetica,sans-Serif" font-size="10.00">fstream</text>
</a>
</g>
</g>
<!-- Node10&#45;&gt;Node11 -->
<g id="edge11_Node000010_Node000011" class="edge">
<title>Node10&#45;&gt;Node11</title>
<g id="a_edge11_Node000010_Node000011"><a xlink:title=" ">
<path fill="none" stroke="#63b8ff" d="M491.04,-115.28C494.07,-114.66 497.09,-114.06 500,-113.5 589.12,-96.34 614.91,-97.01 707.56,-77.65"/>
<polygon fill="#63b8ff" stroke="#63b8ff" points="708.04,-81.13 717.1,-75.64 706.59,-74.28 708.04,-81.13"/>
</a>
</g>
</g>
<!-- Node12 -->
<g id="Node000012" class="node">
<title>Node12</title>
<g id="a_Node000012"><a xlink:title=" ">
<polygon fill="#e0e0e0" stroke="#999999" points="635.88,-77.5 592.12,-77.5 592.12,-56.75 635.88,-56.75 635.88,-77.5"/>
<text xml:space="preserve" text-anchor="middle" x="614" y="-64" font-family="Helvetica,sans-Serif" font-size="10.00">string</text>
</a>
</g>
</g>
<!-- Node10&#45;&gt;Node12 -->
<g id="edge13_Node000010_Node000012" class="edge">
<title>Node10&#45;&gt;Node12</title>
<g id="a_edge13_Node000010_Node000012"><a xlink:title=" ">
<path fill="none" stroke="#63b8ff" d="M484.25,-113.09C511.52,-103.64 552.78,-89.34 581.42,-79.41"/>
<polygon fill="#63b8ff" stroke="#63b8ff" points="582.37,-82.79 590.67,-76.21 580.07,-76.18 582.37,-82.79"/>
</a>
</g>
</g>
<!-- Node13&#45;&gt;Node9 -->
<g id="edge16_Node000013_Node000009" class="edge">
<title>Node13&#45;&gt;Node9</title>
<g id="a_edge16_Node000013_Node000009"><a xlink:title=" ">
<path fill="none" stroke="#63b8ff" d="M667.97,-113.09C669.31,-106.39 671.15,-97.26 672.81,-88.98"/>
<polygon fill="#63b8ff" stroke="#63b8ff" points="676.21,-89.81 674.75,-79.31 669.35,-88.43 676.21,-89.81"/>
</a>
</g>
</g>
<!-- Node13&#45;&gt;Node14 -->
<g id="edge17_Node000013_Node000014" class="edge">
<title>Node13&#45;&gt;Node14</title>
<g id="a_edge17_Node000013_Node000014"><a xlink:title=" ">
<path fill="none" stroke="#63b8ff" d="M644.19,-113.09C625.19,-104.56 597.4,-92.09 575.91,-82.44"/>
<polygon fill="#63b8ff" stroke="#63b8ff" points="577.56,-79.35 567,-78.45 574.69,-85.74 577.56,-79.35"/>
</a>
</g>
</g>
<!-- Node15 -->
<g id="Node000015" class="node">
<title>Node15</title>
<g id="a_Node000015"><a xlink:title=" ">
<polygon fill="#e0e0e0" stroke="#999999" points="925.5,-20.75 852.5,-20.75 852.5,0 925.5,0 925.5,-20.75"/>
<text xml:space="preserve" text-anchor="middle" x="889" y="-7.25" font-family="Helvetica,sans-Serif" font-size="10.00">blitz/array.h</text>
</a>
</g>
</g>
<!-- Node14&#45;&gt;Node15 -->
<g id="edge18_Node000014_Node000015" class="edge">
<title>Node14&#45;&gt;Node15</title>
<g id="a_edge18_Node000014_Node000015"><a xlink:title=" ">
<path fill="none" stroke="#63b8ff" d="M574.6,-58.5C577.43,-57.87 580.27,-57.28 583,-56.75 673.64,-39.17 780.55,-24.74 840.99,-17.15"/>
<polygon fill="#63b8ff" stroke="#63b8ff" points="841.09,-20.67 850.58,-15.96 840.22,-13.72 841.09,-20.67"/>
</a>
</g>
</g>
<!-- Node16 -->
<g id="Node000016" class="node">
<title>Node16</title>
<g id="a_Node000016"><a xlink:title=" ">
<polygon fill="#e0e0e0" stroke="#999999" points="505.5,-20.75 414.5,-20.75 414.5,0 505.5,0 505.5,-20.75"/>
<text xml:space="preserve" text-anchor="middle" x="460" y="-7.25" font-family="Helvetica,sans-Serif" font-size="10.00">blitz/tinyvec2.h</text>
</a>
</g>
</g>
<!-- Node14&#45;&gt;Node16 -->
<g id="edge19_Node000014_Node000016" class="edge">
<title>Node14&#45;&gt;Node16</title>
<g id="a_edge19_Node000014_Node000016"><a xlink:title=" ">
<path fill="none" stroke="#63b8ff" d="M528.98,-56.34C516.56,-48.24 498.68,-36.58 484.23,-27.17"/>
<polygon fill="#63b8ff" stroke="#63b8ff" points="486.44,-24.43 476.16,-21.9 482.62,-30.3 486.44,-24.43"/>
</a>
</g>
</g>
<!-- Node17 -->
<g id="Node000017" class="node">
<title>Node17</title>
<g id="a_Node000017"><a xlink:title=" ">
<polygon fill="#e0e0e0" stroke="#999999" points="620.12,-20.75 523.88,-20.75 523.88,0 620.12,0 620.12,-20.75"/>
<text xml:space="preserve" text-anchor="middle" x="572" y="-7.25" font-family="Helvetica,sans-Serif" font-size="10.00">blitz/tvecglobs.h</text>
</a>
</g>
</g>
<!-- Node14&#45;&gt;Node17 -->
<g id="edge20_Node000014_Node000017" class="edge">
<title>Node14&#45;&gt;Node17</title>
<g id="a_edge20_Node000014_Node000017"><a xlink:title=" ">
<path fill="none" stroke="#63b8ff" d="M549.01,-56.34C552.59,-49.33 557.54,-39.66 561.92,-31.08"/>
<polygon fill="#63b8ff" stroke="#63b8ff" points="564.91,-32.92 566.35,-22.43 558.68,-29.74 564.91,-32.92"/>
</a>
</g>
</g>
<!-- Node18 -->
<g id="Node000018" class="node">
<title>Node18</title>
<g id="a_Node000018"><a xlink:title=" ">
<polygon fill="#e0e0e0" stroke="#999999" points="788,-20.75 730,-20.75 730,0 788,0 788,-20.75"/>
<text xml:space="preserve" text-anchor="middle" x="759" y="-7.25" font-family="Helvetica,sans-Serif" font-size="10.00">complex</text>
</a>
</g>
</g>
<!-- Node14&#45;&gt;Node18 -->
<g id="edge21_Node000014_Node000018" class="edge">
<title>Node14&#45;&gt;Node18</title>
<g id="a_edge21_Node000014_Node000018"><a xlink:title=" ">
<path fill="none" stroke="#63b8ff" d="M574.35,-58.4C612.2,-48.76 677.03,-32.25 718.93,-21.58"/>
<polygon fill="#63b8ff" stroke="#63b8ff" points="719.55,-25.03 728.37,-19.17 717.82,-18.25 719.55,-25.03"/>
</a>
</g>
</g>
<!-- Node19&#45;&gt;Node9 -->
<g id="edge26_Node000019_Node000009" class="edge">
<title>Node19&#45;&gt;Node9</title>
<g id="a_edge26_Node000019_Node000009"><a xlink:title=" ">
<path fill="none" stroke="#63b8ff" d="M811.68,-113.09C783.58,-103.7 741.16,-89.54 711.45,-79.63"/>
<polygon fill="#63b8ff" stroke="#63b8ff" points="712.78,-76.38 702.18,-76.53 710.56,-83.02 712.78,-76.38"/>
</a>
</g>
</g>
<!-- Node19&#45;&gt;Node14 -->
<g id="edge27_Node000019_Node000014" class="edge">
<title>Node19&#45;&gt;Node14</title>
<g id="a_edge27_Node000019_Node000014"><a xlink:title=" ">
<path fill="none" stroke="#63b8ff" d="M792.33,-115.24C742.66,-107.24 663.13,-93.86 585.55,-77.94"/>
<polygon fill="#63b8ff" stroke="#63b8ff" points="586.6,-74.58 576.1,-75.98 585.18,-81.44 586.6,-74.58"/>
</a>
</g>
</g>
<!-- Node19&#45;&gt;Node18 -->
<g id="edge25_Node000019_Node000018" class="edge">
<title>Node19&#45;&gt;Node18</title>
<g id="a_edge25_Node000019_Node000018"><a xlink:title=" ">
<path fill="none" stroke="#63b8ff" d="M846.02,-113.08C852.26,-99.41 860.85,-74.29 850,-56.75 838.82,-38.68 818.03,-27.57 799.15,-20.87"/>
<polygon fill="#63b8ff" stroke="#63b8ff" points="800.36,-17.59 789.77,-17.88 798.23,-24.25 800.36,-17.59"/>
</a>
</g>
</g>
<!-- Node20 -->
<g id="Node000020" class="node">
<title>Node20</title>
<g id="a_Node000020"><a xlink:title=" ">
<polygon fill="#e0e0e0" stroke="#999999" points="841.25,-77.5 790.75,-77.5 790.75,-56.75 841.25,-56.75 841.25,-77.5"/>
<text xml:space="preserve" text-anchor="middle" x="816" y="-64" font-family="Helvetica,sans-Serif" font-size="10.00">math.h</text>
</a>
</g>
</g>
<!-- Node19&#45;&gt;Node20 -->
<g id="edge24_Node000019_Node000020" class="edge">
<title>Node19&#45;&gt;Node20</title>
<g id="a_edge24_Node000019_Node000020"><a xlink:title=" ">
<path fill="none" stroke="#63b8ff" d="M836.53,-113.09C833.37,-106.16 829.01,-96.62 825.13,-88.11"/>
<polygon fill="#63b8ff" stroke="#63b8ff" points="828.4,-86.85 821.06,-79.21 822.03,-89.76 828.4,-86.85"/>
</a>
</g>
</g>
<!-- Node22&#45;&gt;Node5 -->
<g id="edge33_Node000022_Node000005" class="edge">
<title>Node22&#45;&gt;Node5</title>
<g id="a_edge33_Node000022_Node000005"><a xlink:title=" ">
<path fill="none" stroke="#63b8ff" d="M407.6,-396.82C416.24,-388.24 428.1,-375.03 435,-361.25 451.71,-327.89 459.02,-284.56 462.04,-259.27"/>
<polygon fill="#63b8ff" stroke="#63b8ff" points="465.49,-259.96 463.07,-249.64 458.53,-259.21 465.49,-259.96"/>
</a>
</g>
</g>
<!-- Node22&#45;&gt;Node14 -->
<g id="edge34_Node000022_Node000014" class="edge">
<title>Node22&#45;&gt;Node14</title>
<g id="a_edge34_Node000022_Node000014"><a xlink:title=" ">
<path fill="none" stroke="#63b8ff" d="M386.92,-397.07C378.37,-388.44 366.35,-375.03 359,-361.25 332.8,-312.14 283.87,-154.05 322,-113.5 346.14,-87.83 445.22,-75.86 502.53,-71"/>
<polygon fill="#63b8ff" stroke="#63b8ff" points="502.54,-74.51 512.23,-70.21 501.98,-67.53 502.54,-74.51"/>
</a>
</g>
</g>
<!-- Node23 -->
<g id="Node000023" class="node">
<title>Node23</title>
<g id="a_Node000023"><a xlink:href="LayeredMediaUtils_8h.html" target="_top" xlink:title="This header declares utility structures and algorithms used throughout the layered&#45;media scattering s...">
<polygon fill="white" stroke="#666666" points="1062.25,-134.25 945.75,-134.25 945.75,-113.5 1062.25,-113.5 1062.25,-134.25"/>
<text xml:space="preserve" text-anchor="middle" x="1004" y="-120.75" font-family="Helvetica,sans-Serif" font-size="10.00">LayeredMediaUtils.h</text>
</a>
</g>
</g>
<!-- Node22&#45;&gt;Node23 -->
<g id="edge35_Node000022_Node000023" class="edge">
<title>Node22&#45;&gt;Node23</title>
<g id="a_edge35_Node000022_Node000023"><a xlink:title=" ">
<path fill="none" stroke="#63b8ff" d="M440.82,-402.89C576.4,-390.75 980,-350 980,-295.12 980,-295.12 980,-295.12 980,-236.38 980,-203.96 989.81,-167.41 996.89,-145.27"/>
<polygon fill="#63b8ff" stroke="#63b8ff" points="1000.14,-146.6 999.98,-136 993.5,-144.38 1000.14,-146.6"/>
</a>
</g>
</g>
<!-- Node27 -->
<g id="Node000027" class="node">
<title>Node27</title>
<g id="a_Node000027"><a xlink:href="GreenF_8h.html" target="_top" xlink:title="Abstract base class for electromagnetic Green&#39;s functions.">
<polygon fill="white" stroke="#666666" points="426.38,-361.25 367.62,-361.25 367.62,-340.5 426.38,-340.5 426.38,-361.25"/>
<text xml:space="preserve" text-anchor="middle" x="397" y="-347.75" font-family="Helvetica,sans-Serif" font-size="10.00">GreenF.h</text>
</a>
</g>
</g>
<!-- Node22&#45;&gt;Node27 -->
<g id="edge42_Node000022_Node000027" class="edge">
<title>Node22&#45;&gt;Node27</title>
<g id="a_edge42_Node000022_Node000027"><a xlink:title=" ">
<path fill="none" stroke="#63b8ff" d="M397,-396.84C397,-390.22 397,-381.22 397,-373.02"/>
<polygon fill="#63b8ff" stroke="#63b8ff" points="400.5,-373.09 397,-363.09 393.5,-373.09 400.5,-373.09"/>
</a>
</g>
</g>
<!-- Node23&#45;&gt;Node9 -->
<g id="edge39_Node000023_Node000009" class="edge">
<title>Node23&#45;&gt;Node9</title>
<g id="a_edge39_Node000023_Node000009"><a xlink:title=" ">
<path fill="none" stroke="#63b8ff" d="M945.31,-115.99C888.13,-108.79 798.58,-96.24 711.82,-77.66"/>
<polygon fill="#63b8ff" stroke="#63b8ff" points="712.7,-74.27 702.18,-75.56 711.21,-81.11 712.7,-74.27"/>
</a>
</g>
</g>
<!-- Node23&#45;&gt;Node11 -->
<g id="edge41_Node000023_Node000011" class="edge">
<title>Node23&#45;&gt;Node11</title>
<g id="a_edge41_Node000023_Node000011"><a xlink:title=" ">
<path fill="none" stroke="#63b8ff" d="M951.8,-113.02C909.17,-104.79 847.11,-92.39 784.37,-77.96"/>
<polygon fill="#63b8ff" stroke="#63b8ff" points="785.49,-74.63 774.95,-75.78 783.91,-81.45 785.49,-74.63"/>
</a>
</g>
</g>
<!-- Node23&#45;&gt;Node14 -->
<g id="edge40_Node000023_Node000014" class="edge">
<title>Node23&#45;&gt;Node14</title>
<g id="a_edge40_Node000023_Node000014"><a xlink:title=" ">
<path fill="none" stroke="#63b8ff" d="M945.47,-117.51C851.27,-108.71 668.93,-91.04 585.86,-77.75"/>
<polygon fill="#63b8ff" stroke="#63b8ff" points="586.51,-74.32 576.07,-76.12 585.36,-81.22 586.51,-74.32"/>
</a>
</g>
</g>
<!-- Node24 -->
<g id="Node000024" class="node">
<title>Node24</title>
<g id="a_Node000024"><a xlink:title=" ">
<polygon fill="#e0e0e0" stroke="#999999" points="1065.88,-77.5 1028.12,-77.5 1028.12,-56.75 1065.88,-56.75 1065.88,-77.5"/>
<text xml:space="preserve" text-anchor="middle" x="1047" y="-64" font-family="Helvetica,sans-Serif" font-size="10.00">map</text>
</a>
</g>
</g>
<!-- Node23&#45;&gt;Node24 -->
<g id="edge36_Node000023_Node000024" class="edge">
<title>Node23&#45;&gt;Node24</title>
<g id="a_edge36_Node000023_Node000024"><a xlink:title=" ">
<path fill="none" stroke="#63b8ff" d="M1011.69,-113.09C1017.44,-105.77 1025.47,-95.54 1032.42,-86.69"/>
<polygon fill="#63b8ff" stroke="#63b8ff" points="1035.02,-89.05 1038.44,-79.02 1029.51,-84.72 1035.02,-89.05"/>
</a>
</g>
</g>
<!-- Node25 -->
<g id="Node000025" class="node">
<title>Node25</title>
<g id="a_Node000025"><a xlink:title=" ">
<polygon fill="#e0e0e0" stroke="#999999" points="1148,-77.5 1084,-77.5 1084,-56.75 1148,-56.75 1148,-77.5"/>
<text xml:space="preserve" text-anchor="middle" x="1116" y="-64" font-family="Helvetica,sans-Serif" font-size="10.00">stdexcept</text>
</a>
</g>
</g>
<!-- Node23&#45;&gt;Node25 -->
<g id="edge37_Node000023_Node000025" class="edge">
<title>Node23&#45;&gt;Node25</title>
<g id="a_edge37_Node000023_Node000025"><a xlink:title=" ">
<path fill="none" stroke="#63b8ff" d="M1024.02,-113.09C1041.22,-104.68 1066.28,-92.43 1085.9,-82.84"/>
<polygon fill="#63b8ff" stroke="#63b8ff" points="1087.34,-86.03 1094.79,-78.49 1084.27,-79.74 1087.34,-86.03"/>
</a>
</g>
</g>
<!-- Node26 -->
<g id="Node000026" class="node">
<title>Node26</title>
<g id="a_Node000026"><a xlink:title=" ">
<polygon fill="#e0e0e0" stroke="#999999" points="1010.38,-77.5 945.62,-77.5 945.62,-56.75 1010.38,-56.75 1010.38,-77.5"/>
<text xml:space="preserve" text-anchor="middle" x="978" y="-64" font-family="Helvetica,sans-Serif" font-size="10.00">functional</text>
</a>
</g>
</g>
<!-- Node23&#45;&gt;Node26 -->
<g id="edge38_Node000023_Node000026" class="edge">
<title>Node23&#45;&gt;Node26</title>
<g id="a_edge38_Node000023_Node000026"><a xlink:title=" ">
<path fill="none" stroke="#63b8ff" d="M999.35,-113.09C996.06,-106.16 991.53,-96.62 987.49,-88.11"/>
<polygon fill="#63b8ff" stroke="#63b8ff" points="990.71,-86.73 983.26,-79.2 984.39,-89.73 990.71,-86.73"/>
</a>
</g>
</g>
<!-- Node27&#45;&gt;Node3 -->
<g id="edge46_Node000027_Node000003" class="edge">
<title>Node27&#45;&gt;Node3</title>
<g id="a_edge46_Node000027_Node000003"><a xlink:title=" ">
<path fill="none" stroke="#63b8ff" d="M367.16,-341.32C335.97,-332.38 286.68,-318.25 250.81,-307.97"/>
<polygon fill="#63b8ff" stroke="#63b8ff" points="252.18,-304.72 241.6,-305.33 250.25,-311.45 252.18,-304.72"/>
</a>
</g>
</g>
<!-- Node27&#45;&gt;Node4 -->
<g id="edge44_Node000027_Node000004" class="edge">
<title>Node27&#45;&gt;Node4</title>
<g id="a_edge44_Node000027_Node000004"><a xlink:title=" ">
<path fill="none" stroke="#63b8ff" d="M383.19,-340.1C370.66,-331.12 351.79,-317.3 336,-304.5 316.34,-288.57 294.76,-269.35 279.81,-255.74"/>
<polygon fill="#63b8ff" stroke="#63b8ff" points="282.3,-253.27 272.56,-249.1 277.57,-258.43 282.3,-253.27"/>
</a>
</g>
</g>
<!-- Node27&#45;&gt;Node5 -->
<g id="edge47_Node000027_Node000005" class="edge">
<title>Node27&#45;&gt;Node5</title>
<g id="a_edge47_Node000027_Node000005"><a xlink:title=" ">
<path fill="none" stroke="#63b8ff" d="M402.71,-340.37C413.63,-322.19 437.68,-282.17 452.19,-258.02"/>
<polygon fill="#63b8ff" stroke="#63b8ff" points="455.18,-259.85 457.33,-249.47 449.18,-256.24 455.18,-259.85"/>
</a>
</g>
</g>
<!-- Node27&#45;&gt;Node8 -->
<g id="edge45_Node000027_Node000008" class="edge">
<title>Node27&#45;&gt;Node8</title>
<g id="a_edge45_Node000027_Node000008"><a xlink:title=" ">
<path fill="none" stroke="#63b8ff" d="M396.31,-340.21C393.91,-306.38 385.83,-192.86 382.48,-145.69"/>
<polygon fill="#63b8ff" stroke="#63b8ff" points="385.99,-145.74 381.79,-136.02 379.01,-146.24 385.99,-145.74"/>
</a>
</g>
</g>
<!-- Node27&#45;&gt;Node14 -->
<g id="edge53_Node000027_Node000014" class="edge">
<title>Node27&#45;&gt;Node14</title>
<g id="a_edge53_Node000027_Node000014"><a xlink:title=" ">
<path fill="none" stroke="#63b8ff" d="M389.31,-340.07C362.87,-305.14 280.5,-185.04 338,-113.5 358.2,-88.37 448.07,-76.34 502.21,-71.28"/>
<polygon fill="#63b8ff" stroke="#63b8ff" points="502.35,-74.78 512,-70.41 501.73,-67.81 502.35,-74.78"/>
</a>
</g>
</g>
<!-- Node27&#45;&gt;Node15 -->
<g id="edge43_Node000027_Node000015" class="edge">
<title>Node27&#45;&gt;Node15</title>
<g id="a_edge43_Node000027_Node000015"><a xlink:title=" ">
<path fill="none" stroke="#63b8ff" d="M426.5,-349.91C536.72,-349.25 918,-339.66 918,-238.38 918,-238.38 918,-238.38 918,-122.88 918,-90.13 906.14,-53.68 897.59,-31.64"/>
<polygon fill="#63b8ff" stroke="#63b8ff" points="900.85,-30.35 893.85,-22.4 894.36,-32.98 900.85,-30.35"/>
</a>
</g>
</g>
<!-- Node27&#45;&gt;Node19 -->
<g id="edge54_Node000027_Node000019" class="edge">
<title>Node27&#45;&gt;Node19</title>
<g id="a_edge54_Node000027_Node000019"><a xlink:title=" ">
<path fill="none" stroke="#63b8ff" d="M426.84,-348.05C494.73,-343.5 658.64,-330.12 707,-304.5 773.67,-269.18 816.23,-184.28 832.95,-145.2"/>
<polygon fill="#63b8ff" stroke="#63b8ff" points="836.15,-146.62 836.73,-136.04 829.68,-143.95 836.15,-146.62"/>
</a>
</g>
</g>
<!-- Node28 -->
<g id="Node000028" class="node">
<title>Node28</title>
<g id="a_Node000028"><a xlink:href="SingSub_8h.html" target="_top" xlink:title="Exact subtractions for singular/near&#45;singular triangle integrals.">
<polygon fill="white" stroke="#666666" points="698,-304.5 634,-304.5 634,-283.75 698,-283.75 698,-304.5"/>
<text xml:space="preserve" text-anchor="middle" x="666" y="-291" font-family="Helvetica,sans-Serif" font-size="10.00">SingSub.h</text>
</a>
</g>
</g>
<!-- Node27&#45;&gt;Node28 -->
<g id="edge48_Node000027_Node000028" class="edge">
<title>Node27&#45;&gt;Node28</title>
<g id="a_edge48_Node000027_Node000028"><a xlink:title=" ">
<path fill="none" stroke="#63b8ff" d="M426.82,-343.81C474.32,-334.14 567.43,-315.19 622.42,-304"/>
<polygon fill="#63b8ff" stroke="#63b8ff" points="622.96,-307.46 632.06,-302.03 621.56,-300.6 622.96,-307.46"/>
</a>
</g>
</g>
<!-- Node28&#45;&gt;Node5 -->
<g id="edge50_Node000028_Node000005" class="edge">
<title>Node28&#45;&gt;Node5</title>
<g id="a_edge50_Node000028_Node000005"><a xlink:title=" ">
<path fill="none" stroke="#63b8ff" d="M633.55,-284.33C599.54,-275.11 545.91,-260.58 508.09,-250.32"/>
<polygon fill="#63b8ff" stroke="#63b8ff" points="509.41,-247.06 498.84,-247.82 507.58,-253.81 509.41,-247.06"/>
</a>
</g>
</g>
<!-- Node28&#45;&gt;Node9 -->
<g id="edge49_Node000028_Node000009" class="edge">
<title>Node28&#45;&gt;Node9</title>
<g id="a_edge49_Node000028_Node000009"><a xlink:title=" ">
<path fill="none" stroke="#63b8ff" d="M695.18,-283.39C711.5,-276.28 730.43,-264.84 740,-247.75 769.15,-195.69 767.2,-166.61 740,-113.5 733.47,-100.75 721.51,-90.77 709.75,-83.45"/>
<polygon fill="#63b8ff" stroke="#63b8ff" points="711.78,-80.58 701.36,-78.68 708.32,-86.67 711.78,-80.58"/>
</a>
</g>
</g>
<!-- Node28&#45;&gt;Node13 -->
<g id="edge51_Node000028_Node000013" class="edge">
<title>Node28&#45;&gt;Node13</title>
<g id="a_edge51_Node000028_Node000013"><a xlink:title=" ">
<path fill="none" stroke="#63b8ff" d="M666,-283.6C666,-257.23 666,-182.83 666,-146.03"/>
<polygon fill="#63b8ff" stroke="#63b8ff" points="669.5,-146.23 666,-136.23 662.5,-146.23 669.5,-146.23"/>
</a>
</g>
</g>
<!-- Node28&#45;&gt;Node14 -->
<g id="edge52_Node000028_Node000014" class="edge">
<title>Node28&#45;&gt;Node14</title>
<g id="a_edge52_Node000028_Node000014"><a xlink:title=" ">
<path fill="none" stroke="#63b8ff" d="M673.14,-283.41C693.5,-254.42 747.83,-167.24 707,-113.5 703.22,-108.53 632.6,-90.15 585.56,-78.37"/>
<polygon fill="#63b8ff" stroke="#63b8ff" points="586.48,-74.99 575.93,-75.96 584.78,-81.78 586.48,-74.99"/>
</a>
</g>
</g>
</g>
</svg>

<g id="navigator" transform="translate(0 0)" fill="#404254">
  <rect fill="#f2f5e9" fill-opacity="0.5" stroke="#606060" stroke-width=".5" x="0" y="0" width="60" height="60"/>
  <use id="zoomplus" xlink:href="#zoomPlus" x="17" y="9" onmousedown="handleZoom(evt,'in')"/>
  <use id="zoomminus" xlink:href="#zoomMin" x="42" y="9" onmousedown="handleZoom(evt,'out')"/>
  <use id="reset" xlink:href="#resetDef" x="30" y="36" onmousedown="handleReset()"/>
   <use id="arrowup" xlink:href="#arrowUp" x="0" y="0" onmousedown="handlePan(0,-1)"/>
  <use id="arrowright" xlink:href="#arrowRight" x="0" y="0" onmousedown="handlePan(1,0)"/>
  <use id="arrowdown" xlink:href="#arrowDown" x="0" y="0" onmousedown="handlePan(0,1)"/>
  <use id="arrowleft" xlink:href="#arrowLeft" x="0" y="0" onmousedown="handlePan(-1,0)"/>
</g>
<svg viewBox="0 0 15 15" width="100%" height="30px" preserveAspectRatio="xMaxYMin meet">
 <g id="arrow_out" transform="scale(0.3 0.3)">
  <a xlink:href="Gaussian_8h__incl_org.svg" target="_base">
   <rect id="button" ry="5" rx="5" y="6" x="6" height="38" width="38"
        fill="#f2f5e9" fill-opacity="0.5" stroke="#606060" stroke-width="1.0"/>
   <path id="arrow"
     d="M 11.500037,31.436501 C 11.940474,20.09759 22.043105,11.32322 32.158766,21.979434 L 37.068811,17.246167 C 37.068811,17.246167 37.088388,32 37.088388,32 L 22.160133,31.978069 C 22.160133,31.978069 26.997745,27.140456 26.997745,27.140456 C 18.528582,18.264221 13.291696,25.230495 11.500037,31.436501 z"
     style="fill:#404040;"/>
  </a>
 </g>
</svg>

<style type='text/css'>
<![CDATA[
[data-mouse-over-selected='false'] { opacity: 0.7; }
[data-mouse-over-selected='true']  { opacity: 1.0; }
]]>
</style>
<script type="application/ecmascript"><![CDATA[
document.addEventListener('DOMContentLoaded', (event) => {
  highlightEdges();
  highlightAdjacentNodes();
});
]]></script>
</svg>
