<?xml version="1.0" encoding="UTF-8" standalone="no"?>
<!DOCTYPE svg PUBLIC "-//W3C//DTD SVG 1.1//EN"
 "http://www.w3.org/Graphics/SVG/1.1/DTD/svg11.dtd">
<!-- Generated by graphviz version 13.1.2 (20250809.0930)
 -->
<!-- Title: GaussQuad.h Pages: 1 -->
<!--zoomable 313 -->

<svg id="main" version="1.1" xmlns="http://www.w3.org/2000/svg" xmlns:xlink="http://www.w3.org/1999/xlink" xml:space="preserve" onload="init(evt)">

<style type="text/css"><![CDATA[
.node, .edge {opacity: 0.7;}
.node.selected, .edge.selected {opacity: 1;}
.edge:hover path { stroke: red; }
.edge:hover polygon { stroke: red; fill: red; }
]]></style>

<defs>
  <circle id="rim" cx="0" cy="0" r="7"/>
  <circle id="rim2" cx="0" cy="0" r="3.5"/>
  <g id="zoomPlus">
    <use xlink:href="#rim" fill="#404040"><set attributeName="fill" to="#808080" begin="zoomplus.mouseover" end="zoomplus.mouseout"/></use>
    <path d="M-4,0h8M0,-4v8" fill="none" stroke="white" stroke-width="1.5" pointer-events="none"/>
  </g>
  <g id="zoomMin">
    <use xlink:href="#rim" fill="#404040"><set attributeName="fill" to="#808080" begin="zoomminus.mouseover" end="zoomminus.mouseout"/></use>
    <path d="M-4,0h8" fill="none" stroke="white" stroke-width="1.5" pointer-events="none"/>
  </g>
  <g id="arrowUp" transform="translate(30 24)">
    <use xlink:href="#rim"/>
    <path pointer-events="none" fill="none" stroke="white" stroke-width="1.5" d="M0,-3.0v7 M-2.5,-0.5L0,-3.0L2.5,-0.5"/>
  </g>
  <g id="arrowRight" transform="rotate(90) translate(36 -43)">
    <use xlink:href="#rim"/>
    <path pointer-events="none" fill="none" stroke="white" stroke-width="1.5" d="M0,-3.0v7 M-2.5,-0.5L0,-3.0L2.5,-0.5"/>
  </g>
  <g id="arrowDown" transform="rotate(180) translate(-30 -48)">
    <use xlink:href="#rim"/>
    <path pointer-events="none" fill="none" stroke="white" stroke-width="1.5" d="M0,-3.0v7 M-2.5,-0.5L0,-3.0L2.5,-0.5"/>
  </g>
  <g id="arrowLeft" transform="rotate(270) translate(-36 17)">
    <use xlink:href="#rim"/>
    <path pointer-events="none" fill="none" stroke="white" stroke-width="1.5" d="M0,-3.0v7 M-2.5,-0.5L0,-3.0L2.5,-0.5"/>
  </g>
  <g id="resetDef">
    <use xlink:href="#rim2" fill="#404040"><set attributeName="fill" to="#808080" begin="reset.mouseover" end="reset.mouseout"/></use>
  </g>
</defs>
<script type="application/ecmascript">
var viewWidth = 737;
var viewHeight = 313;
var sectionId = 'dynsection-0';
</script>
<script type="application/ecmascript" xlink:href="svg.min.js"/>
<svg id="graph" class="graph">
<g id="viewport">
<title>GaussQuad.h</title>
<!-- Node1 -->
<g id="Node000001" class="node">
<title>Node1</title>
<g id="a_Node000001"><a xlink:title="Gaussian quadrature helpers for Green&#39;s functions and incident fields.">
<polygon fill="#999999" stroke="#666666" points="212.62,-304.5 132.12,-304.5 132.12,-283.75 212.62,-283.75 212.62,-304.5"/>
<text xml:space="preserve" text-anchor="middle" x="172.38" y="-291" font-family="Helvetica,sans-Serif" font-size="10.00">GaussQuad.h</text>
</a>
</g>
</g>
<!-- Node2 -->
<g id="Node000002" class="node">
<title>Node2</title>
<g id="a_Node000002"><a xlink:title=" ">
<polygon fill="#e0e0e0" stroke="#999999" points="46.75,-247.75 0,-247.75 0,-227 46.75,-227 46.75,-247.75"/>
<text xml:space="preserve" text-anchor="middle" x="23.38" y="-234.25" font-family="Helvetica,sans-Serif" font-size="10.00">cmath</text>
</a>
</g>
</g>
<!-- Node1&#45;&gt;Node2 -->
<g id="edge1_Node000001_Node000002" class="edge">
<title>Node1&#45;&gt;Node2</title>
<g id="a_edge1_Node000001_Node000002"><a xlink:title=" ">
<path fill="none" stroke="#63b8ff" d="M145.74,-283.34C121.02,-274.25 84.11,-260.69 57.29,-250.84"/>
<polygon fill="#63b8ff" stroke="#63b8ff" points="58.85,-247.68 48.26,-247.52 56.44,-254.25 58.85,-247.68"/>
</a>
</g>
</g>
<!-- Node3 -->
<g id="Node000003" class="node">
<title>Node3</title>
<g id="a_Node000003"><a xlink:title=" ">
<polygon fill="#e0e0e0" stroke="#999999" points="632.12,-77.5 572.62,-77.5 572.62,-56.75 632.12,-56.75 632.12,-77.5"/>
<text xml:space="preserve" text-anchor="middle" x="602.38" y="-64" font-family="Helvetica,sans-Serif" font-size="10.00">iostream</text>
</a>
</g>
</g>
<!-- Node1&#45;&gt;Node3 -->
<g id="edge2_Node000001_Node000003" class="edge">
<title>Node1&#45;&gt;Node3</title>
<g id="a_edge2_Node000001_Node000003"><a xlink:title=" ">
<path fill="none" stroke="#63b8ff" d="M212.79,-292.4C301.46,-288.34 512.39,-264.76 603.38,-134.25 612.52,-121.14 611.42,-102.73 608.52,-88.67"/>
<polygon fill="#63b8ff" stroke="#63b8ff" points="611.95,-87.96 606.09,-79.13 605.16,-89.69 611.95,-87.96"/>
</a>
</g>
</g>
<!-- Node4 -->
<g id="Node000004" class="node">
<title>Node4</title>
<g id="a_Node000004"><a xlink:href="RWGFun_8h.html" target="_top" xlink:title="Header for the RWGFun class.">
<polygon fill="white" stroke="#666666" points="205.5,-247.75 139.25,-247.75 139.25,-227 205.5,-227 205.5,-247.75"/>
<text xml:space="preserve" text-anchor="middle" x="172.38" y="-234.25" font-family="Helvetica,sans-Serif" font-size="10.00">RWGFun.h</text>
</a>
</g>
</g>
<!-- Node1&#45;&gt;Node4 -->
<g id="edge3_Node000001_Node000004" class="edge">
<title>Node1&#45;&gt;Node4</title>
<g id="a_edge3_Node000001_Node000004"><a xlink:title=" ">
<path fill="none" stroke="#63b8ff" d="M172.38,-283.34C172.38,-276.72 172.38,-267.72 172.38,-259.52"/>
<polygon fill="#63b8ff" stroke="#63b8ff" points="175.88,-259.59 172.38,-249.59 168.88,-259.59 175.88,-259.59"/>
</a>
</g>
</g>
<!-- Node13 -->
<g id="Node000013" class="node">
<title>Node13</title>
<g id="a_Node000013"><a xlink:href="globals_8h.html" target="_top" xlink:title="Global numerical constants, fundamental types, and simple macros.">
<polygon fill="white" stroke="#666666" points="215.5,-77.5 155.25,-77.5 155.25,-56.75 215.5,-56.75 215.5,-77.5"/>
<text xml:space="preserve" text-anchor="middle" x="185.38" y="-64" font-family="Helvetica,sans-Serif" font-size="10.00">globals.h</text>
</a>
</g>
</g>
<!-- Node1&#45;&gt;Node13 -->
<g id="edge28_Node000001_Node000013" class="edge">
<title>Node1&#45;&gt;Node13</title>
<g id="a_edge28_Node000001_Node000013"><a xlink:title=" ">
<path fill="none" stroke="#63b8ff" d="M159.63,-283.5C149.74,-275.22 136.69,-262.33 130.38,-247.75 106.63,-192.9 95.13,-166.7 122.38,-113.5 128.9,-100.75 140.86,-90.77 152.62,-83.45"/>
<polygon fill="#63b8ff" stroke="#63b8ff" points="154.05,-86.67 161.02,-78.68 150.59,-80.58 154.05,-86.67"/>
</a>
</g>
</g>
<!-- Node20 -->
<g id="Node000020" class="node">
<title>Node20</title>
<g id="a_Node000020"><a xlink:href="quadrature_8h.html" target="_top" xlink:title="Declarations of Dunavant (triangle) and Gauss–Legendre (1D) quadrature rules.">
<polygon fill="white" stroke="#666666" points="728.5,-247.75 650.25,-247.75 650.25,-227 728.5,-227 728.5,-247.75"/>
<text xml:space="preserve" text-anchor="middle" x="689.38" y="-234.25" font-family="Helvetica,sans-Serif" font-size="10.00">quadrature.h</text>
</a>
</g>
</g>
<!-- Node1&#45;&gt;Node20 -->
<g id="edge29_Node000001_Node000020" class="edge">
<title>Node1&#45;&gt;Node20</title>
<g id="a_edge29_Node000001_Node000020"><a xlink:title=" ">
<path fill="none" stroke="#63b8ff" d="M212.84,-290.23C293.6,-284.22 480.41,-269.14 636.38,-247.75 637.05,-247.66 637.74,-247.56 638.43,-247.46"/>
<polygon fill="#63b8ff" stroke="#63b8ff" points="638.93,-250.93 648.28,-245.95 637.87,-244.01 638.93,-250.93"/>
</a>
</g>
</g>
<!-- Node5 -->
<g id="Node000005" class="node">
<title>Node5</title>
<g id="a_Node000005"><a xlink:href="SurfaceMesh_8h.html" target="_top" xlink:title="Declaration of the SurfaceMesh class and mesh edge struct.">
<polygon fill="white" stroke="#666666" points="352.38,-191 264.38,-191 264.38,-170.25 352.38,-170.25 352.38,-191"/>
<text xml:space="preserve" text-anchor="middle" x="308.38" y="-177.5" font-family="Helvetica,sans-Serif" font-size="10.00">SurfaceMesh.h</text>
</a>
</g>
</g>
<!-- Node4&#45;&gt;Node5 -->
<g id="edge4_Node000004_Node000005" class="edge">
<title>Node4&#45;&gt;Node5</title>
<g id="a_edge4_Node000004_Node000005"><a xlink:title=" ">
<path fill="none" stroke="#63b8ff" d="M196.69,-226.59C218.16,-217.94 249.7,-205.25 273.79,-195.55"/>
<polygon fill="#63b8ff" stroke="#63b8ff" points="274.9,-198.88 282.87,-191.89 272.28,-192.38 274.9,-198.88"/>
</a>
</g>
</g>
<!-- Node12 -->
<g id="Node000012" class="node">
<title>Node12</title>
<g id="a_Node000012"><a xlink:href="Triangle_8h.html" target="_top" xlink:title="Declaration of the Triangle class (surface element with cached geometry).">
<polygon fill="white" stroke="#666666" points="204,-134.25 140.75,-134.25 140.75,-113.5 204,-113.5 204,-134.25"/>
<text xml:space="preserve" text-anchor="middle" x="172.38" y="-120.75" font-family="Helvetica,sans-Serif" font-size="10.00">Triangle.h</text>
</a>
</g>
</g>
<!-- Node4&#45;&gt;Node12 -->
<g id="edge26_Node000004_Node000012" class="edge">
<title>Node4&#45;&gt;Node12</title>
<g id="a_edge26_Node000004_Node000012"><a xlink:title=" ">
<path fill="none" stroke="#63b8ff" d="M172.38,-226.87C172.38,-209.1 172.38,-170.47 172.38,-146.18"/>
<polygon fill="#63b8ff" stroke="#63b8ff" points="175.88,-146.19 172.38,-136.19 168.88,-146.19 175.88,-146.19"/>
</a>
</g>
</g>
<!-- Node4&#45;&gt;Node13 -->
<g id="edge27_Node000004_Node000013" class="edge">
<title>Node4&#45;&gt;Node13</title>
<g id="a_edge27_Node000004_Node000013"><a xlink:title=" ">
<path fill="none" stroke="#63b8ff" d="M164.12,-226.53C147.38,-205.29 112.57,-153.86 131.38,-113.5 136.9,-101.64 147.22,-91.78 157.37,-84.31"/>
<polygon fill="#63b8ff" stroke="#63b8ff" points="159.3,-87.23 165.63,-78.74 155.38,-81.42 159.3,-87.23"/>
</a>
</g>
</g>
<!-- Node6 -->
<g id="Node000006" class="node">
<title>Node6</title>
<g id="a_Node000006"><a xlink:title=" ">
<polygon fill="#e0e0e0" stroke="#999999" points="531.88,-134.25 500.88,-134.25 500.88,-113.5 531.88,-113.5 531.88,-134.25"/>
<text xml:space="preserve" text-anchor="middle" x="516.38" y="-120.75" font-family="Helvetica,sans-Serif" font-size="10.00">set</text>
</a>
</g>
</g>
<!-- Node5&#45;&gt;Node6 -->
<g id="edge5_Node000005_Node000006" class="edge">
<title>Node5&#45;&gt;Node6</title>
<g id="a_edge5_Node000005_Node000006"><a xlink:title=" ">
<path fill="none" stroke="#63b8ff" d="M352.69,-170.4C387.83,-162.71 438.3,-150.83 489.81,-134.79"/>
<polygon fill="#63b8ff" stroke="#63b8ff" points="490.55,-138.23 499.03,-131.88 488.44,-131.56 490.55,-138.23"/>
</a>
</g>
</g>
<!-- Node7 -->
<g id="Node000007" class="node">
<title>Node7</title>
<g id="a_Node000007"><a xlink:title=" ">
<polygon fill="#e0e0e0" stroke="#999999" points="594.62,-134.25 550.12,-134.25 550.12,-113.5 594.62,-113.5 594.62,-134.25"/>
<text xml:space="preserve" text-anchor="middle" x="572.38" y="-120.75" font-family="Helvetica,sans-Serif" font-size="10.00">utility</text>
</a>
</g>
</g>
<!-- Node5&#45;&gt;Node7 -->
<g id="edge6_Node000005_Node000007" class="edge">
<title>Node5&#45;&gt;Node7</title>
<g id="a_edge6_Node000005_Node000007"><a xlink:title=" ">
<path fill="none" stroke="#63b8ff" d="M352.47,-172.41C397.24,-164.78 468.76,-151.76 538.96,-134.67"/>
<polygon fill="#63b8ff" stroke="#63b8ff" points="539.42,-138.16 548.29,-132.37 537.74,-131.36 539.42,-138.16"/>
</a>
</g>
</g>
<!-- Node8 -->
<g id="Node000008" class="node">
<title>Node8</title>
<g id="a_Node000008"><a xlink:title=" ">
<polygon fill="#e0e0e0" stroke="#999999" points="293.75,-77.5 247,-77.5 247,-56.75 293.75,-56.75 293.75,-77.5"/>
<text xml:space="preserve" text-anchor="middle" x="270.38" y="-64" font-family="Helvetica,sans-Serif" font-size="10.00">vector</text>
</a>
</g>
</g>
<!-- Node5&#45;&gt;Node8 -->
<g id="edge7_Node000005_Node000008" class="edge">
<title>Node5&#45;&gt;Node8</title>
<g id="a_edge7_Node000005_Node000008"><a xlink:title=" ">
<path fill="none" stroke="#63b8ff" d="M304.27,-169.98C300.46,-160.85 294.73,-146.73 290.38,-134.25 285.05,-118.99 279.79,-101.47 276,-88.31"/>
<polygon fill="#63b8ff" stroke="#63b8ff" points="279.48,-87.75 273.39,-79.08 272.75,-89.65 279.48,-87.75"/>
</a>
</g>
</g>
<!-- Node9 -->
<g id="Node000009" class="node">
<title>Node9</title>
<g id="a_Node000009"><a xlink:href="JobParser_8h.html" target="_top" xlink:title="Lightweight XML&#45;like tag parser for the solver job file.">
<polygon fill="white" stroke="#666666" points="483,-134.25 413.75,-134.25 413.75,-113.5 483,-113.5 483,-134.25"/>
<text xml:space="preserve" text-anchor="middle" x="448.38" y="-120.75" font-family="Helvetica,sans-Serif" font-size="10.00">JobParser.h</text>
</a>
</g>
</g>
<!-- Node5&#45;&gt;Node9 -->
<g id="edge8_Node000005_Node000009" class="edge">
<title>Node5&#45;&gt;Node9</title>
<g id="a_edge8_Node000005_Node000009"><a xlink:title=" ">
<path fill="none" stroke="#63b8ff" d="M333.4,-169.84C355.6,-161.16 388.26,-148.38 413.11,-138.67"/>
<polygon fill="#63b8ff" stroke="#63b8ff" points="414.11,-142.03 422.15,-135.13 411.56,-135.51 414.11,-142.03"/>
</a>
</g>
</g>
<!-- Node5&#45;&gt;Node12 -->
<g id="edge13_Node000005_Node000012" class="edge">
<title>Node5&#45;&gt;Node12</title>
<g id="a_edge13_Node000005_Node000012"><a xlink:title=" ">
<path fill="none" stroke="#63b8ff" d="M284.06,-169.84C262.59,-161.19 231.05,-148.5 206.96,-138.8"/>
<polygon fill="#63b8ff" stroke="#63b8ff" points="208.47,-135.63 197.88,-135.14 205.85,-142.13 208.47,-135.63"/>
</a>
</g>
</g>
<!-- Node5&#45;&gt;Node13 -->
<g id="edge20_Node000005_Node000013" class="edge">
<title>Node5&#45;&gt;Node13</title>
<g id="a_edge20_Node000005_Node000013"><a xlink:title=" ">
<path fill="none" stroke="#63b8ff" d="M297.89,-170.12C277.2,-151.37 230.88,-109.38 204.58,-85.53"/>
<polygon fill="#63b8ff" stroke="#63b8ff" points="207.07,-83.06 197.31,-78.94 202.37,-88.25 207.07,-83.06"/>
</a>
</g>
</g>
<!-- Node18 -->
<g id="Node000018" class="node">
<title>Node18</title>
<g id="a_Node000018"><a xlink:href="mathFunctions_8h.html" target="_top" xlink:title="Header file of the class that provides auxiliary mathematical functionalities for the SIE solver.">
<polygon fill="white" stroke="#666666" points="395.88,-134.25 298.88,-134.25 298.88,-113.5 395.88,-113.5 395.88,-134.25"/>
<text xml:space="preserve" text-anchor="middle" x="347.38" y="-120.75" font-family="Helvetica,sans-Serif" font-size="10.00">mathFunctions.h</text>
</a>
</g>
</g>
<!-- Node5&#45;&gt;Node18 -->
<g id="edge21_Node000005_Node000018" class="edge">
<title>Node5&#45;&gt;Node18</title>
<g id="a_edge21_Node000005_Node000018"><a xlink:title=" ">
<path fill="none" stroke="#63b8ff" d="M315.35,-169.84C320.51,-162.6 327.69,-152.51 333.95,-143.72"/>
<polygon fill="#63b8ff" stroke="#63b8ff" points="336.63,-145.99 339.58,-135.81 330.93,-141.93 336.63,-145.99"/>
</a>
</g>
</g>
<!-- Node9&#45;&gt;Node3 -->
<g id="edge10_Node000009_Node000003" class="edge">
<title>Node9&#45;&gt;Node3</title>
<g id="a_edge10_Node000009_Node000003"><a xlink:title=" ">
<path fill="none" stroke="#63b8ff" d="M475.91,-113.09C500.47,-104.36 536.67,-91.48 564.06,-81.75"/>
<polygon fill="#63b8ff" stroke="#63b8ff" points="565.15,-85.08 573.4,-78.43 562.8,-78.48 565.15,-85.08"/>
</a>
</g>
</g>
<!-- Node9&#45;&gt;Node8 -->
<g id="edge12_Node000009_Node000008" class="edge">
<title>Node9&#45;&gt;Node8</title>
<g id="a_edge12_Node000009_Node000008"><a xlink:title=" ">
<path fill="none" stroke="#63b8ff" d="M416.55,-113.09C385.15,-103.43 337.29,-88.71 304.97,-78.77"/>
<polygon fill="#63b8ff" stroke="#63b8ff" points="306.27,-75.5 295.68,-75.91 304.21,-82.19 306.27,-75.5"/>
</a>
</g>
</g>
<!-- Node10 -->
<g id="Node000010" class="node">
<title>Node10</title>
<g id="a_Node000010"><a xlink:title=" ">
<polygon fill="#e0e0e0" stroke="#999999" points="473.5,-77.5 419.25,-77.5 419.25,-56.75 473.5,-56.75 473.5,-77.5"/>
<text xml:space="preserve" text-anchor="middle" x="446.38" y="-64" font-family="Helvetica,sans-Serif" font-size="10.00">fstream</text>
</a>
</g>
</g>
<!-- Node9&#45;&gt;Node10 -->
<g id="edge9_Node000009_Node000010" class="edge">
<title>Node9&#45;&gt;Node10</title>
<g id="a_edge9_Node000009_Node000010"><a xlink:title=" ">
<path fill="none" stroke="#63b8ff" d="M448.02,-113.09C447.78,-106.47 447.45,-97.47 447.15,-89.27"/>
<polygon fill="#63b8ff" stroke="#63b8ff" points="450.65,-89.21 446.78,-79.34 443.65,-89.46 450.65,-89.21"/>
</a>
</g>
</g>
<!-- Node11 -->
<g id="Node000011" class="node">
<title>Node11</title>
<g id="a_Node000011"><a xlink:title=" ">
<polygon fill="#e0e0e0" stroke="#999999" points="535.25,-77.5 491.5,-77.5 491.5,-56.75 535.25,-56.75 535.25,-77.5"/>
<text xml:space="preserve" text-anchor="middle" x="513.38" y="-64" font-family="Helvetica,sans-Serif" font-size="10.00">string</text>
</a>
</g>
</g>
<!-- Node9&#45;&gt;Node11 -->
<g id="edge11_Node000009_Node000011" class="edge">
<title>Node9&#45;&gt;Node11</title>
<g id="a_edge11_Node000009_Node000011"><a xlink:title=" ">
<path fill="none" stroke="#63b8ff" d="M460,-113.09C469.24,-105.3 482.39,-94.22 493.32,-85.01"/>
<polygon fill="#63b8ff" stroke="#63b8ff" points="495.3,-87.92 500.7,-78.8 490.79,-82.57 495.3,-87.92"/>
</a>
</g>
</g>
<!-- Node12&#45;&gt;Node8 -->
<g id="edge14_Node000012_Node000008" class="edge">
<title>Node12&#45;&gt;Node8</title>
<g id="a_edge14_Node000012_Node000008"><a xlink:title=" ">
<path fill="none" stroke="#63b8ff" d="M189.9,-113.09C204.67,-104.83 226.06,-92.88 243.07,-83.38"/>
<polygon fill="#63b8ff" stroke="#63b8ff" points="244.66,-86.5 251.68,-78.57 241.25,-80.39 244.66,-86.5"/>
</a>
</g>
</g>
<!-- Node12&#45;&gt;Node13 -->
<g id="edge15_Node000012_Node000013" class="edge">
<title>Node12&#45;&gt;Node13</title>
<g id="a_edge15_Node000012_Node000013"><a xlink:title=" ">
<path fill="none" stroke="#63b8ff" d="M174.7,-113.09C176.29,-106.39 178.46,-97.26 180.42,-88.98"/>
<polygon fill="#63b8ff" stroke="#63b8ff" points="183.82,-89.84 182.72,-79.3 177.01,-88.22 183.82,-89.84"/>
</a>
</g>
</g>
<!-- Node14 -->
<g id="Node000014" class="node">
<title>Node14</title>
<g id="a_Node000014"><a xlink:title=" ">
<polygon fill="#e0e0e0" stroke="#999999" points="324.88,-20.75 251.88,-20.75 251.88,0 324.88,0 324.88,-20.75"/>
<text xml:space="preserve" text-anchor="middle" x="288.38" y="-7.25" font-family="Helvetica,sans-Serif" font-size="10.00">blitz/array.h</text>
</a>
</g>
</g>
<!-- Node13&#45;&gt;Node14 -->
<g id="edge16_Node000013_Node000014" class="edge">
<title>Node13&#45;&gt;Node14</title>
<g id="a_edge16_Node000013_Node000014"><a xlink:title=" ">
<path fill="none" stroke="#63b8ff" d="M203.79,-56.34C219.46,-48.01 242.22,-35.91 260.19,-26.36"/>
<polygon fill="#63b8ff" stroke="#63b8ff" points="261.6,-29.57 268.78,-21.79 258.31,-23.39 261.6,-29.57"/>
</a>
</g>
</g>
<!-- Node15 -->
<g id="Node000015" class="node">
<title>Node15</title>
<g id="a_Node000015"><a xlink:title=" ">
<polygon fill="#e0e0e0" stroke="#999999" points="118.88,-20.75 27.88,-20.75 27.88,0 118.88,0 118.88,-20.75"/>
<text xml:space="preserve" text-anchor="middle" x="73.38" y="-7.25" font-family="Helvetica,sans-Serif" font-size="10.00">blitz/tinyvec2.h</text>
</a>
</g>
</g>
<!-- Node13&#45;&gt;Node15 -->
<g id="edge17_Node000013_Node000015" class="edge">
<title>Node13&#45;&gt;Node15</title>
<g id="a_edge17_Node000013_Node000015"><a xlink:title=" ">
<path fill="none" stroke="#63b8ff" d="M165.35,-56.34C148.15,-47.93 123.1,-35.68 103.48,-26.09"/>
<polygon fill="#63b8ff" stroke="#63b8ff" points="105.11,-22.99 94.58,-21.74 102.03,-29.28 105.11,-22.99"/>
</a>
</g>
</g>
<!-- Node16 -->
<g id="Node000016" class="node">
<title>Node16</title>
<g id="a_Node000016"><a xlink:title=" ">
<polygon fill="#e0e0e0" stroke="#999999" points="233.5,-20.75 137.25,-20.75 137.25,0 233.5,0 233.5,-20.75"/>
<text xml:space="preserve" text-anchor="middle" x="185.38" y="-7.25" font-family="Helvetica,sans-Serif" font-size="10.00">blitz/tvecglobs.h</text>
</a>
</g>
</g>
<!-- Node13&#45;&gt;Node16 -->
<g id="edge18_Node000013_Node000016" class="edge">
<title>Node13&#45;&gt;Node16</title>
<g id="a_edge18_Node000013_Node000016"><a xlink:title=" ">
<path fill="none" stroke="#63b8ff" d="M185.38,-56.34C185.38,-49.72 185.38,-40.72 185.38,-32.52"/>
<polygon fill="#63b8ff" stroke="#63b8ff" points="188.88,-32.59 185.38,-22.59 181.88,-32.59 188.88,-32.59"/>
</a>
</g>
</g>
<!-- Node17 -->
<g id="Node000017" class="node">
<title>Node17</title>
<g id="a_Node000017"><a xlink:title=" ">
<polygon fill="#e0e0e0" stroke="#999999" points="410.38,-20.75 352.38,-20.75 352.38,0 410.38,0 410.38,-20.75"/>
<text xml:space="preserve" text-anchor="middle" x="381.38" y="-7.25" font-family="Helvetica,sans-Serif" font-size="10.00">complex</text>
</a>
</g>
</g>
<!-- Node13&#45;&gt;Node17 -->
<g id="edge19_Node000013_Node000017" class="edge">
<title>Node13&#45;&gt;Node17</title>
<g id="a_edge19_Node000013_Node000017"><a xlink:title=" ">
<path fill="none" stroke="#63b8ff" d="M216,-57.57C249.66,-48.17 303.88,-33.02 341,-22.65"/>
<polygon fill="#63b8ff" stroke="#63b8ff" points="341.78,-26.07 350.47,-20.01 339.9,-19.33 341.78,-26.07"/>
</a>
</g>
</g>
<!-- Node18&#45;&gt;Node8 -->
<g id="edge24_Node000018_Node000008" class="edge">
<title>Node18&#45;&gt;Node8</title>
<g id="a_edge24_Node000018_Node000008"><a xlink:title=" ">
<path fill="none" stroke="#63b8ff" d="M333.61,-113.09C322.44,-105.15 306.46,-93.78 293.35,-84.46"/>
<polygon fill="#63b8ff" stroke="#63b8ff" points="295.43,-81.65 285.26,-78.71 291.38,-87.35 295.43,-81.65"/>
</a>
</g>
</g>
<!-- Node18&#45;&gt;Node13 -->
<g id="edge25_Node000018_Node000013" class="edge">
<title>Node18&#45;&gt;Node13</title>
<g id="a_edge25_Node000018_Node000013"><a xlink:title=" ">
<path fill="none" stroke="#63b8ff" d="M318.41,-113.09C292.35,-104.28 253.81,-91.25 224.92,-81.49"/>
<polygon fill="#63b8ff" stroke="#63b8ff" points="226.39,-78.29 215.79,-78.41 224.15,-84.92 226.39,-78.29"/>
</a>
</g>
</g>
<!-- Node18&#45;&gt;Node17 -->
<g id="edge23_Node000018_Node000017" class="edge">
<title>Node18&#45;&gt;Node17</title>
<g id="a_edge23_Node000018_Node000017"><a xlink:title=" ">
<path fill="none" stroke="#63b8ff" d="M353.72,-113.21C359.27,-104.31 367.08,-90.53 371.38,-77.5 376.22,-62.79 378.73,-45.46 380.03,-32.23"/>
<polygon fill="#63b8ff" stroke="#63b8ff" points="383.49,-32.78 380.81,-22.53 376.52,-32.22 383.49,-32.78"/>
</a>
</g>
</g>
<!-- Node19 -->
<g id="Node000019" class="node">
<title>Node19</title>
<g id="a_Node000019"><a xlink:title=" ">
<polygon fill="#e0e0e0" stroke="#999999" points="362.62,-77.5 312.12,-77.5 312.12,-56.75 362.62,-56.75 362.62,-77.5"/>
<text xml:space="preserve" text-anchor="middle" x="337.38" y="-64" font-family="Helvetica,sans-Serif" font-size="10.00">math.h</text>
</a>
</g>
</g>
<!-- Node18&#45;&gt;Node19 -->
<g id="edge22_Node000018_Node000019" class="edge">
<title>Node18&#45;&gt;Node19</title>
<g id="a_edge22_Node000018_Node000019"><a xlink:title=" ">
<path fill="none" stroke="#63b8ff" d="M345.59,-113.09C344.36,-106.39 342.7,-97.26 341.18,-88.98"/>
<polygon fill="#63b8ff" stroke="#63b8ff" points="344.66,-88.53 339.42,-79.32 337.77,-89.78 344.66,-88.53"/>
</a>
</g>
</g>
</g>
</svg>

<g id="navigator" transform="translate(0 0)" fill="#404254">
  <rect fill="#f2f5e9" fill-opacity="0.5" stroke="#606060" stroke-width=".5" x="0" y="0" width="60" height="60"/>
  <use id="zoomplus" xlink:href="#zoomPlus" x="17" y="9" onmousedown="handleZoom(evt,'in')"/>
  <use id="zoomminus" xlink:href="#zoomMin" x="42" y="9" onmousedown="handleZoom(evt,'out')"/>
  <use id="reset" xlink:href="#resetDef" x="30" y="36" onmousedown="handleReset()"/>
   <use id="arrowup" xlink:href="#arrowUp" x="0" y="0" onmousedown="handlePan(0,-1)"/>
  <use id="arrowright" xlink:href="#arrowRight" x="0" y="0" onmousedown="handlePan(1,0)"/>
  <use id="arrowdown" xlink:href="#arrowDown" x="0" y="0" onmousedown="handlePan(0,1)"/>
  <use id="arrowleft" xlink:href="#arrowLeft" x="0" y="0" onmousedown="handlePan(-1,0)"/>
</g>
<svg viewBox="0 0 15 15" width="100%" height="30px" preserveAspectRatio="xMaxYMin meet">
 <g id="arrow_out" transform="scale(0.3 0.3)">
  <a xlink:href="GaussQuad_8h__incl_org.svg" target="_base">
   <rect id="button" ry="5" rx="5" y="6" x="6" height="38" width="38"
        fill="#f2f5e9" fill-opacity="0.5" stroke="#606060" stroke-width="1.0"/>
   <path id="arrow"
     d="M 11.500037,31.436501 C 11.940474,20.09759 22.043105,11.32322 32.158766,21.979434 L 37.068811,17.246167 C 37.068811,17.246167 37.088388,32 37.088388,32 L 22.160133,31.978069 C 22.160133,31.978069 26.997745,27.140456 26.997745,27.140456 C 18.528582,18.264221 13.291696,25.230495 11.500037,31.436501 z"
     style="fill:#404040;"/>
  </a>
 </g>
</svg>

<style type='text/css'>
<![CDATA[
[data-mouse-over-selected='false'] { opacity: 0.7; }
[data-mouse-over-selected='true']  { opacity: 1.0; }
]]>
</style>
<script type="application/ecmascript"><![CDATA[
document.addEventListener('DOMContentLoaded', (event) => {
  highlightEdges();
  highlightAdjacentNodes();
});
]]></script>
</svg>
