<?xml version="1.0" encoding="UTF-8" standalone="no"?>
<!DOCTYPE svg PUBLIC "-//W3C//DTD SVG 1.1//EN"
 "http://www.w3.org/Graphics/SVG/1.1/DTD/svg11.dtd">
<!-- Generated by graphviz version 13.1.2 (20250809.0930)
 -->
<!-- Title: Gaussian.h Pages: 1 -->
<svg width="363pt" height="86pt"
 viewBox="0.00 0.00 363.00 86.00" xmlns="http://www.w3.org/2000/svg" xmlns:xlink="http://www.w3.org/1999/xlink">
<g id="graph0" class="graph" transform="scale(1 1) rotate(0) translate(4 81.5)">
<title>Gaussian.h</title>
<!-- Node1 -->
<g id="Node000001" class="node">
<title>Node1</title>
<g id="a_Node000001"><a xlink:title="Incident field: paraxial Gaussian beam in a homogeneous medium.">
<polygon fill="#999999" stroke="#666666" points="227.62,-77.5 157.62,-77.5 157.62,-56.75 227.62,-56.75 227.62,-77.5"/>
<text xml:space="preserve" text-anchor="middle" x="192.62" y="-64" font-family="Helvetica,sans-Serif" font-size="10.00">Gaussian.h</text>
</a>
</g>
</g>
<!-- Node2 -->
<g id="Node000002" class="node">
<title>Node2</title>
<g id="a_Node000002"><a xlink:href="DomainHom3D_8cpp.html" target="_top" xlink:title="Implementation of the homogeneous 3D domain.">
<polygon fill="white" stroke="#666666" points="111.25,-20.75 0,-20.75 0,0 111.25,0 111.25,-20.75"/>
<text xml:space="preserve" text-anchor="middle" x="55.62" y="-7.25" font-family="Helvetica,sans-Serif" font-size="10.00">DomainHom3D.cpp</text>
</a>
</g>
</g>
<!-- Node1&#45;&gt;Node2 -->
<g id="edge1_Node000001_Node000002" class="edge">
<title>Node1&#45;&gt;Node2</title>
<g id="a_edge1_Node000001_Node000002"><a xlink:title=" ">
<path fill="none" stroke="#63b8ff" d="M157.55,-52.11C133.23,-42.39 101.46,-29.69 79.91,-21.08"/>
<polygon fill="#63b8ff" stroke="#63b8ff" points="156.14,-55.31 166.73,-55.78 158.74,-48.81 156.14,-55.31"/>
</a>
</g>
</g>
<!-- Node3 -->
<g id="Node000003" class="node">
<title>Node3</title>
<g id="a_Node000003"><a xlink:href="DomainLayered3D_8cpp.html" target="_top" xlink:title="Implementation of the layered 3D domain.">
<polygon fill="white" stroke="#666666" points="256.12,-20.75 129.12,-20.75 129.12,0 256.12,0 256.12,-20.75"/>
<text xml:space="preserve" text-anchor="middle" x="192.62" y="-7.25" font-family="Helvetica,sans-Serif" font-size="10.00">DomainLayered3D.cpp</text>
</a>
</g>
</g>
<!-- Node1&#45;&gt;Node3 -->
<g id="edge2_Node000001_Node000003" class="edge">
<title>Node1&#45;&gt;Node3</title>
<g id="a_edge2_Node000001_Node000003"><a xlink:title=" ">
<path fill="none" stroke="#63b8ff" d="M192.62,-44.88C192.62,-36.66 192.62,-27.68 192.62,-21.08"/>
<polygon fill="#63b8ff" stroke="#63b8ff" points="189.13,-44.82 192.63,-54.82 196.13,-44.82 189.13,-44.82"/>
</a>
</g>
</g>
<!-- Node4 -->
<g id="Node000004" class="node">
<title>Node4</title>
<g id="a_Node000004"><a xlink:href="Gaussian_8cpp.html" target="_top" xlink:title="Implementation of the paraxial Gaussian beam incident field.">
<polygon fill="white" stroke="#666666" points="355.25,-20.75 274,-20.75 274,0 355.25,0 355.25,-20.75"/>
<text xml:space="preserve" text-anchor="middle" x="314.62" y="-7.25" font-family="Helvetica,sans-Serif" font-size="10.00">Gaussian.cpp</text>
</a>
</g>
</g>
<!-- Node1&#45;&gt;Node4 -->
<g id="edge3_Node000001_Node000004" class="edge">
<title>Node1&#45;&gt;Node4</title>
<g id="a_edge3_Node000001_Node000004"><a xlink:title=" ">
<path fill="none" stroke="#63b8ff" d="M224.74,-51.71C246.28,-42.05 274.06,-29.58 293,-21.08"/>
<polygon fill="#63b8ff" stroke="#63b8ff" points="223.51,-48.43 215.82,-55.72 226.37,-54.82 223.51,-48.43"/>
</a>
</g>
</g>
</g>
</svg>
