<?xml version="1.0" encoding="UTF-8" standalone="no"?>
<!DOCTYPE svg PUBLIC "-//W3C//DTD SVG 1.1//EN"
 "http://www.w3.org/Graphics/SVG/1.1/DTD/svg11.dtd">
<!-- Generated by graphviz version 13.1.2 (20250809.0930)
 -->
<!-- Title: GreenFHom3D.h Pages: 1 -->
<!--zoomable 426 -->

<svg id="main" version="1.1" xmlns="http://www.w3.org/2000/svg" xmlns:xlink="http://www.w3.org/1999/xlink" xml:space="preserve" onload="init(evt)">

<style type="text/css"><![CDATA[
.node, .edge {opacity: 0.7;}
.node.selected, .edge.selected {opacity: 1;}
.edge:hover path { stroke: red; }
.edge:hover polygon { stroke: red; fill: red; }
]]></style>

<defs>
  <circle id="rim" cx="0" cy="0" r="7"/>
  <circle id="rim2" cx="0" cy="0" r="3.5"/>
  <g id="zoomPlus">
    <use xlink:href="#rim" fill="#404040"><set attributeName="fill" to="#808080" begin="zoomplus.mouseover" end="zoomplus.mouseout"/></use>
    <path d="M-4,0h8M0,-4v8" fill="none" stroke="white" stroke-width="1.5" pointer-events="none"/>
  </g>
  <g id="zoomMin">
    <use xlink:href="#rim" fill="#404040"><set attributeName="fill" to="#808080" begin="zoomminus.mouseover" end="zoomminus.mouseout"/></use>
    <path d="M-4,0h8" fill="none" stroke="white" stroke-width="1.5" pointer-events="none"/>
  </g>
  <g id="arrowUp" transform="translate(30 24)">
    <use xlink:href="#rim"/>
    <path pointer-events="none" fill="none" stroke="white" stroke-width="1.5" d="M0,-3.0v7 M-2.5,-0.5L0,-3.0L2.5,-0.5"/>
  </g>
  <g id="arrowRight" transform="rotate(90) translate(36 -43)">
    <use xlink:href="#rim"/>
    <path pointer-events="none" fill="none" stroke="white" stroke-width="1.5" d="M0,-3.0v7 M-2.5,-0.5L0,-3.0L2.5,-0.5"/>
  </g>
  <g id="arrowDown" transform="rotate(180) translate(-30 -48)">
    <use xlink:href="#rim"/>
    <path pointer-events="none" fill="none" stroke="white" stroke-width="1.5" d="M0,-3.0v7 M-2.5,-0.5L0,-3.0L2.5,-0.5"/>
  </g>
  <g id="arrowLeft" transform="rotate(270) translate(-36 17)">
    <use xlink:href="#rim"/>
    <path pointer-events="none" fill="none" stroke="white" stroke-width="1.5" d="M0,-3.0v7 M-2.5,-0.5L0,-3.0L2.5,-0.5"/>
  </g>
  <g id="resetDef">
    <use xlink:href="#rim2" fill="#404040"><set attributeName="fill" to="#808080" begin="reset.mouseover" end="reset.mouseout"/></use>
  </g>
</defs>
<script type="application/ecmascript">
var viewWidth = 921;
var viewHeight = 426;
var sectionId = 'dynsection-0';
</script>
<script type="application/ecmascript" xlink:href="svg.min.js"/>
<svg id="graph" class="graph">
<g id="viewport">
<title>GreenFHom3D.h</title>
<!-- Node1 -->
<g id="Node000001" class="node">
<title>Node1</title>
<g id="a_Node000001"><a xlink:title="3D scalar/dyadic Green&#39;s function in a homogeneous background.">
<polygon fill="#999999" stroke="#666666" points="158.5,-418 61.5,-418 61.5,-397.25 158.5,-397.25 158.5,-418"/>
<text xml:space="preserve" text-anchor="middle" x="110" y="-404.5" font-family="Helvetica,sans-Serif" font-size="10.00">GreenFHom3D.h</text>
</a>
</g>
</g>
<!-- Node2 -->
<g id="Node000002" class="node">
<title>Node2</title>
<g id="a_Node000002"><a xlink:title=" ">
<polygon fill="#e0e0e0" stroke="#999999" points="911.5,-20.75 838.5,-20.75 838.5,0 911.5,0 911.5,-20.75"/>
<text xml:space="preserve" text-anchor="middle" x="875" y="-7.25" font-family="Helvetica,sans-Serif" font-size="10.00">blitz/array.h</text>
</a>
</g>
</g>
<!-- Node1&#45;&gt;Node2 -->
<g id="edge1_Node000001_Node000002" class="edge">
<title>Node1&#45;&gt;Node2</title>
<g id="a_edge1_Node000001_Node000002"><a xlink:title=" ">
<path fill="none" stroke="#63b8ff" d="M158.72,-405.02C332.7,-398.66 913,-371.7 913,-295.12 913,-295.12 913,-295.12 913,-122.88 913,-89.26 897.34,-52.85 886.12,-31.09"/>
<polygon fill="#63b8ff" stroke="#63b8ff" points="889.31,-29.62 881.49,-22.47 883.14,-32.94 889.31,-29.62"/>
</a>
</g>
</g>
<!-- Node3 -->
<g id="Node000003" class="node">
<title>Node3</title>
<g id="a_Node000003"><a xlink:title=" ">
<polygon fill="#e0e0e0" stroke="#999999" points="91.38,-247.75 44.62,-247.75 44.62,-227 91.38,-227 91.38,-247.75"/>
<text xml:space="preserve" text-anchor="middle" x="68" y="-234.25" font-family="Helvetica,sans-Serif" font-size="10.00">cmath</text>
</a>
</g>
</g>
<!-- Node1&#45;&gt;Node3 -->
<g id="edge2_Node000001_Node000003" class="edge">
<title>Node1&#45;&gt;Node3</title>
<g id="a_edge2_Node000001_Node000003"><a xlink:title=" ">
<path fill="none" stroke="#63b8ff" d="M112.43,-397.09C115.35,-384.13 119.34,-360.29 115,-340.5 108.3,-309.94 91.56,-277.6 79.98,-257.7"/>
<polygon fill="#63b8ff" stroke="#63b8ff" points="83.1,-256.09 74.96,-249.31 77.1,-259.69 83.1,-256.09"/>
</a>
</g>
</g>
<!-- Node4 -->
<g id="Node000004" class="node">
<title>Node4</title>
<g id="a_Node000004"><a xlink:title=" ">
<polygon fill="#e0e0e0" stroke="#999999" points="106.38,-361.25 65.62,-361.25 65.62,-340.5 106.38,-340.5 106.38,-361.25"/>
<text xml:space="preserve" text-anchor="middle" x="86" y="-347.75" font-family="Helvetica,sans-Serif" font-size="10.00">tuple</text>
</a>
</g>
</g>
<!-- Node1&#45;&gt;Node4 -->
<g id="edge3_Node000001_Node000004" class="edge">
<title>Node1&#45;&gt;Node4</title>
<g id="a_edge3_Node000001_Node000004"><a xlink:title=" ">
<path fill="none" stroke="#63b8ff" d="M105.71,-396.84C102.67,-389.91 98.49,-380.37 94.76,-371.86"/>
<polygon fill="#63b8ff" stroke="#63b8ff" points="98.08,-370.72 90.86,-362.96 91.67,-373.53 98.08,-370.72"/>
</a>
</g>
</g>
<!-- Node5 -->
<g id="Node000005" class="node">
<title>Node5</title>
<g id="a_Node000005"><a xlink:href="GaussQuad_8h.html" target="_top" xlink:title="Gaussian quadrature helpers for Green&#39;s functions and incident fields.">
<polygon fill="white" stroke="#666666" points="263.25,-304.5 182.75,-304.5 182.75,-283.75 263.25,-283.75 263.25,-304.5"/>
<text xml:space="preserve" text-anchor="middle" x="223" y="-291" font-family="Helvetica,sans-Serif" font-size="10.00">GaussQuad.h</text>
</a>
</g>
</g>
<!-- Node1&#45;&gt;Node5 -->
<g id="edge4_Node000001_Node000005" class="edge">
<title>Node1&#45;&gt;Node5</title>
<g id="a_edge4_Node000001_Node000005"><a xlink:title=" ">
<path fill="none" stroke="#63b8ff" d="M92.39,-396.88C71.53,-384.08 41.47,-360.85 57,-340.5 70.94,-322.24 128.02,-309.55 171.39,-302.32"/>
<polygon fill="#63b8ff" stroke="#63b8ff" points="171.83,-305.79 181.15,-300.75 170.72,-298.88 171.83,-305.79"/>
</a>
</g>
</g>
<!-- Node16 -->
<g id="Node000016" class="node">
<title>Node16</title>
<g id="a_Node000016"><a xlink:href="globals_8h.html" target="_top" xlink:title="Global numerical constants, fundamental types, and simple macros.">
<polygon fill="white" stroke="#666666" points="359.12,-77.5 298.88,-77.5 298.88,-56.75 359.12,-56.75 359.12,-77.5"/>
<text xml:space="preserve" text-anchor="middle" x="329" y="-64" font-family="Helvetica,sans-Serif" font-size="10.00">globals.h</text>
</a>
</g>
</g>
<!-- Node1&#45;&gt;Node16 -->
<g id="edge47_Node000001_Node000016" class="edge">
<title>Node1&#45;&gt;Node16</title>
<g id="a_edge47_Node000001_Node000016"><a xlink:title=" ">
<path fill="none" stroke="#63b8ff" d="M88.53,-396.87C56.52,-380.68 0,-345.02 0,-295.12 0,-295.12 0,-295.12 0,-179.62 0,-119.6 198.93,-85.51 287.42,-73.31"/>
<polygon fill="#63b8ff" stroke="#63b8ff" points="287.69,-76.8 297.14,-72 286.76,-69.87 287.69,-76.8"/>
</a>
</g>
</g>
<!-- Node23 -->
<g id="Node000023" class="node">
<title>Node23</title>
<g id="a_Node000023"><a xlink:href="GreenF_8h.html" target="_top" xlink:title="Abstract base class for electromagnetic Green&#39;s functions.">
<polygon fill="white" stroke="#666666" points="381.38,-361.25 322.62,-361.25 322.62,-340.5 381.38,-340.5 381.38,-361.25"/>
<text xml:space="preserve" text-anchor="middle" x="352" y="-347.75" font-family="Helvetica,sans-Serif" font-size="10.00">GreenF.h</text>
</a>
</g>
</g>
<!-- Node1&#45;&gt;Node23 -->
<g id="edge34_Node000001_Node000023" class="edge">
<title>Node1&#45;&gt;Node23</title>
<g id="a_edge34_Node000001_Node000023"><a xlink:title=" ">
<path fill="none" stroke="#63b8ff" d="M153.54,-396.77C198.26,-386.66 267.34,-371.03 311.08,-361.13"/>
<polygon fill="#63b8ff" stroke="#63b8ff" points="311.7,-364.58 320.68,-358.96 310.16,-357.75 311.7,-364.58"/>
</a>
</g>
</g>
<!-- Node5&#45;&gt;Node3 -->
<g id="edge5_Node000005_Node000003" class="edge">
<title>Node5&#45;&gt;Node3</title>
<g id="a_edge5_Node000005_Node000003"><a xlink:title=" ">
<path fill="none" stroke="#63b8ff" d="M195.29,-283.34C169.15,-274.1 129.91,-260.24 101.92,-250.36"/>
<polygon fill="#63b8ff" stroke="#63b8ff" points="103.44,-247.18 92.85,-247.15 101.11,-253.78 103.44,-247.18"/>
</a>
</g>
</g>
<!-- Node6 -->
<g id="Node000006" class="node">
<title>Node6</title>
<g id="a_Node000006"><a xlink:title=" ">
<polygon fill="#e0e0e0" stroke="#999999" points="442.75,-77.5 383.25,-77.5 383.25,-56.75 442.75,-56.75 442.75,-77.5"/>
<text xml:space="preserve" text-anchor="middle" x="413" y="-64" font-family="Helvetica,sans-Serif" font-size="10.00">iostream</text>
</a>
</g>
</g>
<!-- Node5&#45;&gt;Node6 -->
<g id="edge6_Node000005_Node000006" class="edge">
<title>Node5&#45;&gt;Node6</title>
<g id="a_edge6_Node000005_Node000006"><a xlink:title=" ">
<path fill="none" stroke="#63b8ff" d="M227.75,-283.62C242.27,-255.22 288.53,-169.51 345,-113.5 356.61,-101.99 371.54,-91.65 384.45,-83.76"/>
<polygon fill="#63b8ff" stroke="#63b8ff" points="386.13,-86.83 392.97,-78.74 382.58,-80.8 386.13,-86.83"/>
</a>
</g>
</g>
<!-- Node7 -->
<g id="Node000007" class="node">
<title>Node7</title>
<g id="a_Node000007"><a xlink:href="RWGFun_8h.html" target="_top" xlink:title="Header for the RWGFun class.">
<polygon fill="white" stroke="#666666" points="385.12,-247.75 318.88,-247.75 318.88,-227 385.12,-227 385.12,-247.75"/>
<text xml:space="preserve" text-anchor="middle" x="352" y="-234.25" font-family="Helvetica,sans-Serif" font-size="10.00">RWGFun.h</text>
</a>
</g>
</g>
<!-- Node5&#45;&gt;Node7 -->
<g id="edge7_Node000005_Node000007" class="edge">
<title>Node5&#45;&gt;Node7</title>
<g id="a_edge7_Node000005_Node000007"><a xlink:title=" ">
<path fill="none" stroke="#63b8ff" d="M246.06,-283.34C266.24,-274.77 295.8,-262.23 318.57,-252.56"/>
<polygon fill="#63b8ff" stroke="#63b8ff" points="319.91,-255.8 327.74,-248.67 317.17,-249.35 319.91,-255.8"/>
</a>
</g>
</g>
<!-- Node5&#45;&gt;Node16 -->
<g id="edge32_Node000005_Node000016" class="edge">
<title>Node5&#45;&gt;Node16</title>
<g id="a_edge32_Node000005_Node000016"><a xlink:title=" ">
<path fill="none" stroke="#63b8ff" d="M186.58,-283.4C168.62,-276.56 148.58,-265.4 138,-247.75 133.26,-239.84 135.78,-235.95 138,-227 151.74,-171.62 154.69,-150.65 198,-113.5 223.29,-91.81 259.53,-80.31 287.49,-74.32"/>
<polygon fill="#63b8ff" stroke="#63b8ff" points="287.9,-77.81 297.04,-72.44 286.55,-70.94 287.9,-77.81"/>
</a>
</g>
</g>
<!-- Node22 -->
<g id="Node000022" class="node">
<title>Node22</title>
<g id="a_Node000022"><a xlink:href="quadrature_8h.html" target="_top" xlink:title="Declarations of Dunavant (triangle) and Gauss–Legendre (1D) quadrature rules.">
<polygon fill="white" stroke="#666666" points="225.12,-247.75 146.88,-247.75 146.88,-227 225.12,-227 225.12,-247.75"/>
<text xml:space="preserve" text-anchor="middle" x="186" y="-234.25" font-family="Helvetica,sans-Serif" font-size="10.00">quadrature.h</text>
</a>
</g>
</g>
<!-- Node5&#45;&gt;Node22 -->
<g id="edge33_Node000005_Node000022" class="edge">
<title>Node5&#45;&gt;Node22</title>
<g id="a_edge33_Node000005_Node000022"><a xlink:title=" ">
<path fill="none" stroke="#63b8ff" d="M216.39,-283.34C211.54,-276.17 204.82,-266.23 198.93,-257.51"/>
<polygon fill="#63b8ff" stroke="#63b8ff" points="201.9,-255.66 193.41,-249.33 196.1,-259.58 201.9,-255.66"/>
</a>
</g>
</g>
<!-- Node8 -->
<g id="Node000008" class="node">
<title>Node8</title>
<g id="a_Node000008"><a xlink:href="SurfaceMesh_8h.html" target="_top" xlink:title="Declaration of the SurfaceMesh class and mesh edge struct.">
<polygon fill="white" stroke="#666666" points="589,-191 501,-191 501,-170.25 589,-170.25 589,-191"/>
<text xml:space="preserve" text-anchor="middle" x="545" y="-177.5" font-family="Helvetica,sans-Serif" font-size="10.00">SurfaceMesh.h</text>
</a>
</g>
</g>
<!-- Node7&#45;&gt;Node8 -->
<g id="edge8_Node000007_Node000008" class="edge">
<title>Node7&#45;&gt;Node8</title>
<g id="a_edge8_Node000007_Node000008"><a xlink:title=" ">
<path fill="none" stroke="#63b8ff" d="M385.62,-226.84C417.19,-217.88 464.68,-204.41 499.6,-194.5"/>
<polygon fill="#63b8ff" stroke="#63b8ff" points="500.35,-197.93 509.01,-191.83 498.44,-191.2 500.35,-197.93"/>
</a>
</g>
</g>
<!-- Node15 -->
<g id="Node000015" class="node">
<title>Node15</title>
<g id="a_Node000015"><a xlink:href="Triangle_8h.html" target="_top" xlink:title="Declaration of the Triangle class (surface element with cached geometry).">
<polygon fill="white" stroke="#666666" points="417.62,-134.25 354.38,-134.25 354.38,-113.5 417.62,-113.5 417.62,-134.25"/>
<text xml:space="preserve" text-anchor="middle" x="386" y="-120.75" font-family="Helvetica,sans-Serif" font-size="10.00">Triangle.h</text>
</a>
</g>
</g>
<!-- Node7&#45;&gt;Node15 -->
<g id="edge30_Node000007_Node000015" class="edge">
<title>Node7&#45;&gt;Node15</title>
<g id="a_edge30_Node000007_Node000015"><a xlink:title=" ">
<path fill="none" stroke="#63b8ff" d="M354.9,-226.87C360.37,-208.94 372.32,-169.75 379.71,-145.51"/>
<polygon fill="#63b8ff" stroke="#63b8ff" points="383,-146.71 382.57,-136.12 376.31,-144.67 383,-146.71"/>
</a>
</g>
</g>
<!-- Node7&#45;&gt;Node16 -->
<g id="edge31_Node000007_Node000016" class="edge">
<title>Node7&#45;&gt;Node16</title>
<g id="a_edge31_Node000007_Node000016"><a xlink:title=" ">
<path fill="none" stroke="#63b8ff" d="M345.38,-226.69C339.55,-217.76 331.2,-203.98 326,-191 316.34,-166.89 315.13,-160.04 312,-134.25 310.89,-125.1 310.36,-122.57 312,-113.5 313.53,-105.03 316.55,-96.09 319.63,-88.4"/>
<polygon fill="#63b8ff" stroke="#63b8ff" points="322.8,-89.88 323.55,-79.31 316.38,-87.11 322.8,-89.88"/>
</a>
</g>
</g>
<!-- Node9 -->
<g id="Node000009" class="node">
<title>Node9</title>
<g id="a_Node000009"><a xlink:title=" ">
<polygon fill="#e0e0e0" stroke="#999999" points="505.5,-134.25 474.5,-134.25 474.5,-113.5 505.5,-113.5 505.5,-134.25"/>
<text xml:space="preserve" text-anchor="middle" x="490" y="-120.75" font-family="Helvetica,sans-Serif" font-size="10.00">set</text>
</a>
</g>
</g>
<!-- Node8&#45;&gt;Node9 -->
<g id="edge9_Node000008_Node000009" class="edge">
<title>Node8&#45;&gt;Node9</title>
<g id="a_edge9_Node000008_Node000009"><a xlink:title=" ">
<path fill="none" stroke="#63b8ff" d="M535.17,-169.84C527.58,-162.28 516.88,-151.64 507.8,-142.6"/>
<polygon fill="#63b8ff" stroke="#63b8ff" points="510.38,-140.22 500.82,-135.65 505.44,-145.18 510.38,-140.22"/>
</a>
</g>
</g>
<!-- Node10 -->
<g id="Node000010" class="node">
<title>Node10</title>
<g id="a_Node000010"><a xlink:title=" ">
<polygon fill="#e0e0e0" stroke="#999999" points="693.25,-134.25 648.75,-134.25 648.75,-113.5 693.25,-113.5 693.25,-134.25"/>
<text xml:space="preserve" text-anchor="middle" x="671" y="-120.75" font-family="Helvetica,sans-Serif" font-size="10.00">utility</text>
</a>
</g>
</g>
<!-- Node8&#45;&gt;Node10 -->
<g id="edge10_Node000008_Node000010" class="edge">
<title>Node8&#45;&gt;Node10</title>
<g id="a_edge10_Node000008_Node000010"><a xlink:title=" ">
<path fill="none" stroke="#63b8ff" d="M567.53,-169.84C587.24,-161.27 616.11,-148.73 638.35,-139.06"/>
<polygon fill="#63b8ff" stroke="#63b8ff" points="639.5,-142.38 647.28,-135.18 636.71,-135.96 639.5,-142.38"/>
</a>
</g>
</g>
<!-- Node11 -->
<g id="Node000011" class="node">
<title>Node11</title>
<g id="a_Node000011"><a xlink:title=" ">
<polygon fill="#e0e0e0" stroke="#999999" points="644.38,-77.5 597.62,-77.5 597.62,-56.75 644.38,-56.75 644.38,-77.5"/>
<text xml:space="preserve" text-anchor="middle" x="621" y="-64" font-family="Helvetica,sans-Serif" font-size="10.00">vector</text>
</a>
</g>
</g>
<!-- Node8&#45;&gt;Node11 -->
<g id="edge11_Node000008_Node000011" class="edge">
<title>Node8&#45;&gt;Node11</title>
<g id="a_edge11_Node000008_Node000011"><a xlink:title=" ">
<path fill="none" stroke="#63b8ff" d="M562.37,-169.86C575.11,-161.86 591.88,-149.39 602,-134.25 611.04,-120.72 615.84,-102.85 618.35,-89.1"/>
<polygon fill="#63b8ff" stroke="#63b8ff" points="621.79,-89.79 619.84,-79.37 614.87,-88.73 621.79,-89.79"/>
</a>
</g>
</g>
<!-- Node12 -->
<g id="Node000012" class="node">
<title>Node12</title>
<g id="a_Node000012"><a xlink:href="JobParser_8h.html" target="_top" xlink:title="Lightweight XML&#45;like tag parser for the solver job file.">
<polygon fill="white" stroke="#666666" points="592.62,-134.25 523.38,-134.25 523.38,-113.5 592.62,-113.5 592.62,-134.25"/>
<text xml:space="preserve" text-anchor="middle" x="558" y="-120.75" font-family="Helvetica,sans-Serif" font-size="10.00">JobParser.h</text>
</a>
</g>
</g>
<!-- Node8&#45;&gt;Node12 -->
<g id="edge12_Node000008_Node000012" class="edge">
<title>Node8&#45;&gt;Node12</title>
<g id="a_edge12_Node000008_Node000012"><a xlink:title=" ">
<path fill="none" stroke="#63b8ff" d="M547.32,-169.84C548.91,-163.14 551.08,-154.01 553.05,-145.73"/>
<polygon fill="#63b8ff" stroke="#63b8ff" points="556.44,-146.59 555.35,-136.05 549.63,-144.97 556.44,-146.59"/>
</a>
</g>
</g>
<!-- Node8&#45;&gt;Node15 -->
<g id="edge17_Node000008_Node000015" class="edge">
<title>Node8&#45;&gt;Node15</title>
<g id="a_edge17_Node000008_Node000015"><a xlink:title=" ">
<path fill="none" stroke="#63b8ff" d="M516.57,-169.84C491.1,-161.07 453.5,-148.12 425.18,-138.37"/>
<polygon fill="#63b8ff" stroke="#63b8ff" points="426.47,-135.11 415.88,-135.16 424.19,-141.73 426.47,-135.11"/>
</a>
</g>
</g>
<!-- Node8&#45;&gt;Node16 -->
<g id="edge24_Node000008_Node000016" class="edge">
<title>Node8&#45;&gt;Node16</title>
<g id="a_edge24_Node000008_Node000016"><a xlink:title=" ">
<path fill="none" stroke="#63b8ff" d="M528.42,-169.8C505.78,-156.5 463.81,-132.3 427,-113.5 405.54,-102.54 380.94,-91.15 361.75,-82.53"/>
<polygon fill="#63b8ff" stroke="#63b8ff" points="363.36,-79.41 352.8,-78.53 360.51,-85.8 363.36,-79.41"/>
</a>
</g>
</g>
<!-- Node20 -->
<g id="Node000020" class="node">
<title>Node20</title>
<g id="a_Node000020"><a xlink:href="mathFunctions_8h.html" target="_top" xlink:title="Header file of the class that provides auxiliary mathematical functionalities for the SIE solver.">
<polygon fill="white" stroke="#666666" points="846.5,-134.25 749.5,-134.25 749.5,-113.5 846.5,-113.5 846.5,-134.25"/>
<text xml:space="preserve" text-anchor="middle" x="798" y="-120.75" font-family="Helvetica,sans-Serif" font-size="10.00">mathFunctions.h</text>
</a>
</g>
</g>
<!-- Node8&#45;&gt;Node20 -->
<g id="edge25_Node000008_Node000020" class="edge">
<title>Node8&#45;&gt;Node20</title>
<g id="a_edge25_Node000008_Node000020"><a xlink:title=" ">
<path fill="none" stroke="#63b8ff" d="M589.36,-170.03C631.65,-160.87 695.51,-147.05 741.44,-137.12"/>
<polygon fill="#63b8ff" stroke="#63b8ff" points="741.9,-140.6 750.93,-135.06 740.42,-133.76 741.9,-140.6"/>
</a>
</g>
</g>
<!-- Node12&#45;&gt;Node6 -->
<g id="edge14_Node000012_Node000006" class="edge">
<title>Node12&#45;&gt;Node6</title>
<g id="a_edge14_Node000012_Node000006"><a xlink:title=" ">
<path fill="none" stroke="#63b8ff" d="M532.08,-113.09C508.98,-104.37 474.96,-91.52 449.18,-81.79"/>
<polygon fill="#63b8ff" stroke="#63b8ff" points="450.71,-78.62 440.11,-78.36 448.23,-85.17 450.71,-78.62"/>
</a>
</g>
</g>
<!-- Node12&#45;&gt;Node11 -->
<g id="edge16_Node000012_Node000011" class="edge">
<title>Node12&#45;&gt;Node11</title>
<g id="a_edge16_Node000012_Node000011"><a xlink:title=" ">
<path fill="none" stroke="#63b8ff" d="M569.26,-113.09C578.13,-105.38 590.71,-94.45 601.25,-85.29"/>
<polygon fill="#63b8ff" stroke="#63b8ff" points="603.44,-88.02 608.69,-78.82 598.85,-82.74 603.44,-88.02"/>
</a>
</g>
</g>
<!-- Node13 -->
<g id="Node000013" class="node">
<title>Node13</title>
<g id="a_Node000013"><a xlink:title=" ">
<polygon fill="#e0e0e0" stroke="#999999" points="518.12,-77.5 463.88,-77.5 463.88,-56.75 518.12,-56.75 518.12,-77.5"/>
<text xml:space="preserve" text-anchor="middle" x="491" y="-64" font-family="Helvetica,sans-Serif" font-size="10.00">fstream</text>
</a>
</g>
</g>
<!-- Node12&#45;&gt;Node13 -->
<g id="edge13_Node000012_Node000013" class="edge">
<title>Node12&#45;&gt;Node13</title>
<g id="a_edge13_Node000012_Node000013"><a xlink:title=" ">
<path fill="none" stroke="#63b8ff" d="M546.02,-113.09C536.49,-105.3 522.94,-94.22 511.67,-85.01"/>
<polygon fill="#63b8ff" stroke="#63b8ff" points="514,-82.4 504.05,-78.79 509.58,-87.82 514,-82.4"/>
</a>
</g>
</g>
<!-- Node14 -->
<g id="Node000014" class="node">
<title>Node14</title>
<g id="a_Node000014"><a xlink:title=" ">
<polygon fill="#e0e0e0" stroke="#999999" points="579.88,-77.5 536.12,-77.5 536.12,-56.75 579.88,-56.75 579.88,-77.5"/>
<text xml:space="preserve" text-anchor="middle" x="558" y="-64" font-family="Helvetica,sans-Serif" font-size="10.00">string</text>
</a>
</g>
</g>
<!-- Node12&#45;&gt;Node14 -->
<g id="edge15_Node000012_Node000014" class="edge">
<title>Node12&#45;&gt;Node14</title>
<g id="a_edge15_Node000012_Node000014"><a xlink:title=" ">
<path fill="none" stroke="#63b8ff" d="M558,-113.09C558,-106.47 558,-97.47 558,-89.27"/>
<polygon fill="#63b8ff" stroke="#63b8ff" points="561.5,-89.34 558,-79.34 554.5,-89.34 561.5,-89.34"/>
</a>
</g>
</g>
<!-- Node15&#45;&gt;Node11 -->
<g id="edge18_Node000015_Node000011" class="edge">
<title>Node15&#45;&gt;Node11</title>
<g id="a_edge18_Node000015_Node000011"><a xlink:title=" ">
<path fill="none" stroke="#63b8ff" d="M417.8,-116.44C455.78,-108.6 521.46,-94.59 586.44,-78.05"/>
<polygon fill="#63b8ff" stroke="#63b8ff" points="587,-81.52 595.82,-75.64 585.26,-74.74 587,-81.52"/>
</a>
</g>
</g>
<!-- Node15&#45;&gt;Node16 -->
<g id="edge19_Node000015_Node000016" class="edge">
<title>Node15&#45;&gt;Node16</title>
<g id="a_edge19_Node000015_Node000016"><a xlink:title=" ">
<path fill="none" stroke="#63b8ff" d="M375.81,-113.09C367.87,-105.46 356.63,-94.67 347.16,-85.57"/>
<polygon fill="#63b8ff" stroke="#63b8ff" points="349.83,-83.28 340.19,-78.88 344.98,-88.33 349.83,-83.28"/>
</a>
</g>
</g>
<!-- Node16&#45;&gt;Node2 -->
<g id="edge20_Node000016_Node000002" class="edge">
<title>Node16&#45;&gt;Node2</title>
<g id="a_edge20_Node000016_Node000002"><a xlink:title=" ">
<path fill="none" stroke="#63b8ff" d="M359.41,-59.29C364.28,-58.35 369.26,-57.46 374,-56.75 539.13,-32.15 737.01,-18.99 826.65,-13.9"/>
<polygon fill="#63b8ff" stroke="#63b8ff" points="826.76,-17.4 836.55,-13.35 826.37,-10.41 826.76,-17.4"/>
</a>
</g>
</g>
<!-- Node17 -->
<g id="Node000017" class="node">
<title>Node17</title>
<g id="a_Node000017"><a xlink:title=" ">
<polygon fill="#e0e0e0" stroke="#999999" points="318.5,-20.75 227.5,-20.75 227.5,0 318.5,0 318.5,-20.75"/>
<text xml:space="preserve" text-anchor="middle" x="273" y="-7.25" font-family="Helvetica,sans-Serif" font-size="10.00">blitz/tinyvec2.h</text>
</a>
</g>
</g>
<!-- Node16&#45;&gt;Node17 -->
<g id="edge21_Node000016_Node000017" class="edge">
<title>Node16&#45;&gt;Node17</title>
<g id="a_edge21_Node000016_Node000017"><a xlink:title=" ">
<path fill="none" stroke="#63b8ff" d="M318.99,-56.34C311.26,-48.78 300.37,-38.14 291.13,-29.1"/>
<polygon fill="#63b8ff" stroke="#63b8ff" points="293.6,-26.62 284.01,-22.14 288.71,-31.63 293.6,-26.62"/>
</a>
</g>
</g>
<!-- Node18 -->
<g id="Node000018" class="node">
<title>Node18</title>
<g id="a_Node000018"><a xlink:title=" ">
<polygon fill="#e0e0e0" stroke="#999999" points="433.12,-20.75 336.88,-20.75 336.88,0 433.12,0 433.12,-20.75"/>
<text xml:space="preserve" text-anchor="middle" x="385" y="-7.25" font-family="Helvetica,sans-Serif" font-size="10.00">blitz/tvecglobs.h</text>
</a>
</g>
</g>
<!-- Node16&#45;&gt;Node18 -->
<g id="edge22_Node000016_Node000018" class="edge">
<title>Node16&#45;&gt;Node18</title>
<g id="a_edge22_Node000016_Node000018"><a xlink:title=" ">
<path fill="none" stroke="#63b8ff" d="M339.01,-56.34C346.74,-48.78 357.63,-38.14 366.87,-29.1"/>
<polygon fill="#63b8ff" stroke="#63b8ff" points="369.29,-31.63 373.99,-22.14 364.4,-26.62 369.29,-31.63"/>
</a>
</g>
</g>
<!-- Node19 -->
<g id="Node000019" class="node">
<title>Node19</title>
<g id="a_Node000019"><a xlink:title=" ">
<polygon fill="#e0e0e0" stroke="#999999" points="669,-20.75 611,-20.75 611,0 669,0 669,-20.75"/>
<text xml:space="preserve" text-anchor="middle" x="640" y="-7.25" font-family="Helvetica,sans-Serif" font-size="10.00">complex</text>
</a>
</g>
</g>
<!-- Node16&#45;&gt;Node19 -->
<g id="edge23_Node000016_Node000019" class="edge">
<title>Node16&#45;&gt;Node19</title>
<g id="a_edge23_Node000016_Node000019"><a xlink:title=" ">
<path fill="none" stroke="#63b8ff" d="M359.47,-59.62C364.32,-58.63 369.3,-57.64 374,-56.75 453.81,-41.63 547.53,-26.18 599.71,-17.78"/>
<polygon fill="#63b8ff" stroke="#63b8ff" points="600,-21.28 609.32,-16.24 598.89,-14.37 600,-21.28"/>
</a>
</g>
</g>
<!-- Node20&#45;&gt;Node11 -->
<g id="edge28_Node000020_Node000011" class="edge">
<title>Node20&#45;&gt;Node11</title>
<g id="a_edge28_Node000020_Node000011"><a xlink:title=" ">
<path fill="none" stroke="#63b8ff" d="M766.36,-113.09C735.13,-103.43 687.54,-88.71 655.4,-78.77"/>
<polygon fill="#63b8ff" stroke="#63b8ff" points="656.76,-75.52 646.17,-75.91 654.69,-82.21 656.76,-75.52"/>
</a>
</g>
</g>
<!-- Node20&#45;&gt;Node16 -->
<g id="edge29_Node000020_Node000016" class="edge">
<title>Node20&#45;&gt;Node16</title>
<g id="a_edge29_Node000020_Node000016"><a xlink:title=" ">
<path fill="none" stroke="#63b8ff" d="M749.32,-117.94C645.82,-107.41 410.34,-83.22 374,-77.5 372.82,-77.31 371.62,-77.12 370.41,-76.91"/>
<polygon fill="#63b8ff" stroke="#63b8ff" points="371.38,-73.53 360.91,-75.16 370.11,-80.42 371.38,-73.53"/>
</a>
</g>
</g>
<!-- Node20&#45;&gt;Node19 -->
<g id="edge27_Node000020_Node000019" class="edge">
<title>Node20&#45;&gt;Node19</title>
<g id="a_edge27_Node000020_Node000019"><a xlink:title=" ">
<path fill="none" stroke="#63b8ff" d="M797.94,-113.42C797.33,-99.22 794.09,-72.39 779,-56.75 753.29,-30.1 711.75,-19.09 680.77,-14.55"/>
<polygon fill="#63b8ff" stroke="#63b8ff" points="681.33,-11.09 670.97,-13.3 680.44,-18.04 681.33,-11.09"/>
</a>
</g>
</g>
<!-- Node21 -->
<g id="Node000021" class="node">
<title>Node21</title>
<g id="a_Node000021"><a xlink:title=" ">
<polygon fill="#e0e0e0" stroke="#999999" points="770.25,-77.5 719.75,-77.5 719.75,-56.75 770.25,-56.75 770.25,-77.5"/>
<text xml:space="preserve" text-anchor="middle" x="745" y="-64" font-family="Helvetica,sans-Serif" font-size="10.00">math.h</text>
</a>
</g>
</g>
<!-- Node20&#45;&gt;Node21 -->
<g id="edge26_Node000020_Node000021" class="edge">
<title>Node20&#45;&gt;Node21</title>
<g id="a_edge26_Node000020_Node000021"><a xlink:title=" ">
<path fill="none" stroke="#63b8ff" d="M788.52,-113.09C781.21,-105.53 770.91,-94.89 762.16,-85.85"/>
<polygon fill="#63b8ff" stroke="#63b8ff" points="764.92,-83.67 755.45,-78.92 759.89,-88.54 764.92,-83.67"/>
</a>
</g>
</g>
<!-- Node23&#45;&gt;Node2 -->
<g id="edge35_Node000023_Node000002" class="edge">
<title>Node23&#45;&gt;Node2</title>
<g id="a_edge35_Node000023_Node000002"><a xlink:title=" ">
<path fill="none" stroke="#63b8ff" d="M381.62,-349.93C492.25,-349.36 875,-340.03 875,-238.38 875,-238.38 875,-238.38 875,-122.88 875,-91.48 875,-55.12 875,-32.68"/>
<polygon fill="#63b8ff" stroke="#63b8ff" points="878.5,-32.73 875,-22.73 871.5,-32.73 878.5,-32.73"/>
</a>
</g>
</g>
<!-- Node23&#45;&gt;Node3 -->
<g id="edge36_Node000023_Node000003" class="edge">
<title>Node23&#45;&gt;Node3</title>
<g id="a_edge36_Node000023_Node000003"><a xlink:title=" ">
<path fill="none" stroke="#63b8ff" d="M322.43,-345.22C286.36,-338.89 224,-325.86 174,-304.5 142.97,-291.25 110.52,-269.69 89.82,-254.81"/>
<polygon fill="#63b8ff" stroke="#63b8ff" points="92.02,-252.08 81.89,-249 87.89,-257.73 92.02,-252.08"/>
</a>
</g>
</g>
<!-- Node23&#45;&gt;Node5 -->
<g id="edge38_Node000023_Node000005" class="edge">
<title>Node23&#45;&gt;Node5</title>
<g id="a_edge38_Node000023_Node000005"><a xlink:title=" ">
<path fill="none" stroke="#63b8ff" d="M328.94,-340.09C308.76,-331.52 279.2,-318.98 256.43,-309.31"/>
<polygon fill="#63b8ff" stroke="#63b8ff" points="257.83,-306.1 247.26,-305.42 255.09,-312.55 257.83,-306.1"/>
</a>
</g>
</g>
<!-- Node23&#45;&gt;Node7 -->
<g id="edge39_Node000023_Node000007" class="edge">
<title>Node23&#45;&gt;Node7</title>
<g id="a_edge39_Node000023_Node000007"><a xlink:title=" ">
<path fill="none" stroke="#63b8ff" d="M352,-340.37C352,-322.6 352,-283.97 352,-259.68"/>
<polygon fill="#63b8ff" stroke="#63b8ff" points="355.5,-259.69 352,-249.69 348.5,-259.69 355.5,-259.69"/>
</a>
</g>
</g>
<!-- Node23&#45;&gt;Node10 -->
<g id="edge37_Node000023_Node000010" class="edge">
<title>Node23&#45;&gt;Node10</title>
<g id="a_edge37_Node000023_Node000010"><a xlink:title=" ">
<path fill="none" stroke="#63b8ff" d="M378.89,-340.04C400,-331.82 429.77,-319.12 454,-304.5 535.44,-255.34 618.4,-177.18 653.55,-142.48"/>
<polygon fill="#63b8ff" stroke="#63b8ff" points="655.74,-145.24 660.36,-135.7 650.8,-140.28 655.74,-145.24"/>
</a>
</g>
</g>
<!-- Node23&#45;&gt;Node16 -->
<g id="edge45_Node000023_Node000016" class="edge">
<title>Node23&#45;&gt;Node16</title>
<g id="a_edge45_Node000023_Node000016"><a xlink:title=" ">
<path fill="none" stroke="#63b8ff" d="M346.57,-340.12C337.02,-322.38 317.53,-283.39 310,-247.75 297.66,-189.36 293.64,-171.67 307,-113.5 309.05,-104.57 313.1,-95.36 317.18,-87.58"/>
<polygon fill="#63b8ff" stroke="#63b8ff" points="320.12,-89.48 322,-79.05 314.03,-86.04 320.12,-89.48"/>
</a>
</g>
</g>
<!-- Node23&#45;&gt;Node20 -->
<g id="edge46_Node000023_Node000020" class="edge">
<title>Node23&#45;&gt;Node20</title>
<g id="a_edge46_Node000023_Node000020"><a xlink:title=" ">
<path fill="none" stroke="#63b8ff" d="M381.84,-340.68C408.46,-332.19 448.32,-318.76 482,-304.5 596.98,-255.8 723,-175.08 774.3,-140.92"/>
<polygon fill="#63b8ff" stroke="#63b8ff" points="776.2,-143.87 782.56,-135.39 772.3,-138.05 776.2,-143.87"/>
</a>
</g>
</g>
<!-- Node24 -->
<g id="Node000024" class="node">
<title>Node24</title>
<g id="a_Node000024"><a xlink:href="SingSub_8h.html" target="_top" xlink:title="Exact subtractions for singular/near&#45;singular triangle integrals.">
<polygon fill="white" stroke="#666666" points="445,-304.5 381,-304.5 381,-283.75 445,-283.75 445,-304.5"/>
<text xml:space="preserve" text-anchor="middle" x="413" y="-291" font-family="Helvetica,sans-Serif" font-size="10.00">SingSub.h</text>
</a>
</g>
</g>
<!-- Node23&#45;&gt;Node24 -->
<g id="edge40_Node000023_Node000024" class="edge">
<title>Node23&#45;&gt;Node24</title>
<g id="a_edge40_Node000023_Node000024"><a xlink:title=" ">
<path fill="none" stroke="#63b8ff" d="M362.91,-340.09C371.49,-332.38 383.67,-321.45 393.88,-312.29"/>
<polygon fill="#63b8ff" stroke="#63b8ff" points="395.96,-315.12 401.06,-305.84 391.28,-309.91 395.96,-315.12"/>
</a>
</g>
</g>
<!-- Node24&#45;&gt;Node7 -->
<g id="edge42_Node000024_Node000007" class="edge">
<title>Node24&#45;&gt;Node7</title>
<g id="a_edge42_Node000024_Node000007"><a xlink:title=" ">
<path fill="none" stroke="#63b8ff" d="M402.09,-283.34C393.51,-275.63 381.33,-264.7 371.12,-255.54"/>
<polygon fill="#63b8ff" stroke="#63b8ff" points="373.72,-253.16 363.94,-249.09 369.04,-258.37 373.72,-253.16"/>
</a>
</g>
</g>
<!-- Node24&#45;&gt;Node11 -->
<g id="edge41_Node000024_Node000011" class="edge">
<title>Node24&#45;&gt;Node11</title>
<g id="a_edge41_Node000024_Node000011"><a xlink:title=" ">
<path fill="none" stroke="#63b8ff" d="M445.21,-286.62C507.94,-272.01 645.31,-230.1 702,-134.25 716.38,-109.93 683.35,-90.75 655.23,-79.44"/>
<polygon fill="#63b8ff" stroke="#63b8ff" points="656.81,-76.29 646.22,-76.03 654.33,-82.84 656.81,-76.29"/>
</a>
</g>
</g>
<!-- Node24&#45;&gt;Node15 -->
<g id="edge43_Node000024_Node000015" class="edge">
<title>Node24&#45;&gt;Node15</title>
<g id="a_edge43_Node000024_Node000015"><a xlink:title=" ">
<path fill="none" stroke="#63b8ff" d="M417.58,-283.29C423.01,-270.39 430.87,-247.05 427,-227 421.22,-197.07 406.71,-164.77 396.61,-144.69"/>
<polygon fill="#63b8ff" stroke="#63b8ff" points="399.8,-143.24 392.09,-135.98 393.59,-146.46 399.8,-143.24"/>
</a>
</g>
</g>
<!-- Node24&#45;&gt;Node16 -->
<g id="edge44_Node000024_Node000016" class="edge">
<title>Node24&#45;&gt;Node16</title>
<g id="a_edge44_Node000024_Node000016"><a xlink:title=" ">
<path fill="none" stroke="#63b8ff" d="M410.89,-283.5C407.89,-270.44 401.85,-246.5 394,-227 376.58,-183.76 361.5,-177.85 345,-134.25 339.43,-119.52 335.32,-102.19 332.66,-88.96"/>
<polygon fill="#63b8ff" stroke="#63b8ff" points="336.12,-88.44 330.84,-79.25 329.24,-89.73 336.12,-88.44"/>
</a>
</g>
</g>
</g>
</svg>

<g id="navigator" transform="translate(0 0)" fill="#404254">
  <rect fill="#f2f5e9" fill-opacity="0.5" stroke="#606060" stroke-width=".5" x="0" y="0" width="60" height="60"/>
  <use id="zoomplus" xlink:href="#zoomPlus" x="17" y="9" onmousedown="handleZoom(evt,'in')"/>
  <use id="zoomminus" xlink:href="#zoomMin" x="42" y="9" onmousedown="handleZoom(evt,'out')"/>
  <use id="reset" xlink:href="#resetDef" x="30" y="36" onmousedown="handleReset()"/>
   <use id="arrowup" xlink:href="#arrowUp" x="0" y="0" onmousedown="handlePan(0,-1)"/>
  <use id="arrowright" xlink:href="#arrowRight" x="0" y="0" onmousedown="handlePan(1,0)"/>
  <use id="arrowdown" xlink:href="#arrowDown" x="0" y="0" onmousedown="handlePan(0,1)"/>
  <use id="arrowleft" xlink:href="#arrowLeft" x="0" y="0" onmousedown="handlePan(-1,0)"/>
</g>
<svg viewBox="0 0 15 15" width="100%" height="30px" preserveAspectRatio="xMaxYMin meet">
 <g id="arrow_out" transform="scale(0.3 0.3)">
  <a xlink:href="GreenFHom3D_8h__incl_org.svg" target="_base">
   <rect id="button" ry="5" rx="5" y="6" x="6" height="38" width="38"
        fill="#f2f5e9" fill-opacity="0.5" stroke="#606060" stroke-width="1.0"/>
   <path id="arrow"
     d="M 11.500037,31.436501 C 11.940474,20.09759 22.043105,11.32322 32.158766,21.979434 L 37.068811,17.246167 C 37.068811,17.246167 37.088388,32 37.088388,32 L 22.160133,31.978069 C 22.160133,31.978069 26.997745,27.140456 26.997745,27.140456 C 18.528582,18.264221 13.291696,25.230495 11.500037,31.436501 z"
     style="fill:#404040;"/>
  </a>
 </g>
</svg>

<style type='text/css'>
<![CDATA[
[data-mouse-over-selected='false'] { opacity: 0.7; }
[data-mouse-over-selected='true']  { opacity: 1.0; }
]]>
</style>
<script type="application/ecmascript"><![CDATA[
document.addEventListener('DOMContentLoaded', (event) => {
  highlightEdges();
  highlightAdjacentNodes();
});
]]></script>
</svg>
