<?xml version="1.0" encoding="UTF-8" standalone="no"?>
<!DOCTYPE svg PUBLIC "-//W3C//DTD SVG 1.1//EN"
 "http://www.w3.org/Graphics/SVG/1.1/DTD/svg11.dtd">
<!-- Generated by graphviz version 13.1.2 (20250809.0930)
 -->
<!-- Title: GreenFHom3D.cpp Pages: 1 -->
<!--zoomable 483 -->

<svg id="main" version="1.1" xmlns="http://www.w3.org/2000/svg" xmlns:xlink="http://www.w3.org/1999/xlink" xml:space="preserve" onload="init(evt)">

<style type="text/css"><![CDATA[
.node, .edge {opacity: 0.7;}
.node.selected, .edge.selected {opacity: 1;}
.edge:hover path { stroke: red; }
.edge:hover polygon { stroke: red; fill: red; }
]]></style>

<defs>
  <circle id="rim" cx="0" cy="0" r="7"/>
  <circle id="rim2" cx="0" cy="0" r="3.5"/>
  <g id="zoomPlus">
    <use xlink:href="#rim" fill="#404040"><set attributeName="fill" to="#808080" begin="zoomplus.mouseover" end="zoomplus.mouseout"/></use>
    <path d="M-4,0h8M0,-4v8" fill="none" stroke="white" stroke-width="1.5" pointer-events="none"/>
  </g>
  <g id="zoomMin">
    <use xlink:href="#rim" fill="#404040"><set attributeName="fill" to="#808080" begin="zoomminus.mouseover" end="zoomminus.mouseout"/></use>
    <path d="M-4,0h8" fill="none" stroke="white" stroke-width="1.5" pointer-events="none"/>
  </g>
  <g id="arrowUp" transform="translate(30 24)">
    <use xlink:href="#rim"/>
    <path pointer-events="none" fill="none" stroke="white" stroke-width="1.5" d="M0,-3.0v7 M-2.5,-0.5L0,-3.0L2.5,-0.5"/>
  </g>
  <g id="arrowRight" transform="rotate(90) translate(36 -43)">
    <use xlink:href="#rim"/>
    <path pointer-events="none" fill="none" stroke="white" stroke-width="1.5" d="M0,-3.0v7 M-2.5,-0.5L0,-3.0L2.5,-0.5"/>
  </g>
  <g id="arrowDown" transform="rotate(180) translate(-30 -48)">
    <use xlink:href="#rim"/>
    <path pointer-events="none" fill="none" stroke="white" stroke-width="1.5" d="M0,-3.0v7 M-2.5,-0.5L0,-3.0L2.5,-0.5"/>
  </g>
  <g id="arrowLeft" transform="rotate(270) translate(-36 17)">
    <use xlink:href="#rim"/>
    <path pointer-events="none" fill="none" stroke="white" stroke-width="1.5" d="M0,-3.0v7 M-2.5,-0.5L0,-3.0L2.5,-0.5"/>
  </g>
  <g id="resetDef">
    <use xlink:href="#rim2" fill="#404040"><set attributeName="fill" to="#808080" begin="reset.mouseover" end="reset.mouseout"/></use>
  </g>
</defs>
<script type="application/ecmascript">
var viewWidth = 863;
var viewHeight = 483;
var sectionId = 'dynsection-0';
</script>
<script type="application/ecmascript" xlink:href="svg.min.js"/>
<svg id="graph" class="graph">
<g id="viewport">
<title>GreenFHom3D.cpp</title>
<!-- Node1 -->
<g id="Node000001" class="node">
<title>Node1</title>
<g id="a_Node000001"><a xlink:title="Implementation of the 3D Green&#39;s Function class in a homogeneous background.">
<polygon fill="#999999" stroke="#666666" points="819.12,-474.75 710.88,-474.75 710.88,-454 819.12,-454 819.12,-474.75"/>
<text xml:space="preserve" text-anchor="middle" x="765" y="-461.25" font-family="Helvetica,sans-Serif" font-size="10.00">GreenFHom3D.cpp</text>
</a>
</g>
</g>
<!-- Node2 -->
<g id="Node000002" class="node">
<title>Node2</title>
<g id="a_Node000002"><a xlink:href="GreenFHom3D_8h.html" target="_top" xlink:title="3D scalar/dyadic Green&#39;s function in a homogeneous background.">
<polygon fill="white" stroke="#666666" points="698.5,-418 601.5,-418 601.5,-397.25 698.5,-397.25 698.5,-418"/>
<text xml:space="preserve" text-anchor="middle" x="650" y="-404.5" font-family="Helvetica,sans-Serif" font-size="10.00">GreenFHom3D.h</text>
</a>
</g>
</g>
<!-- Node1&#45;&gt;Node2 -->
<g id="edge1_Node000001_Node000002" class="edge">
<title>Node1&#45;&gt;Node2</title>
<g id="a_edge1_Node000001_Node000002"><a xlink:title=" ">
<path fill="none" stroke="#63b8ff" d="M744.44,-453.59C726.7,-445.14 700.82,-432.82 680.63,-423.21"/>
<polygon fill="#63b8ff" stroke="#63b8ff" points="682.28,-420.12 671.75,-418.98 679.27,-426.44 682.28,-420.12"/>
</a>
</g>
</g>
<!-- Node5 -->
<g id="Node000005" class="node">
<title>Node5</title>
<g id="a_Node000005"><a xlink:title=" ">
<polygon fill="#e0e0e0" stroke="#999999" points="756.38,-361.25 715.62,-361.25 715.62,-340.5 756.38,-340.5 756.38,-361.25"/>
<text xml:space="preserve" text-anchor="middle" x="736" y="-347.75" font-family="Helvetica,sans-Serif" font-size="10.00">tuple</text>
</a>
</g>
</g>
<!-- Node1&#45;&gt;Node5 -->
<g id="edge50_Node000001_Node000005" class="edge">
<title>Node1&#45;&gt;Node5</title>
<g id="a_edge50_Node000001_Node000005"><a xlink:title=" ">
<path fill="none" stroke="#63b8ff" d="M762.53,-453.87C757.86,-435.94 747.67,-396.75 741.37,-372.51"/>
<polygon fill="#63b8ff" stroke="#63b8ff" points="744.83,-371.94 738.93,-363.14 738.06,-373.7 744.83,-371.94"/>
</a>
</g>
</g>
<!-- Node7 -->
<g id="Node000007" class="node">
<title>Node7</title>
<g id="a_Node000007"><a xlink:title=" ">
<polygon fill="#e0e0e0" stroke="#999999" points="788.75,-77.5 729.25,-77.5 729.25,-56.75 788.75,-56.75 788.75,-77.5"/>
<text xml:space="preserve" text-anchor="middle" x="759" y="-64" font-family="Helvetica,sans-Serif" font-size="10.00">iostream</text>
</a>
</g>
</g>
<!-- Node1&#45;&gt;Node7 -->
<g id="edge49_Node000001_Node000007" class="edge">
<title>Node1&#45;&gt;Node7</title>
<g id="a_edge49_Node000001_Node000007"><a xlink:title=" ">
<path fill="none" stroke="#63b8ff" d="M781.09,-453.58C806.98,-436.45 855,-398.39 855,-351.88 855,-351.88 855,-351.88 855,-293.12 855,-210.83 799.99,-124.2 773.26,-86.95"/>
<polygon fill="#63b8ff" stroke="#63b8ff" points="776.17,-85.01 767.43,-79.02 770.53,-89.15 776.17,-85.01"/>
</a>
</g>
</g>
<!-- Node23 -->
<g id="Node000023" class="node">
<title>Node23</title>
<g id="a_Node000023"><a xlink:href="quadrature_8h.html" target="_top" xlink:title="Declarations of Dunavant (triangle) and Gauss–Legendre (1D) quadrature rules.">
<polygon fill="white" stroke="#666666" points="789.12,-247.75 710.88,-247.75 710.88,-227 789.12,-227 789.12,-247.75"/>
<text xml:space="preserve" text-anchor="middle" x="750" y="-234.25" font-family="Helvetica,sans-Serif" font-size="10.00">quadrature.h</text>
</a>
</g>
</g>
<!-- Node1&#45;&gt;Node23 -->
<g id="edge51_Node000001_Node000023" class="edge">
<title>Node1&#45;&gt;Node23</title>
<g id="a_edge51_Node000001_Node000023"><a xlink:title=" ">
<path fill="none" stroke="#63b8ff" d="M765.47,-453.8C766.39,-433.09 768.08,-382.63 765,-340.5 762.93,-312.23 757.7,-279.91 753.99,-259.33"/>
<polygon fill="#63b8ff" stroke="#63b8ff" points="757.47,-258.86 752.2,-249.67 750.58,-260.14 757.47,-258.86"/>
</a>
</g>
</g>
<!-- Node3 -->
<g id="Node000003" class="node">
<title>Node3</title>
<g id="a_Node000003"><a xlink:title=" ">
<polygon fill="#e0e0e0" stroke="#999999" points="737.5,-20.75 664.5,-20.75 664.5,0 737.5,0 737.5,-20.75"/>
<text xml:space="preserve" text-anchor="middle" x="701" y="-7.25" font-family="Helvetica,sans-Serif" font-size="10.00">blitz/array.h</text>
</a>
</g>
</g>
<!-- Node2&#45;&gt;Node3 -->
<g id="edge2_Node000002_Node000003" class="edge">
<title>Node2&#45;&gt;Node3</title>
<g id="a_edge2_Node000002_Node000003"><a xlink:title=" ">
<path fill="none" stroke="#63b8ff" d="M657.8,-396.92C668.49,-383.76 688.49,-359.71 707,-340.5 753.29,-292.47 817,-305.09 817,-238.38 817,-238.38 817,-238.38 817,-122.88 817,-92.3 817.85,-80.01 798,-56.75 785.21,-41.76 766.38,-31.4 748.7,-24.42"/>
<polygon fill="#63b8ff" stroke="#63b8ff" points="749.93,-21.14 739.34,-21 747.53,-27.71 749.93,-21.14"/>
</a>
</g>
</g>
<!-- Node4 -->
<g id="Node000004" class="node">
<title>Node4</title>
<g id="a_Node000004"><a xlink:title=" ">
<polygon fill="#e0e0e0" stroke="#999999" points="610.38,-247.75 563.62,-247.75 563.62,-227 610.38,-227 610.38,-247.75"/>
<text xml:space="preserve" text-anchor="middle" x="587" y="-234.25" font-family="Helvetica,sans-Serif" font-size="10.00">cmath</text>
</a>
</g>
</g>
<!-- Node2&#45;&gt;Node4 -->
<g id="edge3_Node000002_Node000004" class="edge">
<title>Node2&#45;&gt;Node4</title>
<g id="a_edge3_Node000002_Node000004"><a xlink:title=" ">
<path fill="none" stroke="#63b8ff" d="M646.43,-397.1C636.47,-370.5 608.21,-295.02 594.56,-258.57"/>
<polygon fill="#63b8ff" stroke="#63b8ff" points="598,-257.77 591.22,-249.63 591.45,-260.23 598,-257.77"/>
</a>
</g>
</g>
<!-- Node2&#45;&gt;Node5 -->
<g id="edge4_Node000002_Node000005" class="edge">
<title>Node2&#45;&gt;Node5</title>
<g id="a_edge4_Node000002_Node000005"><a xlink:title=" ">
<path fill="none" stroke="#63b8ff" d="M665.38,-396.84C678.09,-388.74 696.4,-377.08 711.19,-367.67"/>
<polygon fill="#63b8ff" stroke="#63b8ff" points="712.93,-370.71 719.48,-362.39 709.17,-364.81 712.93,-370.71"/>
</a>
</g>
</g>
<!-- Node6 -->
<g id="Node000006" class="node">
<title>Node6</title>
<g id="a_Node000006"><a xlink:href="GaussQuad_8h.html" target="_top" xlink:title="Gaussian quadrature helpers for Green&#39;s functions and incident fields.">
<polygon fill="white" stroke="#666666" points="720.25,-304.5 639.75,-304.5 639.75,-283.75 720.25,-283.75 720.25,-304.5"/>
<text xml:space="preserve" text-anchor="middle" x="680" y="-291" font-family="Helvetica,sans-Serif" font-size="10.00">GaussQuad.h</text>
</a>
</g>
</g>
<!-- Node2&#45;&gt;Node6 -->
<g id="edge5_Node000002_Node000006" class="edge">
<title>Node2&#45;&gt;Node6</title>
<g id="a_edge5_Node000002_Node000006"><a xlink:title=" ">
<path fill="none" stroke="#63b8ff" d="M652.56,-397.12C657.38,-379.19 667.93,-340 674.45,-315.76"/>
<polygon fill="#63b8ff" stroke="#63b8ff" points="677.75,-316.95 676.97,-306.39 670.99,-315.13 677.75,-316.95"/>
</a>
</g>
</g>
<!-- Node17 -->
<g id="Node000017" class="node">
<title>Node17</title>
<g id="a_Node000017"><a xlink:href="globals_8h.html" target="_top" xlink:title="Global numerical constants, fundamental types, and simple macros.">
<polygon fill="white" stroke="#666666" points="334.12,-77.5 273.88,-77.5 273.88,-56.75 334.12,-56.75 334.12,-77.5"/>
<text xml:space="preserve" text-anchor="middle" x="304" y="-64" font-family="Helvetica,sans-Serif" font-size="10.00">globals.h</text>
</a>
</g>
</g>
<!-- Node2&#45;&gt;Node17 -->
<g id="edge48_Node000002_Node000017" class="edge">
<title>Node2&#45;&gt;Node17</title>
<g id="a_edge48_Node000002_Node000017"><a xlink:title=" ">
<path fill="none" stroke="#63b8ff" d="M601.14,-403.4C449.98,-392.8 0,-356.09 0,-295.12 0,-295.12 0,-295.12 0,-179.62 0,-145.73 10.2,-132.89 38,-113.5 73.61,-88.66 197.12,-76 262.56,-70.91"/>
<polygon fill="#63b8ff" stroke="#63b8ff" points="262.47,-74.42 272.18,-70.18 261.95,-67.44 262.47,-74.42"/>
</a>
</g>
</g>
<!-- Node24 -->
<g id="Node000024" class="node">
<title>Node24</title>
<g id="a_Node000024"><a xlink:href="GreenF_8h.html" target="_top" xlink:title="Abstract base class for electromagnetic Green&#39;s functions.">
<polygon fill="white" stroke="#666666" points="527.38,-361.25 468.62,-361.25 468.62,-340.5 527.38,-340.5 527.38,-361.25"/>
<text xml:space="preserve" text-anchor="middle" x="498" y="-347.75" font-family="Helvetica,sans-Serif" font-size="10.00">GreenF.h</text>
</a>
</g>
</g>
<!-- Node2&#45;&gt;Node24 -->
<g id="edge35_Node000002_Node000024" class="edge">
<title>Node2&#45;&gt;Node24</title>
<g id="a_edge35_Node000002_Node000024"><a xlink:title=" ">
<path fill="none" stroke="#63b8ff" d="M622.83,-396.84C598.58,-388.11 562.85,-375.23 535.82,-365.5"/>
<polygon fill="#63b8ff" stroke="#63b8ff" points="537.21,-362.28 526.62,-362.18 534.84,-368.87 537.21,-362.28"/>
</a>
</g>
</g>
<!-- Node6&#45;&gt;Node4 -->
<g id="edge6_Node000006_Node000004" class="edge">
<title>Node6&#45;&gt;Node4</title>
<g id="a_edge6_Node000006_Node000004"><a xlink:title=" ">
<path fill="none" stroke="#63b8ff" d="M663.37,-283.34C649.49,-275.16 629.44,-263.36 613.37,-253.9"/>
<polygon fill="#63b8ff" stroke="#63b8ff" points="615.18,-250.9 604.79,-248.85 611.63,-256.94 615.18,-250.9"/>
</a>
</g>
</g>
<!-- Node6&#45;&gt;Node7 -->
<g id="edge7_Node000006_Node000007" class="edge">
<title>Node6&#45;&gt;Node7</title>
<g id="a_edge7_Node000006_Node000007"><a xlink:title=" ">
<path fill="none" stroke="#63b8ff" d="M683.06,-283.68C687.25,-270.83 695.04,-247.13 702,-227 719.25,-177.1 740.45,-118.74 751.5,-88.55"/>
<polygon fill="#63b8ff" stroke="#63b8ff" points="754.78,-89.78 754.93,-79.19 748.2,-87.37 754.78,-89.78"/>
</a>
</g>
</g>
<!-- Node8 -->
<g id="Node000008" class="node">
<title>Node8</title>
<g id="a_Node000008"><a xlink:href="RWGFun_8h.html" target="_top" xlink:title="Header for the RWGFun class.">
<polygon fill="white" stroke="#666666" points="393.12,-247.75 326.88,-247.75 326.88,-227 393.12,-227 393.12,-247.75"/>
<text xml:space="preserve" text-anchor="middle" x="360" y="-234.25" font-family="Helvetica,sans-Serif" font-size="10.00">RWGFun.h</text>
</a>
</g>
</g>
<!-- Node6&#45;&gt;Node8 -->
<g id="edge8_Node000006_Node000008" class="edge">
<title>Node6&#45;&gt;Node8</title>
<g id="a_edge8_Node000006_Node000008"><a xlink:title=" ">
<path fill="none" stroke="#63b8ff" d="M639.47,-286.19C579.31,-275.9 466.78,-256.65 404.44,-245.98"/>
<polygon fill="#63b8ff" stroke="#63b8ff" points="405.34,-242.58 394.9,-244.35 404.16,-249.48 405.34,-242.58"/>
</a>
</g>
</g>
<!-- Node6&#45;&gt;Node17 -->
<g id="edge33_Node000006_Node000017" class="edge">
<title>Node6&#45;&gt;Node17</title>
<g id="a_edge33_Node000006_Node000017"><a xlink:title=" ">
<path fill="none" stroke="#63b8ff" d="M672.96,-283.62C662.41,-269.84 641.32,-244.1 619,-227 528.65,-157.77 403.47,-105.33 341.65,-81.78"/>
<polygon fill="#63b8ff" stroke="#63b8ff" points="343.23,-78.64 332.64,-78.39 340.76,-85.19 343.23,-78.64"/>
</a>
</g>
</g>
<!-- Node6&#45;&gt;Node23 -->
<g id="edge34_Node000006_Node000023" class="edge">
<title>Node6&#45;&gt;Node23</title>
<g id="a_edge34_Node000006_Node000023"><a xlink:title=" ">
<path fill="none" stroke="#63b8ff" d="M692.51,-283.34C702.57,-275.47 716.91,-264.25 728.76,-254.99"/>
<polygon fill="#63b8ff" stroke="#63b8ff" points="730.68,-257.93 736.4,-249.01 726.37,-252.41 730.68,-257.93"/>
</a>
</g>
</g>
<!-- Node9 -->
<g id="Node000009" class="node">
<title>Node9</title>
<g id="a_Node000009"><a xlink:href="SurfaceMesh_8h.html" target="_top" xlink:title="Declaration of the SurfaceMesh class and mesh edge struct.">
<polygon fill="white" stroke="#666666" points="428,-191 340,-191 340,-170.25 428,-170.25 428,-191"/>
<text xml:space="preserve" text-anchor="middle" x="384" y="-177.5" font-family="Helvetica,sans-Serif" font-size="10.00">SurfaceMesh.h</text>
</a>
</g>
</g>
<!-- Node8&#45;&gt;Node9 -->
<g id="edge9_Node000008_Node000009" class="edge">
<title>Node8&#45;&gt;Node9</title>
<g id="a_edge9_Node000008_Node000009"><a xlink:title=" ">
<path fill="none" stroke="#63b8ff" d="M364.29,-226.59C367.33,-219.66 371.51,-210.12 375.24,-201.61"/>
<polygon fill="#63b8ff" stroke="#63b8ff" points="378.33,-203.28 379.14,-192.71 371.92,-200.47 378.33,-203.28"/>
</a>
</g>
</g>
<!-- Node16 -->
<g id="Node000016" class="node">
<title>Node16</title>
<g id="a_Node000016"><a xlink:href="Triangle_8h.html" target="_top" xlink:title="Declaration of the Triangle class (surface element with cached geometry).">
<polygon fill="white" stroke="#666666" points="305.62,-134.25 242.38,-134.25 242.38,-113.5 305.62,-113.5 305.62,-134.25"/>
<text xml:space="preserve" text-anchor="middle" x="274" y="-120.75" font-family="Helvetica,sans-Serif" font-size="10.00">Triangle.h</text>
</a>
</g>
</g>
<!-- Node8&#45;&gt;Node16 -->
<g id="edge31_Node000008_Node000016" class="edge">
<title>Node8&#45;&gt;Node16</title>
<g id="a_edge31_Node000008_Node000016"><a xlink:title=" ">
<path fill="none" stroke="#63b8ff" d="M352.67,-226.87C338.46,-208.45 306.94,-167.59 288.4,-143.55"/>
<polygon fill="#63b8ff" stroke="#63b8ff" points="291.36,-141.65 282.48,-135.87 285.82,-145.93 291.36,-141.65"/>
</a>
</g>
</g>
<!-- Node8&#45;&gt;Node17 -->
<g id="edge32_Node000008_Node000017" class="edge">
<title>Node8&#45;&gt;Node17</title>
<g id="a_edge32_Node000008_Node000017"><a xlink:title=" ">
<path fill="none" stroke="#63b8ff" d="M338.38,-226.61C308.25,-211.66 254.88,-179.92 233,-134.25 222.65,-112.65 245.71,-94.64 268.26,-82.9"/>
<polygon fill="#63b8ff" stroke="#63b8ff" points="269.62,-86.13 277.1,-78.61 266.57,-79.83 269.62,-86.13"/>
</a>
</g>
</g>
<!-- Node10 -->
<g id="Node000010" class="node">
<title>Node10</title>
<g id="a_Node000010"><a xlink:title=" ">
<polygon fill="#e0e0e0" stroke="#999999" points="393.5,-134.25 362.5,-134.25 362.5,-113.5 393.5,-113.5 393.5,-134.25"/>
<text xml:space="preserve" text-anchor="middle" x="378" y="-120.75" font-family="Helvetica,sans-Serif" font-size="10.00">set</text>
</a>
</g>
</g>
<!-- Node9&#45;&gt;Node10 -->
<g id="edge10_Node000009_Node000010" class="edge">
<title>Node9&#45;&gt;Node10</title>
<g id="a_edge10_Node000009_Node000010"><a xlink:title=" ">
<path fill="none" stroke="#63b8ff" d="M382.93,-169.84C382.2,-163.22 381.22,-154.22 380.32,-146.02"/>
<polygon fill="#63b8ff" stroke="#63b8ff" points="383.8,-145.64 379.23,-136.08 376.84,-146.4 383.8,-145.64"/>
</a>
</g>
</g>
<!-- Node11 -->
<g id="Node000011" class="node">
<title>Node11</title>
<g id="a_Node000011"><a xlink:title=" ">
<polygon fill="#e0e0e0" stroke="#999999" points="110.25,-134.25 65.75,-134.25 65.75,-113.5 110.25,-113.5 110.25,-134.25"/>
<text xml:space="preserve" text-anchor="middle" x="88" y="-120.75" font-family="Helvetica,sans-Serif" font-size="10.00">utility</text>
</a>
</g>
</g>
<!-- Node9&#45;&gt;Node11 -->
<g id="edge11_Node000009_Node000011" class="edge">
<title>Node9&#45;&gt;Node11</title>
<g id="a_edge11_Node000009_Node000011"><a xlink:title=" ">
<path fill="none" stroke="#63b8ff" d="M339.69,-171.43C280.16,-160.42 175.67,-141.09 121.97,-131.16"/>
<polygon fill="#63b8ff" stroke="#63b8ff" points="122.66,-127.73 112.19,-129.35 121.38,-134.61 122.66,-127.73"/>
</a>
</g>
</g>
<!-- Node12 -->
<g id="Node000012" class="node">
<title>Node12</title>
<g id="a_Node000012"><a xlink:title=" ">
<polygon fill="#e0e0e0" stroke="#999999" points="432.38,-77.5 385.62,-77.5 385.62,-56.75 432.38,-56.75 432.38,-77.5"/>
<text xml:space="preserve" text-anchor="middle" x="409" y="-64" font-family="Helvetica,sans-Serif" font-size="10.00">vector</text>
</a>
</g>
</g>
<!-- Node9&#45;&gt;Node12 -->
<g id="edge12_Node000009_Node000012" class="edge">
<title>Node9&#45;&gt;Node12</title>
<g id="a_edge12_Node000009_Node000012"><a xlink:title=" ">
<path fill="none" stroke="#63b8ff" d="M388.81,-169.79C393,-160.77 398.88,-146.92 402,-134.25 405.68,-119.3 407.43,-101.98 408.26,-88.82"/>
<polygon fill="#63b8ff" stroke="#63b8ff" points="411.73,-89.35 408.73,-79.19 404.74,-89.01 411.73,-89.35"/>
</a>
</g>
</g>
<!-- Node13 -->
<g id="Node000013" class="node">
<title>Node13</title>
<g id="a_Node000013"><a xlink:href="JobParser_8h.html" target="_top" xlink:title="Lightweight XML&#45;like tag parser for the solver job file.">
<polygon fill="white" stroke="#666666" points="672.62,-134.25 603.38,-134.25 603.38,-113.5 672.62,-113.5 672.62,-134.25"/>
<text xml:space="preserve" text-anchor="middle" x="638" y="-120.75" font-family="Helvetica,sans-Serif" font-size="10.00">JobParser.h</text>
</a>
</g>
</g>
<!-- Node9&#45;&gt;Node13 -->
<g id="edge13_Node000009_Node000013" class="edge">
<title>Node9&#45;&gt;Node13</title>
<g id="a_edge13_Node000009_Node000013"><a xlink:title=" ">
<path fill="none" stroke="#63b8ff" d="M428.24,-170.09C474.2,-160.18 545.77,-144.76 592.27,-134.73"/>
<polygon fill="#63b8ff" stroke="#63b8ff" points="592.71,-138.22 601.75,-132.69 591.24,-131.37 592.71,-138.22"/>
</a>
</g>
</g>
<!-- Node9&#45;&gt;Node16 -->
<g id="edge18_Node000009_Node000016" class="edge">
<title>Node9&#45;&gt;Node16</title>
<g id="a_edge18_Node000009_Node000016"><a xlink:title=" ">
<path fill="none" stroke="#63b8ff" d="M364.33,-169.84C347.44,-161.43 322.83,-149.18 303.57,-139.59"/>
<polygon fill="#63b8ff" stroke="#63b8ff" points="305.36,-136.58 294.85,-135.25 302.24,-142.84 305.36,-136.58"/>
</a>
</g>
</g>
<!-- Node9&#45;&gt;Node17 -->
<g id="edge25_Node000009_Node000017" class="edge">
<title>Node9&#45;&gt;Node17</title>
<g id="a_edge25_Node000009_Node000017"><a xlink:title=" ">
<path fill="none" stroke="#63b8ff" d="M377.18,-170.12C364.02,-151.78 334.91,-111.2 317.63,-87.12"/>
<polygon fill="#63b8ff" stroke="#63b8ff" points="320.59,-85.24 311.91,-79.15 314.9,-89.32 320.59,-85.24"/>
</a>
</g>
</g>
<!-- Node21 -->
<g id="Node000021" class="node">
<title>Node21</title>
<g id="a_Node000021"><a xlink:href="mathFunctions_8h.html" target="_top" xlink:title="Header file of the class that provides auxiliary mathematical functionalities for the SIE solver.">
<polygon fill="white" stroke="#666666" points="585.5,-134.25 488.5,-134.25 488.5,-113.5 585.5,-113.5 585.5,-134.25"/>
<text xml:space="preserve" text-anchor="middle" x="537" y="-120.75" font-family="Helvetica,sans-Serif" font-size="10.00">mathFunctions.h</text>
</a>
</g>
</g>
<!-- Node9&#45;&gt;Node21 -->
<g id="edge26_Node000009_Node000021" class="edge">
<title>Node9&#45;&gt;Node21</title>
<g id="a_edge26_Node000009_Node000021"><a xlink:title=" ">
<path fill="none" stroke="#63b8ff" d="M411.35,-169.84C435.75,-161.11 471.72,-148.23 498.93,-138.5"/>
<polygon fill="#63b8ff" stroke="#63b8ff" points="499.96,-141.85 508.2,-135.18 497.61,-135.25 499.96,-141.85"/>
</a>
</g>
</g>
<!-- Node13&#45;&gt;Node7 -->
<g id="edge15_Node000013_Node000007" class="edge">
<title>Node13&#45;&gt;Node7</title>
<g id="a_edge15_Node000013_Node000007"><a xlink:title=" ">
<path fill="none" stroke="#63b8ff" d="M659.63,-113.09C678.47,-104.56 706.04,-92.09 727.36,-82.44"/>
<polygon fill="#63b8ff" stroke="#63b8ff" points="728.51,-85.76 736.18,-78.45 725.62,-79.39 728.51,-85.76"/>
</a>
</g>
</g>
<!-- Node13&#45;&gt;Node12 -->
<g id="edge17_Node000013_Node000012" class="edge">
<title>Node13&#45;&gt;Node12</title>
<g id="a_edge17_Node000013_Node000012"><a xlink:title=" ">
<path fill="none" stroke="#63b8ff" d="M603.18,-115.36C566.12,-107.24 505.51,-93.62 443.86,-77.88"/>
<polygon fill="#63b8ff" stroke="#63b8ff" points="444.78,-74.5 434.22,-75.4 443.03,-81.28 444.78,-74.5"/>
</a>
</g>
</g>
<!-- Node14 -->
<g id="Node000014" class="node">
<title>Node14</title>
<g id="a_Node000014"><a xlink:title=" ">
<polygon fill="#e0e0e0" stroke="#999999" points="673.12,-77.5 618.88,-77.5 618.88,-56.75 673.12,-56.75 673.12,-77.5"/>
<text xml:space="preserve" text-anchor="middle" x="646" y="-64" font-family="Helvetica,sans-Serif" font-size="10.00">fstream</text>
</a>
</g>
</g>
<!-- Node13&#45;&gt;Node14 -->
<g id="edge14_Node000013_Node000014" class="edge">
<title>Node13&#45;&gt;Node14</title>
<g id="a_edge14_Node000013_Node000014"><a xlink:title=" ">
<path fill="none" stroke="#63b8ff" d="M639.43,-113.09C640.41,-106.39 641.74,-97.26 642.95,-88.98"/>
<polygon fill="#63b8ff" stroke="#63b8ff" points="646.38,-89.73 644.36,-79.33 639.45,-88.71 646.38,-89.73"/>
</a>
</g>
</g>
<!-- Node15 -->
<g id="Node000015" class="node">
<title>Node15</title>
<g id="a_Node000015"><a xlink:title=" ">
<polygon fill="#e0e0e0" stroke="#999999" points="600.88,-77.5 557.12,-77.5 557.12,-56.75 600.88,-56.75 600.88,-77.5"/>
<text xml:space="preserve" text-anchor="middle" x="579" y="-64" font-family="Helvetica,sans-Serif" font-size="10.00">string</text>
</a>
</g>
</g>
<!-- Node13&#45;&gt;Node15 -->
<g id="edge16_Node000013_Node000015" class="edge">
<title>Node13&#45;&gt;Node15</title>
<g id="a_edge16_Node000013_Node000015"><a xlink:title=" ">
<path fill="none" stroke="#63b8ff" d="M627.45,-113.09C619.23,-105.46 607.6,-94.67 597.8,-85.57"/>
<polygon fill="#63b8ff" stroke="#63b8ff" points="600.28,-83.09 590.57,-78.86 595.52,-88.23 600.28,-83.09"/>
</a>
</g>
</g>
<!-- Node16&#45;&gt;Node12 -->
<g id="edge19_Node000016_Node000012" class="edge">
<title>Node16&#45;&gt;Node12</title>
<g id="a_edge19_Node000016_Node000012"><a xlink:title=" ">
<path fill="none" stroke="#63b8ff" d="M298.14,-113.09C319.58,-104.39 351.14,-91.59 375.11,-81.87"/>
<polygon fill="#63b8ff" stroke="#63b8ff" points="376.17,-85.22 384.12,-78.21 373.54,-78.73 376.17,-85.22"/>
</a>
</g>
</g>
<!-- Node16&#45;&gt;Node17 -->
<g id="edge20_Node000016_Node000017" class="edge">
<title>Node16&#45;&gt;Node17</title>
<g id="a_edge20_Node000016_Node000017"><a xlink:title=" ">
<path fill="none" stroke="#63b8ff" d="M279.36,-113.09C283.2,-106.08 288.5,-96.41 293.2,-87.83"/>
<polygon fill="#63b8ff" stroke="#63b8ff" points="296.22,-89.61 297.96,-79.16 290.08,-86.24 296.22,-89.61"/>
</a>
</g>
</g>
<!-- Node17&#45;&gt;Node3 -->
<g id="edge21_Node000017_Node000003" class="edge">
<title>Node17&#45;&gt;Node3</title>
<g id="a_edge21_Node000017_Node000003"><a xlink:title=" ">
<path fill="none" stroke="#63b8ff" d="M334.49,-61.92C403.09,-52.46 570.03,-29.44 652.81,-18.02"/>
<polygon fill="#63b8ff" stroke="#63b8ff" points="653.23,-21.5 662.66,-16.66 652.27,-14.56 653.23,-21.5"/>
</a>
</g>
</g>
<!-- Node18 -->
<g id="Node000018" class="node">
<title>Node18</title>
<g id="a_Node000018"><a xlink:title=" ">
<polygon fill="#e0e0e0" stroke="#999999" points="293.5,-20.75 202.5,-20.75 202.5,0 293.5,0 293.5,-20.75"/>
<text xml:space="preserve" text-anchor="middle" x="248" y="-7.25" font-family="Helvetica,sans-Serif" font-size="10.00">blitz/tinyvec2.h</text>
</a>
</g>
</g>
<!-- Node17&#45;&gt;Node18 -->
<g id="edge22_Node000017_Node000018" class="edge">
<title>Node17&#45;&gt;Node18</title>
<g id="a_edge22_Node000017_Node000018"><a xlink:title=" ">
<path fill="none" stroke="#63b8ff" d="M293.99,-56.34C286.26,-48.78 275.37,-38.14 266.13,-29.1"/>
<polygon fill="#63b8ff" stroke="#63b8ff" points="268.6,-26.62 259.01,-22.14 263.71,-31.63 268.6,-26.62"/>
</a>
</g>
</g>
<!-- Node19 -->
<g id="Node000019" class="node">
<title>Node19</title>
<g id="a_Node000019"><a xlink:title=" ">
<polygon fill="#e0e0e0" stroke="#999999" points="408.12,-20.75 311.88,-20.75 311.88,0 408.12,0 408.12,-20.75"/>
<text xml:space="preserve" text-anchor="middle" x="360" y="-7.25" font-family="Helvetica,sans-Serif" font-size="10.00">blitz/tvecglobs.h</text>
</a>
</g>
</g>
<!-- Node17&#45;&gt;Node19 -->
<g id="edge23_Node000017_Node000019" class="edge">
<title>Node17&#45;&gt;Node19</title>
<g id="a_edge23_Node000017_Node000019"><a xlink:title=" ">
<path fill="none" stroke="#63b8ff" d="M314.01,-56.34C321.74,-48.78 332.63,-38.14 341.87,-29.1"/>
<polygon fill="#63b8ff" stroke="#63b8ff" points="344.29,-31.63 348.99,-22.14 339.4,-26.62 344.29,-31.63"/>
</a>
</g>
</g>
<!-- Node20 -->
<g id="Node000020" class="node">
<title>Node20</title>
<g id="a_Node000020"><a xlink:title=" ">
<polygon fill="#e0e0e0" stroke="#999999" points="521,-20.75 463,-20.75 463,0 521,0 521,-20.75"/>
<text xml:space="preserve" text-anchor="middle" x="492" y="-7.25" font-family="Helvetica,sans-Serif" font-size="10.00">complex</text>
</a>
</g>
</g>
<!-- Node17&#45;&gt;Node20 -->
<g id="edge24_Node000017_Node000020" class="edge">
<title>Node17&#45;&gt;Node20</title>
<g id="a_edge24_Node000017_Node000020"><a xlink:title=" ">
<path fill="none" stroke="#63b8ff" d="M334.62,-57.21C366.55,-47.91 416.72,-33.3 451.81,-23.08"/>
<polygon fill="#63b8ff" stroke="#63b8ff" points="452.55,-26.51 461.18,-20.35 450.6,-19.79 452.55,-26.51"/>
</a>
</g>
</g>
<!-- Node21&#45;&gt;Node12 -->
<g id="edge29_Node000021_Node000012" class="edge">
<title>Node21&#45;&gt;Node12</title>
<g id="a_edge29_Node000021_Node000012"><a xlink:title=" ">
<path fill="none" stroke="#63b8ff" d="M514.12,-113.09C494.09,-104.52 464.76,-91.98 442.17,-82.31"/>
<polygon fill="#63b8ff" stroke="#63b8ff" points="443.65,-79.14 433.08,-78.42 440.9,-85.57 443.65,-79.14"/>
</a>
</g>
</g>
<!-- Node21&#45;&gt;Node17 -->
<g id="edge30_Node000021_Node000017" class="edge">
<title>Node21&#45;&gt;Node17</title>
<g id="a_edge30_Node000021_Node000017"><a xlink:title=" ">
<path fill="none" stroke="#63b8ff" d="M495.08,-113.02C452.71,-103.07 387.64,-87.78 345.45,-77.86"/>
<polygon fill="#63b8ff" stroke="#63b8ff" points="346.46,-74.51 335.93,-75.63 344.86,-81.32 346.46,-74.51"/>
</a>
</g>
</g>
<!-- Node21&#45;&gt;Node20 -->
<g id="edge28_Node000021_Node000020" class="edge">
<title>Node21&#45;&gt;Node20</title>
<g id="a_edge28_Node000021_Node000020"><a xlink:title=" ">
<path fill="none" stroke="#63b8ff" d="M533.16,-113.37C525.89,-95.36 509.97,-55.89 500.19,-31.68"/>
<polygon fill="#63b8ff" stroke="#63b8ff" points="503.51,-30.54 496.52,-22.58 497.02,-33.16 503.51,-30.54"/>
</a>
</g>
</g>
<!-- Node22 -->
<g id="Node000022" class="node">
<title>Node22</title>
<g id="a_Node000022"><a xlink:title=" ">
<polygon fill="#e0e0e0" stroke="#999999" points="501.25,-77.5 450.75,-77.5 450.75,-56.75 501.25,-56.75 501.25,-77.5"/>
<text xml:space="preserve" text-anchor="middle" x="476" y="-64" font-family="Helvetica,sans-Serif" font-size="10.00">math.h</text>
</a>
</g>
</g>
<!-- Node21&#45;&gt;Node22 -->
<g id="edge27_Node000021_Node000022" class="edge">
<title>Node21&#45;&gt;Node22</title>
<g id="a_edge27_Node000021_Node000022"><a xlink:title=" ">
<path fill="none" stroke="#63b8ff" d="M526.09,-113.09C517.51,-105.38 505.33,-94.45 495.12,-85.29"/>
<polygon fill="#63b8ff" stroke="#63b8ff" points="497.72,-82.91 487.94,-78.84 493.04,-88.12 497.72,-82.91"/>
</a>
</g>
</g>
<!-- Node24&#45;&gt;Node3 -->
<g id="edge36_Node000024_Node000003" class="edge">
<title>Node24&#45;&gt;Node3</title>
<g id="a_edge36_Node000024_Node000003"><a xlink:title=" ">
<path fill="none" stroke="#63b8ff" d="M503.39,-340.26C508.42,-331.15 516.02,-317.05 522,-304.5 538.1,-270.7 531.71,-256.31 555,-227 598.47,-172.27 645.66,-193.96 682,-134.25 701.2,-102.7 703.22,-58.44 702.45,-32.55"/>
<polygon fill="#63b8ff" stroke="#63b8ff" points="705.95,-32.48 701.97,-22.66 698.96,-32.82 705.95,-32.48"/>
</a>
</g>
</g>
<!-- Node24&#45;&gt;Node4 -->
<g id="edge37_Node000024_Node000004" class="edge">
<title>Node24&#45;&gt;Node4</title>
<g id="a_edge37_Node000024_Node000004"><a xlink:title=" ">
<path fill="none" stroke="#63b8ff" d="M511.54,-340.16C522.77,-331.63 538.67,-318.46 550,-304.5 561.53,-290.3 571.45,-272.01 578.11,-258.27"/>
<polygon fill="#63b8ff" stroke="#63b8ff" points="581.21,-259.9 582.26,-249.36 574.86,-256.95 581.21,-259.9"/>
</a>
</g>
</g>
<!-- Node24&#45;&gt;Node6 -->
<g id="edge39_Node000024_Node000006" class="edge">
<title>Node24&#45;&gt;Node6</title>
<g id="a_edge39_Node000024_Node000006"><a xlink:title=" ">
<path fill="none" stroke="#63b8ff" d="M527.65,-340.96C557.15,-332.08 602.75,-318.36 636.38,-308.25"/>
<polygon fill="#63b8ff" stroke="#63b8ff" points="637.27,-311.63 645.84,-305.4 635.26,-304.93 637.27,-311.63"/>
</a>
</g>
</g>
<!-- Node24&#45;&gt;Node8 -->
<g id="edge40_Node000024_Node000008" class="edge">
<title>Node24&#45;&gt;Node8</title>
<g id="a_edge40_Node000024_Node000008"><a xlink:title=" ">
<path fill="none" stroke="#63b8ff" d="M486.23,-340.37C462.83,-321.46 410.15,-278.89 380.78,-255.16"/>
<polygon fill="#63b8ff" stroke="#63b8ff" points="383.28,-252.69 373.31,-249.13 378.89,-258.13 383.28,-252.69"/>
</a>
</g>
</g>
<!-- Node24&#45;&gt;Node11 -->
<g id="edge38_Node000024_Node000011" class="edge">
<title>Node24&#45;&gt;Node11</title>
<g id="a_edge38_Node000024_Node000011"><a xlink:title=" ">
<path fill="none" stroke="#63b8ff" d="M468.52,-350.14C417.78,-349.47 311.81,-343.1 233,-304.5 163.05,-270.24 115.73,-184.47 97.01,-145.15"/>
<polygon fill="#63b8ff" stroke="#63b8ff" points="100.21,-143.74 92.84,-136.12 93.85,-146.67 100.21,-143.74"/>
</a>
</g>
</g>
<!-- Node24&#45;&gt;Node17 -->
<g id="edge46_Node000024_Node000017" class="edge">
<title>Node24&#45;&gt;Node17</title>
<g id="a_edge46_Node000024_Node000017"><a xlink:title=" ">
<path fill="none" stroke="#63b8ff" d="M468.17,-349.07C366.24,-345.53 38,-327.23 38,-238.38 38,-238.38 38,-238.38 38,-179.62 38,-149.05 34.34,-134.04 57,-113.5 86.51,-86.75 199.73,-75.07 262.13,-70.57"/>
<polygon fill="#63b8ff" stroke="#63b8ff" points="262.28,-74.07 272.01,-69.9 261.8,-67.09 262.28,-74.07"/>
</a>
</g>
</g>
<!-- Node24&#45;&gt;Node21 -->
<g id="edge47_Node000024_Node000021" class="edge">
<title>Node24&#45;&gt;Node21</title>
<g id="a_edge47_Node000024_Node000021"><a xlink:title=" ">
<path fill="none" stroke="#63b8ff" d="M499.68,-340.21C505.54,-306.38 525.22,-192.86 533.39,-145.69"/>
<polygon fill="#63b8ff" stroke="#63b8ff" points="536.81,-146.45 535.07,-136 529.92,-145.25 536.81,-146.45"/>
</a>
</g>
</g>
<!-- Node25 -->
<g id="Node000025" class="node">
<title>Node25</title>
<g id="a_Node000025"><a xlink:href="SingSub_8h.html" target="_top" xlink:title="Exact subtractions for singular/near&#45;singular triangle integrals.">
<polygon fill="white" stroke="#666666" points="306,-304.5 242,-304.5 242,-283.75 306,-283.75 306,-304.5"/>
<text xml:space="preserve" text-anchor="middle" x="274" y="-291" font-family="Helvetica,sans-Serif" font-size="10.00">SingSub.h</text>
</a>
</g>
</g>
<!-- Node24&#45;&gt;Node25 -->
<g id="edge41_Node000024_Node000025" class="edge">
<title>Node24&#45;&gt;Node25</title>
<g id="a_edge41_Node000024_Node000025"><a xlink:title=" ">
<path fill="none" stroke="#63b8ff" d="M468.25,-342.6C429.61,-333.16 361.84,-316.6 317.44,-305.74"/>
<polygon fill="#63b8ff" stroke="#63b8ff" points="318.43,-302.38 307.88,-303.41 316.76,-309.18 318.43,-302.38"/>
</a>
</g>
</g>
<!-- Node25&#45;&gt;Node8 -->
<g id="edge43_Node000025_Node000008" class="edge">
<title>Node25&#45;&gt;Node8</title>
<g id="a_edge43_Node000025_Node000008"><a xlink:title=" ">
<path fill="none" stroke="#63b8ff" d="M289.38,-283.34C302.09,-275.24 320.4,-263.58 335.19,-254.17"/>
<polygon fill="#63b8ff" stroke="#63b8ff" points="336.93,-257.21 343.48,-248.89 333.17,-251.31 336.93,-257.21"/>
</a>
</g>
</g>
<!-- Node25&#45;&gt;Node12 -->
<g id="edge42_Node000025_Node000012" class="edge">
<title>Node25&#45;&gt;Node12</title>
<g id="a_edge42_Node000025_Node000012"><a xlink:title=" ">
<path fill="none" stroke="#63b8ff" d="M266.81,-283.37C246.32,-254.28 191.66,-166.85 233,-113.5 241.7,-102.27 325.31,-84.37 374.09,-74.76"/>
<polygon fill="#63b8ff" stroke="#63b8ff" points="374.76,-78.19 383.9,-72.84 373.42,-71.32 374.76,-78.19"/>
</a>
</g>
</g>
<!-- Node25&#45;&gt;Node16 -->
<g id="edge44_Node000025_Node000016" class="edge">
<title>Node25&#45;&gt;Node16</title>
<g id="a_edge44_Node000025_Node000016"><a xlink:title=" ">
<path fill="none" stroke="#63b8ff" d="M274,-283.6C274,-257.23 274,-182.83 274,-146.03"/>
<polygon fill="#63b8ff" stroke="#63b8ff" points="277.5,-146.23 274,-136.23 270.5,-146.23 277.5,-146.23"/>
</a>
</g>
</g>
<!-- Node25&#45;&gt;Node17 -->
<g id="edge45_Node000025_Node000017" class="edge">
<title>Node25&#45;&gt;Node17</title>
<g id="a_edge45_Node000025_Node000017"><a xlink:title=" ">
<path fill="none" stroke="#63b8ff" d="M241.89,-286.06C221.46,-279.72 196.57,-268.16 184,-247.75 165.94,-218.42 173.21,-202.96 184,-170.25 197.64,-128.88 240.74,-99.47 271.37,-83.14"/>
<polygon fill="#63b8ff" stroke="#63b8ff" points="272.95,-86.26 280.27,-78.6 269.77,-80.03 272.95,-86.26"/>
</a>
</g>
</g>
</g>
</svg>

<g id="navigator" transform="translate(0 0)" fill="#404254">
  <rect fill="#f2f5e9" fill-opacity="0.5" stroke="#606060" stroke-width=".5" x="0" y="0" width="60" height="60"/>
  <use id="zoomplus" xlink:href="#zoomPlus" x="17" y="9" onmousedown="handleZoom(evt,'in')"/>
  <use id="zoomminus" xlink:href="#zoomMin" x="42" y="9" onmousedown="handleZoom(evt,'out')"/>
  <use id="reset" xlink:href="#resetDef" x="30" y="36" onmousedown="handleReset()"/>
   <use id="arrowup" xlink:href="#arrowUp" x="0" y="0" onmousedown="handlePan(0,-1)"/>
  <use id="arrowright" xlink:href="#arrowRight" x="0" y="0" onmousedown="handlePan(1,0)"/>
  <use id="arrowdown" xlink:href="#arrowDown" x="0" y="0" onmousedown="handlePan(0,1)"/>
  <use id="arrowleft" xlink:href="#arrowLeft" x="0" y="0" onmousedown="handlePan(-1,0)"/>
</g>
<svg viewBox="0 0 15 15" width="100%" height="30px" preserveAspectRatio="xMaxYMin meet">
 <g id="arrow_out" transform="scale(0.3 0.3)">
  <a xlink:href="GreenFHom3D_8cpp__incl_org.svg" target="_base">
   <rect id="button" ry="5" rx="5" y="6" x="6" height="38" width="38"
        fill="#f2f5e9" fill-opacity="0.5" stroke="#606060" stroke-width="1.0"/>
   <path id="arrow"
     d="M 11.500037,31.436501 C 11.940474,20.09759 22.043105,11.32322 32.158766,21.979434 L 37.068811,17.246167 C 37.068811,17.246167 37.088388,32 37.088388,32 L 22.160133,31.978069 C 22.160133,31.978069 26.997745,27.140456 26.997745,27.140456 C 18.528582,18.264221 13.291696,25.230495 11.500037,31.436501 z"
     style="fill:#404040;"/>
  </a>
 </g>
</svg>

<style type='text/css'>
<![CDATA[
[data-mouse-over-selected='false'] { opacity: 0.7; }
[data-mouse-over-selected='true']  { opacity: 1.0; }
]]>
</style>
<script type="application/ecmascript"><![CDATA[
document.addEventListener('DOMContentLoaded', (event) => {
  highlightEdges();
  highlightAdjacentNodes();
});
]]></script>
</svg>
