<?xml version="1.0" encoding="UTF-8" standalone="no"?>
<!DOCTYPE svg PUBLIC "-//W3C//DTD SVG 1.1//EN"
 "http://www.w3.org/Graphics/SVG/1.1/DTD/svg11.dtd">
<!-- Generated by graphviz version 13.1.2 (20250809.0930)
 -->
<!-- Title: GreenFHom3DPer2D.h Pages: 1 -->
<!--zoomable 540 -->

<svg id="main" version="1.1" xmlns="http://www.w3.org/2000/svg" xmlns:xlink="http://www.w3.org/1999/xlink" xml:space="preserve" onload="init(evt)">

<style type="text/css"><![CDATA[
.node, .edge {opacity: 0.7;}
.node.selected, .edge.selected {opacity: 1;}
.edge:hover path { stroke: red; }
.edge:hover polygon { stroke: red; fill: red; }
]]></style>

<defs>
  <circle id="rim" cx="0" cy="0" r="7"/>
  <circle id="rim2" cx="0" cy="0" r="3.5"/>
  <g id="zoomPlus">
    <use xlink:href="#rim" fill="#404040"><set attributeName="fill" to="#808080" begin="zoomplus.mouseover" end="zoomplus.mouseout"/></use>
    <path d="M-4,0h8M0,-4v8" fill="none" stroke="white" stroke-width="1.5" pointer-events="none"/>
  </g>
  <g id="zoomMin">
    <use xlink:href="#rim" fill="#404040"><set attributeName="fill" to="#808080" begin="zoomminus.mouseover" end="zoomminus.mouseout"/></use>
    <path d="M-4,0h8" fill="none" stroke="white" stroke-width="1.5" pointer-events="none"/>
  </g>
  <g id="arrowUp" transform="translate(30 24)">
    <use xlink:href="#rim"/>
    <path pointer-events="none" fill="none" stroke="white" stroke-width="1.5" d="M0,-3.0v7 M-2.5,-0.5L0,-3.0L2.5,-0.5"/>
  </g>
  <g id="arrowRight" transform="rotate(90) translate(36 -43)">
    <use xlink:href="#rim"/>
    <path pointer-events="none" fill="none" stroke="white" stroke-width="1.5" d="M0,-3.0v7 M-2.5,-0.5L0,-3.0L2.5,-0.5"/>
  </g>
  <g id="arrowDown" transform="rotate(180) translate(-30 -48)">
    <use xlink:href="#rim"/>
    <path pointer-events="none" fill="none" stroke="white" stroke-width="1.5" d="M0,-3.0v7 M-2.5,-0.5L0,-3.0L2.5,-0.5"/>
  </g>
  <g id="arrowLeft" transform="rotate(270) translate(-36 17)">
    <use xlink:href="#rim"/>
    <path pointer-events="none" fill="none" stroke="white" stroke-width="1.5" d="M0,-3.0v7 M-2.5,-0.5L0,-3.0L2.5,-0.5"/>
  </g>
  <g id="resetDef">
    <use xlink:href="#rim2" fill="#404040"><set attributeName="fill" to="#808080" begin="reset.mouseover" end="reset.mouseout"/></use>
  </g>
</defs>
<script type="application/ecmascript">
var viewWidth = 957;
var viewHeight = 540;
var sectionId = 'dynsection-0';
</script>
<script type="application/ecmascript" xlink:href="svg.min.js"/>
<svg id="graph" class="graph">
<g id="viewport">
<title>GreenFHom3DPer2D.h</title>
<!-- Node1 -->
<g id="Node000001" class="node">
<title>Node1</title>
<g id="a_Node000001"><a xlink:title="Periodic homogeneous 3D Green&#39;s function with 2D in‑plane periodicity.">
<polygon fill="#999999" stroke="#666666" points="325.12,-531.5 198.88,-531.5 198.88,-510.75 325.12,-510.75 325.12,-531.5"/>
<text xml:space="preserve" text-anchor="middle" x="262" y="-518" font-family="Helvetica,sans-Serif" font-size="10.00">GreenFHom3DPer2D.h</text>
</a>
</g>
</g>
<!-- Node2 -->
<g id="Node000002" class="node">
<title>Node2</title>
<g id="a_Node000002"><a xlink:title=" ">
<polygon fill="#e0e0e0" stroke="#999999" points="150.38,-247.75 103.62,-247.75 103.62,-227 150.38,-227 150.38,-247.75"/>
<text xml:space="preserve" text-anchor="middle" x="127" y="-234.25" font-family="Helvetica,sans-Serif" font-size="10.00">cmath</text>
</a>
</g>
</g>
<!-- Node1&#45;&gt;Node2 -->
<g id="edge1_Node000001_Node000002" class="edge">
<title>Node1&#45;&gt;Node2</title>
<g id="a_edge1_Node000001_Node000002"><a xlink:title=" ">
<path fill="none" stroke="#63b8ff" d="M257.35,-510.43C237.96,-469.96 163.26,-314.06 136.56,-258.33"/>
<polygon fill="#63b8ff" stroke="#63b8ff" points="139.76,-256.9 132.28,-249.4 133.45,-259.93 139.76,-256.9"/>
</a>
</g>
</g>
<!-- Node3 -->
<g id="Node000003" class="node">
<title>Node3</title>
<g id="a_Node000003"><a xlink:href="GreenFHom3DPer_8h.html" target="_top" xlink:title="Periodic homogeneous 3D Green&#39;s function (abstract base).">
<polygon fill="white" stroke="#666666" points="398,-474.75 286,-474.75 286,-454 398,-454 398,-474.75"/>
<text xml:space="preserve" text-anchor="middle" x="342" y="-461.25" font-family="Helvetica,sans-Serif" font-size="10.00">GreenFHom3DPer.h</text>
</a>
</g>
</g>
<!-- Node1&#45;&gt;Node3 -->
<g id="edge2_Node000001_Node000003" class="edge">
<title>Node1&#45;&gt;Node3</title>
<g id="a_edge2_Node000001_Node000003"><a xlink:title=" ">
<path fill="none" stroke="#63b8ff" d="M276.3,-510.34C288.02,-502.32 304.84,-490.81 318.53,-481.44"/>
<polygon fill="#63b8ff" stroke="#63b8ff" points="320.3,-484.47 326.57,-475.93 316.34,-478.69 320.3,-484.47"/>
</a>
</g>
</g>
<!-- Node18 -->
<g id="Node000018" class="node">
<title>Node18</title>
<g id="a_Node000018"><a xlink:href="globals_8h.html" target="_top" xlink:title="Global numerical constants, fundamental types, and simple macros.">
<polygon fill="white" stroke="#666666" points="342.12,-77.5 281.88,-77.5 281.88,-56.75 342.12,-56.75 342.12,-77.5"/>
<text xml:space="preserve" text-anchor="middle" x="312" y="-64" font-family="Helvetica,sans-Serif" font-size="10.00">globals.h</text>
</a>
</g>
</g>
<!-- Node1&#45;&gt;Node18 -->
<g id="edge54_Node000001_Node000018" class="edge">
<title>Node1&#45;&gt;Node18</title>
<g id="a_edge54_Node000001_Node000018"><a xlink:title=" ">
<path fill="none" stroke="#63b8ff" d="M198.58,-519.61C121.04,-515.24 0,-494.64 0,-408.62 0,-408.62 0,-408.62 0,-179.62 0,-141.68 21.26,-132.68 54,-113.5 90.02,-92.4 207.05,-78.23 270.38,-71.9"/>
<polygon fill="#63b8ff" stroke="#63b8ff" points="270.43,-75.41 280.05,-70.95 269.75,-68.44 270.43,-75.41"/>
</a>
</g>
</g>
<!-- Node22 -->
<g id="Node000022" class="node">
<title>Node22</title>
<g id="a_Node000022"><a xlink:href="mathFunctions_8h.html" target="_top" xlink:title="Header file of the class that provides auxiliary mathematical functionalities for the SIE solver.">
<polygon fill="white" stroke="#666666" points="870.5,-134.25 773.5,-134.25 773.5,-113.5 870.5,-113.5 870.5,-134.25"/>
<text xml:space="preserve" text-anchor="middle" x="822" y="-120.75" font-family="Helvetica,sans-Serif" font-size="10.00">mathFunctions.h</text>
</a>
</g>
</g>
<!-- Node1&#45;&gt;Node22 -->
<g id="edge55_Node000001_Node000022" class="edge">
<title>Node1&#45;&gt;Node22</title>
<g id="a_edge55_Node000001_Node000022"><a xlink:title=" ">
<path fill="none" stroke="#63b8ff" d="M325.4,-516.46C495.47,-505.79 949,-471.46 949,-408.62 949,-408.62 949,-408.62 949,-293.12 949,-225.6 883.03,-168.01 846.18,-141.11"/>
<polygon fill="#63b8ff" stroke="#63b8ff" points="848.48,-138.45 838.3,-135.53 844.44,-144.16 848.48,-138.45"/>
</a>
</g>
</g>
<!-- Node4 -->
<g id="Node000004" class="node">
<title>Node4</title>
<g id="a_Node000004"><a xlink:title=" ">
<polygon fill="#e0e0e0" stroke="#999999" points="870.88,-77.5 827.12,-77.5 827.12,-56.75 870.88,-56.75 870.88,-77.5"/>
<text xml:space="preserve" text-anchor="middle" x="849" y="-64" font-family="Helvetica,sans-Serif" font-size="10.00">string</text>
</a>
</g>
</g>
<!-- Node3&#45;&gt;Node4 -->
<g id="edge3_Node000003_Node000004" class="edge">
<title>Node3&#45;&gt;Node4</title>
<g id="a_edge3_Node000003_Node000004"><a xlink:title=" ">
<path fill="none" stroke="#63b8ff" d="M398.38,-464.14C542.11,-464.59 911,-455.62 911,-351.88 911,-351.88 911,-351.88 911,-293.12 911,-212.11 910.44,-188.58 880,-113.5 876.17,-104.05 870.13,-94.58 864.4,-86.76"/>
<polygon fill="#63b8ff" stroke="#63b8ff" points="867.32,-84.8 858.42,-79.05 861.79,-89.09 867.32,-84.8"/>
</a>
</g>
</g>
<!-- Node5 -->
<g id="Node000005" class="node">
<title>Node5</title>
<g id="a_Node000005"><a xlink:href="GreenFHom3D_8h.html" target="_top" xlink:title="3D scalar/dyadic Green&#39;s function in a homogeneous background.">
<polygon fill="white" stroke="#666666" points="390.5,-418 293.5,-418 293.5,-397.25 390.5,-397.25 390.5,-418"/>
<text xml:space="preserve" text-anchor="middle" x="342" y="-404.5" font-family="Helvetica,sans-Serif" font-size="10.00">GreenFHom3D.h</text>
</a>
</g>
</g>
<!-- Node3&#45;&gt;Node5 -->
<g id="edge4_Node000003_Node000005" class="edge">
<title>Node3&#45;&gt;Node5</title>
<g id="a_edge4_Node000003_Node000005"><a xlink:title=" ">
<path fill="none" stroke="#63b8ff" d="M342,-453.59C342,-446.97 342,-437.97 342,-429.77"/>
<polygon fill="#63b8ff" stroke="#63b8ff" points="345.5,-429.84 342,-419.84 338.5,-429.84 345.5,-429.84"/>
</a>
</g>
</g>
<!-- Node3&#45;&gt;Node18 -->
<g id="edge52_Node000003_Node000018" class="edge">
<title>Node3&#45;&gt;Node18</title>
<g id="a_edge52_Node000003_Node000018"><a xlink:title=" ">
<path fill="none" stroke="#63b8ff" d="M285.53,-454.53C197.62,-439.14 38,-404.02 38,-351.88 38,-351.88 38,-351.88 38,-179.62 38,-142.78 56.81,-133.12 88,-113.5 144.19,-78.14 222.62,-69.62 270.21,-67.96"/>
<polygon fill="#63b8ff" stroke="#63b8ff" points="270.19,-71.46 280.1,-67.71 270.02,-64.46 270.19,-71.46"/>
</a>
</g>
</g>
<!-- Node3&#45;&gt;Node22 -->
<g id="edge53_Node000003_Node000022" class="edge">
<title>Node3&#45;&gt;Node22</title>
<g id="a_edge53_Node000003_Node000022"><a xlink:title=" ">
<path fill="none" stroke="#63b8ff" d="M398.32,-463.34C534.98,-461.75 873,-448.07 873,-351.88 873,-351.88 873,-351.88 873,-236.38 873,-201.25 851.81,-165.09 836.75,-143.81"/>
<polygon fill="#63b8ff" stroke="#63b8ff" points="839.63,-141.81 830.87,-135.85 834,-145.97 839.63,-141.81"/>
</a>
</g>
</g>
<!-- Node5&#45;&gt;Node2 -->
<g id="edge6_Node000005_Node000002" class="edge">
<title>Node5&#45;&gt;Node2</title>
<g id="a_edge6_Node000005_Node000002"><a xlink:title=" ">
<path fill="none" stroke="#63b8ff" d="M326.66,-396.87C299.62,-379.44 242.06,-341.33 197,-304.5 178.1,-289.05 157.99,-269.71 144.19,-255.95"/>
<polygon fill="#63b8ff" stroke="#63b8ff" points="146.71,-253.52 137.18,-248.88 141.74,-258.45 146.71,-253.52"/>
</a>
</g>
</g>
<!-- Node6 -->
<g id="Node000006" class="node">
<title>Node6</title>
<g id="a_Node000006"><a xlink:title=" ">
<polygon fill="#e0e0e0" stroke="#999999" points="935.5,-20.75 862.5,-20.75 862.5,0 935.5,0 935.5,-20.75"/>
<text xml:space="preserve" text-anchor="middle" x="899" y="-7.25" font-family="Helvetica,sans-Serif" font-size="10.00">blitz/array.h</text>
</a>
</g>
</g>
<!-- Node5&#45;&gt;Node6 -->
<g id="edge5_Node000005_Node000006" class="edge">
<title>Node5&#45;&gt;Node6</title>
<g id="a_edge5_Node000005_Node000006"><a xlink:title=" ">
<path fill="none" stroke="#63b8ff" d="M390.62,-405.88C515,-402.67 835,-385.62 835,-295.12 835,-295.12 835,-295.12 835,-236.38 835,-182.81 877.29,-183.22 899,-134.25 909.62,-110.29 911.41,-103.46 915,-77.5 916.26,-68.36 916.56,-65.84 915,-56.75 913.56,-48.33 910.72,-39.4 907.82,-31.7"/>
<polygon fill="#63b8ff" stroke="#63b8ff" points="911.13,-30.56 904.13,-22.61 904.65,-33.19 911.13,-30.56"/>
</a>
</g>
</g>
<!-- Node7 -->
<g id="Node000007" class="node">
<title>Node7</title>
<g id="a_Node000007"><a xlink:title=" ">
<polygon fill="#e0e0e0" stroke="#999999" points="476.38,-361.25 435.62,-361.25 435.62,-340.5 476.38,-340.5 476.38,-361.25"/>
<text xml:space="preserve" text-anchor="middle" x="456" y="-347.75" font-family="Helvetica,sans-Serif" font-size="10.00">tuple</text>
</a>
</g>
</g>
<!-- Node5&#45;&gt;Node7 -->
<g id="edge7_Node000005_Node000007" class="edge">
<title>Node5&#45;&gt;Node7</title>
<g id="a_edge7_Node000005_Node000007"><a xlink:title=" ">
<path fill="none" stroke="#63b8ff" d="M362.38,-396.84C379.97,-388.39 405.63,-376.07 425.63,-366.46"/>
<polygon fill="#63b8ff" stroke="#63b8ff" points="426.93,-369.72 434.43,-362.23 423.9,-363.41 426.93,-369.72"/>
</a>
</g>
</g>
<!-- Node8 -->
<g id="Node000008" class="node">
<title>Node8</title>
<g id="a_Node000008"><a xlink:href="GaussQuad_8h.html" target="_top" xlink:title="Gaussian quadrature helpers for Green&#39;s functions and incident fields.">
<polygon fill="white" stroke="#666666" points="329.25,-304.5 248.75,-304.5 248.75,-283.75 329.25,-283.75 329.25,-304.5"/>
<text xml:space="preserve" text-anchor="middle" x="289" y="-291" font-family="Helvetica,sans-Serif" font-size="10.00">GaussQuad.h</text>
</a>
</g>
</g>
<!-- Node5&#45;&gt;Node8 -->
<g id="edge8_Node000005_Node000008" class="edge">
<title>Node5&#45;&gt;Node8</title>
<g id="a_edge8_Node000005_Node000008"><a xlink:title=" ">
<path fill="none" stroke="#63b8ff" d="M337.48,-397.12C328.88,-379.02 309.99,-339.28 298.49,-315.1"/>
<polygon fill="#63b8ff" stroke="#63b8ff" points="301.76,-313.82 294.31,-306.29 295.44,-316.83 301.76,-313.82"/>
</a>
</g>
</g>
<!-- Node5&#45;&gt;Node18 -->
<g id="edge51_Node000005_Node000018" class="edge">
<title>Node5&#45;&gt;Node18</title>
<g id="a_edge51_Node000005_Node000018"><a xlink:title=" ">
<path fill="none" stroke="#63b8ff" d="M293.21,-398.56C216.42,-382.78 76,-340.01 76,-238.38 76,-238.38 76,-238.38 76,-179.62 76,-94.59 202.8,-74.31 270.51,-69.54"/>
<polygon fill="#63b8ff" stroke="#63b8ff" points="270.35,-73.06 280.12,-68.95 269.92,-66.07 270.35,-73.06"/>
</a>
</g>
</g>
<!-- Node25 -->
<g id="Node000025" class="node">
<title>Node25</title>
<g id="a_Node000025"><a xlink:href="GreenF_8h.html" target="_top" xlink:title="Abstract base class for electromagnetic Green&#39;s functions.">
<polygon fill="white" stroke="#666666" points="417.38,-361.25 358.62,-361.25 358.62,-340.5 417.38,-340.5 417.38,-361.25"/>
<text xml:space="preserve" text-anchor="middle" x="388" y="-347.75" font-family="Helvetica,sans-Serif" font-size="10.00">GreenF.h</text>
</a>
</g>
</g>
<!-- Node5&#45;&gt;Node25 -->
<g id="edge38_Node000005_Node000025" class="edge">
<title>Node5&#45;&gt;Node25</title>
<g id="a_edge38_Node000005_Node000025"><a xlink:title=" ">
<path fill="none" stroke="#63b8ff" d="M350.22,-396.84C356.44,-389.44 365.15,-379.07 372.64,-370.16"/>
<polygon fill="#63b8ff" stroke="#63b8ff" points="375.12,-372.65 378.87,-362.74 369.76,-368.14 375.12,-372.65"/>
</a>
</g>
</g>
<!-- Node8&#45;&gt;Node2 -->
<g id="edge9_Node000008_Node000002" class="edge">
<title>Node8&#45;&gt;Node2</title>
<g id="a_edge9_Node000008_Node000002"><a xlink:title=" ">
<path fill="none" stroke="#63b8ff" d="M260.04,-283.34C232.36,-273.98 190.62,-259.88 161.29,-249.96"/>
<polygon fill="#63b8ff" stroke="#63b8ff" points="162.74,-246.76 152.15,-246.87 160.5,-253.39 162.74,-246.76"/>
</a>
</g>
</g>
<!-- Node9 -->
<g id="Node000009" class="node">
<title>Node9</title>
<g id="a_Node000009"><a xlink:title=" ">
<polygon fill="#e0e0e0" stroke="#999999" points="477.75,-77.5 418.25,-77.5 418.25,-56.75 477.75,-56.75 477.75,-77.5"/>
<text xml:space="preserve" text-anchor="middle" x="448" y="-64" font-family="Helvetica,sans-Serif" font-size="10.00">iostream</text>
</a>
</g>
</g>
<!-- Node8&#45;&gt;Node9 -->
<g id="edge10_Node000008_Node000009" class="edge">
<title>Node8&#45;&gt;Node9</title>
<g id="a_edge10_Node000008_Node000009"><a xlink:title=" ">
<path fill="none" stroke="#63b8ff" d="M291.07,-283.38C297.69,-254.32 320.74,-166.97 369,-113.5 380.68,-100.56 396.95,-90.35 411.69,-82.91"/>
<polygon fill="#63b8ff" stroke="#63b8ff" points="413.17,-86.09 420.7,-78.64 410.17,-79.77 413.17,-86.09"/>
</a>
</g>
</g>
<!-- Node10 -->
<g id="Node000010" class="node">
<title>Node10</title>
<g id="a_Node000010"><a xlink:href="RWGFun_8h.html" target="_top" xlink:title="Header for the RWGFun class.">
<polygon fill="white" stroke="#666666" points="444.12,-247.75 377.88,-247.75 377.88,-227 444.12,-227 444.12,-247.75"/>
<text xml:space="preserve" text-anchor="middle" x="411" y="-234.25" font-family="Helvetica,sans-Serif" font-size="10.00">RWGFun.h</text>
</a>
</g>
</g>
<!-- Node8&#45;&gt;Node10 -->
<g id="edge11_Node000008_Node000010" class="edge">
<title>Node8&#45;&gt;Node10</title>
<g id="a_edge11_Node000008_Node000010"><a xlink:title=" ">
<path fill="none" stroke="#63b8ff" d="M310.81,-283.34C329.81,-274.81 357.6,-262.34 379.09,-252.69"/>
<polygon fill="#63b8ff" stroke="#63b8ff" points="380.31,-255.99 388,-248.7 377.44,-249.6 380.31,-255.99"/>
</a>
</g>
</g>
<!-- Node8&#45;&gt;Node18 -->
<g id="edge36_Node000008_Node000018" class="edge">
<title>Node8&#45;&gt;Node18</title>
<g id="a_edge36_Node000008_Node000018"><a xlink:title=" ">
<path fill="none" stroke="#63b8ff" d="M248.72,-283.85C229.55,-277.19 208.38,-266.05 197,-247.75 192.13,-239.92 196,-236.17 197,-227 202.59,-175.65 190.32,-154.3 222,-113.5 234.27,-97.71 253.52,-86.97 271.07,-79.93"/>
<polygon fill="#63b8ff" stroke="#63b8ff" points="272.11,-83.27 280.28,-76.53 269.69,-76.7 272.11,-83.27"/>
</a>
</g>
</g>
<!-- Node24 -->
<g id="Node000024" class="node">
<title>Node24</title>
<g id="a_Node000024"><a xlink:href="quadrature_8h.html" target="_top" xlink:title="Declarations of Dunavant (triangle) and Gauss–Legendre (1D) quadrature rules.">
<polygon fill="white" stroke="#666666" points="284.12,-247.75 205.88,-247.75 205.88,-227 284.12,-227 284.12,-247.75"/>
<text xml:space="preserve" text-anchor="middle" x="245" y="-234.25" font-family="Helvetica,sans-Serif" font-size="10.00">quadrature.h</text>
</a>
</g>
</g>
<!-- Node8&#45;&gt;Node24 -->
<g id="edge37_Node000008_Node000024" class="edge">
<title>Node8&#45;&gt;Node24</title>
<g id="a_edge37_Node000008_Node000024"><a xlink:title=" ">
<path fill="none" stroke="#63b8ff" d="M281.13,-283.34C275.25,-276.02 267.03,-265.79 259.92,-256.94"/>
<polygon fill="#63b8ff" stroke="#63b8ff" points="262.74,-254.86 253.75,-249.26 257.28,-259.25 262.74,-254.86"/>
</a>
</g>
</g>
<!-- Node11 -->
<g id="Node000011" class="node">
<title>Node11</title>
<g id="a_Node000011"><a xlink:href="SurfaceMesh_8h.html" target="_top" xlink:title="Declaration of the SurfaceMesh class and mesh edge struct.">
<polygon fill="white" stroke="#666666" points="626,-191 538,-191 538,-170.25 626,-170.25 626,-191"/>
<text xml:space="preserve" text-anchor="middle" x="582" y="-177.5" font-family="Helvetica,sans-Serif" font-size="10.00">SurfaceMesh.h</text>
</a>
</g>
</g>
<!-- Node10&#45;&gt;Node11 -->
<g id="edge12_Node000010_Node000011" class="edge">
<title>Node10&#45;&gt;Node11</title>
<g id="a_edge12_Node000010_Node000011"><a xlink:title=" ">
<path fill="none" stroke="#63b8ff" d="M441.57,-226.59C469.21,-217.74 510.12,-204.64 540.66,-194.86"/>
<polygon fill="#63b8ff" stroke="#63b8ff" points="541.51,-198.26 549.96,-191.88 539.37,-191.6 541.51,-198.26"/>
</a>
</g>
</g>
<!-- Node17 -->
<g id="Node000017" class="node">
<title>Node17</title>
<g id="a_Node000017"><a xlink:href="Triangle_8h.html" target="_top" xlink:title="Declaration of the Triangle class (surface element with cached geometry).">
<polygon fill="white" stroke="#666666" points="441.62,-134.25 378.38,-134.25 378.38,-113.5 441.62,-113.5 441.62,-134.25"/>
<text xml:space="preserve" text-anchor="middle" x="410" y="-120.75" font-family="Helvetica,sans-Serif" font-size="10.00">Triangle.h</text>
</a>
</g>
</g>
<!-- Node10&#45;&gt;Node17 -->
<g id="edge34_Node000010_Node000017" class="edge">
<title>Node10&#45;&gt;Node17</title>
<g id="a_edge34_Node000010_Node000017"><a xlink:title=" ">
<path fill="none" stroke="#63b8ff" d="M410.91,-226.87C410.76,-209.1 410.41,-170.47 410.19,-146.18"/>
<polygon fill="#63b8ff" stroke="#63b8ff" points="413.69,-146.16 410.1,-136.19 406.69,-146.22 413.69,-146.16"/>
</a>
</g>
</g>
<!-- Node10&#45;&gt;Node18 -->
<g id="edge35_Node000010_Node000018" class="edge">
<title>Node10&#45;&gt;Node18</title>
<g id="a_edge35_Node000010_Node000018"><a xlink:title=" ">
<path fill="none" stroke="#63b8ff" d="M402.79,-226.85C395.11,-217.81 383.43,-203.75 374,-191 355.94,-166.6 349.72,-161.33 336,-134.25 328.56,-119.57 322.3,-102.02 318.04,-88.7"/>
<polygon fill="#63b8ff" stroke="#63b8ff" points="321.44,-87.83 315.16,-79.29 314.75,-89.88 321.44,-87.83"/>
</a>
</g>
</g>
<!-- Node12 -->
<g id="Node000012" class="node">
<title>Node12</title>
<g id="a_Node000012"><a xlink:title=" ">
<polygon fill="#e0e0e0" stroke="#999999" points="529.5,-134.25 498.5,-134.25 498.5,-113.5 529.5,-113.5 529.5,-134.25"/>
<text xml:space="preserve" text-anchor="middle" x="514" y="-120.75" font-family="Helvetica,sans-Serif" font-size="10.00">set</text>
</a>
</g>
</g>
<!-- Node11&#45;&gt;Node12 -->
<g id="edge13_Node000011_Node000012" class="edge">
<title>Node11&#45;&gt;Node12</title>
<g id="a_edge13_Node000011_Node000012"><a xlink:title=" ">
<path fill="none" stroke="#63b8ff" d="M569.84,-169.84C560.17,-162.05 546.42,-150.97 534.98,-141.76"/>
<polygon fill="#63b8ff" stroke="#63b8ff" points="537.21,-139.07 527.23,-135.53 532.82,-144.53 537.21,-139.07"/>
</a>
</g>
</g>
<!-- Node13 -->
<g id="Node000013" class="node">
<title>Node13</title>
<g id="a_Node000013"><a xlink:title=" ">
<polygon fill="#e0e0e0" stroke="#999999" points="717.25,-134.25 672.75,-134.25 672.75,-113.5 717.25,-113.5 717.25,-134.25"/>
<text xml:space="preserve" text-anchor="middle" x="695" y="-120.75" font-family="Helvetica,sans-Serif" font-size="10.00">utility</text>
</a>
</g>
</g>
<!-- Node11&#45;&gt;Node13 -->
<g id="edge14_Node000011_Node000013" class="edge">
<title>Node11&#45;&gt;Node13</title>
<g id="a_edge14_Node000011_Node000013"><a xlink:title=" ">
<path fill="none" stroke="#63b8ff" d="M602.2,-169.84C619.56,-161.43 644.83,-149.18 664.63,-139.59"/>
<polygon fill="#63b8ff" stroke="#63b8ff" points="666.14,-142.75 673.61,-135.24 663.09,-136.45 666.14,-142.75"/>
</a>
</g>
</g>
<!-- Node14 -->
<g id="Node000014" class="node">
<title>Node14</title>
<g id="a_Node000014"><a xlink:title=" ">
<polygon fill="#e0e0e0" stroke="#999999" points="671.38,-77.5 624.62,-77.5 624.62,-56.75 671.38,-56.75 671.38,-77.5"/>
<text xml:space="preserve" text-anchor="middle" x="648" y="-64" font-family="Helvetica,sans-Serif" font-size="10.00">vector</text>
</a>
</g>
</g>
<!-- Node11&#45;&gt;Node14 -->
<g id="edge15_Node000011_Node000014" class="edge">
<title>Node11&#45;&gt;Node14</title>
<g id="a_edge15_Node000011_Node000014"><a xlink:title=" ">
<path fill="none" stroke="#63b8ff" d="M593.99,-169.97C603.82,-161.48 617.46,-148.32 626,-134.25 634.56,-120.16 640.24,-102.33 643.68,-88.74"/>
<polygon fill="#63b8ff" stroke="#63b8ff" points="647.05,-89.68 645.89,-79.15 640.23,-88.11 647.05,-89.68"/>
</a>
</g>
</g>
<!-- Node15 -->
<g id="Node000015" class="node">
<title>Node15</title>
<g id="a_Node000015"><a xlink:href="JobParser_8h.html" target="_top" xlink:title="Lightweight XML&#45;like tag parser for the solver job file.">
<polygon fill="white" stroke="#666666" points="616.62,-134.25 547.38,-134.25 547.38,-113.5 616.62,-113.5 616.62,-134.25"/>
<text xml:space="preserve" text-anchor="middle" x="582" y="-120.75" font-family="Helvetica,sans-Serif" font-size="10.00">JobParser.h</text>
</a>
</g>
</g>
<!-- Node11&#45;&gt;Node15 -->
<g id="edge16_Node000011_Node000015" class="edge">
<title>Node11&#45;&gt;Node15</title>
<g id="a_edge16_Node000011_Node000015"><a xlink:title=" ">
<path fill="none" stroke="#63b8ff" d="M582,-169.84C582,-163.22 582,-154.22 582,-146.02"/>
<polygon fill="#63b8ff" stroke="#63b8ff" points="585.5,-146.09 582,-136.09 578.5,-146.09 585.5,-146.09"/>
</a>
</g>
</g>
<!-- Node11&#45;&gt;Node17 -->
<g id="edge21_Node000011_Node000017" class="edge">
<title>Node11&#45;&gt;Node17</title>
<g id="a_edge21_Node000011_Node000017"><a xlink:title=" ">
<path fill="none" stroke="#63b8ff" d="M551.25,-169.84C523.45,-160.99 482.3,-147.89 451.58,-138.11"/>
<polygon fill="#63b8ff" stroke="#63b8ff" points="452.81,-134.83 442.22,-135.13 450.68,-141.5 452.81,-134.83"/>
</a>
</g>
</g>
<!-- Node11&#45;&gt;Node18 -->
<g id="edge28_Node000011_Node000018" class="edge">
<title>Node11&#45;&gt;Node18</title>
<g id="a_edge28_Node000011_Node000018"><a xlink:title=" ">
<path fill="none" stroke="#63b8ff" d="M561.81,-169.89C543.11,-160.82 514.57,-146.84 490,-134.25 472.53,-125.3 469.07,-121.19 451,-113.5 418.97,-99.87 381.38,-87.83 353.37,-79.58"/>
<polygon fill="#63b8ff" stroke="#63b8ff" points="354.41,-76.24 343.83,-76.81 352.46,-82.96 354.41,-76.24"/>
</a>
</g>
</g>
<!-- Node11&#45;&gt;Node22 -->
<g id="edge29_Node000011_Node000022" class="edge">
<title>Node11&#45;&gt;Node22</title>
<g id="a_edge29_Node000011_Node000022"><a xlink:title=" ">
<path fill="none" stroke="#63b8ff" d="M625.18,-169.77C665.08,-160.67 724.5,-147.12 767.62,-137.28"/>
<polygon fill="#63b8ff" stroke="#63b8ff" points="768.31,-140.71 777.28,-135.08 766.75,-133.89 768.31,-140.71"/>
</a>
</g>
</g>
<!-- Node15&#45;&gt;Node4 -->
<g id="edge19_Node000015_Node000004" class="edge">
<title>Node15&#45;&gt;Node4</title>
<g id="a_edge19_Node000015_Node000004"><a xlink:title=" ">
<path fill="none" stroke="#63b8ff" d="M617.03,-117.31C661.26,-110.03 739.84,-96.25 816,-77.8"/>
<polygon fill="#63b8ff" stroke="#63b8ff" points="816.38,-81.31 825.26,-75.52 814.71,-74.51 816.38,-81.31"/>
</a>
</g>
</g>
<!-- Node15&#45;&gt;Node9 -->
<g id="edge18_Node000015_Node000009" class="edge">
<title>Node15&#45;&gt;Node9</title>
<g id="a_edge18_Node000015_Node000009"><a xlink:title=" ">
<path fill="none" stroke="#63b8ff" d="M558.04,-113.09C536.99,-104.48 506.1,-91.86 482.4,-82.18"/>
<polygon fill="#63b8ff" stroke="#63b8ff" points="483.73,-78.94 473.15,-78.4 481.08,-85.42 483.73,-78.94"/>
</a>
</g>
</g>
<!-- Node15&#45;&gt;Node14 -->
<g id="edge20_Node000015_Node000014" class="edge">
<title>Node15&#45;&gt;Node14</title>
<g id="a_edge20_Node000015_Node000014"><a xlink:title=" ">
<path fill="none" stroke="#63b8ff" d="M593.8,-113.09C603.18,-105.3 616.54,-94.22 627.64,-85.01"/>
<polygon fill="#63b8ff" stroke="#63b8ff" points="629.68,-87.87 635.14,-78.79 625.21,-82.49 629.68,-87.87"/>
</a>
</g>
</g>
<!-- Node16 -->
<g id="Node000016" class="node">
<title>Node16</title>
<g id="a_Node000016"><a xlink:title=" ">
<polygon fill="#e0e0e0" stroke="#999999" points="606.12,-77.5 551.88,-77.5 551.88,-56.75 606.12,-56.75 606.12,-77.5"/>
<text xml:space="preserve" text-anchor="middle" x="579" y="-64" font-family="Helvetica,sans-Serif" font-size="10.00">fstream</text>
</a>
</g>
</g>
<!-- Node15&#45;&gt;Node16 -->
<g id="edge17_Node000015_Node000016" class="edge">
<title>Node15&#45;&gt;Node16</title>
<g id="a_edge17_Node000015_Node000016"><a xlink:title=" ">
<path fill="none" stroke="#63b8ff" d="M581.46,-113.09C581.1,-106.47 580.61,-97.47 580.16,-89.27"/>
<polygon fill="#63b8ff" stroke="#63b8ff" points="583.66,-89.13 579.61,-79.34 576.67,-89.52 583.66,-89.13"/>
</a>
</g>
</g>
<!-- Node17&#45;&gt;Node14 -->
<g id="edge22_Node000017_Node000014" class="edge">
<title>Node17&#45;&gt;Node14</title>
<g id="a_edge22_Node000017_Node000014"><a xlink:title=" ">
<path fill="none" stroke="#63b8ff" d="M442.1,-116.38C480.43,-108.49 546.74,-94.43 613.16,-77.85"/>
<polygon fill="#63b8ff" stroke="#63b8ff" points="613.94,-81.26 622.78,-75.42 612.23,-74.47 613.94,-81.26"/>
</a>
</g>
</g>
<!-- Node17&#45;&gt;Node18 -->
<g id="edge23_Node000017_Node000018" class="edge">
<title>Node17&#45;&gt;Node18</title>
<g id="a_edge23_Node000017_Node000018"><a xlink:title=" ">
<path fill="none" stroke="#63b8ff" d="M392.48,-113.09C377.71,-104.83 356.32,-92.88 339.3,-83.38"/>
<polygon fill="#63b8ff" stroke="#63b8ff" points="341.13,-80.39 330.69,-78.57 337.71,-86.5 341.13,-80.39"/>
</a>
</g>
</g>
<!-- Node18&#45;&gt;Node6 -->
<g id="edge24_Node000018_Node000006" class="edge">
<title>Node18&#45;&gt;Node6</title>
<g id="a_edge24_Node000018_Node000006"><a xlink:title=" ">
<path fill="none" stroke="#63b8ff" d="M342.58,-63.14C361.67,-61.28 386.77,-58.85 409,-56.75 570.82,-41.44 762.75,-23.82 850.66,-15.79"/>
<polygon fill="#63b8ff" stroke="#63b8ff" points="850.97,-19.27 860.61,-14.88 850.33,-12.3 850.97,-19.27"/>
</a>
</g>
</g>
<!-- Node19 -->
<g id="Node000019" class="node">
<title>Node19</title>
<g id="a_Node000019"><a xlink:title=" ">
<polygon fill="#e0e0e0" stroke="#999999" points="413.5,-20.75 322.5,-20.75 322.5,0 413.5,0 413.5,-20.75"/>
<text xml:space="preserve" text-anchor="middle" x="368" y="-7.25" font-family="Helvetica,sans-Serif" font-size="10.00">blitz/tinyvec2.h</text>
</a>
</g>
</g>
<!-- Node18&#45;&gt;Node19 -->
<g id="edge25_Node000018_Node000019" class="edge">
<title>Node18&#45;&gt;Node19</title>
<g id="a_edge25_Node000018_Node000019"><a xlink:title=" ">
<path fill="none" stroke="#63b8ff" d="M322.01,-56.34C329.74,-48.78 340.63,-38.14 349.87,-29.1"/>
<polygon fill="#63b8ff" stroke="#63b8ff" points="352.29,-31.63 356.99,-22.14 347.4,-26.62 352.29,-31.63"/>
</a>
</g>
</g>
<!-- Node20 -->
<g id="Node000020" class="node">
<title>Node20</title>
<g id="a_Node000020"><a xlink:title=" ">
<polygon fill="#e0e0e0" stroke="#999999" points="304.12,-20.75 207.88,-20.75 207.88,0 304.12,0 304.12,-20.75"/>
<text xml:space="preserve" text-anchor="middle" x="256" y="-7.25" font-family="Helvetica,sans-Serif" font-size="10.00">blitz/tvecglobs.h</text>
</a>
</g>
</g>
<!-- Node18&#45;&gt;Node20 -->
<g id="edge26_Node000018_Node000020" class="edge">
<title>Node18&#45;&gt;Node20</title>
<g id="a_edge26_Node000018_Node000020"><a xlink:title=" ">
<path fill="none" stroke="#63b8ff" d="M301.99,-56.34C294.26,-48.78 283.37,-38.14 274.13,-29.1"/>
<polygon fill="#63b8ff" stroke="#63b8ff" points="276.6,-26.62 267.01,-22.14 271.71,-31.63 276.6,-26.62"/>
</a>
</g>
</g>
<!-- Node21 -->
<g id="Node000021" class="node">
<title>Node21</title>
<g id="a_Node000021"><a xlink:title=" ">
<polygon fill="#e0e0e0" stroke="#999999" points="592,-20.75 534,-20.75 534,0 592,0 592,-20.75"/>
<text xml:space="preserve" text-anchor="middle" x="563" y="-7.25" font-family="Helvetica,sans-Serif" font-size="10.00">complex</text>
</a>
</g>
</g>
<!-- Node18&#45;&gt;Node21 -->
<g id="edge27_Node000018_Node000021" class="edge">
<title>Node18&#45;&gt;Node21</title>
<g id="a_edge27_Node000018_Node000021"><a xlink:title=" ">
<path fill="none" stroke="#63b8ff" d="M342.28,-59.52C387.4,-49.68 472.35,-31.15 522.69,-20.17"/>
<polygon fill="#63b8ff" stroke="#63b8ff" points="523.28,-23.62 532.3,-18.07 521.79,-16.78 523.28,-23.62"/>
</a>
</g>
</g>
<!-- Node22&#45;&gt;Node14 -->
<g id="edge32_Node000022_Node000014" class="edge">
<title>Node22&#45;&gt;Node14</title>
<g id="a_edge32_Node000022_Node000014"><a xlink:title=" ">
<path fill="none" stroke="#63b8ff" d="M790.89,-113.09C760.51,-103.53 714.35,-89 682.77,-79.07"/>
<polygon fill="#63b8ff" stroke="#63b8ff" points="683.89,-75.75 673.3,-76.08 681.79,-82.43 683.89,-75.75"/>
</a>
</g>
</g>
<!-- Node22&#45;&gt;Node18 -->
<g id="edge33_Node000022_Node000018" class="edge">
<title>Node22&#45;&gt;Node18</title>
<g id="a_edge33_Node000022_Node000018"><a xlink:title=" ">
<path fill="none" stroke="#63b8ff" d="M773.1,-117.63C673.16,-106.9 447.07,-82.63 353.62,-72.59"/>
<polygon fill="#63b8ff" stroke="#63b8ff" points="354.2,-69.14 343.89,-71.55 353.46,-76.1 354.2,-69.14"/>
</a>
</g>
</g>
<!-- Node22&#45;&gt;Node21 -->
<g id="edge31_Node000022_Node000021" class="edge">
<title>Node22&#45;&gt;Node21</title>
<g id="a_edge31_Node000022_Node000021"><a xlink:title=" ">
<path fill="none" stroke="#63b8ff" d="M801.96,-113.04C774.64,-99.73 724.03,-75.52 680,-56.75 653.65,-45.52 623.5,-33.85 600.41,-25.17"/>
<polygon fill="#63b8ff" stroke="#63b8ff" points="601.7,-21.91 591.1,-21.68 599.24,-28.47 601.7,-21.91"/>
</a>
</g>
</g>
<!-- Node23 -->
<g id="Node000023" class="node">
<title>Node23</title>
<g id="a_Node000023"><a xlink:title=" ">
<polygon fill="#e0e0e0" stroke="#999999" points="809.25,-77.5 758.75,-77.5 758.75,-56.75 809.25,-56.75 809.25,-77.5"/>
<text xml:space="preserve" text-anchor="middle" x="784" y="-64" font-family="Helvetica,sans-Serif" font-size="10.00">math.h</text>
</a>
</g>
</g>
<!-- Node22&#45;&gt;Node23 -->
<g id="edge30_Node000022_Node000023" class="edge">
<title>Node22&#45;&gt;Node23</title>
<g id="a_edge30_Node000022_Node000023"><a xlink:title=" ">
<path fill="none" stroke="#63b8ff" d="M815.21,-113.09C810.23,-105.92 803.33,-95.98 797.28,-87.26"/>
<polygon fill="#63b8ff" stroke="#63b8ff" points="800.18,-85.29 791.6,-79.07 794.42,-89.28 800.18,-85.29"/>
</a>
</g>
</g>
<!-- Node25&#45;&gt;Node2 -->
<g id="edge40_Node000025_Node000002" class="edge">
<title>Node25&#45;&gt;Node2</title>
<g id="a_edge40_Node000025_Node000002"><a xlink:title=" ">
<path fill="none" stroke="#63b8ff" d="M358.35,-342.95C327.94,-335.35 279.62,-321.88 240,-304.5 207.66,-290.31 172.94,-268.98 150.65,-254.41"/>
<polygon fill="#63b8ff" stroke="#63b8ff" points="152.59,-251.49 142.32,-248.89 148.72,-257.33 152.59,-251.49"/>
</a>
</g>
</g>
<!-- Node25&#45;&gt;Node6 -->
<g id="edge39_Node000025_Node000006" class="edge">
<title>Node25&#45;&gt;Node6</title>
<g id="a_edge39_Node000025_Node000006"><a xlink:title=" ">
<path fill="none" stroke="#63b8ff" d="M417.69,-342.73C469.96,-330.13 573.14,-305.23 575,-304.5 589.37,-298.88 874.89,-141.61 880,-134.25 901.27,-103.63 902.49,-58.39 901.03,-32.2"/>
<polygon fill="#63b8ff" stroke="#63b8ff" points="904.54,-32.23 900.29,-22.53 897.56,-32.77 904.54,-32.23"/>
</a>
</g>
</g>
<!-- Node25&#45;&gt;Node8 -->
<g id="edge42_Node000025_Node000008" class="edge">
<title>Node25&#45;&gt;Node8</title>
<g id="a_edge42_Node000025_Node000008"><a xlink:title=" ">
<path fill="none" stroke="#63b8ff" d="M370.3,-340.09C355.38,-331.83 333.77,-319.88 316.58,-310.38"/>
<polygon fill="#63b8ff" stroke="#63b8ff" points="318.32,-307.34 307.87,-305.56 314.93,-313.46 318.32,-307.34"/>
</a>
</g>
</g>
<!-- Node25&#45;&gt;Node10 -->
<g id="edge43_Node000025_Node000010" class="edge">
<title>Node25&#45;&gt;Node10</title>
<g id="a_edge43_Node000025_Node000010"><a xlink:title=" ">
<path fill="none" stroke="#63b8ff" d="M389.96,-340.37C393.64,-322.52 401.67,-283.61 406.68,-259.34"/>
<polygon fill="#63b8ff" stroke="#63b8ff" points="410.08,-260.16 408.67,-249.66 403.22,-258.74 410.08,-260.16"/>
</a>
</g>
</g>
<!-- Node25&#45;&gt;Node13 -->
<g id="edge41_Node000025_Node000013" class="edge">
<title>Node25&#45;&gt;Node13</title>
<g id="a_edge41_Node000025_Node000013"><a xlink:title=" ">
<path fill="none" stroke="#63b8ff" d="M417.79,-342.7C444.1,-335.53 482.86,-322.93 513,-304.5 586.4,-259.62 652.96,-179.76 680.98,-143.6"/>
<polygon fill="#63b8ff" stroke="#63b8ff" points="683.63,-145.89 686.92,-135.82 678.07,-141.65 683.63,-145.89"/>
</a>
</g>
</g>
<!-- Node25&#45;&gt;Node18 -->
<g id="edge49_Node000025_Node000018" class="edge">
<title>Node25&#45;&gt;Node18</title>
<g id="a_edge49_Node000025_Node000018"><a xlink:title=" ">
<path fill="none" stroke="#63b8ff" d="M384.57,-340.11C374.04,-309.87 341.8,-214.98 323,-134.25 319.48,-119.13 316.64,-101.82 314.73,-88.7"/>
<polygon fill="#63b8ff" stroke="#63b8ff" points="318.24,-88.54 313.4,-79.12 311.31,-89.5 318.24,-88.54"/>
</a>
</g>
</g>
<!-- Node25&#45;&gt;Node22 -->
<g id="edge50_Node000025_Node000022" class="edge">
<title>Node25&#45;&gt;Node22</title>
<g id="a_edge50_Node000025_Node000022"><a xlink:title=" ">
<path fill="none" stroke="#63b8ff" d="M417.64,-342.15C455.55,-332.08 518.95,-314.57 541,-304.5 644.77,-257.09 755.27,-176.25 800.66,-141.53"/>
<polygon fill="#63b8ff" stroke="#63b8ff" points="802.59,-144.46 808.38,-135.58 798.32,-138.91 802.59,-144.46"/>
</a>
</g>
</g>
<!-- Node26 -->
<g id="Node000026" class="node">
<title>Node26</title>
<g id="a_Node000026"><a xlink:href="SingSub_8h.html" target="_top" xlink:title="Exact subtractions for singular/near&#45;singular triangle integrals.">
<polygon fill="white" stroke="#666666" points="504,-304.5 440,-304.5 440,-283.75 504,-283.75 504,-304.5"/>
<text xml:space="preserve" text-anchor="middle" x="472" y="-291" font-family="Helvetica,sans-Serif" font-size="10.00">SingSub.h</text>
</a>
</g>
</g>
<!-- Node25&#45;&gt;Node26 -->
<g id="edge44_Node000025_Node000026" class="edge">
<title>Node25&#45;&gt;Node26</title>
<g id="a_edge44_Node000025_Node000026"><a xlink:title=" ">
<path fill="none" stroke="#63b8ff" d="M403.02,-340.09C415.44,-331.99 433.32,-320.33 447.77,-310.92"/>
<polygon fill="#63b8ff" stroke="#63b8ff" points="449.38,-314.05 455.84,-305.65 445.56,-308.18 449.38,-314.05"/>
</a>
</g>
</g>
<!-- Node26&#45;&gt;Node10 -->
<g id="edge46_Node000026_Node000010" class="edge">
<title>Node26&#45;&gt;Node10</title>
<g id="a_edge46_Node000026_Node000010"><a xlink:title=" ">
<path fill="none" stroke="#63b8ff" d="M461.09,-283.34C452.51,-275.63 440.33,-264.7 430.12,-255.54"/>
<polygon fill="#63b8ff" stroke="#63b8ff" points="432.72,-253.16 422.94,-249.09 428.04,-258.37 432.72,-253.16"/>
</a>
</g>
</g>
<!-- Node26&#45;&gt;Node14 -->
<g id="edge45_Node000026_Node000014" class="edge">
<title>Node26&#45;&gt;Node14</title>
<g id="a_edge45_Node000026_Node000014"><a xlink:title=" ">
<path fill="none" stroke="#63b8ff" d="M504.39,-284.13C561.39,-266.34 678.11,-220.69 726,-134.25 739.16,-110.5 708.76,-91.53 682.15,-80.1"/>
<polygon fill="#63b8ff" stroke="#63b8ff" points="683.48,-76.86 672.89,-76.38 680.87,-83.36 683.48,-76.86"/>
</a>
</g>
</g>
<!-- Node26&#45;&gt;Node17 -->
<g id="edge47_Node000026_Node000017" class="edge">
<title>Node26&#45;&gt;Node17</title>
<g id="a_edge47_Node000026_Node000017"><a xlink:title=" ">
<path fill="none" stroke="#63b8ff" d="M477.15,-283.53C483.44,-270.51 492.49,-246.61 486,-227 474.78,-193.13 447.49,-161.37 428.86,-142.52"/>
<polygon fill="#63b8ff" stroke="#63b8ff" points="431.43,-140.14 421.84,-135.64 426.53,-145.14 431.43,-140.14"/>
</a>
</g>
</g>
<!-- Node26&#45;&gt;Node18 -->
<g id="edge48_Node000026_Node000018" class="edge">
<title>Node26&#45;&gt;Node18</title>
<g id="a_edge48_Node000026_Node000018"><a xlink:title=" ">
<path fill="none" stroke="#63b8ff" d="M470.66,-283.62C468.49,-270.29 463.34,-245.58 453,-227 425.95,-178.4 405.83,-175.93 369,-134.25 354.79,-118.16 338.85,-99.64 327.46,-86.3"/>
<polygon fill="#63b8ff" stroke="#63b8ff" points="330.18,-84.1 321.03,-78.76 324.85,-88.64 330.18,-84.1"/>
</a>
</g>
</g>
</g>
</svg>

<g id="navigator" transform="translate(0 0)" fill="#404254">
  <rect fill="#f2f5e9" fill-opacity="0.5" stroke="#606060" stroke-width=".5" x="0" y="0" width="60" height="60"/>
  <use id="zoomplus" xlink:href="#zoomPlus" x="17" y="9" onmousedown="handleZoom(evt,'in')"/>
  <use id="zoomminus" xlink:href="#zoomMin" x="42" y="9" onmousedown="handleZoom(evt,'out')"/>
  <use id="reset" xlink:href="#resetDef" x="30" y="36" onmousedown="handleReset()"/>
   <use id="arrowup" xlink:href="#arrowUp" x="0" y="0" onmousedown="handlePan(0,-1)"/>
  <use id="arrowright" xlink:href="#arrowRight" x="0" y="0" onmousedown="handlePan(1,0)"/>
  <use id="arrowdown" xlink:href="#arrowDown" x="0" y="0" onmousedown="handlePan(0,1)"/>
  <use id="arrowleft" xlink:href="#arrowLeft" x="0" y="0" onmousedown="handlePan(-1,0)"/>
</g>
<svg viewBox="0 0 15 15" width="100%" height="30px" preserveAspectRatio="xMaxYMin meet">
 <g id="arrow_out" transform="scale(0.3 0.3)">
  <a xlink:href="GreenFHom3DPer2D_8h__incl_org.svg" target="_base">
   <rect id="button" ry="5" rx="5" y="6" x="6" height="38" width="38"
        fill="#f2f5e9" fill-opacity="0.5" stroke="#606060" stroke-width="1.0"/>
   <path id="arrow"
     d="M 11.500037,31.436501 C 11.940474,20.09759 22.043105,11.32322 32.158766,21.979434 L 37.068811,17.246167 C 37.068811,17.246167 37.088388,32 37.088388,32 L 22.160133,31.978069 C 22.160133,31.978069 26.997745,27.140456 26.997745,27.140456 C 18.528582,18.264221 13.291696,25.230495 11.500037,31.436501 z"
     style="fill:#404040;"/>
  </a>
 </g>
</svg>

<style type='text/css'>
<![CDATA[
[data-mouse-over-selected='false'] { opacity: 0.7; }
[data-mouse-over-selected='true']  { opacity: 1.0; }
]]>
</style>
<script type="application/ecmascript"><![CDATA[
document.addEventListener('DOMContentLoaded', (event) => {
  highlightEdges();
  highlightAdjacentNodes();
});
]]></script>
</svg>
