<?xml version="1.0" encoding="UTF-8" standalone="no"?>
<!DOCTYPE svg PUBLIC "-//W3C//DTD SVG 1.1//EN"
 "http://www.w3.org/Graphics/SVG/1.1/DTD/svg11.dtd">
<!-- Generated by graphviz version 13.1.2 (20250809.0930)
 -->
<!-- Title: GreenFHom3DPer2D.cpp Pages: 1 -->
<!--zoomable 596 -->

<svg id="main" version="1.1" xmlns="http://www.w3.org/2000/svg" xmlns:xlink="http://www.w3.org/1999/xlink" xml:space="preserve" onload="init(evt)">

<style type="text/css"><![CDATA[
.node, .edge {opacity: 0.7;}
.node.selected, .edge.selected {opacity: 1;}
.edge:hover path { stroke: red; }
.edge:hover polygon { stroke: red; fill: red; }
]]></style>

<defs>
  <circle id="rim" cx="0" cy="0" r="7"/>
  <circle id="rim2" cx="0" cy="0" r="3.5"/>
  <g id="zoomPlus">
    <use xlink:href="#rim" fill="#404040"><set attributeName="fill" to="#808080" begin="zoomplus.mouseover" end="zoomplus.mouseout"/></use>
    <path d="M-4,0h8M0,-4v8" fill="none" stroke="white" stroke-width="1.5" pointer-events="none"/>
  </g>
  <g id="zoomMin">
    <use xlink:href="#rim" fill="#404040"><set attributeName="fill" to="#808080" begin="zoomminus.mouseover" end="zoomminus.mouseout"/></use>
    <path d="M-4,0h8" fill="none" stroke="white" stroke-width="1.5" pointer-events="none"/>
  </g>
  <g id="arrowUp" transform="translate(30 24)">
    <use xlink:href="#rim"/>
    <path pointer-events="none" fill="none" stroke="white" stroke-width="1.5" d="M0,-3.0v7 M-2.5,-0.5L0,-3.0L2.5,-0.5"/>
  </g>
  <g id="arrowRight" transform="rotate(90) translate(36 -43)">
    <use xlink:href="#rim"/>
    <path pointer-events="none" fill="none" stroke="white" stroke-width="1.5" d="M0,-3.0v7 M-2.5,-0.5L0,-3.0L2.5,-0.5"/>
  </g>
  <g id="arrowDown" transform="rotate(180) translate(-30 -48)">
    <use xlink:href="#rim"/>
    <path pointer-events="none" fill="none" stroke="white" stroke-width="1.5" d="M0,-3.0v7 M-2.5,-0.5L0,-3.0L2.5,-0.5"/>
  </g>
  <g id="arrowLeft" transform="rotate(270) translate(-36 17)">
    <use xlink:href="#rim"/>
    <path pointer-events="none" fill="none" stroke="white" stroke-width="1.5" d="M0,-3.0v7 M-2.5,-0.5L0,-3.0L2.5,-0.5"/>
  </g>
  <g id="resetDef">
    <use xlink:href="#rim2" fill="#404040"><set attributeName="fill" to="#808080" begin="reset.mouseover" end="reset.mouseout"/></use>
  </g>
</defs>
<script type="application/ecmascript">
var viewWidth = 976;
var viewHeight = 596;
var sectionId = 'dynsection-0';
</script>
<script type="application/ecmascript" xlink:href="svg.min.js"/>
<svg id="graph" class="graph">
<g id="viewport">
<title>GreenFHom3DPer2D.cpp</title>
<!-- Node1 -->
<g id="Node000001" class="node">
<title>Node1</title>
<g id="a_Node000001"><a xlink:title="Implementation of the 2D&#45;periodic homogeneous 3D Green&#39;s function.">
<polygon fill="#999999" stroke="#666666" points="879.75,-588.25 742.25,-588.25 742.25,-567.5 879.75,-567.5 879.75,-588.25"/>
<text xml:space="preserve" text-anchor="middle" x="811" y="-574.75" font-family="Helvetica,sans-Serif" font-size="10.00">GreenFHom3DPer2D.cpp</text>
</a>
</g>
</g>
<!-- Node2 -->
<g id="Node000002" class="node">
<title>Node2</title>
<g id="a_Node000002"><a xlink:href="GreenFHom3DPer2D_8h.html" target="_top" xlink:title="Periodic homogeneous 3D Green&#39;s function with 2D in‑plane periodicity.">
<polygon fill="white" stroke="#666666" points="680.12,-531.5 553.88,-531.5 553.88,-510.75 680.12,-510.75 680.12,-531.5"/>
<text xml:space="preserve" text-anchor="middle" x="617" y="-518" font-family="Helvetica,sans-Serif" font-size="10.00">GreenFHom3DPer2D.h</text>
</a>
</g>
</g>
<!-- Node1&#45;&gt;Node2 -->
<g id="edge1_Node000001_Node000002" class="edge">
<title>Node1&#45;&gt;Node2</title>
<g id="a_edge1_Node000001_Node000002"><a xlink:title=" ">
<path fill="none" stroke="#63b8ff" d="M776.32,-567.09C744.55,-558.12 697.33,-544.79 662.53,-534.98"/>
<polygon fill="#63b8ff" stroke="#63b8ff" points="663.74,-531.68 653.17,-532.33 661.84,-538.42 663.74,-531.68"/>
</a>
</g>
</g>
<!-- Node10 -->
<g id="Node000010" class="node">
<title>Node10</title>
<g id="a_Node000010"><a xlink:title=" ">
<polygon fill="#e0e0e0" stroke="#999999" points="834.75,-77.5 775.25,-77.5 775.25,-56.75 834.75,-56.75 834.75,-77.5"/>
<text xml:space="preserve" text-anchor="middle" x="805" y="-64" font-family="Helvetica,sans-Serif" font-size="10.00">iostream</text>
</a>
</g>
</g>
<!-- Node1&#45;&gt;Node10 -->
<g id="edge58_Node000001_Node000010" class="edge">
<title>Node1&#45;&gt;Node10</title>
<g id="a_edge58_Node000001_Node000010"><a xlink:title=" ">
<path fill="none" stroke="#63b8ff" d="M824.74,-567.25C847.85,-549.82 892,-510.6 892,-465.38 892,-465.38 892,-465.38 892,-179.62 892,-138.69 855.11,-103.79 829.37,-84.42"/>
<polygon fill="#63b8ff" stroke="#63b8ff" points="831.54,-81.67 821.38,-78.66 827.45,-87.35 831.54,-81.67"/>
</a>
</g>
</g>
<!-- Node17 -->
<g id="Node000017" class="node">
<title>Node17</title>
<g id="a_Node000017"><a xlink:title=" ">
<polygon fill="#e0e0e0" stroke="#999999" points="907.12,-77.5 852.88,-77.5 852.88,-56.75 907.12,-56.75 907.12,-77.5"/>
<text xml:space="preserve" text-anchor="middle" x="880" y="-64" font-family="Helvetica,sans-Serif" font-size="10.00">fstream</text>
</a>
</g>
</g>
<!-- Node1&#45;&gt;Node17 -->
<g id="edge57_Node000001_Node000017" class="edge">
<title>Node1&#45;&gt;Node17</title>
<g id="a_edge57_Node000001_Node000017"><a xlink:title=" ">
<path fill="none" stroke="#63b8ff" d="M851.43,-567.07C897.95,-553.09 968,-522.54 968,-465.38 968,-465.38 968,-465.38 968,-179.62 968,-138.52 930.68,-103.67 904.65,-84.35"/>
<polygon fill="#63b8ff" stroke="#63b8ff" points="906.74,-81.55 896.56,-78.61 902.69,-87.25 906.74,-81.55"/>
</a>
</g>
</g>
<!-- Node25 -->
<g id="Node000025" class="node">
<title>Node25</title>
<g id="a_Node000025"><a xlink:href="quadrature_8h.html" target="_top" xlink:title="Declarations of Dunavant (triangle) and Gauss–Legendre (1D) quadrature rules.">
<polygon fill="white" stroke="#666666" points="759.12,-247.75 680.88,-247.75 680.88,-227 759.12,-227 759.12,-247.75"/>
<text xml:space="preserve" text-anchor="middle" x="720" y="-234.25" font-family="Helvetica,sans-Serif" font-size="10.00">quadrature.h</text>
</a>
</g>
</g>
<!-- Node1&#45;&gt;Node25 -->
<g id="edge59_Node000001_Node000025" class="edge">
<title>Node1&#45;&gt;Node25</title>
<g id="a_edge59_Node000001_Node000025"><a xlink:title=" ">
<path fill="none" stroke="#63b8ff" d="M808.37,-567.11C795.95,-520.88 742.9,-323.55 725.53,-258.94"/>
<polygon fill="#63b8ff" stroke="#63b8ff" points="729.01,-258.39 723.03,-249.64 722.25,-260.21 729.01,-258.39"/>
</a>
</g>
</g>
<!-- Node3 -->
<g id="Node000003" class="node">
<title>Node3</title>
<g id="a_Node000003"><a xlink:title=" ">
<polygon fill="#e0e0e0" stroke="#999999" points="549.38,-247.75 502.62,-247.75 502.62,-227 549.38,-227 549.38,-247.75"/>
<text xml:space="preserve" text-anchor="middle" x="526" y="-234.25" font-family="Helvetica,sans-Serif" font-size="10.00">cmath</text>
</a>
</g>
</g>
<!-- Node2&#45;&gt;Node3 -->
<g id="edge2_Node000002_Node000003" class="edge">
<title>Node2&#45;&gt;Node3</title>
<g id="a_edge2_Node000002_Node000003"><a xlink:title=" ">
<path fill="none" stroke="#63b8ff" d="M597.74,-510.34C559.17,-489.38 474.18,-435.92 451,-361.25 448.27,-352.44 448.13,-349.26 451,-340.5 462.06,-306.75 489,-274.96 507.39,-256.07"/>
<polygon fill="#63b8ff" stroke="#63b8ff" points="509.69,-258.72 514.31,-249.18 504.75,-253.75 509.69,-258.72"/>
</a>
</g>
</g>
<!-- Node4 -->
<g id="Node000004" class="node">
<title>Node4</title>
<g id="a_Node000004"><a xlink:href="GreenFHom3DPer_8h.html" target="_top" xlink:title="Periodic homogeneous 3D Green&#39;s function (abstract base).">
<polygon fill="white" stroke="#666666" points="673,-474.75 561,-474.75 561,-454 673,-454 673,-474.75"/>
<text xml:space="preserve" text-anchor="middle" x="617" y="-461.25" font-family="Helvetica,sans-Serif" font-size="10.00">GreenFHom3DPer.h</text>
</a>
</g>
</g>
<!-- Node2&#45;&gt;Node4 -->
<g id="edge3_Node000002_Node000004" class="edge">
<title>Node2&#45;&gt;Node4</title>
<g id="a_edge3_Node000002_Node000004"><a xlink:title=" ">
<path fill="none" stroke="#63b8ff" d="M617,-510.34C617,-503.72 617,-494.72 617,-486.52"/>
<polygon fill="#63b8ff" stroke="#63b8ff" points="620.5,-486.59 617,-476.59 613.5,-486.59 620.5,-486.59"/>
</a>
</g>
</g>
<!-- Node19 -->
<g id="Node000019" class="node">
<title>Node19</title>
<g id="a_Node000019"><a xlink:href="globals_8h.html" target="_top" xlink:title="Global numerical constants, fundamental types, and simple macros.">
<polygon fill="white" stroke="#666666" points="312.12,-77.5 251.88,-77.5 251.88,-56.75 312.12,-56.75 312.12,-77.5"/>
<text xml:space="preserve" text-anchor="middle" x="282" y="-64" font-family="Helvetica,sans-Serif" font-size="10.00">globals.h</text>
</a>
</g>
</g>
<!-- Node2&#45;&gt;Node19 -->
<g id="edge55_Node000002_Node000019" class="edge">
<title>Node2&#45;&gt;Node19</title>
<g id="a_edge55_Node000002_Node000019"><a xlink:title=" ">
<path fill="none" stroke="#63b8ff" d="M553.58,-515.28C396.13,-502.4 0,-464.45 0,-408.62 0,-408.62 0,-408.62 0,-179.62 0,-142.51 19.43,-133.02 51,-113.5 109.6,-77.25 191.21,-69.07 240.1,-67.71"/>
<polygon fill="#63b8ff" stroke="#63b8ff" points="240.05,-71.21 249.98,-67.52 239.92,-64.21 240.05,-71.21"/>
</a>
</g>
</g>
<!-- Node23 -->
<g id="Node000023" class="node">
<title>Node23</title>
<g id="a_Node000023"><a xlink:href="mathFunctions_8h.html" target="_top" xlink:title="Header file of the class that provides auxiliary mathematical functionalities for the SIE solver.">
<polygon fill="white" stroke="#666666" points="661.5,-134.25 564.5,-134.25 564.5,-113.5 661.5,-113.5 661.5,-134.25"/>
<text xml:space="preserve" text-anchor="middle" x="613" y="-120.75" font-family="Helvetica,sans-Serif" font-size="10.00">mathFunctions.h</text>
</a>
</g>
</g>
<!-- Node2&#45;&gt;Node23 -->
<g id="edge56_Node000002_Node000023" class="edge">
<title>Node2&#45;&gt;Node23</title>
<g id="a_edge56_Node000002_Node000023"><a xlink:title=" ">
<path fill="none" stroke="#63b8ff" d="M640.28,-510.31C686.84,-488.93 787,-433.47 787,-351.88 787,-351.88 787,-351.88 787,-293.12 787,-262.55 786.11,-251.64 768,-227 737.21,-185.12 683.68,-155.47 648.29,-139.26"/>
<polygon fill="#63b8ff" stroke="#63b8ff" points="649.88,-136.14 639.32,-135.28 647.04,-142.54 649.88,-136.14"/>
</a>
</g>
</g>
<!-- Node5 -->
<g id="Node000005" class="node">
<title>Node5</title>
<g id="a_Node000005"><a xlink:title=" ">
<polygon fill="#e0e0e0" stroke="#999999" points="756.88,-77.5 713.12,-77.5 713.12,-56.75 756.88,-56.75 756.88,-77.5"/>
<text xml:space="preserve" text-anchor="middle" x="735" y="-64" font-family="Helvetica,sans-Serif" font-size="10.00">string</text>
</a>
</g>
</g>
<!-- Node4&#45;&gt;Node5 -->
<g id="edge4_Node000004_Node000005" class="edge">
<title>Node4&#45;&gt;Node5</title>
<g id="a_edge4_Node000004_Node000005"><a xlink:title=" ">
<path fill="none" stroke="#63b8ff" d="M629.18,-453.88C663.15,-426.48 758.39,-343.11 788,-247.75 801.06,-205.68 752.45,-152 747,-134.25 742.43,-119.37 739.37,-102.05 737.48,-88.87"/>
<polygon fill="#63b8ff" stroke="#63b8ff" points="740.98,-88.67 736.21,-79.21 734.04,-89.58 740.98,-88.67"/>
</a>
</g>
</g>
<!-- Node6 -->
<g id="Node000006" class="node">
<title>Node6</title>
<g id="a_Node000006"><a xlink:href="GreenFHom3D_8h.html" target="_top" xlink:title="3D scalar/dyadic Green&#39;s function in a homogeneous background.">
<polygon fill="white" stroke="#666666" points="595.5,-418 498.5,-418 498.5,-397.25 595.5,-397.25 595.5,-418"/>
<text xml:space="preserve" text-anchor="middle" x="547" y="-404.5" font-family="Helvetica,sans-Serif" font-size="10.00">GreenFHom3D.h</text>
</a>
</g>
</g>
<!-- Node4&#45;&gt;Node6 -->
<g id="edge5_Node000004_Node000006" class="edge">
<title>Node4&#45;&gt;Node6</title>
<g id="a_edge5_Node000004_Node000006"><a xlink:title=" ">
<path fill="none" stroke="#63b8ff" d="M604.49,-453.59C594.43,-445.72 580.09,-434.5 568.24,-425.24"/>
<polygon fill="#63b8ff" stroke="#63b8ff" points="570.63,-422.66 560.6,-419.26 566.32,-428.18 570.63,-422.66"/>
</a>
</g>
</g>
<!-- Node4&#45;&gt;Node19 -->
<g id="edge53_Node000004_Node000019" class="edge">
<title>Node4&#45;&gt;Node19</title>
<g id="a_edge53_Node000004_Node000019"><a xlink:title=" ">
<path fill="none" stroke="#63b8ff" d="M560.69,-459.08C415.19,-446.45 38,-403.27 38,-295.12 38,-295.12 38,-295.12 38,-179.62 38,-91.79 170.42,-72.86 240.15,-68.98"/>
<polygon fill="#63b8ff" stroke="#63b8ff" points="240.25,-72.48 250.08,-68.51 239.93,-65.48 240.25,-72.48"/>
</a>
</g>
</g>
<!-- Node4&#45;&gt;Node23 -->
<g id="edge54_Node000004_Node000023" class="edge">
<title>Node4&#45;&gt;Node23</title>
<g id="a_edge54_Node000004_Node000023"><a xlink:title=" ">
<path fill="none" stroke="#63b8ff" d="M620.27,-453.69C628.96,-426.83 651.51,-349.07 645,-283.75 639.99,-233.53 626.29,-175.69 618.54,-145.56"/>
<polygon fill="#63b8ff" stroke="#63b8ff" points="621.93,-144.69 616.01,-135.91 615.16,-146.47 621.93,-144.69"/>
</a>
</g>
</g>
<!-- Node6&#45;&gt;Node3 -->
<g id="edge7_Node000006_Node000003" class="edge">
<title>Node6&#45;&gt;Node3</title>
<g id="a_edge7_Node000006_Node000003"><a xlink:title=" ">
<path fill="none" stroke="#63b8ff" d="M545.81,-397.1C542.52,-370.73 533.23,-296.33 528.64,-259.53"/>
<polygon fill="#63b8ff" stroke="#63b8ff" points="532.13,-259.21 527.42,-249.72 525.18,-260.08 532.13,-259.21"/>
</a>
</g>
</g>
<!-- Node7 -->
<g id="Node000007" class="node">
<title>Node7</title>
<g id="a_Node000007"><a xlink:title=" ">
<polygon fill="#e0e0e0" stroke="#999999" points="721.5,-20.75 648.5,-20.75 648.5,0 721.5,0 721.5,-20.75"/>
<text xml:space="preserve" text-anchor="middle" x="685" y="-7.25" font-family="Helvetica,sans-Serif" font-size="10.00">blitz/array.h</text>
</a>
</g>
</g>
<!-- Node6&#45;&gt;Node7 -->
<g id="edge6_Node000006_Node000007" class="edge">
<title>Node6&#45;&gt;Node7</title>
<g id="a_edge6_Node000006_Node000007"><a xlink:title=" ">
<path fill="none" stroke="#63b8ff" d="M570.05,-396.94C635.55,-368.08 823.36,-275.79 906,-134.25 923.51,-104.26 938.06,-83.57 916,-56.75 893.31,-29.17 793.97,-18.1 733.19,-13.85"/>
<polygon fill="#63b8ff" stroke="#63b8ff" points="733.67,-10.38 723.46,-13.21 733.21,-17.36 733.67,-10.38"/>
</a>
</g>
</g>
<!-- Node8 -->
<g id="Node000008" class="node">
<title>Node8</title>
<g id="a_Node000008"><a xlink:title=" ">
<polygon fill="#e0e0e0" stroke="#999999" points="500.38,-361.25 459.62,-361.25 459.62,-340.5 500.38,-340.5 500.38,-361.25"/>
<text xml:space="preserve" text-anchor="middle" x="480" y="-347.75" font-family="Helvetica,sans-Serif" font-size="10.00">tuple</text>
</a>
</g>
</g>
<!-- Node6&#45;&gt;Node8 -->
<g id="edge8_Node000006_Node000008" class="edge">
<title>Node6&#45;&gt;Node8</title>
<g id="a_edge8_Node000006_Node000008"><a xlink:title=" ">
<path fill="none" stroke="#63b8ff" d="M535.02,-396.84C525.49,-389.05 511.94,-377.97 500.67,-368.76"/>
<polygon fill="#63b8ff" stroke="#63b8ff" points="503,-366.15 493.05,-362.54 498.58,-371.57 503,-366.15"/>
</a>
</g>
</g>
<!-- Node9 -->
<g id="Node000009" class="node">
<title>Node9</title>
<g id="a_Node000009"><a xlink:href="GaussQuad_8h.html" target="_top" xlink:title="Gaussian quadrature helpers for Green&#39;s functions and incident fields.">
<polygon fill="white" stroke="#666666" points="636.25,-304.5 555.75,-304.5 555.75,-283.75 636.25,-283.75 636.25,-304.5"/>
<text xml:space="preserve" text-anchor="middle" x="596" y="-291" font-family="Helvetica,sans-Serif" font-size="10.00">GaussQuad.h</text>
</a>
</g>
</g>
<!-- Node6&#45;&gt;Node9 -->
<g id="edge9_Node000006_Node000009" class="edge">
<title>Node6&#45;&gt;Node9</title>
<g id="a_edge9_Node000006_Node000009"><a xlink:title=" ">
<path fill="none" stroke="#63b8ff" d="M551.18,-397.12C559.09,-379.11 576.44,-339.64 587.08,-315.43"/>
<polygon fill="#63b8ff" stroke="#63b8ff" points="590.27,-316.87 591.08,-306.31 583.86,-314.06 590.27,-316.87"/>
</a>
</g>
</g>
<!-- Node6&#45;&gt;Node19 -->
<g id="edge52_Node000006_Node000019" class="edge">
<title>Node6&#45;&gt;Node19</title>
<g id="a_edge52_Node000006_Node000019"><a xlink:title=" ">
<path fill="none" stroke="#63b8ff" d="M498.37,-397.68C378.03,-375.2 76,-316.66 76,-295.12 76,-295.12 76,-295.12 76,-179.62 76,-105.66 179.98,-80.51 240.19,-72.15"/>
<polygon fill="#63b8ff" stroke="#63b8ff" points="240.63,-75.63 250.1,-70.89 239.74,-68.68 240.63,-75.63"/>
</a>
</g>
</g>
<!-- Node26 -->
<g id="Node000026" class="node">
<title>Node26</title>
<g id="a_Node000026"><a xlink:href="GreenF_8h.html" target="_top" xlink:title="Abstract base class for electromagnetic Green&#39;s functions.">
<polygon fill="white" stroke="#666666" points="404.38,-361.25 345.62,-361.25 345.62,-340.5 404.38,-340.5 404.38,-361.25"/>
<text xml:space="preserve" text-anchor="middle" x="375" y="-347.75" font-family="Helvetica,sans-Serif" font-size="10.00">GreenF.h</text>
</a>
</g>
</g>
<!-- Node6&#45;&gt;Node26 -->
<g id="edge39_Node000006_Node000026" class="edge">
<title>Node6&#45;&gt;Node26</title>
<g id="a_edge39_Node000006_Node000026"><a xlink:title=" ">
<path fill="none" stroke="#63b8ff" d="M516.25,-396.84C488.11,-387.88 446.28,-374.56 415.44,-364.75"/>
<polygon fill="#63b8ff" stroke="#63b8ff" points="416.65,-361.46 406.06,-361.76 414.53,-368.13 416.65,-361.46"/>
</a>
</g>
</g>
<!-- Node9&#45;&gt;Node3 -->
<g id="edge10_Node000009_Node000003" class="edge">
<title>Node9&#45;&gt;Node3</title>
<g id="a_edge10_Node000009_Node000003"><a xlink:title=" ">
<path fill="none" stroke="#63b8ff" d="M583.49,-283.34C573.43,-275.47 559.09,-264.25 547.24,-254.99"/>
<polygon fill="#63b8ff" stroke="#63b8ff" points="549.63,-252.41 539.6,-249.01 545.32,-257.93 549.63,-252.41"/>
</a>
</g>
</g>
<!-- Node9&#45;&gt;Node10 -->
<g id="edge11_Node000009_Node000010" class="edge">
<title>Node9&#45;&gt;Node10</title>
<g id="a_edge11_Node000009_Node000010"><a xlink:title=" ">
<path fill="none" stroke="#63b8ff" d="M605.79,-283.46C619.78,-269.94 646.6,-245 672,-227 740,-178.8 793.1,-206.3 835,-134.25 844.06,-118.67 833.64,-99.86 822.67,-86.29"/>
<polygon fill="#63b8ff" stroke="#63b8ff" points="825.46,-84.17 816.23,-78.98 820.21,-88.79 825.46,-84.17"/>
</a>
</g>
</g>
<!-- Node11 -->
<g id="Node000011" class="node">
<title>Node11</title>
<g id="a_Node000011"><a xlink:href="RWGFun_8h.html" target="_top" xlink:title="Header for the RWGFun class.">
<polygon fill="white" stroke="#666666" points="371.12,-247.75 304.88,-247.75 304.88,-227 371.12,-227 371.12,-247.75"/>
<text xml:space="preserve" text-anchor="middle" x="338" y="-234.25" font-family="Helvetica,sans-Serif" font-size="10.00">RWGFun.h</text>
</a>
</g>
</g>
<!-- Node9&#45;&gt;Node11 -->
<g id="edge12_Node000009_Node000011" class="edge">
<title>Node9&#45;&gt;Node11</title>
<g id="a_edge12_Node000009_Node000011"><a xlink:title=" ">
<path fill="none" stroke="#63b8ff" d="M555.4,-284.51C508.37,-274.53 431.13,-258.14 382.5,-247.82"/>
<polygon fill="#63b8ff" stroke="#63b8ff" points="383.37,-244.43 372.87,-245.77 381.92,-251.27 383.37,-244.43"/>
</a>
</g>
</g>
<!-- Node9&#45;&gt;Node19 -->
<g id="edge37_Node000009_Node000019" class="edge">
<title>Node9&#45;&gt;Node19</title>
<g id="a_edge37_Node000009_Node000019"><a xlink:title=" ">
<path fill="none" stroke="#63b8ff" d="M591.6,-283.63C585.19,-270.31 572.47,-245.6 558,-227 513.52,-169.82 503.72,-149.76 441,-113.5 404.32,-92.3 357.08,-80.46 323.65,-74.24"/>
<polygon fill="#63b8ff" stroke="#63b8ff" points="324.39,-70.81 313.94,-72.53 323.18,-77.71 324.39,-70.81"/>
</a>
</g>
</g>
<!-- Node9&#45;&gt;Node25 -->
<g id="edge38_Node000009_Node000025" class="edge">
<title>Node9&#45;&gt;Node25</title>
<g id="a_edge38_Node000009_Node000025"><a xlink:title=" ">
<path fill="none" stroke="#63b8ff" d="M618.17,-283.34C637.48,-274.81 665.72,-262.34 687.57,-252.69"/>
<polygon fill="#63b8ff" stroke="#63b8ff" points="688.9,-255.93 696.64,-248.69 686.08,-249.53 688.9,-255.93"/>
</a>
</g>
</g>
<!-- Node12 -->
<g id="Node000012" class="node">
<title>Node12</title>
<g id="a_Node000012"><a xlink:href="SurfaceMesh_8h.html" target="_top" xlink:title="Declaration of the SurfaceMesh class and mesh edge struct.">
<polygon fill="white" stroke="#666666" points="432,-191 344,-191 344,-170.25 432,-170.25 432,-191"/>
<text xml:space="preserve" text-anchor="middle" x="388" y="-177.5" font-family="Helvetica,sans-Serif" font-size="10.00">SurfaceMesh.h</text>
</a>
</g>
</g>
<!-- Node11&#45;&gt;Node12 -->
<g id="edge13_Node000011_Node000012" class="edge">
<title>Node11&#45;&gt;Node12</title>
<g id="a_edge13_Node000011_Node000012"><a xlink:title=" ">
<path fill="none" stroke="#63b8ff" d="M346.94,-226.59C353.76,-219.11 363.36,-208.61 371.56,-199.63"/>
<polygon fill="#63b8ff" stroke="#63b8ff" points="373.96,-202.19 378.12,-192.45 368.79,-197.47 373.96,-202.19"/>
</a>
</g>
</g>
<!-- Node18 -->
<g id="Node000018" class="node">
<title>Node18</title>
<g id="a_Node000018"><a xlink:href="Triangle_8h.html" target="_top" xlink:title="Declaration of the Triangle class (surface element with cached geometry).">
<polygon fill="white" stroke="#666666" points="343.62,-134.25 280.38,-134.25 280.38,-113.5 343.62,-113.5 343.62,-134.25"/>
<text xml:space="preserve" text-anchor="middle" x="312" y="-120.75" font-family="Helvetica,sans-Serif" font-size="10.00">Triangle.h</text>
</a>
</g>
</g>
<!-- Node11&#45;&gt;Node18 -->
<g id="edge35_Node000011_Node000018" class="edge">
<title>Node11&#45;&gt;Node18</title>
<g id="a_edge35_Node000011_Node000018"><a xlink:title=" ">
<path fill="none" stroke="#63b8ff" d="M335.78,-226.87C331.62,-209.02 322.55,-170.11 316.89,-145.84"/>
<polygon fill="#63b8ff" stroke="#63b8ff" points="320.31,-145.09 314.63,-136.15 313.49,-146.68 320.31,-145.09"/>
</a>
</g>
</g>
<!-- Node11&#45;&gt;Node19 -->
<g id="edge36_Node000011_Node000019" class="edge">
<title>Node11&#45;&gt;Node19</title>
<g id="a_edge36_Node000011_Node000019"><a xlink:title=" ">
<path fill="none" stroke="#63b8ff" d="M328.74,-226.67C313.2,-209.62 282.41,-172.45 271,-134.25 266.51,-119.22 269.8,-101.7 273.91,-88.46"/>
<polygon fill="#63b8ff" stroke="#63b8ff" points="277.18,-89.73 277.22,-79.14 270.58,-87.39 277.18,-89.73"/>
</a>
</g>
</g>
<!-- Node13 -->
<g id="Node000013" class="node">
<title>Node13</title>
<g id="a_Node000013"><a xlink:title=" ">
<polygon fill="#e0e0e0" stroke="#999999" points="431.5,-134.25 400.5,-134.25 400.5,-113.5 431.5,-113.5 431.5,-134.25"/>
<text xml:space="preserve" text-anchor="middle" x="416" y="-120.75" font-family="Helvetica,sans-Serif" font-size="10.00">set</text>
</a>
</g>
</g>
<!-- Node12&#45;&gt;Node13 -->
<g id="edge14_Node000012_Node000013" class="edge">
<title>Node12&#45;&gt;Node13</title>
<g id="a_edge14_Node000012_Node000013"><a xlink:title=" ">
<path fill="none" stroke="#63b8ff" d="M393.01,-169.84C396.59,-162.83 401.54,-153.16 405.92,-144.58"/>
<polygon fill="#63b8ff" stroke="#63b8ff" points="408.91,-146.42 410.35,-135.93 402.68,-143.24 408.91,-146.42"/>
</a>
</g>
</g>
<!-- Node14 -->
<g id="Node000014" class="node">
<title>Node14</title>
<g id="a_Node000014"><a xlink:title=" ">
<polygon fill="#e0e0e0" stroke="#999999" points="224.25,-134.25 179.75,-134.25 179.75,-113.5 224.25,-113.5 224.25,-134.25"/>
<text xml:space="preserve" text-anchor="middle" x="202" y="-120.75" font-family="Helvetica,sans-Serif" font-size="10.00">utility</text>
</a>
</g>
</g>
<!-- Node12&#45;&gt;Node14 -->
<g id="edge15_Node000012_Node000014" class="edge">
<title>Node12&#45;&gt;Node14</title>
<g id="a_edge15_Node000012_Node000014"><a xlink:title=" ">
<path fill="none" stroke="#63b8ff" d="M354.75,-169.84C321.04,-159.92 269.19,-144.65 235.42,-134.71"/>
<polygon fill="#63b8ff" stroke="#63b8ff" points="236.75,-131.46 226.17,-131.99 234.78,-138.17 236.75,-131.46"/>
</a>
</g>
</g>
<!-- Node15 -->
<g id="Node000015" class="node">
<title>Node15</title>
<g id="a_Node000015"><a xlink:title=" ">
<polygon fill="#e0e0e0" stroke="#999999" points="541.38,-77.5 494.62,-77.5 494.62,-56.75 541.38,-56.75 541.38,-77.5"/>
<text xml:space="preserve" text-anchor="middle" x="518" y="-64" font-family="Helvetica,sans-Serif" font-size="10.00">vector</text>
</a>
</g>
</g>
<!-- Node12&#45;&gt;Node15 -->
<g id="edge16_Node000012_Node000015" class="edge">
<title>Node12&#45;&gt;Node15</title>
<g id="a_edge16_Node000012_Node000015"><a xlink:title=" ">
<path fill="none" stroke="#63b8ff" d="M399.38,-169.89C410.11,-160.71 426.66,-146.55 441,-134.25 460.46,-117.57 482.66,-98.49 498.21,-85.13"/>
<polygon fill="#63b8ff" stroke="#63b8ff" points="500.07,-88.15 505.38,-78.98 495.51,-82.84 500.07,-88.15"/>
</a>
</g>
</g>
<!-- Node16 -->
<g id="Node000016" class="node">
<title>Node16</title>
<g id="a_Node000016"><a xlink:href="JobParser_8h.html" target="_top" xlink:title="Lightweight XML&#45;like tag parser for the solver job file.">
<polygon fill="white" stroke="#666666" points="825.62,-134.25 756.38,-134.25 756.38,-113.5 825.62,-113.5 825.62,-134.25"/>
<text xml:space="preserve" text-anchor="middle" x="791" y="-120.75" font-family="Helvetica,sans-Serif" font-size="10.00">JobParser.h</text>
</a>
</g>
</g>
<!-- Node12&#45;&gt;Node16 -->
<g id="edge17_Node000012_Node000016" class="edge">
<title>Node12&#45;&gt;Node16</title>
<g id="a_edge17_Node000012_Node000016"><a xlink:title=" ">
<path fill="none" stroke="#63b8ff" d="M432.28,-173.61C509.1,-163.17 666.34,-141.81 744.61,-131.18"/>
<polygon fill="#63b8ff" stroke="#63b8ff" points="745.08,-134.65 754.52,-129.83 744.14,-127.71 745.08,-134.65"/>
</a>
</g>
</g>
<!-- Node12&#45;&gt;Node18 -->
<g id="edge22_Node000012_Node000018" class="edge">
<title>Node12&#45;&gt;Node18</title>
<g id="a_edge22_Node000012_Node000018"><a xlink:title=" ">
<path fill="none" stroke="#63b8ff" d="M374.41,-169.84C363.39,-161.9 347.61,-150.53 334.68,-141.21"/>
<polygon fill="#63b8ff" stroke="#63b8ff" points="336.86,-138.47 326.7,-135.46 332.77,-144.15 336.86,-138.47"/>
</a>
</g>
</g>
<!-- Node12&#45;&gt;Node19 -->
<g id="edge29_Node000012_Node000019" class="edge">
<title>Node12&#45;&gt;Node19</title>
<g id="a_edge29_Node000012_Node000019"><a xlink:title=" ">
<path fill="none" stroke="#63b8ff" d="M384.77,-170.15C379.71,-156.4 368.84,-130.69 353,-113.5 341.7,-101.24 326.4,-90.9 312.89,-83.21"/>
<polygon fill="#63b8ff" stroke="#63b8ff" points="314.79,-80.26 304.33,-78.57 311.46,-86.41 314.79,-80.26"/>
</a>
</g>
</g>
<!-- Node12&#45;&gt;Node23 -->
<g id="edge30_Node000012_Node000023" class="edge">
<title>Node12&#45;&gt;Node23</title>
<g id="a_edge30_Node000012_Node000023"><a xlink:title=" ">
<path fill="none" stroke="#63b8ff" d="M428.49,-169.77C465.72,-160.71 521.12,-147.23 561.5,-137.41"/>
<polygon fill="#63b8ff" stroke="#63b8ff" points="562.1,-140.86 570.99,-135.1 560.45,-134.06 562.1,-140.86"/>
</a>
</g>
</g>
<!-- Node16&#45;&gt;Node5 -->
<g id="edge20_Node000016_Node000005" class="edge">
<title>Node16&#45;&gt;Node5</title>
<g id="a_edge20_Node000016_Node000005"><a xlink:title=" ">
<path fill="none" stroke="#63b8ff" d="M780.99,-113.09C773.26,-105.53 762.37,-94.89 753.13,-85.85"/>
<polygon fill="#63b8ff" stroke="#63b8ff" points="755.6,-83.37 746.01,-78.89 750.71,-88.38 755.6,-83.37"/>
</a>
</g>
</g>
<!-- Node16&#45;&gt;Node10 -->
<g id="edge19_Node000016_Node000010" class="edge">
<title>Node16&#45;&gt;Node10</title>
<g id="a_edge19_Node000016_Node000010"><a xlink:title=" ">
<path fill="none" stroke="#63b8ff" d="M793.5,-113.09C795.22,-106.39 797.55,-97.26 799.67,-88.98"/>
<polygon fill="#63b8ff" stroke="#63b8ff" points="803.06,-89.85 802.14,-79.29 796.28,-88.12 803.06,-89.85"/>
</a>
</g>
</g>
<!-- Node16&#45;&gt;Node15 -->
<g id="edge21_Node000016_Node000015" class="edge">
<title>Node16&#45;&gt;Node15</title>
<g id="a_edge21_Node000016_Node000015"><a xlink:title=" ">
<path fill="none" stroke="#63b8ff" d="M756.15,-115.89C703.76,-105.38 605.29,-85.63 552.89,-75.12"/>
<polygon fill="#63b8ff" stroke="#63b8ff" points="553.8,-71.74 543.31,-73.2 552.43,-78.6 553.8,-71.74"/>
</a>
</g>
</g>
<!-- Node16&#45;&gt;Node17 -->
<g id="edge18_Node000016_Node000017" class="edge">
<title>Node16&#45;&gt;Node17</title>
<g id="a_edge18_Node000016_Node000017"><a xlink:title=" ">
<path fill="none" stroke="#63b8ff" d="M806.91,-113.09C820.2,-104.91 839.39,-93.11 854.77,-83.65"/>
<polygon fill="#63b8ff" stroke="#63b8ff" points="856.25,-86.84 862.94,-78.62 852.59,-80.88 856.25,-86.84"/>
</a>
</g>
</g>
<!-- Node18&#45;&gt;Node15 -->
<g id="edge23_Node000018_Node000015" class="edge">
<title>Node18&#45;&gt;Node15</title>
<g id="a_edge23_Node000018_Node000015"><a xlink:title=" ">
<path fill="none" stroke="#63b8ff" d="M343.74,-114.44C381.46,-104.42 444.19,-87.74 483.2,-77.37"/>
<polygon fill="#63b8ff" stroke="#63b8ff" points="484.03,-80.78 492.79,-74.82 482.23,-74.01 484.03,-80.78"/>
</a>
</g>
</g>
<!-- Node18&#45;&gt;Node19 -->
<g id="edge24_Node000018_Node000019" class="edge">
<title>Node18&#45;&gt;Node19</title>
<g id="a_edge24_Node000018_Node000019"><a xlink:title=" ">
<path fill="none" stroke="#63b8ff" d="M306.64,-113.09C302.8,-106.08 297.5,-96.41 292.8,-87.83"/>
<polygon fill="#63b8ff" stroke="#63b8ff" points="295.92,-86.24 288.04,-79.16 289.78,-89.61 295.92,-86.24"/>
</a>
</g>
</g>
<!-- Node19&#45;&gt;Node7 -->
<g id="edge25_Node000019_Node000007" class="edge">
<title>Node19&#45;&gt;Node7</title>
<g id="a_edge25_Node000019_Node000007"><a xlink:title=" ">
<path fill="none" stroke="#63b8ff" d="M312.62,-61.96C382.27,-52.5 552.98,-29.31 636.88,-17.91"/>
<polygon fill="#63b8ff" stroke="#63b8ff" points="637.18,-21.4 646.62,-16.59 636.24,-14.47 637.18,-21.4"/>
</a>
</g>
</g>
<!-- Node20 -->
<g id="Node000020" class="node">
<title>Node20</title>
<g id="a_Node000020"><a xlink:title=" ">
<polygon fill="#e0e0e0" stroke="#999999" points="383.5,-20.75 292.5,-20.75 292.5,0 383.5,0 383.5,-20.75"/>
<text xml:space="preserve" text-anchor="middle" x="338" y="-7.25" font-family="Helvetica,sans-Serif" font-size="10.00">blitz/tinyvec2.h</text>
</a>
</g>
</g>
<!-- Node19&#45;&gt;Node20 -->
<g id="edge26_Node000019_Node000020" class="edge">
<title>Node19&#45;&gt;Node20</title>
<g id="a_edge26_Node000019_Node000020"><a xlink:title=" ">
<path fill="none" stroke="#63b8ff" d="M292.01,-56.34C299.74,-48.78 310.63,-38.14 319.87,-29.1"/>
<polygon fill="#63b8ff" stroke="#63b8ff" points="322.29,-31.63 326.99,-22.14 317.4,-26.62 322.29,-31.63"/>
</a>
</g>
</g>
<!-- Node21 -->
<g id="Node000021" class="node">
<title>Node21</title>
<g id="a_Node000021"><a xlink:title=" ">
<polygon fill="#e0e0e0" stroke="#999999" points="274.12,-20.75 177.88,-20.75 177.88,0 274.12,0 274.12,-20.75"/>
<text xml:space="preserve" text-anchor="middle" x="226" y="-7.25" font-family="Helvetica,sans-Serif" font-size="10.00">blitz/tvecglobs.h</text>
</a>
</g>
</g>
<!-- Node19&#45;&gt;Node21 -->
<g id="edge27_Node000019_Node000021" class="edge">
<title>Node19&#45;&gt;Node21</title>
<g id="a_edge27_Node000019_Node000021"><a xlink:title=" ">
<path fill="none" stroke="#63b8ff" d="M271.99,-56.34C264.26,-48.78 253.37,-38.14 244.13,-29.1"/>
<polygon fill="#63b8ff" stroke="#63b8ff" points="246.6,-26.62 237.01,-22.14 241.71,-31.63 246.6,-26.62"/>
</a>
</g>
</g>
<!-- Node22 -->
<g id="Node000022" class="node">
<title>Node22</title>
<g id="a_Node000022"><a xlink:title=" ">
<polygon fill="#e0e0e0" stroke="#999999" points="539,-20.75 481,-20.75 481,0 539,0 539,-20.75"/>
<text xml:space="preserve" text-anchor="middle" x="510" y="-7.25" font-family="Helvetica,sans-Serif" font-size="10.00">complex</text>
</a>
</g>
</g>
<!-- Node19&#45;&gt;Node22 -->
<g id="edge28_Node000019_Node000022" class="edge">
<title>Node19&#45;&gt;Node22</title>
<g id="a_edge28_Node000019_Node000022"><a xlink:title=" ">
<path fill="none" stroke="#63b8ff" d="M312.28,-58.85C352.73,-49.14 424.52,-31.9 469.57,-21.08"/>
<polygon fill="#63b8ff" stroke="#63b8ff" points="470.3,-24.51 479.21,-18.77 468.67,-17.7 470.3,-24.51"/>
</a>
</g>
</g>
<!-- Node23&#45;&gt;Node15 -->
<g id="edge33_Node000023_Node000015" class="edge">
<title>Node23&#45;&gt;Node15</title>
<g id="a_edge33_Node000023_Node000015"><a xlink:title=" ">
<path fill="none" stroke="#63b8ff" d="M596.02,-113.09C581.7,-104.83 560.96,-92.88 544.46,-83.38"/>
<polygon fill="#63b8ff" stroke="#63b8ff" points="546.56,-80.55 536.15,-78.58 543.06,-86.61 546.56,-80.55"/>
</a>
</g>
</g>
<!-- Node23&#45;&gt;Node19 -->
<g id="edge34_Node000023_Node000019" class="edge">
<title>Node23&#45;&gt;Node19</title>
<g id="a_edge34_Node000023_Node000019"><a xlink:title=" ">
<path fill="none" stroke="#63b8ff" d="M564.16,-114.8C498.95,-104.01 384.57,-85.09 323.38,-74.97"/>
<polygon fill="#63b8ff" stroke="#63b8ff" points="324.17,-71.55 313.74,-73.37 323.03,-78.46 324.17,-71.55"/>
</a>
</g>
</g>
<!-- Node23&#45;&gt;Node22 -->
<g id="edge32_Node000023_Node000022" class="edge">
<title>Node23&#45;&gt;Node22</title>
<g id="a_edge32_Node000023_Node000022"><a xlink:title=" ">
<path fill="none" stroke="#63b8ff" d="M604.22,-113.37C587.05,-94.78 548.78,-53.36 526.66,-29.41"/>
<polygon fill="#63b8ff" stroke="#63b8ff" points="529.44,-27.26 520.08,-22.29 524.29,-32.01 529.44,-27.26"/>
</a>
</g>
</g>
<!-- Node24 -->
<g id="Node000024" class="node">
<title>Node24</title>
<g id="a_Node000024"><a xlink:title=" ">
<polygon fill="#e0e0e0" stroke="#999999" points="647.25,-77.5 596.75,-77.5 596.75,-56.75 647.25,-56.75 647.25,-77.5"/>
<text xml:space="preserve" text-anchor="middle" x="622" y="-64" font-family="Helvetica,sans-Serif" font-size="10.00">math.h</text>
</a>
</g>
</g>
<!-- Node23&#45;&gt;Node24 -->
<g id="edge31_Node000023_Node000024" class="edge">
<title>Node23&#45;&gt;Node24</title>
<g id="a_edge31_Node000023_Node000024"><a xlink:title=" ">
<path fill="none" stroke="#63b8ff" d="M614.61,-113.09C615.71,-106.39 617.21,-97.26 618.57,-88.98"/>
<polygon fill="#63b8ff" stroke="#63b8ff" points="621.99,-89.76 620.16,-79.32 615.08,-88.62 621.99,-89.76"/>
</a>
</g>
</g>
<!-- Node26&#45;&gt;Node3 -->
<g id="edge41_Node000026_Node000003" class="edge">
<title>Node26&#45;&gt;Node3</title>
<g id="a_edge41_Node000026_Node000003"><a xlink:title=" ">
<path fill="none" stroke="#63b8ff" d="M388.14,-340.18C414.02,-321.06 471.85,-278.36 503.78,-254.79"/>
<polygon fill="#63b8ff" stroke="#63b8ff" points="505.6,-257.79 511.57,-249.03 501.45,-252.16 505.6,-257.79"/>
</a>
</g>
</g>
<!-- Node26&#45;&gt;Node7 -->
<g id="edge40_Node000026_Node000007" class="edge">
<title>Node26&#45;&gt;Node7</title>
<g id="a_edge40_Node000026_Node000007"><a xlink:title=" ">
<path fill="none" stroke="#63b8ff" d="M382.97,-340.19C393.88,-327.05 414.28,-303.03 433,-283.75 458.8,-257.19 463.78,-248.39 494,-227 566.49,-175.69 620.79,-207.51 671,-134.25 691.96,-103.66 691.01,-58.41 688.17,-32.21"/>
<polygon fill="#63b8ff" stroke="#63b8ff" points="691.68,-31.99 686.91,-22.52 684.73,-32.89 691.68,-31.99"/>
</a>
</g>
</g>
<!-- Node26&#45;&gt;Node9 -->
<g id="edge43_Node000026_Node000009" class="edge">
<title>Node26&#45;&gt;Node9</title>
<g id="a_edge43_Node000026_Node000009"><a xlink:title=" ">
<path fill="none" stroke="#63b8ff" d="M404.81,-342.49C440.79,-333.58 501.88,-318.44 545.31,-307.68"/>
<polygon fill="#63b8ff" stroke="#63b8ff" points="545.89,-311.14 554.76,-305.34 544.21,-304.35 545.89,-311.14"/>
</a>
</g>
</g>
<!-- Node26&#45;&gt;Node11 -->
<g id="edge44_Node000026_Node000011" class="edge">
<title>Node26&#45;&gt;Node11</title>
<g id="a_edge44_Node000026_Node000011"><a xlink:title=" ">
<path fill="none" stroke="#63b8ff" d="M371.85,-340.37C365.9,-322.44 352.89,-283.25 344.85,-259.01"/>
<polygon fill="#63b8ff" stroke="#63b8ff" points="348.2,-258 341.73,-249.61 341.56,-260.21 348.2,-258"/>
</a>
</g>
</g>
<!-- Node26&#45;&gt;Node14 -->
<g id="edge42_Node000026_Node000014" class="edge">
<title>Node26&#45;&gt;Node14</title>
<g id="a_edge42_Node000026_Node000014"><a xlink:title=" ">
<path fill="none" stroke="#63b8ff" d="M345.23,-348.55C313.6,-345.48 264.44,-335.61 237,-304.5 197.15,-259.31 197.13,-182.5 199.8,-145.72"/>
<polygon fill="#63b8ff" stroke="#63b8ff" points="203.27,-146.27 200.66,-136 196.29,-145.65 203.27,-146.27"/>
</a>
</g>
</g>
<!-- Node26&#45;&gt;Node19 -->
<g id="edge50_Node000026_Node000019" class="edge">
<title>Node26&#45;&gt;Node19</title>
<g id="a_edge50_Node000026_Node000019"><a xlink:title=" ">
<path fill="none" stroke="#63b8ff" d="M345.31,-350.37C276.91,-349.82 114,-338.03 114,-238.38 114,-238.38 114,-238.38 114,-179.62 114,-119.06 190.74,-89.43 240.49,-76.58"/>
<polygon fill="#63b8ff" stroke="#63b8ff" points="241.22,-80.01 250.11,-74.24 239.56,-73.21 241.22,-80.01"/>
</a>
</g>
</g>
<!-- Node26&#45;&gt;Node23 -->
<g id="edge51_Node000026_Node000023" class="edge">
<title>Node26&#45;&gt;Node23</title>
<g id="a_edge51_Node000026_Node000023"><a xlink:title=" ">
<path fill="none" stroke="#63b8ff" d="M377.16,-340.25C380.49,-326.77 387.82,-301.88 400,-283.75 420.65,-253.01 431.99,-250.01 461,-227 483.71,-208.99 551.19,-164.82 588.14,-140.9"/>
<polygon fill="#63b8ff" stroke="#63b8ff" points="589.92,-143.91 596.42,-135.54 586.12,-138.03 589.92,-143.91"/>
</a>
</g>
</g>
<!-- Node27 -->
<g id="Node000027" class="node">
<title>Node27</title>
<g id="a_Node000027"><a xlink:href="SingSub_8h.html" target="_top" xlink:title="Exact subtractions for singular/near&#45;singular triangle integrals.">
<polygon fill="white" stroke="#666666" points="310,-304.5 246,-304.5 246,-283.75 310,-283.75 310,-304.5"/>
<text xml:space="preserve" text-anchor="middle" x="278" y="-291" font-family="Helvetica,sans-Serif" font-size="10.00">SingSub.h</text>
</a>
</g>
</g>
<!-- Node26&#45;&gt;Node27 -->
<g id="edge45_Node000026_Node000027" class="edge">
<title>Node26&#45;&gt;Node27</title>
<g id="a_edge45_Node000026_Node000027"><a xlink:title=" ">
<path fill="none" stroke="#63b8ff" d="M357.66,-340.09C343.04,-331.83 321.86,-319.88 305.02,-310.38"/>
<polygon fill="#63b8ff" stroke="#63b8ff" points="306.94,-307.44 296.51,-305.57 303.5,-313.54 306.94,-307.44"/>
</a>
</g>
</g>
<!-- Node27&#45;&gt;Node11 -->
<g id="edge47_Node000027_Node000011" class="edge">
<title>Node27&#45;&gt;Node11</title>
<g id="a_edge47_Node000027_Node000011"><a xlink:title=" ">
<path fill="none" stroke="#63b8ff" d="M288.73,-283.34C297.09,-275.71 308.91,-264.92 318.88,-255.82"/>
<polygon fill="#63b8ff" stroke="#63b8ff" points="321.22,-258.42 326.25,-249.1 316.5,-253.25 321.22,-258.42"/>
</a>
</g>
</g>
<!-- Node27&#45;&gt;Node15 -->
<g id="edge46_Node000027_Node000015" class="edge">
<title>Node27&#45;&gt;Node15</title>
<g id="a_edge46_Node000027_Node000015"><a xlink:title=" ">
<path fill="none" stroke="#63b8ff" d="M306.56,-283.34C327.76,-275.4 356.88,-263.03 380,-247.75 443.33,-205.9 489.62,-125.03 508.55,-87.79"/>
<polygon fill="#63b8ff" stroke="#63b8ff" points="511.57,-89.59 512.87,-79.07 505.3,-86.48 511.57,-89.59"/>
</a>
</g>
</g>
<!-- Node27&#45;&gt;Node18 -->
<g id="edge48_Node000027_Node000018" class="edge">
<title>Node27&#45;&gt;Node18</title>
<g id="a_edge48_Node000027_Node000018"><a xlink:title=" ">
<path fill="none" stroke="#63b8ff" d="M279.93,-283.6C285.28,-257.12 300.42,-182.18 307.82,-145.55"/>
<polygon fill="#63b8ff" stroke="#63b8ff" points="311.16,-146.7 309.71,-136.2 304.3,-145.31 311.16,-146.7"/>
</a>
</g>
</g>
<!-- Node27&#45;&gt;Node19 -->
<g id="edge49_Node000027_Node000019" class="edge">
<title>Node27&#45;&gt;Node19</title>
<g id="a_edge49_Node000027_Node000019"><a xlink:title=" ">
<path fill="none" stroke="#63b8ff" d="M263.96,-283.36C226.32,-255.97 128.81,-176.33 171,-113.5 186.38,-90.6 215.58,-79.25 240.17,-73.63"/>
<polygon fill="#63b8ff" stroke="#63b8ff" points="240.84,-77.06 249.95,-71.66 239.46,-70.2 240.84,-77.06"/>
</a>
</g>
</g>
</g>
</svg>

<g id="navigator" transform="translate(0 0)" fill="#404254">
  <rect fill="#f2f5e9" fill-opacity="0.5" stroke="#606060" stroke-width=".5" x="0" y="0" width="60" height="60"/>
  <use id="zoomplus" xlink:href="#zoomPlus" x="17" y="9" onmousedown="handleZoom(evt,'in')"/>
  <use id="zoomminus" xlink:href="#zoomMin" x="42" y="9" onmousedown="handleZoom(evt,'out')"/>
  <use id="reset" xlink:href="#resetDef" x="30" y="36" onmousedown="handleReset()"/>
   <use id="arrowup" xlink:href="#arrowUp" x="0" y="0" onmousedown="handlePan(0,-1)"/>
  <use id="arrowright" xlink:href="#arrowRight" x="0" y="0" onmousedown="handlePan(1,0)"/>
  <use id="arrowdown" xlink:href="#arrowDown" x="0" y="0" onmousedown="handlePan(0,1)"/>
  <use id="arrowleft" xlink:href="#arrowLeft" x="0" y="0" onmousedown="handlePan(-1,0)"/>
</g>
<svg viewBox="0 0 15 15" width="100%" height="30px" preserveAspectRatio="xMaxYMin meet">
 <g id="arrow_out" transform="scale(0.3 0.3)">
  <a xlink:href="GreenFHom3DPer2D_8cpp__incl_org.svg" target="_base">
   <rect id="button" ry="5" rx="5" y="6" x="6" height="38" width="38"
        fill="#f2f5e9" fill-opacity="0.5" stroke="#606060" stroke-width="1.0"/>
   <path id="arrow"
     d="M 11.500037,31.436501 C 11.940474,20.09759 22.043105,11.32322 32.158766,21.979434 L 37.068811,17.246167 C 37.068811,17.246167 37.088388,32 37.088388,32 L 22.160133,31.978069 C 22.160133,31.978069 26.997745,27.140456 26.997745,27.140456 C 18.528582,18.264221 13.291696,25.230495 11.500037,31.436501 z"
     style="fill:#404040;"/>
  </a>
 </g>
</svg>

<style type='text/css'>
<![CDATA[
[data-mouse-over-selected='false'] { opacity: 0.7; }
[data-mouse-over-selected='true']  { opacity: 1.0; }
]]>
</style>
<script type="application/ecmascript"><![CDATA[
document.addEventListener('DOMContentLoaded', (event) => {
  highlightEdges();
  highlightAdjacentNodes();
});
]]></script>
</svg>
