<?xml version="1.0" encoding="UTF-8" standalone="no"?>
<!DOCTYPE svg PUBLIC "-//W3C//DTD SVG 1.1//EN"
 "http://www.w3.org/Graphics/SVG/1.1/DTD/svg11.dtd">
<!-- Generated by graphviz version 13.1.2 (20250809.0930)
 -->
<!-- Title: GreenF.h Pages: 1 -->
<svg width="1550pt" height="483pt"
 viewBox="0.00 0.00 1550.00 483.00" xmlns="http://www.w3.org/2000/svg" xmlns:xlink="http://www.w3.org/1999/xlink">
<g id="graph0" class="graph" transform="scale(1 1) rotate(0) translate(4 478.75)">
<title>GreenF.h</title>
<!-- Node1 -->
<g id="Node000001" class="node">
<title>Node1</title>
<g id="a_Node000001"><a xlink:title="Abstract base class for electromagnetic Green&#39;s functions.">
<polygon fill="#999999" stroke="#666666" points="931,-474.75 872.25,-474.75 872.25,-454 931,-454 931,-474.75"/>
<text xml:space="preserve" text-anchor="middle" x="901.62" y="-461.25" font-family="Helvetica,sans-Serif" font-size="10.00">GreenF.h</text>
</a>
</g>
</g>
<!-- Node2 -->
<g id="Node000002" class="node">
<title>Node2</title>
<g id="a_Node000002"><a xlink:href="Domain_8h.html" target="_top" xlink:title="Abstract simulation domain class for SIE scattering.">
<polygon fill="white" stroke="#666666" points="899.25,-304.5 836,-304.5 836,-283.75 899.25,-283.75 899.25,-304.5"/>
<text xml:space="preserve" text-anchor="middle" x="867.62" y="-291" font-family="Helvetica,sans-Serif" font-size="10.00">Domain.h</text>
</a>
</g>
</g>
<!-- Node1&#45;&gt;Node2 -->
<g id="edge1_Node000001_Node000002" class="edge">
<title>Node1&#45;&gt;Node2</title>
<g id="a_edge1_Node000001_Node000002"><a xlink:title=" ">
<path fill="none" stroke="#63b8ff" d="M861.76,-448.88C848.13,-441.78 834.37,-431.73 826.62,-418 804.65,-379.02 841.61,-326.39 859.16,-304.89"/>
<polygon fill="#63b8ff" stroke="#63b8ff" points="860.16,-451.99 870.7,-453.1 863.15,-445.66 860.16,-451.99"/>
</a>
</g>
</g>
<!-- Node11 -->
<g id="Node000011" class="node">
<title>Node11</title>
<g id="a_Node000011"><a xlink:href="GreenFLayered3D_8h.html" target="_top" xlink:title="Layered‑medium 3D Green&#39;s function (scalar/gradient/dyadic) + RWG integrals.">
<polygon fill="white" stroke="#666666" points="590,-134.25 477.25,-134.25 477.25,-113.5 590,-113.5 590,-134.25"/>
<text xml:space="preserve" text-anchor="middle" x="533.62" y="-120.75" font-family="Helvetica,sans-Serif" font-size="10.00">GreenFLayered3D.h</text>
</a>
</g>
</g>
<!-- Node1&#45;&gt;Node11 -->
<g id="edge37_Node000001_Node000011" class="edge">
<title>Node1&#45;&gt;Node11</title>
<g id="a_edge37_Node000001_Node000011"><a xlink:title=" ">
<path fill="none" stroke="#63b8ff" d="M860.37,-461.55C752.02,-455.65 467.62,-432.48 467.62,-351.88 467.62,-351.88 467.62,-351.88 467.62,-236.38 467.62,-193.41 504.36,-152.49 523.02,-134.48"/>
<polygon fill="#63b8ff" stroke="#63b8ff" points="860.11,-465.04 870.28,-462.07 860.48,-458.05 860.11,-465.04"/>
</a>
</g>
</g>
<!-- Node18 -->
<g id="Node000018" class="node">
<title>Node18</title>
<g id="a_Node000018"><a xlink:href="casimir_8cpp.html" target="_top" xlink:title="Main entry point for the HELIOS Casimir force routine.">
<polygon fill="white" stroke="#666666" points="831.38,-191 759.88,-191 759.88,-170.25 831.38,-170.25 831.38,-191"/>
<text xml:space="preserve" text-anchor="middle" x="795.62" y="-177.5" font-family="Helvetica,sans-Serif" font-size="10.00">casimir.cpp</text>
</a>
</g>
</g>
<!-- Node1&#45;&gt;Node18 -->
<g id="edge69_Node000001_Node000018" class="edge">
<title>Node1&#45;&gt;Node18</title>
<g id="a_edge69_Node000001_Node000018"><a xlink:title=" ">
<path fill="none" stroke="#63b8ff" d="M861.81,-449.19C822.94,-432.49 769.62,-400.68 769.62,-351.88 769.62,-351.88 769.62,-351.88 769.62,-293.12 769.62,-254.56 784.56,-210.41 791.79,-191.29"/>
<polygon fill="#63b8ff" stroke="#63b8ff" points="860.35,-452.37 870.93,-452.93 863,-445.9 860.35,-452.37"/>
</a>
</g>
</g>
<!-- Node19 -->
<g id="Node000019" class="node">
<title>Node19</title>
<g id="a_Node000019"><a xlink:href="main_8cpp.html" target="_top" xlink:title="This is the main file for the HELIOS program.">
<polygon fill="white" stroke="#666666" points="910.12,-191 849.12,-191 849.12,-170.25 910.12,-170.25 910.12,-191"/>
<text xml:space="preserve" text-anchor="middle" x="879.62" y="-177.5" font-family="Helvetica,sans-Serif" font-size="10.00">main.cpp</text>
</a>
</g>
</g>
<!-- Node1&#45;&gt;Node19 -->
<g id="edge70_Node000001_Node000019" class="edge">
<title>Node1&#45;&gt;Node19</title>
<g id="a_edge70_Node000001_Node000019"><a xlink:title=" ">
<path fill="none" stroke="#63b8ff" d="M911.39,-443.19C916.48,-429.8 920.53,-412.04 914.62,-397.25 893.57,-344.47 847.68,-357.28 826.62,-304.5 813.86,-272.51 812.22,-258.29 826.62,-227 833.77,-211.49 849.12,-199.3 861.47,-191.48"/>
<polygon fill="#63b8ff" stroke="#63b8ff" points="908.23,-441.68 907.48,-452.25 914.65,-444.46 908.23,-441.68"/>
</a>
</g>
</g>
<!-- Node21 -->
<g id="Node000021" class="node">
<title>Node21</title>
<g id="a_Node000021"><a xlink:href="GreenF_8cpp.html" target="_top" xlink:title="Implementation of the GreenF base class.">
<polygon fill="white" stroke="#666666" points="905.62,-418 835.62,-418 835.62,-397.25 905.62,-397.25 905.62,-418"/>
<text xml:space="preserve" text-anchor="middle" x="870.62" y="-404.5" font-family="Helvetica,sans-Serif" font-size="10.00">GreenF.cpp</text>
</a>
</g>
</g>
<!-- Node1&#45;&gt;Node21 -->
<g id="edge27_Node000001_Node000021" class="edge">
<title>Node1&#45;&gt;Node21</title>
<g id="a_edge27_Node000001_Node000021"><a xlink:title=" ">
<path fill="none" stroke="#63b8ff" d="M890.41,-443.57C885.55,-434.98 880.07,-425.31 876.12,-418.33"/>
<polygon fill="#63b8ff" stroke="#63b8ff" points="887.36,-445.29 895.34,-452.27 893.46,-441.84 887.36,-445.29"/>
</a>
</g>
</g>
<!-- Node22 -->
<g id="Node000022" class="node">
<title>Node22</title>
<g id="a_Node000022"><a xlink:href="GreenFHom3D_8h.html" target="_top" xlink:title="3D scalar/dyadic Green&#39;s function in a homogeneous background.">
<polygon fill="white" stroke="#666666" points="439.12,-304.5 342.12,-304.5 342.12,-283.75 439.12,-283.75 439.12,-304.5"/>
<text xml:space="preserve" text-anchor="middle" x="390.62" y="-291" font-family="Helvetica,sans-Serif" font-size="10.00">GreenFHom3D.h</text>
</a>
</g>
</g>
<!-- Node1&#45;&gt;Node22 -->
<g id="edge28_Node000001_Node000022" class="edge">
<title>Node1&#45;&gt;Node22</title>
<g id="a_edge28_Node000001_Node000022"><a xlink:title=" ">
<path fill="none" stroke="#63b8ff" d="M860.44,-464.1C762.54,-465.06 519.17,-462.74 453.62,-418 413.23,-390.43 397.21,-328.77 392.37,-304.86"/>
<polygon fill="#63b8ff" stroke="#63b8ff" points="860.44,-467.6 870.4,-463.98 860.36,-460.6 860.44,-467.6"/>
</a>
</g>
</g>
<!-- Node28 -->
<g id="Node000028" class="node">
<title>Node28</title>
<g id="a_Node000028"><a xlink:href="IncidentField_8h.html" target="_top" xlink:title="Abstract interface for incident electromagnetic excitations.">
<polygon fill="white" stroke="#666666" points="1236.25,-418 1149,-418 1149,-397.25 1236.25,-397.25 1236.25,-418"/>
<text xml:space="preserve" text-anchor="middle" x="1192.62" y="-404.5" font-family="Helvetica,sans-Serif" font-size="10.00">IncidentField.h</text>
</a>
</g>
</g>
<!-- Node1&#45;&gt;Node28 -->
<g id="edge38_Node000001_Node000028" class="edge">
<title>Node1&#45;&gt;Node28</title>
<g id="a_edge38_Node000001_Node000028"><a xlink:title=" ">
<path fill="none" stroke="#63b8ff" d="M942.67,-455.65C997.06,-445.42 1092.62,-427.44 1148.51,-416.93"/>
<polygon fill="#63b8ff" stroke="#63b8ff" points="942.07,-452.2 932.89,-457.49 943.36,-459.08 942.07,-452.2"/>
</a>
</g>
</g>
<!-- Node34 -->
<g id="Node000034" class="node">
<title>Node34</title>
<g id="a_Node000034"><a xlink:href="SIEForm_8h.html" target="_top" xlink:title="Header for the SIEForm class.">
<polygon fill="white" stroke="#666666" points="1020,-361.25 955.25,-361.25 955.25,-340.5 1020,-340.5 1020,-361.25"/>
<text xml:space="preserve" text-anchor="middle" x="987.62" y="-347.75" font-family="Helvetica,sans-Serif" font-size="10.00">SIEForm.h</text>
</a>
</g>
</g>
<!-- Node1&#45;&gt;Node34 -->
<g id="edge66_Node000001_Node000034" class="edge">
<title>Node1&#45;&gt;Node34</title>
<g id="a_edge66_Node000001_Node000034"><a xlink:title=" ">
<path fill="none" stroke="#63b8ff" d="M921.34,-445.99C929.92,-437.92 939.79,-427.93 947.62,-418 962.42,-399.25 975.98,-374.61 982.87,-361.33"/>
<polygon fill="#63b8ff" stroke="#63b8ff" points="919.13,-443.27 914.12,-452.6 923.86,-448.43 919.13,-443.27"/>
</a>
</g>
</g>
<!-- Node36 -->
<g id="Node000036" class="node">
<title>Node36</title>
<g id="a_Node000036"><a xlink:href="SIEFormPMCHW_8h.html" target="_top" xlink:title="Header file for the SIEFormPMCHW class.">
<polygon fill="white" stroke="#666666" points="1120.12,-247.75 1017.12,-247.75 1017.12,-227 1120.12,-227 1120.12,-247.75"/>
<text xml:space="preserve" text-anchor="middle" x="1068.62" y="-234.25" font-family="Helvetica,sans-Serif" font-size="10.00">SIEFormPMCHW.h</text>
</a>
</g>
</g>
<!-- Node1&#45;&gt;Node36 -->
<g id="edge67_Node000001_Node000036" class="edge">
<title>Node1&#45;&gt;Node36</title>
<g id="a_edge67_Node000001_Node000036"><a xlink:title=" ">
<path fill="none" stroke="#63b8ff" d="M927.58,-447.7C955.56,-429.74 999.92,-397.98 1028.62,-361.25 1046.45,-338.43 1051.6,-332.01 1060.62,-304.5 1066.97,-285.16 1068.37,-261.16 1068.63,-248.05"/>
<polygon fill="#63b8ff" stroke="#63b8ff" points="925.96,-444.59 919.36,-452.88 929.68,-450.52 925.96,-444.59"/>
</a>
</g>
</g>
<!-- Node38 -->
<g id="Node000038" class="node">
<title>Node38</title>
<g id="a_Node000038"><a xlink:href="SingSub_8cpp.html" target="_top" xlink:title="Implementation of exact edge/surface integrals and K1–K4 kernels.">
<polygon fill="white" stroke="#666666" points="1329.25,-418 1254,-418 1254,-397.25 1329.25,-397.25 1329.25,-418"/>
<text xml:space="preserve" text-anchor="middle" x="1291.62" y="-404.5" font-family="Helvetica,sans-Serif" font-size="10.00">SingSub.cpp</text>
</a>
</g>
</g>
<!-- Node1&#45;&gt;Node38 -->
<g id="edge68_Node000001_Node000038" class="edge">
<title>Node1&#45;&gt;Node38</title>
<g id="a_edge68_Node000001_Node000038"><a xlink:title=" ">
<path fill="none" stroke="#63b8ff" d="M942.46,-458.92C1007.03,-451.68 1136.56,-436.28 1245.62,-418 1248.2,-417.57 1250.85,-417.1 1253.51,-416.61"/>
<polygon fill="#63b8ff" stroke="#63b8ff" points="942.23,-455.43 932.68,-460.01 943.01,-462.39 942.23,-455.43"/>
</a>
</g>
</g>
<!-- Node3 -->
<g id="Node000003" class="node">
<title>Node3</title>
<g id="a_Node000003"><a xlink:href="Domain_8cpp.html" target="_top" xlink:title="Implementation of the Domain base class.">
<polygon fill="white" stroke="#666666" points="909.88,-247.75 835.38,-247.75 835.38,-227 909.88,-227 909.88,-247.75"/>
<text xml:space="preserve" text-anchor="middle" x="872.62" y="-234.25" font-family="Helvetica,sans-Serif" font-size="10.00">Domain.cpp</text>
</a>
</g>
</g>
<!-- Node2&#45;&gt;Node3 -->
<g id="edge2_Node000002_Node000003" class="edge">
<title>Node2&#45;&gt;Node3</title>
<g id="a_edge2_Node000002_Node000003"><a xlink:title=" ">
<path fill="none" stroke="#63b8ff" d="M869.57,-271.88C870.32,-263.66 871.14,-254.68 871.74,-248.08"/>
<polygon fill="#63b8ff" stroke="#63b8ff" points="866.08,-271.55 868.66,-281.83 873.05,-272.19 866.08,-271.55"/>
</a>
</g>
</g>
<!-- Node4 -->
<g id="Node000004" class="node">
<title>Node4</title>
<g id="a_Node000004"><a xlink:href="DomainHom3D_8h.html" target="_top" xlink:title="Homogeneous 3D simulation domain (derived from Domain).">
<polygon fill="white" stroke="#666666" points="622.62,-247.75 522.62,-247.75 522.62,-227 622.62,-227 622.62,-247.75"/>
<text xml:space="preserve" text-anchor="middle" x="572.62" y="-234.25" font-family="Helvetica,sans-Serif" font-size="10.00">DomainHom3D.h</text>
</a>
</g>
</g>
<!-- Node2&#45;&gt;Node4 -->
<g id="edge3_Node000002_Node000004" class="edge">
<title>Node2&#45;&gt;Node4</title>
<g id="a_edge3_Node000002_Node000004"><a xlink:title=" ">
<path fill="none" stroke="#63b8ff" d="M824.63,-285.14C771.09,-275.21 679.77,-258.26 623.01,-247.73"/>
<polygon fill="#63b8ff" stroke="#63b8ff" points="823.82,-288.55 834.29,-286.94 825.09,-281.67 823.82,-288.55"/>
</a>
</g>
</g>
<!-- Node14 -->
<g id="Node000014" class="node">
<title>Node14</title>
<g id="a_Node000014"><a xlink:href="DomainLayered3D_8h.html" target="_top" xlink:title="Layered 3D simulation domain (derived from Domain).">
<polygon fill="white" stroke="#666666" points="611.5,-77.5 495.75,-77.5 495.75,-56.75 611.5,-56.75 611.5,-77.5"/>
<text xml:space="preserve" text-anchor="middle" x="553.62" y="-64" font-family="Helvetica,sans-Serif" font-size="10.00">DomainLayered3D.h</text>
</a>
</g>
</g>
<!-- Node2&#45;&gt;Node14 -->
<g id="edge21_Node000002_Node000014" class="edge">
<title>Node2&#45;&gt;Node14</title>
<g id="a_edge21_Node000002_Node000014"><a xlink:title=" ">
<path fill="none" stroke="#63b8ff" d="M838.77,-277.76C810.34,-260.8 768.61,-230.57 750.62,-191 736.25,-159.38 782.4,-140.56 760.62,-113.5 751.21,-101.8 669.63,-86.57 611.74,-77.07"/>
<polygon fill="#63b8ff" stroke="#63b8ff" points="836.86,-280.7 847.27,-282.65 840.35,-274.63 836.86,-280.7"/>
</a>
</g>
</g>
<!-- Node17 -->
<g id="Node000017" class="node">
<title>Node17</title>
<g id="a_Node000017"><a xlink:href="SimJob_8h.html" target="_top" xlink:title="Orchestrates a full simulation run: parse job/subjobs, build the linear system, solve it,...">
<polygon fill="white" stroke="#666666" points="987,-247.75 928.25,-247.75 928.25,-227 987,-227 987,-247.75"/>
<text xml:space="preserve" text-anchor="middle" x="957.62" y="-234.25" font-family="Helvetica,sans-Serif" font-size="10.00">SimJob.h</text>
</a>
</g>
</g>
<!-- Node2&#45;&gt;Node17 -->
<g id="edge22_Node000002_Node000017" class="edge">
<title>Node2&#45;&gt;Node17</title>
<g id="a_edge22_Node000002_Node000017"><a xlink:title=" ">
<path fill="none" stroke="#63b8ff" d="M893.3,-277.51C908.88,-268.03 928.28,-256.23 941.67,-248.08"/>
<polygon fill="#63b8ff" stroke="#63b8ff" points="891.73,-274.36 885.01,-282.55 895.37,-280.34 891.73,-274.36"/>
</a>
</g>
</g>
<!-- Node5 -->
<g id="Node000005" class="node">
<title>Node5</title>
<g id="a_Node000005"><a xlink:href="DomainHom3D_8cpp.html" target="_top" xlink:title="Implementation of the homogeneous 3D domain.">
<polygon fill="white" stroke="#666666" points="1443.25,-20.75 1332,-20.75 1332,0 1443.25,0 1443.25,-20.75"/>
<text xml:space="preserve" text-anchor="middle" x="1387.62" y="-7.25" font-family="Helvetica,sans-Serif" font-size="10.00">DomainHom3D.cpp</text>
</a>
</g>
</g>
<!-- Node4&#45;&gt;Node5 -->
<g id="edge4_Node000004_Node000005" class="edge">
<title>Node4&#45;&gt;Node5</title>
<g id="a_edge4_Node000004_Node000005"><a xlink:title=" ">
<path fill="none" stroke="#63b8ff" d="M605.1,-222.16C640.32,-207.25 698.51,-184.1 750.62,-170.25 994.86,-105.34 1082.97,-185.13 1311.62,-77.5 1340.74,-63.79 1367.26,-35.63 1379.88,-20.87"/>
<polygon fill="#63b8ff" stroke="#63b8ff" points="604.15,-218.76 596.33,-225.91 606.9,-225.19 604.15,-218.76"/>
</a>
</g>
</g>
<!-- Node6 -->
<g id="Node000006" class="node">
<title>Node6</title>
<g id="a_Node000006"><a xlink:href="DomainHom3DPer_8h.html" target="_top" xlink:title="Homogeneous 3D domain with in‑plane periodicity (derived from DomainHom3D).">
<polygon fill="white" stroke="#666666" points="401.12,-191 286.12,-191 286.12,-170.25 401.12,-170.25 401.12,-191"/>
<text xml:space="preserve" text-anchor="middle" x="343.62" y="-177.5" font-family="Helvetica,sans-Serif" font-size="10.00">DomainHom3DPer.h</text>
</a>
</g>
</g>
<!-- Node4&#45;&gt;Node6 -->
<g id="edge5_Node000004_Node000006" class="edge">
<title>Node4&#45;&gt;Node6</title>
<g id="a_edge5_Node000004_Node000006"><a xlink:title=" ">
<path fill="none" stroke="#63b8ff" d="M520.27,-223.86C479.19,-214.04 422.8,-200.56 384.88,-191.49"/>
<polygon fill="#63b8ff" stroke="#63b8ff" points="519.41,-227.25 529.95,-226.17 521.04,-220.44 519.41,-227.25"/>
</a>
</g>
</g>
<!-- Node8 -->
<g id="Node000008" class="node">
<title>Node8</title>
<g id="a_Node000008"><a xlink:href="SimJob_8cpp.html" target="_top" xlink:title="Implementation for the SimJob class.">
<polygon fill="white" stroke="#666666" points="716.62,-20.75 646.62,-20.75 646.62,0 716.62,0 716.62,-20.75"/>
<text xml:space="preserve" text-anchor="middle" x="681.62" y="-7.25" font-family="Helvetica,sans-Serif" font-size="10.00">SimJob.cpp</text>
</a>
</g>
</g>
<!-- Node4&#45;&gt;Node8 -->
<g id="edge8_Node000004_Node000008" class="edge">
<title>Node4&#45;&gt;Node8</title>
<g id="a_edge8_Node000004_Node000008"><a xlink:title=" ">
<path fill="none" stroke="#63b8ff" d="M546.94,-220.37C521.49,-202.83 484.14,-172.07 468.62,-134.25 458.71,-110.09 484.97,-58.28 486.62,-56.75 509.6,-35.52 596.67,-21.71 646.34,-15.38"/>
<polygon fill="#63b8ff" stroke="#63b8ff" points="544.84,-223.18 555.11,-225.81 548.72,-217.36 544.84,-223.18"/>
</a>
</g>
</g>
<!-- Node9 -->
<g id="Node000009" class="node">
<title>Node9</title>
<g id="a_Node000009"><a xlink:href="SommerfeldIntegrator_8h.html" target="_top" xlink:title="Declaration of the SommerfeldIntegrator class, which evaluates Sommerfeld&#45;type integrals for layered ...">
<polygon fill="white" stroke="#666666" points="665.75,-191 533.5,-191 533.5,-170.25 665.75,-170.25 665.75,-191"/>
<text xml:space="preserve" text-anchor="middle" x="599.62" y="-177.5" font-family="Helvetica,sans-Serif" font-size="10.00">SommerfeldIntegrator.h</text>
</a>
</g>
</g>
<!-- Node4&#45;&gt;Node9 -->
<g id="edge9_Node000004_Node000009" class="edge">
<title>Node4&#45;&gt;Node9</title>
<g id="a_edge9_Node000004_Node000009"><a xlink:title=" ">
<path fill="none" stroke="#63b8ff" d="M582.53,-216.28C586.73,-207.77 591.43,-198.24 594.84,-191.33"/>
<polygon fill="#63b8ff" stroke="#63b8ff" points="579.41,-214.71 578.12,-225.23 585.68,-217.81 579.41,-214.71"/>
</a>
</g>
</g>
<!-- Node7 -->
<g id="Node000007" class="node">
<title>Node7</title>
<g id="a_Node000007"><a xlink:href="DomainHom3DPer_8cpp.html" target="_top" xlink:title="Implementation of the homogeneous, periodically replicated 3D domain.">
<polygon fill="white" stroke="#666666" points="345.75,-134.25 219.5,-134.25 219.5,-113.5 345.75,-113.5 345.75,-134.25"/>
<text xml:space="preserve" text-anchor="middle" x="282.62" y="-120.75" font-family="Helvetica,sans-Serif" font-size="10.00">DomainHom3DPer.cpp</text>
</a>
</g>
</g>
<!-- Node6&#45;&gt;Node7 -->
<g id="edge6_Node000006_Node000007" class="edge">
<title>Node6&#45;&gt;Node7</title>
<g id="a_edge6_Node000006_Node000007"><a xlink:title=" ">
<path fill="none" stroke="#63b8ff" d="M324.39,-162.36C314.17,-153.19 302,-142.26 293.44,-134.58"/>
<polygon fill="#63b8ff" stroke="#63b8ff" points="321.81,-164.75 331.59,-168.83 326.49,-159.54 321.81,-164.75"/>
</a>
</g>
</g>
<!-- Node6&#45;&gt;Node8 -->
<g id="edge7_Node000006_Node000008" class="edge">
<title>Node6&#45;&gt;Node8</title>
<g id="a_edge7_Node000006_Node000008"><a xlink:title=" ">
<path fill="none" stroke="#63b8ff" d="M349.94,-159.27C360.09,-127.87 380.62,-69.88 397.62,-56.75 435.91,-27.19 578.92,-16.38 646.21,-12.87"/>
<polygon fill="#63b8ff" stroke="#63b8ff" points="346.73,-157.81 347.04,-168.4 353.4,-159.93 346.73,-157.81"/>
</a>
</g>
</g>
<!-- Node10 -->
<g id="Node000010" class="node">
<title>Node10</title>
<g id="a_Node000010"><a xlink:href="DomainLayered3D_8cpp.html" target="_top" xlink:title="Implementation of the layered 3D domain.">
<polygon fill="white" stroke="#666666" points="1119.12,-20.75 992.12,-20.75 992.12,0 1119.12,0 1119.12,-20.75"/>
<text xml:space="preserve" text-anchor="middle" x="1055.62" y="-7.25" font-family="Helvetica,sans-Serif" font-size="10.00">DomainLayered3D.cpp</text>
</a>
</g>
</g>
<!-- Node9&#45;&gt;Node10 -->
<g id="edge10_Node000009_Node000010" class="edge">
<title>Node9&#45;&gt;Node10</title>
<g id="a_edge10_Node000009_Node000010"><a xlink:title=" ">
<path fill="none" stroke="#63b8ff" d="M650.26,-167.02C682.22,-158.66 724.19,-146.92 760.62,-134.25 865.43,-97.8 986.53,-43.31 1034.5,-21.21"/>
<polygon fill="#63b8ff" stroke="#63b8ff" points="649.67,-163.56 640.87,-169.46 651.43,-170.34 649.67,-163.56"/>
</a>
</g>
</g>
<!-- Node9&#45;&gt;Node11 -->
<g id="edge11_Node000009_Node000011" class="edge">
<title>Node9&#45;&gt;Node11</title>
<g id="a_edge11_Node000009_Node000011"><a xlink:title=" ">
<path fill="none" stroke="#63b8ff" d="M579.15,-162.64C568.03,-153.41 554.68,-142.34 545.32,-134.58"/>
<polygon fill="#63b8ff" stroke="#63b8ff" points="576.73,-165.18 586.66,-168.87 581.2,-159.79 576.73,-165.18"/>
</a>
</g>
</g>
<!-- Node16 -->
<g id="Node000016" class="node">
<title>Node16</title>
<g id="a_Node000016"><a xlink:href="SommerfeldIntegrator_8cpp.html" target="_top" xlink:title="Implementation of SommerfeldIntegrator: contour construction, integrand assembly, QUADPACK integratio...">
<polygon fill="white" stroke="#666666" points="751.38,-134.25 607.88,-134.25 607.88,-113.5 751.38,-113.5 751.38,-134.25"/>
<text xml:space="preserve" text-anchor="middle" x="679.62" y="-120.75" font-family="Helvetica,sans-Serif" font-size="10.00">SommerfeldIntegrator.cpp</text>
</a>
</g>
</g>
<!-- Node9&#45;&gt;Node16 -->
<g id="edge20_Node000009_Node000016" class="edge">
<title>Node9&#45;&gt;Node16</title>
<g id="a_edge20_Node000009_Node000016"><a xlink:title=" ">
<path fill="none" stroke="#63b8ff" d="M623.24,-163.46C636.95,-154.08 653.77,-142.57 665.45,-134.58"/>
<polygon fill="#63b8ff" stroke="#63b8ff" points="621.45,-160.45 615.18,-168.98 625.41,-166.22 621.45,-160.45"/>
</a>
</g>
</g>
<!-- Node12 -->
<g id="Node000012" class="node">
<title>Node12</title>
<g id="a_Node000012"><a xlink:href="Dipole_8h.html" target="_top" xlink:title="Incident field generator for electric dipole illumination in homogeneous or layered media.">
<polygon fill="white" stroke="#666666" points="1302.88,-77.5 1246.38,-77.5 1246.38,-56.75 1302.88,-56.75 1302.88,-77.5"/>
<text xml:space="preserve" text-anchor="middle" x="1274.62" y="-64" font-family="Helvetica,sans-Serif" font-size="10.00">Dipole.h</text>
</a>
</g>
</g>
<!-- Node11&#45;&gt;Node12 -->
<g id="edge12_Node000011_Node000012" class="edge">
<title>Node11&#45;&gt;Node12</title>
<g id="a_edge12_Node000011_Node000012"><a xlink:title=" ">
<path fill="none" stroke="#63b8ff" d="M601.72,-113.28C883.67,-86.09 960.17,-120.06 1237.62,-77.5 1240.38,-77.08 1243.22,-76.54 1246.05,-75.94"/>
<polygon fill="#63b8ff" stroke="#63b8ff" points="601.43,-109.79 591.82,-114.25 602.11,-116.76 601.43,-109.79"/>
</a>
</g>
</g>
<!-- Node11&#45;&gt;Node14 -->
<g id="edge16_Node000011_Node000014" class="edge">
<title>Node11&#45;&gt;Node14</title>
<g id="a_edge16_Node000011_Node000014"><a xlink:title=" ">
<path fill="none" stroke="#63b8ff" d="M541.07,-102.49C544.15,-94.05 547.59,-84.66 550.08,-77.83"/>
<polygon fill="#63b8ff" stroke="#63b8ff" points="537.86,-101.07 537.72,-111.67 544.44,-103.47 537.86,-101.07"/>
</a>
</g>
</g>
<!-- Node15 -->
<g id="Node000015" class="node">
<title>Node15</title>
<g id="a_Node000015"><a xlink:href="GreenFLayered3D_8cpp.html" target="_top" xlink:title="Implementation of the 3D Green&#39;s Function class in a layered background.">
<polygon fill="white" stroke="#666666" points="753.62,-77.5 629.62,-77.5 629.62,-56.75 753.62,-56.75 753.62,-77.5"/>
<text xml:space="preserve" text-anchor="middle" x="691.62" y="-64" font-family="Helvetica,sans-Serif" font-size="10.00">GreenFLayered3D.cpp</text>
</a>
</g>
</g>
<!-- Node11&#45;&gt;Node15 -->
<g id="edge19_Node000011_Node000015" class="edge">
<title>Node11&#45;&gt;Node15</title>
<g id="a_edge19_Node000011_Node000015"><a xlink:title=" ">
<path fill="none" stroke="#63b8ff" d="M572.54,-109.39C600.67,-99.64 638.04,-86.69 663.36,-77.92"/>
<polygon fill="#63b8ff" stroke="#63b8ff" points="571.61,-106.01 563.3,-112.59 573.9,-112.62 571.61,-106.01"/>
</a>
</g>
</g>
<!-- Node12&#45;&gt;Node5 -->
<g id="edge14_Node000012_Node000005" class="edge">
<title>Node12&#45;&gt;Node5</title>
<g id="a_edge14_Node000012_Node000005"><a xlink:title=" ">
<path fill="none" stroke="#63b8ff" d="M1304.92,-51.45C1324.79,-41.82 1350.22,-29.5 1367.6,-21.08"/>
<polygon fill="#63b8ff" stroke="#63b8ff" points="1303.66,-48.17 1296.19,-55.68 1306.71,-54.47 1303.66,-48.17"/>
</a>
</g>
</g>
<!-- Node12&#45;&gt;Node10 -->
<g id="edge15_Node000012_Node000010" class="edge">
<title>Node12&#45;&gt;Node10</title>
<g id="a_edge15_Node000012_Node000010"><a xlink:title=" ">
<path fill="none" stroke="#63b8ff" d="M1234.89,-56.07C1181.48,-42.66 1129.9,-29.82 1095.4,-21.25"/>
<polygon fill="#63b8ff" stroke="#63b8ff" points="1233.93,-59.43 1244.48,-58.48 1235.63,-52.65 1233.93,-59.43"/>
</a>
</g>
</g>
<!-- Node13 -->
<g id="Node000013" class="node">
<title>Node13</title>
<g id="a_Node000013"><a xlink:href="Dipole_8cpp.html" target="_top" xlink:title="Implementation of the Dipole incident source.">
<polygon fill="white" stroke="#666666" points="1313.5,-20.75 1245.75,-20.75 1245.75,0 1313.5,0 1313.5,-20.75"/>
<text xml:space="preserve" text-anchor="middle" x="1279.62" y="-7.25" font-family="Helvetica,sans-Serif" font-size="10.00">Dipole.cpp</text>
</a>
</g>
</g>
<!-- Node12&#45;&gt;Node13 -->
<g id="edge13_Node000012_Node000013" class="edge">
<title>Node12&#45;&gt;Node13</title>
<g id="a_edge13_Node000012_Node000013"><a xlink:title=" ">
<path fill="none" stroke="#63b8ff" d="M1276.57,-44.88C1277.32,-36.66 1278.14,-27.68 1278.74,-21.08"/>
<polygon fill="#63b8ff" stroke="#63b8ff" points="1273.08,-44.55 1275.66,-54.83 1280.05,-45.19 1273.08,-44.55"/>
</a>
</g>
</g>
<!-- Node14&#45;&gt;Node8 -->
<g id="edge18_Node000014_Node000008" class="edge">
<title>Node14&#45;&gt;Node8</title>
<g id="a_edge18_Node000014_Node000008"><a xlink:title=" ">
<path fill="none" stroke="#63b8ff" d="M587.02,-51.84C609.65,-42.16 638.98,-29.62 658.94,-21.08"/>
<polygon fill="#63b8ff" stroke="#63b8ff" points="585.72,-48.59 577.9,-55.74 588.47,-55.03 585.72,-48.59"/>
</a>
</g>
</g>
<!-- Node14&#45;&gt;Node10 -->
<g id="edge17_Node000014_Node000010" class="edge">
<title>Node14&#45;&gt;Node10</title>
<g id="a_edge17_Node000014_Node000010"><a xlink:title=" ">
<path fill="none" stroke="#63b8ff" d="M622.86,-56.51C760.44,-39.87 909.16,-25.19 991.79,-17.33"/>
<polygon fill="#63b8ff" stroke="#63b8ff" points="622.72,-53.01 613.22,-57.69 623.57,-59.95 622.72,-53.01"/>
</a>
</g>
</g>
<!-- Node17&#45;&gt;Node8 -->
<g id="edge23_Node000017_Node000008" class="edge">
<title>Node17&#45;&gt;Node8</title>
<g id="a_edge23_Node000017_Node000008"><a xlink:title=" ">
<path fill="none" stroke="#63b8ff" d="M948.8,-216.15C942.1,-202.26 931.95,-183.93 919.62,-170.25 854.12,-97.53 748.5,-42.65 703.29,-21.21"/>
<polygon fill="#63b8ff" stroke="#63b8ff" points="945.6,-217.58 952.95,-225.2 951.96,-214.65 945.6,-217.58"/>
</a>
</g>
</g>
<!-- Node17&#45;&gt;Node18 -->
<g id="edge24_Node000017_Node000018" class="edge">
<title>Node17&#45;&gt;Node18</title>
<g id="a_edge24_Node000017_Node000018"><a xlink:title=" ">
<path fill="none" stroke="#63b8ff" d="M918.11,-223.02C889.22,-213.26 850.68,-200.23 824.61,-191.42"/>
<polygon fill="#63b8ff" stroke="#63b8ff" points="916.63,-226.22 927.23,-226.1 918.88,-219.58 916.63,-226.22"/>
</a>
</g>
</g>
<!-- Node17&#45;&gt;Node19 -->
<g id="edge25_Node000017_Node000019" class="edge">
<title>Node17&#45;&gt;Node19</title>
<g id="a_edge25_Node000017_Node000019"><a xlink:title=" ">
<path fill="none" stroke="#63b8ff" d="M934.6,-220.21C921.23,-210.83 904.84,-199.32 893.45,-191.33"/>
<polygon fill="#63b8ff" stroke="#63b8ff" points="932.25,-222.84 942.44,-225.72 936.27,-217.11 932.25,-222.84"/>
</a>
</g>
</g>
<!-- Node20 -->
<g id="Node000020" class="node">
<title>Node20</title>
<g id="a_Node000020"><a xlink:href="mainpp_8cpp.html" target="_top" xlink:title="This is the main file for the HELIOS program, specifically the post&#45;processing portion.">
<polygon fill="white" stroke="#666666" points="1040.12,-191 967.12,-191 967.12,-170.25 1040.12,-170.25 1040.12,-191"/>
<text xml:space="preserve" text-anchor="middle" x="1003.62" y="-177.5" font-family="Helvetica,sans-Serif" font-size="10.00">mainpp.cpp</text>
</a>
</g>
</g>
<!-- Node17&#45;&gt;Node20 -->
<g id="edge26_Node000017_Node000020" class="edge">
<title>Node17&#45;&gt;Node20</title>
<g id="a_edge26_Node000017_Node000020"><a xlink:title=" ">
<path fill="none" stroke="#63b8ff" d="M973.07,-217.99C980.57,-209.06 989.28,-198.7 995.47,-191.33"/>
<polygon fill="#63b8ff" stroke="#63b8ff" points="970.58,-215.52 966.82,-225.43 975.94,-220.02 970.58,-215.52"/>
</a>
</g>
</g>
<!-- Node22&#45;&gt;Node4 -->
<g id="edge29_Node000022_Node000004" class="edge">
<title>Node22&#45;&gt;Node4</title>
<g id="a_edge29_Node000022_Node000004"><a xlink:title=" ">
<path fill="none" stroke="#63b8ff" d="M434.17,-280.03C466.71,-270.24 510.51,-257.06 540.06,-248.17"/>
<polygon fill="#63b8ff" stroke="#63b8ff" points="433.18,-276.67 424.61,-282.9 435.2,-283.37 433.18,-276.67"/>
</a>
</g>
</g>
<!-- Node22&#45;&gt;Node14 -->
<g id="edge30_Node000022_Node000014" class="edge">
<title>Node22&#45;&gt;Node14</title>
<g id="a_edge30_Node000022_Node000014"><a xlink:title=" ">
<path fill="none" stroke="#63b8ff" d="M399.54,-272.99C403.01,-265.12 407.02,-256.02 410.62,-247.75 436.62,-188.18 424.6,-161.32 468.62,-113.5 483.81,-97.01 506.38,-85.35 524.46,-77.98"/>
<polygon fill="#63b8ff" stroke="#63b8ff" points="396.39,-271.45 395.55,-282.01 402.79,-274.28 396.39,-271.45"/>
</a>
</g>
</g>
<!-- Node23 -->
<g id="Node000023" class="node">
<title>Node23</title>
<g id="a_Node000023"><a xlink:href="GreenFHom3D_8cpp.html" target="_top" xlink:title="Implementation of the 3D Green&#39;s Function class in a homogeneous background.">
<polygon fill="white" stroke="#666666" points="401.75,-247.75 293.5,-247.75 293.5,-227 401.75,-227 401.75,-247.75"/>
<text xml:space="preserve" text-anchor="middle" x="347.62" y="-234.25" font-family="Helvetica,sans-Serif" font-size="10.00">GreenFHom3D.cpp</text>
</a>
</g>
</g>
<!-- Node22&#45;&gt;Node23 -->
<g id="edge31_Node000022_Node000023" class="edge">
<title>Node22&#45;&gt;Node23</title>
<g id="a_edge31_Node000022_Node000023"><a xlink:title=" ">
<path fill="none" stroke="#63b8ff" d="M375.96,-274.46C369,-265.59 360.98,-255.37 355.25,-248.08"/>
<polygon fill="#63b8ff" stroke="#63b8ff" points="373.07,-276.44 382,-282.15 378.58,-272.12 373.07,-276.44"/>
</a>
</g>
</g>
<!-- Node24 -->
<g id="Node000024" class="node">
<title>Node24</title>
<g id="a_Node000024"><a xlink:href="GreenFHom3DPer_8h.html" target="_top" xlink:title="Periodic homogeneous 3D Green&#39;s function (abstract base).">
<polygon fill="white" stroke="#666666" points="260.62,-247.75 148.62,-247.75 148.62,-227 260.62,-227 260.62,-247.75"/>
<text xml:space="preserve" text-anchor="middle" x="204.62" y="-234.25" font-family="Helvetica,sans-Serif" font-size="10.00">GreenFHom3DPer.h</text>
</a>
</g>
</g>
<!-- Node22&#45;&gt;Node24 -->
<g id="edge32_Node000022_Node000024" class="edge">
<title>Node22&#45;&gt;Node24</title>
<g id="a_edge32_Node000022_Node000024"><a xlink:title=" ">
<path fill="none" stroke="#63b8ff" d="M346.56,-280.16C313.25,-270.35 268.23,-257.1 237.9,-248.17"/>
<polygon fill="#63b8ff" stroke="#63b8ff" points="345.34,-283.44 355.92,-282.91 347.32,-276.73 345.34,-283.44"/>
</a>
</g>
</g>
<!-- Node25 -->
<g id="Node000025" class="node">
<title>Node25</title>
<g id="a_Node000025"><a xlink:href="GreenFHom3DPer_8cpp.html" target="_top" xlink:title="Implementation of the periodic homogeneous 3D Green&#39;s function base.">
<polygon fill="white" stroke="#666666" points="123.25,-191 0,-191 0,-170.25 123.25,-170.25 123.25,-191"/>
<text xml:space="preserve" text-anchor="middle" x="61.62" y="-177.5" font-family="Helvetica,sans-Serif" font-size="10.00">GreenFHom3DPer.cpp</text>
</a>
</g>
</g>
<!-- Node24&#45;&gt;Node25 -->
<g id="edge33_Node000024_Node000025" class="edge">
<title>Node24&#45;&gt;Node25</title>
<g id="a_edge33_Node000024_Node000025"><a xlink:title=" ">
<path fill="none" stroke="#63b8ff" d="M168.35,-222.49C142.92,-212.75 109.57,-199.98 86.97,-191.33"/>
<polygon fill="#63b8ff" stroke="#63b8ff" points="167.06,-225.74 177.65,-226.05 169.56,-219.2 167.06,-225.74"/>
</a>
</g>
</g>
<!-- Node26 -->
<g id="Node000026" class="node">
<title>Node26</title>
<g id="a_Node000026"><a xlink:href="GreenFHom3DPer2D_8h.html" target="_top" xlink:title="Periodic homogeneous 3D Green&#39;s function with 2D in‑plane periodicity.">
<polygon fill="white" stroke="#666666" points="267.75,-191 141.5,-191 141.5,-170.25 267.75,-170.25 267.75,-191"/>
<text xml:space="preserve" text-anchor="middle" x="204.62" y="-177.5" font-family="Helvetica,sans-Serif" font-size="10.00">GreenFHom3DPer2D.h</text>
</a>
</g>
</g>
<!-- Node24&#45;&gt;Node26 -->
<g id="edge34_Node000024_Node000026" class="edge">
<title>Node24&#45;&gt;Node26</title>
<g id="a_edge34_Node000024_Node000026"><a xlink:title=" ">
<path fill="none" stroke="#63b8ff" d="M204.62,-215.13C204.62,-206.91 204.62,-197.93 204.62,-191.33"/>
<polygon fill="#63b8ff" stroke="#63b8ff" points="201.13,-215.07 204.63,-225.07 208.13,-215.07 201.13,-215.07"/>
</a>
</g>
</g>
<!-- Node26&#45;&gt;Node7 -->
<g id="edge35_Node000026_Node000007" class="edge">
<title>Node26&#45;&gt;Node7</title>
<g id="a_edge35_Node000026_Node000007"><a xlink:title=" ">
<path fill="none" stroke="#63b8ff" d="M227.65,-163.46C241.02,-154.08 257.41,-142.57 268.8,-134.58"/>
<polygon fill="#63b8ff" stroke="#63b8ff" points="225.98,-160.36 219.81,-168.97 230,-166.09 225.98,-160.36"/>
</a>
</g>
</g>
<!-- Node27 -->
<g id="Node000027" class="node">
<title>Node27</title>
<g id="a_Node000027"><a xlink:href="GreenFHom3DPer2D_8cpp.html" target="_top" xlink:title="Implementation of the 2D&#45;periodic homogeneous 3D Green&#39;s function.">
<polygon fill="white" stroke="#666666" points="201.38,-134.25 63.88,-134.25 63.88,-113.5 201.38,-113.5 201.38,-134.25"/>
<text xml:space="preserve" text-anchor="middle" x="132.62" y="-120.75" font-family="Helvetica,sans-Serif" font-size="10.00">GreenFHom3DPer2D.cpp</text>
</a>
</g>
</g>
<!-- Node26&#45;&gt;Node27 -->
<g id="edge36_Node000026_Node000027" class="edge">
<title>Node26&#45;&gt;Node27</title>
<g id="a_edge36_Node000026_Node000027"><a xlink:title=" ">
<path fill="none" stroke="#63b8ff" d="M182.65,-162.91C170.44,-153.63 155.69,-142.42 145.39,-134.58"/>
<polygon fill="#63b8ff" stroke="#63b8ff" points="180.47,-165.65 190.55,-168.92 184.71,-160.08 180.47,-165.65"/>
</a>
</g>
</g>
<!-- Node28&#45;&gt;Node2 -->
<g id="edge40_Node000028_Node000002" class="edge">
<title>Node28&#45;&gt;Node2</title>
<g id="a_edge40_Node000028_Node000002"><a xlink:title=" ">
<path fill="none" stroke="#63b8ff" d="M1137.59,-404.48C1086.06,-400.65 1008,-390.12 946.62,-361.25 916.85,-347.24 889.06,-319.21 875.79,-304.55"/>
<polygon fill="#63b8ff" stroke="#63b8ff" points="1137.09,-407.95 1147.3,-405.13 1137.56,-400.97 1137.09,-407.95"/>
</a>
</g>
</g>
<!-- Node28&#45;&gt;Node5 -->
<g id="edge41_Node000028_Node000005" class="edge">
<title>Node28&#45;&gt;Node5</title>
<g id="a_edge41_Node000028_Node000005"><a xlink:title=" ">
<path fill="none" stroke="#63b8ff" d="M1247.66,-396.68C1314.26,-384.53 1418.55,-365.13 1426.62,-361.25 1467.6,-341.59 1504.62,-340.57 1504.62,-295.12 1504.62,-295.12 1504.62,-295.12 1504.62,-122.88 1504.62,-92.3 1505.52,-79.97 1485.62,-56.75 1470.62,-39.24 1447.41,-28.08 1427.34,-21.21"/>
<polygon fill="#63b8ff" stroke="#63b8ff" points="1247.21,-393.2 1238,-398.44 1248.46,-400.09 1247.21,-393.2"/>
</a>
</g>
</g>
<!-- Node28&#45;&gt;Node8 -->
<g id="edge65_Node000028_Node000008" class="edge">
<title>Node28&#45;&gt;Node8</title>
<g id="a_edge65_Node000028_Node000008"><a xlink:title=" ">
<path fill="none" stroke="#63b8ff" d="M1203.3,-386.61C1225.13,-342.61 1268.88,-236.15 1219.62,-170.25 1157.53,-87.17 826.32,-32.35 716.81,-16.28"/>
<polygon fill="#63b8ff" stroke="#63b8ff" points="1200.19,-385 1198.74,-395.49 1206.42,-388.19 1200.19,-385"/>
</a>
</g>
</g>
<!-- Node28&#45;&gt;Node10 -->
<g id="edge42_Node000028_Node000010" class="edge">
<title>Node28&#45;&gt;Node10</title>
<g id="a_edge42_Node000028_Node000010"><a xlink:title=" ">
<path fill="none" stroke="#63b8ff" d="M1246.29,-394.15C1288.19,-383.86 1340.34,-369.65 1346.62,-361.25 1352.15,-353.86 1348.93,-349.43 1346.62,-340.5 1325.05,-256.8 1308.19,-236.45 1252.62,-170.25 1245,-161.16 1109.99,-54.31 1067.99,-21.13"/>
<polygon fill="#63b8ff" stroke="#63b8ff" points="1245.71,-390.69 1236.82,-396.45 1247.36,-397.49 1245.71,-390.69"/>
</a>
</g>
</g>
<!-- Node28&#45;&gt;Node12 -->
<g id="edge39_Node000028_Node000012" class="edge">
<title>Node28&#45;&gt;Node12</title>
<g id="a_edge39_Node000028_Node000012"><a xlink:title=" ">
<path fill="none" stroke="#63b8ff" d="M1197.69,-385.71C1213.42,-320.76 1261.05,-124.15 1272.25,-77.93"/>
<polygon fill="#63b8ff" stroke="#63b8ff" points="1194.3,-384.85 1195.35,-395.39 1201.1,-386.49 1194.3,-384.85"/>
</a>
</g>
</g>
<!-- Node29 -->
<g id="Node000029" class="node">
<title>Node29</title>
<g id="a_Node000029"><a xlink:href="Gaussian_8h.html" target="_top" xlink:title="Incident field: paraxial Gaussian beam in a homogeneous medium.">
<polygon fill="white" stroke="#666666" points="1476.62,-77.5 1406.62,-77.5 1406.62,-56.75 1476.62,-56.75 1476.62,-77.5"/>
<text xml:space="preserve" text-anchor="middle" x="1441.62" y="-64" font-family="Helvetica,sans-Serif" font-size="10.00">Gaussian.h</text>
</a>
</g>
</g>
<!-- Node28&#45;&gt;Node29 -->
<g id="edge43_Node000028_Node000029" class="edge">
<title>Node28&#45;&gt;Node29</title>
<g id="a_edge43_Node000028_Node000029"><a xlink:title=" ">
<path fill="none" stroke="#63b8ff" d="M1247.54,-395.75C1307.01,-383.8 1394.3,-365.72 1400.62,-361.25 1428.86,-341.29 1441.62,-329.7 1441.62,-295.12 1441.62,-295.12 1441.62,-295.12 1441.62,-179.62 1441.62,-142.07 1441.62,-97.4 1441.62,-77.97"/>
<polygon fill="#63b8ff" stroke="#63b8ff" points="1247.02,-392.28 1237.9,-397.68 1248.4,-399.15 1247.02,-392.28"/>
</a>
</g>
</g>
<!-- Node31 -->
<g id="Node000031" class="node">
<title>Node31</title>
<g id="a_Node000031"><a xlink:href="IncidentField_8cpp.html" target="_top" xlink:title="Minimal implementation pieces for IncidentField.">
<polygon fill="white" stroke="#666666" points="1337.88,-361.25 1239.38,-361.25 1239.38,-340.5 1337.88,-340.5 1337.88,-361.25"/>
<text xml:space="preserve" text-anchor="middle" x="1288.62" y="-347.75" font-family="Helvetica,sans-Serif" font-size="10.00">IncidentField.cpp</text>
</a>
</g>
</g>
<!-- Node28&#45;&gt;Node31 -->
<g id="edge47_Node000028_Node000031" class="edge">
<title>Node28&#45;&gt;Node31</title>
<g id="a_edge47_Node000028_Node000031"><a xlink:title=" ">
<path fill="none" stroke="#63b8ff" d="M1219.54,-391.28C1236.24,-381.75 1257.18,-369.81 1271.61,-361.58"/>
<polygon fill="#63b8ff" stroke="#63b8ff" points="1218.06,-388.09 1211.1,-396.09 1221.52,-394.17 1218.06,-388.09"/>
</a>
</g>
</g>
<!-- Node32 -->
<g id="Node000032" class="node">
<title>Node32</title>
<g id="a_Node000032"><a xlink:href="PlaneWave_8h.html" target="_top" xlink:title="Defines the PlaneWave class: representation of a plane‐wave incident field.">
<polygon fill="white" stroke="#666666" points="1228.12,-77.5 1149.12,-77.5 1149.12,-56.75 1228.12,-56.75 1228.12,-77.5"/>
<text xml:space="preserve" text-anchor="middle" x="1188.62" y="-64" font-family="Helvetica,sans-Serif" font-size="10.00">PlaneWave.h</text>
</a>
</g>
</g>
<!-- Node28&#45;&gt;Node32 -->
<g id="edge48_Node000028_Node000032" class="edge">
<title>Node28&#45;&gt;Node32</title>
<g id="a_edge48_Node000028_Node000032"><a xlink:title=" ">
<path fill="none" stroke="#63b8ff" d="M1247.61,-395.01C1301.26,-383.42 1375.43,-366.58 1379.62,-361.25 1433.94,-292.18 1385.66,-237.08 1328.62,-170.25 1292.69,-128.14 1236.09,-93.81 1207.09,-77.82"/>
<polygon fill="#63b8ff" stroke="#63b8ff" points="1247.03,-391.56 1237.99,-397.08 1248.5,-398.4 1247.03,-391.56"/>
</a>
</g>
</g>
<!-- Node28&#45;&gt;Node34 -->
<g id="edge53_Node000028_Node000034" class="edge">
<title>Node28&#45;&gt;Node34</title>
<g id="a_edge53_Node000028_Node000034"><a xlink:title=" ">
<path fill="none" stroke="#63b8ff" d="M1145.09,-393.93C1106.77,-383.7 1053.91,-369.58 1020.24,-360.59"/>
<polygon fill="#63b8ff" stroke="#63b8ff" points="1143.95,-397.25 1154.51,-396.45 1145.75,-390.48 1143.95,-397.25"/>
</a>
</g>
</g>
<!-- Node28&#45;&gt;Node36 -->
<g id="edge64_Node000028_Node000036" class="edge">
<title>Node28&#45;&gt;Node36</title>
<g id="a_edge64_Node000028_Node000036"><a xlink:title=" ">
<path fill="none" stroke="#63b8ff" d="M1178.65,-388.06C1172.65,-379.93 1165.65,-370.22 1159.62,-361.25 1137.03,-327.62 1136.35,-315.84 1111.62,-283.75 1101.42,-270.51 1087.93,-256.78 1078.81,-247.94"/>
<polygon fill="#63b8ff" stroke="#63b8ff" points="1175.65,-389.89 1184.43,-395.82 1181.26,-385.71 1175.65,-389.89"/>
</a>
</g>
</g>
<!-- Node29&#45;&gt;Node5 -->
<g id="edge44_Node000029_Node000005" class="edge">
<title>Node29&#45;&gt;Node5</title>
<g id="a_edge44_Node000029_Node000005"><a xlink:title=" ">
<path fill="none" stroke="#63b8ff" d="M1424.05,-48.3C1415.12,-39.25 1404.62,-28.61 1397.2,-21.08"/>
<polygon fill="#63b8ff" stroke="#63b8ff" points="1421.39,-50.6 1430.91,-55.26 1426.38,-45.68 1421.39,-50.6"/>
</a>
</g>
</g>
<!-- Node29&#45;&gt;Node10 -->
<g id="edge45_Node000029_Node000010" class="edge">
<title>Node29&#45;&gt;Node10</title>
<g id="a_edge45_Node000029_Node000010"><a xlink:title=" ">
<path fill="none" stroke="#63b8ff" d="M1395.03,-59.52C1326.2,-49.75 1197.14,-31.45 1119.53,-20.44"/>
<polygon fill="#63b8ff" stroke="#63b8ff" points="1394.46,-62.97 1404.85,-60.91 1395.44,-56.04 1394.46,-62.97"/>
</a>
</g>
</g>
<!-- Node30 -->
<g id="Node000030" class="node">
<title>Node30</title>
<g id="a_Node000030"><a xlink:href="Gaussian_8cpp.html" target="_top" xlink:title="Implementation of the paraxial Gaussian beam incident field.">
<polygon fill="white" stroke="#666666" points="1542.25,-20.75 1461,-20.75 1461,0 1542.25,0 1542.25,-20.75"/>
<text xml:space="preserve" text-anchor="middle" x="1501.62" y="-7.25" font-family="Helvetica,sans-Serif" font-size="10.00">Gaussian.cpp</text>
</a>
</g>
</g>
<!-- Node29&#45;&gt;Node30 -->
<g id="edge46_Node000029_Node000030" class="edge">
<title>Node29&#45;&gt;Node30</title>
<g id="a_edge46_Node000029_Node000030"><a xlink:title=" ">
<path fill="none" stroke="#63b8ff" d="M1460.85,-48.58C1470.84,-39.47 1482.66,-28.68 1490.99,-21.08"/>
<polygon fill="#63b8ff" stroke="#63b8ff" points="1458.5,-45.99 1453.47,-55.32 1463.22,-51.16 1458.5,-45.99"/>
</a>
</g>
</g>
<!-- Node32&#45;&gt;Node5 -->
<g id="edge49_Node000032_Node000005" class="edge">
<title>Node32&#45;&gt;Node5</title>
<g id="a_edge49_Node000032_Node000005"><a xlink:title=" ">
<path fill="none" stroke="#63b8ff" d="M1235.3,-53.28C1270.98,-43.47 1319.43,-30.14 1352.02,-21.17"/>
<polygon fill="#63b8ff" stroke="#63b8ff" points="1234.37,-49.91 1225.66,-55.94 1236.23,-56.66 1234.37,-49.91"/>
</a>
</g>
</g>
<!-- Node32&#45;&gt;Node8 -->
<g id="edge52_Node000032_Node000008" class="edge">
<title>Node32&#45;&gt;Node8</title>
<g id="a_edge52_Node000032_Node000008"><a xlink:title=" ">
<path fill="none" stroke="#63b8ff" d="M1137.52,-60.61C1034.62,-49.49 804.76,-24.67 716.79,-15.17"/>
<polygon fill="#63b8ff" stroke="#63b8ff" points="1137.02,-64.07 1147.34,-61.67 1137.77,-57.11 1137.02,-64.07"/>
</a>
</g>
</g>
<!-- Node32&#45;&gt;Node10 -->
<g id="edge50_Node000032_Node000010" class="edge">
<title>Node32&#45;&gt;Node10</title>
<g id="a_edge50_Node000032_Node000010"><a xlink:title=" ">
<path fill="none" stroke="#63b8ff" d="M1154.25,-51.97C1130.68,-42.27 1100.03,-29.66 1079.2,-21.08"/>
<polygon fill="#63b8ff" stroke="#63b8ff" points="1152.87,-55.19 1163.45,-55.76 1155.53,-48.72 1152.87,-55.19"/>
</a>
</g>
</g>
<!-- Node33 -->
<g id="Node000033" class="node">
<title>Node33</title>
<g id="a_Node000033"><a xlink:href="PlaneWave_8cpp.html" target="_top" xlink:title="Implementation for the PlaneWave class.">
<polygon fill="white" stroke="#666666" points="1227.75,-20.75 1137.5,-20.75 1137.5,0 1227.75,0 1227.75,-20.75"/>
<text xml:space="preserve" text-anchor="middle" x="1182.62" y="-7.25" font-family="Helvetica,sans-Serif" font-size="10.00">PlaneWave.cpp</text>
</a>
</g>
</g>
<!-- Node32&#45;&gt;Node33 -->
<g id="edge51_Node000032_Node000033" class="edge">
<title>Node32&#45;&gt;Node33</title>
<g id="a_edge51_Node000032_Node000033"><a xlink:title=" ">
<path fill="none" stroke="#63b8ff" d="M1186.33,-45.17C1185.42,-36.88 1184.42,-27.75 1183.69,-21.08"/>
<polygon fill="#63b8ff" stroke="#63b8ff" points="1182.82,-45.27 1187.39,-54.83 1189.78,-44.51 1182.82,-45.27"/>
</a>
</g>
</g>
<!-- Node34&#45;&gt;Node2 -->
<g id="edge54_Node000034_Node000002" class="edge">
<title>Node34&#45;&gt;Node2</title>
<g id="a_edge54_Node000034_Node000002"><a xlink:title=" ">
<path fill="none" stroke="#63b8ff" d="M955.74,-335.33C934.6,-325.68 907.44,-313.29 888.89,-304.83"/>
<polygon fill="#63b8ff" stroke="#63b8ff" points="954.24,-338.49 964.79,-339.46 957.15,-332.12 954.24,-338.49"/>
</a>
</g>
</g>
<!-- Node34&#45;&gt;Node17 -->
<g id="edge63_Node000034_Node000017" class="edge">
<title>Node34&#45;&gt;Node17</title>
<g id="a_edge63_Node000034_Node000017"><a xlink:title=" ">
<path fill="none" stroke="#63b8ff" d="M966.64,-332.79C958.79,-325.07 950.77,-315.27 946.62,-304.5 939.27,-285.38 947.23,-261.3 952.92,-248.11"/>
<polygon fill="#63b8ff" stroke="#63b8ff" points="964.03,-335.15 973.78,-339.27 968.73,-329.96 964.03,-335.15"/>
</a>
</g>
</g>
<!-- Node35 -->
<g id="Node000035" class="node">
<title>Node35</title>
<g id="a_Node000035"><a xlink:href="SIEForm_8cpp.html" target="_top" xlink:title="Implementation for the SIEForm class.">
<polygon fill="white" stroke="#666666" points="1031.62,-304.5 955.62,-304.5 955.62,-283.75 1031.62,-283.75 1031.62,-304.5"/>
<text xml:space="preserve" text-anchor="middle" x="993.62" y="-291" font-family="Helvetica,sans-Serif" font-size="10.00">SIEForm.cpp</text>
</a>
</g>
</g>
<!-- Node34&#45;&gt;Node35 -->
<g id="edge55_Node000034_Node000035" class="edge">
<title>Node34&#45;&gt;Node35</title>
<g id="a_edge55_Node000034_Node000035"><a xlink:title=" ">
<path fill="none" stroke="#63b8ff" d="M989.92,-328.92C990.83,-320.63 991.83,-311.5 992.56,-304.83"/>
<polygon fill="#63b8ff" stroke="#63b8ff" points="986.47,-328.26 988.86,-338.58 993.43,-329.02 986.47,-328.26"/>
</a>
</g>
</g>
<!-- Node34&#45;&gt;Node36 -->
<g id="edge56_Node000034_Node000036" class="edge">
<title>Node34&#45;&gt;Node36</title>
<g id="a_edge56_Node000034_Node000036"><a xlink:title=" ">
<path fill="none" stroke="#63b8ff" d="M1011.42,-333.38C1021.44,-325.53 1032.6,-315.46 1040.62,-304.5 1053.73,-286.59 1062.15,-261.62 1066.06,-248.06"/>
<polygon fill="#63b8ff" stroke="#63b8ff" points="1009.44,-330.49 1003.53,-339.28 1013.63,-336.1 1009.44,-330.49"/>
</a>
</g>
</g>
<!-- Node36&#45;&gt;Node5 -->
<g id="edge57_Node000036_Node000005" class="edge">
<title>Node36&#45;&gt;Node5</title>
<g id="a_edge57_Node000036_Node000005"><a xlink:title=" ">
<path fill="none" stroke="#63b8ff" d="M1131.48,-224.13C1159.61,-217.01 1192.49,-206.34 1219.62,-191 1284.95,-154.07 1295.99,-134.65 1344.62,-77.5 1360.42,-58.94 1375.04,-34.22 1382.48,-20.88"/>
<polygon fill="#63b8ff" stroke="#63b8ff" points="1130.91,-220.67 1122.02,-226.43 1132.56,-227.47 1130.91,-220.67"/>
</a>
</g>
</g>
<!-- Node36&#45;&gt;Node10 -->
<g id="edge58_Node000036_Node000010" class="edge">
<title>Node36&#45;&gt;Node10</title>
<g id="a_edge58_Node000036_Node000010"><a xlink:title=" ">
<path fill="none" stroke="#63b8ff" d="M1067.42,-215.51C1064.69,-168.29 1058.13,-54.78 1056.18,-21.01"/>
<polygon fill="#63b8ff" stroke="#63b8ff" points="1063.91,-215.41 1067.98,-225.2 1070.9,-215.01 1063.91,-215.41"/>
</a>
</g>
</g>
<!-- Node36&#45;&gt;Node18 -->
<g id="edge60_Node000036_Node000018" class="edge">
<title>Node36&#45;&gt;Node18</title>
<g id="a_edge60_Node000036_Node000018"><a xlink:title=" ">
<path fill="none" stroke="#63b8ff" d="M1007.08,-224.28C961.18,-215.22 896.95,-202.47 840.62,-191 837.65,-190.39 834.57,-189.76 831.48,-189.13"/>
<polygon fill="#63b8ff" stroke="#63b8ff" points="1006.36,-227.71 1016.85,-226.21 1007.72,-220.84 1006.36,-227.71"/>
</a>
</g>
</g>
<!-- Node36&#45;&gt;Node19 -->
<g id="edge61_Node000036_Node000019" class="edge">
<title>Node36&#45;&gt;Node19</title>
<g id="a_edge61_Node000036_Node000019"><a xlink:title=" ">
<path fill="none" stroke="#63b8ff" d="M1023.99,-223.44C989.08,-213.33 941.45,-199.53 910.62,-190.6"/>
<polygon fill="#63b8ff" stroke="#63b8ff" points="1022.8,-226.74 1033.38,-226.17 1024.75,-220.02 1022.8,-226.74"/>
</a>
</g>
</g>
<!-- Node36&#45;&gt;Node20 -->
<g id="edge62_Node000036_Node000020" class="edge">
<title>Node36&#45;&gt;Node20</title>
<g id="a_edge62_Node000036_Node000020"><a xlink:title=" ">
<path fill="none" stroke="#63b8ff" d="M1048.46,-219.39C1037.5,-210.16 1024.36,-199.09 1015.15,-191.33"/>
<polygon fill="#63b8ff" stroke="#63b8ff" points="1045.94,-221.85 1055.85,-225.61 1050.45,-216.49 1045.94,-221.85"/>
</a>
</g>
</g>
<!-- Node37 -->
<g id="Node000037" class="node">
<title>Node37</title>
<g id="a_Node000037"><a xlink:href="SIEFormPMCHW_8cpp.html" target="_top" xlink:title="Implementation for the SIEFormPMCHW class.">
<polygon fill="white" stroke="#666666" points="1210.75,-191 1096.5,-191 1096.5,-170.25 1210.75,-170.25 1210.75,-191"/>
<text xml:space="preserve" text-anchor="middle" x="1153.62" y="-177.5" font-family="Helvetica,sans-Serif" font-size="10.00">SIEFormPMCHW.cpp</text>
</a>
</g>
</g>
<!-- Node36&#45;&gt;Node37 -->
<g id="edge59_Node000036_Node000037" class="edge">
<title>Node36&#45;&gt;Node37</title>
<g id="a_edge59_Node000036_Node000037"><a xlink:title=" ">
<path fill="none" stroke="#63b8ff" d="M1093.3,-220.48C1107.94,-211.05 1126.03,-199.4 1138.56,-191.33"/>
<polygon fill="#63b8ff" stroke="#63b8ff" points="1091.61,-217.41 1085.09,-225.77 1095.4,-223.29 1091.61,-217.41"/>
</a>
</g>
</g>
</g>
</svg>
