<?xml version="1.0" encoding="UTF-8" standalone="no"?>
<!DOCTYPE svg PUBLIC "-//W3C//DTD SVG 1.1//EN"
 "http://www.w3.org/Graphics/SVG/1.1/DTD/svg11.dtd">
<!-- Generated by graphviz version 13.1.2 (20250809.0930)
 -->
<!-- Title: GreenF.cpp Pages: 1 -->
<svg width="758pt" height="426pt"
 viewBox="0.00 0.00 758.00 426.00" xmlns="http://www.w3.org/2000/svg" xmlns:xlink="http://www.w3.org/1999/xlink">
<g id="graph0" class="graph" transform="scale(1 1) rotate(0) translate(4 422)">
<title>GreenF.cpp</title>
<!-- Node1 -->
<g id="Node000001" class="node">
<title>Node1</title>
<g id="a_Node000001"><a xlink:title="Implementation of the GreenF base class.">
<polygon fill="#999999" stroke="#666666" points="309,-418 239,-418 239,-397.25 309,-397.25 309,-418"/>
<text xml:space="preserve" text-anchor="middle" x="274" y="-404.5" font-family="Helvetica,sans-Serif" font-size="10.00">GreenF.cpp</text>
</a>
</g>
</g>
<!-- Node2 -->
<g id="Node000002" class="node">
<title>Node2</title>
<g id="a_Node000002"><a xlink:href="GreenF_8h.html" target="_top" xlink:title="Abstract base class for electromagnetic Green&#39;s functions.">
<polygon fill="white" stroke="#666666" points="303.38,-361.25 244.62,-361.25 244.62,-340.5 303.38,-340.5 303.38,-361.25"/>
<text xml:space="preserve" text-anchor="middle" x="274" y="-347.75" font-family="Helvetica,sans-Serif" font-size="10.00">GreenF.h</text>
</a>
</g>
</g>
<!-- Node1&#45;&gt;Node2 -->
<g id="edge1_Node000001_Node000002" class="edge">
<title>Node1&#45;&gt;Node2</title>
<g id="a_edge1_Node000001_Node000002"><a xlink:title=" ">
<path fill="none" stroke="#63b8ff" d="M274,-396.84C274,-390.22 274,-381.22 274,-373.02"/>
<polygon fill="#63b8ff" stroke="#63b8ff" points="277.5,-373.09 274,-363.09 270.5,-373.09 277.5,-373.09"/>
</a>
</g>
</g>
<!-- Node3 -->
<g id="Node000003" class="node">
<title>Node3</title>
<g id="a_Node000003"><a xlink:title=" ">
<polygon fill="#e0e0e0" stroke="#999999" points="204.5,-20.75 131.5,-20.75 131.5,0 204.5,0 204.5,-20.75"/>
<text xml:space="preserve" text-anchor="middle" x="168" y="-7.25" font-family="Helvetica,sans-Serif" font-size="10.00">blitz/array.h</text>
</a>
</g>
</g>
<!-- Node2&#45;&gt;Node3 -->
<g id="edge2_Node000002_Node000003" class="edge">
<title>Node2&#45;&gt;Node3</title>
<g id="a_edge2_Node000002_Node000003"><a xlink:title=" ">
<path fill="none" stroke="#63b8ff" d="M244.41,-346.41C206.65,-341.17 139.98,-329.09 88,-304.5 43.78,-283.58 0,-287.3 0,-238.38 0,-238.38 0,-238.38 0,-122.88 0,-64.78 70.6,-35.15 120.26,-21.49"/>
<polygon fill="#63b8ff" stroke="#63b8ff" points="120.87,-24.95 129.67,-19.05 119.11,-18.18 120.87,-24.95"/>
</a>
</g>
</g>
<!-- Node4 -->
<g id="Node000004" class="node">
<title>Node4</title>
<g id="a_Node000004"><a xlink:title=" ">
<polygon fill="#e0e0e0" stroke="#999999" points="74.38,-247.75 27.62,-247.75 27.62,-227 74.38,-227 74.38,-247.75"/>
<text xml:space="preserve" text-anchor="middle" x="51" y="-234.25" font-family="Helvetica,sans-Serif" font-size="10.00">cmath</text>
</a>
</g>
</g>
<!-- Node2&#45;&gt;Node4 -->
<g id="edge3_Node000002_Node000004" class="edge">
<title>Node2&#45;&gt;Node4</title>
<g id="a_edge3_Node000002_Node000004"><a xlink:title=" ">
<path fill="none" stroke="#63b8ff" d="M244.32,-345.59C211.8,-339.92 158.96,-327.81 119,-304.5 97.76,-292.11 78.17,-271.68 65.53,-256.81"/>
<polygon fill="#63b8ff" stroke="#63b8ff" points="68.28,-254.65 59.23,-249.14 62.87,-259.09 68.28,-254.65"/>
</a>
</g>
</g>
<!-- Node5 -->
<g id="Node000005" class="node">
<title>Node5</title>
<g id="a_Node000005"><a xlink:title=" ">
<polygon fill="#e0e0e0" stroke="#999999" points="148.25,-134.25 103.75,-134.25 103.75,-113.5 148.25,-113.5 148.25,-134.25"/>
<text xml:space="preserve" text-anchor="middle" x="126" y="-120.75" font-family="Helvetica,sans-Serif" font-size="10.00">utility</text>
</a>
</g>
</g>
<!-- Node2&#45;&gt;Node5 -->
<g id="edge4_Node000002_Node000005" class="edge">
<title>Node2&#45;&gt;Node5</title>
<g id="a_edge4_Node000002_Node000005"><a xlink:title=" ">
<path fill="none" stroke="#63b8ff" d="M270.6,-340.13C262.88,-318.67 242.69,-266.12 217,-227 195.63,-194.47 164.33,-161.73 144.56,-142.39"/>
<polygon fill="#63b8ff" stroke="#63b8ff" points="147.09,-139.96 137.46,-135.54 142.23,-145 147.09,-139.96"/>
</a>
</g>
</g>
<!-- Node6 -->
<g id="Node000006" class="node">
<title>Node6</title>
<g id="a_Node000006"><a xlink:href="GaussQuad_8h.html" target="_top" xlink:title="Gaussian quadrature helpers for Green&#39;s functions and incident fields.">
<polygon fill="white" stroke="#666666" points="208.25,-304.5 127.75,-304.5 127.75,-283.75 208.25,-283.75 208.25,-304.5"/>
<text xml:space="preserve" text-anchor="middle" x="168" y="-291" font-family="Helvetica,sans-Serif" font-size="10.00">GaussQuad.h</text>
</a>
</g>
</g>
<!-- Node2&#45;&gt;Node6 -->
<g id="edge5_Node000002_Node000006" class="edge">
<title>Node2&#45;&gt;Node6</title>
<g id="a_edge5_Node000002_Node000006"><a xlink:title=" ">
<path fill="none" stroke="#63b8ff" d="M255.05,-340.09C238.92,-331.76 215.5,-319.66 197.01,-310.11"/>
<polygon fill="#63b8ff" stroke="#63b8ff" points="198.62,-307 188.13,-305.52 195.41,-313.22 198.62,-307"/>
</a>
</g>
</g>
<!-- Node8 -->
<g id="Node000008" class="node">
<title>Node8</title>
<g id="a_Node000008"><a xlink:href="RWGFun_8h.html" target="_top" xlink:title="Header for the RWGFun class.">
<polygon fill="white" stroke="#666666" points="406.12,-247.75 339.88,-247.75 339.88,-227 406.12,-227 406.12,-247.75"/>
<text xml:space="preserve" text-anchor="middle" x="373" y="-234.25" font-family="Helvetica,sans-Serif" font-size="10.00">RWGFun.h</text>
</a>
</g>
</g>
<!-- Node2&#45;&gt;Node8 -->
<g id="edge35_Node000002_Node000008" class="edge">
<title>Node2&#45;&gt;Node8</title>
<g id="a_edge35_Node000002_Node000008"><a xlink:title=" ">
<path fill="none" stroke="#63b8ff" d="M282.22,-340.42C293.42,-327.55 314.13,-303.82 332,-283.75 340,-274.76 348.96,-264.84 356.45,-256.57"/>
<polygon fill="#63b8ff" stroke="#63b8ff" points="359.01,-258.95 363.14,-249.19 353.83,-254.25 359.01,-258.95"/>
</a>
</g>
</g>
<!-- Node16 -->
<g id="Node000016" class="node">
<title>Node16</title>
<g id="a_Node000016"><a xlink:href="globals_8h.html" target="_top" xlink:title="Global numerical constants, fundamental types, and simple macros.">
<polygon fill="white" stroke="#666666" points="578.12,-77.5 517.88,-77.5 517.88,-56.75 578.12,-56.75 578.12,-77.5"/>
<text xml:space="preserve" text-anchor="middle" x="548" y="-64" font-family="Helvetica,sans-Serif" font-size="10.00">globals.h</text>
</a>
</g>
</g>
<!-- Node2&#45;&gt;Node16 -->
<g id="edge41_Node000002_Node000016" class="edge">
<title>Node2&#45;&gt;Node16</title>
<g id="a_edge41_Node000002_Node000016"><a xlink:title=" ">
<path fill="none" stroke="#63b8ff" d="M303.84,-346.85C388.48,-337.47 624,-305.34 624,-238.38 624,-238.38 624,-238.38 624,-179.62 624,-140.71 592,-105.35 569.53,-85.32"/>
<polygon fill="#63b8ff" stroke="#63b8ff" points="571.92,-82.76 562.04,-78.92 567.37,-88.08 571.92,-82.76"/>
</a>
</g>
</g>
<!-- Node20 -->
<g id="Node000020" class="node">
<title>Node20</title>
<g id="a_Node000020"><a xlink:href="mathFunctions_8h.html" target="_top" xlink:title="Header file of the class that provides auxiliary mathematical functionalities for the SIE solver.">
<polygon fill="white" stroke="#666666" points="749.5,-134.25 652.5,-134.25 652.5,-113.5 749.5,-113.5 749.5,-134.25"/>
<text xml:space="preserve" text-anchor="middle" x="701" y="-120.75" font-family="Helvetica,sans-Serif" font-size="10.00">mathFunctions.h</text>
</a>
</g>
</g>
<!-- Node2&#45;&gt;Node20 -->
<g id="edge42_Node000002_Node000020" class="edge">
<title>Node2&#45;&gt;Node20</title>
<g id="a_edge42_Node000002_Node000020"><a xlink:title=" ">
<path fill="none" stroke="#63b8ff" d="M303.82,-350.07C381.36,-349.99 586.82,-345.78 638,-304.5 687.12,-264.88 698.01,-184.43 700.38,-146.1"/>
<polygon fill="#63b8ff" stroke="#63b8ff" points="703.87,-146.3 700.83,-136.15 696.88,-145.98 703.87,-146.3"/>
</a>
</g>
</g>
<!-- Node23 -->
<g id="Node000023" class="node">
<title>Node23</title>
<g id="a_Node000023"><a xlink:href="SingSub_8h.html" target="_top" xlink:title="Exact subtractions for singular/near&#45;singular triangle integrals.">
<polygon fill="white" stroke="#666666" points="405,-304.5 341,-304.5 341,-283.75 405,-283.75 405,-304.5"/>
<text xml:space="preserve" text-anchor="middle" x="373" y="-291" font-family="Helvetica,sans-Serif" font-size="10.00">SingSub.h</text>
</a>
</g>
</g>
<!-- Node2&#45;&gt;Node23 -->
<g id="edge36_Node000002_Node000023" class="edge">
<title>Node2&#45;&gt;Node23</title>
<g id="a_edge36_Node000002_Node000023"><a xlink:title=" ">
<path fill="none" stroke="#63b8ff" d="M291.7,-340.09C306.62,-331.83 328.23,-319.88 345.42,-310.38"/>
<polygon fill="#63b8ff" stroke="#63b8ff" points="347.07,-313.46 354.13,-305.56 343.68,-307.34 347.07,-313.46"/>
</a>
</g>
</g>
<!-- Node6&#45;&gt;Node4 -->
<g id="edge6_Node000006_Node000004" class="edge">
<title>Node6&#45;&gt;Node4</title>
<g id="a_edge6_Node000006_Node000004"><a xlink:title=" ">
<path fill="none" stroke="#63b8ff" d="M147.08,-283.34C129.03,-274.89 102.7,-262.57 82.16,-252.96"/>
<polygon fill="#63b8ff" stroke="#63b8ff" points="83.65,-249.79 73.11,-248.72 80.68,-256.13 83.65,-249.79"/>
</a>
</g>
</g>
<!-- Node7 -->
<g id="Node000007" class="node">
<title>Node7</title>
<g id="a_Node000007"><a xlink:title=" ">
<polygon fill="#e0e0e0" stroke="#999999" points="111.75,-77.5 52.25,-77.5 52.25,-56.75 111.75,-56.75 111.75,-77.5"/>
<text xml:space="preserve" text-anchor="middle" x="82" y="-64" font-family="Helvetica,sans-Serif" font-size="10.00">iostream</text>
</a>
</g>
</g>
<!-- Node6&#45;&gt;Node7 -->
<g id="edge7_Node000006_Node000007" class="edge">
<title>Node6&#45;&gt;Node7</title>
<g id="a_edge7_Node000006_Node000007"><a xlink:title=" ">
<path fill="none" stroke="#63b8ff" d="M154.37,-283.52C143.67,-275.25 129.25,-262.37 121,-247.75 91.65,-195.78 84.37,-123.87 82.58,-88.9"/>
<polygon fill="#63b8ff" stroke="#63b8ff" points="86.09,-89.15 82.19,-79.3 79.09,-89.43 86.09,-89.15"/>
</a>
</g>
</g>
<!-- Node6&#45;&gt;Node8 -->
<g id="edge8_Node000006_Node000008" class="edge">
<title>Node6&#45;&gt;Node8</title>
<g id="a_edge8_Node000006_Node000008"><a xlink:title=" ">
<path fill="none" stroke="#63b8ff" d="M204.65,-283.34C239.3,-274.08 291.36,-260.18 328.41,-250.28"/>
<polygon fill="#63b8ff" stroke="#63b8ff" points="329.16,-253.71 337.92,-247.74 327.36,-246.94 329.16,-253.71"/>
</a>
</g>
</g>
<!-- Node6&#45;&gt;Node16 -->
<g id="edge33_Node000006_Node000016" class="edge">
<title>Node6&#45;&gt;Node16</title>
<g id="a_edge33_Node000006_Node000016"><a xlink:title=" ">
<path fill="none" stroke="#63b8ff" d="M193.14,-283.33C236.15,-266.28 326.25,-229.29 399,-191 441.51,-168.62 454.44,-165.42 491,-134.25 507.52,-120.16 523.4,-101.14 534.18,-87.11"/>
<polygon fill="#63b8ff" stroke="#63b8ff" points="536.96,-89.24 540.16,-79.14 531.36,-85.04 536.96,-89.24"/>
</a>
</g>
</g>
<!-- Node22 -->
<g id="Node000022" class="node">
<title>Node22</title>
<g id="a_Node000022"><a xlink:href="quadrature_8h.html" target="_top" xlink:title="Declarations of Dunavant (triangle) and Gauss–Legendre (1D) quadrature rules.">
<polygon fill="white" stroke="#666666" points="208.12,-247.75 129.88,-247.75 129.88,-227 208.12,-227 208.12,-247.75"/>
<text xml:space="preserve" text-anchor="middle" x="169" y="-234.25" font-family="Helvetica,sans-Serif" font-size="10.00">quadrature.h</text>
</a>
</g>
</g>
<!-- Node6&#45;&gt;Node22 -->
<g id="edge34_Node000006_Node000022" class="edge">
<title>Node6&#45;&gt;Node22</title>
<g id="a_edge34_Node000006_Node000022"><a xlink:title=" ">
<path fill="none" stroke="#63b8ff" d="M168.18,-283.34C168.3,-276.72 168.46,-267.72 168.61,-259.52"/>
<polygon fill="#63b8ff" stroke="#63b8ff" points="172.11,-259.65 168.8,-249.59 165.11,-259.53 172.11,-259.65"/>
</a>
</g>
</g>
<!-- Node9 -->
<g id="Node000009" class="node">
<title>Node9</title>
<g id="a_Node000009"><a xlink:href="SurfaceMesh_8h.html" target="_top" xlink:title="Declaration of the SurfaceMesh class and mesh edge struct.">
<polygon fill="white" stroke="#666666" points="390,-191 302,-191 302,-170.25 390,-170.25 390,-191"/>
<text xml:space="preserve" text-anchor="middle" x="346" y="-177.5" font-family="Helvetica,sans-Serif" font-size="10.00">SurfaceMesh.h</text>
</a>
</g>
</g>
<!-- Node8&#45;&gt;Node9 -->
<g id="edge9_Node000008_Node000009" class="edge">
<title>Node8&#45;&gt;Node9</title>
<g id="a_edge9_Node000008_Node000009"><a xlink:title=" ">
<path fill="none" stroke="#63b8ff" d="M368.17,-226.59C364.76,-219.66 360.05,-210.12 355.86,-201.61"/>
<polygon fill="#63b8ff" stroke="#63b8ff" points="359.02,-200.11 351.45,-192.69 352.74,-203.2 359.02,-200.11"/>
</a>
</g>
</g>
<!-- Node15 -->
<g id="Node000015" class="node">
<title>Node15</title>
<g id="a_Node000015"><a xlink:href="Triangle_8h.html" target="_top" xlink:title="Declaration of the Triangle class (surface element with cached geometry).">
<polygon fill="white" stroke="#666666" points="481.62,-134.25 418.38,-134.25 418.38,-113.5 481.62,-113.5 481.62,-134.25"/>
<text xml:space="preserve" text-anchor="middle" x="450" y="-120.75" font-family="Helvetica,sans-Serif" font-size="10.00">Triangle.h</text>
</a>
</g>
</g>
<!-- Node8&#45;&gt;Node15 -->
<g id="edge31_Node000008_Node000015" class="edge">
<title>Node8&#45;&gt;Node15</title>
<g id="a_edge31_Node000008_Node000015"><a xlink:title=" ">
<path fill="none" stroke="#63b8ff" d="M379.56,-226.87C392.23,-208.53 420.25,-167.95 436.88,-143.87"/>
<polygon fill="#63b8ff" stroke="#63b8ff" points="439.57,-146.14 442.37,-135.92 433.81,-142.16 439.57,-146.14"/>
</a>
</g>
</g>
<!-- Node8&#45;&gt;Node16 -->
<g id="edge32_Node000008_Node000016" class="edge">
<title>Node8&#45;&gt;Node16</title>
<g id="a_edge32_Node000008_Node000016"><a xlink:title=" ">
<path fill="none" stroke="#63b8ff" d="M395.76,-226.6C428.55,-211.41 488.98,-179.18 524,-134.25 534.45,-120.84 540.64,-102.46 544.1,-88.48"/>
<polygon fill="#63b8ff" stroke="#63b8ff" points="547.45,-89.56 546.16,-79.04 540.61,-88.07 547.45,-89.56"/>
</a>
</g>
</g>
<!-- Node9&#45;&gt;Node5 -->
<g id="edge11_Node000009_Node000005" class="edge">
<title>Node9&#45;&gt;Node5</title>
<g id="a_edge11_Node000009_Node000005"><a xlink:title=" ">
<path fill="none" stroke="#63b8ff" d="M301.9,-169.8C265.88,-161.6 213.41,-149.28 159.45,-134.81"/>
<polygon fill="#63b8ff" stroke="#63b8ff" points="160.67,-131.52 150.1,-132.28 158.84,-138.27 160.67,-131.52"/>
</a>
</g>
</g>
<!-- Node10 -->
<g id="Node000010" class="node">
<title>Node10</title>
<g id="a_Node000010"><a xlink:title=" ">
<polygon fill="#e0e0e0" stroke="#999999" points="361.5,-134.25 330.5,-134.25 330.5,-113.5 361.5,-113.5 361.5,-134.25"/>
<text xml:space="preserve" text-anchor="middle" x="346" y="-120.75" font-family="Helvetica,sans-Serif" font-size="10.00">set</text>
</a>
</g>
</g>
<!-- Node9&#45;&gt;Node10 -->
<g id="edge10_Node000009_Node000010" class="edge">
<title>Node9&#45;&gt;Node10</title>
<g id="a_edge10_Node000009_Node000010"><a xlink:title=" ">
<path fill="none" stroke="#63b8ff" d="M346,-169.84C346,-163.22 346,-154.22 346,-146.02"/>
<polygon fill="#63b8ff" stroke="#63b8ff" points="349.5,-146.09 346,-136.09 342.5,-146.09 349.5,-146.09"/>
</a>
</g>
</g>
<!-- Node11 -->
<g id="Node000011" class="node">
<title>Node11</title>
<g id="a_Node000011"><a xlink:title=" ">
<polygon fill="#e0e0e0" stroke="#999999" points="325.38,-77.5 278.62,-77.5 278.62,-56.75 325.38,-56.75 325.38,-77.5"/>
<text xml:space="preserve" text-anchor="middle" x="302" y="-64" font-family="Helvetica,sans-Serif" font-size="10.00">vector</text>
</a>
</g>
</g>
<!-- Node9&#45;&gt;Node11 -->
<g id="edge12_Node000009_Node000011" class="edge">
<title>Node9&#45;&gt;Node11</title>
<g id="a_edge12_Node000009_Node000011"><a xlink:title=" ">
<path fill="none" stroke="#63b8ff" d="M340.09,-169.8C334.84,-160.78 327.22,-146.94 322,-134.25 315.85,-119.3 310.64,-101.77 307.07,-88.52"/>
<polygon fill="#63b8ff" stroke="#63b8ff" points="310.56,-88.01 304.67,-79.21 303.78,-89.77 310.56,-88.01"/>
</a>
</g>
</g>
<!-- Node12 -->
<g id="Node000012" class="node">
<title>Node12</title>
<g id="a_Node000012"><a xlink:href="JobParser_8h.html" target="_top" xlink:title="Lightweight XML&#45;like tag parser for the solver job file.">
<polygon fill="white" stroke="#666666" points="235.62,-134.25 166.38,-134.25 166.38,-113.5 235.62,-113.5 235.62,-134.25"/>
<text xml:space="preserve" text-anchor="middle" x="201" y="-120.75" font-family="Helvetica,sans-Serif" font-size="10.00">JobParser.h</text>
</a>
</g>
</g>
<!-- Node9&#45;&gt;Node12 -->
<g id="edge13_Node000009_Node000012" class="edge">
<title>Node9&#45;&gt;Node12</title>
<g id="a_edge13_Node000009_Node000012"><a xlink:title=" ">
<path fill="none" stroke="#63b8ff" d="M320.08,-169.84C296.98,-161.12 262.96,-148.27 237.18,-138.54"/>
<polygon fill="#63b8ff" stroke="#63b8ff" points="238.71,-135.37 228.11,-135.11 236.23,-141.92 238.71,-135.37"/>
</a>
</g>
</g>
<!-- Node9&#45;&gt;Node15 -->
<g id="edge18_Node000009_Node000015" class="edge">
<title>Node9&#45;&gt;Node15</title>
<g id="a_edge18_Node000009_Node000015"><a xlink:title=" ">
<path fill="none" stroke="#63b8ff" d="M364.59,-169.84C380.42,-161.51 403.4,-149.41 421.54,-139.86"/>
<polygon fill="#63b8ff" stroke="#63b8ff" points="423.01,-143.04 430.23,-135.28 419.75,-136.84 423.01,-143.04"/>
</a>
</g>
</g>
<!-- Node9&#45;&gt;Node16 -->
<g id="edge25_Node000009_Node000016" class="edge">
<title>Node9&#45;&gt;Node16</title>
<g id="a_edge25_Node000009_Node000016"><a xlink:title=" ">
<path fill="none" stroke="#63b8ff" d="M352.63,-170.1C363.05,-155.82 384.59,-128.89 409,-113.5 438.95,-94.61 477.53,-82.84 506.44,-76.03"/>
<polygon fill="#63b8ff" stroke="#63b8ff" points="506.93,-79.51 515.92,-73.91 505.4,-72.68 506.93,-79.51"/>
</a>
</g>
</g>
<!-- Node9&#45;&gt;Node20 -->
<g id="edge26_Node000009_Node000020" class="edge">
<title>Node9&#45;&gt;Node20</title>
<g id="a_edge26_Node000009_Node000020"><a xlink:title=" ">
<path fill="none" stroke="#63b8ff" d="M390.24,-172.8C453.58,-163.03 570.27,-145.04 641.23,-134.09"/>
<polygon fill="#63b8ff" stroke="#63b8ff" points="641.37,-137.61 650.71,-132.63 640.3,-130.7 641.37,-137.61"/>
</a>
</g>
</g>
<!-- Node12&#45;&gt;Node7 -->
<g id="edge15_Node000012_Node000007" class="edge">
<title>Node12&#45;&gt;Node7</title>
<g id="a_edge15_Node000012_Node000007"><a xlink:title=" ">
<path fill="none" stroke="#63b8ff" d="M179.73,-113.09C161.28,-104.6 134.34,-92.2 113.41,-82.58"/>
<polygon fill="#63b8ff" stroke="#63b8ff" points="115.01,-79.46 104.47,-78.46 112.09,-85.82 115.01,-79.46"/>
</a>
</g>
</g>
<!-- Node12&#45;&gt;Node11 -->
<g id="edge17_Node000012_Node000011" class="edge">
<title>Node12&#45;&gt;Node11</title>
<g id="a_edge17_Node000012_Node000011"><a xlink:title=" ">
<path fill="none" stroke="#63b8ff" d="M219.06,-113.09C234.42,-104.76 256.74,-92.66 274.36,-83.11"/>
<polygon fill="#63b8ff" stroke="#63b8ff" points="275.65,-86.39 282.77,-78.55 272.31,-80.24 275.65,-86.39"/>
</a>
</g>
</g>
<!-- Node13 -->
<g id="Node000013" class="node">
<title>Node13</title>
<g id="a_Node000013"><a xlink:title=" ">
<polygon fill="#e0e0e0" stroke="#999999" points="194.12,-77.5 139.88,-77.5 139.88,-56.75 194.12,-56.75 194.12,-77.5"/>
<text xml:space="preserve" text-anchor="middle" x="167" y="-64" font-family="Helvetica,sans-Serif" font-size="10.00">fstream</text>
</a>
</g>
</g>
<!-- Node12&#45;&gt;Node13 -->
<g id="edge14_Node000012_Node000013" class="edge">
<title>Node12&#45;&gt;Node13</title>
<g id="a_edge14_Node000012_Node000013"><a xlink:title=" ">
<path fill="none" stroke="#63b8ff" d="M194.92,-113.09C190.52,-106 184.43,-96.19 179.06,-87.54"/>
<polygon fill="#63b8ff" stroke="#63b8ff" points="182.07,-85.76 173.82,-79.11 176.13,-89.46 182.07,-85.76"/>
</a>
</g>
</g>
<!-- Node14 -->
<g id="Node000014" class="node">
<title>Node14</title>
<g id="a_Node000014"><a xlink:title=" ">
<polygon fill="#e0e0e0" stroke="#999999" points="255.88,-77.5 212.12,-77.5 212.12,-56.75 255.88,-56.75 255.88,-77.5"/>
<text xml:space="preserve" text-anchor="middle" x="234" y="-64" font-family="Helvetica,sans-Serif" font-size="10.00">string</text>
</a>
</g>
</g>
<!-- Node12&#45;&gt;Node14 -->
<g id="edge16_Node000012_Node000014" class="edge">
<title>Node12&#45;&gt;Node14</title>
<g id="a_edge16_Node000012_Node000014"><a xlink:title=" ">
<path fill="none" stroke="#63b8ff" d="M206.9,-113.09C211.17,-106 217.08,-96.19 222.3,-87.54"/>
<polygon fill="#63b8ff" stroke="#63b8ff" points="225.21,-89.5 227.37,-79.12 219.21,-85.88 225.21,-89.5"/>
</a>
</g>
</g>
<!-- Node15&#45;&gt;Node11 -->
<g id="edge19_Node000015_Node000011" class="edge">
<title>Node15&#45;&gt;Node11</title>
<g id="a_edge19_Node000015_Node000011"><a xlink:title=" ">
<path fill="none" stroke="#63b8ff" d="M423.54,-113.09C399.24,-104.1 363.08,-90.72 336.52,-80.9"/>
<polygon fill="#63b8ff" stroke="#63b8ff" points="337.8,-77.64 327.21,-77.45 335.37,-84.2 337.8,-77.64"/>
</a>
</g>
</g>
<!-- Node15&#45;&gt;Node16 -->
<g id="edge20_Node000015_Node000016" class="edge">
<title>Node15&#45;&gt;Node16</title>
<g id="a_edge20_Node000015_Node000016"><a xlink:title=" ">
<path fill="none" stroke="#63b8ff" d="M467.52,-113.09C482.29,-104.83 503.68,-92.88 520.7,-83.38"/>
<polygon fill="#63b8ff" stroke="#63b8ff" points="522.29,-86.5 529.31,-78.57 518.87,-80.39 522.29,-86.5"/>
</a>
</g>
</g>
<!-- Node16&#45;&gt;Node3 -->
<g id="edge21_Node000016_Node000003" class="edge">
<title>Node16&#45;&gt;Node3</title>
<g id="a_edge21_Node000016_Node000003"><a xlink:title=" ">
<path fill="none" stroke="#63b8ff" d="M517.55,-61.74C451.66,-52.24 295.44,-29.74 216.07,-18.3"/>
<polygon fill="#63b8ff" stroke="#63b8ff" points="216.83,-14.87 206.44,-16.91 215.84,-21.8 216.83,-14.87"/>
</a>
</g>
</g>
<!-- Node17 -->
<g id="Node000017" class="node">
<title>Node17</title>
<g id="a_Node000017"><a xlink:title=" ">
<polygon fill="#e0e0e0" stroke="#999999" points="482.5,-20.75 391.5,-20.75 391.5,0 482.5,0 482.5,-20.75"/>
<text xml:space="preserve" text-anchor="middle" x="437" y="-7.25" font-family="Helvetica,sans-Serif" font-size="10.00">blitz/tinyvec2.h</text>
</a>
</g>
</g>
<!-- Node16&#45;&gt;Node17 -->
<g id="edge22_Node000016_Node000017" class="edge">
<title>Node16&#45;&gt;Node17</title>
<g id="a_edge22_Node000016_Node000017"><a xlink:title=" ">
<path fill="none" stroke="#63b8ff" d="M528.16,-56.34C511.11,-47.93 486.28,-35.68 466.84,-26.09"/>
<polygon fill="#63b8ff" stroke="#63b8ff" points="468.55,-23.03 458.03,-21.75 465.45,-29.31 468.55,-23.03"/>
</a>
</g>
</g>
<!-- Node18 -->
<g id="Node000018" class="node">
<title>Node18</title>
<g id="a_Node000018"><a xlink:title=" ">
<polygon fill="#e0e0e0" stroke="#999999" points="597.12,-20.75 500.88,-20.75 500.88,0 597.12,0 597.12,-20.75"/>
<text xml:space="preserve" text-anchor="middle" x="549" y="-7.25" font-family="Helvetica,sans-Serif" font-size="10.00">blitz/tvecglobs.h</text>
</a>
</g>
</g>
<!-- Node16&#45;&gt;Node18 -->
<g id="edge23_Node000016_Node000018" class="edge">
<title>Node16&#45;&gt;Node18</title>
<g id="a_edge23_Node000016_Node000018"><a xlink:title=" ">
<path fill="none" stroke="#63b8ff" d="M548.18,-56.34C548.3,-49.72 548.46,-40.72 548.61,-32.52"/>
<polygon fill="#63b8ff" stroke="#63b8ff" points="552.11,-32.65 548.8,-22.59 545.11,-32.53 552.11,-32.65"/>
</a>
</g>
</g>
<!-- Node19 -->
<g id="Node000019" class="node">
<title>Node19</title>
<g id="a_Node000019"><a xlink:title=" ">
<polygon fill="#e0e0e0" stroke="#999999" points="675,-20.75 617,-20.75 617,0 675,0 675,-20.75"/>
<text xml:space="preserve" text-anchor="middle" x="646" y="-7.25" font-family="Helvetica,sans-Serif" font-size="10.00">complex</text>
</a>
</g>
</g>
<!-- Node16&#45;&gt;Node19 -->
<g id="edge24_Node000016_Node000019" class="edge">
<title>Node16&#45;&gt;Node19</title>
<g id="a_edge24_Node000016_Node000019"><a xlink:title=" ">
<path fill="none" stroke="#63b8ff" d="M565.52,-56.34C580.29,-48.08 601.68,-36.13 618.7,-26.63"/>
<polygon fill="#63b8ff" stroke="#63b8ff" points="620.29,-29.75 627.31,-21.82 616.87,-23.64 620.29,-29.75"/>
</a>
</g>
</g>
<!-- Node20&#45;&gt;Node11 -->
<g id="edge29_Node000020_Node000011" class="edge">
<title>Node20&#45;&gt;Node11</title>
<g id="a_edge29_Node000020_Node000011"><a xlink:title=" ">
<path fill="none" stroke="#63b8ff" d="M652.07,-116.16C570.27,-104.94 407.71,-82.63 336.63,-72.88"/>
<polygon fill="#63b8ff" stroke="#63b8ff" points="337.52,-69.47 327.13,-71.57 336.57,-76.4 337.52,-69.47"/>
</a>
</g>
</g>
<!-- Node20&#45;&gt;Node16 -->
<g id="edge30_Node000020_Node000016" class="edge">
<title>Node20&#45;&gt;Node16</title>
<g id="a_edge30_Node000020_Node000016"><a xlink:title=" ">
<path fill="none" stroke="#63b8ff" d="M673.65,-113.09C649.25,-104.36 613.28,-91.48 586.07,-81.75"/>
<polygon fill="#63b8ff" stroke="#63b8ff" points="587.39,-78.5 576.8,-78.43 585.04,-85.1 587.39,-78.5"/>
</a>
</g>
</g>
<!-- Node20&#45;&gt;Node19 -->
<g id="edge28_Node000020_Node000019" class="edge">
<title>Node20&#45;&gt;Node19</title>
<g id="a_edge28_Node000020_Node000019"><a xlink:title=" ">
<path fill="none" stroke="#63b8ff" d="M692.12,-113.08C684.55,-104.31 673.85,-90.8 667,-77.5 659.57,-63.07 654.15,-45.51 650.67,-32.11"/>
<polygon fill="#63b8ff" stroke="#63b8ff" points="654.14,-31.56 648.38,-22.66 647.33,-33.2 654.14,-31.56"/>
</a>
</g>
</g>
<!-- Node21 -->
<g id="Node000021" class="node">
<title>Node21</title>
<g id="a_Node000021"><a xlink:title=" ">
<polygon fill="#e0e0e0" stroke="#999999" points="726.25,-77.5 675.75,-77.5 675.75,-56.75 726.25,-56.75 726.25,-77.5"/>
<text xml:space="preserve" text-anchor="middle" x="701" y="-64" font-family="Helvetica,sans-Serif" font-size="10.00">math.h</text>
</a>
</g>
</g>
<!-- Node20&#45;&gt;Node21 -->
<g id="edge27_Node000020_Node000021" class="edge">
<title>Node20&#45;&gt;Node21</title>
<g id="a_edge27_Node000020_Node000021"><a xlink:title=" ">
<path fill="none" stroke="#63b8ff" d="M701,-113.09C701,-106.47 701,-97.47 701,-89.27"/>
<polygon fill="#63b8ff" stroke="#63b8ff" points="704.5,-89.34 701,-79.34 697.5,-89.34 704.5,-89.34"/>
</a>
</g>
</g>
<!-- Node23&#45;&gt;Node8 -->
<g id="edge38_Node000023_Node000008" class="edge">
<title>Node23&#45;&gt;Node8</title>
<g id="a_edge38_Node000023_Node000008"><a xlink:title=" ">
<path fill="none" stroke="#63b8ff" d="M373,-283.34C373,-276.72 373,-267.72 373,-259.52"/>
<polygon fill="#63b8ff" stroke="#63b8ff" points="376.5,-259.59 373,-249.59 369.5,-259.59 376.5,-259.59"/>
</a>
</g>
</g>
<!-- Node23&#45;&gt;Node11 -->
<g id="edge37_Node000023_Node000011" class="edge">
<title>Node23&#45;&gt;Node11</title>
<g id="a_edge37_Node000023_Node000011"><a xlink:title=" ">
<path fill="none" stroke="#63b8ff" d="M361.06,-283.38C341.89,-266.83 305.18,-231.08 293,-191 282.47,-156.33 289.81,-113.75 295.99,-88.9"/>
<polygon fill="#63b8ff" stroke="#63b8ff" points="299.32,-89.98 298.53,-79.41 292.56,-88.16 299.32,-89.98"/>
</a>
</g>
</g>
<!-- Node23&#45;&gt;Node15 -->
<g id="edge39_Node000023_Node000015" class="edge">
<title>Node23&#45;&gt;Node15</title>
<g id="a_edge39_Node000023_Node000015"><a xlink:title=" ">
<path fill="none" stroke="#63b8ff" d="M384.58,-283.45C394.05,-274.95 407.11,-261.79 415,-247.75 433.5,-214.83 442.88,-171.36 447.08,-145.92"/>
<polygon fill="#63b8ff" stroke="#63b8ff" points="450.51,-146.62 448.56,-136.21 443.59,-145.57 450.51,-146.62"/>
</a>
</g>
</g>
<!-- Node23&#45;&gt;Node16 -->
<g id="edge40_Node000023_Node000016" class="edge">
<title>Node23&#45;&gt;Node16</title>
<g id="a_edge40_Node000023_Node000016"><a xlink:title=" ">
<path fill="none" stroke="#63b8ff" d="M390.93,-283.34C427.9,-262 511.81,-207.3 544,-134.25 550.26,-120.05 551.03,-102.46 550.36,-88.99"/>
<polygon fill="#63b8ff" stroke="#63b8ff" points="553.86,-88.77 549.54,-79.09 546.88,-89.35 553.86,-88.77"/>
</a>
</g>
</g>
</g>
</svg>
