<?xml version="1.0" encoding="UTF-8" standalone="no"?>
<!DOCTYPE svg PUBLIC "-//W3C//DTD SVG 1.1//EN"
 "http://www.w3.org/Graphics/SVG/1.1/DTD/svg11.dtd">
<!-- Generated by graphviz version 13.1.2 (20250809.0930)
 -->
<!-- Title: GreenFHom3DPer.h Pages: 1 -->
<svg width="1021pt" height="483pt"
 viewBox="0.00 0.00 1021.00 483.00" xmlns="http://www.w3.org/2000/svg" xmlns:xlink="http://www.w3.org/1999/xlink">
<g id="graph0" class="graph" transform="scale(1 1) rotate(0) translate(4 478.75)">
<title>GreenFHom3DPer.h</title>
<!-- Node1 -->
<g id="Node000001" class="node">
<title>Node1</title>
<g id="a_Node000001"><a xlink:title="Periodic homogeneous 3D Green&#39;s function (abstract base).">
<polygon fill="#999999" stroke="#666666" points="156,-474.75 44,-474.75 44,-454 156,-454 156,-474.75"/>
<text xml:space="preserve" text-anchor="middle" x="100" y="-461.25" font-family="Helvetica,sans-Serif" font-size="10.00">GreenFHom3DPer.h</text>
</a>
</g>
</g>
<!-- Node2 -->
<g id="Node000002" class="node">
<title>Node2</title>
<g id="a_Node000002"><a xlink:title=" ">
<polygon fill="#e0e0e0" stroke="#999999" points="199.88,-77.5 156.12,-77.5 156.12,-56.75 199.88,-56.75 199.88,-77.5"/>
<text xml:space="preserve" text-anchor="middle" x="178" y="-64" font-family="Helvetica,sans-Serif" font-size="10.00">string</text>
</a>
</g>
</g>
<!-- Node1&#45;&gt;Node2 -->
<g id="edge1_Node000001_Node000002" class="edge">
<title>Node1&#45;&gt;Node2</title>
<g id="a_edge1_Node000001_Node000002"><a xlink:title=" ">
<path fill="none" stroke="#63b8ff" d="M74.69,-453.6C58.23,-446.09 37.41,-434.23 24,-418 4.09,-393.89 0,-383.14 0,-351.88 0,-351.88 0,-351.88 0,-179.62 0,-148.36 1.22,-134.92 24,-113.5 56.97,-82.5 110.06,-72.57 144.49,-69.45"/>
<polygon fill="#63b8ff" stroke="#63b8ff" points="144.61,-72.96 154.32,-68.72 144.09,-65.98 144.61,-72.96"/>
</a>
</g>
</g>
<!-- Node3 -->
<g id="Node000003" class="node">
<title>Node3</title>
<g id="a_Node000003"><a xlink:href="GreenFHom3D_8h.html" target="_top" xlink:title="3D scalar/dyadic Green&#39;s function in a homogeneous background.">
<polygon fill="white" stroke="#666666" points="210.5,-418 113.5,-418 113.5,-397.25 210.5,-397.25 210.5,-418"/>
<text xml:space="preserve" text-anchor="middle" x="162" y="-404.5" font-family="Helvetica,sans-Serif" font-size="10.00">GreenFHom3D.h</text>
</a>
</g>
</g>
<!-- Node1&#45;&gt;Node3 -->
<g id="edge2_Node000001_Node000003" class="edge">
<title>Node1&#45;&gt;Node3</title>
<g id="a_edge2_Node000001_Node000003"><a xlink:title=" ">
<path fill="none" stroke="#63b8ff" d="M111.08,-453.59C119.81,-445.88 132.19,-434.95 142.56,-425.79"/>
<polygon fill="#63b8ff" stroke="#63b8ff" points="144.7,-428.57 149.88,-419.33 140.06,-423.33 144.7,-428.57"/>
</a>
</g>
</g>
<!-- Node17 -->
<g id="Node000017" class="node">
<title>Node17</title>
<g id="a_Node000017"><a xlink:href="globals_8h.html" target="_top" xlink:title="Global numerical constants, fundamental types, and simple macros.">
<polygon fill="white" stroke="#666666" points="456.12,-77.5 395.88,-77.5 395.88,-56.75 456.12,-56.75 456.12,-77.5"/>
<text xml:space="preserve" text-anchor="middle" x="426" y="-64" font-family="Helvetica,sans-Serif" font-size="10.00">globals.h</text>
</a>
</g>
</g>
<!-- Node1&#45;&gt;Node17 -->
<g id="edge50_Node000001_Node000017" class="edge">
<title>Node1&#45;&gt;Node17</title>
<g id="a_edge50_Node000001_Node000017"><a xlink:title=" ">
<path fill="none" stroke="#63b8ff" d="M90.04,-453.64C72.51,-435.42 38,-394.18 38,-351.88 38,-351.88 38,-351.88 38,-179.62 38,-134.52 73.94,-132.19 115,-113.5 162.26,-91.99 311.14,-77.38 384.42,-71.3"/>
<polygon fill="#63b8ff" stroke="#63b8ff" points="384.31,-74.82 394,-70.53 383.75,-67.85 384.31,-74.82"/>
</a>
</g>
</g>
<!-- Node21 -->
<g id="Node000021" class="node">
<title>Node21</title>
<g id="a_Node000021"><a xlink:href="mathFunctions_8h.html" target="_top" xlink:title="Header file of the class that provides auxiliary mathematical functionalities for the SIE solver.">
<polygon fill="white" stroke="#666666" points="946.5,-134.25 849.5,-134.25 849.5,-113.5 946.5,-113.5 946.5,-134.25"/>
<text xml:space="preserve" text-anchor="middle" x="898" y="-120.75" font-family="Helvetica,sans-Serif" font-size="10.00">mathFunctions.h</text>
</a>
</g>
</g>
<!-- Node1&#45;&gt;Node21 -->
<g id="edge51_Node000001_Node000021" class="edge">
<title>Node1&#45;&gt;Node21</title>
<g id="a_edge51_Node000001_Node000021"><a xlink:title=" ">
<path fill="none" stroke="#63b8ff" d="M140.08,-453.53C241.2,-427.85 513.52,-353.4 722,-247.75 767.93,-224.47 781.01,-220.8 823,-191 843.87,-176.19 865.57,-156.51 880.23,-142.48"/>
<polygon fill="#63b8ff" stroke="#63b8ff" points="882.55,-145.1 887.29,-135.62 877.67,-140.08 882.55,-145.1"/>
</a>
</g>
</g>
<!-- Node4 -->
<g id="Node000004" class="node">
<title>Node4</title>
<g id="a_Node000004"><a xlink:title=" ">
<polygon fill="#e0e0e0" stroke="#999999" points="1011.5,-20.75 938.5,-20.75 938.5,0 1011.5,0 1011.5,-20.75"/>
<text xml:space="preserve" text-anchor="middle" x="975" y="-7.25" font-family="Helvetica,sans-Serif" font-size="10.00">blitz/array.h</text>
</a>
</g>
</g>
<!-- Node3&#45;&gt;Node4 -->
<g id="edge3_Node000003_Node000004" class="edge">
<title>Node3&#45;&gt;Node4</title>
<g id="a_edge3_Node000003_Node000004"><a xlink:title=" ">
<path fill="none" stroke="#63b8ff" d="M210.81,-402.21C391.64,-385.19 1013,-320.74 1013,-238.38 1013,-238.38 1013,-238.38 1013,-122.88 1013,-89.26 997.34,-52.85 986.12,-31.09"/>
<polygon fill="#63b8ff" stroke="#63b8ff" points="989.31,-29.62 981.49,-22.47 983.14,-32.94 989.31,-29.62"/>
</a>
</g>
</g>
<!-- Node5 -->
<g id="Node000005" class="node">
<title>Node5</title>
<g id="a_Node000005"><a xlink:title=" ">
<polygon fill="#e0e0e0" stroke="#999999" points="150.38,-247.75 103.62,-247.75 103.62,-227 150.38,-227 150.38,-247.75"/>
<text xml:space="preserve" text-anchor="middle" x="127" y="-234.25" font-family="Helvetica,sans-Serif" font-size="10.00">cmath</text>
</a>
</g>
</g>
<!-- Node3&#45;&gt;Node5 -->
<g id="edge4_Node000003_Node000005" class="edge">
<title>Node3&#45;&gt;Node5</title>
<g id="a_edge4_Node000003_Node000005"><a xlink:title=" ">
<path fill="none" stroke="#63b8ff" d="M171.14,-396.99C182.02,-384.3 197.9,-361.19 191,-340.5 184.68,-321.53 174.91,-321.26 164,-304.5 154.14,-289.34 144.19,-271.39 137.1,-258.02"/>
<polygon fill="#63b8ff" stroke="#63b8ff" points="140.32,-256.61 132.58,-249.37 134.11,-259.85 140.32,-256.61"/>
</a>
</g>
</g>
<!-- Node6 -->
<g id="Node000006" class="node">
<title>Node6</title>
<g id="a_Node000006"><a xlink:title=" ">
<polygon fill="#e0e0e0" stroke="#999999" points="182.38,-361.25 141.62,-361.25 141.62,-340.5 182.38,-340.5 182.38,-361.25"/>
<text xml:space="preserve" text-anchor="middle" x="162" y="-347.75" font-family="Helvetica,sans-Serif" font-size="10.00">tuple</text>
</a>
</g>
</g>
<!-- Node3&#45;&gt;Node6 -->
<g id="edge5_Node000003_Node000006" class="edge">
<title>Node3&#45;&gt;Node6</title>
<g id="a_edge5_Node000003_Node000006"><a xlink:title=" ">
<path fill="none" stroke="#63b8ff" d="M162,-396.84C162,-390.22 162,-381.22 162,-373.02"/>
<polygon fill="#63b8ff" stroke="#63b8ff" points="165.5,-373.09 162,-363.09 158.5,-373.09 165.5,-373.09"/>
</a>
</g>
</g>
<!-- Node7 -->
<g id="Node000007" class="node">
<title>Node7</title>
<g id="a_Node000007"><a xlink:href="GaussQuad_8h.html" target="_top" xlink:title="Gaussian quadrature helpers for Green&#39;s functions and incident fields.">
<polygon fill="white" stroke="#666666" points="285.25,-304.5 204.75,-304.5 204.75,-283.75 285.25,-283.75 285.25,-304.5"/>
<text xml:space="preserve" text-anchor="middle" x="245" y="-291" font-family="Helvetica,sans-Serif" font-size="10.00">GaussQuad.h</text>
</a>
</g>
</g>
<!-- Node3&#45;&gt;Node7 -->
<g id="edge6_Node000003_Node000007" class="edge">
<title>Node3&#45;&gt;Node7</title>
<g id="a_edge6_Node000003_Node000007"><a xlink:title=" ">
<path fill="none" stroke="#63b8ff" d="M152.09,-397.1C139.42,-383.74 120.53,-359 133,-340.5 146.59,-320.33 170.83,-309.13 193.3,-302.9"/>
<polygon fill="#63b8ff" stroke="#63b8ff" points="194.13,-306.3 203.01,-300.51 192.46,-299.5 194.13,-306.3"/>
</a>
</g>
</g>
<!-- Node3&#45;&gt;Node17 -->
<g id="edge49_Node000003_Node000017" class="edge">
<title>Node3&#45;&gt;Node17</title>
<g id="a_edge49_Node000003_Node000017"><a xlink:title=" ">
<path fill="none" stroke="#63b8ff" d="M147.02,-396.93C122.38,-379.67 76,-341.08 76,-295.12 76,-295.12 76,-295.12 76,-179.62 76,-115.56 291.57,-83.38 384.35,-72.49"/>
<polygon fill="#63b8ff" stroke="#63b8ff" points="384.51,-76 394.05,-71.38 383.72,-69.04 384.51,-76"/>
</a>
</g>
</g>
<!-- Node24 -->
<g id="Node000024" class="node">
<title>Node24</title>
<g id="a_Node000024"><a xlink:href="GreenF_8h.html" target="_top" xlink:title="Abstract base class for electromagnetic Green&#39;s functions.">
<polygon fill="white" stroke="#666666" points="417.38,-361.25 358.62,-361.25 358.62,-340.5 417.38,-340.5 417.38,-361.25"/>
<text xml:space="preserve" text-anchor="middle" x="388" y="-347.75" font-family="Helvetica,sans-Serif" font-size="10.00">GreenF.h</text>
</a>
</g>
</g>
<!-- Node3&#45;&gt;Node24 -->
<g id="edge36_Node000003_Node000024" class="edge">
<title>Node3&#45;&gt;Node24</title>
<g id="a_edge36_Node000003_Node000024"><a xlink:title=" ">
<path fill="none" stroke="#63b8ff" d="M202.67,-396.77C243.58,-386.86 306.33,-371.66 347.27,-361.74"/>
<polygon fill="#63b8ff" stroke="#63b8ff" points="348.09,-365.14 356.99,-359.39 346.45,-358.34 348.09,-365.14"/>
</a>
</g>
</g>
<!-- Node7&#45;&gt;Node5 -->
<g id="edge7_Node000007_Node000005" class="edge">
<title>Node7&#45;&gt;Node5</title>
<g id="a_edge7_Node000007_Node000005"><a xlink:title=" ">
<path fill="none" stroke="#63b8ff" d="M223.9,-283.34C205.61,-274.85 178.9,-262.45 158.14,-252.83"/>
<polygon fill="#63b8ff" stroke="#63b8ff" points="159.83,-249.75 149.29,-248.72 156.88,-256.1 159.83,-249.75"/>
</a>
</g>
</g>
<!-- Node8 -->
<g id="Node000008" class="node">
<title>Node8</title>
<g id="a_Node000008"><a xlink:title=" ">
<polygon fill="#e0e0e0" stroke="#999999" points="579.75,-77.5 520.25,-77.5 520.25,-56.75 579.75,-56.75 579.75,-77.5"/>
<text xml:space="preserve" text-anchor="middle" x="550" y="-64" font-family="Helvetica,sans-Serif" font-size="10.00">iostream</text>
</a>
</g>
</g>
<!-- Node7&#45;&gt;Node8 -->
<g id="edge8_Node000007_Node000008" class="edge">
<title>Node7&#45;&gt;Node8</title>
<g id="a_edge8_Node000007_Node000008"><a xlink:title=" ">
<path fill="none" stroke="#63b8ff" d="M255.5,-283.33C293.61,-247.83 423.58,-127.22 445,-113.5 465.17,-100.57 489.66,-89.75 509.9,-81.92"/>
<polygon fill="#63b8ff" stroke="#63b8ff" points="511.11,-85.21 519.25,-78.42 508.65,-78.65 511.11,-85.21"/>
</a>
</g>
</g>
<!-- Node9 -->
<g id="Node000009" class="node">
<title>Node9</title>
<g id="a_Node000009"><a xlink:href="RWGFun_8h.html" target="_top" xlink:title="Header for the RWGFun class.">
<polygon fill="white" stroke="#666666" points="592.12,-247.75 525.88,-247.75 525.88,-227 592.12,-227 592.12,-247.75"/>
<text xml:space="preserve" text-anchor="middle" x="559" y="-234.25" font-family="Helvetica,sans-Serif" font-size="10.00">RWGFun.h</text>
</a>
</g>
</g>
<!-- Node7&#45;&gt;Node9 -->
<g id="edge9_Node000007_Node000009" class="edge">
<title>Node7&#45;&gt;Node9</title>
<g id="a_edge9_Node000007_Node000009"><a xlink:title=" ">
<path fill="none" stroke="#63b8ff" d="M285.73,-286.02C344.66,-275.75 453.3,-256.81 514.35,-246.16"/>
<polygon fill="#63b8ff" stroke="#63b8ff" points="514.79,-249.64 524.04,-244.47 513.59,-242.74 514.79,-249.64"/>
</a>
</g>
</g>
<!-- Node7&#45;&gt;Node17 -->
<g id="edge34_Node000007_Node000017" class="edge">
<title>Node7&#45;&gt;Node17</title>
<g id="a_edge34_Node000007_Node000017"><a xlink:title=" ">
<path fill="none" stroke="#63b8ff" d="M229.23,-283.38C217.9,-275.38 203.53,-262.92 197,-247.75 193.35,-239.28 193.72,-235.62 197,-227 221.01,-163.89 241.97,-151.19 298,-113.5 324.24,-95.85 358.13,-84.24 384.45,-77.18"/>
<polygon fill="#63b8ff" stroke="#63b8ff" points="385.29,-80.58 394.11,-74.72 383.56,-73.79 385.29,-80.58"/>
</a>
</g>
</g>
<!-- Node23 -->
<g id="Node000023" class="node">
<title>Node23</title>
<g id="a_Node000023"><a xlink:href="quadrature_8h.html" target="_top" xlink:title="Declarations of Dunavant (triangle) and Gauss–Legendre (1D) quadrature rules.">
<polygon fill="white" stroke="#666666" points="284.12,-247.75 205.88,-247.75 205.88,-227 284.12,-227 284.12,-247.75"/>
<text xml:space="preserve" text-anchor="middle" x="245" y="-234.25" font-family="Helvetica,sans-Serif" font-size="10.00">quadrature.h</text>
</a>
</g>
</g>
<!-- Node7&#45;&gt;Node23 -->
<g id="edge35_Node000007_Node000023" class="edge">
<title>Node7&#45;&gt;Node23</title>
<g id="a_edge35_Node000007_Node000023"><a xlink:title=" ">
<path fill="none" stroke="#63b8ff" d="M245,-283.34C245,-276.72 245,-267.72 245,-259.52"/>
<polygon fill="#63b8ff" stroke="#63b8ff" points="248.5,-259.59 245,-249.59 241.5,-259.59 248.5,-259.59"/>
</a>
</g>
</g>
<!-- Node10 -->
<g id="Node000010" class="node">
<title>Node10</title>
<g id="a_Node000010"><a xlink:href="SurfaceMesh_8h.html" target="_top" xlink:title="Declaration of the SurfaceMesh class and mesh edge struct.">
<polygon fill="white" stroke="#666666" points="686,-191 598,-191 598,-170.25 686,-170.25 686,-191"/>
<text xml:space="preserve" text-anchor="middle" x="642" y="-177.5" font-family="Helvetica,sans-Serif" font-size="10.00">SurfaceMesh.h</text>
</a>
</g>
</g>
<!-- Node9&#45;&gt;Node10 -->
<g id="edge10_Node000009_Node000010" class="edge">
<title>Node9&#45;&gt;Node10</title>
<g id="a_edge10_Node000009_Node000010"><a xlink:title=" ">
<path fill="none" stroke="#63b8ff" d="M573.84,-226.59C586.11,-218.49 603.79,-206.83 618.06,-197.42"/>
<polygon fill="#63b8ff" stroke="#63b8ff" points="619.61,-200.59 626.03,-192.16 615.75,-194.75 619.61,-200.59"/>
</a>
</g>
</g>
<!-- Node16 -->
<g id="Node000016" class="node">
<title>Node16</title>
<g id="a_Node000016"><a xlink:href="Triangle_8h.html" target="_top" xlink:title="Declaration of the Triangle class (surface element with cached geometry).">
<polygon fill="white" stroke="#666666" points="579.62,-134.25 516.38,-134.25 516.38,-113.5 579.62,-113.5 579.62,-134.25"/>
<text xml:space="preserve" text-anchor="middle" x="548" y="-120.75" font-family="Helvetica,sans-Serif" font-size="10.00">Triangle.h</text>
</a>
</g>
</g>
<!-- Node9&#45;&gt;Node16 -->
<g id="edge32_Node000009_Node000016" class="edge">
<title>Node9&#45;&gt;Node16</title>
<g id="a_edge32_Node000009_Node000016"><a xlink:title=" ">
<path fill="none" stroke="#63b8ff" d="M558.06,-226.87C556.3,-209.02 552.46,-170.11 550.07,-145.84"/>
<polygon fill="#63b8ff" stroke="#63b8ff" points="553.58,-145.79 549.12,-136.18 546.61,-146.48 553.58,-145.79"/>
</a>
</g>
</g>
<!-- Node9&#45;&gt;Node17 -->
<g id="edge33_Node000009_Node000017" class="edge">
<title>Node9&#45;&gt;Node17</title>
<g id="a_edge33_Node000009_Node000017"><a xlink:title=" ">
<path fill="none" stroke="#63b8ff" d="M543.18,-226.51C518.5,-210.31 470.97,-175.67 445,-134.25 436.35,-120.46 431.53,-102.61 428.91,-88.93"/>
<polygon fill="#63b8ff" stroke="#63b8ff" points="432.39,-88.58 427.32,-79.28 425.49,-89.71 432.39,-88.58"/>
</a>
</g>
</g>
<!-- Node11 -->
<g id="Node000011" class="node">
<title>Node11</title>
<g id="a_Node000011"><a xlink:title=" ">
<polygon fill="#e0e0e0" stroke="#999999" points="754.5,-134.25 723.5,-134.25 723.5,-113.5 754.5,-113.5 754.5,-134.25"/>
<text xml:space="preserve" text-anchor="middle" x="739" y="-120.75" font-family="Helvetica,sans-Serif" font-size="10.00">set</text>
</a>
</g>
</g>
<!-- Node10&#45;&gt;Node11 -->
<g id="edge11_Node000010_Node000011" class="edge">
<title>Node10&#45;&gt;Node11</title>
<g id="a_edge11_Node000010_Node000011"><a xlink:title=" ">
<path fill="none" stroke="#63b8ff" d="M659.34,-169.84C674.32,-161.38 696.19,-149.04 713.22,-139.43"/>
<polygon fill="#63b8ff" stroke="#63b8ff" points="714.79,-142.56 721.78,-134.6 711.35,-136.46 714.79,-142.56"/>
</a>
</g>
</g>
<!-- Node12 -->
<g id="Node000012" class="node">
<title>Node12</title>
<g id="a_Node000012"><a xlink:title=" ">
<polygon fill="#e0e0e0" stroke="#999999" points="498.25,-134.25 453.75,-134.25 453.75,-113.5 498.25,-113.5 498.25,-134.25"/>
<text xml:space="preserve" text-anchor="middle" x="476" y="-120.75" font-family="Helvetica,sans-Serif" font-size="10.00">utility</text>
</a>
</g>
</g>
<!-- Node10&#45;&gt;Node12 -->
<g id="edge12_Node000010_Node000012" class="edge">
<title>Node10&#45;&gt;Node12</title>
<g id="a_edge12_Node000010_Node000012"><a xlink:title=" ">
<path fill="none" stroke="#63b8ff" d="M612.32,-169.84C583.38,-160.29 539.44,-145.8 509.31,-135.86"/>
<polygon fill="#63b8ff" stroke="#63b8ff" points="510.53,-132.58 499.94,-132.77 508.34,-139.23 510.53,-132.58"/>
</a>
</g>
</g>
<!-- Node13 -->
<g id="Node000013" class="node">
<title>Node13</title>
<g id="a_Node000013"><a xlink:title=" ">
<polygon fill="#e0e0e0" stroke="#999999" points="806.38,-77.5 759.62,-77.5 759.62,-56.75 806.38,-56.75 806.38,-77.5"/>
<text xml:space="preserve" text-anchor="middle" x="783" y="-64" font-family="Helvetica,sans-Serif" font-size="10.00">vector</text>
</a>
</g>
</g>
<!-- Node10&#45;&gt;Node13 -->
<g id="edge13_Node000010_Node000013" class="edge">
<title>Node10&#45;&gt;Node13</title>
<g id="a_edge13_Node000010_Node000013"><a xlink:title=" ">
<path fill="none" stroke="#63b8ff" d="M686.47,-173.27C712.41,-167.34 743.88,-155.97 764,-134.25 775.3,-122.05 779.93,-103.56 781.8,-89.24"/>
<polygon fill="#63b8ff" stroke="#63b8ff" points="785.27,-89.76 782.7,-79.49 778.3,-89.12 785.27,-89.76"/>
</a>
</g>
</g>
<!-- Node14 -->
<g id="Node000014" class="node">
<title>Node14</title>
<g id="a_Node000014"><a xlink:href="JobParser_8h.html" target="_top" xlink:title="Lightweight XML&#45;like tag parser for the solver job file.">
<polygon fill="white" stroke="#666666" points="705.62,-134.25 636.38,-134.25 636.38,-113.5 705.62,-113.5 705.62,-134.25"/>
<text xml:space="preserve" text-anchor="middle" x="671" y="-120.75" font-family="Helvetica,sans-Serif" font-size="10.00">JobParser.h</text>
</a>
</g>
</g>
<!-- Node10&#45;&gt;Node14 -->
<g id="edge14_Node000010_Node000014" class="edge">
<title>Node10&#45;&gt;Node14</title>
<g id="a_edge14_Node000010_Node000014"><a xlink:title=" ">
<path fill="none" stroke="#63b8ff" d="M647.18,-169.84C650.9,-162.83 656.02,-153.16 660.56,-144.58"/>
<polygon fill="#63b8ff" stroke="#63b8ff" points="663.56,-146.39 665.15,-135.92 657.38,-143.11 663.56,-146.39"/>
</a>
</g>
</g>
<!-- Node10&#45;&gt;Node16 -->
<g id="edge19_Node000010_Node000016" class="edge">
<title>Node10&#45;&gt;Node16</title>
<g id="a_edge19_Node000010_Node000016"><a xlink:title=" ">
<path fill="none" stroke="#63b8ff" d="M625.19,-169.84C611.03,-161.58 590.51,-149.63 574.19,-140.13"/>
<polygon fill="#63b8ff" stroke="#63b8ff" points="576.37,-137.35 565.97,-135.34 572.85,-143.4 576.37,-137.35"/>
</a>
</g>
</g>
<!-- Node10&#45;&gt;Node17 -->
<g id="edge26_Node000010_Node000017" class="edge">
<title>Node10&#45;&gt;Node17</title>
<g id="a_edge26_Node000010_Node000017"><a xlink:title=" ">
<path fill="none" stroke="#63b8ff" d="M636.88,-169.94C628.71,-155.45 611.35,-128.25 589,-113.5 552.21,-89.22 502.56,-77.82 467.75,-72.53"/>
<polygon fill="#63b8ff" stroke="#63b8ff" points="468.45,-69.1 458.06,-71.18 467.48,-76.03 468.45,-69.1"/>
</a>
</g>
</g>
<!-- Node10&#45;&gt;Node21 -->
<g id="edge27_Node000010_Node000021" class="edge">
<title>Node10&#45;&gt;Node21</title>
<g id="a_edge27_Node000010_Node000021"><a xlink:title=" ">
<path fill="none" stroke="#63b8ff" d="M686.3,-170.15C729.13,-160.99 794.24,-147.07 840.93,-137.08"/>
<polygon fill="#63b8ff" stroke="#63b8ff" points="841.56,-140.52 850.61,-135.01 840.1,-133.68 841.56,-140.52"/>
</a>
</g>
</g>
<!-- Node14&#45;&gt;Node2 -->
<g id="edge17_Node000014_Node000002" class="edge">
<title>Node14&#45;&gt;Node2</title>
<g id="a_edge17_Node000014_Node000002"><a xlink:title=" ">
<path fill="none" stroke="#63b8ff" d="M635.89,-118.83C621.38,-117.17 604.38,-115.23 589,-113.5 448.73,-97.74 281.47,-79.42 211.43,-71.77"/>
<polygon fill="#63b8ff" stroke="#63b8ff" points="212.1,-68.32 201.78,-70.72 211.34,-75.28 212.1,-68.32"/>
</a>
</g>
</g>
<!-- Node14&#45;&gt;Node8 -->
<g id="edge16_Node000014_Node000008" class="edge">
<title>Node14&#45;&gt;Node8</title>
<g id="a_edge16_Node000014_Node000008"><a xlink:title=" ">
<path fill="none" stroke="#63b8ff" d="M649.37,-113.09C630.53,-104.56 602.96,-92.09 581.64,-82.44"/>
<polygon fill="#63b8ff" stroke="#63b8ff" points="583.38,-79.39 572.82,-78.45 580.49,-85.76 583.38,-79.39"/>
</a>
</g>
</g>
<!-- Node14&#45;&gt;Node13 -->
<g id="edge18_Node000014_Node000013" class="edge">
<title>Node14&#45;&gt;Node13</title>
<g id="a_edge18_Node000014_Node000013"><a xlink:title=" ">
<path fill="none" stroke="#63b8ff" d="M691.02,-113.09C708.22,-104.68 733.28,-92.43 752.9,-82.84"/>
<polygon fill="#63b8ff" stroke="#63b8ff" points="754.34,-86.03 761.79,-78.49 751.27,-79.74 754.34,-86.03"/>
</a>
</g>
</g>
<!-- Node15 -->
<g id="Node000015" class="node">
<title>Node15</title>
<g id="a_Node000015"><a xlink:title=" ">
<polygon fill="#e0e0e0" stroke="#999999" points="698.12,-77.5 643.88,-77.5 643.88,-56.75 698.12,-56.75 698.12,-77.5"/>
<text xml:space="preserve" text-anchor="middle" x="671" y="-64" font-family="Helvetica,sans-Serif" font-size="10.00">fstream</text>
</a>
</g>
</g>
<!-- Node14&#45;&gt;Node15 -->
<g id="edge15_Node000014_Node000015" class="edge">
<title>Node14&#45;&gt;Node15</title>
<g id="a_edge15_Node000014_Node000015"><a xlink:title=" ">
<path fill="none" stroke="#63b8ff" d="M671,-113.09C671,-106.47 671,-97.47 671,-89.27"/>
<polygon fill="#63b8ff" stroke="#63b8ff" points="674.5,-89.34 671,-79.34 667.5,-89.34 674.5,-89.34"/>
</a>
</g>
</g>
<!-- Node16&#45;&gt;Node13 -->
<g id="edge20_Node000016_Node000013" class="edge">
<title>Node16&#45;&gt;Node13</title>
<g id="a_edge20_Node000016_Node000013"><a xlink:title=" ">
<path fill="none" stroke="#63b8ff" d="M579.69,-115.49C623.6,-105.26 702.67,-86.84 748.18,-76.24"/>
<polygon fill="#63b8ff" stroke="#63b8ff" points="748.84,-79.68 757.78,-74 747.25,-72.86 748.84,-79.68"/>
</a>
</g>
</g>
<!-- Node16&#45;&gt;Node17 -->
<g id="edge21_Node000016_Node000017" class="edge">
<title>Node16&#45;&gt;Node17</title>
<g id="a_edge21_Node000016_Node000017"><a xlink:title=" ">
<path fill="none" stroke="#63b8ff" d="M526.19,-113.09C507.19,-104.56 479.4,-92.09 457.91,-82.44"/>
<polygon fill="#63b8ff" stroke="#63b8ff" points="459.56,-79.35 449,-78.45 456.69,-85.74 459.56,-79.35"/>
</a>
</g>
</g>
<!-- Node17&#45;&gt;Node4 -->
<g id="edge22_Node000017_Node000004" class="edge">
<title>Node17&#45;&gt;Node4</title>
<g id="a_edge22_Node000017_Node000004"><a xlink:title=" ">
<path fill="none" stroke="#63b8ff" d="M456.28,-62.69C472.51,-60.88 492.84,-58.64 511,-56.75 662.86,-40.95 842.84,-23.8 927.06,-15.87"/>
<polygon fill="#63b8ff" stroke="#63b8ff" points="927.16,-19.37 936.79,-14.95 926.5,-12.4 927.16,-19.37"/>
</a>
</g>
</g>
<!-- Node18 -->
<g id="Node000018" class="node">
<title>Node18</title>
<g id="a_Node000018"><a xlink:title=" ">
<polygon fill="#e0e0e0" stroke="#999999" points="415.5,-20.75 324.5,-20.75 324.5,0 415.5,0 415.5,-20.75"/>
<text xml:space="preserve" text-anchor="middle" x="370" y="-7.25" font-family="Helvetica,sans-Serif" font-size="10.00">blitz/tinyvec2.h</text>
</a>
</g>
</g>
<!-- Node17&#45;&gt;Node18 -->
<g id="edge23_Node000017_Node000018" class="edge">
<title>Node17&#45;&gt;Node18</title>
<g id="a_edge23_Node000017_Node000018"><a xlink:title=" ">
<path fill="none" stroke="#63b8ff" d="M415.99,-56.34C408.26,-48.78 397.37,-38.14 388.13,-29.1"/>
<polygon fill="#63b8ff" stroke="#63b8ff" points="390.6,-26.62 381.01,-22.14 385.71,-31.63 390.6,-26.62"/>
</a>
</g>
</g>
<!-- Node19 -->
<g id="Node000019" class="node">
<title>Node19</title>
<g id="a_Node000019"><a xlink:title=" ">
<polygon fill="#e0e0e0" stroke="#999999" points="530.12,-20.75 433.88,-20.75 433.88,0 530.12,0 530.12,-20.75"/>
<text xml:space="preserve" text-anchor="middle" x="482" y="-7.25" font-family="Helvetica,sans-Serif" font-size="10.00">blitz/tvecglobs.h</text>
</a>
</g>
</g>
<!-- Node17&#45;&gt;Node19 -->
<g id="edge24_Node000017_Node000019" class="edge">
<title>Node17&#45;&gt;Node19</title>
<g id="a_edge24_Node000017_Node000019"><a xlink:title=" ">
<path fill="none" stroke="#63b8ff" d="M436.01,-56.34C443.74,-48.78 454.63,-38.14 463.87,-29.1"/>
<polygon fill="#63b8ff" stroke="#63b8ff" points="466.29,-31.63 470.99,-22.14 461.4,-26.62 466.29,-31.63"/>
</a>
</g>
</g>
<!-- Node20 -->
<g id="Node000020" class="node">
<title>Node20</title>
<g id="a_Node000020"><a xlink:title=" ">
<polygon fill="#e0e0e0" stroke="#999999" points="763,-20.75 705,-20.75 705,0 763,0 763,-20.75"/>
<text xml:space="preserve" text-anchor="middle" x="734" y="-7.25" font-family="Helvetica,sans-Serif" font-size="10.00">complex</text>
</a>
</g>
</g>
<!-- Node17&#45;&gt;Node20 -->
<g id="edge25_Node000017_Node000020" class="edge">
<title>Node17&#45;&gt;Node20</title>
<g id="a_edge25_Node000017_Node000020"><a xlink:title=" ">
<path fill="none" stroke="#63b8ff" d="M456.38,-60.73C512.24,-50.8 631.27,-29.64 693.77,-18.53"/>
<polygon fill="#63b8ff" stroke="#63b8ff" points="694.03,-22.03 703.26,-16.84 692.81,-15.14 694.03,-22.03"/>
</a>
</g>
</g>
<!-- Node21&#45;&gt;Node13 -->
<g id="edge30_Node000021_Node000013" class="edge">
<title>Node21&#45;&gt;Node13</title>
<g id="a_edge30_Node000021_Node000013"><a xlink:title=" ">
<path fill="none" stroke="#63b8ff" d="M877.44,-113.09C859.7,-104.64 833.82,-92.32 813.63,-82.71"/>
<polygon fill="#63b8ff" stroke="#63b8ff" points="815.28,-79.62 804.75,-78.48 812.27,-85.94 815.28,-79.62"/>
</a>
</g>
</g>
<!-- Node21&#45;&gt;Node17 -->
<g id="edge31_Node000021_Node000017" class="edge">
<title>Node21&#45;&gt;Node17</title>
<g id="a_edge31_Node000021_Node000017"><a xlink:title=" ">
<path fill="none" stroke="#63b8ff" d="M849.27,-117.22C756.26,-106.43 554.97,-83.09 467.73,-72.97"/>
<polygon fill="#63b8ff" stroke="#63b8ff" points="468.28,-69.51 457.95,-71.83 467.48,-76.46 468.28,-69.51"/>
</a>
</g>
</g>
<!-- Node21&#45;&gt;Node20 -->
<g id="edge29_Node000021_Node000020" class="edge">
<title>Node21&#45;&gt;Node20</title>
<g id="a_edge29_Node000021_Node000020"><a xlink:title=" ">
<path fill="none" stroke="#63b8ff" d="M886.9,-113.07C871.38,-99.59 842.07,-74.94 815,-56.75 798.59,-45.72 779.3,-34.84 763.67,-26.5"/>
<polygon fill="#63b8ff" stroke="#63b8ff" points="765.33,-23.42 754.85,-21.87 762.07,-29.62 765.33,-23.42"/>
</a>
</g>
</g>
<!-- Node22 -->
<g id="Node000022" class="node">
<title>Node22</title>
<g id="a_Node000022"><a xlink:title=" ">
<polygon fill="#e0e0e0" stroke="#999999" points="923.25,-77.5 872.75,-77.5 872.75,-56.75 923.25,-56.75 923.25,-77.5"/>
<text xml:space="preserve" text-anchor="middle" x="898" y="-64" font-family="Helvetica,sans-Serif" font-size="10.00">math.h</text>
</a>
</g>
</g>
<!-- Node21&#45;&gt;Node22 -->
<g id="edge28_Node000021_Node000022" class="edge">
<title>Node21&#45;&gt;Node22</title>
<g id="a_edge28_Node000021_Node000022"><a xlink:title=" ">
<path fill="none" stroke="#63b8ff" d="M898,-113.09C898,-106.47 898,-97.47 898,-89.27"/>
<polygon fill="#63b8ff" stroke="#63b8ff" points="901.5,-89.34 898,-79.34 894.5,-89.34 901.5,-89.34"/>
</a>
</g>
</g>
<!-- Node24&#45;&gt;Node4 -->
<g id="edge37_Node000024_Node000004" class="edge">
<title>Node24&#45;&gt;Node4</title>
<g id="a_edge37_Node000024_Node000004"><a xlink:title=" ">
<path fill="none" stroke="#63b8ff" d="M417.51,-347.9C536.55,-339.14 975,-298.9 975,-181.62 975,-181.62 975,-181.62 975,-122.88 975,-91.48 975,-55.12 975,-32.68"/>
<polygon fill="#63b8ff" stroke="#63b8ff" points="978.5,-32.73 975,-22.73 971.5,-32.73 978.5,-32.73"/>
</a>
</g>
</g>
<!-- Node24&#45;&gt;Node5 -->
<g id="edge38_Node000024_Node000005" class="edge">
<title>Node24&#45;&gt;Node5</title>
<g id="a_edge38_Node000024_Node000005"><a xlink:title=" ">
<path fill="none" stroke="#63b8ff" d="M358.31,-347.72C319.04,-343.83 248.66,-333.14 196,-304.5 174.03,-292.55 154.01,-271.75 141.26,-256.67"/>
<polygon fill="#63b8ff" stroke="#63b8ff" points="144.3,-254.85 135.27,-249.31 138.88,-259.28 144.3,-254.85"/>
</a>
</g>
</g>
<!-- Node24&#45;&gt;Node7 -->
<g id="edge40_Node000024_Node000007" class="edge">
<title>Node24&#45;&gt;Node7</title>
<g id="a_edge40_Node000024_Node000007"><a xlink:title=" ">
<path fill="none" stroke="#63b8ff" d="M362.43,-340.09C339.76,-331.41 306.4,-318.63 281.02,-308.92"/>
<polygon fill="#63b8ff" stroke="#63b8ff" points="282.35,-305.68 271.76,-305.37 279.85,-312.21 282.35,-305.68"/>
</a>
</g>
</g>
<!-- Node24&#45;&gt;Node9 -->
<g id="edge41_Node000024_Node000009" class="edge">
<title>Node24&#45;&gt;Node9</title>
<g id="a_edge41_Node000024_Node000009"><a xlink:title=" ">
<path fill="none" stroke="#63b8ff" d="M417.72,-348.99C451.59,-346.38 506.45,-336.99 539,-304.5 550.95,-292.57 555.8,-273.77 557.75,-259.26"/>
<polygon fill="#63b8ff" stroke="#63b8ff" points="561.23,-259.68 558.68,-249.4 554.26,-259.03 561.23,-259.68"/>
</a>
</g>
</g>
<!-- Node24&#45;&gt;Node12 -->
<g id="edge39_Node000024_Node000012" class="edge">
<title>Node24&#45;&gt;Node12</title>
<g id="a_edge39_Node000024_Node000012"><a xlink:title=" ">
<path fill="none" stroke="#63b8ff" d="M391.78,-340.21C405.07,-306.24 449.79,-191.89 468.09,-145.09"/>
<polygon fill="#63b8ff" stroke="#63b8ff" points="471.3,-146.5 471.68,-135.92 464.78,-143.95 471.3,-146.5"/>
</a>
</g>
</g>
<!-- Node24&#45;&gt;Node17 -->
<g id="edge47_Node000024_Node000017" class="edge">
<title>Node24&#45;&gt;Node17</title>
<g id="a_edge47_Node000024_Node000017"><a xlink:title=" ">
<path fill="none" stroke="#63b8ff" d="M388.91,-340.38C392.04,-308.34 402.93,-201.27 417,-113.5 418.29,-105.48 419.96,-96.71 421.52,-89.04"/>
<polygon fill="#63b8ff" stroke="#63b8ff" points="424.93,-89.81 423.55,-79.31 418.08,-88.38 424.93,-89.81"/>
</a>
</g>
</g>
<!-- Node24&#45;&gt;Node21 -->
<g id="edge48_Node000024_Node000021" class="edge">
<title>Node24&#45;&gt;Node21</title>
<g id="a_edge48_Node000024_Node000021"><a xlink:title=" ">
<path fill="none" stroke="#63b8ff" d="M417.83,-343.61C452.33,-335.98 510.6,-321.94 559,-304.5 683.8,-259.53 819.6,-175.81 873.75,-140.86"/>
<polygon fill="#63b8ff" stroke="#63b8ff" points="875.43,-143.94 881.9,-135.55 871.61,-138.07 875.43,-143.94"/>
</a>
</g>
</g>
<!-- Node25 -->
<g id="Node000025" class="node">
<title>Node25</title>
<g id="a_Node000025"><a xlink:href="SingSub_8h.html" target="_top" xlink:title="Exact subtractions for singular/near&#45;singular triangle integrals.">
<polygon fill="white" stroke="#666666" points="530,-304.5 466,-304.5 466,-283.75 530,-283.75 530,-304.5"/>
<text xml:space="preserve" text-anchor="middle" x="498" y="-291" font-family="Helvetica,sans-Serif" font-size="10.00">SingSub.h</text>
</a>
</g>
</g>
<!-- Node24&#45;&gt;Node25 -->
<g id="edge42_Node000024_Node000025" class="edge">
<title>Node24&#45;&gt;Node25</title>
<g id="a_edge42_Node000024_Node000025"><a xlink:title=" ">
<path fill="none" stroke="#63b8ff" d="M407.67,-340.09C424.56,-331.68 449.17,-319.43 468.43,-309.84"/>
<polygon fill="#63b8ff" stroke="#63b8ff" points="469.76,-313.09 477.15,-305.5 466.64,-306.83 469.76,-313.09"/>
</a>
</g>
</g>
<!-- Node25&#45;&gt;Node9 -->
<g id="edge44_Node000025_Node000009" class="edge">
<title>Node25&#45;&gt;Node9</title>
<g id="a_edge44_Node000025_Node000009"><a xlink:title=" ">
<path fill="none" stroke="#63b8ff" d="M508.91,-283.34C517.49,-275.63 529.67,-264.7 539.88,-255.54"/>
<polygon fill="#63b8ff" stroke="#63b8ff" points="541.96,-258.37 547.06,-249.09 537.28,-253.16 541.96,-258.37"/>
</a>
</g>
</g>
<!-- Node25&#45;&gt;Node13 -->
<g id="edge43_Node000025_Node000013" class="edge">
<title>Node25&#45;&gt;Node13</title>
<g id="a_edge43_Node000025_Node000013"><a xlink:title=" ">
<path fill="none" stroke="#63b8ff" d="M530.39,-286.79C593.39,-272.5 730.88,-231.12 784,-134.25 791.52,-120.53 790.75,-102.68 788.39,-88.98"/>
<polygon fill="#63b8ff" stroke="#63b8ff" points="791.82,-88.32 786.28,-79.29 784.98,-89.8 791.82,-88.32"/>
</a>
</g>
</g>
<!-- Node25&#45;&gt;Node16 -->
<g id="edge45_Node000025_Node000016" class="edge">
<title>Node25&#45;&gt;Node16</title>
<g id="a_edge45_Node000025_Node000016"><a xlink:title=" ">
<path fill="none" stroke="#63b8ff" d="M500.79,-283.25C504.45,-270.32 511.11,-246.93 517,-227 525.34,-198.76 535.27,-166.23 541.61,-145.61"/>
<polygon fill="#63b8ff" stroke="#63b8ff" points="544.92,-146.75 544.51,-136.17 538.23,-144.69 544.92,-146.75"/>
</a>
</g>
</g>
<!-- Node25&#45;&gt;Node17 -->
<g id="edge46_Node000025_Node000017" class="edge">
<title>Node25&#45;&gt;Node17</title>
<g id="a_edge46_Node000025_Node000017"><a xlink:title=" ">
<path fill="none" stroke="#63b8ff" d="M492.61,-283.47C479.38,-259.25 445.35,-193.61 431,-134.25 427.39,-119.33 426.19,-102 425.86,-88.83"/>
<polygon fill="#63b8ff" stroke="#63b8ff" points="429.36,-89.18 425.78,-79.21 422.36,-89.23 429.36,-89.18"/>
</a>
</g>
</g>
</g>
</svg>
