<?xml version="1.0" encoding="UTF-8" standalone="no"?>
<!DOCTYPE svg PUBLIC "-//W3C//DTD SVG 1.1//EN"
 "http://www.w3.org/Graphics/SVG/1.1/DTD/svg11.dtd">
<!-- Generated by graphviz version 13.1.2 (20250809.0930)
 -->
<!-- Title: GreenFHom3D.h Pages: 1 -->
<!--zoomable 313 -->

<svg id="main" version="1.1" xmlns="http://www.w3.org/2000/svg" xmlns:xlink="http://www.w3.org/1999/xlink" xml:space="preserve" onload="init(evt)">

<style type="text/css"><![CDATA[
.node, .edge {opacity: 0.7;}
.node.selected, .edge.selected {opacity: 1;}
.edge:hover path { stroke: red; }
.edge:hover polygon { stroke: red; fill: red; }
]]></style>

<defs>
  <circle id="rim" cx="0" cy="0" r="7"/>
  <circle id="rim2" cx="0" cy="0" r="3.5"/>
  <g id="zoomPlus">
    <use xlink:href="#rim" fill="#404040"><set attributeName="fill" to="#808080" begin="zoomplus.mouseover" end="zoomplus.mouseout"/></use>
    <path d="M-4,0h8M0,-4v8" fill="none" stroke="white" stroke-width="1.5" pointer-events="none"/>
  </g>
  <g id="zoomMin">
    <use xlink:href="#rim" fill="#404040"><set attributeName="fill" to="#808080" begin="zoomminus.mouseover" end="zoomminus.mouseout"/></use>
    <path d="M-4,0h8" fill="none" stroke="white" stroke-width="1.5" pointer-events="none"/>
  </g>
  <g id="arrowUp" transform="translate(30 24)">
    <use xlink:href="#rim"/>
    <path pointer-events="none" fill="none" stroke="white" stroke-width="1.5" d="M0,-3.0v7 M-2.5,-0.5L0,-3.0L2.5,-0.5"/>
  </g>
  <g id="arrowRight" transform="rotate(90) translate(36 -43)">
    <use xlink:href="#rim"/>
    <path pointer-events="none" fill="none" stroke="white" stroke-width="1.5" d="M0,-3.0v7 M-2.5,-0.5L0,-3.0L2.5,-0.5"/>
  </g>
  <g id="arrowDown" transform="rotate(180) translate(-30 -48)">
    <use xlink:href="#rim"/>
    <path pointer-events="none" fill="none" stroke="white" stroke-width="1.5" d="M0,-3.0v7 M-2.5,-0.5L0,-3.0L2.5,-0.5"/>
  </g>
  <g id="arrowLeft" transform="rotate(270) translate(-36 17)">
    <use xlink:href="#rim"/>
    <path pointer-events="none" fill="none" stroke="white" stroke-width="1.5" d="M0,-3.0v7 M-2.5,-0.5L0,-3.0L2.5,-0.5"/>
  </g>
  <g id="resetDef">
    <use xlink:href="#rim2" fill="#404040"><set attributeName="fill" to="#808080" begin="reset.mouseover" end="reset.mouseout"/></use>
  </g>
</defs>
<script type="application/ecmascript">
var viewWidth = 951;
var viewHeight = 313;
var sectionId = 'dynsection-1';
</script>
<script type="application/ecmascript" xlink:href="svg.min.js"/>
<svg id="graph" class="graph">
<g id="viewport">
<title>GreenFHom3D.h</title>
<!-- Node1 -->
<g id="Node000001" class="node">
<title>Node1</title>
<g id="a_Node000001"><a xlink:title="3D scalar/dyadic Green&#39;s function in a homogeneous background.">
<polygon fill="#999999" stroke="#666666" points="566.12,-304.5 469.12,-304.5 469.12,-283.75 566.12,-283.75 566.12,-304.5"/>
<text xml:space="preserve" text-anchor="middle" x="517.62" y="-291" font-family="Helvetica,sans-Serif" font-size="10.00">GreenFHom3D.h</text>
</a>
</g>
</g>
<!-- Node2 -->
<g id="Node000002" class="node">
<title>Node2</title>
<g id="a_Node000002"><a xlink:href="DomainHom3D_8h.html" target="_top" xlink:title="Homogeneous 3D simulation domain (derived from Domain).">
<polygon fill="white" stroke="#666666" points="447.62,-247.75 347.62,-247.75 347.62,-227 447.62,-227 447.62,-247.75"/>
<text xml:space="preserve" text-anchor="middle" x="397.62" y="-234.25" font-family="Helvetica,sans-Serif" font-size="10.00">DomainHom3D.h</text>
</a>
</g>
</g>
<!-- Node1&#45;&gt;Node2 -->
<g id="edge1_Node000001_Node000002" class="edge">
<title>Node1&#45;&gt;Node2</title>
<g id="a_edge1_Node000001_Node000002"><a xlink:title=" ">
<path fill="none" stroke="#63b8ff" d="M485.74,-278.58C464.6,-268.93 437.44,-256.54 418.89,-248.08"/>
<polygon fill="#63b8ff" stroke="#63b8ff" points="484.24,-281.74 494.79,-282.71 487.15,-275.37 484.24,-281.74"/>
</a>
</g>
</g>
<!-- Node12 -->
<g id="Node000012" class="node">
<title>Node12</title>
<g id="a_Node000012"><a xlink:href="DomainLayered3D_8h.html" target="_top" xlink:title="Layered 3D simulation domain (derived from Domain).">
<polygon fill="white" stroke="#666666" points="485.5,-77.5 369.75,-77.5 369.75,-56.75 485.5,-56.75 485.5,-77.5"/>
<text xml:space="preserve" text-anchor="middle" x="427.62" y="-64" font-family="Helvetica,sans-Serif" font-size="10.00">DomainLayered3D.h</text>
</a>
</g>
</g>
<!-- Node1&#45;&gt;Node12 -->
<g id="edge19_Node000001_Node000012" class="edge">
<title>Node1&#45;&gt;Node12</title>
<g id="a_edge19_Node000001_Node000012"><a xlink:title=" ">
<path fill="none" stroke="#63b8ff" d="M512.41,-272.64C503.37,-238.62 483.18,-168.75 456.62,-113.5 450.39,-100.52 441.16,-86.74 434.8,-77.81"/>
<polygon fill="#63b8ff" stroke="#63b8ff" points="508.94,-273.2 514.85,-281.99 515.71,-271.43 508.94,-273.2"/>
</a>
</g>
</g>
<!-- Node15 -->
<g id="Node000015" class="node">
<title>Node15</title>
<g id="a_Node000015"><a xlink:href="GreenFHom3D_8cpp.html" target="_top" xlink:title="Implementation of the 3D Green&#39;s Function class in a homogeneous background.">
<polygon fill="white" stroke="#666666" points="830.75,-247.75 722.5,-247.75 722.5,-227 830.75,-227 830.75,-247.75"/>
<text xml:space="preserve" text-anchor="middle" x="776.62" y="-234.25" font-family="Helvetica,sans-Serif" font-size="10.00">GreenFHom3D.cpp</text>
</a>
</g>
</g>
<!-- Node1&#45;&gt;Node15 -->
<g id="edge20_Node000001_Node000015" class="edge">
<title>Node1&#45;&gt;Node15</title>
<g id="a_edge20_Node000001_Node000015"><a xlink:title=" ">
<path fill="none" stroke="#63b8ff" d="M575.36,-280.92C621.94,-271.07 686.62,-257.4 729.96,-248.24"/>
<polygon fill="#63b8ff" stroke="#63b8ff" points="574.77,-277.47 565.71,-282.96 576.22,-284.32 574.77,-277.47"/>
</a>
</g>
</g>
<!-- Node16 -->
<g id="Node000016" class="node">
<title>Node16</title>
<g id="a_Node000016"><a xlink:href="GreenFHom3DPer_8h.html" target="_top" xlink:title="Periodic homogeneous 3D Green&#39;s function (abstract base).">
<polygon fill="white" stroke="#666666" points="704.62,-247.75 592.62,-247.75 592.62,-227 704.62,-227 704.62,-247.75"/>
<text xml:space="preserve" text-anchor="middle" x="648.62" y="-234.25" font-family="Helvetica,sans-Serif" font-size="10.00">GreenFHom3DPer.h</text>
</a>
</g>
</g>
<!-- Node1&#45;&gt;Node16 -->
<g id="edge21_Node000001_Node000016" class="edge">
<title>Node1&#45;&gt;Node16</title>
<g id="a_edge21_Node000001_Node000016"><a xlink:title=" ">
<path fill="none" stroke="#63b8ff" d="M551.48,-278.97C574.7,-269.27 604.89,-256.66 625.41,-248.08"/>
<polygon fill="#63b8ff" stroke="#63b8ff" points="550.32,-275.67 542.44,-282.75 553.02,-282.13 550.32,-275.67"/>
</a>
</g>
</g>
<!-- Node3 -->
<g id="Node000003" class="node">
<title>Node3</title>
<g id="a_Node000003"><a xlink:href="DomainHom3D_8cpp.html" target="_top" xlink:title="Implementation of the homogeneous 3D domain.">
<polygon fill="white" stroke="#666666" points="111.25,-20.75 0,-20.75 0,0 111.25,0 111.25,-20.75"/>
<text xml:space="preserve" text-anchor="middle" x="55.62" y="-7.25" font-family="Helvetica,sans-Serif" font-size="10.00">DomainHom3D.cpp</text>
</a>
</g>
</g>
<!-- Node2&#45;&gt;Node3 -->
<g id="edge2_Node000002_Node000003" class="edge">
<title>Node2&#45;&gt;Node3</title>
<g id="a_edge2_Node000002_Node000003"><a xlink:title=" ">
<path fill="none" stroke="#63b8ff" d="M336.52,-225.15C303.39,-217.82 262.26,-206.66 227.62,-191 186.24,-172.28 175.18,-165.93 142.62,-134.25 105.16,-97.8 73.13,-43.3 60.91,-21.21"/>
<polygon fill="#63b8ff" stroke="#63b8ff" points="335.43,-228.5 345.94,-227.17 336.9,-221.65 335.43,-228.5"/>
</a>
</g>
</g>
<!-- Node4 -->
<g id="Node000004" class="node">
<title>Node4</title>
<g id="a_Node000004"><a xlink:href="DomainHom3DPer_8h.html" target="_top" xlink:title="Homogeneous 3D domain with in‑plane periodicity (derived from DomainHom3D).">
<polygon fill="white" stroke="#666666" points="657.12,-191 542.12,-191 542.12,-170.25 657.12,-170.25 657.12,-191"/>
<text xml:space="preserve" text-anchor="middle" x="599.62" y="-177.5" font-family="Helvetica,sans-Serif" font-size="10.00">DomainHom3DPer.h</text>
</a>
</g>
</g>
<!-- Node2&#45;&gt;Node4 -->
<g id="edge3_Node000002_Node000004" class="edge">
<title>Node2&#45;&gt;Node4</title>
<g id="a_edge3_Node000002_Node000004"><a xlink:title=" ">
<path fill="none" stroke="#63b8ff" d="M444.54,-223.66C480.8,-213.83 530.26,-200.43 563.48,-191.42"/>
<polygon fill="#63b8ff" stroke="#63b8ff" points="443.94,-220.2 435.2,-226.19 445.77,-226.95 443.94,-220.2"/>
</a>
</g>
</g>
<!-- Node6 -->
<g id="Node000006" class="node">
<title>Node6</title>
<g id="a_Node000006"><a xlink:href="SimJob_8cpp.html" target="_top" xlink:title="Implementation for the SimJob class.">
<polygon fill="white" stroke="#666666" points="548.62,-20.75 478.62,-20.75 478.62,0 548.62,0 548.62,-20.75"/>
<text xml:space="preserve" text-anchor="middle" x="513.62" y="-7.25" font-family="Helvetica,sans-Serif" font-size="10.00">SimJob.cpp</text>
</a>
</g>
</g>
<!-- Node2&#45;&gt;Node6 -->
<g id="edge6_Node000002_Node000006" class="edge">
<title>Node2&#45;&gt;Node6</title>
<g id="a_edge6_Node000002_Node000006"><a xlink:title=" ">
<path fill="none" stroke="#63b8ff" d="M411.43,-217.57C432.05,-188.73 471.01,-131.26 494.62,-77.5 503.08,-58.25 508.89,-34.22 511.7,-21.07"/>
<polygon fill="#63b8ff" stroke="#63b8ff" points="408.64,-215.46 405.61,-225.62 414.31,-219.57 408.64,-215.46"/>
</a>
</g>
</g>
<!-- Node7 -->
<g id="Node000007" class="node">
<title>Node7</title>
<g id="a_Node000007"><a xlink:href="SommerfeldIntegrator_8h.html" target="_top" xlink:title="Declaration of the SommerfeldIntegrator class, which evaluates Sommerfeld&#45;type integrals for layered ...">
<polygon fill="white" stroke="#666666" points="368.75,-191 236.5,-191 236.5,-170.25 368.75,-170.25 368.75,-191"/>
<text xml:space="preserve" text-anchor="middle" x="302.62" y="-177.5" font-family="Helvetica,sans-Serif" font-size="10.00">SommerfeldIntegrator.h</text>
</a>
</g>
</g>
<!-- Node2&#45;&gt;Node7 -->
<g id="edge7_Node000002_Node000007" class="edge">
<title>Node2&#45;&gt;Node7</title>
<g id="a_edge7_Node000002_Node000007"><a xlink:title=" ">
<path fill="none" stroke="#63b8ff" d="M370.99,-221.03C354.47,-211.5 333.74,-199.56 319.46,-191.33"/>
<polygon fill="#63b8ff" stroke="#63b8ff" points="368.92,-223.87 379.33,-225.83 372.41,-217.81 368.92,-223.87"/>
</a>
</g>
</g>
<!-- Node5 -->
<g id="Node000005" class="node">
<title>Node5</title>
<g id="a_Node000005"><a xlink:href="DomainHom3DPer_8cpp.html" target="_top" xlink:title="Implementation of the homogeneous, periodically replicated 3D domain.">
<polygon fill="white" stroke="#666666" points="705.75,-134.25 579.5,-134.25 579.5,-113.5 705.75,-113.5 705.75,-134.25"/>
<text xml:space="preserve" text-anchor="middle" x="642.62" y="-120.75" font-family="Helvetica,sans-Serif" font-size="10.00">DomainHom3DPer.cpp</text>
</a>
</g>
</g>
<!-- Node4&#45;&gt;Node5 -->
<g id="edge4_Node000004_Node000005" class="edge">
<title>Node4&#45;&gt;Node5</title>
<g id="a_edge4_Node000004_Node000005"><a xlink:title=" ">
<path fill="none" stroke="#63b8ff" d="M614.29,-160.96C621.25,-152.09 629.27,-141.87 635,-134.58"/>
<polygon fill="#63b8ff" stroke="#63b8ff" points="611.67,-158.62 608.25,-168.65 617.18,-162.94 611.67,-158.62"/>
</a>
</g>
</g>
<!-- Node4&#45;&gt;Node6 -->
<g id="edge5_Node000004_Node000006" class="edge">
<title>Node4&#45;&gt;Node6</title>
<g id="a_edge5_Node000004_Node000006"><a xlink:title=" ">
<path fill="none" stroke="#63b8ff" d="M586.49,-160.34C581.3,-152.4 575.44,-143.03 570.62,-134.25 548.24,-93.42 526.38,-42.25 517.63,-21.15"/>
<polygon fill="#63b8ff" stroke="#63b8ff" points="583.48,-162.13 591.94,-168.51 589.3,-158.25 583.48,-162.13"/>
</a>
</g>
</g>
<!-- Node8 -->
<g id="Node000008" class="node">
<title>Node8</title>
<g id="a_Node000008"><a xlink:href="DomainLayered3D_8cpp.html" target="_top" xlink:title="Implementation of the layered 3D domain.">
<polygon fill="white" stroke="#666666" points="256.12,-20.75 129.12,-20.75 129.12,0 256.12,0 256.12,-20.75"/>
<text xml:space="preserve" text-anchor="middle" x="192.62" y="-7.25" font-family="Helvetica,sans-Serif" font-size="10.00">DomainLayered3D.cpp</text>
</a>
</g>
</g>
<!-- Node7&#45;&gt;Node8 -->
<g id="edge8_Node000007_Node000008" class="edge">
<title>Node7&#45;&gt;Node8</title>
<g id="a_edge8_Node000007_Node000008"><a xlink:title=" ">
<path fill="none" stroke="#63b8ff" d="M225.06,-167.41C203.25,-160.7 181.04,-150.32 164.62,-134.25 139.21,-109.36 130.55,-89.42 144.62,-56.75 151.16,-41.58 165.53,-29.12 176.85,-21.12"/>
<polygon fill="#63b8ff" stroke="#63b8ff" points="224.01,-170.75 234.58,-170.09 225.91,-164.01 224.01,-170.75"/>
</a>
</g>
</g>
<!-- Node9 -->
<g id="Node000009" class="node">
<title>Node9</title>
<g id="a_Node000009"><a xlink:href="GreenFLayered3D_8h.html" target="_top" xlink:title="Layered‑medium 3D Green&#39;s function (scalar/gradient/dyadic) + RWG integrals.">
<polygon fill="white" stroke="#666666" points="286,-134.25 173.25,-134.25 173.25,-113.5 286,-113.5 286,-134.25"/>
<text xml:space="preserve" text-anchor="middle" x="229.62" y="-120.75" font-family="Helvetica,sans-Serif" font-size="10.00">GreenFLayered3D.h</text>
</a>
</g>
</g>
<!-- Node7&#45;&gt;Node9 -->
<g id="edge9_Node000007_Node000009" class="edge">
<title>Node7&#45;&gt;Node9</title>
<g id="a_edge9_Node000007_Node000009"><a xlink:title=" ">
<path fill="none" stroke="#63b8ff" d="M280.71,-163.19C268.27,-153.86 253.12,-142.5 242.56,-134.58"/>
<polygon fill="#63b8ff" stroke="#63b8ff" points="278.26,-165.73 288.36,-168.93 282.46,-160.13 278.26,-165.73"/>
</a>
</g>
</g>
<!-- Node14 -->
<g id="Node000014" class="node">
<title>Node14</title>
<g id="a_Node000014"><a xlink:href="SommerfeldIntegrator_8cpp.html" target="_top" xlink:title="Implementation of SommerfeldIntegrator: contour construction, integrand assembly, QUADPACK integratio...">
<polygon fill="white" stroke="#666666" points="447.38,-134.25 303.88,-134.25 303.88,-113.5 447.38,-113.5 447.38,-134.25"/>
<text xml:space="preserve" text-anchor="middle" x="375.62" y="-120.75" font-family="Helvetica,sans-Serif" font-size="10.00">SommerfeldIntegrator.cpp</text>
</a>
</g>
</g>
<!-- Node7&#45;&gt;Node14 -->
<g id="edge18_Node000007_Node000014" class="edge">
<title>Node7&#45;&gt;Node14</title>
<g id="a_edge18_Node000007_Node000014"><a xlink:title=" ">
<path fill="none" stroke="#63b8ff" d="M324.54,-163.19C336.98,-153.86 352.13,-142.5 362.69,-134.58"/>
<polygon fill="#63b8ff" stroke="#63b8ff" points="322.79,-160.13 316.89,-168.93 326.99,-165.73 322.79,-160.13"/>
</a>
</g>
</g>
<!-- Node10 -->
<g id="Node000010" class="node">
<title>Node10</title>
<g id="a_Node000010"><a xlink:href="Dipole_8h.html" target="_top" xlink:title="Incident field generator for electric dipole illumination in homogeneous or layered media.">
<polygon fill="white" stroke="#666666" points="209.88,-77.5 153.38,-77.5 153.38,-56.75 209.88,-56.75 209.88,-77.5"/>
<text xml:space="preserve" text-anchor="middle" x="181.62" y="-64" font-family="Helvetica,sans-Serif" font-size="10.00">Dipole.h</text>
</a>
</g>
</g>
<!-- Node9&#45;&gt;Node10 -->
<g id="edge10_Node000009_Node000010" class="edge">
<title>Node9&#45;&gt;Node10</title>
<g id="a_edge10_Node000009_Node000010"><a xlink:title=" ">
<path fill="none" stroke="#63b8ff" d="M213.51,-104.49C205.68,-95.56 196.6,-85.2 190.13,-77.83"/>
<polygon fill="#63b8ff" stroke="#63b8ff" points="210.82,-106.74 220.05,-111.95 216.09,-102.12 210.82,-106.74"/>
</a>
</g>
</g>
<!-- Node9&#45;&gt;Node12 -->
<g id="edge14_Node000009_Node000012" class="edge">
<title>Node9&#45;&gt;Node12</title>
<g id="a_edge14_Node000009_Node000012"><a xlink:title=" ">
<path fill="none" stroke="#63b8ff" d="M276.07,-110.03C311.57,-100.22 359.77,-86.89 392.2,-77.92"/>
<polygon fill="#63b8ff" stroke="#63b8ff" points="275.19,-106.64 266.48,-112.68 277.05,-113.39 275.19,-106.64"/>
</a>
</g>
</g>
<!-- Node13 -->
<g id="Node000013" class="node">
<title>Node13</title>
<g id="a_Node000013"><a xlink:href="GreenFLayered3D_8cpp.html" target="_top" xlink:title="Implementation of the 3D Green&#39;s Function class in a layered background.">
<polygon fill="white" stroke="#666666" points="351.62,-77.5 227.62,-77.5 227.62,-56.75 351.62,-56.75 351.62,-77.5"/>
<text xml:space="preserve" text-anchor="middle" x="289.62" y="-64" font-family="Helvetica,sans-Serif" font-size="10.00">GreenFLayered3D.cpp</text>
</a>
</g>
</g>
<!-- Node9&#45;&gt;Node13 -->
<g id="edge17_Node000009_Node000013" class="edge">
<title>Node9&#45;&gt;Node13</title>
<g id="a_edge17_Node000009_Node000013"><a xlink:title=" ">
<path fill="none" stroke="#63b8ff" d="M248.85,-105.33C258.84,-96.22 270.66,-85.43 278.99,-77.83"/>
<polygon fill="#63b8ff" stroke="#63b8ff" points="246.5,-102.74 241.47,-112.07 251.22,-107.91 246.5,-102.74"/>
</a>
</g>
</g>
<!-- Node10&#45;&gt;Node3 -->
<g id="edge12_Node000010_Node000003" class="edge">
<title>Node10&#45;&gt;Node3</title>
<g id="a_edge12_Node000010_Node000003"><a xlink:title=" ">
<path fill="none" stroke="#63b8ff" d="M148.76,-51.84C126.47,-42.16 97.6,-29.62 77.96,-21.08"/>
<polygon fill="#63b8ff" stroke="#63b8ff" points="147.14,-54.96 157.71,-55.73 149.93,-48.54 147.14,-54.96"/>
</a>
</g>
</g>
<!-- Node10&#45;&gt;Node8 -->
<g id="edge13_Node000010_Node000008" class="edge">
<title>Node10&#45;&gt;Node8</title>
<g id="a_edge13_Node000010_Node000008"><a xlink:title=" ">
<path fill="none" stroke="#63b8ff" d="M185.84,-45.17C187.5,-36.88 189.33,-27.75 190.68,-21.08"/>
<polygon fill="#63b8ff" stroke="#63b8ff" points="182.43,-44.36 183.89,-54.85 189.29,-45.74 182.43,-44.36"/>
</a>
</g>
</g>
<!-- Node11 -->
<g id="Node000011" class="node">
<title>Node11</title>
<g id="a_Node000011"><a xlink:href="Dipole_8cpp.html" target="_top" xlink:title="Implementation of the Dipole incident source.">
<polygon fill="white" stroke="#666666" points="341.5,-20.75 273.75,-20.75 273.75,0 341.5,0 341.5,-20.75"/>
<text xml:space="preserve" text-anchor="middle" x="307.62" y="-7.25" font-family="Helvetica,sans-Serif" font-size="10.00">Dipole.cpp</text>
</a>
</g>
</g>
<!-- Node10&#45;&gt;Node11 -->
<g id="edge11_Node000010_Node000011" class="edge">
<title>Node10&#45;&gt;Node11</title>
<g id="a_edge11_Node000010_Node000011"><a xlink:title=" ">
<path fill="none" stroke="#63b8ff" d="M214.49,-51.84C236.78,-42.16 265.65,-29.62 285.29,-21.08"/>
<polygon fill="#63b8ff" stroke="#63b8ff" points="213.32,-48.54 205.54,-55.73 216.11,-54.96 213.32,-48.54"/>
</a>
</g>
</g>
<!-- Node12&#45;&gt;Node6 -->
<g id="edge16_Node000012_Node000006" class="edge">
<title>Node12&#45;&gt;Node6</title>
<g id="a_edge16_Node000012_Node000006"><a xlink:title=" ">
<path fill="none" stroke="#63b8ff" d="M452.59,-50.23C467.4,-40.8 485.7,-29.15 498.38,-21.08"/>
<polygon fill="#63b8ff" stroke="#63b8ff" points="450.83,-47.2 444.28,-55.52 454.59,-53.11 450.83,-47.2"/>
</a>
</g>
</g>
<!-- Node12&#45;&gt;Node8 -->
<g id="edge15_Node000012_Node000008" class="edge">
<title>Node12&#45;&gt;Node8</title>
<g id="a_edge15_Node000012_Node000008"><a xlink:title=" ">
<path fill="none" stroke="#63b8ff" d="M374.17,-53.67C331.99,-43.84 273.96,-30.32 234.97,-21.24"/>
<polygon fill="#63b8ff" stroke="#63b8ff" points="373.33,-57.07 383.87,-55.93 374.92,-50.25 373.33,-57.07"/>
</a>
</g>
</g>
<!-- Node17 -->
<g id="Node000017" class="node">
<title>Node17</title>
<g id="a_Node000017"><a xlink:href="GreenFHom3DPer_8cpp.html" target="_top" xlink:title="Implementation of the periodic homogeneous 3D Green&#39;s function base.">
<polygon fill="white" stroke="#666666" points="943.25,-191 820,-191 820,-170.25 943.25,-170.25 943.25,-191"/>
<text xml:space="preserve" text-anchor="middle" x="881.62" y="-177.5" font-family="Helvetica,sans-Serif" font-size="10.00">GreenFHom3DPer.cpp</text>
</a>
</g>
</g>
<!-- Node16&#45;&gt;Node17 -->
<g id="edge22_Node000016_Node000017" class="edge">
<title>Node16&#45;&gt;Node17</title>
<g id="a_edge22_Node000016_Node000017"><a xlink:title=" ">
<path fill="none" stroke="#63b8ff" d="M701.63,-223.92C743.45,-214.09 800.98,-200.57 839.64,-191.49"/>
<polygon fill="#63b8ff" stroke="#63b8ff" points="700.96,-220.48 692.02,-226.18 702.56,-227.3 700.96,-220.48"/>
</a>
</g>
</g>
<!-- Node18 -->
<g id="Node000018" class="node">
<title>Node18</title>
<g id="a_Node000018"><a xlink:href="GreenFHom3DPer2D_8h.html" target="_top" xlink:title="Periodic homogeneous 3D Green&#39;s function with 2D in‑plane periodicity.">
<polygon fill="white" stroke="#666666" points="801.75,-191 675.5,-191 675.5,-170.25 801.75,-170.25 801.75,-191"/>
<text xml:space="preserve" text-anchor="middle" x="738.62" y="-177.5" font-family="Helvetica,sans-Serif" font-size="10.00">GreenFHom3DPer2D.h</text>
</a>
</g>
</g>
<!-- Node16&#45;&gt;Node18 -->
<g id="edge23_Node000016_Node000018" class="edge">
<title>Node16&#45;&gt;Node18</title>
<g id="a_edge23_Node000016_Node000018"><a xlink:title=" ">
<path fill="none" stroke="#63b8ff" d="M674.3,-220.76C689.88,-211.28 709.28,-199.48 722.67,-191.33"/>
<polygon fill="#63b8ff" stroke="#63b8ff" points="672.73,-217.61 666.01,-225.8 676.37,-223.59 672.73,-217.61"/>
</a>
</g>
</g>
<!-- Node18&#45;&gt;Node5 -->
<g id="edge24_Node000018_Node000005" class="edge">
<title>Node18&#45;&gt;Node5</title>
<g id="a_edge24_Node000018_Node000005"><a xlink:title=" ">
<path fill="none" stroke="#63b8ff" d="M711.71,-164.28C695.01,-154.75 674.07,-142.81 659.64,-134.58"/>
<polygon fill="#63b8ff" stroke="#63b8ff" points="709.73,-167.17 720.15,-169.09 713.19,-161.09 709.73,-167.17"/>
</a>
</g>
</g>
<!-- Node19 -->
<g id="Node000019" class="node">
<title>Node19</title>
<g id="a_Node000019"><a xlink:href="GreenFHom3DPer2D_8cpp.html" target="_top" xlink:title="Implementation of the 2D&#45;periodic homogeneous 3D Green&#39;s function.">
<polygon fill="white" stroke="#666666" points="861.38,-134.25 723.88,-134.25 723.88,-113.5 861.38,-113.5 861.38,-134.25"/>
<text xml:space="preserve" text-anchor="middle" x="792.62" y="-120.75" font-family="Helvetica,sans-Serif" font-size="10.00">GreenFHom3DPer2D.cpp</text>
</a>
</g>
</g>
<!-- Node18&#45;&gt;Node19 -->
<g id="edge25_Node000018_Node000019" class="edge">
<title>Node18&#45;&gt;Node19</title>
<g id="a_edge25_Node000018_Node000019"><a xlink:title=" ">
<path fill="none" stroke="#63b8ff" d="M756.2,-161.8C765.13,-152.75 775.63,-142.11 783.05,-134.58"/>
<polygon fill="#63b8ff" stroke="#63b8ff" points="753.87,-159.18 749.34,-168.76 758.86,-164.1 753.87,-159.18"/>
</a>
</g>
</g>
</g>
</svg>

<g id="navigator" transform="translate(0 0)" fill="#404254">
  <rect fill="#f2f5e9" fill-opacity="0.5" stroke="#606060" stroke-width=".5" x="0" y="0" width="60" height="60"/>
  <use id="zoomplus" xlink:href="#zoomPlus" x="17" y="9" onmousedown="handleZoom(evt,'in')"/>
  <use id="zoomminus" xlink:href="#zoomMin" x="42" y="9" onmousedown="handleZoom(evt,'out')"/>
  <use id="reset" xlink:href="#resetDef" x="30" y="36" onmousedown="handleReset()"/>
   <use id="arrowup" xlink:href="#arrowUp" x="0" y="0" onmousedown="handlePan(0,-1)"/>
  <use id="arrowright" xlink:href="#arrowRight" x="0" y="0" onmousedown="handlePan(1,0)"/>
  <use id="arrowdown" xlink:href="#arrowDown" x="0" y="0" onmousedown="handlePan(0,1)"/>
  <use id="arrowleft" xlink:href="#arrowLeft" x="0" y="0" onmousedown="handlePan(-1,0)"/>
</g>
<svg viewBox="0 0 15 15" width="100%" height="30px" preserveAspectRatio="xMaxYMin meet">
 <g id="arrow_out" transform="scale(0.3 0.3)">
  <a xlink:href="GreenFHom3D_8h__dep__incl_org.svg" target="_base">
   <rect id="button" ry="5" rx="5" y="6" x="6" height="38" width="38"
        fill="#f2f5e9" fill-opacity="0.5" stroke="#606060" stroke-width="1.0"/>
   <path id="arrow"
     d="M 11.500037,31.436501 C 11.940474,20.09759 22.043105,11.32322 32.158766,21.979434 L 37.068811,17.246167 C 37.068811,17.246167 37.088388,32 37.088388,32 L 22.160133,31.978069 C 22.160133,31.978069 26.997745,27.140456 26.997745,27.140456 C 18.528582,18.264221 13.291696,25.230495 11.500037,31.436501 z"
     style="fill:#404040;"/>
  </a>
 </g>
</svg>

<style type='text/css'>
<![CDATA[
[data-mouse-over-selected='false'] { opacity: 0.7; }
[data-mouse-over-selected='true']  { opacity: 1.0; }
]]>
</style>
<script type="application/ecmascript"><![CDATA[
document.addEventListener('DOMContentLoaded', (event) => {
  highlightEdges();
  highlightAdjacentNodes();
});
]]></script>
</svg>
