<?xml version="1.0" encoding="UTF-8" standalone="no"?>
<!DOCTYPE svg PUBLIC "-//W3C//DTD SVG 1.1//EN"
 "http://www.w3.org/Graphics/SVG/1.1/DTD/svg11.dtd">
<!-- Generated by graphviz version 13.1.2 (20250809.0930)
 -->
<!-- Title: ReadCommented Pages: 1 -->
<svg width="795pt" height="252pt"
 viewBox="0.00 0.00 795.00 252.00" xmlns="http://www.w3.org/2000/svg" xmlns:xlink="http://www.w3.org/1999/xlink">
<g id="graph0" class="graph" transform="scale(1 1) rotate(0) translate(4 248.43)">
<title>ReadCommented</title>
<!-- Node1 -->
<g id="Node000001" class="node">
<title>Node1</title>
<g id="a_Node000001"><a xlink:title="Read a value of type T from a text stream, skipping lines beginning with &#39;#&#39;.">
<polygon fill="#999999" stroke="#666666" points="787.25,-137.75 686.5,-137.75 686.5,-117 787.25,-117 787.25,-137.75"/>
<text xml:space="preserve" text-anchor="middle" x="736.88" y="-124.25" font-family="Helvetica,sans-Serif" font-size="10.00">ReadCommented</text>
</a>
</g>
</g>
<!-- Node2 -->
<g id="Node000002" class="node">
<title>Node2</title>
<g id="a_Node000002"><a xlink:href="classSimJob.html#a20b37e2e0aa2502a3ec465a5705b1774" target="_top" xlink:title="Evaluate fields on a set of points read from a file.">
<polygon fill="white" stroke="#666666" points="404.62,-215.75 304.62,-215.75 304.62,-195 404.62,-195 404.62,-215.75"/>
<text xml:space="preserve" text-anchor="middle" x="354.62" y="-202.25" font-family="Helvetica,sans-Serif" font-size="10.00">SimJob::FieldEval</text>
</a>
</g>
</g>
<!-- Node1&#45;&gt;Node2 -->
<g id="edge1_Node000001_Node000002" class="edge">
<title>Node1&#45;&gt;Node2</title>
<g id="a_edge1_Node000001_Node000002"><a xlink:title=" ">
<path fill="none" stroke="#63b8ff" d="M724.8,-148.23C710.98,-171.78 684.91,-208.82 650.5,-224.38 561.22,-264.73 441.02,-234.29 385.73,-216.23"/>
<polygon fill="#63b8ff" stroke="#63b8ff" points="727.85,-149.96 729.69,-139.52 721.75,-146.53 727.85,-149.96"/>
</a>
</g>
</g>
<!-- Node4 -->
<g id="Node000004" class="node">
<title>Node4</title>
<g id="a_Node000004"><a xlink:href="classSurfaceMesh.html#ad8ac4a9fe716d917b92e245d091ab553" target="_top" xlink:title="Read mesh from the custom &quot;.mesh&quot; text format.">
<polygon fill="white" stroke="#666666" points="646.38,-176.75 469.88,-176.75 469.88,-156 646.38,-156 646.38,-176.75"/>
<text xml:space="preserve" text-anchor="middle" x="558.12" y="-163.25" font-family="Helvetica,sans-Serif" font-size="10.00">SurfaceMesh::LoadFromMeshFile</text>
</a>
</g>
</g>
<!-- Node1&#45;&gt;Node4 -->
<g id="edge3_Node000001_Node000004" class="edge">
<title>Node1&#45;&gt;Node4</title>
<g id="a_edge3_Node000001_Node000004"><a xlink:title=" ">
<path fill="none" stroke="#63b8ff" d="M676.61,-140.59C667.86,-142.54 658.94,-144.51 650.5,-146.38 637.02,-149.35 622.42,-152.55 608.93,-155.51"/>
<polygon fill="#63b8ff" stroke="#63b8ff" points="677.09,-144.07 686.09,-138.48 675.57,-137.24 677.09,-144.07"/>
</a>
</g>
</g>
<!-- Node7 -->
<g id="Node000007" class="node">
<title>Node7</title>
<g id="a_Node000007"><a xlink:href="classSurfaceMesh.html#ab392f262cacf93c286ef49cbe95f2a66" target="_top" xlink:title="Read mesh from a COMSOL &quot;.mphtxt&quot; file.">
<polygon fill="white" stroke="#666666" points="650.5,-137.75 465.75,-137.75 465.75,-117 650.5,-117 650.5,-137.75"/>
<text xml:space="preserve" text-anchor="middle" x="558.12" y="-124.25" font-family="Helvetica,sans-Serif" font-size="10.00">SurfaceMesh::LoadFromMphtxtFile</text>
</a>
</g>
</g>
<!-- Node1&#45;&gt;Node7 -->
<g id="edge7_Node000001_Node000007" class="edge">
<title>Node1&#45;&gt;Node7</title>
<g id="a_edge7_Node000001_Node000007"><a xlink:title=" ">
<path fill="none" stroke="#63b8ff" d="M674.75,-127.38C667.05,-127.38 659.04,-127.38 651,-127.38"/>
<polygon fill="#63b8ff" stroke="#63b8ff" points="674.66,-130.88 684.66,-127.38 674.66,-123.88 674.66,-130.88"/>
</a>
</g>
</g>
<!-- Node8 -->
<g id="Node000008" class="node">
<title>Node8</title>
<g id="a_Node000008"><a xlink:href="classSurfaceMesh.html#ae7486b3dfa647ae8ee6063bd6297f5ff" target="_top" xlink:title="Read mesh from a Gmsh &quot;.msh&quot; file (v2 text).">
<polygon fill="white" stroke="#666666" points="643.38,-98.75 472.88,-98.75 472.88,-78 643.38,-78 643.38,-98.75"/>
<text xml:space="preserve" text-anchor="middle" x="558.12" y="-85.25" font-family="Helvetica,sans-Serif" font-size="10.00">SurfaceMesh::LoadFromMshFile</text>
</a>
</g>
</g>
<!-- Node1&#45;&gt;Node8 -->
<g id="edge9_Node000001_Node000008" class="edge">
<title>Node1&#45;&gt;Node8</title>
<g id="a_edge9_Node000001_Node000008"><a xlink:title=" ">
<path fill="none" stroke="#63b8ff" d="M676.61,-114.16C667.86,-112.21 658.94,-110.24 650.5,-108.38 637.02,-105.4 622.42,-102.2 608.93,-99.24"/>
<polygon fill="#63b8ff" stroke="#63b8ff" points="675.57,-117.51 686.09,-116.27 677.09,-110.68 675.57,-117.51"/>
</a>
</g>
</g>
<!-- Node9 -->
<g id="Node000009" class="node">
<title>Node9</title>
<g id="a_Node000009"><a xlink:href="classSimJob.html#a5845b99ec65d0662225efd5482a4ccd1" target="_top" xlink:title="Load a previously saved solution vector into solVectors.back().">
<polygon fill="white" stroke="#666666" points="626.12,-215.75 490.12,-215.75 490.12,-195 626.12,-195 626.12,-215.75"/>
<text xml:space="preserve" text-anchor="middle" x="558.12" y="-202.25" font-family="Helvetica,sans-Serif" font-size="10.00">SimJob::LoadSolFromFile</text>
</a>
</g>
</g>
<!-- Node1&#45;&gt;Node9 -->
<g id="edge11_Node000001_Node000009" class="edge">
<title>Node1&#45;&gt;Node9</title>
<g id="a_edge11_Node000001_Node000009"><a xlink:title=" ">
<path fill="none" stroke="#63b8ff" d="M714.69,-145.17C698.18,-158.16 674.17,-175.2 650.5,-185.38 642,-189.03 632.75,-192.05 623.51,-194.54"/>
<polygon fill="#63b8ff" stroke="#63b8ff" points="716.71,-148.03 722.3,-139.03 712.32,-142.58 716.71,-148.03"/>
</a>
</g>
</g>
<!-- Node10 -->
<g id="Node000010" class="node">
<title>Node10</title>
<g id="a_Node000010"><a xlink:href="classLookupTable.html#ae6e7b00a09e1e8150e013df55820cbb0" target="_top" xlink:title="Construct a LookupTable from a text file.">
<polygon fill="white" stroke="#666666" points="629.12,-59.75 487.12,-59.75 487.12,-39 629.12,-39 629.12,-59.75"/>
<text xml:space="preserve" text-anchor="middle" x="558.12" y="-46.25" font-family="Helvetica,sans-Serif" font-size="10.00">LookupTable::LookupTable</text>
</a>
</g>
</g>
<!-- Node1&#45;&gt;Node10 -->
<g id="edge13_Node000001_Node000010" class="edge">
<title>Node1&#45;&gt;Node10</title>
<g id="a_edge13_Node000001_Node000010"><a xlink:title=" ">
<path fill="none" stroke="#63b8ff" d="M714.69,-109.58C698.18,-96.59 674.17,-79.55 650.5,-69.38 642,-65.72 632.75,-62.7 623.51,-60.21"/>
<polygon fill="#63b8ff" stroke="#63b8ff" points="712.32,-112.17 722.3,-115.72 716.71,-106.72 712.32,-112.17"/>
</a>
</g>
</g>
<!-- Node11 -->
<g id="Node000011" class="node">
<title>Node11</title>
<g id="a_Node000011"><a xlink:href="group__driver.html#ga3b2ef62f0ee5a558bf60dfa50d961d7a" target="_top" xlink:title="Debug helper: read a value of type T and print it to std::cout.">
<polygon fill="white" stroke="#666666" points="599.12,-20.75 517.12,-20.75 517.12,0 599.12,0 599.12,-20.75"/>
<text xml:space="preserve" text-anchor="middle" x="558.12" y="-7.25" font-family="Helvetica,sans-Serif" font-size="10.00">ReadAndPrint</text>
</a>
</g>
</g>
<!-- Node1&#45;&gt;Node11 -->
<g id="edge14_Node000001_Node000011" class="edge">
<title>Node1&#45;&gt;Node11</title>
<g id="a_edge14_Node000001_Node000011"><a xlink:title=" ">
<path fill="none" stroke="#63b8ff" d="M723.7,-107.09C709.15,-84.71 682.71,-49.34 650.5,-30.38 635.11,-21.31 616.07,-16.34 599.37,-13.62"/>
<polygon fill="#63b8ff" stroke="#63b8ff" points="720.6,-108.74 728.88,-115.35 726.53,-105.02 720.6,-108.74"/>
</a>
</g>
</g>
<!-- Node3 -->
<g id="Node000003" class="node">
<title>Node3</title>
<g id="a_Node000003"><a xlink:href="main_8cpp.html#a0ddf1224851353fc92bfbff6f499fa97" target="_top" xlink:title="Main driver routine for the HELIOS SIE simulation program.">
<polygon fill="white" stroke="#666666" points="40.75,-176.75 0,-176.75 0,-156 40.75,-156 40.75,-176.75"/>
<text xml:space="preserve" text-anchor="middle" x="20.38" y="-163.25" font-family="Helvetica,sans-Serif" font-size="10.00">main</text>
</a>
</g>
</g>
<!-- Node2&#45;&gt;Node3 -->
<g id="edge2_Node000002_Node000003" class="edge">
<title>Node2&#45;&gt;Node3</title>
<g id="a_edge2_Node000002_Node000003"><a xlink:title=" ">
<path fill="none" stroke="#63b8ff" d="M292.9,-198.25C216.52,-189.28 89.5,-174.37 41.01,-168.68"/>
<polygon fill="#63b8ff" stroke="#63b8ff" points="292.4,-201.71 302.74,-199.4 293.22,-194.76 292.4,-201.71"/>
</a>
</g>
</g>
<!-- Node5 -->
<g id="Node000005" class="node">
<title>Node5</title>
<g id="a_Node000005"><a xlink:href="classSurfaceMesh.html#aa64ebb4992ea98778f79c272568c68d2" target="_top" xlink:title="Load a mesh from file by extension.">
<polygon fill="white" stroke="#666666" points="429.75,-157.75 279.5,-157.75 279.5,-137 429.75,-137 429.75,-157.75"/>
<text xml:space="preserve" text-anchor="middle" x="354.62" y="-144.25" font-family="Helvetica,sans-Serif" font-size="10.00">SurfaceMesh::LoadFromFile</text>
</a>
</g>
</g>
<!-- Node4&#45;&gt;Node5 -->
<g id="edge4_Node000004_Node000005" class="edge">
<title>Node4&#45;&gt;Node5</title>
<g id="a_edge4_Node000004_Node000005"><a xlink:title=" ">
<path fill="none" stroke="#63b8ff" d="M458.46,-157.07C448.92,-156.17 439.36,-155.27 430.11,-154.4"/>
<polygon fill="#63b8ff" stroke="#63b8ff" points="457.83,-160.53 468.12,-157.98 458.49,-153.56 457.83,-160.53"/>
</a>
</g>
</g>
<!-- Node6 -->
<g id="Node000006" class="node">
<title>Node6</title>
<g id="a_Node000006"><a xlink:href="classSurfaceMesh.html#aa8811e2b8b03caa6028d5d154a69ea71" target="_top" xlink:title="Convert/modify a mesh according to a conversion job file.">
<polygon fill="white" stroke="#666666" points="243.5,-157.75 76.75,-157.75 76.75,-137 243.5,-137 243.5,-157.75"/>
<text xml:space="preserve" text-anchor="middle" x="160.12" y="-144.25" font-family="Helvetica,sans-Serif" font-size="10.00">SurfaceMesh::ConvertMeshFile</text>
</a>
</g>
</g>
<!-- Node5&#45;&gt;Node6 -->
<g id="edge5_Node000005_Node000006" class="edge">
<title>Node5&#45;&gt;Node6</title>
<g id="a_edge5_Node000005_Node000006"><a xlink:title=" ">
<path fill="none" stroke="#63b8ff" d="M267.73,-147.38C259.84,-147.38 251.85,-147.38 243.99,-147.38"/>
<polygon fill="#63b8ff" stroke="#63b8ff" points="267.69,-150.88 277.69,-147.38 267.69,-143.88 267.69,-150.88"/>
</a>
</g>
</g>
<!-- Node6&#45;&gt;Node3 -->
<g id="edge6_Node000006_Node000003" class="edge">
<title>Node6&#45;&gt;Node3</title>
<g id="a_edge6_Node000006_Node000003"><a xlink:title=" ">
<path fill="none" stroke="#63b8ff" d="M69.45,-159.74C58.96,-161.19 49.18,-162.54 41.21,-163.64"/>
<polygon fill="#63b8ff" stroke="#63b8ff" points="69.67,-163.25 79.09,-158.41 68.71,-156.31 69.67,-163.25"/>
</a>
</g>
</g>
<!-- Node7&#45;&gt;Node5 -->
<g id="edge8_Node000007_Node000005" class="edge">
<title>Node7&#45;&gt;Node5</title>
<g id="a_edge8_Node000007_Node000005"><a xlink:title=" ">
<path fill="none" stroke="#63b8ff" d="M454.09,-137.6C446.01,-138.4 437.95,-139.2 430.11,-139.98"/>
<polygon fill="#63b8ff" stroke="#63b8ff" points="454.4,-141.09 464.01,-136.62 453.71,-134.12 454.4,-141.09"/>
</a>
</g>
</g>
<!-- Node8&#45;&gt;Node5 -->
<g id="edge10_Node000008_Node000005" class="edge">
<title>Node8&#45;&gt;Node5</title>
<g id="a_edge10_Node000008_Node000005"><a xlink:title=" ">
<path fill="none" stroke="#63b8ff" d="M491.07,-101.8C482.51,-103.84 473.89,-106.05 465.75,-108.38 437.08,-116.55 405.02,-128.2 382.92,-136.63"/>
<polygon fill="#63b8ff" stroke="#63b8ff" points="491.82,-105.22 500.77,-99.56 490.24,-98.4 491.82,-105.22"/>
</a>
</g>
</g>
<!-- Node9&#45;&gt;Node2 -->
<g id="edge12_Node000009_Node000002" class="edge">
<title>Node9&#45;&gt;Node2</title>
<g id="a_edge12_Node000009_Node000002"><a xlink:title=" ">
<path fill="none" stroke="#63b8ff" d="M478.54,-205.38C453.81,-205.38 427.2,-205.38 405.08,-205.38"/>
<polygon fill="#63b8ff" stroke="#63b8ff" points="478.23,-208.88 488.23,-205.38 478.23,-201.88 478.23,-208.88"/>
</a>
</g>
</g>
</g>
</svg>
