<?xml version="1.0" encoding="UTF-8" standalone="no"?>
<!DOCTYPE svg PUBLIC "-//W3C//DTD SVG 1.1//EN"
 "http://www.w3.org/Graphics/SVG/1.1/DTD/svg11.dtd">
<!-- Generated by graphviz version 13.1.2 (20250809.0930)
 -->
<!-- Title: Modules Pages: 1 -->
<svg width="238pt" height="275pt"
 viewBox="0.00 0.00 238.00 275.00" xmlns="http://www.w3.org/2000/svg" xmlns:xlink="http://www.w3.org/1999/xlink">

<svg id="main" version="1.1" xmlns="http://www.w3.org/2000/svg" xmlns:xlink="http://www.w3.org/1999/xlink" xml:space="preserve">

<style type="text/css"><![CDATA[
.node, .edge {opacity: 0.7;}
.node.selected, .edge.selected {opacity: 1;}
.edge:hover path { stroke: red; }
.edge:hover polygon { stroke: red; fill: red; }
]]></style>
<script type="application/ecmascript" xlink:href="svg.min.js"/>
<svg id="graph" class="graph">
<g id="graph0" class="graph" transform="scale(1 1) rotate(0) translate(4 271.12)">
<title>Modules</title>
<!-- Node3 -->
<g id="Node000003" class="node">
<title>Node3</title>
<g id="a_Node000003"><a xlink:href="group__domain.html" target="_top" xlink:title=" ">
<polygon fill="white" stroke="#666666" points="218.38,-267.12 104.88,-267.12 104.88,-246.38 218.38,-246.38 218.38,-267.12"/>
<text xml:space="preserve" text-anchor="middle" x="161.62" y="-253.62" font-family="Helvetica,sans-Serif" font-size="10.00">Simulation domains</text>
</a>
</g>
</g>
<!-- Node8 -->
<g id="Node000008" class="node">
<title>Node8</title>
<g id="a_Node000008"><a xlink:href="group__driver.html" target="_top" xlink:title=" ">
<polygon fill="white" stroke="#666666" points="201.5,-228.12 121.75,-228.12 121.75,-207.38 201.5,-207.38 201.5,-228.12"/>
<text xml:space="preserve" text-anchor="middle" x="161.62" y="-214.62" font-family="Helvetica,sans-Serif" font-size="10.00">Driver &amp; Jobs</text>
</a>
</g>
</g>
<!-- Node5 -->
<g id="Node000005" class="node">
<title>Node5</title>
<g id="a_Node000005"><a xlink:href="group__formulation.html" target="_top" xlink:title=" ">
<polygon fill="white" stroke="#666666" points="210.5,-189.12 112.75,-189.12 112.75,-168.38 210.5,-168.38 210.5,-189.12"/>
<text xml:space="preserve" text-anchor="middle" x="161.62" y="-175.62" font-family="Helvetica,sans-Serif" font-size="10.00">SIE Formulations</text>
</a>
</g>
</g>
<!-- Node4 -->
<g id="Node000004" class="node">
<title>Node4</title>
<g id="a_Node000004"><a xlink:href="group__greenFunction.html" target="_top" xlink:title=" ">
<polygon fill="white" stroke="#666666" points="213.12,-150.12 110.12,-150.12 110.12,-129.38 213.12,-129.38 213.12,-150.12"/>
<text xml:space="preserve" text-anchor="middle" x="161.62" y="-136.62" font-family="Helvetica,sans-Serif" font-size="10.00">Green&#39;s Functions</text>
</a>
</g>
</g>
<!-- Node6 -->
<g id="Node000006" class="node">
<title>Node6</title>
<g id="a_Node000006"><a xlink:href="group__incidentField.html" target="_top" xlink:title=" ">
<polygon fill="white" stroke="#666666" points="204.88,-111.12 118.38,-111.12 118.38,-90.38 204.88,-90.38 204.88,-111.12"/>
<text xml:space="preserve" text-anchor="middle" x="161.62" y="-97.62" font-family="Helvetica,sans-Serif" font-size="10.00">Incident Fields</text>
</a>
</g>
</g>
<!-- Node2 -->
<g id="Node000002" class="node">
<title>Node2</title>
<g id="a_Node000002"><a xlink:href="group__mesh.html" target="_top" xlink:title=" ">
<polygon fill="white" stroke="#666666" points="213.88,-72.12 109.38,-72.12 109.38,-51.38 213.88,-51.38 213.88,-72.12"/>
<text xml:space="preserve" text-anchor="middle" x="161.62" y="-58.62" font-family="Helvetica,sans-Serif" font-size="10.00">Mesh &amp; Geometry</text>
</a>
</g>
</g>
<!-- Node1 -->
<g id="Node000001" class="node">
<title>Node1</title>
<g id="a_Node000001"><a xlink:title=" ">
<polygon fill="#999999" stroke="#666666" points="57.25,-150.12 0,-150.12 0,-129.38 57.25,-129.38 57.25,-150.12"/>
<text xml:space="preserve" text-anchor="middle" x="28.62" y="-136.62" font-family="Helvetica,sans-Serif" font-size="10.00">Modules</text>
</a>
</g>
</g>
<!-- Node1&#45;&gt;Node3 -->
<g id="edge2" class="edge">
<title>Node1&#45;&gt;Node3</title>
<path fill="none" stroke="black" d="M38.19,-160.89C48.2,-182.98 66.83,-217.1 93.25,-236.75 98.24,-240.46 103.92,-243.49 109.81,-245.96"/>
<polygon fill="black" stroke="black" points="41.52,-159.77 34.35,-151.97 35.09,-162.54 41.52,-159.77"/>
</g>
<!-- Node1&#45;&gt;Node8 -->
<g id="edge7" class="edge">
<title>Node1&#45;&gt;Node8</title>
<path fill="none" stroke="black" d="M46.16,-158.78C58.1,-171.45 75.23,-187.58 93.25,-197.75 101.86,-202.61 111.76,-206.39 121.28,-209.3"/>
<polygon fill="black" stroke="black" points="48.79,-156.47 39.47,-151.42 43.61,-161.18 48.79,-156.47"/>
</g>
<!-- Node1&#45;&gt;Node5 -->
<g id="edge4" class="edge">
<title>Node1&#45;&gt;Node5</title>
<path fill="none" stroke="black" d="M68.36,-151.33C76.57,-153.78 85.2,-156.35 93.25,-158.75 103.31,-161.74 114.21,-164.98 124.26,-167.97"/>
<polygon fill="black" stroke="black" points="69.53,-148.02 58.95,-148.52 67.53,-154.73 69.53,-148.02"/>
</g>
<!-- Node1&#45;&gt;Node4 -->
<g id="edge3" class="edge">
<title>Node1&#45;&gt;Node4</title>
<path fill="none" stroke="black" d="M69,-139.75C81.84,-139.75 96.28,-139.75 109.84,-139.75"/>
<polygon fill="black" stroke="black" points="69.24,-136.25 59.24,-139.75 69.24,-143.25 69.24,-136.25"/>
</g>
<!-- Node1&#45;&gt;Node6 -->
<g id="edge5" class="edge">
<title>Node1&#45;&gt;Node6</title>
<path fill="none" stroke="black" d="M68.36,-128.17C76.57,-125.72 85.2,-123.15 93.25,-120.75 103.31,-117.76 114.21,-114.52 124.26,-111.53"/>
<polygon fill="black" stroke="black" points="67.53,-124.77 58.95,-130.98 69.53,-131.48 67.53,-124.77"/>
</g>
<!-- Node1&#45;&gt;Node2 -->
<g id="edge1" class="edge">
<title>Node1&#45;&gt;Node2</title>
<path fill="none" stroke="black" d="M46.16,-120.72C58.1,-108.05 75.23,-91.92 93.25,-81.75 99.73,-78.09 106.95,-75.04 114.19,-72.52"/>
<polygon fill="black" stroke="black" points="43.61,-118.32 39.47,-128.08 48.79,-123.03 43.61,-118.32"/>
</g>
<!-- Node7 -->
<g id="Node000007" class="node">
<title>Node7</title>
<g id="a_Node000007"><a xlink:href="group__quadrature.html" target="_top" xlink:title=" ">
<polygon fill="white" stroke="#666666" points="230,-33.5 93.25,-33.5 93.25,0 230,0 230,-33.5"/>
<text xml:space="preserve" text-anchor="start" x="101.25" y="-20" font-family="Helvetica,sans-Serif" font-size="10.00">Quadrature &amp; Singularity</text>
<text xml:space="preserve" text-anchor="middle" x="161.62" y="-7.25" font-family="Helvetica,sans-Serif" font-size="10.00"> Handling</text>
</a>
</g>
</g>
<!-- Node1&#45;&gt;Node7 -->
<g id="edge6" class="edge">
<title>Node1&#45;&gt;Node7</title>
<path fill="none" stroke="black" d="M38.65,-118.71C48.96,-96.96 67.75,-63.34 93.25,-42.75 97.35,-39.44 101.91,-36.52 106.68,-33.94"/>
<polygon fill="black" stroke="black" points="35.49,-117.22 34.55,-127.77 41.86,-120.1 35.49,-117.22"/>
</g>
</g>
</svg>
</svg>

<style type='text/css'>
<![CDATA[
[data-mouse-over-selected='false'] { opacity: 0.7; }
[data-mouse-over-selected='true']  { opacity: 1.0; }
]]>
</style>
<script type="application/ecmascript"><![CDATA[
document.addEventListener('DOMContentLoaded', (event) => {
  highlightEdges();
  highlightAdjacentNodes();
});
]]></script>
</svg>
