<?xml version="1.0" encoding="UTF-8" standalone="no"?>
<!DOCTYPE svg PUBLIC "-//W3C//DTD SVG 1.1//EN"
 "http://www.w3.org/Graphics/SVG/1.1/DTD/svg11.dtd">
<!-- Generated by graphviz version 13.1.2 (20250809.0930)
 -->
<!-- Title: IncidentField.h Pages: 1 -->
<svg width="1348pt" height="426pt"
 viewBox="0.00 0.00 1348.00 426.00" xmlns="http://www.w3.org/2000/svg" xmlns:xlink="http://www.w3.org/1999/xlink">
<g id="graph0" class="graph" transform="scale(1 1) rotate(0) translate(4 422)">
<title>IncidentField.h</title>
<!-- Node1 -->
<g id="Node000001" class="node">
<title>Node1</title>
<g id="a_Node000001"><a xlink:title="Abstract interface for incident electromagnetic excitations.">
<polygon fill="#999999" stroke="#666666" points="479.25,-418 392,-418 392,-397.25 479.25,-397.25 479.25,-418"/>
<text xml:space="preserve" text-anchor="middle" x="435.62" y="-404.5" font-family="Helvetica,sans-Serif" font-size="10.00">IncidentField.h</text>
</a>
</g>
</g>
<!-- Node2 -->
<g id="Node000002" class="node">
<title>Node2</title>
<g id="a_Node000002"><a xlink:href="Dipole_8h.html" target="_top" xlink:title="Incident field generator for electric dipole illumination in homogeneous or layered media.">
<polygon fill="white" stroke="#666666" points="296.88,-77.5 240.38,-77.5 240.38,-56.75 296.88,-56.75 296.88,-77.5"/>
<text xml:space="preserve" text-anchor="middle" x="268.62" y="-64" font-family="Helvetica,sans-Serif" font-size="10.00">Dipole.h</text>
</a>
</g>
</g>
<!-- Node1&#45;&gt;Node2 -->
<g id="edge1_Node000001_Node000002" class="edge">
<title>Node1&#45;&gt;Node2</title>
<g id="a_edge1_Node000001_Node000002"><a xlink:title=" ">
<path fill="none" stroke="#63b8ff" d="M380.28,-406.91C329.53,-404.78 254.07,-395.36 198.62,-361.25 167.01,-341.8 147.62,-332.24 147.62,-295.12 147.62,-295.12 147.62,-295.12 147.62,-236.38 147.62,-163.7 222.96,-100.96 254.74,-77.72"/>
<polygon fill="#63b8ff" stroke="#63b8ff" points="380.04,-410.41 390.15,-407.24 380.27,-403.41 380.04,-410.41"/>
</a>
</g>
</g>
<!-- Node4 -->
<g id="Node000004" class="node">
<title>Node4</title>
<g id="a_Node000004"><a xlink:href="DomainHom3D_8cpp.html" target="_top" xlink:title="Implementation of the homogeneous 3D domain.">
<polygon fill="white" stroke="#666666" points="210.25,-20.75 99,-20.75 99,0 210.25,0 210.25,-20.75"/>
<text xml:space="preserve" text-anchor="middle" x="154.62" y="-7.25" font-family="Helvetica,sans-Serif" font-size="10.00">DomainHom3D.cpp</text>
</a>
</g>
</g>
<!-- Node1&#45;&gt;Node4 -->
<g id="edge28_Node000001_Node000004" class="edge">
<title>Node1&#45;&gt;Node4</title>
<g id="a_edge28_Node000001_Node000004"><a xlink:title=" ">
<path fill="none" stroke="#63b8ff" d="M380.19,-401.92C311.88,-395.34 200.45,-381.83 164.62,-361.25 131.48,-342.21 109.62,-333.35 109.62,-295.12 109.62,-295.12 109.62,-295.12 109.62,-122.88 109.62,-82.59 135.2,-39.67 147.79,-20.99"/>
<polygon fill="#63b8ff" stroke="#63b8ff" points="379.8,-405.4 390.08,-402.85 380.45,-398.43 379.8,-405.4"/>
</a>
</g>
</g>
<!-- Node5 -->
<g id="Node000005" class="node">
<title>Node5</title>
<g id="a_Node000005"><a xlink:href="DomainLayered3D_8cpp.html" target="_top" xlink:title="Implementation of the layered 3D domain.">
<polygon fill="white" stroke="#666666" points="550.12,-20.75 423.12,-20.75 423.12,0 550.12,0 550.12,-20.75"/>
<text xml:space="preserve" text-anchor="middle" x="486.62" y="-7.25" font-family="Helvetica,sans-Serif" font-size="10.00">DomainLayered3D.cpp</text>
</a>
</g>
</g>
<!-- Node1&#45;&gt;Node5 -->
<g id="edge29_Node000001_Node000005" class="edge">
<title>Node1&#45;&gt;Node5</title>
<g id="a_edge29_Node000001_Node000005"><a xlink:title=" ">
<path fill="none" stroke="#63b8ff" d="M490.8,-406C566.05,-401.9 691.62,-382.04 691.62,-295.12 691.62,-295.12 691.62,-295.12 691.62,-236.38 691.62,-205.8 693.04,-193.01 672.62,-170.25 644.41,-138.79 618.45,-159.59 584.62,-134.25 540.51,-101.2 505,-43.8 491.98,-21.06"/>
<polygon fill="#63b8ff" stroke="#63b8ff" points="490.97,-402.49 481.14,-406.45 491.3,-409.48 490.97,-402.49"/>
</a>
</g>
</g>
<!-- Node6 -->
<g id="Node000006" class="node">
<title>Node6</title>
<g id="a_Node000006"><a xlink:href="Domain_8h.html" target="_top" xlink:title="Abstract simulation domain class for SIE scattering.">
<polygon fill="white" stroke="#666666" points="652.25,-304.5 589,-304.5 589,-283.75 652.25,-283.75 652.25,-304.5"/>
<text xml:space="preserve" text-anchor="middle" x="620.62" y="-291" font-family="Helvetica,sans-Serif" font-size="10.00">Domain.h</text>
</a>
</g>
</g>
<!-- Node1&#45;&gt;Node6 -->
<g id="edge5_Node000001_Node000006" class="edge">
<title>Node1&#45;&gt;Node6</title>
<g id="a_edge5_Node000001_Node000006"><a xlink:title=" ">
<path fill="none" stroke="#63b8ff" d="M468.7,-392.15C486.79,-383.82 509.38,-372.75 528.62,-361.25 558.68,-343.29 591.42,-318.34 608.58,-304.8"/>
<polygon fill="#63b8ff" stroke="#63b8ff" points="467.4,-388.9 459.73,-396.21 470.29,-395.27 467.4,-388.9"/>
</a>
</g>
</g>
<!-- Node11 -->
<g id="Node000011" class="node">
<title>Node11</title>
<g id="a_Node000011"><a xlink:href="SimJob_8cpp.html" target="_top" xlink:title="Implementation for the SimJob class.">
<polygon fill="white" stroke="#666666" points="1062.62,-20.75 992.62,-20.75 992.62,0 1062.62,0 1062.62,-20.75"/>
<text xml:space="preserve" text-anchor="middle" x="1027.62" y="-7.25" font-family="Helvetica,sans-Serif" font-size="10.00">SimJob.cpp</text>
</a>
</g>
</g>
<!-- Node1&#45;&gt;Node11 -->
<g id="edge52_Node000001_Node000011" class="edge">
<title>Node1&#45;&gt;Node11</title>
<g id="a_edge52_Node000001_Node000011"><a xlink:title=" ">
<path fill="none" stroke="#63b8ff" d="M491.11,-404.52C669.01,-397.04 1213.62,-368.19 1213.62,-295.12 1213.62,-295.12 1213.62,-295.12 1213.62,-122.88 1213.62,-53.41 1117.01,-26.16 1063.05,-16.35"/>
<polygon fill="#63b8ff" stroke="#63b8ff" points="491.04,-401.02 481.2,-404.93 491.33,-408.01 491.04,-401.02"/>
</a>
</g>
</g>
<!-- Node21 -->
<g id="Node000021" class="node">
<title>Node21</title>
<g id="a_Node000021"><a xlink:href="Gaussian_8h.html" target="_top" xlink:title="Incident field: paraxial Gaussian beam in a homogeneous medium.">
<polygon fill="white" stroke="#666666" points="81.62,-77.5 11.62,-77.5 11.62,-56.75 81.62,-56.75 81.62,-77.5"/>
<text xml:space="preserve" text-anchor="middle" x="46.62" y="-64" font-family="Helvetica,sans-Serif" font-size="10.00">Gaussian.h</text>
</a>
</g>
</g>
<!-- Node1&#45;&gt;Node21 -->
<g id="edge30_Node000001_Node000021" class="edge">
<title>Node1&#45;&gt;Node21</title>
<g id="a_edge30_Node000001_Node000021"><a xlink:title=" ">
<path fill="none" stroke="#63b8ff" d="M380.25,-405.22C296.01,-402.11 140.67,-392.23 95.62,-361.25 68.05,-342.29 59.62,-328.59 59.62,-295.12 59.62,-295.12 59.62,-295.12 59.62,-179.62 59.62,-141.82 52.16,-97.28 48.54,-77.92"/>
<polygon fill="#63b8ff" stroke="#63b8ff" points="380.02,-408.72 390.13,-405.57 380.26,-401.72 380.02,-408.72"/>
</a>
</g>
</g>
<!-- Node23 -->
<g id="Node000023" class="node">
<title>Node23</title>
<g id="a_Node000023"><a xlink:href="IncidentField_8cpp.html" target="_top" xlink:title="Minimal implementation pieces for IncidentField.">
<polygon fill="white" stroke="#666666" points="1339.88,-361.25 1241.38,-361.25 1241.38,-340.5 1339.88,-340.5 1339.88,-361.25"/>
<text xml:space="preserve" text-anchor="middle" x="1290.62" y="-347.75" font-family="Helvetica,sans-Serif" font-size="10.00">IncidentField.cpp</text>
</a>
</g>
</g>
<!-- Node1&#45;&gt;Node23 -->
<g id="edge34_Node000001_Node000023" class="edge">
<title>Node1&#45;&gt;Node23</title>
<g id="a_edge34_Node000001_Node000023"><a xlink:title=" ">
<path fill="none" stroke="#63b8ff" d="M490.64,-405.19C619.67,-401.44 951.67,-389.63 1227.62,-361.25 1232.02,-360.8 1236.59,-360.26 1241.16,-359.67"/>
<polygon fill="#63b8ff" stroke="#63b8ff" points="490.93,-401.68 481.04,-405.46 491.13,-408.67 490.93,-401.68"/>
</a>
</g>
</g>
<!-- Node24 -->
<g id="Node000024" class="node">
<title>Node24</title>
<g id="a_Node000024"><a xlink:href="PlaneWave_8h.html" target="_top" xlink:title="Defines the PlaneWave class: representation of a plane‐wave incident field.">
<polygon fill="white" stroke="#666666" points="394.12,-77.5 315.12,-77.5 315.12,-56.75 394.12,-56.75 394.12,-77.5"/>
<text xml:space="preserve" text-anchor="middle" x="354.62" y="-64" font-family="Helvetica,sans-Serif" font-size="10.00">PlaneWave.h</text>
</a>
</g>
</g>
<!-- Node1&#45;&gt;Node24 -->
<g id="edge35_Node000001_Node000024" class="edge">
<title>Node1&#45;&gt;Node24</title>
<g id="a_edge35_Node000001_Node000024"><a xlink:title=" ">
<path fill="none" stroke="#63b8ff" d="M380.12,-405.44C306.46,-400.57 185.62,-379.71 185.62,-295.12 185.62,-295.12 185.62,-295.12 185.62,-236.38 185.62,-155.02 285.2,-99.43 331.48,-77.98"/>
<polygon fill="#63b8ff" stroke="#63b8ff" points="379.81,-408.93 389.99,-406 380.21,-401.94 379.81,-408.93"/>
</a>
</g>
</g>
<!-- Node26 -->
<g id="Node000026" class="node">
<title>Node26</title>
<g id="a_Node000026"><a xlink:href="SIEForm_8h.html" target="_top" xlink:title="Header for the SIEForm class.">
<polygon fill="white" stroke="#666666" points="520,-361.25 455.25,-361.25 455.25,-340.5 520,-340.5 520,-361.25"/>
<text xml:space="preserve" text-anchor="middle" x="487.62" y="-347.75" font-family="Helvetica,sans-Serif" font-size="10.00">SIEForm.h</text>
</a>
</g>
</g>
<!-- Node1&#45;&gt;Node26 -->
<g id="edge40_Node000001_Node000026" class="edge">
<title>Node1&#45;&gt;Node26</title>
<g id="a_edge40_Node000001_Node000026"><a xlink:title=" ">
<path fill="none" stroke="#63b8ff" d="M452.82,-388.52C461.36,-379.53 471.33,-369.03 478.41,-361.58"/>
<polygon fill="#63b8ff" stroke="#63b8ff" points="450.31,-386.08 445.96,-395.74 455.39,-390.9 450.31,-386.08"/>
</a>
</g>
</g>
<!-- Node28 -->
<g id="Node000028" class="node">
<title>Node28</title>
<g id="a_Node000028"><a xlink:href="SIEFormPMCHW_8h.html" target="_top" xlink:title="Header file for the SIEFormPMCHW class.">
<polygon fill="white" stroke="#666666" points="459.12,-247.75 356.12,-247.75 356.12,-227 459.12,-227 459.12,-247.75"/>
<text xml:space="preserve" text-anchor="middle" x="407.62" y="-234.25" font-family="Helvetica,sans-Serif" font-size="10.00">SIEFormPMCHW.h</text>
</a>
</g>
</g>
<!-- Node1&#45;&gt;Node28 -->
<g id="edge51_Node000001_Node000028" class="edge">
<title>Node1&#45;&gt;Node28</title>
<g id="a_edge51_Node000001_Node000028"><a xlink:title=" ">
<path fill="none" stroke="#63b8ff" d="M432.18,-385.91C426.1,-349.4 413.71,-274.96 409.26,-248.22"/>
<polygon fill="#63b8ff" stroke="#63b8ff" points="428.7,-386.31 433.79,-395.6 435.6,-385.17 428.7,-386.31"/>
</a>
</g>
</g>
<!-- Node3 -->
<g id="Node000003" class="node">
<title>Node3</title>
<g id="a_Node000003"><a xlink:href="Dipole_8cpp.html" target="_top" xlink:title="Implementation of the Dipole incident source.">
<polygon fill="white" stroke="#666666" points="296.5,-20.75 228.75,-20.75 228.75,0 296.5,0 296.5,-20.75"/>
<text xml:space="preserve" text-anchor="middle" x="262.62" y="-7.25" font-family="Helvetica,sans-Serif" font-size="10.00">Dipole.cpp</text>
</a>
</g>
</g>
<!-- Node2&#45;&gt;Node3 -->
<g id="edge2_Node000002_Node000003" class="edge">
<title>Node2&#45;&gt;Node3</title>
<g id="a_edge2_Node000002_Node000003"><a xlink:title=" ">
<path fill="none" stroke="#63b8ff" d="M266.33,-45.17C265.42,-36.88 264.42,-27.75 263.69,-21.08"/>
<polygon fill="#63b8ff" stroke="#63b8ff" points="262.82,-45.27 267.39,-54.83 269.78,-44.51 262.82,-45.27"/>
</a>
</g>
</g>
<!-- Node2&#45;&gt;Node4 -->
<g id="edge3_Node000002_Node000004" class="edge">
<title>Node2&#45;&gt;Node4</title>
<g id="a_edge3_Node000002_Node000004"><a xlink:title=" ">
<path fill="none" stroke="#63b8ff" d="M238.06,-51.45C218.01,-41.82 192.36,-29.5 174.83,-21.08"/>
<polygon fill="#63b8ff" stroke="#63b8ff" points="236.35,-54.51 246.88,-55.68 239.38,-48.2 236.35,-54.51"/>
</a>
</g>
</g>
<!-- Node2&#45;&gt;Node5 -->
<g id="edge4_Node000002_Node000005" class="edge">
<title>Node2&#45;&gt;Node5</title>
<g id="a_edge4_Node000002_Node000005"><a xlink:title=" ">
<path fill="none" stroke="#63b8ff" d="M308.17,-56.19C347.68,-46.27 408.05,-31.11 447.43,-21.22"/>
<polygon fill="#63b8ff" stroke="#63b8ff" points="307.44,-52.77 298.59,-58.6 309.14,-59.56 307.44,-52.77"/>
</a>
</g>
</g>
<!-- Node7 -->
<g id="Node000007" class="node">
<title>Node7</title>
<g id="a_Node000007"><a xlink:href="Domain_8cpp.html" target="_top" xlink:title="Implementation of the Domain base class.">
<polygon fill="white" stroke="#666666" points="663.88,-247.75 589.38,-247.75 589.38,-227 663.88,-227 663.88,-247.75"/>
<text xml:space="preserve" text-anchor="middle" x="626.62" y="-234.25" font-family="Helvetica,sans-Serif" font-size="10.00">Domain.cpp</text>
</a>
</g>
</g>
<!-- Node6&#45;&gt;Node7 -->
<g id="edge6_Node000006_Node000007" class="edge">
<title>Node6&#45;&gt;Node7</title>
<g id="a_edge6_Node000006_Node000007"><a xlink:title=" ">
<path fill="none" stroke="#63b8ff" d="M622.92,-272.17C623.83,-263.88 624.83,-254.75 625.56,-248.08"/>
<polygon fill="#63b8ff" stroke="#63b8ff" points="619.47,-271.51 621.86,-281.83 626.43,-272.27 619.47,-271.51"/>
</a>
</g>
</g>
<!-- Node8 -->
<g id="Node000008" class="node">
<title>Node8</title>
<g id="a_Node000008"><a xlink:href="DomainHom3D_8h.html" target="_top" xlink:title="Homogeneous 3D simulation domain (derived from Domain).">
<polygon fill="white" stroke="#666666" points="1083.62,-247.75 983.62,-247.75 983.62,-227 1083.62,-227 1083.62,-247.75"/>
<text xml:space="preserve" text-anchor="middle" x="1033.62" y="-234.25" font-family="Helvetica,sans-Serif" font-size="10.00">DomainHom3D.h</text>
</a>
</g>
</g>
<!-- Node6&#45;&gt;Node8 -->
<g id="edge7_Node000006_Node000008" class="edge">
<title>Node6&#45;&gt;Node8</title>
<g id="a_edge7_Node000006_Node000008"><a xlink:title=" ">
<path fill="none" stroke="#63b8ff" d="M663.56,-287.77C729.45,-279.5 859.43,-262.98 969.62,-247.75 974.07,-247.13 978.7,-246.48 983.33,-245.82"/>
<polygon fill="#63b8ff" stroke="#63b8ff" points="663.4,-284.26 653.91,-288.98 664.27,-291.21 663.4,-284.26"/>
</a>
</g>
</g>
<!-- Node14 -->
<g id="Node000014" class="node">
<title>Node14</title>
<g id="a_Node000014"><a xlink:href="DomainLayered3D_8h.html" target="_top" xlink:title="Layered 3D simulation domain (derived from Domain).">
<polygon fill="white" stroke="#666666" points="881.5,-77.5 765.75,-77.5 765.75,-56.75 881.5,-56.75 881.5,-77.5"/>
<text xml:space="preserve" text-anchor="middle" x="823.62" y="-64" font-family="Helvetica,sans-Serif" font-size="10.00">DomainLayered3D.h</text>
</a>
</g>
</g>
<!-- Node6&#45;&gt;Node14 -->
<g id="edge22_Node000006_Node000014" class="edge">
<title>Node6&#45;&gt;Node14</title>
<g id="a_edge22_Node000006_Node000014"><a xlink:title=" ">
<path fill="none" stroke="#63b8ff" d="M663.78,-291.67C727.55,-286.91 845.16,-267.61 898.62,-191 918.34,-162.76 915.54,-143.5 898.62,-113.5 888.98,-96.4 870.02,-85.01 853.57,-77.92"/>
<polygon fill="#63b8ff" stroke="#63b8ff" points="663.79,-288.16 654.04,-292.3 664.24,-295.15 663.79,-288.16"/>
</a>
</g>
</g>
<!-- Node17 -->
<g id="Node000017" class="node">
<title>Node17</title>
<g id="a_Node000017"><a xlink:href="SimJob_8h.html" target="_top" xlink:title="Orchestrates a full simulation run: parse job/subjobs, build the linear system, solve it,...">
<polygon fill="white" stroke="#666666" points="571,-247.75 512.25,-247.75 512.25,-227 571,-227 571,-247.75"/>
<text xml:space="preserve" text-anchor="middle" x="541.62" y="-234.25" font-family="Helvetica,sans-Serif" font-size="10.00">SimJob.h</text>
</a>
</g>
</g>
<!-- Node6&#45;&gt;Node17 -->
<g id="edge23_Node000006_Node000017" class="edge">
<title>Node6&#45;&gt;Node17</title>
<g id="a_edge23_Node000006_Node000017"><a xlink:title=" ">
<path fill="none" stroke="#63b8ff" d="M597.3,-276.96C583.76,-267.58 567.16,-256.07 555.63,-248.08"/>
<polygon fill="#63b8ff" stroke="#63b8ff" points="595.04,-279.66 605.26,-282.47 599.03,-273.9 595.04,-279.66"/>
</a>
</g>
</g>
<!-- Node8&#45;&gt;Node4 -->
<g id="edge8_Node000008_Node000004" class="edge">
<title>Node8&#45;&gt;Node4</title>
<g id="a_edge8_Node000008_Node000004"><a xlink:title=" ">
<path fill="none" stroke="#63b8ff" d="M972.22,-228.56C914.26,-220.73 825.08,-207.47 748.62,-191 714.4,-183.63 706.66,-178.47 672.62,-170.25 477.93,-123.24 411.23,-166.14 231.62,-77.5 202.87,-63.31 176.08,-35.87 163,-21.2"/>
<polygon fill="#63b8ff" stroke="#63b8ff" points="971.5,-232 981.88,-229.86 972.43,-225.06 971.5,-232"/>
</a>
</g>
</g>
<!-- Node9 -->
<g id="Node000009" class="node">
<title>Node9</title>
<g id="a_Node000009"><a xlink:href="DomainHom3DPer_8h.html" target="_top" xlink:title="Homogeneous 3D domain with in‑plane periodicity (derived from DomainHom3D).">
<polygon fill="white" stroke="#666666" points="1104.12,-191 989.12,-191 989.12,-170.25 1104.12,-170.25 1104.12,-191"/>
<text xml:space="preserve" text-anchor="middle" x="1046.62" y="-177.5" font-family="Helvetica,sans-Serif" font-size="10.00">DomainHom3DPer.h</text>
</a>
</g>
</g>
<!-- Node8&#45;&gt;Node9 -->
<g id="edge9_Node000008_Node000009" class="edge">
<title>Node8&#45;&gt;Node9</title>
<g id="a_edge9_Node000008_Node000009"><a xlink:title=" ">
<path fill="none" stroke="#63b8ff" d="M1038.6,-215.42C1040.57,-207.13 1042.74,-198 1044.32,-191.33"/>
<polygon fill="#63b8ff" stroke="#63b8ff" points="1035.2,-214.58 1036.3,-225.11 1042.01,-216.19 1035.2,-214.58"/>
</a>
</g>
</g>
<!-- Node8&#45;&gt;Node11 -->
<g id="edge12_Node000008_Node000011" class="edge">
<title>Node8&#45;&gt;Node11</title>
<g id="a_edge12_Node000008_Node000011"><a xlink:title=" ">
<path fill="none" stroke="#63b8ff" d="M1071.14,-222.01C1086.09,-214.68 1102.38,-204.43 1113.62,-191 1136.46,-163.72 1142.19,-148.03 1133.62,-113.5 1126.76,-85.81 1123.27,-77.44 1103.62,-56.75 1088.71,-41.04 1067.17,-28.87 1050.82,-21.1"/>
<polygon fill="#63b8ff" stroke="#63b8ff" points="1070.08,-218.65 1062.45,-226 1073,-225.01 1070.08,-218.65"/>
</a>
</g>
</g>
<!-- Node12 -->
<g id="Node000012" class="node">
<title>Node12</title>
<g id="a_Node000012"><a xlink:href="SommerfeldIntegrator_8h.html" target="_top" xlink:title="Declaration of the SommerfeldIntegrator class, which evaluates Sommerfeld&#45;type integrals for layered ...">
<polygon fill="white" stroke="#666666" points="889.75,-191 757.5,-191 757.5,-170.25 889.75,-170.25 889.75,-191"/>
<text xml:space="preserve" text-anchor="middle" x="823.62" y="-177.5" font-family="Helvetica,sans-Serif" font-size="10.00">SommerfeldIntegrator.h</text>
</a>
</g>
</g>
<!-- Node8&#45;&gt;Node12 -->
<g id="edge13_Node000008_Node000012" class="edge">
<title>Node8&#45;&gt;Node12</title>
<g id="a_edge13_Node000008_Node000012"><a xlink:title=" ">
<path fill="none" stroke="#63b8ff" d="M985.34,-223.79C947.6,-213.95 895.89,-200.47 861.2,-191.42"/>
<polygon fill="#63b8ff" stroke="#63b8ff" points="984.06,-227.07 994.62,-226.2 985.82,-220.3 984.06,-227.07"/>
</a>
</g>
</g>
<!-- Node10 -->
<g id="Node000010" class="node">
<title>Node10</title>
<g id="a_Node000010"><a xlink:href="DomainHom3DPer_8cpp.html" target="_top" xlink:title="Implementation of the homogeneous, periodically replicated 3D domain.">
<polygon fill="white" stroke="#666666" points="1109.75,-134.25 983.5,-134.25 983.5,-113.5 1109.75,-113.5 1109.75,-134.25"/>
<text xml:space="preserve" text-anchor="middle" x="1046.62" y="-120.75" font-family="Helvetica,sans-Serif" font-size="10.00">DomainHom3DPer.cpp</text>
</a>
</g>
</g>
<!-- Node9&#45;&gt;Node10 -->
<g id="edge10_Node000009_Node000010" class="edge">
<title>Node9&#45;&gt;Node10</title>
<g id="a_edge10_Node000009_Node000010"><a xlink:title=" ">
<path fill="none" stroke="#63b8ff" d="M1046.62,-158.38C1046.62,-150.16 1046.62,-141.18 1046.62,-134.58"/>
<polygon fill="#63b8ff" stroke="#63b8ff" points="1043.13,-158.32 1046.63,-168.32 1050.13,-158.32 1043.13,-158.32"/>
</a>
</g>
</g>
<!-- Node9&#45;&gt;Node11 -->
<g id="edge11_Node000009_Node000011" class="edge">
<title>Node9&#45;&gt;Node11</title>
<g id="a_edge11_Node000009_Node000011"><a xlink:title=" ">
<path fill="none" stroke="#63b8ff" d="M1084.63,-164.94C1097.83,-157.79 1111.17,-147.75 1118.62,-134.25 1123.08,-126.18 1121.91,-122.12 1118.62,-113.5 1102.99,-72.44 1062.43,-37.39 1041.13,-21.11"/>
<polygon fill="#63b8ff" stroke="#63b8ff" points="1083.45,-161.62 1076.03,-169.19 1086.54,-167.9 1083.45,-161.62"/>
</a>
</g>
</g>
<!-- Node12&#45;&gt;Node5 -->
<g id="edge14_Node000012_Node000005" class="edge">
<title>Node12&#45;&gt;Node5</title>
<g id="a_edge14_Node000012_Node000005"><a xlink:title=" ">
<path fill="none" stroke="#63b8ff" d="M746.1,-170.31C693.11,-162.68 628.64,-150.48 606.62,-134.25 574.92,-110.88 591.11,-84.96 563.62,-56.75 548.36,-41.08 526.55,-28.91 510.04,-21.13"/>
<polygon fill="#63b8ff" stroke="#63b8ff" points="745.32,-173.74 755.71,-171.66 746.3,-166.81 745.32,-173.74"/>
</a>
</g>
</g>
<!-- Node13 -->
<g id="Node000013" class="node">
<title>Node13</title>
<g id="a_Node000013"><a xlink:href="GreenFLayered3D_8h.html" target="_top" xlink:title="Layered‑medium 3D Green&#39;s function (scalar/gradient/dyadic) + RWG integrals.">
<polygon fill="white" stroke="#666666" points="728,-134.25 615.25,-134.25 615.25,-113.5 728,-113.5 728,-134.25"/>
<text xml:space="preserve" text-anchor="middle" x="671.62" y="-120.75" font-family="Helvetica,sans-Serif" font-size="10.00">GreenFLayered3D.h</text>
</a>
</g>
</g>
<!-- Node12&#45;&gt;Node13 -->
<g id="edge15_Node000012_Node000013" class="edge">
<title>Node12&#45;&gt;Node13</title>
<g id="a_edge15_Node000012_Node000013"><a xlink:title=" ">
<path fill="none" stroke="#63b8ff" d="M785.83,-166.01C758.8,-156.28 723.07,-143.4 698.82,-134.67"/>
<polygon fill="#63b8ff" stroke="#63b8ff" points="784.43,-169.23 795.03,-169.32 786.8,-162.64 784.43,-169.23"/>
</a>
</g>
</g>
<!-- Node16 -->
<g id="Node000016" class="node">
<title>Node16</title>
<g id="a_Node000016"><a xlink:href="SommerfeldIntegrator_8cpp.html" target="_top" xlink:title="Implementation of SommerfeldIntegrator: contour construction, integrand assembly, QUADPACK integratio...">
<polygon fill="white" stroke="#666666" points="889.38,-134.25 745.88,-134.25 745.88,-113.5 889.38,-113.5 889.38,-134.25"/>
<text xml:space="preserve" text-anchor="middle" x="817.62" y="-120.75" font-family="Helvetica,sans-Serif" font-size="10.00">SommerfeldIntegrator.cpp</text>
</a>
</g>
</g>
<!-- Node12&#45;&gt;Node16 -->
<g id="edge21_Node000012_Node000016" class="edge">
<title>Node12&#45;&gt;Node16</title>
<g id="a_edge21_Node000012_Node000016"><a xlink:title=" ">
<path fill="none" stroke="#63b8ff" d="M821.33,-158.67C820.42,-150.38 819.42,-141.25 818.69,-134.58"/>
<polygon fill="#63b8ff" stroke="#63b8ff" points="817.82,-158.77 822.39,-168.33 824.78,-158.01 817.82,-158.77"/>
</a>
</g>
</g>
<!-- Node13&#45;&gt;Node2 -->
<g id="edge16_Node000013_Node000002" class="edge">
<title>Node13&#45;&gt;Node2</title>
<g id="a_edge16_Node000013_Node000002"><a xlink:title=" ">
<path fill="none" stroke="#63b8ff" d="M603.64,-116.85C530.05,-109.76 409.44,-96.5 306.62,-77.5 303.55,-76.93 300.36,-76.27 297.18,-75.55"/>
<polygon fill="#63b8ff" stroke="#63b8ff" points="603.24,-120.33 613.53,-117.79 603.9,-113.36 603.24,-120.33"/>
</a>
</g>
</g>
<!-- Node13&#45;&gt;Node14 -->
<g id="edge17_Node000013_Node000014" class="edge">
<title>Node13&#45;&gt;Node14</title>
<g id="a_edge17_Node000013_Node000014"><a xlink:title=" ">
<path fill="none" stroke="#63b8ff" d="M709.42,-109.26C736.45,-99.53 772.18,-86.65 796.43,-77.92"/>
<polygon fill="#63b8ff" stroke="#63b8ff" points="708.45,-105.89 700.22,-112.57 710.82,-112.48 708.45,-105.89"/>
</a>
</g>
</g>
<!-- Node15 -->
<g id="Node000015" class="node">
<title>Node15</title>
<g id="a_Node000015"><a xlink:href="GreenFLayered3D_8cpp.html" target="_top" xlink:title="Implementation of the 3D Green&#39;s Function class in a layered background.">
<polygon fill="white" stroke="#666666" points="739.62,-77.5 615.62,-77.5 615.62,-56.75 739.62,-56.75 739.62,-77.5"/>
<text xml:space="preserve" text-anchor="middle" x="677.62" y="-64" font-family="Helvetica,sans-Serif" font-size="10.00">GreenFLayered3D.cpp</text>
</a>
</g>
</g>
<!-- Node13&#45;&gt;Node15 -->
<g id="edge20_Node000013_Node000015" class="edge">
<title>Node13&#45;&gt;Node15</title>
<g id="a_edge20_Node000013_Node000015"><a xlink:title=" ">
<path fill="none" stroke="#63b8ff" d="M673.92,-101.92C674.83,-93.63 675.83,-84.5 676.56,-77.83"/>
<polygon fill="#63b8ff" stroke="#63b8ff" points="670.47,-101.26 672.86,-111.58 677.43,-102.02 670.47,-101.26"/>
</a>
</g>
</g>
<!-- Node14&#45;&gt;Node5 -->
<g id="edge18_Node000014_Node000005" class="edge">
<title>Node14&#45;&gt;Node5</title>
<g id="a_edge18_Node000014_Node000005"><a xlink:title=" ">
<path fill="none" stroke="#63b8ff" d="M754.26,-54.86C693.33,-44.96 605.56,-30.7 547.35,-21.24"/>
<polygon fill="#63b8ff" stroke="#63b8ff" points="753.38,-58.26 763.81,-56.41 754.51,-51.35 753.38,-58.26"/>
</a>
</g>
</g>
<!-- Node14&#45;&gt;Node11 -->
<g id="edge19_Node000014_Node000011" class="edge">
<title>Node14&#45;&gt;Node11</title>
<g id="a_edge19_Node000014_Node000011"><a xlink:title=" ">
<path fill="none" stroke="#63b8ff" d="M871.11,-53.38C908.09,-43.45 958.63,-29.89 992.15,-20.9"/>
<polygon fill="#63b8ff" stroke="#63b8ff" points="870.31,-49.97 861.56,-55.94 872.12,-56.73 870.31,-49.97"/>
</a>
</g>
</g>
<!-- Node17&#45;&gt;Node11 -->
<g id="edge24_Node000017_Node000011" class="edge">
<title>Node17&#45;&gt;Node11</title>
<g id="a_edge24_Node000017_Node000011"><a xlink:title=" ">
<path fill="none" stroke="#63b8ff" d="M582.67,-227.07C667.18,-215.67 840.03,-225.36 898.62,-191 934.56,-169.93 1002.26,-55.52 1022.06,-21.14"/>
<polygon fill="#63b8ff" stroke="#63b8ff" points="582.2,-223.61 572.85,-228.6 583.27,-230.52 582.2,-223.61"/>
</a>
</g>
</g>
<!-- Node18 -->
<g id="Node000018" class="node">
<title>Node18</title>
<g id="a_Node000018"><a xlink:href="casimir_8cpp.html" target="_top" xlink:title="Main entry point for the HELIOS Casimir force routine.">
<polygon fill="white" stroke="#666666" points="493.38,-191 421.88,-191 421.88,-170.25 493.38,-170.25 493.38,-191"/>
<text xml:space="preserve" text-anchor="middle" x="457.62" y="-177.5" font-family="Helvetica,sans-Serif" font-size="10.00">casimir.cpp</text>
</a>
</g>
</g>
<!-- Node17&#45;&gt;Node18 -->
<g id="edge25_Node000017_Node000018" class="edge">
<title>Node17&#45;&gt;Node18</title>
<g id="a_edge25_Node000017_Node000018"><a xlink:title=" ">
<path fill="none" stroke="#63b8ff" d="M517.24,-220.48C502.77,-211.05 484.9,-199.4 472.51,-191.33"/>
<polygon fill="#63b8ff" stroke="#63b8ff" points="515.05,-223.23 525.34,-225.76 518.87,-217.37 515.05,-223.23"/>
</a>
</g>
</g>
<!-- Node19 -->
<g id="Node000019" class="node">
<title>Node19</title>
<g id="a_Node000019"><a xlink:href="main_8cpp.html" target="_top" xlink:title="This is the main file for the HELIOS program.">
<polygon fill="white" stroke="#666666" points="572.12,-191 511.12,-191 511.12,-170.25 572.12,-170.25 572.12,-191"/>
<text xml:space="preserve" text-anchor="middle" x="541.62" y="-177.5" font-family="Helvetica,sans-Serif" font-size="10.00">main.cpp</text>
</a>
</g>
</g>
<!-- Node17&#45;&gt;Node19 -->
<g id="edge26_Node000017_Node000019" class="edge">
<title>Node17&#45;&gt;Node19</title>
<g id="a_edge26_Node000017_Node000019"><a xlink:title=" ">
<path fill="none" stroke="#63b8ff" d="M541.62,-215.13C541.62,-206.91 541.62,-197.93 541.62,-191.33"/>
<polygon fill="#63b8ff" stroke="#63b8ff" points="538.13,-215.07 541.63,-225.07 545.13,-215.07 538.13,-215.07"/>
</a>
</g>
</g>
<!-- Node20 -->
<g id="Node000020" class="node">
<title>Node20</title>
<g id="a_Node000020"><a xlink:href="mainpp_8cpp.html" target="_top" xlink:title="This is the main file for the HELIOS program, specifically the post&#45;processing portion.">
<polygon fill="white" stroke="#666666" points="663.12,-191 590.12,-191 590.12,-170.25 663.12,-170.25 663.12,-191"/>
<text xml:space="preserve" text-anchor="middle" x="626.62" y="-177.5" font-family="Helvetica,sans-Serif" font-size="10.00">mainpp.cpp</text>
</a>
</g>
</g>
<!-- Node17&#45;&gt;Node20 -->
<g id="edge27_Node000017_Node000020" class="edge">
<title>Node17&#45;&gt;Node20</title>
<g id="a_edge27_Node000017_Node000020"><a xlink:title=" ">
<path fill="none" stroke="#63b8ff" d="M566.3,-220.48C580.94,-211.05 599.03,-199.4 611.56,-191.33"/>
<polygon fill="#63b8ff" stroke="#63b8ff" points="564.61,-217.41 558.09,-225.77 568.4,-223.29 564.61,-217.41"/>
</a>
</g>
</g>
<!-- Node21&#45;&gt;Node4 -->
<g id="edge31_Node000021_Node000004" class="edge">
<title>Node21&#45;&gt;Node4</title>
<g id="a_edge31_Node000021_Node000004"><a xlink:title=" ">
<path fill="none" stroke="#63b8ff" d="M76.11,-51.18C95.02,-41.59 119.03,-29.42 135.48,-21.08"/>
<polygon fill="#63b8ff" stroke="#63b8ff" points="74.62,-48.01 67.28,-55.65 77.79,-54.25 74.62,-48.01"/>
</a>
</g>
</g>
<!-- Node21&#45;&gt;Node5 -->
<g id="edge32_Node000021_Node000005" class="edge">
<title>Node21&#45;&gt;Node5</title>
<g id="a_edge32_Node000021_Node000005"><a xlink:title=" ">
<path fill="none" stroke="#63b8ff" d="M93.06,-60.45C162.72,-51.93 298.38,-35.27 413.62,-20.75 416.67,-20.37 419.78,-19.97 422.93,-19.57"/>
<polygon fill="#63b8ff" stroke="#63b8ff" points="93.06,-56.93 83.56,-61.62 93.91,-63.88 93.06,-56.93"/>
</a>
</g>
</g>
<!-- Node22 -->
<g id="Node000022" class="node">
<title>Node22</title>
<g id="a_Node000022"><a xlink:href="Gaussian_8cpp.html" target="_top" xlink:title="Implementation of the paraxial Gaussian beam incident field.">
<polygon fill="white" stroke="#666666" points="81.25,-20.75 0,-20.75 0,0 81.25,0 81.25,-20.75"/>
<text xml:space="preserve" text-anchor="middle" x="40.62" y="-7.25" font-family="Helvetica,sans-Serif" font-size="10.00">Gaussian.cpp</text>
</a>
</g>
</g>
<!-- Node21&#45;&gt;Node22 -->
<g id="edge33_Node000021_Node000022" class="edge">
<title>Node21&#45;&gt;Node22</title>
<g id="a_edge33_Node000021_Node000022"><a xlink:title=" ">
<path fill="none" stroke="#63b8ff" d="M44.33,-45.17C43.42,-36.88 42.42,-27.75 41.69,-21.08"/>
<polygon fill="#63b8ff" stroke="#63b8ff" points="40.82,-45.27 45.39,-54.83 47.78,-44.51 40.82,-45.27"/>
</a>
</g>
</g>
<!-- Node24&#45;&gt;Node4 -->
<g id="edge36_Node000024_Node000004" class="edge">
<title>Node24&#45;&gt;Node4</title>
<g id="a_edge36_Node000024_Node000004"><a xlink:title=" ">
<path fill="none" stroke="#63b8ff" d="M308.18,-53.41C272.27,-43.58 223.31,-30.18 190.41,-21.17"/>
<polygon fill="#63b8ff" stroke="#63b8ff" points="306.84,-56.67 317.41,-55.94 308.69,-49.92 306.84,-56.67"/>
</a>
</g>
</g>
<!-- Node24&#45;&gt;Node5 -->
<g id="edge37_Node000024_Node000005" class="edge">
<title>Node24&#45;&gt;Node5</title>
<g id="a_edge37_Node000024_Node000005"><a xlink:title=" ">
<path fill="none" stroke="#63b8ff" d="M388.74,-51.97C412.13,-42.27 442.55,-29.66 463.23,-21.08"/>
<polygon fill="#63b8ff" stroke="#63b8ff" points="387.52,-48.69 379.62,-55.76 390.2,-55.16 387.52,-48.69"/>
</a>
</g>
</g>
<!-- Node24&#45;&gt;Node11 -->
<g id="edge39_Node000024_Node000011" class="edge">
<title>Node24&#45;&gt;Node11</title>
<g id="a_edge39_Node000024_Node000011"><a xlink:title=" ">
<path fill="none" stroke="#63b8ff" d="M405.43,-61.99C535.96,-51.37 880.62,-23.33 992.21,-14.26"/>
<polygon fill="#63b8ff" stroke="#63b8ff" points="405.4,-58.48 395.72,-62.78 405.97,-65.46 405.4,-58.48"/>
</a>
</g>
</g>
<!-- Node25 -->
<g id="Node000025" class="node">
<title>Node25</title>
<g id="a_Node000025"><a xlink:href="PlaneWave_8cpp.html" target="_top" xlink:title="Implementation for the PlaneWave class.">
<polygon fill="white" stroke="#666666" points="404.75,-20.75 314.5,-20.75 314.5,0 404.75,0 404.75,-20.75"/>
<text xml:space="preserve" text-anchor="middle" x="359.62" y="-7.25" font-family="Helvetica,sans-Serif" font-size="10.00">PlaneWave.cpp</text>
</a>
</g>
</g>
<!-- Node24&#45;&gt;Node25 -->
<g id="edge38_Node000024_Node000025" class="edge">
<title>Node24&#45;&gt;Node25</title>
<g id="a_edge38_Node000024_Node000025"><a xlink:title=" ">
<path fill="none" stroke="#63b8ff" d="M356.57,-44.88C357.32,-36.66 358.14,-27.68 358.74,-21.08"/>
<polygon fill="#63b8ff" stroke="#63b8ff" points="353.08,-44.55 355.66,-54.83 360.05,-45.19 353.08,-44.55"/>
</a>
</g>
</g>
<!-- Node26&#45;&gt;Node6 -->
<g id="edge41_Node000026_Node000006" class="edge">
<title>Node26&#45;&gt;Node6</title>
<g id="a_edge41_Node000026_Node000006"><a xlink:title=" ">
<path fill="none" stroke="#63b8ff" d="M522,-335.72C545.57,-326.02 576.22,-313.41 597.05,-304.83"/>
<polygon fill="#63b8ff" stroke="#63b8ff" points="520.72,-332.47 512.8,-339.51 523.38,-338.94 520.72,-332.47"/>
</a>
</g>
</g>
<!-- Node26&#45;&gt;Node17 -->
<g id="edge50_Node000026_Node000017" class="edge">
<title>Node26&#45;&gt;Node17</title>
<g id="a_edge50_Node000026_Node000017"><a xlink:title=" ">
<path fill="none" stroke="#63b8ff" d="M511.11,-333.03C519.98,-325.37 529.23,-315.54 534.62,-304.5 543.64,-286.03 543.5,-261.28 542.58,-247.91"/>
<polygon fill="#63b8ff" stroke="#63b8ff" points="508.97,-330.25 503.36,-339.24 513.35,-335.72 508.97,-330.25"/>
</a>
</g>
</g>
<!-- Node27 -->
<g id="Node000027" class="node">
<title>Node27</title>
<g id="a_Node000027"><a xlink:href="SIEForm_8cpp.html" target="_top" xlink:title="Implementation for the SIEForm class.">
<polygon fill="white" stroke="#666666" points="525.62,-304.5 449.62,-304.5 449.62,-283.75 525.62,-283.75 525.62,-304.5"/>
<text xml:space="preserve" text-anchor="middle" x="487.62" y="-291" font-family="Helvetica,sans-Serif" font-size="10.00">SIEForm.cpp</text>
</a>
</g>
</g>
<!-- Node26&#45;&gt;Node27 -->
<g id="edge42_Node000026_Node000027" class="edge">
<title>Node26&#45;&gt;Node27</title>
<g id="a_edge42_Node000026_Node000027"><a xlink:title=" ">
<path fill="none" stroke="#63b8ff" d="M487.62,-328.63C487.62,-320.41 487.62,-311.43 487.62,-304.83"/>
<polygon fill="#63b8ff" stroke="#63b8ff" points="484.13,-328.57 487.63,-338.57 491.13,-328.57 484.13,-328.57"/>
</a>
</g>
</g>
<!-- Node26&#45;&gt;Node28 -->
<g id="edge43_Node000026_Node000028" class="edge">
<title>Node26&#45;&gt;Node28</title>
<g id="a_edge43_Node000026_Node000028"><a xlink:title=" ">
<path fill="none" stroke="#63b8ff" d="M466.72,-332.53C457.96,-324.59 448.09,-314.68 440.62,-304.5 427.12,-286.09 416.44,-261.31 411.19,-247.92"/>
<polygon fill="#63b8ff" stroke="#63b8ff" points="464.33,-335.09 474.16,-339.04 468.93,-329.82 464.33,-335.09"/>
</a>
</g>
</g>
<!-- Node28&#45;&gt;Node4 -->
<g id="edge44_Node000028_Node000004" class="edge">
<title>Node28&#45;&gt;Node4</title>
<g id="a_edge44_Node000028_Node000004"><a xlink:title=" ">
<path fill="none" stroke="#63b8ff" d="M344.6,-231.49C311.16,-226.04 271.2,-214.67 242.62,-191 185.66,-143.81 162.57,-50.8 156.42,-20.88"/>
<polygon fill="#63b8ff" stroke="#63b8ff" points="343.76,-234.9 354.16,-232.89 344.78,-227.97 343.76,-234.9"/>
</a>
</g>
</g>
<!-- Node28&#45;&gt;Node5 -->
<g id="edge45_Node000028_Node000005" class="edge">
<title>Node28&#45;&gt;Node5</title>
<g id="a_edge45_Node000028_Node000005"><a xlink:title=" ">
<path fill="none" stroke="#63b8ff" d="M407.29,-215.62C407.55,-202.43 408.74,-185.11 412.62,-170.25 428.32,-110.2 465.99,-44.97 480.65,-20.94"/>
<polygon fill="#63b8ff" stroke="#63b8ff" points="403.79,-215.26 407.28,-225.27 410.79,-215.27 403.79,-215.26"/>
</a>
</g>
</g>
<!-- Node28&#45;&gt;Node18 -->
<g id="edge47_Node000028_Node000018" class="edge">
<title>Node28&#45;&gt;Node18</title>
<g id="a_edge47_Node000028_Node000018"><a xlink:title=" ">
<path fill="none" stroke="#63b8ff" d="M424.16,-218.27C432.37,-209.28 441.96,-198.78 448.76,-191.33"/>
<polygon fill="#63b8ff" stroke="#63b8ff" points="421.74,-215.72 417.58,-225.47 426.91,-220.45 421.74,-215.72"/>
</a>
</g>
</g>
<!-- Node28&#45;&gt;Node19 -->
<g id="edge48_Node000028_Node000019" class="edge">
<title>Node28&#45;&gt;Node19</title>
<g id="a_edge48_Node000028_Node000019"><a xlink:title=" ">
<path fill="none" stroke="#63b8ff" d="M441.94,-222.36C465.72,-212.64 496.79,-199.94 517.88,-191.33"/>
<polygon fill="#63b8ff" stroke="#63b8ff" points="440.92,-218.99 432.98,-226.01 443.56,-225.47 440.92,-218.99"/>
</a>
</g>
</g>
<!-- Node28&#45;&gt;Node20 -->
<g id="edge49_Node000028_Node000020" class="edge">
<title>Node28&#45;&gt;Node20</title>
<g id="a_edge49_Node000028_Node000020"><a xlink:title=" ">
<path fill="none" stroke="#63b8ff" d="M458.19,-223.73C498.37,-213.69 553.63,-199.87 589.72,-190.85"/>
<polygon fill="#63b8ff" stroke="#63b8ff" points="457.35,-220.34 448.5,-226.16 459.05,-227.13 457.35,-220.34"/>
</a>
</g>
</g>
<!-- Node29 -->
<g id="Node000029" class="node">
<title>Node29</title>
<g id="a_Node000029"><a xlink:href="SIEFormPMCHW_8cpp.html" target="_top" xlink:title="Implementation for the SIEFormPMCHW class.">
<polygon fill="white" stroke="#666666" points="365.75,-191 251.5,-191 251.5,-170.25 365.75,-170.25 365.75,-191"/>
<text xml:space="preserve" text-anchor="middle" x="308.62" y="-177.5" font-family="Helvetica,sans-Serif" font-size="10.00">SIEFormPMCHW.cpp</text>
</a>
</g>
</g>
<!-- Node28&#45;&gt;Node29 -->
<g id="edge46_Node000028_Node000029" class="edge">
<title>Node28&#45;&gt;Node29</title>
<g id="a_edge46_Node000028_Node000029"><a xlink:title=" ">
<path fill="none" stroke="#63b8ff" d="M379.87,-221.03C362.65,-211.5 341.05,-199.56 326.17,-191.33"/>
<polygon fill="#63b8ff" stroke="#63b8ff" points="378.16,-224.08 388.6,-225.85 381.54,-217.95 378.16,-224.08"/>
</a>
</g>
</g>
</g>
</svg>
