<?xml version="1.0" encoding="UTF-8" standalone="no"?>
<!DOCTYPE svg PUBLIC "-//W3C//DTD SVG 1.1//EN"
 "http://www.w3.org/Graphics/SVG/1.1/DTD/svg11.dtd">
<!-- Generated by graphviz version 13.1.2 (20250809.0930)
 -->
<!-- Title: IncidentField.h Pages: 1 -->
<svg width="987pt" height="426pt"
 viewBox="0.00 0.00 987.00 426.00" xmlns="http://www.w3.org/2000/svg" xmlns:xlink="http://www.w3.org/1999/xlink">
<g id="graph0" class="graph" transform="scale(1 1) rotate(0) translate(4 422)">
<title>IncidentField.h</title>
<!-- Node1 -->
<g id="Node000001" class="node">
<title>Node1</title>
<g id="a_Node000001"><a xlink:title="Abstract interface for incident electromagnetic excitations.">
<polygon fill="#999999" stroke="#666666" points="707.5,-418 620.25,-418 620.25,-397.25 707.5,-397.25 707.5,-418"/>
<text xml:space="preserve" text-anchor="middle" x="663.88" y="-404.5" font-family="Helvetica,sans-Serif" font-size="10.00">IncidentField.h</text>
</a>
</g>
</g>
<!-- Node2 -->
<g id="Node000002" class="node">
<title>Node2</title>
<g id="a_Node000002"><a xlink:href="RWGFun_8h.html" target="_top" xlink:title="Header for the RWGFun class.">
<polygon fill="white" stroke="#666666" points="563,-247.75 496.75,-247.75 496.75,-227 563,-227 563,-247.75"/>
<text xml:space="preserve" text-anchor="middle" x="529.88" y="-234.25" font-family="Helvetica,sans-Serif" font-size="10.00">RWGFun.h</text>
</a>
</g>
</g>
<!-- Node1&#45;&gt;Node2 -->
<g id="edge1_Node000001_Node000002" class="edge">
<title>Node1&#45;&gt;Node2</title>
<g id="a_edge1_Node000001_Node000002"><a xlink:title=" ">
<path fill="none" stroke="#63b8ff" d="M656.29,-397.1C634.83,-370.16 573.42,-293.06 544.84,-257.17"/>
<polygon fill="#63b8ff" stroke="#63b8ff" points="547.62,-255.04 538.66,-249.4 542.15,-259.4 547.62,-255.04"/>
</a>
</g>
</g>
<!-- Node12 -->
<g id="Node000012" class="node">
<title>Node12</title>
<g id="a_Node000012"><a xlink:href="globals_8h.html" target="_top" xlink:title="Global numerical constants, fundamental types, and simple macros.">
<polygon fill="white" stroke="#666666" points="751,-77.5 690.75,-77.5 690.75,-56.75 751,-56.75 751,-77.5"/>
<text xml:space="preserve" text-anchor="middle" x="720.88" y="-64" font-family="Helvetica,sans-Serif" font-size="10.00">globals.h</text>
</a>
</g>
</g>
<!-- Node1&#45;&gt;Node12 -->
<g id="edge26_Node000001_Node000012" class="edge">
<title>Node1&#45;&gt;Node12</title>
<g id="a_edge26_Node000001_Node000012"><a xlink:title=" ">
<path fill="none" stroke="#63b8ff" d="M707.77,-398.41C785.87,-382.53 940.88,-344.76 940.88,-295.12 940.88,-295.12 940.88,-295.12 940.88,-179.62 940.88,-146.16 931.37,-133.94 904.88,-113.5 863.62,-81.68 802.99,-71.86 762.75,-69"/>
<polygon fill="#63b8ff" stroke="#63b8ff" points="763.16,-65.52 752.97,-68.43 762.75,-72.51 763.16,-65.52"/>
</a>
</g>
</g>
<!-- Node19 -->
<g id="Node000019" class="node">
<title>Node19</title>
<g id="a_Node000019"><a xlink:href="LayeredMediaUtils_8h.html" target="_top" xlink:title="This header declares utility structures and algorithms used throughout the layered&#45;media scattering s...">
<polygon fill="white" stroke="#666666" points="211.12,-134.25 94.62,-134.25 94.62,-113.5 211.12,-113.5 211.12,-134.25"/>
<text xml:space="preserve" text-anchor="middle" x="152.88" y="-120.75" font-family="Helvetica,sans-Serif" font-size="10.00">LayeredMediaUtils.h</text>
</a>
</g>
</g>
<!-- Node1&#45;&gt;Node19 -->
<g id="edge27_Node000001_Node000019" class="edge">
<title>Node1&#45;&gt;Node19</title>
<g id="a_edge27_Node000001_Node000019"><a xlink:title=" ">
<path fill="none" stroke="#63b8ff" d="M619.78,-404.87C507.73,-399.23 220.88,-376.81 220.88,-295.12 220.88,-295.12 220.88,-295.12 220.88,-236.38 220.88,-198.68 192.2,-162.92 172.09,-142.48"/>
<polygon fill="#63b8ff" stroke="#63b8ff" points="174.79,-140.23 165.19,-135.75 169.91,-145.24 174.79,-140.23"/>
</a>
</g>
</g>
<!-- Node23 -->
<g id="Node000023" class="node">
<title>Node23</title>
<g id="a_Node000023"><a xlink:href="GreenF_8h.html" target="_top" xlink:title="Abstract base class for electromagnetic Green&#39;s functions.">
<polygon fill="white" stroke="#666666" points="805.25,-361.25 746.5,-361.25 746.5,-340.5 805.25,-340.5 805.25,-361.25"/>
<text xml:space="preserve" text-anchor="middle" x="775.88" y="-347.75" font-family="Helvetica,sans-Serif" font-size="10.00">GreenF.h</text>
</a>
</g>
</g>
<!-- Node1&#45;&gt;Node23 -->
<g id="edge34_Node000001_Node000023" class="edge">
<title>Node1&#45;&gt;Node23</title>
<g id="a_edge34_Node000001_Node000023"><a xlink:title=" ">
<path fill="none" stroke="#63b8ff" d="M683.9,-396.84C701.1,-388.43 726.15,-376.18 745.77,-366.59"/>
<polygon fill="#63b8ff" stroke="#63b8ff" points="747.22,-369.78 754.67,-362.24 744.14,-363.49 747.22,-369.78"/>
</a>
</g>
</g>
<!-- Node3 -->
<g id="Node000003" class="node">
<title>Node3</title>
<g id="a_Node000003"><a xlink:href="SurfaceMesh_8h.html" target="_top" xlink:title="Declaration of the SurfaceMesh class and mesh edge struct.">
<polygon fill="white" stroke="#666666" points="573.88,-191 485.88,-191 485.88,-170.25 573.88,-170.25 573.88,-191"/>
<text xml:space="preserve" text-anchor="middle" x="529.88" y="-177.5" font-family="Helvetica,sans-Serif" font-size="10.00">SurfaceMesh.h</text>
</a>
</g>
</g>
<!-- Node2&#45;&gt;Node3 -->
<g id="edge2_Node000002_Node000003" class="edge">
<title>Node2&#45;&gt;Node3</title>
<g id="a_edge2_Node000002_Node000003"><a xlink:title=" ">
<path fill="none" stroke="#63b8ff" d="M529.88,-226.59C529.88,-219.97 529.88,-210.97 529.88,-202.77"/>
<polygon fill="#63b8ff" stroke="#63b8ff" points="533.38,-202.84 529.88,-192.84 526.38,-202.84 533.38,-202.84"/>
</a>
</g>
</g>
<!-- Node11 -->
<g id="Node000011" class="node">
<title>Node11</title>
<g id="a_Node000011"><a xlink:href="Triangle_8h.html" target="_top" xlink:title="Declaration of the Triangle class (surface element with cached geometry).">
<polygon fill="white" stroke="#666666" points="456.5,-134.25 393.25,-134.25 393.25,-113.5 456.5,-113.5 456.5,-134.25"/>
<text xml:space="preserve" text-anchor="middle" x="424.88" y="-120.75" font-family="Helvetica,sans-Serif" font-size="10.00">Triangle.h</text>
</a>
</g>
</g>
<!-- Node2&#45;&gt;Node11 -->
<g id="edge24_Node000002_Node000011" class="edge">
<title>Node2&#45;&gt;Node11</title>
<g id="a_edge24_Node000002_Node000011"><a xlink:title=" ">
<path fill="none" stroke="#63b8ff" d="M517.05,-226.57C505.91,-217.79 489.62,-204.29 476.88,-191 462.54,-176.05 448.12,-157.37 438.12,-143.68"/>
<polygon fill="#63b8ff" stroke="#63b8ff" points="440.96,-141.64 432.29,-135.55 435.28,-145.72 440.96,-141.64"/>
</a>
</g>
</g>
<!-- Node2&#45;&gt;Node12 -->
<g id="edge25_Node000002_Node000012" class="edge">
<title>Node2&#45;&gt;Node12</title>
<g id="a_edge25_Node000002_Node000012"><a xlink:title=" ">
<path fill="none" stroke="#63b8ff" d="M542.5,-226.59C565.28,-208.8 614.53,-169.74 653.88,-134.25 671.4,-118.45 690.46,-99.44 703.76,-85.86"/>
<polygon fill="#63b8ff" stroke="#63b8ff" points="706.07,-88.51 710.54,-78.9 701.05,-83.63 706.07,-88.51"/>
</a>
</g>
</g>
<!-- Node4 -->
<g id="Node000004" class="node">
<title>Node4</title>
<g id="a_Node000004"><a xlink:title=" ">
<polygon fill="#e0e0e0" stroke="#999999" points="544.38,-134.25 513.38,-134.25 513.38,-113.5 544.38,-113.5 544.38,-134.25"/>
<text xml:space="preserve" text-anchor="middle" x="528.88" y="-120.75" font-family="Helvetica,sans-Serif" font-size="10.00">set</text>
</a>
</g>
</g>
<!-- Node3&#45;&gt;Node4 -->
<g id="edge3_Node000003_Node000004" class="edge">
<title>Node3&#45;&gt;Node4</title>
<g id="a_edge3_Node000003_Node000004"><a xlink:title=" ">
<path fill="none" stroke="#63b8ff" d="M529.7,-169.84C529.58,-163.22 529.41,-154.22 529.26,-146.02"/>
<polygon fill="#63b8ff" stroke="#63b8ff" points="532.76,-146.03 529.08,-136.09 525.76,-146.15 532.76,-146.03"/>
</a>
</g>
</g>
<!-- Node5 -->
<g id="Node000005" class="node">
<title>Node5</title>
<g id="a_Node000005"><a xlink:title=" ">
<polygon fill="#e0e0e0" stroke="#999999" points="645.12,-134.25 600.62,-134.25 600.62,-113.5 645.12,-113.5 645.12,-134.25"/>
<text xml:space="preserve" text-anchor="middle" x="622.88" y="-120.75" font-family="Helvetica,sans-Serif" font-size="10.00">utility</text>
</a>
</g>
</g>
<!-- Node3&#45;&gt;Node5 -->
<g id="edge4_Node000003_Node000005" class="edge">
<title>Node3&#45;&gt;Node5</title>
<g id="a_edge4_Node000003_Node000005"><a xlink:title=" ">
<path fill="none" stroke="#63b8ff" d="M546.5,-169.84C560.39,-161.66 580.44,-149.86 596.51,-140.4"/>
<polygon fill="#63b8ff" stroke="#63b8ff" points="598.25,-143.44 605.09,-135.35 594.69,-137.4 598.25,-143.44"/>
</a>
</g>
</g>
<!-- Node6 -->
<g id="Node000006" class="node">
<title>Node6</title>
<g id="a_Node000006"><a xlink:title=" ">
<polygon fill="#e0e0e0" stroke="#999999" points="416.25,-77.5 369.5,-77.5 369.5,-56.75 416.25,-56.75 416.25,-77.5"/>
<text xml:space="preserve" text-anchor="middle" x="392.88" y="-64" font-family="Helvetica,sans-Serif" font-size="10.00">vector</text>
</a>
</g>
</g>
<!-- Node3&#45;&gt;Node6 -->
<g id="edge5_Node000003_Node000006" class="edge">
<title>Node3&#45;&gt;Node6</title>
<g id="a_edge5_Node000003_Node000006"><a xlink:title=" ">
<path fill="none" stroke="#63b8ff" d="M521.84,-169.92C510.3,-156.35 488.01,-131.36 465.88,-113.5 451.95,-102.26 435.06,-91.6 421.03,-83.44"/>
<polygon fill="#63b8ff" stroke="#63b8ff" points="423.14,-80.61 412.72,-78.71 419.68,-86.7 423.14,-80.61"/>
</a>
</g>
</g>
<!-- Node7 -->
<g id="Node000007" class="node">
<title>Node7</title>
<g id="a_Node000007"><a xlink:href="JobParser_8h.html" target="_top" xlink:title="Lightweight XML&#45;like tag parser for the solver job file.">
<polygon fill="white" stroke="#666666" points="298.5,-134.25 229.25,-134.25 229.25,-113.5 298.5,-113.5 298.5,-134.25"/>
<text xml:space="preserve" text-anchor="middle" x="263.88" y="-120.75" font-family="Helvetica,sans-Serif" font-size="10.00">JobParser.h</text>
</a>
</g>
</g>
<!-- Node3&#45;&gt;Node7 -->
<g id="edge6_Node000003_Node000007" class="edge">
<title>Node3&#45;&gt;Node7</title>
<g id="a_edge6_Node000003_Node000007"><a xlink:title=" ">
<path fill="none" stroke="#63b8ff" d="M485.65,-170.52C437,-160.51 359.17,-144.49 309.84,-134.33"/>
<polygon fill="#63b8ff" stroke="#63b8ff" points="310.84,-130.97 300.33,-132.38 309.42,-137.82 310.84,-130.97"/>
</a>
</g>
</g>
<!-- Node3&#45;&gt;Node11 -->
<g id="edge11_Node000003_Node000011" class="edge">
<title>Node3&#45;&gt;Node11</title>
<g id="a_edge11_Node000003_Node000011"><a xlink:title=" ">
<path fill="none" stroke="#63b8ff" d="M511.1,-169.84C495.13,-161.51 471.92,-149.41 453.61,-139.86"/>
<polygon fill="#63b8ff" stroke="#63b8ff" points="455.31,-136.8 444.83,-135.28 452.08,-143.01 455.31,-136.8"/>
</a>
</g>
</g>
<!-- Node3&#45;&gt;Node12 -->
<g id="edge18_Node000003_Node000012" class="edge">
<title>Node3&#45;&gt;Node12</title>
<g id="a_edge18_Node000003_Node000012"><a xlink:title=" ">
<path fill="none" stroke="#63b8ff" d="M536.41,-170.17C546.67,-155.97 567.88,-129.15 591.88,-113.5 618.67,-96.02 653,-84.37 679.51,-77.26"/>
<polygon fill="#63b8ff" stroke="#63b8ff" points="680.06,-80.73 688.88,-74.86 678.32,-73.95 680.06,-80.73"/>
</a>
</g>
</g>
<!-- Node17 -->
<g id="Node000017" class="node">
<title>Node17</title>
<g id="a_Node000017"><a xlink:href="mathFunctions_8h.html" target="_top" xlink:title="Header file of the class that provides auxiliary mathematical functionalities for the SIE solver.">
<polygon fill="white" stroke="#666666" points="874.38,-134.25 777.38,-134.25 777.38,-113.5 874.38,-113.5 874.38,-134.25"/>
<text xml:space="preserve" text-anchor="middle" x="825.88" y="-120.75" font-family="Helvetica,sans-Serif" font-size="10.00">mathFunctions.h</text>
</a>
</g>
</g>
<!-- Node3&#45;&gt;Node17 -->
<g id="edge19_Node000003_Node000017" class="edge">
<title>Node3&#45;&gt;Node17</title>
<g id="a_edge19_Node000003_Node000017"><a xlink:title=" ">
<path fill="none" stroke="#63b8ff" d="M574.19,-171.43C625.22,-161.99 709.3,-146.44 766.09,-135.93"/>
<polygon fill="#63b8ff" stroke="#63b8ff" points="766.38,-139.44 775.58,-134.18 765.11,-132.56 766.38,-139.44"/>
</a>
</g>
</g>
<!-- Node7&#45;&gt;Node6 -->
<g id="edge10_Node000007_Node000006" class="edge">
<title>Node7&#45;&gt;Node6</title>
<g id="a_edge10_Node000007_Node000006"><a xlink:title=" ">
<path fill="none" stroke="#63b8ff" d="M286.94,-113.09C307.12,-104.52 336.68,-91.98 359.45,-82.31"/>
<polygon fill="#63b8ff" stroke="#63b8ff" points="360.78,-85.55 368.62,-78.42 358.05,-79.1 360.78,-85.55"/>
</a>
</g>
</g>
<!-- Node8 -->
<g id="Node000008" class="node">
<title>Node8</title>
<g id="a_Node000008"><a xlink:title=" ">
<polygon fill="#e0e0e0" stroke="#999999" points="275,-77.5 220.75,-77.5 220.75,-56.75 275,-56.75 275,-77.5"/>
<text xml:space="preserve" text-anchor="middle" x="247.88" y="-64" font-family="Helvetica,sans-Serif" font-size="10.00">fstream</text>
</a>
</g>
</g>
<!-- Node7&#45;&gt;Node8 -->
<g id="edge7_Node000007_Node000008" class="edge">
<title>Node7&#45;&gt;Node8</title>
<g id="a_edge7_Node000007_Node000008"><a xlink:title=" ">
<path fill="none" stroke="#63b8ff" d="M261.01,-113.09C259.04,-106.31 256.33,-97.05 253.88,-88.69"/>
<polygon fill="#63b8ff" stroke="#63b8ff" points="257.3,-87.9 251.14,-79.28 250.58,-89.86 257.3,-87.9"/>
</a>
</g>
</g>
<!-- Node9 -->
<g id="Node000009" class="node">
<title>Node9</title>
<g id="a_Node000009"><a xlink:title=" ">
<polygon fill="#e0e0e0" stroke="#999999" points="569.62,-77.5 510.12,-77.5 510.12,-56.75 569.62,-56.75 569.62,-77.5"/>
<text xml:space="preserve" text-anchor="middle" x="539.88" y="-64" font-family="Helvetica,sans-Serif" font-size="10.00">iostream</text>
</a>
</g>
</g>
<!-- Node7&#45;&gt;Node9 -->
<g id="edge8_Node000007_Node000009" class="edge">
<title>Node7&#45;&gt;Node9</title>
<g id="a_edge8_Node000007_Node000009"><a xlink:title=" ">
<path fill="none" stroke="#63b8ff" d="M298.83,-115.94C349.78,-105.83 444.26,-87.09 498.57,-76.32"/>
<polygon fill="#63b8ff" stroke="#63b8ff" points="499.23,-79.76 508.36,-74.38 497.87,-72.89 499.23,-79.76"/>
</a>
</g>
</g>
<!-- Node10 -->
<g id="Node000010" class="node">
<title>Node10</title>
<g id="a_Node000010"><a xlink:title=" ">
<polygon fill="#e0e0e0" stroke="#999999" points="336.75,-77.5 293,-77.5 293,-56.75 336.75,-56.75 336.75,-77.5"/>
<text xml:space="preserve" text-anchor="middle" x="314.88" y="-64" font-family="Helvetica,sans-Serif" font-size="10.00">string</text>
</a>
</g>
</g>
<!-- Node7&#45;&gt;Node10 -->
<g id="edge9_Node000007_Node000010" class="edge">
<title>Node7&#45;&gt;Node10</title>
<g id="a_edge9_Node000007_Node000010"><a xlink:title=" ">
<path fill="none" stroke="#63b8ff" d="M272.99,-113.09C279.96,-105.61 289.74,-95.11 298.11,-86.13"/>
<polygon fill="#63b8ff" stroke="#63b8ff" points="300.55,-88.64 304.8,-78.94 295.43,-83.87 300.55,-88.64"/>
</a>
</g>
</g>
<!-- Node11&#45;&gt;Node6 -->
<g id="edge12_Node000011_Node000006" class="edge">
<title>Node11&#45;&gt;Node6</title>
<g id="a_edge12_Node000011_Node000006"><a xlink:title=" ">
<path fill="none" stroke="#63b8ff" d="M419.15,-113.09C415.01,-106 409.28,-96.19 404.22,-87.54"/>
<polygon fill="#63b8ff" stroke="#63b8ff" points="407.38,-86 399.31,-79.14 401.33,-89.53 407.38,-86"/>
</a>
</g>
</g>
<!-- Node11&#45;&gt;Node12 -->
<g id="edge13_Node000011_Node000012" class="edge">
<title>Node11&#45;&gt;Node12</title>
<g id="a_edge13_Node000011_Node000012"><a xlink:title=" ">
<path fill="none" stroke="#63b8ff" d="M456.83,-116.96C510.65,-107.01 619.33,-86.91 679.11,-75.85"/>
<polygon fill="#63b8ff" stroke="#63b8ff" points="679.7,-79.3 688.89,-74.04 678.42,-72.42 679.7,-79.3"/>
</a>
</g>
</g>
<!-- Node13 -->
<g id="Node000013" class="node">
<title>Node13</title>
<g id="a_Node000013"><a xlink:title=" ">
<polygon fill="#e0e0e0" stroke="#999999" points="975.38,-20.75 902.38,-20.75 902.38,0 975.38,0 975.38,-20.75"/>
<text xml:space="preserve" text-anchor="middle" x="938.88" y="-7.25" font-family="Helvetica,sans-Serif" font-size="10.00">blitz/array.h</text>
</a>
</g>
</g>
<!-- Node12&#45;&gt;Node13 -->
<g id="edge14_Node000012_Node000013" class="edge">
<title>Node12&#45;&gt;Node13</title>
<g id="a_edge14_Node000012_Node000013"><a xlink:title=" ">
<path fill="none" stroke="#63b8ff" d="M751.19,-58.51C787.38,-49.42 848.36,-34.11 890.95,-23.41"/>
<polygon fill="#63b8ff" stroke="#63b8ff" points="891.59,-26.86 900.43,-21.03 889.88,-20.07 891.59,-26.86"/>
</a>
</g>
</g>
<!-- Node14 -->
<g id="Node000014" class="node">
<title>Node14</title>
<g id="a_Node000014"><a xlink:title=" ">
<polygon fill="#e0e0e0" stroke="#999999" points="654.38,-20.75 563.38,-20.75 563.38,0 654.38,0 654.38,-20.75"/>
<text xml:space="preserve" text-anchor="middle" x="608.88" y="-7.25" font-family="Helvetica,sans-Serif" font-size="10.00">blitz/tinyvec2.h</text>
</a>
</g>
</g>
<!-- Node12&#45;&gt;Node14 -->
<g id="edge15_Node000012_Node000014" class="edge">
<title>Node12&#45;&gt;Node14</title>
<g id="a_edge15_Node000012_Node000014"><a xlink:title=" ">
<path fill="none" stroke="#63b8ff" d="M700.85,-56.34C683.65,-47.93 658.6,-35.68 638.98,-26.09"/>
<polygon fill="#63b8ff" stroke="#63b8ff" points="640.61,-22.99 630.08,-21.74 637.53,-29.28 640.61,-22.99"/>
</a>
</g>
</g>
<!-- Node15 -->
<g id="Node000015" class="node">
<title>Node15</title>
<g id="a_Node000015"><a xlink:title=" ">
<polygon fill="#e0e0e0" stroke="#999999" points="769,-20.75 672.75,-20.75 672.75,0 769,0 769,-20.75"/>
<text xml:space="preserve" text-anchor="middle" x="720.88" y="-7.25" font-family="Helvetica,sans-Serif" font-size="10.00">blitz/tvecglobs.h</text>
</a>
</g>
</g>
<!-- Node12&#45;&gt;Node15 -->
<g id="edge16_Node000012_Node000015" class="edge">
<title>Node12&#45;&gt;Node15</title>
<g id="a_edge16_Node000012_Node000015"><a xlink:title=" ">
<path fill="none" stroke="#63b8ff" d="M720.88,-56.34C720.88,-49.72 720.88,-40.72 720.88,-32.52"/>
<polygon fill="#63b8ff" stroke="#63b8ff" points="724.38,-32.59 720.88,-22.59 717.38,-32.59 724.38,-32.59"/>
</a>
</g>
</g>
<!-- Node16 -->
<g id="Node000016" class="node">
<title>Node16</title>
<g id="a_Node000016"><a xlink:title=" ">
<polygon fill="#e0e0e0" stroke="#999999" points="844.88,-20.75 786.88,-20.75 786.88,0 844.88,0 844.88,-20.75"/>
<text xml:space="preserve" text-anchor="middle" x="815.88" y="-7.25" font-family="Helvetica,sans-Serif" font-size="10.00">complex</text>
</a>
</g>
</g>
<!-- Node12&#45;&gt;Node16 -->
<g id="edge17_Node000012_Node000016" class="edge">
<title>Node12&#45;&gt;Node16</title>
<g id="a_edge17_Node000012_Node000016"><a xlink:title=" ">
<path fill="none" stroke="#63b8ff" d="M737.86,-56.34C752.18,-48.08 772.92,-36.13 789.41,-26.63"/>
<polygon fill="#63b8ff" stroke="#63b8ff" points="790.81,-29.86 797.73,-21.83 787.31,-23.8 790.81,-29.86"/>
</a>
</g>
</g>
<!-- Node17&#45;&gt;Node6 -->
<g id="edge22_Node000017_Node000006" class="edge">
<title>Node17&#45;&gt;Node6</title>
<g id="a_edge22_Node000017_Node000006"><a xlink:title=" ">
<path fill="none" stroke="#63b8ff" d="M777.05,-116.7C688.87,-105.55 505.09,-82.31 428.05,-72.57"/>
<polygon fill="#63b8ff" stroke="#63b8ff" points="428.49,-69.1 418.13,-71.32 427.61,-76.05 428.49,-69.1"/>
</a>
</g>
</g>
<!-- Node17&#45;&gt;Node12 -->
<g id="edge23_Node000017_Node000012" class="edge">
<title>Node17&#45;&gt;Node12</title>
<g id="a_edge23_Node000017_Node000012"><a xlink:title=" ">
<path fill="none" stroke="#63b8ff" d="M807.1,-113.09C791.13,-104.76 767.92,-92.66 749.61,-83.11"/>
<polygon fill="#63b8ff" stroke="#63b8ff" points="751.31,-80.05 740.83,-78.53 748.08,-86.26 751.31,-80.05"/>
</a>
</g>
</g>
<!-- Node17&#45;&gt;Node16 -->
<g id="edge21_Node000017_Node000016" class="edge">
<title>Node17&#45;&gt;Node16</title>
<g id="a_edge21_Node000017_Node000016"><a xlink:title=" ">
<path fill="none" stroke="#63b8ff" d="M825.02,-113.37C823.42,-95.52 819.93,-56.61 817.76,-32.34"/>
<polygon fill="#63b8ff" stroke="#63b8ff" points="821.27,-32.33 816.89,-22.68 814.3,-32.96 821.27,-32.33"/>
</a>
</g>
</g>
<!-- Node18 -->
<g id="Node000018" class="node">
<title>Node18</title>
<g id="a_Node000018"><a xlink:title=" ">
<polygon fill="#e0e0e0" stroke="#999999" points="894.12,-77.5 843.62,-77.5 843.62,-56.75 894.12,-56.75 894.12,-77.5"/>
<text xml:space="preserve" text-anchor="middle" x="868.88" y="-64" font-family="Helvetica,sans-Serif" font-size="10.00">math.h</text>
</a>
</g>
</g>
<!-- Node17&#45;&gt;Node18 -->
<g id="edge20_Node000017_Node000018" class="edge">
<title>Node17&#45;&gt;Node18</title>
<g id="a_edge20_Node000017_Node000018"><a xlink:title=" ">
<path fill="none" stroke="#63b8ff" d="M833.56,-113.09C839.31,-105.77 847.34,-95.54 854.29,-86.69"/>
<polygon fill="#63b8ff" stroke="#63b8ff" points="856.9,-89.05 860.32,-79.02 851.39,-84.72 856.9,-89.05"/>
</a>
</g>
</g>
<!-- Node19&#45;&gt;Node6 -->
<g id="edge31_Node000019_Node000006" class="edge">
<title>Node19&#45;&gt;Node6</title>
<g id="a_edge31_Node000019_Node000006"><a xlink:title=" ">
<path fill="none" stroke="#63b8ff" d="M196.06,-113.02C242.42,-102.45 315.16,-85.85 358.02,-76.08"/>
<polygon fill="#63b8ff" stroke="#63b8ff" points="358.57,-79.54 367.54,-73.91 357.01,-72.72 358.57,-79.54"/>
</a>
</g>
</g>
<!-- Node19&#45;&gt;Node8 -->
<g id="edge33_Node000019_Node000008" class="edge">
<title>Node19&#45;&gt;Node8</title>
<g id="a_edge33_Node000019_Node000008"><a xlink:title=" ">
<path fill="none" stroke="#63b8ff" d="M169.86,-113.09C184.18,-104.83 204.92,-92.88 221.41,-83.38"/>
<polygon fill="#63b8ff" stroke="#63b8ff" points="222.81,-86.61 229.73,-78.58 219.31,-80.55 222.81,-86.61"/>
</a>
</g>
</g>
<!-- Node19&#45;&gt;Node12 -->
<g id="edge32_Node000019_Node000012" class="edge">
<title>Node19&#45;&gt;Node12</title>
<g id="a_edge32_Node000019_Node000012"><a xlink:title=" ">
<path fill="none" stroke="#63b8ff" d="M211.32,-114.53C214.21,-114.17 217.07,-113.82 219.88,-113.5 389.75,-93.93 592.83,-77.76 678.96,-71.23"/>
<polygon fill="#63b8ff" stroke="#63b8ff" points="679.11,-74.73 688.81,-70.48 678.58,-67.75 679.11,-74.73"/>
</a>
</g>
</g>
<!-- Node20 -->
<g id="Node000020" class="node">
<title>Node20</title>
<g id="a_Node000020"><a xlink:title=" ">
<polygon fill="#e0e0e0" stroke="#999999" points="37.75,-77.5 0,-77.5 0,-56.75 37.75,-56.75 37.75,-77.5"/>
<text xml:space="preserve" text-anchor="middle" x="18.88" y="-64" font-family="Helvetica,sans-Serif" font-size="10.00">map</text>
</a>
</g>
</g>
<!-- Node19&#45;&gt;Node20 -->
<g id="edge28_Node000019_Node000020" class="edge">
<title>Node19&#45;&gt;Node20</title>
<g id="a_edge28_Node000019_Node000020"><a xlink:title=" ">
<path fill="none" stroke="#63b8ff" d="M128.92,-113.09C106.33,-103.86 72.43,-90 48.22,-80.12"/>
<polygon fill="#63b8ff" stroke="#63b8ff" points="49.84,-77 39.26,-76.46 47.2,-83.48 49.84,-77"/>
</a>
</g>
</g>
<!-- Node21 -->
<g id="Node000021" class="node">
<title>Node21</title>
<g id="a_Node000021"><a xlink:title=" ">
<polygon fill="#e0e0e0" stroke="#999999" points="119.88,-77.5 55.88,-77.5 55.88,-56.75 119.88,-56.75 119.88,-77.5"/>
<text xml:space="preserve" text-anchor="middle" x="87.88" y="-64" font-family="Helvetica,sans-Serif" font-size="10.00">stdexcept</text>
</a>
</g>
</g>
<!-- Node19&#45;&gt;Node21 -->
<g id="edge29_Node000019_Node000021" class="edge">
<title>Node19&#45;&gt;Node21</title>
<g id="a_edge29_Node000019_Node000021"><a xlink:title=" ">
<path fill="none" stroke="#63b8ff" d="M141.25,-113.09C132.01,-105.3 118.86,-94.22 107.93,-85.01"/>
<polygon fill="#63b8ff" stroke="#63b8ff" points="110.46,-82.57 100.55,-78.8 105.95,-87.92 110.46,-82.57"/>
</a>
</g>
</g>
<!-- Node22 -->
<g id="Node000022" class="node">
<title>Node22</title>
<g id="a_Node000022"><a xlink:title=" ">
<polygon fill="#e0e0e0" stroke="#999999" points="202.25,-77.5 137.5,-77.5 137.5,-56.75 202.25,-56.75 202.25,-77.5"/>
<text xml:space="preserve" text-anchor="middle" x="169.88" y="-64" font-family="Helvetica,sans-Serif" font-size="10.00">functional</text>
</a>
</g>
</g>
<!-- Node19&#45;&gt;Node22 -->
<g id="edge30_Node000019_Node000022" class="edge">
<title>Node19&#45;&gt;Node22</title>
<g id="a_edge30_Node000019_Node000022"><a xlink:title=" ">
<path fill="none" stroke="#63b8ff" d="M155.91,-113.09C158.02,-106.31 160.89,-97.05 163.49,-88.69"/>
<polygon fill="#63b8ff" stroke="#63b8ff" points="166.79,-89.86 166.41,-79.27 160.11,-87.79 166.79,-89.86"/>
</a>
</g>
</g>
<!-- Node23&#45;&gt;Node2 -->
<g id="edge44_Node000023_Node000002" class="edge">
<title>Node23&#45;&gt;Node2</title>
<g id="a_edge44_Node000023_Node000002"><a xlink:title=" ">
<path fill="none" stroke="#63b8ff" d="M746.22,-342.78C716.9,-335.22 671.14,-321.95 633.88,-304.5 603.9,-290.47 572.18,-269.25 551.76,-254.65"/>
<polygon fill="#63b8ff" stroke="#63b8ff" points="554.08,-252.01 543.93,-248.97 549.97,-257.68 554.08,-252.01"/>
</a>
</g>
</g>
<!-- Node23&#45;&gt;Node5 -->
<g id="edge37_Node000023_Node000005" class="edge">
<title>Node23&#45;&gt;Node5</title>
<g id="a_edge37_Node000023_Node000005"><a xlink:title=" ">
<path fill="none" stroke="#63b8ff" d="M783.02,-340.26C798.15,-318.61 830.28,-264.97 807.88,-227 775.09,-171.46 700.1,-144.04 656.32,-132.31"/>
<polygon fill="#63b8ff" stroke="#63b8ff" points="657.41,-128.98 646.86,-129.91 655.69,-135.76 657.41,-128.98"/>
</a>
</g>
</g>
<!-- Node23&#45;&gt;Node12 -->
<g id="edge50_Node000023_Node000012" class="edge">
<title>Node23&#45;&gt;Node12</title>
<g id="a_edge50_Node000023_Node000012"><a xlink:title=" ">
<path fill="none" stroke="#63b8ff" d="M803.12,-340.06C840.44,-324.67 902.88,-291.04 902.88,-238.38 902.88,-238.38 902.88,-238.38 902.88,-179.62 902.88,-149.05 905.59,-135.03 883.88,-113.5 851.79,-81.68 799.4,-71.72 762.69,-68.83"/>
<polygon fill="#63b8ff" stroke="#63b8ff" points="763.08,-65.35 752.89,-68.22 762.65,-72.34 763.08,-65.35"/>
</a>
</g>
</g>
<!-- Node23&#45;&gt;Node13 -->
<g id="edge35_Node000023_Node000013" class="edge">
<title>Node23&#45;&gt;Node13</title>
<g id="a_edge35_Node000023_Node000013"><a xlink:title=" ">
<path fill="none" stroke="#63b8ff" d="M805.39,-347.2C861.69,-340.31 978.88,-316.58 978.88,-238.38 978.88,-238.38 978.88,-238.38 978.88,-122.88 978.88,-89.08 962.39,-52.72 950.58,-31.02"/>
<polygon fill="#63b8ff" stroke="#63b8ff" points="953.68,-29.38 945.7,-22.41 947.59,-32.84 953.68,-29.38"/>
</a>
</g>
</g>
<!-- Node23&#45;&gt;Node17 -->
<g id="edge51_Node000023_Node000017" class="edge">
<title>Node23&#45;&gt;Node17</title>
<g id="a_edge51_Node000023_Node000017"><a xlink:title=" ">
<path fill="none" stroke="#63b8ff" d="M799.95,-340.09C814.68,-332.69 832.28,-320.97 840.88,-304.5 868.06,-252.38 847.27,-180.03 834.28,-145.2"/>
<polygon fill="#63b8ff" stroke="#63b8ff" points="837.56,-143.99 830.65,-135.95 831.04,-146.54 837.56,-143.99"/>
</a>
</g>
</g>
<!-- Node24 -->
<g id="Node000024" class="node">
<title>Node24</title>
<g id="a_Node000024"><a xlink:title=" ">
<polygon fill="#e0e0e0" stroke="#999999" points="799.25,-247.75 752.5,-247.75 752.5,-227 799.25,-227 799.25,-247.75"/>
<text xml:space="preserve" text-anchor="middle" x="775.88" y="-234.25" font-family="Helvetica,sans-Serif" font-size="10.00">cmath</text>
</a>
</g>
</g>
<!-- Node23&#45;&gt;Node24 -->
<g id="edge36_Node000023_Node000024" class="edge">
<title>Node23&#45;&gt;Node24</title>
<g id="a_edge36_Node000023_Node000024"><a xlink:title=" ">
<path fill="none" stroke="#63b8ff" d="M775.88,-340.37C775.88,-322.6 775.88,-283.97 775.88,-259.68"/>
<polygon fill="#63b8ff" stroke="#63b8ff" points="779.38,-259.69 775.88,-249.69 772.38,-259.69 779.38,-259.69"/>
</a>
</g>
</g>
<!-- Node25 -->
<g id="Node000025" class="node">
<title>Node25</title>
<g id="a_Node000025"><a xlink:href="GaussQuad_8h.html" target="_top" xlink:title="Gaussian quadrature helpers for Green&#39;s functions and incident fields.">
<polygon fill="white" stroke="#666666" points="723.12,-304.5 642.62,-304.5 642.62,-283.75 723.12,-283.75 723.12,-304.5"/>
<text xml:space="preserve" text-anchor="middle" x="682.88" y="-291" font-family="Helvetica,sans-Serif" font-size="10.00">GaussQuad.h</text>
</a>
</g>
</g>
<!-- Node23&#45;&gt;Node25 -->
<g id="edge38_Node000023_Node000025" class="edge">
<title>Node23&#45;&gt;Node25</title>
<g id="a_edge38_Node000023_Node000025"><a xlink:title=" ">
<path fill="none" stroke="#63b8ff" d="M759.25,-340.09C745.36,-331.91 725.31,-320.11 709.24,-310.65"/>
<polygon fill="#63b8ff" stroke="#63b8ff" points="711.06,-307.65 700.66,-305.6 707.5,-313.69 711.06,-307.65"/>
</a>
</g>
</g>
<!-- Node27 -->
<g id="Node000027" class="node">
<title>Node27</title>
<g id="a_Node000027"><a xlink:href="SingSub_8h.html" target="_top" xlink:title="Exact subtractions for singular/near&#45;singular triangle integrals.">
<polygon fill="white" stroke="#666666" points="451.88,-304.5 387.88,-304.5 387.88,-283.75 451.88,-283.75 451.88,-304.5"/>
<text xml:space="preserve" text-anchor="middle" x="419.88" y="-291" font-family="Helvetica,sans-Serif" font-size="10.00">SingSub.h</text>
</a>
</g>
</g>
<!-- Node23&#45;&gt;Node27 -->
<g id="edge45_Node000023_Node000027" class="edge">
<title>Node23&#45;&gt;Node27</title>
<g id="a_edge45_Node000023_Node000027"><a xlink:title=" ">
<path fill="none" stroke="#63b8ff" d="M746.13,-345.3C683.32,-335.64 536.89,-313.12 463.47,-301.83"/>
<polygon fill="#63b8ff" stroke="#63b8ff" points="464.25,-298.41 453.83,-300.35 463.18,-305.33 464.25,-298.41"/>
</a>
</g>
</g>
<!-- Node25&#45;&gt;Node2 -->
<g id="edge41_Node000025_Node000002" class="edge">
<title>Node25&#45;&gt;Node2</title>
<g id="a_edge41_Node000025_Node000002"><a xlink:title=" ">
<path fill="none" stroke="#63b8ff" d="M655.52,-283.34C631.12,-274.61 595.15,-261.73 567.94,-252"/>
<polygon fill="#63b8ff" stroke="#63b8ff" points="569.27,-248.75 558.67,-248.68 566.91,-255.35 569.27,-248.75"/>
</a>
</g>
</g>
<!-- Node25&#45;&gt;Node9 -->
<g id="edge40_Node000025_Node000009" class="edge">
<title>Node25&#45;&gt;Node9</title>
<g id="a_edge40_Node000025_Node000009"><a xlink:title=" ">
<path fill="none" stroke="#63b8ff" d="M654.08,-283.29C637.98,-276.14 619.3,-264.71 609.88,-247.75 579.37,-192.87 689.12,-165.46 653.88,-113.5 637.7,-89.65 606.78,-78.34 581.23,-72.97"/>
<polygon fill="#63b8ff" stroke="#63b8ff" points="581.89,-69.53 571.42,-71.17 580.62,-76.42 581.89,-69.53"/>
</a>
</g>
</g>
<!-- Node25&#45;&gt;Node12 -->
<g id="edge42_Node000025_Node000012" class="edge">
<title>Node25&#45;&gt;Node12</title>
<g id="a_edge42_Node000025_Node000012"><a xlink:title=" ">
<path fill="none" stroke="#63b8ff" d="M689.15,-283.49C694.6,-274.6 702.17,-260.84 705.88,-247.75 721.69,-191.95 722.47,-122.81 721.69,-88.88"/>
<polygon fill="#63b8ff" stroke="#63b8ff" points="725.2,-89.1 721.39,-79.22 718.21,-89.32 725.2,-89.1"/>
</a>
</g>
</g>
<!-- Node25&#45;&gt;Node24 -->
<g id="edge39_Node000025_Node000024" class="edge">
<title>Node25&#45;&gt;Node24</title>
<g id="a_edge39_Node000025_Node000024"><a xlink:title=" ">
<path fill="none" stroke="#63b8ff" d="M699.5,-283.34C713.39,-275.16 733.44,-263.36 749.51,-253.9"/>
<polygon fill="#63b8ff" stroke="#63b8ff" points="751.25,-256.94 758.09,-248.85 747.69,-250.9 751.25,-256.94"/>
</a>
</g>
</g>
<!-- Node26 -->
<g id="Node000026" class="node">
<title>Node26</title>
<g id="a_Node000026"><a xlink:href="quadrature_8h.html" target="_top" xlink:title="Declarations of Dunavant (triangle) and Gauss–Legendre (1D) quadrature rules.">
<polygon fill="white" stroke="#666666" points="697,-247.75 618.75,-247.75 618.75,-227 697,-227 697,-247.75"/>
<text xml:space="preserve" text-anchor="middle" x="657.88" y="-234.25" font-family="Helvetica,sans-Serif" font-size="10.00">quadrature.h</text>
</a>
</g>
</g>
<!-- Node25&#45;&gt;Node26 -->
<g id="edge43_Node000025_Node000026" class="edge">
<title>Node25&#45;&gt;Node26</title>
<g id="a_edge43_Node000025_Node000026"><a xlink:title=" ">
<path fill="none" stroke="#63b8ff" d="M678.41,-283.34C675.24,-276.41 670.89,-266.87 667,-258.36"/>
<polygon fill="#63b8ff" stroke="#63b8ff" points="670.27,-257.1 662.93,-249.46 663.9,-260.01 670.27,-257.1"/>
</a>
</g>
</g>
<!-- Node27&#45;&gt;Node2 -->
<g id="edge47_Node000027_Node000002" class="edge">
<title>Node27&#45;&gt;Node2</title>
<g id="a_edge47_Node000027_Node000002"><a xlink:title=" ">
<path fill="none" stroke="#63b8ff" d="M439.54,-283.34C456.43,-274.93 481.04,-262.68 500.31,-253.09"/>
<polygon fill="#63b8ff" stroke="#63b8ff" points="501.63,-256.34 509.02,-248.75 498.51,-250.08 501.63,-256.34"/>
</a>
</g>
</g>
<!-- Node27&#45;&gt;Node6 -->
<g id="edge46_Node000027_Node000006" class="edge">
<title>Node27&#45;&gt;Node6</title>
<g id="a_edge46_Node000027_Node000006"><a xlink:title=" ">
<path fill="none" stroke="#63b8ff" d="M393.66,-283.39C378.2,-276.13 359.93,-264.53 350.88,-247.75 322.56,-195.23 329.11,-169.06 350.88,-113.5 355.07,-102.78 363.12,-93.08 371.06,-85.43"/>
<polygon fill="#63b8ff" stroke="#63b8ff" points="373.16,-88.24 378.31,-78.98 368.51,-83.01 373.16,-88.24"/>
</a>
</g>
</g>
<!-- Node27&#45;&gt;Node11 -->
<g id="edge48_Node000027_Node000011" class="edge">
<title>Node27&#45;&gt;Node11</title>
<g id="a_edge48_Node000027_Node000011"><a xlink:title=" ">
<path fill="none" stroke="#63b8ff" d="M420.16,-283.6C420.94,-257.23 423.15,-182.83 424.25,-146.03"/>
<polygon fill="#63b8ff" stroke="#63b8ff" points="427.74,-146.33 424.54,-136.23 420.74,-146.12 427.74,-146.33"/>
</a>
</g>
</g>
<!-- Node27&#45;&gt;Node12 -->
<g id="edge49_Node000027_Node000012" class="edge">
<title>Node27&#45;&gt;Node12</title>
<g id="a_edge49_Node000027_Node000012"><a xlink:title=" ">
<path fill="none" stroke="#63b8ff" d="M413.12,-283.53C393.31,-254.13 339.49,-164.26 383.88,-113.5 403.06,-91.56 593.15,-76.47 679.08,-70.72"/>
<polygon fill="#63b8ff" stroke="#63b8ff" points="679.23,-74.21 688.98,-70.07 678.77,-67.23 679.23,-74.21"/>
</a>
</g>
</g>
</g>
</svg>
