<?xml version="1.0" encoding="UTF-8" standalone="no"?>
<!DOCTYPE svg PUBLIC "-//W3C//DTD SVG 1.1//EN"
 "http://www.w3.org/Graphics/SVG/1.1/DTD/svg11.dtd">
<!-- Generated by graphviz version 13.1.2 (20250809.0930)
 -->
<!-- Title: Graphical Class Hierarchy Pages: 1 -->
<svg width="492pt" height="68pt"
 viewBox="0.00 0.00 492.00 68.00" xmlns="http://www.w3.org/2000/svg" xmlns:xlink="http://www.w3.org/1999/xlink">
<g id="graph0" class="graph" transform="scale(1 1) rotate(0) translate(4 63.75)">
<title>Graphical Class Hierarchy</title>
<!-- Node0 -->
<g id="Node000000" class="node">
<title>Node0</title>
<g id="a_Node000000"><a xlink:href="classGreenF.html" target="_top" xlink:title="Abstract base for Green&#39;s function kernels.">
<polygon fill="white" stroke="#666666" points="51.25,-39.75 0,-39.75 0,-19 51.25,-19 51.25,-39.75"/>
<text xml:space="preserve" text-anchor="middle" x="25.62" y="-26.25" font-family="Helvetica,sans-Serif" font-size="10.00">GreenF</text>
</a>
</g>
</g>
<!-- Node1 -->
<g id="Node000001" class="node">
<title>Node1</title>
<g id="a_Node000001"><a xlink:href="classGreenFHom3D.html" target="_top" xlink:title="Free‑space (homogeneous) Green&#39;s function provider.">
<polygon fill="white" stroke="#666666" points="183.12,-59.75 95.12,-59.75 95.12,-39 183.12,-39 183.12,-59.75"/>
<text xml:space="preserve" text-anchor="middle" x="139.12" y="-46.25" font-family="Helvetica,sans-Serif" font-size="10.00">GreenFHom3D</text>
</a>
</g>
</g>
<!-- Node0&#45;&gt;Node1 -->
<g id="edge7_Node000000_Node000001" class="edge">
<title>Node0&#45;&gt;Node1</title>
<g id="a_edge7_Node000000_Node000001"><a xlink:title=" ">
<path fill="none" stroke="#63b8ff" d="M62.68,-35.84C72.92,-37.68 84.17,-39.7 94.79,-41.6"/>
<polygon fill="#63b8ff" stroke="#63b8ff" points="63.6,-32.45 53.14,-34.13 62.36,-39.34 63.6,-32.45"/>
</a>
</g>
</g>
<!-- Node4 -->
<g id="Node000004" class="node">
<title>Node4</title>
<g id="a_Node000004"><a xlink:href="classGreenFLayered3D.html" target="_top" xlink:title="Layered background Green&#39;s function with tabulation and D/K/delta/kappa integrals.">
<polygon fill="white" stroke="#666666" points="191,-20.75 87.25,-20.75 87.25,0 191,0 191,-20.75"/>
<text xml:space="preserve" text-anchor="middle" x="139.12" y="-7.25" font-family="Helvetica,sans-Serif" font-size="10.00">GreenFLayered3D</text>
</a>
</g>
</g>
<!-- Node0&#45;&gt;Node4 -->
<g id="edge10_Node000000_Node000004" class="edge">
<title>Node0&#45;&gt;Node4</title>
<g id="a_edge10_Node000000_Node000004"><a xlink:title=" ">
<path fill="none" stroke="#63b8ff" d="M62.89,-23.2C70.65,-21.87 78.98,-20.45 87.18,-19.06"/>
<polygon fill="#63b8ff" stroke="#63b8ff" points="62.41,-19.73 53.14,-24.86 63.59,-26.63 62.41,-19.73"/>
</a>
</g>
</g>
<!-- Node2 -->
<g id="Node000002" class="node">
<title>Node2</title>
<g id="a_Node000002"><a xlink:href="classGreenFHom3DPer.html" target="_top" xlink:title="Base class for homogeneous 3D Green&#39;s functions with lattice periodicity.">
<polygon fill="white" stroke="#666666" points="330.75,-59.75 227,-59.75 227,-39 330.75,-39 330.75,-59.75"/>
<text xml:space="preserve" text-anchor="middle" x="278.88" y="-46.25" font-family="Helvetica,sans-Serif" font-size="10.00">GreenFHom3DPer</text>
</a>
</g>
</g>
<!-- Node1&#45;&gt;Node2 -->
<g id="edge8_Node000001_Node000002" class="edge">
<title>Node1&#45;&gt;Node2</title>
<g id="a_edge8_Node000001_Node000002"><a xlink:title=" ">
<path fill="none" stroke="#63b8ff" d="M194.56,-49.38C205.12,-49.38 216.16,-49.38 226.62,-49.38"/>
<polygon fill="#63b8ff" stroke="#63b8ff" points="194.85,-45.88 184.85,-49.38 194.85,-52.88 194.85,-45.88"/>
</a>
</g>
</g>
<!-- Node3 -->
<g id="Node000003" class="node">
<title>Node3</title>
<g id="a_Node000003"><a xlink:href="classGreenFHom3DPer2D.html" target="_top" xlink:title="2D‑periodic homogeneous 3D Green&#39;s function with Ewald acceleration.">
<polygon fill="white" stroke="#666666" points="484,-59.75 366.75,-59.75 366.75,-39 484,-39 484,-59.75"/>
<text xml:space="preserve" text-anchor="middle" x="425.38" y="-46.25" font-family="Helvetica,sans-Serif" font-size="10.00">GreenFHom3DPer2D</text>
</a>
</g>
</g>
<!-- Node2&#45;&gt;Node3 -->
<g id="edge9_Node000002_Node000003" class="edge">
<title>Node2&#45;&gt;Node3</title>
<g id="a_edge9_Node000002_Node000003"><a xlink:title=" ">
<path fill="none" stroke="#63b8ff" d="M342.61,-49.38C350.48,-49.38 358.5,-49.38 366.3,-49.38"/>
<polygon fill="#63b8ff" stroke="#63b8ff" points="342.74,-45.88 332.74,-49.38 342.74,-52.88 342.74,-45.88"/>
</a>
</g>
</g>
</g>
</svg>
