<?xml version="1.0" encoding="UTF-8" standalone="no"?>
<!DOCTYPE svg PUBLIC "-//W3C//DTD SVG 1.1//EN"
 "http://www.w3.org/Graphics/SVG/1.1/DTD/svg11.dtd">
<!-- Generated by graphviz version 13.1.2 (20250809.0930)
 -->
<!-- Title: Graphical Class Hierarchy Pages: 1 -->
<svg width="192pt" height="107pt"
 viewBox="0.00 0.00 192.00 107.00" xmlns="http://www.w3.org/2000/svg" xmlns:xlink="http://www.w3.org/1999/xlink">
<g id="graph0" class="graph" transform="scale(1 1) rotate(0) translate(4 102.75)">
<title>Graphical Class Hierarchy</title>
<!-- Node0 -->
<g id="Node000000" class="node">
<title>Node0</title>
<g id="a_Node000000"><a xlink:href="classIncidentField.html" target="_top" xlink:title="Abstract base for incident fields (excitations) used in SIE.">
<polygon fill="white" stroke="#666666" points="78.25,-59.75 0,-59.75 0,-39 78.25,-39 78.25,-59.75"/>
<text xml:space="preserve" text-anchor="middle" x="39.12" y="-46.25" font-family="Helvetica,sans-Serif" font-size="10.00">IncidentField</text>
</a>
</g>
</g>
<!-- Node1 -->
<g id="Node000001" class="node">
<title>Node1</title>
<g id="a_Node000001"><a xlink:href="classDipole.html" target="_top" xlink:title="Point electric dipole excitation.">
<polygon fill="white" stroke="#666666" points="173,-98.75 125.5,-98.75 125.5,-78 173,-78 173,-98.75"/>
<text xml:space="preserve" text-anchor="middle" x="149.25" y="-85.25" font-family="Helvetica,sans-Serif" font-size="10.00">Dipole</text>
</a>
</g>
</g>
<!-- Node0&#45;&gt;Node1 -->
<g id="edge11_Node000000_Node000001" class="edge">
<title>Node0&#45;&gt;Node1</title>
<g id="a_edge11_Node000000_Node000001"><a xlink:title=" ">
<path fill="none" stroke="#63b8ff" d="M80.82,-64.05C95.81,-69.46 112.25,-75.39 125.15,-80.04"/>
<polygon fill="#63b8ff" stroke="#63b8ff" points="82.26,-60.85 71.67,-60.75 79.89,-67.44 82.26,-60.85"/>
</a>
</g>
</g>
<!-- Node2 -->
<g id="Node000002" class="node">
<title>Node2</title>
<g id="a_Node000002"><a xlink:href="classGaussian.html" target="_top" xlink:title="Paraxial Gaussian beam illumination (homogeneous medium).">
<polygon fill="white" stroke="#666666" points="179.75,-59.75 118.75,-59.75 118.75,-39 179.75,-39 179.75,-59.75"/>
<text xml:space="preserve" text-anchor="middle" x="149.25" y="-46.25" font-family="Helvetica,sans-Serif" font-size="10.00">Gaussian</text>
</a>
</g>
</g>
<!-- Node0&#45;&gt;Node2 -->
<g id="edge12_Node000000_Node000002" class="edge">
<title>Node0&#45;&gt;Node2</title>
<g id="a_edge12_Node000000_Node000002"><a xlink:title=" ">
<path fill="none" stroke="#63b8ff" d="M89.85,-49.38C99.62,-49.38 109.58,-49.38 118.45,-49.38"/>
<polygon fill="#63b8ff" stroke="#63b8ff" points="90.06,-45.88 80.06,-49.38 90.06,-52.88 90.06,-45.88"/>
</a>
</g>
</g>
<!-- Node3 -->
<g id="Node000003" class="node">
<title>Node3</title>
<g id="a_Node000003"><a xlink:href="classPlaneWave.html" target="_top" xlink:title="Models a plane wave as an incident field in homogeneous or layered media.">
<polygon fill="white" stroke="#666666" points="184.25,-20.75 114.25,-20.75 114.25,0 184.25,0 184.25,-20.75"/>
<text xml:space="preserve" text-anchor="middle" x="149.25" y="-7.25" font-family="Helvetica,sans-Serif" font-size="10.00">PlaneWave</text>
</a>
</g>
</g>
<!-- Node0&#45;&gt;Node3 -->
<g id="edge13_Node000000_Node000003" class="edge">
<title>Node0&#45;&gt;Node3</title>
<g id="a_edge13_Node000000_Node000003"><a xlink:title=" ">
<path fill="none" stroke="#63b8ff" d="M80.84,-34.69C93.27,-30.2 106.71,-25.36 118.29,-21.18"/>
<polygon fill="#63b8ff" stroke="#63b8ff" points="79.89,-31.31 71.67,-38 82.26,-37.9 79.89,-31.31"/>
</a>
</g>
</g>
</g>
</svg>
