<?xml version="1.0" encoding="UTF-8" standalone="no"?>
<!DOCTYPE svg PUBLIC "-//W3C//DTD SVG 1.1//EN"
 "http://www.w3.org/Graphics/SVG/1.1/DTD/svg11.dtd">
<!-- Generated by graphviz version 13.1.2 (20250809.0930)
 -->
<!-- Title: Graphical Class Hierarchy Pages: 1 -->
<svg width="348pt" height="68pt"
 viewBox="0.00 0.00 348.00 68.00" xmlns="http://www.w3.org/2000/svg" xmlns:xlink="http://www.w3.org/1999/xlink">
<g id="graph0" class="graph" transform="scale(1 1) rotate(0) translate(4 63.75)">
<title>Graphical Class Hierarchy</title>
<!-- Node0 -->
<g id="Node000000" class="node">
<title>Node0</title>
<g id="a_Node000000"><a xlink:href="classDomain.html" target="_top" xlink:title="Abstract base class for domains.">
<polygon fill="white" stroke="#666666" points="54.25,-39.75 0,-39.75 0,-19 54.25,-19 54.25,-39.75"/>
<text xml:space="preserve" text-anchor="middle" x="27.12" y="-26.25" font-family="Helvetica,sans-Serif" font-size="10.00">Domain</text>
</a>
</g>
</g>
<!-- Node1 -->
<g id="Node000001" class="node">
<title>Node1</title>
<g id="a_Node000001"><a xlink:href="classDomainHom3D.html" target="_top" xlink:title="Concrete domain for homogeneous 3D media.">
<polygon fill="white" stroke="#666666" points="189.12,-59.75 98.12,-59.75 98.12,-39 189.12,-39 189.12,-59.75"/>
<text xml:space="preserve" text-anchor="middle" x="143.62" y="-46.25" font-family="Helvetica,sans-Serif" font-size="10.00">DomainHom3D</text>
</a>
</g>
</g>
<!-- Node0&#45;&gt;Node1 -->
<g id="edge4_Node000000_Node000001" class="edge">
<title>Node0&#45;&gt;Node1</title>
<g id="a_edge4_Node000000_Node000001"><a xlink:title=" ">
<path fill="none" stroke="#63b8ff" d="M65.77,-35.95C76.02,-37.74 87.22,-39.7 97.82,-41.55"/>
<polygon fill="#63b8ff" stroke="#63b8ff" points="66.63,-32.55 56.17,-34.27 65.42,-39.44 66.63,-32.55"/>
</a>
</g>
</g>
<!-- Node3 -->
<g id="Node000003" class="node">
<title>Node3</title>
<g id="a_Node000003"><a xlink:href="classDomainLayered3D.html" target="_top" xlink:title="3D stratified (layered) medium domain.">
<polygon fill="white" stroke="#666666" points="197,-20.75 90.25,-20.75 90.25,0 197,0 197,-20.75"/>
<text xml:space="preserve" text-anchor="middle" x="143.62" y="-7.25" font-family="Helvetica,sans-Serif" font-size="10.00">DomainLayered3D</text>
</a>
</g>
</g>
<!-- Node0&#45;&gt;Node3 -->
<g id="edge6_Node000000_Node000003" class="edge">
<title>Node0&#45;&gt;Node3</title>
<g id="a_edge6_Node000000_Node000003"><a xlink:title=" ">
<path fill="none" stroke="#63b8ff" d="M65.92,-23.1C73.65,-21.82 81.92,-20.45 90.07,-19.1"/>
<polygon fill="#63b8ff" stroke="#63b8ff" points="65.47,-19.63 56.17,-24.72 66.61,-26.54 65.47,-19.63"/>
</a>
</g>
</g>
<!-- Node2 -->
<g id="Node000002" class="node">
<title>Node2</title>
<g id="a_Node000002"><a xlink:href="classDomainHom3DPer.html" target="_top" xlink:title="Homogeneous medium with Bloch‑periodic excitation/Green&#39;s function.">
<polygon fill="white" stroke="#666666" points="339.75,-59.75 233,-59.75 233,-39 339.75,-39 339.75,-59.75"/>
<text xml:space="preserve" text-anchor="middle" x="286.38" y="-46.25" font-family="Helvetica,sans-Serif" font-size="10.00">DomainHom3DPer</text>
</a>
</g>
</g>
<!-- Node1&#45;&gt;Node2 -->
<g id="edge5_Node000001_Node000002" class="edge">
<title>Node1&#45;&gt;Node2</title>
<g id="a_edge5_Node000001_Node000002"><a xlink:title=" ">
<path fill="none" stroke="#63b8ff" d="M201.05,-49.38C211.44,-49.38 222.25,-49.38 232.53,-49.38"/>
<polygon fill="#63b8ff" stroke="#63b8ff" points="201.06,-45.88 191.06,-49.38 201.06,-52.88 201.06,-45.88"/>
</a>
</g>
</g>
</g>
</svg>
