<?xml version="1.0" encoding="UTF-8" standalone="no"?>
<!DOCTYPE svg PUBLIC "-//W3C//DTD SVG 1.1//EN"
 "http://www.w3.org/Graphics/SVG/1.1/DTD/svg11.dtd">
<!-- Generated by graphviz version 13.1.2 (20250809.0930)
 -->
<!-- Title: Graphical Class Hierarchy Pages: 1 -->
<svg width="191pt" height="107pt"
 viewBox="0.00 0.00 191.00 107.00" xmlns="http://www.w3.org/2000/svg" xmlns:xlink="http://www.w3.org/1999/xlink">
<g id="graph0" class="graph" transform="scale(1 1) rotate(0) translate(4 102.75)">
<title>Graphical Class Hierarchy</title>
<!-- Node0 -->
<g id="Node000000" class="node">
<title>Node0</title>
<g id="a_Node000000"><a xlink:href="classCLParser.html" target="_top" xlink:title="Abstract base for all command&#45;line option parsers.">
<polygon fill="white" stroke="#666666" points="58,-59.75 0,-59.75 0,-39 58,-39 58,-59.75"/>
<text xml:space="preserve" text-anchor="middle" x="29" y="-46.25" font-family="Helvetica,sans-Serif" font-size="10.00">CLParser</text>
</a>
</g>
</g>
<!-- Node1 -->
<g id="Node000001" class="node">
<title>Node1</title>
<g id="a_Node000001"><a xlink:href="classCLFlag.html" target="_top" xlink:title="Boolean flag option with no argument.">
<polygon fill="white" stroke="#666666" points="162.88,-98.75 113.88,-98.75 113.88,-78 162.88,-78 162.88,-98.75"/>
<text xml:space="preserve" text-anchor="middle" x="138.38" y="-85.25" font-family="Helvetica,sans-Serif" font-size="10.00">CLFlag</text>
</a>
</g>
</g>
<!-- Node0&#45;&gt;Node1 -->
<g id="edge1_Node000000_Node000001" class="edge">
<title>Node0&#45;&gt;Node1</title>
<g id="a_edge1_Node000000_Node000001"><a xlink:title=" ">
<path fill="none" stroke="#63b8ff" d="M68.97,-63.53C83.87,-68.94 100.4,-74.94 113.48,-79.69"/>
<polygon fill="#63b8ff" stroke="#63b8ff" points="70.51,-60.36 59.92,-60.24 68.12,-66.94 70.51,-60.36"/>
</a>
</g>
</g>
<!-- Node2 -->
<g id="Node000002" class="node">
<title>Node2</title>
<g id="a_Node000002"><a xlink:href="classCLOption.html" target="_top" xlink:title="Typed option expecting a value (e.g., &quot;&#45;th 8&quot;, &quot;&#45;l 2&quot;).">
<polygon fill="white" stroke="#666666" points="182.75,-59.75 94,-59.75 94,-39 182.75,-39 182.75,-59.75"/>
<text xml:space="preserve" text-anchor="middle" x="138.38" y="-46.25" font-family="Helvetica,sans-Serif" font-size="10.00">CLOption&lt; T &gt;</text>
</a>
</g>
</g>
<!-- Node0&#45;&gt;Node2 -->
<g id="edge2_Node000000_Node000002" class="edge">
<title>Node0&#45;&gt;Node2</title>
<g id="a_edge2_Node000000_Node000002"><a xlink:title=" ">
<path fill="none" stroke="#63b8ff" d="M69.89,-49.38C77.67,-49.38 85.87,-49.38 93.77,-49.38"/>
<polygon fill="#63b8ff" stroke="#63b8ff" points="70.01,-45.88 60.01,-49.38 70.01,-52.88 70.01,-45.88"/>
</a>
</g>
</g>
<!-- Node3 -->
<g id="Node000003" class="node">
<title>Node3</title>
<g id="a_Node000003"><a xlink:href="classCLStringOption.html" target="_top" xlink:title="Option that captures a string argument.">
<polygon fill="white" stroke="#666666" points="182.75,-20.75 94,-20.75 94,0 182.75,0 182.75,-20.75"/>
<text xml:space="preserve" text-anchor="middle" x="138.38" y="-7.25" font-family="Helvetica,sans-Serif" font-size="10.00">CLStringOption</text>
</a>
</g>
</g>
<!-- Node0&#45;&gt;Node3 -->
<g id="edge3_Node000000_Node000003" class="edge">
<title>Node0&#45;&gt;Node3</title>
<g id="a_edge3_Node000000_Node000003"><a xlink:title=" ">
<path fill="none" stroke="#63b8ff" d="M69.25,-35.12C81.92,-30.52 95.75,-25.49 107.62,-21.18"/>
<polygon fill="#63b8ff" stroke="#63b8ff" points="68.12,-31.81 59.92,-38.51 70.51,-38.39 68.12,-31.81"/>
</a>
</g>
</g>
</g>
</svg>
