<?xml version="1.0" encoding="UTF-8" standalone="no"?>
<!DOCTYPE svg PUBLIC "-//W3C//DTD SVG 1.1//EN"
 "http://www.w3.org/Graphics/SVG/1.1/DTD/svg11.dtd">
<!-- Generated by graphviz version 13.1.2 (20250809.0930)
 -->
<!-- Title: iofunctions.h Pages: 1 -->
<svg width="695pt" height="86pt"
 viewBox="0.00 0.00 695.00 86.00" xmlns="http://www.w3.org/2000/svg" xmlns:xlink="http://www.w3.org/1999/xlink">
<g id="graph0" class="graph" transform="scale(1 1) rotate(0) translate(4 81.5)">
<title>iofunctions.h</title>
<!-- Node1 -->
<g id="Node000001" class="node">
<title>Node1</title>
<g id="a_Node000001"><a xlink:title="Small helper templates for reading whitespace&#45;separated values from text files while skipping line co...">
<polygon fill="#999999" stroke="#666666" points="400.12,-77.5 321.12,-77.5 321.12,-56.75 400.12,-56.75 400.12,-77.5"/>
<text xml:space="preserve" text-anchor="middle" x="360.62" y="-64" font-family="Helvetica,sans-Serif" font-size="10.00">iofunctions.h</text>
</a>
</g>
</g>
<!-- Node2 -->
<g id="Node000002" class="node">
<title>Node2</title>
<g id="a_Node000002"><a xlink:href="DomainHom3D_8cpp.html" target="_top" xlink:title="Implementation of the homogeneous 3D domain.">
<polygon fill="white" stroke="#666666" points="111.25,-20.75 0,-20.75 0,0 111.25,0 111.25,-20.75"/>
<text xml:space="preserve" text-anchor="middle" x="55.62" y="-7.25" font-family="Helvetica,sans-Serif" font-size="10.00">DomainHom3D.cpp</text>
</a>
</g>
</g>
<!-- Node1&#45;&gt;Node2 -->
<g id="edge1_Node000001_Node000002" class="edge">
<title>Node1&#45;&gt;Node2</title>
<g id="a_edge1_Node000001_Node000002"><a xlink:title=" ">
<path fill="none" stroke="#63b8ff" d="M309.5,-56.95C254.39,-47.06 166.98,-31.36 110.47,-21.22"/>
<polygon fill="#63b8ff" stroke="#63b8ff" points="308.8,-60.38 319.26,-58.7 310.04,-53.49 308.8,-60.38"/>
</a>
</g>
</g>
<!-- Node3 -->
<g id="Node000003" class="node">
<title>Node3</title>
<g id="a_Node000003"><a xlink:href="DomainLayered3D_8cpp.html" target="_top" xlink:title="Implementation of the layered 3D domain.">
<polygon fill="white" stroke="#666666" points="256.12,-20.75 129.12,-20.75 129.12,0 256.12,0 256.12,-20.75"/>
<text xml:space="preserve" text-anchor="middle" x="192.62" y="-7.25" font-family="Helvetica,sans-Serif" font-size="10.00">DomainLayered3D.cpp</text>
</a>
</g>
</g>
<!-- Node1&#45;&gt;Node3 -->
<g id="edge2_Node000001_Node000003" class="edge">
<title>Node1&#45;&gt;Node3</title>
<g id="a_edge2_Node000001_Node000003"><a xlink:title=" ">
<path fill="none" stroke="#63b8ff" d="M319.64,-52.77C289.68,-43.01 249.72,-29.98 222.68,-21.17"/>
<polygon fill="#63b8ff" stroke="#63b8ff" points="318.56,-56.1 329.15,-55.87 320.73,-49.44 318.56,-56.1"/>
</a>
</g>
</g>
<!-- Node4 -->
<g id="Node000004" class="node">
<title>Node4</title>
<g id="a_Node000004"><a xlink:href="JobParser_8cpp.html" target="_top" xlink:title="Implementation of the lightweight tag parser used for job files.">
<polygon fill="white" stroke="#666666" points="354.88,-20.75 274.38,-20.75 274.38,0 354.88,0 354.88,-20.75"/>
<text xml:space="preserve" text-anchor="middle" x="314.62" y="-7.25" font-family="Helvetica,sans-Serif" font-size="10.00">JobParser.cpp</text>
</a>
</g>
</g>
<!-- Node1&#45;&gt;Node4 -->
<g id="edge3_Node000001_Node000004" class="edge">
<title>Node1&#45;&gt;Node4</title>
<g id="a_edge3_Node000001_Node000004"><a xlink:title=" ">
<path fill="none" stroke="#63b8ff" d="M345.18,-47.74C337.68,-38.81 328.97,-28.45 322.78,-21.08"/>
<polygon fill="#63b8ff" stroke="#63b8ff" points="342.31,-49.77 351.43,-55.18 347.67,-45.27 342.31,-49.77"/>
</a>
</g>
</g>
<!-- Node5 -->
<g id="Node000005" class="node">
<title>Node5</title>
<g id="a_Node000005"><a xlink:href="SimJob_8cpp.html" target="_top" xlink:title="Implementation for the SimJob class.">
<polygon fill="white" stroke="#666666" points="442.62,-20.75 372.62,-20.75 372.62,0 442.62,0 442.62,-20.75"/>
<text xml:space="preserve" text-anchor="middle" x="407.62" y="-7.25" font-family="Helvetica,sans-Serif" font-size="10.00">SimJob.cpp</text>
</a>
</g>
</g>
<!-- Node1&#45;&gt;Node5 -->
<g id="edge4_Node000001_Node000005" class="edge">
<title>Node1&#45;&gt;Node5</title>
<g id="a_edge4_Node000001_Node000005"><a xlink:title=" ">
<path fill="none" stroke="#63b8ff" d="M376.41,-47.74C384.07,-38.81 392.97,-28.45 399.3,-21.08"/>
<polygon fill="#63b8ff" stroke="#63b8ff" points="373.87,-45.32 370.01,-55.19 379.18,-49.88 373.87,-45.32"/>
</a>
</g>
</g>
<!-- Node6 -->
<g id="Node000006" class="node">
<title>Node6</title>
<g id="a_Node000006"><a xlink:href="SurfaceMesh_8cpp.html" target="_top" xlink:title="Implementation of SurfaceMesh mesh I/O and utilities.">
<polygon fill="white" stroke="#666666" points="560.25,-20.75 461,-20.75 461,0 560.25,0 560.25,-20.75"/>
<text xml:space="preserve" text-anchor="middle" x="510.62" y="-7.25" font-family="Helvetica,sans-Serif" font-size="10.00">SurfaceMesh.cpp</text>
</a>
</g>
</g>
<!-- Node1&#45;&gt;Node6 -->
<g id="edge5_Node000001_Node000006" class="edge">
<title>Node1&#45;&gt;Node6</title>
<g id="a_edge5_Node000001_Node000006"><a xlink:title=" ">
<path fill="none" stroke="#63b8ff" d="M397.92,-52.51C424.59,-42.78 459.86,-29.9 483.79,-21.17"/>
<polygon fill="#63b8ff" stroke="#63b8ff" points="397.06,-49.1 388.86,-55.82 399.46,-55.68 397.06,-49.1"/>
</a>
</g>
</g>
<!-- Node7 -->
<g id="Node000007" class="node">
<title>Node7</title>
<g id="a_Node000007"><a xlink:href="mathFunctions_8cpp.html" target="_top" xlink:title=" ">
<polygon fill="white" stroke="#666666" points="686.75,-20.75 578.5,-20.75 578.5,0 686.75,0 686.75,-20.75"/>
<text xml:space="preserve" text-anchor="middle" x="632.62" y="-7.25" font-family="Helvetica,sans-Serif" font-size="10.00">mathFunctions.cpp</text>
</a>
</g>
</g>
<!-- Node1&#45;&gt;Node7 -->
<g id="edge6_Node000001_Node000007" class="edge">
<title>Node1&#45;&gt;Node7</title>
<g id="a_edge6_Node000001_Node000007"><a xlink:title=" ">
<path fill="none" stroke="#63b8ff" d="M411.53,-55.88C460.91,-45.94 535.32,-30.96 583.93,-21.18"/>
<polygon fill="#63b8ff" stroke="#63b8ff" points="411.06,-52.4 401.95,-57.81 412.45,-59.26 411.06,-52.4"/>
</a>
</g>
</g>
</g>
</svg>
