<?xml version="1.0" encoding="UTF-8" standalone="no"?>
<!DOCTYPE svg PUBLIC "-//W3C//DTD SVG 1.1//EN"
 "http://www.w3.org/Graphics/SVG/1.1/DTD/svg11.dtd">
<!-- Generated by graphviz version 13.1.2 (20250809.0930)
 -->
<!-- Title: iofunctions.h Pages: 1 -->
<svg width="276pt" height="86pt"
 viewBox="0.00 0.00 276.00 86.00" xmlns="http://www.w3.org/2000/svg" xmlns:xlink="http://www.w3.org/1999/xlink">

<svg id="main" version="1.1" xmlns="http://www.w3.org/2000/svg" xmlns:xlink="http://www.w3.org/1999/xlink" xml:space="preserve">

<style type="text/css"><![CDATA[
.node, .edge {opacity: 0.7;}
.node.selected, .edge.selected {opacity: 1;}
.edge:hover path { stroke: red; }
.edge:hover polygon { stroke: red; fill: red; }
]]></style>
<script type="application/ecmascript" xlink:href="svg.min.js"/>
<svg id="graph" class="graph">
<g id="graph0" class="graph" transform="scale(1 1) rotate(0) translate(4 81.5)">
<title>iofunctions.h</title>
<!-- Node1 -->
<g id="Node000001" class="node">
<title>Node1</title>
<g id="a_Node000001"><a xlink:title="Small helper templates for reading whitespace&#45;separated values from text files while skipping line co...">
<polygon fill="#999999" stroke="#666666" points="179.62,-77.5 100.62,-77.5 100.62,-56.75 179.62,-56.75 179.62,-77.5"/>
<text xml:space="preserve" text-anchor="middle" x="140.12" y="-64" font-family="Helvetica,sans-Serif" font-size="10.00">iofunctions.h</text>
</a>
</g>
</g>
<!-- Node2 -->
<g id="Node000002" class="node">
<title>Node2</title>
<g id="a_Node000002"><a xlink:title=" ">
<polygon fill="#e0e0e0" stroke="#999999" points="54.25,-20.75 0,-20.75 0,0 54.25,0 54.25,-20.75"/>
<text xml:space="preserve" text-anchor="middle" x="27.12" y="-7.25" font-family="Helvetica,sans-Serif" font-size="10.00">fstream</text>
</a>
</g>
</g>
<!-- Node1&#45;&gt;Node2 -->
<g id="edge1_Node000001_Node000002" class="edge">
<title>Node1&#45;&gt;Node2</title>
<g id="a_edge1_Node000001_Node000002"><a xlink:title=" ">
<path fill="none" stroke="#63b8ff" d="M119.92,-56.34C102.57,-47.93 77.29,-35.68 57.5,-26.09"/>
<polygon fill="#63b8ff" stroke="#63b8ff" points="59.04,-22.95 48.51,-21.74 55.99,-29.25 59.04,-22.95"/>
</a>
</g>
</g>
<!-- Node3 -->
<g id="Node000003" class="node">
<title>Node3</title>
<g id="a_Node000003"><a xlink:title=" ">
<polygon fill="#e0e0e0" stroke="#999999" points="131.88,-20.75 72.38,-20.75 72.38,0 131.88,0 131.88,-20.75"/>
<text xml:space="preserve" text-anchor="middle" x="102.12" y="-7.25" font-family="Helvetica,sans-Serif" font-size="10.00">iostream</text>
</a>
</g>
</g>
<!-- Node1&#45;&gt;Node3 -->
<g id="edge2_Node000001_Node000003" class="edge">
<title>Node1&#45;&gt;Node3</title>
<g id="a_edge2_Node000001_Node000003"><a xlink:title=" ">
<path fill="none" stroke="#63b8ff" d="M133.33,-56.34C128.36,-49.17 121.46,-39.23 115.4,-30.51"/>
<polygon fill="#63b8ff" stroke="#63b8ff" points="118.3,-28.54 109.72,-22.32 112.55,-32.53 118.3,-28.54"/>
</a>
</g>
</g>
<!-- Node4 -->
<g id="Node000004" class="node">
<title>Node4</title>
<g id="a_Node000004"><a xlink:title=" ">
<polygon fill="#e0e0e0" stroke="#999999" points="206,-20.75 150.25,-20.75 150.25,0 206,0 206,-20.75"/>
<text xml:space="preserve" text-anchor="middle" x="178.12" y="-7.25" font-family="Helvetica,sans-Serif" font-size="10.00">sstream</text>
</a>
</g>
</g>
<!-- Node1&#45;&gt;Node4 -->
<g id="edge3_Node000001_Node000004" class="edge">
<title>Node1&#45;&gt;Node4</title>
<g id="a_edge3_Node000001_Node000004"><a xlink:title=" ">
<path fill="none" stroke="#63b8ff" d="M146.92,-56.34C151.89,-49.17 158.79,-39.23 164.85,-30.51"/>
<polygon fill="#63b8ff" stroke="#63b8ff" points="167.7,-32.53 170.53,-22.32 161.95,-28.54 167.7,-32.53"/>
</a>
</g>
</g>
<!-- Node5 -->
<g id="Node000005" class="node">
<title>Node5</title>
<g id="a_Node000005"><a xlink:title=" ">
<polygon fill="#e0e0e0" stroke="#999999" points="268,-20.75 224.25,-20.75 224.25,0 268,0 268,-20.75"/>
<text xml:space="preserve" text-anchor="middle" x="246.12" y="-7.25" font-family="Helvetica,sans-Serif" font-size="10.00">string</text>
</a>
</g>
</g>
<!-- Node1&#45;&gt;Node5 -->
<g id="edge4_Node000001_Node000005" class="edge">
<title>Node1&#45;&gt;Node5</title>
<g id="a_edge4_Node000001_Node000005"><a xlink:title=" ">
<path fill="none" stroke="#63b8ff" d="M159.08,-56.34C175.2,-48.01 198.63,-35.91 217.12,-26.36"/>
<polygon fill="#63b8ff" stroke="#63b8ff" points="218.71,-29.47 225.99,-21.77 215.5,-23.25 218.71,-29.47"/>
</a>
</g>
</g>
</g>
</svg>
</svg>

<style type='text/css'>
<![CDATA[
[data-mouse-over-selected='false'] { opacity: 0.7; }
[data-mouse-over-selected='true']  { opacity: 1.0; }
]]>
</style>
<script type="application/ecmascript"><![CDATA[
document.addEventListener('DOMContentLoaded', (event) => {
  highlightEdges();
  highlightAdjacentNodes();
});
]]></script>
</svg>
