<?xml version="1.0" encoding="UTF-8" standalone="no"?>
<!DOCTYPE svg PUBLIC "-//W3C//DTD SVG 1.1//EN"
 "http://www.w3.org/Graphics/SVG/1.1/DTD/svg11.dtd">
<!-- Generated by graphviz version 13.1.2 (20250809.0930)
 -->
<!-- Title: iofunctions.h Pages: 1 -->
<!--zoomable 86 -->

<svg id="main" version="1.1" xmlns="http://www.w3.org/2000/svg" xmlns:xlink="http://www.w3.org/1999/xlink" xml:space="preserve" onload="init(evt)">

<style type="text/css"><![CDATA[
.node, .edge {opacity: 0.7;}
.node.selected, .edge.selected {opacity: 1;}
.edge:hover path { stroke: red; }
.edge:hover polygon { stroke: red; fill: red; }
]]></style>

<defs>
  <circle id="rim" cx="0" cy="0" r="7"/>
  <circle id="rim2" cx="0" cy="0" r="3.5"/>
  <g id="zoomPlus">
    <use xlink:href="#rim" fill="#404040"><set attributeName="fill" to="#808080" begin="zoomplus.mouseover" end="zoomplus.mouseout"/></use>
    <path d="M-4,0h8M0,-4v8" fill="none" stroke="white" stroke-width="1.5" pointer-events="none"/>
  </g>
  <g id="zoomMin">
    <use xlink:href="#rim" fill="#404040"><set attributeName="fill" to="#808080" begin="zoomminus.mouseover" end="zoomminus.mouseout"/></use>
    <path d="M-4,0h8" fill="none" stroke="white" stroke-width="1.5" pointer-events="none"/>
  </g>
  <g id="arrowUp" transform="translate(30 24)">
    <use xlink:href="#rim"/>
    <path pointer-events="none" fill="none" stroke="white" stroke-width="1.5" d="M0,-3.0v7 M-2.5,-0.5L0,-3.0L2.5,-0.5"/>
  </g>
  <g id="arrowRight" transform="rotate(90) translate(36 -43)">
    <use xlink:href="#rim"/>
    <path pointer-events="none" fill="none" stroke="white" stroke-width="1.5" d="M0,-3.0v7 M-2.5,-0.5L0,-3.0L2.5,-0.5"/>
  </g>
  <g id="arrowDown" transform="rotate(180) translate(-30 -48)">
    <use xlink:href="#rim"/>
    <path pointer-events="none" fill="none" stroke="white" stroke-width="1.5" d="M0,-3.0v7 M-2.5,-0.5L0,-3.0L2.5,-0.5"/>
  </g>
  <g id="arrowLeft" transform="rotate(270) translate(-36 17)">
    <use xlink:href="#rim"/>
    <path pointer-events="none" fill="none" stroke="white" stroke-width="1.5" d="M0,-3.0v7 M-2.5,-0.5L0,-3.0L2.5,-0.5"/>
  </g>
  <g id="resetDef">
    <use xlink:href="#rim2" fill="#404040"><set attributeName="fill" to="#808080" begin="reset.mouseover" end="reset.mouseout"/></use>
  </g>
</defs>
<script type="application/ecmascript">
var viewWidth = 695;
var viewHeight = 86;
var sectionId = 'dynsection-1';
</script>
<script type="application/ecmascript" xlink:href="svg.min.js"/>
<svg id="graph" class="graph">
<g id="viewport">
<title>iofunctions.h</title>
<!-- Node1 -->
<g id="Node000001" class="node">
<title>Node1</title>
<g id="a_Node000001"><a xlink:title="Small helper templates for reading whitespace&#45;separated values from text files while skipping line co...">
<polygon fill="#999999" stroke="#666666" points="400.12,-77.5 321.12,-77.5 321.12,-56.75 400.12,-56.75 400.12,-77.5"/>
<text xml:space="preserve" text-anchor="middle" x="360.62" y="-64" font-family="Helvetica,sans-Serif" font-size="10.00">iofunctions.h</text>
</a>
</g>
</g>
<!-- Node2 -->
<g id="Node000002" class="node">
<title>Node2</title>
<g id="a_Node000002"><a xlink:href="DomainHom3D_8cpp.html" target="_top" xlink:title="Implementation of the homogeneous 3D domain.">
<polygon fill="white" stroke="#666666" points="111.25,-20.75 0,-20.75 0,0 111.25,0 111.25,-20.75"/>
<text xml:space="preserve" text-anchor="middle" x="55.62" y="-7.25" font-family="Helvetica,sans-Serif" font-size="10.00">DomainHom3D.cpp</text>
</a>
</g>
</g>
<!-- Node1&#45;&gt;Node2 -->
<g id="edge1_Node000001_Node000002" class="edge">
<title>Node1&#45;&gt;Node2</title>
<g id="a_edge1_Node000001_Node000002"><a xlink:title=" ">
<path fill="none" stroke="#63b8ff" d="M309.5,-56.95C254.39,-47.06 166.98,-31.36 110.47,-21.22"/>
<polygon fill="#63b8ff" stroke="#63b8ff" points="308.8,-60.38 319.26,-58.7 310.04,-53.49 308.8,-60.38"/>
</a>
</g>
</g>
<!-- Node3 -->
<g id="Node000003" class="node">
<title>Node3</title>
<g id="a_Node000003"><a xlink:href="DomainLayered3D_8cpp.html" target="_top" xlink:title="Implementation of the layered 3D domain.">
<polygon fill="white" stroke="#666666" points="256.12,-20.75 129.12,-20.75 129.12,0 256.12,0 256.12,-20.75"/>
<text xml:space="preserve" text-anchor="middle" x="192.62" y="-7.25" font-family="Helvetica,sans-Serif" font-size="10.00">DomainLayered3D.cpp</text>
</a>
</g>
</g>
<!-- Node1&#45;&gt;Node3 -->
<g id="edge2_Node000001_Node000003" class="edge">
<title>Node1&#45;&gt;Node3</title>
<g id="a_edge2_Node000001_Node000003"><a xlink:title=" ">
<path fill="none" stroke="#63b8ff" d="M319.64,-52.77C289.68,-43.01 249.72,-29.98 222.68,-21.17"/>
<polygon fill="#63b8ff" stroke="#63b8ff" points="318.56,-56.1 329.15,-55.87 320.73,-49.44 318.56,-56.1"/>
</a>
</g>
</g>
<!-- Node4 -->
<g id="Node000004" class="node">
<title>Node4</title>
<g id="a_Node000004"><a xlink:href="JobParser_8cpp.html" target="_top" xlink:title="Implementation of the lightweight tag parser used for job files.">
<polygon fill="white" stroke="#666666" points="354.88,-20.75 274.38,-20.75 274.38,0 354.88,0 354.88,-20.75"/>
<text xml:space="preserve" text-anchor="middle" x="314.62" y="-7.25" font-family="Helvetica,sans-Serif" font-size="10.00">JobParser.cpp</text>
</a>
</g>
</g>
<!-- Node1&#45;&gt;Node4 -->
<g id="edge3_Node000001_Node000004" class="edge">
<title>Node1&#45;&gt;Node4</title>
<g id="a_edge3_Node000001_Node000004"><a xlink:title=" ">
<path fill="none" stroke="#63b8ff" d="M345.18,-47.74C337.68,-38.81 328.97,-28.45 322.78,-21.08"/>
<polygon fill="#63b8ff" stroke="#63b8ff" points="342.31,-49.77 351.43,-55.18 347.67,-45.27 342.31,-49.77"/>
</a>
</g>
</g>
<!-- Node5 -->
<g id="Node000005" class="node">
<title>Node5</title>
<g id="a_Node000005"><a xlink:href="SimJob_8cpp.html" target="_top" xlink:title="Implementation for the SimJob class.">
<polygon fill="white" stroke="#666666" points="442.62,-20.75 372.62,-20.75 372.62,0 442.62,0 442.62,-20.75"/>
<text xml:space="preserve" text-anchor="middle" x="407.62" y="-7.25" font-family="Helvetica,sans-Serif" font-size="10.00">SimJob.cpp</text>
</a>
</g>
</g>
<!-- Node1&#45;&gt;Node5 -->
<g id="edge4_Node000001_Node000005" class="edge">
<title>Node1&#45;&gt;Node5</title>
<g id="a_edge4_Node000001_Node000005"><a xlink:title=" ">
<path fill="none" stroke="#63b8ff" d="M376.41,-47.74C384.07,-38.81 392.97,-28.45 399.3,-21.08"/>
<polygon fill="#63b8ff" stroke="#63b8ff" points="373.87,-45.32 370.01,-55.19 379.18,-49.88 373.87,-45.32"/>
</a>
</g>
</g>
<!-- Node6 -->
<g id="Node000006" class="node">
<title>Node6</title>
<g id="a_Node000006"><a xlink:href="SurfaceMesh_8cpp.html" target="_top" xlink:title="Implementation of SurfaceMesh mesh I/O and utilities.">
<polygon fill="white" stroke="#666666" points="560.25,-20.75 461,-20.75 461,0 560.25,0 560.25,-20.75"/>
<text xml:space="preserve" text-anchor="middle" x="510.62" y="-7.25" font-family="Helvetica,sans-Serif" font-size="10.00">SurfaceMesh.cpp</text>
</a>
</g>
</g>
<!-- Node1&#45;&gt;Node6 -->
<g id="edge5_Node000001_Node000006" class="edge">
<title>Node1&#45;&gt;Node6</title>
<g id="a_edge5_Node000001_Node000006"><a xlink:title=" ">
<path fill="none" stroke="#63b8ff" d="M397.92,-52.51C424.59,-42.78 459.86,-29.9 483.79,-21.17"/>
<polygon fill="#63b8ff" stroke="#63b8ff" points="397.06,-49.1 388.86,-55.82 399.46,-55.68 397.06,-49.1"/>
</a>
</g>
</g>
<!-- Node7 -->
<g id="Node000007" class="node">
<title>Node7</title>
<g id="a_Node000007"><a xlink:href="mathFunctions_8cpp.html" target="_top" xlink:title=" ">
<polygon fill="white" stroke="#666666" points="686.75,-20.75 578.5,-20.75 578.5,0 686.75,0 686.75,-20.75"/>
<text xml:space="preserve" text-anchor="middle" x="632.62" y="-7.25" font-family="Helvetica,sans-Serif" font-size="10.00">mathFunctions.cpp</text>
</a>
</g>
</g>
<!-- Node1&#45;&gt;Node7 -->
<g id="edge6_Node000001_Node000007" class="edge">
<title>Node1&#45;&gt;Node7</title>
<g id="a_edge6_Node000001_Node000007"><a xlink:title=" ">
<path fill="none" stroke="#63b8ff" d="M411.53,-55.88C460.91,-45.94 535.32,-30.96 583.93,-21.18"/>
<polygon fill="#63b8ff" stroke="#63b8ff" points="411.06,-52.4 401.95,-57.81 412.45,-59.26 411.06,-52.4"/>
</a>
</g>
</g>
</g>
</svg>

<g id="navigator" transform="translate(0 0)" fill="#404254">
  <rect fill="#f2f5e9" fill-opacity="0.5" stroke="#606060" stroke-width=".5" x="0" y="0" width="60" height="60"/>
  <use id="zoomplus" xlink:href="#zoomPlus" x="17" y="9" onmousedown="handleZoom(evt,'in')"/>
  <use id="zoomminus" xlink:href="#zoomMin" x="42" y="9" onmousedown="handleZoom(evt,'out')"/>
  <use id="reset" xlink:href="#resetDef" x="30" y="36" onmousedown="handleReset()"/>
   <use id="arrowup" xlink:href="#arrowUp" x="0" y="0" onmousedown="handlePan(0,-1)"/>
  <use id="arrowright" xlink:href="#arrowRight" x="0" y="0" onmousedown="handlePan(1,0)"/>
  <use id="arrowdown" xlink:href="#arrowDown" x="0" y="0" onmousedown="handlePan(0,1)"/>
  <use id="arrowleft" xlink:href="#arrowLeft" x="0" y="0" onmousedown="handlePan(-1,0)"/>
</g>
<svg viewBox="0 0 15 15" width="100%" height="30px" preserveAspectRatio="xMaxYMin meet">
 <g id="arrow_out" transform="scale(0.3 0.3)">
  <a xlink:href="iofunctions_8h__dep__incl_org.svg" target="_base">
   <rect id="button" ry="5" rx="5" y="6" x="6" height="38" width="38"
        fill="#f2f5e9" fill-opacity="0.5" stroke="#606060" stroke-width="1.0"/>
   <path id="arrow"
     d="M 11.500037,31.436501 C 11.940474,20.09759 22.043105,11.32322 32.158766,21.979434 L 37.068811,17.246167 C 37.068811,17.246167 37.088388,32 37.088388,32 L 22.160133,31.978069 C 22.160133,31.978069 26.997745,27.140456 26.997745,27.140456 C 18.528582,18.264221 13.291696,25.230495 11.500037,31.436501 z"
     style="fill:#404040;"/>
  </a>
 </g>
</svg>

<style type='text/css'>
<![CDATA[
[data-mouse-over-selected='false'] { opacity: 0.7; }
[data-mouse-over-selected='true']  { opacity: 1.0; }
]]>
</style>
<script type="application/ecmascript"><![CDATA[
document.addEventListener('DOMContentLoaded', (event) => {
  highlightEdges();
  highlightAdjacentNodes();
});
]]></script>
</svg>
