<?xml version="1.0" encoding="UTF-8" standalone="no"?>
<!DOCTYPE svg PUBLIC "-//W3C//DTD SVG 1.1//EN"
 "http://www.w3.org/Graphics/SVG/1.1/DTD/svg11.dtd">
<!-- Generated by graphviz version 13.1.2 (20250809.0930)
 -->
<!-- Title: JobParser.h Pages: 1 -->
<svg width="267pt" height="86pt"
 viewBox="0.00 0.00 267.00 86.00" xmlns="http://www.w3.org/2000/svg" xmlns:xlink="http://www.w3.org/1999/xlink">

<svg id="main" version="1.1" xmlns="http://www.w3.org/2000/svg" xmlns:xlink="http://www.w3.org/1999/xlink" xml:space="preserve">

<style type="text/css"><![CDATA[
.node, .edge {opacity: 0.7;}
.node.selected, .edge.selected {opacity: 1;}
.edge:hover path { stroke: red; }
.edge:hover polygon { stroke: red; fill: red; }
]]></style>
<script type="application/ecmascript" xlink:href="svg.min.js"/>
<svg id="graph" class="graph">
<g id="graph0" class="graph" transform="scale(1 1) rotate(0) translate(4 81.5)">
<title>JobParser.h</title>
<!-- Node1 -->
<g id="Node000001" class="node">
<title>Node1</title>
<g id="a_Node000001"><a xlink:title="Lightweight XML&#45;like tag parser for the solver job file.">
<polygon fill="#999999" stroke="#666666" points="171.75,-77.5 102.5,-77.5 102.5,-56.75 171.75,-56.75 171.75,-77.5"/>
<text xml:space="preserve" text-anchor="middle" x="137.12" y="-64" font-family="Helvetica,sans-Serif" font-size="10.00">JobParser.h</text>
</a>
</g>
</g>
<!-- Node2 -->
<g id="Node000002" class="node">
<title>Node2</title>
<g id="a_Node000002"><a xlink:title=" ">
<polygon fill="#e0e0e0" stroke="#999999" points="54.25,-20.75 0,-20.75 0,0 54.25,0 54.25,-20.75"/>
<text xml:space="preserve" text-anchor="middle" x="27.12" y="-7.25" font-family="Helvetica,sans-Serif" font-size="10.00">fstream</text>
</a>
</g>
</g>
<!-- Node1&#45;&gt;Node2 -->
<g id="edge1_Node000001_Node000002" class="edge">
<title>Node1&#45;&gt;Node2</title>
<g id="a_edge1_Node000001_Node000002"><a xlink:title=" ">
<path fill="none" stroke="#63b8ff" d="M117.46,-56.34C100.57,-47.93 75.96,-35.68 56.69,-26.09"/>
<polygon fill="#63b8ff" stroke="#63b8ff" points="58.49,-23.08 47.98,-21.75 55.37,-29.34 58.49,-23.08"/>
</a>
</g>
</g>
<!-- Node3 -->
<g id="Node000003" class="node">
<title>Node3</title>
<g id="a_Node000003"><a xlink:title=" ">
<polygon fill="#e0e0e0" stroke="#999999" points="131.88,-20.75 72.38,-20.75 72.38,0 131.88,0 131.88,-20.75"/>
<text xml:space="preserve" text-anchor="middle" x="102.12" y="-7.25" font-family="Helvetica,sans-Serif" font-size="10.00">iostream</text>
</a>
</g>
</g>
<!-- Node1&#45;&gt;Node3 -->
<g id="edge2_Node000001_Node000003" class="edge">
<title>Node1&#45;&gt;Node3</title>
<g id="a_edge2_Node000001_Node000003"><a xlink:title=" ">
<path fill="none" stroke="#63b8ff" d="M130.87,-56.34C126.29,-49.17 119.93,-39.23 114.36,-30.51"/>
<polygon fill="#63b8ff" stroke="#63b8ff" points="117.48,-28.89 109.14,-22.35 111.58,-32.66 117.48,-28.89"/>
</a>
</g>
</g>
<!-- Node4 -->
<g id="Node000004" class="node">
<title>Node4</title>
<g id="a_Node000004"><a xlink:title=" ">
<polygon fill="#e0e0e0" stroke="#999999" points="194,-20.75 150.25,-20.75 150.25,0 194,0 194,-20.75"/>
<text xml:space="preserve" text-anchor="middle" x="172.12" y="-7.25" font-family="Helvetica,sans-Serif" font-size="10.00">string</text>
</a>
</g>
</g>
<!-- Node1&#45;&gt;Node4 -->
<g id="edge3_Node000001_Node000004" class="edge">
<title>Node1&#45;&gt;Node4</title>
<g id="a_edge3_Node000001_Node000004"><a xlink:title=" ">
<path fill="none" stroke="#63b8ff" d="M143.38,-56.34C147.96,-49.17 154.32,-39.23 159.89,-30.51"/>
<polygon fill="#63b8ff" stroke="#63b8ff" points="162.67,-32.66 165.11,-22.35 156.77,-28.89 162.67,-32.66"/>
</a>
</g>
</g>
<!-- Node5 -->
<g id="Node000005" class="node">
<title>Node5</title>
<g id="a_Node000005"><a xlink:title=" ">
<polygon fill="#e0e0e0" stroke="#999999" points="258.5,-20.75 211.75,-20.75 211.75,0 258.5,0 258.5,-20.75"/>
<text xml:space="preserve" text-anchor="middle" x="235.12" y="-7.25" font-family="Helvetica,sans-Serif" font-size="10.00">vector</text>
</a>
</g>
</g>
<!-- Node1&#45;&gt;Node5 -->
<g id="edge4_Node000001_Node000005" class="edge">
<title>Node1&#45;&gt;Node5</title>
<g id="a_edge4_Node000001_Node000005"><a xlink:title=" ">
<path fill="none" stroke="#63b8ff" d="M154.65,-56.34C169.42,-48.08 190.81,-36.13 207.82,-26.63"/>
<polygon fill="#63b8ff" stroke="#63b8ff" points="209.41,-29.75 216.43,-21.82 206,-23.64 209.41,-29.75"/>
</a>
</g>
</g>
</g>
</svg>
</svg>

<style type='text/css'>
<![CDATA[
[data-mouse-over-selected='false'] { opacity: 0.7; }
[data-mouse-over-selected='true']  { opacity: 1.0; }
]]>
</style>
<script type="application/ecmascript"><![CDATA[
document.addEventListener('DOMContentLoaded', (event) => {
  highlightEdges();
  highlightAdjacentNodes();
});
]]></script>
</svg>
