<?xml version="1.0" encoding="UTF-8" standalone="no"?>
<!DOCTYPE svg PUBLIC "-//W3C//DTD SVG 1.1//EN"
 "http://www.w3.org/Graphics/SVG/1.1/DTD/svg11.dtd">
<!-- Generated by graphviz version 13.1.2 (20250809.0930)
 -->
<!-- Title: JobParser.cpp Pages: 1 -->
<svg width="340pt" height="142pt"
 viewBox="0.00 0.00 340.00 142.00" xmlns="http://www.w3.org/2000/svg" xmlns:xlink="http://www.w3.org/1999/xlink">
<g id="graph0" class="graph" transform="scale(1 1) rotate(0) translate(4 138.25)">
<title>JobParser.cpp</title>
<!-- Node1 -->
<g id="Node000001" class="node">
<title>Node1</title>
<g id="a_Node000001"><a xlink:title="Implementation of the lightweight tag parser used for job files.">
<polygon fill="#999999" stroke="#666666" points="213.12,-134.25 132.62,-134.25 132.62,-113.5 213.12,-113.5 213.12,-134.25"/>
<text xml:space="preserve" text-anchor="middle" x="172.88" y="-120.75" font-family="Helvetica,sans-Serif" font-size="10.00">JobParser.cpp</text>
</a>
</g>
</g>
<!-- Node2 -->
<g id="Node000002" class="node">
<title>Node2</title>
<g id="a_Node000002"><a xlink:href="JobParser_8h.html" target="_top" xlink:title="Lightweight XML&#45;like tag parser for the solver job file.">
<polygon fill="white" stroke="#666666" points="253.5,-77.5 184.25,-77.5 184.25,-56.75 253.5,-56.75 253.5,-77.5"/>
<text xml:space="preserve" text-anchor="middle" x="218.88" y="-64" font-family="Helvetica,sans-Serif" font-size="10.00">JobParser.h</text>
</a>
</g>
</g>
<!-- Node1&#45;&gt;Node2 -->
<g id="edge1_Node000001_Node000002" class="edge">
<title>Node1&#45;&gt;Node2</title>
<g id="a_edge1_Node000001_Node000002"><a xlink:title=" ">
<path fill="none" stroke="#63b8ff" d="M181.1,-113.09C187.31,-105.69 196.02,-95.32 203.51,-86.41"/>
<polygon fill="#63b8ff" stroke="#63b8ff" points="206,-88.9 209.75,-78.99 200.64,-84.39 206,-88.9"/>
</a>
</g>
</g>
<!-- Node7 -->
<g id="Node000007" class="node">
<title>Node7</title>
<g id="a_Node000007"><a xlink:href="iofunctions_8h.html" target="_top" xlink:title="Small helper templates for reading whitespace&#45;separated values from text files while skipping line co...">
<polygon fill="white" stroke="#666666" points="166.38,-77.5 87.38,-77.5 87.38,-56.75 166.38,-56.75 166.38,-77.5"/>
<text xml:space="preserve" text-anchor="middle" x="126.88" y="-64" font-family="Helvetica,sans-Serif" font-size="10.00">iofunctions.h</text>
</a>
</g>
</g>
<!-- Node1&#45;&gt;Node7 -->
<g id="edge6_Node000001_Node000007" class="edge">
<title>Node1&#45;&gt;Node7</title>
<g id="a_edge6_Node000001_Node000007"><a xlink:title=" ">
<path fill="none" stroke="#63b8ff" d="M164.65,-113.09C158.44,-105.69 149.73,-95.32 142.24,-86.41"/>
<polygon fill="#63b8ff" stroke="#63b8ff" points="145.11,-84.39 136,-78.99 139.75,-88.9 145.11,-84.39"/>
</a>
</g>
</g>
<!-- Node3 -->
<g id="Node000003" class="node">
<title>Node3</title>
<g id="a_Node000003"><a xlink:title=" ">
<polygon fill="#e0e0e0" stroke="#999999" points="128,-20.75 73.75,-20.75 73.75,0 128,0 128,-20.75"/>
<text xml:space="preserve" text-anchor="middle" x="100.88" y="-7.25" font-family="Helvetica,sans-Serif" font-size="10.00">fstream</text>
</a>
</g>
</g>
<!-- Node2&#45;&gt;Node3 -->
<g id="edge2_Node000002_Node000003" class="edge">
<title>Node2&#45;&gt;Node3</title>
<g id="a_edge2_Node000002_Node000003"><a xlink:title=" ">
<path fill="none" stroke="#63b8ff" d="M197.78,-56.34C179.49,-47.85 152.77,-35.45 132.02,-25.83"/>
<polygon fill="#63b8ff" stroke="#63b8ff" points="133.71,-22.75 123.16,-21.72 130.76,-29.1 133.71,-22.75"/>
</a>
</g>
</g>
<!-- Node4 -->
<g id="Node000004" class="node">
<title>Node4</title>
<g id="a_Node000004"><a xlink:title=" ">
<polygon fill="#e0e0e0" stroke="#999999" points="205.62,-20.75 146.12,-20.75 146.12,0 205.62,0 205.62,-20.75"/>
<text xml:space="preserve" text-anchor="middle" x="175.88" y="-7.25" font-family="Helvetica,sans-Serif" font-size="10.00">iostream</text>
</a>
</g>
</g>
<!-- Node2&#45;&gt;Node4 -->
<g id="edge3_Node000002_Node000004" class="edge">
<title>Node2&#45;&gt;Node4</title>
<g id="a_edge3_Node000002_Node000004"><a xlink:title=" ">
<path fill="none" stroke="#63b8ff" d="M211.19,-56.34C205.44,-49.02 197.41,-38.79 190.46,-29.94"/>
<polygon fill="#63b8ff" stroke="#63b8ff" points="193.36,-27.97 184.43,-22.27 187.85,-32.3 193.36,-27.97"/>
</a>
</g>
</g>
<!-- Node5 -->
<g id="Node000005" class="node">
<title>Node5</title>
<g id="a_Node000005"><a xlink:title=" ">
<polygon fill="#e0e0e0" stroke="#999999" points="267.75,-20.75 224,-20.75 224,0 267.75,0 267.75,-20.75"/>
<text xml:space="preserve" text-anchor="middle" x="245.88" y="-7.25" font-family="Helvetica,sans-Serif" font-size="10.00">string</text>
</a>
</g>
</g>
<!-- Node2&#45;&gt;Node5 -->
<g id="edge4_Node000002_Node000005" class="edge">
<title>Node2&#45;&gt;Node5</title>
<g id="a_edge4_Node000002_Node000005"><a xlink:title=" ">
<path fill="none" stroke="#63b8ff" d="M223.7,-56.34C227.12,-49.41 231.82,-39.87 236.02,-31.36"/>
<polygon fill="#63b8ff" stroke="#63b8ff" points="239.14,-32.95 240.42,-22.44 232.86,-29.86 239.14,-32.95"/>
</a>
</g>
</g>
<!-- Node6 -->
<g id="Node000006" class="node">
<title>Node6</title>
<g id="a_Node000006"><a xlink:title=" ">
<polygon fill="#e0e0e0" stroke="#999999" points="332.25,-20.75 285.5,-20.75 285.5,0 332.25,0 332.25,-20.75"/>
<text xml:space="preserve" text-anchor="middle" x="308.88" y="-7.25" font-family="Helvetica,sans-Serif" font-size="10.00">vector</text>
</a>
</g>
</g>
<!-- Node2&#45;&gt;Node6 -->
<g id="edge5_Node000002_Node000006" class="edge">
<title>Node2&#45;&gt;Node6</title>
<g id="a_edge5_Node000002_Node000006"><a xlink:title=" ">
<path fill="none" stroke="#63b8ff" d="M234.97,-56.34C248.4,-48.16 267.81,-36.36 283.36,-26.9"/>
<polygon fill="#63b8ff" stroke="#63b8ff" points="284.91,-30.05 291.63,-21.87 281.27,-24.07 284.91,-30.05"/>
</a>
</g>
</g>
<!-- Node7&#45;&gt;Node3 -->
<g id="edge7_Node000007_Node000003" class="edge">
<title>Node7&#45;&gt;Node3</title>
<g id="a_edge7_Node000007_Node000003"><a xlink:title=" ">
<path fill="none" stroke="#63b8ff" d="M122.23,-56.34C118.94,-49.41 114.41,-39.87 110.37,-31.36"/>
<polygon fill="#63b8ff" stroke="#63b8ff" points="113.58,-29.98 106.13,-22.45 107.26,-32.98 113.58,-29.98"/>
</a>
</g>
</g>
<!-- Node7&#45;&gt;Node4 -->
<g id="edge8_Node000007_Node000004" class="edge">
<title>Node7&#45;&gt;Node4</title>
<g id="a_edge8_Node000007_Node000004"><a xlink:title=" ">
<path fill="none" stroke="#63b8ff" d="M135.64,-56.34C142.32,-48.86 151.73,-38.36 159.76,-29.38"/>
<polygon fill="#63b8ff" stroke="#63b8ff" points="162.12,-31.99 166.18,-22.21 156.9,-27.32 162.12,-31.99"/>
</a>
</g>
</g>
<!-- Node7&#45;&gt;Node5 -->
<g id="edge10_Node000007_Node000005" class="edge">
<title>Node7&#45;&gt;Node5</title>
<g id="a_edge10_Node000007_Node000005"><a xlink:title=" ">
<path fill="none" stroke="#63b8ff" d="M148.15,-56.34C166.59,-47.85 193.54,-35.45 214.47,-25.83"/>
<polygon fill="#63b8ff" stroke="#63b8ff" points="215.79,-29.07 223.41,-21.71 212.86,-22.71 215.79,-29.07"/>
</a>
</g>
</g>
<!-- Node8 -->
<g id="Node000008" class="node">
<title>Node8</title>
<g id="a_Node000008"><a xlink:title=" ">
<polygon fill="#e0e0e0" stroke="#999999" points="55.75,-20.75 0,-20.75 0,0 55.75,0 55.75,-20.75"/>
<text xml:space="preserve" text-anchor="middle" x="27.88" y="-7.25" font-family="Helvetica,sans-Serif" font-size="10.00">sstream</text>
</a>
</g>
</g>
<!-- Node7&#45;&gt;Node8 -->
<g id="edge9_Node000007_Node000008" class="edge">
<title>Node7&#45;&gt;Node8</title>
<g id="a_edge9_Node000007_Node000008"><a xlink:title=" ">
<path fill="none" stroke="#63b8ff" d="M109.18,-56.34C94.25,-48.08 72.64,-36.13 55.45,-26.63"/>
<polygon fill="#63b8ff" stroke="#63b8ff" points="57.19,-23.59 46.75,-21.81 53.8,-29.71 57.19,-23.59"/>
</a>
</g>
</g>
</g>
</svg>
