<?xml version="1.0" encoding="UTF-8" standalone="no"?>
<!DOCTYPE svg PUBLIC "-//W3C//DTD SVG 1.1//EN"
 "http://www.w3.org/Graphics/SVG/1.1/DTD/svg11.dtd">
<!-- Generated by graphviz version 13.1.2 (20250809.0930)
 -->
<!-- Title: LayeredMediaUtils.h Pages: 1 -->
<svg width="504pt" height="142pt"
 viewBox="0.00 0.00 504.00 142.00" xmlns="http://www.w3.org/2000/svg" xmlns:xlink="http://www.w3.org/1999/xlink">
<g id="graph0" class="graph" transform="scale(1 1) rotate(0) translate(4 138.25)">
<title>LayeredMediaUtils.h</title>
<!-- Node1 -->
<g id="Node000001" class="node">
<title>Node1</title>
<g id="a_Node000001"><a xlink:title="This header declares utility structures and algorithms used throughout the layered&#45;media scattering s...">
<polygon fill="#999999" stroke="#666666" points="265.12,-134.25 148.62,-134.25 148.62,-113.5 265.12,-113.5 265.12,-134.25"/>
<text xml:space="preserve" text-anchor="middle" x="206.88" y="-120.75" font-family="Helvetica,sans-Serif" font-size="10.00">LayeredMediaUtils.h</text>
</a>
</g>
</g>
<!-- Node2 -->
<g id="Node000002" class="node">
<title>Node2</title>
<g id="a_Node000002"><a xlink:title=" ">
<polygon fill="#e0e0e0" stroke="#999999" points="37.75,-77.5 0,-77.5 0,-56.75 37.75,-56.75 37.75,-77.5"/>
<text xml:space="preserve" text-anchor="middle" x="18.88" y="-64" font-family="Helvetica,sans-Serif" font-size="10.00">map</text>
</a>
</g>
</g>
<!-- Node1&#45;&gt;Node2 -->
<g id="edge1_Node000001_Node000002" class="edge">
<title>Node1&#45;&gt;Node2</title>
<g id="a_edge1_Node000001_Node000002"><a xlink:title=" ">
<path fill="none" stroke="#63b8ff" d="M170.51,-113.08C140.28,-104.83 95.88,-92.44 48.83,-78.01"/>
<polygon fill="#63b8ff" stroke="#63b8ff" points="50.15,-74.75 39.56,-75.15 48.08,-81.44 50.15,-74.75"/>
</a>
</g>
</g>
<!-- Node3 -->
<g id="Node000003" class="node">
<title>Node3</title>
<g id="a_Node000003"><a xlink:title=" ">
<polygon fill="#e0e0e0" stroke="#999999" points="119.88,-77.5 55.88,-77.5 55.88,-56.75 119.88,-56.75 119.88,-77.5"/>
<text xml:space="preserve" text-anchor="middle" x="87.88" y="-64" font-family="Helvetica,sans-Serif" font-size="10.00">stdexcept</text>
</a>
</g>
</g>
<!-- Node1&#45;&gt;Node3 -->
<g id="edge2_Node000001_Node000003" class="edge">
<title>Node1&#45;&gt;Node3</title>
<g id="a_edge2_Node000001_Node000003"><a xlink:title=" ">
<path fill="none" stroke="#63b8ff" d="M185.6,-113.09C167.16,-104.6 140.21,-92.2 119.28,-82.58"/>
<polygon fill="#63b8ff" stroke="#63b8ff" points="120.89,-79.46 110.34,-78.46 117.96,-85.82 120.89,-79.46"/>
</a>
</g>
</g>
<!-- Node4 -->
<g id="Node000004" class="node">
<title>Node4</title>
<g id="a_Node000004"><a xlink:title=" ">
<polygon fill="#e0e0e0" stroke="#999999" points="202.25,-77.5 137.5,-77.5 137.5,-56.75 202.25,-56.75 202.25,-77.5"/>
<text xml:space="preserve" text-anchor="middle" x="169.88" y="-64" font-family="Helvetica,sans-Serif" font-size="10.00">functional</text>
</a>
</g>
</g>
<!-- Node1&#45;&gt;Node4 -->
<g id="edge3_Node000001_Node000004" class="edge">
<title>Node1&#45;&gt;Node4</title>
<g id="a_edge3_Node000001_Node000004"><a xlink:title=" ">
<path fill="none" stroke="#63b8ff" d="M200.26,-113.09C195.42,-105.92 188.7,-95.98 182.8,-87.26"/>
<polygon fill="#63b8ff" stroke="#63b8ff" points="185.78,-85.41 177.28,-79.08 179.98,-89.33 185.78,-85.41"/>
</a>
</g>
</g>
<!-- Node5 -->
<g id="Node000005" class="node">
<title>Node5</title>
<g id="a_Node000005"><a xlink:title=" ">
<polygon fill="#e0e0e0" stroke="#999999" points="267.25,-77.5 220.5,-77.5 220.5,-56.75 267.25,-56.75 267.25,-77.5"/>
<text xml:space="preserve" text-anchor="middle" x="243.88" y="-64" font-family="Helvetica,sans-Serif" font-size="10.00">vector</text>
</a>
</g>
</g>
<!-- Node1&#45;&gt;Node5 -->
<g id="edge4_Node000001_Node000005" class="edge">
<title>Node1&#45;&gt;Node5</title>
<g id="a_edge4_Node000001_Node000005"><a xlink:title=" ">
<path fill="none" stroke="#63b8ff" d="M213.49,-113.09C218.33,-105.92 225.05,-95.98 230.95,-87.26"/>
<polygon fill="#63b8ff" stroke="#63b8ff" points="233.77,-89.33 236.47,-79.08 227.97,-85.41 233.77,-89.33"/>
</a>
</g>
</g>
<!-- Node6 -->
<g id="Node000006" class="node">
<title>Node6</title>
<g id="a_Node000006"><a xlink:href="globals_8h.html" target="_top" xlink:title="Global numerical constants, fundamental types, and simple macros.">
<polygon fill="white" stroke="#666666" points="346,-77.5 285.75,-77.5 285.75,-56.75 346,-56.75 346,-77.5"/>
<text xml:space="preserve" text-anchor="middle" x="315.88" y="-64" font-family="Helvetica,sans-Serif" font-size="10.00">globals.h</text>
</a>
</g>
</g>
<!-- Node1&#45;&gt;Node6 -->
<g id="edge5_Node000001_Node000006" class="edge">
<title>Node1&#45;&gt;Node6</title>
<g id="a_edge5_Node000001_Node000006"><a xlink:title=" ">
<path fill="none" stroke="#63b8ff" d="M226.36,-113.09C243.02,-104.72 267.26,-92.54 286.31,-82.97"/>
<polygon fill="#63b8ff" stroke="#63b8ff" points="287.84,-86.12 295.2,-78.51 284.7,-79.87 287.84,-86.12"/>
</a>
</g>
</g>
<!-- Node11 -->
<g id="Node000011" class="node">
<title>Node11</title>
<g id="a_Node000011"><a xlink:title=" ">
<polygon fill="#e0e0e0" stroke="#999999" points="418,-77.5 363.75,-77.5 363.75,-56.75 418,-56.75 418,-77.5"/>
<text xml:space="preserve" text-anchor="middle" x="390.88" y="-64" font-family="Helvetica,sans-Serif" font-size="10.00">fstream</text>
</a>
</g>
</g>
<!-- Node1&#45;&gt;Node11 -->
<g id="edge10_Node000001_Node000011" class="edge">
<title>Node1&#45;&gt;Node11</title>
<g id="a_edge10_Node000001_Node000011"><a xlink:title=" ">
<path fill="none" stroke="#63b8ff" d="M239.77,-113.09C271.44,-103.66 319.31,-89.42 352.66,-79.5"/>
<polygon fill="#63b8ff" stroke="#63b8ff" points="353.33,-82.95 361.91,-76.74 351.33,-76.24 353.33,-82.95"/>
</a>
</g>
</g>
<!-- Node7 -->
<g id="Node000007" class="node">
<title>Node7</title>
<g id="a_Node000007"><a xlink:title=" ">
<polygon fill="#e0e0e0" stroke="#999999" points="196.38,-20.75 123.38,-20.75 123.38,0 196.38,0 196.38,-20.75"/>
<text xml:space="preserve" text-anchor="middle" x="159.88" y="-7.25" font-family="Helvetica,sans-Serif" font-size="10.00">blitz/array.h</text>
</a>
</g>
</g>
<!-- Node6&#45;&gt;Node7 -->
<g id="edge6_Node000006_Node000007" class="edge">
<title>Node6&#45;&gt;Node7</title>
<g id="a_edge6_Node000006_Node000007"><a xlink:title=" ">
<path fill="none" stroke="#63b8ff" d="M287.99,-56.34C263,-47.57 226.1,-34.62 198.32,-24.87"/>
<polygon fill="#63b8ff" stroke="#63b8ff" points="199.81,-21.68 189.21,-21.67 197.49,-28.29 199.81,-21.68"/>
</a>
</g>
</g>
<!-- Node8 -->
<g id="Node000008" class="node">
<title>Node8</title>
<g id="a_Node000008"><a xlink:title=" ">
<polygon fill="#e0e0e0" stroke="#999999" points="305.38,-20.75 214.38,-20.75 214.38,0 305.38,0 305.38,-20.75"/>
<text xml:space="preserve" text-anchor="middle" x="259.88" y="-7.25" font-family="Helvetica,sans-Serif" font-size="10.00">blitz/tinyvec2.h</text>
</a>
</g>
</g>
<!-- Node6&#45;&gt;Node8 -->
<g id="edge7_Node000006_Node000008" class="edge">
<title>Node6&#45;&gt;Node8</title>
<g id="a_edge7_Node000006_Node000008"><a xlink:title=" ">
<path fill="none" stroke="#63b8ff" d="M305.86,-56.34C298.14,-48.78 287.25,-38.14 278,-29.1"/>
<polygon fill="#63b8ff" stroke="#63b8ff" points="280.48,-26.62 270.88,-22.14 275.59,-31.63 280.48,-26.62"/>
</a>
</g>
</g>
<!-- Node9 -->
<g id="Node000009" class="node">
<title>Node9</title>
<g id="a_Node000009"><a xlink:title=" ">
<polygon fill="#e0e0e0" stroke="#999999" points="420,-20.75 323.75,-20.75 323.75,0 420,0 420,-20.75"/>
<text xml:space="preserve" text-anchor="middle" x="371.88" y="-7.25" font-family="Helvetica,sans-Serif" font-size="10.00">blitz/tvecglobs.h</text>
</a>
</g>
</g>
<!-- Node6&#45;&gt;Node9 -->
<g id="edge8_Node000006_Node000009" class="edge">
<title>Node6&#45;&gt;Node9</title>
<g id="a_edge8_Node000006_Node000009"><a xlink:title=" ">
<path fill="none" stroke="#63b8ff" d="M325.89,-56.34C333.61,-48.78 344.5,-38.14 353.75,-29.1"/>
<polygon fill="#63b8ff" stroke="#63b8ff" points="356.16,-31.63 360.87,-22.14 351.27,-26.62 356.16,-31.63"/>
</a>
</g>
</g>
<!-- Node10 -->
<g id="Node000010" class="node">
<title>Node10</title>
<g id="a_Node000010"><a xlink:title=" ">
<polygon fill="#e0e0e0" stroke="#999999" points="495.88,-20.75 437.88,-20.75 437.88,0 495.88,0 495.88,-20.75"/>
<text xml:space="preserve" text-anchor="middle" x="466.88" y="-7.25" font-family="Helvetica,sans-Serif" font-size="10.00">complex</text>
</a>
</g>
</g>
<!-- Node6&#45;&gt;Node10 -->
<g id="edge9_Node000006_Node000010" class="edge">
<title>Node6&#45;&gt;Node10</title>
<g id="a_edge9_Node000006_Node000010"><a xlink:title=" ">
<path fill="none" stroke="#63b8ff" d="M342.87,-56.34C366.95,-47.61 402.45,-34.73 429.3,-25"/>
<polygon fill="#63b8ff" stroke="#63b8ff" points="430.23,-28.39 438.44,-21.69 427.84,-21.8 430.23,-28.39"/>
</a>
</g>
</g>
</g>
</svg>
