<?xml version="1.0" encoding="UTF-8" standalone="no"?>
<!DOCTYPE svg PUBLIC "-//W3C//DTD SVG 1.1//EN"
 "http://www.w3.org/Graphics/SVG/1.1/DTD/svg11.dtd">
<!-- Generated by graphviz version 13.1.2 (20250809.0930)
 -->
<!-- Title: LayeredMediaUtils.cpp Pages: 1 -->
<svg width="643pt" height="199pt"
 viewBox="0.00 0.00 643.00 199.00" xmlns="http://www.w3.org/2000/svg" xmlns:xlink="http://www.w3.org/1999/xlink">
<g id="graph0" class="graph" transform="scale(1 1) rotate(0) translate(4 195)">
<title>LayeredMediaUtils.cpp</title>
<!-- Node1 -->
<g id="Node000001" class="node">
<title>Node1</title>
<g id="a_Node000001"><a xlink:title="Implementation for the LayeredMediaUtils class.">
<polygon fill="#999999" stroke="#666666" points="456.75,-191 329,-191 329,-170.25 456.75,-170.25 456.75,-191"/>
<text xml:space="preserve" text-anchor="middle" x="392.88" y="-177.5" font-family="Helvetica,sans-Serif" font-size="10.00">LayeredMediaUtils.cpp</text>
</a>
</g>
</g>
<!-- Node2 -->
<g id="Node000002" class="node">
<title>Node2</title>
<g id="a_Node000002"><a xlink:href="LayeredMediaUtils_8h.html" target="_top" xlink:title="This header declares utility structures and algorithms used throughout the layered&#45;media scattering s...">
<polygon fill="white" stroke="#666666" points="265.12,-134.25 148.62,-134.25 148.62,-113.5 265.12,-113.5 265.12,-134.25"/>
<text xml:space="preserve" text-anchor="middle" x="206.88" y="-120.75" font-family="Helvetica,sans-Serif" font-size="10.00">LayeredMediaUtils.h</text>
</a>
</g>
</g>
<!-- Node1&#45;&gt;Node2 -->
<g id="edge1_Node000001_Node000002" class="edge">
<title>Node1&#45;&gt;Node2</title>
<g id="a_edge1_Node000001_Node000002"><a xlink:title=" ">
<path fill="none" stroke="#63b8ff" d="M359.62,-169.84C329.3,-160.91 284.28,-147.66 250.96,-137.85"/>
<polygon fill="#63b8ff" stroke="#63b8ff" points="252.19,-134.56 241.61,-135.1 250.21,-141.28 252.19,-134.56"/>
</a>
</g>
</g>
<!-- Node13 -->
<g id="Node000013" class="node">
<title>Node13</title>
<g id="a_Node000013"><a xlink:title=" ">
<polygon fill="#e0e0e0" stroke="#999999" points="346.5,-134.25 283.25,-134.25 283.25,-113.5 346.5,-113.5 346.5,-134.25"/>
<text xml:space="preserve" text-anchor="middle" x="314.88" y="-120.75" font-family="Helvetica,sans-Serif" font-size="10.00">algorithm</text>
</a>
</g>
</g>
<!-- Node1&#45;&gt;Node13 -->
<g id="edge12_Node000001_Node000013" class="edge">
<title>Node1&#45;&gt;Node13</title>
<g id="a_edge12_Node000001_Node000013"><a xlink:title=" ">
<path fill="none" stroke="#63b8ff" d="M378.93,-169.84C367.51,-161.82 351.11,-150.31 337.76,-140.94"/>
<polygon fill="#63b8ff" stroke="#63b8ff" points="340.13,-138.33 329.94,-135.45 336.11,-144.06 340.13,-138.33"/>
</a>
</g>
</g>
<!-- Node14 -->
<g id="Node000014" class="node">
<title>Node14</title>
<g id="a_Node000014"><a xlink:title=" ">
<polygon fill="#e0e0e0" stroke="#999999" points="420.75,-134.25 365,-134.25 365,-113.5 420.75,-113.5 420.75,-134.25"/>
<text xml:space="preserve" text-anchor="middle" x="392.88" y="-120.75" font-family="Helvetica,sans-Serif" font-size="10.00">numeric</text>
</a>
</g>
</g>
<!-- Node1&#45;&gt;Node14 -->
<g id="edge13_Node000001_Node000014" class="edge">
<title>Node1&#45;&gt;Node14</title>
<g id="a_edge13_Node000001_Node000014"><a xlink:title=" ">
<path fill="none" stroke="#63b8ff" d="M392.88,-169.84C392.88,-163.22 392.88,-154.22 392.88,-146.02"/>
<polygon fill="#63b8ff" stroke="#63b8ff" points="396.38,-146.09 392.88,-136.09 389.38,-146.09 396.38,-146.09"/>
</a>
</g>
</g>
<!-- Node15 -->
<g id="Node000015" class="node">
<title>Node15</title>
<g id="a_Node000015"><a xlink:title=" ">
<polygon fill="#e0e0e0" stroke="#999999" points="531.12,-134.25 438.62,-134.25 438.62,-113.5 531.12,-113.5 531.12,-134.25"/>
<text xml:space="preserve" text-anchor="middle" x="484.88" y="-120.75" font-family="Helvetica,sans-Serif" font-size="10.00">unordered_map</text>
</a>
</g>
</g>
<!-- Node1&#45;&gt;Node15 -->
<g id="edge14_Node000001_Node000015" class="edge">
<title>Node1&#45;&gt;Node15</title>
<g id="a_edge14_Node000001_Node000015"><a xlink:title=" ">
<path fill="none" stroke="#63b8ff" d="M409.32,-169.84C423.06,-161.66 442.89,-149.86 458.79,-140.4"/>
<polygon fill="#63b8ff" stroke="#63b8ff" points="460.47,-143.47 467.27,-135.35 456.89,-137.46 460.47,-143.47"/>
</a>
</g>
</g>
<!-- Node16 -->
<g id="Node000016" class="node">
<title>Node16</title>
<g id="a_Node000016"><a xlink:title=" ">
<polygon fill="#e0e0e0" stroke="#999999" points="634.75,-134.25 549,-134.25 549,-113.5 634.75,-113.5 634.75,-134.25"/>
<text xml:space="preserve" text-anchor="middle" x="591.88" y="-120.75" font-family="Helvetica,sans-Serif" font-size="10.00">unordered_set</text>
</a>
</g>
</g>
<!-- Node1&#45;&gt;Node16 -->
<g id="edge15_Node000001_Node000016" class="edge">
<title>Node1&#45;&gt;Node16</title>
<g id="a_edge15_Node000001_Node000016"><a xlink:title=" ">
<path fill="none" stroke="#63b8ff" d="M428.45,-169.84C461.18,-160.83 509.9,-147.43 545.63,-137.6"/>
<polygon fill="#63b8ff" stroke="#63b8ff" points="546.1,-141.1 554.81,-135.07 544.24,-134.35 546.1,-141.1"/>
</a>
</g>
</g>
<!-- Node3 -->
<g id="Node000003" class="node">
<title>Node3</title>
<g id="a_Node000003"><a xlink:title=" ">
<polygon fill="#e0e0e0" stroke="#999999" points="37.75,-77.5 0,-77.5 0,-56.75 37.75,-56.75 37.75,-77.5"/>
<text xml:space="preserve" text-anchor="middle" x="18.88" y="-64" font-family="Helvetica,sans-Serif" font-size="10.00">map</text>
</a>
</g>
</g>
<!-- Node2&#45;&gt;Node3 -->
<g id="edge2_Node000002_Node000003" class="edge">
<title>Node2&#45;&gt;Node3</title>
<g id="a_edge2_Node000002_Node000003"><a xlink:title=" ">
<path fill="none" stroke="#63b8ff" d="M170.51,-113.08C140.28,-104.83 95.88,-92.44 48.83,-78.01"/>
<polygon fill="#63b8ff" stroke="#63b8ff" points="50.15,-74.75 39.56,-75.15 48.08,-81.44 50.15,-74.75"/>
</a>
</g>
</g>
<!-- Node4 -->
<g id="Node000004" class="node">
<title>Node4</title>
<g id="a_Node000004"><a xlink:title=" ">
<polygon fill="#e0e0e0" stroke="#999999" points="119.88,-77.5 55.88,-77.5 55.88,-56.75 119.88,-56.75 119.88,-77.5"/>
<text xml:space="preserve" text-anchor="middle" x="87.88" y="-64" font-family="Helvetica,sans-Serif" font-size="10.00">stdexcept</text>
</a>
</g>
</g>
<!-- Node2&#45;&gt;Node4 -->
<g id="edge3_Node000002_Node000004" class="edge">
<title>Node2&#45;&gt;Node4</title>
<g id="a_edge3_Node000002_Node000004"><a xlink:title=" ">
<path fill="none" stroke="#63b8ff" d="M185.6,-113.09C167.16,-104.6 140.21,-92.2 119.28,-82.58"/>
<polygon fill="#63b8ff" stroke="#63b8ff" points="120.89,-79.46 110.34,-78.46 117.96,-85.82 120.89,-79.46"/>
</a>
</g>
</g>
<!-- Node5 -->
<g id="Node000005" class="node">
<title>Node5</title>
<g id="a_Node000005"><a xlink:title=" ">
<polygon fill="#e0e0e0" stroke="#999999" points="202.25,-77.5 137.5,-77.5 137.5,-56.75 202.25,-56.75 202.25,-77.5"/>
<text xml:space="preserve" text-anchor="middle" x="169.88" y="-64" font-family="Helvetica,sans-Serif" font-size="10.00">functional</text>
</a>
</g>
</g>
<!-- Node2&#45;&gt;Node5 -->
<g id="edge4_Node000002_Node000005" class="edge">
<title>Node2&#45;&gt;Node5</title>
<g id="a_edge4_Node000002_Node000005"><a xlink:title=" ">
<path fill="none" stroke="#63b8ff" d="M200.26,-113.09C195.42,-105.92 188.7,-95.98 182.8,-87.26"/>
<polygon fill="#63b8ff" stroke="#63b8ff" points="185.78,-85.41 177.28,-79.08 179.98,-89.33 185.78,-85.41"/>
</a>
</g>
</g>
<!-- Node6 -->
<g id="Node000006" class="node">
<title>Node6</title>
<g id="a_Node000006"><a xlink:title=" ">
<polygon fill="#e0e0e0" stroke="#999999" points="267.25,-77.5 220.5,-77.5 220.5,-56.75 267.25,-56.75 267.25,-77.5"/>
<text xml:space="preserve" text-anchor="middle" x="243.88" y="-64" font-family="Helvetica,sans-Serif" font-size="10.00">vector</text>
</a>
</g>
</g>
<!-- Node2&#45;&gt;Node6 -->
<g id="edge5_Node000002_Node000006" class="edge">
<title>Node2&#45;&gt;Node6</title>
<g id="a_edge5_Node000002_Node000006"><a xlink:title=" ">
<path fill="none" stroke="#63b8ff" d="M213.49,-113.09C218.33,-105.92 225.05,-95.98 230.95,-87.26"/>
<polygon fill="#63b8ff" stroke="#63b8ff" points="233.77,-89.33 236.47,-79.08 227.97,-85.41 233.77,-89.33"/>
</a>
</g>
</g>
<!-- Node7 -->
<g id="Node000007" class="node">
<title>Node7</title>
<g id="a_Node000007"><a xlink:href="globals_8h.html" target="_top" xlink:title="Global numerical constants, fundamental types, and simple macros.">
<polygon fill="white" stroke="#666666" points="346,-77.5 285.75,-77.5 285.75,-56.75 346,-56.75 346,-77.5"/>
<text xml:space="preserve" text-anchor="middle" x="315.88" y="-64" font-family="Helvetica,sans-Serif" font-size="10.00">globals.h</text>
</a>
</g>
</g>
<!-- Node2&#45;&gt;Node7 -->
<g id="edge6_Node000002_Node000007" class="edge">
<title>Node2&#45;&gt;Node7</title>
<g id="a_edge6_Node000002_Node000007"><a xlink:title=" ">
<path fill="none" stroke="#63b8ff" d="M226.36,-113.09C243.02,-104.72 267.26,-92.54 286.31,-82.97"/>
<polygon fill="#63b8ff" stroke="#63b8ff" points="287.84,-86.12 295.2,-78.51 284.7,-79.87 287.84,-86.12"/>
</a>
</g>
</g>
<!-- Node12 -->
<g id="Node000012" class="node">
<title>Node12</title>
<g id="a_Node000012"><a xlink:title=" ">
<polygon fill="#e0e0e0" stroke="#999999" points="418,-77.5 363.75,-77.5 363.75,-56.75 418,-56.75 418,-77.5"/>
<text xml:space="preserve" text-anchor="middle" x="390.88" y="-64" font-family="Helvetica,sans-Serif" font-size="10.00">fstream</text>
</a>
</g>
</g>
<!-- Node2&#45;&gt;Node12 -->
<g id="edge11_Node000002_Node000012" class="edge">
<title>Node2&#45;&gt;Node12</title>
<g id="a_edge11_Node000002_Node000012"><a xlink:title=" ">
<path fill="none" stroke="#63b8ff" d="M239.77,-113.09C271.44,-103.66 319.31,-89.42 352.66,-79.5"/>
<polygon fill="#63b8ff" stroke="#63b8ff" points="353.33,-82.95 361.91,-76.74 351.33,-76.24 353.33,-82.95"/>
</a>
</g>
</g>
<!-- Node8 -->
<g id="Node000008" class="node">
<title>Node8</title>
<g id="a_Node000008"><a xlink:title=" ">
<polygon fill="#e0e0e0" stroke="#999999" points="196.38,-20.75 123.38,-20.75 123.38,0 196.38,0 196.38,-20.75"/>
<text xml:space="preserve" text-anchor="middle" x="159.88" y="-7.25" font-family="Helvetica,sans-Serif" font-size="10.00">blitz/array.h</text>
</a>
</g>
</g>
<!-- Node7&#45;&gt;Node8 -->
<g id="edge7_Node000007_Node000008" class="edge">
<title>Node7&#45;&gt;Node8</title>
<g id="a_edge7_Node000007_Node000008"><a xlink:title=" ">
<path fill="none" stroke="#63b8ff" d="M287.99,-56.34C263,-47.57 226.1,-34.62 198.32,-24.87"/>
<polygon fill="#63b8ff" stroke="#63b8ff" points="199.81,-21.68 189.21,-21.67 197.49,-28.29 199.81,-21.68"/>
</a>
</g>
</g>
<!-- Node9 -->
<g id="Node000009" class="node">
<title>Node9</title>
<g id="a_Node000009"><a xlink:title=" ">
<polygon fill="#e0e0e0" stroke="#999999" points="305.38,-20.75 214.38,-20.75 214.38,0 305.38,0 305.38,-20.75"/>
<text xml:space="preserve" text-anchor="middle" x="259.88" y="-7.25" font-family="Helvetica,sans-Serif" font-size="10.00">blitz/tinyvec2.h</text>
</a>
</g>
</g>
<!-- Node7&#45;&gt;Node9 -->
<g id="edge8_Node000007_Node000009" class="edge">
<title>Node7&#45;&gt;Node9</title>
<g id="a_edge8_Node000007_Node000009"><a xlink:title=" ">
<path fill="none" stroke="#63b8ff" d="M305.86,-56.34C298.14,-48.78 287.25,-38.14 278,-29.1"/>
<polygon fill="#63b8ff" stroke="#63b8ff" points="280.48,-26.62 270.88,-22.14 275.59,-31.63 280.48,-26.62"/>
</a>
</g>
</g>
<!-- Node10 -->
<g id="Node000010" class="node">
<title>Node10</title>
<g id="a_Node000010"><a xlink:title=" ">
<polygon fill="#e0e0e0" stroke="#999999" points="420,-20.75 323.75,-20.75 323.75,0 420,0 420,-20.75"/>
<text xml:space="preserve" text-anchor="middle" x="371.88" y="-7.25" font-family="Helvetica,sans-Serif" font-size="10.00">blitz/tvecglobs.h</text>
</a>
</g>
</g>
<!-- Node7&#45;&gt;Node10 -->
<g id="edge9_Node000007_Node000010" class="edge">
<title>Node7&#45;&gt;Node10</title>
<g id="a_edge9_Node000007_Node000010"><a xlink:title=" ">
<path fill="none" stroke="#63b8ff" d="M325.89,-56.34C333.61,-48.78 344.5,-38.14 353.75,-29.1"/>
<polygon fill="#63b8ff" stroke="#63b8ff" points="356.16,-31.63 360.87,-22.14 351.27,-26.62 356.16,-31.63"/>
</a>
</g>
</g>
<!-- Node11 -->
<g id="Node000011" class="node">
<title>Node11</title>
<g id="a_Node000011"><a xlink:title=" ">
<polygon fill="#e0e0e0" stroke="#999999" points="495.88,-20.75 437.88,-20.75 437.88,0 495.88,0 495.88,-20.75"/>
<text xml:space="preserve" text-anchor="middle" x="466.88" y="-7.25" font-family="Helvetica,sans-Serif" font-size="10.00">complex</text>
</a>
</g>
</g>
<!-- Node7&#45;&gt;Node11 -->
<g id="edge10_Node000007_Node000011" class="edge">
<title>Node7&#45;&gt;Node11</title>
<g id="a_edge10_Node000007_Node000011"><a xlink:title=" ">
<path fill="none" stroke="#63b8ff" d="M342.87,-56.34C366.95,-47.61 402.45,-34.73 429.3,-25"/>
<polygon fill="#63b8ff" stroke="#63b8ff" points="430.23,-28.39 438.44,-21.69 427.84,-21.8 430.23,-28.39"/>
</a>
</g>
</g>
</g>
</svg>
