<?xml version="1.0" encoding="UTF-8" standalone="no"?>
<!DOCTYPE svg PUBLIC "-//W3C//DTD SVG 1.1//EN"
 "http://www.w3.org/Graphics/SVG/1.1/DTD/svg11.dtd">
<!-- Generated by graphviz version 13.1.2 (20250809.0930)
 -->
<!-- Title: complexSqrt Pages: 1 -->
<!--zoomable 148 -->

<svg id="main" version="1.1" xmlns="http://www.w3.org/2000/svg" xmlns:xlink="http://www.w3.org/1999/xlink" xml:space="preserve" onload="init(evt)">

<style type="text/css"><![CDATA[
.node, .edge {opacity: 0.7;}
.node.selected, .edge.selected {opacity: 1;}
.edge:hover path { stroke: red; }
.edge:hover polygon { stroke: red; fill: red; }
]]></style>

<defs>
  <circle id="rim" cx="0" cy="0" r="7"/>
  <circle id="rim2" cx="0" cy="0" r="3.5"/>
  <g id="zoomPlus">
    <use xlink:href="#rim" fill="#404040"><set attributeName="fill" to="#808080" begin="zoomplus.mouseover" end="zoomplus.mouseout"/></use>
    <path d="M-4,0h8M0,-4v8" fill="none" stroke="white" stroke-width="1.5" pointer-events="none"/>
  </g>
  <g id="zoomMin">
    <use xlink:href="#rim" fill="#404040"><set attributeName="fill" to="#808080" begin="zoomminus.mouseover" end="zoomminus.mouseout"/></use>
    <path d="M-4,0h8" fill="none" stroke="white" stroke-width="1.5" pointer-events="none"/>
  </g>
  <g id="arrowUp" transform="translate(30 24)">
    <use xlink:href="#rim"/>
    <path pointer-events="none" fill="none" stroke="white" stroke-width="1.5" d="M0,-3.0v7 M-2.5,-0.5L0,-3.0L2.5,-0.5"/>
  </g>
  <g id="arrowRight" transform="rotate(90) translate(36 -43)">
    <use xlink:href="#rim"/>
    <path pointer-events="none" fill="none" stroke="white" stroke-width="1.5" d="M0,-3.0v7 M-2.5,-0.5L0,-3.0L2.5,-0.5"/>
  </g>
  <g id="arrowDown" transform="rotate(180) translate(-30 -48)">
    <use xlink:href="#rim"/>
    <path pointer-events="none" fill="none" stroke="white" stroke-width="1.5" d="M0,-3.0v7 M-2.5,-0.5L0,-3.0L2.5,-0.5"/>
  </g>
  <g id="arrowLeft" transform="rotate(270) translate(-36 17)">
    <use xlink:href="#rim"/>
    <path pointer-events="none" fill="none" stroke="white" stroke-width="1.5" d="M0,-3.0v7 M-2.5,-0.5L0,-3.0L2.5,-0.5"/>
  </g>
  <g id="resetDef">
    <use xlink:href="#rim2" fill="#404040"><set attributeName="fill" to="#808080" begin="reset.mouseover" end="reset.mouseout"/></use>
  </g>
</defs>
<script type="application/ecmascript">
var viewWidth = 700;
var viewHeight = 148;
var sectionId = 'dynsection-2';
</script>
<script type="application/ecmascript" xlink:href="svg.min.js"/>
<svg id="graph" class="graph">
<g id="viewport">
<title>complexSqrt</title>
<!-- Node1 -->
<g id="Node000001" class="node">
<title>Node1</title>
<g id="a_Node000001"><a xlink:title="Computes the square root of a complex number with proper handling of negative imaginary parts.">
<polygon fill="#999999" stroke="#666666" points="692,-101.12 614.5,-101.12 614.5,-80.38 692,-80.38 692,-101.12"/>
<text xml:space="preserve" text-anchor="middle" x="653.25" y="-87.62" font-family="Helvetica,sans-Serif" font-size="10.00">complexSqrt</text>
</a>
</g>
</g>
<!-- Node2 -->
<g id="Node000002" class="node">
<title>Node2</title>
<g id="a_Node000002"><a xlink:href="classLayeredMediaUtils.html#ab1660d136377d8e6d7878973475146a8" target="_top" xlink:title="Computes electromagnetic fields at observation points given a source position.">
<polygon fill="white" stroke="#666666" points="113.5,-139.5 0,-139.5 0,-106 113.5,-106 113.5,-139.5"/>
<text xml:space="preserve" text-anchor="start" x="8" y="-126" font-family="Helvetica,sans-Serif" font-size="10.00">LayeredMediaUtils::</text>
<text xml:space="preserve" text-anchor="middle" x="56.75" y="-113.25" font-family="Helvetica,sans-Serif" font-size="10.00">Fields</text>
</a>
</g>
</g>
<!-- Node1&#45;&gt;Node2 -->
<g id="edge1_Node000001_Node000002" class="edge">
<title>Node1&#45;&gt;Node2</title>
<g id="a_edge1_Node000001_Node000002"><a xlink:title=" ">
<path fill="none" stroke="#63b8ff" d="M606.68,-104.59C597.43,-106.98 587.71,-109.2 578.5,-110.75 390.25,-142.53 340.14,-143.11 149.5,-132.75 137.98,-132.12 125.68,-131.06 113.96,-129.85"/>
<polygon fill="#63b8ff" stroke="#63b8ff" points="607.47,-108.01 616.21,-102.02 605.64,-101.25 607.47,-108.01"/>
</a>
</g>
</g>
<!-- Node3 -->
<g id="Node000003" class="node">
<title>Node3</title>
<g id="a_Node000003"><a xlink:href="classLayeredMediaUtils.html#a212943a3dd5bdeaaa5c92ed21fad87a9" target="_top" xlink:title="Computes Fresnel reflection and transmission coefficients at an interface.">
<polygon fill="white" stroke="#666666" points="578.5,-85.5 465,-85.5 465,-52 578.5,-52 578.5,-85.5"/>
<text xml:space="preserve" text-anchor="start" x="473" y="-72" font-family="Helvetica,sans-Serif" font-size="10.00">LayeredMediaUtils::</text>
<text xml:space="preserve" text-anchor="middle" x="521.75" y="-59.25" font-family="Helvetica,sans-Serif" font-size="10.00">FresnelCoeff</text>
</a>
</g>
</g>
<!-- Node1&#45;&gt;Node3 -->
<g id="edge2_Node000001_Node000003" class="edge">
<title>Node1&#45;&gt;Node3</title>
<g id="a_edge2_Node000001_Node000003"><a xlink:title=" ">
<path fill="none" stroke="#63b8ff" d="M602.88,-82.36C595.03,-81.03 586.86,-79.64 578.87,-78.28"/>
<polygon fill="#63b8ff" stroke="#63b8ff" points="602.16,-85.79 612.6,-84.01 603.33,-78.89 602.16,-85.79"/>
</a>
</g>
</g>
<!-- Node5 -->
<g id="Node000005" class="node">
<title>Node5</title>
<g id="a_Node000005"><a xlink:href="classLayeredMediaUtils.html#a6d538561bc5345114e83f7939247866f" target="_top" xlink:title="Computes secondary wave coefficients for a given observation and source layer.">
<polygon fill="white" stroke="#666666" points="263,-123.5 149.5,-123.5 149.5,-90 263,-90 263,-123.5"/>
<text xml:space="preserve" text-anchor="start" x="157.5" y="-110" font-family="Helvetica,sans-Serif" font-size="10.00">LayeredMediaUtils::</text>
<text xml:space="preserve" text-anchor="middle" x="206.25" y="-97.25" font-family="Helvetica,sans-Serif" font-size="10.00">Secondary</text>
</a>
</g>
</g>
<!-- Node1&#45;&gt;Node5 -->
<g id="edge11_Node000001_Node000005" class="edge">
<title>Node1&#45;&gt;Node5</title>
<g id="a_edge11_Node000001_Node000005"><a xlink:title=" ">
<path fill="none" stroke="#63b8ff" d="M603.01,-93.57C594.82,-94 586.42,-94.41 578.5,-94.75 466.72,-99.59 335.93,-103.38 263.24,-105.32"/>
<polygon fill="#63b8ff" stroke="#63b8ff" points="603.05,-97.07 612.85,-93.05 602.68,-90.08 603.05,-97.07"/>
</a>
</g>
</g>
<!-- Node8 -->
<g id="Node000008" class="node">
<title>Node8</title>
<g id="a_Node000008"><a xlink:href="classLayeredMediaUtils.html#ac9168dd49348197009d483b94ff715a4" target="_top" xlink:title="Computes the propagation matrix for a given layer.">
<polygon fill="white" stroke="#666666" points="420.75,-33.5 307.25,-33.5 307.25,0 420.75,0 420.75,-33.5"/>
<text xml:space="preserve" text-anchor="start" x="315.25" y="-20" font-family="Helvetica,sans-Serif" font-size="10.00">LayeredMediaUtils::</text>
<text xml:space="preserve" text-anchor="middle" x="364" y="-7.25" font-family="Helvetica,sans-Serif" font-size="10.00">propagationMatrix</text>
</a>
</g>
</g>
<!-- Node1&#45;&gt;Node8 -->
<g id="edge9_Node000001_Node000008" class="edge">
<title>Node1&#45;&gt;Node8</title>
<g id="a_edge9_Node000001_Node000008"><a xlink:title=" ">
<path fill="none" stroke="#63b8ff" d="M630.84,-73.03C616.83,-62.43 597.63,-49.71 578.5,-42.75 527.27,-24.1 465.03,-18.27 421.01,-16.7"/>
<polygon fill="#63b8ff" stroke="#63b8ff" points="628.42,-75.58 638.45,-78.99 632.74,-70.07 628.42,-75.58"/>
</a>
</g>
</g>
<!-- Node4 -->
<g id="Node000004" class="node">
<title>Node4</title>
<g id="a_Node000004"><a xlink:href="classLayeredMediaUtils.html#a00598e0f83472fd9128419b9dddc7e09" target="_top" xlink:title="Computes the interface transfer matrix for TE or TM waves.">
<polygon fill="white" stroke="#666666" points="429,-85.5 299,-85.5 299,-52 429,-52 429,-85.5"/>
<text xml:space="preserve" text-anchor="start" x="307" y="-72" font-family="Helvetica,sans-Serif" font-size="10.00">LayeredMediaUtils::</text>
<text xml:space="preserve" text-anchor="middle" x="364" y="-59.25" font-family="Helvetica,sans-Serif" font-size="10.00">InterfaceTransferMatrix</text>
</a>
</g>
</g>
<!-- Node3&#45;&gt;Node4 -->
<g id="edge3_Node000003_Node000004" class="edge">
<title>Node3&#45;&gt;Node4</title>
<g id="a_edge3_Node000003_Node000004"><a xlink:title=" ">
<path fill="none" stroke="#63b8ff" d="M453.11,-68.75C445.22,-68.75 437.19,-68.75 429.35,-68.75"/>
<polygon fill="#63b8ff" stroke="#63b8ff" points="453.01,-72.25 463.01,-68.75 453.01,-65.25 453.01,-72.25"/>
</a>
</g>
</g>
<!-- Node4&#45;&gt;Node5 -->
<g id="edge4_Node000004_Node000005" class="edge">
<title>Node4&#45;&gt;Node5</title>
<g id="a_edge4_Node000004_Node000005"><a xlink:title=" ">
<path fill="none" stroke="#63b8ff" d="M287.66,-87.13C279.49,-89.13 271.28,-91.13 263.39,-93.05"/>
<polygon fill="#63b8ff" stroke="#63b8ff" points="288.4,-90.55 297.28,-84.78 286.74,-83.75 288.4,-90.55"/>
</a>
</g>
</g>
<!-- Node6 -->
<g id="Node000006" class="node">
<title>Node6</title>
<g id="a_Node000006"><a xlink:href="classLayeredMediaUtils.html#a796d55e02d56c610cae065557bc64c10" target="_top" xlink:title="Computes the total transfer matrix for the entire layered structure.">
<polygon fill="white" stroke="#666666" points="263,-56.5 149.5,-56.5 149.5,-23 263,-23 263,-56.5"/>
<text xml:space="preserve" text-anchor="start" x="157.5" y="-43" font-family="Helvetica,sans-Serif" font-size="10.00">LayeredMediaUtils::</text>
<text xml:space="preserve" text-anchor="middle" x="206.25" y="-30.25" font-family="Helvetica,sans-Serif" font-size="10.00">totalTransferMatrix</text>
</a>
</g>
</g>
<!-- Node4&#45;&gt;Node6 -->
<g id="edge6_Node000004_Node000006" class="edge">
<title>Node4&#45;&gt;Node6</title>
<g id="a_edge6_Node000004_Node000006"><a xlink:title=" ">
<path fill="none" stroke="#63b8ff" d="M287.66,-54.72C279.49,-53.2 271.28,-51.67 263.39,-50.2"/>
<polygon fill="#63b8ff" stroke="#63b8ff" points="286.79,-58.12 297.26,-56.51 288.07,-51.24 286.79,-58.12"/>
</a>
</g>
</g>
<!-- Node5&#45;&gt;Node2 -->
<g id="edge5_Node000005_Node000002" class="edge">
<title>Node5&#45;&gt;Node2</title>
<g id="a_edge5_Node000005_Node000002"><a xlink:title=" ">
<path fill="none" stroke="#63b8ff" d="M137.81,-114.07C129.77,-114.94 121.63,-115.82 113.78,-116.67"/>
<polygon fill="#63b8ff" stroke="#63b8ff" points="138,-117.57 147.56,-113.01 137.24,-110.61 138,-117.57"/>
</a>
</g>
</g>
<!-- Node7 -->
<g id="Node000007" class="node">
<title>Node7</title>
<g id="a_Node000007"><a xlink:href="classLayeredMediaUtils.html#a55529dbdb069b59a6252ab2e446186a0" target="_top" xlink:title="Computes reflection and transmission coefficients for the entire layered structure.">
<polygon fill="white" stroke="#666666" points="113.5,-56.5 0,-56.5 0,-23 113.5,-23 113.5,-56.5"/>
<text xml:space="preserve" text-anchor="start" x="8" y="-43" font-family="Helvetica,sans-Serif" font-size="10.00">LayeredMediaUtils::</text>
<text xml:space="preserve" text-anchor="middle" x="56.75" y="-30.25" font-family="Helvetica,sans-Serif" font-size="10.00">totalFresnelCoeffs</text>
</a>
</g>
</g>
<!-- Node6&#45;&gt;Node7 -->
<g id="edge7_Node000006_Node000007" class="edge">
<title>Node6&#45;&gt;Node7</title>
<g id="a_edge7_Node000006_Node000007"><a xlink:title=" ">
<path fill="none" stroke="#63b8ff" d="M137.81,-39.75C129.77,-39.75 121.63,-39.75 113.78,-39.75"/>
<polygon fill="#63b8ff" stroke="#63b8ff" points="137.55,-43.25 147.55,-39.75 137.55,-36.25 137.55,-43.25"/>
</a>
</g>
</g>
<!-- Node7&#45;&gt;Node7 -->
<g id="edge8_Node000007_Node000007" class="edge">
<title>Node7&#45;&gt;Node7</title>
<g id="a_edge8_Node000007_Node000007"><a xlink:title=" ">
<path fill="none" stroke="#63b8ff" d="M81.5,-68.22C77.3,-71.99 69.05,-74.5 56.75,-74.5 34.27,-74.5 25.31,-66.12 29.88,-56.91"/>
<polygon fill="#63b8ff" stroke="#63b8ff" points="84.94,-68.88 83.35,-58.4 78.06,-67.58 84.94,-68.88"/>
</a>
</g>
</g>
<!-- Node8&#45;&gt;Node6 -->
<g id="edge10_Node000008_Node000006" class="edge">
<title>Node8&#45;&gt;Node6</title>
<g id="a_edge10_Node000008_Node000006"><a xlink:title=" ">
<path fill="none" stroke="#63b8ff" d="M295.68,-26.69C284.91,-28.28 273.87,-29.91 263.4,-31.46"/>
<polygon fill="#63b8ff" stroke="#63b8ff" points="295.89,-30.2 305.27,-25.27 294.87,-23.27 295.89,-30.2"/>
</a>
</g>
</g>
</g>
</svg>

<g id="navigator" transform="translate(0 0)" fill="#404254">
  <rect fill="#f2f5e9" fill-opacity="0.5" stroke="#606060" stroke-width=".5" x="0" y="0" width="60" height="60"/>
  <use id="zoomplus" xlink:href="#zoomPlus" x="17" y="9" onmousedown="handleZoom(evt,'in')"/>
  <use id="zoomminus" xlink:href="#zoomMin" x="42" y="9" onmousedown="handleZoom(evt,'out')"/>
  <use id="reset" xlink:href="#resetDef" x="30" y="36" onmousedown="handleReset()"/>
   <use id="arrowup" xlink:href="#arrowUp" x="0" y="0" onmousedown="handlePan(0,-1)"/>
  <use id="arrowright" xlink:href="#arrowRight" x="0" y="0" onmousedown="handlePan(1,0)"/>
  <use id="arrowdown" xlink:href="#arrowDown" x="0" y="0" onmousedown="handlePan(0,1)"/>
  <use id="arrowleft" xlink:href="#arrowLeft" x="0" y="0" onmousedown="handlePan(-1,0)"/>
</g>
<svg viewBox="0 0 15 15" width="100%" height="30px" preserveAspectRatio="xMaxYMin meet">
 <g id="arrow_out" transform="scale(0.3 0.3)">
  <a xlink:href="LayeredMediaUtils_8cpp_a50405603197731a46c864b0f39744ed0_icgraph_org.svg" target="_base">
   <rect id="button" ry="5" rx="5" y="6" x="6" height="38" width="38"
        fill="#f2f5e9" fill-opacity="0.5" stroke="#606060" stroke-width="1.0"/>
   <path id="arrow"
     d="M 11.500037,31.436501 C 11.940474,20.09759 22.043105,11.32322 32.158766,21.979434 L 37.068811,17.246167 C 37.068811,17.246167 37.088388,32 37.088388,32 L 22.160133,31.978069 C 22.160133,31.978069 26.997745,27.140456 26.997745,27.140456 C 18.528582,18.264221 13.291696,25.230495 11.500037,31.436501 z"
     style="fill:#404040;"/>
  </a>
 </g>
</svg>

<style type='text/css'>
<![CDATA[
[data-mouse-over-selected='false'] { opacity: 0.7; }
[data-mouse-over-selected='true']  { opacity: 1.0; }
]]>
</style>
<script type="application/ecmascript"><![CDATA[
document.addEventListener('DOMContentLoaded', (event) => {
  highlightEdges();
  highlightAdjacentNodes();
});
]]></script>
</svg>
