<?xml version="1.0" encoding="UTF-8" standalone="no"?>
<!DOCTYPE svg PUBLIC "-//W3C//DTD SVG 1.1//EN"
 "http://www.w3.org/Graphics/SVG/1.1/DTD/svg11.dtd">
<!-- Generated by graphviz version 13.1.2 (20250809.0930)
 -->
<!-- Title: LayeredMediaUtils.h Pages: 1 -->
<!--zoomable 483 -->

<svg id="main" version="1.1" xmlns="http://www.w3.org/2000/svg" xmlns:xlink="http://www.w3.org/1999/xlink" xml:space="preserve" onload="init(evt)">

<style type="text/css"><![CDATA[
.node, .edge {opacity: 0.7;}
.node.selected, .edge.selected {opacity: 1;}
.edge:hover path { stroke: red; }
.edge:hover polygon { stroke: red; fill: red; }
]]></style>

<defs>
  <circle id="rim" cx="0" cy="0" r="7"/>
  <circle id="rim2" cx="0" cy="0" r="3.5"/>
  <g id="zoomPlus">
    <use xlink:href="#rim" fill="#404040"><set attributeName="fill" to="#808080" begin="zoomplus.mouseover" end="zoomplus.mouseout"/></use>
    <path d="M-4,0h8M0,-4v8" fill="none" stroke="white" stroke-width="1.5" pointer-events="none"/>
  </g>
  <g id="zoomMin">
    <use xlink:href="#rim" fill="#404040"><set attributeName="fill" to="#808080" begin="zoomminus.mouseover" end="zoomminus.mouseout"/></use>
    <path d="M-4,0h8" fill="none" stroke="white" stroke-width="1.5" pointer-events="none"/>
  </g>
  <g id="arrowUp" transform="translate(30 24)">
    <use xlink:href="#rim"/>
    <path pointer-events="none" fill="none" stroke="white" stroke-width="1.5" d="M0,-3.0v7 M-2.5,-0.5L0,-3.0L2.5,-0.5"/>
  </g>
  <g id="arrowRight" transform="rotate(90) translate(36 -43)">
    <use xlink:href="#rim"/>
    <path pointer-events="none" fill="none" stroke="white" stroke-width="1.5" d="M0,-3.0v7 M-2.5,-0.5L0,-3.0L2.5,-0.5"/>
  </g>
  <g id="arrowDown" transform="rotate(180) translate(-30 -48)">
    <use xlink:href="#rim"/>
    <path pointer-events="none" fill="none" stroke="white" stroke-width="1.5" d="M0,-3.0v7 M-2.5,-0.5L0,-3.0L2.5,-0.5"/>
  </g>
  <g id="arrowLeft" transform="rotate(270) translate(-36 17)">
    <use xlink:href="#rim"/>
    <path pointer-events="none" fill="none" stroke="white" stroke-width="1.5" d="M0,-3.0v7 M-2.5,-0.5L0,-3.0L2.5,-0.5"/>
  </g>
  <g id="resetDef">
    <use xlink:href="#rim2" fill="#404040"><set attributeName="fill" to="#808080" begin="reset.mouseover" end="reset.mouseout"/></use>
  </g>
</defs>
<script type="application/ecmascript">
var viewWidth = 1384;
var viewHeight = 483;
var sectionId = 'dynsection-1';
</script>
<script type="application/ecmascript" xlink:href="svg.min.js"/>
<svg id="graph" class="graph">
<g id="viewport">
<title>LayeredMediaUtils.h</title>
<!-- Node1 -->
<g id="Node000001" class="node">
<title>Node1</title>
<g id="a_Node000001"><a xlink:title="This header declares utility structures and algorithms used throughout the layered&#45;media scattering s...">
<polygon fill="#999999" stroke="#666666" points="1240.25,-474.75 1123.75,-474.75 1123.75,-454 1240.25,-454 1240.25,-474.75"/>
<text xml:space="preserve" text-anchor="middle" x="1182" y="-461.25" font-family="Helvetica,sans-Serif" font-size="10.00">LayeredMediaUtils.h</text>
</a>
</g>
</g>
<!-- Node2 -->
<g id="Node000002" class="node">
<title>Node2</title>
<g id="a_Node000002"><a xlink:href="Dipole_8h.html" target="_top" xlink:title="Incident field generator for electric dipole illumination in homogeneous or layered media.">
<polygon fill="white" stroke="#666666" points="995.25,-77.5 938.75,-77.5 938.75,-56.75 995.25,-56.75 995.25,-77.5"/>
<text xml:space="preserve" text-anchor="middle" x="967" y="-64" font-family="Helvetica,sans-Serif" font-size="10.00">Dipole.h</text>
</a>
</g>
</g>
<!-- Node1&#45;&gt;Node2 -->
<g id="edge1_Node000001_Node000002" class="edge">
<title>Node1&#45;&gt;Node2</title>
<g id="a_edge1_Node000001_Node000002"><a xlink:title=" ">
<path fill="none" stroke="#63b8ff" d="M1182,-442.07C1182,-419.63 1182,-383.27 1182,-351.88 1182,-351.88 1182,-351.88 1182,-293.12 1182,-182.1 1043.46,-104.33 988.8,-77.98"/>
<polygon fill="#63b8ff" stroke="#63b8ff" points="1178.5,-442.02 1182,-452.02 1185.5,-442.02 1178.5,-442.02"/>
</a>
</g>
</g>
<!-- Node6 -->
<g id="Node000006" class="node">
<title>Node6</title>
<g id="a_Node000006"><a xlink:href="IncidentField_8h.html" target="_top" xlink:title="Abstract interface for incident electromagnetic excitations.">
<polygon fill="white" stroke="#666666" points="995.62,-418 908.38,-418 908.38,-397.25 995.62,-397.25 995.62,-418"/>
<text xml:space="preserve" text-anchor="middle" x="952" y="-404.5" font-family="Helvetica,sans-Serif" font-size="10.00">IncidentField.h</text>
</a>
</g>
</g>
<!-- Node1&#45;&gt;Node6 -->
<g id="edge5_Node000001_Node000006" class="edge">
<title>Node1&#45;&gt;Node6</title>
<g id="a_edge5_Node000001_Node000006"><a xlink:title=" ">
<path fill="none" stroke="#63b8ff" d="M1129.68,-450.92C1088.4,-441.09 1031.61,-427.57 993.44,-418.49"/>
<polygon fill="#63b8ff" stroke="#63b8ff" points="1128.6,-454.26 1139.14,-453.17 1130.22,-447.45 1128.6,-454.26"/>
</a>
</g>
</g>
<!-- Node13 -->
<g id="Node000013" class="node">
<title>Node13</title>
<g id="a_Node000013"><a xlink:href="SommerfeldIntegrator_8h.html" target="_top" xlink:title="Declaration of the SommerfeldIntegrator class, which evaluates Sommerfeld&#45;type integrals for layered ...">
<polygon fill="white" stroke="#666666" points="248.12,-191 115.88,-191 115.88,-170.25 248.12,-170.25 248.12,-191"/>
<text xml:space="preserve" text-anchor="middle" x="182" y="-177.5" font-family="Helvetica,sans-Serif" font-size="10.00">SommerfeldIntegrator.h</text>
</a>
</g>
</g>
<!-- Node1&#45;&gt;Node13 -->
<g id="edge57_Node000001_Node000013" class="edge">
<title>Node1&#45;&gt;Node13</title>
<g id="a_edge57_Node000001_Node000013"><a xlink:title=" ">
<path fill="none" stroke="#63b8ff" d="M1112.19,-462.7C889.41,-459.61 210,-442.76 210,-351.88 210,-351.88 210,-351.88 210,-293.12 210,-254.41 193.92,-210.34 186.13,-191.26"/>
<polygon fill="#63b8ff" stroke="#63b8ff" points="1111.83,-466.19 1121.87,-462.82 1111.92,-459.19 1111.83,-466.19"/>
</a>
</g>
</g>
<!-- Node25 -->
<g id="Node000025" class="node">
<title>Node25</title>
<g id="a_Node000025"><a xlink:href="PlaneWave_8h.html" target="_top" xlink:title="Defines the PlaneWave class: representation of a plane‐wave incident field.">
<polygon fill="white" stroke="#666666" points="1221.5,-77.5 1142.5,-77.5 1142.5,-56.75 1221.5,-56.75 1221.5,-77.5"/>
<text xml:space="preserve" text-anchor="middle" x="1182" y="-64" font-family="Helvetica,sans-Serif" font-size="10.00">PlaneWave.h</text>
</a>
</g>
</g>
<!-- Node1&#45;&gt;Node25 -->
<g id="edge56_Node000001_Node000025" class="edge">
<title>Node1&#45;&gt;Node25</title>
<g id="a_edge56_Node000001_Node000025"><a xlink:title=" ">
<path fill="none" stroke="#63b8ff" d="M1193.12,-443.66C1204.34,-421.9 1220,-385.49 1220,-351.88 1220,-351.88 1220,-351.88 1220,-179.62 1220,-140.15 1198.4,-96.82 1187.77,-77.89"/>
<polygon fill="#63b8ff" stroke="#63b8ff" points="1190.14,-441.81 1188.49,-452.28 1196.31,-445.13 1190.14,-441.81"/>
</a>
</g>
</g>
<!-- Node31 -->
<g id="Node000031" class="node">
<title>Node31</title>
<g id="a_Node000031"><a xlink:href="LayeredMediaUtils_8cpp.html" target="_top" xlink:title="Implementation for the LayeredMediaUtils class.">
<polygon fill="white" stroke="#666666" points="1375.88,-418 1248.12,-418 1248.12,-397.25 1375.88,-397.25 1375.88,-418"/>
<text xml:space="preserve" text-anchor="middle" x="1312" y="-404.5" font-family="Helvetica,sans-Serif" font-size="10.00">LayeredMediaUtils.cpp</text>
</a>
</g>
</g>
<!-- Node1&#45;&gt;Node31 -->
<g id="edge55_Node000001_Node000031" class="edge">
<title>Node1&#45;&gt;Node31</title>
<g id="a_edge55_Node000001_Node000031"><a xlink:title=" ">
<path fill="none" stroke="#63b8ff" d="M1215.6,-449.22C1238.63,-439.52 1268.6,-426.91 1288.96,-418.33"/>
<polygon fill="#63b8ff" stroke="#63b8ff" points="1214.49,-445.89 1206.64,-453 1217.21,-452.34 1214.49,-445.89"/>
</a>
</g>
</g>
<!-- Node3 -->
<g id="Node000003" class="node">
<title>Node3</title>
<g id="a_Node000003"><a xlink:href="Dipole_8cpp.html" target="_top" xlink:title="Implementation of the Dipole incident source.">
<polygon fill="white" stroke="#666666" points="996.88,-20.75 929.12,-20.75 929.12,0 996.88,0 996.88,-20.75"/>
<text xml:space="preserve" text-anchor="middle" x="963" y="-7.25" font-family="Helvetica,sans-Serif" font-size="10.00">Dipole.cpp</text>
</a>
</g>
</g>
<!-- Node2&#45;&gt;Node3 -->
<g id="edge2_Node000002_Node000003" class="edge">
<title>Node2&#45;&gt;Node3</title>
<g id="a_edge2_Node000002_Node000003"><a xlink:title=" ">
<path fill="none" stroke="#63b8ff" d="M965.45,-44.88C964.85,-36.66 964.19,-27.68 963.71,-21.08"/>
<polygon fill="#63b8ff" stroke="#63b8ff" points="961.96,-45.11 966.17,-54.83 968.94,-44.6 961.96,-45.11"/>
</a>
</g>
</g>
<!-- Node4 -->
<g id="Node000004" class="node">
<title>Node4</title>
<g id="a_Node000004"><a xlink:href="DomainHom3D_8cpp.html" target="_top" xlink:title="Implementation of the homogeneous 3D domain.">
<polygon fill="white" stroke="#666666" points="1126.62,-20.75 1015.38,-20.75 1015.38,0 1126.62,0 1126.62,-20.75"/>
<text xml:space="preserve" text-anchor="middle" x="1071" y="-7.25" font-family="Helvetica,sans-Serif" font-size="10.00">DomainHom3D.cpp</text>
</a>
</g>
</g>
<!-- Node2&#45;&gt;Node4 -->
<g id="edge3_Node000002_Node000004" class="edge">
<title>Node2&#45;&gt;Node4</title>
<g id="a_edge3_Node000002_Node000004"><a xlink:title=" ">
<path fill="none" stroke="#63b8ff" d="M995.65,-51.04C1013.82,-41.48 1036.79,-29.38 1052.57,-21.08"/>
<polygon fill="#63b8ff" stroke="#63b8ff" points="994.15,-47.88 986.93,-55.63 997.41,-54.07 994.15,-47.88"/>
</a>
</g>
</g>
<!-- Node5 -->
<g id="Node000005" class="node">
<title>Node5</title>
<g id="a_Node000005"><a xlink:href="DomainLayered3D_8cpp.html" target="_top" xlink:title="Implementation of the layered 3D domain.">
<polygon fill="white" stroke="#666666" points="911.5,-20.75 784.5,-20.75 784.5,0 911.5,0 911.5,-20.75"/>
<text xml:space="preserve" text-anchor="middle" x="848" y="-7.25" font-family="Helvetica,sans-Serif" font-size="10.00">DomainLayered3D.cpp</text>
</a>
</g>
</g>
<!-- Node2&#45;&gt;Node5 -->
<g id="edge4_Node000002_Node000005" class="edge">
<title>Node2&#45;&gt;Node5</title>
<g id="a_edge4_Node000002_Node000005"><a xlink:title=" ">
<path fill="none" stroke="#63b8ff" d="M935.38,-51.58C914.41,-41.93 887.48,-29.54 869.09,-21.08"/>
<polygon fill="#63b8ff" stroke="#63b8ff" points="933.8,-54.7 944.35,-55.7 936.73,-48.34 933.8,-54.7"/>
</a>
</g>
</g>
<!-- Node6&#45;&gt;Node2 -->
<g id="edge6_Node000006_Node000002" class="edge">
<title>Node6&#45;&gt;Node2</title>
<g id="a_edge6_Node000006_Node000002"><a xlink:title=" ">
<path fill="none" stroke="#63b8ff" d="M978.92,-390.79C989.93,-383.11 1001.96,-373 1010,-361.25 1027.34,-335.91 1030,-325.83 1030,-295.12 1030,-295.12 1030,-295.12 1030,-179.62 1030,-137.16 994.93,-95.99 977.12,-77.83"/>
<polygon fill="#63b8ff" stroke="#63b8ff" points="977.33,-387.65 970.88,-396.06 981.17,-393.5 977.33,-387.65"/>
</a>
</g>
</g>
<!-- Node6&#45;&gt;Node4 -->
<g id="edge30_Node000006_Node000004" class="edge">
<title>Node6&#45;&gt;Node4</title>
<g id="a_edge30_Node000006_Node000004"><a xlink:title=" ">
<path fill="none" stroke="#63b8ff" d="M1001.66,-393.31C1046.67,-377.87 1106,-347.57 1106,-295.12 1106,-295.12 1106,-295.12 1106,-236.38 1106,-152.17 1081.77,-52.33 1073.63,-21.16"/>
<polygon fill="#63b8ff" stroke="#63b8ff" points="1000.72,-389.93 992.3,-396.36 1002.89,-396.59 1000.72,-389.93"/>
</a>
</g>
</g>
<!-- Node6&#45;&gt;Node5 -->
<g id="edge31_Node000006_Node000005" class="edge">
<title>Node6&#45;&gt;Node5</title>
<g id="a_edge31_Node000006_Node000005"><a xlink:title=" ">
<path fill="none" stroke="#63b8ff" d="M896.82,-403.33C735.49,-392.95 276,-357.89 276,-295.12 276,-295.12 276,-295.12 276,-179.62 276,-110.87 309.86,-90.09 370,-56.75 439.53,-18.2 670.83,-11.91 784.22,-11.2"/>
<polygon fill="#63b8ff" stroke="#63b8ff" points="896.19,-406.79 906.4,-403.93 896.64,-399.81 896.19,-406.79"/>
</a>
</g>
</g>
<!-- Node7 -->
<g id="Node000007" class="node">
<title>Node7</title>
<g id="a_Node000007"><a xlink:href="Domain_8h.html" target="_top" xlink:title="Abstract simulation domain class for SIE scattering.">
<polygon fill="white" stroke="#666666" points="657.62,-304.5 594.38,-304.5 594.38,-283.75 657.62,-283.75 657.62,-304.5"/>
<text xml:space="preserve" text-anchor="middle" x="626" y="-291" font-family="Helvetica,sans-Serif" font-size="10.00">Domain.h</text>
</a>
</g>
</g>
<!-- Node6&#45;&gt;Node7 -->
<g id="edge7_Node000006_Node000007" class="edge">
<title>Node6&#45;&gt;Node7</title>
<g id="a_edge7_Node000006_Node000007"><a xlink:title=" ">
<path fill="none" stroke="#63b8ff" d="M896.62,-399.12C853.96,-392.26 794.01,-380.23 744,-361.25 704.26,-346.17 661.73,-319.36 640.22,-304.94"/>
<polygon fill="#63b8ff" stroke="#63b8ff" points="895.98,-402.56 906.4,-400.65 897.06,-395.65 895.98,-402.56"/>
</a>
</g>
</g>
<!-- Node12 -->
<g id="Node000012" class="node">
<title>Node12</title>
<g id="a_Node000012"><a xlink:href="SimJob_8cpp.html" target="_top" xlink:title="Implementation for the SimJob class.">
<polygon fill="white" stroke="#666666" points="481,-20.75 411,-20.75 411,0 481,0 481,-20.75"/>
<text xml:space="preserve" text-anchor="middle" x="446" y="-7.25" font-family="Helvetica,sans-Serif" font-size="10.00">SimJob.cpp</text>
</a>
</g>
</g>
<!-- Node6&#45;&gt;Node12 -->
<g id="edge54_Node000006_Node000012" class="edge">
<title>Node6&#45;&gt;Node12</title>
<g id="a_edge54_Node000006_Node000012"><a xlink:title=" ">
<path fill="none" stroke="#63b8ff" d="M896.72,-406C693.57,-402.98 0,-386.03 0,-295.12 0,-295.12 0,-295.12 0,-122.88 0,-38.37 305.14,-17.38 410.63,-12.64"/>
<polygon fill="#63b8ff" stroke="#63b8ff" points="896.43,-409.5 906.48,-406.14 896.53,-402.5 896.43,-409.5"/>
</a>
</g>
</g>
<!-- Node22 -->
<g id="Node000022" class="node">
<title>Node22</title>
<g id="a_Node000022"><a xlink:href="Gaussian_8h.html" target="_top" xlink:title="Incident field: paraxial Gaussian beam in a homogeneous medium.">
<polygon fill="white" stroke="#666666" points="1310,-77.5 1240,-77.5 1240,-56.75 1310,-56.75 1310,-77.5"/>
<text xml:space="preserve" text-anchor="middle" x="1275" y="-64" font-family="Helvetica,sans-Serif" font-size="10.00">Gaussian.h</text>
</a>
</g>
</g>
<!-- Node6&#45;&gt;Node22 -->
<g id="edge32_Node000006_Node000022" class="edge">
<title>Node6&#45;&gt;Node22</title>
<g id="a_edge32_Node000006_Node000022"><a xlink:title=" ">
<path fill="none" stroke="#63b8ff" d="M1007.13,-402.95C1042.62,-398.07 1087.95,-386.86 1120,-361.25 1220.07,-281.3 1263.28,-118.9 1272.87,-77.76"/>
<polygon fill="#63b8ff" stroke="#63b8ff" points="1006.98,-399.44 997.48,-404.13 1007.84,-406.39 1006.98,-399.44"/>
</a>
</g>
</g>
<!-- Node24 -->
<g id="Node000024" class="node">
<title>Node24</title>
<g id="a_Node000024"><a xlink:href="IncidentField_8cpp.html" target="_top" xlink:title="Minimal implementation pieces for IncidentField.">
<polygon fill="white" stroke="#666666" points="1001.25,-361.25 902.75,-361.25 902.75,-340.5 1001.25,-340.5 1001.25,-361.25"/>
<text xml:space="preserve" text-anchor="middle" x="952" y="-347.75" font-family="Helvetica,sans-Serif" font-size="10.00">IncidentField.cpp</text>
</a>
</g>
</g>
<!-- Node6&#45;&gt;Node24 -->
<g id="edge36_Node000006_Node000024" class="edge">
<title>Node6&#45;&gt;Node24</title>
<g id="a_edge36_Node000006_Node000024"><a xlink:title=" ">
<path fill="none" stroke="#63b8ff" d="M952,-385.38C952,-377.16 952,-368.18 952,-361.58"/>
<polygon fill="#63b8ff" stroke="#63b8ff" points="948.5,-385.32 952,-395.32 955.5,-385.32 948.5,-385.32"/>
</a>
</g>
</g>
<!-- Node6&#45;&gt;Node25 -->
<g id="edge37_Node000006_Node000025" class="edge">
<title>Node6&#45;&gt;Node25</title>
<g id="a_edge37_Node000006_Node000025"><a xlink:title=" ">
<path fill="none" stroke="#63b8ff" d="M986.01,-391.86C1000.78,-384.25 1017.52,-373.9 1030,-361.25 1119.18,-270.86 1167.83,-117.45 1179.32,-77.74"/>
<polygon fill="#63b8ff" stroke="#63b8ff" points="984.49,-388.7 977.05,-396.24 987.57,-394.99 984.49,-388.7"/>
</a>
</g>
</g>
<!-- Node27 -->
<g id="Node000027" class="node">
<title>Node27</title>
<g id="a_Node000027"><a xlink:href="SIEForm_8h.html" target="_top" xlink:title="Header for the SIEForm class.">
<polygon fill="white" stroke="#666666" points="817.38,-361.25 752.62,-361.25 752.62,-340.5 817.38,-340.5 817.38,-361.25"/>
<text xml:space="preserve" text-anchor="middle" x="785" y="-347.75" font-family="Helvetica,sans-Serif" font-size="10.00">SIEForm.h</text>
</a>
</g>
</g>
<!-- Node6&#45;&gt;Node27 -->
<g id="edge42_Node000006_Node000027" class="edge">
<title>Node6&#45;&gt;Node27</title>
<g id="a_edge42_Node000006_Node000027"><a xlink:title=" ">
<path fill="none" stroke="#63b8ff" d="M911.26,-393.27C881.48,-383.51 841.76,-370.48 814.88,-361.67"/>
<polygon fill="#63b8ff" stroke="#63b8ff" points="910.11,-396.58 920.71,-396.37 912.29,-389.92 910.11,-396.58"/>
</a>
</g>
</g>
<!-- Node29 -->
<g id="Node000029" class="node">
<title>Node29</title>
<g id="a_Node000029"><a xlink:href="SIEFormPMCHW_8h.html" target="_top" xlink:title="Header file for the SIEFormPMCHW class.">
<polygon fill="white" stroke="#666666" points="897.5,-247.75 794.5,-247.75 794.5,-227 897.5,-227 897.5,-247.75"/>
<text xml:space="preserve" text-anchor="middle" x="846" y="-234.25" font-family="Helvetica,sans-Serif" font-size="10.00">SIEFormPMCHW.h</text>
</a>
</g>
</g>
<!-- Node6&#45;&gt;Node29 -->
<g id="edge53_Node000006_Node000029" class="edge">
<title>Node6&#45;&gt;Node29</title>
<g id="a_edge53_Node000006_Node000029"><a xlink:title=" ">
<path fill="none" stroke="#63b8ff" d="M925.75,-390.64C914.75,-382.89 902.56,-372.75 894,-361.25 866.66,-324.5 852.74,-270.18 847.96,-248.17"/>
<polygon fill="#63b8ff" stroke="#63b8ff" points="923.47,-393.33 933.73,-395.98 927.36,-387.51 923.47,-393.33"/>
</a>
</g>
</g>
<!-- Node8 -->
<g id="Node000008" class="node">
<title>Node8</title>
<g id="a_Node000008"><a xlink:href="Domain_8cpp.html" target="_top" xlink:title="Implementation of the Domain base class.">
<polygon fill="white" stroke="#666666" points="662.25,-247.75 587.75,-247.75 587.75,-227 662.25,-227 662.25,-247.75"/>
<text xml:space="preserve" text-anchor="middle" x="625" y="-234.25" font-family="Helvetica,sans-Serif" font-size="10.00">Domain.cpp</text>
</a>
</g>
</g>
<!-- Node7&#45;&gt;Node8 -->
<g id="edge8_Node000007_Node000008" class="edge">
<title>Node7&#45;&gt;Node8</title>
<g id="a_edge8_Node000007_Node000008"><a xlink:title=" ">
<path fill="none" stroke="#63b8ff" d="M625.61,-271.88C625.46,-263.66 625.3,-254.68 625.18,-248.08"/>
<polygon fill="#63b8ff" stroke="#63b8ff" points="622.11,-271.89 625.79,-281.82 629.11,-271.76 622.11,-271.89"/>
</a>
</g>
</g>
<!-- Node9 -->
<g id="Node000009" class="node">
<title>Node9</title>
<g id="a_Node000009"><a xlink:href="DomainHom3D_8h.html" target="_top" xlink:title="Homogeneous 3D simulation domain (derived from Domain).">
<polygon fill="white" stroke="#666666" points="450,-247.75 350,-247.75 350,-227 450,-227 450,-247.75"/>
<text xml:space="preserve" text-anchor="middle" x="400" y="-234.25" font-family="Helvetica,sans-Serif" font-size="10.00">DomainHom3D.h</text>
</a>
</g>
</g>
<!-- Node7&#45;&gt;Node9 -->
<g id="edge9_Node000007_Node000009" class="edge">
<title>Node7&#45;&gt;Node9</title>
<g id="a_edge9_Node000007_Node000009"><a xlink:title=" ">
<path fill="none" stroke="#63b8ff" d="M583.11,-282.73C542.1,-272.8 480.72,-257.93 440.52,-248.19"/>
<polygon fill="#63b8ff" stroke="#63b8ff" points="582.09,-286.09 592.63,-285.04 583.73,-279.28 582.09,-286.09"/>
</a>
</g>
</g>
<!-- Node15 -->
<g id="Node000015" class="node">
<title>Node15</title>
<g id="a_Node000015"><a xlink:href="DomainLayered3D_8h.html" target="_top" xlink:title="Layered 3D simulation domain (derived from Domain).">
<polygon fill="white" stroke="#666666" points="636.88,-77.5 521.12,-77.5 521.12,-56.75 636.88,-56.75 636.88,-77.5"/>
<text xml:space="preserve" text-anchor="middle" x="579" y="-64" font-family="Helvetica,sans-Serif" font-size="10.00">DomainLayered3D.h</text>
</a>
</g>
</g>
<!-- Node7&#45;&gt;Node15 -->
<g id="edge24_Node000007_Node000015" class="edge">
<title>Node7&#45;&gt;Node15</title>
<g id="a_edge24_Node000007_Node000015"><a xlink:title=" ">
<path fill="none" stroke="#63b8ff" d="M605.53,-275.85C585.55,-257.34 556.9,-225.87 548,-191 545.72,-182.06 543.46,-178.28 548,-170.25 563.32,-143.19 592.68,-161.31 608,-134.25 618.87,-115.05 601.09,-91 588.91,-77.84"/>
<polygon fill="#63b8ff" stroke="#63b8ff" points="603.08,-278.35 612.87,-282.4 607.74,-273.13 603.08,-278.35"/>
</a>
</g>
</g>
<!-- Node18 -->
<g id="Node000018" class="node">
<title>Node18</title>
<g id="a_Node000018"><a xlink:href="SimJob_8h.html" target="_top" xlink:title="Orchestrates a full simulation run: parse job/subjobs, build the linear system, solve it,...">
<polygon fill="white" stroke="#666666" points="739.38,-247.75 680.62,-247.75 680.62,-227 739.38,-227 739.38,-247.75"/>
<text xml:space="preserve" text-anchor="middle" x="710" y="-234.25" font-family="Helvetica,sans-Serif" font-size="10.00">SimJob.h</text>
</a>
</g>
</g>
<!-- Node7&#45;&gt;Node18 -->
<g id="edge25_Node000007_Node000018" class="edge">
<title>Node7&#45;&gt;Node18</title>
<g id="a_edge25_Node000007_Node000018"><a xlink:title=" ">
<path fill="none" stroke="#63b8ff" d="M650.38,-277.23C664.85,-267.8 682.73,-256.15 695.11,-248.08"/>
<polygon fill="#63b8ff" stroke="#63b8ff" points="648.75,-274.12 642.29,-282.51 652.57,-279.98 648.75,-274.12"/>
</a>
</g>
</g>
<!-- Node9&#45;&gt;Node4 -->
<g id="edge10_Node000009_Node000004" class="edge">
<title>Node9&#45;&gt;Node4</title>
<g id="a_edge10_Node000009_Node000004"><a xlink:title=" ">
<path fill="none" stroke="#63b8ff" d="M434.09,-222.36C470.14,-207.91 528.89,-185.41 581,-170.25 765.81,-116.5 834.85,-169.32 1004,-77.5 1030.14,-63.31 1052.98,-35.87 1063.99,-21.2"/>
<polygon fill="#63b8ff" stroke="#63b8ff" points="433.03,-219.01 425.07,-226 435.65,-225.5 433.03,-219.01"/>
</a>
</g>
</g>
<!-- Node10 -->
<g id="Node000010" class="node">
<title>Node10</title>
<g id="a_Node000010"><a xlink:href="DomainHom3DPer_8h.html" target="_top" xlink:title="Homogeneous 3D domain with in‑plane periodicity (derived from DomainHom3D).">
<polygon fill="white" stroke="#666666" points="457.5,-191 342.5,-191 342.5,-170.25 457.5,-170.25 457.5,-191"/>
<text xml:space="preserve" text-anchor="middle" x="400" y="-177.5" font-family="Helvetica,sans-Serif" font-size="10.00">DomainHom3DPer.h</text>
</a>
</g>
</g>
<!-- Node9&#45;&gt;Node10 -->
<g id="edge11_Node000009_Node000010" class="edge">
<title>Node9&#45;&gt;Node10</title>
<g id="a_edge11_Node000009_Node000010"><a xlink:title=" ">
<path fill="none" stroke="#63b8ff" d="M400,-215.13C400,-206.91 400,-197.93 400,-191.33"/>
<polygon fill="#63b8ff" stroke="#63b8ff" points="396.5,-215.07 400,-225.07 403.5,-215.07 396.5,-215.07"/>
</a>
</g>
</g>
<!-- Node9&#45;&gt;Node12 -->
<g id="edge14_Node000009_Node000012" class="edge">
<title>Node9&#45;&gt;Node12</title>
<g id="a_edge14_Node000009_Node000012"><a xlink:title=" ">
<path fill="none" stroke="#63b8ff" d="M366.41,-221.25C353.91,-213.91 340.87,-203.86 333,-191 314.95,-161.5 320.17,-147.59 326,-113.5 330.51,-87.14 327.93,-76.47 346,-56.75 363.13,-38.06 389.45,-26.54 410.79,-19.79"/>
<polygon fill="#63b8ff" stroke="#63b8ff" points="364.42,-224.15 374.88,-225.83 367.75,-217.99 364.42,-224.15"/>
</a>
</g>
</g>
<!-- Node9&#45;&gt;Node13 -->
<g id="edge15_Node000009_Node000013" class="edge">
<title>Node9&#45;&gt;Node13</title>
<g id="a_edge15_Node000009_Node000013"><a xlink:title=" ">
<path fill="none" stroke="#63b8ff" d="M349.66,-223.73C310.59,-213.92 257.22,-200.52 221.28,-191.49"/>
<polygon fill="#63b8ff" stroke="#63b8ff" points="348.75,-227.11 359.31,-226.15 350.46,-220.32 348.75,-227.11"/>
</a>
</g>
</g>
<!-- Node11 -->
<g id="Node000011" class="node">
<title>Node11</title>
<g id="a_Node000011"><a xlink:href="DomainHom3DPer_8cpp.html" target="_top" xlink:title="Implementation of the homogeneous, periodically replicated 3D domain.">
<polygon fill="white" stroke="#666666" points="599.12,-134.25 472.88,-134.25 472.88,-113.5 599.12,-113.5 599.12,-134.25"/>
<text xml:space="preserve" text-anchor="middle" x="536" y="-120.75" font-family="Helvetica,sans-Serif" font-size="10.00">DomainHom3DPer.cpp</text>
</a>
</g>
</g>
<!-- Node10&#45;&gt;Node11 -->
<g id="edge12_Node000010_Node000011" class="edge">
<title>Node10&#45;&gt;Node11</title>
<g id="a_edge12_Node000010_Node000011"><a xlink:title=" ">
<path fill="none" stroke="#63b8ff" d="M434.82,-165.61C458.96,-155.89 490.5,-143.19 511.9,-134.58"/>
<polygon fill="#63b8ff" stroke="#63b8ff" points="433.69,-162.29 425.72,-169.27 436.3,-168.78 433.69,-162.29"/>
</a>
</g>
</g>
<!-- Node10&#45;&gt;Node12 -->
<g id="edge13_Node000010_Node000012" class="edge">
<title>Node10&#45;&gt;Node12</title>
<g id="a_edge13_Node000010_Node000012"><a xlink:title=" ">
<path fill="none" stroke="#63b8ff" d="M365.04,-164.64C352.6,-157.39 339.96,-147.37 333,-134.25 328.68,-126.1 330.37,-122.34 333,-113.5 341.58,-84.64 348.29,-77.62 370,-56.75 385.84,-41.52 407.7,-29.15 423.91,-21.19"/>
<polygon fill="#63b8ff" stroke="#63b8ff" points="363.06,-167.55 373.53,-169.15 366.34,-161.37 363.06,-167.55"/>
</a>
</g>
</g>
<!-- Node13&#45;&gt;Node5 -->
<g id="edge16_Node000013_Node000005" class="edge">
<title>Node13&#45;&gt;Node5</title>
<g id="a_edge16_Node000013_Node000005"><a xlink:title=" ">
<path fill="none" stroke="#63b8ff" d="M197.82,-161.41C223.66,-133.12 277.99,-79.51 337,-56.75 416.98,-25.9 665.61,-15.79 784.04,-12.67"/>
<polygon fill="#63b8ff" stroke="#63b8ff" points="195.25,-159.04 191.19,-168.83 200.47,-163.7 195.25,-159.04"/>
</a>
</g>
</g>
<!-- Node14 -->
<g id="Node000014" class="node">
<title>Node14</title>
<g id="a_Node000014"><a xlink:href="GreenFLayered3D_8h.html" target="_top" xlink:title="Layered‑medium 3D Green&#39;s function (scalar/gradient/dyadic) + RWG integrals.">
<polygon fill="white" stroke="#666666" points="454.38,-134.25 341.62,-134.25 341.62,-113.5 454.38,-113.5 454.38,-134.25"/>
<text xml:space="preserve" text-anchor="middle" x="398" y="-120.75" font-family="Helvetica,sans-Serif" font-size="10.00">GreenFLayered3D.h</text>
</a>
</g>
</g>
<!-- Node13&#45;&gt;Node14 -->
<g id="edge17_Node000013_Node000014" class="edge">
<title>Node13&#45;&gt;Node14</title>
<g id="a_edge17_Node000013_Node000014"><a xlink:title=" ">
<path fill="none" stroke="#63b8ff" d="M231.66,-167.04C270.48,-157.2 323.67,-143.72 359.35,-134.67"/>
<polygon fill="#63b8ff" stroke="#63b8ff" points="230.92,-163.62 222.08,-169.46 232.64,-170.4 230.92,-163.62"/>
</a>
</g>
</g>
<!-- Node17 -->
<g id="Node000017" class="node">
<title>Node17</title>
<g id="a_Node000017"><a xlink:href="SommerfeldIntegrator_8cpp.html" target="_top" xlink:title="Implementation of SommerfeldIntegrator: contour construction, integrand assembly, QUADPACK integratio...">
<polygon fill="white" stroke="#666666" points="171.75,-134.25 28.25,-134.25 28.25,-113.5 171.75,-113.5 171.75,-134.25"/>
<text xml:space="preserve" text-anchor="middle" x="100" y="-120.75" font-family="Helvetica,sans-Serif" font-size="10.00">SommerfeldIntegrator.cpp</text>
</a>
</g>
</g>
<!-- Node13&#45;&gt;Node17 -->
<g id="edge23_Node000013_Node000017" class="edge">
<title>Node13&#45;&gt;Node17</title>
<g id="a_edge23_Node000013_Node000017"><a xlink:title=" ">
<path fill="none" stroke="#63b8ff" d="M157.79,-163.46C143.74,-154.08 126.51,-142.57 114.53,-134.58"/>
<polygon fill="#63b8ff" stroke="#63b8ff" points="155.82,-166.35 166.08,-169 159.71,-160.53 155.82,-166.35"/>
</a>
</g>
</g>
<!-- Node14&#45;&gt;Node2 -->
<g id="edge18_Node000014_Node000002" class="edge">
<title>Node14&#45;&gt;Node2</title>
<g id="a_edge18_Node000014_Node000002"><a xlink:title=" ">
<path fill="none" stroke="#63b8ff" d="M466.25,-113.3C652.72,-91.94 862.91,-75.75 938.31,-70.2"/>
<polygon fill="#63b8ff" stroke="#63b8ff" points="465.89,-109.81 456.36,-114.44 466.7,-116.77 465.89,-109.81"/>
</a>
</g>
</g>
<!-- Node14&#45;&gt;Node15 -->
<g id="edge19_Node000014_Node000015" class="edge">
<title>Node14&#45;&gt;Node15</title>
<g id="a_edge19_Node000014_Node000015"><a xlink:title=" ">
<path fill="none" stroke="#63b8ff" d="M441.3,-109.78C473.67,-99.99 517.23,-86.81 546.62,-77.92"/>
<polygon fill="#63b8ff" stroke="#63b8ff" points="440.37,-106.4 431.81,-112.65 442.39,-113.1 440.37,-106.4"/>
</a>
</g>
</g>
<!-- Node16 -->
<g id="Node000016" class="node">
<title>Node16</title>
<g id="a_Node000016"><a xlink:href="GreenFLayered3D_8cpp.html" target="_top" xlink:title="Implementation of the 3D Green&#39;s Function class in a layered background.">
<polygon fill="white" stroke="#666666" points="503,-77.5 379,-77.5 379,-56.75 503,-56.75 503,-77.5"/>
<text xml:space="preserve" text-anchor="middle" x="441" y="-64" font-family="Helvetica,sans-Serif" font-size="10.00">GreenFLayered3D.cpp</text>
</a>
</g>
</g>
<!-- Node14&#45;&gt;Node16 -->
<g id="edge22_Node000014_Node000016" class="edge">
<title>Node14&#45;&gt;Node16</title>
<g id="a_edge22_Node000014_Node000016"><a xlink:title=" ">
<path fill="none" stroke="#63b8ff" d="M412.66,-104.21C419.62,-95.34 427.65,-85.12 433.38,-77.83"/>
<polygon fill="#63b8ff" stroke="#63b8ff" points="410.05,-101.87 406.62,-111.9 415.55,-106.19 410.05,-101.87"/>
</a>
</g>
</g>
<!-- Node15&#45;&gt;Node5 -->
<g id="edge20_Node000015_Node000005" class="edge">
<title>Node15&#45;&gt;Node5</title>
<g id="a_edge20_Node000015_Node000005"><a xlink:title=" ">
<path fill="none" stroke="#63b8ff" d="M638.66,-53.98C687.05,-44.13 754.42,-30.42 799.53,-21.24"/>
<polygon fill="#63b8ff" stroke="#63b8ff" points="637.99,-50.55 628.89,-55.97 639.38,-57.41 637.99,-50.55"/>
</a>
</g>
</g>
<!-- Node15&#45;&gt;Node12 -->
<g id="edge21_Node000015_Node000012" class="edge">
<title>Node15&#45;&gt;Node12</title>
<g id="a_edge21_Node000015_Node000012"><a xlink:title=" ">
<path fill="none" stroke="#63b8ff" d="M544.63,-51.97C521.06,-42.27 490.41,-29.66 469.57,-21.08"/>
<polygon fill="#63b8ff" stroke="#63b8ff" points="543.24,-55.19 553.82,-55.76 545.91,-48.72 543.24,-55.19"/>
</a>
</g>
</g>
<!-- Node18&#45;&gt;Node12 -->
<g id="edge26_Node000018_Node000012" class="edge">
<title>Node18&#45;&gt;Node12</title>
<g id="a_edge26_Node000018_Node000012"><a xlink:title=" ">
<path fill="none" stroke="#63b8ff" d="M669.62,-224.73C633.83,-213.99 586.39,-198.62 581,-191 562.71,-165.18 605.57,-159.97 624,-134.25 644.86,-105.15 668.34,-84.73 646,-56.75 625.78,-31.43 533.23,-19.18 481.4,-14.21"/>
<polygon fill="#63b8ff" stroke="#63b8ff" points="668.26,-227.97 678.85,-227.46 670.26,-221.26 668.26,-227.97"/>
</a>
</g>
</g>
<!-- Node19 -->
<g id="Node000019" class="node">
<title>Node19</title>
<g id="a_Node000019"><a xlink:href="casimir_8cpp.html" target="_top" xlink:title="Main entry point for the HELIOS Casimir force routine.">
<polygon fill="white" stroke="#666666" points="661.75,-191 590.25,-191 590.25,-170.25 661.75,-170.25 661.75,-191"/>
<text xml:space="preserve" text-anchor="middle" x="626" y="-177.5" font-family="Helvetica,sans-Serif" font-size="10.00">casimir.cpp</text>
</a>
</g>
</g>
<!-- Node18&#45;&gt;Node19 -->
<g id="edge27_Node000018_Node000019" class="edge">
<title>Node18&#45;&gt;Node19</title>
<g id="a_edge27_Node000018_Node000019"><a xlink:title=" ">
<path fill="none" stroke="#63b8ff" d="M685.62,-220.48C671.15,-211.05 653.27,-199.4 640.89,-191.33"/>
<polygon fill="#63b8ff" stroke="#63b8ff" points="683.43,-223.23 693.71,-225.76 687.25,-217.37 683.43,-223.23"/>
</a>
</g>
</g>
<!-- Node20 -->
<g id="Node000020" class="node">
<title>Node20</title>
<g id="a_Node000020"><a xlink:href="main_8cpp.html" target="_top" xlink:title="This is the main file for the HELIOS program.">
<polygon fill="white" stroke="#666666" points="740.5,-191 679.5,-191 679.5,-170.25 740.5,-170.25 740.5,-191"/>
<text xml:space="preserve" text-anchor="middle" x="710" y="-177.5" font-family="Helvetica,sans-Serif" font-size="10.00">main.cpp</text>
</a>
</g>
</g>
<!-- Node18&#45;&gt;Node20 -->
<g id="edge28_Node000018_Node000020" class="edge">
<title>Node18&#45;&gt;Node20</title>
<g id="a_edge28_Node000018_Node000020"><a xlink:title=" ">
<path fill="none" stroke="#63b8ff" d="M710,-215.13C710,-206.91 710,-197.93 710,-191.33"/>
<polygon fill="#63b8ff" stroke="#63b8ff" points="706.5,-215.07 710,-225.07 713.5,-215.07 706.5,-215.07"/>
</a>
</g>
</g>
<!-- Node21 -->
<g id="Node000021" class="node">
<title>Node21</title>
<g id="a_Node000021"><a xlink:href="mainpp_8cpp.html" target="_top" xlink:title="This is the main file for the HELIOS program, specifically the post&#45;processing portion.">
<polygon fill="white" stroke="#666666" points="831.5,-191 758.5,-191 758.5,-170.25 831.5,-170.25 831.5,-191"/>
<text xml:space="preserve" text-anchor="middle" x="795" y="-177.5" font-family="Helvetica,sans-Serif" font-size="10.00">mainpp.cpp</text>
</a>
</g>
</g>
<!-- Node18&#45;&gt;Node21 -->
<g id="edge29_Node000018_Node000021" class="edge">
<title>Node18&#45;&gt;Node21</title>
<g id="a_edge29_Node000018_Node000021"><a xlink:title=" ">
<path fill="none" stroke="#63b8ff" d="M734.67,-220.48C749.31,-211.05 767.4,-199.4 779.94,-191.33"/>
<polygon fill="#63b8ff" stroke="#63b8ff" points="732.98,-217.41 726.47,-225.77 736.77,-223.29 732.98,-217.41"/>
</a>
</g>
</g>
<!-- Node22&#45;&gt;Node4 -->
<g id="edge33_Node000022_Node000004" class="edge">
<title>Node22&#45;&gt;Node4</title>
<g id="a_edge33_Node000022_Node000004"><a xlink:title=" ">
<path fill="none" stroke="#63b8ff" d="M1229.03,-53.79C1192.35,-43.94 1141.66,-30.34 1107.67,-21.22"/>
<polygon fill="#63b8ff" stroke="#63b8ff" points="1227.9,-57.11 1238.47,-56.32 1229.72,-50.35 1227.9,-57.11"/>
</a>
</g>
</g>
<!-- Node22&#45;&gt;Node5 -->
<g id="edge34_Node000022_Node000005" class="edge">
<title>Node22&#45;&gt;Node5</title>
<g id="a_edge34_Node000022_Node000005"><a xlink:title=" ">
<path fill="none" stroke="#63b8ff" d="M1228.2,-56.42C1091.74,-34.4 1054.46,-37.29 920,-20.75 917.37,-20.43 914.69,-20.09 911.98,-19.75"/>
<polygon fill="#63b8ff" stroke="#63b8ff" points="1227.59,-59.86 1238.02,-58.02 1228.71,-52.95 1227.59,-59.86"/>
</a>
</g>
</g>
<!-- Node23 -->
<g id="Node000023" class="node">
<title>Node23</title>
<g id="a_Node000023"><a xlink:href="Gaussian_8cpp.html" target="_top" xlink:title="Implementation of the paraxial Gaussian beam incident field.">
<polygon fill="white" stroke="#666666" points="1334.62,-20.75 1253.38,-20.75 1253.38,0 1334.62,0 1334.62,-20.75"/>
<text xml:space="preserve" text-anchor="middle" x="1294" y="-7.25" font-family="Helvetica,sans-Serif" font-size="10.00">Gaussian.cpp</text>
</a>
</g>
</g>
<!-- Node22&#45;&gt;Node23 -->
<g id="edge35_Node000022_Node000023" class="edge">
<title>Node22&#45;&gt;Node23</title>
<g id="a_edge35_Node000022_Node000023"><a xlink:title=" ">
<path fill="none" stroke="#63b8ff" d="M1282.07,-45.74C1285,-37.3 1288.26,-27.91 1290.63,-21.08"/>
<polygon fill="#63b8ff" stroke="#63b8ff" points="1278.87,-44.31 1278.89,-54.91 1285.48,-46.61 1278.87,-44.31"/>
</a>
</g>
</g>
<!-- Node25&#45;&gt;Node4 -->
<g id="edge38_Node000025_Node000004" class="edge">
<title>Node25&#45;&gt;Node4</title>
<g id="a_edge38_Node000025_Node000004"><a xlink:title=" ">
<path fill="none" stroke="#63b8ff" d="M1151.97,-51.31C1132.49,-41.7 1107.67,-29.46 1090.67,-21.08"/>
<polygon fill="#63b8ff" stroke="#63b8ff" points="1150.28,-54.38 1160.8,-55.67 1153.38,-48.1 1150.28,-54.38"/>
</a>
</g>
</g>
<!-- Node25&#45;&gt;Node5 -->
<g id="edge39_Node000025_Node000005" class="edge">
<title>Node25&#45;&gt;Node5</title>
<g id="a_edge39_Node000025_Node000005"><a xlink:title=" ">
<path fill="none" stroke="#63b8ff" d="M1130.96,-57.76C1070.99,-47.93 971.63,-31.64 908.03,-21.21"/>
<polygon fill="#63b8ff" stroke="#63b8ff" points="1130.12,-61.17 1140.55,-59.33 1131.25,-54.26 1130.12,-61.17"/>
</a>
</g>
</g>
<!-- Node25&#45;&gt;Node12 -->
<g id="edge41_Node000025_Node000012" class="edge">
<title>Node25&#45;&gt;Node12</title>
<g id="a_edge41_Node000025_Node000012"><a xlink:title=" ">
<path fill="none" stroke="#63b8ff" d="M1130.92,-62.33C990.46,-51.88 600.91,-22.9 481.35,-14"/>
<polygon fill="#63b8ff" stroke="#63b8ff" points="1130.43,-65.8 1140.66,-63.05 1130.95,-58.82 1130.43,-65.8"/>
</a>
</g>
</g>
<!-- Node26 -->
<g id="Node000026" class="node">
<title>Node26</title>
<g id="a_Node000026"><a xlink:href="PlaneWave_8cpp.html" target="_top" xlink:title="Implementation for the PlaneWave class.">
<polygon fill="white" stroke="#666666" points="1235.12,-20.75 1144.88,-20.75 1144.88,0 1235.12,0 1235.12,-20.75"/>
<text xml:space="preserve" text-anchor="middle" x="1190" y="-7.25" font-family="Helvetica,sans-Serif" font-size="10.00">PlaneWave.cpp</text>
</a>
</g>
</g>
<!-- Node25&#45;&gt;Node26 -->
<g id="edge40_Node000025_Node000026" class="edge">
<title>Node25&#45;&gt;Node26</title>
<g id="a_edge40_Node000025_Node000026"><a xlink:title=" ">
<path fill="none" stroke="#63b8ff" d="M1185.06,-45.17C1186.27,-36.88 1187.61,-27.75 1188.58,-21.08"/>
<polygon fill="#63b8ff" stroke="#63b8ff" points="1181.63,-44.44 1183.65,-54.84 1188.56,-45.45 1181.63,-44.44"/>
</a>
</g>
</g>
<!-- Node27&#45;&gt;Node7 -->
<g id="edge43_Node000027_Node000007" class="edge">
<title>Node27&#45;&gt;Node7</title>
<g id="a_edge43_Node000027_Node000007"><a xlink:title=" ">
<path fill="none" stroke="#63b8ff" d="M745.84,-336.39C717.53,-326.64 679.93,-313.69 654.45,-304.92"/>
<polygon fill="#63b8ff" stroke="#63b8ff" points="744.55,-339.65 755.14,-339.59 746.83,-333.03 744.55,-339.65"/>
</a>
</g>
</g>
<!-- Node27&#45;&gt;Node18 -->
<g id="edge52_Node000027_Node000018" class="edge">
<title>Node27&#45;&gt;Node18</title>
<g id="a_edge52_Node000027_Node000018"><a xlink:title=" ">
<path fill="none" stroke="#63b8ff" d="M782.32,-328.92C779.79,-315.18 774.99,-297.32 766,-283.75 756.05,-268.73 739.58,-256.25 727.07,-248.2"/>
<polygon fill="#63b8ff" stroke="#63b8ff" points="778.83,-329.29 783.82,-338.64 785.75,-328.22 778.83,-329.29"/>
</a>
</g>
</g>
<!-- Node28 -->
<g id="Node000028" class="node">
<title>Node28</title>
<g id="a_Node000028"><a xlink:href="SIEForm_8cpp.html" target="_top" xlink:title="Implementation for the SIEForm class.">
<polygon fill="white" stroke="#666666" points="757,-304.5 681,-304.5 681,-283.75 757,-283.75 757,-304.5"/>
<text xml:space="preserve" text-anchor="middle" x="719" y="-291" font-family="Helvetica,sans-Serif" font-size="10.00">SIEForm.cpp</text>
</a>
</g>
</g>
<!-- Node27&#45;&gt;Node28 -->
<g id="edge44_Node000027_Node000028" class="edge">
<title>Node27&#45;&gt;Node28</title>
<g id="a_edge44_Node000027_Node000028"><a xlink:title=" ">
<path fill="none" stroke="#63b8ff" d="M764.52,-332.89C753.4,-323.66 740.05,-312.59 730.7,-304.83"/>
<polygon fill="#63b8ff" stroke="#63b8ff" points="762.1,-335.43 772.04,-339.12 766.57,-330.04 762.1,-335.43"/>
</a>
</g>
</g>
<!-- Node27&#45;&gt;Node29 -->
<g id="edge45_Node000027_Node000029" class="edge">
<title>Node27&#45;&gt;Node29</title>
<g id="a_edge45_Node000027_Node000029"><a xlink:title=" ">
<path fill="none" stroke="#63b8ff" d="M795.71,-330.29C808.85,-306.27 830.61,-266.5 840.64,-248.18"/>
<polygon fill="#63b8ff" stroke="#63b8ff" points="792.66,-328.59 790.93,-339.04 798.8,-331.95 792.66,-328.59"/>
</a>
</g>
</g>
<!-- Node29&#45;&gt;Node4 -->
<g id="edge46_Node000029_Node000004" class="edge">
<title>Node29&#45;&gt;Node4</title>
<g id="a_edge46_Node000029_Node000004"><a xlink:title=" ">
<path fill="none" stroke="#63b8ff" d="M908.8,-228.12C936.08,-221.8 966.81,-210.66 989,-191 1043.4,-142.81 1063.94,-51.25 1069.39,-21.2"/>
<polygon fill="#63b8ff" stroke="#63b8ff" points="908.28,-224.65 899.23,-230.15 909.74,-231.5 908.28,-224.65"/>
</a>
</g>
</g>
<!-- Node29&#45;&gt;Node5 -->
<g id="edge47_Node000029_Node000005" class="edge">
<title>Node29&#45;&gt;Node5</title>
<g id="a_edge47_Node000029_Node000005"><a xlink:title=" ">
<path fill="none" stroke="#63b8ff" d="M908.82,-229.35C932.97,-223.24 958.26,-211.91 973,-191 996.52,-157.61 892.37,-53.61 858.4,-21.15"/>
<polygon fill="#63b8ff" stroke="#63b8ff" points="908.31,-225.88 899.32,-231.48 909.84,-232.71 908.31,-225.88"/>
</a>
</g>
</g>
<!-- Node29&#45;&gt;Node19 -->
<g id="edge49_Node000029_Node000019" class="edge">
<title>Node29&#45;&gt;Node19</title>
<g id="a_edge49_Node000029_Node000019"><a xlink:title=" ">
<path fill="none" stroke="#63b8ff" d="M795.35,-223.77C754.58,-213.62 698.27,-199.61 661.99,-190.58"/>
<polygon fill="#63b8ff" stroke="#63b8ff" points="794.4,-227.14 804.95,-226.16 796.09,-220.35 794.4,-227.14"/>
</a>
</g>
</g>
<!-- Node29&#45;&gt;Node20 -->
<g id="edge50_Node000029_Node000020" class="edge">
<title>Node29&#45;&gt;Node20</title>
<g id="a_edge50_Node000029_Node000020"><a xlink:title=" ">
<path fill="none" stroke="#63b8ff" d="M811.18,-222.36C787.04,-212.64 755.5,-199.94 734.1,-191.33"/>
<polygon fill="#63b8ff" stroke="#63b8ff" points="809.7,-225.53 820.28,-226.02 812.31,-219.04 809.7,-225.53"/>
</a>
</g>
</g>
<!-- Node29&#45;&gt;Node21 -->
<g id="edge51_Node000029_Node000021" class="edge">
<title>Node29&#45;&gt;Node21</title>
<g id="a_edge51_Node000029_Node000021"><a xlink:title=" ">
<path fill="none" stroke="#63b8ff" d="M829.14,-218.27C820.76,-209.28 810.98,-198.78 804.04,-191.33"/>
<polygon fill="#63b8ff" stroke="#63b8ff" points="826.47,-220.55 835.85,-225.48 831.6,-215.78 826.47,-220.55"/>
</a>
</g>
</g>
<!-- Node30 -->
<g id="Node000030" class="node">
<title>Node30</title>
<g id="a_Node000030"><a xlink:href="SIEFormPMCHW_8cpp.html" target="_top" xlink:title="Implementation for the SIEFormPMCHW class.">
<polygon fill="white" stroke="#666666" points="964.12,-191 849.88,-191 849.88,-170.25 964.12,-170.25 964.12,-191"/>
<text xml:space="preserve" text-anchor="middle" x="907" y="-177.5" font-family="Helvetica,sans-Serif" font-size="10.00">SIEFormPMCHW.cpp</text>
</a>
</g>
</g>
<!-- Node29&#45;&gt;Node30 -->
<g id="edge48_Node000029_Node000030" class="edge">
<title>Node29&#45;&gt;Node30</title>
<g id="a_edge48_Node000029_Node000030"><a xlink:title=" ">
<path fill="none" stroke="#63b8ff" d="M865.24,-219.11C875.45,-209.94 887.63,-199.01 896.19,-191.33"/>
<polygon fill="#63b8ff" stroke="#63b8ff" points="863.14,-216.29 858.03,-225.58 867.81,-221.5 863.14,-216.29"/>
</a>
</g>
</g>
</g>
</svg>

<g id="navigator" transform="translate(0 0)" fill="#404254">
  <rect fill="#f2f5e9" fill-opacity="0.5" stroke="#606060" stroke-width=".5" x="0" y="0" width="60" height="60"/>
  <use id="zoomplus" xlink:href="#zoomPlus" x="17" y="9" onmousedown="handleZoom(evt,'in')"/>
  <use id="zoomminus" xlink:href="#zoomMin" x="42" y="9" onmousedown="handleZoom(evt,'out')"/>
  <use id="reset" xlink:href="#resetDef" x="30" y="36" onmousedown="handleReset()"/>
   <use id="arrowup" xlink:href="#arrowUp" x="0" y="0" onmousedown="handlePan(0,-1)"/>
  <use id="arrowright" xlink:href="#arrowRight" x="0" y="0" onmousedown="handlePan(1,0)"/>
  <use id="arrowdown" xlink:href="#arrowDown" x="0" y="0" onmousedown="handlePan(0,1)"/>
  <use id="arrowleft" xlink:href="#arrowLeft" x="0" y="0" onmousedown="handlePan(-1,0)"/>
</g>
<svg viewBox="0 0 15 15" width="100%" height="30px" preserveAspectRatio="xMaxYMin meet">
 <g id="arrow_out" transform="scale(0.3 0.3)">
  <a xlink:href="LayeredMediaUtils_8h__dep__incl_org.svg" target="_base">
   <rect id="button" ry="5" rx="5" y="6" x="6" height="38" width="38"
        fill="#f2f5e9" fill-opacity="0.5" stroke="#606060" stroke-width="1.0"/>
   <path id="arrow"
     d="M 11.500037,31.436501 C 11.940474,20.09759 22.043105,11.32322 32.158766,21.979434 L 37.068811,17.246167 C 37.068811,17.246167 37.088388,32 37.088388,32 L 22.160133,31.978069 C 22.160133,31.978069 26.997745,27.140456 26.997745,27.140456 C 18.528582,18.264221 13.291696,25.230495 11.500037,31.436501 z"
     style="fill:#404040;"/>
  </a>
 </g>
</svg>

<style type='text/css'>
<![CDATA[
[data-mouse-over-selected='false'] { opacity: 0.7; }
[data-mouse-over-selected='true']  { opacity: 1.0; }
]]>
</style>
<script type="application/ecmascript"><![CDATA[
document.addEventListener('DOMContentLoaded', (event) => {
  highlightEdges();
  highlightAdjacentNodes();
});
]]></script>
</svg>
