<?xml version="1.0" encoding="UTF-8" standalone="no"?>
<!DOCTYPE svg PUBLIC "-//W3C//DTD SVG 1.1//EN"
 "http://www.w3.org/Graphics/SVG/1.1/DTD/svg11.dtd">
<!-- Generated by graphviz version 13.1.2 (20250809.0930)
 -->
<!-- Title: main Pages: 1 -->
<svg width="342pt" height="68pt"
 viewBox="0.00 0.00 342.00 68.00" xmlns="http://www.w3.org/2000/svg" xmlns:xlink="http://www.w3.org/1999/xlink">
<g id="graph0" class="graph" transform="scale(1 1) rotate(0) translate(4 63.75)">
<title>main</title>
<!-- Node1 -->
<g id="Node000001" class="node">
<title>Node1</title>
<g id="a_Node000001"><a xlink:title="Main driver for periodic error&#45;function lookup table management.">
<polygon fill="#999999" stroke="#666666" points="40.75,-39.75 0,-39.75 0,-19 40.75,-19 40.75,-39.75"/>
<text xml:space="preserve" text-anchor="middle" x="20.38" y="-26.25" font-family="Helvetica,sans-Serif" font-size="10.00">main</text>
</a>
</g>
</g>
<!-- Node2 -->
<g id="Node000002" class="node">
<title>Node2</title>
<g id="a_Node000002"><a xlink:href="mathFunctions_8cpp.html#ab5ae92d9600ad72d4c0c18a49f876831" target="_top" xlink:title="Generate and save a text lookup table for cerfc over a complex grid.">
<polygon fill="white" stroke="#666666" points="179.38,-59.75 84.62,-59.75 84.62,-39 179.38,-39 179.38,-59.75"/>
<text xml:space="preserve" text-anchor="middle" x="132" y="-46.25" font-family="Helvetica,sans-Serif" font-size="10.00">ErfcLookupTable</text>
</a>
</g>
</g>
<!-- Node1&#45;&gt;Node2 -->
<g id="edge1_Node000001_Node000002" class="edge">
<title>Node1&#45;&gt;Node2</title>
<g id="a_edge1_Node000001_Node000002"><a xlink:title=" ">
<path fill="none" stroke="#63b8ff" d="M41.23,-33C50.39,-34.67 61.79,-36.75 73.36,-38.86"/>
<polygon fill="#63b8ff" stroke="#63b8ff" points="72.49,-42.26 82.95,-40.61 73.74,-35.37 72.49,-42.26"/>
</a>
</g>
</g>
<!-- Node5 -->
<g id="Node000005" class="node">
<title>Node5</title>
<g id="a_Node000005"><a xlink:href="mathFunctions_8cpp.html#a619bd9a7be3251a7f44191aaeaa6ab7c" target="_top" xlink:title="Generate and save a binary lookup table for cerfc over a complex grid.">
<polygon fill="white" stroke="#666666" points="187.25,-20.75 76.75,-20.75 76.75,0 187.25,0 187.25,-20.75"/>
<text xml:space="preserve" text-anchor="middle" x="132" y="-7.25" font-family="Helvetica,sans-Serif" font-size="10.00">ErfcLookupTableBin</text>
</a>
</g>
</g>
<!-- Node1&#45;&gt;Node5 -->
<g id="edge4_Node000001_Node000005" class="edge">
<title>Node1&#45;&gt;Node5</title>
<g id="a_edge4_Node000001_Node000005"><a xlink:title=" ">
<path fill="none" stroke="#63b8ff" d="M41.23,-25.93C48.26,-24.72 56.6,-23.27 65.33,-21.76"/>
<polygon fill="#63b8ff" stroke="#63b8ff" points="65.77,-25.23 75.02,-20.08 64.57,-18.34 65.77,-25.23"/>
</a>
</g>
</g>
<!-- Node3 -->
<g id="Node000003" class="node">
<title>Node3</title>
<g id="a_Node000003"><a xlink:href="mathFunctions_8cpp.html#a7916c6b62310fe9cf38ec2a2890aaad4" target="_top" xlink:title="Complementary error function for complex arguments.">
<polygon fill="white" stroke="#666666" points="263.25,-39.75 223.25,-39.75 223.25,-19 263.25,-19 263.25,-39.75"/>
<text xml:space="preserve" text-anchor="middle" x="243.25" y="-26.25" font-family="Helvetica,sans-Serif" font-size="10.00">cerfc</text>
</a>
</g>
</g>
<!-- Node2&#45;&gt;Node3 -->
<g id="edge2_Node000002_Node000003" class="edge">
<title>Node2&#45;&gt;Node3</title>
<g id="a_edge2_Node000002_Node000003"><a xlink:title=" ">
<path fill="none" stroke="#63b8ff" d="M179.65,-40.84C190.45,-38.86 201.68,-36.8 211.59,-34.99"/>
<polygon fill="#63b8ff" stroke="#63b8ff" points="212.22,-38.43 221.43,-33.19 210.96,-31.54 212.22,-38.43"/>
</a>
</g>
</g>
<!-- Node4 -->
<g id="Node000004" class="node">
<title>Node4</title>
<g id="a_Node000004"><a xlink:href="mathFunctions_8cpp.html#abc57cde75234d7e165a9ebcdb45f2c29" target="_top" xlink:title="Error function for complex arguments.">
<polygon fill="white" stroke="#666666" points="334,-39.75 299.25,-39.75 299.25,-19 334,-19 334,-39.75"/>
<text xml:space="preserve" text-anchor="middle" x="316.62" y="-26.25" font-family="Helvetica,sans-Serif" font-size="10.00">cerf</text>
</a>
</g>
</g>
<!-- Node3&#45;&gt;Node4 -->
<g id="edge3_Node000003_Node000004" class="edge">
<title>Node3&#45;&gt;Node4</title>
<g id="a_edge3_Node000003_Node000004"><a xlink:title=" ">
<path fill="none" stroke="#63b8ff" d="M263.38,-29.38C270.81,-29.38 279.48,-29.38 287.59,-29.38"/>
<polygon fill="#63b8ff" stroke="#63b8ff" points="287.36,-32.88 297.36,-29.38 287.36,-25.88 287.36,-32.88"/>
</a>
</g>
</g>
<!-- Node5&#45;&gt;Node3 -->
<g id="edge5_Node000005_Node000003" class="edge">
<title>Node5&#45;&gt;Node3</title>
<g id="a_edge5_Node000005_Node000003"><a xlink:title=" ">
<path fill="none" stroke="#63b8ff" d="M187.62,-19.88C195.96,-21.32 204.29,-22.77 211.85,-24.09"/>
<polygon fill="#63b8ff" stroke="#63b8ff" points="211.03,-27.5 221.48,-25.76 212.23,-20.6 211.03,-27.5"/>
</a>
</g>
</g>
</g>
</svg>
