<?xml version="1.0" encoding="UTF-8" standalone="no"?>
<!DOCTYPE svg PUBLIC "-//W3C//DTD SVG 1.1//EN"
 "http://www.w3.org/Graphics/SVG/1.1/DTD/svg11.dtd">
<!-- Generated by graphviz version 13.1.2 (20250809.0930)
 -->
<!-- Title: maintable.cpp Pages: 1 -->
<svg width="649pt" height="199pt"
 viewBox="0.00 0.00 649.00 199.00" xmlns="http://www.w3.org/2000/svg" xmlns:xlink="http://www.w3.org/1999/xlink">
<g id="graph0" class="graph" transform="scale(1 1) rotate(0) translate(4 195)">
<title>maintable.cpp</title>
<!-- Node1 -->
<g id="Node000001" class="node">
<title>Node1</title>
<g id="a_Node000001"><a xlink:title="Command&#45;line utility to generate, read, and write periodic error&#45;function lookup tables used in the S...">
<polygon fill="#999999" stroke="#666666" points="481.38,-191 395.62,-191 395.62,-170.25 481.38,-170.25 481.38,-191"/>
<text xml:space="preserve" text-anchor="middle" x="438.5" y="-177.5" font-family="Helvetica,sans-Serif" font-size="10.00">maintable.cpp</text>
</a>
</g>
</g>
<!-- Node2 -->
<g id="Node000002" class="node">
<title>Node2</title>
<g id="a_Node000002"><a xlink:title=" ">
<polygon fill="#e0e0e0" stroke="#999999" points="73,-20.75 0,-20.75 0,0 73,0 73,-20.75"/>
<text xml:space="preserve" text-anchor="middle" x="36.5" y="-7.25" font-family="Helvetica,sans-Serif" font-size="10.00">blitz/array.h</text>
</a>
</g>
</g>
<!-- Node1&#45;&gt;Node2 -->
<g id="edge1_Node000001_Node000002" class="edge">
<title>Node1&#45;&gt;Node2</title>
<g id="a_edge1_Node000001_Node000002"><a xlink:title=" ">
<path fill="none" stroke="#63b8ff" d="M395.51,-178.83C342.74,-176.36 251.63,-167.17 181.5,-134.25 126.99,-108.66 76.52,-57.12 52.02,-29.62"/>
<polygon fill="#63b8ff" stroke="#63b8ff" points="54.68,-27.35 45.47,-22.12 49.41,-31.96 54.68,-27.35"/>
</a>
</g>
</g>
<!-- Node3 -->
<g id="Node000003" class="node">
<title>Node3</title>
<g id="a_Node000003"><a xlink:title=" ">
<polygon fill="#e0e0e0" stroke="#999999" points="407.25,-77.5 347.75,-77.5 347.75,-56.75 407.25,-56.75 407.25,-77.5"/>
<text xml:space="preserve" text-anchor="middle" x="377.5" y="-64" font-family="Helvetica,sans-Serif" font-size="10.00">iostream</text>
</a>
</g>
</g>
<!-- Node1&#45;&gt;Node3 -->
<g id="edge2_Node000001_Node000003" class="edge">
<title>Node1&#45;&gt;Node3</title>
<g id="a_edge2_Node000001_Node000003"><a xlink:title=" ">
<path fill="none" stroke="#63b8ff" d="M426.93,-169.94C417.47,-161.44 404.41,-148.28 396.5,-134.25 388.51,-120.07 383.64,-102.25 380.83,-88.68"/>
<polygon fill="#63b8ff" stroke="#63b8ff" points="384.33,-88.33 379.08,-79.13 377.45,-89.6 384.33,-88.33"/>
</a>
</g>
</g>
<!-- Node4 -->
<g id="Node000004" class="node">
<title>Node4</title>
<g id="a_Node000004"><a xlink:title=" ">
<polygon fill="#e0e0e0" stroke="#999999" points="543.38,-77.5 499.62,-77.5 499.62,-56.75 543.38,-56.75 543.38,-77.5"/>
<text xml:space="preserve" text-anchor="middle" x="521.5" y="-64" font-family="Helvetica,sans-Serif" font-size="10.00">string</text>
</a>
</g>
</g>
<!-- Node1&#45;&gt;Node4 -->
<g id="edge3_Node000001_Node000004" class="edge">
<title>Node1&#45;&gt;Node4</title>
<g id="a_edge3_Node000001_Node000004"><a xlink:title=" ">
<path fill="none" stroke="#63b8ff" d="M448.42,-170.02C457.32,-161.15 470.48,-147.4 480.5,-134.25 491.87,-119.33 502.97,-101.14 510.74,-87.61"/>
<polygon fill="#63b8ff" stroke="#63b8ff" points="513.6,-89.67 515.47,-79.24 507.51,-86.23 513.6,-89.67"/>
</a>
</g>
</g>
<!-- Node5 -->
<g id="Node000005" class="node">
<title>Node5</title>
<g id="a_Node000005"><a xlink:title=" ">
<polygon fill="#e0e0e0" stroke="#999999" points="573.88,-134.25 527.12,-134.25 527.12,-113.5 573.88,-113.5 573.88,-134.25"/>
<text xml:space="preserve" text-anchor="middle" x="550.5" y="-120.75" font-family="Helvetica,sans-Serif" font-size="10.00">cmath</text>
</a>
</g>
</g>
<!-- Node1&#45;&gt;Node5 -->
<g id="edge4_Node000001_Node000005" class="edge">
<title>Node1&#45;&gt;Node5</title>
<g id="a_edge4_Node000001_Node000005"><a xlink:title=" ">
<path fill="none" stroke="#63b8ff" d="M458.52,-169.84C475.72,-161.43 500.78,-149.18 520.4,-139.59"/>
<polygon fill="#63b8ff" stroke="#63b8ff" points="521.84,-142.78 529.29,-135.24 518.77,-136.49 521.84,-142.78"/>
</a>
</g>
</g>
<!-- Node6 -->
<g id="Node000006" class="node">
<title>Node6</title>
<g id="a_Node000006"><a xlink:title=" ">
<polygon fill="#e0e0e0" stroke="#999999" points="641,-134.25 592,-134.25 592,-113.5 641,-113.5 641,-134.25"/>
<text xml:space="preserve" text-anchor="middle" x="616.5" y="-120.75" font-family="Helvetica,sans-Serif" font-size="10.00">stdio.h</text>
</a>
</g>
</g>
<!-- Node1&#45;&gt;Node6 -->
<g id="edge5_Node000001_Node000006" class="edge">
<title>Node1&#45;&gt;Node6</title>
<g id="a_edge5_Node000001_Node000006"><a xlink:title=" ">
<path fill="none" stroke="#63b8ff" d="M470.32,-169.84C501.36,-160.29 548.49,-145.79 580.8,-135.86"/>
<polygon fill="#63b8ff" stroke="#63b8ff" points="581.58,-139.28 590.11,-132.99 579.52,-132.59 581.58,-139.28"/>
</a>
</g>
</g>
<!-- Node7 -->
<g id="Node000007" class="node">
<title>Node7</title>
<g id="a_Node000007"><a xlink:href="CLParser_8h.html" target="_top" xlink:title="Minimal command&#45;line argument parsing utilities.">
<polygon fill="white" stroke="#666666" points="471.62,-134.25 405.38,-134.25 405.38,-113.5 471.62,-113.5 471.62,-134.25"/>
<text xml:space="preserve" text-anchor="middle" x="438.5" y="-120.75" font-family="Helvetica,sans-Serif" font-size="10.00">CLParser.h</text>
</a>
</g>
</g>
<!-- Node1&#45;&gt;Node7 -->
<g id="edge6_Node000001_Node000007" class="edge">
<title>Node1&#45;&gt;Node7</title>
<g id="a_edge6_Node000001_Node000007"><a xlink:title=" ">
<path fill="none" stroke="#63b8ff" d="M438.5,-169.84C438.5,-163.22 438.5,-154.22 438.5,-146.02"/>
<polygon fill="#63b8ff" stroke="#63b8ff" points="442,-146.09 438.5,-136.09 435,-146.09 442,-146.09"/>
</a>
</g>
</g>
<!-- Node9 -->
<g id="Node000009" class="node">
<title>Node9</title>
<g id="a_Node000009"><a xlink:href="mathFunctions_8h.html" target="_top" xlink:title="Header file of the class that provides auxiliary mathematical functionalities for the SIE solver.">
<polygon fill="white" stroke="#666666" points="288,-134.25 191,-134.25 191,-113.5 288,-113.5 288,-134.25"/>
<text xml:space="preserve" text-anchor="middle" x="239.5" y="-120.75" font-family="Helvetica,sans-Serif" font-size="10.00">mathFunctions.h</text>
</a>
</g>
</g>
<!-- Node1&#45;&gt;Node9 -->
<g id="edge10_Node000001_Node000009" class="edge">
<title>Node1&#45;&gt;Node9</title>
<g id="a_edge10_Node000001_Node000009"><a xlink:title=" ">
<path fill="none" stroke="#63b8ff" d="M402.92,-169.84C370.2,-160.83 321.48,-147.43 285.74,-137.6"/>
<polygon fill="#63b8ff" stroke="#63b8ff" points="287.13,-134.35 276.56,-135.07 285.28,-141.1 287.13,-134.35"/>
</a>
</g>
</g>
<!-- Node7&#45;&gt;Node3 -->
<g id="edge7_Node000007_Node000003" class="edge">
<title>Node7&#45;&gt;Node3</title>
<g id="a_edge7_Node000007_Node000003"><a xlink:title=" ">
<path fill="none" stroke="#63b8ff" d="M427.59,-113.09C419.01,-105.38 406.83,-94.45 396.62,-85.29"/>
<polygon fill="#63b8ff" stroke="#63b8ff" points="399.22,-82.91 389.44,-78.84 394.54,-88.12 399.22,-82.91"/>
</a>
</g>
</g>
<!-- Node7&#45;&gt;Node4 -->
<g id="edge9_Node000007_Node000004" class="edge">
<title>Node7&#45;&gt;Node4</title>
<g id="a_edge9_Node000007_Node000004"><a xlink:title=" ">
<path fill="none" stroke="#63b8ff" d="M453.34,-113.09C465.61,-104.99 483.29,-93.33 497.56,-83.92"/>
<polygon fill="#63b8ff" stroke="#63b8ff" points="499.11,-87.09 505.53,-78.66 495.25,-81.25 499.11,-87.09"/>
</a>
</g>
</g>
<!-- Node8 -->
<g id="Node000008" class="node">
<title>Node8</title>
<g id="a_Node000008"><a xlink:title=" ">
<polygon fill="#e0e0e0" stroke="#999999" points="481.38,-77.5 425.62,-77.5 425.62,-56.75 481.38,-56.75 481.38,-77.5"/>
<text xml:space="preserve" text-anchor="middle" x="453.5" y="-64" font-family="Helvetica,sans-Serif" font-size="10.00">sstream</text>
</a>
</g>
</g>
<!-- Node7&#45;&gt;Node8 -->
<g id="edge8_Node000007_Node000008" class="edge">
<title>Node7&#45;&gt;Node8</title>
<g id="a_edge8_Node000007_Node000008"><a xlink:title=" ">
<path fill="none" stroke="#63b8ff" d="M441.18,-113.09C443.04,-106.31 445.58,-97.05 447.87,-88.69"/>
<polygon fill="#63b8ff" stroke="#63b8ff" points="451.17,-89.86 450.44,-79.29 444.42,-88.01 451.17,-89.86"/>
</a>
</g>
</g>
<!-- Node10 -->
<g id="Node000010" class="node">
<title>Node10</title>
<g id="a_Node000010"><a xlink:title=" ">
<polygon fill="#e0e0e0" stroke="#999999" points="264.75,-77.5 214.25,-77.5 214.25,-56.75 264.75,-56.75 264.75,-77.5"/>
<text xml:space="preserve" text-anchor="middle" x="239.5" y="-64" font-family="Helvetica,sans-Serif" font-size="10.00">math.h</text>
</a>
</g>
</g>
<!-- Node9&#45;&gt;Node10 -->
<g id="edge11_Node000009_Node000010" class="edge">
<title>Node9&#45;&gt;Node10</title>
<g id="a_edge11_Node000009_Node000010"><a xlink:title=" ">
<path fill="none" stroke="#63b8ff" d="M239.5,-113.09C239.5,-106.47 239.5,-97.47 239.5,-89.27"/>
<polygon fill="#63b8ff" stroke="#63b8ff" points="243,-89.34 239.5,-79.34 236,-89.34 243,-89.34"/>
</a>
</g>
</g>
<!-- Node11 -->
<g id="Node000011" class="node">
<title>Node11</title>
<g id="a_Node000011"><a xlink:title=" ">
<polygon fill="#e0e0e0" stroke="#999999" points="149.5,-20.75 91.5,-20.75 91.5,0 149.5,0 149.5,-20.75"/>
<text xml:space="preserve" text-anchor="middle" x="120.5" y="-7.25" font-family="Helvetica,sans-Serif" font-size="10.00">complex</text>
</a>
</g>
</g>
<!-- Node9&#45;&gt;Node11 -->
<g id="edge12_Node000009_Node000011" class="edge">
<title>Node9&#45;&gt;Node11</title>
<g id="a_edge12_Node000009_Node000011"><a xlink:title=" ">
<path fill="none" stroke="#63b8ff" d="M190.51,-114.93C167.78,-108.65 142.52,-97.44 127.5,-77.5 117.83,-64.66 116.61,-46.23 117.5,-32.09"/>
<polygon fill="#63b8ff" stroke="#63b8ff" points="120.94,-32.83 118.52,-22.52 113.98,-32.09 120.94,-32.83"/>
</a>
</g>
</g>
<!-- Node12 -->
<g id="Node000012" class="node">
<title>Node12</title>
<g id="a_Node000012"><a xlink:title=" ">
<polygon fill="#e0e0e0" stroke="#999999" points="329.88,-77.5 283.12,-77.5 283.12,-56.75 329.88,-56.75 329.88,-77.5"/>
<text xml:space="preserve" text-anchor="middle" x="306.5" y="-64" font-family="Helvetica,sans-Serif" font-size="10.00">vector</text>
</a>
</g>
</g>
<!-- Node9&#45;&gt;Node12 -->
<g id="edge13_Node000009_Node000012" class="edge">
<title>Node9&#45;&gt;Node12</title>
<g id="a_edge13_Node000009_Node000012"><a xlink:title=" ">
<path fill="none" stroke="#63b8ff" d="M251.48,-113.09C261.01,-105.3 274.56,-94.22 285.83,-85.01"/>
<polygon fill="#63b8ff" stroke="#63b8ff" points="287.92,-87.82 293.45,-78.79 283.5,-82.4 287.92,-87.82"/>
</a>
</g>
</g>
<!-- Node13 -->
<g id="Node000013" class="node">
<title>Node13</title>
<g id="a_Node000013"><a xlink:href="globals_8h.html" target="_top" xlink:title="Global numerical constants, fundamental types, and simple macros.">
<polygon fill="white" stroke="#666666" points="196.62,-77.5 136.38,-77.5 136.38,-56.75 196.62,-56.75 196.62,-77.5"/>
<text xml:space="preserve" text-anchor="middle" x="166.5" y="-64" font-family="Helvetica,sans-Serif" font-size="10.00">globals.h</text>
</a>
</g>
</g>
<!-- Node9&#45;&gt;Node13 -->
<g id="edge14_Node000009_Node000013" class="edge">
<title>Node9&#45;&gt;Node13</title>
<g id="a_edge14_Node000009_Node000013"><a xlink:title=" ">
<path fill="none" stroke="#63b8ff" d="M226.45,-113.09C215.86,-105.15 200.71,-93.78 188.28,-84.46"/>
<polygon fill="#63b8ff" stroke="#63b8ff" points="190.75,-81.94 180.65,-78.74 186.55,-87.54 190.75,-81.94"/>
</a>
</g>
</g>
<!-- Node13&#45;&gt;Node2 -->
<g id="edge15_Node000013_Node000002" class="edge">
<title>Node13&#45;&gt;Node2</title>
<g id="a_edge15_Node000013_Node000002"><a xlink:title=" ">
<path fill="none" stroke="#63b8ff" d="M143.26,-56.34C122.83,-47.73 92.86,-35.11 69.87,-25.43"/>
<polygon fill="#63b8ff" stroke="#63b8ff" points="71.51,-22.32 60.94,-21.67 68.79,-28.77 71.51,-22.32"/>
</a>
</g>
</g>
<!-- Node13&#45;&gt;Node11 -->
<g id="edge18_Node000013_Node000011" class="edge">
<title>Node13&#45;&gt;Node11</title>
<g id="a_edge18_Node000013_Node000011"><a xlink:title=" ">
<path fill="none" stroke="#63b8ff" d="M158.28,-56.34C152.06,-48.94 143.35,-38.57 135.86,-29.66"/>
<polygon fill="#63b8ff" stroke="#63b8ff" points="138.74,-27.64 129.63,-22.24 133.38,-32.15 138.74,-27.64"/>
</a>
</g>
</g>
<!-- Node14 -->
<g id="Node000014" class="node">
<title>Node14</title>
<g id="a_Node000014"><a xlink:title=" ">
<polygon fill="#e0e0e0" stroke="#999999" points="259,-20.75 168,-20.75 168,0 259,0 259,-20.75"/>
<text xml:space="preserve" text-anchor="middle" x="213.5" y="-7.25" font-family="Helvetica,sans-Serif" font-size="10.00">blitz/tinyvec2.h</text>
</a>
</g>
</g>
<!-- Node13&#45;&gt;Node14 -->
<g id="edge16_Node000013_Node000014" class="edge">
<title>Node13&#45;&gt;Node14</title>
<g id="a_edge16_Node000013_Node000014"><a xlink:title=" ">
<path fill="none" stroke="#63b8ff" d="M174.9,-56.34C181.25,-48.94 190.15,-38.57 197.8,-29.66"/>
<polygon fill="#63b8ff" stroke="#63b8ff" points="200.33,-32.09 204.18,-22.23 195.01,-27.53 200.33,-32.09"/>
</a>
</g>
</g>
<!-- Node15 -->
<g id="Node000015" class="node">
<title>Node15</title>
<g id="a_Node000015"><a xlink:title=" ">
<polygon fill="#e0e0e0" stroke="#999999" points="373.62,-20.75 277.38,-20.75 277.38,0 373.62,0 373.62,-20.75"/>
<text xml:space="preserve" text-anchor="middle" x="325.5" y="-7.25" font-family="Helvetica,sans-Serif" font-size="10.00">blitz/tvecglobs.h</text>
</a>
</g>
</g>
<!-- Node13&#45;&gt;Node15 -->
<g id="edge17_Node000013_Node000015" class="edge">
<title>Node13&#45;&gt;Node15</title>
<g id="a_edge17_Node000013_Node000015"><a xlink:title=" ">
<path fill="none" stroke="#63b8ff" d="M194.93,-56.34C220.4,-47.57 258,-34.62 286.32,-24.87"/>
<polygon fill="#63b8ff" stroke="#63b8ff" points="287.31,-28.23 295.62,-21.66 285.03,-21.61 287.31,-28.23"/>
</a>
</g>
</g>
</g>
</svg>
