<?xml version="1.0" encoding="UTF-8" standalone="no"?>
<!DOCTYPE svg PUBLIC "-//W3C//DTD SVG 1.1//EN"
 "http://www.w3.org/Graphics/SVG/1.1/DTD/svg11.dtd">
<!-- Generated by graphviz version 13.1.2 (20250809.0930)
 -->
<!-- Title: InterpTrilinear Pages: 1 -->
<svg width="320pt" height="48pt"
 viewBox="0.00 0.00 320.00 48.00" xmlns="http://www.w3.org/2000/svg" xmlns:xlink="http://www.w3.org/1999/xlink">
<g id="graph0" class="graph" transform="scale(1 1) rotate(0) translate(4 43.75)">
<title>InterpTrilinear</title>
<!-- Node1 -->
<g id="Node000001" class="node">
<title>Node1</title>
<g id="a_Node000001"><a xlink:title="Perform trilinear interpolation inside a cube.">
<polygon fill="#999999" stroke="#666666" points="83.5,-20.75 0,-20.75 0,0 83.5,0 83.5,-20.75"/>
<text xml:space="preserve" text-anchor="middle" x="41.75" y="-7.25" font-family="Helvetica,sans-Serif" font-size="10.00">InterpTrilinear</text>
</a>
</g>
</g>
<!-- Node2 -->
<g id="Node000002" class="node">
<title>Node2</title>
<g id="a_Node000002"><a xlink:href="mathFunctions_8h.html#ab134c0b32844bf75bb6540646a280007" target="_top" xlink:title="Perform bilinear interpolation on a rectangular surface.">
<polygon fill="white" stroke="#666666" points="201.5,-39.75 119.5,-39.75 119.5,-19 201.5,-19 201.5,-39.75"/>
<text xml:space="preserve" text-anchor="middle" x="160.5" y="-26.25" font-family="Helvetica,sans-Serif" font-size="10.00">InterpBilinear</text>
</a>
</g>
</g>
<!-- Node1&#45;&gt;Node2 -->
<g id="edge1_Node000001_Node000002" class="edge">
<title>Node1&#45;&gt;Node2</title>
<g id="a_edge1_Node000001_Node000002"><a xlink:title=" ">
<path fill="none" stroke="#63b8ff" d="M83.91,-17.07C91.68,-18.34 99.89,-19.67 107.92,-20.98"/>
<polygon fill="#63b8ff" stroke="#63b8ff" points="107.18,-24.41 117.61,-22.56 108.3,-17.5 107.18,-24.41"/>
</a>
</g>
</g>
<!-- Node3 -->
<g id="Node000003" class="node">
<title>Node3</title>
<g id="a_Node000003"><a xlink:href="mathFunctions_8h.html#a6a44a67d00b12380d2bf85996378a609" target="_top" xlink:title="Perform linear interpolation between two samples.">
<polygon fill="white" stroke="#666666" points="312,-20.75 237.5,-20.75 237.5,0 312,0 312,-20.75"/>
<text xml:space="preserve" text-anchor="middle" x="274.75" y="-7.25" font-family="Helvetica,sans-Serif" font-size="10.00">InterpLinear</text>
</a>
</g>
</g>
<!-- Node1&#45;&gt;Node3 -->
<g id="edge3_Node000001_Node000003" class="edge">
<title>Node1&#45;&gt;Node3</title>
<g id="a_edge3_Node000001_Node000003"><a xlink:title=" ">
<path fill="none" stroke="#63b8ff" d="M83.78,-10.38C123.6,-10.38 184,-10.38 225.97,-10.38"/>
<polygon fill="#63b8ff" stroke="#63b8ff" points="225.77,-13.88 235.77,-10.38 225.77,-6.88 225.77,-13.88"/>
</a>
</g>
</g>
<!-- Node2&#45;&gt;Node3 -->
<g id="edge2_Node000002_Node000003" class="edge">
<title>Node2&#45;&gt;Node3</title>
<g id="a_edge2_Node000002_Node000003"><a xlink:title=" ">
<path fill="none" stroke="#63b8ff" d="M201.71,-22.57C209.58,-21.24 217.9,-19.83 225.98,-18.46"/>
<polygon fill="#63b8ff" stroke="#63b8ff" points="226.42,-21.94 235.69,-16.82 225.25,-15.03 226.42,-21.94"/>
</a>
</g>
</g>
</g>
</svg>
