<?xml version="1.0" encoding="UTF-8" standalone="no"?>
<!DOCTYPE svg PUBLIC "-//W3C//DTD SVG 1.1//EN"
 "http://www.w3.org/Graphics/SVG/1.1/DTD/svg11.dtd">
<!-- Generated by graphviz version 13.1.2 (20250809.0930)
 -->
<!-- Title: Ep Pages: 1 -->
<svg width="102pt" height="47pt"
 viewBox="0.00 0.00 102.00 47.00" xmlns="http://www.w3.org/2000/svg" xmlns:xlink="http://www.w3.org/1999/xlink">

<svg id="main" version="1.1" xmlns="http://www.w3.org/2000/svg" xmlns:xlink="http://www.w3.org/1999/xlink" xml:space="preserve">

<style type="text/css"><![CDATA[
.node, .edge {opacity: 0.7;}
.node.selected, .edge.selected {opacity: 1;}
.edge:hover path { stroke: red; }
.edge:hover polygon { stroke: red; fill: red; }
]]></style>
<script type="application/ecmascript" xlink:href="svg.min.js"/>
<svg id="graph" class="graph">
<g id="graph0" class="graph" transform="scale(1 1) rotate(0) translate(4 42.75)">
<title>Ep</title>
<!-- Node1 -->
<g id="Node000001" class="node">
<title>Node1</title>
<g id="a_Node000001"><a xlink:title="Exponential integral of &#160;order.">
<polygon fill="#999999" stroke="#666666" points="28.8,-20.75 0,-20.75 0,0 28.8,0 28.8,-20.75"/>
<text xml:space="preserve" text-anchor="middle" x="14.4" y="-7.25" font-family="Helvetica,sans-Serif" font-size="10.00">Ep</text>
</a>
</g>
</g>
<!-- Node1&#45;&gt;Node1 -->
<g id="edge3_Node000001_Node000001" class="edge">
<title>Node1&#45;&gt;Node1</title>
<g id="a_edge3_Node000001_Node000001"><a xlink:title=" ">
<path fill="none" stroke="#63b8ff" d="M3.96,-21.15C-0.22,-29.81 3.26,-38.75 14.4,-38.75 20.32,-38.75 24.07,-36.23 25.67,-32.56"/>
<polygon fill="#63b8ff" stroke="#63b8ff" points="29.16,-32.38 24.95,-22.66 22.18,-32.88 29.16,-32.38"/>
</a>
</g>
</g>
<!-- Node2 -->
<g id="Node000002" class="node">
<title>Node2</title>
<g id="a_Node000002"><a xlink:href="mathFunctions_8cpp.html#a08aa713aa80e71c4c0e2c81ff7d1df50" target="_top" xlink:title="Exponential integral function E1/Ei(x).">
<polygon fill="white" stroke="#666666" points="93.6,-20.75 64.8,-20.75 64.8,0 93.6,0 93.6,-20.75"/>
<text xml:space="preserve" text-anchor="middle" x="79.2" y="-7.25" font-family="Helvetica,sans-Serif" font-size="10.00">Ei</text>
</a>
</g>
</g>
<!-- Node1&#45;&gt;Node2 -->
<g id="edge1_Node000001_Node000002" class="edge">
<title>Node1&#45;&gt;Node2</title>
<g id="a_edge1_Node000001_Node000002"><a xlink:title=" ">
<path fill="none" stroke="#63b8ff" d="M29.03,-10.38C36.1,-10.38 44.98,-10.38 53.23,-10.38"/>
<polygon fill="#63b8ff" stroke="#63b8ff" points="53.09,-13.88 63.09,-10.38 53.09,-6.88 53.09,-13.88"/>
</a>
</g>
</g>
<!-- Node2&#45;&gt;Node2 -->
<g id="edge2_Node000002_Node000002" class="edge">
<title>Node2&#45;&gt;Node2</title>
<g id="a_edge2_Node000002_Node000002"><a xlink:title=" ">
<path fill="none" stroke="#63b8ff" d="M68.76,-21.15C64.58,-29.81 68.06,-38.75 79.2,-38.75 85.12,-38.75 88.87,-36.23 90.47,-32.56"/>
<polygon fill="#63b8ff" stroke="#63b8ff" points="93.96,-32.38 89.75,-22.66 86.98,-32.88 93.96,-32.38"/>
</a>
</g>
</g>
</g>
</svg>
</svg>

<style type='text/css'>
<![CDATA[
[data-mouse-over-selected='false'] { opacity: 0.7; }
[data-mouse-over-selected='true']  { opacity: 1.0; }
]]>
</style>
<script type="application/ecmascript"><![CDATA[
document.addEventListener('DOMContentLoaded', (event) => {
  highlightEdges();
  highlightAdjacentNodes();
});
]]></script>
</svg>
