<?xml version="1.0" encoding="UTF-8" standalone="no"?>
<!DOCTYPE svg PUBLIC "-//W3C//DTD SVG 1.1//EN"
 "http://www.w3.org/Graphics/SVG/1.1/DTD/svg11.dtd">
<!-- Generated by graphviz version 13.1.2 (20250809.0930)
 -->
<!-- Title: cerfc Pages: 1 -->
<!--zoomable 521 -->

<svg id="main" version="1.1" xmlns="http://www.w3.org/2000/svg" xmlns:xlink="http://www.w3.org/1999/xlink" xml:space="preserve" onload="init(evt)">

<style type="text/css"><![CDATA[
.node, .edge {opacity: 0.7;}
.node.selected, .edge.selected {opacity: 1;}
.edge:hover path { stroke: red; }
.edge:hover polygon { stroke: red; fill: red; }
]]></style>

<defs>
  <circle id="rim" cx="0" cy="0" r="7"/>
  <circle id="rim2" cx="0" cy="0" r="3.5"/>
  <g id="zoomPlus">
    <use xlink:href="#rim" fill="#404040"><set attributeName="fill" to="#808080" begin="zoomplus.mouseover" end="zoomplus.mouseout"/></use>
    <path d="M-4,0h8M0,-4v8" fill="none" stroke="white" stroke-width="1.5" pointer-events="none"/>
  </g>
  <g id="zoomMin">
    <use xlink:href="#rim" fill="#404040"><set attributeName="fill" to="#808080" begin="zoomminus.mouseover" end="zoomminus.mouseout"/></use>
    <path d="M-4,0h8" fill="none" stroke="white" stroke-width="1.5" pointer-events="none"/>
  </g>
  <g id="arrowUp" transform="translate(30 24)">
    <use xlink:href="#rim"/>
    <path pointer-events="none" fill="none" stroke="white" stroke-width="1.5" d="M0,-3.0v7 M-2.5,-0.5L0,-3.0L2.5,-0.5"/>
  </g>
  <g id="arrowRight" transform="rotate(90) translate(36 -43)">
    <use xlink:href="#rim"/>
    <path pointer-events="none" fill="none" stroke="white" stroke-width="1.5" d="M0,-3.0v7 M-2.5,-0.5L0,-3.0L2.5,-0.5"/>
  </g>
  <g id="arrowDown" transform="rotate(180) translate(-30 -48)">
    <use xlink:href="#rim"/>
    <path pointer-events="none" fill="none" stroke="white" stroke-width="1.5" d="M0,-3.0v7 M-2.5,-0.5L0,-3.0L2.5,-0.5"/>
  </g>
  <g id="arrowLeft" transform="rotate(270) translate(-36 17)">
    <use xlink:href="#rim"/>
    <path pointer-events="none" fill="none" stroke="white" stroke-width="1.5" d="M0,-3.0v7 M-2.5,-0.5L0,-3.0L2.5,-0.5"/>
  </g>
  <g id="resetDef">
    <use xlink:href="#rim2" fill="#404040"><set attributeName="fill" to="#808080" begin="reset.mouseover" end="reset.mouseout"/></use>
  </g>
</defs>
<script type="application/ecmascript">
var viewWidth = 873;
var viewHeight = 521;
var sectionId = 'dynsection-4';
</script>
<script type="application/ecmascript" xlink:href="svg.min.js"/>
<svg id="graph" class="graph">
<g id="viewport">
<title>cerfc</title>
<!-- Node1 -->
<g id="Node000001" class="node">
<title>Node1</title>
<g id="a_Node000001"><a xlink:title="Complementary error function for complex arguments.">
<polygon fill="#999999" stroke="#666666" points="865.25,-474.12 825.25,-474.12 825.25,-453.38 865.25,-453.38 865.25,-474.12"/>
<text xml:space="preserve" text-anchor="middle" x="845.25" y="-460.62" font-family="Helvetica,sans-Serif" font-size="10.00">cerfc</text>
</a>
</g>
</g>
<!-- Node2 -->
<g id="Node000002" class="node">
<title>Node2</title>
<g id="a_Node000002"><a xlink:href="mathFunctions_8cpp.html#ab5ae92d9600ad72d4c0c18a49f876831" target="_top" xlink:title="Generate and save a text lookup table for cerfc over a complex grid.">
<polygon fill="white" stroke="#666666" points="781.38,-474.12 686.62,-474.12 686.62,-453.38 781.38,-453.38 781.38,-474.12"/>
<text xml:space="preserve" text-anchor="middle" x="734" y="-460.62" font-family="Helvetica,sans-Serif" font-size="10.00">ErfcLookupTable</text>
</a>
</g>
</g>
<!-- Node1&#45;&gt;Node2 -->
<g id="edge1_Node000001_Node000002" class="edge">
<title>Node1&#45;&gt;Node2</title>
<g id="a_edge1_Node000001_Node000002"><a xlink:title=" ">
<path fill="none" stroke="#63b8ff" d="M813.67,-463.75C803.78,-463.75 792.58,-463.75 781.79,-463.75"/>
<polygon fill="#63b8ff" stroke="#63b8ff" points="813.46,-467.25 823.46,-463.75 813.46,-460.25 813.46,-467.25"/>
</a>
</g>
</g>
<!-- Node4 -->
<g id="Node000004" class="node">
<title>Node4</title>
<g id="a_Node000004"><a xlink:href="mathFunctions_8cpp.html#a619bd9a7be3251a7f44191aaeaa6ab7c" target="_top" xlink:title="Generate and save a binary lookup table for cerfc over a complex grid.">
<polygon fill="white" stroke="#666666" points="789.25,-513.12 678.75,-513.12 678.75,-492.38 789.25,-492.38 789.25,-513.12"/>
<text xml:space="preserve" text-anchor="middle" x="734" y="-499.62" font-family="Helvetica,sans-Serif" font-size="10.00">ErfcLookupTableBin</text>
</a>
</g>
</g>
<!-- Node1&#45;&gt;Node4 -->
<g id="edge3_Node000001_Node000004" class="edge">
<title>Node1&#45;&gt;Node4</title>
<g id="a_edge3_Node000001_Node000004"><a xlink:title=" ">
<path fill="none" stroke="#63b8ff" d="M814.51,-474.37C799.2,-479.83 780.58,-486.48 765.21,-491.96"/>
<polygon fill="#63b8ff" stroke="#63b8ff" points="815.3,-477.8 823.54,-471.14 812.95,-471.21 815.3,-477.8"/>
</a>
</g>
</g>
<!-- Node5 -->
<g id="Node000005" class="node">
<title>Node5</title>
<g id="a_Node000005"><a xlink:href="classGreenF.html#abf00726011a4eca4109bc43125218d30" target="_top" xlink:title="Evaluate erfc via the 2D lookup table if available.">
<polygon fill="white" stroke="#666666" points="777.62,-300.12 690.38,-300.12 690.38,-279.38 777.62,-279.38 777.62,-300.12"/>
<text xml:space="preserve" text-anchor="middle" x="734" y="-286.62" font-family="Helvetica,sans-Serif" font-size="10.00">GreenF::EvErfc</text>
</a>
</g>
</g>
<!-- Node1&#45;&gt;Node5 -->
<g id="edge5_Node000001_Node000005" class="edge">
<title>Node1&#45;&gt;Node5</title>
<g id="a_edge5_Node000001_Node000005"><a xlink:title=" ">
<path fill="none" stroke="#63b8ff" d="M831.46,-443.38C808.09,-406.16 759.27,-328.41 741.58,-300.23"/>
<polygon fill="#63b8ff" stroke="#63b8ff" points="828.49,-445.24 836.78,-451.85 834.42,-441.52 828.49,-445.24"/>
</a>
</g>
</g>
<!-- Node3 -->
<g id="Node000003" class="node">
<title>Node3</title>
<g id="a_Node000003"><a xlink:href="maintable_8cpp.html#a0ddf1224851353fc92bfbff6f499fa97" target="_top" xlink:title="Main driver for periodic error&#45;function lookup table management.">
<polygon fill="white" stroke="#666666" points="567,-513.12 526.25,-513.12 526.25,-492.38 567,-492.38 567,-513.12"/>
<text xml:space="preserve" text-anchor="middle" x="546.62" y="-499.62" font-family="Helvetica,sans-Serif" font-size="10.00">main</text>
</a>
</g>
</g>
<!-- Node2&#45;&gt;Node3 -->
<g id="edge2_Node000002_Node000003" class="edge">
<title>Node2&#45;&gt;Node3</title>
<g id="a_edge2_Node000002_Node000003"><a xlink:title=" ">
<path fill="none" stroke="#63b8ff" d="M675.17,-476.75C664.4,-479.12 653.24,-481.54 642.75,-483.75 616.71,-489.23 586.58,-495.19 567.33,-498.94"/>
<polygon fill="#63b8ff" stroke="#63b8ff" points="675.71,-480.22 684.72,-474.64 674.2,-473.38 675.71,-480.22"/>
</a>
</g>
</g>
<!-- Node4&#45;&gt;Node3 -->
<g id="edge4_Node000004_Node000003" class="edge">
<title>Node4&#45;&gt;Node3</title>
<g id="a_edge4_Node000004_Node000003"><a xlink:title=" ">
<path fill="none" stroke="#63b8ff" d="M667.18,-502.75C631.95,-502.75 591.06,-502.75 567.39,-502.75"/>
<polygon fill="#63b8ff" stroke="#63b8ff" points="666.87,-506.25 676.87,-502.75 666.87,-499.25 666.87,-506.25"/>
</a>
</g>
</g>
<!-- Node6 -->
<g id="Node000006" class="node">
<title>Node6</title>
<g id="a_Node000006"><a xlink:href="classGreenFHom3DPer2D.html#ad219414131e33eb361fe2240be9612a0" target="_top" xlink:title="Spatial part returning both normal and gradient.">
<polygon fill="white" stroke="#666666" points="632.25,-474.5 461,-474.5 461,-441 632.25,-441 632.25,-474.5"/>
<text xml:space="preserve" text-anchor="start" x="469" y="-461" font-family="Helvetica,sans-Serif" font-size="10.00">GreenFHom3DPer2D::EwaldAnd</text>
<text xml:space="preserve" text-anchor="middle" x="546.62" y="-448.25" font-family="Helvetica,sans-Serif" font-size="10.00">GradientSpatial</text>
</a>
</g>
</g>
<!-- Node5&#45;&gt;Node6 -->
<g id="edge6_Node000005_Node000006" class="edge">
<title>Node5&#45;&gt;Node6</title>
<g id="a_edge6_Node000005_Node000006"><a xlink:title=" ">
<path fill="none" stroke="#63b8ff" d="M725.23,-311.15C712.76,-342.44 685.27,-400.38 642.75,-431.75 638.2,-435.1 633.25,-438.03 628.07,-440.57"/>
<polygon fill="#63b8ff" stroke="#63b8ff" points="728.43,-312.57 728.74,-301.98 721.9,-310.07 728.43,-312.57"/>
</a>
</g>
</g>
<!-- Node11 -->
<g id="Node000011" class="node">
<title>Node11</title>
<g id="a_Node000011"><a xlink:href="classGreenFHom3DPer2D.html#af034587a03115087737a86ed71b664f4" target="_top" xlink:title="Spatial part returning .">
<polygon fill="white" stroke="#666666" points="632.25,-370.5 461,-370.5 461,-337 632.25,-337 632.25,-370.5"/>
<text xml:space="preserve" text-anchor="start" x="469" y="-357" font-family="Helvetica,sans-Serif" font-size="10.00">GreenFHom3DPer2D::EwaldAnd</text>
<text xml:space="preserve" text-anchor="middle" x="546.62" y="-344.25" font-family="Helvetica,sans-Serif" font-size="10.00">GradientSpatialSmoothed</text>
</a>
</g>
</g>
<!-- Node5&#45;&gt;Node11 -->
<g id="edge11_Node000005_Node000011" class="edge">
<title>Node5&#45;&gt;Node11</title>
<g id="a_edge11_Node000005_Node000011"><a xlink:title=" ">
<path fill="none" stroke="#63b8ff" d="M699.18,-305.24C682.41,-312.6 661.73,-321.19 642.75,-327.75 633.85,-330.83 624.38,-333.78 615,-336.52"/>
<polygon fill="#63b8ff" stroke="#63b8ff" points="700.48,-308.49 708.2,-301.23 697.64,-302.09 700.48,-308.49"/>
</a>
</g>
</g>
<!-- Node13 -->
<g id="Node000013" class="node">
<title>Node13</title>
<g id="a_Node000013"><a xlink:href="classGreenFHom3DPer2D.html#a025f6ce600bdd42ae02716905c75ba66" target="_top" xlink:title="Spectral part returning .">
<polygon fill="white" stroke="#666666" points="632.25,-422.5 461,-422.5 461,-389 632.25,-389 632.25,-422.5"/>
<text xml:space="preserve" text-anchor="start" x="469" y="-409" font-family="Helvetica,sans-Serif" font-size="10.00">GreenFHom3DPer2D::EwaldAnd</text>
<text xml:space="preserve" text-anchor="middle" x="546.62" y="-396.25" font-family="Helvetica,sans-Serif" font-size="10.00">GradientSpectral</text>
</a>
</g>
</g>
<!-- Node5&#45;&gt;Node13 -->
<g id="edge16_Node000005_Node000013" class="edge">
<title>Node5&#45;&gt;Node13</title>
<g id="a_edge16_Node000005_Node000013"><a xlink:title=" ">
<path fill="none" stroke="#63b8ff" d="M718.36,-309.48C702.11,-330.01 674.01,-361.63 642.75,-379.75 636.97,-383.1 630.75,-386.03 624.35,-388.6"/>
<polygon fill="#63b8ff" stroke="#63b8ff" points="721.1,-311.66 724.43,-301.61 715.55,-307.39 721.1,-311.66"/>
</a>
</g>
</g>
<!-- Node14 -->
<g id="Node000014" class="node">
<title>Node14</title>
<g id="a_Node000014"><a xlink:href="classGreenFHom3DPer2D.html#a1bf2f1eb77a84b027b99ec75d31c8576" target="_top" xlink:title="Spatial (real&#45;space images) part of Ewald sum.">
<polygon fill="white" stroke="#666666" points="639.75,-319.12 453.5,-319.12 453.5,-298.38 639.75,-298.38 639.75,-319.12"/>
<text xml:space="preserve" text-anchor="middle" x="546.62" y="-305.62" font-family="Helvetica,sans-Serif" font-size="10.00">GreenFHom3DPer2D::EwaldSpatial</text>
</a>
</g>
</g>
<!-- Node5&#45;&gt;Node14 -->
<g id="edge19_Node000005_Node000014" class="edge">
<title>Node5&#45;&gt;Node14</title>
<g id="a_edge19_Node000005_Node000014"><a xlink:title=" ">
<path fill="none" stroke="#63b8ff" d="M678.73,-295.31C666.59,-296.56 653.38,-297.91 640.18,-299.26"/>
<polygon fill="#63b8ff" stroke="#63b8ff" points="678.91,-298.81 688.5,-294.31 678.19,-291.85 678.91,-298.81"/>
</a>
</g>
</g>
<!-- Node18 -->
<g id="Node000018" class="node">
<title>Node18</title>
<g id="a_Node000018"><a xlink:href="classGreenFHom3DPer2D.html#accc01158b08720b45256b17ed3536d8b" target="_top" xlink:title="Spatial part for the smoothed scalar kernel .">
<polygon fill="white" stroke="#666666" points="639.75,-241.5 453.5,-241.5 453.5,-208 639.75,-208 639.75,-241.5"/>
<text xml:space="preserve" text-anchor="start" x="461.5" y="-228" font-family="Helvetica,sans-Serif" font-size="10.00">GreenFHom3DPer2D::EwaldSpatial</text>
<text xml:space="preserve" text-anchor="middle" x="546.62" y="-215.25" font-family="Helvetica,sans-Serif" font-size="10.00">Smoothed</text>
</a>
</g>
</g>
<!-- Node5&#45;&gt;Node18 -->
<g id="edge23_Node000005_Node000018" class="edge">
<title>Node5&#45;&gt;Node18</title>
<g id="a_edge23_Node000005_Node000018"><a xlink:title=" ">
<path fill="none" stroke="#63b8ff" d="M699.92,-274.12C683.03,-266.49 662.04,-257.52 642.75,-250.75 633.95,-247.66 624.58,-244.71 615.29,-241.98"/>
<polygon fill="#63b8ff" stroke="#63b8ff" points="698.43,-277.29 708.98,-278.27 701.35,-270.93 698.43,-277.29"/>
</a>
</g>
</g>
<!-- Node22 -->
<g id="Node000022" class="node">
<title>Node22</title>
<g id="a_Node000022"><a xlink:href="classGreenFHom3DPer2D.html#aad98b9953626259eda54006eecbcf04e" target="_top" xlink:title="Spectral (reciprocal&#45;lattice) part of Ewald sum for .">
<polygon fill="white" stroke="#666666" points="642.75,-280.12 450.5,-280.12 450.5,-259.38 642.75,-259.38 642.75,-280.12"/>
<text xml:space="preserve" text-anchor="middle" x="546.62" y="-266.62" font-family="Helvetica,sans-Serif" font-size="10.00">GreenFHom3DPer2D::EwaldSpectral</text>
</a>
</g>
</g>
<!-- Node5&#45;&gt;Node22 -->
<g id="edge27_Node000005_Node000022" class="edge">
<title>Node5&#45;&gt;Node22</title>
<g id="a_edge27_Node000005_Node000022"><a xlink:title=" ">
<path fill="none" stroke="#63b8ff" d="M678.69,-283.89C667.47,-282.68 655.35,-281.37 643.16,-280.06"/>
<polygon fill="#63b8ff" stroke="#63b8ff" points="678.18,-287.36 688.5,-284.95 678.93,-280.4 678.18,-287.36"/>
</a>
</g>
</g>
<!-- Node23 -->
<g id="Node000023" class="node">
<title>Node23</title>
<g id="a_Node000023"><a xlink:href="classGreenFHom3DPer2D.html#a9e049d83cd897078023b76fb89558d31" target="_top" xlink:title="Spatial part of the source&#45;gradient.">
<polygon fill="white" stroke="#666666" points="629.25,-85.5 464,-85.5 464,-52 629.25,-52 629.25,-85.5"/>
<text xml:space="preserve" text-anchor="start" x="472" y="-72" font-family="Helvetica,sans-Serif" font-size="10.00">GreenFHom3DPer2D::Gradient</text>
<text xml:space="preserve" text-anchor="middle" x="546.62" y="-59.25" font-family="Helvetica,sans-Serif" font-size="10.00">EwaldSpatial</text>
</a>
</g>
</g>
<!-- Node5&#45;&gt;Node23 -->
<g id="edge32_Node000005_Node000023" class="edge">
<title>Node5&#45;&gt;Node23</title>
<g id="a_edge32_Node000005_Node000023"><a xlink:title=" ">
<path fill="none" stroke="#63b8ff" d="M729.11,-267.77C720.79,-227.3 697.35,-140.94 642.75,-94.75 638.7,-91.32 634.23,-88.34 629.51,-85.76"/>
<polygon fill="#63b8ff" stroke="#63b8ff" points="725.66,-268.33 730.98,-277.49 732.53,-267.01 725.66,-268.33"/>
</a>
</g>
</g>
<!-- Node28 -->
<g id="Node000028" class="node">
<title>Node28</title>
<g id="a_Node000028"><a xlink:href="classGreenFHom3DPer2D.html#a11d147713f81b9b9684aa9d39514a2c6" target="_top" xlink:title="Spatial part of the smoothed source&#45;gradient .">
<polygon fill="white" stroke="#666666" points="629.25,-189.5 464,-189.5 464,-156 629.25,-156 629.25,-189.5"/>
<text xml:space="preserve" text-anchor="start" x="472" y="-176" font-family="Helvetica,sans-Serif" font-size="10.00">GreenFHom3DPer2D::Gradient</text>
<text xml:space="preserve" text-anchor="middle" x="546.62" y="-163.25" font-family="Helvetica,sans-Serif" font-size="10.00">EwaldSpatialSmoothed</text>
</a>
</g>
</g>
<!-- Node5&#45;&gt;Node28 -->
<g id="edge37_Node000005_Node000028" class="edge">
<title>Node5&#45;&gt;Node28</title>
<g id="a_edge37_Node000005_Node000028"><a xlink:title=" ">
<path fill="none" stroke="#63b8ff" d="M718.63,-270.07C702.45,-249.32 674.27,-217.14 642.75,-198.75 636.98,-195.39 630.77,-192.44 624.37,-189.87"/>
<polygon fill="#63b8ff" stroke="#63b8ff" points="715.63,-271.91 724.46,-277.77 721.21,-267.68 715.63,-271.91"/>
</a>
</g>
</g>
<!-- Node32 -->
<g id="Node000032" class="node">
<title>Node32</title>
<g id="a_Node000032"><a xlink:href="classGreenFHom3DPer2D.html#a1ab7bcf35b15f67bb9824040c34c8bbc" target="_top" xlink:title="Spectral part of the source&#45;gradient .">
<polygon fill="white" stroke="#666666" points="629.25,-137.5 464,-137.5 464,-104 629.25,-104 629.25,-137.5"/>
<text xml:space="preserve" text-anchor="start" x="472" y="-124" font-family="Helvetica,sans-Serif" font-size="10.00">GreenFHom3DPer2D::Gradient</text>
<text xml:space="preserve" text-anchor="middle" x="546.62" y="-111.25" font-family="Helvetica,sans-Serif" font-size="10.00">EwaldSpectral</text>
</a>
</g>
</g>
<!-- Node5&#45;&gt;Node32 -->
<g id="edge42_Node000005_Node000032" class="edge">
<title>Node5&#45;&gt;Node32</title>
<g id="a_edge42_Node000005_Node000032"><a xlink:title=" ">
<path fill="none" stroke="#63b8ff" d="M725.46,-268.67C713.12,-237.26 685.64,-178.5 642.75,-146.75 638.21,-143.39 633.26,-140.46 628.08,-137.91"/>
<polygon fill="#63b8ff" stroke="#63b8ff" points="722.11,-269.71 728.91,-277.83 728.66,-267.24 722.11,-269.71"/>
</a>
</g>
</g>
<!-- Node7 -->
<g id="Node000007" class="node">
<title>Node7</title>
<g id="a_Node000007"><a xlink:href="classGreenFHom3DPer2D.html#aea4d858bd544ba5e9a8de1197b572b4e" target="_top" xlink:title="Evaluate &#160;for a translation in one call.">
<polygon fill="white" stroke="#666666" points="405.5,-474.5 221.5,-474.5 221.5,-441 405.5,-441 405.5,-474.5"/>
<text xml:space="preserve" text-anchor="start" x="229.5" y="-461" font-family="Helvetica,sans-Serif" font-size="10.00">GreenFHom3DPer2D::Evaluateand</text>
<text xml:space="preserve" text-anchor="middle" x="313.5" y="-448.25" font-family="Helvetica,sans-Serif" font-size="10.00">GradientTranslate</text>
</a>
</g>
</g>
<!-- Node6&#45;&gt;Node7 -->
<g id="edge7_Node000006_Node000007" class="edge">
<title>Node6&#45;&gt;Node7</title>
<g id="a_edge7_Node000006_Node000007"><a xlink:title=" ">
<path fill="none" stroke="#63b8ff" d="M449.1,-457.75C434.7,-457.75 419.9,-457.75 405.61,-457.75"/>
<polygon fill="#63b8ff" stroke="#63b8ff" points="449.03,-461.25 459.03,-457.75 449.03,-454.25 449.03,-461.25"/>
</a>
</g>
</g>
<!-- Node8 -->
<g id="Node000008" class="node">
<title>Node8</title>
<g id="a_Node000008"><a xlink:href="classGreenFHom3DPer2D.html#a233c2185952220bd16acae2142f05cc1" target="_top" xlink:title="term at an observation point.">
<polygon fill="white" stroke="#666666" points="172,-421.5 4.5,-421.5 4.5,-388 172,-388 172,-421.5"/>
<text xml:space="preserve" text-anchor="start" x="12.5" y="-408" font-family="Helvetica,sans-Serif" font-size="10.00">GreenFHom3DPer2D::Integrate</text>
<text xml:space="preserve" text-anchor="middle" x="88.25" y="-395.25" font-family="Helvetica,sans-Serif" font-size="10.00">Delta</text>
</a>
</g>
</g>
<!-- Node7&#45;&gt;Node8 -->
<g id="edge8_Node000007_Node000008" class="edge">
<title>Node7&#45;&gt;Node8</title>
<g id="a_edge8_Node000007_Node000008"><a xlink:title=" ">
<path fill="none" stroke="#63b8ff" d="M228.97,-437.92C206.88,-432.67 183.21,-427.06 161.75,-421.96"/>
<polygon fill="#63b8ff" stroke="#63b8ff" points="228.01,-441.29 238.54,-440.19 229.62,-434.48 228.01,-441.29"/>
</a>
</g>
</g>
<!-- Node9 -->
<g id="Node000009" class="node">
<title>Node9</title>
<g id="a_Node000009"><a xlink:href="classGreenFHom3DPer2D.html#a84a8c855a27c895ff24f6771037284a5" target="_top" xlink:title="Compute &#160;for all RWGs on a source triangle.">
<polygon fill="white" stroke="#666666" points="169.38,-511.5 7.12,-511.5 7.12,-478 169.38,-478 169.38,-511.5"/>
<text xml:space="preserve" text-anchor="start" x="15.12" y="-498" font-family="Helvetica,sans-Serif" font-size="10.00">GreenFHom3DPer2D::SameTri</text>
<text xml:space="preserve" text-anchor="middle" x="88.25" y="-485.25" font-family="Helvetica,sans-Serif" font-size="10.00">DeltaKappa</text>
</a>
</g>
</g>
<!-- Node7&#45;&gt;Node9 -->
<g id="edge9_Node000007_Node000009" class="edge">
<title>Node7&#45;&gt;Node9</title>
<g id="a_edge9_Node000007_Node000009"><a xlink:title=" ">
<path fill="none" stroke="#63b8ff" d="M209.83,-474.77C196.41,-476.99 182.81,-479.24 169.82,-481.4"/>
<polygon fill="#63b8ff" stroke="#63b8ff" points="210.27,-478.24 219.56,-473.15 209.12,-471.34 210.27,-478.24"/>
</a>
</g>
</g>
<!-- Node10 -->
<g id="Node000010" class="node">
<title>Node10</title>
<g id="a_Node000010"><a xlink:href="classGreenFHom3DPer2D.html#a1dc9dd84c93ee10b2fb4b1866103d957" target="_top" xlink:title="Compute &#160;and &#160;for all RWG pairs on two triangles.">
<polygon fill="white" stroke="#666666" points="176.5,-460.12 0,-460.12 0,-439.38 176.5,-439.38 176.5,-460.12"/>
<text xml:space="preserve" text-anchor="middle" x="88.25" y="-446.62" font-family="Helvetica,sans-Serif" font-size="10.00">GreenFHom3DPer2D::SameTriDK</text>
</a>
</g>
</g>
<!-- Node7&#45;&gt;Node10 -->
<g id="edge10_Node000007_Node000010" class="edge">
<title>Node7&#45;&gt;Node10</title>
<g id="a_edge10_Node000007_Node000010"><a xlink:title=" ">
<path fill="none" stroke="#63b8ff" d="M209.71,-454.07C198.76,-453.67 187.7,-453.28 176.95,-452.89"/>
<polygon fill="#63b8ff" stroke="#63b8ff" points="209.42,-457.56 219.54,-454.42 209.67,-450.56 209.42,-457.56"/>
</a>
</g>
</g>
<!-- Node12 -->
<g id="Node000012" class="node">
<title>Node12</title>
<g id="a_Node000012"><a xlink:href="classGreenFHom3DPer2D.html#ab49a15bcfe7b44d2338c9182f003d385" target="_top" xlink:title="Evaluate &#160;(smoothed) for a translation in one call.">
<polygon fill="white" stroke="#666666" points="405.5,-422.5 221.5,-422.5 221.5,-389 405.5,-389 405.5,-422.5"/>
<text xml:space="preserve" text-anchor="start" x="229.5" y="-409" font-family="Helvetica,sans-Serif" font-size="10.00">GreenFHom3DPer2D::Evaluateand</text>
<text xml:space="preserve" text-anchor="middle" x="313.5" y="-396.25" font-family="Helvetica,sans-Serif" font-size="10.00">GradientSmoothedTranslate</text>
</a>
</g>
</g>
<!-- Node11&#45;&gt;Node12 -->
<g id="edge12_Node000011_Node000012" class="edge">
<title>Node11&#45;&gt;Node12</title>
<g id="a_edge12_Node000011_Node000012"><a xlink:title=" ">
<path fill="none" stroke="#63b8ff" d="M457.95,-373.48C435.89,-378.44 412.39,-383.73 390.93,-388.55"/>
<polygon fill="#63b8ff" stroke="#63b8ff" points="458.52,-376.93 467.51,-371.33 456.98,-370.11 458.52,-376.93"/>
</a>
</g>
</g>
<!-- Node12&#45;&gt;Node8 -->
<g id="edge13_Node000012_Node000008" class="edge">
<title>Node12&#45;&gt;Node8</title>
<g id="a_edge13_Node000012_Node000008"><a xlink:title=" ">
<path fill="none" stroke="#63b8ff" d="M209.63,-405.29C197.12,-405.23 184.47,-405.18 172.31,-405.12"/>
<polygon fill="#63b8ff" stroke="#63b8ff" points="209.52,-408.79 219.54,-405.33 209.55,-401.79 209.52,-408.79"/>
</a>
</g>
</g>
<!-- Node12&#45;&gt;Node9 -->
<g id="edge14_Node000012_Node000009" class="edge">
<title>Node12&#45;&gt;Node9</title>
<g id="a_edge14_Node000012_Node000009"><a xlink:title=" ">
<path fill="none" stroke="#63b8ff" d="M220.26,-427.61C217.6,-428.91 215.01,-430.29 212.5,-431.75 192.67,-443.28 196.13,-456.87 176.5,-468.75 170.96,-472.11 164.95,-475.05 158.77,-477.64"/>
<polygon fill="#63b8ff" stroke="#63b8ff" points="221.65,-430.82 229.38,-423.57 218.82,-424.42 221.65,-430.82"/>
</a>
</g>
</g>
<!-- Node12&#45;&gt;Node10 -->
<g id="edge15_Node000012_Node000010" class="edge">
<title>Node12&#45;&gt;Node10</title>
<g id="a_edge15_Node000012_Node000010"><a xlink:title=" ">
<path fill="none" stroke="#63b8ff" d="M213.94,-425.17C190.03,-429.89 165.31,-434.76 144.24,-438.91"/>
<polygon fill="#63b8ff" stroke="#63b8ff" points="214.61,-428.61 223.74,-423.24 213.25,-421.74 214.61,-428.61"/>
</a>
</g>
</g>
<!-- Node13&#45;&gt;Node7 -->
<g id="edge18_Node000013_Node000007" class="edge">
<title>Node13&#45;&gt;Node7</title>
<g id="a_edge18_Node000013_Node000007"><a xlink:title=" ">
<path fill="none" stroke="#63b8ff" d="M457.95,-425.48C435.89,-430.44 412.39,-435.73 390.93,-440.55"/>
<polygon fill="#63b8ff" stroke="#63b8ff" points="458.52,-428.93 467.51,-423.33 456.98,-422.11 458.52,-428.93"/>
</a>
</g>
</g>
<!-- Node13&#45;&gt;Node12 -->
<g id="edge17_Node000013_Node000012" class="edge">
<title>Node13&#45;&gt;Node12</title>
<g id="a_edge17_Node000013_Node000012"><a xlink:title=" ">
<path fill="none" stroke="#63b8ff" d="M449.1,-405.75C434.7,-405.75 419.9,-405.75 405.61,-405.75"/>
<polygon fill="#63b8ff" stroke="#63b8ff" points="449.03,-409.25 459.03,-405.75 449.03,-402.25 449.03,-409.25"/>
</a>
</g>
</g>
<!-- Node15 -->
<g id="Node000015" class="node">
<title>Node15</title>
<g id="a_Node000015"><a xlink:href="classGreenFHom3DPer2D.html#a268d4706bd313c8eadb38e26b15184f0" target="_top" xlink:title="Scalar &#160;for a specific lattice translation.">
<polygon fill="white" stroke="#666666" points="396.5,-331.5 230.5,-331.5 230.5,-298 396.5,-298 396.5,-331.5"/>
<text xml:space="preserve" text-anchor="start" x="238.5" y="-318" font-family="Helvetica,sans-Serif" font-size="10.00">GreenFHom3DPer2D::Evaluate</text>
<text xml:space="preserve" text-anchor="middle" x="313.5" y="-305.25" font-family="Helvetica,sans-Serif" font-size="10.00">Translate</text>
</a>
</g>
</g>
<!-- Node14&#45;&gt;Node15 -->
<g id="edge20_Node000014_Node000015" class="edge">
<title>Node14&#45;&gt;Node15</title>
<g id="a_edge20_Node000014_Node000015"><a xlink:title=" ">
<path fill="none" stroke="#63b8ff" d="M441.86,-311.44C426.82,-311.83 411.52,-312.23 396.98,-312.61"/>
<polygon fill="#63b8ff" stroke="#63b8ff" points="441.86,-314.94 451.77,-311.19 441.68,-307.95 441.86,-314.94"/>
</a>
</g>
</g>
<!-- Node16 -->
<g id="Node000016" class="node">
<title>Node16</title>
<g id="a_Node000016"><a xlink:href="classGreenFHom3DPer2D.html#a359a21bc178e1c0d21125f8af5ae4fcb" target="_top" xlink:title="Ewald&#45;summed scalar kernel (2D periodic).">
<polygon fill="white" stroke="#666666" points="389.75,-370.12 237.25,-370.12 237.25,-349.38 389.75,-349.38 389.75,-370.12"/>
<text xml:space="preserve" text-anchor="middle" x="313.5" y="-356.62" font-family="Helvetica,sans-Serif" font-size="10.00">GreenFHom3DPer2D::Ewald</text>
</a>
</g>
</g>
<!-- Node14&#45;&gt;Node16 -->
<g id="edge21_Node000014_Node000016" class="edge">
<title>Node14&#45;&gt;Node16</title>
<g id="a_edge21_Node000014_Node000016"><a xlink:title=" ">
<path fill="none" stroke="#63b8ff" d="M473.17,-322.05C465.48,-323.81 457.8,-325.71 450.5,-327.75 434.11,-332.32 430.91,-336.26 414.5,-340.75 403.34,-343.81 391.34,-346.54 379.66,-348.92"/>
<polygon fill="#63b8ff" stroke="#63b8ff" points="473.92,-325.47 482.93,-319.9 472.41,-318.63 473.92,-325.47"/>
</a>
</g>
</g>
<!-- Node17 -->
<g id="Node000017" class="node">
<title>Node17</title>
<g id="a_Node000017"><a xlink:href="classGreenFHom3DPer2D.html#a4fcccf5350453546ac226492ff19bcd0" target="_top" xlink:title="Scalar Bloch&#45;periodic Green&#39;s function .">
<polygon fill="white" stroke="#666666" points="171.25,-370.12 5.25,-370.12 5.25,-349.38 171.25,-349.38 171.25,-370.12"/>
<text xml:space="preserve" text-anchor="middle" x="88.25" y="-356.62" font-family="Helvetica,sans-Serif" font-size="10.00">GreenFHom3DPer2D::Evaluate</text>
</a>
</g>
</g>
<!-- Node16&#45;&gt;Node17 -->
<g id="edge22_Node000016_Node000017" class="edge">
<title>Node16&#45;&gt;Node17</title>
<g id="a_edge22_Node000016_Node000017"><a xlink:title=" ">
<path fill="none" stroke="#63b8ff" d="M225.43,-359.75C207.74,-359.75 189.17,-359.75 171.65,-359.75"/>
<polygon fill="#63b8ff" stroke="#63b8ff" points="225.4,-363.25 235.4,-359.75 225.4,-356.25 225.4,-363.25"/>
</a>
</g>
</g>
<!-- Node19 -->
<g id="Node000019" class="node">
<title>Node19</title>
<g id="a_Node000019"><a xlink:href="classGreenFHom3DPer2D.html#aa6a46238cd2d01600780fd176a36971d" target="_top" xlink:title="Ewald&#45;summed smoothed scalar kernel.">
<polygon fill="white" stroke="#666666" points="414.5,-228.12 212.5,-228.12 212.5,-207.38 414.5,-207.38 414.5,-228.12"/>
<text xml:space="preserve" text-anchor="middle" x="313.5" y="-214.62" font-family="Helvetica,sans-Serif" font-size="10.00">GreenFHom3DPer2D::EwaldSmoothed</text>
</a>
</g>
</g>
<!-- Node18&#45;&gt;Node19 -->
<g id="edge24_Node000018_Node000019" class="edge">
<title>Node18&#45;&gt;Node19</title>
<g id="a_edge24_Node000018_Node000019"><a xlink:title=" ">
<path fill="none" stroke="#63b8ff" d="M441.89,-221.61C432.83,-221.33 423.68,-221.06 414.66,-220.78"/>
<polygon fill="#63b8ff" stroke="#63b8ff" points="441.67,-225.1 451.77,-221.91 441.88,-218.11 441.67,-225.1"/>
</a>
</g>
</g>
<!-- Node21 -->
<g id="Node000021" class="node">
<title>Node21</title>
<g id="a_Node000021"><a xlink:href="classGreenFHom3DPer2D.html#ab327d41ca91c33e57a154eae221b4016" target="_top" xlink:title="Smoothed scalar kernel &#160;for a specific translation.">
<polygon fill="white" stroke="#666666" points="399.88,-279.5 227.12,-279.5 227.12,-246 399.88,-246 399.88,-279.5"/>
<text xml:space="preserve" text-anchor="start" x="235.12" y="-266" font-family="Helvetica,sans-Serif" font-size="10.00">GreenFHom3DPer2D::Smoothed</text>
<text xml:space="preserve" text-anchor="middle" x="313.5" y="-253.25" font-family="Helvetica,sans-Serif" font-size="10.00">Translate</text>
</a>
</g>
</g>
<!-- Node18&#45;&gt;Node21 -->
<g id="edge26_Node000018_Node000021" class="edge">
<title>Node18&#45;&gt;Node21</title>
<g id="a_edge26_Node000018_Node000021"><a xlink:title=" ">
<path fill="none" stroke="#63b8ff" d="M442.14,-241.76C428.16,-244.06 413.95,-246.4 400.32,-248.64"/>
<polygon fill="#63b8ff" stroke="#63b8ff" points="442.49,-245.25 451.79,-240.18 441.35,-238.35 442.49,-245.25"/>
</a>
</g>
</g>
<!-- Node20 -->
<g id="Node000020" class="node">
<title>Node20</title>
<g id="a_Node000020"><a xlink:href="classGreenFHom3DPer2D.html#a6ab5b9db19bf30afa1828652d428d4a8" target="_top" xlink:title="Smoothed scalar kernel .">
<polygon fill="white" stroke="#666666" points="174.62,-228.12 1.88,-228.12 1.88,-207.38 174.62,-207.38 174.62,-228.12"/>
<text xml:space="preserve" text-anchor="middle" x="88.25" y="-214.62" font-family="Helvetica,sans-Serif" font-size="10.00">GreenFHom3DPer2D::Smoothed</text>
</a>
</g>
</g>
<!-- Node19&#45;&gt;Node20 -->
<g id="edge25_Node000019_Node000020" class="edge">
<title>Node19&#45;&gt;Node20</title>
<g id="a_edge25_Node000019_Node000020"><a xlink:title=" ">
<path fill="none" stroke="#63b8ff" d="M200.82,-217.75C192.08,-217.75 183.33,-217.75 174.8,-217.75"/>
<polygon fill="#63b8ff" stroke="#63b8ff" points="200.79,-221.25 210.79,-217.75 200.79,-214.25 200.79,-221.25"/>
</a>
</g>
</g>
<!-- Node22&#45;&gt;Node15 -->
<g id="edge28_Node000022_Node000015" class="edge">
<title>Node22&#45;&gt;Node15</title>
<g id="a_edge28_Node000022_Node000015"><a xlink:title=" ">
<path fill="none" stroke="#63b8ff" d="M478.87,-282.75C453.25,-287.74 423.71,-293.49 396.79,-298.73"/>
<polygon fill="#63b8ff" stroke="#63b8ff" points="479.34,-286.22 488.49,-280.88 478,-279.35 479.34,-286.22"/>
</a>
</g>
</g>
<!-- Node22&#45;&gt;Node16 -->
<g id="edge29_Node000022_Node000016" class="edge">
<title>Node22&#45;&gt;Node16</title>
<g id="a_edge29_Node000022_Node000016"><a xlink:title=" ">
<path fill="none" stroke="#63b8ff" d="M458.48,-285.11C455.73,-286.53 453.06,-288.07 450.5,-289.75 427.32,-304.99 437.83,-325.73 414.5,-340.75 407.07,-345.53 398.73,-349.17 390.11,-351.93"/>
<polygon fill="#63b8ff" stroke="#63b8ff" points="459.7,-288.4 467.4,-281.13 456.85,-282.01 459.7,-288.4"/>
</a>
</g>
</g>
<!-- Node22&#45;&gt;Node19 -->
<g id="edge30_Node000022_Node000019" class="edge">
<title>Node22&#45;&gt;Node19</title>
<g id="a_edge30_Node000022_Node000019"><a xlink:title=" ">
<path fill="none" stroke="#63b8ff" d="M472.17,-256.41C464.81,-254.68 457.48,-252.79 450.5,-250.75 434.02,-245.94 431,-241.48 414.5,-236.75 403.71,-233.66 392.13,-230.93 380.8,-228.57"/>
<polygon fill="#63b8ff" stroke="#63b8ff" points="471.33,-259.81 481.86,-258.59 472.87,-252.98 471.33,-259.81"/>
</a>
</g>
</g>
<!-- Node22&#45;&gt;Node21 -->
<g id="edge31_Node000022_Node000021" class="edge">
<title>Node22&#45;&gt;Node21</title>
<g id="a_edge31_Node000022_Node000021"><a xlink:title=" ">
<path fill="none" stroke="#63b8ff" d="M438.97,-266.52C426.04,-266.13 412.95,-265.73 400.37,-265.35"/>
<polygon fill="#63b8ff" stroke="#63b8ff" points="438.67,-270.01 448.77,-266.82 438.88,-263.02 438.67,-270.01"/>
</a>
</g>
</g>
<!-- Node24 -->
<g id="Node000024" class="node">
<title>Node24</title>
<g id="a_Node000024"><a xlink:href="classGreenFHom3DPer2D.html#afdc08576760ed0ae9a61dc378a7faac3" target="_top" xlink:title="Ewald&#45;summed source&#45;gradient.">
<polygon fill="white" stroke="#666666" points="396.12,-33.5 230.88,-33.5 230.88,0 396.12,0 396.12,-33.5"/>
<text xml:space="preserve" text-anchor="start" x="238.88" y="-20" font-family="Helvetica,sans-Serif" font-size="10.00">GreenFHom3DPer2D::Gradient</text>
<text xml:space="preserve" text-anchor="middle" x="313.5" y="-7.25" font-family="Helvetica,sans-Serif" font-size="10.00">Ewald</text>
</a>
</g>
</g>
<!-- Node23&#45;&gt;Node24 -->
<g id="edge33_Node000023_Node000024" class="edge">
<title>Node23&#45;&gt;Node24</title>
<g id="a_edge33_Node000023_Node000024"><a xlink:title=" ">
<path fill="none" stroke="#63b8ff" d="M457.95,-49.02C435.89,-44.06 412.39,-38.77 390.93,-33.95"/>
<polygon fill="#63b8ff" stroke="#63b8ff" points="456.98,-52.39 467.51,-51.17 458.52,-45.57 456.98,-52.39"/>
</a>
</g>
</g>
<!-- Node26 -->
<g id="Node000026" class="node">
<title>Node26</title>
<g id="a_Node000026"><a xlink:href="classGreenFHom3DPer2D.html#abfe000753f5712d72cef880cd4a64b3a" target="_top" xlink:title="Source&#45;gradient for a specific translation.">
<polygon fill="white" stroke="#666666" points="396.12,-85.5 230.88,-85.5 230.88,-52 396.12,-52 396.12,-85.5"/>
<text xml:space="preserve" text-anchor="start" x="238.88" y="-72" font-family="Helvetica,sans-Serif" font-size="10.00">GreenFHom3DPer2D::Gradient</text>
<text xml:space="preserve" text-anchor="middle" x="313.5" y="-59.25" font-family="Helvetica,sans-Serif" font-size="10.00">Translate</text>
</a>
</g>
</g>
<!-- Node23&#45;&gt;Node26 -->
<g id="edge35_Node000023_Node000026" class="edge">
<title>Node23&#45;&gt;Node26</title>
<g id="a_edge35_Node000023_Node000026"><a xlink:title=" ">
<path fill="none" stroke="#63b8ff" d="M452.43,-68.75C433.95,-68.75 414.67,-68.75 396.59,-68.75"/>
<polygon fill="#63b8ff" stroke="#63b8ff" points="452.3,-72.25 462.3,-68.75 452.3,-65.25 452.3,-72.25"/>
</a>
</g>
</g>
<!-- Node25 -->
<g id="Node000025" class="node">
<title>Node25</title>
<g id="a_Node000025"><a xlink:href="classGreenFHom3DPer2D.html#adff724f327912641a20c99fa4c9bb464" target="_top" xlink:title="Source&#45;gradient .">
<polygon fill="white" stroke="#666666" points="170.88,-27.12 5.62,-27.12 5.62,-6.38 170.88,-6.38 170.88,-27.12"/>
<text xml:space="preserve" text-anchor="middle" x="88.25" y="-13.62" font-family="Helvetica,sans-Serif" font-size="10.00">GreenFHom3DPer2D::Gradient</text>
</a>
</g>
</g>
<!-- Node24&#45;&gt;Node25 -->
<g id="edge34_Node000024_Node000025" class="edge">
<title>Node24&#45;&gt;Node25</title>
<g id="a_edge34_Node000024_Node000025"><a xlink:title=" ">
<path fill="none" stroke="#63b8ff" d="M219.13,-16.75C203.18,-16.75 186.72,-16.75 171.1,-16.75"/>
<polygon fill="#63b8ff" stroke="#63b8ff" points="219.12,-20.25 229.12,-16.75 219.12,-13.25 219.12,-20.25"/>
</a>
</g>
</g>
<!-- Node27 -->
<g id="Node000027" class="node">
<title>Node27</title>
<g id="a_Node000027"><a xlink:href="classGreenFHom3DPer2D.html#aadb534ef4509422e6f3e78a0e3999758" target="_top" xlink:title="term at an observation point.">
<polygon fill="white" stroke="#666666" points="172,-111.5 4.5,-111.5 4.5,-78 172,-78 172,-111.5"/>
<text xml:space="preserve" text-anchor="start" x="12.5" y="-98" font-family="Helvetica,sans-Serif" font-size="10.00">GreenFHom3DPer2D::Integrate</text>
<text xml:space="preserve" text-anchor="middle" x="88.25" y="-85.25" font-family="Helvetica,sans-Serif" font-size="10.00">Kappa</text>
</a>
</g>
</g>
<!-- Node26&#45;&gt;Node27 -->
<g id="edge36_Node000026_Node000027" class="edge">
<title>Node26&#45;&gt;Node27</title>
<g id="a_edge36_Node000026_Node000027"><a xlink:title=" ">
<path fill="none" stroke="#63b8ff" d="M219.36,-79.6C203.72,-81.42 187.58,-83.3 172.22,-85.09"/>
<polygon fill="#63b8ff" stroke="#63b8ff" points="219.61,-83.09 229.13,-78.46 218.8,-76.14 219.61,-83.09"/>
</a>
</g>
</g>
<!-- Node29 -->
<g id="Node000029" class="node">
<title>Node29</title>
<g id="a_Node000029"><a xlink:href="classGreenFHom3DPer2D.html#a86d2cbdfe3ecb724651159902fabcdad" target="_top" xlink:title="Ewald&#45;summed smoothed source&#45;gradient.">
<polygon fill="white" stroke="#666666" points="396.12,-189.5 230.88,-189.5 230.88,-156 396.12,-156 396.12,-189.5"/>
<text xml:space="preserve" text-anchor="start" x="238.88" y="-176" font-family="Helvetica,sans-Serif" font-size="10.00">GreenFHom3DPer2D::Gradient</text>
<text xml:space="preserve" text-anchor="middle" x="313.5" y="-163.25" font-family="Helvetica,sans-Serif" font-size="10.00">EwaldSmoothed</text>
</a>
</g>
</g>
<!-- Node28&#45;&gt;Node29 -->
<g id="edge38_Node000028_Node000029" class="edge">
<title>Node28&#45;&gt;Node29</title>
<g id="a_edge38_Node000028_Node000029"><a xlink:title=" ">
<path fill="none" stroke="#63b8ff" d="M452.43,-172.75C433.95,-172.75 414.67,-172.75 396.59,-172.75"/>
<polygon fill="#63b8ff" stroke="#63b8ff" points="452.3,-176.25 462.3,-172.75 452.3,-169.25 452.3,-176.25"/>
</a>
</g>
</g>
<!-- Node31 -->
<g id="Node000031" class="node">
<title>Node31</title>
<g id="a_Node000031"><a xlink:href="classGreenFHom3DPer2D.html#a410f5349268917cf86215e766118032c" target="_top" xlink:title="Smoothed source&#45;gradient for a specific translation.">
<polygon fill="white" stroke="#666666" points="396.12,-137.5 230.88,-137.5 230.88,-104 396.12,-104 396.12,-137.5"/>
<text xml:space="preserve" text-anchor="start" x="238.88" y="-124" font-family="Helvetica,sans-Serif" font-size="10.00">GreenFHom3DPer2D::Gradient</text>
<text xml:space="preserve" text-anchor="middle" x="313.5" y="-111.25" font-family="Helvetica,sans-Serif" font-size="10.00">SmoothedTranslate</text>
</a>
</g>
</g>
<!-- Node28&#45;&gt;Node31 -->
<g id="edge40_Node000028_Node000031" class="edge">
<title>Node28&#45;&gt;Node31</title>
<g id="a_edge40_Node000028_Node000031"><a xlink:title=" ">
<path fill="none" stroke="#63b8ff" d="M457.95,-153.02C435.89,-148.06 412.39,-142.77 390.93,-137.95"/>
<polygon fill="#63b8ff" stroke="#63b8ff" points="456.98,-156.39 467.51,-155.17 458.52,-149.57 456.98,-156.39"/>
</a>
</g>
</g>
<!-- Node30 -->
<g id="Node000030" class="node">
<title>Node30</title>
<g id="a_Node000030"><a xlink:href="classGreenFHom3DPer2D.html#accc5e668a1b137a5279747db2ef0d560" target="_top" xlink:title="Smoothed source&#45;gradient .">
<polygon fill="white" stroke="#666666" points="170.88,-189.5 5.62,-189.5 5.62,-156 170.88,-156 170.88,-189.5"/>
<text xml:space="preserve" text-anchor="start" x="13.62" y="-176" font-family="Helvetica,sans-Serif" font-size="10.00">GreenFHom3DPer2D::Gradient</text>
<text xml:space="preserve" text-anchor="middle" x="88.25" y="-163.25" font-family="Helvetica,sans-Serif" font-size="10.00">Smoothed</text>
</a>
</g>
</g>
<!-- Node29&#45;&gt;Node30 -->
<g id="edge39_Node000029_Node000030" class="edge">
<title>Node29&#45;&gt;Node30</title>
<g id="a_edge39_Node000029_Node000030"><a xlink:title=" ">
<path fill="none" stroke="#63b8ff" d="M219.13,-172.75C203.18,-172.75 186.72,-172.75 171.1,-172.75"/>
<polygon fill="#63b8ff" stroke="#63b8ff" points="219.12,-176.25 229.12,-172.75 219.12,-169.25 219.12,-176.25"/>
</a>
</g>
</g>
<!-- Node31&#45;&gt;Node27 -->
<g id="edge41_Node000031_Node000027" class="edge">
<title>Node31&#45;&gt;Node27</title>
<g id="a_edge41_Node000031_Node000027"><a xlink:title=" ">
<path fill="none" stroke="#63b8ff" d="M219.36,-109.9C203.72,-108.08 187.58,-106.2 172.22,-104.41"/>
<polygon fill="#63b8ff" stroke="#63b8ff" points="218.8,-113.36 229.13,-111.04 219.61,-106.41 218.8,-113.36"/>
</a>
</g>
</g>
<!-- Node32&#45;&gt;Node24 -->
<g id="edge43_Node000032_Node000024" class="edge">
<title>Node32&#45;&gt;Node24</title>
<g id="a_edge43_Node000032_Node000024"><a xlink:title=" ">
<path fill="none" stroke="#63b8ff" d="M456.01,-98.35C454.12,-97.21 452.28,-96.01 450.5,-94.75 427.56,-78.51 437.54,-58.85 414.5,-42.75 408.91,-38.85 402.78,-35.53 396.39,-32.71"/>
<polygon fill="#63b8ff" stroke="#63b8ff" points="454,-101.25 464.47,-102.88 457.3,-95.08 454,-101.25"/>
</a>
</g>
</g>
<!-- Node32&#45;&gt;Node26 -->
<g id="edge46_Node000032_Node000026" class="edge">
<title>Node32&#45;&gt;Node26</title>
<g id="a_edge46_Node000032_Node000026"><a xlink:title=" ">
<path fill="none" stroke="#63b8ff" d="M457.95,-101.02C435.89,-96.06 412.39,-90.77 390.93,-85.95"/>
<polygon fill="#63b8ff" stroke="#63b8ff" points="456.98,-104.39 467.51,-103.17 458.52,-97.57 456.98,-104.39"/>
</a>
</g>
</g>
<!-- Node32&#45;&gt;Node29 -->
<g id="edge44_Node000032_Node000029" class="edge">
<title>Node32&#45;&gt;Node29</title>
<g id="a_edge44_Node000032_Node000029"><a xlink:title=" ">
<path fill="none" stroke="#63b8ff" d="M457.95,-140.48C435.89,-145.44 412.39,-150.73 390.93,-155.55"/>
<polygon fill="#63b8ff" stroke="#63b8ff" points="458.52,-143.93 467.51,-138.33 456.98,-137.11 458.52,-143.93"/>
</a>
</g>
</g>
<!-- Node32&#45;&gt;Node31 -->
<g id="edge45_Node000032_Node000031" class="edge">
<title>Node32&#45;&gt;Node31</title>
<g id="a_edge45_Node000032_Node000031"><a xlink:title=" ">
<path fill="none" stroke="#63b8ff" d="M452.43,-120.75C433.95,-120.75 414.67,-120.75 396.59,-120.75"/>
<polygon fill="#63b8ff" stroke="#63b8ff" points="452.3,-124.25 462.3,-120.75 452.3,-117.25 452.3,-124.25"/>
</a>
</g>
</g>
</g>
</svg>

<g id="navigator" transform="translate(0 0)" fill="#404254">
  <rect fill="#f2f5e9" fill-opacity="0.5" stroke="#606060" stroke-width=".5" x="0" y="0" width="60" height="60"/>
  <use id="zoomplus" xlink:href="#zoomPlus" x="17" y="9" onmousedown="handleZoom(evt,'in')"/>
  <use id="zoomminus" xlink:href="#zoomMin" x="42" y="9" onmousedown="handleZoom(evt,'out')"/>
  <use id="reset" xlink:href="#resetDef" x="30" y="36" onmousedown="handleReset()"/>
   <use id="arrowup" xlink:href="#arrowUp" x="0" y="0" onmousedown="handlePan(0,-1)"/>
  <use id="arrowright" xlink:href="#arrowRight" x="0" y="0" onmousedown="handlePan(1,0)"/>
  <use id="arrowdown" xlink:href="#arrowDown" x="0" y="0" onmousedown="handlePan(0,1)"/>
  <use id="arrowleft" xlink:href="#arrowLeft" x="0" y="0" onmousedown="handlePan(-1,0)"/>
</g>
<svg viewBox="0 0 15 15" width="100%" height="30px" preserveAspectRatio="xMaxYMin meet">
 <g id="arrow_out" transform="scale(0.3 0.3)">
  <a xlink:href="mathFunctions_8h_a7916c6b62310fe9cf38ec2a2890aaad4_icgraph_org.svg" target="_base">
   <rect id="button" ry="5" rx="5" y="6" x="6" height="38" width="38"
        fill="#f2f5e9" fill-opacity="0.5" stroke="#606060" stroke-width="1.0"/>
   <path id="arrow"
     d="M 11.500037,31.436501 C 11.940474,20.09759 22.043105,11.32322 32.158766,21.979434 L 37.068811,17.246167 C 37.068811,17.246167 37.088388,32 37.088388,32 L 22.160133,31.978069 C 22.160133,31.978069 26.997745,27.140456 26.997745,27.140456 C 18.528582,18.264221 13.291696,25.230495 11.500037,31.436501 z"
     style="fill:#404040;"/>
  </a>
 </g>
</svg>

<style type='text/css'>
<![CDATA[
[data-mouse-over-selected='false'] { opacity: 0.7; }
[data-mouse-over-selected='true']  { opacity: 1.0; }
]]>
</style>
<script type="application/ecmascript"><![CDATA[
document.addEventListener('DOMContentLoaded', (event) => {
  highlightEdges();
  highlightAdjacentNodes();
});
]]></script>
</svg>
