<?xml version="1.0" encoding="UTF-8" standalone="no"?>
<!DOCTYPE svg PUBLIC "-//W3C//DTD SVG 1.1//EN"
 "http://www.w3.org/Graphics/SVG/1.1/DTD/svg11.dtd">
<!-- Generated by graphviz version 13.1.2 (20250809.0930)
 -->
<!-- Title: mathFunctions.cpp Pages: 1 -->
<svg width="585pt" height="199pt"
 viewBox="0.00 0.00 585.00 199.00" xmlns="http://www.w3.org/2000/svg" xmlns:xlink="http://www.w3.org/1999/xlink">
<g id="graph0" class="graph" transform="scale(1 1) rotate(0) translate(4 195)">
<title>mathFunctions.cpp</title>
<!-- Node1 -->
<g id="Node000001" class="node">
<title>Node1</title>
<g id="a_Node000001"><a xlink:title=" ">
<polygon fill="#999999" stroke="#666666" points="381.5,-191 273.25,-191 273.25,-170.25 381.5,-170.25 381.5,-191"/>
<text xml:space="preserve" text-anchor="middle" x="327.38" y="-177.5" font-family="Helvetica,sans-Serif" font-size="10.00">mathFunctions.cpp</text>
</a>
</g>
</g>
<!-- Node2 -->
<g id="Node000002" class="node">
<title>Node2</title>
<g id="a_Node000002"><a xlink:href="mathFunctions_8h.html" target="_top" xlink:title="Header file of the class that provides auxiliary mathematical functionalities for the SIE solver.">
<polygon fill="white" stroke="#666666" points="191.88,-134.25 94.88,-134.25 94.88,-113.5 191.88,-113.5 191.88,-134.25"/>
<text xml:space="preserve" text-anchor="middle" x="143.38" y="-120.75" font-family="Helvetica,sans-Serif" font-size="10.00">mathFunctions.h</text>
</a>
</g>
</g>
<!-- Node1&#45;&gt;Node2 -->
<g id="edge1_Node000001_Node000002" class="edge">
<title>Node1&#45;&gt;Node2</title>
<g id="a_edge1_Node000001_Node000002"><a xlink:title=" ">
<path fill="none" stroke="#63b8ff" d="M294.48,-169.84C264.48,-160.91 219.95,-147.66 186.99,-137.85"/>
<polygon fill="#63b8ff" stroke="#63b8ff" points="188.33,-134.6 177.75,-135.1 186.33,-141.31 188.33,-134.6"/>
</a>
</g>
</g>
<!-- Node9 -->
<g id="Node000009" class="node">
<title>Node9</title>
<g id="a_Node000009"><a xlink:title=" ">
<polygon fill="#e0e0e0" stroke="#999999" points="402.5,-20.75 306.25,-20.75 306.25,0 402.5,0 402.5,-20.75"/>
<text xml:space="preserve" text-anchor="middle" x="354.38" y="-7.25" font-family="Helvetica,sans-Serif" font-size="10.00">blitz/tvecglobs.h</text>
</a>
</g>
</g>
<!-- Node1&#45;&gt;Node9 -->
<g id="edge10_Node000001_Node000009" class="edge">
<title>Node1&#45;&gt;Node9</title>
<g id="a_edge10_Node000001_Node000009"><a xlink:title=" ">
<path fill="none" stroke="#63b8ff" d="M321.23,-169.92C308.52,-148.54 282.02,-96.15 300.38,-56.75 305.9,-44.89 316.22,-35.03 326.37,-27.56"/>
<polygon fill="#63b8ff" stroke="#63b8ff" points="328.3,-30.48 334.63,-21.99 324.38,-24.67 328.3,-30.48"/>
</a>
</g>
</g>
<!-- Node10 -->
<g id="Node000010" class="node">
<title>Node10</title>
<g id="a_Node000010"><a xlink:title=" ">
<polygon fill="#e0e0e0" stroke="#999999" points="363.5,-77.5 309.25,-77.5 309.25,-56.75 363.5,-56.75 363.5,-77.5"/>
<text xml:space="preserve" text-anchor="middle" x="336.38" y="-64" font-family="Helvetica,sans-Serif" font-size="10.00">fstream</text>
</a>
</g>
</g>
<!-- Node1&#45;&gt;Node10 -->
<g id="edge11_Node000001_Node000010" class="edge">
<title>Node1&#45;&gt;Node10</title>
<g id="a_edge11_Node000001_Node000010"><a xlink:title=" ">
<path fill="none" stroke="#63b8ff" d="M328.14,-170.12C329.58,-152.27 332.72,-113.36 334.68,-89.09"/>
<polygon fill="#63b8ff" stroke="#63b8ff" points="338.15,-89.68 335.46,-79.43 331.17,-89.12 338.15,-89.68"/>
</a>
</g>
</g>
<!-- Node11 -->
<g id="Node000011" class="node">
<title>Node11</title>
<g id="a_Node000011"><a xlink:title=" ">
<polygon fill="#e0e0e0" stroke="#999999" points="441.12,-77.5 381.62,-77.5 381.62,-56.75 441.12,-56.75 441.12,-77.5"/>
<text xml:space="preserve" text-anchor="middle" x="411.38" y="-64" font-family="Helvetica,sans-Serif" font-size="10.00">iostream</text>
</a>
</g>
</g>
<!-- Node1&#45;&gt;Node11 -->
<g id="edge12_Node000001_Node000011" class="edge">
<title>Node1&#45;&gt;Node11</title>
<g id="a_edge12_Node000001_Node000011"><a xlink:title=" ">
<path fill="none" stroke="#63b8ff" d="M334.54,-170.12C348.42,-151.7 379.2,-110.84 397.31,-86.8"/>
<polygon fill="#63b8ff" stroke="#63b8ff" points="399.86,-89.23 403.08,-79.13 394.27,-85.02 399.86,-89.23"/>
</a>
</g>
</g>
<!-- Node12 -->
<g id="Node000012" class="node">
<title>Node12</title>
<g id="a_Node000012"><a xlink:href="iofunctions_8h.html" target="_top" xlink:title="Small helper templates for reading whitespace&#45;separated values from text files while skipping line co...">
<polygon fill="white" stroke="#666666" points="472.88,-134.25 393.88,-134.25 393.88,-113.5 472.88,-113.5 472.88,-134.25"/>
<text xml:space="preserve" text-anchor="middle" x="433.38" y="-120.75" font-family="Helvetica,sans-Serif" font-size="10.00">iofunctions.h</text>
</a>
</g>
</g>
<!-- Node1&#45;&gt;Node12 -->
<g id="edge13_Node000001_Node000012" class="edge">
<title>Node1&#45;&gt;Node12</title>
<g id="a_edge13_Node000001_Node000012"><a xlink:title=" ">
<path fill="none" stroke="#63b8ff" d="M346.33,-169.84C362.45,-161.51 385.88,-149.41 404.37,-139.86"/>
<polygon fill="#63b8ff" stroke="#63b8ff" points="405.96,-142.97 413.24,-135.27 402.75,-136.75 405.96,-142.97"/>
</a>
</g>
</g>
<!-- Node3 -->
<g id="Node000003" class="node">
<title>Node3</title>
<g id="a_Node000003"><a xlink:title=" ">
<polygon fill="#e0e0e0" stroke="#999999" points="115.62,-77.5 65.12,-77.5 65.12,-56.75 115.62,-56.75 115.62,-77.5"/>
<text xml:space="preserve" text-anchor="middle" x="90.38" y="-64" font-family="Helvetica,sans-Serif" font-size="10.00">math.h</text>
</a>
</g>
</g>
<!-- Node2&#45;&gt;Node3 -->
<g id="edge2_Node000002_Node000003" class="edge">
<title>Node2&#45;&gt;Node3</title>
<g id="a_edge2_Node000002_Node000003"><a xlink:title=" ">
<path fill="none" stroke="#63b8ff" d="M133.9,-113.09C126.59,-105.53 116.28,-94.89 107.53,-85.85"/>
<polygon fill="#63b8ff" stroke="#63b8ff" points="110.29,-83.67 100.82,-78.92 105.26,-88.54 110.29,-83.67"/>
</a>
</g>
</g>
<!-- Node4 -->
<g id="Node000004" class="node">
<title>Node4</title>
<g id="a_Node000004"><a xlink:title=" ">
<polygon fill="#e0e0e0" stroke="#999999" points="87.38,-20.75 29.38,-20.75 29.38,0 87.38,0 87.38,-20.75"/>
<text xml:space="preserve" text-anchor="middle" x="58.38" y="-7.25" font-family="Helvetica,sans-Serif" font-size="10.00">complex</text>
</a>
</g>
</g>
<!-- Node2&#45;&gt;Node4 -->
<g id="edge3_Node000002_Node000004" class="edge">
<title>Node2&#45;&gt;Node4</title>
<g id="a_edge3_Node000002_Node000004"><a xlink:title=" ">
<path fill="none" stroke="#63b8ff" d="M142.62,-113C141.13,-99.23 136.8,-74 124.38,-56.75 115.4,-44.29 101.88,-34.13 89.41,-26.61"/>
<polygon fill="#63b8ff" stroke="#63b8ff" points="91.49,-23.76 81.06,-21.9 88.05,-29.86 91.49,-23.76"/>
</a>
</g>
</g>
<!-- Node5 -->
<g id="Node000005" class="node">
<title>Node5</title>
<g id="a_Node000005"><a xlink:title=" ">
<polygon fill="#e0e0e0" stroke="#999999" points="46.75,-77.5 0,-77.5 0,-56.75 46.75,-56.75 46.75,-77.5"/>
<text xml:space="preserve" text-anchor="middle" x="23.38" y="-64" font-family="Helvetica,sans-Serif" font-size="10.00">vector</text>
</a>
</g>
</g>
<!-- Node2&#45;&gt;Node5 -->
<g id="edge4_Node000002_Node000005" class="edge">
<title>Node2&#45;&gt;Node5</title>
<g id="a_edge4_Node000002_Node000005"><a xlink:title=" ">
<path fill="none" stroke="#63b8ff" d="M121.92,-113.09C103.32,-104.6 76.15,-92.2 55.05,-82.58"/>
<polygon fill="#63b8ff" stroke="#63b8ff" points="56.57,-79.42 46.02,-78.46 53.66,-85.79 56.57,-79.42"/>
</a>
</g>
</g>
<!-- Node6 -->
<g id="Node000006" class="node">
<title>Node6</title>
<g id="a_Node000006"><a xlink:href="globals_8h.html" target="_top" xlink:title="Global numerical constants, fundamental types, and simple macros.">
<polygon fill="white" stroke="#666666" points="231.5,-77.5 171.25,-77.5 171.25,-56.75 231.5,-56.75 231.5,-77.5"/>
<text xml:space="preserve" text-anchor="middle" x="201.38" y="-64" font-family="Helvetica,sans-Serif" font-size="10.00">globals.h</text>
</a>
</g>
</g>
<!-- Node2&#45;&gt;Node6 -->
<g id="edge5_Node000002_Node000006" class="edge">
<title>Node2&#45;&gt;Node6</title>
<g id="a_edge5_Node000002_Node000006"><a xlink:title=" ">
<path fill="none" stroke="#63b8ff" d="M153.74,-113.09C161.83,-105.46 173.26,-94.67 182.9,-85.57"/>
<polygon fill="#63b8ff" stroke="#63b8ff" points="185.13,-88.28 189.99,-78.87 180.32,-83.19 185.13,-88.28"/>
</a>
</g>
</g>
<!-- Node6&#45;&gt;Node4 -->
<g id="edge9_Node000006_Node000004" class="edge">
<title>Node6&#45;&gt;Node4</title>
<g id="a_edge9_Node000006_Node000004"><a xlink:title=" ">
<path fill="none" stroke="#63b8ff" d="M175.81,-56.34C153.14,-47.66 119.78,-34.88 94.4,-25.17"/>
<polygon fill="#63b8ff" stroke="#63b8ff" points="95.72,-21.93 85.13,-21.62 93.22,-28.46 95.72,-21.93"/>
</a>
</g>
</g>
<!-- Node7 -->
<g id="Node000007" class="node">
<title>Node7</title>
<g id="a_Node000007"><a xlink:title=" ">
<polygon fill="#e0e0e0" stroke="#999999" points="287.88,-20.75 214.88,-20.75 214.88,0 287.88,0 287.88,-20.75"/>
<text xml:space="preserve" text-anchor="middle" x="251.38" y="-7.25" font-family="Helvetica,sans-Serif" font-size="10.00">blitz/array.h</text>
</a>
</g>
</g>
<!-- Node6&#45;&gt;Node7 -->
<g id="edge6_Node000006_Node000007" class="edge">
<title>Node6&#45;&gt;Node7</title>
<g id="a_edge6_Node000006_Node000007"><a xlink:title=" ">
<path fill="none" stroke="#63b8ff" d="M210.31,-56.34C217.14,-48.86 226.74,-38.36 234.93,-29.38"/>
<polygon fill="#63b8ff" stroke="#63b8ff" points="237.33,-31.94 241.49,-22.2 232.16,-27.22 237.33,-31.94"/>
</a>
</g>
</g>
<!-- Node8 -->
<g id="Node000008" class="node">
<title>Node8</title>
<g id="a_Node000008"><a xlink:title=" ">
<polygon fill="#e0e0e0" stroke="#999999" points="196.88,-20.75 105.88,-20.75 105.88,0 196.88,0 196.88,-20.75"/>
<text xml:space="preserve" text-anchor="middle" x="151.38" y="-7.25" font-family="Helvetica,sans-Serif" font-size="10.00">blitz/tinyvec2.h</text>
</a>
</g>
</g>
<!-- Node6&#45;&gt;Node8 -->
<g id="edge7_Node000006_Node000008" class="edge">
<title>Node6&#45;&gt;Node8</title>
<g id="a_edge7_Node000006_Node000008"><a xlink:title=" ">
<path fill="none" stroke="#63b8ff" d="M192.44,-56.34C185.61,-48.86 176.01,-38.36 167.82,-29.38"/>
<polygon fill="#63b8ff" stroke="#63b8ff" points="170.59,-27.22 161.26,-22.2 165.42,-31.94 170.59,-27.22"/>
</a>
</g>
</g>
<!-- Node6&#45;&gt;Node9 -->
<g id="edge8_Node000006_Node000009" class="edge">
<title>Node6&#45;&gt;Node9</title>
<g id="a_edge8_Node000006_Node000009"><a xlink:title=" ">
<path fill="none" stroke="#63b8ff" d="M228.73,-56.34C253.13,-47.61 289.1,-34.73 316.31,-25"/>
<polygon fill="#63b8ff" stroke="#63b8ff" points="317.34,-28.35 325.58,-21.68 314.98,-21.75 317.34,-28.35"/>
</a>
</g>
</g>
<!-- Node12&#45;&gt;Node10 -->
<g id="edge14_Node000012_Node000010" class="edge">
<title>Node12&#45;&gt;Node10</title>
<g id="a_edge14_Node000012_Node000010"><a xlink:title=" ">
<path fill="none" stroke="#63b8ff" d="M416.03,-113.09C401.41,-104.83 380.24,-92.88 363.4,-83.38"/>
<polygon fill="#63b8ff" stroke="#63b8ff" points="365.31,-80.44 354.88,-78.57 361.87,-86.54 365.31,-80.44"/>
</a>
</g>
</g>
<!-- Node12&#45;&gt;Node11 -->
<g id="edge15_Node000012_Node000011" class="edge">
<title>Node12&#45;&gt;Node11</title>
<g id="a_edge15_Node000012_Node000011"><a xlink:title=" ">
<path fill="none" stroke="#63b8ff" d="M429.44,-113.09C426.69,-106.24 422.91,-96.84 419.52,-88.4"/>
<polygon fill="#63b8ff" stroke="#63b8ff" points="422.81,-87.21 415.84,-79.23 416.32,-89.82 422.81,-87.21"/>
</a>
</g>
</g>
<!-- Node13 -->
<g id="Node000013" class="node">
<title>Node13</title>
<g id="a_Node000013"><a xlink:title=" ">
<polygon fill="#e0e0e0" stroke="#999999" points="577.25,-77.5 521.5,-77.5 521.5,-56.75 577.25,-56.75 577.25,-77.5"/>
<text xml:space="preserve" text-anchor="middle" x="549.38" y="-64" font-family="Helvetica,sans-Serif" font-size="10.00">sstream</text>
</a>
</g>
</g>
<!-- Node12&#45;&gt;Node13 -->
<g id="edge16_Node000012_Node000013" class="edge">
<title>Node12&#45;&gt;Node13</title>
<g id="a_edge16_Node000012_Node000013"><a xlink:title=" ">
<path fill="none" stroke="#63b8ff" d="M454.11,-113.09C472.01,-104.64 498.12,-92.32 518.48,-82.71"/>
<polygon fill="#63b8ff" stroke="#63b8ff" points="519.9,-85.91 527.45,-78.47 516.91,-79.58 519.9,-85.91"/>
</a>
</g>
</g>
<!-- Node14 -->
<g id="Node000014" class="node">
<title>Node14</title>
<g id="a_Node000014"><a xlink:title=" ">
<polygon fill="#e0e0e0" stroke="#999999" points="503.25,-77.5 459.5,-77.5 459.5,-56.75 503.25,-56.75 503.25,-77.5"/>
<text xml:space="preserve" text-anchor="middle" x="481.38" y="-64" font-family="Helvetica,sans-Serif" font-size="10.00">string</text>
</a>
</g>
</g>
<!-- Node12&#45;&gt;Node14 -->
<g id="edge17_Node000012_Node000014" class="edge">
<title>Node12&#45;&gt;Node14</title>
<g id="a_edge17_Node000012_Node000014"><a xlink:title=" ">
<path fill="none" stroke="#63b8ff" d="M441.96,-113.09C448.44,-105.69 457.53,-95.32 465.35,-86.41"/>
<polygon fill="#63b8ff" stroke="#63b8ff" points="467.91,-88.79 471.87,-78.97 462.65,-84.18 467.91,-88.79"/>
</a>
</g>
</g>
</g>
</svg>
