<?xml version="1.0" encoding="UTF-8" standalone="no"?>
<!DOCTYPE svg PUBLIC "-//W3C//DTD SVG 1.1//EN"
 "http://www.w3.org/Graphics/SVG/1.1/DTD/svg11.dtd">
<!-- Generated by graphviz version 13.1.2 (20250809.0930)
 -->
<!-- Title: mathFunctions.h Pages: 1 -->
<svg width="430pt" height="142pt"
 viewBox="0.00 0.00 430.00 142.00" xmlns="http://www.w3.org/2000/svg" xmlns:xlink="http://www.w3.org/1999/xlink">
<g id="graph0" class="graph" transform="scale(1 1) rotate(0) translate(4 138.25)">
<title>mathFunctions.h</title>
<!-- Node1 -->
<g id="Node000001" class="node">
<title>Node1</title>
<g id="a_Node000001"><a xlink:title="Header file of the class that provides auxiliary mathematical functionalities for the SIE solver.">
<polygon fill="#999999" stroke="#666666" points="151.75,-134.25 54.75,-134.25 54.75,-113.5 151.75,-113.5 151.75,-134.25"/>
<text xml:space="preserve" text-anchor="middle" x="103.25" y="-120.75" font-family="Helvetica,sans-Serif" font-size="10.00">mathFunctions.h</text>
</a>
</g>
</g>
<!-- Node2 -->
<g id="Node000002" class="node">
<title>Node2</title>
<g id="a_Node000002"><a xlink:title=" ">
<polygon fill="#e0e0e0" stroke="#999999" points="50.5,-77.5 0,-77.5 0,-56.75 50.5,-56.75 50.5,-77.5"/>
<text xml:space="preserve" text-anchor="middle" x="25.25" y="-64" font-family="Helvetica,sans-Serif" font-size="10.00">math.h</text>
</a>
</g>
</g>
<!-- Node1&#45;&gt;Node2 -->
<g id="edge1_Node000001_Node000002" class="edge">
<title>Node1&#45;&gt;Node2</title>
<g id="a_edge1_Node000001_Node000002"><a xlink:title=" ">
<path fill="none" stroke="#63b8ff" d="M89.31,-113.09C77.88,-105.07 61.48,-93.56 48.14,-84.19"/>
<polygon fill="#63b8ff" stroke="#63b8ff" points="50.51,-81.58 40.31,-78.7 46.49,-87.31 50.51,-81.58"/>
</a>
</g>
</g>
<!-- Node3 -->
<g id="Node000003" class="node">
<title>Node3</title>
<g id="a_Node000003"><a xlink:title=" ">
<polygon fill="#e0e0e0" stroke="#999999" points="107.25,-20.75 49.25,-20.75 49.25,0 107.25,0 107.25,-20.75"/>
<text xml:space="preserve" text-anchor="middle" x="78.25" y="-7.25" font-family="Helvetica,sans-Serif" font-size="10.00">complex</text>
</a>
</g>
</g>
<!-- Node1&#45;&gt;Node3 -->
<g id="edge2_Node000001_Node000003" class="edge">
<title>Node1&#45;&gt;Node3</title>
<g id="a_edge2_Node000001_Node000003"><a xlink:title=" ">
<path fill="none" stroke="#63b8ff" d="M101.12,-113.37C97.12,-95.52 88.39,-56.61 82.95,-32.34"/>
<polygon fill="#63b8ff" stroke="#63b8ff" points="86.38,-31.64 80.78,-22.65 79.55,-33.18 86.38,-31.64"/>
</a>
</g>
</g>
<!-- Node4 -->
<g id="Node000004" class="node">
<title>Node4</title>
<g id="a_Node000004"><a xlink:title=" ">
<polygon fill="#e0e0e0" stroke="#999999" points="152.62,-77.5 105.88,-77.5 105.88,-56.75 152.62,-56.75 152.62,-77.5"/>
<text xml:space="preserve" text-anchor="middle" x="129.25" y="-64" font-family="Helvetica,sans-Serif" font-size="10.00">vector</text>
</a>
</g>
</g>
<!-- Node1&#45;&gt;Node4 -->
<g id="edge3_Node000001_Node000004" class="edge">
<title>Node1&#45;&gt;Node4</title>
<g id="a_edge3_Node000001_Node000004"><a xlink:title=" ">
<path fill="none" stroke="#63b8ff" d="M107.9,-113.09C111.19,-106.16 115.72,-96.62 119.76,-88.11"/>
<polygon fill="#63b8ff" stroke="#63b8ff" points="122.86,-89.73 123.99,-79.2 116.54,-86.73 122.86,-89.73"/>
</a>
</g>
</g>
<!-- Node5 -->
<g id="Node000005" class="node">
<title>Node5</title>
<g id="a_Node000005"><a xlink:href="globals_8h.html" target="_top" xlink:title="Global numerical constants, fundamental types, and simple macros.">
<polygon fill="white" stroke="#666666" points="231.38,-77.5 171.12,-77.5 171.12,-56.75 231.38,-56.75 231.38,-77.5"/>
<text xml:space="preserve" text-anchor="middle" x="201.25" y="-64" font-family="Helvetica,sans-Serif" font-size="10.00">globals.h</text>
</a>
</g>
</g>
<!-- Node1&#45;&gt;Node5 -->
<g id="edge4_Node000001_Node000005" class="edge">
<title>Node1&#45;&gt;Node5</title>
<g id="a_edge4_Node000001_Node000005"><a xlink:title=" ">
<path fill="none" stroke="#63b8ff" d="M120.77,-113.09C135.54,-104.83 156.93,-92.88 173.95,-83.38"/>
<polygon fill="#63b8ff" stroke="#63b8ff" points="175.54,-86.5 182.56,-78.57 172.12,-80.39 175.54,-86.5"/>
</a>
</g>
</g>
<!-- Node5&#45;&gt;Node3 -->
<g id="edge8_Node000005_Node000003" class="edge">
<title>Node5&#45;&gt;Node3</title>
<g id="a_edge8_Node000005_Node000003"><a xlink:title=" ">
<path fill="none" stroke="#63b8ff" d="M179.26,-56.34C160.11,-47.81 132.09,-35.34 110.42,-25.69"/>
<polygon fill="#63b8ff" stroke="#63b8ff" points="111.99,-22.56 101.43,-21.69 109.14,-28.96 111.99,-22.56"/>
</a>
</g>
</g>
<!-- Node6 -->
<g id="Node000006" class="node">
<title>Node6</title>
<g id="a_Node000006"><a xlink:title=" ">
<polygon fill="#e0e0e0" stroke="#999999" points="198.75,-20.75 125.75,-20.75 125.75,0 198.75,0 198.75,-20.75"/>
<text xml:space="preserve" text-anchor="middle" x="162.25" y="-7.25" font-family="Helvetica,sans-Serif" font-size="10.00">blitz/array.h</text>
</a>
</g>
</g>
<!-- Node5&#45;&gt;Node6 -->
<g id="edge5_Node000005_Node000006" class="edge">
<title>Node5&#45;&gt;Node6</title>
<g id="a_edge5_Node000005_Node000006"><a xlink:title=" ">
<path fill="none" stroke="#63b8ff" d="M194.28,-56.34C189.12,-49.1 181.93,-39.01 175.68,-30.22"/>
<polygon fill="#63b8ff" stroke="#63b8ff" points="178.69,-28.43 170.04,-22.31 172.99,-32.49 178.69,-28.43"/>
</a>
</g>
</g>
<!-- Node7 -->
<g id="Node000007" class="node">
<title>Node7</title>
<g id="a_Node000007"><a xlink:title=" ">
<polygon fill="#e0e0e0" stroke="#999999" points="307.75,-20.75 216.75,-20.75 216.75,0 307.75,0 307.75,-20.75"/>
<text xml:space="preserve" text-anchor="middle" x="262.25" y="-7.25" font-family="Helvetica,sans-Serif" font-size="10.00">blitz/tinyvec2.h</text>
</a>
</g>
</g>
<!-- Node5&#45;&gt;Node7 -->
<g id="edge6_Node000005_Node000007" class="edge">
<title>Node5&#45;&gt;Node7</title>
<g id="a_edge6_Node000005_Node000007"><a xlink:title=" ">
<path fill="none" stroke="#63b8ff" d="M212.16,-56.34C220.74,-48.63 232.92,-37.7 243.13,-28.54"/>
<polygon fill="#63b8ff" stroke="#63b8ff" points="245.21,-31.37 250.31,-22.09 240.53,-26.16 245.21,-31.37"/>
</a>
</g>
</g>
<!-- Node8 -->
<g id="Node000008" class="node">
<title>Node8</title>
<g id="a_Node000008"><a xlink:title=" ">
<polygon fill="#e0e0e0" stroke="#999999" points="422.38,-20.75 326.12,-20.75 326.12,0 422.38,0 422.38,-20.75"/>
<text xml:space="preserve" text-anchor="middle" x="374.25" y="-7.25" font-family="Helvetica,sans-Serif" font-size="10.00">blitz/tvecglobs.h</text>
</a>
</g>
</g>
<!-- Node5&#45;&gt;Node8 -->
<g id="edge7_Node000005_Node000008" class="edge">
<title>Node5&#45;&gt;Node8</title>
<g id="a_edge7_Node000005_Node000008"><a xlink:title=" ">
<path fill="none" stroke="#63b8ff" d="M231.78,-56.46C259.69,-47.63 301.21,-34.49 332.24,-24.67"/>
<polygon fill="#63b8ff" stroke="#63b8ff" points="333.23,-28.03 341.71,-21.67 331.12,-21.35 333.23,-28.03"/>
</a>
</g>
</g>
</g>
</svg>
