<?xml version="1.0" encoding="UTF-8" standalone="no"?>
<!DOCTYPE svg PUBLIC "-//W3C//DTD SVG 1.1//EN"
 "http://www.w3.org/Graphics/SVG/1.1/DTD/svg11.dtd">
<!-- Generated by graphviz version 13.1.2 (20250809.0930)
 -->
<!-- Title: PlaneWave.h Pages: 1 -->
<svg width="461pt" height="86pt"
 viewBox="0.00 0.00 461.00 86.00" xmlns="http://www.w3.org/2000/svg" xmlns:xlink="http://www.w3.org/1999/xlink">
<g id="graph0" class="graph" transform="scale(1 1) rotate(0) translate(4 81.5)">
<title>PlaneWave.h</title>
<!-- Node1 -->
<g id="Node000001" class="node">
<title>Node1</title>
<g id="a_Node000001"><a xlink:title="Defines the PlaneWave class: representation of a plane‐wave incident field.">
<polygon fill="#999999" stroke="#666666" points="295.12,-77.5 216.12,-77.5 216.12,-56.75 295.12,-56.75 295.12,-77.5"/>
<text xml:space="preserve" text-anchor="middle" x="255.62" y="-64" font-family="Helvetica,sans-Serif" font-size="10.00">PlaneWave.h</text>
</a>
</g>
</g>
<!-- Node2 -->
<g id="Node000002" class="node">
<title>Node2</title>
<g id="a_Node000002"><a xlink:href="DomainHom3D_8cpp.html" target="_top" xlink:title="Implementation of the homogeneous 3D domain.">
<polygon fill="white" stroke="#666666" points="111.25,-20.75 0,-20.75 0,0 111.25,0 111.25,-20.75"/>
<text xml:space="preserve" text-anchor="middle" x="55.62" y="-7.25" font-family="Helvetica,sans-Serif" font-size="10.00">DomainHom3D.cpp</text>
</a>
</g>
</g>
<!-- Node1&#45;&gt;Node2 -->
<g id="edge1_Node000001_Node000002" class="edge">
<title>Node1&#45;&gt;Node2</title>
<g id="a_edge1_Node000001_Node000002"><a xlink:title=" ">
<path fill="none" stroke="#63b8ff" d="M209.18,-53.41C173.27,-43.58 124.31,-30.18 91.41,-21.17"/>
<polygon fill="#63b8ff" stroke="#63b8ff" points="207.84,-56.67 218.41,-55.94 209.69,-49.92 207.84,-56.67"/>
</a>
</g>
</g>
<!-- Node3 -->
<g id="Node000003" class="node">
<title>Node3</title>
<g id="a_Node000003"><a xlink:href="DomainLayered3D_8cpp.html" target="_top" xlink:title="Implementation of the layered 3D domain.">
<polygon fill="white" stroke="#666666" points="256.12,-20.75 129.12,-20.75 129.12,0 256.12,0 256.12,-20.75"/>
<text xml:space="preserve" text-anchor="middle" x="192.62" y="-7.25" font-family="Helvetica,sans-Serif" font-size="10.00">DomainLayered3D.cpp</text>
</a>
</g>
</g>
<!-- Node1&#45;&gt;Node3 -->
<g id="edge2_Node000001_Node000003" class="edge">
<title>Node1&#45;&gt;Node3</title>
<g id="a_edge2_Node000001_Node000003"><a xlink:title=" ">
<path fill="none" stroke="#63b8ff" d="M235.76,-48.86C225.21,-39.69 212.63,-28.76 203.79,-21.08"/>
<polygon fill="#63b8ff" stroke="#63b8ff" points="233.38,-51.43 243.22,-55.34 237.97,-46.14 233.38,-51.43"/>
</a>
</g>
</g>
<!-- Node4 -->
<g id="Node000004" class="node">
<title>Node4</title>
<g id="a_Node000004"><a xlink:href="PlaneWave_8cpp.html" target="_top" xlink:title="Implementation for the PlaneWave class.">
<polygon fill="white" stroke="#666666" points="364.75,-20.75 274.5,-20.75 274.5,0 364.75,0 364.75,-20.75"/>
<text xml:space="preserve" text-anchor="middle" x="319.62" y="-7.25" font-family="Helvetica,sans-Serif" font-size="10.00">PlaneWave.cpp</text>
</a>
</g>
</g>
<!-- Node1&#45;&gt;Node4 -->
<g id="edge3_Node000001_Node000004" class="edge">
<title>Node1&#45;&gt;Node4</title>
<g id="a_edge3_Node000001_Node000004"><a xlink:title=" ">
<path fill="none" stroke="#63b8ff" d="M275.81,-48.86C286.53,-39.69 299.3,-28.76 308.28,-21.08"/>
<polygon fill="#63b8ff" stroke="#63b8ff" points="273.54,-46.19 268.22,-55.35 278.09,-51.51 273.54,-46.19"/>
</a>
</g>
</g>
<!-- Node5 -->
<g id="Node000005" class="node">
<title>Node5</title>
<g id="a_Node000005"><a xlink:href="SimJob_8cpp.html" target="_top" xlink:title="Implementation for the SimJob class.">
<polygon fill="white" stroke="#666666" points="452.62,-20.75 382.62,-20.75 382.62,0 452.62,0 452.62,-20.75"/>
<text xml:space="preserve" text-anchor="middle" x="417.62" y="-7.25" font-family="Helvetica,sans-Serif" font-size="10.00">SimJob.cpp</text>
</a>
</g>
</g>
<!-- Node1&#45;&gt;Node5 -->
<g id="edge4_Node000001_Node000005" class="edge">
<title>Node1&#45;&gt;Node5</title>
<g id="a_edge4_Node000001_Node000005"><a xlink:title=" ">
<path fill="none" stroke="#63b8ff" d="M295.14,-52.77C324.03,-43.01 362.57,-29.98 388.64,-21.17"/>
<polygon fill="#63b8ff" stroke="#63b8ff" points="294.37,-49.33 286.02,-55.85 296.62,-55.97 294.37,-49.33"/>
</a>
</g>
</g>
</g>
</svg>
