<?xml version="1.0" encoding="UTF-8" standalone="no"?>
<!DOCTYPE svg PUBLIC "-//W3C//DTD SVG 1.1//EN"
 "http://www.w3.org/Graphics/SVG/1.1/DTD/svg11.dtd">
<!-- Generated by graphviz version 13.1.2 (20250809.0930)
 -->
<!-- Title: PlaneWave.h Pages: 1 -->
<!--zoomable 483 -->

<svg id="main" version="1.1" xmlns="http://www.w3.org/2000/svg" xmlns:xlink="http://www.w3.org/1999/xlink" xml:space="preserve" onload="init(evt)">

<style type="text/css"><![CDATA[
.node, .edge {opacity: 0.7;}
.node.selected, .edge.selected {opacity: 1;}
.edge:hover path { stroke: red; }
.edge:hover polygon { stroke: red; fill: red; }
]]></style>

<defs>
  <circle id="rim" cx="0" cy="0" r="7"/>
  <circle id="rim2" cx="0" cy="0" r="3.5"/>
  <g id="zoomPlus">
    <use xlink:href="#rim" fill="#404040"><set attributeName="fill" to="#808080" begin="zoomplus.mouseover" end="zoomplus.mouseout"/></use>
    <path d="M-4,0h8M0,-4v8" fill="none" stroke="white" stroke-width="1.5" pointer-events="none"/>
  </g>
  <g id="zoomMin">
    <use xlink:href="#rim" fill="#404040"><set attributeName="fill" to="#808080" begin="zoomminus.mouseover" end="zoomminus.mouseout"/></use>
    <path d="M-4,0h8" fill="none" stroke="white" stroke-width="1.5" pointer-events="none"/>
  </g>
  <g id="arrowUp" transform="translate(30 24)">
    <use xlink:href="#rim"/>
    <path pointer-events="none" fill="none" stroke="white" stroke-width="1.5" d="M0,-3.0v7 M-2.5,-0.5L0,-3.0L2.5,-0.5"/>
  </g>
  <g id="arrowRight" transform="rotate(90) translate(36 -43)">
    <use xlink:href="#rim"/>
    <path pointer-events="none" fill="none" stroke="white" stroke-width="1.5" d="M0,-3.0v7 M-2.5,-0.5L0,-3.0L2.5,-0.5"/>
  </g>
  <g id="arrowDown" transform="rotate(180) translate(-30 -48)">
    <use xlink:href="#rim"/>
    <path pointer-events="none" fill="none" stroke="white" stroke-width="1.5" d="M0,-3.0v7 M-2.5,-0.5L0,-3.0L2.5,-0.5"/>
  </g>
  <g id="arrowLeft" transform="rotate(270) translate(-36 17)">
    <use xlink:href="#rim"/>
    <path pointer-events="none" fill="none" stroke="white" stroke-width="1.5" d="M0,-3.0v7 M-2.5,-0.5L0,-3.0L2.5,-0.5"/>
  </g>
  <g id="resetDef">
    <use xlink:href="#rim2" fill="#404040"><set attributeName="fill" to="#808080" begin="reset.mouseover" end="reset.mouseout"/></use>
  </g>
</defs>
<script type="application/ecmascript">
var viewWidth = 1017;
var viewHeight = 483;
var sectionId = 'dynsection-0';
</script>
<script type="application/ecmascript" xlink:href="svg.min.js"/>
<svg id="graph" class="graph">
<g id="viewport">
<title>PlaneWave.h</title>
<!-- Node1 -->
<g id="Node000001" class="node">
<title>Node1</title>
<g id="a_Node000001"><a xlink:title="Defines the PlaneWave class: representation of a plane‐wave incident field.">
<polygon fill="#999999" stroke="#666666" points="632.38,-474.75 553.38,-474.75 553.38,-454 632.38,-454 632.38,-474.75"/>
<text xml:space="preserve" text-anchor="middle" x="592.88" y="-461.25" font-family="Helvetica,sans-Serif" font-size="10.00">PlaneWave.h</text>
</a>
</g>
</g>
<!-- Node2 -->
<g id="Node000002" class="node">
<title>Node2</title>
<g id="a_Node000002"><a xlink:href="GaussQuad_8h.html" target="_top" xlink:title="Gaussian quadrature helpers for Green&#39;s functions and incident fields.">
<polygon fill="white" stroke="#666666" points="492.12,-304.5 411.62,-304.5 411.62,-283.75 492.12,-283.75 492.12,-304.5"/>
<text xml:space="preserve" text-anchor="middle" x="451.88" y="-291" font-family="Helvetica,sans-Serif" font-size="10.00">GaussQuad.h</text>
</a>
</g>
</g>
<!-- Node1&#45;&gt;Node2 -->
<g id="edge1_Node000001_Node000002" class="edge">
<title>Node1&#45;&gt;Node2</title>
<g id="a_edge1_Node000001_Node000002"><a xlink:title=" ">
<path fill="none" stroke="#63b8ff" d="M584.89,-453.85C562.22,-426.79 497.15,-349.15 467.24,-313.46"/>
<polygon fill="#63b8ff" stroke="#63b8ff" points="470.2,-311.54 461.1,-306.13 464.84,-316.04 470.2,-311.54"/>
</a>
</g>
</g>
<!-- Node14 -->
<g id="Node000014" class="node">
<title>Node14</title>
<g id="a_Node000014"><a xlink:href="globals_8h.html" target="_top" xlink:title="Global numerical constants, fundamental types, and simple macros.">
<polygon fill="white" stroke="#666666" points="703,-77.5 642.75,-77.5 642.75,-56.75 703,-56.75 703,-77.5"/>
<text xml:space="preserve" text-anchor="middle" x="672.88" y="-64" font-family="Helvetica,sans-Serif" font-size="10.00">globals.h</text>
</a>
</g>
</g>
<!-- Node1&#45;&gt;Node14 -->
<g id="edge54_Node000001_Node000014" class="edge">
<title>Node1&#45;&gt;Node14</title>
<g id="a_edge54_Node000001_Node000014"><a xlink:title=" ">
<path fill="none" stroke="#63b8ff" d="M632.76,-461.19C736.88,-454.4 1008.88,-429.26 1008.88,-351.88 1008.88,-351.88 1008.88,-351.88 1008.88,-179.62 1008.88,-146.37 1001,-132.73 973.88,-113.5 932.99,-84.51 787.43,-73.57 714.77,-69.85"/>
<polygon fill="#63b8ff" stroke="#63b8ff" points="715.01,-66.35 704.85,-69.36 714.67,-73.34 715.01,-66.35"/>
</a>
</g>
</g>
<!-- Node22 -->
<g id="Node000022" class="node">
<title>Node22</title>
<g id="a_Node000022"><a xlink:href="IncidentField_8h.html" target="_top" xlink:title="Abstract interface for incident electromagnetic excitations.">
<polygon fill="white" stroke="#666666" points="660.5,-418 573.25,-418 573.25,-397.25 660.5,-397.25 660.5,-418"/>
<text xml:space="preserve" text-anchor="middle" x="616.88" y="-404.5" font-family="Helvetica,sans-Serif" font-size="10.00">IncidentField.h</text>
</a>
</g>
</g>
<!-- Node1&#45;&gt;Node22 -->
<g id="edge31_Node000001_Node000022" class="edge">
<title>Node1&#45;&gt;Node22</title>
<g id="a_edge31_Node000001_Node000022"><a xlink:title=" ">
<path fill="none" stroke="#63b8ff" d="M597.17,-453.59C600.2,-446.66 604.38,-437.12 608.11,-428.61"/>
<polygon fill="#63b8ff" stroke="#63b8ff" points="611.2,-430.28 612.01,-419.71 604.79,-427.47 611.2,-430.28"/>
</a>
</g>
</g>
<!-- Node23 -->
<g id="Node000023" class="node">
<title>Node23</title>
<g id="a_Node000023"><a xlink:href="LayeredMediaUtils_8h.html" target="_top" xlink:title="This header declares utility structures and algorithms used throughout the layered&#45;media scattering s...">
<polygon fill="white" stroke="#666666" points="202.12,-134.25 85.62,-134.25 85.62,-113.5 202.12,-113.5 202.12,-134.25"/>
<text xml:space="preserve" text-anchor="middle" x="143.88" y="-120.75" font-family="Helvetica,sans-Serif" font-size="10.00">LayeredMediaUtils.h</text>
</a>
</g>
</g>
<!-- Node1&#45;&gt;Node23 -->
<g id="edge55_Node000001_Node000023" class="edge">
<title>Node1&#45;&gt;Node23</title>
<g id="a_edge55_Node000001_Node000023"><a xlink:title=" ">
<path fill="none" stroke="#63b8ff" d="M552.9,-461.9C443.43,-456.77 146.88,-435.18 146.88,-351.88 146.88,-351.88 146.88,-351.88 146.88,-236.38 146.88,-204.97 145.67,-168.61 144.79,-146.17"/>
<polygon fill="#63b8ff" stroke="#63b8ff" points="148.29,-146.08 144.38,-136.23 141.29,-146.36 148.29,-146.08"/>
</a>
</g>
</g>
<!-- Node3 -->
<g id="Node000003" class="node">
<title>Node3</title>
<g id="a_Node000003"><a xlink:title=" ">
<polygon fill="#e0e0e0" stroke="#999999" points="476.25,-247.75 429.5,-247.75 429.5,-227 476.25,-227 476.25,-247.75"/>
<text xml:space="preserve" text-anchor="middle" x="452.88" y="-234.25" font-family="Helvetica,sans-Serif" font-size="10.00">cmath</text>
</a>
</g>
</g>
<!-- Node2&#45;&gt;Node3 -->
<g id="edge2_Node000002_Node000003" class="edge">
<title>Node2&#45;&gt;Node3</title>
<g id="a_edge2_Node000002_Node000003"><a xlink:title=" ">
<path fill="none" stroke="#63b8ff" d="M452.05,-283.34C452.17,-276.72 452.34,-267.72 452.49,-259.52"/>
<polygon fill="#63b8ff" stroke="#63b8ff" points="455.99,-259.65 452.67,-249.59 448.99,-259.53 455.99,-259.65"/>
</a>
</g>
</g>
<!-- Node4 -->
<g id="Node000004" class="node">
<title>Node4</title>
<g id="a_Node000004"><a xlink:title=" ">
<polygon fill="#e0e0e0" stroke="#999999" points="389.62,-77.5 330.12,-77.5 330.12,-56.75 389.62,-56.75 389.62,-77.5"/>
<text xml:space="preserve" text-anchor="middle" x="359.88" y="-64" font-family="Helvetica,sans-Serif" font-size="10.00">iostream</text>
</a>
</g>
</g>
<!-- Node2&#45;&gt;Node4 -->
<g id="edge3_Node000002_Node000004" class="edge">
<title>Node2&#45;&gt;Node4</title>
<g id="a_edge3_Node000002_Node000004"><a xlink:title=" ">
<path fill="none" stroke="#63b8ff" d="M434.15,-283.34C397.71,-262.01 315.47,-207.31 287.88,-134.25 284.62,-125.62 283.42,-121.57 287.88,-113.5 295.33,-100 308.67,-89.96 321.87,-82.81"/>
<polygon fill="#63b8ff" stroke="#63b8ff" points="323.05,-86.13 330.47,-78.56 319.96,-79.85 323.05,-86.13"/>
</a>
</g>
</g>
<!-- Node5 -->
<g id="Node000005" class="node">
<title>Node5</title>
<g id="a_Node000005"><a xlink:href="RWGFun_8h.html" target="_top" xlink:title="Header for the RWGFun class.">
<polygon fill="white" stroke="#666666" points="674,-247.75 607.75,-247.75 607.75,-227 674,-227 674,-247.75"/>
<text xml:space="preserve" text-anchor="middle" x="640.88" y="-234.25" font-family="Helvetica,sans-Serif" font-size="10.00">RWGFun.h</text>
</a>
</g>
</g>
<!-- Node2&#45;&gt;Node5 -->
<g id="edge4_Node000002_Node000005" class="edge">
<title>Node2&#45;&gt;Node5</title>
<g id="a_edge4_Node000002_Node000005"><a xlink:title=" ">
<path fill="none" stroke="#63b8ff" d="M485.66,-283.34C516.57,-274.38 562.51,-261.08 596.39,-251.26"/>
<polygon fill="#63b8ff" stroke="#63b8ff" points="597.29,-254.64 605.92,-248.5 595.35,-247.92 597.29,-254.64"/>
</a>
</g>
</g>
<!-- Node2&#45;&gt;Node14 -->
<g id="edge29_Node000002_Node000014" class="edge">
<title>Node2&#45;&gt;Node14</title>
<g id="a_edge29_Node000002_Node000014"><a xlink:title=" ">
<path fill="none" stroke="#63b8ff" d="M442.5,-283.26C435.02,-274.65 425.1,-261.42 420.88,-247.75 406.76,-202.05 415.58,-147.54 451.88,-113.5 477.35,-89.61 574.56,-76.99 631.21,-71.52"/>
<polygon fill="#63b8ff" stroke="#63b8ff" points="631.5,-75.01 641.14,-70.61 630.86,-68.04 631.5,-75.01"/>
</a>
</g>
</g>
<!-- Node21 -->
<g id="Node000021" class="node">
<title>Node21</title>
<g id="a_Node000021"><a xlink:href="quadrature_8h.html" target="_top" xlink:title="Declarations of Dunavant (triangle) and Gauss–Legendre (1D) quadrature rules.">
<polygon fill="white" stroke="#666666" points="336,-247.75 257.75,-247.75 257.75,-227 336,-227 336,-247.75"/>
<text xml:space="preserve" text-anchor="middle" x="296.88" y="-234.25" font-family="Helvetica,sans-Serif" font-size="10.00">quadrature.h</text>
</a>
</g>
</g>
<!-- Node2&#45;&gt;Node21 -->
<g id="edge30_Node000002_Node000021" class="edge">
<title>Node2&#45;&gt;Node21</title>
<g id="a_edge30_Node000002_Node000021"><a xlink:title=" ">
<path fill="none" stroke="#63b8ff" d="M424.16,-283.34C399.44,-274.61 363,-261.73 335.44,-252"/>
<polygon fill="#63b8ff" stroke="#63b8ff" points="336.63,-248.71 326.03,-248.67 334.3,-255.31 336.63,-248.71"/>
</a>
</g>
</g>
<!-- Node6 -->
<g id="Node000006" class="node">
<title>Node6</title>
<g id="a_Node000006"><a xlink:href="SurfaceMesh_8h.html" target="_top" xlink:title="Declaration of the SurfaceMesh class and mesh edge struct.">
<polygon fill="white" stroke="#666666" points="695.88,-191 607.88,-191 607.88,-170.25 695.88,-170.25 695.88,-191"/>
<text xml:space="preserve" text-anchor="middle" x="651.88" y="-177.5" font-family="Helvetica,sans-Serif" font-size="10.00">SurfaceMesh.h</text>
</a>
</g>
</g>
<!-- Node5&#45;&gt;Node6 -->
<g id="edge5_Node000005_Node000006" class="edge">
<title>Node5&#45;&gt;Node6</title>
<g id="a_edge5_Node000005_Node000006"><a xlink:title=" ">
<path fill="none" stroke="#63b8ff" d="M642.84,-226.59C644.19,-219.89 646.02,-210.76 647.69,-202.48"/>
<polygon fill="#63b8ff" stroke="#63b8ff" points="651.09,-203.31 649.63,-192.81 644.23,-201.93 651.09,-203.31"/>
</a>
</g>
</g>
<!-- Node13 -->
<g id="Node000013" class="node">
<title>Node13</title>
<g id="a_Node000013"><a xlink:href="Triangle_8h.html" target="_top" xlink:title="Declaration of the Triangle class (surface element with cached geometry).">
<polygon fill="white" stroke="#666666" points="524.5,-134.25 461.25,-134.25 461.25,-113.5 524.5,-113.5 524.5,-134.25"/>
<text xml:space="preserve" text-anchor="middle" x="492.88" y="-120.75" font-family="Helvetica,sans-Serif" font-size="10.00">Triangle.h</text>
</a>
</g>
</g>
<!-- Node5&#45;&gt;Node13 -->
<g id="edge27_Node000005_Node000013" class="edge">
<title>Node5&#45;&gt;Node13</title>
<g id="a_edge27_Node000005_Node000013"><a xlink:title=" ">
<path fill="none" stroke="#63b8ff" d="M628,-226.68C602.63,-207.56 545.95,-164.86 514.66,-141.29"/>
<polygon fill="#63b8ff" stroke="#63b8ff" points="517.13,-138.76 507.03,-135.54 512.92,-144.36 517.13,-138.76"/>
</a>
</g>
</g>
<!-- Node5&#45;&gt;Node14 -->
<g id="edge28_Node000005_Node000014" class="edge">
<title>Node5&#45;&gt;Node14</title>
<g id="a_edge28_Node000005_Node000014"><a xlink:title=" ">
<path fill="none" stroke="#63b8ff" d="M664.27,-226.66C678.84,-219.23 696.37,-207.46 704.88,-191 722.5,-156.9 701.34,-112.34 686.01,-87.33"/>
<polygon fill="#63b8ff" stroke="#63b8ff" points="689.1,-85.67 680.74,-79.16 683.22,-89.46 689.1,-85.67"/>
</a>
</g>
</g>
<!-- Node7 -->
<g id="Node000007" class="node">
<title>Node7</title>
<g id="a_Node000007"><a xlink:title=" ">
<polygon fill="#e0e0e0" stroke="#999999" points="688.38,-134.25 657.38,-134.25 657.38,-113.5 688.38,-113.5 688.38,-134.25"/>
<text xml:space="preserve" text-anchor="middle" x="672.88" y="-120.75" font-family="Helvetica,sans-Serif" font-size="10.00">set</text>
</a>
</g>
</g>
<!-- Node6&#45;&gt;Node7 -->
<g id="edge6_Node000006_Node000007" class="edge">
<title>Node6&#45;&gt;Node7</title>
<g id="a_edge6_Node000006_Node000007"><a xlink:title=" ">
<path fill="none" stroke="#63b8ff" d="M655.63,-169.84C658.26,-162.99 661.86,-153.59 665.1,-145.15"/>
<polygon fill="#63b8ff" stroke="#63b8ff" points="668.3,-146.58 668.61,-135.99 661.76,-144.07 668.3,-146.58"/>
</a>
</g>
</g>
<!-- Node8 -->
<g id="Node000008" class="node">
<title>Node8</title>
<g id="a_Node000008"><a xlink:title=" ">
<polygon fill="#e0e0e0" stroke="#999999" points="789.12,-134.25 744.62,-134.25 744.62,-113.5 789.12,-113.5 789.12,-134.25"/>
<text xml:space="preserve" text-anchor="middle" x="766.88" y="-120.75" font-family="Helvetica,sans-Serif" font-size="10.00">utility</text>
</a>
</g>
</g>
<!-- Node6&#45;&gt;Node8 -->
<g id="edge7_Node000006_Node000008" class="edge">
<title>Node6&#45;&gt;Node8</title>
<g id="a_edge7_Node000006_Node000008"><a xlink:title=" ">
<path fill="none" stroke="#63b8ff" d="M672.43,-169.84C690.18,-161.39 716.06,-149.07 736.24,-139.46"/>
<polygon fill="#63b8ff" stroke="#63b8ff" points="737.6,-142.69 745.13,-135.23 734.59,-136.37 737.6,-142.69"/>
</a>
</g>
</g>
<!-- Node9 -->
<g id="Node000009" class="node">
<title>Node9</title>
<g id="a_Node000009"><a xlink:title=" ">
<polygon fill="#e0e0e0" stroke="#999999" points="516.25,-77.5 469.5,-77.5 469.5,-56.75 516.25,-56.75 516.25,-77.5"/>
<text xml:space="preserve" text-anchor="middle" x="492.88" y="-64" font-family="Helvetica,sans-Serif" font-size="10.00">vector</text>
</a>
</g>
</g>
<!-- Node6&#45;&gt;Node9 -->
<g id="edge8_Node000006_Node000009" class="edge">
<title>Node6&#45;&gt;Node9</title>
<g id="a_edge8_Node000006_Node000009"><a xlink:title=" ">
<path fill="none" stroke="#63b8ff" d="M638.04,-169.93C610.67,-150.73 549.37,-107.74 515.84,-84.23"/>
<polygon fill="#63b8ff" stroke="#63b8ff" points="518.22,-81.63 508.03,-78.75 514.21,-87.36 518.22,-81.63"/>
</a>
</g>
</g>
<!-- Node10 -->
<g id="Node000010" class="node">
<title>Node10</title>
<g id="a_Node000010"><a xlink:href="JobParser_8h.html" target="_top" xlink:title="Lightweight XML&#45;like tag parser for the solver job file.">
<polygon fill="white" stroke="#666666" points="366.5,-134.25 297.25,-134.25 297.25,-113.5 366.5,-113.5 366.5,-134.25"/>
<text xml:space="preserve" text-anchor="middle" x="331.88" y="-120.75" font-family="Helvetica,sans-Serif" font-size="10.00">JobParser.h</text>
</a>
</g>
</g>
<!-- Node6&#45;&gt;Node10 -->
<g id="edge9_Node000006_Node000010" class="edge">
<title>Node6&#45;&gt;Node10</title>
<g id="a_edge9_Node000006_Node000010"><a xlink:title=" ">
<path fill="none" stroke="#63b8ff" d="M607.38,-172.01C546.88,-161.66 439.2,-143.24 377.91,-132.75"/>
<polygon fill="#63b8ff" stroke="#63b8ff" points="378.6,-129.32 368.15,-131.08 377.42,-136.22 378.6,-129.32"/>
</a>
</g>
</g>
<!-- Node6&#45;&gt;Node13 -->
<g id="edge14_Node000006_Node000013" class="edge">
<title>Node6&#45;&gt;Node13</title>
<g id="a_edge14_Node000006_Node000013"><a xlink:title=" ">
<path fill="none" stroke="#63b8ff" d="M623.45,-169.84C597.98,-161.07 560.38,-148.12 532.06,-138.37"/>
<polygon fill="#63b8ff" stroke="#63b8ff" points="533.35,-135.11 522.75,-135.16 531.07,-141.73 533.35,-135.11"/>
</a>
</g>
</g>
<!-- Node6&#45;&gt;Node14 -->
<g id="edge21_Node000006_Node000014" class="edge">
<title>Node6&#45;&gt;Node14</title>
<g id="a_edge21_Node000006_Node000014"><a xlink:title=" ">
<path fill="none" stroke="#63b8ff" d="M649.75,-170.04C647.25,-157.02 644,-133.13 648.88,-113.5 651.09,-104.56 655.43,-95.45 659.81,-87.76"/>
<polygon fill="#63b8ff" stroke="#63b8ff" points="662.77,-89.64 665.03,-79.29 656.81,-85.96 662.77,-89.64"/>
</a>
</g>
</g>
<!-- Node19 -->
<g id="Node000019" class="node">
<title>Node19</title>
<g id="a_Node000019"><a xlink:href="mathFunctions_8h.html" target="_top" xlink:title="Header file of the class that provides auxiliary mathematical functionalities for the SIE solver.">
<polygon fill="white" stroke="#666666" points="942.38,-134.25 845.38,-134.25 845.38,-113.5 942.38,-113.5 942.38,-134.25"/>
<text xml:space="preserve" text-anchor="middle" x="893.88" y="-120.75" font-family="Helvetica,sans-Serif" font-size="10.00">mathFunctions.h</text>
</a>
</g>
</g>
<!-- Node6&#45;&gt;Node19 -->
<g id="edge22_Node000006_Node000019" class="edge">
<title>Node6&#45;&gt;Node19</title>
<g id="a_edge22_Node000006_Node000019"><a xlink:title=" ">
<path fill="none" stroke="#63b8ff" d="M695.42,-169.77C735.73,-160.65 795.82,-147.06 839.32,-137.22"/>
<polygon fill="#63b8ff" stroke="#63b8ff" points="839.82,-140.69 848.8,-135.07 838.27,-133.87 839.82,-140.69"/>
</a>
</g>
</g>
<!-- Node10&#45;&gt;Node4 -->
<g id="edge11_Node000010_Node000004" class="edge">
<title>Node10&#45;&gt;Node4</title>
<g id="a_edge11_Node000010_Node000004"><a xlink:title=" ">
<path fill="none" stroke="#63b8ff" d="M336.88,-113.09C340.46,-106.08 345.41,-96.41 349.8,-87.83"/>
<polygon fill="#63b8ff" stroke="#63b8ff" points="352.79,-89.67 354.22,-79.18 346.55,-86.49 352.79,-89.67"/>
</a>
</g>
</g>
<!-- Node10&#45;&gt;Node9 -->
<g id="edge13_Node000010_Node000009" class="edge">
<title>Node10&#45;&gt;Node9</title>
<g id="a_edge13_Node000010_Node000009"><a xlink:title=" ">
<path fill="none" stroke="#63b8ff" d="M360.66,-113.09C387.97,-103.8 429.04,-89.83 458.16,-79.93"/>
<polygon fill="#63b8ff" stroke="#63b8ff" points="459.28,-83.25 467.62,-76.71 457.03,-76.62 459.28,-83.25"/>
</a>
</g>
</g>
<!-- Node11 -->
<g id="Node000011" class="node">
<title>Node11</title>
<g id="a_Node000011"><a xlink:title=" ">
<polygon fill="#e0e0e0" stroke="#999999" points="312,-77.5 257.75,-77.5 257.75,-56.75 312,-56.75 312,-77.5"/>
<text xml:space="preserve" text-anchor="middle" x="284.88" y="-64" font-family="Helvetica,sans-Serif" font-size="10.00">fstream</text>
</a>
</g>
</g>
<!-- Node10&#45;&gt;Node11 -->
<g id="edge10_Node000010_Node000011" class="edge">
<title>Node10&#45;&gt;Node11</title>
<g id="a_edge10_Node000010_Node000011"><a xlink:title=" ">
<path fill="none" stroke="#63b8ff" d="M323.47,-113.09C317.12,-105.69 308.22,-95.32 300.57,-86.41"/>
<polygon fill="#63b8ff" stroke="#63b8ff" points="303.36,-84.28 294.19,-78.98 298.05,-88.84 303.36,-84.28"/>
</a>
</g>
</g>
<!-- Node12 -->
<g id="Node000012" class="node">
<title>Node12</title>
<g id="a_Node000012"><a xlink:title=" ">
<polygon fill="#e0e0e0" stroke="#999999" points="451.75,-77.5 408,-77.5 408,-56.75 451.75,-56.75 451.75,-77.5"/>
<text xml:space="preserve" text-anchor="middle" x="429.88" y="-64" font-family="Helvetica,sans-Serif" font-size="10.00">string</text>
</a>
</g>
</g>
<!-- Node10&#45;&gt;Node12 -->
<g id="edge12_Node000010_Node000012" class="edge">
<title>Node10&#45;&gt;Node12</title>
<g id="a_edge12_Node000010_Node000012"><a xlink:title=" ">
<path fill="none" stroke="#63b8ff" d="M349.4,-113.09C364.17,-104.83 385.56,-92.88 402.57,-83.38"/>
<polygon fill="#63b8ff" stroke="#63b8ff" points="404.16,-86.5 411.18,-78.57 400.75,-80.39 404.16,-86.5"/>
</a>
</g>
</g>
<!-- Node13&#45;&gt;Node9 -->
<g id="edge15_Node000013_Node000009" class="edge">
<title>Node13&#45;&gt;Node9</title>
<g id="a_edge15_Node000013_Node000009"><a xlink:title=" ">
<path fill="none" stroke="#63b8ff" d="M492.88,-113.09C492.88,-106.47 492.88,-97.47 492.88,-89.27"/>
<polygon fill="#63b8ff" stroke="#63b8ff" points="496.38,-89.34 492.88,-79.34 489.38,-89.34 496.38,-89.34"/>
</a>
</g>
</g>
<!-- Node13&#45;&gt;Node14 -->
<g id="edge16_Node000013_Node000014" class="edge">
<title>Node13&#45;&gt;Node14</title>
<g id="a_edge16_Node000013_Node000014"><a xlink:title=" ">
<path fill="none" stroke="#63b8ff" d="M524.64,-113.21C554.34,-104.18 598.88,-90.63 631.38,-80.75"/>
<polygon fill="#63b8ff" stroke="#63b8ff" points="632.33,-84.12 640.88,-77.86 630.29,-77.42 632.33,-84.12"/>
</a>
</g>
</g>
<!-- Node15 -->
<g id="Node000015" class="node">
<title>Node15</title>
<g id="a_Node000015"><a xlink:title=" ">
<polygon fill="#e0e0e0" stroke="#999999" points="400.38,-20.75 327.38,-20.75 327.38,0 400.38,0 400.38,-20.75"/>
<text xml:space="preserve" text-anchor="middle" x="363.88" y="-7.25" font-family="Helvetica,sans-Serif" font-size="10.00">blitz/array.h</text>
</a>
</g>
</g>
<!-- Node14&#45;&gt;Node15 -->
<g id="edge17_Node000014_Node000015" class="edge">
<title>Node14&#45;&gt;Node15</title>
<g id="a_edge17_Node000014_Node000015"><a xlink:title=" ">
<path fill="none" stroke="#63b8ff" d="M642.4,-60.73C588.54,-51.18 476.14,-31.27 411.81,-19.87"/>
<polygon fill="#63b8ff" stroke="#63b8ff" points="412.71,-16.47 402.26,-18.18 411.49,-23.37 412.71,-16.47"/>
</a>
</g>
</g>
<!-- Node16 -->
<g id="Node000016" class="node">
<title>Node16</title>
<g id="a_Node000016"><a xlink:title=" ">
<polygon fill="#e0e0e0" stroke="#999999" points="624.38,-20.75 533.38,-20.75 533.38,0 624.38,0 624.38,-20.75"/>
<text xml:space="preserve" text-anchor="middle" x="578.88" y="-7.25" font-family="Helvetica,sans-Serif" font-size="10.00">blitz/tinyvec2.h</text>
</a>
</g>
</g>
<!-- Node14&#45;&gt;Node16 -->
<g id="edge18_Node000014_Node000016" class="edge">
<title>Node14&#45;&gt;Node16</title>
<g id="a_edge18_Node000014_Node000016"><a xlink:title=" ">
<path fill="none" stroke="#63b8ff" d="M656.07,-56.34C641.9,-48.08 621.38,-36.13 605.06,-26.63"/>
<polygon fill="#63b8ff" stroke="#63b8ff" points="607.25,-23.85 596.84,-21.84 603.72,-29.9 607.25,-23.85"/>
</a>
</g>
</g>
<!-- Node17 -->
<g id="Node000017" class="node">
<title>Node17</title>
<g id="a_Node000017"><a xlink:title=" ">
<polygon fill="#e0e0e0" stroke="#999999" points="739,-20.75 642.75,-20.75 642.75,0 739,0 739,-20.75"/>
<text xml:space="preserve" text-anchor="middle" x="690.88" y="-7.25" font-family="Helvetica,sans-Serif" font-size="10.00">blitz/tvecglobs.h</text>
</a>
</g>
</g>
<!-- Node14&#45;&gt;Node17 -->
<g id="edge19_Node000014_Node000017" class="edge">
<title>Node14&#45;&gt;Node17</title>
<g id="a_edge19_Node000014_Node000017"><a xlink:title=" ">
<path fill="none" stroke="#63b8ff" d="M676.09,-56.34C678.32,-49.56 681.37,-40.3 684.11,-31.94"/>
<polygon fill="#63b8ff" stroke="#63b8ff" points="687.41,-33.11 687.21,-22.52 680.76,-30.92 687.41,-33.11"/>
</a>
</g>
</g>
<!-- Node18 -->
<g id="Node000018" class="node">
<title>Node18</title>
<g id="a_Node000018"><a xlink:title=" ">
<polygon fill="#e0e0e0" stroke="#999999" points="824.88,-20.75 766.88,-20.75 766.88,0 824.88,0 824.88,-20.75"/>
<text xml:space="preserve" text-anchor="middle" x="795.88" y="-7.25" font-family="Helvetica,sans-Serif" font-size="10.00">complex</text>
</a>
</g>
</g>
<!-- Node14&#45;&gt;Node18 -->
<g id="edge20_Node000014_Node000018" class="edge">
<title>Node14&#45;&gt;Node18</title>
<g id="a_edge20_Node000014_Node000018"><a xlink:title=" ">
<path fill="none" stroke="#63b8ff" d="M694.86,-56.34C714.02,-47.81 742.04,-35.34 763.71,-25.69"/>
<polygon fill="#63b8ff" stroke="#63b8ff" points="764.98,-28.96 772.69,-21.69 762.13,-22.56 764.98,-28.96"/>
</a>
</g>
</g>
<!-- Node19&#45;&gt;Node9 -->
<g id="edge25_Node000019_Node000009" class="edge">
<title>Node19&#45;&gt;Node9</title>
<g id="a_edge25_Node000019_Node000009"><a xlink:title=" ">
<path fill="none" stroke="#63b8ff" d="M845.11,-116.22C763.05,-105.01 599.35,-82.66 527.76,-72.89"/>
<polygon fill="#63b8ff" stroke="#63b8ff" points="528.57,-69.47 518.18,-71.58 527.62,-76.4 528.57,-69.47"/>
</a>
</g>
</g>
<!-- Node19&#45;&gt;Node14 -->
<g id="edge26_Node000019_Node000014" class="edge">
<title>Node19&#45;&gt;Node14</title>
<g id="a_edge26_Node000019_Node000014"><a xlink:title=" ">
<path fill="none" stroke="#63b8ff" d="M854.11,-113.02C814.66,-103.25 754.47,-88.34 714.42,-78.42"/>
<polygon fill="#63b8ff" stroke="#63b8ff" points="715.45,-75.07 704.9,-76.06 713.77,-81.86 715.45,-75.07"/>
</a>
</g>
</g>
<!-- Node19&#45;&gt;Node18 -->
<g id="edge24_Node000019_Node000018" class="edge">
<title>Node19&#45;&gt;Node18</title>
<g id="a_edge24_Node000019_Node000018"><a xlink:title=" ">
<path fill="none" stroke="#63b8ff" d="M885.52,-113.37C869.26,-94.86 833.1,-53.72 812.01,-29.73"/>
<polygon fill="#63b8ff" stroke="#63b8ff" points="814.72,-27.51 805.49,-22.31 809.46,-32.13 814.72,-27.51"/>
</a>
</g>
</g>
<!-- Node20 -->
<g id="Node000020" class="node">
<title>Node20</title>
<g id="a_Node000020"><a xlink:title=" ">
<polygon fill="#e0e0e0" stroke="#999999" points="919.12,-77.5 868.62,-77.5 868.62,-56.75 919.12,-56.75 919.12,-77.5"/>
<text xml:space="preserve" text-anchor="middle" x="893.88" y="-64" font-family="Helvetica,sans-Serif" font-size="10.00">math.h</text>
</a>
</g>
</g>
<!-- Node19&#45;&gt;Node20 -->
<g id="edge23_Node000019_Node000020" class="edge">
<title>Node19&#45;&gt;Node20</title>
<g id="a_edge23_Node000019_Node000020"><a xlink:title=" ">
<path fill="none" stroke="#63b8ff" d="M893.88,-113.09C893.88,-106.47 893.88,-97.47 893.88,-89.27"/>
<polygon fill="#63b8ff" stroke="#63b8ff" points="897.38,-89.34 893.88,-79.34 890.38,-89.34 897.38,-89.34"/>
</a>
</g>
</g>
<!-- Node22&#45;&gt;Node5 -->
<g id="edge32_Node000022_Node000005" class="edge">
<title>Node22&#45;&gt;Node5</title>
<g id="a_edge32_Node000022_Node000005"><a xlink:title=" ">
<path fill="none" stroke="#63b8ff" d="M628.68,-396.84C637.79,-388.48 649.68,-375.54 654.88,-361.25 667.42,-326.74 656.95,-283.5 648.63,-258.6"/>
<polygon fill="#63b8ff" stroke="#63b8ff" points="651.99,-257.62 645.33,-249.39 645.4,-259.98 651.99,-257.62"/>
</a>
</g>
</g>
<!-- Node22&#45;&gt;Node14 -->
<g id="edge33_Node000022_Node000014" class="edge">
<title>Node22&#45;&gt;Node14</title>
<g id="a_edge33_Node000022_Node000014"><a xlink:title=" ">
<path fill="none" stroke="#63b8ff" d="M660.99,-402.12C755.89,-391.21 970.88,-359.4 970.88,-295.12 970.88,-295.12 970.88,-295.12 970.88,-179.62 970.88,-149.05 974.74,-133.8 951.88,-113.5 917.45,-82.93 783.59,-72.8 714.56,-69.56"/>
<polygon fill="#63b8ff" stroke="#63b8ff" points="714.92,-66.08 704.78,-69.14 714.62,-73.07 714.92,-66.08"/>
</a>
</g>
</g>
<!-- Node22&#45;&gt;Node23 -->
<g id="edge34_Node000022_Node000023" class="edge">
<title>Node22&#45;&gt;Node23</title>
<g id="a_edge34_Node000022_Node000023"><a xlink:title=" ">
<path fill="none" stroke="#63b8ff" d="M572.79,-404.46C463.69,-397.91 189.88,-373.66 189.88,-295.12 189.88,-295.12 189.88,-295.12 189.88,-236.38 189.88,-201.8 170.74,-165.45 157.15,-143.99"/>
<polygon fill="#63b8ff" stroke="#63b8ff" points="160.13,-142.14 151.7,-135.73 154.29,-146 160.13,-142.14"/>
</a>
</g>
</g>
<!-- Node27 -->
<g id="Node000027" class="node">
<title>Node27</title>
<g id="a_Node000027"><a xlink:href="GreenF_8h.html" target="_top" xlink:title="Abstract base class for electromagnetic Green&#39;s functions.">
<polygon fill="white" stroke="#666666" points="646.25,-361.25 587.5,-361.25 587.5,-340.5 646.25,-340.5 646.25,-361.25"/>
<text xml:space="preserve" text-anchor="middle" x="616.88" y="-347.75" font-family="Helvetica,sans-Serif" font-size="10.00">GreenF.h</text>
</a>
</g>
</g>
<!-- Node22&#45;&gt;Node27 -->
<g id="edge41_Node000022_Node000027" class="edge">
<title>Node22&#45;&gt;Node27</title>
<g id="a_edge41_Node000022_Node000027"><a xlink:title=" ">
<path fill="none" stroke="#63b8ff" d="M616.88,-396.84C616.88,-390.22 616.88,-381.22 616.88,-373.02"/>
<polygon fill="#63b8ff" stroke="#63b8ff" points="620.38,-373.09 616.88,-363.09 613.38,-373.09 620.38,-373.09"/>
</a>
</g>
</g>
<!-- Node23&#45;&gt;Node9 -->
<g id="edge38_Node000023_Node000009" class="edge">
<title>Node23&#45;&gt;Node9</title>
<g id="a_edge38_Node000023_Node000009"><a xlink:title=" ">
<path fill="none" stroke="#63b8ff" d="M202.45,-117.03C263.98,-110.32 363.68,-97.85 458.03,-77.88"/>
<polygon fill="#63b8ff" stroke="#63b8ff" points="458.69,-81.31 467.73,-75.79 457.21,-74.47 458.69,-81.31"/>
</a>
</g>
</g>
<!-- Node23&#45;&gt;Node11 -->
<g id="edge40_Node000023_Node000011" class="edge">
<title>Node23&#45;&gt;Node11</title>
<g id="a_edge40_Node000023_Node000011"><a xlink:title=" ">
<path fill="none" stroke="#63b8ff" d="M169.08,-113.09C191.44,-104.41 224.33,-91.63 249.35,-81.92"/>
<polygon fill="#63b8ff" stroke="#63b8ff" points="250.42,-85.26 258.47,-78.38 247.89,-78.73 250.42,-85.26"/>
</a>
</g>
</g>
<!-- Node23&#45;&gt;Node14 -->
<g id="edge39_Node000023_Node000014" class="edge">
<title>Node23&#45;&gt;Node14</title>
<g id="a_edge39_Node000023_Node000014"><a xlink:title=" ">
<path fill="none" stroke="#63b8ff" d="M202.51,-116.81C310.34,-105.65 537.64,-82.12 631.25,-72.43"/>
<polygon fill="#63b8ff" stroke="#63b8ff" points="631.41,-75.94 641,-71.42 630.69,-68.97 631.41,-75.94"/>
</a>
</g>
</g>
<!-- Node24 -->
<g id="Node000024" class="node">
<title>Node24</title>
<g id="a_Node000024"><a xlink:title=" ">
<polygon fill="#e0e0e0" stroke="#999999" points="37.75,-77.5 0,-77.5 0,-56.75 37.75,-56.75 37.75,-77.5"/>
<text xml:space="preserve" text-anchor="middle" x="18.88" y="-64" font-family="Helvetica,sans-Serif" font-size="10.00">map</text>
</a>
</g>
</g>
<!-- Node23&#45;&gt;Node24 -->
<g id="edge35_Node000023_Node000024" class="edge">
<title>Node23&#45;&gt;Node24</title>
<g id="a_edge35_Node000023_Node000024"><a xlink:title=" ">
<path fill="none" stroke="#63b8ff" d="M121.53,-113.09C101.13,-104.15 70.84,-90.88 48.44,-81.08"/>
<polygon fill="#63b8ff" stroke="#63b8ff" points="50.11,-77.99 39.55,-77.18 47.3,-84.4 50.11,-77.99"/>
</a>
</g>
</g>
<!-- Node25 -->
<g id="Node000025" class="node">
<title>Node25</title>
<g id="a_Node000025"><a xlink:title=" ">
<polygon fill="#e0e0e0" stroke="#999999" points="119.88,-77.5 55.88,-77.5 55.88,-56.75 119.88,-56.75 119.88,-77.5"/>
<text xml:space="preserve" text-anchor="middle" x="87.88" y="-64" font-family="Helvetica,sans-Serif" font-size="10.00">stdexcept</text>
</a>
</g>
</g>
<!-- Node23&#45;&gt;Node25 -->
<g id="edge36_Node000023_Node000025" class="edge">
<title>Node23&#45;&gt;Node25</title>
<g id="a_edge36_Node000023_Node000025"><a xlink:title=" ">
<path fill="none" stroke="#63b8ff" d="M133.86,-113.09C126.14,-105.53 115.25,-94.89 106,-85.85"/>
<polygon fill="#63b8ff" stroke="#63b8ff" points="108.48,-83.37 98.88,-78.89 103.59,-88.38 108.48,-83.37"/>
</a>
</g>
</g>
<!-- Node26 -->
<g id="Node000026" class="node">
<title>Node26</title>
<g id="a_Node000026"><a xlink:title=" ">
<polygon fill="#e0e0e0" stroke="#999999" points="202.25,-77.5 137.5,-77.5 137.5,-56.75 202.25,-56.75 202.25,-77.5"/>
<text xml:space="preserve" text-anchor="middle" x="169.88" y="-64" font-family="Helvetica,sans-Serif" font-size="10.00">functional</text>
</a>
</g>
</g>
<!-- Node23&#45;&gt;Node26 -->
<g id="edge37_Node000023_Node000026" class="edge">
<title>Node23&#45;&gt;Node26</title>
<g id="a_edge37_Node000023_Node000026"><a xlink:title=" ">
<path fill="none" stroke="#63b8ff" d="M148.52,-113.09C151.81,-106.16 156.34,-96.62 160.38,-88.11"/>
<polygon fill="#63b8ff" stroke="#63b8ff" points="163.49,-89.73 164.62,-79.2 157.17,-86.73 163.49,-89.73"/>
</a>
</g>
</g>
<!-- Node27&#45;&gt;Node2 -->
<g id="edge45_Node000027_Node000002" class="edge">
<title>Node27&#45;&gt;Node2</title>
<g id="a_edge45_Node000027_Node000002"><a xlink:title=" ">
<path fill="none" stroke="#63b8ff" d="M587.38,-340.09C560.83,-331.28 521.58,-318.25 492.15,-308.49"/>
<polygon fill="#63b8ff" stroke="#63b8ff" points="493.43,-305.22 482.83,-305.4 491.22,-311.87 493.43,-305.22"/>
</a>
</g>
</g>
<!-- Node27&#45;&gt;Node3 -->
<g id="edge43_Node000027_Node000003" class="edge">
<title>Node27&#45;&gt;Node3</title>
<g id="a_edge43_Node000027_Node000003"><a xlink:title=" ">
<path fill="none" stroke="#63b8ff" d="M598.5,-340.06C582.44,-331.28 558.65,-317.77 538.88,-304.5 515.52,-288.82 490.15,-268.93 473.06,-255.08"/>
<polygon fill="#63b8ff" stroke="#63b8ff" points="475.61,-252.65 465.65,-249.03 471.18,-258.07 475.61,-252.65"/>
</a>
</g>
</g>
<!-- Node27&#45;&gt;Node5 -->
<g id="edge46_Node000027_Node000005" class="edge">
<title>Node27&#45;&gt;Node5</title>
<g id="a_edge46_Node000027_Node000005"><a xlink:title=" ">
<path fill="none" stroke="#63b8ff" d="M618.92,-340.37C622.76,-322.52 631.14,-283.61 636.36,-259.34"/>
<polygon fill="#63b8ff" stroke="#63b8ff" points="639.76,-260.17 638.45,-249.65 632.92,-258.69 639.76,-260.17"/>
</a>
</g>
</g>
<!-- Node27&#45;&gt;Node8 -->
<g id="edge44_Node000027_Node000008" class="edge">
<title>Node27&#45;&gt;Node8</title>
<g id="a_edge44_Node000027_Node000008"><a xlink:title=" ">
<path fill="none" stroke="#63b8ff" d="M623.32,-340.21C646.16,-305.95 723.5,-189.94 754.18,-143.92"/>
<polygon fill="#63b8ff" stroke="#63b8ff" points="756.98,-146.03 759.61,-135.77 751.15,-142.15 756.98,-146.03"/>
</a>
</g>
</g>
<!-- Node27&#45;&gt;Node14 -->
<g id="edge52_Node000027_Node000014" class="edge">
<title>Node27&#45;&gt;Node14</title>
<g id="a_edge52_Node000027_Node000014"><a xlink:title=" ">
<path fill="none" stroke="#63b8ff" d="M646.39,-346.99C702.02,-339.76 816.88,-315.5 816.88,-238.38 816.88,-238.38 816.88,-238.38 816.88,-179.62 816.88,-149.05 818.74,-135.85 797.88,-113.5 776.23,-90.32 741.82,-78.95 714.58,-73.39"/>
<polygon fill="#63b8ff" stroke="#63b8ff" points="715.35,-69.98 704.89,-71.62 714.1,-76.86 715.35,-69.98"/>
</a>
</g>
</g>
<!-- Node27&#45;&gt;Node15 -->
<g id="edge42_Node000027_Node000015" class="edge">
<title>Node27&#45;&gt;Node15</title>
<g id="a_edge42_Node000027_Node000015"><a xlink:title=" ">
<path fill="none" stroke="#63b8ff" d="M587.15,-347.75C496.53,-340.45 229.88,-312.67 229.88,-238.38 229.88,-238.38 229.88,-238.38 229.88,-122.88 229.88,-92.3 228.32,-79.38 248.88,-56.75 266.24,-37.64 292.68,-26.47 315.83,-19.99"/>
<polygon fill="#63b8ff" stroke="#63b8ff" points="316.59,-23.41 325.42,-17.55 314.86,-16.63 316.59,-23.41"/>
</a>
</g>
</g>
<!-- Node27&#45;&gt;Node19 -->
<g id="edge53_Node000027_Node000019" class="edge">
<title>Node27&#45;&gt;Node19</title>
<g id="a_edge53_Node000027_Node000019"><a xlink:title=" ">
<path fill="none" stroke="#63b8ff" d="M646.4,-347.17C698.47,-341.85 803.71,-328.39 830.88,-304.5 878.37,-262.74 890.06,-183.04 892.94,-145.46"/>
<polygon fill="#63b8ff" stroke="#63b8ff" points="896.4,-146.15 893.52,-135.95 889.42,-145.72 896.4,-146.15"/>
</a>
</g>
</g>
<!-- Node28 -->
<g id="Node000028" class="node">
<title>Node28</title>
<g id="a_Node000028"><a xlink:href="SingSub_8h.html" target="_top" xlink:title="Exact subtractions for singular/near&#45;singular triangle integrals.">
<polygon fill="white" stroke="#666666" points="611.88,-304.5 547.88,-304.5 547.88,-283.75 611.88,-283.75 611.88,-304.5"/>
<text xml:space="preserve" text-anchor="middle" x="579.88" y="-291" font-family="Helvetica,sans-Serif" font-size="10.00">SingSub.h</text>
</a>
</g>
</g>
<!-- Node27&#45;&gt;Node28 -->
<g id="edge47_Node000027_Node000028" class="edge">
<title>Node27&#45;&gt;Node28</title>
<g id="a_edge47_Node000027_Node000028"><a xlink:title=" ">
<path fill="none" stroke="#63b8ff" d="M610.26,-340.09C605.42,-332.92 598.7,-322.98 592.8,-314.26"/>
<polygon fill="#63b8ff" stroke="#63b8ff" points="595.78,-312.41 587.28,-306.08 589.98,-316.33 595.78,-312.41"/>
</a>
</g>
</g>
<!-- Node28&#45;&gt;Node5 -->
<g id="edge49_Node000028_Node000005" class="edge">
<title>Node28&#45;&gt;Node5</title>
<g id="a_edge49_Node000028_Node000005"><a xlink:title=" ">
<path fill="none" stroke="#63b8ff" d="M590.78,-283.34C599.37,-275.63 611.55,-264.7 621.75,-255.54"/>
<polygon fill="#63b8ff" stroke="#63b8ff" points="623.83,-258.37 628.94,-249.09 619.16,-253.16 623.83,-258.37"/>
</a>
</g>
</g>
<!-- Node28&#45;&gt;Node9 -->
<g id="edge48_Node000028_Node000009" class="edge">
<title>Node28&#45;&gt;Node9</title>
<g id="a_edge48_Node000028_Node000009"><a xlink:title=" ">
<path fill="none" stroke="#63b8ff" d="M567.97,-283.57C540.96,-261.04 475.56,-201.39 451.88,-134.25 448.81,-125.55 448.56,-122.11 451.88,-113.5 456.02,-102.73 464.04,-92.93 471.89,-85.21"/>
<polygon fill="#63b8ff" stroke="#63b8ff" points="473.98,-88.04 479.03,-78.73 469.28,-82.85 473.98,-88.04"/>
</a>
</g>
</g>
<!-- Node28&#45;&gt;Node13 -->
<g id="edge50_Node000028_Node000013" class="edge">
<title>Node28&#45;&gt;Node13</title>
<g id="a_edge50_Node000028_Node000013"><a xlink:title=" ">
<path fill="none" stroke="#63b8ff" d="M574.95,-283.6C561.14,-256.89 521.83,-180.87 503.07,-144.6"/>
<polygon fill="#63b8ff" stroke="#63b8ff" points="506.36,-143.34 498.66,-136.06 500.14,-146.55 506.36,-143.34"/>
</a>
</g>
</g>
<!-- Node28&#45;&gt;Node14 -->
<g id="edge51_Node000028_Node000014" class="edge">
<title>Node28&#45;&gt;Node14</title>
<g id="a_edge51_Node000028_Node000014"><a xlink:title=" ">
<path fill="none" stroke="#63b8ff" d="M579.85,-283.47C580.12,-262.19 582.53,-209.98 598.88,-170.25 612.33,-137.53 638.28,-105.44 655.59,-86.21"/>
<polygon fill="#63b8ff" stroke="#63b8ff" points="658.06,-88.69 662.27,-78.97 652.92,-83.94 658.06,-88.69"/>
</a>
</g>
</g>
</g>
</svg>

<g id="navigator" transform="translate(0 0)" fill="#404254">
  <rect fill="#f2f5e9" fill-opacity="0.5" stroke="#606060" stroke-width=".5" x="0" y="0" width="60" height="60"/>
  <use id="zoomplus" xlink:href="#zoomPlus" x="17" y="9" onmousedown="handleZoom(evt,'in')"/>
  <use id="zoomminus" xlink:href="#zoomMin" x="42" y="9" onmousedown="handleZoom(evt,'out')"/>
  <use id="reset" xlink:href="#resetDef" x="30" y="36" onmousedown="handleReset()"/>
   <use id="arrowup" xlink:href="#arrowUp" x="0" y="0" onmousedown="handlePan(0,-1)"/>
  <use id="arrowright" xlink:href="#arrowRight" x="0" y="0" onmousedown="handlePan(1,0)"/>
  <use id="arrowdown" xlink:href="#arrowDown" x="0" y="0" onmousedown="handlePan(0,1)"/>
  <use id="arrowleft" xlink:href="#arrowLeft" x="0" y="0" onmousedown="handlePan(-1,0)"/>
</g>
<svg viewBox="0 0 15 15" width="100%" height="30px" preserveAspectRatio="xMaxYMin meet">
 <g id="arrow_out" transform="scale(0.3 0.3)">
  <a xlink:href="PlaneWave_8h__incl_org.svg" target="_base">
   <rect id="button" ry="5" rx="5" y="6" x="6" height="38" width="38"
        fill="#f2f5e9" fill-opacity="0.5" stroke="#606060" stroke-width="1.0"/>
   <path id="arrow"
     d="M 11.500037,31.436501 C 11.940474,20.09759 22.043105,11.32322 32.158766,21.979434 L 37.068811,17.246167 C 37.068811,17.246167 37.088388,32 37.088388,32 L 22.160133,31.978069 C 22.160133,31.978069 26.997745,27.140456 26.997745,27.140456 C 18.528582,18.264221 13.291696,25.230495 11.500037,31.436501 z"
     style="fill:#404040;"/>
  </a>
 </g>
</svg>

<style type='text/css'>
<![CDATA[
[data-mouse-over-selected='false'] { opacity: 0.7; }
[data-mouse-over-selected='true']  { opacity: 1.0; }
]]>
</style>
<script type="application/ecmascript"><![CDATA[
document.addEventListener('DOMContentLoaded', (event) => {
  highlightEdges();
  highlightAdjacentNodes();
});
]]></script>
</svg>
