<?xml version="1.0" encoding="UTF-8" standalone="no"?>
<!DOCTYPE svg PUBLIC "-//W3C//DTD SVG 1.1//EN"
 "http://www.w3.org/Graphics/SVG/1.1/DTD/svg11.dtd">
<!-- Generated by graphviz version 13.1.2 (20250809.0930)
 -->
<!-- Title: PlaneWave.cpp Pages: 1 -->
<svg width="1157pt" height="540pt"
 viewBox="0.00 0.00 1157.00 540.00" xmlns="http://www.w3.org/2000/svg" xmlns:xlink="http://www.w3.org/1999/xlink">
<g id="graph0" class="graph" transform="scale(1 1) rotate(0) translate(4 535.5)">
<title>PlaneWave.cpp</title>
<!-- Node1 -->
<g id="Node000001" class="node">
<title>Node1</title>
<g id="a_Node000001"><a xlink:title="Implementation for the PlaneWave class.">
<polygon fill="#999999" stroke="#666666" points="1137.5,-531.5 1047.25,-531.5 1047.25,-510.75 1137.5,-510.75 1137.5,-531.5"/>
<text xml:space="preserve" text-anchor="middle" x="1092.38" y="-518" font-family="Helvetica,sans-Serif" font-size="10.00">PlaneWave.cpp</text>
</a>
</g>
</g>
<!-- Node2 -->
<g id="Node000002" class="node">
<title>Node2</title>
<g id="a_Node000002"><a xlink:href="PlaneWave_8h.html" target="_top" xlink:title="Defines the PlaneWave class: representation of a plane‐wave incident field.">
<polygon fill="white" stroke="#666666" points="1093.88,-474.75 1014.88,-474.75 1014.88,-454 1093.88,-454 1093.88,-474.75"/>
<text xml:space="preserve" text-anchor="middle" x="1054.38" y="-461.25" font-family="Helvetica,sans-Serif" font-size="10.00">PlaneWave.h</text>
</a>
</g>
</g>
<!-- Node1&#45;&gt;Node2 -->
<g id="edge1_Node000001_Node000002" class="edge">
<title>Node1&#45;&gt;Node2</title>
<g id="a_edge1_Node000001_Node000002"><a xlink:title=" ">
<path fill="none" stroke="#63b8ff" d="M1085.58,-510.34C1080.61,-503.17 1073.71,-493.23 1067.65,-484.51"/>
<polygon fill="#63b8ff" stroke="#63b8ff" points="1070.55,-482.54 1061.97,-476.32 1064.8,-486.53 1070.55,-482.54"/>
</a>
</g>
</g>
<!-- Node5 -->
<g id="Node000005" class="node">
<title>Node5</title>
<g id="a_Node000005"><a xlink:title=" ">
<polygon fill="#e0e0e0" stroke="#999999" points="1141.12,-77.5 1081.62,-77.5 1081.62,-56.75 1141.12,-56.75 1141.12,-77.5"/>
<text xml:space="preserve" text-anchor="middle" x="1111.38" y="-64" font-family="Helvetica,sans-Serif" font-size="10.00">iostream</text>
</a>
</g>
</g>
<!-- Node1&#45;&gt;Node5 -->
<g id="edge57_Node000001_Node000005" class="edge">
<title>Node1&#45;&gt;Node5</title>
<g id="a_edge57_Node000001_Node000005"><a xlink:title=" ">
<path fill="none" stroke="#63b8ff" d="M1101.28,-510.53C1117.31,-492.21 1149.38,-450.37 1149.38,-408.62 1149.38,-408.62 1149.38,-408.62 1149.38,-179.62 1149.38,-146.01 1133.71,-109.6 1122.5,-87.84"/>
<polygon fill="#63b8ff" stroke="#63b8ff" points="1125.68,-86.37 1117.86,-79.22 1119.52,-89.69 1125.68,-86.37"/>
</a>
</g>
</g>
<!-- Node3 -->
<g id="Node000003" class="node">
<title>Node3</title>
<g id="a_Node000003"><a xlink:href="GaussQuad_8h.html" target="_top" xlink:title="Gaussian quadrature helpers for Green&#39;s functions and incident fields.">
<polygon fill="white" stroke="#666666" points="951.62,-304.5 871.12,-304.5 871.12,-283.75 951.62,-283.75 951.62,-304.5"/>
<text xml:space="preserve" text-anchor="middle" x="911.38" y="-291" font-family="Helvetica,sans-Serif" font-size="10.00">GaussQuad.h</text>
</a>
</g>
</g>
<!-- Node2&#45;&gt;Node3 -->
<g id="edge2_Node000002_Node000003" class="edge">
<title>Node2&#45;&gt;Node3</title>
<g id="a_edge2_Node000002_Node000003"><a xlink:title=" ">
<path fill="none" stroke="#63b8ff" d="M1046.28,-453.85C1023.28,-426.79 957.29,-349.15 926.96,-313.46"/>
<polygon fill="#63b8ff" stroke="#63b8ff" points="929.86,-311.47 920.72,-306.12 924.53,-316.01 929.86,-311.47"/>
</a>
</g>
</g>
<!-- Node15 -->
<g id="Node000015" class="node">
<title>Node15</title>
<g id="a_Node000015"><a xlink:href="globals_8h.html" target="_top" xlink:title="Global numerical constants, fundamental types, and simple macros.">
<polygon fill="white" stroke="#666666" points="779.5,-77.5 719.25,-77.5 719.25,-56.75 779.5,-56.75 779.5,-77.5"/>
<text xml:space="preserve" text-anchor="middle" x="749.38" y="-64" font-family="Helvetica,sans-Serif" font-size="10.00">globals.h</text>
</a>
</g>
</g>
<!-- Node2&#45;&gt;Node15 -->
<g id="edge55_Node000002_Node000015" class="edge">
<title>Node2&#45;&gt;Node15</title>
<g id="a_edge55_Node000002_Node000015"><a xlink:title=" ">
<path fill="none" stroke="#63b8ff" d="M1060.15,-453.61C1070.78,-434.68 1092.38,-391.35 1092.38,-351.88 1092.38,-351.88 1092.38,-351.88 1092.38,-236.38 1092.38,-103.57 882.56,-75.58 791.13,-69.69"/>
<polygon fill="#63b8ff" stroke="#63b8ff" points="791.51,-66.21 781.32,-69.13 791.11,-73.2 791.51,-66.21"/>
</a>
</g>
</g>
<!-- Node23 -->
<g id="Node000023" class="node">
<title>Node23</title>
<g id="a_Node000023"><a xlink:href="IncidentField_8h.html" target="_top" xlink:title="Abstract interface for incident electromagnetic excitations.">
<polygon fill="white" stroke="#666666" points="785,-418 697.75,-418 697.75,-397.25 785,-397.25 785,-418"/>
<text xml:space="preserve" text-anchor="middle" x="741.38" y="-404.5" font-family="Helvetica,sans-Serif" font-size="10.00">IncidentField.h</text>
</a>
</g>
</g>
<!-- Node2&#45;&gt;Node23 -->
<g id="edge32_Node000002_Node000023" class="edge">
<title>Node2&#45;&gt;Node23</title>
<g id="a_edge32_Node000002_Node000023"><a xlink:title=" ">
<path fill="none" stroke="#63b8ff" d="M1014.42,-456.39C959.1,-446.71 858.99,-429.2 796.57,-418.28"/>
<polygon fill="#63b8ff" stroke="#63b8ff" points="797.32,-414.86 786.87,-416.58 796.11,-421.75 797.32,-414.86"/>
</a>
</g>
</g>
<!-- Node24 -->
<g id="Node000024" class="node">
<title>Node24</title>
<g id="a_Node000024"><a xlink:href="LayeredMediaUtils_8h.html" target="_top" xlink:title="This header declares utility structures and algorithms used throughout the layered&#45;media scattering s...">
<polygon fill="white" stroke="#666666" points="202.62,-134.25 86.12,-134.25 86.12,-113.5 202.62,-113.5 202.62,-134.25"/>
<text xml:space="preserve" text-anchor="middle" x="144.38" y="-120.75" font-family="Helvetica,sans-Serif" font-size="10.00">LayeredMediaUtils.h</text>
</a>
</g>
</g>
<!-- Node2&#45;&gt;Node24 -->
<g id="edge56_Node000002_Node000024" class="edge">
<title>Node2&#45;&gt;Node24</title>
<g id="a_edge56_Node000002_Node000024"><a xlink:title=" ">
<path fill="none" stroke="#63b8ff" d="M1014.53,-462.73C839.47,-459.39 147.38,-440.57 147.38,-351.88 147.38,-351.88 147.38,-351.88 147.38,-236.38 147.38,-204.97 146.17,-168.61 145.29,-146.17"/>
<polygon fill="#63b8ff" stroke="#63b8ff" points="148.79,-146.08 144.88,-136.23 141.79,-146.36 148.79,-146.08"/>
</a>
</g>
</g>
<!-- Node4 -->
<g id="Node000004" class="node">
<title>Node4</title>
<g id="a_Node000004"><a xlink:title=" ">
<polygon fill="#e0e0e0" stroke="#999999" points="853.75,-247.75 807,-247.75 807,-227 853.75,-227 853.75,-247.75"/>
<text xml:space="preserve" text-anchor="middle" x="830.38" y="-234.25" font-family="Helvetica,sans-Serif" font-size="10.00">cmath</text>
</a>
</g>
</g>
<!-- Node3&#45;&gt;Node4 -->
<g id="edge3_Node000003_Node000004" class="edge">
<title>Node3&#45;&gt;Node4</title>
<g id="a_edge3_Node000003_Node000004"><a xlink:title=" ">
<path fill="none" stroke="#63b8ff" d="M896.89,-283.34C885.03,-275.32 868,-263.81 854.14,-254.44"/>
<polygon fill="#63b8ff" stroke="#63b8ff" points="856.23,-251.63 845.98,-248.93 852.31,-257.43 856.23,-251.63"/>
</a>
</g>
</g>
<!-- Node3&#45;&gt;Node5 -->
<g id="edge4_Node000003_Node000005" class="edge">
<title>Node3&#45;&gt;Node5</title>
<g id="a_edge4_Node000003_Node000005"><a xlink:title=" ">
<path fill="none" stroke="#63b8ff" d="M927.65,-283.31C941,-274.83 959.98,-261.76 974.38,-247.75 1027.87,-195.7 1077.54,-121.77 1099.51,-87.25"/>
<polygon fill="#63b8ff" stroke="#63b8ff" points="1102.24,-89.49 1104.61,-79.16 1096.32,-85.76 1102.24,-89.49"/>
</a>
</g>
</g>
<!-- Node6 -->
<g id="Node000006" class="node">
<title>Node6</title>
<g id="a_Node000006"><a xlink:href="RWGFun_8h.html" target="_top" xlink:title="Header for the RWGFun class.">
<polygon fill="white" stroke="#666666" points="751.5,-247.75 685.25,-247.75 685.25,-227 751.5,-227 751.5,-247.75"/>
<text xml:space="preserve" text-anchor="middle" x="718.38" y="-234.25" font-family="Helvetica,sans-Serif" font-size="10.00">RWGFun.h</text>
</a>
</g>
</g>
<!-- Node3&#45;&gt;Node6 -->
<g id="edge5_Node000003_Node000006" class="edge">
<title>Node3&#45;&gt;Node6</title>
<g id="a_edge5_Node000003_Node000006"><a xlink:title=" ">
<path fill="none" stroke="#63b8ff" d="M876.87,-283.34C844.98,-274.29 797.41,-260.8 762.71,-250.95"/>
<polygon fill="#63b8ff" stroke="#63b8ff" points="763.97,-247.67 753.39,-248.31 762.06,-254.4 763.97,-247.67"/>
</a>
</g>
</g>
<!-- Node3&#45;&gt;Node15 -->
<g id="edge30_Node000003_Node000015" class="edge">
<title>Node3&#45;&gt;Node15</title>
<g id="a_edge30_Node000003_Node000015"><a xlink:title=" ">
<path fill="none" stroke="#63b8ff" d="M927.15,-283.38C938.47,-275.38 952.84,-262.92 959.38,-247.75 963.02,-239.28 962.41,-235.71 959.38,-227 938.2,-166.2 921.36,-151.48 869.38,-113.5 846.01,-96.43 815.45,-85 791.02,-77.88"/>
<polygon fill="#63b8ff" stroke="#63b8ff" points="791.96,-74.51 781.39,-75.22 790.09,-81.26 791.96,-74.51"/>
</a>
</g>
</g>
<!-- Node22 -->
<g id="Node000022" class="node">
<title>Node22</title>
<g id="a_Node000022"><a xlink:href="quadrature_8h.html" target="_top" xlink:title="Declarations of Dunavant (triangle) and Gauss–Legendre (1D) quadrature rules.">
<polygon fill="white" stroke="#666666" points="950.5,-247.75 872.25,-247.75 872.25,-227 950.5,-227 950.5,-247.75"/>
<text xml:space="preserve" text-anchor="middle" x="911.38" y="-234.25" font-family="Helvetica,sans-Serif" font-size="10.00">quadrature.h</text>
</a>
</g>
</g>
<!-- Node3&#45;&gt;Node22 -->
<g id="edge31_Node000003_Node000022" class="edge">
<title>Node3&#45;&gt;Node22</title>
<g id="a_edge31_Node000003_Node000022"><a xlink:title=" ">
<path fill="none" stroke="#63b8ff" d="M911.38,-283.34C911.38,-276.72 911.38,-267.72 911.38,-259.52"/>
<polygon fill="#63b8ff" stroke="#63b8ff" points="914.88,-259.59 911.38,-249.59 907.88,-259.59 914.88,-259.59"/>
</a>
</g>
</g>
<!-- Node7 -->
<g id="Node000007" class="node">
<title>Node7</title>
<g id="a_Node000007"><a xlink:href="SurfaceMesh_8h.html" target="_top" xlink:title="Declaration of the SurfaceMesh class and mesh edge struct.">
<polygon fill="white" stroke="#666666" points="591.38,-191 503.38,-191 503.38,-170.25 591.38,-170.25 591.38,-191"/>
<text xml:space="preserve" text-anchor="middle" x="547.38" y="-177.5" font-family="Helvetica,sans-Serif" font-size="10.00">SurfaceMesh.h</text>
</a>
</g>
</g>
<!-- Node6&#45;&gt;Node7 -->
<g id="edge6_Node000006_Node000007" class="edge">
<title>Node6&#45;&gt;Node7</title>
<g id="a_edge6_Node000006_Node000007"><a xlink:title=" ">
<path fill="none" stroke="#63b8ff" d="M687.8,-226.59C660.17,-217.74 619.26,-204.64 588.71,-194.86"/>
<polygon fill="#63b8ff" stroke="#63b8ff" points="590,-191.6 579.41,-191.88 587.87,-198.26 590,-191.6"/>
</a>
</g>
</g>
<!-- Node14 -->
<g id="Node000014" class="node">
<title>Node14</title>
<g id="a_Node000014"><a xlink:href="Triangle_8h.html" target="_top" xlink:title="Declaration of the Triangle class (surface element with cached geometry).">
<polygon fill="white" stroke="#666666" points="751,-134.25 687.75,-134.25 687.75,-113.5 751,-113.5 751,-134.25"/>
<text xml:space="preserve" text-anchor="middle" x="719.38" y="-120.75" font-family="Helvetica,sans-Serif" font-size="10.00">Triangle.h</text>
</a>
</g>
</g>
<!-- Node6&#45;&gt;Node14 -->
<g id="edge28_Node000006_Node000014" class="edge">
<title>Node6&#45;&gt;Node14</title>
<g id="a_edge28_Node000006_Node000014"><a xlink:title=" ">
<path fill="none" stroke="#63b8ff" d="M718.46,-226.87C718.62,-209.1 718.97,-170.47 719.18,-146.18"/>
<polygon fill="#63b8ff" stroke="#63b8ff" points="722.68,-146.22 719.27,-136.19 715.68,-146.16 722.68,-146.22"/>
</a>
</g>
</g>
<!-- Node6&#45;&gt;Node15 -->
<g id="edge29_Node000006_Node000015" class="edge">
<title>Node6&#45;&gt;Node15</title>
<g id="a_edge29_Node000006_Node000015"><a xlink:title=" ">
<path fill="none" stroke="#63b8ff" d="M728.99,-226.64C746.45,-209.81 780.56,-173.34 793.38,-134.25 796.25,-125.49 796.84,-122.05 793.38,-113.5 788.96,-102.6 780.52,-92.87 772.21,-85.24"/>
<polygon fill="#63b8ff" stroke="#63b8ff" points="774.49,-82.58 764.59,-78.81 769.97,-87.93 774.49,-82.58"/>
</a>
</g>
</g>
<!-- Node8 -->
<g id="Node000008" class="node">
<title>Node8</title>
<g id="a_Node000008"><a xlink:title=" ">
<polygon fill="#e0e0e0" stroke="#999999" points="630.88,-134.25 599.88,-134.25 599.88,-113.5 630.88,-113.5 630.88,-134.25"/>
<text xml:space="preserve" text-anchor="middle" x="615.38" y="-120.75" font-family="Helvetica,sans-Serif" font-size="10.00">set</text>
</a>
</g>
</g>
<!-- Node7&#45;&gt;Node8 -->
<g id="edge7_Node000007_Node000008" class="edge">
<title>Node7&#45;&gt;Node8</title>
<g id="a_edge7_Node000007_Node000008"><a xlink:title=" ">
<path fill="none" stroke="#63b8ff" d="M559.53,-169.84C569.2,-162.05 582.96,-150.97 594.4,-141.76"/>
<polygon fill="#63b8ff" stroke="#63b8ff" points="596.55,-144.53 602.14,-135.53 592.16,-139.07 596.55,-144.53"/>
</a>
</g>
</g>
<!-- Node9 -->
<g id="Node000009" class="node">
<title>Node9</title>
<g id="a_Node000009"><a xlink:title=" ">
<polygon fill="#e0e0e0" stroke="#999999" points="456.62,-134.25 412.12,-134.25 412.12,-113.5 456.62,-113.5 456.62,-134.25"/>
<text xml:space="preserve" text-anchor="middle" x="434.38" y="-120.75" font-family="Helvetica,sans-Serif" font-size="10.00">utility</text>
</a>
</g>
</g>
<!-- Node7&#45;&gt;Node9 -->
<g id="edge8_Node000007_Node000009" class="edge">
<title>Node7&#45;&gt;Node9</title>
<g id="a_edge8_Node000007_Node000009"><a xlink:title=" ">
<path fill="none" stroke="#63b8ff" d="M527.17,-169.84C509.82,-161.43 484.54,-149.18 464.75,-139.59"/>
<polygon fill="#63b8ff" stroke="#63b8ff" points="466.29,-136.45 455.76,-135.24 463.24,-142.75 466.29,-136.45"/>
</a>
</g>
</g>
<!-- Node10 -->
<g id="Node000010" class="node">
<title>Node10</title>
<g id="a_Node000010"><a xlink:title=" ">
<polygon fill="#e0e0e0" stroke="#999999" points="507.75,-77.5 461,-77.5 461,-56.75 507.75,-56.75 507.75,-77.5"/>
<text xml:space="preserve" text-anchor="middle" x="484.38" y="-64" font-family="Helvetica,sans-Serif" font-size="10.00">vector</text>
</a>
</g>
</g>
<!-- Node7&#45;&gt;Node10 -->
<g id="edge9_Node000007_Node000010" class="edge">
<title>Node7&#45;&gt;Node10</title>
<g id="a_edge9_Node000007_Node000010"><a xlink:title=" ">
<path fill="none" stroke="#63b8ff" d="M535.23,-170.06C525.31,-161.62 511.62,-148.49 503.38,-134.25 495.22,-120.16 490.36,-102.34 487.6,-88.74"/>
<polygon fill="#63b8ff" stroke="#63b8ff" points="491.1,-88.39 485.89,-79.17 484.21,-89.63 491.1,-88.39"/>
</a>
</g>
</g>
<!-- Node11 -->
<g id="Node000011" class="node">
<title>Node11</title>
<g id="a_Node000011"><a xlink:href="JobParser_8h.html" target="_top" xlink:title="Lightweight XML&#45;like tag parser for the solver job file.">
<polygon fill="white" stroke="#666666" points="582,-134.25 512.75,-134.25 512.75,-113.5 582,-113.5 582,-134.25"/>
<text xml:space="preserve" text-anchor="middle" x="547.38" y="-120.75" font-family="Helvetica,sans-Serif" font-size="10.00">JobParser.h</text>
</a>
</g>
</g>
<!-- Node7&#45;&gt;Node11 -->
<g id="edge10_Node000007_Node000011" class="edge">
<title>Node7&#45;&gt;Node11</title>
<g id="a_edge10_Node000007_Node000011"><a xlink:title=" ">
<path fill="none" stroke="#63b8ff" d="M547.38,-169.84C547.38,-163.22 547.38,-154.22 547.38,-146.02"/>
<polygon fill="#63b8ff" stroke="#63b8ff" points="550.88,-146.09 547.38,-136.09 543.88,-146.09 550.88,-146.09"/>
</a>
</g>
</g>
<!-- Node7&#45;&gt;Node14 -->
<g id="edge15_Node000007_Node000014" class="edge">
<title>Node7&#45;&gt;Node14</title>
<g id="a_edge15_Node000007_Node000014"><a xlink:title=" ">
<path fill="none" stroke="#63b8ff" d="M578.13,-169.84C605.92,-160.99 647.07,-147.89 677.8,-138.11"/>
<polygon fill="#63b8ff" stroke="#63b8ff" points="678.69,-141.5 687.16,-135.13 676.57,-134.83 678.69,-141.5"/>
</a>
</g>
</g>
<!-- Node7&#45;&gt;Node15 -->
<g id="edge22_Node000007_Node000015" class="edge">
<title>Node7&#45;&gt;Node15</title>
<g id="a_edge22_Node000007_Node000015"><a xlink:title=" ">
<path fill="none" stroke="#63b8ff" d="M568.71,-169.89C587.74,-161.05 616.25,-147.42 640.38,-134.25 669.89,-118.14 702.77,-97.86 724.62,-84.03"/>
<polygon fill="#63b8ff" stroke="#63b8ff" points="726.28,-87.13 732.83,-78.81 722.52,-81.22 726.28,-87.13"/>
</a>
</g>
</g>
<!-- Node20 -->
<g id="Node000020" class="node">
<title>Node20</title>
<g id="a_Node000020"><a xlink:href="mathFunctions_8h.html" target="_top" xlink:title="Header file of the class that provides auxiliary mathematical functionalities for the SIE solver.">
<polygon fill="white" stroke="#666666" points="355.88,-134.25 258.88,-134.25 258.88,-113.5 355.88,-113.5 355.88,-134.25"/>
<text xml:space="preserve" text-anchor="middle" x="307.38" y="-120.75" font-family="Helvetica,sans-Serif" font-size="10.00">mathFunctions.h</text>
</a>
</g>
</g>
<!-- Node7&#45;&gt;Node20 -->
<g id="edge23_Node000007_Node000020" class="edge">
<title>Node7&#45;&gt;Node20</title>
<g id="a_edge23_Node000007_Node000020"><a xlink:title=" ">
<path fill="none" stroke="#63b8ff" d="M504.19,-169.77C464.3,-160.67 404.87,-147.12 361.76,-137.28"/>
<polygon fill="#63b8ff" stroke="#63b8ff" points="362.62,-133.89 352.09,-135.08 361.06,-140.71 362.62,-133.89"/>
</a>
</g>
</g>
<!-- Node11&#45;&gt;Node5 -->
<g id="edge12_Node000011_Node000005" class="edge">
<title>Node11&#45;&gt;Node5</title>
<g id="a_edge12_Node000011_Node000005"><a xlink:title=" ">
<path fill="none" stroke="#63b8ff" d="M582.37,-115.01C585.41,-114.45 588.44,-113.94 591.38,-113.5 768.31,-87.03 981.61,-74.4 1069.95,-70.01"/>
<polygon fill="#63b8ff" stroke="#63b8ff" points="1070,-73.51 1079.82,-69.53 1069.66,-66.52 1070,-73.51"/>
</a>
</g>
</g>
<!-- Node11&#45;&gt;Node10 -->
<g id="edge14_Node000011_Node000010" class="edge">
<title>Node11&#45;&gt;Node10</title>
<g id="a_edge14_Node000011_Node000010"><a xlink:title=" ">
<path fill="none" stroke="#63b8ff" d="M536.11,-113.09C527.24,-105.38 514.66,-94.45 504.13,-85.29"/>
<polygon fill="#63b8ff" stroke="#63b8ff" points="506.53,-82.74 496.68,-78.82 501.94,-88.02 506.53,-82.74"/>
</a>
</g>
</g>
<!-- Node12 -->
<g id="Node000012" class="node">
<title>Node12</title>
<g id="a_Node000012"><a xlink:title=" ">
<polygon fill="#e0e0e0" stroke="#999999" points="405.5,-77.5 351.25,-77.5 351.25,-56.75 405.5,-56.75 405.5,-77.5"/>
<text xml:space="preserve" text-anchor="middle" x="378.38" y="-64" font-family="Helvetica,sans-Serif" font-size="10.00">fstream</text>
</a>
</g>
</g>
<!-- Node11&#45;&gt;Node12 -->
<g id="edge11_Node000011_Node000012" class="edge">
<title>Node11&#45;&gt;Node12</title>
<g id="a_edge11_Node000011_Node000012"><a xlink:title=" ">
<path fill="none" stroke="#63b8ff" d="M517.16,-113.09C489,-103.96 446.9,-90.32 416.45,-80.46"/>
<polygon fill="#63b8ff" stroke="#63b8ff" points="417.84,-77.23 407.25,-77.48 415.69,-83.89 417.84,-77.23"/>
</a>
</g>
</g>
<!-- Node13 -->
<g id="Node000013" class="node">
<title>Node13</title>
<g id="a_Node000013"><a xlink:title=" ">
<polygon fill="#e0e0e0" stroke="#999999" points="569.25,-77.5 525.5,-77.5 525.5,-56.75 569.25,-56.75 569.25,-77.5"/>
<text xml:space="preserve" text-anchor="middle" x="547.38" y="-64" font-family="Helvetica,sans-Serif" font-size="10.00">string</text>
</a>
</g>
</g>
<!-- Node11&#45;&gt;Node13 -->
<g id="edge13_Node000011_Node000013" class="edge">
<title>Node11&#45;&gt;Node13</title>
<g id="a_edge13_Node000011_Node000013"><a xlink:title=" ">
<path fill="none" stroke="#63b8ff" d="M547.38,-113.09C547.38,-106.47 547.38,-97.47 547.38,-89.27"/>
<polygon fill="#63b8ff" stroke="#63b8ff" points="550.88,-89.34 547.38,-79.34 543.88,-89.34 550.88,-89.34"/>
</a>
</g>
</g>
<!-- Node14&#45;&gt;Node10 -->
<g id="edge16_Node000014_Node000010" class="edge">
<title>Node14&#45;&gt;Node10</title>
<g id="a_edge16_Node000014_Node000010"><a xlink:title=" ">
<path fill="none" stroke="#63b8ff" d="M687.58,-116.44C649.6,-108.6 583.92,-94.59 518.93,-78.05"/>
<polygon fill="#63b8ff" stroke="#63b8ff" points="520.12,-74.74 509.56,-75.64 518.37,-81.52 520.12,-74.74"/>
</a>
</g>
</g>
<!-- Node14&#45;&gt;Node15 -->
<g id="edge17_Node000014_Node000015" class="edge">
<title>Node14&#45;&gt;Node15</title>
<g id="a_edge17_Node000014_Node000015"><a xlink:title=" ">
<path fill="none" stroke="#63b8ff" d="M724.74,-113.09C728.58,-106.08 733.88,-96.41 738.58,-87.83"/>
<polygon fill="#63b8ff" stroke="#63b8ff" points="741.59,-89.61 743.33,-79.16 735.46,-86.24 741.59,-89.61"/>
</a>
</g>
</g>
<!-- Node16 -->
<g id="Node000016" class="node">
<title>Node16</title>
<g id="a_Node000016"><a xlink:title=" ">
<polygon fill="#e0e0e0" stroke="#999999" points="424.88,-20.75 351.88,-20.75 351.88,0 424.88,0 424.88,-20.75"/>
<text xml:space="preserve" text-anchor="middle" x="388.38" y="-7.25" font-family="Helvetica,sans-Serif" font-size="10.00">blitz/array.h</text>
</a>
</g>
</g>
<!-- Node15&#45;&gt;Node16 -->
<g id="edge18_Node000015_Node000016" class="edge">
<title>Node15&#45;&gt;Node16</title>
<g id="a_edge18_Node000015_Node000016"><a xlink:title=" ">
<path fill="none" stroke="#63b8ff" d="M718.91,-61.5C656.09,-51.98 511.77,-30.09 436.32,-18.65"/>
<polygon fill="#63b8ff" stroke="#63b8ff" points="437.17,-15.24 426.76,-17.2 436.12,-22.16 437.17,-15.24"/>
</a>
</g>
</g>
<!-- Node17 -->
<g id="Node000017" class="node">
<title>Node17</title>
<g id="a_Node000017"><a xlink:title=" ">
<polygon fill="#e0e0e0" stroke="#999999" points="738.88,-20.75 647.88,-20.75 647.88,0 738.88,0 738.88,-20.75"/>
<text xml:space="preserve" text-anchor="middle" x="693.38" y="-7.25" font-family="Helvetica,sans-Serif" font-size="10.00">blitz/tinyvec2.h</text>
</a>
</g>
</g>
<!-- Node15&#45;&gt;Node17 -->
<g id="edge19_Node000015_Node000017" class="edge">
<title>Node15&#45;&gt;Node17</title>
<g id="a_edge19_Node000015_Node000017"><a xlink:title=" ">
<path fill="none" stroke="#63b8ff" d="M739.36,-56.34C731.64,-48.78 720.75,-38.14 711.5,-29.1"/>
<polygon fill="#63b8ff" stroke="#63b8ff" points="713.98,-26.62 704.38,-22.14 709.09,-31.63 713.98,-26.62"/>
</a>
</g>
</g>
<!-- Node18 -->
<g id="Node000018" class="node">
<title>Node18</title>
<g id="a_Node000018"><a xlink:title=" ">
<polygon fill="#e0e0e0" stroke="#999999" points="853.5,-20.75 757.25,-20.75 757.25,0 853.5,0 853.5,-20.75"/>
<text xml:space="preserve" text-anchor="middle" x="805.38" y="-7.25" font-family="Helvetica,sans-Serif" font-size="10.00">blitz/tvecglobs.h</text>
</a>
</g>
</g>
<!-- Node15&#45;&gt;Node18 -->
<g id="edge20_Node000015_Node000018" class="edge">
<title>Node15&#45;&gt;Node18</title>
<g id="a_edge20_Node000015_Node000018"><a xlink:title=" ">
<path fill="none" stroke="#63b8ff" d="M759.39,-56.34C767.11,-48.78 778,-38.14 787.25,-29.1"/>
<polygon fill="#63b8ff" stroke="#63b8ff" points="789.66,-31.63 794.37,-22.14 784.77,-26.62 789.66,-31.63"/>
</a>
</g>
</g>
<!-- Node19 -->
<g id="Node000019" class="node">
<title>Node19</title>
<g id="a_Node000019"><a xlink:title=" ">
<polygon fill="#e0e0e0" stroke="#999999" points="560.38,-20.75 502.38,-20.75 502.38,0 560.38,0 560.38,-20.75"/>
<text xml:space="preserve" text-anchor="middle" x="531.38" y="-7.25" font-family="Helvetica,sans-Serif" font-size="10.00">complex</text>
</a>
</g>
</g>
<!-- Node15&#45;&gt;Node19 -->
<g id="edge21_Node000015_Node000019" class="edge">
<title>Node15&#45;&gt;Node19</title>
<g id="a_edge21_Node000015_Node000019"><a xlink:title=" ">
<path fill="none" stroke="#63b8ff" d="M719.06,-58.51C680.7,-48.88 614.48,-32.25 571.83,-21.54"/>
<polygon fill="#63b8ff" stroke="#63b8ff" points="572.75,-18.16 562.2,-19.12 571.05,-24.95 572.75,-18.16"/>
</a>
</g>
</g>
<!-- Node20&#45;&gt;Node10 -->
<g id="edge26_Node000020_Node000010" class="edge">
<title>Node20&#45;&gt;Node10</title>
<g id="a_edge26_Node000020_Node000010"><a xlink:title=" ">
<path fill="none" stroke="#63b8ff" d="M339.02,-113.09C370.24,-103.43 417.83,-88.71 449.98,-78.77"/>
<polygon fill="#63b8ff" stroke="#63b8ff" points="450.68,-82.21 459.2,-75.91 448.62,-75.52 450.68,-82.21"/>
</a>
</g>
</g>
<!-- Node20&#45;&gt;Node15 -->
<g id="edge27_Node000020_Node000015" class="edge">
<title>Node20&#45;&gt;Node15</title>
<g id="a_edge27_Node000020_Node000015"><a xlink:title=" ">
<path fill="none" stroke="#63b8ff" d="M356.37,-116.81C443.88,-105.97 625.57,-83.46 707.59,-73.3"/>
<polygon fill="#63b8ff" stroke="#63b8ff" points="707.95,-76.78 717.44,-72.08 707.09,-69.84 707.95,-76.78"/>
</a>
</g>
</g>
<!-- Node20&#45;&gt;Node19 -->
<g id="edge25_Node000020_Node000019" class="edge">
<title>Node20&#45;&gt;Node19</title>
<g id="a_edge25_Node000020_Node000019"><a xlink:title=" ">
<path fill="none" stroke="#63b8ff" d="M332.82,-113.03C354.73,-104.33 387.04,-90.96 414.38,-77.5 423.35,-73.08 472.87,-44.87 504.54,-26.76"/>
<polygon fill="#63b8ff" stroke="#63b8ff" points="506.26,-29.8 513.2,-21.8 502.78,-23.73 506.26,-29.8"/>
</a>
</g>
</g>
<!-- Node21 -->
<g id="Node000021" class="node">
<title>Node21</title>
<g id="a_Node000021"><a xlink:title=" ">
<polygon fill="#e0e0e0" stroke="#999999" points="332.62,-77.5 282.12,-77.5 282.12,-56.75 332.62,-56.75 332.62,-77.5"/>
<text xml:space="preserve" text-anchor="middle" x="307.38" y="-64" font-family="Helvetica,sans-Serif" font-size="10.00">math.h</text>
</a>
</g>
</g>
<!-- Node20&#45;&gt;Node21 -->
<g id="edge24_Node000020_Node000021" class="edge">
<title>Node20&#45;&gt;Node21</title>
<g id="a_edge24_Node000020_Node000021"><a xlink:title=" ">
<path fill="none" stroke="#63b8ff" d="M307.38,-113.09C307.38,-106.47 307.38,-97.47 307.38,-89.27"/>
<polygon fill="#63b8ff" stroke="#63b8ff" points="310.88,-89.34 307.38,-79.34 303.88,-89.34 310.88,-89.34"/>
</a>
</g>
</g>
<!-- Node23&#45;&gt;Node6 -->
<g id="edge33_Node000023_Node000006" class="edge">
<title>Node23&#45;&gt;Node6</title>
<g id="a_edge33_Node000023_Node000006"><a xlink:title=" ">
<path fill="none" stroke="#63b8ff" d="M740.07,-397.1C736.47,-370.73 726.3,-296.33 721.27,-259.53"/>
<polygon fill="#63b8ff" stroke="#63b8ff" points="724.75,-259.15 719.93,-249.72 717.81,-260.1 724.75,-259.15"/>
</a>
</g>
</g>
<!-- Node23&#45;&gt;Node15 -->
<g id="edge34_Node000023_Node000015" class="edge">
<title>Node23&#45;&gt;Node15</title>
<g id="a_edge34_Node000023_Node000015"><a xlink:title=" ">
<path fill="none" stroke="#63b8ff" d="M785.35,-398.02C835.29,-385.91 915.61,-358.94 960.38,-304.5 976.87,-284.43 971.24,-273.54 974.38,-247.75 982.67,-179.47 956.04,-149.41 897.38,-113.5 864.55,-93.41 822.14,-81.6 791.13,-75.09"/>
<polygon fill="#63b8ff" stroke="#63b8ff" points="791.83,-71.66 781.34,-73.14 790.47,-78.52 791.83,-71.66"/>
</a>
</g>
</g>
<!-- Node23&#45;&gt;Node24 -->
<g id="edge35_Node000023_Node000024" class="edge">
<title>Node23&#45;&gt;Node24</title>
<g id="a_edge35_Node000023_Node000024"><a xlink:title=" ">
<path fill="none" stroke="#63b8ff" d="M697.68,-407.04C567.36,-407.13 190.38,-398.46 190.38,-295.12 190.38,-295.12 190.38,-295.12 190.38,-236.38 190.38,-201.8 171.24,-165.45 157.65,-143.99"/>
<polygon fill="#63b8ff" stroke="#63b8ff" points="160.63,-142.14 152.2,-135.73 154.79,-146 160.63,-142.14"/>
</a>
</g>
</g>
<!-- Node28 -->
<g id="Node000028" class="node">
<title>Node28</title>
<g id="a_Node000028"><a xlink:href="GreenF_8h.html" target="_top" xlink:title="Abstract base class for electromagnetic Green&#39;s functions.">
<polygon fill="white" stroke="#666666" points="713.75,-361.25 655,-361.25 655,-340.5 713.75,-340.5 713.75,-361.25"/>
<text xml:space="preserve" text-anchor="middle" x="684.38" y="-347.75" font-family="Helvetica,sans-Serif" font-size="10.00">GreenF.h</text>
</a>
</g>
</g>
<!-- Node23&#45;&gt;Node28 -->
<g id="edge42_Node000023_Node000028" class="edge">
<title>Node23&#45;&gt;Node28</title>
<g id="a_edge42_Node000023_Node000028"><a xlink:title=" ">
<path fill="none" stroke="#63b8ff" d="M731.18,-396.84C723.24,-389.21 712.01,-378.42 702.54,-369.32"/>
<polygon fill="#63b8ff" stroke="#63b8ff" points="705.21,-367.03 695.57,-362.63 700.36,-372.08 705.21,-367.03"/>
</a>
</g>
</g>
<!-- Node24&#45;&gt;Node10 -->
<g id="edge39_Node000024_Node000010" class="edge">
<title>Node24&#45;&gt;Node10</title>
<g id="a_edge39_Node000024_Node000010"><a xlink:title=" ">
<path fill="none" stroke="#63b8ff" d="M202.82,-113.46C273.87,-102.02 391.47,-83.09 449.62,-73.72"/>
<polygon fill="#63b8ff" stroke="#63b8ff" points="449.94,-77.21 459.26,-72.17 448.83,-70.3 449.94,-77.21"/>
</a>
</g>
</g>
<!-- Node24&#45;&gt;Node12 -->
<g id="edge41_Node000024_Node000012" class="edge">
<title>Node24&#45;&gt;Node12</title>
<g id="a_edge41_Node000024_Node000012"><a xlink:title=" ">
<path fill="none" stroke="#63b8ff" d="M188.26,-113.06C225.88,-104.57 281.81,-91.81 340.02,-77.79"/>
<polygon fill="#63b8ff" stroke="#63b8ff" points="340.54,-81.26 349.44,-75.51 338.9,-74.46 340.54,-81.26"/>
</a>
</g>
</g>
<!-- Node24&#45;&gt;Node15 -->
<g id="edge40_Node000024_Node000015" class="edge">
<title>Node24&#45;&gt;Node15</title>
<g id="a_edge40_Node000024_Node000015"><a xlink:title=" ">
<path fill="none" stroke="#63b8ff" d="M202.93,-117.58C324.58,-106.57 602.04,-81.46 707.58,-71.91"/>
<polygon fill="#63b8ff" stroke="#63b8ff" points="707.84,-75.4 717.49,-71.01 707.21,-68.43 707.84,-75.4"/>
</a>
</g>
</g>
<!-- Node25 -->
<g id="Node000025" class="node">
<title>Node25</title>
<g id="a_Node000025"><a xlink:title=" ">
<polygon fill="#e0e0e0" stroke="#999999" points="120.25,-77.5 82.5,-77.5 82.5,-56.75 120.25,-56.75 120.25,-77.5"/>
<text xml:space="preserve" text-anchor="middle" x="101.38" y="-64" font-family="Helvetica,sans-Serif" font-size="10.00">map</text>
</a>
</g>
</g>
<!-- Node24&#45;&gt;Node25 -->
<g id="edge36_Node000024_Node000025" class="edge">
<title>Node24&#45;&gt;Node25</title>
<g id="a_edge36_Node000024_Node000025"><a xlink:title=" ">
<path fill="none" stroke="#63b8ff" d="M136.69,-113.09C130.94,-105.77 122.91,-95.54 115.96,-86.69"/>
<polygon fill="#63b8ff" stroke="#63b8ff" points="118.86,-84.72 109.93,-79.02 113.35,-89.05 118.86,-84.72"/>
</a>
</g>
</g>
<!-- Node26 -->
<g id="Node000026" class="node">
<title>Node26</title>
<g id="a_Node000026"><a xlink:title=" ">
<polygon fill="#e0e0e0" stroke="#999999" points="202.38,-77.5 138.38,-77.5 138.38,-56.75 202.38,-56.75 202.38,-77.5"/>
<text xml:space="preserve" text-anchor="middle" x="170.38" y="-64" font-family="Helvetica,sans-Serif" font-size="10.00">stdexcept</text>
</a>
</g>
</g>
<!-- Node24&#45;&gt;Node26 -->
<g id="edge37_Node000024_Node000026" class="edge">
<title>Node24&#45;&gt;Node26</title>
<g id="a_edge37_Node000024_Node000026"><a xlink:title=" ">
<path fill="none" stroke="#63b8ff" d="M149.02,-113.09C152.31,-106.16 156.84,-96.62 160.88,-88.11"/>
<polygon fill="#63b8ff" stroke="#63b8ff" points="163.99,-89.73 165.12,-79.2 157.67,-86.73 163.99,-89.73"/>
</a>
</g>
</g>
<!-- Node27 -->
<g id="Node000027" class="node">
<title>Node27</title>
<g id="a_Node000027"><a xlink:title=" ">
<polygon fill="#e0e0e0" stroke="#999999" points="64.75,-77.5 0,-77.5 0,-56.75 64.75,-56.75 64.75,-77.5"/>
<text xml:space="preserve" text-anchor="middle" x="32.38" y="-64" font-family="Helvetica,sans-Serif" font-size="10.00">functional</text>
</a>
</g>
</g>
<!-- Node24&#45;&gt;Node27 -->
<g id="edge38_Node000024_Node000027" class="edge">
<title>Node24&#45;&gt;Node27</title>
<g id="a_edge38_Node000024_Node000027"><a xlink:title=" ">
<path fill="none" stroke="#63b8ff" d="M124.35,-113.09C107.15,-104.68 82.1,-92.43 62.48,-82.84"/>
<polygon fill="#63b8ff" stroke="#63b8ff" points="64.11,-79.74 53.58,-78.49 61.03,-86.03 64.11,-79.74"/>
</a>
</g>
</g>
<!-- Node28&#45;&gt;Node3 -->
<g id="edge46_Node000028_Node000003" class="edge">
<title>Node28&#45;&gt;Node3</title>
<g id="a_edge46_Node000028_Node000003"><a xlink:title=" ">
<path fill="none" stroke="#63b8ff" d="M714.05,-342.72C751.05,-333.79 814.92,-318.39 859.95,-307.53"/>
<polygon fill="#63b8ff" stroke="#63b8ff" points="860.59,-310.97 869.49,-305.23 858.95,-304.17 860.59,-310.97"/>
</a>
</g>
</g>
<!-- Node28&#45;&gt;Node4 -->
<g id="edge44_Node000028_Node000004" class="edge">
<title>Node28&#45;&gt;Node4</title>
<g id="a_edge44_Node000028_Node000004"><a xlink:title=" ">
<path fill="none" stroke="#63b8ff" d="M714.11,-343.23C737.83,-336.69 770.72,-324.68 793.38,-304.5 807.33,-292.07 817.19,-273.08 823.2,-258.63"/>
<polygon fill="#63b8ff" stroke="#63b8ff" points="826.33,-260.24 826.66,-249.65 819.8,-257.72 826.33,-260.24"/>
</a>
</g>
</g>
<!-- Node28&#45;&gt;Node6 -->
<g id="edge47_Node000028_Node000006" class="edge">
<title>Node28&#45;&gt;Node6</title>
<g id="a_edge47_Node000028_Node000006"><a xlink:title=" ">
<path fill="none" stroke="#63b8ff" d="M687.27,-340.37C692.74,-322.44 704.69,-283.25 712.08,-259.01"/>
<polygon fill="#63b8ff" stroke="#63b8ff" points="715.38,-260.21 714.95,-249.62 708.68,-258.17 715.38,-260.21"/>
</a>
</g>
</g>
<!-- Node28&#45;&gt;Node9 -->
<g id="edge45_Node000028_Node000009" class="edge">
<title>Node28&#45;&gt;Node9</title>
<g id="a_edge45_Node000028_Node000009"><a xlink:title=" ">
<path fill="none" stroke="#63b8ff" d="M662.73,-340.15C645.53,-331.91 621.3,-319.12 602.38,-304.5 537.49,-254.37 475.41,-178.37 448.44,-143.52"/>
<polygon fill="#63b8ff" stroke="#63b8ff" points="451.29,-141.48 442.43,-135.67 445.73,-145.74 451.29,-141.48"/>
</a>
</g>
</g>
<!-- Node28&#45;&gt;Node15 -->
<g id="edge53_Node000028_Node000015" class="edge">
<title>Node28&#45;&gt;Node15</title>
<g id="a_edge53_Node000028_Node000015"><a xlink:title=" ">
<path fill="none" stroke="#63b8ff" d="M693.2,-340.1C718.46,-311.29 790.35,-223.13 808.38,-134.25 810.21,-125.21 812.45,-121.77 808.38,-113.5 802.28,-101.13 791.01,-91.18 779.94,-83.79"/>
<polygon fill="#63b8ff" stroke="#63b8ff" points="782.05,-80.98 771.69,-78.75 778.4,-86.95 782.05,-80.98"/>
</a>
</g>
</g>
<!-- Node28&#45;&gt;Node16 -->
<g id="edge43_Node000028_Node000016" class="edge">
<title>Node28&#45;&gt;Node16</title>
<g id="a_edge43_Node000028_Node000016"><a xlink:title=" ">
<path fill="none" stroke="#63b8ff" d="M654.59,-348.98C553.58,-345.15 230.38,-326.03 230.38,-238.38 230.38,-238.38 230.38,-238.38 230.38,-122.88 230.38,-68.17 294.38,-37.93 340.92,-23.18"/>
<polygon fill="#63b8ff" stroke="#63b8ff" points="341.71,-26.59 350.28,-20.36 339.7,-19.89 341.71,-26.59"/>
</a>
</g>
</g>
<!-- Node28&#45;&gt;Node20 -->
<g id="edge54_Node000028_Node000020" class="edge">
<title>Node28&#45;&gt;Node20</title>
<g id="a_edge54_Node000028_Node000020"><a xlink:title=" ">
<path fill="none" stroke="#63b8ff" d="M656.82,-340.12C634.36,-331.77 602.11,-318.84 575.38,-304.5 478.79,-252.67 373.26,-175.11 328.9,-141.45"/>
<polygon fill="#63b8ff" stroke="#63b8ff" points="331.19,-138.8 321.12,-135.52 326.95,-144.36 331.19,-138.8"/>
</a>
</g>
</g>
<!-- Node29 -->
<g id="Node000029" class="node">
<title>Node29</title>
<g id="a_Node000029"><a xlink:href="SingSub_8h.html" target="_top" xlink:title="Exact subtractions for singular/near&#45;singular triangle integrals.">
<polygon fill="white" stroke="#666666" points="675.38,-304.5 611.38,-304.5 611.38,-283.75 675.38,-283.75 675.38,-304.5"/>
<text xml:space="preserve" text-anchor="middle" x="643.38" y="-291" font-family="Helvetica,sans-Serif" font-size="10.00">SingSub.h</text>
</a>
</g>
</g>
<!-- Node28&#45;&gt;Node29 -->
<g id="edge48_Node000028_Node000029" class="edge">
<title>Node28&#45;&gt;Node29</title>
<g id="a_edge48_Node000028_Node000029"><a xlink:title=" ">
<path fill="none" stroke="#63b8ff" d="M677.05,-340.09C671.62,-332.85 664.07,-322.76 657.49,-313.97"/>
<polygon fill="#63b8ff" stroke="#63b8ff" points="660.34,-311.95 651.55,-306.04 654.74,-316.14 660.34,-311.95"/>
</a>
</g>
</g>
<!-- Node29&#45;&gt;Node6 -->
<g id="edge50_Node000029_Node000006" class="edge">
<title>Node29&#45;&gt;Node6</title>
<g id="a_edge50_Node000029_Node000006"><a xlink:title=" ">
<path fill="none" stroke="#63b8ff" d="M656.78,-283.34C667.66,-275.4 683.23,-264.03 695.99,-254.71"/>
<polygon fill="#63b8ff" stroke="#63b8ff" points="697.85,-257.69 703.86,-248.97 693.72,-252.04 697.85,-257.69"/>
</a>
</g>
</g>
<!-- Node29&#45;&gt;Node10 -->
<g id="edge49_Node000029_Node000010" class="edge">
<title>Node29&#45;&gt;Node10</title>
<g id="a_edge49_Node000029_Node000010"><a xlink:title=" ">
<path fill="none" stroke="#63b8ff" d="M611.85,-283.27C557.59,-264.39 448.07,-217.44 403.38,-134.25 390.1,-109.54 422.35,-90.58 450.01,-79.42"/>
<polygon fill="#63b8ff" stroke="#63b8ff" points="451.13,-82.73 459.25,-75.93 448.66,-76.19 451.13,-82.73"/>
</a>
</g>
</g>
<!-- Node29&#45;&gt;Node14 -->
<g id="edge51_Node000029_Node000014" class="edge">
<title>Node29&#45;&gt;Node14</title>
<g id="a_edge51_Node000029_Node000014"><a xlink:title=" ">
<path fill="none" stroke="#63b8ff" d="M641.52,-283.53C637.81,-261.47 631.72,-206.26 655.38,-170.25 663.5,-157.89 676.24,-147.85 688.23,-140.39"/>
<polygon fill="#63b8ff" stroke="#63b8ff" points="689.79,-143.53 696.69,-135.49 686.29,-137.47 689.79,-143.53"/>
</a>
</g>
</g>
<!-- Node29&#45;&gt;Node15 -->
<g id="edge52_Node000029_Node000015" class="edge">
<title>Node29&#45;&gt;Node15</title>
<g id="a_edge52_Node000029_Node000015"><a xlink:title=" ">
<path fill="none" stroke="#63b8ff" d="M647.3,-283.25C652.82,-269.91 663.64,-245.64 676.38,-227 707.75,-181.08 740.37,-186.14 760.38,-134.25 766.07,-119.47 762.6,-101.71 758.1,-88.32"/>
<polygon fill="#63b8ff" stroke="#63b8ff" points="761.48,-87.36 754.63,-79.28 754.94,-89.87 761.48,-87.36"/>
</a>
</g>
</g>
</g>
</svg>
