<?xml version="1.0" encoding="UTF-8" standalone="no"?>
<!DOCTYPE svg PUBLIC "-//W3C//DTD SVG 1.1//EN"
 "http://www.w3.org/Graphics/SVG/1.1/DTD/svg11.dtd">
<!-- Generated by graphviz version 13.1.2 (20250809.0930)
 -->
<!-- Title: SIEFormPMCHW.h Pages: 1 -->
<svg width="656pt" height="86pt"
 viewBox="0.00 0.00 656.00 86.00" xmlns="http://www.w3.org/2000/svg" xmlns:xlink="http://www.w3.org/1999/xlink">
<g id="graph0" class="graph" transform="scale(1 1) rotate(0) translate(4 81.5)">
<title>SIEFormPMCHW.h</title>
<!-- Node1 -->
<g id="Node000001" class="node">
<title>Node1</title>
<g id="a_Node000001"><a xlink:title="Header file for the SIEFormPMCHW class.">
<polygon fill="#999999" stroke="#666666" points="438.12,-77.5 335.12,-77.5 335.12,-56.75 438.12,-56.75 438.12,-77.5"/>
<text xml:space="preserve" text-anchor="middle" x="386.62" y="-64" font-family="Helvetica,sans-Serif" font-size="10.00">SIEFormPMCHW.h</text>
</a>
</g>
</g>
<!-- Node2 -->
<g id="Node000002" class="node">
<title>Node2</title>
<g id="a_Node000002"><a xlink:href="DomainHom3D_8cpp.html" target="_top" xlink:title="Implementation of the homogeneous 3D domain.">
<polygon fill="white" stroke="#666666" points="111.25,-20.75 0,-20.75 0,0 111.25,0 111.25,-20.75"/>
<text xml:space="preserve" text-anchor="middle" x="55.62" y="-7.25" font-family="Helvetica,sans-Serif" font-size="10.00">DomainHom3D.cpp</text>
</a>
</g>
</g>
<!-- Node1&#45;&gt;Node2 -->
<g id="edge1_Node000001_Node000002" class="edge">
<title>Node1&#45;&gt;Node2</title>
<g id="a_edge1_Node000001_Node000002"><a xlink:title=" ">
<path fill="none" stroke="#63b8ff" d="M323.86,-55.74C262.66,-45.62 170.47,-30.37 111.68,-20.65"/>
<polygon fill="#63b8ff" stroke="#63b8ff" points="322.98,-59.14 333.41,-57.32 324.12,-52.24 322.98,-59.14"/>
</a>
</g>
</g>
<!-- Node3 -->
<g id="Node000003" class="node">
<title>Node3</title>
<g id="a_Node000003"><a xlink:href="DomainLayered3D_8cpp.html" target="_top" xlink:title="Implementation of the layered 3D domain.">
<polygon fill="white" stroke="#666666" points="256.12,-20.75 129.12,-20.75 129.12,0 256.12,0 256.12,-20.75"/>
<text xml:space="preserve" text-anchor="middle" x="192.62" y="-7.25" font-family="Helvetica,sans-Serif" font-size="10.00">DomainLayered3D.cpp</text>
</a>
</g>
</g>
<!-- Node1&#45;&gt;Node3 -->
<g id="edge2_Node000001_Node000003" class="edge">
<title>Node1&#45;&gt;Node3</title>
<g id="a_edge2_Node000001_Node000003"><a xlink:title=" ">
<path fill="none" stroke="#63b8ff" d="M341.12,-53.28C306.34,-43.47 259.11,-30.14 227.33,-21.17"/>
<polygon fill="#63b8ff" stroke="#63b8ff" points="339.91,-56.58 350.49,-55.93 341.81,-49.84 339.91,-56.58"/>
</a>
</g>
</g>
<!-- Node4 -->
<g id="Node000004" class="node">
<title>Node4</title>
<g id="a_Node000004"><a xlink:href="SIEFormPMCHW_8cpp.html" target="_top" xlink:title="Implementation for the SIEFormPMCHW class.">
<polygon fill="white" stroke="#666666" points="388.75,-20.75 274.5,-20.75 274.5,0 388.75,0 388.75,-20.75"/>
<text xml:space="preserve" text-anchor="middle" x="331.62" y="-7.25" font-family="Helvetica,sans-Serif" font-size="10.00">SIEFormPMCHW.cpp</text>
</a>
</g>
</g>
<!-- Node1&#45;&gt;Node4 -->
<g id="edge3_Node000001_Node000004" class="edge">
<title>Node1&#45;&gt;Node4</title>
<g id="a_edge3_Node000001_Node000004"><a xlink:title=" ">
<path fill="none" stroke="#63b8ff" d="M368.72,-48.3C359.63,-39.25 348.94,-28.61 341.37,-21.08"/>
<polygon fill="#63b8ff" stroke="#63b8ff" points="366.16,-50.69 375.72,-55.27 371.1,-45.73 366.16,-50.69"/>
</a>
</g>
</g>
<!-- Node5 -->
<g id="Node000005" class="node">
<title>Node5</title>
<g id="a_Node000005"><a xlink:href="casimir_8cpp.html" target="_top" xlink:title="Main entry point for the HELIOS Casimir force routine.">
<polygon fill="white" stroke="#666666" points="478.38,-20.75 406.88,-20.75 406.88,0 478.38,0 478.38,-20.75"/>
<text xml:space="preserve" text-anchor="middle" x="442.62" y="-7.25" font-family="Helvetica,sans-Serif" font-size="10.00">casimir.cpp</text>
</a>
</g>
</g>
<!-- Node1&#45;&gt;Node5 -->
<g id="edge4_Node000001_Node000005" class="edge">
<title>Node1&#45;&gt;Node5</title>
<g id="a_edge4_Node000001_Node000005"><a xlink:title=" ">
<path fill="none" stroke="#63b8ff" d="M404.86,-48.3C414.11,-39.25 425,-28.61 432.7,-21.08"/>
<polygon fill="#63b8ff" stroke="#63b8ff" points="402.42,-45.79 397.72,-55.28 407.32,-50.79 402.42,-45.79"/>
</a>
</g>
</g>
<!-- Node6 -->
<g id="Node000006" class="node">
<title>Node6</title>
<g id="a_Node000006"><a xlink:href="main_8cpp.html" target="_top" xlink:title="This is the main file for the HELIOS program.">
<polygon fill="white" stroke="#666666" points="557.12,-20.75 496.12,-20.75 496.12,0 557.12,0 557.12,-20.75"/>
<text xml:space="preserve" text-anchor="middle" x="526.62" y="-7.25" font-family="Helvetica,sans-Serif" font-size="10.00">main.cpp</text>
</a>
</g>
</g>
<!-- Node1&#45;&gt;Node6 -->
<g id="edge5_Node000001_Node000006" class="edge">
<title>Node1&#45;&gt;Node6</title>
<g id="a_edge5_Node000001_Node000006"><a xlink:title=" ">
<path fill="none" stroke="#63b8ff" d="M422.14,-52.24C447.03,-42.5 479.68,-29.73 501.81,-21.08"/>
<polygon fill="#63b8ff" stroke="#63b8ff" points="421.1,-48.88 413.06,-55.79 423.65,-55.4 421.1,-48.88"/>
</a>
</g>
</g>
<!-- Node7 -->
<g id="Node000007" class="node">
<title>Node7</title>
<g id="a_Node000007"><a xlink:href="mainpp_8cpp.html" target="_top" xlink:title="This is the main file for the HELIOS program, specifically the post&#45;processing portion.">
<polygon fill="white" stroke="#666666" points="648.12,-20.75 575.12,-20.75 575.12,0 648.12,0 648.12,-20.75"/>
<text xml:space="preserve" text-anchor="middle" x="611.62" y="-7.25" font-family="Helvetica,sans-Serif" font-size="10.00">mainpp.cpp</text>
</a>
</g>
</g>
<!-- Node1&#45;&gt;Node7 -->
<g id="edge6_Node000001_Node000007" class="edge">
<title>Node1&#45;&gt;Node7</title>
<g id="a_edge6_Node000001_Node000007"><a xlink:title=" ">
<path fill="none" stroke="#63b8ff" d="M438.15,-53.59C479.88,-43.43 537.64,-29.38 574.82,-20.33"/>
<polygon fill="#63b8ff" stroke="#63b8ff" points="437.47,-50.15 428.58,-55.92 439.13,-56.95 437.47,-50.15"/>
</a>
</g>
</g>
</g>
</svg>
