<?xml version="1.0" encoding="UTF-8" standalone="no"?>
<!DOCTYPE svg PUBLIC "-//W3C//DTD SVG 1.1//EN"
 "http://www.w3.org/Graphics/SVG/1.1/DTD/svg11.dtd">
<!-- Generated by graphviz version 13.1.2 (20250809.0930)
 -->
<!-- Title: SIEFormPMCHW.h Pages: 1 -->
<svg width="1162pt" height="540pt"
 viewBox="0.00 0.00 1162.00 540.00" xmlns="http://www.w3.org/2000/svg" xmlns:xlink="http://www.w3.org/1999/xlink">
<g id="graph0" class="graph" transform="scale(1 1) rotate(0) translate(4 535.5)">
<title>SIEFormPMCHW.h</title>
<!-- Node1 -->
<g id="Node000001" class="node">
<title>Node1</title>
<g id="a_Node000001"><a xlink:title="Header file for the SIEFormPMCHW class.">
<polygon fill="#999999" stroke="#666666" points="919.5,-531.5 816.5,-531.5 816.5,-510.75 919.5,-510.75 919.5,-531.5"/>
<text xml:space="preserve" text-anchor="middle" x="868" y="-518" font-family="Helvetica,sans-Serif" font-size="10.00">SIEFormPMCHW.h</text>
</a>
</g>
</g>
<!-- Node2 -->
<g id="Node000002" class="node">
<title>Node2</title>
<g id="a_Node000002"><a xlink:title=" ">
<polygon fill="#e0e0e0" stroke="#999999" points="93.5,-20.75 20.5,-20.75 20.5,0 93.5,0 93.5,-20.75"/>
<text xml:space="preserve" text-anchor="middle" x="57" y="-7.25" font-family="Helvetica,sans-Serif" font-size="10.00">blitz/array.h</text>
</a>
</g>
</g>
<!-- Node1&#45;&gt;Node2 -->
<g id="edge1_Node000001_Node000002" class="edge">
<title>Node1&#45;&gt;Node2</title>
<g id="a_edge1_Node000001_Node000002"><a xlink:title=" ">
<path fill="none" stroke="#63b8ff" d="M816.3,-518.96C629.44,-514.06 0,-491.43 0,-408.62 0,-408.62 0,-408.62 0,-122.88 0,-86.84 23.89,-50.73 40.74,-29.74"/>
<polygon fill="#63b8ff" stroke="#63b8ff" points="43.38,-32.04 47.12,-22.13 38.02,-27.55 43.38,-32.04"/>
</a>
</g>
</g>
<!-- Node3 -->
<g id="Node000003" class="node">
<title>Node3</title>
<g id="a_Node000003"><a xlink:title=" ">
<polygon fill="#e0e0e0" stroke="#999999" points="1055.75,-474.75 1008.25,-474.75 1008.25,-454 1055.75,-454 1055.75,-474.75"/>
<text xml:space="preserve" text-anchor="middle" x="1032" y="-461.25" font-family="Helvetica,sans-Serif" font-size="10.00">mutex</text>
</a>
</g>
</g>
<!-- Node1&#45;&gt;Node3 -->
<g id="edge2_Node000001_Node000003" class="edge">
<title>Node1&#45;&gt;Node3</title>
<g id="a_edge2_Node000001_Node000003"><a xlink:title=" ">
<path fill="none" stroke="#63b8ff" d="M897.32,-510.34C925.34,-500.98 967.6,-486.88 997.29,-476.96"/>
<polygon fill="#63b8ff" stroke="#63b8ff" points="998.18,-480.35 1006.56,-473.87 995.97,-473.71 998.18,-480.35"/>
</a>
</g>
</g>
<!-- Node4 -->
<g id="Node000004" class="node">
<title>Node4</title>
<g id="a_Node000004"><a xlink:href="GreenF_8h.html" target="_top" xlink:title="Abstract base class for electromagnetic Green&#39;s functions.">
<polygon fill="white" stroke="#666666" points="577.38,-361.25 518.62,-361.25 518.62,-340.5 577.38,-340.5 577.38,-361.25"/>
<text xml:space="preserve" text-anchor="middle" x="548" y="-347.75" font-family="Helvetica,sans-Serif" font-size="10.00">GreenF.h</text>
</a>
</g>
</g>
<!-- Node1&#45;&gt;Node4 -->
<g id="edge3_Node000001_Node000004" class="edge">
<title>Node1&#45;&gt;Node4</title>
<g id="a_edge3_Node000001_Node000004"><a xlink:title=" ">
<path fill="none" stroke="#63b8ff" d="M816.28,-519.66C738.85,-517.81 598.2,-509.6 564,-474.75 537.59,-447.84 539.84,-400.19 543.89,-372.81"/>
<polygon fill="#63b8ff" stroke="#63b8ff" points="547.33,-373.43 545.58,-362.98 540.44,-372.24 547.33,-373.43"/>
</a>
</g>
</g>
<!-- Node9 -->
<g id="Node000009" class="node">
<title>Node9</title>
<g id="a_Node000009"><a xlink:href="RWGFun_8h.html" target="_top" xlink:title="Header for the RWGFun class.">
<polygon fill="white" stroke="#666666" points="602.12,-247.75 535.88,-247.75 535.88,-227 602.12,-227 602.12,-247.75"/>
<text xml:space="preserve" text-anchor="middle" x="569" y="-234.25" font-family="Helvetica,sans-Serif" font-size="10.00">RWGFun.h</text>
</a>
</g>
</g>
<!-- Node1&#45;&gt;Node9 -->
<g id="edge56_Node000001_Node000009" class="edge">
<title>Node1&#45;&gt;Node9</title>
<g id="a_edge56_Node000001_Node000009"><a xlink:title=" ">
<path fill="none" stroke="#63b8ff" d="M878.52,-510.29C900.37,-488.64 946.6,-435.75 921,-397.25 862.03,-308.54 795.15,-352.39 700,-304.5 683.85,-296.37 680.97,-292.23 665,-283.75 644.31,-272.76 620.51,-261.5 601.79,-252.95"/>
<polygon fill="#63b8ff" stroke="#63b8ff" points="603.34,-249.81 592.79,-248.87 600.45,-256.19 603.34,-249.81"/>
</a>
</g>
</g>
<!-- Node17 -->
<g id="Node000017" class="node">
<title>Node17</title>
<g id="a_Node000017"><a xlink:href="globals_8h.html" target="_top" xlink:title="Global numerical constants, fundamental types, and simple macros.">
<polygon fill="white" stroke="#666666" points="769.12,-77.5 708.88,-77.5 708.88,-56.75 769.12,-56.75 769.12,-77.5"/>
<text xml:space="preserve" text-anchor="middle" x="739" y="-64" font-family="Helvetica,sans-Serif" font-size="10.00">globals.h</text>
</a>
</g>
</g>
<!-- Node1&#45;&gt;Node17 -->
<g id="edge64_Node000001_Node000017" class="edge">
<title>Node1&#45;&gt;Node17</title>
<g id="a_edge64_Node000001_Node000017"><a xlink:title=" ">
<path fill="none" stroke="#63b8ff" d="M890.13,-510.34C922.77,-494.24 980,-458.84 980,-408.62 980,-408.62 980,-408.62 980,-179.62 980,-145.28 967.87,-133.58 940,-113.5 914.89,-95.41 831.91,-81.04 780.75,-73.63"/>
<polygon fill="#63b8ff" stroke="#63b8ff" points="781.31,-70.18 770.91,-72.24 780.32,-77.11 781.31,-70.18"/>
</a>
</g>
</g>
<!-- Node25 -->
<g id="Node000025" class="node">
<title>Node25</title>
<g id="a_Node000025"><a xlink:href="IncidentField_8h.html" target="_top" xlink:title="Abstract interface for incident electromagnetic excitations.">
<polygon fill="white" stroke="#666666" points="911.62,-418 824.38,-418 824.38,-397.25 911.62,-397.25 911.62,-418"/>
<text xml:space="preserve" text-anchor="middle" x="868" y="-404.5" font-family="Helvetica,sans-Serif" font-size="10.00">IncidentField.h</text>
</a>
</g>
</g>
<!-- Node1&#45;&gt;Node25 -->
<g id="edge45_Node000001_Node000025" class="edge">
<title>Node1&#45;&gt;Node25</title>
<g id="a_edge45_Node000001_Node000025"><a xlink:title=" ">
<path fill="none" stroke="#63b8ff" d="M868,-510.62C868,-492.85 868,-454.22 868,-429.93"/>
<polygon fill="#63b8ff" stroke="#63b8ff" points="871.5,-429.94 868,-419.94 864.5,-429.94 871.5,-429.94"/>
</a>
</g>
</g>
<!-- Node30 -->
<g id="Node000030" class="node">
<title>Node30</title>
<g id="a_Node000030"><a xlink:href="SIEForm_8h.html" target="_top" xlink:title="Header for the SIEForm class.">
<polygon fill="white" stroke="#666666" points="637.38,-474.75 572.62,-474.75 572.62,-454 637.38,-454 637.38,-474.75"/>
<text xml:space="preserve" text-anchor="middle" x="605" y="-461.25" font-family="Helvetica,sans-Serif" font-size="10.00">SIEForm.h</text>
</a>
</g>
</g>
<!-- Node1&#45;&gt;Node30 -->
<g id="edge57_Node000001_Node000030" class="edge">
<title>Node1&#45;&gt;Node30</title>
<g id="a_edge57_Node000001_Node000030"><a xlink:title=" ">
<path fill="none" stroke="#63b8ff" d="M820.68,-510.27C771.9,-500.12 696.47,-484.42 648.97,-474.53"/>
<polygon fill="#63b8ff" stroke="#63b8ff" points="649.8,-471.13 639.3,-472.51 648.37,-477.98 649.8,-471.13"/>
</a>
</g>
</g>
<!-- Node4&#45;&gt;Node2 -->
<g id="edge4_Node000004_Node000002" class="edge">
<title>Node4&#45;&gt;Node2</title>
<g id="a_edge4_Node000004_Node000002"><a xlink:title=" ">
<path fill="none" stroke="#63b8ff" d="M518.28,-343.39C487.56,-336.1 438.63,-322.84 399,-304.5 271.95,-245.72 232.43,-233.79 134,-134.25 103.15,-103.05 78.61,-57.37 66.09,-31.4"/>
<polygon fill="#63b8ff" stroke="#63b8ff" points="69.26,-29.91 61.85,-22.34 62.92,-32.88 69.26,-29.91"/>
</a>
</g>
</g>
<!-- Node5 -->
<g id="Node000005" class="node">
<title>Node5</title>
<g id="a_Node000005"><a xlink:title=" ">
<polygon fill="#e0e0e0" stroke="#999999" points="838.38,-247.75 791.62,-247.75 791.62,-227 838.38,-227 838.38,-247.75"/>
<text xml:space="preserve" text-anchor="middle" x="815" y="-234.25" font-family="Helvetica,sans-Serif" font-size="10.00">cmath</text>
</a>
</g>
</g>
<!-- Node4&#45;&gt;Node5 -->
<g id="edge5_Node000004_Node000005" class="edge">
<title>Node4&#45;&gt;Node5</title>
<g id="a_edge5_Node000004_Node000005"><a xlink:title=" ">
<path fill="none" stroke="#63b8ff" d="M577.55,-348.42C636.62,-344.9 766.35,-333.95 798,-304.5 810.34,-293.02 814.22,-273.89 815.22,-259.16"/>
<polygon fill="#63b8ff" stroke="#63b8ff" points="818.71,-259.68 815.48,-249.59 811.71,-259.49 818.71,-259.68"/>
</a>
</g>
</g>
<!-- Node6 -->
<g id="Node000006" class="node">
<title>Node6</title>
<g id="a_Node000006"><a xlink:title=" ">
<polygon fill="#e0e0e0" stroke="#999999" points="340.25,-134.25 295.75,-134.25 295.75,-113.5 340.25,-113.5 340.25,-134.25"/>
<text xml:space="preserve" text-anchor="middle" x="318" y="-120.75" font-family="Helvetica,sans-Serif" font-size="10.00">utility</text>
</a>
</g>
</g>
<!-- Node4&#45;&gt;Node6 -->
<g id="edge6_Node000004_Node000006" class="edge">
<title>Node4&#45;&gt;Node6</title>
<g id="a_edge6_Node000004_Node000006"><a xlink:title=" ">
<path fill="none" stroke="#63b8ff" d="M526.92,-340.03C509.83,-331.63 485.47,-318.68 466,-304.5 406.4,-261.09 386.79,-251.75 345,-191 335.33,-176.93 328.25,-158.87 323.77,-145.18"/>
<polygon fill="#63b8ff" stroke="#63b8ff" points="327.22,-144.48 320.95,-135.93 320.52,-146.52 327.22,-144.48"/>
</a>
</g>
</g>
<!-- Node7 -->
<g id="Node000007" class="node">
<title>Node7</title>
<g id="a_Node000007"><a xlink:href="GaussQuad_8h.html" target="_top" xlink:title="Gaussian quadrature helpers for Green&#39;s functions and incident fields.">
<polygon fill="white" stroke="#666666" points="789.25,-304.5 708.75,-304.5 708.75,-283.75 789.25,-283.75 789.25,-304.5"/>
<text xml:space="preserve" text-anchor="middle" x="749" y="-291" font-family="Helvetica,sans-Serif" font-size="10.00">GaussQuad.h</text>
</a>
</g>
</g>
<!-- Node4&#45;&gt;Node7 -->
<g id="edge7_Node000004_Node000007" class="edge">
<title>Node4&#45;&gt;Node7</title>
<g id="a_edge7_Node000004_Node000007"><a xlink:title=" ">
<path fill="none" stroke="#63b8ff" d="M577.66,-341.8C610.36,-332.89 663.42,-318.44 701.83,-307.97"/>
<polygon fill="#63b8ff" stroke="#63b8ff" points="702.56,-311.4 711.29,-305.4 700.72,-304.65 702.56,-311.4"/>
</a>
</g>
</g>
<!-- Node4&#45;&gt;Node9 -->
<g id="edge37_Node000004_Node000009" class="edge">
<title>Node4&#45;&gt;Node9</title>
<g id="a_edge37_Node000004_Node000009"><a xlink:title=" ">
<path fill="none" stroke="#63b8ff" d="M549.79,-340.37C553.15,-322.52 560.48,-283.61 565.05,-259.34"/>
<polygon fill="#63b8ff" stroke="#63b8ff" points="568.46,-260.14 566.87,-249.66 561.58,-258.84 568.46,-260.14"/>
</a>
</g>
</g>
<!-- Node4&#45;&gt;Node17 -->
<g id="edge43_Node000004_Node000017" class="edge">
<title>Node4&#45;&gt;Node17</title>
<g id="a_edge43_Node000004_Node000017"><a xlink:title=" ">
<path fill="none" stroke="#63b8ff" d="M577.6,-347.72C639.06,-342.81 778.1,-329.22 818,-304.5 848.87,-285.37 866,-274.69 866,-238.38 866,-238.38 866,-238.38 866,-179.62 866,-131.48 813.83,-99.25 776.37,-82.31"/>
<polygon fill="#63b8ff" stroke="#63b8ff" points="778.2,-79.29 767.63,-78.54 775.43,-85.72 778.2,-79.29"/>
</a>
</g>
</g>
<!-- Node21 -->
<g id="Node000021" class="node">
<title>Node21</title>
<g id="a_Node000021"><a xlink:href="mathFunctions_8h.html" target="_top" xlink:title="Header file of the class that provides auxiliary mathematical functionalities for the SIE solver.">
<polygon fill="white" stroke="#666666" points="239.5,-134.25 142.5,-134.25 142.5,-113.5 239.5,-113.5 239.5,-134.25"/>
<text xml:space="preserve" text-anchor="middle" x="191" y="-120.75" font-family="Helvetica,sans-Serif" font-size="10.00">mathFunctions.h</text>
</a>
</g>
</g>
<!-- Node4&#45;&gt;Node21 -->
<g id="edge44_Node000004_Node000021" class="edge">
<title>Node4&#45;&gt;Node21</title>
<g id="a_edge44_Node000004_Node000021"><a xlink:title=" ">
<path fill="none" stroke="#63b8ff" d="M518.48,-340.48C494.89,-332.42 461.36,-319.72 434,-304.5 344.45,-254.68 250.08,-176.3 210.38,-141.96"/>
<polygon fill="#63b8ff" stroke="#63b8ff" points="212.9,-139.51 203.06,-135.58 208.3,-144.79 212.9,-139.51"/>
</a>
</g>
</g>
<!-- Node24 -->
<g id="Node000024" class="node">
<title>Node24</title>
<g id="a_Node000024"><a xlink:href="SingSub_8h.html" target="_top" xlink:title="Exact subtractions for singular/near&#45;singular triangle integrals.">
<polygon fill="white" stroke="#666666" points="539,-304.5 475,-304.5 475,-283.75 539,-283.75 539,-304.5"/>
<text xml:space="preserve" text-anchor="middle" x="507" y="-291" font-family="Helvetica,sans-Serif" font-size="10.00">SingSub.h</text>
</a>
</g>
</g>
<!-- Node4&#45;&gt;Node24 -->
<g id="edge38_Node000004_Node000024" class="edge">
<title>Node4&#45;&gt;Node24</title>
<g id="a_edge38_Node000004_Node000024"><a xlink:title=" ">
<path fill="none" stroke="#63b8ff" d="M540.67,-340.09C535.25,-332.85 527.69,-322.76 521.11,-313.97"/>
<polygon fill="#63b8ff" stroke="#63b8ff" points="523.97,-311.95 515.17,-306.04 518.37,-316.14 523.97,-311.95"/>
</a>
</g>
</g>
<!-- Node7&#45;&gt;Node5 -->
<g id="edge8_Node000007_Node000005" class="edge">
<title>Node7&#45;&gt;Node5</title>
<g id="a_edge8_Node000007_Node000005"><a xlink:title=" ">
<path fill="none" stroke="#63b8ff" d="M760.8,-283.34C770.18,-275.55 783.54,-264.47 794.64,-255.26"/>
<polygon fill="#63b8ff" stroke="#63b8ff" points="796.68,-258.12 802.14,-249.04 792.21,-252.74 796.68,-258.12"/>
</a>
</g>
</g>
<!-- Node8 -->
<g id="Node000008" class="node">
<title>Node8</title>
<g id="a_Node000008"><a xlink:title=" ">
<polygon fill="#e0e0e0" stroke="#999999" points="610.75,-77.5 551.25,-77.5 551.25,-56.75 610.75,-56.75 610.75,-77.5"/>
<text xml:space="preserve" text-anchor="middle" x="581" y="-64" font-family="Helvetica,sans-Serif" font-size="10.00">iostream</text>
</a>
</g>
</g>
<!-- Node7&#45;&gt;Node8 -->
<g id="edge9_Node000007_Node000008" class="edge">
<title>Node7&#45;&gt;Node8</title>
<g id="a_edge9_Node000007_Node000008"><a xlink:title=" ">
<path fill="none" stroke="#63b8ff" d="M708.44,-285.41C687.01,-279.09 662.44,-267.78 649,-247.75 615.73,-198.17 672.2,-166.13 644,-113.5 637.19,-100.78 625.06,-90.77 613.25,-83.42"/>
<polygon fill="#63b8ff" stroke="#63b8ff" points="615.26,-80.54 604.84,-78.62 611.79,-86.62 615.26,-80.54"/>
</a>
</g>
</g>
<!-- Node7&#45;&gt;Node9 -->
<g id="edge10_Node000007_Node000009" class="edge">
<title>Node7&#45;&gt;Node9</title>
<g id="a_edge10_Node000007_Node000009"><a xlink:title=" ">
<path fill="none" stroke="#63b8ff" d="M716.82,-283.34C687.6,-274.45 644.29,-261.27 612.09,-251.48"/>
<polygon fill="#63b8ff" stroke="#63b8ff" points="613.24,-248.17 602.65,-248.61 611.2,-254.87 613.24,-248.17"/>
</a>
</g>
</g>
<!-- Node7&#45;&gt;Node17 -->
<g id="edge35_Node000007_Node000017" class="edge">
<title>Node7&#45;&gt;Node17</title>
<g id="a_edge35_Node000007_Node000017"><a xlink:title=" ">
<path fill="none" stroke="#63b8ff" d="M748.57,-283.46C747.07,-249.7 742.04,-136.59 739.94,-89.25"/>
<polygon fill="#63b8ff" stroke="#63b8ff" points="743.44,-89.1 739.5,-79.27 736.44,-89.41 743.44,-89.1"/>
</a>
</g>
</g>
<!-- Node23 -->
<g id="Node000023" class="node">
<title>Node23</title>
<g id="a_Node000023"><a xlink:href="quadrature_8h.html" target="_top" xlink:title="Declarations of Dunavant (triangle) and Gauss–Legendre (1D) quadrature rules.">
<polygon fill="white" stroke="#666666" points="736.12,-247.75 657.88,-247.75 657.88,-227 736.12,-227 736.12,-247.75"/>
<text xml:space="preserve" text-anchor="middle" x="697" y="-234.25" font-family="Helvetica,sans-Serif" font-size="10.00">quadrature.h</text>
</a>
</g>
</g>
<!-- Node7&#45;&gt;Node23 -->
<g id="edge36_Node000007_Node000023" class="edge">
<title>Node7&#45;&gt;Node23</title>
<g id="a_edge36_Node000007_Node000023"><a xlink:title=" ">
<path fill="none" stroke="#63b8ff" d="M739.7,-283.34C732.6,-275.86 722.63,-265.36 714.1,-256.38"/>
<polygon fill="#63b8ff" stroke="#63b8ff" points="716.68,-254.02 707.26,-249.18 711.61,-258.84 716.68,-254.02"/>
</a>
</g>
</g>
<!-- Node10 -->
<g id="Node000010" class="node">
<title>Node10</title>
<g id="a_Node000010"><a xlink:href="SurfaceMesh_8h.html" target="_top" xlink:title="Declaration of the SurfaceMesh class and mesh edge struct.">
<polygon fill="white" stroke="#666666" points="442,-191 354,-191 354,-170.25 442,-170.25 442,-191"/>
<text xml:space="preserve" text-anchor="middle" x="398" y="-177.5" font-family="Helvetica,sans-Serif" font-size="10.00">SurfaceMesh.h</text>
</a>
</g>
</g>
<!-- Node9&#45;&gt;Node10 -->
<g id="edge11_Node000009_Node000010" class="edge">
<title>Node9&#45;&gt;Node10</title>
<g id="a_edge11_Node000009_Node000010"><a xlink:title=" ">
<path fill="none" stroke="#63b8ff" d="M538.43,-226.59C510.79,-217.74 469.88,-204.64 439.34,-194.86"/>
<polygon fill="#63b8ff" stroke="#63b8ff" points="440.63,-191.6 430.04,-191.88 438.49,-198.26 440.63,-191.6"/>
</a>
</g>
</g>
<!-- Node16 -->
<g id="Node000016" class="node">
<title>Node16</title>
<g id="a_Node000016"><a xlink:href="Triangle_8h.html" target="_top" xlink:title="Declaration of the Triangle class (surface element with cached geometry).">
<polygon fill="white" stroke="#666666" points="634.62,-134.25 571.38,-134.25 571.38,-113.5 634.62,-113.5 634.62,-134.25"/>
<text xml:space="preserve" text-anchor="middle" x="603" y="-120.75" font-family="Helvetica,sans-Serif" font-size="10.00">Triangle.h</text>
</a>
</g>
</g>
<!-- Node9&#45;&gt;Node16 -->
<g id="edge33_Node000009_Node000016" class="edge">
<title>Node9&#45;&gt;Node16</title>
<g id="a_edge33_Node000009_Node000016"><a xlink:title=" ">
<path fill="none" stroke="#63b8ff" d="M571.9,-226.87C577.37,-208.94 589.32,-169.75 596.71,-145.51"/>
<polygon fill="#63b8ff" stroke="#63b8ff" points="600,-146.71 599.57,-136.12 593.31,-144.67 600,-146.71"/>
</a>
</g>
</g>
<!-- Node9&#45;&gt;Node17 -->
<g id="edge34_Node000009_Node000017" class="edge">
<title>Node9&#45;&gt;Node17</title>
<g id="a_edge34_Node000009_Node000017"><a xlink:title=" ">
<path fill="none" stroke="#63b8ff" d="M590.74,-226.53C622.38,-211.15 681.02,-178.55 715,-134.25 725.23,-120.91 731.4,-102.79 734.92,-88.9"/>
<polygon fill="#63b8ff" stroke="#63b8ff" points="738.26,-90 737.03,-79.47 731.43,-88.47 738.26,-90"/>
</a>
</g>
</g>
<!-- Node10&#45;&gt;Node6 -->
<g id="edge13_Node000010_Node000006" class="edge">
<title>Node10&#45;&gt;Node6</title>
<g id="a_edge13_Node000010_Node000006"><a xlink:title=" ">
<path fill="none" stroke="#63b8ff" d="M383.7,-169.84C371.98,-161.82 355.16,-150.31 341.47,-140.94"/>
<polygon fill="#63b8ff" stroke="#63b8ff" points="343.66,-138.19 333.43,-135.43 339.7,-143.97 343.66,-138.19"/>
</a>
</g>
</g>
<!-- Node11 -->
<g id="Node000011" class="node">
<title>Node11</title>
<g id="a_Node000011"><a xlink:title=" ">
<polygon fill="#e0e0e0" stroke="#999999" points="514.5,-134.25 483.5,-134.25 483.5,-113.5 514.5,-113.5 514.5,-134.25"/>
<text xml:space="preserve" text-anchor="middle" x="499" y="-120.75" font-family="Helvetica,sans-Serif" font-size="10.00">set</text>
</a>
</g>
</g>
<!-- Node10&#45;&gt;Node11 -->
<g id="edge12_Node000010_Node000011" class="edge">
<title>Node10&#45;&gt;Node11</title>
<g id="a_edge12_Node000010_Node000011"><a xlink:title=" ">
<path fill="none" stroke="#63b8ff" d="M416.06,-169.84C431.92,-161.24 455.19,-148.62 473.05,-138.94"/>
<polygon fill="#63b8ff" stroke="#63b8ff" points="474.64,-142.06 481.76,-134.22 471.3,-135.91 474.64,-142.06"/>
</a>
</g>
</g>
<!-- Node12 -->
<g id="Node000012" class="node">
<title>Node12</title>
<g id="a_Node000012"><a xlink:title=" ">
<polygon fill="#e0e0e0" stroke="#999999" points="391.38,-77.5 344.62,-77.5 344.62,-56.75 391.38,-56.75 391.38,-77.5"/>
<text xml:space="preserve" text-anchor="middle" x="368" y="-64" font-family="Helvetica,sans-Serif" font-size="10.00">vector</text>
</a>
</g>
</g>
<!-- Node10&#45;&gt;Node12 -->
<g id="edge14_Node000010_Node000012" class="edge">
<title>Node10&#45;&gt;Node12</title>
<g id="a_edge14_Node000010_Node000012"><a xlink:title=" ">
<path fill="none" stroke="#63b8ff" d="M395.44,-170.12C390.62,-152.19 380.07,-113 373.55,-88.76"/>
<polygon fill="#63b8ff" stroke="#63b8ff" points="377.01,-88.13 371.03,-79.39 370.25,-89.95 377.01,-88.13"/>
</a>
</g>
</g>
<!-- Node13 -->
<g id="Node000013" class="node">
<title>Node13</title>
<g id="a_Node000013"><a xlink:href="JobParser_8h.html" target="_top" xlink:title="Lightweight XML&#45;like tag parser for the solver job file.">
<polygon fill="white" stroke="#666666" points="465.62,-134.25 396.38,-134.25 396.38,-113.5 465.62,-113.5 465.62,-134.25"/>
<text xml:space="preserve" text-anchor="middle" x="431" y="-120.75" font-family="Helvetica,sans-Serif" font-size="10.00">JobParser.h</text>
</a>
</g>
</g>
<!-- Node10&#45;&gt;Node13 -->
<g id="edge15_Node000010_Node000013" class="edge">
<title>Node10&#45;&gt;Node13</title>
<g id="a_edge15_Node000010_Node000013"><a xlink:title=" ">
<path fill="none" stroke="#63b8ff" d="M403.9,-169.84C408.17,-162.75 414.08,-152.94 419.3,-144.29"/>
<polygon fill="#63b8ff" stroke="#63b8ff" points="422.21,-146.25 424.37,-135.87 416.21,-142.63 422.21,-146.25"/>
</a>
</g>
</g>
<!-- Node10&#45;&gt;Node16 -->
<g id="edge20_Node000010_Node000016" class="edge">
<title>Node10&#45;&gt;Node16</title>
<g id="a_edge20_Node000010_Node000016"><a xlink:title=" ">
<path fill="none" stroke="#63b8ff" d="M434.65,-169.84C469.82,-160.44 522.93,-146.26 560.07,-136.34"/>
<polygon fill="#63b8ff" stroke="#63b8ff" points="560.82,-139.76 569.58,-133.8 559.02,-133 560.82,-139.76"/>
</a>
</g>
</g>
<!-- Node10&#45;&gt;Node17 -->
<g id="edge27_Node000010_Node000017" class="edge">
<title>Node10&#45;&gt;Node17</title>
<g id="a_edge27_Node000010_Node000017"><a xlink:title=" ">
<path fill="none" stroke="#63b8ff" d="M429.34,-169.83C455.16,-161.41 492.51,-148.41 524,-134.25 541.55,-126.36 544.1,-120.55 562,-113.5 606.87,-95.82 660.88,-83.13 697.34,-75.75"/>
<polygon fill="#63b8ff" stroke="#63b8ff" points="697.91,-79.2 707.05,-73.83 696.56,-72.33 697.91,-79.2"/>
</a>
</g>
</g>
<!-- Node10&#45;&gt;Node21 -->
<g id="edge28_Node000010_Node000021" class="edge">
<title>Node10&#45;&gt;Node21</title>
<g id="a_edge28_Node000010_Node000021"><a xlink:title=" ">
<path fill="none" stroke="#63b8ff" d="M360.99,-169.84C326.95,-160.83 276.27,-147.43 239.1,-137.6"/>
<polygon fill="#63b8ff" stroke="#63b8ff" points="240.06,-134.23 229.5,-135.06 238.27,-141 240.06,-134.23"/>
</a>
</g>
</g>
<!-- Node13&#45;&gt;Node8 -->
<g id="edge17_Node000013_Node000008" class="edge">
<title>Node13&#45;&gt;Node8</title>
<g id="a_edge17_Node000013_Node000008"><a xlink:title=" ">
<path fill="none" stroke="#63b8ff" d="M457.82,-113.09C481.74,-104.36 517,-91.48 543.68,-81.75"/>
<polygon fill="#63b8ff" stroke="#63b8ff" points="544.55,-85.16 552.74,-78.44 542.15,-78.58 544.55,-85.16"/>
</a>
</g>
</g>
<!-- Node13&#45;&gt;Node12 -->
<g id="edge19_Node000013_Node000012" class="edge">
<title>Node13&#45;&gt;Node12</title>
<g id="a_edge19_Node000013_Node000012"><a xlink:title=" ">
<path fill="none" stroke="#63b8ff" d="M419.74,-113.09C410.87,-105.38 398.29,-94.45 387.75,-85.29"/>
<polygon fill="#63b8ff" stroke="#63b8ff" points="390.15,-82.74 380.31,-78.82 385.56,-88.02 390.15,-82.74"/>
</a>
</g>
</g>
<!-- Node14 -->
<g id="Node000014" class="node">
<title>Node14</title>
<g id="a_Node000014"><a xlink:title=" ">
<polygon fill="#e0e0e0" stroke="#999999" points="888.12,-77.5 833.88,-77.5 833.88,-56.75 888.12,-56.75 888.12,-77.5"/>
<text xml:space="preserve" text-anchor="middle" x="861" y="-64" font-family="Helvetica,sans-Serif" font-size="10.00">fstream</text>
</a>
</g>
</g>
<!-- Node13&#45;&gt;Node14 -->
<g id="edge16_Node000013_Node000014" class="edge">
<title>Node13&#45;&gt;Node14</title>
<g id="a_edge16_Node000013_Node000014"><a xlink:title=" ">
<path fill="none" stroke="#63b8ff" d="M466.01,-115.11C469.04,-114.53 472.07,-113.98 475,-113.5 492,-110.7 727.62,-83.48 822.16,-72.59"/>
<polygon fill="#63b8ff" stroke="#63b8ff" points="822.45,-76.08 831.98,-71.46 821.65,-69.13 822.45,-76.08"/>
</a>
</g>
</g>
<!-- Node15 -->
<g id="Node000015" class="node">
<title>Node15</title>
<g id="a_Node000015"><a xlink:title=" ">
<polygon fill="#e0e0e0" stroke="#999999" points="452.88,-77.5 409.12,-77.5 409.12,-56.75 452.88,-56.75 452.88,-77.5"/>
<text xml:space="preserve" text-anchor="middle" x="431" y="-64" font-family="Helvetica,sans-Serif" font-size="10.00">string</text>
</a>
</g>
</g>
<!-- Node13&#45;&gt;Node15 -->
<g id="edge18_Node000013_Node000015" class="edge">
<title>Node13&#45;&gt;Node15</title>
<g id="a_edge18_Node000013_Node000015"><a xlink:title=" ">
<path fill="none" stroke="#63b8ff" d="M431,-113.09C431,-106.47 431,-97.47 431,-89.27"/>
<polygon fill="#63b8ff" stroke="#63b8ff" points="434.5,-89.34 431,-79.34 427.5,-89.34 434.5,-89.34"/>
</a>
</g>
</g>
<!-- Node16&#45;&gt;Node12 -->
<g id="edge21_Node000016_Node000012" class="edge">
<title>Node16&#45;&gt;Node12</title>
<g id="a_edge21_Node000016_Node000012"><a xlink:title=" ">
<path fill="none" stroke="#63b8ff" d="M571.2,-116.44C533.22,-108.6 467.54,-94.59 402.56,-78.05"/>
<polygon fill="#63b8ff" stroke="#63b8ff" points="403.74,-74.74 393.18,-75.64 402,-81.52 403.74,-74.74"/>
</a>
</g>
</g>
<!-- Node16&#45;&gt;Node17 -->
<g id="edge22_Node000016_Node000017" class="edge">
<title>Node16&#45;&gt;Node17</title>
<g id="a_edge22_Node000016_Node000017"><a xlink:title=" ">
<path fill="none" stroke="#63b8ff" d="M627.31,-113.09C648.78,-104.44 680.32,-91.75 704.41,-82.05"/>
<polygon fill="#63b8ff" stroke="#63b8ff" points="705.52,-85.38 713.49,-78.39 702.91,-78.88 705.52,-85.38"/>
</a>
</g>
</g>
<!-- Node17&#45;&gt;Node2 -->
<g id="edge23_Node000017_Node000002" class="edge">
<title>Node17&#45;&gt;Node2</title>
<g id="a_edge23_Node000017_Node000002"><a xlink:title=" ">
<path fill="none" stroke="#63b8ff" d="M708.82,-63.7C601.34,-55.07 236.7,-25.8 104.97,-15.23"/>
<polygon fill="#63b8ff" stroke="#63b8ff" points="105.45,-11.75 95.2,-14.44 104.89,-18.73 105.45,-11.75"/>
</a>
</g>
</g>
<!-- Node18 -->
<g id="Node000018" class="node">
<title>Node18</title>
<g id="a_Node000018"><a xlink:title=" ">
<polygon fill="#e0e0e0" stroke="#999999" points="728.5,-20.75 637.5,-20.75 637.5,0 728.5,0 728.5,-20.75"/>
<text xml:space="preserve" text-anchor="middle" x="683" y="-7.25" font-family="Helvetica,sans-Serif" font-size="10.00">blitz/tinyvec2.h</text>
</a>
</g>
</g>
<!-- Node17&#45;&gt;Node18 -->
<g id="edge24_Node000017_Node000018" class="edge">
<title>Node17&#45;&gt;Node18</title>
<g id="a_edge24_Node000017_Node000018"><a xlink:title=" ">
<path fill="none" stroke="#63b8ff" d="M728.99,-56.34C721.26,-48.78 710.37,-38.14 701.13,-29.1"/>
<polygon fill="#63b8ff" stroke="#63b8ff" points="703.6,-26.62 694.01,-22.14 698.71,-31.63 703.6,-26.62"/>
</a>
</g>
</g>
<!-- Node19 -->
<g id="Node000019" class="node">
<title>Node19</title>
<g id="a_Node000019"><a xlink:title=" ">
<polygon fill="#e0e0e0" stroke="#999999" points="843.12,-20.75 746.88,-20.75 746.88,0 843.12,0 843.12,-20.75"/>
<text xml:space="preserve" text-anchor="middle" x="795" y="-7.25" font-family="Helvetica,sans-Serif" font-size="10.00">blitz/tvecglobs.h</text>
</a>
</g>
</g>
<!-- Node17&#45;&gt;Node19 -->
<g id="edge25_Node000017_Node000019" class="edge">
<title>Node17&#45;&gt;Node19</title>
<g id="a_edge25_Node000017_Node000019"><a xlink:title=" ">
<path fill="none" stroke="#63b8ff" d="M749.01,-56.34C756.74,-48.78 767.63,-38.14 776.87,-29.1"/>
<polygon fill="#63b8ff" stroke="#63b8ff" points="779.29,-31.63 783.99,-22.14 774.4,-26.62 779.29,-31.63"/>
</a>
</g>
</g>
<!-- Node20 -->
<g id="Node000020" class="node">
<title>Node20</title>
<g id="a_Node000020"><a xlink:title=" ">
<polygon fill="#e0e0e0" stroke="#999999" points="464,-20.75 406,-20.75 406,0 464,0 464,-20.75"/>
<text xml:space="preserve" text-anchor="middle" x="435" y="-7.25" font-family="Helvetica,sans-Serif" font-size="10.00">complex</text>
</a>
</g>
</g>
<!-- Node17&#45;&gt;Node20 -->
<g id="edge26_Node000017_Node000020" class="edge">
<title>Node17&#45;&gt;Node20</title>
<g id="a_edge26_Node000017_Node000020"><a xlink:title=" ">
<path fill="none" stroke="#63b8ff" d="M708.46,-60.62C653.29,-50.69 537.05,-29.75 475.39,-18.65"/>
<polygon fill="#63b8ff" stroke="#63b8ff" points="476.13,-15.23 465.67,-16.9 474.89,-22.12 476.13,-15.23"/>
</a>
</g>
</g>
<!-- Node21&#45;&gt;Node12 -->
<g id="edge31_Node000021_Node000012" class="edge">
<title>Node21&#45;&gt;Node12</title>
<g id="a_edge31_Node000021_Node000012"><a xlink:title=" ">
<path fill="none" stroke="#63b8ff" d="M222.64,-113.09C253.87,-103.43 301.46,-88.71 333.6,-78.77"/>
<polygon fill="#63b8ff" stroke="#63b8ff" points="334.31,-82.21 342.83,-75.91 332.24,-75.52 334.31,-82.21"/>
</a>
</g>
</g>
<!-- Node21&#45;&gt;Node17 -->
<g id="edge32_Node000021_Node000017" class="edge">
<title>Node21&#45;&gt;Node17</title>
<g id="a_edge32_Node000021_Node000017"><a xlink:title=" ">
<path fill="none" stroke="#63b8ff" d="M239.63,-118.02C345.85,-107.4 597.07,-82.31 696.97,-72.32"/>
<polygon fill="#63b8ff" stroke="#63b8ff" points="697.27,-75.81 706.88,-71.33 696.58,-68.85 697.27,-75.81"/>
</a>
</g>
</g>
<!-- Node21&#45;&gt;Node20 -->
<g id="edge30_Node000021_Node000020" class="edge">
<title>Node21&#45;&gt;Node20</title>
<g id="a_edge30_Node000021_Node000020"><a xlink:title=" ">
<path fill="none" stroke="#63b8ff" d="M212.23,-113.18C255.22,-93.53 352.78,-48.95 403.32,-25.85"/>
<polygon fill="#63b8ff" stroke="#63b8ff" points="404.63,-29.1 412.27,-21.76 401.72,-22.73 404.63,-29.1"/>
</a>
</g>
</g>
<!-- Node22 -->
<g id="Node000022" class="node">
<title>Node22</title>
<g id="a_Node000022"><a xlink:title=" ">
<polygon fill="#e0e0e0" stroke="#999999" points="216.25,-77.5 165.75,-77.5 165.75,-56.75 216.25,-56.75 216.25,-77.5"/>
<text xml:space="preserve" text-anchor="middle" x="191" y="-64" font-family="Helvetica,sans-Serif" font-size="10.00">math.h</text>
</a>
</g>
</g>
<!-- Node21&#45;&gt;Node22 -->
<g id="edge29_Node000021_Node000022" class="edge">
<title>Node21&#45;&gt;Node22</title>
<g id="a_edge29_Node000021_Node000022"><a xlink:title=" ">
<path fill="none" stroke="#63b8ff" d="M191,-113.09C191,-106.47 191,-97.47 191,-89.27"/>
<polygon fill="#63b8ff" stroke="#63b8ff" points="194.5,-89.34 191,-79.34 187.5,-89.34 194.5,-89.34"/>
</a>
</g>
</g>
<!-- Node24&#45;&gt;Node9 -->
<g id="edge40_Node000024_Node000009" class="edge">
<title>Node24&#45;&gt;Node9</title>
<g id="a_edge40_Node000024_Node000009"><a xlink:title=" ">
<path fill="none" stroke="#63b8ff" d="M518.08,-283.34C526.81,-275.63 539.19,-264.7 549.56,-255.54"/>
<polygon fill="#63b8ff" stroke="#63b8ff" points="551.7,-258.32 556.88,-249.08 547.06,-253.08 551.7,-258.32"/>
</a>
</g>
</g>
<!-- Node24&#45;&gt;Node12 -->
<g id="edge39_Node000024_Node000012" class="edge">
<title>Node24&#45;&gt;Node12</title>
<g id="a_edge39_Node000024_Node000012"><a xlink:title=" ">
<path fill="none" stroke="#63b8ff" d="M477.59,-283.34C426.08,-264.31 321.71,-216.76 287,-134.25 283.42,-125.75 282.34,-121.46 287,-113.5 297.12,-96.23 316.49,-85.03 333.75,-78.08"/>
<polygon fill="#63b8ff" stroke="#63b8ff" points="334.51,-81.53 342.7,-74.81 332.11,-74.96 334.51,-81.53"/>
</a>
</g>
</g>
<!-- Node24&#45;&gt;Node16 -->
<g id="edge41_Node000024_Node000016" class="edge">
<title>Node24&#45;&gt;Node16</title>
<g id="a_edge41_Node000024_Node000016"><a xlink:title=" ">
<path fill="none" stroke="#63b8ff" d="M503.41,-283.56C500.22,-274.49 495.78,-260.41 494,-247.75 488.97,-211.91 494.46,-196.85 519,-170.25 531.33,-156.89 548.51,-146.65 564.13,-139.3"/>
<polygon fill="#63b8ff" stroke="#63b8ff" points="565.49,-142.53 573.23,-135.29 562.67,-136.13 565.49,-142.53"/>
</a>
</g>
</g>
<!-- Node24&#45;&gt;Node17 -->
<g id="edge42_Node000024_Node000017" class="edge">
<title>Node24&#45;&gt;Node17</title>
<g id="a_edge42_Node000024_Node000017"><a xlink:title=" ">
<path fill="none" stroke="#63b8ff" d="M508.03,-283.32C509.87,-269.63 514.76,-244.49 527,-227 540.26,-208.06 663.44,-120.89 715.72,-84.33"/>
<polygon fill="#63b8ff" stroke="#63b8ff" points="717.46,-87.38 723.65,-78.79 713.45,-81.64 717.46,-87.38"/>
</a>
</g>
</g>
<!-- Node25&#45;&gt;Node4 -->
<g id="edge55_Node000025_Node000004" class="edge">
<title>Node25&#45;&gt;Node4</title>
<g id="a_edge55_Node000025_Node000004"><a xlink:title=" ">
<path fill="none" stroke="#63b8ff" d="M824.18,-399.13C761.94,-388.48 648.84,-369.13 588.48,-358.8"/>
<polygon fill="#63b8ff" stroke="#63b8ff" points="589.44,-355.41 578.99,-357.18 588.26,-362.31 589.44,-355.41"/>
</a>
</g>
</g>
<!-- Node25&#45;&gt;Node9 -->
<g id="edge46_Node000025_Node000009" class="edge">
<title>Node25&#45;&gt;Node9</title>
<g id="a_edge46_Node000025_Node000009"><a xlink:title=" ">
<path fill="none" stroke="#63b8ff" d="M846.71,-396.87C809.51,-379.6 730.59,-341.92 667,-304.5 640.34,-288.81 611.1,-268.67 591.56,-254.77"/>
<polygon fill="#63b8ff" stroke="#63b8ff" points="593.69,-251.98 583.52,-249 589.61,-257.67 593.69,-251.98"/>
</a>
</g>
</g>
<!-- Node25&#45;&gt;Node17 -->
<g id="edge47_Node000025_Node000017" class="edge">
<title>Node25&#45;&gt;Node17</title>
<g id="a_edge47_Node000025_Node000017"><a xlink:title=" ">
<path fill="none" stroke="#63b8ff" d="M873.56,-396.86C890.77,-366.27 942,-272.36 942,-238.38 942,-238.38 942,-238.38 942,-179.62 942,-148.36 941.18,-134.48 918,-113.5 898,-95.41 826.98,-81.5 780.63,-74.09"/>
<polygon fill="#63b8ff" stroke="#63b8ff" points="781.34,-70.66 770.92,-72.58 780.27,-77.57 781.34,-70.66"/>
</a>
</g>
</g>
<!-- Node26 -->
<g id="Node000026" class="node">
<title>Node26</title>
<g id="a_Node000026"><a xlink:href="LayeredMediaUtils_8h.html" target="_top" xlink:title="This header declares utility structures and algorithms used throughout the layered&#45;media scattering s...">
<polygon fill="white" stroke="#666666" points="1124.25,-134.25 1007.75,-134.25 1007.75,-113.5 1124.25,-113.5 1124.25,-134.25"/>
<text xml:space="preserve" text-anchor="middle" x="1066" y="-120.75" font-family="Helvetica,sans-Serif" font-size="10.00">LayeredMediaUtils.h</text>
</a>
</g>
</g>
<!-- Node25&#45;&gt;Node26 -->
<g id="edge48_Node000025_Node000026" class="edge">
<title>Node25&#45;&gt;Node26</title>
<g id="a_edge48_Node000025_Node000026"><a xlink:title=" ">
<path fill="none" stroke="#63b8ff" d="M877.3,-396.92C894.01,-379.28 929.79,-340.42 956,-304.5 996.47,-249.03 1036.75,-178.29 1055.35,-144.53"/>
<polygon fill="#63b8ff" stroke="#63b8ff" points="1058.34,-146.35 1060.07,-135.9 1052.2,-143 1058.34,-146.35"/>
</a>
</g>
</g>
<!-- Node26&#45;&gt;Node12 -->
<g id="edge52_Node000026_Node000012" class="edge">
<title>Node26&#45;&gt;Node12</title>
<g id="a_edge52_Node000026_Node000012"><a xlink:title=" ">
<path fill="none" stroke="#63b8ff" d="M1007.58,-123.13C892.94,-122.72 630.54,-117.26 402.79,-77.64"/>
<polygon fill="#63b8ff" stroke="#63b8ff" points="403.58,-74.23 393.12,-75.93 402.36,-81.12 403.58,-74.23"/>
</a>
</g>
</g>
<!-- Node26&#45;&gt;Node14 -->
<g id="edge54_Node000026_Node000014" class="edge">
<title>Node26&#45;&gt;Node14</title>
<g id="a_edge54_Node000026_Node000014"><a xlink:title=" ">
<path fill="none" stroke="#63b8ff" d="M1029.35,-113.09C992.72,-103.3 936.62,-88.32 899.39,-78.38"/>
<polygon fill="#63b8ff" stroke="#63b8ff" points="900.51,-75.05 889.94,-75.85 898.7,-81.82 900.51,-75.05"/>
</a>
</g>
</g>
<!-- Node26&#45;&gt;Node17 -->
<g id="edge53_Node000026_Node000017" class="edge">
<title>Node26&#45;&gt;Node17</title>
<g id="a_edge53_Node000026_Node000017"><a xlink:title=" ">
<path fill="none" stroke="#63b8ff" d="M1007.54,-113.09C942.23,-102.15 838.15,-84.73 780.62,-75.09"/>
<polygon fill="#63b8ff" stroke="#63b8ff" points="781.36,-71.67 770.92,-73.47 780.2,-78.57 781.36,-71.67"/>
</a>
</g>
</g>
<!-- Node27 -->
<g id="Node000027" class="node">
<title>Node27</title>
<g id="a_Node000027"><a xlink:title=" ">
<polygon fill="#e0e0e0" stroke="#999999" points="1153.88,-77.5 1116.12,-77.5 1116.12,-56.75 1153.88,-56.75 1153.88,-77.5"/>
<text xml:space="preserve" text-anchor="middle" x="1135" y="-64" font-family="Helvetica,sans-Serif" font-size="10.00">map</text>
</a>
</g>
</g>
<!-- Node26&#45;&gt;Node27 -->
<g id="edge49_Node000026_Node000027" class="edge">
<title>Node26&#45;&gt;Node27</title>
<g id="a_edge49_Node000026_Node000027"><a xlink:title=" ">
<path fill="none" stroke="#63b8ff" d="M1078.34,-113.09C1088.25,-105.22 1102.39,-94 1114.06,-84.74"/>
<polygon fill="#63b8ff" stroke="#63b8ff" points="1115.93,-87.73 1121.59,-78.77 1111.58,-82.24 1115.93,-87.73"/>
</a>
</g>
</g>
<!-- Node28 -->
<g id="Node000028" class="node">
<title>Node28</title>
<g id="a_Node000028"><a xlink:title=" ">
<polygon fill="#e0e0e0" stroke="#999999" points="1016,-77.5 952,-77.5 952,-56.75 1016,-56.75 1016,-77.5"/>
<text xml:space="preserve" text-anchor="middle" x="984" y="-64" font-family="Helvetica,sans-Serif" font-size="10.00">stdexcept</text>
</a>
</g>
</g>
<!-- Node26&#45;&gt;Node28 -->
<g id="edge50_Node000026_Node000028" class="edge">
<title>Node26&#45;&gt;Node28</title>
<g id="a_edge50_Node000026_Node000028"><a xlink:title=" ">
<path fill="none" stroke="#63b8ff" d="M1051.34,-113.09C1039.33,-105.07 1022.09,-93.56 1008.06,-84.19"/>
<polygon fill="#63b8ff" stroke="#63b8ff" points="1010.05,-81.31 999.79,-78.67 1006.16,-87.13 1010.05,-81.31"/>
</a>
</g>
</g>
<!-- Node29 -->
<g id="Node000029" class="node">
<title>Node29</title>
<g id="a_Node000029"><a xlink:title=" ">
<polygon fill="#e0e0e0" stroke="#999999" points="1098.38,-77.5 1033.62,-77.5 1033.62,-56.75 1098.38,-56.75 1098.38,-77.5"/>
<text xml:space="preserve" text-anchor="middle" x="1066" y="-64" font-family="Helvetica,sans-Serif" font-size="10.00">functional</text>
</a>
</g>
</g>
<!-- Node26&#45;&gt;Node29 -->
<g id="edge51_Node000026_Node000029" class="edge">
<title>Node26&#45;&gt;Node29</title>
<g id="a_edge51_Node000026_Node000029"><a xlink:title=" ">
<path fill="none" stroke="#63b8ff" d="M1066,-113.09C1066,-106.47 1066,-97.47 1066,-89.27"/>
<polygon fill="#63b8ff" stroke="#63b8ff" points="1069.5,-89.34 1066,-79.34 1062.5,-89.34 1069.5,-89.34"/>
</a>
</g>
</g>
<!-- Node30&#45;&gt;Node2 -->
<g id="edge58_Node000030_Node000002" class="edge">
<title>Node30&#45;&gt;Node2</title>
<g id="a_edge58_Node000030_Node000002"><a xlink:title=" ">
<path fill="none" stroke="#63b8ff" d="M572.48,-463.95C452,-465.22 38,-461.6 38,-351.88 38,-351.88 38,-351.88 38,-122.88 38,-90.88 45.7,-54.45 51.29,-32.18"/>
<polygon fill="#63b8ff" stroke="#63b8ff" points="54.66,-33.15 53.81,-22.59 47.89,-31.37 54.66,-33.15"/>
</a>
</g>
</g>
<!-- Node30&#45;&gt;Node4 -->
<g id="edge61_Node000030_Node000004" class="edge">
<title>Node30&#45;&gt;Node4</title>
<g id="a_edge61_Node000030_Node000004"><a xlink:title=" ">
<path fill="none" stroke="#63b8ff" d="M600.14,-453.87C590.89,-435.77 570.57,-396.03 558.21,-371.85"/>
<polygon fill="#63b8ff" stroke="#63b8ff" points="561.37,-370.33 553.7,-363.02 555.13,-373.52 561.37,-370.33"/>
</a>
</g>
</g>
<!-- Node30&#45;&gt;Node9 -->
<g id="edge63_Node000030_Node000009" class="edge">
<title>Node30&#45;&gt;Node9</title>
<g id="a_edge63_Node000030_Node000009"><a xlink:title=" ">
<path fill="none" stroke="#63b8ff" d="M603.56,-453.81C600.44,-433.13 592.77,-382.7 586,-340.5 581.49,-312.43 576.07,-280.06 572.58,-259.42"/>
<polygon fill="#63b8ff" stroke="#63b8ff" points="576.05,-258.99 570.93,-249.72 569.15,-260.16 576.05,-258.99"/>
</a>
</g>
</g>
<!-- Node30&#45;&gt;Node12 -->
<g id="edge60_Node000030_Node000012" class="edge">
<title>Node30&#45;&gt;Node12</title>
<g id="a_edge60_Node000030_Node000012"><a xlink:title=" ">
<path fill="none" stroke="#63b8ff" d="M572.4,-462.97C462.74,-460.72 114,-446.17 114,-351.88 114,-351.88 114,-351.88 114,-179.62 114,-148.92 111.21,-134.07 134,-113.5 162.88,-87.43 275.59,-75.18 333.39,-70.51"/>
<polygon fill="#63b8ff" stroke="#63b8ff" points="333.3,-74.03 343,-69.77 332.76,-67.05 333.3,-74.03"/>
</a>
</g>
</g>
<!-- Node30&#45;&gt;Node17 -->
<g id="edge59_Node000030_Node000017" class="edge">
<title>Node30&#45;&gt;Node17</title>
<g id="a_edge59_Node000030_Node000017"><a xlink:title=" ">
<path fill="none" stroke="#63b8ff" d="M637.85,-455.47C715.53,-434.62 904,-370.42 904,-238.38 904,-238.38 904,-238.38 904,-179.62 904,-119.97 829.03,-90.07 780.16,-76.93"/>
<polygon fill="#63b8ff" stroke="#63b8ff" points="781.28,-73.6 770.73,-74.53 779.56,-80.38 781.28,-73.6"/>
</a>
</g>
</g>
<!-- Node30&#45;&gt;Node25 -->
<g id="edge62_Node000030_Node000025" class="edge">
<title>Node30&#45;&gt;Node25</title>
<g id="a_edge62_Node000030_Node000025"><a xlink:title=" ">
<path fill="none" stroke="#63b8ff" d="M637.78,-456.55C681.65,-447.42 760.08,-431.09 813.06,-420.06"/>
<polygon fill="#63b8ff" stroke="#63b8ff" points="813.73,-423.5 822.81,-418.03 812.3,-416.64 813.73,-423.5"/>
</a>
</g>
</g>
</g>
</svg>
