<?xml version="1.0" encoding="UTF-8" standalone="no"?>
<!DOCTYPE svg PUBLIC "-//W3C//DTD SVG 1.1//EN"
 "http://www.w3.org/Graphics/SVG/1.1/DTD/svg11.dtd">
<!-- Generated by graphviz version 13.1.2 (20250809.0930)
 -->
<!-- Title: SIEForm.h Pages: 1 -->
<svg width="1038pt" height="369pt"
 viewBox="0.00 0.00 1038.00 369.00" xmlns="http://www.w3.org/2000/svg" xmlns:xlink="http://www.w3.org/1999/xlink">
<g id="graph0" class="graph" transform="scale(1 1) rotate(0) translate(4 365.25)">
<title>SIEForm.h</title>
<!-- Node1 -->
<g id="Node000001" class="node">
<title>Node1</title>
<g id="a_Node000001"><a xlink:title="Header for the SIEForm class.">
<polygon fill="#999999" stroke="#666666" points="753.75,-361.25 689,-361.25 689,-340.5 753.75,-340.5 753.75,-361.25"/>
<text xml:space="preserve" text-anchor="middle" x="721.37" y="-347.75" font-family="Helvetica,sans-Serif" font-size="10.00">SIEForm.h</text>
</a>
</g>
</g>
<!-- Node2 -->
<g id="Node000002" class="node">
<title>Node2</title>
<g id="a_Node000002"><a xlink:href="Domain_8h.html" target="_top" xlink:title="Abstract simulation domain class for SIE scattering.">
<polygon fill="white" stroke="#666666" points="649,-304.5 585.75,-304.5 585.75,-283.75 649,-283.75 649,-304.5"/>
<text xml:space="preserve" text-anchor="middle" x="617.37" y="-291" font-family="Helvetica,sans-Serif" font-size="10.00">Domain.h</text>
</a>
</g>
</g>
<!-- Node1&#45;&gt;Node2 -->
<g id="edge1_Node000001_Node000002" class="edge">
<title>Node1&#45;&gt;Node2</title>
<g id="a_edge1_Node000001_Node000002"><a xlink:title=" ">
<path fill="none" stroke="#63b8ff" d="M692.72,-334.79C674.55,-325.23 651.58,-313.13 635.8,-304.83"/>
<polygon fill="#63b8ff" stroke="#63b8ff" points="690.96,-337.82 701.44,-339.38 694.22,-331.63 690.96,-337.82"/>
</a>
</g>
</g>
<!-- Node17 -->
<g id="Node000017" class="node">
<title>Node17</title>
<g id="a_Node000017"><a xlink:href="SimJob_8h.html" target="_top" xlink:title="Orchestrates a full simulation run: parse job/subjobs, build the linear system, solve it,...">
<polygon fill="white" stroke="#666666" points="731.75,-247.75 673,-247.75 673,-227 731.75,-227 731.75,-247.75"/>
<text xml:space="preserve" text-anchor="middle" x="702.37" y="-234.25" font-family="Helvetica,sans-Serif" font-size="10.00">SimJob.h</text>
</a>
</g>
</g>
<!-- Node1&#45;&gt;Node17 -->
<g id="edge35_Node000001_Node000017" class="edge">
<title>Node1&#45;&gt;Node17</title>
<g id="a_edge35_Node000001_Node000017"><a xlink:title=" ">
<path fill="none" stroke="#63b8ff" d="M717.86,-329.3C713.76,-305.2 707.12,-266.25 704.04,-248.18"/>
<polygon fill="#63b8ff" stroke="#63b8ff" points="714.37,-329.61 719.5,-338.88 721.27,-328.43 714.37,-329.61"/>
</a>
</g>
</g>
<!-- Node21 -->
<g id="Node000021" class="node">
<title>Node21</title>
<g id="a_Node000021"><a xlink:href="SIEForm_8cpp.html" target="_top" xlink:title="Implementation for the SIEForm class.">
<polygon fill="white" stroke="#666666" points="844.37,-304.5 768.37,-304.5 768.37,-283.75 844.37,-283.75 844.37,-304.5"/>
<text xml:space="preserve" text-anchor="middle" x="806.37" y="-291" font-family="Helvetica,sans-Serif" font-size="10.00">SIEForm.cpp</text>
</a>
</g>
</g>
<!-- Node1&#45;&gt;Node21 -->
<g id="edge27_Node000001_Node000021" class="edge">
<title>Node1&#45;&gt;Node21</title>
<g id="a_edge27_Node000001_Node000021"><a xlink:title=" ">
<path fill="none" stroke="#63b8ff" d="M746.04,-333.98C760.68,-324.55 778.77,-312.9 791.31,-304.83"/>
<polygon fill="#63b8ff" stroke="#63b8ff" points="744.35,-330.91 737.84,-339.27 748.14,-336.79 744.35,-330.91"/>
</a>
</g>
</g>
<!-- Node22 -->
<g id="Node000022" class="node">
<title>Node22</title>
<g id="a_Node000022"><a xlink:href="SIEFormPMCHW_8h.html" target="_top" xlink:title="Header file for the SIEFormPMCHW class.">
<polygon fill="white" stroke="#666666" points="852.87,-247.75 749.87,-247.75 749.87,-227 852.87,-227 852.87,-247.75"/>
<text xml:space="preserve" text-anchor="middle" x="801.37" y="-234.25" font-family="Helvetica,sans-Serif" font-size="10.00">SIEFormPMCHW.h</text>
</a>
</g>
</g>
<!-- Node1&#45;&gt;Node22 -->
<g id="edge28_Node000001_Node000022" class="edge">
<title>Node1&#45;&gt;Node22</title>
<g id="a_edge28_Node000001_Node000022"><a xlink:title=" ">
<path fill="none" stroke="#63b8ff" d="M731.32,-329.91C738.42,-316.4 748.58,-298.42 759.37,-283.75 769.04,-270.61 782.03,-257.07 790.99,-248.25"/>
<polygon fill="#63b8ff" stroke="#63b8ff" points="728.27,-328.2 726.83,-338.69 734.5,-331.39 728.27,-328.2"/>
</a>
</g>
</g>
<!-- Node3 -->
<g id="Node000003" class="node">
<title>Node3</title>
<g id="a_Node000003"><a xlink:href="Domain_8cpp.html" target="_top" xlink:title="Implementation of the Domain base class.">
<polygon fill="white" stroke="#666666" points="654.62,-247.75 580.12,-247.75 580.12,-227 654.62,-227 654.62,-247.75"/>
<text xml:space="preserve" text-anchor="middle" x="617.37" y="-234.25" font-family="Helvetica,sans-Serif" font-size="10.00">Domain.cpp</text>
</a>
</g>
</g>
<!-- Node2&#45;&gt;Node3 -->
<g id="edge2_Node000002_Node000003" class="edge">
<title>Node2&#45;&gt;Node3</title>
<g id="a_edge2_Node000002_Node000003"><a xlink:title=" ">
<path fill="none" stroke="#63b8ff" d="M617.37,-271.88C617.37,-263.66 617.37,-254.68 617.37,-248.08"/>
<polygon fill="#63b8ff" stroke="#63b8ff" points="613.87,-271.82 617.37,-281.82 620.87,-271.82 613.87,-271.82"/>
</a>
</g>
</g>
<!-- Node4 -->
<g id="Node000004" class="node">
<title>Node4</title>
<g id="a_Node000004"><a xlink:href="DomainHom3D_8h.html" target="_top" xlink:title="Homogeneous 3D simulation domain (derived from Domain).">
<polygon fill="white" stroke="#666666" points="470.37,-247.75 370.37,-247.75 370.37,-227 470.37,-227 470.37,-247.75"/>
<text xml:space="preserve" text-anchor="middle" x="420.37" y="-234.25" font-family="Helvetica,sans-Serif" font-size="10.00">DomainHom3D.h</text>
</a>
</g>
</g>
<!-- Node2&#45;&gt;Node4 -->
<g id="edge3_Node000002_Node000004" class="edge">
<title>Node2&#45;&gt;Node4</title>
<g id="a_edge3_Node000002_Node000004"><a xlink:title=" ">
<path fill="none" stroke="#63b8ff" d="M574.29,-281.15C538.77,-271.28 489,-257.45 455.78,-248.22"/>
<polygon fill="#63b8ff" stroke="#63b8ff" points="573.25,-284.5 583.82,-283.8 575.12,-277.75 573.25,-284.5"/>
</a>
</g>
</g>
<!-- Node14 -->
<g id="Node000014" class="node">
<title>Node14</title>
<g id="a_Node000014"><a xlink:href="DomainLayered3D_8h.html" target="_top" xlink:title="Layered 3D simulation domain (derived from Domain).">
<polygon fill="white" stroke="#666666" points="486.25,-77.5 370.5,-77.5 370.5,-56.75 486.25,-56.75 486.25,-77.5"/>
<text xml:space="preserve" text-anchor="middle" x="428.37" y="-64" font-family="Helvetica,sans-Serif" font-size="10.00">DomainLayered3D.h</text>
</a>
</g>
</g>
<!-- Node2&#45;&gt;Node14 -->
<g id="edge21_Node000002_Node000014" class="edge">
<title>Node2&#45;&gt;Node14</title>
<g id="a_edge21_Node000002_Node000014"><a xlink:title=" ">
<path fill="none" stroke="#63b8ff" d="M597.52,-275.85C588.91,-267.8 579.07,-257.8 571.37,-247.75 529.68,-193.32 541.87,-163.89 495.37,-113.5 481.55,-98.53 461.9,-85.96 447.44,-77.88"/>
<polygon fill="#63b8ff" stroke="#63b8ff" points="595.02,-278.3 604.78,-282.43 599.72,-273.12 595.02,-278.3"/>
</a>
</g>
</g>
<!-- Node2&#45;&gt;Node17 -->
<g id="edge22_Node000002_Node000017" class="edge">
<title>Node2&#45;&gt;Node17</title>
<g id="a_edge22_Node000002_Node000017"><a xlink:title=" ">
<path fill="none" stroke="#63b8ff" d="M642.04,-277.23C656.68,-267.8 674.77,-256.15 687.31,-248.08"/>
<polygon fill="#63b8ff" stroke="#63b8ff" points="640.35,-274.16 633.84,-282.52 644.14,-280.04 640.35,-274.16"/>
</a>
</g>
</g>
<!-- Node5 -->
<g id="Node000005" class="node">
<title>Node5</title>
<g id="a_Node000005"><a xlink:href="DomainHom3D_8cpp.html" target="_top" xlink:title="Implementation of the homogeneous 3D domain.">
<polygon fill="white" stroke="#666666" points="788,-20.75 676.75,-20.75 676.75,0 788,0 788,-20.75"/>
<text xml:space="preserve" text-anchor="middle" x="732.37" y="-7.25" font-family="Helvetica,sans-Serif" font-size="10.00">DomainHom3D.cpp</text>
</a>
</g>
</g>
<!-- Node4&#45;&gt;Node5 -->
<g id="edge4_Node000004_Node000005" class="edge">
<title>Node4&#45;&gt;Node5</title>
<g id="a_edge4_Node000004_Node000005"><a xlink:title=" ">
<path fill="none" stroke="#63b8ff" d="M447.4,-220.77C461.82,-212.26 479.77,-201.37 495.37,-191 566.78,-143.54 583.47,-129.85 651.37,-77.5 676.53,-58.1 705.14,-34.32 720.73,-21.22"/>
<polygon fill="#63b8ff" stroke="#63b8ff" points="445.77,-217.67 438.91,-225.74 449.31,-223.71 445.77,-217.67"/>
</a>
</g>
</g>
<!-- Node6 -->
<g id="Node000006" class="node">
<title>Node6</title>
<g id="a_Node000006"><a xlink:href="DomainHom3DPer_8h.html" target="_top" xlink:title="Homogeneous 3D domain with in‑plane periodicity (derived from DomainHom3D).">
<polygon fill="white" stroke="#666666" points="150.87,-191 35.87,-191 35.87,-170.25 150.87,-170.25 150.87,-191"/>
<text xml:space="preserve" text-anchor="middle" x="93.37" y="-177.5" font-family="Helvetica,sans-Serif" font-size="10.00">DomainHom3DPer.h</text>
</a>
</g>
</g>
<!-- Node4&#45;&gt;Node6 -->
<g id="edge5_Node000004_Node000006" class="edge">
<title>Node4&#45;&gt;Node6</title>
<g id="a_edge5_Node000004_Node000006"><a xlink:title=" ">
<path fill="none" stroke="#63b8ff" d="M358.86,-226.08C299.27,-216.1 209.58,-201.08 151.25,-191.32"/>
<polygon fill="#63b8ff" stroke="#63b8ff" points="358.06,-229.49 368.5,-227.69 359.22,-222.59 358.06,-229.49"/>
</a>
</g>
</g>
<!-- Node8 -->
<g id="Node000008" class="node">
<title>Node8</title>
<g id="a_Node000008"><a xlink:href="SimJob_8cpp.html" target="_top" xlink:title="Implementation for the SimJob class.">
<polygon fill="white" stroke="#666666" points="128.37,-20.75 58.37,-20.75 58.37,0 128.37,0 128.37,-20.75"/>
<text xml:space="preserve" text-anchor="middle" x="93.37" y="-7.25" font-family="Helvetica,sans-Serif" font-size="10.00">SimJob.cpp</text>
</a>
</g>
</g>
<!-- Node4&#45;&gt;Node8 -->
<g id="edge8_Node000004_Node000008" class="edge">
<title>Node4&#45;&gt;Node8</title>
<g id="a_edge8_Node000004_Node000008"><a xlink:title=" ">
<path fill="none" stroke="#63b8ff" d="M358.74,-233.19C254.06,-227.22 50.45,-212.92 26.37,-191 -17.85,-150.74 0.11,-105.05 35.37,-56.75 46.3,-41.78 63.46,-29.21 76.28,-21.13"/>
<polygon fill="#63b8ff" stroke="#63b8ff" points="358.39,-236.68 368.57,-233.75 358.78,-229.69 358.39,-236.68"/>
</a>
</g>
</g>
<!-- Node9 -->
<g id="Node000009" class="node">
<title>Node9</title>
<g id="a_Node000009"><a xlink:href="SommerfeldIntegrator_8h.html" target="_top" xlink:title="Declaration of the SommerfeldIntegrator class, which evaluates Sommerfeld&#45;type integrals for layered ...">
<polygon fill="white" stroke="#666666" points="486.5,-191 354.25,-191 354.25,-170.25 486.5,-170.25 486.5,-191"/>
<text xml:space="preserve" text-anchor="middle" x="420.37" y="-177.5" font-family="Helvetica,sans-Serif" font-size="10.00">SommerfeldIntegrator.h</text>
</a>
</g>
</g>
<!-- Node4&#45;&gt;Node9 -->
<g id="edge9_Node000004_Node000009" class="edge">
<title>Node4&#45;&gt;Node9</title>
<g id="a_edge9_Node000004_Node000009"><a xlink:title=" ">
<path fill="none" stroke="#63b8ff" d="M420.37,-215.13C420.37,-206.91 420.37,-197.93 420.37,-191.33"/>
<polygon fill="#63b8ff" stroke="#63b8ff" points="416.87,-215.07 420.37,-225.07 423.87,-215.07 416.87,-215.07"/>
</a>
</g>
</g>
<!-- Node7 -->
<g id="Node000007" class="node">
<title>Node7</title>
<g id="a_Node000007"><a xlink:href="DomainHom3DPer_8cpp.html" target="_top" xlink:title="Implementation of the homogeneous, periodically replicated 3D domain.">
<polygon fill="white" stroke="#666666" points="156.5,-134.25 30.25,-134.25 30.25,-113.5 156.5,-113.5 156.5,-134.25"/>
<text xml:space="preserve" text-anchor="middle" x="93.37" y="-120.75" font-family="Helvetica,sans-Serif" font-size="10.00">DomainHom3DPer.cpp</text>
</a>
</g>
</g>
<!-- Node6&#45;&gt;Node7 -->
<g id="edge6_Node000006_Node000007" class="edge">
<title>Node6&#45;&gt;Node7</title>
<g id="a_edge6_Node000006_Node000007"><a xlink:title=" ">
<path fill="none" stroke="#63b8ff" d="M93.37,-158.38C93.37,-150.16 93.37,-141.18 93.37,-134.58"/>
<polygon fill="#63b8ff" stroke="#63b8ff" points="89.87,-158.32 93.37,-168.32 96.87,-158.32 89.87,-158.32"/>
</a>
</g>
</g>
<!-- Node6&#45;&gt;Node8 -->
<g id="edge7_Node000006_Node000008" class="edge">
<title>Node6&#45;&gt;Node8</title>
<g id="a_edge7_Node000006_Node000008"><a xlink:title=" ">
<path fill="none" stroke="#63b8ff" d="M55.36,-164.94C42.17,-157.79 28.82,-147.75 21.37,-134.25 16.91,-126.18 18.58,-122.29 21.37,-113.5 33.63,-74.83 66.4,-38.16 83.17,-21.21"/>
<polygon fill="#63b8ff" stroke="#63b8ff" points="53.45,-167.9 63.97,-169.19 56.55,-161.62 53.45,-167.9"/>
</a>
</g>
</g>
<!-- Node10 -->
<g id="Node000010" class="node">
<title>Node10</title>
<g id="a_Node000010"><a xlink:href="DomainLayered3D_8cpp.html" target="_top" xlink:title="Implementation of the layered 3D domain.">
<polygon fill="white" stroke="#666666" points="572.87,-20.75 445.87,-20.75 445.87,0 572.87,0 572.87,-20.75"/>
<text xml:space="preserve" text-anchor="middle" x="509.37" y="-7.25" font-family="Helvetica,sans-Serif" font-size="10.00">DomainLayered3D.cpp</text>
</a>
</g>
</g>
<!-- Node9&#45;&gt;Node10 -->
<g id="edge10_Node000009_Node000010" class="edge">
<title>Node9&#45;&gt;Node10</title>
<g id="a_edge10_Node000009_Node000010"><a xlink:title=" ">
<path fill="none" stroke="#63b8ff" d="M458.79,-164.97C472.53,-157.79 486.73,-147.73 495.37,-134.25 518.66,-97.92 514.01,-42.89 510.93,-20.92"/>
<polygon fill="#63b8ff" stroke="#63b8ff" points="457.36,-161.78 449.85,-169.25 460.38,-168.09 457.36,-161.78"/>
</a>
</g>
</g>
<!-- Node11 -->
<g id="Node000011" class="node">
<title>Node11</title>
<g id="a_Node000011"><a xlink:href="GreenFLayered3D_8h.html" target="_top" xlink:title="Layered‑medium 3D Green&#39;s function (scalar/gradient/dyadic) + RWG integrals.">
<polygon fill="white" stroke="#666666" points="486.75,-134.25 374,-134.25 374,-113.5 486.75,-113.5 486.75,-134.25"/>
<text xml:space="preserve" text-anchor="middle" x="430.37" y="-120.75" font-family="Helvetica,sans-Serif" font-size="10.00">GreenFLayered3D.h</text>
</a>
</g>
</g>
<!-- Node9&#45;&gt;Node11 -->
<g id="edge11_Node000009_Node000011" class="edge">
<title>Node9&#45;&gt;Node11</title>
<g id="a_edge11_Node000009_Node000011"><a xlink:title=" ">
<path fill="none" stroke="#63b8ff" d="M424.2,-158.67C425.71,-150.38 427.38,-141.25 428.6,-134.58"/>
<polygon fill="#63b8ff" stroke="#63b8ff" points="420.78,-157.88 422.43,-168.35 427.67,-159.14 420.78,-157.88"/>
</a>
</g>
</g>
<!-- Node16 -->
<g id="Node000016" class="node">
<title>Node16</title>
<g id="a_Node000016"><a xlink:href="SommerfeldIntegrator_8cpp.html" target="_top" xlink:title="Implementation of SommerfeldIntegrator: contour construction, integrand assembly, QUADPACK integratio...">
<polygon fill="white" stroke="#666666" points="356.12,-134.25 212.62,-134.25 212.62,-113.5 356.12,-113.5 356.12,-134.25"/>
<text xml:space="preserve" text-anchor="middle" x="284.37" y="-120.75" font-family="Helvetica,sans-Serif" font-size="10.00">SommerfeldIntegrator.cpp</text>
</a>
</g>
</g>
<!-- Node9&#45;&gt;Node16 -->
<g id="edge20_Node000009_Node000016" class="edge">
<title>Node9&#45;&gt;Node16</title>
<g id="a_edge20_Node000009_Node000016"><a xlink:title=" ">
<path fill="none" stroke="#63b8ff" d="M385.55,-165.61C361.41,-155.89 329.87,-143.19 308.47,-134.58"/>
<polygon fill="#63b8ff" stroke="#63b8ff" points="384.07,-168.78 394.65,-169.27 386.68,-162.29 384.07,-168.78"/>
</a>
</g>
</g>
<!-- Node12 -->
<g id="Node000012" class="node">
<title>Node12</title>
<g id="a_Node000012"><a xlink:href="Dipole_8h.html" target="_top" xlink:title="Incident field generator for electric dipole illumination in homogeneous or layered media.">
<polygon fill="white" stroke="#666666" points="642.62,-77.5 586.12,-77.5 586.12,-56.75 642.62,-56.75 642.62,-77.5"/>
<text xml:space="preserve" text-anchor="middle" x="614.37" y="-64" font-family="Helvetica,sans-Serif" font-size="10.00">Dipole.h</text>
</a>
</g>
</g>
<!-- Node11&#45;&gt;Node12 -->
<g id="edge12_Node000011_Node000012" class="edge">
<title>Node11&#45;&gt;Node12</title>
<g id="a_edge12_Node000011_Node000012"><a xlink:title=" ">
<path fill="none" stroke="#63b8ff" d="M473.99,-109.89C508.53,-99.62 555.78,-85.56 585.69,-76.66"/>
<polygon fill="#63b8ff" stroke="#63b8ff" points="473.3,-106.45 464.72,-112.66 475.3,-113.16 473.3,-106.45"/>
</a>
</g>
</g>
<!-- Node11&#45;&gt;Node14 -->
<g id="edge16_Node000011_Node000014" class="edge">
<title>Node11&#45;&gt;Node14</title>
<g id="a_edge16_Node000011_Node000014"><a xlink:title=" ">
<path fill="none" stroke="#63b8ff" d="M429.59,-101.63C429.29,-93.41 428.97,-84.43 428.72,-77.83"/>
<polygon fill="#63b8ff" stroke="#63b8ff" points="426.09,-101.71 429.96,-111.57 433.09,-101.45 426.09,-101.71"/>
</a>
</g>
</g>
<!-- Node15 -->
<g id="Node000015" class="node">
<title>Node15</title>
<g id="a_Node000015"><a xlink:href="GreenFLayered3D_8cpp.html" target="_top" xlink:title="Implementation of the 3D Green&#39;s Function class in a layered background.">
<polygon fill="white" stroke="#666666" points="352.37,-77.5 228.37,-77.5 228.37,-56.75 352.37,-56.75 352.37,-77.5"/>
<text xml:space="preserve" text-anchor="middle" x="290.37" y="-64" font-family="Helvetica,sans-Serif" font-size="10.00">GreenFLayered3D.cpp</text>
</a>
</g>
</g>
<!-- Node11&#45;&gt;Node15 -->
<g id="edge19_Node000011_Node000015" class="edge">
<title>Node11&#45;&gt;Node15</title>
<g id="a_edge19_Node000011_Node000015"><a xlink:title=" ">
<path fill="none" stroke="#63b8ff" d="M394.86,-108.99C369.96,-99.25 337.31,-86.48 315.18,-77.83"/>
<polygon fill="#63b8ff" stroke="#63b8ff" points="393.34,-112.15 403.93,-112.54 395.89,-105.63 393.34,-112.15"/>
</a>
</g>
</g>
<!-- Node12&#45;&gt;Node5 -->
<g id="edge14_Node000012_Node000005" class="edge">
<title>Node12&#45;&gt;Node5</title>
<g id="a_edge14_Node000012_Node000005"><a xlink:title=" ">
<path fill="none" stroke="#63b8ff" d="M645.72,-51.58C666.51,-41.93 693.22,-29.54 711.46,-21.08"/>
<polygon fill="#63b8ff" stroke="#63b8ff" points="644.44,-48.32 636.84,-55.7 647.38,-54.67 644.44,-48.32"/>
</a>
</g>
</g>
<!-- Node12&#45;&gt;Node10 -->
<g id="edge15_Node000012_Node000010" class="edge">
<title>Node12&#45;&gt;Node10</title>
<g id="a_edge15_Node000012_Node000010"><a xlink:title=" ">
<path fill="none" stroke="#63b8ff" d="M585.45,-51.04C567.1,-41.48 543.91,-29.38 527.98,-21.08"/>
<polygon fill="#63b8ff" stroke="#63b8ff" points="583.77,-54.12 594.26,-55.64 587.01,-47.91 583.77,-54.12"/>
</a>
</g>
</g>
<!-- Node13 -->
<g id="Node000013" class="node">
<title>Node13</title>
<g id="a_Node000013"><a xlink:href="Dipole_8cpp.html" target="_top" xlink:title="Implementation of the Dipole incident source.">
<polygon fill="white" stroke="#666666" points="658.25,-20.75 590.5,-20.75 590.5,0 658.25,0 658.25,-20.75"/>
<text xml:space="preserve" text-anchor="middle" x="624.37" y="-7.25" font-family="Helvetica,sans-Serif" font-size="10.00">Dipole.cpp</text>
</a>
</g>
</g>
<!-- Node12&#45;&gt;Node13 -->
<g id="edge13_Node000012_Node000013" class="edge">
<title>Node12&#45;&gt;Node13</title>
<g id="a_edge13_Node000012_Node000013"><a xlink:title=" ">
<path fill="none" stroke="#63b8ff" d="M618.2,-45.17C619.71,-36.88 621.38,-27.75 622.6,-21.08"/>
<polygon fill="#63b8ff" stroke="#63b8ff" points="614.78,-44.38 616.43,-54.85 621.67,-45.64 614.78,-44.38"/>
</a>
</g>
</g>
<!-- Node14&#45;&gt;Node8 -->
<g id="edge18_Node000014_Node000008" class="edge">
<title>Node14&#45;&gt;Node8</title>
<g id="a_edge18_Node000014_Node000008"><a xlink:title=" ">
<path fill="none" stroke="#63b8ff" d="M359.06,-54.8C288.81,-43.32 182.93,-26.01 128.47,-17.11"/>
<polygon fill="#63b8ff" stroke="#63b8ff" points="358.09,-58.19 368.52,-56.34 359.22,-51.28 358.09,-58.19"/>
</a>
</g>
</g>
<!-- Node14&#45;&gt;Node10 -->
<g id="edge17_Node000014_Node000010" class="edge">
<title>Node14&#45;&gt;Node10</title>
<g id="a_edge17_Node000014_Node000010"><a xlink:title=" ">
<path fill="none" stroke="#63b8ff" d="M452.28,-49.96C466.16,-40.58 483.19,-29.07 495.01,-21.08"/>
<polygon fill="#63b8ff" stroke="#63b8ff" points="450.43,-46.99 444.11,-55.49 454.35,-52.79 450.43,-46.99"/>
</a>
</g>
</g>
<!-- Node17&#45;&gt;Node8 -->
<g id="edge23_Node000017_Node000008" class="edge">
<title>Node17&#45;&gt;Node8</title>
<g id="a_edge23_Node000017_Node000008"><a xlink:title=" ">
<path fill="none" stroke="#63b8ff" d="M661.44,-226.92C455,-192.99 371.26,-251.7 203.37,-134.25 155.98,-101.1 114.89,-43.76 99.66,-21.05"/>
<polygon fill="#63b8ff" stroke="#63b8ff" points="660.7,-230.34 671.15,-228.57 661.88,-223.44 660.7,-230.34"/>
</a>
</g>
</g>
<!-- Node18 -->
<g id="Node000018" class="node">
<title>Node18</title>
<g id="a_Node000018"><a xlink:href="casimir_8cpp.html" target="_top" xlink:title="Main entry point for the HELIOS Casimir force routine.">
<polygon fill="white" stroke="#666666" points="652.12,-191 580.62,-191 580.62,-170.25 652.12,-170.25 652.12,-191"/>
<text xml:space="preserve" text-anchor="middle" x="616.37" y="-177.5" font-family="Helvetica,sans-Serif" font-size="10.00">casimir.cpp</text>
</a>
</g>
</g>
<!-- Node17&#45;&gt;Node18 -->
<g id="edge24_Node000017_Node000018" class="edge">
<title>Node17&#45;&gt;Node18</title>
<g id="a_edge24_Node000017_Node000018"><a xlink:title=" ">
<path fill="none" stroke="#63b8ff" d="M677.41,-220.48C662.59,-211.05 644.29,-199.4 631.61,-191.33"/>
<polygon fill="#63b8ff" stroke="#63b8ff" points="675.4,-223.36 685.72,-225.77 679.16,-217.45 675.4,-223.36"/>
</a>
</g>
</g>
<!-- Node19 -->
<g id="Node000019" class="node">
<title>Node19</title>
<g id="a_Node000019"><a xlink:href="main_8cpp.html" target="_top" xlink:title="This is the main file for the HELIOS program.">
<polygon fill="white" stroke="#666666" points="730.87,-191 669.87,-191 669.87,-170.25 730.87,-170.25 730.87,-191"/>
<text xml:space="preserve" text-anchor="middle" x="700.37" y="-177.5" font-family="Helvetica,sans-Serif" font-size="10.00">main.cpp</text>
</a>
</g>
</g>
<!-- Node17&#45;&gt;Node19 -->
<g id="edge25_Node000017_Node000019" class="edge">
<title>Node17&#45;&gt;Node19</title>
<g id="a_edge25_Node000017_Node000019"><a xlink:title=" ">
<path fill="none" stroke="#63b8ff" d="M701.59,-215.13C701.29,-206.91 700.97,-197.93 700.72,-191.33"/>
<polygon fill="#63b8ff" stroke="#63b8ff" points="698.09,-215.21 701.96,-225.07 705.09,-214.95 698.09,-215.21"/>
</a>
</g>
</g>
<!-- Node20 -->
<g id="Node000020" class="node">
<title>Node20</title>
<g id="a_Node000020"><a xlink:href="mainpp_8cpp.html" target="_top" xlink:title="This is the main file for the HELIOS program, specifically the post&#45;processing portion.">
<polygon fill="white" stroke="#666666" points="821.87,-191 748.87,-191 748.87,-170.25 821.87,-170.25 821.87,-191"/>
<text xml:space="preserve" text-anchor="middle" x="785.37" y="-177.5" font-family="Helvetica,sans-Serif" font-size="10.00">mainpp.cpp</text>
</a>
</g>
</g>
<!-- Node17&#45;&gt;Node20 -->
<g id="edge26_Node000017_Node000020" class="edge">
<title>Node17&#45;&gt;Node20</title>
<g id="a_edge26_Node000017_Node000020"><a xlink:title=" ">
<path fill="none" stroke="#63b8ff" d="M726.46,-220.48C740.76,-211.05 758.42,-199.4 770.66,-191.33"/>
<polygon fill="#63b8ff" stroke="#63b8ff" points="724.89,-217.33 718.47,-225.75 728.75,-223.17 724.89,-217.33"/>
</a>
</g>
</g>
<!-- Node22&#45;&gt;Node5 -->
<g id="edge29_Node000022_Node000005" class="edge">
<title>Node22&#45;&gt;Node5</title>
<g id="a_edge29_Node000022_Node000005"><a xlink:title=" ">
<path fill="none" stroke="#63b8ff" d="M834.12,-221.05C845.88,-213.73 857.84,-203.75 864.37,-191 868.57,-182.79 867.5,-178.92 864.37,-170.25 840,-102.8 773.14,-43.77 745.06,-21.17"/>
<polygon fill="#63b8ff" stroke="#63b8ff" points="832.69,-217.83 825.73,-225.82 836.15,-223.92 832.69,-217.83"/>
</a>
</g>
</g>
<!-- Node22&#45;&gt;Node10 -->
<g id="edge30_Node000022_Node000010" class="edge">
<title>Node22&#45;&gt;Node10</title>
<g id="a_edge30_Node000022_Node000010"><a xlink:title=" ">
<path fill="none" stroke="#63b8ff" d="M819.07,-218.6C830.68,-204.72 841.92,-185.33 831.37,-170.25 762.49,-71.77 679.14,-141.42 577.37,-77.5 552.27,-61.74 528.85,-35.45 517.15,-21.23"/>
<polygon fill="#63b8ff" stroke="#63b8ff" points="816.75,-215.94 812.63,-225.7 821.94,-220.64 816.75,-215.94"/>
</a>
</g>
</g>
<!-- Node22&#45;&gt;Node18 -->
<g id="edge32_Node000022_Node000018" class="edge">
<title>Node22&#45;&gt;Node18</title>
<g id="a_edge32_Node000022_Node000018"><a xlink:title=" ">
<path fill="none" stroke="#63b8ff" d="M757.55,-223.41C724.42,-213.6 679.64,-200.35 649.47,-191.42"/>
<polygon fill="#63b8ff" stroke="#63b8ff" points="756.26,-226.68 766.84,-226.16 758.25,-219.96 756.26,-226.68"/>
</a>
</g>
</g>
<!-- Node22&#45;&gt;Node19 -->
<g id="edge33_Node000022_Node000019" class="edge">
<title>Node22&#45;&gt;Node19</title>
<g id="a_edge33_Node000022_Node000019"><a xlink:title=" ">
<path fill="none" stroke="#63b8ff" d="M773.55,-221.29C755.9,-211.73 733.59,-199.63 718.27,-191.33"/>
<polygon fill="#63b8ff" stroke="#63b8ff" points="771.52,-224.18 781.98,-225.87 774.86,-218.02 771.52,-224.18"/>
</a>
</g>
</g>
<!-- Node22&#45;&gt;Node20 -->
<g id="edge34_Node000022_Node000020" class="edge">
<title>Node22&#45;&gt;Node20</title>
<g id="a_edge34_Node000022_Node000020"><a xlink:title=" ">
<path fill="none" stroke="#63b8ff" d="M795.33,-215.71C792.88,-207.34 790.18,-198.08 788.21,-191.33"/>
<polygon fill="#63b8ff" stroke="#63b8ff" points="791.92,-216.52 798.09,-225.13 798.64,-214.55 791.92,-216.52"/>
</a>
</g>
</g>
<!-- Node23 -->
<g id="Node000023" class="node">
<title>Node23</title>
<g id="a_Node000023"><a xlink:href="SIEFormPMCHW_8cpp.html" target="_top" xlink:title="Implementation for the SIEFormPMCHW class.">
<polygon fill="white" stroke="#666666" points="1030.5,-191 916.25,-191 916.25,-170.25 1030.5,-170.25 1030.5,-191"/>
<text xml:space="preserve" text-anchor="middle" x="973.37" y="-177.5" font-family="Helvetica,sans-Serif" font-size="10.00">SIEFormPMCHW.cpp</text>
</a>
</g>
</g>
<!-- Node22&#45;&gt;Node23 -->
<g id="edge31_Node000022_Node000023" class="edge">
<title>Node22&#45;&gt;Node23</title>
<g id="a_edge31_Node000022_Node000023"><a xlink:title=" ">
<path fill="none" stroke="#63b8ff" d="M842.92,-223.15C873.64,-213.37 914.79,-200.27 942.6,-191.42"/>
<polygon fill="#63b8ff" stroke="#63b8ff" points="842.03,-219.76 833.56,-226.13 844.15,-226.43 842.03,-219.76"/>
</a>
</g>
</g>
</g>
</svg>
