<?xml version="1.0" encoding="UTF-8" standalone="no"?>
<!DOCTYPE svg PUBLIC "-//W3C//DTD SVG 1.1//EN"
 "http://www.w3.org/Graphics/SVG/1.1/DTD/svg11.dtd">
<!-- Generated by graphviz version 13.1.2 (20250809.0930)
 -->
<!-- Title: SIEForm.cpp Pages: 1 -->
<svg width="1069pt" height="540pt"
 viewBox="0.00 0.00 1069.00 540.00" xmlns="http://www.w3.org/2000/svg" xmlns:xlink="http://www.w3.org/1999/xlink">
<g id="graph0" class="graph" transform="scale(1 1) rotate(0) translate(4 535.5)">
<title>SIEForm.cpp</title>
<!-- Node1 -->
<g id="Node000001" class="node">
<title>Node1</title>
<g id="a_Node000001"><a xlink:title="Implementation for the SIEForm class.">
<polygon fill="#999999" stroke="#666666" points="505.9,-531.5 429.9,-531.5 429.9,-510.75 505.9,-510.75 505.9,-531.5"/>
<text xml:space="preserve" text-anchor="middle" x="467.9" y="-518" font-family="Helvetica,sans-Serif" font-size="10.00">SIEForm.cpp</text>
</a>
</g>
</g>
<!-- Node2 -->
<g id="Node000002" class="node">
<title>Node2</title>
<g id="a_Node000002"><a xlink:href="SIEForm_8h.html" target="_top" xlink:title="Header for the SIEForm class.">
<polygon fill="white" stroke="#666666" points="500.27,-474.75 435.52,-474.75 435.52,-454 500.27,-454 500.27,-474.75"/>
<text xml:space="preserve" text-anchor="middle" x="467.9" y="-461.25" font-family="Helvetica,sans-Serif" font-size="10.00">SIEForm.h</text>
</a>
</g>
</g>
<!-- Node1&#45;&gt;Node2 -->
<g id="edge1_Node000001_Node000002" class="edge">
<title>Node1&#45;&gt;Node2</title>
<g id="a_edge1_Node000001_Node000002"><a xlink:title=" ">
<path fill="none" stroke="#63b8ff" d="M467.9,-510.34C467.9,-503.72 467.9,-494.72 467.9,-486.52"/>
<polygon fill="#63b8ff" stroke="#63b8ff" points="471.4,-486.59 467.9,-476.59 464.4,-486.59 471.4,-486.59"/>
</a>
</g>
</g>
<!-- Node3 -->
<g id="Node000003" class="node">
<title>Node3</title>
<g id="a_Node000003"><a xlink:title=" ">
<polygon fill="#e0e0e0" stroke="#999999" points="295.4,-20.75 222.4,-20.75 222.4,0 295.4,0 295.4,-20.75"/>
<text xml:space="preserve" text-anchor="middle" x="258.9" y="-7.25" font-family="Helvetica,sans-Serif" font-size="10.00">blitz/array.h</text>
</a>
</g>
</g>
<!-- Node2&#45;&gt;Node3 -->
<g id="edge2_Node000002_Node000003" class="edge">
<title>Node2&#45;&gt;Node3</title>
<g id="a_edge2_Node000002_Node000003"><a xlink:title=" ">
<path fill="none" stroke="#63b8ff" d="M435.06,-462.58C328.76,-459.14 0.9,-441.27 0.9,-351.88 0.9,-351.88 0.9,-351.88 0.9,-122.88 0.9,-92.3 -2.7,-77.35 19.9,-56.75 47.24,-31.82 149.11,-19.76 210.68,-14.63"/>
<polygon fill="#63b8ff" stroke="#63b8ff" points="210.85,-18.13 220.54,-13.85 210.3,-11.15 210.85,-18.13"/>
</a>
</g>
</g>
<!-- Node4 -->
<g id="Node000004" class="node">
<title>Node4</title>
<g id="a_Node000004"><a xlink:href="globals_8h.html" target="_top" xlink:title="Global numerical constants, fundamental types, and simple macros.">
<polygon fill="white" stroke="#666666" points="465.02,-77.5 404.77,-77.5 404.77,-56.75 465.02,-56.75 465.02,-77.5"/>
<text xml:space="preserve" text-anchor="middle" x="434.9" y="-64" font-family="Helvetica,sans-Serif" font-size="10.00">globals.h</text>
</a>
</g>
</g>
<!-- Node2&#45;&gt;Node4 -->
<g id="edge3_Node000002_Node000004" class="edge">
<title>Node2&#45;&gt;Node4</title>
<g id="a_edge3_Node000002_Node000004"><a xlink:title=" ">
<path fill="none" stroke="#63b8ff" d="M435.21,-457.75C360.35,-443.94 182.9,-405.54 182.9,-351.88 182.9,-351.88 182.9,-351.88 182.9,-236.38 182.9,-136.26 322.18,-92.01 393.65,-75.9"/>
<polygon fill="#63b8ff" stroke="#63b8ff" points="393.99,-79.4 403.02,-73.87 392.51,-72.56 393.99,-79.4"/>
</a>
</g>
</g>
<!-- Node8 -->
<g id="Node000008" class="node">
<title>Node8</title>
<g id="a_Node000008"><a xlink:title=" ">
<polygon fill="#e0e0e0" stroke="#999999" points="856.27,-77.5 809.52,-77.5 809.52,-56.75 856.27,-56.75 856.27,-77.5"/>
<text xml:space="preserve" text-anchor="middle" x="832.9" y="-64" font-family="Helvetica,sans-Serif" font-size="10.00">vector</text>
</a>
</g>
</g>
<!-- Node2&#45;&gt;Node8 -->
<g id="edge8_Node000002_Node000008" class="edge">
<title>Node2&#45;&gt;Node8</title>
<g id="a_edge8_Node000002_Node000008"><a xlink:title=" ">
<path fill="none" stroke="#63b8ff" d="M500.52,-460.72C624.41,-450.19 1058.9,-409.17 1058.9,-351.88 1058.9,-351.88 1058.9,-351.88 1058.9,-179.62 1058.9,-145.73 1048.13,-133.69 1020.9,-113.5 966.53,-73.19 936.73,-93.29 867.59,-77.9"/>
<polygon fill="#63b8ff" stroke="#63b8ff" points="868.64,-74.56 858.09,-75.6 866.98,-81.36 868.64,-74.56"/>
</a>
</g>
</g>
<!-- Node9 -->
<g id="Node000009" class="node">
<title>Node9</title>
<g id="a_Node000009"><a xlink:href="GreenF_8h.html" target="_top" xlink:title="Abstract base class for electromagnetic Green&#39;s functions.">
<polygon fill="white" stroke="#666666" points="533.27,-361.25 474.52,-361.25 474.52,-340.5 533.27,-340.5 533.27,-361.25"/>
<text xml:space="preserve" text-anchor="middle" x="503.9" y="-347.75" font-family="Helvetica,sans-Serif" font-size="10.00">GreenF.h</text>
</a>
</g>
</g>
<!-- Node2&#45;&gt;Node9 -->
<g id="edge9_Node000002_Node000009" class="edge">
<title>Node2&#45;&gt;Node9</title>
<g id="a_edge9_Node000002_Node000009"><a xlink:title=" ">
<path fill="none" stroke="#63b8ff" d="M471.77,-453.72C475.37,-444.58 480.78,-430.46 484.9,-418 489.9,-402.87 494.84,-385.56 498.44,-372.44"/>
<polygon fill="#63b8ff" stroke="#63b8ff" points="501.81,-373.39 501.03,-362.83 495.05,-371.57 501.81,-373.39"/>
</a>
</g>
</g>
<!-- Node14 -->
<g id="Node000014" class="node">
<title>Node14</title>
<g id="a_Node000014"><a xlink:href="RWGFun_8h.html" target="_top" xlink:title="Header for the RWGFun class.">
<polygon fill="white" stroke="#666666" points="703.02,-247.75 636.77,-247.75 636.77,-227 703.02,-227 703.02,-247.75"/>
<text xml:space="preserve" text-anchor="middle" x="669.9" y="-234.25" font-family="Helvetica,sans-Serif" font-size="10.00">RWGFun.h</text>
</a>
</g>
</g>
<!-- Node2&#45;&gt;Node14 -->
<g id="edge58_Node000002_Node000014" class="edge">
<title>Node2&#45;&gt;Node14</title>
<g id="a_edge58_Node000002_Node000014"><a xlink:title=" ">
<path fill="none" stroke="#63b8ff" d="M483.47,-453.64C517.84,-431.39 600.79,-373.39 646.9,-304.5 656.11,-290.73 662.03,-272.89 665.56,-259.2"/>
<polygon fill="#63b8ff" stroke="#63b8ff" points="668.95,-260.05 667.8,-249.52 662.14,-258.47 668.95,-260.05"/>
</a>
</g>
</g>
<!-- Node25 -->
<g id="Node000025" class="node">
<title>Node25</title>
<g id="a_Node000025"><a xlink:href="IncidentField_8h.html" target="_top" xlink:title="Abstract interface for incident electromagnetic excitations.">
<polygon fill="white" stroke="#666666" points="475.52,-418 388.27,-418 388.27,-397.25 475.52,-397.25 475.52,-418"/>
<text xml:space="preserve" text-anchor="middle" x="431.9" y="-404.5" font-family="Helvetica,sans-Serif" font-size="10.00">IncidentField.h</text>
</a>
</g>
</g>
<!-- Node2&#45;&gt;Node25 -->
<g id="edge47_Node000002_Node000025" class="edge">
<title>Node2&#45;&gt;Node25</title>
<g id="a_edge47_Node000002_Node000025"><a xlink:title=" ">
<path fill="none" stroke="#63b8ff" d="M461.46,-453.59C456.75,-446.42 450.21,-436.48 444.48,-427.76"/>
<polygon fill="#63b8ff" stroke="#63b8ff" points="447.53,-426.03 439.11,-419.59 441.68,-429.87 447.53,-426.03"/>
</a>
</g>
</g>
<!-- Node4&#45;&gt;Node3 -->
<g id="edge4_Node000004_Node000003" class="edge">
<title>Node4&#45;&gt;Node3</title>
<g id="a_edge4_Node000004_Node000003"><a xlink:title=" ">
<path fill="none" stroke="#63b8ff" d="M404.64,-56.71C376.16,-47.85 333.22,-34.49 301.32,-24.57"/>
<polygon fill="#63b8ff" stroke="#63b8ff" points="302.57,-21.3 291.98,-21.67 300.49,-27.98 302.57,-21.3"/>
</a>
</g>
</g>
<!-- Node5 -->
<g id="Node000005" class="node">
<title>Node5</title>
<g id="a_Node000005"><a xlink:title=" ">
<polygon fill="#e0e0e0" stroke="#999999" points="437.4,-20.75 346.4,-20.75 346.4,0 437.4,0 437.4,-20.75"/>
<text xml:space="preserve" text-anchor="middle" x="391.9" y="-7.25" font-family="Helvetica,sans-Serif" font-size="10.00">blitz/tinyvec2.h</text>
</a>
</g>
</g>
<!-- Node4&#45;&gt;Node5 -->
<g id="edge5_Node000004_Node000005" class="edge">
<title>Node4&#45;&gt;Node5</title>
<g id="a_edge5_Node000004_Node000005"><a xlink:title=" ">
<path fill="none" stroke="#63b8ff" d="M427.21,-56.34C421.46,-49.02 413.43,-38.79 406.48,-29.94"/>
<polygon fill="#63b8ff" stroke="#63b8ff" points="409.38,-27.97 400.45,-22.27 403.88,-32.3 409.38,-27.97"/>
</a>
</g>
</g>
<!-- Node6 -->
<g id="Node000006" class="node">
<title>Node6</title>
<g id="a_Node000006"><a xlink:title=" ">
<polygon fill="#e0e0e0" stroke="#999999" points="552.02,-20.75 455.77,-20.75 455.77,0 552.02,0 552.02,-20.75"/>
<text xml:space="preserve" text-anchor="middle" x="503.9" y="-7.25" font-family="Helvetica,sans-Serif" font-size="10.00">blitz/tvecglobs.h</text>
</a>
</g>
</g>
<!-- Node4&#45;&gt;Node6 -->
<g id="edge6_Node000004_Node000006" class="edge">
<title>Node4&#45;&gt;Node6</title>
<g id="a_edge6_Node000004_Node000006"><a xlink:title=" ">
<path fill="none" stroke="#63b8ff" d="M447.23,-56.34C457.14,-48.47 471.29,-37.25 482.96,-27.99"/>
<polygon fill="#63b8ff" stroke="#63b8ff" points="484.83,-30.98 490.48,-22.02 480.48,-25.49 484.83,-30.98"/>
</a>
</g>
</g>
<!-- Node7 -->
<g id="Node000007" class="node">
<title>Node7</title>
<g id="a_Node000007"><a xlink:title=" ">
<polygon fill="#e0e0e0" stroke="#999999" points="644.9,-20.75 586.9,-20.75 586.9,0 644.9,0 644.9,-20.75"/>
<text xml:space="preserve" text-anchor="middle" x="615.9" y="-7.25" font-family="Helvetica,sans-Serif" font-size="10.00">complex</text>
</a>
</g>
</g>
<!-- Node4&#45;&gt;Node7 -->
<g id="edge7_Node000004_Node000007" class="edge">
<title>Node4&#45;&gt;Node7</title>
<g id="a_edge7_Node000004_Node000007"><a xlink:title=" ">
<path fill="none" stroke="#63b8ff" d="M465.19,-56.96C495.48,-47.8 542.24,-33.66 575.64,-23.55"/>
<polygon fill="#63b8ff" stroke="#63b8ff" points="576.4,-26.98 584.96,-20.73 574.37,-20.28 576.4,-26.98"/>
</a>
</g>
</g>
<!-- Node9&#45;&gt;Node3 -->
<g id="edge10_Node000009_Node000003" class="edge">
<title>Node9&#45;&gt;Node3</title>
<g id="a_edge10_Node000009_Node000003"><a xlink:title=" ">
<path fill="none" stroke="#63b8ff" d="M474.35,-344.17C409.18,-329.69 258.9,-285.08 258.9,-181.62 258.9,-181.62 258.9,-181.62 258.9,-122.88 258.9,-91.48 258.9,-55.12 258.9,-32.68"/>
<polygon fill="#63b8ff" stroke="#63b8ff" points="262.4,-32.73 258.9,-22.73 255.4,-32.73 262.4,-32.73"/>
</a>
</g>
</g>
<!-- Node9&#45;&gt;Node4 -->
<g id="edge45_Node000009_Node000004" class="edge">
<title>Node9&#45;&gt;Node4</title>
<g id="a_edge45_Node000009_Node000004"><a xlink:title=" ">
<path fill="none" stroke="#63b8ff" d="M474.84,-340.12C438.59,-326.15 378.4,-296.61 353.9,-247.75 324.63,-189.36 384.08,-118.15 416.19,-85.72"/>
<polygon fill="#63b8ff" stroke="#63b8ff" points="418.3,-88.56 422.98,-79.05 413.39,-83.56 418.3,-88.56"/>
</a>
</g>
</g>
<!-- Node10 -->
<g id="Node000010" class="node">
<title>Node10</title>
<g id="a_Node000010"><a xlink:title=" ">
<polygon fill="#e0e0e0" stroke="#999999" points="409.27,-247.75 362.52,-247.75 362.52,-227 409.27,-227 409.27,-247.75"/>
<text xml:space="preserve" text-anchor="middle" x="385.9" y="-234.25" font-family="Helvetica,sans-Serif" font-size="10.00">cmath</text>
</a>
</g>
</g>
<!-- Node9&#45;&gt;Node10 -->
<g id="edge11_Node000009_Node000010" class="edge">
<title>Node9&#45;&gt;Node10</title>
<g id="a_edge11_Node000009_Node000010"><a xlink:title=" ">
<path fill="none" stroke="#63b8ff" d="M493.34,-340.19C483.38,-331.04 468.06,-316.9 454.9,-304.5 437.46,-288.07 417.75,-269.14 403.87,-255.76"/>
<polygon fill="#63b8ff" stroke="#63b8ff" points="406.39,-253.33 396.76,-248.9 401.53,-258.36 406.39,-253.33"/>
</a>
</g>
</g>
<!-- Node11 -->
<g id="Node000011" class="node">
<title>Node11</title>
<g id="a_Node000011"><a xlink:title=" ">
<polygon fill="#e0e0e0" stroke="#999999" points="993.15,-134.25 948.65,-134.25 948.65,-113.5 993.15,-113.5 993.15,-134.25"/>
<text xml:space="preserve" text-anchor="middle" x="970.9" y="-120.75" font-family="Helvetica,sans-Serif" font-size="10.00">utility</text>
</a>
</g>
</g>
<!-- Node9&#45;&gt;Node11 -->
<g id="edge12_Node000009_Node000011" class="edge">
<title>Node9&#45;&gt;Node11</title>
<g id="a_edge12_Node000009_Node000011"><a xlink:title=" ">
<path fill="none" stroke="#63b8ff" d="M533.37,-347.73C598.4,-342.6 752.06,-328.29 797.9,-304.5 873.07,-265.49 934.37,-181.22 959.11,-143.63"/>
<polygon fill="#63b8ff" stroke="#63b8ff" points="961.8,-145.92 964.28,-135.62 955.92,-142.13 961.8,-145.92"/>
</a>
</g>
</g>
<!-- Node12 -->
<g id="Node000012" class="node">
<title>Node12</title>
<g id="a_Node000012"><a xlink:href="GaussQuad_8h.html" target="_top" xlink:title="Gaussian quadrature helpers for Green&#39;s functions and incident fields.">
<polygon fill="white" stroke="#666666" points="544.15,-304.5 463.65,-304.5 463.65,-283.75 544.15,-283.75 544.15,-304.5"/>
<text xml:space="preserve" text-anchor="middle" x="503.9" y="-291" font-family="Helvetica,sans-Serif" font-size="10.00">GaussQuad.h</text>
</a>
</g>
</g>
<!-- Node9&#45;&gt;Node12 -->
<g id="edge13_Node000009_Node000012" class="edge">
<title>Node9&#45;&gt;Node12</title>
<g id="a_edge13_Node000009_Node000012"><a xlink:title=" ">
<path fill="none" stroke="#63b8ff" d="M503.9,-340.09C503.9,-333.47 503.9,-324.47 503.9,-316.27"/>
<polygon fill="#63b8ff" stroke="#63b8ff" points="507.4,-316.34 503.9,-306.34 500.4,-316.34 507.4,-316.34"/>
</a>
</g>
</g>
<!-- Node9&#45;&gt;Node14 -->
<g id="edge39_Node000009_Node000014" class="edge">
<title>Node9&#45;&gt;Node14</title>
<g id="a_edge39_Node000009_Node000014"><a xlink:title=" ">
<path fill="none" stroke="#63b8ff" d="M528.62,-340.08C547.98,-331.89 575.18,-319.2 596.9,-304.5 618.01,-290.21 639.29,-270.14 653.38,-255.87"/>
<polygon fill="#63b8ff" stroke="#63b8ff" points="655.66,-258.54 660.1,-248.92 650.63,-253.67 655.66,-258.54"/>
</a>
</g>
</g>
<!-- Node21 -->
<g id="Node000021" class="node">
<title>Node21</title>
<g id="a_Node000021"><a xlink:href="mathFunctions_8h.html" target="_top" xlink:title="Header file of the class that provides auxiliary mathematical functionalities for the SIE solver.">
<polygon fill="white" stroke="#666666" points="674.4,-134.25 577.4,-134.25 577.4,-113.5 674.4,-113.5 674.4,-134.25"/>
<text xml:space="preserve" text-anchor="middle" x="625.9" y="-120.75" font-family="Helvetica,sans-Serif" font-size="10.00">mathFunctions.h</text>
</a>
</g>
</g>
<!-- Node9&#45;&gt;Node21 -->
<g id="edge46_Node000009_Node000021" class="edge">
<title>Node9&#45;&gt;Node21</title>
<g id="a_edge46_Node000009_Node000021"><a xlink:title=" ">
<path fill="none" stroke="#63b8ff" d="M517.06,-340.34C527.89,-331.92 543.01,-318.81 552.9,-304.5 588.7,-252.71 611.15,-180.72 620.65,-145.69"/>
<polygon fill="#63b8ff" stroke="#63b8ff" points="624.04,-146.58 623.19,-136.02 617.27,-144.81 624.04,-146.58"/>
</a>
</g>
</g>
<!-- Node24 -->
<g id="Node000024" class="node">
<title>Node24</title>
<g id="a_Node000024"><a xlink:href="SingSub_8h.html" target="_top" xlink:title="Exact subtractions for singular/near&#45;singular triangle integrals.">
<polygon fill="white" stroke="#666666" points="788.9,-304.5 724.9,-304.5 724.9,-283.75 788.9,-283.75 788.9,-304.5"/>
<text xml:space="preserve" text-anchor="middle" x="756.9" y="-291" font-family="Helvetica,sans-Serif" font-size="10.00">SingSub.h</text>
</a>
</g>
</g>
<!-- Node9&#45;&gt;Node24 -->
<g id="edge40_Node000009_Node000024" class="edge">
<title>Node9&#45;&gt;Node24</title>
<g id="a_edge40_Node000009_Node000024"><a xlink:title=" ">
<path fill="none" stroke="#63b8ff" d="M533.42,-343.49C577.89,-333.86 662.34,-315.59 713.73,-304.47"/>
<polygon fill="#63b8ff" stroke="#63b8ff" points="714.28,-307.93 723.31,-302.39 712.8,-301.09 714.28,-307.93"/>
</a>
</g>
</g>
<!-- Node12&#45;&gt;Node4 -->
<g id="edge37_Node000012_Node000004" class="edge">
<title>Node12&#45;&gt;Node4</title>
<g id="a_edge37_Node000012_Node000004"><a xlink:title=" ">
<path fill="none" stroke="#63b8ff" d="M489.09,-283.48C477.96,-275.37 463.41,-262.72 455.9,-247.75 429.57,-195.26 430.5,-123.59 432.92,-88.78"/>
<polygon fill="#63b8ff" stroke="#63b8ff" points="436.37,-89.49 433.7,-79.24 429.39,-88.92 436.37,-89.49"/>
</a>
</g>
</g>
<!-- Node12&#45;&gt;Node10 -->
<g id="edge14_Node000012_Node000010" class="edge">
<title>Node12&#45;&gt;Node10</title>
<g id="a_edge14_Node000012_Node000010"><a xlink:title=" ">
<path fill="none" stroke="#63b8ff" d="M482.8,-283.34C464.51,-274.85 437.79,-262.45 417.04,-252.83"/>
<polygon fill="#63b8ff" stroke="#63b8ff" points="418.73,-249.75 408.19,-248.72 415.78,-256.1 418.73,-249.75"/>
</a>
</g>
</g>
<!-- Node13 -->
<g id="Node000013" class="node">
<title>Node13</title>
<g id="a_Node000013"><a xlink:title=" ">
<polygon fill="#e0e0e0" stroke="#999999" points="1060.65,-77.5 1001.15,-77.5 1001.15,-56.75 1060.65,-56.75 1060.65,-77.5"/>
<text xml:space="preserve" text-anchor="middle" x="1030.9" y="-64" font-family="Helvetica,sans-Serif" font-size="10.00">iostream</text>
</a>
</g>
</g>
<!-- Node12&#45;&gt;Node13 -->
<g id="edge15_Node000012_Node000013" class="edge">
<title>Node12&#45;&gt;Node13</title>
<g id="a_edge15_Node000012_Node000013"><a xlink:title=" ">
<path fill="none" stroke="#63b8ff" d="M518.04,-283.43C540.32,-268.66 585.44,-240.8 627.9,-227 738.01,-191.21 775.18,-224.86 885.9,-191 940.78,-174.21 962.17,-175.67 1001.9,-134.25 1014.1,-121.53 1021.65,-102.83 1025.97,-88.56"/>
<polygon fill="#63b8ff" stroke="#63b8ff" points="1029.24,-89.87 1028.48,-79.3 1022.49,-88.04 1029.24,-89.87"/>
</a>
</g>
</g>
<!-- Node12&#45;&gt;Node14 -->
<g id="edge16_Node000012_Node000014" class="edge">
<title>Node12&#45;&gt;Node14</title>
<g id="a_edge16_Node000012_Node000014"><a xlink:title=" ">
<path fill="none" stroke="#63b8ff" d="M533.58,-283.34C560.29,-274.53 599.77,-261.5 629.38,-251.74"/>
<polygon fill="#63b8ff" stroke="#63b8ff" points="630.36,-255.1 638.76,-248.64 628.17,-248.45 630.36,-255.1"/>
</a>
</g>
</g>
<!-- Node23 -->
<g id="Node000023" class="node">
<title>Node23</title>
<g id="a_Node000023"><a xlink:href="quadrature_8h.html" target="_top" xlink:title="Declarations of Dunavant (triangle) and Gauss–Legendre (1D) quadrature rules.">
<polygon fill="white" stroke="#666666" points="543.02,-247.75 464.77,-247.75 464.77,-227 543.02,-227 543.02,-247.75"/>
<text xml:space="preserve" text-anchor="middle" x="503.9" y="-234.25" font-family="Helvetica,sans-Serif" font-size="10.00">quadrature.h</text>
</a>
</g>
</g>
<!-- Node12&#45;&gt;Node23 -->
<g id="edge38_Node000012_Node000023" class="edge">
<title>Node12&#45;&gt;Node23</title>
<g id="a_edge38_Node000012_Node000023"><a xlink:title=" ">
<path fill="none" stroke="#63b8ff" d="M503.9,-283.34C503.9,-276.72 503.9,-267.72 503.9,-259.52"/>
<polygon fill="#63b8ff" stroke="#63b8ff" points="507.4,-259.59 503.9,-249.59 500.4,-259.59 507.4,-259.59"/>
</a>
</g>
</g>
<!-- Node14&#45;&gt;Node4 -->
<g id="edge36_Node000014_Node000004" class="edge">
<title>Node14&#45;&gt;Node4</title>
<g id="a_edge36_Node000014_Node000004"><a xlink:title=" ">
<path fill="none" stroke="#63b8ff" d="M649.25,-226.61C615.54,-210.15 547.39,-174.7 496.9,-134.25 479.14,-120.02 461.66,-100.76 449.81,-86.7"/>
<polygon fill="#63b8ff" stroke="#63b8ff" points="452.59,-84.58 443.53,-79.09 447.19,-89.03 452.59,-84.58"/>
</a>
</g>
</g>
<!-- Node15 -->
<g id="Node000015" class="node">
<title>Node15</title>
<g id="a_Node000015"><a xlink:href="SurfaceMesh_8h.html" target="_top" xlink:title="Declaration of the SurfaceMesh class and mesh edge struct.">
<polygon fill="white" stroke="#666666" points="876.9,-191 788.9,-191 788.9,-170.25 876.9,-170.25 876.9,-191"/>
<text xml:space="preserve" text-anchor="middle" x="832.9" y="-177.5" font-family="Helvetica,sans-Serif" font-size="10.00">SurfaceMesh.h</text>
</a>
</g>
</g>
<!-- Node14&#45;&gt;Node15 -->
<g id="edge17_Node000014_Node000015" class="edge">
<title>Node14&#45;&gt;Node15</title>
<g id="a_edge17_Node000014_Node000015"><a xlink:title=" ">
<path fill="none" stroke="#63b8ff" d="M699.04,-226.59C725.27,-217.78 764.04,-204.75 793.11,-194.99"/>
<polygon fill="#63b8ff" stroke="#63b8ff" points="793.94,-198.4 802.3,-191.9 791.71,-191.77 793.94,-198.4"/>
</a>
</g>
</g>
<!-- Node20 -->
<g id="Node000020" class="node">
<title>Node20</title>
<g id="a_Node000020"><a xlink:href="Triangle_8h.html" target="_top" xlink:title="Declaration of the Triangle class (surface element with cached geometry).">
<polygon fill="white" stroke="#666666" points="755.52,-134.25 692.27,-134.25 692.27,-113.5 755.52,-113.5 755.52,-134.25"/>
<text xml:space="preserve" text-anchor="middle" x="723.9" y="-120.75" font-family="Helvetica,sans-Serif" font-size="10.00">Triangle.h</text>
</a>
</g>
</g>
<!-- Node14&#45;&gt;Node20 -->
<g id="edge35_Node000014_Node000020" class="edge">
<title>Node14&#45;&gt;Node20</title>
<g id="a_edge35_Node000014_Node000020"><a xlink:title=" ">
<path fill="none" stroke="#63b8ff" d="M674.5,-226.87C683.27,-208.77 702.51,-169.03 714.23,-144.85"/>
<polygon fill="#63b8ff" stroke="#63b8ff" points="717.28,-146.56 718.49,-136.04 710.98,-143.51 717.28,-146.56"/>
</a>
</g>
</g>
<!-- Node15&#45;&gt;Node4 -->
<g id="edge29_Node000015_Node000004" class="edge">
<title>Node15&#45;&gt;Node4</title>
<g id="a_edge29_Node000015_Node000004"><a xlink:title=" ">
<path fill="none" stroke="#63b8ff" d="M788.52,-175.93C735.29,-170.61 643.86,-158.62 568.9,-134.25 563.47,-132.49 502.2,-101.91 464.42,-82.96"/>
<polygon fill="#63b8ff" stroke="#63b8ff" points="466.31,-79.99 455.8,-78.63 463.17,-86.25 466.31,-79.99"/>
</a>
</g>
</g>
<!-- Node15&#45;&gt;Node8 -->
<g id="edge20_Node000015_Node000008" class="edge">
<title>Node15&#45;&gt;Node8</title>
<g id="a_edge20_Node000015_Node000008"><a xlink:title=" ">
<path fill="none" stroke="#63b8ff" d="M832.9,-170.12C832.9,-152.35 832.9,-113.72 832.9,-89.43"/>
<polygon fill="#63b8ff" stroke="#63b8ff" points="836.4,-89.44 832.9,-79.44 829.4,-89.44 836.4,-89.44"/>
</a>
</g>
</g>
<!-- Node15&#45;&gt;Node11 -->
<g id="edge19_Node000015_Node000011" class="edge">
<title>Node15&#45;&gt;Node11</title>
<g id="a_edge19_Node000015_Node000011"><a xlink:title=" ">
<path fill="none" stroke="#63b8ff" d="M857.57,-169.84C879.89,-160.98 912.94,-147.87 937.6,-138.09"/>
<polygon fill="#63b8ff" stroke="#63b8ff" points="938.86,-141.35 946.86,-134.41 936.28,-134.85 938.86,-141.35"/>
</a>
</g>
</g>
<!-- Node16 -->
<g id="Node000016" class="node">
<title>Node16</title>
<g id="a_Node000016"><a xlink:title=" ">
<polygon fill="#e0e0e0" stroke="#999999" points="804.4,-134.25 773.4,-134.25 773.4,-113.5 804.4,-113.5 804.4,-134.25"/>
<text xml:space="preserve" text-anchor="middle" x="788.9" y="-120.75" font-family="Helvetica,sans-Serif" font-size="10.00">set</text>
</a>
</g>
</g>
<!-- Node15&#45;&gt;Node16 -->
<g id="edge18_Node000015_Node000016" class="edge">
<title>Node15&#45;&gt;Node16</title>
<g id="a_edge18_Node000015_Node000016"><a xlink:title=" ">
<path fill="none" stroke="#63b8ff" d="M825.03,-169.84C819.15,-162.52 810.93,-152.29 803.82,-143.44"/>
<polygon fill="#63b8ff" stroke="#63b8ff" points="806.64,-141.36 797.65,-135.76 801.18,-145.75 806.64,-141.36"/>
</a>
</g>
</g>
<!-- Node17 -->
<g id="Node000017" class="node">
<title>Node17</title>
<g id="a_Node000017"><a xlink:href="JobParser_8h.html" target="_top" xlink:title="Lightweight XML&#45;like tag parser for the solver job file.">
<polygon fill="white" stroke="#666666" points="930.52,-134.25 861.27,-134.25 861.27,-113.5 930.52,-113.5 930.52,-134.25"/>
<text xml:space="preserve" text-anchor="middle" x="895.9" y="-120.75" font-family="Helvetica,sans-Serif" font-size="10.00">JobParser.h</text>
</a>
</g>
</g>
<!-- Node15&#45;&gt;Node17 -->
<g id="edge21_Node000015_Node000017" class="edge">
<title>Node15&#45;&gt;Node17</title>
<g id="a_edge21_Node000015_Node000017"><a xlink:title=" ">
<path fill="none" stroke="#63b8ff" d="M844.16,-169.84C853.03,-162.13 865.61,-151.2 876.15,-142.04"/>
<polygon fill="#63b8ff" stroke="#63b8ff" points="878.34,-144.77 883.59,-135.57 873.75,-139.49 878.34,-144.77"/>
</a>
</g>
</g>
<!-- Node15&#45;&gt;Node20 -->
<g id="edge26_Node000015_Node000020" class="edge">
<title>Node15&#45;&gt;Node20</title>
<g id="a_edge26_Node000015_Node000020"><a xlink:title=" ">
<path fill="none" stroke="#63b8ff" d="M813.41,-169.84C796.75,-161.47 772.51,-149.29 753.46,-139.72"/>
<polygon fill="#63b8ff" stroke="#63b8ff" points="755.08,-136.62 744.57,-135.26 751.93,-142.87 755.08,-136.62"/>
</a>
</g>
</g>
<!-- Node15&#45;&gt;Node21 -->
<g id="edge30_Node000015_Node000021" class="edge">
<title>Node15&#45;&gt;Node21</title>
<g id="a_edge30_Node000015_Node000021"><a xlink:title=" ">
<path fill="none" stroke="#63b8ff" d="M795.89,-169.84C761.85,-160.83 711.17,-147.43 674,-137.6"/>
<polygon fill="#63b8ff" stroke="#63b8ff" points="674.96,-134.23 664.4,-135.06 673.17,-141 674.96,-134.23"/>
</a>
</g>
</g>
<!-- Node17&#45;&gt;Node8 -->
<g id="edge25_Node000017_Node000008" class="edge">
<title>Node17&#45;&gt;Node8</title>
<g id="a_edge25_Node000017_Node000008"><a xlink:title=" ">
<path fill="none" stroke="#63b8ff" d="M884.64,-113.09C875.77,-105.38 863.19,-94.45 852.65,-85.29"/>
<polygon fill="#63b8ff" stroke="#63b8ff" points="855.05,-82.74 845.21,-78.82 850.46,-88.02 855.05,-82.74"/>
</a>
</g>
</g>
<!-- Node17&#45;&gt;Node13 -->
<g id="edge23_Node000017_Node000013" class="edge">
<title>Node17&#45;&gt;Node13</title>
<g id="a_edge23_Node000017_Node000013"><a xlink:title=" ">
<path fill="none" stroke="#63b8ff" d="M920.03,-113.09C941.34,-104.44 972.65,-91.75 996.57,-82.05"/>
<polygon fill="#63b8ff" stroke="#63b8ff" points="997.62,-85.4 1005.57,-78.4 994.99,-78.91 997.62,-85.4"/>
</a>
</g>
</g>
<!-- Node18 -->
<g id="Node000018" class="node">
<title>Node18</title>
<g id="a_Node000018"><a xlink:title=" ">
<polygon fill="#e0e0e0" stroke="#999999" points="537.02,-77.5 482.77,-77.5 482.77,-56.75 537.02,-56.75 537.02,-77.5"/>
<text xml:space="preserve" text-anchor="middle" x="509.9" y="-64" font-family="Helvetica,sans-Serif" font-size="10.00">fstream</text>
</a>
</g>
</g>
<!-- Node17&#45;&gt;Node18 -->
<g id="edge22_Node000017_Node000018" class="edge">
<title>Node17&#45;&gt;Node18</title>
<g id="a_edge22_Node000017_Node000018"><a xlink:title=" ">
<path fill="none" stroke="#63b8ff" d="M861.05,-118.92C788.8,-110.64 623.82,-91.26 548.61,-77.76"/>
<polygon fill="#63b8ff" stroke="#63b8ff" points="549.3,-74.33 538.82,-75.93 548.01,-81.21 549.3,-74.33"/>
</a>
</g>
</g>
<!-- Node19 -->
<g id="Node000019" class="node">
<title>Node19</title>
<g id="a_Node000019"><a xlink:title=" ">
<polygon fill="#e0e0e0" stroke="#999999" points="917.77,-77.5 874.02,-77.5 874.02,-56.75 917.77,-56.75 917.77,-77.5"/>
<text xml:space="preserve" text-anchor="middle" x="895.9" y="-64" font-family="Helvetica,sans-Serif" font-size="10.00">string</text>
</a>
</g>
</g>
<!-- Node17&#45;&gt;Node19 -->
<g id="edge24_Node000017_Node000019" class="edge">
<title>Node17&#45;&gt;Node19</title>
<g id="a_edge24_Node000017_Node000019"><a xlink:title=" ">
<path fill="none" stroke="#63b8ff" d="M895.9,-113.09C895.9,-106.47 895.9,-97.47 895.9,-89.27"/>
<polygon fill="#63b8ff" stroke="#63b8ff" points="899.4,-89.34 895.9,-79.34 892.4,-89.34 899.4,-89.34"/>
</a>
</g>
</g>
<!-- Node20&#45;&gt;Node4 -->
<g id="edge28_Node000020_Node000004" class="edge">
<title>Node20&#45;&gt;Node4</title>
<g id="a_edge28_Node000020_Node000004"><a xlink:title=" ">
<path fill="none" stroke="#63b8ff" d="M692.06,-115.23C689.3,-114.62 686.56,-114.04 683.9,-113.5 594.63,-95.4 568.61,-96.46 476.74,-77.98"/>
<polygon fill="#63b8ff" stroke="#63b8ff" points="477.49,-74.56 467,-75.99 476.09,-81.42 477.49,-74.56"/>
</a>
</g>
</g>
<!-- Node20&#45;&gt;Node8 -->
<g id="edge27_Node000020_Node000008" class="edge">
<title>Node20&#45;&gt;Node8</title>
<g id="a_edge27_Node000020_Node000008"><a xlink:title=" ">
<path fill="none" stroke="#63b8ff" d="M743.39,-113.09C760.05,-104.72 784.28,-92.54 803.33,-82.97"/>
<polygon fill="#63b8ff" stroke="#63b8ff" points="804.86,-86.12 812.23,-78.51 801.72,-79.87 804.86,-86.12"/>
</a>
</g>
</g>
<!-- Node21&#45;&gt;Node4 -->
<g id="edge34_Node000021_Node000004" class="edge">
<title>Node21&#45;&gt;Node4</title>
<g id="a_edge34_Node000021_Node000004"><a xlink:title=" ">
<path fill="none" stroke="#63b8ff" d="M591.75,-113.09C559.32,-103.79 510.51,-89.8 475.96,-79.9"/>
<polygon fill="#63b8ff" stroke="#63b8ff" points="477.32,-76.64 466.74,-77.25 475.39,-83.37 477.32,-76.64"/>
</a>
</g>
</g>
<!-- Node21&#45;&gt;Node7 -->
<g id="edge32_Node000021_Node000007" class="edge">
<title>Node21&#45;&gt;Node7</title>
<g id="a_edge32_Node000021_Node000007"><a xlink:title=" ">
<path fill="none" stroke="#63b8ff" d="M625.05,-113.37C623.45,-95.52 619.96,-56.61 617.78,-32.34"/>
<polygon fill="#63b8ff" stroke="#63b8ff" points="621.29,-32.33 616.91,-22.68 614.32,-32.96 621.29,-32.33"/>
</a>
</g>
</g>
<!-- Node21&#45;&gt;Node8 -->
<g id="edge33_Node000021_Node000008" class="edge">
<title>Node21&#45;&gt;Node8</title>
<g id="a_edge33_Node000021_Node000008"><a xlink:title=" ">
<path fill="none" stroke="#63b8ff" d="M662.91,-113.09C701.27,-102.94 760.76,-87.2 798.23,-77.29"/>
<polygon fill="#63b8ff" stroke="#63b8ff" points="798.87,-80.74 807.65,-74.8 797.08,-73.98 798.87,-80.74"/>
</a>
</g>
</g>
<!-- Node22 -->
<g id="Node000022" class="node">
<title>Node22</title>
<g id="a_Node000022"><a xlink:title=" ">
<polygon fill="#e0e0e0" stroke="#999999" points="605.15,-77.5 554.65,-77.5 554.65,-56.75 605.15,-56.75 605.15,-77.5"/>
<text xml:space="preserve" text-anchor="middle" x="579.9" y="-64" font-family="Helvetica,sans-Serif" font-size="10.00">math.h</text>
</a>
</g>
</g>
<!-- Node21&#45;&gt;Node22 -->
<g id="edge31_Node000021_Node000022" class="edge">
<title>Node21&#45;&gt;Node22</title>
<g id="a_edge31_Node000021_Node000022"><a xlink:title=" ">
<path fill="none" stroke="#63b8ff" d="M617.67,-113.09C611.46,-105.69 602.75,-95.32 595.26,-86.41"/>
<polygon fill="#63b8ff" stroke="#63b8ff" points="598.14,-84.39 589.03,-78.99 592.78,-88.9 598.14,-84.39"/>
</a>
</g>
</g>
<!-- Node24&#45;&gt;Node4 -->
<g id="edge44_Node000024_Node000004" class="edge">
<title>Node24&#45;&gt;Node4</title>
<g id="a_edge44_Node000024_Node000004"><a xlink:title=" ">
<path fill="none" stroke="#63b8ff" d="M752.34,-283.44C745.33,-269.44 730.74,-243.42 711.9,-227 641.96,-166.05 604.03,-182.67 524.9,-134.25 511.69,-126.17 509.37,-122.68 496.9,-113.5 483.81,-103.86 469.13,-93.11 457.34,-84.5"/>
<polygon fill="#63b8ff" stroke="#63b8ff" points="459.58,-81.8 449.44,-78.73 455.45,-87.46 459.58,-81.8"/>
</a>
</g>
</g>
<!-- Node24&#45;&gt;Node8 -->
<g id="edge41_Node000024_Node000008" class="edge">
<title>Node24&#45;&gt;Node8</title>
<g id="a_edge41_Node000024_Node000008"><a xlink:title=" ">
<path fill="none" stroke="#63b8ff" d="M789.06,-283.47C844.41,-264.91 956.15,-218.44 1001.9,-134.25 1043.46,-57.77 971.8,-102.57 867.5,-77.95"/>
<polygon fill="#63b8ff" stroke="#63b8ff" points="868.67,-74.64 858.11,-75.54 866.92,-81.42 868.67,-74.64"/>
</a>
</g>
</g>
<!-- Node24&#45;&gt;Node14 -->
<g id="edge42_Node000024_Node000014" class="edge">
<title>Node24&#45;&gt;Node14</title>
<g id="a_edge42_Node000024_Node000014"><a xlink:title=" ">
<path fill="none" stroke="#63b8ff" d="M741.34,-283.34C728.48,-275.24 709.96,-263.58 694.99,-254.17"/>
<polygon fill="#63b8ff" stroke="#63b8ff" points="696.93,-251.25 686.6,-248.88 693.2,-257.17 696.93,-251.25"/>
</a>
</g>
</g>
<!-- Node24&#45;&gt;Node20 -->
<g id="edge43_Node000024_Node000020" class="edge">
<title>Node24&#45;&gt;Node20</title>
<g id="a_edge43_Node000024_Node000020"><a xlink:title=" ">
<path fill="none" stroke="#63b8ff" d="M755.18,-283.25C752.91,-270.32 748.76,-246.93 744.9,-227 739.46,-198.89 732.72,-166.53 728.37,-145.9"/>
<polygon fill="#63b8ff" stroke="#63b8ff" points="731.81,-145.26 726.32,-136.2 724.96,-146.71 731.81,-145.26"/>
</a>
</g>
</g>
<!-- Node25&#45;&gt;Node4 -->
<g id="edge49_Node000025_Node000004" class="edge">
<title>Node25&#45;&gt;Node4</title>
<g id="a_edge49_Node000025_Node000004"><a xlink:title=" ">
<path fill="none" stroke="#63b8ff" d="M424.12,-397C405.57,-373.36 359.11,-309.85 342.9,-247.75 327.46,-188.59 333.57,-160.31 372.9,-113.5 382.62,-101.93 395.88,-91.71 407.64,-83.92"/>
<polygon fill="#63b8ff" stroke="#63b8ff" points="409.19,-87.08 415.78,-78.78 405.45,-81.16 409.19,-87.08"/>
</a>
</g>
</g>
<!-- Node25&#45;&gt;Node9 -->
<g id="edge57_Node000025_Node000009" class="edge">
<title>Node25&#45;&gt;Node9</title>
<g id="a_edge57_Node000025_Node000009"><a xlink:title=" ">
<path fill="none" stroke="#63b8ff" d="M444.77,-396.84C455.11,-388.97 469.87,-377.75 482.05,-368.49"/>
<polygon fill="#63b8ff" stroke="#63b8ff" points="484.09,-371.33 489.93,-362.49 479.85,-365.76 484.09,-371.33"/>
</a>
</g>
</g>
<!-- Node25&#45;&gt;Node14 -->
<g id="edge48_Node000025_Node000014" class="edge">
<title>Node25&#45;&gt;Node14</title>
<g id="a_edge48_Node000025_Node000014"><a xlink:title=" ">
<path fill="none" stroke="#63b8ff" d="M462.3,-396.81C503.33,-382.28 576.72,-351.56 623.9,-304.5 637.94,-290.49 650.55,-271.71 658.99,-257.74"/>
<polygon fill="#63b8ff" stroke="#63b8ff" points="661.81,-259.86 663.83,-249.46 655.76,-256.33 661.81,-259.86"/>
</a>
</g>
</g>
<!-- Node26 -->
<g id="Node000026" class="node">
<title>Node26</title>
<g id="a_Node000026"><a xlink:href="LayeredMediaUtils_8h.html" target="_top" xlink:title="This header declares utility structures and algorithms used throughout the layered&#45;media scattering s...">
<polygon fill="white" stroke="#666666" points="231.15,-134.25 114.65,-134.25 114.65,-113.5 231.15,-113.5 231.15,-134.25"/>
<text xml:space="preserve" text-anchor="middle" x="172.9" y="-120.75" font-family="Helvetica,sans-Serif" font-size="10.00">LayeredMediaUtils.h</text>
</a>
</g>
</g>
<!-- Node25&#45;&gt;Node26 -->
<g id="edge50_Node000025_Node000026" class="edge">
<title>Node25&#45;&gt;Node26</title>
<g id="a_edge50_Node000025_Node000026"><a xlink:title=" ">
<path fill="none" stroke="#63b8ff" d="M387.95,-407.25C346.24,-405.49 284.22,-396.46 244.9,-361.25 221.61,-340.39 220.9,-326.39 220.9,-295.12 220.9,-295.12 220.9,-295.12 220.9,-236.38 220.9,-201.6 200.96,-165.33 186.78,-143.94"/>
<polygon fill="#63b8ff" stroke="#63b8ff" points="189.83,-142.19 181.26,-135.95 184.07,-146.17 189.83,-142.19"/>
</a>
</g>
</g>
<!-- Node26&#45;&gt;Node4 -->
<g id="edge55_Node000026_Node000004" class="edge">
<title>Node26&#45;&gt;Node4</title>
<g id="a_edge55_Node000026_Node000004"><a xlink:title=" ">
<path fill="none" stroke="#63b8ff" d="M220.04,-113.02C269.45,-102.7 346.31,-86.64 393.46,-76.78"/>
<polygon fill="#63b8ff" stroke="#63b8ff" points="393.93,-80.26 403.01,-74.79 392.5,-73.41 393.93,-80.26"/>
</a>
</g>
</g>
<!-- Node26&#45;&gt;Node8 -->
<g id="edge54_Node000026_Node000008" class="edge">
<title>Node26&#45;&gt;Node8</title>
<g id="a_edge54_Node000026_Node000008"><a xlink:title=" ">
<path fill="none" stroke="#63b8ff" d="M231.47,-118.02C365.28,-106.92 690.14,-79.97 797.68,-71.05"/>
<polygon fill="#63b8ff" stroke="#63b8ff" points="797.93,-74.54 807.61,-70.22 797.35,-67.56 797.93,-74.54"/>
</a>
</g>
</g>
<!-- Node26&#45;&gt;Node18 -->
<g id="edge56_Node000026_Node000018" class="edge">
<title>Node26&#45;&gt;Node18</title>
<g id="a_edge56_Node000026_Node000018"><a xlink:title=" ">
<path fill="none" stroke="#63b8ff" d="M231.49,-115.9C289.94,-108.52 382.51,-95.72 471.36,-77.85"/>
<polygon fill="#63b8ff" stroke="#63b8ff" points="471.87,-81.32 480.97,-75.89 470.47,-74.46 471.87,-81.32"/>
</a>
</g>
</g>
<!-- Node27 -->
<g id="Node000027" class="node">
<title>Node27</title>
<g id="a_Node000027"><a xlink:title=" ">
<polygon fill="#e0e0e0" stroke="#999999" points="66.77,-77.5 29.02,-77.5 29.02,-56.75 66.77,-56.75 66.77,-77.5"/>
<text xml:space="preserve" text-anchor="middle" x="47.9" y="-64" font-family="Helvetica,sans-Serif" font-size="10.00">map</text>
</a>
</g>
</g>
<!-- Node26&#45;&gt;Node27 -->
<g id="edge51_Node000026_Node000027" class="edge">
<title>Node26&#45;&gt;Node27</title>
<g id="a_edge51_Node000026_Node000027"><a xlink:title=" ">
<path fill="none" stroke="#63b8ff" d="M150.55,-113.09C130.15,-104.15 99.86,-90.88 77.47,-81.08"/>
<polygon fill="#63b8ff" stroke="#63b8ff" points="79.13,-77.99 68.57,-77.18 76.33,-84.4 79.13,-77.99"/>
</a>
</g>
</g>
<!-- Node28 -->
<g id="Node000028" class="node">
<title>Node28</title>
<g id="a_Node000028"><a xlink:title=" ">
<polygon fill="#e0e0e0" stroke="#999999" points="148.9,-77.5 84.9,-77.5 84.9,-56.75 148.9,-56.75 148.9,-77.5"/>
<text xml:space="preserve" text-anchor="middle" x="116.9" y="-64" font-family="Helvetica,sans-Serif" font-size="10.00">stdexcept</text>
</a>
</g>
</g>
<!-- Node26&#45;&gt;Node28 -->
<g id="edge52_Node000026_Node000028" class="edge">
<title>Node26&#45;&gt;Node28</title>
<g id="a_edge52_Node000026_Node000028"><a xlink:title=" ">
<path fill="none" stroke="#63b8ff" d="M162.89,-113.09C155.16,-105.53 144.27,-94.89 135.03,-85.85"/>
<polygon fill="#63b8ff" stroke="#63b8ff" points="137.5,-83.37 127.91,-78.89 132.61,-88.38 137.5,-83.37"/>
</a>
</g>
</g>
<!-- Node29 -->
<g id="Node000029" class="node">
<title>Node29</title>
<g id="a_Node000029"><a xlink:title=" ">
<polygon fill="#e0e0e0" stroke="#999999" points="231.27,-77.5 166.52,-77.5 166.52,-56.75 231.27,-56.75 231.27,-77.5"/>
<text xml:space="preserve" text-anchor="middle" x="198.9" y="-64" font-family="Helvetica,sans-Serif" font-size="10.00">functional</text>
</a>
</g>
</g>
<!-- Node26&#45;&gt;Node29 -->
<g id="edge53_Node000026_Node000029" class="edge">
<title>Node26&#45;&gt;Node29</title>
<g id="a_edge53_Node000026_Node000029"><a xlink:title=" ">
<path fill="none" stroke="#63b8ff" d="M177.55,-113.09C180.84,-106.16 185.37,-96.62 189.41,-88.11"/>
<polygon fill="#63b8ff" stroke="#63b8ff" points="192.51,-89.73 193.64,-79.2 186.19,-86.73 192.51,-89.73"/>
</a>
</g>
</g>
</g>
</svg>
