<?xml version="1.0" encoding="UTF-8" standalone="no"?>
<!DOCTYPE svg PUBLIC "-//W3C//DTD SVG 1.1//EN"
 "http://www.w3.org/Graphics/SVG/1.1/DTD/svg11.dtd">
<!-- Generated by graphviz version 13.1.2 (20250809.0930)
 -->
<!-- Title: SIEFormPMCHW.cpp Pages: 1 -->
<!--zoomable 596 -->

<svg id="main" version="1.1" xmlns="http://www.w3.org/2000/svg" xmlns:xlink="http://www.w3.org/1999/xlink" xml:space="preserve" onload="init(evt)">

<style type="text/css"><![CDATA[
.node, .edge {opacity: 0.7;}
.node.selected, .edge.selected {opacity: 1;}
.edge:hover path { stroke: red; }
.edge:hover polygon { stroke: red; fill: red; }
]]></style>

<defs>
  <circle id="rim" cx="0" cy="0" r="7"/>
  <circle id="rim2" cx="0" cy="0" r="3.5"/>
  <g id="zoomPlus">
    <use xlink:href="#rim" fill="#404040"><set attributeName="fill" to="#808080" begin="zoomplus.mouseover" end="zoomplus.mouseout"/></use>
    <path d="M-4,0h8M0,-4v8" fill="none" stroke="white" stroke-width="1.5" pointer-events="none"/>
  </g>
  <g id="zoomMin">
    <use xlink:href="#rim" fill="#404040"><set attributeName="fill" to="#808080" begin="zoomminus.mouseover" end="zoomminus.mouseout"/></use>
    <path d="M-4,0h8" fill="none" stroke="white" stroke-width="1.5" pointer-events="none"/>
  </g>
  <g id="arrowUp" transform="translate(30 24)">
    <use xlink:href="#rim"/>
    <path pointer-events="none" fill="none" stroke="white" stroke-width="1.5" d="M0,-3.0v7 M-2.5,-0.5L0,-3.0L2.5,-0.5"/>
  </g>
  <g id="arrowRight" transform="rotate(90) translate(36 -43)">
    <use xlink:href="#rim"/>
    <path pointer-events="none" fill="none" stroke="white" stroke-width="1.5" d="M0,-3.0v7 M-2.5,-0.5L0,-3.0L2.5,-0.5"/>
  </g>
  <g id="arrowDown" transform="rotate(180) translate(-30 -48)">
    <use xlink:href="#rim"/>
    <path pointer-events="none" fill="none" stroke="white" stroke-width="1.5" d="M0,-3.0v7 M-2.5,-0.5L0,-3.0L2.5,-0.5"/>
  </g>
  <g id="arrowLeft" transform="rotate(270) translate(-36 17)">
    <use xlink:href="#rim"/>
    <path pointer-events="none" fill="none" stroke="white" stroke-width="1.5" d="M0,-3.0v7 M-2.5,-0.5L0,-3.0L2.5,-0.5"/>
  </g>
  <g id="resetDef">
    <use xlink:href="#rim2" fill="#404040"><set attributeName="fill" to="#808080" begin="reset.mouseover" end="reset.mouseout"/></use>
  </g>
</defs>
<script type="application/ecmascript">
var viewWidth = 1189;
var viewHeight = 596;
var sectionId = 'dynsection-0';
</script>
<script type="application/ecmascript" xlink:href="svg.min.js"/>
<svg id="graph" class="graph">
<g id="viewport">
<title>SIEFormPMCHW.cpp</title>
<!-- Node1 -->
<g id="Node000001" class="node">
<title>Node1</title>
<g id="a_Node000001"><a xlink:title="Implementation for the SIEFormPMCHW class.">
<polygon fill="#999999" stroke="#666666" points="1111.12,-588.25 996.88,-588.25 996.88,-567.5 1111.12,-567.5 1111.12,-588.25"/>
<text xml:space="preserve" text-anchor="middle" x="1054" y="-574.75" font-family="Helvetica,sans-Serif" font-size="10.00">SIEFormPMCHW.cpp</text>
</a>
</g>
</g>
<!-- Node2 -->
<g id="Node000002" class="node">
<title>Node2</title>
<g id="a_Node000002"><a xlink:href="SIEFormPMCHW_8h.html" target="_top" xlink:title="Header file for the SIEFormPMCHW class.">
<polygon fill="white" stroke="#666666" points="922.5,-531.5 819.5,-531.5 819.5,-510.75 922.5,-510.75 922.5,-531.5"/>
<text xml:space="preserve" text-anchor="middle" x="871" y="-518" font-family="Helvetica,sans-Serif" font-size="10.00">SIEFormPMCHW.h</text>
</a>
</g>
</g>
<!-- Node1&#45;&gt;Node2 -->
<g id="edge1_Node000001_Node000002" class="edge">
<title>Node1&#45;&gt;Node2</title>
<g id="a_edge1_Node000001_Node000002"><a xlink:title=" ">
<path fill="none" stroke="#63b8ff" d="M1021.28,-567.09C991.45,-558.16 947.16,-544.91 914.38,-535.1"/>
<polygon fill="#63b8ff" stroke="#63b8ff" points="915.78,-531.87 905.19,-532.35 913.77,-538.57 915.78,-531.87"/>
</a>
</g>
</g>
<!-- Node4 -->
<g id="Node000004" class="node">
<title>Node4</title>
<g id="a_Node000004"><a xlink:title=" ">
<polygon fill="#e0e0e0" stroke="#999999" points="1180.75,-474.75 1133.25,-474.75 1133.25,-454 1180.75,-454 1180.75,-474.75"/>
<text xml:space="preserve" text-anchor="middle" x="1157" y="-461.25" font-family="Helvetica,sans-Serif" font-size="10.00">mutex</text>
</a>
</g>
</g>
<!-- Node1&#45;&gt;Node4 -->
<g id="edge66_Node000001_Node000004" class="edge">
<title>Node1&#45;&gt;Node4</title>
<g id="a_edge66_Node000001_Node000004"><a xlink:title=" ">
<path fill="none" stroke="#63b8ff" d="M1054.47,-567.28C1055.6,-553.39 1059.52,-527.5 1073,-510.75 1085.74,-494.92 1105.53,-483.85 1122.71,-476.61"/>
<polygon fill="#63b8ff" stroke="#63b8ff" points="1123.53,-480.04 1131.57,-473.14 1120.98,-473.53 1123.53,-480.04"/>
</a>
</g>
</g>
<!-- Node32 -->
<g id="Node000032" class="node">
<title>Node32</title>
<g id="a_Node000032"><a xlink:title=" ">
<polygon fill="#e0e0e0" stroke="#999999" points="1129.75,-531.5 1082.25,-531.5 1082.25,-510.75 1129.75,-510.75 1129.75,-531.5"/>
<text xml:space="preserve" text-anchor="middle" x="1106" y="-518" font-family="Helvetica,sans-Serif" font-size="10.00">thread</text>
</a>
</g>
</g>
<!-- Node1&#45;&gt;Node32 -->
<g id="edge67_Node000001_Node000032" class="edge">
<title>Node1&#45;&gt;Node32</title>
<g id="a_edge67_Node000001_Node000032"><a xlink:title=" ">
<path fill="none" stroke="#63b8ff" d="M1063.3,-567.09C1070.4,-559.61 1080.37,-549.11 1088.9,-540.13"/>
<polygon fill="#63b8ff" stroke="#63b8ff" points="1091.39,-542.59 1095.74,-532.93 1086.32,-537.77 1091.39,-542.59"/>
</a>
</g>
</g>
<!-- Node3 -->
<g id="Node000003" class="node">
<title>Node3</title>
<g id="a_Node000003"><a xlink:title=" ">
<polygon fill="#e0e0e0" stroke="#999999" points="937.5,-20.75 864.5,-20.75 864.5,0 937.5,0 937.5,-20.75"/>
<text xml:space="preserve" text-anchor="middle" x="901" y="-7.25" font-family="Helvetica,sans-Serif" font-size="10.00">blitz/array.h</text>
</a>
</g>
</g>
<!-- Node2&#45;&gt;Node3 -->
<g id="edge2_Node000002_Node000003" class="edge">
<title>Node2&#45;&gt;Node3</title>
<g id="a_edge2_Node000002_Node000003"><a xlink:title=" ">
<path fill="none" stroke="#63b8ff" d="M922.93,-517.69C991.87,-511.34 1105,-488.73 1105,-408.62 1105,-408.62 1105,-408.62 1105,-122.88 1105,-52.16 1009.44,-26.01 949.13,-16.55"/>
<polygon fill="#63b8ff" stroke="#63b8ff" points="949.84,-13.12 939.44,-15.14 948.83,-20.05 949.84,-13.12"/>
</a>
</g>
</g>
<!-- Node2&#45;&gt;Node4 -->
<g id="edge3_Node000002_Node000004" class="edge">
<title>Node2&#45;&gt;Node4</title>
<g id="a_edge3_Node000002_Node000004"><a xlink:title=" ">
<path fill="none" stroke="#63b8ff" d="M922.96,-511.57C973.26,-503.06 1051.6,-489.22 1119,-474.75 1119.99,-474.54 1120.99,-474.32 1122,-474.09"/>
<polygon fill="#63b8ff" stroke="#63b8ff" points="1122.51,-477.57 1131.45,-471.89 1120.92,-470.75 1122.51,-477.57"/>
</a>
</g>
</g>
<!-- Node5 -->
<g id="Node000005" class="node">
<title>Node5</title>
<g id="a_Node000005"><a xlink:href="GreenF_8h.html" target="_top" xlink:title="Abstract base class for electromagnetic Green&#39;s functions.">
<polygon fill="white" stroke="#666666" points="589.38,-361.25 530.62,-361.25 530.62,-340.5 589.38,-340.5 589.38,-361.25"/>
<text xml:space="preserve" text-anchor="middle" x="560" y="-347.75" font-family="Helvetica,sans-Serif" font-size="10.00">GreenF.h</text>
</a>
</g>
</g>
<!-- Node2&#45;&gt;Node5 -->
<g id="edge4_Node000002_Node000005" class="edge">
<title>Node2&#45;&gt;Node5</title>
<g id="a_edge4_Node000002_Node000005"><a xlink:title=" ">
<path fill="none" stroke="#63b8ff" d="M821.91,-510.27C766.56,-497.11 676.29,-469.27 615,-418 598.41,-404.12 582.99,-384.78 572.72,-370.6"/>
<polygon fill="#63b8ff" stroke="#63b8ff" points="575.7,-368.75 567.08,-362.58 569.97,-372.77 575.7,-368.75"/>
</a>
</g>
</g>
<!-- Node10 -->
<g id="Node000010" class="node">
<title>Node10</title>
<g id="a_Node000010"><a xlink:href="RWGFun_8h.html" target="_top" xlink:title="Header for the RWGFun class.">
<polygon fill="white" stroke="#666666" points="754.12,-247.75 687.88,-247.75 687.88,-227 754.12,-227 754.12,-247.75"/>
<text xml:space="preserve" text-anchor="middle" x="721" y="-234.25" font-family="Helvetica,sans-Serif" font-size="10.00">RWGFun.h</text>
</a>
</g>
</g>
<!-- Node2&#45;&gt;Node10 -->
<g id="edge57_Node000002_Node000010" class="edge">
<title>Node2&#45;&gt;Node10</title>
<g id="a_edge57_Node000002_Node000010"><a xlink:title=" ">
<path fill="none" stroke="#63b8ff" d="M866.38,-510.53C850.71,-478.16 797.88,-370.18 749,-283.75 744.06,-275.01 738.28,-265.53 733.26,-257.51"/>
<polygon fill="#63b8ff" stroke="#63b8ff" points="736.34,-255.84 728.04,-249.26 730.43,-259.58 736.34,-255.84"/>
</a>
</g>
</g>
<!-- Node18 -->
<g id="Node000018" class="node">
<title>Node18</title>
<g id="a_Node000018"><a xlink:href="globals_8h.html" target="_top" xlink:title="Global numerical constants, fundamental types, and simple macros.">
<polygon fill="white" stroke="#666666" points="305.12,-77.5 244.88,-77.5 244.88,-56.75 305.12,-56.75 305.12,-77.5"/>
<text xml:space="preserve" text-anchor="middle" x="275" y="-64" font-family="Helvetica,sans-Serif" font-size="10.00">globals.h</text>
</a>
</g>
</g>
<!-- Node2&#45;&gt;Node18 -->
<g id="edge65_Node000002_Node000018" class="edge">
<title>Node2&#45;&gt;Node18</title>
<g id="a_edge65_Node000002_Node000018"><a xlink:title=" ">
<path fill="none" stroke="#63b8ff" d="M819.12,-518.98C631.61,-514.15 0,-491.71 0,-408.62 0,-408.62 0,-408.62 0,-179.62 0,-142.78 18.81,-133.11 50,-113.5 106.45,-78.02 185.23,-69.53 233.03,-67.91"/>
<polygon fill="#63b8ff" stroke="#63b8ff" points="233.06,-71.41 242.97,-67.67 232.89,-64.42 233.06,-71.41"/>
</a>
</g>
</g>
<!-- Node26 -->
<g id="Node000026" class="node">
<title>Node26</title>
<g id="a_Node000026"><a xlink:href="IncidentField_8h.html" target="_top" xlink:title="Abstract interface for incident electromagnetic excitations.">
<polygon fill="white" stroke="#666666" points="747.62,-418 660.38,-418 660.38,-397.25 747.62,-397.25 747.62,-418"/>
<text xml:space="preserve" text-anchor="middle" x="704" y="-404.5" font-family="Helvetica,sans-Serif" font-size="10.00">IncidentField.h</text>
</a>
</g>
</g>
<!-- Node2&#45;&gt;Node26 -->
<g id="edge46_Node000002_Node000026" class="edge">
<title>Node2&#45;&gt;Node26</title>
<g id="a_edge46_Node000002_Node000026"><a xlink:title=" ">
<path fill="none" stroke="#63b8ff" d="M819.2,-512.96C791.48,-506.83 758.34,-495.52 735,-474.75 721.53,-462.77 713.46,-443.69 708.95,-429.11"/>
<polygon fill="#63b8ff" stroke="#63b8ff" points="712.37,-428.34 706.35,-419.62 705.62,-430.19 712.37,-428.34"/>
</a>
</g>
</g>
<!-- Node31 -->
<g id="Node000031" class="node">
<title>Node31</title>
<g id="a_Node000031"><a xlink:href="SIEForm_8h.html" target="_top" xlink:title="Header for the SIEForm class.">
<polygon fill="white" stroke="#666666" points="808.38,-474.75 743.62,-474.75 743.62,-454 808.38,-454 808.38,-474.75"/>
<text xml:space="preserve" text-anchor="middle" x="776" y="-461.25" font-family="Helvetica,sans-Serif" font-size="10.00">SIEForm.h</text>
</a>
</g>
</g>
<!-- Node2&#45;&gt;Node31 -->
<g id="edge58_Node000002_Node000031" class="edge">
<title>Node2&#45;&gt;Node31</title>
<g id="a_edge58_Node000002_Node000031"><a xlink:title=" ">
<path fill="none" stroke="#63b8ff" d="M854.02,-510.34C839.7,-502.08 818.96,-490.13 802.46,-480.63"/>
<polygon fill="#63b8ff" stroke="#63b8ff" points="804.56,-477.8 794.15,-475.83 801.06,-483.86 804.56,-477.8"/>
</a>
</g>
</g>
<!-- Node5&#45;&gt;Node3 -->
<g id="edge5_Node000005_Node000003" class="edge">
<title>Node5&#45;&gt;Node3</title>
<g id="a_edge5_Node000005_Node000003"><a xlink:title=" ">
<path fill="none" stroke="#63b8ff" d="M589.82,-344.99C636.47,-335.56 725.24,-309.98 763,-247.75 785.04,-211.43 729.81,-90.96 755,-56.75 777.25,-26.54 819.43,-15.86 852.76,-12.35"/>
<polygon fill="#63b8ff" stroke="#63b8ff" points="852.95,-15.84 862.62,-11.51 852.36,-8.87 852.95,-15.84"/>
</a>
</g>
</g>
<!-- Node6 -->
<g id="Node000006" class="node">
<title>Node6</title>
<g id="a_Node000006"><a xlink:title=" ">
<polygon fill="#e0e0e0" stroke="#999999" points="264.38,-247.75 217.62,-247.75 217.62,-227 264.38,-227 264.38,-247.75"/>
<text xml:space="preserve" text-anchor="middle" x="241" y="-234.25" font-family="Helvetica,sans-Serif" font-size="10.00">cmath</text>
</a>
</g>
</g>
<!-- Node5&#45;&gt;Node6 -->
<g id="edge6_Node000005_Node000006" class="edge">
<title>Node5&#45;&gt;Node6</title>
<g id="a_edge6_Node000005_Node000006"><a xlink:title=" ">
<path fill="none" stroke="#63b8ff" d="M530.14,-348.35C484.66,-345.1 396.16,-335.06 328,-304.5 301.42,-292.58 275.42,-271.17 258.87,-255.94"/>
<polygon fill="#63b8ff" stroke="#63b8ff" points="261.48,-253.58 251.81,-249.26 256.67,-258.67 261.48,-253.58"/>
</a>
</g>
</g>
<!-- Node7 -->
<g id="Node000007" class="node">
<title>Node7</title>
<g id="a_Node000007"><a xlink:title=" ">
<polygon fill="#e0e0e0" stroke="#999999" points="224.25,-134.25 179.75,-134.25 179.75,-113.5 224.25,-113.5 224.25,-134.25"/>
<text xml:space="preserve" text-anchor="middle" x="202" y="-120.75" font-family="Helvetica,sans-Serif" font-size="10.00">utility</text>
</a>
</g>
</g>
<!-- Node5&#45;&gt;Node7 -->
<g id="edge7_Node000005_Node000007" class="edge">
<title>Node5&#45;&gt;Node7</title>
<g id="a_edge7_Node000005_Node000007"><a xlink:title=" ">
<path fill="none" stroke="#63b8ff" d="M530.47,-349.14C479.54,-346.97 372.69,-338.38 290,-304.5 249.32,-287.84 230.39,-286.15 209,-247.75 191.21,-215.81 194.07,-171.68 197.93,-145.92"/>
<polygon fill="#63b8ff" stroke="#63b8ff" points="201.38,-146.52 199.62,-136.07 194.48,-145.34 201.38,-146.52"/>
</a>
</g>
</g>
<!-- Node8 -->
<g id="Node000008" class="node">
<title>Node8</title>
<g id="a_Node000008"><a xlink:href="GaussQuad_8h.html" target="_top" xlink:title="Gaussian quadrature helpers for Green&#39;s functions and incident fields.">
<polygon fill="white" stroke="#666666" points="417.25,-304.5 336.75,-304.5 336.75,-283.75 417.25,-283.75 417.25,-304.5"/>
<text xml:space="preserve" text-anchor="middle" x="377" y="-291" font-family="Helvetica,sans-Serif" font-size="10.00">GaussQuad.h</text>
</a>
</g>
</g>
<!-- Node5&#45;&gt;Node8 -->
<g id="edge8_Node000005_Node000008" class="edge">
<title>Node5&#45;&gt;Node8</title>
<g id="a_edge8_Node000005_Node000008"><a xlink:title=" ">
<path fill="none" stroke="#63b8ff" d="M530.19,-340.96C500.53,-332.08 454.67,-318.36 420.86,-308.25"/>
<polygon fill="#63b8ff" stroke="#63b8ff" points="421.92,-304.91 411.34,-305.4 419.92,-311.62 421.92,-304.91"/>
</a>
</g>
</g>
<!-- Node5&#45;&gt;Node10 -->
<g id="edge38_Node000005_Node000010" class="edge">
<title>Node5&#45;&gt;Node10</title>
<g id="a_edge38_Node000005_Node000010"><a xlink:title=" ">
<path fill="none" stroke="#63b8ff" d="M574.01,-340.18C601.72,-320.98 663.8,-277.99 697.74,-254.48"/>
<polygon fill="#63b8ff" stroke="#63b8ff" points="699.44,-257.56 705.67,-248.99 695.45,-251.81 699.44,-257.56"/>
</a>
</g>
</g>
<!-- Node5&#45;&gt;Node18 -->
<g id="edge44_Node000005_Node000018" class="edge">
<title>Node5&#45;&gt;Node18</title>
<g id="a_edge44_Node000005_Node000018"><a xlink:title=" ">
<path fill="none" stroke="#63b8ff" d="M530.25,-348.69C459.98,-345.41 285.99,-334.42 237,-304.5 159.44,-257.14 113.34,-188.94 164,-113.5 179.38,-90.6 208.58,-79.25 233.17,-73.63"/>
<polygon fill="#63b8ff" stroke="#63b8ff" points="233.84,-77.06 242.95,-71.66 232.46,-70.2 233.84,-77.06"/>
</a>
</g>
</g>
<!-- Node22 -->
<g id="Node000022" class="node">
<title>Node22</title>
<g id="a_Node000022"><a xlink:href="mathFunctions_8h.html" target="_top" xlink:title="Header file of the class that provides auxiliary mathematical functionalities for the SIE solver.">
<polygon fill="white" stroke="#666666" points="453.5,-134.25 356.5,-134.25 356.5,-113.5 453.5,-113.5 453.5,-134.25"/>
<text xml:space="preserve" text-anchor="middle" x="405" y="-120.75" font-family="Helvetica,sans-Serif" font-size="10.00">mathFunctions.h</text>
</a>
</g>
</g>
<!-- Node5&#45;&gt;Node22 -->
<g id="edge45_Node000005_Node000022" class="edge">
<title>Node5&#45;&gt;Node22</title>
<g id="a_edge45_Node000005_Node000022"><a xlink:title=" ">
<path fill="none" stroke="#63b8ff" d="M550.56,-340.06C542.03,-331.05 529.28,-317.21 519,-304.5 475.38,-250.58 434.42,-179.12 415.68,-144.86"/>
<polygon fill="#63b8ff" stroke="#63b8ff" points="418.77,-143.21 410.93,-136.08 412.61,-146.54 418.77,-143.21"/>
</a>
</g>
</g>
<!-- Node25 -->
<g id="Node000025" class="node">
<title>Node25</title>
<g id="a_Node000025"><a xlink:href="SingSub_8h.html" target="_top" xlink:title="Exact subtractions for singular/near&#45;singular triangle integrals.">
<polygon fill="white" stroke="#666666" points="592,-304.5 528,-304.5 528,-283.75 592,-283.75 592,-304.5"/>
<text xml:space="preserve" text-anchor="middle" x="560" y="-291" font-family="Helvetica,sans-Serif" font-size="10.00">SingSub.h</text>
</a>
</g>
</g>
<!-- Node5&#45;&gt;Node25 -->
<g id="edge39_Node000005_Node000025" class="edge">
<title>Node5&#45;&gt;Node25</title>
<g id="a_edge39_Node000005_Node000025"><a xlink:title=" ">
<path fill="none" stroke="#63b8ff" d="M560,-340.09C560,-333.47 560,-324.47 560,-316.27"/>
<polygon fill="#63b8ff" stroke="#63b8ff" points="563.5,-316.34 560,-306.34 556.5,-316.34 563.5,-316.34"/>
</a>
</g>
</g>
<!-- Node8&#45;&gt;Node6 -->
<g id="edge9_Node000008_Node000006" class="edge">
<title>Node8&#45;&gt;Node6</title>
<g id="a_edge9_Node000008_Node000006"><a xlink:title=" ">
<path fill="none" stroke="#63b8ff" d="M352.69,-283.34C331.09,-274.64 299.29,-261.84 275.14,-252.12"/>
<polygon fill="#63b8ff" stroke="#63b8ff" points="276.64,-248.95 266.05,-248.46 274.02,-255.44 276.64,-248.95"/>
</a>
</g>
</g>
<!-- Node9 -->
<g id="Node000009" class="node">
<title>Node9</title>
<g id="a_Node000009"><a xlink:title=" ">
<polygon fill="#e0e0e0" stroke="#999999" points="581.75,-77.5 522.25,-77.5 522.25,-56.75 581.75,-56.75 581.75,-77.5"/>
<text xml:space="preserve" text-anchor="middle" x="552" y="-64" font-family="Helvetica,sans-Serif" font-size="10.00">iostream</text>
</a>
</g>
</g>
<!-- Node8&#45;&gt;Node9 -->
<g id="edge10_Node000008_Node000009" class="edge">
<title>Node8&#45;&gt;Node9</title>
<g id="a_edge10_Node000008_Node000009"><a xlink:title=" ">
<path fill="none" stroke="#63b8ff" d="M402.33,-283.35C439.45,-268.07 509.28,-235.58 556,-191 583.48,-164.78 605.42,-149.03 592,-113.5 587.97,-102.82 580.15,-93.03 572.48,-85.3"/>
<polygon fill="#63b8ff" stroke="#63b8ff" points="575.22,-83.07 565.52,-78.81 570.45,-88.19 575.22,-83.07"/>
</a>
</g>
</g>
<!-- Node8&#45;&gt;Node10 -->
<g id="edge11_Node000008_Node000010" class="edge">
<title>Node8&#45;&gt;Node10</title>
<g id="a_edge11_Node000008_Node000010"><a xlink:title=" ">
<path fill="none" stroke="#63b8ff" d="M417.47,-286.68C482.45,-276.34 609.53,-256.12 676.8,-245.41"/>
<polygon fill="#63b8ff" stroke="#63b8ff" points="677.03,-248.92 686.35,-243.89 675.93,-242 677.03,-248.92"/>
</a>
</g>
</g>
<!-- Node8&#45;&gt;Node18 -->
<g id="edge36_Node000008_Node000018" class="edge">
<title>Node8&#45;&gt;Node18</title>
<g id="a_edge36_Node000008_Node000018"><a xlink:title=" ">
<path fill="none" stroke="#63b8ff" d="M360.77,-283.33C315.76,-255.79 191.31,-176.86 171,-134.25 156.59,-104.01 198.7,-86.03 233.59,-76.62"/>
<polygon fill="#63b8ff" stroke="#63b8ff" points="234.27,-80.06 243.11,-74.23 232.56,-73.27 234.27,-80.06"/>
</a>
</g>
</g>
<!-- Node24 -->
<g id="Node000024" class="node">
<title>Node24</title>
<g id="a_Node000024"><a xlink:href="quadrature_8h.html" target="_top" xlink:title="Declarations of Dunavant (triangle) and Gauss–Legendre (1D) quadrature rules.">
<polygon fill="white" stroke="#666666" points="398.12,-247.75 319.88,-247.75 319.88,-227 398.12,-227 398.12,-247.75"/>
<text xml:space="preserve" text-anchor="middle" x="359" y="-234.25" font-family="Helvetica,sans-Serif" font-size="10.00">quadrature.h</text>
</a>
</g>
</g>
<!-- Node8&#45;&gt;Node24 -->
<g id="edge37_Node000008_Node000024" class="edge">
<title>Node8&#45;&gt;Node24</title>
<g id="a_edge37_Node000008_Node000024"><a xlink:title=" ">
<path fill="none" stroke="#63b8ff" d="M373.78,-283.34C371.56,-276.56 368.51,-267.3 365.76,-258.94"/>
<polygon fill="#63b8ff" stroke="#63b8ff" points="369.11,-257.92 362.66,-249.52 362.46,-260.11 369.11,-257.92"/>
</a>
</g>
</g>
<!-- Node11 -->
<g id="Node000011" class="node">
<title>Node11</title>
<g id="a_Node000011"><a xlink:href="SurfaceMesh_8h.html" target="_top" xlink:title="Declaration of the SurfaceMesh class and mesh edge struct.">
<polygon fill="white" stroke="#666666" points="547,-191 459,-191 459,-170.25 547,-170.25 547,-191"/>
<text xml:space="preserve" text-anchor="middle" x="503" y="-177.5" font-family="Helvetica,sans-Serif" font-size="10.00">SurfaceMesh.h</text>
</a>
</g>
</g>
<!-- Node10&#45;&gt;Node11 -->
<g id="edge12_Node000010_Node000011" class="edge">
<title>Node10&#45;&gt;Node11</title>
<g id="a_edge12_Node000010_Node000011"><a xlink:title=" ">
<path fill="none" stroke="#63b8ff" d="M687.42,-227.94C651.61,-218.95 594.5,-204.61 553.32,-194.26"/>
<polygon fill="#63b8ff" stroke="#63b8ff" points="554.17,-190.87 543.62,-191.83 552.47,-197.66 554.17,-190.87"/>
</a>
</g>
</g>
<!-- Node17 -->
<g id="Node000017" class="node">
<title>Node17</title>
<g id="a_Node000017"><a xlink:href="Triangle_8h.html" target="_top" xlink:title="Declaration of the Triangle class (surface element with cached geometry).">
<polygon fill="white" stroke="#666666" points="534.62,-134.25 471.38,-134.25 471.38,-113.5 534.62,-113.5 534.62,-134.25"/>
<text xml:space="preserve" text-anchor="middle" x="503" y="-120.75" font-family="Helvetica,sans-Serif" font-size="10.00">Triangle.h</text>
</a>
</g>
</g>
<!-- Node10&#45;&gt;Node17 -->
<g id="edge34_Node000010_Node000017" class="edge">
<title>Node10&#45;&gt;Node17</title>
<g id="a_edge34_Node000010_Node000017"><a xlink:title=" ">
<path fill="none" stroke="#63b8ff" d="M702.04,-226.68C663.87,-207.15 577.55,-163.01 532.16,-139.79"/>
<polygon fill="#63b8ff" stroke="#63b8ff" points="533.92,-136.76 523.42,-135.32 530.73,-142.99 533.92,-136.76"/>
</a>
</g>
</g>
<!-- Node10&#45;&gt;Node18 -->
<g id="edge35_Node000010_Node000018" class="edge">
<title>Node10&#45;&gt;Node18</title>
<g id="a_edge35_Node000010_Node000018"><a xlink:title=" ">
<path fill="none" stroke="#63b8ff" d="M687.49,-233.29C635.74,-227.97 533.62,-215.22 450,-191 387.48,-172.89 364.26,-176.79 315,-134.25 300.58,-121.79 289.85,-102.81 283.15,-88.37"/>
<polygon fill="#63b8ff" stroke="#63b8ff" points="286.44,-87.15 279.25,-79.36 280.01,-89.93 286.44,-87.15"/>
</a>
</g>
</g>
<!-- Node11&#45;&gt;Node7 -->
<g id="edge14_Node000011_Node000007" class="edge">
<title>Node11&#45;&gt;Node7</title>
<g id="a_edge14_Node000011_Node000007"><a xlink:title=" ">
<path fill="none" stroke="#63b8ff" d="M458.59,-171.55C397.8,-160.49 290.03,-140.89 235.54,-130.98"/>
<polygon fill="#63b8ff" stroke="#63b8ff" points="236.4,-127.57 225.93,-129.23 235.14,-134.46 236.4,-127.57"/>
</a>
</g>
</g>
<!-- Node12 -->
<g id="Node000012" class="node">
<title>Node12</title>
<g id="a_Node000012"><a xlink:title=" ">
<polygon fill="#e0e0e0" stroke="#999999" points="583.5,-134.25 552.5,-134.25 552.5,-113.5 583.5,-113.5 583.5,-134.25"/>
<text xml:space="preserve" text-anchor="middle" x="568" y="-120.75" font-family="Helvetica,sans-Serif" font-size="10.00">set</text>
</a>
</g>
</g>
<!-- Node11&#45;&gt;Node12 -->
<g id="edge13_Node000011_Node000012" class="edge">
<title>Node11&#45;&gt;Node12</title>
<g id="a_edge13_Node000011_Node000012"><a xlink:title=" ">
<path fill="none" stroke="#63b8ff" d="M514.62,-169.84C523.86,-162.05 537.01,-150.97 547.95,-141.76"/>
<polygon fill="#63b8ff" stroke="#63b8ff" points="549.93,-144.67 555.32,-135.55 545.42,-139.32 549.93,-144.67"/>
</a>
</g>
</g>
<!-- Node13 -->
<g id="Node000013" class="node">
<title>Node13</title>
<g id="a_Node000013"><a xlink:title=" ">
<polygon fill="#e0e0e0" stroke="#999999" points="708.38,-77.5 661.62,-77.5 661.62,-56.75 708.38,-56.75 708.38,-77.5"/>
<text xml:space="preserve" text-anchor="middle" x="685" y="-64" font-family="Helvetica,sans-Serif" font-size="10.00">vector</text>
</a>
</g>
</g>
<!-- Node11&#45;&gt;Node13 -->
<g id="edge15_Node000011_Node000013" class="edge">
<title>Node11&#45;&gt;Node13</title>
<g id="a_edge15_Node000011_Node000013"><a xlink:title=" ">
<path fill="none" stroke="#63b8ff" d="M547.36,-176.73C604.16,-171.99 697.81,-160.36 719,-134.25 730.99,-119.48 717.9,-99.79 704.64,-85.75"/>
<polygon fill="#63b8ff" stroke="#63b8ff" points="707.24,-83.41 697.66,-78.89 702.34,-88.4 707.24,-83.41"/>
</a>
</g>
</g>
<!-- Node14 -->
<g id="Node000014" class="node">
<title>Node14</title>
<g id="a_Node000014"><a xlink:href="JobParser_8h.html" target="_top" xlink:title="Lightweight XML&#45;like tag parser for the solver job file.">
<polygon fill="white" stroke="#666666" points="709.62,-134.25 640.38,-134.25 640.38,-113.5 709.62,-113.5 709.62,-134.25"/>
<text xml:space="preserve" text-anchor="middle" x="675" y="-120.75" font-family="Helvetica,sans-Serif" font-size="10.00">JobParser.h</text>
</a>
</g>
</g>
<!-- Node11&#45;&gt;Node14 -->
<g id="edge16_Node000011_Node000014" class="edge">
<title>Node11&#45;&gt;Node14</title>
<g id="a_edge16_Node000011_Node000014"><a xlink:title=" ">
<path fill="none" stroke="#63b8ff" d="M533.75,-169.84C561.55,-160.99 602.7,-147.89 633.42,-138.11"/>
<polygon fill="#63b8ff" stroke="#63b8ff" points="634.32,-141.5 642.78,-135.13 632.19,-134.83 634.32,-141.5"/>
</a>
</g>
</g>
<!-- Node11&#45;&gt;Node17 -->
<g id="edge21_Node000011_Node000017" class="edge">
<title>Node11&#45;&gt;Node17</title>
<g id="a_edge21_Node000011_Node000017"><a xlink:title=" ">
<path fill="none" stroke="#63b8ff" d="M503,-169.84C503,-163.22 503,-154.22 503,-146.02"/>
<polygon fill="#63b8ff" stroke="#63b8ff" points="506.5,-146.09 503,-136.09 499.5,-146.09 506.5,-146.09"/>
</a>
</g>
</g>
<!-- Node11&#45;&gt;Node18 -->
<g id="edge28_Node000011_Node000018" class="edge">
<title>Node11&#45;&gt;Node18</title>
<g id="a_edge28_Node000011_Node000018"><a xlink:title=" ">
<path fill="none" stroke="#63b8ff" d="M458.51,-172.34C426.08,-165.72 381.9,-153.91 347,-134.25 324.71,-121.7 303.71,-101 290.21,-86.11"/>
<polygon fill="#63b8ff" stroke="#63b8ff" points="293.05,-84.04 283.82,-78.84 287.8,-88.67 293.05,-84.04"/>
</a>
</g>
</g>
<!-- Node11&#45;&gt;Node22 -->
<g id="edge29_Node000011_Node000022" class="edge">
<title>Node11&#45;&gt;Node22</title>
<g id="a_edge29_Node000011_Node000022"><a xlink:title=" ">
<path fill="none" stroke="#63b8ff" d="M485.48,-169.84C470.71,-161.58 449.32,-149.63 432.3,-140.13"/>
<polygon fill="#63b8ff" stroke="#63b8ff" points="434.13,-137.14 423.69,-135.32 430.71,-143.25 434.13,-137.14"/>
</a>
</g>
</g>
<!-- Node14&#45;&gt;Node9 -->
<g id="edge18_Node000014_Node000009" class="edge">
<title>Node14&#45;&gt;Node9</title>
<g id="a_edge18_Node000014_Node000009"><a xlink:title=" ">
<path fill="none" stroke="#63b8ff" d="M653.01,-113.09C633.86,-104.56 605.84,-92.09 584.17,-82.44"/>
<polygon fill="#63b8ff" stroke="#63b8ff" points="585.74,-79.31 575.18,-78.44 582.89,-85.71 585.74,-79.31"/>
</a>
</g>
</g>
<!-- Node14&#45;&gt;Node13 -->
<g id="edge20_Node000014_Node000013" class="edge">
<title>Node14&#45;&gt;Node13</title>
<g id="a_edge20_Node000014_Node000013"><a xlink:title=" ">
<path fill="none" stroke="#63b8ff" d="M676.79,-113.09C678.01,-106.39 679.68,-97.26 681.19,-88.98"/>
<polygon fill="#63b8ff" stroke="#63b8ff" points="684.6,-89.78 682.96,-79.32 677.72,-88.53 684.6,-89.78"/>
</a>
</g>
</g>
<!-- Node15 -->
<g id="Node000015" class="node">
<title>Node15</title>
<g id="a_Node000015"><a xlink:title=" ">
<polygon fill="#e0e0e0" stroke="#999999" points="818.12,-77.5 763.88,-77.5 763.88,-56.75 818.12,-56.75 818.12,-77.5"/>
<text xml:space="preserve" text-anchor="middle" x="791" y="-64" font-family="Helvetica,sans-Serif" font-size="10.00">fstream</text>
</a>
</g>
</g>
<!-- Node14&#45;&gt;Node15 -->
<g id="edge17_Node000014_Node000015" class="edge">
<title>Node14&#45;&gt;Node15</title>
<g id="a_edge17_Node000014_Node000015"><a xlink:title=" ">
<path fill="none" stroke="#63b8ff" d="M695.74,-113.09C713.64,-104.64 739.74,-92.32 760.1,-82.71"/>
<polygon fill="#63b8ff" stroke="#63b8ff" points="761.52,-85.91 769.07,-78.47 758.54,-79.58 761.52,-85.91"/>
</a>
</g>
</g>
<!-- Node16 -->
<g id="Node000016" class="node">
<title>Node16</title>
<g id="a_Node000016"><a xlink:title=" ">
<polygon fill="#e0e0e0" stroke="#999999" points="643.88,-77.5 600.12,-77.5 600.12,-56.75 643.88,-56.75 643.88,-77.5"/>
<text xml:space="preserve" text-anchor="middle" x="622" y="-64" font-family="Helvetica,sans-Serif" font-size="10.00">string</text>
</a>
</g>
</g>
<!-- Node14&#45;&gt;Node16 -->
<g id="edge19_Node000014_Node000016" class="edge">
<title>Node14&#45;&gt;Node16</title>
<g id="a_edge19_Node000014_Node000016"><a xlink:title=" ">
<path fill="none" stroke="#63b8ff" d="M665.52,-113.09C658.21,-105.53 647.91,-94.89 639.16,-85.85"/>
<polygon fill="#63b8ff" stroke="#63b8ff" points="641.92,-83.67 632.45,-78.92 636.89,-88.54 641.92,-83.67"/>
</a>
</g>
</g>
<!-- Node17&#45;&gt;Node13 -->
<g id="edge22_Node000017_Node000013" class="edge">
<title>Node17&#45;&gt;Node13</title>
<g id="a_edge22_Node000017_Node000013"><a xlink:title=" ">
<path fill="none" stroke="#63b8ff" d="M535.12,-113.21C567.43,-103.49 617.11,-88.55 650.31,-78.56"/>
<polygon fill="#63b8ff" stroke="#63b8ff" points="651.29,-81.92 659.86,-75.69 649.28,-75.22 651.29,-81.92"/>
</a>
</g>
</g>
<!-- Node17&#45;&gt;Node18 -->
<g id="edge23_Node000017_Node000018" class="edge">
<title>Node17&#45;&gt;Node18</title>
<g id="a_edge23_Node000017_Node000018"><a xlink:title=" ">
<path fill="none" stroke="#63b8ff" d="M471.3,-115.26C430.89,-105.56 360.94,-88.76 316.37,-78.06"/>
<polygon fill="#63b8ff" stroke="#63b8ff" points="317.36,-74.7 306.81,-75.76 315.72,-81.5 317.36,-74.7"/>
</a>
</g>
</g>
<!-- Node18&#45;&gt;Node3 -->
<g id="edge24_Node000018_Node000003" class="edge">
<title>Node18&#45;&gt;Node3</title>
<g id="a_edge24_Node000018_Node000003"><a xlink:title=" ">
<path fill="none" stroke="#63b8ff" d="M305.62,-63.45C406.68,-54.61 730.2,-26.31 853.06,-15.57"/>
<polygon fill="#63b8ff" stroke="#63b8ff" points="853.14,-19.07 862.8,-14.72 852.53,-12.1 853.14,-19.07"/>
</a>
</g>
</g>
<!-- Node19 -->
<g id="Node000019" class="node">
<title>Node19</title>
<g id="a_Node000019"><a xlink:title=" ">
<polygon fill="#e0e0e0" stroke="#999999" points="320.5,-20.75 229.5,-20.75 229.5,0 320.5,0 320.5,-20.75"/>
<text xml:space="preserve" text-anchor="middle" x="275" y="-7.25" font-family="Helvetica,sans-Serif" font-size="10.00">blitz/tinyvec2.h</text>
</a>
</g>
</g>
<!-- Node18&#45;&gt;Node19 -->
<g id="edge25_Node000018_Node000019" class="edge">
<title>Node18&#45;&gt;Node19</title>
<g id="a_edge25_Node000018_Node000019"><a xlink:title=" ">
<path fill="none" stroke="#63b8ff" d="M275,-56.34C275,-49.72 275,-40.72 275,-32.52"/>
<polygon fill="#63b8ff" stroke="#63b8ff" points="278.5,-32.59 275,-22.59 271.5,-32.59 278.5,-32.59"/>
</a>
</g>
</g>
<!-- Node20 -->
<g id="Node000020" class="node">
<title>Node20</title>
<g id="a_Node000020"><a xlink:title=" ">
<polygon fill="#e0e0e0" stroke="#999999" points="211.12,-20.75 114.88,-20.75 114.88,0 211.12,0 211.12,-20.75"/>
<text xml:space="preserve" text-anchor="middle" x="163" y="-7.25" font-family="Helvetica,sans-Serif" font-size="10.00">blitz/tvecglobs.h</text>
</a>
</g>
</g>
<!-- Node18&#45;&gt;Node20 -->
<g id="edge26_Node000018_Node000020" class="edge">
<title>Node18&#45;&gt;Node20</title>
<g id="a_edge26_Node000018_Node000020"><a xlink:title=" ">
<path fill="none" stroke="#63b8ff" d="M254.98,-56.34C237.78,-47.93 212.72,-35.68 193.1,-26.09"/>
<polygon fill="#63b8ff" stroke="#63b8ff" points="194.73,-22.99 184.21,-21.74 191.66,-29.28 194.73,-22.99"/>
</a>
</g>
</g>
<!-- Node21 -->
<g id="Node000021" class="node">
<title>Node21</title>
<g id="a_Node000021"><a xlink:title=" ">
<polygon fill="#e0e0e0" stroke="#999999" points="397,-20.75 339,-20.75 339,0 397,0 397,-20.75"/>
<text xml:space="preserve" text-anchor="middle" x="368" y="-7.25" font-family="Helvetica,sans-Serif" font-size="10.00">complex</text>
</a>
</g>
</g>
<!-- Node18&#45;&gt;Node21 -->
<g id="edge27_Node000018_Node000021" class="edge">
<title>Node18&#45;&gt;Node21</title>
<g id="a_edge27_Node000018_Node000021"><a xlink:title=" ">
<path fill="none" stroke="#63b8ff" d="M291.63,-56.34C305.51,-48.16 325.56,-36.36 341.63,-26.9"/>
<polygon fill="#63b8ff" stroke="#63b8ff" points="343.37,-29.94 350.21,-21.85 339.82,-23.9 343.37,-29.94"/>
</a>
</g>
</g>
<!-- Node22&#45;&gt;Node13 -->
<g id="edge32_Node000022_Node000013" class="edge">
<title>Node22&#45;&gt;Node13</title>
<g id="a_edge32_Node000022_Node000013"><a xlink:title=" ">
<path fill="none" stroke="#63b8ff" d="M453.89,-114.55C510.45,-104.82 601.23,-88.88 650.34,-77.9"/>
<polygon fill="#63b8ff" stroke="#63b8ff" points="650.88,-81.37 659.83,-75.71 649.3,-74.55 650.88,-81.37"/>
</a>
</g>
</g>
<!-- Node22&#45;&gt;Node18 -->
<g id="edge33_Node000022_Node000018" class="edge">
<title>Node22&#45;&gt;Node18</title>
<g id="a_edge33_Node000022_Node000018"><a xlink:title=" ">
<path fill="none" stroke="#63b8ff" d="M381.76,-113.09C361.33,-104.48 331.36,-91.86 308.37,-82.18"/>
<polygon fill="#63b8ff" stroke="#63b8ff" points="310.01,-79.07 299.44,-78.42 307.29,-85.52 310.01,-79.07"/>
</a>
</g>
</g>
<!-- Node22&#45;&gt;Node21 -->
<g id="edge31_Node000022_Node000021" class="edge">
<title>Node22&#45;&gt;Node21</title>
<g id="a_edge31_Node000022_Node000021"><a xlink:title=" ">
<path fill="none" stroke="#63b8ff" d="M400.86,-113.24C397.02,-104.13 391.27,-90.01 387,-77.5 381.86,-62.42 376.92,-45.11 373.36,-31.98"/>
<polygon fill="#63b8ff" stroke="#63b8ff" points="376.75,-31.11 370.81,-22.35 369.99,-32.91 376.75,-31.11"/>
</a>
</g>
</g>
<!-- Node23 -->
<g id="Node000023" class="node">
<title>Node23</title>
<g id="a_Node000023"><a xlink:title=" ">
<polygon fill="#e0e0e0" stroke="#999999" points="446.25,-77.5 395.75,-77.5 395.75,-56.75 446.25,-56.75 446.25,-77.5"/>
<text xml:space="preserve" text-anchor="middle" x="421" y="-64" font-family="Helvetica,sans-Serif" font-size="10.00">math.h</text>
</a>
</g>
</g>
<!-- Node22&#45;&gt;Node23 -->
<g id="edge30_Node000022_Node000023" class="edge">
<title>Node22&#45;&gt;Node23</title>
<g id="a_edge30_Node000022_Node000023"><a xlink:title=" ">
<path fill="none" stroke="#63b8ff" d="M407.86,-113.09C409.84,-106.31 412.55,-97.05 414.99,-88.69"/>
<polygon fill="#63b8ff" stroke="#63b8ff" points="418.29,-89.86 417.74,-79.28 411.58,-87.9 418.29,-89.86"/>
</a>
</g>
</g>
<!-- Node25&#45;&gt;Node10 -->
<g id="edge41_Node000025_Node000010" class="edge">
<title>Node25&#45;&gt;Node10</title>
<g id="a_edge41_Node000025_Node000010"><a xlink:title=" ">
<path fill="none" stroke="#63b8ff" d="M588.78,-283.34C614.57,-274.57 652.65,-261.62 681.32,-251.87"/>
<polygon fill="#63b8ff" stroke="#63b8ff" points="682.42,-255.19 690.76,-248.66 680.17,-248.56 682.42,-255.19"/>
</a>
</g>
</g>
<!-- Node25&#45;&gt;Node13 -->
<g id="edge40_Node000025_Node000013" class="edge">
<title>Node25&#45;&gt;Node13</title>
<g id="a_edge40_Node000025_Node000013"><a xlink:title=" ">
<path fill="none" stroke="#63b8ff" d="M578.68,-283.32C616.72,-262.13 702.35,-207.98 735,-134.25 743.28,-115.55 726.96,-97.23 710.8,-84.64"/>
<polygon fill="#63b8ff" stroke="#63b8ff" points="712.88,-81.82 702.72,-78.81 708.78,-87.5 712.88,-81.82"/>
</a>
</g>
</g>
<!-- Node25&#45;&gt;Node17 -->
<g id="edge42_Node000025_Node000017" class="edge">
<title>Node25&#45;&gt;Node17</title>
<g id="a_edge42_Node000025_Node000017"><a xlink:title=" ">
<path fill="none" stroke="#63b8ff" d="M547.21,-283.42C520.48,-262.81 460.31,-214.65 450,-191 441.61,-171.77 459.01,-153.45 476.08,-140.99"/>
<polygon fill="#63b8ff" stroke="#63b8ff" points="477.79,-144.06 484.1,-135.55 473.86,-138.26 477.79,-144.06"/>
</a>
</g>
</g>
<!-- Node25&#45;&gt;Node18 -->
<g id="edge43_Node000025_Node000018" class="edge">
<title>Node25&#45;&gt;Node18</title>
<g id="a_edge43_Node000025_Node000018"><a xlink:title=" ">
<path fill="none" stroke="#63b8ff" d="M539.32,-283.39C482.62,-256.34 326.72,-179.25 293,-134.25 283.17,-121.13 278.7,-102.97 276.68,-89"/>
<polygon fill="#63b8ff" stroke="#63b8ff" points="280.16,-88.68 275.59,-79.12 273.21,-89.45 280.16,-88.68"/>
</a>
</g>
</g>
<!-- Node26&#45;&gt;Node5 -->
<g id="edge56_Node000026_Node000005" class="edge">
<title>Node26&#45;&gt;Node5</title>
<g id="a_edge56_Node000026_Node000005"><a xlink:title=" ">
<path fill="none" stroke="#63b8ff" d="M678.26,-396.84C655.42,-388.16 621.83,-375.38 596.28,-365.67"/>
<polygon fill="#63b8ff" stroke="#63b8ff" points="597.53,-362.4 586.94,-362.12 595.04,-368.94 597.53,-362.4"/>
</a>
</g>
</g>
<!-- Node26&#45;&gt;Node10 -->
<g id="edge47_Node000026_Node000010" class="edge">
<title>Node26&#45;&gt;Node10</title>
<g id="a_edge47_Node000026_Node000010"><a xlink:title=" ">
<path fill="none" stroke="#63b8ff" d="M704.96,-397.1C707.63,-370.73 715.14,-296.33 718.86,-259.53"/>
<polygon fill="#63b8ff" stroke="#63b8ff" points="722.33,-260.02 719.85,-249.72 715.37,-259.32 722.33,-260.02"/>
</a>
</g>
</g>
<!-- Node26&#45;&gt;Node18 -->
<g id="edge48_Node000026_Node000018" class="edge">
<title>Node26&#45;&gt;Node18</title>
<g id="a_edge48_Node000026_Node000018"><a xlink:title=" ">
<path fill="none" stroke="#63b8ff" d="M660.14,-402.98C523.4,-391.06 114,-350.7 114,-295.12 114,-295.12 114,-295.12 114,-179.62 114,-121.39 186.06,-91.17 233.76,-77.55"/>
<polygon fill="#63b8ff" stroke="#63b8ff" points="234.52,-80.97 243.26,-74.98 232.69,-74.21 234.52,-80.97"/>
</a>
</g>
</g>
<!-- Node27 -->
<g id="Node000027" class="node">
<title>Node27</title>
<g id="a_Node000027"><a xlink:href="LayeredMediaUtils_8h.html" target="_top" xlink:title="This header declares utility structures and algorithms used throughout the layered&#45;media scattering s...">
<polygon fill="white" stroke="#666666" points="996.25,-134.25 879.75,-134.25 879.75,-113.5 996.25,-113.5 996.25,-134.25"/>
<text xml:space="preserve" text-anchor="middle" x="938" y="-120.75" font-family="Helvetica,sans-Serif" font-size="10.00">LayeredMediaUtils.h</text>
</a>
</g>
</g>
<!-- Node26&#45;&gt;Node27 -->
<g id="edge49_Node000026_Node000027" class="edge">
<title>Node26&#45;&gt;Node27</title>
<g id="a_edge49_Node000026_Node000027"><a xlink:title=" ">
<path fill="none" stroke="#63b8ff" d="M712.05,-396.93C746.02,-356.03 877.86,-197.29 922.85,-143.11"/>
<polygon fill="#63b8ff" stroke="#63b8ff" points="925.32,-145.63 929.01,-135.7 919.93,-141.15 925.32,-145.63"/>
</a>
</g>
</g>
<!-- Node27&#45;&gt;Node13 -->
<g id="edge53_Node000027_Node000013" class="edge">
<title>Node27&#45;&gt;Node13</title>
<g id="a_edge53_Node000027_Node000013"><a xlink:title=" ">
<path fill="none" stroke="#63b8ff" d="M892.48,-113.02C842.98,-102.31 764.95,-85.43 720.02,-75.7"/>
<polygon fill="#63b8ff" stroke="#63b8ff" points="720.81,-72.29 710.29,-73.6 719.32,-79.13 720.81,-72.29"/>
</a>
</g>
</g>
<!-- Node27&#45;&gt;Node15 -->
<g id="edge55_Node000027_Node000015" class="edge">
<title>Node27&#45;&gt;Node15</title>
<g id="a_edge55_Node000027_Node000015"><a xlink:title=" ">
<path fill="none" stroke="#63b8ff" d="M911.72,-113.09C888.31,-104.37 853.81,-91.52 827.68,-81.79"/>
<polygon fill="#63b8ff" stroke="#63b8ff" points="829.06,-78.57 818.47,-78.36 826.62,-85.13 829.06,-78.57"/>
</a>
</g>
</g>
<!-- Node27&#45;&gt;Node18 -->
<g id="edge54_Node000027_Node000018" class="edge">
<title>Node27&#45;&gt;Node18</title>
<g id="a_edge54_Node000027_Node000018"><a xlink:title=" ">
<path fill="none" stroke="#63b8ff" d="M879.28,-118.07C778.56,-109.81 566.35,-92.39 387,-77.5 363.81,-75.57 337.92,-73.41 316.88,-71.64"/>
<polygon fill="#63b8ff" stroke="#63b8ff" points="317.19,-68.16 306.93,-70.81 316.6,-75.13 317.19,-68.16"/>
</a>
</g>
</g>
<!-- Node28 -->
<g id="Node000028" class="node">
<title>Node28</title>
<g id="a_Node000028"><a xlink:title=" ">
<polygon fill="#e0e0e0" stroke="#999999" points="956.88,-77.5 919.12,-77.5 919.12,-56.75 956.88,-56.75 956.88,-77.5"/>
<text xml:space="preserve" text-anchor="middle" x="938" y="-64" font-family="Helvetica,sans-Serif" font-size="10.00">map</text>
</a>
</g>
</g>
<!-- Node27&#45;&gt;Node28 -->
<g id="edge50_Node000027_Node000028" class="edge">
<title>Node27&#45;&gt;Node28</title>
<g id="a_edge50_Node000027_Node000028"><a xlink:title=" ">
<path fill="none" stroke="#63b8ff" d="M938,-113.09C938,-106.47 938,-97.47 938,-89.27"/>
<polygon fill="#63b8ff" stroke="#63b8ff" points="941.5,-89.34 938,-79.34 934.5,-89.34 941.5,-89.34"/>
</a>
</g>
</g>
<!-- Node29 -->
<g id="Node000029" class="node">
<title>Node29</title>
<g id="a_Node000029"><a xlink:title=" ">
<polygon fill="#e0e0e0" stroke="#999999" points="1039,-77.5 975,-77.5 975,-56.75 1039,-56.75 1039,-77.5"/>
<text xml:space="preserve" text-anchor="middle" x="1007" y="-64" font-family="Helvetica,sans-Serif" font-size="10.00">stdexcept</text>
</a>
</g>
</g>
<!-- Node27&#45;&gt;Node29 -->
<g id="edge51_Node000027_Node000029" class="edge">
<title>Node27&#45;&gt;Node29</title>
<g id="a_edge51_Node000027_Node000029"><a xlink:title=" ">
<path fill="none" stroke="#63b8ff" d="M950.34,-113.09C960.25,-105.22 974.39,-94 986.06,-84.74"/>
<polygon fill="#63b8ff" stroke="#63b8ff" points="987.93,-87.73 993.59,-78.77 983.58,-82.24 987.93,-87.73"/>
</a>
</g>
</g>
<!-- Node30 -->
<g id="Node000030" class="node">
<title>Node30</title>
<g id="a_Node000030"><a xlink:title=" ">
<polygon fill="#e0e0e0" stroke="#999999" points="901.38,-77.5 836.62,-77.5 836.62,-56.75 901.38,-56.75 901.38,-77.5"/>
<text xml:space="preserve" text-anchor="middle" x="869" y="-64" font-family="Helvetica,sans-Serif" font-size="10.00">functional</text>
</a>
</g>
</g>
<!-- Node27&#45;&gt;Node30 -->
<g id="edge52_Node000027_Node000030" class="edge">
<title>Node27&#45;&gt;Node30</title>
<g id="a_edge52_Node000027_Node000030"><a xlink:title=" ">
<path fill="none" stroke="#63b8ff" d="M925.66,-113.09C915.75,-105.22 901.61,-94 889.94,-84.74"/>
<polygon fill="#63b8ff" stroke="#63b8ff" points="892.42,-82.24 882.41,-78.77 888.07,-87.73 892.42,-82.24"/>
</a>
</g>
</g>
<!-- Node31&#45;&gt;Node3 -->
<g id="edge59_Node000031_Node000003" class="edge">
<title>Node31&#45;&gt;Node3</title>
<g id="a_edge59_Node000031_Node000003"><a xlink:title=" ">
<path fill="none" stroke="#63b8ff" d="M786.5,-453.67C829.58,-413.02 993.14,-250.56 1048,-77.5 1061.94,-33.54 997.02,-18.78 948.99,-13.84"/>
<polygon fill="#63b8ff" stroke="#63b8ff" points="949.6,-10.38 939.32,-12.96 948.97,-17.35 949.6,-10.38"/>
</a>
</g>
</g>
<!-- Node31&#45;&gt;Node5 -->
<g id="edge62_Node000031_Node000005" class="edge">
<title>Node31&#45;&gt;Node5</title>
<g id="a_edge62_Node000031_Node000005"><a xlink:title=" ">
<path fill="none" stroke="#63b8ff" d="M743.35,-454.28C717.49,-446.43 680.87,-433.87 651,-418 624.81,-404.09 597.66,-383.41 579.92,-368.89"/>
<polygon fill="#63b8ff" stroke="#63b8ff" points="582.18,-366.22 572.25,-362.51 577.7,-371.6 582.18,-366.22"/>
</a>
</g>
</g>
<!-- Node31&#45;&gt;Node10 -->
<g id="edge64_Node000031_Node000010" class="edge">
<title>Node31&#45;&gt;Node10</title>
<g id="a_edge64_Node000031_Node000010"><a xlink:title=" ">
<path fill="none" stroke="#63b8ff" d="M773.64,-453.71C765.35,-419.81 737.5,-305.87 726.02,-258.89"/>
<polygon fill="#63b8ff" stroke="#63b8ff" points="729.49,-258.36 723.71,-249.48 722.69,-260.02 729.49,-258.36"/>
</a>
</g>
</g>
<!-- Node31&#45;&gt;Node13 -->
<g id="edge61_Node000031_Node000013" class="edge">
<title>Node31&#45;&gt;Node13</title>
<g id="a_edge61_Node000031_Node000013"><a xlink:title=" ">
<path fill="none" stroke="#63b8ff" d="M778.22,-453.54C787.52,-409.87 819.72,-230.42 750,-113.5 742.46,-100.85 729.86,-90.84 717.75,-83.49"/>
<polygon fill="#63b8ff" stroke="#63b8ff" points="719.57,-80.5 709.14,-78.67 716.16,-86.6 719.57,-80.5"/>
</a>
</g>
</g>
<!-- Node31&#45;&gt;Node18 -->
<g id="edge60_Node000031_Node000018" class="edge">
<title>Node31&#45;&gt;Node18</title>
<g id="a_edge60_Node000031_Node000018"><a xlink:title=" ">
<path fill="none" stroke="#63b8ff" d="M743.34,-461.94C600.51,-455.24 38,-424.28 38,-351.88 38,-351.88 38,-351.88 38,-179.62 38,-94.3 165.33,-74.15 233.33,-69.48"/>
<polygon fill="#63b8ff" stroke="#63b8ff" points="233.22,-72.99 242.99,-68.9 232.8,-66 233.22,-72.99"/>
</a>
</g>
</g>
<!-- Node31&#45;&gt;Node26 -->
<g id="edge63_Node000031_Node000026" class="edge">
<title>Node31&#45;&gt;Node26</title>
<g id="a_edge63_Node000031_Node000026"><a xlink:title=" ">
<path fill="none" stroke="#63b8ff" d="M763.13,-453.59C752.79,-445.72 738.03,-434.5 725.85,-425.24"/>
<polygon fill="#63b8ff" stroke="#63b8ff" points="728.04,-422.51 717.97,-419.24 723.81,-428.08 728.04,-422.51"/>
</a>
</g>
</g>
</g>
</svg>

<g id="navigator" transform="translate(0 0)" fill="#404254">
  <rect fill="#f2f5e9" fill-opacity="0.5" stroke="#606060" stroke-width=".5" x="0" y="0" width="60" height="60"/>
  <use id="zoomplus" xlink:href="#zoomPlus" x="17" y="9" onmousedown="handleZoom(evt,'in')"/>
  <use id="zoomminus" xlink:href="#zoomMin" x="42" y="9" onmousedown="handleZoom(evt,'out')"/>
  <use id="reset" xlink:href="#resetDef" x="30" y="36" onmousedown="handleReset()"/>
   <use id="arrowup" xlink:href="#arrowUp" x="0" y="0" onmousedown="handlePan(0,-1)"/>
  <use id="arrowright" xlink:href="#arrowRight" x="0" y="0" onmousedown="handlePan(1,0)"/>
  <use id="arrowdown" xlink:href="#arrowDown" x="0" y="0" onmousedown="handlePan(0,1)"/>
  <use id="arrowleft" xlink:href="#arrowLeft" x="0" y="0" onmousedown="handlePan(-1,0)"/>
</g>
<svg viewBox="0 0 15 15" width="100%" height="30px" preserveAspectRatio="xMaxYMin meet">
 <g id="arrow_out" transform="scale(0.3 0.3)">
  <a xlink:href="SIEFormPMCHW_8cpp__incl_org.svg" target="_base">
   <rect id="button" ry="5" rx="5" y="6" x="6" height="38" width="38"
        fill="#f2f5e9" fill-opacity="0.5" stroke="#606060" stroke-width="1.0"/>
   <path id="arrow"
     d="M 11.500037,31.436501 C 11.940474,20.09759 22.043105,11.32322 32.158766,21.979434 L 37.068811,17.246167 C 37.068811,17.246167 37.088388,32 37.088388,32 L 22.160133,31.978069 C 22.160133,31.978069 26.997745,27.140456 26.997745,27.140456 C 18.528582,18.264221 13.291696,25.230495 11.500037,31.436501 z"
     style="fill:#404040;"/>
  </a>
 </g>
</svg>

<style type='text/css'>
<![CDATA[
[data-mouse-over-selected='false'] { opacity: 0.7; }
[data-mouse-over-selected='true']  { opacity: 1.0; }
]]>
</style>
<script type="application/ecmascript"><![CDATA[
document.addEventListener('DOMContentLoaded', (event) => {
  highlightEdges();
  highlightAdjacentNodes();
});
]]></script>
</svg>
