<?xml version="1.0" encoding="UTF-8" standalone="no"?>
<!DOCTYPE svg PUBLIC "-//W3C//DTD SVG 1.1//EN"
 "http://www.w3.org/Graphics/SVG/1.1/DTD/svg11.dtd">
<!-- Generated by graphviz version 13.1.2 (20250809.0930)
 -->
<!-- Title: SimJob.h Pages: 1 -->
<svg width="1388pt" height="596pt"
 viewBox="0.00 0.00 1388.00 596.00" xmlns="http://www.w3.org/2000/svg" xmlns:xlink="http://www.w3.org/1999/xlink">
<g id="graph0" class="graph" transform="scale(1 1) rotate(0) translate(4 592.25)">
<title>SimJob.h</title>
<!-- Node1 -->
<g id="Node000001" class="node">
<title>Node1</title>
<g id="a_Node000001"><a xlink:title="Orchestrates a full simulation run: parse job/subjobs, build the linear system, solve it,...">
<polygon fill="#999999" stroke="#666666" points="260.38,-588.25 201.62,-588.25 201.62,-567.5 260.38,-567.5 260.38,-588.25"/>
<text xml:space="preserve" text-anchor="middle" x="231" y="-574.75" font-family="Helvetica,sans-Serif" font-size="10.00">SimJob.h</text>
</a>
</g>
</g>
<!-- Node2 -->
<g id="Node000002" class="node">
<title>Node2</title>
<g id="a_Node000002"><a xlink:title=" ">
<polygon fill="#e0e0e0" stroke="#999999" points="174.5,-20.75 101.5,-20.75 101.5,0 174.5,0 174.5,-20.75"/>
<text xml:space="preserve" text-anchor="middle" x="138" y="-7.25" font-family="Helvetica,sans-Serif" font-size="10.00">blitz/array.h</text>
</a>
</g>
</g>
<!-- Node1&#45;&gt;Node2 -->
<g id="edge1_Node000001_Node000002" class="edge">
<title>Node1&#45;&gt;Node2</title>
<g id="a_edge1_Node000001_Node000002"><a xlink:title=" ">
<path fill="none" stroke="#63b8ff" d="M201.27,-575.91C138.88,-572.12 0,-553.77 0,-465.38 0,-465.38 0,-465.38 0,-122.88 0,-73.08 55.04,-41.71 95.6,-25.35"/>
<polygon fill="#63b8ff" stroke="#63b8ff" points="96.85,-28.62 104.93,-21.77 94.34,-22.09 96.85,-28.62"/>
</a>
</g>
</g>
<!-- Node3 -->
<g id="Node000003" class="node">
<title>Node3</title>
<g id="a_Node000003"><a xlink:title=" ">
<polygon fill="#e0e0e0" stroke="#999999" points="903.75,-531.5 856.25,-531.5 856.25,-510.75 903.75,-510.75 903.75,-531.5"/>
<text xml:space="preserve" text-anchor="middle" x="880" y="-518" font-family="Helvetica,sans-Serif" font-size="10.00">mutex</text>
</a>
</g>
</g>
<!-- Node1&#45;&gt;Node3 -->
<g id="edge2_Node000001_Node000003" class="edge">
<title>Node1&#45;&gt;Node3</title>
<g id="a_edge2_Node000001_Node000003"><a xlink:title=" ">
<path fill="none" stroke="#63b8ff" d="M260.82,-576.91C349.01,-576.53 616.2,-572.04 844.82,-531.75"/>
<polygon fill="#63b8ff" stroke="#63b8ff" points="845.3,-535.22 854.53,-530.01 844.07,-528.33 845.3,-535.22"/>
</a>
</g>
</g>
<!-- Node4 -->
<g id="Node000004" class="node">
<title>Node4</title>
<g id="a_Node000004"><a xlink:title=" ">
<polygon fill="#e0e0e0" stroke="#999999" points="109.88,-77.5 66.12,-77.5 66.12,-56.75 109.88,-56.75 109.88,-77.5"/>
<text xml:space="preserve" text-anchor="middle" x="88" y="-64" font-family="Helvetica,sans-Serif" font-size="10.00">string</text>
</a>
</g>
</g>
<!-- Node1&#45;&gt;Node4 -->
<g id="edge3_Node000001_Node000004" class="edge">
<title>Node1&#45;&gt;Node4</title>
<g id="a_edge3_Node000001_Node000004"><a xlink:title=" ">
<path fill="none" stroke="#63b8ff" d="M201.18,-567.83C160.34,-553.38 92,-520.91 92,-465.38 92,-465.38 92,-465.38 92,-179.62 92,-148.21 90.39,-111.85 89.22,-89.42"/>
<polygon fill="#63b8ff" stroke="#63b8ff" points="92.72,-89.27 88.67,-79.48 85.73,-89.65 92.72,-89.27"/>
</a>
</g>
</g>
<!-- Node5 -->
<g id="Node000005" class="node">
<title>Node5</title>
<g id="a_Node000005"><a xlink:title=" ">
<polygon fill="#e0e0e0" stroke="#999999" points="620.38,-77.5 573.62,-77.5 573.62,-56.75 620.38,-56.75 620.38,-77.5"/>
<text xml:space="preserve" text-anchor="middle" x="597" y="-64" font-family="Helvetica,sans-Serif" font-size="10.00">vector</text>
</a>
</g>
</g>
<!-- Node1&#45;&gt;Node5 -->
<g id="edge4_Node000001_Node000005" class="edge">
<title>Node1&#45;&gt;Node5</title>
<g id="a_edge4_Node000001_Node000005"><a xlink:title=" ">
<path fill="none" stroke="#63b8ff" d="M231,-567.03C231,-547.6 231,-502.93 231,-465.38 231,-465.38 231,-465.38 231,-349.88 231,-265.1 480.65,-128.17 567.58,-83.06"/>
<polygon fill="#63b8ff" stroke="#63b8ff" points="568.95,-86.29 576.24,-78.6 565.74,-80.07 568.95,-86.29"/>
</a>
</g>
</g>
<!-- Node6 -->
<g id="Node000006" class="node">
<title>Node6</title>
<g id="a_Node000006"><a xlink:href="Domain_8h.html" target="_top" xlink:title="Abstract simulation domain class for SIE scattering.">
<polygon fill="white" stroke="#666666" points="838.62,-531.5 775.38,-531.5 775.38,-510.75 838.62,-510.75 838.62,-531.5"/>
<text xml:space="preserve" text-anchor="middle" x="807" y="-518" font-family="Helvetica,sans-Serif" font-size="10.00">Domain.h</text>
</a>
</g>
</g>
<!-- Node1&#45;&gt;Node6 -->
<g id="edge5_Node000001_Node000006" class="edge">
<title>Node1&#45;&gt;Node6</title>
<g id="a_edge5_Node000001_Node000006"><a xlink:title=" ">
<path fill="none" stroke="#63b8ff" d="M260.76,-574.05C355.76,-565.02 652.12,-536.85 763.82,-526.23"/>
<polygon fill="#63b8ff" stroke="#63b8ff" points="763.84,-529.74 773.46,-525.31 763.17,-522.78 763.84,-529.74"/>
</a>
</g>
</g>
<!-- Node23 -->
<g id="Node000023" class="node">
<title>Node23</title>
<g id="a_Node000023"><a xlink:href="JobParser_8h.html" target="_top" xlink:title="Lightweight XML&#45;like tag parser for the solver job file.">
<polygon fill="white" stroke="#666666" points="273.62,-134.25 204.38,-134.25 204.38,-113.5 273.62,-113.5 273.62,-134.25"/>
<text xml:space="preserve" text-anchor="middle" x="239" y="-120.75" font-family="Helvetica,sans-Serif" font-size="10.00">JobParser.h</text>
</a>
</g>
</g>
<!-- Node1&#45;&gt;Node23 -->
<g id="edge77_Node000001_Node000023" class="edge">
<title>Node1&#45;&gt;Node23</title>
<g id="a_edge77_Node000001_Node000023"><a xlink:title=" ">
<path fill="none" stroke="#63b8ff" d="M225.23,-567.11C214.6,-548.18 193,-504.85 193,-465.38 193,-465.38 193,-465.38 193,-236.38 193,-201.8 212.13,-165.45 225.72,-143.99"/>
<polygon fill="#63b8ff" stroke="#63b8ff" points="228.58,-146 231.18,-135.73 222.74,-142.14 228.58,-146"/>
</a>
</g>
</g>
<!-- Node33 -->
<g id="Node000033" class="node">
<title>Node33</title>
<g id="a_Node000033"><a xlink:href="SIEForm_8h.html" target="_top" xlink:title="Header for the SIEForm class.">
<polygon fill="white" stroke="#666666" points="809.38,-474.75 744.62,-474.75 744.62,-454 809.38,-454 809.38,-474.75"/>
<text xml:space="preserve" text-anchor="middle" x="777" y="-461.25" font-family="Helvetica,sans-Serif" font-size="10.00">SIEForm.h</text>
</a>
</g>
</g>
<!-- Node1&#45;&gt;Node33 -->
<g id="edge78_Node000001_Node000033" class="edge">
<title>Node1&#45;&gt;Node33</title>
<g id="a_edge78_Node000001_Node000033"><a xlink:title=" ">
<path fill="none" stroke="#63b8ff" d="M260.74,-570.8C351.57,-552.25 625.63,-496.29 733.09,-474.34"/>
<polygon fill="#63b8ff" stroke="#63b8ff" points="733.58,-477.81 742.68,-472.38 732.18,-470.96 733.58,-477.81"/>
</a>
</g>
</g>
<!-- Node6&#45;&gt;Node2 -->
<g id="edge6_Node000006_Node000002" class="edge">
<title>Node6&#45;&gt;Node2</title>
<g id="a_edge6_Node000006_Node000002"><a xlink:title=" ">
<path fill="none" stroke="#63b8ff" d="M774.96,-520.36C659.14,-520.35 269,-512.6 269,-408.62 269,-408.62 269,-408.62 269,-349.88 269,-196.47 106.81,-222.59 57,-77.5 54.01,-68.78 52.34,-64.71 57,-56.75 65.2,-42.76 79.46,-32.76 93.75,-25.77"/>
<polygon fill="#63b8ff" stroke="#63b8ff" points="94.97,-29.06 102.69,-21.82 92.13,-22.66 94.97,-29.06"/>
</a>
</g>
</g>
<!-- Node7 -->
<g id="Node000007" class="node">
<title>Node7</title>
<g id="a_Node000007"><a xlink:title=" ">
<polygon fill="#e0e0e0" stroke="#999999" points="220.12,-77.5 165.88,-77.5 165.88,-56.75 220.12,-56.75 220.12,-77.5"/>
<text xml:space="preserve" text-anchor="middle" x="193" y="-64" font-family="Helvetica,sans-Serif" font-size="10.00">fstream</text>
</a>
</g>
</g>
<!-- Node6&#45;&gt;Node7 -->
<g id="edge7_Node000006_Node000007" class="edge">
<title>Node6&#45;&gt;Node7</title>
<g id="a_edge7_Node000006_Node000007"><a xlink:title=" ">
<path fill="none" stroke="#63b8ff" d="M774.88,-519.27C670.11,-515.64 345,-497.22 345,-408.62 345,-408.62 345,-408.62 345,-349.88 345,-259.56 310.82,-237.01 250,-170.25 230.33,-148.65 209.28,-159.74 195,-134.25 187.35,-120.6 187.28,-102.74 188.88,-89.02"/>
<polygon fill="#63b8ff" stroke="#63b8ff" points="192.31,-89.75 190.42,-79.33 185.4,-88.66 192.31,-89.75"/>
</a>
</g>
</g>
<!-- Node8 -->
<g id="Node000008" class="node">
<title>Node8</title>
<g id="a_Node000008"><a xlink:href="Bsp3D_8h.html" target="_top" xlink:title="3D Binary Space Partitioning (BSP) utilities for triangle meshes.">
<polygon fill="white" stroke="#666666" points="1324.25,-191 1267.75,-191 1267.75,-170.25 1324.25,-170.25 1324.25,-191"/>
<text xml:space="preserve" text-anchor="middle" x="1296" y="-177.5" font-family="Helvetica,sans-Serif" font-size="10.00">Bsp3D.h</text>
</a>
</g>
</g>
<!-- Node6&#45;&gt;Node8 -->
<g id="edge8_Node000006_Node000008" class="edge">
<title>Node6&#45;&gt;Node8</title>
<g id="a_edge8_Node000006_Node000008"><a xlink:title=" ">
<path fill="none" stroke="#63b8ff" d="M838.8,-512.25C841.56,-511.69 844.32,-511.18 847,-510.75 934.01,-496.66 1166.04,-519.47 1242,-474.75 1272.63,-456.72 1287,-444.17 1287,-408.62 1287,-408.62 1287,-408.62 1287,-293.12 1287,-261.48 1290.65,-224.95 1293.3,-202.57"/>
<polygon fill="#63b8ff" stroke="#63b8ff" points="1296.73,-203.3 1294.49,-192.95 1289.79,-202.44 1296.73,-203.3"/>
</a>
</g>
</g>
<!-- Node10 -->
<g id="Node000010" class="node">
<title>Node10</title>
<g id="a_Node000010"><a xlink:href="Triangle_8h.html" target="_top" xlink:title="Declaration of the Triangle class (surface element with cached geometry).">
<polygon fill="white" stroke="#666666" points="1097.62,-134.25 1034.38,-134.25 1034.38,-113.5 1097.62,-113.5 1097.62,-134.25"/>
<text xml:space="preserve" text-anchor="middle" x="1066" y="-120.75" font-family="Helvetica,sans-Serif" font-size="10.00">Triangle.h</text>
</a>
</g>
</g>
<!-- Node6&#45;&gt;Node10 -->
<g id="edge75_Node000006_Node000010" class="edge">
<title>Node6&#45;&gt;Node10</title>
<g id="a_edge75_Node000006_Node000010"><a xlink:title=" ">
<path fill="none" stroke="#63b8ff" d="M838.86,-512.56C841.61,-511.94 844.35,-511.33 847,-510.75 932.66,-492.15 1228,-496.28 1228,-408.62 1228,-408.62 1228,-408.62 1228,-349.88 1228,-256.15 1134.28,-174.84 1089.41,-141.27"/>
<polygon fill="#63b8ff" stroke="#63b8ff" points="1091.74,-138.64 1081.6,-135.56 1087.61,-144.29 1091.74,-138.64"/>
</a>
</g>
</g>
<!-- Node11 -->
<g id="Node000011" class="node">
<title>Node11</title>
<g id="a_Node000011"><a xlink:href="globals_8h.html" target="_top" xlink:title="Global numerical constants, fundamental types, and simple macros.">
<polygon fill="white" stroke="#666666" points="1066.12,-77.5 1005.88,-77.5 1005.88,-56.75 1066.12,-56.75 1066.12,-77.5"/>
<text xml:space="preserve" text-anchor="middle" x="1036" y="-64" font-family="Helvetica,sans-Serif" font-size="10.00">globals.h</text>
</a>
</g>
</g>
<!-- Node6&#45;&gt;Node11 -->
<g id="edge76_Node000006_Node000011" class="edge">
<title>Node6&#45;&gt;Node11</title>
<g id="a_edge76_Node000006_Node000011"><a xlink:title=" ">
<path fill="none" stroke="#63b8ff" d="M838.79,-512.23C841.56,-511.68 844.32,-511.18 847,-510.75 1033.34,-481.14 1090.49,-532.86 1270,-474.75 1324.27,-457.18 1380,-465.67 1380,-408.62 1380,-408.62 1380,-408.62 1380,-179.62 1380,-145.28 1368.59,-132.54 1340,-113.5 1297.82,-85.41 1150.9,-74.03 1077.87,-70.02"/>
<polygon fill="#63b8ff" stroke="#63b8ff" points="1078.07,-66.53 1067.9,-69.5 1077.71,-73.52 1078.07,-66.53"/>
</a>
</g>
</g>
<!-- Node15 -->
<g id="Node000015" class="node">
<title>Node15</title>
<g id="a_Node000015"><a xlink:href="GreenF_8h.html" target="_top" xlink:title="Abstract base class for electromagnetic Green&#39;s functions.">
<polygon fill="white" stroke="#666666" points="841.38,-361.25 782.62,-361.25 782.62,-340.5 841.38,-340.5 841.38,-361.25"/>
<text xml:space="preserve" text-anchor="middle" x="812" y="-347.75" font-family="Helvetica,sans-Serif" font-size="10.00">GreenF.h</text>
</a>
</g>
</g>
<!-- Node6&#45;&gt;Node15 -->
<g id="edge19_Node000006_Node000015" class="edge">
<title>Node6&#45;&gt;Node15</title>
<g id="a_edge19_Node000006_Node000015"><a xlink:title=" ">
<path fill="none" stroke="#63b8ff" d="M810.04,-510.51C812.74,-501.41 816.5,-487.31 818,-474.75 822.27,-438.99 818.31,-397.03 815.11,-372.56"/>
<polygon fill="#63b8ff" stroke="#63b8ff" points="818.62,-372.39 813.77,-362.97 811.69,-373.36 818.62,-372.39"/>
</a>
</g>
</g>
<!-- Node20 -->
<g id="Node000020" class="node">
<title>Node20</title>
<g id="a_Node000020"><a xlink:href="RWGFun_8h.html" target="_top" xlink:title="Header for the RWGFun class.">
<polygon fill="white" stroke="#666666" points="1098.12,-247.75 1031.88,-247.75 1031.88,-227 1098.12,-227 1098.12,-247.75"/>
<text xml:space="preserve" text-anchor="middle" x="1065" y="-234.25" font-family="Helvetica,sans-Serif" font-size="10.00">RWGFun.h</text>
</a>
</g>
</g>
<!-- Node6&#45;&gt;Node20 -->
<g id="edge66_Node000006_Node000020" class="edge">
<title>Node6&#45;&gt;Node20</title>
<g id="a_edge66_Node000006_Node000020"><a xlink:title=" ">
<path fill="none" stroke="#63b8ff" d="M839,-512.27C916.92,-492.81 1111.43,-442.25 1129,-418 1166.28,-366.54 1111.67,-291.26 1082.01,-256.82"/>
<polygon fill="#63b8ff" stroke="#63b8ff" points="1084.66,-254.53 1075.41,-249.37 1079.43,-259.17 1084.66,-254.53"/>
</a>
</g>
</g>
<!-- Node21 -->
<g id="Node000021" class="node">
<title>Node21</title>
<g id="a_Node000021"><a xlink:href="SurfaceMesh_8h.html" target="_top" xlink:title="Declaration of the SurfaceMesh class and mesh edge struct.">
<polygon fill="white" stroke="#666666" points="742,-191 654,-191 654,-170.25 742,-170.25 742,-191"/>
<text xml:space="preserve" text-anchor="middle" x="698" y="-177.5" font-family="Helvetica,sans-Serif" font-size="10.00">SurfaceMesh.h</text>
</a>
</g>
</g>
<!-- Node6&#45;&gt;Node21 -->
<g id="edge74_Node000006_Node000021" class="edge">
<title>Node6&#45;&gt;Node21</title>
<g id="a_edge74_Node000006_Node000021"><a xlink:title=" ">
<path fill="none" stroke="#63b8ff" d="M783.9,-510.4C768.37,-502.78 748.51,-490.78 736,-474.75 670.72,-391.09 677.39,-352.74 662,-247.75 660.66,-238.63 658.96,-235.71 662,-227 665.57,-216.76 672.52,-207.1 679.36,-199.34"/>
<polygon fill="#63b8ff" stroke="#63b8ff" points="681.73,-201.94 686.1,-192.29 676.66,-197.1 681.73,-201.94"/>
</a>
</g>
</g>
<!-- Node28 -->
<g id="Node000028" class="node">
<title>Node28</title>
<g id="a_Node000028"><a xlink:href="IncidentField_8h.html" target="_top" xlink:title="Abstract interface for incident electromagnetic excitations.">
<polygon fill="white" stroke="#666666" points="1119.62,-418 1032.38,-418 1032.38,-397.25 1119.62,-397.25 1119.62,-418"/>
<text xml:space="preserve" text-anchor="middle" x="1076" y="-404.5" font-family="Helvetica,sans-Serif" font-size="10.00">IncidentField.h</text>
</a>
</g>
</g>
<!-- Node6&#45;&gt;Node28 -->
<g id="edge55_Node000006_Node000028" class="edge">
<title>Node6&#45;&gt;Node28</title>
<g id="a_edge55_Node000006_Node000028"><a xlink:title=" ">
<path fill="none" stroke="#63b8ff" d="M830.4,-510.43C878.1,-490.66 986.71,-445.64 1042.12,-422.67"/>
<polygon fill="#63b8ff" stroke="#63b8ff" points="1043.17,-426.02 1051.06,-418.96 1040.48,-419.56 1043.17,-426.02"/>
</a>
</g>
</g>
<!-- Node6&#45;&gt;Node33 -->
<g id="edge67_Node000006_Node000033" class="edge">
<title>Node6&#45;&gt;Node33</title>
<g id="a_edge67_Node000006_Node000033"><a xlink:title=" ">
<path fill="none" stroke="#63b8ff" d="M801.64,-510.34C797.8,-503.33 792.5,-493.66 787.8,-485.08"/>
<polygon fill="#63b8ff" stroke="#63b8ff" points="790.92,-483.49 783.04,-476.41 784.78,-486.86 790.92,-483.49"/>
</a>
</g>
</g>
<!-- Node8&#45;&gt;Node5 -->
<g id="edge10_Node000008_Node000005" class="edge">
<title>Node8&#45;&gt;Node5</title>
<g id="a_edge10_Node000008_Node000005"><a xlink:title=" ">
<path fill="none" stroke="#63b8ff" d="M1267.26,-178.51C1174.72,-174.7 885.38,-160.89 796,-134.25 777.18,-128.64 775.21,-120.83 757,-113.5 715.07,-96.62 664.59,-83.42 631.7,-75.71"/>
<polygon fill="#63b8ff" stroke="#63b8ff" points="632.84,-72.38 622.31,-73.55 631.28,-79.2 632.84,-72.38"/>
</a>
</g>
</g>
<!-- Node9 -->
<g id="Node000009" class="node">
<title>Node9</title>
<g id="a_Node000009"><a xlink:title=" ">
<polygon fill="#e0e0e0" stroke="#999999" points="1313.62,-134.25 1268.38,-134.25 1268.38,-113.5 1313.62,-113.5 1313.62,-134.25"/>
<text xml:space="preserve" text-anchor="middle" x="1291" y="-120.75" font-family="Helvetica,sans-Serif" font-size="10.00">cstdio</text>
</a>
</g>
</g>
<!-- Node8&#45;&gt;Node9 -->
<g id="edge9_Node000008_Node000009" class="edge">
<title>Node8&#45;&gt;Node9</title>
<g id="a_edge9_Node000008_Node000009"><a xlink:title=" ">
<path fill="none" stroke="#63b8ff" d="M1295.11,-169.84C1294.5,-163.22 1293.68,-154.22 1292.93,-146.02"/>
<polygon fill="#63b8ff" stroke="#63b8ff" points="1296.42,-145.73 1292.02,-136.09 1289.45,-146.36 1296.42,-145.73"/>
</a>
</g>
</g>
<!-- Node8&#45;&gt;Node10 -->
<g id="edge11_Node000008_Node000010" class="edge">
<title>Node8&#45;&gt;Node10</title>
<g id="a_edge11_Node000008_Node000010"><a xlink:title=" ">
<path fill="none" stroke="#63b8ff" d="M1267.34,-172.8C1227.59,-163.34 1155.43,-146.16 1109.16,-135.15"/>
<polygon fill="#63b8ff" stroke="#63b8ff" points="1110,-131.75 1099.46,-132.84 1108.38,-138.56 1110,-131.75"/>
</a>
</g>
</g>
<!-- Node8&#45;&gt;Node11 -->
<g id="edge18_Node000008_Node000011" class="edge">
<title>Node8&#45;&gt;Node11</title>
<g id="a_edge18_Node000008_Node000011"><a xlink:title=" ">
<path fill="none" stroke="#63b8ff" d="M1305.56,-170.09C1318.26,-156.27 1337.5,-130.47 1323,-113.5 1291.96,-77.17 1149.68,-69.76 1077.81,-68.36"/>
<polygon fill="#63b8ff" stroke="#63b8ff" points="1078.06,-64.87 1068,-68.21 1077.94,-71.87 1078.06,-64.87"/>
</a>
</g>
</g>
<!-- Node10&#45;&gt;Node5 -->
<g id="edge12_Node000010_Node000005" class="edge">
<title>Node10&#45;&gt;Node5</title>
<g id="a_edge12_Node000010_Node000005"><a xlink:title=" ">
<path fill="none" stroke="#63b8ff" d="M1034.13,-119.15C949.57,-109.28 719.98,-82.48 631.97,-72.21"/>
<polygon fill="#63b8ff" stroke="#63b8ff" points="632.61,-68.76 622.27,-71.07 631.8,-75.71 632.61,-68.76"/>
</a>
</g>
</g>
<!-- Node10&#45;&gt;Node11 -->
<g id="edge13_Node000010_Node000011" class="edge">
<title>Node10&#45;&gt;Node11</title>
<g id="a_edge13_Node000010_Node000011"><a xlink:title=" ">
<path fill="none" stroke="#63b8ff" d="M1060.64,-113.09C1056.8,-106.08 1051.5,-96.41 1046.8,-87.83"/>
<polygon fill="#63b8ff" stroke="#63b8ff" points="1049.92,-86.24 1042.04,-79.16 1043.78,-89.61 1049.92,-86.24"/>
</a>
</g>
</g>
<!-- Node11&#45;&gt;Node2 -->
<g id="edge14_Node000011_Node000002" class="edge">
<title>Node11&#45;&gt;Node2</title>
<g id="a_edge14_Node000011_Node000002"><a xlink:title=" ">
<path fill="none" stroke="#63b8ff" d="M1005.47,-64.18C975.35,-62.27 928,-59.28 887,-56.75 622.12,-40.39 304.5,-21.34 185.82,-14.23"/>
<polygon fill="#63b8ff" stroke="#63b8ff" points="186.33,-10.76 176.14,-13.65 185.92,-17.75 186.33,-10.76"/>
</a>
</g>
</g>
<!-- Node12 -->
<g id="Node000012" class="node">
<title>Node12</title>
<g id="a_Node000012"><a xlink:title=" ">
<polygon fill="#e0e0e0" stroke="#999999" points="1050.5,-20.75 959.5,-20.75 959.5,0 1050.5,0 1050.5,-20.75"/>
<text xml:space="preserve" text-anchor="middle" x="1005" y="-7.25" font-family="Helvetica,sans-Serif" font-size="10.00">blitz/tinyvec2.h</text>
</a>
</g>
</g>
<!-- Node11&#45;&gt;Node12 -->
<g id="edge15_Node000011_Node000012" class="edge">
<title>Node11&#45;&gt;Node12</title>
<g id="a_edge15_Node000011_Node000012"><a xlink:title=" ">
<path fill="none" stroke="#63b8ff" d="M1030.46,-56.34C1026.49,-49.33 1021.01,-39.66 1016.16,-31.08"/>
<polygon fill="#63b8ff" stroke="#63b8ff" points="1019.21,-29.37 1011.24,-22.4 1013.12,-32.82 1019.21,-29.37"/>
</a>
</g>
</g>
<!-- Node13 -->
<g id="Node000013" class="node">
<title>Node13</title>
<g id="a_Node000013"><a xlink:title=" ">
<polygon fill="#e0e0e0" stroke="#999999" points="1165.12,-20.75 1068.88,-20.75 1068.88,0 1165.12,0 1165.12,-20.75"/>
<text xml:space="preserve" text-anchor="middle" x="1117" y="-7.25" font-family="Helvetica,sans-Serif" font-size="10.00">blitz/tvecglobs.h</text>
</a>
</g>
</g>
<!-- Node11&#45;&gt;Node13 -->
<g id="edge16_Node000011_Node000013" class="edge">
<title>Node11&#45;&gt;Node13</title>
<g id="a_edge16_Node000011_Node000013"><a xlink:title=" ">
<path fill="none" stroke="#63b8ff" d="M1050.48,-56.34C1062.35,-48.32 1079.37,-36.81 1093.23,-27.44"/>
<polygon fill="#63b8ff" stroke="#63b8ff" points="1095.07,-30.43 1101.39,-21.93 1091.15,-24.63 1095.07,-30.43"/>
</a>
</g>
</g>
<!-- Node14 -->
<g id="Node000014" class="node">
<title>Node14</title>
<g id="a_Node000014"><a xlink:title=" ">
<polygon fill="#e0e0e0" stroke="#999999" points="939,-20.75 881,-20.75 881,0 939,0 939,-20.75"/>
<text xml:space="preserve" text-anchor="middle" x="910" y="-7.25" font-family="Helvetica,sans-Serif" font-size="10.00">complex</text>
</a>
</g>
</g>
<!-- Node11&#45;&gt;Node14 -->
<g id="edge17_Node000011_Node000014" class="edge">
<title>Node11&#45;&gt;Node14</title>
<g id="a_edge17_Node000011_Node000014"><a xlink:title=" ">
<path fill="none" stroke="#63b8ff" d="M1013.47,-56.34C993.76,-47.77 964.89,-35.23 942.65,-25.56"/>
<polygon fill="#63b8ff" stroke="#63b8ff" points="944.29,-22.46 933.72,-21.68 941.5,-28.88 944.29,-22.46"/>
</a>
</g>
</g>
<!-- Node15&#45;&gt;Node2 -->
<g id="edge20_Node000015_Node000002" class="edge">
<title>Node15&#45;&gt;Node2</title>
<g id="a_edge20_Node000015_Node000002"><a xlink:title=" ">
<path fill="none" stroke="#63b8ff" d="M782.29,-347.74C749.14,-343.96 695.54,-333.48 660,-304.5 563.15,-225.52 630.35,-127.02 527,-56.75 472.53,-19.71 277.68,-12.75 186.14,-11.55"/>
<polygon fill="#63b8ff" stroke="#63b8ff" points="186.28,-8.05 176.24,-11.44 186.2,-15.05 186.28,-8.05"/>
</a>
</g>
</g>
<!-- Node15&#45;&gt;Node11 -->
<g id="edge53_Node000015_Node000011" class="edge">
<title>Node15&#45;&gt;Node11</title>
<g id="a_edge53_Node000015_Node000011"><a xlink:title=" ">
<path fill="none" stroke="#63b8ff" d="M841.74,-349.47C902.63,-346.86 1041.25,-331.53 1107,-247.75 1144.13,-200.44 1155.3,-164.86 1124,-113.5 1113.7,-96.6 1094.87,-85.73 1077.27,-78.88"/>
<polygon fill="#63b8ff" stroke="#63b8ff" points="1078.57,-75.62 1067.98,-75.61 1076.25,-82.23 1078.57,-75.62"/>
</a>
</g>
</g>
<!-- Node16 -->
<g id="Node000016" class="node">
<title>Node16</title>
<g id="a_Node000016"><a xlink:title=" ">
<polygon fill="#e0e0e0" stroke="#999999" points="728.38,-247.75 681.62,-247.75 681.62,-227 728.38,-227 728.38,-247.75"/>
<text xml:space="preserve" text-anchor="middle" x="705" y="-234.25" font-family="Helvetica,sans-Serif" font-size="10.00">cmath</text>
</a>
</g>
</g>
<!-- Node15&#45;&gt;Node16 -->
<g id="edge21_Node000015_Node000016" class="edge">
<title>Node15&#45;&gt;Node16</title>
<g id="a_edge21_Node000015_Node000016"><a xlink:title=" ">
<path fill="none" stroke="#63b8ff" d="M800.79,-340.1C790.66,-331.12 775.45,-317.29 763,-304.5 747.77,-288.85 731.46,-270.05 720.02,-256.51"/>
<polygon fill="#63b8ff" stroke="#63b8ff" points="723.03,-254.65 713.93,-249.23 717.67,-259.14 723.03,-254.65"/>
</a>
</g>
</g>
<!-- Node17 -->
<g id="Node000017" class="node">
<title>Node17</title>
<g id="a_Node000017"><a xlink:title=" ">
<polygon fill="#e0e0e0" stroke="#999999" points="660.25,-134.25 615.75,-134.25 615.75,-113.5 660.25,-113.5 660.25,-134.25"/>
<text xml:space="preserve" text-anchor="middle" x="638" y="-120.75" font-family="Helvetica,sans-Serif" font-size="10.00">utility</text>
</a>
</g>
</g>
<!-- Node15&#45;&gt;Node17 -->
<g id="edge22_Node000015_Node000017" class="edge">
<title>Node15&#45;&gt;Node17</title>
<g id="a_edge22_Node000015_Node000017"><a xlink:title=" ">
<path fill="none" stroke="#63b8ff" d="M782.18,-347.49C752.11,-343.51 706.33,-332.88 679,-304.5 636.92,-260.81 634.69,-183.28 636.35,-146.02"/>
<polygon fill="#63b8ff" stroke="#63b8ff" points="639.84,-146.35 636.96,-136.15 632.85,-145.92 639.84,-146.35"/>
</a>
</g>
</g>
<!-- Node18 -->
<g id="Node000018" class="node">
<title>Node18</title>
<g id="a_Node000018"><a xlink:href="GaussQuad_8h.html" target="_top" xlink:title="Gaussian quadrature helpers for Green&#39;s functions and incident fields.">
<polygon fill="white" stroke="#666666" points="852.25,-304.5 771.75,-304.5 771.75,-283.75 852.25,-283.75 852.25,-304.5"/>
<text xml:space="preserve" text-anchor="middle" x="812" y="-291" font-family="Helvetica,sans-Serif" font-size="10.00">GaussQuad.h</text>
</a>
</g>
</g>
<!-- Node15&#45;&gt;Node18 -->
<g id="edge23_Node000015_Node000018" class="edge">
<title>Node15&#45;&gt;Node18</title>
<g id="a_edge23_Node000015_Node000018"><a xlink:title=" ">
<path fill="none" stroke="#63b8ff" d="M812,-340.09C812,-333.47 812,-324.47 812,-316.27"/>
<polygon fill="#63b8ff" stroke="#63b8ff" points="815.5,-316.34 812,-306.34 808.5,-316.34 815.5,-316.34"/>
</a>
</g>
</g>
<!-- Node15&#45;&gt;Node20 -->
<g id="edge47_Node000015_Node000020" class="edge">
<title>Node15&#45;&gt;Node20</title>
<g id="a_edge47_Node000015_Node000020"><a xlink:title=" ">
<path fill="none" stroke="#63b8ff" d="M841.66,-341.12C868.57,-332.83 909.08,-319.45 943,-304.5 977.18,-289.44 1014.71,-268.36 1039,-254.08"/>
<polygon fill="#63b8ff" stroke="#63b8ff" points="1040.74,-257.12 1047.55,-249.01 1037.17,-251.1 1040.74,-257.12"/>
</a>
</g>
</g>
<!-- Node24 -->
<g id="Node000024" class="node">
<title>Node24</title>
<g id="a_Node000024"><a xlink:href="mathFunctions_8h.html" target="_top" xlink:title="Header file of the class that provides auxiliary mathematical functionalities for the SIE solver.">
<polygon fill="white" stroke="#666666" points="901.5,-134.25 804.5,-134.25 804.5,-113.5 901.5,-113.5 901.5,-134.25"/>
<text xml:space="preserve" text-anchor="middle" x="853" y="-120.75" font-family="Helvetica,sans-Serif" font-size="10.00">mathFunctions.h</text>
</a>
</g>
</g>
<!-- Node15&#45;&gt;Node24 -->
<g id="edge54_Node000015_Node000024" class="edge">
<title>Node15&#45;&gt;Node24</title>
<g id="a_edge54_Node000015_Node000024"><a xlink:title=" ">
<path fill="none" stroke="#63b8ff" d="M782.86,-340.01C733.05,-321.49 639.93,-278.68 673,-227 693.58,-194.84 717.56,-209.43 751,-191 778.99,-175.57 809.55,-155.26 829.85,-141.24"/>
<polygon fill="#63b8ff" stroke="#63b8ff" points="831.75,-144.18 837.96,-135.59 827.75,-138.44 831.75,-144.18"/>
</a>
</g>
</g>
<!-- Node27 -->
<g id="Node000027" class="node">
<title>Node27</title>
<g id="a_Node000027"><a xlink:href="SingSub_8h.html" target="_top" xlink:title="Exact subtractions for singular/near&#45;singular triangle integrals.">
<polygon fill="white" stroke="#666666" points="934,-304.5 870,-304.5 870,-283.75 934,-283.75 934,-304.5"/>
<text xml:space="preserve" text-anchor="middle" x="902" y="-291" font-family="Helvetica,sans-Serif" font-size="10.00">SingSub.h</text>
</a>
</g>
</g>
<!-- Node15&#45;&gt;Node27 -->
<g id="edge48_Node000015_Node000027" class="edge">
<title>Node15&#45;&gt;Node27</title>
<g id="a_edge48_Node000015_Node000027"><a xlink:title=" ">
<path fill="none" stroke="#63b8ff" d="M828.09,-340.09C841.53,-331.91 860.93,-320.11 876.49,-310.65"/>
<polygon fill="#63b8ff" stroke="#63b8ff" points="878.03,-313.8 884.76,-305.62 874.39,-307.82 878.03,-313.8"/>
</a>
</g>
</g>
<!-- Node18&#45;&gt;Node11 -->
<g id="edge45_Node000018_Node000011" class="edge">
<title>Node18&#45;&gt;Node11</title>
<g id="a_edge45_Node000018_Node000011"><a xlink:title=" ">
<path fill="none" stroke="#63b8ff" d="M826.13,-283.31C838.43,-274.53 856.52,-261.02 871,-247.75 930.67,-193.08 993.22,-119.91 1021.08,-86.35"/>
<polygon fill="#63b8ff" stroke="#63b8ff" points="1023.65,-88.73 1027.32,-78.79 1018.26,-84.27 1023.65,-88.73"/>
</a>
</g>
</g>
<!-- Node18&#45;&gt;Node16 -->
<g id="edge24_Node000018_Node000016" class="edge">
<title>Node18&#45;&gt;Node16</title>
<g id="a_edge24_Node000018_Node000016"><a xlink:title=" ">
<path fill="none" stroke="#63b8ff" d="M792.87,-283.34C776.51,-274.97 752.72,-262.79 734.02,-253.22"/>
<polygon fill="#63b8ff" stroke="#63b8ff" points="735.81,-250.21 725.31,-248.77 732.62,-256.44 735.81,-250.21"/>
</a>
</g>
</g>
<!-- Node19 -->
<g id="Node000019" class="node">
<title>Node19</title>
<g id="a_Node000019"><a xlink:title=" ">
<polygon fill="#e0e0e0" stroke="#999999" points="297.75,-77.5 238.25,-77.5 238.25,-56.75 297.75,-56.75 297.75,-77.5"/>
<text xml:space="preserve" text-anchor="middle" x="268" y="-64" font-family="Helvetica,sans-Serif" font-size="10.00">iostream</text>
</a>
</g>
</g>
<!-- Node18&#45;&gt;Node19 -->
<g id="edge25_Node000018_Node000019" class="edge">
<title>Node18&#45;&gt;Node19</title>
<g id="a_edge25_Node000018_Node000019"><a xlink:title=" ">
<path fill="none" stroke="#63b8ff" d="M803.88,-283.34C791.18,-268.71 765.15,-241.34 737,-227 652.6,-184.02 401.39,-184.34 321,-134.25 302.71,-122.85 288,-102.86 278.76,-87.83"/>
<polygon fill="#63b8ff" stroke="#63b8ff" points="281.84,-86.15 273.79,-79.27 275.79,-89.67 281.84,-86.15"/>
</a>
</g>
</g>
<!-- Node18&#45;&gt;Node20 -->
<g id="edge26_Node000018_Node000020" class="edge">
<title>Node18&#45;&gt;Node20</title>
<g id="a_edge26_Node000018_Node000020"><a xlink:title=" ">
<path fill="none" stroke="#63b8ff" d="M852.65,-284.33C898.59,-274.39 973.13,-258.26 1020.57,-247.99"/>
<polygon fill="#63b8ff" stroke="#63b8ff" points="1021.21,-251.43 1030.24,-245.9 1019.73,-244.59 1021.21,-251.43"/>
</a>
</g>
</g>
<!-- Node26 -->
<g id="Node000026" class="node">
<title>Node26</title>
<g id="a_Node000026"><a xlink:href="quadrature_8h.html" target="_top" xlink:title="Declarations of Dunavant (triangle) and Gauss–Legendre (1D) quadrature rules.">
<polygon fill="white" stroke="#666666" points="862.12,-247.75 783.88,-247.75 783.88,-227 862.12,-227 862.12,-247.75"/>
<text xml:space="preserve" text-anchor="middle" x="823" y="-234.25" font-family="Helvetica,sans-Serif" font-size="10.00">quadrature.h</text>
</a>
</g>
</g>
<!-- Node18&#45;&gt;Node26 -->
<g id="edge46_Node000018_Node000026" class="edge">
<title>Node18&#45;&gt;Node26</title>
<g id="a_edge46_Node000018_Node000026"><a xlink:title=" ">
<path fill="none" stroke="#63b8ff" d="M813.97,-283.34C815.31,-276.64 817.15,-267.51 818.81,-259.23"/>
<polygon fill="#63b8ff" stroke="#63b8ff" points="822.21,-260.06 820.75,-249.56 815.35,-258.68 822.21,-260.06"/>
</a>
</g>
</g>
<!-- Node20&#45;&gt;Node10 -->
<g id="edge43_Node000020_Node000010" class="edge">
<title>Node20&#45;&gt;Node10</title>
<g id="a_edge43_Node000020_Node000010"><a xlink:title=" ">
<path fill="none" stroke="#63b8ff" d="M1065.09,-226.87C1065.24,-209.1 1065.59,-170.47 1065.81,-146.18"/>
<polygon fill="#63b8ff" stroke="#63b8ff" points="1069.31,-146.22 1065.9,-136.19 1062.31,-146.16 1069.31,-146.22"/>
</a>
</g>
</g>
<!-- Node20&#45;&gt;Node11 -->
<g id="edge44_Node000020_Node000011" class="edge">
<title>Node20&#45;&gt;Node11</title>
<g id="a_edge44_Node000020_Node000011"><a xlink:title=" ">
<path fill="none" stroke="#63b8ff" d="M1073.52,-226.66C1091.22,-205.27 1128.55,-152.85 1107,-113.5 1099.74,-100.24 1086.76,-90.29 1073.87,-83.14"/>
<polygon fill="#63b8ff" stroke="#63b8ff" points="1075.52,-80.05 1065.02,-78.67 1072.37,-86.3 1075.52,-80.05"/>
</a>
</g>
</g>
<!-- Node20&#45;&gt;Node21 -->
<g id="edge27_Node000020_Node000021" class="edge">
<title>Node20&#45;&gt;Node21</title>
<g id="a_edge27_Node000020_Node000021"><a xlink:title=" ">
<path fill="none" stroke="#63b8ff" d="M1031.46,-231.37C968.13,-221.92 830.4,-201.38 753.23,-189.86"/>
<polygon fill="#63b8ff" stroke="#63b8ff" points="754.2,-186.47 743.79,-188.46 753.17,-193.39 754.2,-186.47"/>
</a>
</g>
</g>
<!-- Node21&#45;&gt;Node5 -->
<g id="edge30_Node000021_Node000005" class="edge">
<title>Node21&#45;&gt;Node5</title>
<g id="a_edge30_Node000021_Node000005"><a xlink:title=" ">
<path fill="none" stroke="#63b8ff" d="M695.74,-170.12C692.08,-156.34 683.72,-130.6 669,-113.5 658.24,-101.01 643.19,-90.79 629.62,-83.23"/>
<polygon fill="#63b8ff" stroke="#63b8ff" points="631.46,-80.24 620.98,-78.68 628.2,-86.43 631.46,-80.24"/>
</a>
</g>
</g>
<!-- Node21&#45;&gt;Node10 -->
<g id="edge36_Node000021_Node000010" class="edge">
<title>Node21&#45;&gt;Node10</title>
<g id="a_edge36_Node000021_Node000010"><a xlink:title=" ">
<path fill="none" stroke="#63b8ff" d="M742.39,-173.02C813.65,-162.42 952.67,-141.74 1023.02,-131.27"/>
<polygon fill="#63b8ff" stroke="#63b8ff" points="1023.24,-134.78 1032.61,-129.84 1022.2,-127.85 1023.24,-134.78"/>
</a>
</g>
</g>
<!-- Node21&#45;&gt;Node11 -->
<g id="edge37_Node000021_Node000011" class="edge">
<title>Node21&#45;&gt;Node11</title>
<g id="a_edge37_Node000021_Node000011"><a xlink:title=" ">
<path fill="none" stroke="#63b8ff" d="M742.23,-173.85C786.01,-167.3 854.49,-154.76 911,-134.25 920.99,-130.62 974.62,-101.67 1008.3,-83.3"/>
<polygon fill="#63b8ff" stroke="#63b8ff" points="1009.62,-86.57 1016.72,-78.7 1006.27,-80.42 1009.62,-86.57"/>
</a>
</g>
</g>
<!-- Node21&#45;&gt;Node17 -->
<g id="edge29_Node000021_Node000017" class="edge">
<title>Node21&#45;&gt;Node17</title>
<g id="a_edge29_Node000021_Node000017"><a xlink:title=" ">
<path fill="none" stroke="#63b8ff" d="M687.27,-169.84C678.91,-162.21 667.09,-151.42 657.12,-142.32"/>
<polygon fill="#63b8ff" stroke="#63b8ff" points="659.5,-139.75 649.75,-135.6 654.78,-144.92 659.5,-139.75"/>
</a>
</g>
</g>
<!-- Node22 -->
<g id="Node000022" class="node">
<title>Node22</title>
<g id="a_Node000022"><a xlink:title=" ">
<polygon fill="#e0e0e0" stroke="#999999" points="747.5,-134.25 716.5,-134.25 716.5,-113.5 747.5,-113.5 747.5,-134.25"/>
<text xml:space="preserve" text-anchor="middle" x="732" y="-120.75" font-family="Helvetica,sans-Serif" font-size="10.00">set</text>
</a>
</g>
</g>
<!-- Node21&#45;&gt;Node22 -->
<g id="edge28_Node000021_Node000022" class="edge">
<title>Node21&#45;&gt;Node22</title>
<g id="a_edge28_Node000021_Node000022"><a xlink:title=" ">
<path fill="none" stroke="#63b8ff" d="M704.08,-169.84C708.48,-162.75 714.57,-152.94 719.94,-144.29"/>
<polygon fill="#63b8ff" stroke="#63b8ff" points="722.87,-146.21 725.18,-135.86 716.93,-142.51 722.87,-146.21"/>
</a>
</g>
</g>
<!-- Node21&#45;&gt;Node23 -->
<g id="edge31_Node000021_Node000023" class="edge">
<title>Node21&#45;&gt;Node23</title>
<g id="a_edge31_Node000021_Node000023"><a xlink:title=" ">
<path fill="none" stroke="#63b8ff" d="M653.57,-174.33C566.48,-163.94 374.09,-140.99 285.41,-130.41"/>
<polygon fill="#63b8ff" stroke="#63b8ff" points="285.96,-126.95 275.62,-129.24 285.14,-133.9 285.96,-126.95"/>
</a>
</g>
</g>
<!-- Node21&#45;&gt;Node24 -->
<g id="edge38_Node000021_Node000024" class="edge">
<title>Node21&#45;&gt;Node24</title>
<g id="a_edge38_Node000021_Node000024"><a xlink:title=" ">
<path fill="none" stroke="#63b8ff" d="M725.71,-169.84C750.43,-161.11 786.87,-148.23 814.43,-138.5"/>
<polygon fill="#63b8ff" stroke="#63b8ff" points="815.58,-141.81 823.84,-135.17 813.25,-135.21 815.58,-141.81"/>
</a>
</g>
</g>
<!-- Node23&#45;&gt;Node4 -->
<g id="edge34_Node000023_Node000004" class="edge">
<title>Node23&#45;&gt;Node4</title>
<g id="a_edge34_Node000023_Node000004"><a xlink:title=" ">
<path fill="none" stroke="#63b8ff" d="M212,-113.09C186.51,-103.84 148.21,-89.95 120.93,-80.06"/>
<polygon fill="#63b8ff" stroke="#63b8ff" points="122.36,-76.86 111.76,-76.74 119.97,-83.44 122.36,-76.86"/>
</a>
</g>
</g>
<!-- Node23&#45;&gt;Node5 -->
<g id="edge35_Node000023_Node000005" class="edge">
<title>Node23&#45;&gt;Node5</title>
<g id="a_edge35_Node000023_Node000005"><a xlink:title=" ">
<path fill="none" stroke="#63b8ff" d="M273.98,-117.53C342.5,-107.05 493.69,-83.92 562.13,-73.46"/>
<polygon fill="#63b8ff" stroke="#63b8ff" points="562.29,-76.97 571.65,-72 561.23,-70.05 562.29,-76.97"/>
</a>
</g>
</g>
<!-- Node23&#45;&gt;Node7 -->
<g id="edge32_Node000023_Node000007" class="edge">
<title>Node23&#45;&gt;Node7</title>
<g id="a_edge32_Node000023_Node000007"><a xlink:title=" ">
<path fill="none" stroke="#63b8ff" d="M230.78,-113.09C224.56,-105.69 215.85,-95.32 208.36,-86.41"/>
<polygon fill="#63b8ff" stroke="#63b8ff" points="211.24,-84.39 202.13,-78.99 205.88,-88.9 211.24,-84.39"/>
</a>
</g>
</g>
<!-- Node23&#45;&gt;Node19 -->
<g id="edge33_Node000023_Node000019" class="edge">
<title>Node23&#45;&gt;Node19</title>
<g id="a_edge33_Node000023_Node000019"><a xlink:title=" ">
<path fill="none" stroke="#63b8ff" d="M244.18,-113.09C247.9,-106.08 253.02,-96.41 257.56,-87.83"/>
<polygon fill="#63b8ff" stroke="#63b8ff" points="260.56,-89.64 262.15,-79.17 254.38,-86.36 260.56,-89.64"/>
</a>
</g>
</g>
<!-- Node24&#45;&gt;Node5 -->
<g id="edge41_Node000024_Node000005" class="edge">
<title>Node24&#45;&gt;Node5</title>
<g id="a_edge41_Node000024_Node000005"><a xlink:title=" ">
<path fill="none" stroke="#63b8ff" d="M806.94,-113.02C756.61,-102.26 677.15,-85.27 631.79,-75.56"/>
<polygon fill="#63b8ff" stroke="#63b8ff" points="632.75,-72.19 622.24,-73.52 631.29,-79.04 632.75,-72.19"/>
</a>
</g>
</g>
<!-- Node24&#45;&gt;Node11 -->
<g id="edge42_Node000024_Node000011" class="edge">
<title>Node24&#45;&gt;Node11</title>
<g id="a_edge42_Node000024_Node000011"><a xlink:title=" ">
<path fill="none" stroke="#63b8ff" d="M885.72,-113.09C916.2,-103.97 961.77,-90.33 994.74,-80.47"/>
<polygon fill="#63b8ff" stroke="#63b8ff" points="995.37,-83.94 1003.94,-77.72 993.36,-77.23 995.37,-83.94"/>
</a>
</g>
</g>
<!-- Node24&#45;&gt;Node14 -->
<g id="edge40_Node000024_Node000014" class="edge">
<title>Node24&#45;&gt;Node14</title>
<g id="a_edge40_Node000024_Node000014"><a xlink:title=" ">
<path fill="none" stroke="#63b8ff" d="M861.8,-113.03C869.3,-104.23 879.97,-90.71 887,-77.5 894.69,-63.04 900.66,-45.48 904.59,-32.09"/>
<polygon fill="#63b8ff" stroke="#63b8ff" points="907.91,-33.21 907.2,-22.64 901.16,-31.34 907.91,-33.21"/>
</a>
</g>
</g>
<!-- Node25 -->
<g id="Node000025" class="node">
<title>Node25</title>
<g id="a_Node000025"><a xlink:title=" ">
<polygon fill="#e0e0e0" stroke="#999999" points="878.25,-77.5 827.75,-77.5 827.75,-56.75 878.25,-56.75 878.25,-77.5"/>
<text xml:space="preserve" text-anchor="middle" x="853" y="-64" font-family="Helvetica,sans-Serif" font-size="10.00">math.h</text>
</a>
</g>
</g>
<!-- Node24&#45;&gt;Node25 -->
<g id="edge39_Node000024_Node000025" class="edge">
<title>Node24&#45;&gt;Node25</title>
<g id="a_edge39_Node000024_Node000025"><a xlink:title=" ">
<path fill="none" stroke="#63b8ff" d="M853,-113.09C853,-106.47 853,-97.47 853,-89.27"/>
<polygon fill="#63b8ff" stroke="#63b8ff" points="856.5,-89.34 853,-79.34 849.5,-89.34 856.5,-89.34"/>
</a>
</g>
</g>
<!-- Node27&#45;&gt;Node5 -->
<g id="edge49_Node000027_Node000005" class="edge">
<title>Node27&#45;&gt;Node5</title>
<g id="a_edge49_Node000027_Node000005"><a xlink:title=" ">
<path fill="none" stroke="#63b8ff" d="M900.45,-283.7C897.5,-269.05 889.64,-241.03 871,-227 789.73,-165.84 730.67,-245.83 645,-191 610.55,-168.95 600.81,-117.87 598.06,-89"/>
<polygon fill="#63b8ff" stroke="#63b8ff" points="601.58,-89.03 597.36,-79.31 594.59,-89.54 601.58,-89.03"/>
</a>
</g>
</g>
<!-- Node27&#45;&gt;Node10 -->
<g id="edge51_Node000027_Node000010" class="edge">
<title>Node27&#45;&gt;Node10</title>
<g id="a_edge51_Node000027_Node000010"><a xlink:title=" ">
<path fill="none" stroke="#63b8ff" d="M924.54,-283.27C941.1,-275.3 963.51,-262.91 980,-247.75 1013.56,-216.89 1041.44,-170.77 1055.72,-144.69"/>
<polygon fill="#63b8ff" stroke="#63b8ff" points="1058.8,-146.35 1060.42,-135.88 1052.62,-143.06 1058.8,-146.35"/>
</a>
</g>
</g>
<!-- Node27&#45;&gt;Node11 -->
<g id="edge52_Node000027_Node000011" class="edge">
<title>Node27&#45;&gt;Node11</title>
<g id="a_edge52_Node000027_Node000011"><a xlink:title=" ">
<path fill="none" stroke="#63b8ff" d="M911.96,-283.26C920.55,-274.43 932.96,-260.9 942,-247.75 979.28,-193.53 1012.24,-122.7 1027.31,-88.44"/>
<polygon fill="#63b8ff" stroke="#63b8ff" points="1030.5,-89.89 1031.27,-79.32 1024.08,-87.1 1030.5,-89.89"/>
</a>
</g>
</g>
<!-- Node27&#45;&gt;Node20 -->
<g id="edge50_Node000027_Node000020" class="edge">
<title>Node27&#45;&gt;Node20</title>
<g id="a_edge50_Node000027_Node000020"><a xlink:title=" ">
<path fill="none" stroke="#63b8ff" d="M931.14,-283.34C957.37,-274.53 996.14,-261.5 1025.21,-251.74"/>
<polygon fill="#63b8ff" stroke="#63b8ff" points="1026.04,-255.15 1034.4,-248.65 1023.81,-248.52 1026.04,-255.15"/>
</a>
</g>
</g>
<!-- Node28&#45;&gt;Node11 -->
<g id="edge57_Node000028_Node000011" class="edge">
<title>Node28&#45;&gt;Node11</title>
<g id="a_edge57_Node000028_Node000011"><a xlink:title=" ">
<path fill="none" stroke="#63b8ff" d="M1082.46,-397.06C1102.96,-365.64 1164.63,-262.34 1155,-170.25 1152.32,-144.61 1159.39,-133.4 1143,-113.5 1126.65,-93.65 1100.05,-82.32 1077.47,-75.94"/>
<polygon fill="#63b8ff" stroke="#63b8ff" points="1078.46,-72.58 1067.9,-73.49 1076.72,-79.36 1078.46,-72.58"/>
</a>
</g>
</g>
<!-- Node28&#45;&gt;Node15 -->
<g id="edge65_Node000028_Node000015" class="edge">
<title>Node28&#45;&gt;Node15</title>
<g id="a_edge65_Node000028_Node000015"><a xlink:title=" ">
<path fill="none" stroke="#63b8ff" d="M1032.11,-397.52C982.16,-387.16 901.23,-370.38 852.66,-360.31"/>
<polygon fill="#63b8ff" stroke="#63b8ff" points="853.62,-356.93 843.12,-358.33 852.2,-363.79 853.62,-356.93"/>
</a>
</g>
</g>
<!-- Node28&#45;&gt;Node20 -->
<g id="edge56_Node000028_Node000020" class="edge">
<title>Node28&#45;&gt;Node20</title>
<g id="a_edge56_Node000028_Node000020"><a xlink:title=" ">
<path fill="none" stroke="#63b8ff" d="M1075.38,-397.1C1073.65,-370.73 1068.79,-296.33 1066.38,-259.53"/>
<polygon fill="#63b8ff" stroke="#63b8ff" points="1069.89,-259.48 1065.74,-249.73 1062.9,-259.93 1069.89,-259.48"/>
</a>
</g>
</g>
<!-- Node29 -->
<g id="Node000029" class="node">
<title>Node29</title>
<g id="a_Node000029"><a xlink:href="LayeredMediaUtils_8h.html" target="_top" xlink:title="This header declares utility structures and algorithms used throughout the layered&#45;media scattering s...">
<polygon fill="white" stroke="#666666" points="446.25,-134.25 329.75,-134.25 329.75,-113.5 446.25,-113.5 446.25,-134.25"/>
<text xml:space="preserve" text-anchor="middle" x="388" y="-120.75" font-family="Helvetica,sans-Serif" font-size="10.00">LayeredMediaUtils.h</text>
</a>
</g>
</g>
<!-- Node28&#45;&gt;Node29 -->
<g id="edge58_Node000028_Node000029" class="edge">
<title>Node28&#45;&gt;Node29</title>
<g id="a_edge58_Node000028_Node000029"><a xlink:title=" ">
<path fill="none" stroke="#63b8ff" d="M1032.02,-405.62C940.18,-401.89 723.34,-384.58 564,-304.5 487.69,-266.15 425.24,-181.53 400.02,-143.74"/>
<polygon fill="#63b8ff" stroke="#63b8ff" points="403.15,-142.13 394.74,-135.67 397.29,-145.96 403.15,-142.13"/>
</a>
</g>
</g>
<!-- Node29&#45;&gt;Node5 -->
<g id="edge62_Node000029_Node000005" class="edge">
<title>Node29&#45;&gt;Node5</title>
<g id="a_edge62_Node000029_Node000005"><a xlink:title=" ">
<path fill="none" stroke="#63b8ff" d="M425.37,-113.09C464.2,-102.91 524.5,-87.12 562.31,-77.21"/>
<polygon fill="#63b8ff" stroke="#63b8ff" points="563.03,-80.64 571.81,-74.72 561.25,-73.87 563.03,-80.64"/>
</a>
</g>
</g>
<!-- Node29&#45;&gt;Node7 -->
<g id="edge64_Node000029_Node000007" class="edge">
<title>Node29&#45;&gt;Node7</title>
<g id="a_edge64_Node000029_Node000007"><a xlink:title=" ">
<path fill="none" stroke="#63b8ff" d="M353.14,-113.09C318.84,-103.46 266.6,-88.79 231.19,-78.85"/>
<polygon fill="#63b8ff" stroke="#63b8ff" points="232.36,-75.54 221.79,-76.21 230.47,-82.28 232.36,-75.54"/>
</a>
</g>
</g>
<!-- Node29&#45;&gt;Node11 -->
<g id="edge63_Node000029_Node000011" class="edge">
<title>Node29&#45;&gt;Node11</title>
<g id="a_edge63_Node000029_Node000011"><a xlink:title=" ">
<path fill="none" stroke="#63b8ff" d="M446.65,-117.92C575.75,-107.01 881.95,-81.14 993.99,-71.67"/>
<polygon fill="#63b8ff" stroke="#63b8ff" points="994.27,-75.16 1003.94,-70.83 993.68,-68.19 994.27,-75.16"/>
</a>
</g>
</g>
<!-- Node30 -->
<g id="Node000030" class="node">
<title>Node30</title>
<g id="a_Node000030"><a xlink:title=" ">
<polygon fill="#e0e0e0" stroke="#999999" points="517.88,-77.5 480.12,-77.5 480.12,-56.75 517.88,-56.75 517.88,-77.5"/>
<text xml:space="preserve" text-anchor="middle" x="499" y="-64" font-family="Helvetica,sans-Serif" font-size="10.00">map</text>
</a>
</g>
</g>
<!-- Node29&#45;&gt;Node30 -->
<g id="edge59_Node000029_Node000030" class="edge">
<title>Node29&#45;&gt;Node30</title>
<g id="a_edge59_Node000029_Node000030"><a xlink:title=" ">
<path fill="none" stroke="#63b8ff" d="M407.84,-113.09C425,-104.63 450.03,-92.28 469.52,-82.66"/>
<polygon fill="#63b8ff" stroke="#63b8ff" points="470.92,-85.88 478.34,-78.31 467.82,-79.6 470.92,-85.88"/>
</a>
</g>
</g>
<!-- Node31 -->
<g id="Node000031" class="node">
<title>Node31</title>
<g id="a_Node000031"><a xlink:title=" ">
<polygon fill="#e0e0e0" stroke="#999999" points="380,-77.5 316,-77.5 316,-56.75 380,-56.75 380,-77.5"/>
<text xml:space="preserve" text-anchor="middle" x="348" y="-64" font-family="Helvetica,sans-Serif" font-size="10.00">stdexcept</text>
</a>
</g>
</g>
<!-- Node29&#45;&gt;Node31 -->
<g id="edge60_Node000029_Node000031" class="edge">
<title>Node29&#45;&gt;Node31</title>
<g id="a_edge60_Node000029_Node000031"><a xlink:title=" ">
<path fill="none" stroke="#63b8ff" d="M380.85,-113.09C375.56,-105.85 368.19,-95.76 361.77,-86.97"/>
<polygon fill="#63b8ff" stroke="#63b8ff" points="364.71,-85.06 355.98,-79.05 359.06,-89.19 364.71,-85.06"/>
</a>
</g>
</g>
<!-- Node32 -->
<g id="Node000032" class="node">
<title>Node32</title>
<g id="a_Node000032"><a xlink:title=" ">
<polygon fill="#e0e0e0" stroke="#999999" points="462.38,-77.5 397.62,-77.5 397.62,-56.75 462.38,-56.75 462.38,-77.5"/>
<text xml:space="preserve" text-anchor="middle" x="430" y="-64" font-family="Helvetica,sans-Serif" font-size="10.00">functional</text>
</a>
</g>
</g>
<!-- Node29&#45;&gt;Node32 -->
<g id="edge61_Node000029_Node000032" class="edge">
<title>Node29&#45;&gt;Node32</title>
<g id="a_edge61_Node000029_Node000032"><a xlink:title=" ">
<path fill="none" stroke="#63b8ff" d="M395.51,-113.09C401.12,-105.77 408.97,-95.54 415.76,-86.69"/>
<polygon fill="#63b8ff" stroke="#63b8ff" points="418.33,-89.09 421.64,-79.03 412.77,-84.83 418.33,-89.09"/>
</a>
</g>
</g>
<!-- Node33&#45;&gt;Node2 -->
<g id="edge68_Node000033_Node000002" class="edge">
<title>Node33&#45;&gt;Node2</title>
<g id="a_edge68_Node000033_Node000002"><a xlink:title=" ">
<path fill="none" stroke="#63b8ff" d="M745.36,-453.53C665.7,-427.86 452.29,-353.41 299,-247.75 217.87,-191.83 192.55,-169.4 157,-77.5 151.25,-62.64 146.34,-45.32 142.95,-32.13"/>
<polygon fill="#63b8ff" stroke="#63b8ff" points="146.35,-31.3 140.55,-22.44 139.55,-32.98 146.35,-31.3"/>
</a>
</g>
</g>
<!-- Node33&#45;&gt;Node5 -->
<g id="edge70_Node000033_Node000005" class="edge">
<title>Node33&#45;&gt;Node5</title>
<g id="a_edge70_Node000033_Node000005"><a xlink:title=" ">
<path fill="none" stroke="#63b8ff" d="M764.83,-453.7C737.06,-430.9 668.79,-370.74 635,-304.5 598.03,-232.02 595.38,-132.18 596.18,-89.2"/>
<polygon fill="#63b8ff" stroke="#63b8ff" points="599.68,-89.39 596.46,-79.29 592.68,-89.19 599.68,-89.39"/>
</a>
</g>
</g>
<!-- Node33&#45;&gt;Node11 -->
<g id="edge69_Node000033_Node000011" class="edge">
<title>Node33&#45;&gt;Node11</title>
<g id="a_edge69_Node000033_Node000011"><a xlink:title=" ">
<path fill="none" stroke="#63b8ff" d="M809.67,-461.3C892.48,-455.75 1105.71,-439.49 1129,-418 1229.04,-325.68 1247.87,-219.13 1162,-113.5 1141.5,-88.29 1105.84,-77.08 1077.67,-72.1"/>
<polygon fill="#63b8ff" stroke="#63b8ff" points="1078.43,-68.68 1068.01,-70.61 1077.36,-75.59 1078.43,-68.68"/>
</a>
</g>
</g>
<!-- Node33&#45;&gt;Node15 -->
<g id="edge71_Node000033_Node000015" class="edge">
<title>Node33&#45;&gt;Node15</title>
<g id="a_edge71_Node000033_Node000015"><a xlink:title=" ">
<path fill="none" stroke="#63b8ff" d="M779.98,-453.87C785.61,-435.94 797.91,-396.75 805.52,-372.51"/>
<polygon fill="#63b8ff" stroke="#63b8ff" points="808.81,-373.71 808.47,-363.12 802.14,-371.61 808.81,-373.71"/>
</a>
</g>
</g>
<!-- Node33&#45;&gt;Node20 -->
<g id="edge73_Node000033_Node000020" class="edge">
<title>Node33&#45;&gt;Node20</title>
<g id="a_edge73_Node000033_Node000020"><a xlink:title=" ">
<path fill="none" stroke="#63b8ff" d="M789.38,-453.71C834.06,-418.8 987.38,-299.01 1043.88,-254.88"/>
<polygon fill="#63b8ff" stroke="#63b8ff" points="1045.75,-257.85 1051.48,-248.94 1041.44,-252.34 1045.75,-257.85"/>
</a>
</g>
</g>
<!-- Node33&#45;&gt;Node28 -->
<g id="edge72_Node000033_Node000028" class="edge">
<title>Node33&#45;&gt;Node28</title>
<g id="a_edge72_Node000033_Node000028"><a xlink:title=" ">
<path fill="none" stroke="#63b8ff" d="M809.85,-457.36C860.7,-448.05 959.01,-430.05 1020.87,-418.72"/>
<polygon fill="#63b8ff" stroke="#63b8ff" points="1021.28,-422.2 1030.49,-416.96 1020.02,-415.32 1021.28,-422.2"/>
</a>
</g>
</g>
</g>
</svg>
