<?xml version="1.0" encoding="UTF-8" standalone="no"?>
<!DOCTYPE svg PUBLIC "-//W3C//DTD SVG 1.1//EN"
 "http://www.w3.org/Graphics/SVG/1.1/DTD/svg11.dtd">
<!-- Generated by graphviz version 13.1.2 (20250809.0930)
 -->
<!-- Title: SimJob.h Pages: 1 -->
<svg width="338pt" height="86pt"
 viewBox="0.00 0.00 338.00 86.00" xmlns="http://www.w3.org/2000/svg" xmlns:xlink="http://www.w3.org/1999/xlink">
<g id="graph0" class="graph" transform="scale(1 1) rotate(0) translate(4 81.5)">
<title>SimJob.h</title>
<!-- Node1 -->
<g id="Node000001" class="node">
<title>Node1</title>
<g id="a_Node000001"><a xlink:title="Orchestrates a full simulation run: parse job/subjobs, build the linear system, solve it,...">
<polygon fill="#999999" stroke="#666666" points="195.38,-77.5 136.62,-77.5 136.62,-56.75 195.38,-56.75 195.38,-77.5"/>
<text xml:space="preserve" text-anchor="middle" x="166" y="-64" font-family="Helvetica,sans-Serif" font-size="10.00">SimJob.h</text>
</a>
</g>
</g>
<!-- Node2 -->
<g id="Node000002" class="node">
<title>Node2</title>
<g id="a_Node000002"><a xlink:href="SimJob_8cpp.html" target="_top" xlink:title="Implementation for the SimJob class.">
<polygon fill="white" stroke="#666666" points="70,-20.75 0,-20.75 0,0 70,0 70,-20.75"/>
<text xml:space="preserve" text-anchor="middle" x="35" y="-7.25" font-family="Helvetica,sans-Serif" font-size="10.00">SimJob.cpp</text>
</a>
</g>
</g>
<!-- Node1&#45;&gt;Node2 -->
<g id="edge1_Node000001_Node000002" class="edge">
<title>Node1&#45;&gt;Node2</title>
<g id="a_edge1_Node000001_Node000002"><a xlink:title=" ">
<path fill="none" stroke="#63b8ff" d="M132.14,-51.97C108.93,-42.27 78.74,-29.66 58.22,-21.08"/>
<polygon fill="#63b8ff" stroke="#63b8ff" points="130.61,-55.13 141.18,-55.75 133.31,-48.67 130.61,-55.13"/>
</a>
</g>
</g>
<!-- Node3 -->
<g id="Node000003" class="node">
<title>Node3</title>
<g id="a_Node000003"><a xlink:href="casimir_8cpp.html" target="_top" xlink:title="Main entry point for the HELIOS Casimir force routine.">
<polygon fill="white" stroke="#666666" points="159.75,-20.75 88.25,-20.75 88.25,0 159.75,0 159.75,-20.75"/>
<text xml:space="preserve" text-anchor="middle" x="124" y="-7.25" font-family="Helvetica,sans-Serif" font-size="10.00">casimir.cpp</text>
</a>
</g>
</g>
<!-- Node1&#45;&gt;Node3 -->
<g id="edge2_Node000001_Node000003" class="edge">
<title>Node1&#45;&gt;Node3</title>
<g id="a_edge2_Node000001_Node000003"><a xlink:title=" ">
<path fill="none" stroke="#63b8ff" d="M151.68,-47.46C144.88,-38.59 137.04,-28.37 131.44,-21.08"/>
<polygon fill="#63b8ff" stroke="#63b8ff" points="148.71,-49.33 157.57,-55.14 154.26,-45.07 148.71,-49.33"/>
</a>
</g>
</g>
<!-- Node4 -->
<g id="Node000004" class="node">
<title>Node4</title>
<g id="a_Node000004"><a xlink:href="main_8cpp.html" target="_top" xlink:title="This is the main file for the HELIOS program.">
<polygon fill="white" stroke="#666666" points="238.5,-20.75 177.5,-20.75 177.5,0 238.5,0 238.5,-20.75"/>
<text xml:space="preserve" text-anchor="middle" x="208" y="-7.25" font-family="Helvetica,sans-Serif" font-size="10.00">main.cpp</text>
</a>
</g>
</g>
<!-- Node1&#45;&gt;Node4 -->
<g id="edge3_Node000001_Node000004" class="edge">
<title>Node1&#45;&gt;Node4</title>
<g id="a_edge3_Node000001_Node000004"><a xlink:title=" ">
<path fill="none" stroke="#63b8ff" d="M180.32,-47.46C187.12,-38.59 194.96,-28.37 200.56,-21.08"/>
<polygon fill="#63b8ff" stroke="#63b8ff" points="177.74,-45.07 174.43,-55.14 183.29,-49.33 177.74,-45.07"/>
</a>
</g>
</g>
<!-- Node5 -->
<g id="Node000005" class="node">
<title>Node5</title>
<g id="a_Node000005"><a xlink:href="mainpp_8cpp.html" target="_top" xlink:title="This is the main file for the HELIOS program, specifically the post&#45;processing portion.">
<polygon fill="white" stroke="#666666" points="329.5,-20.75 256.5,-20.75 256.5,0 329.5,0 329.5,-20.75"/>
<text xml:space="preserve" text-anchor="middle" x="293" y="-7.25" font-family="Helvetica,sans-Serif" font-size="10.00">mainpp.cpp</text>
</a>
</g>
</g>
<!-- Node1&#45;&gt;Node5 -->
<g id="edge4_Node000001_Node000005" class="edge">
<title>Node1&#45;&gt;Node5</title>
<g id="a_edge4_Node000001_Node000005"><a xlink:title=" ">
<path fill="none" stroke="#63b8ff" d="M199.13,-51.84C221.59,-42.16 250.69,-29.62 270.49,-21.08"/>
<polygon fill="#63b8ff" stroke="#63b8ff" points="197.89,-48.56 190.09,-55.74 200.66,-54.99 197.89,-48.56"/>
</a>
</g>
</g>
</g>
</svg>
