<?xml version="1.0" encoding="UTF-8" standalone="no"?>
<!DOCTYPE svg PUBLIC "-//W3C//DTD SVG 1.1//EN"
 "http://www.w3.org/Graphics/SVG/1.1/DTD/svg11.dtd">
<!-- Generated by graphviz version 13.1.2 (20250809.0930)
 -->
<!-- Title: JacobiPrecondition Pages: 1 -->
<svg width="462pt" height="29pt"
 viewBox="0.00 0.00 462.00 29.00" xmlns="http://www.w3.org/2000/svg" xmlns:xlink="http://www.w3.org/1999/xlink">
<g id="graph0" class="graph" transform="scale(1 1) rotate(0) translate(4 24.75)">
<title>JacobiPrecondition</title>
<!-- Node1 -->
<g id="Node000001" class="node">
<title>Node1</title>
<g id="a_Node000001"><a xlink:title="Apply Jacobi preconditioning to a complex linear system.">
<polygon fill="#999999" stroke="#666666" points="454,-20.75 348,-20.75 348,0 454,0 454,-20.75"/>
<text xml:space="preserve" text-anchor="middle" x="401" y="-7.25" font-family="Helvetica,sans-Serif" font-size="10.00">JacobiPrecondition</text>
</a>
</g>
</g>
<!-- Node2 -->
<g id="Node000002" class="node">
<title>Node2</title>
<g id="a_Node000002"><a xlink:href="classSimJob.html#a3af5b2630698df72bd1aa6b3efdcbb66" target="_top" xlink:title="Solve the current linear system with the chosen solver.">
<polygon fill="white" stroke="#666666" points="312,-20.75 212,-20.75 212,0 312,0 312,-20.75"/>
<text xml:space="preserve" text-anchor="middle" x="262" y="-7.25" font-family="Helvetica,sans-Serif" font-size="10.00">SimJob::SolveLSE</text>
</a>
</g>
</g>
<!-- Node1&#45;&gt;Node2 -->
<g id="edge1_Node000001_Node000002" class="edge">
<title>Node1&#45;&gt;Node2</title>
<g id="a_edge1_Node000001_Node000002"><a xlink:title=" ">
<path fill="none" stroke="#63b8ff" d="M336.47,-10.38C328.36,-10.38 320.17,-10.38 312.33,-10.38"/>
<polygon fill="#63b8ff" stroke="#63b8ff" points="336.3,-13.88 346.3,-10.38 336.3,-6.88 336.3,-13.88"/>
</a>
</g>
</g>
<!-- Node3 -->
<g id="Node000003" class="node">
<title>Node3</title>
<g id="a_Node000003"><a xlink:href="classSimJob.html#aeca9fd8ceee84fdef75996581fe1093a" target="_top" xlink:title="High&#45;level entry: run a simulation for a given job file.">
<polygon fill="white" stroke="#666666" points="176,-20.75 76.75,-20.75 76.75,0 176,0 176,-20.75"/>
<text xml:space="preserve" text-anchor="middle" x="126.38" y="-7.25" font-family="Helvetica,sans-Serif" font-size="10.00">SimJob::Simulate</text>
</a>
</g>
</g>
<!-- Node2&#45;&gt;Node3 -->
<g id="edge2_Node000002_Node000003" class="edge">
<title>Node2&#45;&gt;Node3</title>
<g id="a_edge2_Node000002_Node000003"><a xlink:title=" ">
<path fill="none" stroke="#63b8ff" d="M200.3,-10.38C192.19,-10.38 183.97,-10.38 176.1,-10.38"/>
<polygon fill="#63b8ff" stroke="#63b8ff" points="200.11,-13.88 210.11,-10.38 200.11,-6.88 200.11,-13.88"/>
</a>
</g>
</g>
<!-- Node4 -->
<g id="Node000004" class="node">
<title>Node4</title>
<g id="a_Node000004"><a xlink:href="main_8cpp.html#a0ddf1224851353fc92bfbff6f499fa97" target="_top" xlink:title="Main driver routine for the HELIOS SIE simulation program.">
<polygon fill="white" stroke="#666666" points="40.75,-20.75 0,-20.75 0,0 40.75,0 40.75,-20.75"/>
<text xml:space="preserve" text-anchor="middle" x="20.38" y="-7.25" font-family="Helvetica,sans-Serif" font-size="10.00">main</text>
</a>
</g>
</g>
<!-- Node3&#45;&gt;Node4 -->
<g id="edge3_Node000003_Node000004" class="edge">
<title>Node3&#45;&gt;Node4</title>
<g id="a_edge3_Node000003_Node000004"><a xlink:title=" ">
<path fill="none" stroke="#63b8ff" d="M64.98,-10.38C56.35,-10.38 48.03,-10.38 41.02,-10.38"/>
<polygon fill="#63b8ff" stroke="#63b8ff" points="64.91,-13.88 74.91,-10.38 64.91,-6.88 64.91,-13.88"/>
</a>
</g>
</g>
</g>
</svg>
