<?xml version="1.0" encoding="UTF-8" standalone="no"?>
<!DOCTYPE svg PUBLIC "-//W3C//DTD SVG 1.1//EN"
 "http://www.w3.org/Graphics/SVG/1.1/DTD/svg11.dtd">
<!-- Generated by graphviz version 13.1.2 (20250809.0930)
 -->
<!-- Title: SingCancellation.h Pages: 1 -->
<svg width="487pt" height="199pt"
 viewBox="0.00 0.00 487.00 199.00" xmlns="http://www.w3.org/2000/svg" xmlns:xlink="http://www.w3.org/1999/xlink">
<g id="graph0" class="graph" transform="scale(1 1) rotate(0) translate(4 195)">
<title>SingCancellation.h</title>
<!-- Node1 -->
<g id="Node000001" class="node">
<title>Node1</title>
<g id="a_Node000001"><a xlink:title="Quadrature point/weight builders for singularity&#45;cancellation on triangles.">
<polygon fill="#999999" stroke="#666666" points="398.25,-191 291.5,-191 291.5,-170.25 398.25,-170.25 398.25,-191"/>
<text xml:space="preserve" text-anchor="middle" x="344.88" y="-177.5" font-family="Helvetica,sans-Serif" font-size="10.00">SingCancellation.h</text>
</a>
</g>
</g>
<!-- Node2 -->
<g id="Node000002" class="node">
<title>Node2</title>
<g id="a_Node000002"><a xlink:href="GreenFLayered3D_8h.html" target="_top" xlink:title="Layered‑medium 3D Green&#39;s function (scalar/gradient/dyadic) + RWG integrals.">
<polygon fill="white" stroke="#666666" points="335.25,-134.25 222.5,-134.25 222.5,-113.5 335.25,-113.5 335.25,-134.25"/>
<text xml:space="preserve" text-anchor="middle" x="278.88" y="-120.75" font-family="Helvetica,sans-Serif" font-size="10.00">GreenFLayered3D.h</text>
</a>
</g>
</g>
<!-- Node1&#45;&gt;Node2 -->
<g id="edge1_Node000001_Node000002" class="edge">
<title>Node1&#45;&gt;Node2</title>
<g id="a_edge1_Node000001_Node000002"><a xlink:title=" ">
<path fill="none" stroke="#63b8ff" d="M324.4,-162.64C313.28,-153.41 299.93,-142.34 290.57,-134.58"/>
<polygon fill="#63b8ff" stroke="#63b8ff" points="321.98,-165.18 331.91,-168.87 326.45,-159.79 321.98,-165.18"/>
</a>
</g>
</g>
<!-- Node10 -->
<g id="Node000010" class="node">
<title>Node10</title>
<g id="a_Node000010"><a xlink:href="SingCancellation_8cpp.html" target="_top" xlink:title="Implementation of the singularity&#45;cancellation paired quadrature builders.">
<polygon fill="white" stroke="#666666" points="470.88,-134.25 352.88,-134.25 352.88,-113.5 470.88,-113.5 470.88,-134.25"/>
<text xml:space="preserve" text-anchor="middle" x="411.88" y="-120.75" font-family="Helvetica,sans-Serif" font-size="10.00">SingCancellation.cpp</text>
</a>
</g>
</g>
<!-- Node1&#45;&gt;Node10 -->
<g id="edge10_Node000001_Node000010" class="edge">
<title>Node1&#45;&gt;Node10</title>
<g id="a_edge10_Node000001_Node000010"><a xlink:title=" ">
<path fill="none" stroke="#63b8ff" d="M365.67,-162.64C376.95,-153.41 390.5,-142.34 400,-134.58"/>
<polygon fill="#63b8ff" stroke="#63b8ff" points="363.55,-159.84 358.03,-168.88 367.98,-165.26 363.55,-159.84"/>
</a>
</g>
</g>
<!-- Node3 -->
<g id="Node000003" class="node">
<title>Node3</title>
<g id="a_Node000003"><a xlink:href="Dipole_8h.html" target="_top" xlink:title="Incident field generator for electric dipole illumination in homogeneous or layered media.">
<polygon fill="white" stroke="#666666" points="187.12,-77.5 130.62,-77.5 130.62,-56.75 187.12,-56.75 187.12,-77.5"/>
<text xml:space="preserve" text-anchor="middle" x="158.88" y="-64" font-family="Helvetica,sans-Serif" font-size="10.00">Dipole.h</text>
</a>
</g>
</g>
<!-- Node2&#45;&gt;Node3 -->
<g id="edge2_Node000002_Node000003" class="edge">
<title>Node2&#45;&gt;Node3</title>
<g id="a_edge2_Node000002_Node000003"><a xlink:title=" ">
<path fill="none" stroke="#63b8ff" d="M246.99,-108.33C225.85,-98.68 198.69,-86.29 180.14,-77.83"/>
<polygon fill="#63b8ff" stroke="#63b8ff" points="245.49,-111.49 256.04,-112.46 248.4,-105.12 245.49,-111.49"/>
</a>
</g>
</g>
<!-- Node7 -->
<g id="Node000007" class="node">
<title>Node7</title>
<g id="a_Node000007"><a xlink:href="DomainLayered3D_8h.html" target="_top" xlink:title="Layered 3D simulation domain (derived from Domain).">
<polygon fill="white" stroke="#666666" points="336.75,-77.5 221,-77.5 221,-56.75 336.75,-56.75 336.75,-77.5"/>
<text xml:space="preserve" text-anchor="middle" x="278.88" y="-64" font-family="Helvetica,sans-Serif" font-size="10.00">DomainLayered3D.h</text>
</a>
</g>
</g>
<!-- Node2&#45;&gt;Node7 -->
<g id="edge6_Node000002_Node000007" class="edge">
<title>Node2&#45;&gt;Node7</title>
<g id="a_edge6_Node000002_Node000007"><a xlink:title=" ">
<path fill="none" stroke="#63b8ff" d="M278.88,-101.63C278.88,-93.41 278.88,-84.43 278.88,-77.83"/>
<polygon fill="#63b8ff" stroke="#63b8ff" points="275.38,-101.57 278.88,-111.57 282.38,-101.57 275.38,-101.57"/>
</a>
</g>
</g>
<!-- Node9 -->
<g id="Node000009" class="node">
<title>Node9</title>
<g id="a_Node000009"><a xlink:href="GreenFLayered3D_8cpp.html" target="_top" xlink:title="Implementation of the 3D Green&#39;s Function class in a layered background.">
<polygon fill="white" stroke="#666666" points="478.88,-77.5 354.88,-77.5 354.88,-56.75 478.88,-56.75 478.88,-77.5"/>
<text xml:space="preserve" text-anchor="middle" x="416.88" y="-64" font-family="Helvetica,sans-Serif" font-size="10.00">GreenFLayered3D.cpp</text>
</a>
</g>
</g>
<!-- Node2&#45;&gt;Node9 -->
<g id="edge9_Node000002_Node000009" class="edge">
<title>Node2&#45;&gt;Node9</title>
<g id="a_edge9_Node000002_Node000009"><a xlink:title=" ">
<path fill="none" stroke="#63b8ff" d="M314.21,-108.86C338.71,-99.14 370.7,-86.44 392.42,-77.83"/>
<polygon fill="#63b8ff" stroke="#63b8ff" points="312.96,-105.59 304.95,-112.53 315.54,-112.09 312.96,-105.59"/>
</a>
</g>
</g>
<!-- Node4 -->
<g id="Node000004" class="node">
<title>Node4</title>
<g id="a_Node000004"><a xlink:href="Dipole_8cpp.html" target="_top" xlink:title="Implementation of the Dipole incident source.">
<polygon fill="white" stroke="#666666" points="67.75,-20.75 0,-20.75 0,0 67.75,0 67.75,-20.75"/>
<text xml:space="preserve" text-anchor="middle" x="33.88" y="-7.25" font-family="Helvetica,sans-Serif" font-size="10.00">Dipole.cpp</text>
</a>
</g>
</g>
<!-- Node3&#45;&gt;Node4 -->
<g id="edge3_Node000003_Node000004" class="edge">
<title>Node3&#45;&gt;Node4</title>
<g id="a_edge3_Node000003_Node000004"><a xlink:title=" ">
<path fill="none" stroke="#63b8ff" d="M126.27,-51.84C104.16,-42.16 75.52,-29.62 56.03,-21.08"/>
<polygon fill="#63b8ff" stroke="#63b8ff" points="124.58,-54.92 135.14,-55.73 127.39,-48.51 124.58,-54.92"/>
</a>
</g>
</g>
<!-- Node5 -->
<g id="Node000005" class="node">
<title>Node5</title>
<g id="a_Node000005"><a xlink:href="DomainHom3D_8cpp.html" target="_top" xlink:title="Implementation of the homogeneous 3D domain.">
<polygon fill="white" stroke="#666666" points="197.5,-20.75 86.25,-20.75 86.25,0 197.5,0 197.5,-20.75"/>
<text xml:space="preserve" text-anchor="middle" x="141.88" y="-7.25" font-family="Helvetica,sans-Serif" font-size="10.00">DomainHom3D.cpp</text>
</a>
</g>
</g>
<!-- Node3&#45;&gt;Node5 -->
<g id="edge4_Node000003_Node000005" class="edge">
<title>Node3&#45;&gt;Node5</title>
<g id="a_edge4_Node000003_Node000005"><a xlink:title=" ">
<path fill="none" stroke="#63b8ff" d="M152.46,-45.46C149.86,-37.09 146.98,-27.83 144.89,-21.08"/>
<polygon fill="#63b8ff" stroke="#63b8ff" points="149.08,-46.38 155.39,-54.89 155.76,-44.3 149.08,-46.38"/>
</a>
</g>
</g>
<!-- Node6 -->
<g id="Node000006" class="node">
<title>Node6</title>
<g id="a_Node000006"><a xlink:href="DomainLayered3D_8cpp.html" target="_top" xlink:title="Implementation of the layered 3D domain.">
<polygon fill="white" stroke="#666666" points="342.38,-20.75 215.38,-20.75 215.38,0 342.38,0 342.38,-20.75"/>
<text xml:space="preserve" text-anchor="middle" x="278.88" y="-7.25" font-family="Helvetica,sans-Serif" font-size="10.00">DomainLayered3D.cpp</text>
</a>
</g>
</g>
<!-- Node3&#45;&gt;Node6 -->
<g id="edge5_Node000003_Node000006" class="edge">
<title>Node3&#45;&gt;Node6</title>
<g id="a_edge5_Node000003_Node000006"><a xlink:title=" ">
<path fill="none" stroke="#63b8ff" d="M190.76,-51.58C211.9,-41.93 239.06,-29.54 257.61,-21.08"/>
<polygon fill="#63b8ff" stroke="#63b8ff" points="189.35,-48.37 181.71,-55.71 192.26,-54.74 189.35,-48.37"/>
</a>
</g>
</g>
<!-- Node7&#45;&gt;Node6 -->
<g id="edge7_Node000007_Node000006" class="edge">
<title>Node7&#45;&gt;Node6</title>
<g id="a_edge7_Node000007_Node000006"><a xlink:title=" ">
<path fill="none" stroke="#63b8ff" d="M278.88,-44.88C278.88,-36.66 278.88,-27.68 278.88,-21.08"/>
<polygon fill="#63b8ff" stroke="#63b8ff" points="275.38,-44.82 278.88,-54.82 282.38,-44.82 275.38,-44.82"/>
</a>
</g>
</g>
<!-- Node8 -->
<g id="Node000008" class="node">
<title>Node8</title>
<g id="a_Node000008"><a xlink:href="SimJob_8cpp.html" target="_top" xlink:title="Implementation for the SimJob class.">
<polygon fill="white" stroke="#666666" points="430.88,-20.75 360.88,-20.75 360.88,0 430.88,0 430.88,-20.75"/>
<text xml:space="preserve" text-anchor="middle" x="395.88" y="-7.25" font-family="Helvetica,sans-Serif" font-size="10.00">SimJob.cpp</text>
</a>
</g>
</g>
<!-- Node7&#45;&gt;Node8 -->
<g id="edge8_Node000007_Node000008" class="edge">
<title>Node7&#45;&gt;Node8</title>
<g id="a_edge8_Node000007_Node000008"><a xlink:title=" ">
<path fill="none" stroke="#63b8ff" d="M309.96,-51.58C330.58,-41.93 357.06,-29.54 375.14,-21.08"/>
<polygon fill="#63b8ff" stroke="#63b8ff" points="308.74,-48.29 301.16,-55.7 311.7,-54.63 308.74,-48.29"/>
</a>
</g>
</g>
</g>
</svg>
