<?xml version="1.0" encoding="UTF-8" standalone="no"?>
<!DOCTYPE svg PUBLIC "-//W3C//DTD SVG 1.1//EN"
 "http://www.w3.org/Graphics/SVG/1.1/DTD/svg11.dtd">
<!-- Generated by graphviz version 13.1.2 (20250809.0930)
 -->
<!-- Title: SingSub.h Pages: 1 -->
<svg width="733pt" height="313pt"
 viewBox="0.00 0.00 733.00 313.00" xmlns="http://www.w3.org/2000/svg" xmlns:xlink="http://www.w3.org/1999/xlink">
<g id="graph0" class="graph" transform="scale(1 1) rotate(0) translate(4 308.5)">
<title>SingSub.h</title>
<!-- Node1 -->
<g id="Node000001" class="node">
<title>Node1</title>
<g id="a_Node000001"><a xlink:title="Exact subtractions for singular/near&#45;singular triangle integrals.">
<polygon fill="#999999" stroke="#666666" points="187.12,-304.5 123.12,-304.5 123.12,-283.75 187.12,-283.75 187.12,-304.5"/>
<text xml:space="preserve" text-anchor="middle" x="155.12" y="-291" font-family="Helvetica,sans-Serif" font-size="10.00">SingSub.h</text>
</a>
</g>
</g>
<!-- Node2 -->
<g id="Node000002" class="node">
<title>Node2</title>
<g id="a_Node000002"><a xlink:title=" ">
<polygon fill="#e0e0e0" stroke="#999999" points="492.5,-77.5 445.75,-77.5 445.75,-56.75 492.5,-56.75 492.5,-77.5"/>
<text xml:space="preserve" text-anchor="middle" x="469.12" y="-64" font-family="Helvetica,sans-Serif" font-size="10.00">vector</text>
</a>
</g>
</g>
<!-- Node1&#45;&gt;Node2 -->
<g id="edge1_Node000001_Node000002" class="edge">
<title>Node1&#45;&gt;Node2</title>
<g id="a_edge1_Node000001_Node000002"><a xlink:title=" ">
<path fill="none" stroke="#63b8ff" d="M187.42,-291.12C264.17,-284.4 457.07,-255.63 538.12,-134.25 551.77,-113.82 526.54,-94.9 502.85,-82.58"/>
<polygon fill="#63b8ff" stroke="#63b8ff" points="504.44,-79.46 493.92,-78.22 501.37,-85.75 504.44,-79.46"/>
</a>
</g>
</g>
<!-- Node3 -->
<g id="Node000003" class="node">
<title>Node3</title>
<g id="a_Node000003"><a xlink:href="RWGFun_8h.html" target="_top" xlink:title="Header for the RWGFun class.">
<polygon fill="white" stroke="#666666" points="219.25,-247.75 153,-247.75 153,-227 219.25,-227 219.25,-247.75"/>
<text xml:space="preserve" text-anchor="middle" x="186.12" y="-234.25" font-family="Helvetica,sans-Serif" font-size="10.00">RWGFun.h</text>
</a>
</g>
</g>
<!-- Node1&#45;&gt;Node3 -->
<g id="edge2_Node000001_Node000003" class="edge">
<title>Node1&#45;&gt;Node3</title>
<g id="a_edge2_Node000001_Node000003"><a xlink:title=" ">
<path fill="none" stroke="#63b8ff" d="M160.67,-283.34C164.63,-276.33 170.11,-266.66 174.97,-258.08"/>
<polygon fill="#63b8ff" stroke="#63b8ff" points="178,-259.82 179.89,-249.4 171.91,-256.37 178,-259.82"/>
</a>
</g>
</g>
<!-- Node11 -->
<g id="Node000011" class="node">
<title>Node11</title>
<g id="a_Node000011"><a xlink:href="Triangle_8h.html" target="_top" xlink:title="Declaration of the Triangle class (surface element with cached geometry).">
<polygon fill="white" stroke="#666666" points="224.75,-134.25 161.5,-134.25 161.5,-113.5 224.75,-113.5 224.75,-134.25"/>
<text xml:space="preserve" text-anchor="middle" x="193.12" y="-120.75" font-family="Helvetica,sans-Serif" font-size="10.00">Triangle.h</text>
</a>
</g>
</g>
<!-- Node1&#45;&gt;Node11 -->
<g id="edge27_Node000001_Node000011" class="edge">
<title>Node1&#45;&gt;Node11</title>
<g id="a_edge27_Node000001_Node000011"><a xlink:title=" ">
<path fill="none" stroke="#63b8ff" d="M151.24,-283.64C146.48,-270.74 139.58,-246.97 144.12,-227 151.12,-196.26 168.57,-163.97 180.64,-144.13"/>
<polygon fill="#63b8ff" stroke="#63b8ff" points="183.54,-146.09 185.88,-135.76 177.61,-142.37 183.54,-146.09"/>
</a>
</g>
</g>
<!-- Node12 -->
<g id="Node000012" class="node">
<title>Node12</title>
<g id="a_Node000012"><a xlink:href="globals_8h.html" target="_top" xlink:title="Global numerical constants, fundamental types, and simple macros.">
<polygon fill="white" stroke="#666666" points="223.25,-77.5 163,-77.5 163,-56.75 223.25,-56.75 223.25,-77.5"/>
<text xml:space="preserve" text-anchor="middle" x="193.12" y="-64" font-family="Helvetica,sans-Serif" font-size="10.00">globals.h</text>
</a>
</g>
</g>
<!-- Node1&#45;&gt;Node12 -->
<g id="edge28_Node000001_Node000012" class="edge">
<title>Node1&#45;&gt;Node12</title>
<g id="a_edge28_Node000001_Node000012"><a xlink:title=" ">
<path fill="none" stroke="#63b8ff" d="M150.56,-283.29C146.64,-274.27 141.29,-260.43 139.12,-247.75 132.67,-210.05 115.87,-174.48 144.12,-113.5 149.39,-102.14 158.93,-92.29 168.21,-84.69"/>
<polygon fill="#63b8ff" stroke="#63b8ff" points="170.15,-87.62 176.02,-78.79 165.93,-82.03 170.15,-87.62"/>
</a>
</g>
</g>
<!-- Node4 -->
<g id="Node000004" class="node">
<title>Node4</title>
<g id="a_Node000004"><a xlink:href="SurfaceMesh_8h.html" target="_top" xlink:title="Declaration of the SurfaceMesh class and mesh edge struct.">
<polygon fill="white" stroke="#666666" points="391.12,-191 303.12,-191 303.12,-170.25 391.12,-170.25 391.12,-191"/>
<text xml:space="preserve" text-anchor="middle" x="347.12" y="-177.5" font-family="Helvetica,sans-Serif" font-size="10.00">SurfaceMesh.h</text>
</a>
</g>
</g>
<!-- Node3&#45;&gt;Node4 -->
<g id="edge3_Node000003_Node000004" class="edge">
<title>Node3&#45;&gt;Node4</title>
<g id="a_edge3_Node000003_Node000004"><a xlink:title=" ">
<path fill="none" stroke="#63b8ff" d="M214.91,-226.59C240.7,-217.82 278.77,-204.87 307.45,-195.12"/>
<polygon fill="#63b8ff" stroke="#63b8ff" points="308.55,-198.44 316.89,-191.91 306.29,-191.81 308.55,-198.44"/>
</a>
</g>
</g>
<!-- Node3&#45;&gt;Node11 -->
<g id="edge25_Node000003_Node000011" class="edge">
<title>Node3&#45;&gt;Node11</title>
<g id="a_edge25_Node000003_Node000011"><a xlink:title=" ">
<path fill="none" stroke="#63b8ff" d="M186.72,-226.87C187.84,-209.02 190.29,-170.11 191.81,-145.84"/>
<polygon fill="#63b8ff" stroke="#63b8ff" points="195.28,-146.39 192.41,-136.19 188.3,-145.95 195.28,-146.39"/>
</a>
</g>
</g>
<!-- Node3&#45;&gt;Node12 -->
<g id="edge26_Node000003_Node000012" class="edge">
<title>Node3&#45;&gt;Node12</title>
<g id="a_edge26_Node000003_Node000012"><a xlink:title=" ">
<path fill="none" stroke="#63b8ff" d="M179.26,-226.61C165.33,-205.54 136.38,-154.4 152.12,-113.5 156.27,-102.73 164.29,-92.93 172.14,-85.21"/>
<polygon fill="#63b8ff" stroke="#63b8ff" points="174.23,-88.04 179.28,-78.73 169.53,-82.85 174.23,-88.04"/>
</a>
</g>
</g>
<!-- Node4&#45;&gt;Node2 -->
<g id="edge6_Node000004_Node000002" class="edge">
<title>Node4&#45;&gt;Node2</title>
<g id="a_edge6_Node000004_Node000002"><a xlink:title=" ">
<path fill="none" stroke="#63b8ff" d="M390.39,-169.77C411.11,-162.99 434.7,-151.91 450.12,-134.25 461.06,-121.72 465.72,-103.27 467.7,-89.03"/>
<polygon fill="#63b8ff" stroke="#63b8ff" points="471.15,-89.68 468.68,-79.37 464.19,-88.97 471.15,-89.68"/>
</a>
</g>
</g>
<!-- Node5 -->
<g id="Node000005" class="node">
<title>Node5</title>
<g id="a_Node000005"><a xlink:title=" ">
<polygon fill="#e0e0e0" stroke="#999999" points="528.62,-134.25 497.62,-134.25 497.62,-113.5 528.62,-113.5 528.62,-134.25"/>
<text xml:space="preserve" text-anchor="middle" x="513.12" y="-120.75" font-family="Helvetica,sans-Serif" font-size="10.00">set</text>
</a>
</g>
</g>
<!-- Node4&#45;&gt;Node5 -->
<g id="edge4_Node000004_Node000005" class="edge">
<title>Node4&#45;&gt;Node5</title>
<g id="a_edge4_Node000004_Node000005"><a xlink:title=" ">
<path fill="none" stroke="#63b8ff" d="M376.8,-169.84C407.92,-159.57 456.39,-143.59 486.37,-133.7"/>
<polygon fill="#63b8ff" stroke="#63b8ff" points="487.41,-137.04 495.81,-130.59 485.21,-130.4 487.41,-137.04"/>
</a>
</g>
</g>
<!-- Node6 -->
<g id="Node000006" class="node">
<title>Node6</title>
<g id="a_Node000006"><a xlink:title=" ">
<polygon fill="#e0e0e0" stroke="#999999" points="325.38,-134.25 280.88,-134.25 280.88,-113.5 325.38,-113.5 325.38,-134.25"/>
<text xml:space="preserve" text-anchor="middle" x="303.12" y="-120.75" font-family="Helvetica,sans-Serif" font-size="10.00">utility</text>
</a>
</g>
</g>
<!-- Node4&#45;&gt;Node6 -->
<g id="edge5_Node000004_Node000006" class="edge">
<title>Node4&#45;&gt;Node6</title>
<g id="a_edge5_Node000004_Node000006"><a xlink:title=" ">
<path fill="none" stroke="#63b8ff" d="M339.26,-169.84C333.38,-162.52 325.16,-152.29 318.05,-143.44"/>
<polygon fill="#63b8ff" stroke="#63b8ff" points="320.86,-141.36 311.87,-135.76 315.41,-145.75 320.86,-141.36"/>
</a>
</g>
</g>
<!-- Node7 -->
<g id="Node000007" class="node">
<title>Node7</title>
<g id="a_Node000007"><a xlink:href="JobParser_8h.html" target="_top" xlink:title="Lightweight XML&#45;like tag parser for the solver job file.">
<polygon fill="white" stroke="#666666" points="654.75,-134.25 585.5,-134.25 585.5,-113.5 654.75,-113.5 654.75,-134.25"/>
<text xml:space="preserve" text-anchor="middle" x="620.12" y="-120.75" font-family="Helvetica,sans-Serif" font-size="10.00">JobParser.h</text>
</a>
</g>
</g>
<!-- Node4&#45;&gt;Node7 -->
<g id="edge7_Node000004_Node000007" class="edge">
<title>Node4&#45;&gt;Node7</title>
<g id="a_edge7_Node000004_Node000007"><a xlink:title=" ">
<path fill="none" stroke="#63b8ff" d="M391.59,-170.71C441.88,-160.62 523.36,-144.28 574.23,-134.08"/>
<polygon fill="#63b8ff" stroke="#63b8ff" points="574.62,-137.57 583.73,-132.17 573.24,-130.71 574.62,-137.57"/>
</a>
</g>
</g>
<!-- Node4&#45;&gt;Node11 -->
<g id="edge12_Node000004_Node000011" class="edge">
<title>Node4&#45;&gt;Node11</title>
<g id="a_edge12_Node000004_Node000011"><a xlink:title=" ">
<path fill="none" stroke="#63b8ff" d="M319.59,-169.84C295.03,-161.11 258.83,-148.23 231.44,-138.5"/>
<polygon fill="#63b8ff" stroke="#63b8ff" points="232.7,-135.23 222.1,-135.18 230.35,-141.83 232.7,-135.23"/>
</a>
</g>
</g>
<!-- Node4&#45;&gt;Node12 -->
<g id="edge19_Node000004_Node000012" class="edge">
<title>Node4&#45;&gt;Node12</title>
<g id="a_edge19_Node000004_Node000012"><a xlink:title=" ">
<path fill="none" stroke="#63b8ff" d="M329.37,-169.9C313.86,-161.17 290.94,-147.7 272.12,-134.25 250.47,-118.78 227.3,-98.95 211.69,-85.06"/>
<polygon fill="#63b8ff" stroke="#63b8ff" points="214.35,-82.74 204.57,-78.66 209.67,-87.95 214.35,-82.74"/>
</a>
</g>
</g>
<!-- Node17 -->
<g id="Node000017" class="node">
<title>Node17</title>
<g id="a_Node000017"><a xlink:href="mathFunctions_8h.html" target="_top" xlink:title="Header file of the class that provides auxiliary mathematical functionalities for the SIE solver.">
<polygon fill="white" stroke="#666666" points="440.62,-134.25 343.62,-134.25 343.62,-113.5 440.62,-113.5 440.62,-134.25"/>
<text xml:space="preserve" text-anchor="middle" x="392.12" y="-120.75" font-family="Helvetica,sans-Serif" font-size="10.00">mathFunctions.h</text>
</a>
</g>
</g>
<!-- Node4&#45;&gt;Node17 -->
<g id="edge20_Node000004_Node000017" class="edge">
<title>Node4&#45;&gt;Node17</title>
<g id="a_edge20_Node000004_Node000017"><a xlink:title=" ">
<path fill="none" stroke="#63b8ff" d="M355.17,-169.84C361.19,-162.52 369.59,-152.29 376.87,-143.44"/>
<polygon fill="#63b8ff" stroke="#63b8ff" points="379.54,-145.7 383.19,-135.75 374.13,-141.25 379.54,-145.7"/>
</a>
</g>
</g>
<!-- Node7&#45;&gt;Node2 -->
<g id="edge11_Node000007_Node000002" class="edge">
<title>Node7&#45;&gt;Node2</title>
<g id="a_edge11_Node000007_Node000002"><a xlink:title=" ">
<path fill="none" stroke="#63b8ff" d="M593.13,-113.09C568.08,-104 530.67,-90.44 503.5,-80.59"/>
<polygon fill="#63b8ff" stroke="#63b8ff" points="504.92,-77.38 494.33,-77.26 502.54,-83.96 504.92,-77.38"/>
</a>
</g>
</g>
<!-- Node8 -->
<g id="Node000008" class="node">
<title>Node8</title>
<g id="a_Node000008"><a xlink:title=" ">
<polygon fill="#e0e0e0" stroke="#999999" points="647.25,-77.5 593,-77.5 593,-56.75 647.25,-56.75 647.25,-77.5"/>
<text xml:space="preserve" text-anchor="middle" x="620.12" y="-64" font-family="Helvetica,sans-Serif" font-size="10.00">fstream</text>
</a>
</g>
</g>
<!-- Node7&#45;&gt;Node8 -->
<g id="edge8_Node000007_Node000008" class="edge">
<title>Node7&#45;&gt;Node8</title>
<g id="a_edge8_Node000007_Node000008"><a xlink:title=" ">
<path fill="none" stroke="#63b8ff" d="M620.12,-113.09C620.12,-106.47 620.12,-97.47 620.12,-89.27"/>
<polygon fill="#63b8ff" stroke="#63b8ff" points="623.63,-89.34 620.13,-79.34 616.63,-89.34 623.63,-89.34"/>
</a>
</g>
</g>
<!-- Node9 -->
<g id="Node000009" class="node">
<title>Node9</title>
<g id="a_Node000009"><a xlink:title=" ">
<polygon fill="#e0e0e0" stroke="#999999" points="724.88,-77.5 665.38,-77.5 665.38,-56.75 724.88,-56.75 724.88,-77.5"/>
<text xml:space="preserve" text-anchor="middle" x="695.12" y="-64" font-family="Helvetica,sans-Serif" font-size="10.00">iostream</text>
</a>
</g>
</g>
<!-- Node7&#45;&gt;Node9 -->
<g id="edge9_Node000007_Node000009" class="edge">
<title>Node7&#45;&gt;Node9</title>
<g id="a_edge9_Node000007_Node000009"><a xlink:title=" ">
<path fill="none" stroke="#63b8ff" d="M633.53,-113.09C644.41,-105.15 659.98,-93.78 672.74,-84.46"/>
<polygon fill="#63b8ff" stroke="#63b8ff" points="674.6,-87.44 680.61,-78.72 670.47,-81.79 674.6,-87.44"/>
</a>
</g>
</g>
<!-- Node10 -->
<g id="Node000010" class="node">
<title>Node10</title>
<g id="a_Node000010"><a xlink:title=" ">
<polygon fill="#e0e0e0" stroke="#999999" points="575,-77.5 531.25,-77.5 531.25,-56.75 575,-56.75 575,-77.5"/>
<text xml:space="preserve" text-anchor="middle" x="553.12" y="-64" font-family="Helvetica,sans-Serif" font-size="10.00">string</text>
</a>
</g>
</g>
<!-- Node7&#45;&gt;Node10 -->
<g id="edge10_Node000007_Node000010" class="edge">
<title>Node7&#45;&gt;Node10</title>
<g id="a_edge10_Node000007_Node000010"><a xlink:title=" ">
<path fill="none" stroke="#63b8ff" d="M608.15,-113.09C598.62,-105.3 585.06,-94.22 573.79,-85.01"/>
<polygon fill="#63b8ff" stroke="#63b8ff" points="576.13,-82.4 566.17,-78.79 571.7,-87.82 576.13,-82.4"/>
</a>
</g>
</g>
<!-- Node11&#45;&gt;Node2 -->
<g id="edge13_Node000011_Node000002" class="edge">
<title>Node11&#45;&gt;Node2</title>
<g id="a_edge13_Node000011_Node000002"><a xlink:title=" ">
<path fill="none" stroke="#63b8ff" d="M225.19,-117.32C271,-109.27 357.77,-93.53 431.12,-77.5 432.29,-77.25 433.47,-76.98 434.66,-76.71"/>
<polygon fill="#63b8ff" stroke="#63b8ff" points="435.05,-80.22 443.98,-74.52 433.44,-73.4 435.05,-80.22"/>
</a>
</g>
</g>
<!-- Node11&#45;&gt;Node12 -->
<g id="edge14_Node000011_Node000012" class="edge">
<title>Node11&#45;&gt;Node12</title>
<g id="a_edge14_Node000011_Node000012"><a xlink:title=" ">
<path fill="none" stroke="#63b8ff" d="M193.12,-113.09C193.12,-106.47 193.12,-97.47 193.12,-89.27"/>
<polygon fill="#63b8ff" stroke="#63b8ff" points="196.63,-89.34 193.13,-79.34 189.63,-89.34 196.63,-89.34"/>
</a>
</g>
</g>
<!-- Node13 -->
<g id="Node000013" class="node">
<title>Node13</title>
<g id="a_Node000013"><a xlink:title=" ">
<polygon fill="#e0e0e0" stroke="#999999" points="187.62,-20.75 114.62,-20.75 114.62,0 187.62,0 187.62,-20.75"/>
<text xml:space="preserve" text-anchor="middle" x="151.12" y="-7.25" font-family="Helvetica,sans-Serif" font-size="10.00">blitz/array.h</text>
</a>
</g>
</g>
<!-- Node12&#45;&gt;Node13 -->
<g id="edge15_Node000012_Node000013" class="edge">
<title>Node12&#45;&gt;Node13</title>
<g id="a_edge15_Node000012_Node000013"><a xlink:title=" ">
<path fill="none" stroke="#63b8ff" d="M185.62,-56.34C180,-49.02 172.16,-38.79 165.37,-29.94"/>
<polygon fill="#63b8ff" stroke="#63b8ff" points="168.35,-28.08 159.49,-22.28 162.8,-32.34 168.35,-28.08"/>
</a>
</g>
</g>
<!-- Node14 -->
<g id="Node000014" class="node">
<title>Node14</title>
<g id="a_Node000014"><a xlink:title=" ">
<polygon fill="#e0e0e0" stroke="#999999" points="296.62,-20.75 205.62,-20.75 205.62,0 296.62,0 296.62,-20.75"/>
<text xml:space="preserve" text-anchor="middle" x="251.12" y="-7.25" font-family="Helvetica,sans-Serif" font-size="10.00">blitz/tinyvec2.h</text>
</a>
</g>
</g>
<!-- Node12&#45;&gt;Node14 -->
<g id="edge16_Node000012_Node000014" class="edge">
<title>Node12&#45;&gt;Node14</title>
<g id="a_edge16_Node000012_Node000014"><a xlink:title=" ">
<path fill="none" stroke="#63b8ff" d="M203.49,-56.34C211.58,-48.71 223.01,-37.92 232.65,-28.82"/>
<polygon fill="#63b8ff" stroke="#63b8ff" points="234.88,-31.53 239.74,-22.12 230.07,-26.44 234.88,-31.53"/>
</a>
</g>
</g>
<!-- Node15 -->
<g id="Node000015" class="node">
<title>Node15</title>
<g id="a_Node000015"><a xlink:title=" ">
<polygon fill="#e0e0e0" stroke="#999999" points="96.25,-20.75 0,-20.75 0,0 96.25,0 96.25,-20.75"/>
<text xml:space="preserve" text-anchor="middle" x="48.12" y="-7.25" font-family="Helvetica,sans-Serif" font-size="10.00">blitz/tvecglobs.h</text>
</a>
</g>
</g>
<!-- Node12&#45;&gt;Node15 -->
<g id="edge17_Node000012_Node000015" class="edge">
<title>Node12&#45;&gt;Node15</title>
<g id="a_edge17_Node000012_Node000015"><a xlink:title=" ">
<path fill="none" stroke="#63b8ff" d="M167.2,-56.34C144.11,-47.62 110.08,-34.77 84.31,-25.04"/>
<polygon fill="#63b8ff" stroke="#63b8ff" points="85.83,-21.87 75.24,-21.61 83.36,-28.42 85.83,-21.87"/>
</a>
</g>
</g>
<!-- Node16 -->
<g id="Node000016" class="node">
<title>Node16</title>
<g id="a_Node000016"><a xlink:title=" ">
<polygon fill="#e0e0e0" stroke="#999999" points="373.12,-20.75 315.12,-20.75 315.12,0 373.12,0 373.12,-20.75"/>
<text xml:space="preserve" text-anchor="middle" x="344.12" y="-7.25" font-family="Helvetica,sans-Serif" font-size="10.00">complex</text>
</a>
</g>
</g>
<!-- Node12&#45;&gt;Node16 -->
<g id="edge18_Node000012_Node000016" class="edge">
<title>Node12&#45;&gt;Node16</title>
<g id="a_edge18_Node000012_Node000016"><a xlink:title=" ">
<path fill="none" stroke="#63b8ff" d="M220.12,-56.34C244.2,-47.61 279.7,-34.73 306.55,-25"/>
<polygon fill="#63b8ff" stroke="#63b8ff" points="307.48,-28.39 315.69,-21.69 305.09,-21.8 307.48,-28.39"/>
</a>
</g>
</g>
<!-- Node17&#45;&gt;Node2 -->
<g id="edge23_Node000017_Node000002" class="edge">
<title>Node17&#45;&gt;Node2</title>
<g id="a_edge23_Node000017_Node000002"><a xlink:title=" ">
<path fill="none" stroke="#63b8ff" d="M405.89,-113.09C417.06,-105.15 433.04,-93.78 446.15,-84.46"/>
<polygon fill="#63b8ff" stroke="#63b8ff" points="448.12,-87.35 454.24,-78.71 444.07,-81.65 448.12,-87.35"/>
</a>
</g>
</g>
<!-- Node17&#45;&gt;Node12 -->
<g id="edge24_Node000017_Node000012" class="edge">
<title>Node17&#45;&gt;Node12</title>
<g id="a_edge24_Node000017_Node000012"><a xlink:title=" ">
<path fill="none" stroke="#63b8ff" d="M356.55,-113.09C322.2,-103.64 270.23,-89.34 234.16,-79.41"/>
<polygon fill="#63b8ff" stroke="#63b8ff" points="235.54,-76.16 224.97,-76.89 233.68,-82.91 235.54,-76.16"/>
</a>
</g>
</g>
<!-- Node17&#45;&gt;Node16 -->
<g id="edge22_Node000017_Node000016" class="edge">
<title>Node17&#45;&gt;Node16</title>
<g id="a_edge22_Node000017_Node000016"><a xlink:title=" ">
<path fill="none" stroke="#63b8ff" d="M384.8,-113.25C378.34,-104.38 369.05,-90.62 363.12,-77.5 356.5,-62.83 351.58,-45.28 348.42,-31.95"/>
<polygon fill="#63b8ff" stroke="#63b8ff" points="351.92,-31.58 346.33,-22.58 345.08,-33.1 351.92,-31.58"/>
</a>
</g>
</g>
<!-- Node18 -->
<g id="Node000018" class="node">
<title>Node18</title>
<g id="a_Node000018"><a xlink:title=" ">
<polygon fill="#e0e0e0" stroke="#999999" points="422.38,-77.5 371.88,-77.5 371.88,-56.75 422.38,-56.75 422.38,-77.5"/>
<text xml:space="preserve" text-anchor="middle" x="397.12" y="-64" font-family="Helvetica,sans-Serif" font-size="10.00">math.h</text>
</a>
</g>
</g>
<!-- Node17&#45;&gt;Node18 -->
<g id="edge21_Node000017_Node000018" class="edge">
<title>Node17&#45;&gt;Node18</title>
<g id="a_edge21_Node000017_Node000018"><a xlink:title=" ">
<path fill="none" stroke="#63b8ff" d="M393.02,-113.09C393.62,-106.47 394.44,-97.47 395.19,-89.27"/>
<polygon fill="#63b8ff" stroke="#63b8ff" points="398.68,-89.61 396.1,-79.34 391.71,-88.98 398.68,-89.61"/>
</a>
</g>
</g>
</g>
</svg>
