<?xml version="1.0" encoding="UTF-8" standalone="no"?>
<!DOCTYPE svg PUBLIC "-//W3C//DTD SVG 1.1//EN"
 "http://www.w3.org/Graphics/SVG/1.1/DTD/svg11.dtd">
<!-- Generated by graphviz version 13.1.2 (20250809.0930)
 -->
<!-- Title: SingCancellation.h Pages: 1 -->
<svg width="672pt" height="313pt"
 viewBox="0.00 0.00 672.00 313.00" xmlns="http://www.w3.org/2000/svg" xmlns:xlink="http://www.w3.org/1999/xlink">
<g id="graph0" class="graph" transform="scale(1 1) rotate(0) translate(4 308.5)">
<title>SingCancellation.h</title>
<!-- Node1 -->
<g id="Node000001" class="node">
<title>Node1</title>
<g id="a_Node000001"><a xlink:title="Quadrature point/weight builders for singularity&#45;cancellation on triangles.">
<polygon fill="#999999" stroke="#666666" points="274.5,-304.5 167.75,-304.5 167.75,-283.75 274.5,-283.75 274.5,-304.5"/>
<text xml:space="preserve" text-anchor="middle" x="221.12" y="-291" font-family="Helvetica,sans-Serif" font-size="10.00">SingCancellation.h</text>
</a>
</g>
</g>
<!-- Node2 -->
<g id="Node000002" class="node">
<title>Node2</title>
<g id="a_Node000002"><a xlink:href="Triangle_8h.html" target="_top" xlink:title="Declaration of the Triangle class (surface element with cached geometry).">
<polygon fill="white" stroke="#666666" points="202.75,-134.25 139.5,-134.25 139.5,-113.5 202.75,-113.5 202.75,-134.25"/>
<text xml:space="preserve" text-anchor="middle" x="171.12" y="-120.75" font-family="Helvetica,sans-Serif" font-size="10.00">Triangle.h</text>
</a>
</g>
</g>
<!-- Node1&#45;&gt;Node2 -->
<g id="edge1_Node000001_Node000002" class="edge">
<title>Node1&#45;&gt;Node2</title>
<g id="a_edge1_Node000001_Node000002"><a xlink:title=" ">
<path fill="none" stroke="#63b8ff" d="M208.36,-283.5C198.46,-275.23 185.4,-262.35 179.12,-247.75 164.76,-214.31 165.96,-171.01 168.38,-145.75"/>
<polygon fill="#63b8ff" stroke="#63b8ff" points="171.82,-146.46 169.47,-136.13 164.87,-145.67 171.82,-146.46"/>
</a>
</g>
</g>
<!-- Node9 -->
<g id="Node000009" class="node">
<title>Node9</title>
<g id="a_Node000009"><a xlink:href="RWGFun_8h.html" target="_top" xlink:title="Header for the RWGFun class.">
<polygon fill="white" stroke="#666666" points="254.25,-247.75 188,-247.75 188,-227 254.25,-227 254.25,-247.75"/>
<text xml:space="preserve" text-anchor="middle" x="221.12" y="-234.25" font-family="Helvetica,sans-Serif" font-size="10.00">RWGFun.h</text>
</a>
</g>
</g>
<!-- Node1&#45;&gt;Node9 -->
<g id="edge8_Node000001_Node000009" class="edge">
<title>Node1&#45;&gt;Node9</title>
<g id="a_edge8_Node000001_Node000009"><a xlink:title=" ">
<path fill="none" stroke="#63b8ff" d="M221.12,-283.34C221.12,-276.72 221.12,-267.72 221.12,-259.52"/>
<polygon fill="#63b8ff" stroke="#63b8ff" points="224.63,-259.59 221.13,-249.59 217.63,-259.59 224.63,-259.59"/>
</a>
</g>
</g>
<!-- Node19 -->
<g id="Node000019" class="node">
<title>Node19</title>
<g id="a_Node000019"><a xlink:href="quadrature_8h.html" target="_top" xlink:title="Declarations of Dunavant (triangle) and Gauss–Legendre (1D) quadrature rules.">
<polygon fill="white" stroke="#666666" points="350.25,-247.75 272,-247.75 272,-227 350.25,-227 350.25,-247.75"/>
<text xml:space="preserve" text-anchor="middle" x="311.12" y="-234.25" font-family="Helvetica,sans-Serif" font-size="10.00">quadrature.h</text>
</a>
</g>
</g>
<!-- Node1&#45;&gt;Node19 -->
<g id="edge27_Node000001_Node000019" class="edge">
<title>Node1&#45;&gt;Node19</title>
<g id="a_edge27_Node000001_Node000019"><a xlink:title=" ">
<path fill="none" stroke="#63b8ff" d="M237.22,-283.34C250.65,-275.16 270.06,-263.36 285.61,-253.9"/>
<polygon fill="#63b8ff" stroke="#63b8ff" points="287.16,-257.05 293.88,-248.87 283.52,-251.07 287.16,-257.05"/>
</a>
</g>
</g>
<!-- Node3 -->
<g id="Node000003" class="node">
<title>Node3</title>
<g id="a_Node000003"><a xlink:title=" ">
<polygon fill="#e0e0e0" stroke="#999999" points="444.5,-77.5 397.75,-77.5 397.75,-56.75 444.5,-56.75 444.5,-77.5"/>
<text xml:space="preserve" text-anchor="middle" x="421.12" y="-64" font-family="Helvetica,sans-Serif" font-size="10.00">vector</text>
</a>
</g>
</g>
<!-- Node2&#45;&gt;Node3 -->
<g id="edge2_Node000002_Node000003" class="edge">
<title>Node2&#45;&gt;Node3</title>
<g id="a_edge2_Node000002_Node000003"><a xlink:title=" ">
<path fill="none" stroke="#63b8ff" d="M203.04,-115.89C250.1,-105.58 337.78,-86.38 386.4,-75.73"/>
<polygon fill="#63b8ff" stroke="#63b8ff" points="387.09,-79.16 396.11,-73.6 385.59,-72.32 387.09,-79.16"/>
</a>
</g>
</g>
<!-- Node4 -->
<g id="Node000004" class="node">
<title>Node4</title>
<g id="a_Node000004"><a xlink:href="globals_8h.html" target="_top" xlink:title="Global numerical constants, fundamental types, and simple macros.">
<polygon fill="white" stroke="#666666" points="231.25,-77.5 171,-77.5 171,-56.75 231.25,-56.75 231.25,-77.5"/>
<text xml:space="preserve" text-anchor="middle" x="201.12" y="-64" font-family="Helvetica,sans-Serif" font-size="10.00">globals.h</text>
</a>
</g>
</g>
<!-- Node2&#45;&gt;Node4 -->
<g id="edge3_Node000002_Node000004" class="edge">
<title>Node2&#45;&gt;Node4</title>
<g id="a_edge3_Node000002_Node000004"><a xlink:title=" ">
<path fill="none" stroke="#63b8ff" d="M176.49,-113.09C180.33,-106.08 185.63,-96.41 190.33,-87.83"/>
<polygon fill="#63b8ff" stroke="#63b8ff" points="193.34,-89.61 195.08,-79.16 187.21,-86.24 193.34,-89.61"/>
</a>
</g>
</g>
<!-- Node5 -->
<g id="Node000005" class="node">
<title>Node5</title>
<g id="a_Node000005"><a xlink:title=" ">
<polygon fill="#e0e0e0" stroke="#999999" points="187.62,-20.75 114.62,-20.75 114.62,0 187.62,0 187.62,-20.75"/>
<text xml:space="preserve" text-anchor="middle" x="151.12" y="-7.25" font-family="Helvetica,sans-Serif" font-size="10.00">blitz/array.h</text>
</a>
</g>
</g>
<!-- Node4&#45;&gt;Node5 -->
<g id="edge4_Node000004_Node000005" class="edge">
<title>Node4&#45;&gt;Node5</title>
<g id="a_edge4_Node000004_Node000005"><a xlink:title=" ">
<path fill="none" stroke="#63b8ff" d="M192.19,-56.34C185.36,-48.86 175.76,-38.36 167.57,-29.38"/>
<polygon fill="#63b8ff" stroke="#63b8ff" points="170.34,-27.22 161.01,-22.2 165.17,-31.94 170.34,-27.22"/>
</a>
</g>
</g>
<!-- Node6 -->
<g id="Node000006" class="node">
<title>Node6</title>
<g id="a_Node000006"><a xlink:title=" ">
<polygon fill="#e0e0e0" stroke="#999999" points="296.62,-20.75 205.62,-20.75 205.62,0 296.62,0 296.62,-20.75"/>
<text xml:space="preserve" text-anchor="middle" x="251.12" y="-7.25" font-family="Helvetica,sans-Serif" font-size="10.00">blitz/tinyvec2.h</text>
</a>
</g>
</g>
<!-- Node4&#45;&gt;Node6 -->
<g id="edge5_Node000004_Node000006" class="edge">
<title>Node4&#45;&gt;Node6</title>
<g id="a_edge5_Node000004_Node000006"><a xlink:title=" ">
<path fill="none" stroke="#63b8ff" d="M210.06,-56.34C216.89,-48.86 226.49,-38.36 234.68,-29.38"/>
<polygon fill="#63b8ff" stroke="#63b8ff" points="237.08,-31.94 241.24,-22.2 231.91,-27.22 237.08,-31.94"/>
</a>
</g>
</g>
<!-- Node7 -->
<g id="Node000007" class="node">
<title>Node7</title>
<g id="a_Node000007"><a xlink:title=" ">
<polygon fill="#e0e0e0" stroke="#999999" points="96.25,-20.75 0,-20.75 0,0 96.25,0 96.25,-20.75"/>
<text xml:space="preserve" text-anchor="middle" x="48.12" y="-7.25" font-family="Helvetica,sans-Serif" font-size="10.00">blitz/tvecglobs.h</text>
</a>
</g>
</g>
<!-- Node4&#45;&gt;Node7 -->
<g id="edge6_Node000004_Node000007" class="edge">
<title>Node4&#45;&gt;Node7</title>
<g id="a_edge6_Node000004_Node000007"><a xlink:title=" ">
<path fill="none" stroke="#63b8ff" d="M173.77,-56.34C149.37,-47.61 113.4,-34.73 86.19,-25"/>
<polygon fill="#63b8ff" stroke="#63b8ff" points="87.52,-21.75 76.92,-21.68 85.16,-28.35 87.52,-21.75"/>
</a>
</g>
</g>
<!-- Node8 -->
<g id="Node000008" class="node">
<title>Node8</title>
<g id="a_Node000008"><a xlink:title=" ">
<polygon fill="#e0e0e0" stroke="#999999" points="373.12,-20.75 315.12,-20.75 315.12,0 373.12,0 373.12,-20.75"/>
<text xml:space="preserve" text-anchor="middle" x="344.12" y="-7.25" font-family="Helvetica,sans-Serif" font-size="10.00">complex</text>
</a>
</g>
</g>
<!-- Node4&#45;&gt;Node8 -->
<g id="edge7_Node000004_Node000008" class="edge">
<title>Node4&#45;&gt;Node8</title>
<g id="a_edge7_Node000004_Node000008"><a xlink:title=" ">
<path fill="none" stroke="#63b8ff" d="M226.69,-56.34C249.36,-47.66 282.72,-34.88 308.1,-25.17"/>
<polygon fill="#63b8ff" stroke="#63b8ff" points="309.28,-28.46 317.37,-21.62 306.78,-21.93 309.28,-28.46"/>
</a>
</g>
</g>
<!-- Node9&#45;&gt;Node2 -->
<g id="edge25_Node000009_Node000002" class="edge">
<title>Node9&#45;&gt;Node2</title>
<g id="a_edge25_Node000009_Node000002"><a xlink:title=" ">
<path fill="none" stroke="#63b8ff" d="M216.86,-226.87C208.78,-208.86 191.09,-169.39 180.23,-145.18"/>
<polygon fill="#63b8ff" stroke="#63b8ff" points="183.42,-143.75 176.14,-136.06 177.04,-146.61 183.42,-143.75"/>
</a>
</g>
</g>
<!-- Node9&#45;&gt;Node4 -->
<g id="edge26_Node000009_Node000004" class="edge">
<title>Node9&#45;&gt;Node4</title>
<g id="a_edge26_Node000009_Node000004"><a xlink:title=" ">
<path fill="none" stroke="#63b8ff" d="M207.62,-226.64C186.32,-210.36 145.76,-175.31 130.12,-134.25 126.84,-125.63 125.7,-121.59 130.12,-113.5 137.39,-100.24 150.36,-90.29 163.25,-83.14"/>
<polygon fill="#63b8ff" stroke="#63b8ff" points="164.75,-86.3 172.11,-78.67 161.6,-80.05 164.75,-86.3"/>
</a>
</g>
</g>
<!-- Node10 -->
<g id="Node000010" class="node">
<title>Node10</title>
<g id="a_Node000010"><a xlink:href="SurfaceMesh_8h.html" target="_top" xlink:title="Declaration of the SurfaceMesh class and mesh edge struct.">
<polygon fill="white" stroke="#666666" points="393.12,-191 305.12,-191 305.12,-170.25 393.12,-170.25 393.12,-191"/>
<text xml:space="preserve" text-anchor="middle" x="349.12" y="-177.5" font-family="Helvetica,sans-Serif" font-size="10.00">SurfaceMesh.h</text>
</a>
</g>
</g>
<!-- Node9&#45;&gt;Node10 -->
<g id="edge9_Node000009_Node000010" class="edge">
<title>Node9&#45;&gt;Node10</title>
<g id="a_edge9_Node000009_Node000010"><a xlink:title=" ">
<path fill="none" stroke="#63b8ff" d="M244.01,-226.59C264.03,-218.02 293.36,-205.48 315.96,-195.81"/>
<polygon fill="#63b8ff" stroke="#63b8ff" points="317.23,-199.07 325.05,-191.92 314.48,-192.64 317.23,-199.07"/>
</a>
</g>
</g>
<!-- Node10&#45;&gt;Node2 -->
<g id="edge18_Node000010_Node000002" class="edge">
<title>Node10&#45;&gt;Node2</title>
<g id="a_edge18_Node000010_Node000002"><a xlink:title=" ">
<path fill="none" stroke="#63b8ff" d="M317.3,-169.84C288.41,-160.95 245.57,-147.77 213.73,-137.98"/>
<polygon fill="#63b8ff" stroke="#63b8ff" points="215.01,-134.71 204.42,-135.12 212.95,-141.4 215.01,-134.71"/>
</a>
</g>
</g>
<!-- Node10&#45;&gt;Node3 -->
<g id="edge12_Node000010_Node000003" class="edge">
<title>Node10&#45;&gt;Node3</title>
<g id="a_edge12_Node000010_Node000003"><a xlink:title=" ">
<path fill="none" stroke="#63b8ff" d="M393.36,-176.58C422.36,-172.01 458.28,-160.92 477.12,-134.25 489.9,-116.17 469.49,-97.03 449.82,-84.02"/>
<polygon fill="#63b8ff" stroke="#63b8ff" points="451.71,-81.07 441.37,-78.78 448.02,-87.02 451.71,-81.07"/>
</a>
</g>
</g>
<!-- Node10&#45;&gt;Node4 -->
<g id="edge19_Node000010_Node000004" class="edge">
<title>Node10&#45;&gt;Node4</title>
<g id="a_edge19_Node000010_Node000004"><a xlink:title=" ">
<path fill="none" stroke="#63b8ff" d="M317.88,-169.9C297.18,-162.41 270.24,-150.57 250.12,-134.25 234.21,-121.34 220.74,-102.14 211.98,-87.75"/>
<polygon fill="#63b8ff" stroke="#63b8ff" points="215.05,-86.06 207,-79.17 209,-89.58 215.05,-86.06"/>
</a>
</g>
</g>
<!-- Node11 -->
<g id="Node000011" class="node">
<title>Node11</title>
<g id="a_Node000011"><a xlink:title=" ">
<polygon fill="#e0e0e0" stroke="#999999" points="405.62,-134.25 374.62,-134.25 374.62,-113.5 405.62,-113.5 405.62,-134.25"/>
<text xml:space="preserve" text-anchor="middle" x="390.12" y="-120.75" font-family="Helvetica,sans-Serif" font-size="10.00">set</text>
</a>
</g>
</g>
<!-- Node10&#45;&gt;Node11 -->
<g id="edge10_Node000010_Node000011" class="edge">
<title>Node10&#45;&gt;Node11</title>
<g id="a_edge10_Node000010_Node000011"><a xlink:title=" ">
<path fill="none" stroke="#63b8ff" d="M356.45,-169.84C361.88,-162.6 369.43,-152.51 376.01,-143.72"/>
<polygon fill="#63b8ff" stroke="#63b8ff" points="378.76,-145.89 381.95,-135.79 373.16,-141.7 378.76,-145.89"/>
</a>
</g>
</g>
<!-- Node12 -->
<g id="Node000012" class="node">
<title>Node12</title>
<g id="a_Node000012"><a xlink:title=" ">
<polygon fill="#e0e0e0" stroke="#999999" points="468.38,-134.25 423.88,-134.25 423.88,-113.5 468.38,-113.5 468.38,-134.25"/>
<text xml:space="preserve" text-anchor="middle" x="446.12" y="-120.75" font-family="Helvetica,sans-Serif" font-size="10.00">utility</text>
</a>
</g>
</g>
<!-- Node10&#45;&gt;Node12 -->
<g id="edge11_Node000010_Node000012" class="edge">
<title>Node10&#45;&gt;Node12</title>
<g id="a_edge11_Node000010_Node000012"><a xlink:title=" ">
<path fill="none" stroke="#63b8ff" d="M366.47,-169.84C381.09,-161.58 402.26,-149.63 419.1,-140.13"/>
<polygon fill="#63b8ff" stroke="#63b8ff" points="420.63,-143.29 427.62,-135.32 417.19,-137.19 420.63,-143.29"/>
</a>
</g>
</g>
<!-- Node13 -->
<g id="Node000013" class="node">
<title>Node13</title>
<g id="a_Node000013"><a xlink:href="JobParser_8h.html" target="_top" xlink:title="Lightweight XML&#45;like tag parser for the solver job file.">
<polygon fill="white" stroke="#666666" points="593.75,-134.25 524.5,-134.25 524.5,-113.5 593.75,-113.5 593.75,-134.25"/>
<text xml:space="preserve" text-anchor="middle" x="559.12" y="-120.75" font-family="Helvetica,sans-Serif" font-size="10.00">JobParser.h</text>
</a>
</g>
</g>
<!-- Node10&#45;&gt;Node13 -->
<g id="edge13_Node000010_Node000013" class="edge">
<title>Node10&#45;&gt;Node13</title>
<g id="a_edge13_Node000010_Node000013"><a xlink:title=" ">
<path fill="none" stroke="#63b8ff" d="M386.67,-169.84C422.1,-160.6 475.31,-146.73 513.25,-136.84"/>
<polygon fill="#63b8ff" stroke="#63b8ff" points="513.74,-140.32 522.54,-134.41 511.98,-133.55 513.74,-140.32"/>
</a>
</g>
</g>
<!-- Node17 -->
<g id="Node000017" class="node">
<title>Node17</title>
<g id="a_Node000017"><a xlink:href="mathFunctions_8h.html" target="_top" xlink:title="Header file of the class that provides auxiliary mathematical functionalities for the SIE solver.">
<polygon fill="white" stroke="#666666" points="356.62,-134.25 259.62,-134.25 259.62,-113.5 356.62,-113.5 356.62,-134.25"/>
<text xml:space="preserve" text-anchor="middle" x="308.12" y="-120.75" font-family="Helvetica,sans-Serif" font-size="10.00">mathFunctions.h</text>
</a>
</g>
</g>
<!-- Node10&#45;&gt;Node17 -->
<g id="edge20_Node000010_Node000017" class="edge">
<title>Node10&#45;&gt;Node17</title>
<g id="a_edge20_Node000010_Node000017"><a xlink:title=" ">
<path fill="none" stroke="#63b8ff" d="M341.8,-169.84C336.37,-162.6 328.82,-152.51 322.24,-143.72"/>
<polygon fill="#63b8ff" stroke="#63b8ff" points="325.09,-141.7 316.3,-135.79 319.49,-145.89 325.09,-141.7"/>
</a>
</g>
</g>
<!-- Node13&#45;&gt;Node3 -->
<g id="edge17_Node000013_Node000003" class="edge">
<title>Node13&#45;&gt;Node3</title>
<g id="a_edge17_Node000013_Node000003"><a xlink:title=" ">
<path fill="none" stroke="#63b8ff" d="M534.45,-113.09C512.4,-104.34 479.88,-91.43 455.32,-81.69"/>
<polygon fill="#63b8ff" stroke="#63b8ff" points="456.65,-78.46 446.07,-78.02 454.07,-84.96 456.65,-78.46"/>
</a>
</g>
</g>
<!-- Node14 -->
<g id="Node000014" class="node">
<title>Node14</title>
<g id="a_Node000014"><a xlink:title=" ">
<polygon fill="#e0e0e0" stroke="#999999" points="586.25,-77.5 532,-77.5 532,-56.75 586.25,-56.75 586.25,-77.5"/>
<text xml:space="preserve" text-anchor="middle" x="559.12" y="-64" font-family="Helvetica,sans-Serif" font-size="10.00">fstream</text>
</a>
</g>
</g>
<!-- Node13&#45;&gt;Node14 -->
<g id="edge14_Node000013_Node000014" class="edge">
<title>Node13&#45;&gt;Node14</title>
<g id="a_edge14_Node000013_Node000014"><a xlink:title=" ">
<path fill="none" stroke="#63b8ff" d="M559.12,-113.09C559.12,-106.47 559.12,-97.47 559.12,-89.27"/>
<polygon fill="#63b8ff" stroke="#63b8ff" points="562.63,-89.34 559.13,-79.34 555.63,-89.34 562.63,-89.34"/>
</a>
</g>
</g>
<!-- Node15 -->
<g id="Node000015" class="node">
<title>Node15</title>
<g id="a_Node000015"><a xlink:title=" ">
<polygon fill="#e0e0e0" stroke="#999999" points="663.88,-77.5 604.38,-77.5 604.38,-56.75 663.88,-56.75 663.88,-77.5"/>
<text xml:space="preserve" text-anchor="middle" x="634.12" y="-64" font-family="Helvetica,sans-Serif" font-size="10.00">iostream</text>
</a>
</g>
</g>
<!-- Node13&#45;&gt;Node15 -->
<g id="edge15_Node000013_Node000015" class="edge">
<title>Node13&#45;&gt;Node15</title>
<g id="a_edge15_Node000013_Node000015"><a xlink:title=" ">
<path fill="none" stroke="#63b8ff" d="M572.53,-113.09C583.41,-105.15 598.98,-93.78 611.74,-84.46"/>
<polygon fill="#63b8ff" stroke="#63b8ff" points="613.6,-87.44 619.61,-78.72 609.47,-81.79 613.6,-87.44"/>
</a>
</g>
</g>
<!-- Node16 -->
<g id="Node000016" class="node">
<title>Node16</title>
<g id="a_Node000016"><a xlink:title=" ">
<polygon fill="#e0e0e0" stroke="#999999" points="514,-77.5 470.25,-77.5 470.25,-56.75 514,-56.75 514,-77.5"/>
<text xml:space="preserve" text-anchor="middle" x="492.12" y="-64" font-family="Helvetica,sans-Serif" font-size="10.00">string</text>
</a>
</g>
</g>
<!-- Node13&#45;&gt;Node16 -->
<g id="edge16_Node000013_Node000016" class="edge">
<title>Node13&#45;&gt;Node16</title>
<g id="a_edge16_Node000013_Node000016"><a xlink:title=" ">
<path fill="none" stroke="#63b8ff" d="M547.15,-113.09C537.62,-105.3 524.06,-94.22 512.79,-85.01"/>
<polygon fill="#63b8ff" stroke="#63b8ff" points="515.13,-82.4 505.17,-78.79 510.7,-87.82 515.13,-82.4"/>
</a>
</g>
</g>
<!-- Node17&#45;&gt;Node3 -->
<g id="edge23_Node000017_Node000003" class="edge">
<title>Node17&#45;&gt;Node3</title>
<g id="a_edge23_Node000017_Node000003"><a xlink:title=" ">
<path fill="none" stroke="#63b8ff" d="M328.33,-113.09C345.68,-104.68 370.96,-92.43 390.75,-82.84"/>
<polygon fill="#63b8ff" stroke="#63b8ff" points="392.26,-86 399.74,-78.49 389.21,-79.7 392.26,-86"/>
</a>
</g>
</g>
<!-- Node17&#45;&gt;Node4 -->
<g id="edge24_Node000017_Node000004" class="edge">
<title>Node17&#45;&gt;Node4</title>
<g id="a_edge24_Node000017_Node000004"><a xlink:title=" ">
<path fill="none" stroke="#63b8ff" d="M289,-113.09C272.64,-104.72 248.85,-92.54 230.15,-82.97"/>
<polygon fill="#63b8ff" stroke="#63b8ff" points="231.93,-79.96 221.44,-78.52 228.74,-86.19 231.93,-79.96"/>
</a>
</g>
</g>
<!-- Node17&#45;&gt;Node8 -->
<g id="edge22_Node000017_Node000008" class="edge">
<title>Node17&#45;&gt;Node8</title>
<g id="a_edge22_Node000017_Node000008"><a xlink:title=" ">
<path fill="none" stroke="#63b8ff" d="M312,-113.22C315.6,-104.08 321.01,-89.96 325.12,-77.5 330.12,-62.37 335.07,-45.06 338.66,-31.94"/>
<polygon fill="#63b8ff" stroke="#63b8ff" points="342.03,-32.89 341.26,-22.33 335.27,-31.07 342.03,-32.89"/>
</a>
</g>
</g>
<!-- Node18 -->
<g id="Node000018" class="node">
<title>Node18</title>
<g id="a_Node000018"><a xlink:title=" ">
<polygon fill="#e0e0e0" stroke="#999999" points="316.38,-77.5 265.88,-77.5 265.88,-56.75 316.38,-56.75 316.38,-77.5"/>
<text xml:space="preserve" text-anchor="middle" x="291.12" y="-64" font-family="Helvetica,sans-Serif" font-size="10.00">math.h</text>
</a>
</g>
</g>
<!-- Node17&#45;&gt;Node18 -->
<g id="edge21_Node000017_Node000018" class="edge">
<title>Node17&#45;&gt;Node18</title>
<g id="a_edge21_Node000017_Node000018"><a xlink:title=" ">
<path fill="none" stroke="#63b8ff" d="M305.09,-113.09C302.98,-106.31 300.11,-97.05 297.51,-88.69"/>
<polygon fill="#63b8ff" stroke="#63b8ff" points="300.89,-87.79 294.59,-79.27 294.21,-89.86 300.89,-87.79"/>
</a>
</g>
</g>
</g>
</svg>
