<?xml version="1.0" encoding="UTF-8" standalone="no"?>
<!DOCTYPE svg PUBLIC "-//W3C//DTD SVG 1.1//EN"
 "http://www.w3.org/Graphics/SVG/1.1/DTD/svg11.dtd">
<!-- Generated by graphviz version 13.1.2 (20250809.0930)
 -->
<!-- Title: SingSub.cpp Pages: 1 -->
<!--zoomable 426 -->

<svg id="main" version="1.1" xmlns="http://www.w3.org/2000/svg" xmlns:xlink="http://www.w3.org/1999/xlink" xml:space="preserve" onload="init(evt)">

<style type="text/css"><![CDATA[
.node, .edge {opacity: 0.7;}
.node.selected, .edge.selected {opacity: 1;}
.edge:hover path { stroke: red; }
.edge:hover polygon { stroke: red; fill: red; }
]]></style>

<defs>
  <circle id="rim" cx="0" cy="0" r="7"/>
  <circle id="rim2" cx="0" cy="0" r="3.5"/>
  <g id="zoomPlus">
    <use xlink:href="#rim" fill="#404040"><set attributeName="fill" to="#808080" begin="zoomplus.mouseover" end="zoomplus.mouseout"/></use>
    <path d="M-4,0h8M0,-4v8" fill="none" stroke="white" stroke-width="1.5" pointer-events="none"/>
  </g>
  <g id="zoomMin">
    <use xlink:href="#rim" fill="#404040"><set attributeName="fill" to="#808080" begin="zoomminus.mouseover" end="zoomminus.mouseout"/></use>
    <path d="M-4,0h8" fill="none" stroke="white" stroke-width="1.5" pointer-events="none"/>
  </g>
  <g id="arrowUp" transform="translate(30 24)">
    <use xlink:href="#rim"/>
    <path pointer-events="none" fill="none" stroke="white" stroke-width="1.5" d="M0,-3.0v7 M-2.5,-0.5L0,-3.0L2.5,-0.5"/>
  </g>
  <g id="arrowRight" transform="rotate(90) translate(36 -43)">
    <use xlink:href="#rim"/>
    <path pointer-events="none" fill="none" stroke="white" stroke-width="1.5" d="M0,-3.0v7 M-2.5,-0.5L0,-3.0L2.5,-0.5"/>
  </g>
  <g id="arrowDown" transform="rotate(180) translate(-30 -48)">
    <use xlink:href="#rim"/>
    <path pointer-events="none" fill="none" stroke="white" stroke-width="1.5" d="M0,-3.0v7 M-2.5,-0.5L0,-3.0L2.5,-0.5"/>
  </g>
  <g id="arrowLeft" transform="rotate(270) translate(-36 17)">
    <use xlink:href="#rim"/>
    <path pointer-events="none" fill="none" stroke="white" stroke-width="1.5" d="M0,-3.0v7 M-2.5,-0.5L0,-3.0L2.5,-0.5"/>
  </g>
  <g id="resetDef">
    <use xlink:href="#rim2" fill="#404040"><set attributeName="fill" to="#808080" begin="reset.mouseover" end="reset.mouseout"/></use>
  </g>
</defs>
<script type="application/ecmascript">
var viewWidth = 709;
var viewHeight = 426;
var sectionId = 'dynsection-0';
</script>
<script type="application/ecmascript" xlink:href="svg.min.js"/>
<svg id="graph" class="graph">
<g id="viewport">
<title>SingSub.cpp</title>
<!-- Node1 -->
<g id="Node000001" class="node">
<title>Node1</title>
<g id="a_Node000001"><a xlink:title="Implementation of exact edge/surface integrals and K1–K4 kernels.">
<polygon fill="#999999" stroke="#666666" points="444.62,-418 369.38,-418 369.38,-397.25 444.62,-397.25 444.62,-418"/>
<text xml:space="preserve" text-anchor="middle" x="407" y="-404.5" font-family="Helvetica,sans-Serif" font-size="10.00">SingSub.cpp</text>
</a>
</g>
</g>
<!-- Node2 -->
<g id="Node000002" class="node">
<title>Node2</title>
<g id="a_Node000002"><a xlink:href="SingSub_8h.html" target="_top" xlink:title="Exact subtractions for singular/near&#45;singular triangle integrals.">
<polygon fill="white" stroke="#666666" points="215,-304.5 151,-304.5 151,-283.75 215,-283.75 215,-304.5"/>
<text xml:space="preserve" text-anchor="middle" x="183" y="-291" font-family="Helvetica,sans-Serif" font-size="10.00">SingSub.h</text>
</a>
</g>
</g>
<!-- Node1&#45;&gt;Node2 -->
<g id="edge1_Node000001_Node000002" class="edge">
<title>Node1&#45;&gt;Node2</title>
<g id="a_edge1_Node000001_Node000002"><a xlink:title=" ">
<path fill="none" stroke="#63b8ff" d="M387.51,-396.93C348.21,-377.36 259.23,-333.07 212.67,-309.89"/>
<polygon fill="#63b8ff" stroke="#63b8ff" points="214.47,-306.88 203.96,-305.56 211.35,-313.15 214.47,-306.88"/>
</a>
</g>
</g>
<!-- Node20 -->
<g id="Node000020" class="node">
<title>Node20</title>
<g id="a_Node000020"><a xlink:title=" ">
<polygon fill="#e0e0e0" stroke="#999999" points="520.38,-247.75 473.62,-247.75 473.62,-227 520.38,-227 520.38,-247.75"/>
<text xml:space="preserve" text-anchor="middle" x="497" y="-234.25" font-family="Helvetica,sans-Serif" font-size="10.00">cmath</text>
</a>
</g>
</g>
<!-- Node1&#45;&gt;Node20 -->
<g id="edge30_Node000001_Node000020" class="edge">
<title>Node1&#45;&gt;Node20</title>
<g id="a_edge30_Node000001_Node000020"><a xlink:title=" ">
<path fill="none" stroke="#63b8ff" d="M416.49,-396.86C432.55,-379.71 464.92,-342.39 481,-304.5 487.15,-290 491.24,-272.66 493.74,-259.37"/>
<polygon fill="#63b8ff" stroke="#63b8ff" points="497.18,-260.04 495.41,-249.6 490.28,-258.86 497.18,-260.04"/>
</a>
</g>
</g>
<!-- Node21 -->
<g id="Node000021" class="node">
<title>Node21</title>
<g id="a_Node000021"><a xlink:href="GreenF_8h.html" target="_top" xlink:title="Abstract base class for electromagnetic Green&#39;s functions.">
<polygon fill="white" stroke="#666666" points="436.38,-361.25 377.62,-361.25 377.62,-340.5 436.38,-340.5 436.38,-361.25"/>
<text xml:space="preserve" text-anchor="middle" x="407" y="-347.75" font-family="Helvetica,sans-Serif" font-size="10.00">GreenF.h</text>
</a>
</g>
</g>
<!-- Node1&#45;&gt;Node21 -->
<g id="edge31_Node000001_Node000021" class="edge">
<title>Node1&#45;&gt;Node21</title>
<g id="a_edge31_Node000001_Node000021"><a xlink:title=" ">
<path fill="none" stroke="#63b8ff" d="M407,-396.84C407,-390.22 407,-381.22 407,-373.02"/>
<polygon fill="#63b8ff" stroke="#63b8ff" points="410.5,-373.09 407,-363.09 403.5,-373.09 410.5,-373.09"/>
</a>
</g>
</g>
<!-- Node3 -->
<g id="Node000003" class="node">
<title>Node3</title>
<g id="a_Node000003"><a xlink:title=" ">
<polygon fill="#e0e0e0" stroke="#999999" points="342.38,-77.5 295.62,-77.5 295.62,-56.75 342.38,-56.75 342.38,-77.5"/>
<text xml:space="preserve" text-anchor="middle" x="319" y="-64" font-family="Helvetica,sans-Serif" font-size="10.00">vector</text>
</a>
</g>
</g>
<!-- Node2&#45;&gt;Node3 -->
<g id="edge2_Node000002_Node000003" class="edge">
<title>Node2&#45;&gt;Node3</title>
<g id="a_edge2_Node000002_Node000003"><a xlink:title=" ">
<path fill="none" stroke="#63b8ff" d="M178.28,-283.26C164.96,-253.86 130.64,-165.65 171,-113.5 184.89,-95.55 244.89,-81.53 284.1,-74.07"/>
<polygon fill="#63b8ff" stroke="#63b8ff" points="284.6,-77.54 293.8,-72.29 283.33,-70.66 284.6,-77.54"/>
</a>
</g>
</g>
<!-- Node4 -->
<g id="Node000004" class="node">
<title>Node4</title>
<g id="a_Node000004"><a xlink:href="RWGFun_8h.html" target="_top" xlink:title="Header for the RWGFun class.">
<polygon fill="white" stroke="#666666" points="246.12,-247.75 179.88,-247.75 179.88,-227 246.12,-227 246.12,-247.75"/>
<text xml:space="preserve" text-anchor="middle" x="213" y="-234.25" font-family="Helvetica,sans-Serif" font-size="10.00">RWGFun.h</text>
</a>
</g>
</g>
<!-- Node2&#45;&gt;Node4 -->
<g id="edge3_Node000002_Node000004" class="edge">
<title>Node2&#45;&gt;Node4</title>
<g id="a_edge3_Node000002_Node000004"><a xlink:title=" ">
<path fill="none" stroke="#63b8ff" d="M188.36,-283.34C192.2,-276.33 197.5,-266.66 202.2,-258.08"/>
<polygon fill="#63b8ff" stroke="#63b8ff" points="205.22,-259.86 206.96,-249.41 199.08,-256.49 205.22,-259.86"/>
</a>
</g>
</g>
<!-- Node12 -->
<g id="Node000012" class="node">
<title>Node12</title>
<g id="a_Node000012"><a xlink:href="Triangle_8h.html" target="_top" xlink:title="Declaration of the Triangle class (surface element with cached geometry).">
<polygon fill="white" stroke="#666666" points="243.62,-134.25 180.38,-134.25 180.38,-113.5 243.62,-113.5 243.62,-134.25"/>
<text xml:space="preserve" text-anchor="middle" x="212" y="-120.75" font-family="Helvetica,sans-Serif" font-size="10.00">Triangle.h</text>
</a>
</g>
</g>
<!-- Node2&#45;&gt;Node12 -->
<g id="edge28_Node000002_Node000012" class="edge">
<title>Node2&#45;&gt;Node12</title>
<g id="a_edge28_Node000002_Node000012"><a xlink:title=" ">
<path fill="none" stroke="#63b8ff" d="M178.91,-283.25C174.08,-270.32 167.15,-246.93 171,-227 176.78,-197.07 191.29,-164.77 201.39,-144.69"/>
<polygon fill="#63b8ff" stroke="#63b8ff" points="204.41,-146.46 205.91,-135.98 198.2,-143.24 204.41,-146.46"/>
</a>
</g>
</g>
<!-- Node13 -->
<g id="Node000013" class="node">
<title>Node13</title>
<g id="a_Node000013"><a xlink:href="globals_8h.html" target="_top" xlink:title="Global numerical constants, fundamental types, and simple macros.">
<polygon fill="white" stroke="#666666" points="242.12,-77.5 181.88,-77.5 181.88,-56.75 242.12,-56.75 242.12,-77.5"/>
<text xml:space="preserve" text-anchor="middle" x="212" y="-64" font-family="Helvetica,sans-Serif" font-size="10.00">globals.h</text>
</a>
</g>
</g>
<!-- Node2&#45;&gt;Node13 -->
<g id="edge29_Node000002_Node000013" class="edge">
<title>Node2&#45;&gt;Node13</title>
<g id="a_edge29_Node000002_Node000013"><a xlink:title=" ">
<path fill="none" stroke="#63b8ff" d="M150.81,-284.47C132.45,-277.7 110.97,-266.25 100,-247.75 95.3,-239.82 98.77,-236.14 100,-227 106.95,-175.17 98.8,-154.7 131,-113.5 141.65,-99.88 157.59,-89.71 172.52,-82.48"/>
<polygon fill="#63b8ff" stroke="#63b8ff" points="173.55,-85.86 181.24,-78.57 170.68,-79.47 173.55,-85.86"/>
</a>
</g>
</g>
<!-- Node5 -->
<g id="Node000005" class="node">
<title>Node5</title>
<g id="a_Node000005"><a xlink:href="SurfaceMesh_8h.html" target="_top" xlink:title="Declaration of the SurfaceMesh class and mesh edge struct.">
<polygon fill="white" stroke="#666666" points="385,-191 297,-191 297,-170.25 385,-170.25 385,-191"/>
<text xml:space="preserve" text-anchor="middle" x="341" y="-177.5" font-family="Helvetica,sans-Serif" font-size="10.00">SurfaceMesh.h</text>
</a>
</g>
</g>
<!-- Node4&#45;&gt;Node5 -->
<g id="edge4_Node000004_Node000005" class="edge">
<title>Node4&#45;&gt;Node5</title>
<g id="a_edge4_Node000004_Node000005"><a xlink:title=" ">
<path fill="none" stroke="#63b8ff" d="M235.88,-226.59C255.91,-218.02 285.24,-205.48 307.83,-195.81"/>
<polygon fill="#63b8ff" stroke="#63b8ff" points="309.1,-199.07 316.92,-191.92 306.35,-192.64 309.1,-199.07"/>
</a>
</g>
</g>
<!-- Node4&#45;&gt;Node12 -->
<g id="edge26_Node000004_Node000012" class="edge">
<title>Node4&#45;&gt;Node12</title>
<g id="a_edge26_Node000004_Node000012"><a xlink:title=" ">
<path fill="none" stroke="#63b8ff" d="M212.91,-226.87C212.76,-209.1 212.41,-170.47 212.19,-146.18"/>
<polygon fill="#63b8ff" stroke="#63b8ff" points="215.69,-146.16 212.1,-136.19 208.69,-146.22 215.69,-146.16"/>
</a>
</g>
</g>
<!-- Node4&#45;&gt;Node13 -->
<g id="edge27_Node000004_Node000013" class="edge">
<title>Node4&#45;&gt;Node13</title>
<g id="a_edge27_Node000004_Node000013"><a xlink:title=" ">
<path fill="none" stroke="#63b8ff" d="M202.38,-226.64C184.93,-209.81 150.81,-173.34 138,-134.25 135.13,-125.49 133.49,-121.55 138,-113.5 145.63,-99.88 159.2,-89.85 172.65,-82.74"/>
<polygon fill="#63b8ff" stroke="#63b8ff" points="173.96,-86 181.46,-78.51 170.93,-79.69 173.96,-86"/>
</a>
</g>
</g>
<!-- Node5&#45;&gt;Node3 -->
<g id="edge7_Node000005_Node000003" class="edge">
<title>Node5&#45;&gt;Node3</title>
<g id="a_edge7_Node000005_Node000003"><a xlink:title=" ">
<path fill="none" stroke="#63b8ff" d="M342.32,-170.06C343.83,-157.06 345.52,-133.19 341,-113.5 338.95,-104.57 334.9,-95.36 330.82,-87.58"/>
<polygon fill="#63b8ff" stroke="#63b8ff" points="333.97,-86.04 326,-79.05 327.88,-89.48 333.97,-86.04"/>
</a>
</g>
</g>
<!-- Node6 -->
<g id="Node000006" class="node">
<title>Node6</title>
<g id="a_Node000006"><a xlink:title=" ">
<polygon fill="#e0e0e0" stroke="#999999" points="331.5,-134.25 300.5,-134.25 300.5,-113.5 331.5,-113.5 331.5,-134.25"/>
<text xml:space="preserve" text-anchor="middle" x="316" y="-120.75" font-family="Helvetica,sans-Serif" font-size="10.00">set</text>
</a>
</g>
</g>
<!-- Node5&#45;&gt;Node6 -->
<g id="edge5_Node000005_Node000006" class="edge">
<title>Node5&#45;&gt;Node6</title>
<g id="a_edge5_Node000005_Node000006"><a xlink:title=" ">
<path fill="none" stroke="#63b8ff" d="M336.53,-169.84C333.37,-162.91 329.01,-153.37 325.13,-144.86"/>
<polygon fill="#63b8ff" stroke="#63b8ff" points="328.4,-143.6 321.06,-135.96 322.03,-146.51 328.4,-143.6"/>
</a>
</g>
</g>
<!-- Node7 -->
<g id="Node000007" class="node">
<title>Node7</title>
<g id="a_Node000007"><a xlink:title=" ">
<polygon fill="#e0e0e0" stroke="#999999" points="635.25,-134.25 590.75,-134.25 590.75,-113.5 635.25,-113.5 635.25,-134.25"/>
<text xml:space="preserve" text-anchor="middle" x="613" y="-120.75" font-family="Helvetica,sans-Serif" font-size="10.00">utility</text>
</a>
</g>
</g>
<!-- Node5&#45;&gt;Node7 -->
<g id="edge6_Node000005_Node000007" class="edge">
<title>Node5&#45;&gt;Node7</title>
<g id="a_edge6_Node000005_Node000007"><a xlink:title=" ">
<path fill="none" stroke="#63b8ff" d="M385.28,-172.76C431.58,-165.25 506.53,-152.19 579.62,-134.64"/>
<polygon fill="#63b8ff" stroke="#63b8ff" points="580.03,-138.14 588.92,-132.38 578.38,-131.34 580.03,-138.14"/>
</a>
</g>
</g>
<!-- Node8 -->
<g id="Node000008" class="node">
<title>Node8</title>
<g id="a_Node000008"><a xlink:href="JobParser_8h.html" target="_top" xlink:title="Lightweight XML&#45;like tag parser for the solver job file.">
<polygon fill="white" stroke="#666666" points="572.62,-134.25 503.38,-134.25 503.38,-113.5 572.62,-113.5 572.62,-134.25"/>
<text xml:space="preserve" text-anchor="middle" x="538" y="-120.75" font-family="Helvetica,sans-Serif" font-size="10.00">JobParser.h</text>
</a>
</g>
</g>
<!-- Node5&#45;&gt;Node8 -->
<g id="edge8_Node000005_Node000008" class="edge">
<title>Node5&#45;&gt;Node8</title>
<g id="a_edge8_Node000005_Node000008"><a xlink:title=" ">
<path fill="none" stroke="#63b8ff" d="M376.22,-169.84C408.58,-160.84 456.73,-147.46 492.09,-137.63"/>
<polygon fill="#63b8ff" stroke="#63b8ff" points="492.93,-141.03 501.63,-134.98 491.05,-134.29 492.93,-141.03"/>
</a>
</g>
</g>
<!-- Node5&#45;&gt;Node12 -->
<g id="edge13_Node000005_Node000012" class="edge">
<title>Node5&#45;&gt;Node12</title>
<g id="a_edge13_Node000005_Node000012"><a xlink:title=" ">
<path fill="none" stroke="#63b8ff" d="M317.94,-169.84C297.76,-161.27 268.2,-148.73 245.43,-139.06"/>
<polygon fill="#63b8ff" stroke="#63b8ff" points="246.83,-135.85 236.26,-135.17 244.09,-142.3 246.83,-135.85"/>
</a>
</g>
</g>
<!-- Node5&#45;&gt;Node13 -->
<g id="edge20_Node000005_Node000013" class="edge">
<title>Node5&#45;&gt;Node13</title>
<g id="a_edge20_Node000005_Node000013"><a xlink:title=" ">
<path fill="none" stroke="#63b8ff" d="M330,-170.12C308.21,-151.29 259.3,-109.01 231.78,-85.22"/>
<polygon fill="#63b8ff" stroke="#63b8ff" points="234.34,-82.81 224.48,-78.91 229.76,-88.1 234.34,-82.81"/>
</a>
</g>
</g>
<!-- Node18 -->
<g id="Node000018" class="node">
<title>Node18</title>
<g id="a_Node000018"><a xlink:href="mathFunctions_8h.html" target="_top" xlink:title="Header file of the class that provides auxiliary mathematical functionalities for the SIE solver.">
<polygon fill="white" stroke="#666666" points="485.5,-134.25 388.5,-134.25 388.5,-113.5 485.5,-113.5 485.5,-134.25"/>
<text xml:space="preserve" text-anchor="middle" x="437" y="-120.75" font-family="Helvetica,sans-Serif" font-size="10.00">mathFunctions.h</text>
</a>
</g>
</g>
<!-- Node5&#45;&gt;Node18 -->
<g id="edge21_Node000005_Node000018" class="edge">
<title>Node5&#45;&gt;Node18</title>
<g id="a_edge21_Node000005_Node000018"><a xlink:title=" ">
<path fill="none" stroke="#63b8ff" d="M358.16,-169.84C372.63,-161.58 393.59,-149.63 410.26,-140.13"/>
<polygon fill="#63b8ff" stroke="#63b8ff" points="411.72,-143.32 418.67,-135.33 408.25,-137.24 411.72,-143.32"/>
</a>
</g>
</g>
<!-- Node8&#45;&gt;Node3 -->
<g id="edge12_Node000008_Node000003" class="edge">
<title>Node8&#45;&gt;Node3</title>
<g id="a_edge12_Node000008_Node000003"><a xlink:title=" ">
<path fill="none" stroke="#63b8ff" d="M502.93,-114.73C467.66,-106.46 411.46,-93.02 353.59,-77.84"/>
<polygon fill="#63b8ff" stroke="#63b8ff" points="354.79,-74.54 344.23,-75.38 353,-81.31 354.79,-74.54"/>
</a>
</g>
</g>
<!-- Node9 -->
<g id="Node000009" class="node">
<title>Node9</title>
<g id="a_Node000009"><a xlink:title=" ">
<polygon fill="#e0e0e0" stroke="#999999" points="523.12,-77.5 468.88,-77.5 468.88,-56.75 523.12,-56.75 523.12,-77.5"/>
<text xml:space="preserve" text-anchor="middle" x="496" y="-64" font-family="Helvetica,sans-Serif" font-size="10.00">fstream</text>
</a>
</g>
</g>
<!-- Node8&#45;&gt;Node9 -->
<g id="edge9_Node000008_Node000009" class="edge">
<title>Node8&#45;&gt;Node9</title>
<g id="a_edge9_Node000008_Node000009"><a xlink:title=" ">
<path fill="none" stroke="#63b8ff" d="M530.49,-113.09C524.88,-105.77 517.03,-95.54 510.24,-86.69"/>
<polygon fill="#63b8ff" stroke="#63b8ff" points="513.23,-84.83 504.36,-79.03 507.67,-89.09 513.23,-84.83"/>
</a>
</g>
</g>
<!-- Node10 -->
<g id="Node000010" class="node">
<title>Node10</title>
<g id="a_Node000010"><a xlink:title=" ">
<polygon fill="#e0e0e0" stroke="#999999" points="669.75,-77.5 610.25,-77.5 610.25,-56.75 669.75,-56.75 669.75,-77.5"/>
<text xml:space="preserve" text-anchor="middle" x="640" y="-64" font-family="Helvetica,sans-Serif" font-size="10.00">iostream</text>
</a>
</g>
</g>
<!-- Node8&#45;&gt;Node10 -->
<g id="edge10_Node000008_Node000010" class="edge">
<title>Node8&#45;&gt;Node10</title>
<g id="a_edge10_Node000008_Node000010"><a xlink:title=" ">
<path fill="none" stroke="#63b8ff" d="M556.24,-113.09C571.68,-104.8 594.09,-92.77 611.84,-83.24"/>
<polygon fill="#63b8ff" stroke="#63b8ff" points="613.43,-86.36 620.59,-78.54 610.12,-80.19 613.43,-86.36"/>
</a>
</g>
</g>
<!-- Node11 -->
<g id="Node000011" class="node">
<title>Node11</title>
<g id="a_Node000011"><a xlink:title=" ">
<polygon fill="#e0e0e0" stroke="#999999" points="584.88,-77.5 541.12,-77.5 541.12,-56.75 584.88,-56.75 584.88,-77.5"/>
<text xml:space="preserve" text-anchor="middle" x="563" y="-64" font-family="Helvetica,sans-Serif" font-size="10.00">string</text>
</a>
</g>
</g>
<!-- Node8&#45;&gt;Node11 -->
<g id="edge11_Node000008_Node000011" class="edge">
<title>Node8&#45;&gt;Node11</title>
<g id="a_edge11_Node000008_Node000011"><a xlink:title=" ">
<path fill="none" stroke="#63b8ff" d="M542.47,-113.09C545.63,-106.16 549.99,-96.62 553.87,-88.11"/>
<polygon fill="#63b8ff" stroke="#63b8ff" points="556.97,-89.76 557.94,-79.21 550.6,-86.85 556.97,-89.76"/>
</a>
</g>
</g>
<!-- Node12&#45;&gt;Node3 -->
<g id="edge14_Node000012_Node000003" class="edge">
<title>Node12&#45;&gt;Node3</title>
<g id="a_edge14_Node000012_Node000003"><a xlink:title=" ">
<path fill="none" stroke="#63b8ff" d="M231.13,-113.09C247.49,-104.72 271.28,-92.54 289.98,-82.97"/>
<polygon fill="#63b8ff" stroke="#63b8ff" points="291.38,-86.19 298.69,-78.52 288.19,-79.96 291.38,-86.19"/>
</a>
</g>
</g>
<!-- Node12&#45;&gt;Node13 -->
<g id="edge15_Node000012_Node000013" class="edge">
<title>Node12&#45;&gt;Node13</title>
<g id="a_edge15_Node000012_Node000013"><a xlink:title=" ">
<path fill="none" stroke="#63b8ff" d="M212,-113.09C212,-106.47 212,-97.47 212,-89.27"/>
<polygon fill="#63b8ff" stroke="#63b8ff" points="215.5,-89.34 212,-79.34 208.5,-89.34 215.5,-89.34"/>
</a>
</g>
</g>
<!-- Node14 -->
<g id="Node000014" class="node">
<title>Node14</title>
<g id="a_Node000014"><a xlink:title=" ">
<polygon fill="#e0e0e0" stroke="#999999" points="628.5,-20.75 555.5,-20.75 555.5,0 628.5,0 628.5,-20.75"/>
<text xml:space="preserve" text-anchor="middle" x="592" y="-7.25" font-family="Helvetica,sans-Serif" font-size="10.00">blitz/array.h</text>
</a>
</g>
</g>
<!-- Node13&#45;&gt;Node14 -->
<g id="edge16_Node000013_Node000014" class="edge">
<title>Node13&#45;&gt;Node14</title>
<g id="a_edge16_Node000013_Node000014"><a xlink:title=" ">
<path fill="none" stroke="#63b8ff" d="M242.45,-61.74C308.34,-52.24 464.56,-29.74 543.93,-18.3"/>
<polygon fill="#63b8ff" stroke="#63b8ff" points="544.16,-21.8 553.56,-16.91 543.17,-14.87 544.16,-21.8"/>
</a>
</g>
</g>
<!-- Node15 -->
<g id="Node000015" class="node">
<title>Node15</title>
<g id="a_Node000015"><a xlink:title=" ">
<polygon fill="#e0e0e0" stroke="#999999" points="313.5,-20.75 222.5,-20.75 222.5,0 313.5,0 313.5,-20.75"/>
<text xml:space="preserve" text-anchor="middle" x="268" y="-7.25" font-family="Helvetica,sans-Serif" font-size="10.00">blitz/tinyvec2.h</text>
</a>
</g>
</g>
<!-- Node13&#45;&gt;Node15 -->
<g id="edge17_Node000013_Node000015" class="edge">
<title>Node13&#45;&gt;Node15</title>
<g id="a_edge17_Node000013_Node000015"><a xlink:title=" ">
<path fill="none" stroke="#63b8ff" d="M222.01,-56.34C229.74,-48.78 240.63,-38.14 249.87,-29.1"/>
<polygon fill="#63b8ff" stroke="#63b8ff" points="252.29,-31.63 256.99,-22.14 247.4,-26.62 252.29,-31.63"/>
</a>
</g>
</g>
<!-- Node16 -->
<g id="Node000016" class="node">
<title>Node16</title>
<g id="a_Node000016"><a xlink:title=" ">
<polygon fill="#e0e0e0" stroke="#999999" points="204.12,-20.75 107.88,-20.75 107.88,0 204.12,0 204.12,-20.75"/>
<text xml:space="preserve" text-anchor="middle" x="156" y="-7.25" font-family="Helvetica,sans-Serif" font-size="10.00">blitz/tvecglobs.h</text>
</a>
</g>
</g>
<!-- Node13&#45;&gt;Node16 -->
<g id="edge18_Node000013_Node000016" class="edge">
<title>Node13&#45;&gt;Node16</title>
<g id="a_edge18_Node000013_Node000016"><a xlink:title=" ">
<path fill="none" stroke="#63b8ff" d="M201.99,-56.34C194.26,-48.78 183.37,-38.14 174.13,-29.1"/>
<polygon fill="#63b8ff" stroke="#63b8ff" points="176.6,-26.62 167.01,-22.14 171.71,-31.63 176.6,-26.62"/>
</a>
</g>
</g>
<!-- Node17 -->
<g id="Node000017" class="node">
<title>Node17</title>
<g id="a_Node000017"><a xlink:title=" ">
<polygon fill="#e0e0e0" stroke="#999999" points="428,-20.75 370,-20.75 370,0 428,0 428,-20.75"/>
<text xml:space="preserve" text-anchor="middle" x="399" y="-7.25" font-family="Helvetica,sans-Serif" font-size="10.00">complex</text>
</a>
</g>
</g>
<!-- Node13&#45;&gt;Node17 -->
<g id="edge19_Node000013_Node000017" class="edge">
<title>Node13&#45;&gt;Node17</title>
<g id="a_edge19_Node000013_Node000017"><a xlink:title=" ">
<path fill="none" stroke="#63b8ff" d="M242.46,-57.21C274.21,-47.91 324.12,-33.3 359.02,-23.08"/>
<polygon fill="#63b8ff" stroke="#63b8ff" points="359.72,-26.52 368.33,-20.35 357.75,-19.8 359.72,-26.52"/>
</a>
</g>
</g>
<!-- Node18&#45;&gt;Node3 -->
<g id="edge24_Node000018_Node000003" class="edge">
<title>Node18&#45;&gt;Node3</title>
<g id="a_edge24_Node000018_Node000003"><a xlink:title=" ">
<path fill="none" stroke="#63b8ff" d="M415.9,-113.09C397.61,-104.6 370.9,-92.2 350.14,-82.58"/>
<polygon fill="#63b8ff" stroke="#63b8ff" points="351.83,-79.5 341.29,-78.47 348.88,-85.85 351.83,-79.5"/>
</a>
</g>
</g>
<!-- Node18&#45;&gt;Node13 -->
<g id="edge25_Node000018_Node000013" class="edge">
<title>Node18&#45;&gt;Node13</title>
<g id="a_edge25_Node000018_Node000013"><a xlink:title=" ">
<path fill="none" stroke="#63b8ff" d="M396.51,-113.02C356.12,-103.2 294.37,-88.17 253.59,-78.25"/>
<polygon fill="#63b8ff" stroke="#63b8ff" points="254.44,-74.85 243.9,-75.89 252.79,-81.65 254.44,-74.85"/>
</a>
</g>
</g>
<!-- Node18&#45;&gt;Node17 -->
<g id="edge23_Node000018_Node000017" class="edge">
<title>Node18&#45;&gt;Node17</title>
<g id="a_edge23_Node000018_Node000017"><a xlink:title=" ">
<path fill="none" stroke="#63b8ff" d="M435.11,-113.3C432.41,-100.29 427.01,-76.4 420,-56.75 416.98,-48.29 412.97,-39.26 409.27,-31.5"/>
<polygon fill="#63b8ff" stroke="#63b8ff" points="412.44,-30.02 404.88,-22.61 406.17,-33.12 412.44,-30.02"/>
</a>
</g>
</g>
<!-- Node19 -->
<g id="Node000019" class="node">
<title>Node19</title>
<g id="a_Node000019"><a xlink:title=" ">
<polygon fill="#e0e0e0" stroke="#999999" points="411.25,-77.5 360.75,-77.5 360.75,-56.75 411.25,-56.75 411.25,-77.5"/>
<text xml:space="preserve" text-anchor="middle" x="386" y="-64" font-family="Helvetica,sans-Serif" font-size="10.00">math.h</text>
</a>
</g>
</g>
<!-- Node18&#45;&gt;Node19 -->
<g id="edge22_Node000018_Node000019" class="edge">
<title>Node18&#45;&gt;Node19</title>
<g id="a_edge22_Node000018_Node000019"><a xlink:title=" ">
<path fill="none" stroke="#63b8ff" d="M427.88,-113.09C420.92,-105.61 411.13,-95.11 402.77,-86.13"/>
<polygon fill="#63b8ff" stroke="#63b8ff" points="405.45,-83.87 396.07,-78.94 400.33,-88.64 405.45,-83.87"/>
</a>
</g>
</g>
<!-- Node21&#45;&gt;Node2 -->
<g id="edge42_Node000021_Node000002" class="edge">
<title>Node21&#45;&gt;Node2</title>
<g id="a_edge42_Node000021_Node000002"><a xlink:title=" ">
<path fill="none" stroke="#63b8ff" d="M377.25,-342.6C338.61,-333.16 270.84,-316.6 226.44,-305.74"/>
<polygon fill="#63b8ff" stroke="#63b8ff" points="227.43,-302.38 216.88,-303.41 225.76,-309.18 227.43,-302.38"/>
</a>
</g>
</g>
<!-- Node21&#45;&gt;Node4 -->
<g id="edge41_Node000021_Node000004" class="edge">
<title>Node21&#45;&gt;Node4</title>
<g id="a_edge41_Node000021_Node000004"><a xlink:title=" ">
<path fill="none" stroke="#63b8ff" d="M387.08,-340.01C369.31,-331.08 342.66,-317.39 320,-304.5 291.29,-288.17 259.15,-268.05 237.66,-254.33"/>
<polygon fill="#63b8ff" stroke="#63b8ff" points="239.61,-251.42 229.3,-248.96 235.83,-257.31 239.61,-251.42"/>
</a>
</g>
</g>
<!-- Node21&#45;&gt;Node7 -->
<g id="edge34_Node000021_Node000007" class="edge">
<title>Node21&#45;&gt;Node7</title>
<g id="a_edge34_Node000021_Node000007"><a xlink:title=" ">
<path fill="none" stroke="#63b8ff" d="M426.68,-340.05C442.29,-331.75 464.19,-318.93 481,-304.5 536.91,-256.51 582.67,-180.54 602.45,-144.76"/>
<polygon fill="#63b8ff" stroke="#63b8ff" points="605.53,-146.43 607.22,-135.97 599.37,-143.09 605.53,-146.43"/>
</a>
</g>
</g>
<!-- Node21&#45;&gt;Node13 -->
<g id="edge43_Node000021_Node000013" class="edge">
<title>Node21&#45;&gt;Node13</title>
<g id="a_edge43_Node000021_Node000013"><a xlink:title=" ">
<path fill="none" stroke="#63b8ff" d="M377.4,-348.16C283.74,-341.95 0,-316.68 0,-238.38 0,-238.38 0,-238.38 0,-179.62 0,-103.44 108.56,-79.2 170.31,-71.57"/>
<polygon fill="#63b8ff" stroke="#63b8ff" points="170.58,-75.06 180.12,-70.46 169.79,-68.1 170.58,-75.06"/>
</a>
</g>
</g>
<!-- Node21&#45;&gt;Node14 -->
<g id="edge32_Node000021_Node000014" class="edge">
<title>Node21&#45;&gt;Node14</title>
<g id="a_edge32_Node000021_Node000014"><a xlink:title=" ">
<path fill="none" stroke="#63b8ff" d="M436.81,-345.12C511.55,-332.35 701,-294.47 701,-238.38 701,-238.38 701,-238.38 701,-122.88 701,-91.9 699.09,-80.33 679,-56.75 667.13,-42.82 649.89,-32.58 633.89,-25.4"/>
<polygon fill="#63b8ff" stroke="#63b8ff" points="635.59,-22.32 625.02,-21.7 632.9,-28.78 635.59,-22.32"/>
</a>
</g>
</g>
<!-- Node21&#45;&gt;Node18 -->
<g id="edge44_Node000021_Node000018" class="edge">
<title>Node21&#45;&gt;Node18</title>
<g id="a_edge44_Node000021_Node000018"><a xlink:title=" ">
<path fill="none" stroke="#63b8ff" d="M409.59,-340.19C411.98,-331.04 415.52,-316.9 418,-304.5 429.35,-247.79 434.21,-179.56 436.04,-145.84"/>
<polygon fill="#63b8ff" stroke="#63b8ff" points="439.51,-146.38 436.52,-136.22 432.52,-146.03 439.51,-146.38"/>
</a>
</g>
</g>
<!-- Node21&#45;&gt;Node20 -->
<g id="edge33_Node000021_Node000020" class="edge">
<title>Node21&#45;&gt;Node20</title>
<g id="a_edge33_Node000021_Node000020"><a xlink:title=" ">
<path fill="none" stroke="#63b8ff" d="M420.81,-340.21C432.27,-331.72 448.48,-318.55 460,-304.5 471.59,-290.35 481.51,-272.06 488.15,-258.3"/>
<polygon fill="#63b8ff" stroke="#63b8ff" points="491.26,-259.92 492.29,-249.38 484.91,-256.98 491.26,-259.92"/>
</a>
</g>
</g>
<!-- Node22 -->
<g id="Node000022" class="node">
<title>Node22</title>
<g id="a_Node000022"><a xlink:href="GaussQuad_8h.html" target="_top" xlink:title="Gaussian quadrature helpers for Green&#39;s functions and incident fields.">
<polygon fill="white" stroke="#666666" points="409.25,-304.5 328.75,-304.5 328.75,-283.75 409.25,-283.75 409.25,-304.5"/>
<text xml:space="preserve" text-anchor="middle" x="369" y="-291" font-family="Helvetica,sans-Serif" font-size="10.00">GaussQuad.h</text>
</a>
</g>
</g>
<!-- Node21&#45;&gt;Node22 -->
<g id="edge35_Node000021_Node000022" class="edge">
<title>Node21&#45;&gt;Node22</title>
<g id="a_edge35_Node000021_Node000022"><a xlink:title=" ">
<path fill="none" stroke="#63b8ff" d="M400.21,-340.09C395.23,-332.92 388.33,-322.98 382.28,-314.26"/>
<polygon fill="#63b8ff" stroke="#63b8ff" points="385.18,-312.29 376.6,-306.07 379.42,-316.28 385.18,-312.29"/>
</a>
</g>
</g>
<!-- Node22&#45;&gt;Node4 -->
<g id="edge38_Node000022_Node000004" class="edge">
<title>Node22&#45;&gt;Node4</title>
<g id="a_edge38_Node000022_Node000004"><a xlink:title=" ">
<path fill="none" stroke="#63b8ff" d="M341.11,-283.34C316.12,-274.57 279.23,-261.62 251.44,-251.87"/>
<polygon fill="#63b8ff" stroke="#63b8ff" points="252.93,-248.68 242.34,-248.67 250.62,-255.29 252.93,-248.68"/>
</a>
</g>
</g>
<!-- Node22&#45;&gt;Node10 -->
<g id="edge37_Node000022_Node000010" class="edge">
<title>Node22&#45;&gt;Node10</title>
<g id="a_edge37_Node000022_Node000010"><a xlink:title=" ">
<path fill="none" stroke="#63b8ff" d="M356.1,-283.26C340.25,-269.92 317.06,-245.67 331,-227 374.4,-168.87 600.6,-192.38 644,-134.25 653.68,-121.29 651.51,-102.62 647.6,-88.42"/>
<polygon fill="#63b8ff" stroke="#63b8ff" points="651.02,-87.62 644.59,-79.2 644.37,-89.79 651.02,-87.62"/>
</a>
</g>
</g>
<!-- Node22&#45;&gt;Node13 -->
<g id="edge39_Node000022_Node000013" class="edge">
<title>Node22&#45;&gt;Node13</title>
<g id="a_edge39_Node000022_Node000013"><a xlink:title=" ">
<path fill="none" stroke="#63b8ff" d="M352.14,-283.4C337.42,-274.67 315.71,-261.19 298,-247.75 237.69,-202 201.92,-203.35 171,-134.25 163.14,-116.69 176.72,-98.2 190.31,-85.25"/>
<polygon fill="#63b8ff" stroke="#63b8ff" points="192.26,-88.2 197.45,-78.96 187.64,-82.95 192.26,-88.2"/>
</a>
</g>
</g>
<!-- Node22&#45;&gt;Node20 -->
<g id="edge36_Node000022_Node000020" class="edge">
<title>Node22&#45;&gt;Node20</title>
<g id="a_edge36_Node000022_Node000020"><a xlink:title=" ">
<path fill="none" stroke="#63b8ff" d="M391.88,-283.34C411.91,-274.77 441.24,-262.23 463.83,-252.56"/>
<polygon fill="#63b8ff" stroke="#63b8ff" points="465.1,-255.82 472.92,-248.67 462.35,-249.39 465.1,-255.82"/>
</a>
</g>
</g>
<!-- Node23 -->
<g id="Node000023" class="node">
<title>Node23</title>
<g id="a_Node000023"><a xlink:href="quadrature_8h.html" target="_top" xlink:title="Declarations of Dunavant (triangle) and Gauss–Legendre (1D) quadrature rules.">
<polygon fill="white" stroke="#666666" points="418.12,-247.75 339.88,-247.75 339.88,-227 418.12,-227 418.12,-247.75"/>
<text xml:space="preserve" text-anchor="middle" x="379" y="-234.25" font-family="Helvetica,sans-Serif" font-size="10.00">quadrature.h</text>
</a>
</g>
</g>
<!-- Node22&#45;&gt;Node23 -->
<g id="edge40_Node000022_Node000023" class="edge">
<title>Node22&#45;&gt;Node23</title>
<g id="a_edge40_Node000022_Node000023"><a xlink:title=" ">
<path fill="none" stroke="#63b8ff" d="M370.79,-283.34C372.01,-276.64 373.68,-267.51 375.19,-259.23"/>
<polygon fill="#63b8ff" stroke="#63b8ff" points="378.6,-260.03 376.96,-249.57 371.72,-258.78 378.6,-260.03"/>
</a>
</g>
</g>
</g>
</svg>

<g id="navigator" transform="translate(0 0)" fill="#404254">
  <rect fill="#f2f5e9" fill-opacity="0.5" stroke="#606060" stroke-width=".5" x="0" y="0" width="60" height="60"/>
  <use id="zoomplus" xlink:href="#zoomPlus" x="17" y="9" onmousedown="handleZoom(evt,'in')"/>
  <use id="zoomminus" xlink:href="#zoomMin" x="42" y="9" onmousedown="handleZoom(evt,'out')"/>
  <use id="reset" xlink:href="#resetDef" x="30" y="36" onmousedown="handleReset()"/>
   <use id="arrowup" xlink:href="#arrowUp" x="0" y="0" onmousedown="handlePan(0,-1)"/>
  <use id="arrowright" xlink:href="#arrowRight" x="0" y="0" onmousedown="handlePan(1,0)"/>
  <use id="arrowdown" xlink:href="#arrowDown" x="0" y="0" onmousedown="handlePan(0,1)"/>
  <use id="arrowleft" xlink:href="#arrowLeft" x="0" y="0" onmousedown="handlePan(-1,0)"/>
</g>
<svg viewBox="0 0 15 15" width="100%" height="30px" preserveAspectRatio="xMaxYMin meet">
 <g id="arrow_out" transform="scale(0.3 0.3)">
  <a xlink:href="SingSub_8cpp__incl_org.svg" target="_base">
   <rect id="button" ry="5" rx="5" y="6" x="6" height="38" width="38"
        fill="#f2f5e9" fill-opacity="0.5" stroke="#606060" stroke-width="1.0"/>
   <path id="arrow"
     d="M 11.500037,31.436501 C 11.940474,20.09759 22.043105,11.32322 32.158766,21.979434 L 37.068811,17.246167 C 37.068811,17.246167 37.088388,32 37.088388,32 L 22.160133,31.978069 C 22.160133,31.978069 26.997745,27.140456 26.997745,27.140456 C 18.528582,18.264221 13.291696,25.230495 11.500037,31.436501 z"
     style="fill:#404040;"/>
  </a>
 </g>
</svg>

<style type='text/css'>
<![CDATA[
[data-mouse-over-selected='false'] { opacity: 0.7; }
[data-mouse-over-selected='true']  { opacity: 1.0; }
]]>
</style>
<script type="application/ecmascript"><![CDATA[
document.addEventListener('DOMContentLoaded', (event) => {
  highlightEdges();
  highlightAdjacentNodes();
});
]]></script>
</svg>
