<?xml version="1.0" encoding="UTF-8" standalone="no"?>
<!DOCTYPE svg PUBLIC "-//W3C//DTD SVG 1.1//EN"
 "http://www.w3.org/Graphics/SVG/1.1/DTD/svg11.dtd">
<!-- Generated by graphviz version 13.1.2 (20250809.0930)
 -->
<!-- Title: SommerfeldIntegrator.h Pages: 1 -->
<svg width="552pt" height="199pt"
 viewBox="0.00 0.00 552.00 199.00" xmlns="http://www.w3.org/2000/svg" xmlns:xlink="http://www.w3.org/1999/xlink">
<g id="graph0" class="graph" transform="scale(1 1) rotate(0) translate(4 195)">
<title>SommerfeldIntegrator.h</title>
<!-- Node1 -->
<g id="Node000001" class="node">
<title>Node1</title>
<g id="a_Node000001"><a xlink:title="Declaration of the SommerfeldIntegrator class, which evaluates Sommerfeld&#45;type integrals for layered ...">
<polygon fill="#999999" stroke="#666666" points="352.12,-191 219.88,-191 219.88,-170.25 352.12,-170.25 352.12,-191"/>
<text xml:space="preserve" text-anchor="middle" x="286" y="-177.5" font-family="Helvetica,sans-Serif" font-size="10.00">SommerfeldIntegrator.h</text>
</a>
</g>
</g>
<!-- Node2 -->
<g id="Node000002" class="node">
<title>Node2</title>
<g id="a_Node000002"><a xlink:href="DomainLayered3D_8cpp.html" target="_top" xlink:title="Implementation of the layered 3D domain.">
<polygon fill="white" stroke="#666666" points="328.5,-20.75 201.5,-20.75 201.5,0 328.5,0 328.5,-20.75"/>
<text xml:space="preserve" text-anchor="middle" x="265" y="-7.25" font-family="Helvetica,sans-Serif" font-size="10.00">DomainLayered3D.cpp</text>
</a>
</g>
</g>
<!-- Node1&#45;&gt;Node2 -->
<g id="edge1_Node000001_Node000002" class="edge">
<title>Node1&#45;&gt;Node2</title>
<g id="a_edge1_Node000001_Node000002"><a xlink:title=" ">
<path fill="none" stroke="#63b8ff" d="M283.41,-158.91C278.86,-122.4 269.57,-47.96 266.23,-21.22"/>
<polygon fill="#63b8ff" stroke="#63b8ff" points="279.91,-159.11 284.62,-168.6 286.86,-158.24 279.91,-159.11"/>
</a>
</g>
</g>
<!-- Node3 -->
<g id="Node000003" class="node">
<title>Node3</title>
<g id="a_Node000003"><a xlink:href="GreenFLayered3D_8h.html" target="_top" xlink:title="Layered‑medium 3D Green&#39;s function (scalar/gradient/dyadic) + RWG integrals.">
<polygon fill="white" stroke="#666666" points="257.38,-134.25 144.62,-134.25 144.62,-113.5 257.38,-113.5 257.38,-134.25"/>
<text xml:space="preserve" text-anchor="middle" x="201" y="-120.75" font-family="Helvetica,sans-Serif" font-size="10.00">GreenFLayered3D.h</text>
</a>
</g>
</g>
<!-- Node1&#45;&gt;Node3 -->
<g id="edge2_Node000001_Node000003" class="edge">
<title>Node1&#45;&gt;Node3</title>
<g id="a_edge2_Node000001_Node000003"><a xlink:title=" ">
<path fill="none" stroke="#63b8ff" d="M261.33,-163.73C246.69,-154.3 228.6,-142.65 216.06,-134.58"/>
<polygon fill="#63b8ff" stroke="#63b8ff" points="259.23,-166.54 269.53,-169.02 263.02,-160.66 259.23,-166.54"/>
</a>
</g>
</g>
<!-- Node10 -->
<g id="Node000010" class="node">
<title>Node10</title>
<g id="a_Node000010"><a xlink:href="SommerfeldIntegrator_8cpp.html" target="_top" xlink:title="Implementation of SommerfeldIntegrator: contour construction, integrand assembly, QUADPACK integratio...">
<polygon fill="white" stroke="#666666" points="457.75,-134.25 314.25,-134.25 314.25,-113.5 457.75,-113.5 457.75,-134.25"/>
<text xml:space="preserve" text-anchor="middle" x="386" y="-120.75" font-family="Helvetica,sans-Serif" font-size="10.00">SommerfeldIntegrator.cpp</text>
</a>
</g>
</g>
<!-- Node1&#45;&gt;Node10 -->
<g id="edge11_Node000001_Node000010" class="edge">
<title>Node1&#45;&gt;Node10</title>
<g id="a_edge11_Node000001_Node000010"><a xlink:title=" ">
<path fill="none" stroke="#63b8ff" d="M313.54,-164.54C331.02,-154.98 353.11,-142.88 368.28,-134.58"/>
<polygon fill="#63b8ff" stroke="#63b8ff" points="312.3,-161.24 305.21,-169.11 315.66,-167.38 312.3,-161.24"/>
</a>
</g>
</g>
<!-- Node4 -->
<g id="Node000004" class="node">
<title>Node4</title>
<g id="a_Node000004"><a xlink:href="Dipole_8h.html" target="_top" xlink:title="Incident field generator for electric dipole illumination in homogeneous or layered media.">
<polygon fill="white" stroke="#666666" points="410.25,-77.5 353.75,-77.5 353.75,-56.75 410.25,-56.75 410.25,-77.5"/>
<text xml:space="preserve" text-anchor="middle" x="382" y="-64" font-family="Helvetica,sans-Serif" font-size="10.00">Dipole.h</text>
</a>
</g>
</g>
<!-- Node3&#45;&gt;Node4 -->
<g id="edge3_Node000003_Node000004" class="edge">
<title>Node3&#45;&gt;Node4</title>
<g id="a_edge3_Node000003_Node000004"><a xlink:title=" ">
<path fill="none" stroke="#63b8ff" d="M244.32,-109.77C278.15,-99.54 324.18,-85.62 353.49,-76.75"/>
<polygon fill="#63b8ff" stroke="#63b8ff" points="243.37,-106.4 234.81,-112.65 245.39,-113.1 243.37,-106.4"/>
</a>
</g>
</g>
<!-- Node7 -->
<g id="Node000007" class="node">
<title>Node7</title>
<g id="a_Node000007"><a xlink:href="DomainLayered3D_8h.html" target="_top" xlink:title="Layered 3D simulation domain (derived from Domain).">
<polygon fill="white" stroke="#666666" points="257.88,-77.5 142.12,-77.5 142.12,-56.75 257.88,-56.75 257.88,-77.5"/>
<text xml:space="preserve" text-anchor="middle" x="200" y="-64" font-family="Helvetica,sans-Serif" font-size="10.00">DomainLayered3D.h</text>
</a>
</g>
</g>
<!-- Node3&#45;&gt;Node7 -->
<g id="edge7_Node000003_Node000007" class="edge">
<title>Node3&#45;&gt;Node7</title>
<g id="a_edge7_Node000003_Node000007"><a xlink:title=" ">
<path fill="none" stroke="#63b8ff" d="M200.61,-101.63C200.46,-93.41 200.3,-84.43 200.18,-77.83"/>
<polygon fill="#63b8ff" stroke="#63b8ff" points="197.11,-101.64 200.79,-111.57 204.11,-101.51 197.11,-101.64"/>
</a>
</g>
</g>
<!-- Node9 -->
<g id="Node000009" class="node">
<title>Node9</title>
<g id="a_Node000009"><a xlink:href="GreenFLayered3D_8cpp.html" target="_top" xlink:title="Implementation of the 3D Green&#39;s Function class in a layered background.">
<polygon fill="white" stroke="#666666" points="124,-77.5 0,-77.5 0,-56.75 124,-56.75 124,-77.5"/>
<text xml:space="preserve" text-anchor="middle" x="62" y="-64" font-family="Helvetica,sans-Serif" font-size="10.00">GreenFLayered3D.cpp</text>
</a>
</g>
</g>
<!-- Node3&#45;&gt;Node9 -->
<g id="edge10_Node000003_Node000009" class="edge">
<title>Node3&#45;&gt;Node9</title>
<g id="a_edge10_Node000003_Node000009"><a xlink:title=" ">
<path fill="none" stroke="#63b8ff" d="M165.74,-108.99C141.03,-99.25 108.61,-86.48 86.64,-77.83"/>
<polygon fill="#63b8ff" stroke="#63b8ff" points="164.15,-112.12 174.74,-112.53 166.72,-105.61 164.15,-112.12"/>
</a>
</g>
</g>
<!-- Node4&#45;&gt;Node2 -->
<g id="edge6_Node000004_Node000002" class="edge">
<title>Node4&#45;&gt;Node2</title>
<g id="a_edge6_Node000004_Node000002"><a xlink:title=" ">
<path fill="none" stroke="#63b8ff" d="M350.91,-51.58C330.3,-41.93 303.82,-29.54 285.74,-21.08"/>
<polygon fill="#63b8ff" stroke="#63b8ff" points="349.17,-54.63 359.71,-55.7 352.14,-48.29 349.17,-54.63"/>
</a>
</g>
</g>
<!-- Node5 -->
<g id="Node000005" class="node">
<title>Node5</title>
<g id="a_Node000005"><a xlink:href="Dipole_8cpp.html" target="_top" xlink:title="Implementation of the Dipole incident source.">
<polygon fill="white" stroke="#666666" points="543.88,-20.75 476.12,-20.75 476.12,0 543.88,0 543.88,-20.75"/>
<text xml:space="preserve" text-anchor="middle" x="510" y="-7.25" font-family="Helvetica,sans-Serif" font-size="10.00">Dipole.cpp</text>
</a>
</g>
</g>
<!-- Node4&#45;&gt;Node5 -->
<g id="edge4_Node000004_Node000005" class="edge">
<title>Node4&#45;&gt;Node5</title>
<g id="a_edge4_Node000004_Node000005"><a xlink:title=" ">
<path fill="none" stroke="#63b8ff" d="M415.39,-51.84C438.03,-42.16 467.35,-29.62 487.31,-21.08"/>
<polygon fill="#63b8ff" stroke="#63b8ff" points="414.09,-48.59 406.28,-55.74 416.85,-55.03 414.09,-48.59"/>
</a>
</g>
</g>
<!-- Node6 -->
<g id="Node000006" class="node">
<title>Node6</title>
<g id="a_Node000006"><a xlink:href="DomainHom3D_8cpp.html" target="_top" xlink:title="Implementation of the homogeneous 3D domain.">
<polygon fill="white" stroke="#666666" points="457.62,-20.75 346.38,-20.75 346.38,0 457.62,0 457.62,-20.75"/>
<text xml:space="preserve" text-anchor="middle" x="402" y="-7.25" font-family="Helvetica,sans-Serif" font-size="10.00">DomainHom3D.cpp</text>
</a>
</g>
</g>
<!-- Node4&#45;&gt;Node6 -->
<g id="edge5_Node000004_Node000006" class="edge">
<title>Node4&#45;&gt;Node6</title>
<g id="a_edge5_Node000004_Node000006"><a xlink:title=" ">
<path fill="none" stroke="#63b8ff" d="M389.44,-45.74C392.53,-37.3 395.96,-27.91 398.46,-21.08"/>
<polygon fill="#63b8ff" stroke="#63b8ff" points="386.24,-44.32 386.09,-54.92 392.81,-46.72 386.24,-44.32"/>
</a>
</g>
</g>
<!-- Node7&#45;&gt;Node2 -->
<g id="edge8_Node000007_Node000002" class="edge">
<title>Node7&#45;&gt;Node2</title>
<g id="a_edge8_Node000007_Node000002"><a xlink:title=" ">
<path fill="none" stroke="#63b8ff" d="M220.17,-49.14C231.12,-39.91 244.27,-28.84 253.48,-21.08"/>
<polygon fill="#63b8ff" stroke="#63b8ff" points="218.17,-46.24 212.78,-55.36 222.68,-51.6 218.17,-46.24"/>
</a>
</g>
</g>
<!-- Node8 -->
<g id="Node000008" class="node">
<title>Node8</title>
<g id="a_Node000008"><a xlink:href="SimJob_8cpp.html" target="_top" xlink:title="Implementation for the SimJob class.">
<polygon fill="white" stroke="#666666" points="183,-20.75 113,-20.75 113,0 183,0 183,-20.75"/>
<text xml:space="preserve" text-anchor="middle" x="148" y="-7.25" font-family="Helvetica,sans-Serif" font-size="10.00">SimJob.cpp</text>
</a>
</g>
</g>
<!-- Node7&#45;&gt;Node8 -->
<g id="edge9_Node000007_Node000008" class="edge">
<title>Node7&#45;&gt;Node8</title>
<g id="a_edge9_Node000007_Node000008"><a xlink:title=" ">
<path fill="none" stroke="#63b8ff" d="M182.8,-48.02C174.27,-39.03 164.29,-28.53 157.22,-21.08"/>
<polygon fill="#63b8ff" stroke="#63b8ff" points="180.24,-50.4 189.66,-55.24 185.31,-45.58 180.24,-50.4"/>
</a>
</g>
</g>
</g>
</svg>
