<?xml version="1.0" encoding="UTF-8" standalone="no"?>
<!DOCTYPE svg PUBLIC "-//W3C//DTD SVG 1.1//EN"
 "http://www.w3.org/Graphics/SVG/1.1/DTD/svg11.dtd">
<!-- Generated by graphviz version 13.1.2 (20250809.0930)
 -->
<!-- Title: zbesh_ Pages: 1 -->
<svg width="630pt" height="148pt"
 viewBox="0.00 0.00 630.00 148.00" xmlns="http://www.w3.org/2000/svg" xmlns:xlink="http://www.w3.org/1999/xlink">
<g id="graph0" class="graph" transform="scale(1 1) rotate(0) translate(4 144.07)">
<title>zbesh_</title>
<!-- Node1 -->
<g id="Node000001" class="node">
<title>Node1</title>
<g id="a_Node000001"><a xlink:title="Compute complex Hankel functions of the first kind or second kind .">
<polygon fill="#999999" stroke="#666666" points="621.5,-96.12 571.75,-96.12 571.75,-75.38 621.5,-75.38 621.5,-96.12"/>
<text xml:space="preserve" text-anchor="middle" x="596.62" y="-82.62" font-family="Helvetica,sans-Serif" font-size="10.00">zbesh_</text>
</a>
</g>
</g>
<!-- Node2 -->
<g id="Node000002" class="node">
<title>Node2</title>
<g id="a_Node000002"><a xlink:href="SommerfeldIntegrator_8cpp.html#aa15340ecd95146df9ef36735f56c3417" target="_top" xlink:title="Computes the Hankel function .">
<polygon fill="white" stroke="#666666" points="535.75,-96.12 480,-96.12 480,-75.38 535.75,-75.38 535.75,-96.12"/>
<text xml:space="preserve" text-anchor="middle" x="507.88" y="-82.62" font-family="Helvetica,sans-Serif" font-size="10.00">hankelH</text>
</a>
</g>
</g>
<!-- Node1&#45;&gt;Node2 -->
<g id="edge1_Node000001_Node000002" class="edge">
<title>Node1&#45;&gt;Node2</title>
<g id="a_edge1_Node000001_Node000002"><a xlink:title=" ">
<path fill="none" stroke="#63b8ff" d="M560.07,-85.75C552.02,-85.75 543.6,-85.75 535.96,-85.75"/>
<polygon fill="#63b8ff" stroke="#63b8ff" points="559.95,-89.25 569.95,-85.75 559.95,-82.25 559.95,-89.25"/>
</a>
</g>
</g>
<!-- Node3 -->
<g id="Node000003" class="node">
<title>Node3</title>
<g id="a_Node000003"><a xlink:href="classSommerfeldIntegrator.html#a9467786ef80af13f1b6f4317fb6ae80a" target="_top" xlink:title="Computes the inter&#45;layer Green&#39;s function integrand.">
<polygon fill="white" stroke="#666666" points="444,-128.5 320,-128.5 320,-95 444,-95 444,-128.5"/>
<text xml:space="preserve" text-anchor="start" x="328" y="-115" font-family="Helvetica,sans-Serif" font-size="10.00">SommerfeldIntegrator</text>
<text xml:space="preserve" text-anchor="middle" x="382" y="-102.25" font-family="Helvetica,sans-Serif" font-size="10.00">::InterIntegrand</text>
</a>
</g>
</g>
<!-- Node2&#45;&gt;Node3 -->
<g id="edge2_Node000002_Node000003" class="edge">
<title>Node2&#45;&gt;Node3</title>
<g id="a_edge2_Node000002_Node000003"><a xlink:title=" ">
<path fill="none" stroke="#63b8ff" d="M468.55,-93.79C460.87,-95.41 452.63,-97.14 444.39,-98.86"/>
<polygon fill="#63b8ff" stroke="#63b8ff" points="469.14,-97.25 478.21,-91.77 467.7,-90.4 469.14,-97.25"/>
</a>
</g>
</g>
<!-- Node6 -->
<g id="Node000006" class="node">
<title>Node6</title>
<g id="a_Node000006"><a xlink:href="classSommerfeldIntegrator.html#a0e528bbac3a3c169464f71e1c1196711" target="_top" xlink:title="Computes the intra&#45;layer Green&#39;s function integrand.">
<polygon fill="white" stroke="#666666" points="444,-76.5 320,-76.5 320,-43 444,-43 444,-76.5"/>
<text xml:space="preserve" text-anchor="start" x="328" y="-63" font-family="Helvetica,sans-Serif" font-size="10.00">SommerfeldIntegrator</text>
<text xml:space="preserve" text-anchor="middle" x="382" y="-50.25" font-family="Helvetica,sans-Serif" font-size="10.00">::IntraIntegrand</text>
</a>
</g>
</g>
<!-- Node2&#45;&gt;Node6 -->
<g id="edge6_Node000002_Node000006" class="edge">
<title>Node2&#45;&gt;Node6</title>
<g id="a_edge6_Node000002_Node000006"><a xlink:title=" ">
<path fill="none" stroke="#63b8ff" d="M468.55,-77.71C460.87,-76.09 452.63,-74.36 444.39,-72.64"/>
<polygon fill="#63b8ff" stroke="#63b8ff" points="467.7,-81.1 478.21,-79.73 469.14,-74.25 467.7,-81.1"/>
</a>
</g>
</g>
<!-- Node4 -->
<g id="Node000004" class="node">
<title>Node4</title>
<g id="a_Node000004"><a xlink:href="classSommerfeldIntegrator.html#a2537d36d62ecdecc297e19c8127f827a" target="_top" xlink:title="Computes inter&#45;layer coefficients for Green&#39;s function interpolation.">
<polygon fill="white" stroke="#666666" points="124,-138.5 0,-138.5 0,-105 124,-105 124,-138.5"/>
<text xml:space="preserve" text-anchor="start" x="8" y="-125" font-family="Helvetica,sans-Serif" font-size="10.00">SommerfeldIntegrator</text>
<text xml:space="preserve" text-anchor="middle" x="62" y="-112.25" font-family="Helvetica,sans-Serif" font-size="10.00">::Evaluate</text>
</a>
</g>
</g>
<!-- Node3&#45;&gt;Node4 -->
<g id="edge3_Node000003_Node000004" class="edge">
<title>Node3&#45;&gt;Node4</title>
<g id="a_edge3_Node000003_Node000004"><a xlink:title=" ">
<path fill="none" stroke="#63b8ff" d="M310.15,-131.37C301.4,-133.17 292.54,-134.71 284,-135.75 229.29,-142.42 214.97,-139.7 160,-135.75 148.46,-134.92 136.21,-133.55 124.43,-131.97"/>
<polygon fill="#63b8ff" stroke="#63b8ff" points="310.64,-134.85 319.66,-129.29 309.15,-128.01 310.64,-134.85"/>
</a>
</g>
</g>
<!-- Node5 -->
<g id="Node000005" class="node">
<title>Node5</title>
<g id="a_Node000005"><a xlink:href="classSommerfeldIntegrator.html#a5479217de11e54b823a970c39580fa64" target="_top" xlink:title="Computes the inter&#45;layer integration function.">
<polygon fill="white" stroke="#666666" points="284,-126.5 160,-126.5 160,-93 284,-93 284,-126.5"/>
<text xml:space="preserve" text-anchor="start" x="168" y="-113" font-family="Helvetica,sans-Serif" font-size="10.00">SommerfeldIntegrator</text>
<text xml:space="preserve" text-anchor="middle" x="222" y="-100.25" font-family="Helvetica,sans-Serif" font-size="10.00">::integrationFInter</text>
</a>
</g>
</g>
<!-- Node3&#45;&gt;Node5 -->
<g id="edge4_Node000003_Node000005" class="edge">
<title>Node3&#45;&gt;Node5</title>
<g id="a_edge4_Node000003_Node000005"><a xlink:title=" ">
<path fill="none" stroke="#63b8ff" d="M308.6,-110.83C300.53,-110.73 292.36,-110.63 284.45,-110.53"/>
<polygon fill="#63b8ff" stroke="#63b8ff" points="308.36,-114.33 318.4,-110.96 308.44,-107.33 308.36,-114.33"/>
</a>
</g>
</g>
<!-- Node5&#45;&gt;Node4 -->
<g id="edge5_Node000005_Node000004" class="edge">
<title>Node5&#45;&gt;Node4</title>
<g id="a_edge5_Node000005_Node000004"><a xlink:title=" ">
<path fill="none" stroke="#63b8ff" d="M148.6,-115.25C140.53,-115.86 132.36,-116.48 124.45,-117.08"/>
<polygon fill="#63b8ff" stroke="#63b8ff" points="148.7,-118.75 158.4,-114.5 148.17,-111.77 148.7,-118.75"/>
</a>
</g>
</g>
<!-- Node7 -->
<g id="Node000007" class="node">
<title>Node7</title>
<g id="a_Node000007"><a xlink:href="classSommerfeldIntegrator.html#a3f148b96c090e06e67fb00aea41e7f94" target="_top" xlink:title="Computes intra&#45;layer coefficients for Green&#39;s function interpolation.">
<polygon fill="white" stroke="#666666" points="124,-66.5 0,-66.5 0,-33 124,-33 124,-66.5"/>
<text xml:space="preserve" text-anchor="start" x="8" y="-53" font-family="Helvetica,sans-Serif" font-size="10.00">SommerfeldIntegrator</text>
<text xml:space="preserve" text-anchor="middle" x="62" y="-40.25" font-family="Helvetica,sans-Serif" font-size="10.00">::Evaluate</text>
</a>
</g>
</g>
<!-- Node6&#45;&gt;Node7 -->
<g id="edge7_Node000006_Node000007" class="edge">
<title>Node6&#45;&gt;Node7</title>
<g id="a_edge7_Node000006_Node000007"><a xlink:title=" ">
<path fill="none" stroke="#63b8ff" d="M308.5,-57.47C252.9,-55.72 177.02,-53.34 124.4,-51.68"/>
<polygon fill="#63b8ff" stroke="#63b8ff" points="308.07,-60.96 318.17,-57.77 308.29,-53.96 308.07,-60.96"/>
</a>
</g>
</g>
<!-- Node8 -->
<g id="Node000008" class="node">
<title>Node8</title>
<g id="a_Node000008"><a xlink:href="classSommerfeldIntegrator.html#a2c805013bb6091b2010bba9a1e256a4d" target="_top" xlink:title="Computes the intra&#45;layer integration function.">
<polygon fill="white" stroke="#666666" points="284,-33.5 160,-33.5 160,0 284,0 284,-33.5"/>
<text xml:space="preserve" text-anchor="start" x="168" y="-20" font-family="Helvetica,sans-Serif" font-size="10.00">SommerfeldIntegrator</text>
<text xml:space="preserve" text-anchor="middle" x="222" y="-7.25" font-family="Helvetica,sans-Serif" font-size="10.00">::integrationFIntra</text>
</a>
</g>
</g>
<!-- Node6&#45;&gt;Node8 -->
<g id="edge8_Node000006_Node000008" class="edge">
<title>Node6&#45;&gt;Node8</title>
<g id="a_edge8_Node000006_Node000008"><a xlink:title=" ">
<path fill="none" stroke="#63b8ff" d="M308.88,-40.12C300.71,-37.9 292.45,-35.65 284.45,-33.47"/>
<polygon fill="#63b8ff" stroke="#63b8ff" points="307.88,-43.48 318.45,-42.73 309.72,-36.72 307.88,-43.48"/>
</a>
</g>
</g>
<!-- Node8&#45;&gt;Node7 -->
<g id="edge9_Node000008_Node000007" class="edge">
<title>Node8&#45;&gt;Node7</title>
<g id="a_edge9_Node000008_Node000007"><a xlink:title=" ">
<path fill="none" stroke="#63b8ff" d="M148.88,-31.81C140.71,-33.52 132.45,-35.24 124.45,-36.92"/>
<polygon fill="#63b8ff" stroke="#63b8ff" points="149.36,-35.29 158.43,-29.82 147.93,-28.44 149.36,-35.29"/>
</a>
</g>
</g>
</g>
</svg>
