<?xml version="1.0" encoding="UTF-8" standalone="no"?>
<!DOCTYPE svg PUBLIC "-//W3C//DTD SVG 1.1//EN"
 "http://www.w3.org/Graphics/SVG/1.1/DTD/svg11.dtd">
<!-- Generated by graphviz version 13.1.2 (20250809.0930)
 -->
<!-- Title: besselJ Pages: 1 -->
<!--zoomable 148 -->

<svg id="main" version="1.1" xmlns="http://www.w3.org/2000/svg" xmlns:xlink="http://www.w3.org/1999/xlink" xml:space="preserve" onload="init(evt)">

<style type="text/css"><![CDATA[
.node, .edge {opacity: 0.7;}
.node.selected, .edge.selected {opacity: 1;}
.edge:hover path { stroke: red; }
.edge:hover polygon { stroke: red; fill: red; }
]]></style>

<defs>
  <circle id="rim" cx="0" cy="0" r="7"/>
  <circle id="rim2" cx="0" cy="0" r="3.5"/>
  <g id="zoomPlus">
    <use xlink:href="#rim" fill="#404040"><set attributeName="fill" to="#808080" begin="zoomplus.mouseover" end="zoomplus.mouseout"/></use>
    <path d="M-4,0h8M0,-4v8" fill="none" stroke="white" stroke-width="1.5" pointer-events="none"/>
  </g>
  <g id="zoomMin">
    <use xlink:href="#rim" fill="#404040"><set attributeName="fill" to="#808080" begin="zoomminus.mouseover" end="zoomminus.mouseout"/></use>
    <path d="M-4,0h8" fill="none" stroke="white" stroke-width="1.5" pointer-events="none"/>
  </g>
  <g id="arrowUp" transform="translate(30 24)">
    <use xlink:href="#rim"/>
    <path pointer-events="none" fill="none" stroke="white" stroke-width="1.5" d="M0,-3.0v7 M-2.5,-0.5L0,-3.0L2.5,-0.5"/>
  </g>
  <g id="arrowRight" transform="rotate(90) translate(36 -43)">
    <use xlink:href="#rim"/>
    <path pointer-events="none" fill="none" stroke="white" stroke-width="1.5" d="M0,-3.0v7 M-2.5,-0.5L0,-3.0L2.5,-0.5"/>
  </g>
  <g id="arrowDown" transform="rotate(180) translate(-30 -48)">
    <use xlink:href="#rim"/>
    <path pointer-events="none" fill="none" stroke="white" stroke-width="1.5" d="M0,-3.0v7 M-2.5,-0.5L0,-3.0L2.5,-0.5"/>
  </g>
  <g id="arrowLeft" transform="rotate(270) translate(-36 17)">
    <use xlink:href="#rim"/>
    <path pointer-events="none" fill="none" stroke="white" stroke-width="1.5" d="M0,-3.0v7 M-2.5,-0.5L0,-3.0L2.5,-0.5"/>
  </g>
  <g id="resetDef">
    <use xlink:href="#rim2" fill="#404040"><set attributeName="fill" to="#808080" begin="reset.mouseover" end="reset.mouseout"/></use>
  </g>
</defs>
<script type="application/ecmascript">
var viewWidth = 539;
var viewHeight = 148;
var sectionId = 'dynsection-2';
</script>
<script type="application/ecmascript" xlink:href="svg.min.js"/>
<svg id="graph" class="graph">
<g id="viewport">
<title>besselJ</title>
<!-- Node1 -->
<g id="Node000001" class="node">
<title>Node1</title>
<g id="a_Node000001"><a xlink:title="Computes the Bessel function .">
<polygon fill="#999999" stroke="#666666" points="530.5,-96.12 480,-96.12 480,-75.38 530.5,-75.38 530.5,-96.12"/>
<text xml:space="preserve" text-anchor="middle" x="505.25" y="-82.62" font-family="Helvetica,sans-Serif" font-size="10.00">besselJ</text>
</a>
</g>
</g>
<!-- Node2 -->
<g id="Node000002" class="node">
<title>Node2</title>
<g id="a_Node000002"><a xlink:href="classSommerfeldIntegrator.html#a9467786ef80af13f1b6f4317fb6ae80a" target="_top" xlink:title="Computes the inter&#45;layer Green&#39;s function integrand.">
<polygon fill="white" stroke="#666666" points="444,-128.5 320,-128.5 320,-95 444,-95 444,-128.5"/>
<text xml:space="preserve" text-anchor="start" x="328" y="-115" font-family="Helvetica,sans-Serif" font-size="10.00">SommerfeldIntegrator</text>
<text xml:space="preserve" text-anchor="middle" x="382" y="-102.25" font-family="Helvetica,sans-Serif" font-size="10.00">::InterIntegrand</text>
</a>
</g>
</g>
<!-- Node1&#45;&gt;Node2 -->
<g id="edge1_Node000001_Node000002" class="edge">
<title>Node1&#45;&gt;Node2</title>
<g id="a_edge1_Node000001_Node000002"><a xlink:title=" ">
<path fill="none" stroke="#63b8ff" d="M468.66,-93.38C461,-95.02 452.69,-96.81 444.36,-98.59"/>
<polygon fill="#63b8ff" stroke="#63b8ff" points="469.19,-96.85 478.23,-91.33 467.72,-90 469.19,-96.85"/>
</a>
</g>
</g>
<!-- Node5 -->
<g id="Node000005" class="node">
<title>Node5</title>
<g id="a_Node000005"><a xlink:href="classSommerfeldIntegrator.html#a0e528bbac3a3c169464f71e1c1196711" target="_top" xlink:title="Computes the intra&#45;layer Green&#39;s function integrand.">
<polygon fill="white" stroke="#666666" points="444,-76.5 320,-76.5 320,-43 444,-43 444,-76.5"/>
<text xml:space="preserve" text-anchor="start" x="328" y="-63" font-family="Helvetica,sans-Serif" font-size="10.00">SommerfeldIntegrator</text>
<text xml:space="preserve" text-anchor="middle" x="382" y="-50.25" font-family="Helvetica,sans-Serif" font-size="10.00">::IntraIntegrand</text>
</a>
</g>
</g>
<!-- Node1&#45;&gt;Node5 -->
<g id="edge5_Node000001_Node000005" class="edge">
<title>Node1&#45;&gt;Node5</title>
<g id="a_edge5_Node000001_Node000005"><a xlink:title=" ">
<path fill="none" stroke="#63b8ff" d="M468.66,-78.12C461,-76.48 452.69,-74.69 444.36,-72.91"/>
<polygon fill="#63b8ff" stroke="#63b8ff" points="467.72,-81.5 478.23,-80.17 469.19,-74.65 467.72,-81.5"/>
</a>
</g>
</g>
<!-- Node3 -->
<g id="Node000003" class="node">
<title>Node3</title>
<g id="a_Node000003"><a xlink:href="classSommerfeldIntegrator.html#a2537d36d62ecdecc297e19c8127f827a" target="_top" xlink:title="Computes inter&#45;layer coefficients for Green&#39;s function interpolation.">
<polygon fill="white" stroke="#666666" points="124,-138.5 0,-138.5 0,-105 124,-105 124,-138.5"/>
<text xml:space="preserve" text-anchor="start" x="8" y="-125" font-family="Helvetica,sans-Serif" font-size="10.00">SommerfeldIntegrator</text>
<text xml:space="preserve" text-anchor="middle" x="62" y="-112.25" font-family="Helvetica,sans-Serif" font-size="10.00">::Evaluate</text>
</a>
</g>
</g>
<!-- Node2&#45;&gt;Node3 -->
<g id="edge2_Node000002_Node000003" class="edge">
<title>Node2&#45;&gt;Node3</title>
<g id="a_edge2_Node000002_Node000003"><a xlink:title=" ">
<path fill="none" stroke="#63b8ff" d="M310.15,-131.37C301.4,-133.17 292.54,-134.71 284,-135.75 229.29,-142.42 214.97,-139.7 160,-135.75 148.46,-134.92 136.21,-133.55 124.43,-131.97"/>
<polygon fill="#63b8ff" stroke="#63b8ff" points="310.64,-134.85 319.66,-129.29 309.15,-128.01 310.64,-134.85"/>
</a>
</g>
</g>
<!-- Node4 -->
<g id="Node000004" class="node">
<title>Node4</title>
<g id="a_Node000004"><a xlink:href="classSommerfeldIntegrator.html#a5479217de11e54b823a970c39580fa64" target="_top" xlink:title="Computes the inter&#45;layer integration function.">
<polygon fill="white" stroke="#666666" points="284,-126.5 160,-126.5 160,-93 284,-93 284,-126.5"/>
<text xml:space="preserve" text-anchor="start" x="168" y="-113" font-family="Helvetica,sans-Serif" font-size="10.00">SommerfeldIntegrator</text>
<text xml:space="preserve" text-anchor="middle" x="222" y="-100.25" font-family="Helvetica,sans-Serif" font-size="10.00">::integrationFInter</text>
</a>
</g>
</g>
<!-- Node2&#45;&gt;Node4 -->
<g id="edge3_Node000002_Node000004" class="edge">
<title>Node2&#45;&gt;Node4</title>
<g id="a_edge3_Node000002_Node000004"><a xlink:title=" ">
<path fill="none" stroke="#63b8ff" d="M308.6,-110.83C300.53,-110.73 292.36,-110.63 284.45,-110.53"/>
<polygon fill="#63b8ff" stroke="#63b8ff" points="308.36,-114.33 318.4,-110.96 308.44,-107.33 308.36,-114.33"/>
</a>
</g>
</g>
<!-- Node4&#45;&gt;Node3 -->
<g id="edge4_Node000004_Node000003" class="edge">
<title>Node4&#45;&gt;Node3</title>
<g id="a_edge4_Node000004_Node000003"><a xlink:title=" ">
<path fill="none" stroke="#63b8ff" d="M148.6,-115.25C140.53,-115.86 132.36,-116.48 124.45,-117.08"/>
<polygon fill="#63b8ff" stroke="#63b8ff" points="148.7,-118.75 158.4,-114.5 148.17,-111.77 148.7,-118.75"/>
</a>
</g>
</g>
<!-- Node6 -->
<g id="Node000006" class="node">
<title>Node6</title>
<g id="a_Node000006"><a xlink:href="classSommerfeldIntegrator.html#a3f148b96c090e06e67fb00aea41e7f94" target="_top" xlink:title="Computes intra&#45;layer coefficients for Green&#39;s function interpolation.">
<polygon fill="white" stroke="#666666" points="124,-66.5 0,-66.5 0,-33 124,-33 124,-66.5"/>
<text xml:space="preserve" text-anchor="start" x="8" y="-53" font-family="Helvetica,sans-Serif" font-size="10.00">SommerfeldIntegrator</text>
<text xml:space="preserve" text-anchor="middle" x="62" y="-40.25" font-family="Helvetica,sans-Serif" font-size="10.00">::Evaluate</text>
</a>
</g>
</g>
<!-- Node5&#45;&gt;Node6 -->
<g id="edge6_Node000005_Node000006" class="edge">
<title>Node5&#45;&gt;Node6</title>
<g id="a_edge6_Node000005_Node000006"><a xlink:title=" ">
<path fill="none" stroke="#63b8ff" d="M308.5,-57.47C252.9,-55.72 177.02,-53.34 124.4,-51.68"/>
<polygon fill="#63b8ff" stroke="#63b8ff" points="308.07,-60.96 318.17,-57.77 308.29,-53.96 308.07,-60.96"/>
</a>
</g>
</g>
<!-- Node7 -->
<g id="Node000007" class="node">
<title>Node7</title>
<g id="a_Node000007"><a xlink:href="classSommerfeldIntegrator.html#a2c805013bb6091b2010bba9a1e256a4d" target="_top" xlink:title="Computes the intra&#45;layer integration function.">
<polygon fill="white" stroke="#666666" points="284,-33.5 160,-33.5 160,0 284,0 284,-33.5"/>
<text xml:space="preserve" text-anchor="start" x="168" y="-20" font-family="Helvetica,sans-Serif" font-size="10.00">SommerfeldIntegrator</text>
<text xml:space="preserve" text-anchor="middle" x="222" y="-7.25" font-family="Helvetica,sans-Serif" font-size="10.00">::integrationFIntra</text>
</a>
</g>
</g>
<!-- Node5&#45;&gt;Node7 -->
<g id="edge7_Node000005_Node000007" class="edge">
<title>Node5&#45;&gt;Node7</title>
<g id="a_edge7_Node000005_Node000007"><a xlink:title=" ">
<path fill="none" stroke="#63b8ff" d="M308.88,-40.12C300.71,-37.9 292.45,-35.65 284.45,-33.47"/>
<polygon fill="#63b8ff" stroke="#63b8ff" points="307.88,-43.48 318.45,-42.73 309.72,-36.72 307.88,-43.48"/>
</a>
</g>
</g>
<!-- Node7&#45;&gt;Node6 -->
<g id="edge8_Node000007_Node000006" class="edge">
<title>Node7&#45;&gt;Node6</title>
<g id="a_edge8_Node000007_Node000006"><a xlink:title=" ">
<path fill="none" stroke="#63b8ff" d="M148.88,-31.81C140.71,-33.52 132.45,-35.24 124.45,-36.92"/>
<polygon fill="#63b8ff" stroke="#63b8ff" points="149.36,-35.29 158.43,-29.82 147.93,-28.44 149.36,-35.29"/>
</a>
</g>
</g>
</g>
</svg>

<g id="navigator" transform="translate(0 0)" fill="#404254">
  <rect fill="#f2f5e9" fill-opacity="0.5" stroke="#606060" stroke-width=".5" x="0" y="0" width="60" height="60"/>
  <use id="zoomplus" xlink:href="#zoomPlus" x="17" y="9" onmousedown="handleZoom(evt,'in')"/>
  <use id="zoomminus" xlink:href="#zoomMin" x="42" y="9" onmousedown="handleZoom(evt,'out')"/>
  <use id="reset" xlink:href="#resetDef" x="30" y="36" onmousedown="handleReset()"/>
   <use id="arrowup" xlink:href="#arrowUp" x="0" y="0" onmousedown="handlePan(0,-1)"/>
  <use id="arrowright" xlink:href="#arrowRight" x="0" y="0" onmousedown="handlePan(1,0)"/>
  <use id="arrowdown" xlink:href="#arrowDown" x="0" y="0" onmousedown="handlePan(0,1)"/>
  <use id="arrowleft" xlink:href="#arrowLeft" x="0" y="0" onmousedown="handlePan(-1,0)"/>
</g>
<svg viewBox="0 0 15 15" width="100%" height="30px" preserveAspectRatio="xMaxYMin meet">
 <g id="arrow_out" transform="scale(0.3 0.3)">
  <a xlink:href="SommerfeldIntegrator_8cpp_a93b85379d21563ca5aba6f5eff053826_icgraph_org.svg" target="_base">
   <rect id="button" ry="5" rx="5" y="6" x="6" height="38" width="38"
        fill="#f2f5e9" fill-opacity="0.5" stroke="#606060" stroke-width="1.0"/>
   <path id="arrow"
     d="M 11.500037,31.436501 C 11.940474,20.09759 22.043105,11.32322 32.158766,21.979434 L 37.068811,17.246167 C 37.068811,17.246167 37.088388,32 37.088388,32 L 22.160133,31.978069 C 22.160133,31.978069 26.997745,27.140456 26.997745,27.140456 C 18.528582,18.264221 13.291696,25.230495 11.500037,31.436501 z"
     style="fill:#404040;"/>
  </a>
 </g>
</svg>

<style type='text/css'>
<![CDATA[
[data-mouse-over-selected='false'] { opacity: 0.7; }
[data-mouse-over-selected='true']  { opacity: 1.0; }
]]>
</style>
<script type="application/ecmascript"><![CDATA[
document.addEventListener('DOMContentLoaded', (event) => {
  highlightEdges();
  highlightAdjacentNodes();
});
]]></script>
</svg>
