<?xml version="1.0" encoding="UTF-8" standalone="no"?>
<!DOCTYPE svg PUBLIC "-//W3C//DTD SVG 1.1//EN"
 "http://www.w3.org/Graphics/SVG/1.1/DTD/svg11.dtd">
<!-- Generated by graphviz version 13.1.2 (20250809.0930)
 -->
<!-- Title: bspPolygon Pages: 1 -->
<svg width="154pt" height="484pt"
 viewBox="0.00 0.00 154.00 484.00" xmlns="http://www.w3.org/2000/svg" xmlns:xlink="http://www.w3.org/1999/xlink">
<g id="graph0" class="graph" transform="scale(1 1) rotate(0) translate(4 479.5)">
<title>bspPolygon</title>
<!-- Node1 -->
<g id="Node000001" class="node">
<title>Node1</title>
<g id="a_Node000001"><a xlink:title="Polygon wrapper carried through BSP splitting.">
<polygon fill="#999999" stroke="none" points="104.88,-71 40.62,-71 40.62,0 104.88,0 104.88,-71"/>
<text xml:space="preserve" text-anchor="start" x="44.62" y="-57.5" font-family="Helvetica,sans-Serif" font-size="10.00">bspPolygon</text>
<text xml:space="preserve" text-anchor="start" x="48.31" y="-40.75" font-family="Helvetica,sans-Serif" font-size="10.00">+</text>
<text xml:space="preserve" text-anchor="start" x="64.25" y="-40.75" font-family="Helvetica,sans-Serif" font-size="10.00">nodes</text>
<text xml:space="preserve" text-anchor="start" x="48.31" y="-24" font-family="Helvetica,sans-Serif" font-size="10.00">+</text>
<text xml:space="preserve" text-anchor="start" x="64.25" y="-24" font-family="Helvetica,sans-Serif" font-size="10.00">side</text>
<text xml:space="preserve" text-anchor="start" x="71.25" y="-7.25" font-family="Helvetica,sans-Serif" font-size="10.00"> </text>
<polygon fill="#666666" stroke="#666666" points="40.62,-52.25 40.62,-52.25 104.88,-52.25 104.88,-52.25 40.62,-52.25"/>
<polygon fill="#666666" stroke="#666666" points="40.62,-18.75 40.62,-18.75 62.25,-18.75 62.25,-18.75 40.62,-18.75"/>
<polygon fill="#666666" stroke="#666666" points="62.25,-18.75 62.25,-18.75 104.88,-18.75 104.88,-18.75 62.25,-18.75"/>
<polygon fill="none" stroke="#666666" points="40.62,0 40.62,-71 104.88,-71 104.88,0 40.62,0"/>
</a>
</g>
</g>
<!-- Node2 -->
<g id="Node000002" class="node">
<title>Node2</title>
<g id="a_Node000002"><a xlink:href="classTriangle.html" target="_top" xlink:title="Triangular surface element with cached geometry and utilities.">
<polygon fill="white" stroke="none" points="145.5,-475.5 0,-475.5 0,-119.75 145.5,-119.75 145.5,-475.5"/>
<text xml:space="preserve" text-anchor="start" x="53.62" y="-462" font-family="Helvetica,sans-Serif" font-size="10.00">Triangle</text>
<text xml:space="preserve" text-anchor="start" x="6.25" y="-445.25" font-family="Helvetica,sans-Serif" font-size="10.00">&#45;</text>
<text xml:space="preserve" text-anchor="start" x="16.25" y="-445.25" font-family="Helvetica,sans-Serif" font-size="10.00">nodes</text>
<text xml:space="preserve" text-anchor="start" x="6.25" y="-428.5" font-family="Helvetica,sans-Serif" font-size="10.00">&#45;</text>
<text xml:space="preserve" text-anchor="start" x="16.25" y="-428.5" font-family="Helvetica,sans-Serif" font-size="10.00">domainIndeces</text>
<text xml:space="preserve" text-anchor="start" x="6.25" y="-411.75" font-family="Helvetica,sans-Serif" font-size="10.00">&#45;</text>
<text xml:space="preserve" text-anchor="start" x="16.25" y="-411.75" font-family="Helvetica,sans-Serif" font-size="10.00">normalVector</text>
<text xml:space="preserve" text-anchor="start" x="6.25" y="-395" font-family="Helvetica,sans-Serif" font-size="10.00">&#45;</text>
<text xml:space="preserve" text-anchor="start" x="16.25" y="-395" font-family="Helvetica,sans-Serif" font-size="10.00">surfaceArea</text>
<text xml:space="preserve" text-anchor="start" x="6.25" y="-378.25" font-family="Helvetica,sans-Serif" font-size="10.00">&#45;</text>
<text xml:space="preserve" text-anchor="start" x="16.25" y="-378.25" font-family="Helvetica,sans-Serif" font-size="10.00">perimeter</text>
<text xml:space="preserve" text-anchor="start" x="6.25" y="-361.5" font-family="Helvetica,sans-Serif" font-size="10.00">&#45;</text>
<text xml:space="preserve" text-anchor="start" x="16.25" y="-361.5" font-family="Helvetica,sans-Serif" font-size="10.00">I1</text>
<text xml:space="preserve" text-anchor="start" x="6.25" y="-344.75" font-family="Helvetica,sans-Serif" font-size="10.00">&#45;</text>
<text xml:space="preserve" text-anchor="start" x="16.25" y="-344.75" font-family="Helvetica,sans-Serif" font-size="10.00">I2s</text>
<text xml:space="preserve" text-anchor="start" x="6.25" y="-328" font-family="Helvetica,sans-Serif" font-size="10.00">&#45;</text>
<text xml:space="preserve" text-anchor="start" x="16.25" y="-328" font-family="Helvetica,sans-Serif" font-size="10.00">I2d</text>
<text xml:space="preserve" text-anchor="start" x="6.25" y="-311.25" font-family="Helvetica,sans-Serif" font-size="10.00">&#45;</text>
<text xml:space="preserve" text-anchor="start" x="16.25" y="-311.25" font-family="Helvetica,sans-Serif" font-size="10.00">center</text>
<text xml:space="preserve" text-anchor="start" x="4" y="-294.5" font-family="Helvetica,sans-Serif" font-size="10.00">+</text>
<text xml:space="preserve" text-anchor="start" x="16.25" y="-294.5" font-family="Helvetica,sans-Serif" font-size="10.00">Triangle()</text>
<text xml:space="preserve" text-anchor="start" x="4" y="-277.75" font-family="Helvetica,sans-Serif" font-size="10.00">+</text>
<text xml:space="preserve" text-anchor="start" x="16.25" y="-277.75" font-family="Helvetica,sans-Serif" font-size="10.00">Triangle()</text>
<text xml:space="preserve" text-anchor="start" x="4" y="-261" font-family="Helvetica,sans-Serif" font-size="10.00">+</text>
<text xml:space="preserve" text-anchor="start" x="16.25" y="-261" font-family="Helvetica,sans-Serif" font-size="10.00">Triangle()</text>
<text xml:space="preserve" text-anchor="start" x="4" y="-244.25" font-family="Helvetica,sans-Serif" font-size="10.00">+</text>
<text xml:space="preserve" text-anchor="start" x="16.25" y="-244.25" font-family="Helvetica,sans-Serif" font-size="10.00">AssignNodes()</text>
<text xml:space="preserve" text-anchor="start" x="4" y="-227.5" font-family="Helvetica,sans-Serif" font-size="10.00">+</text>
<text xml:space="preserve" text-anchor="start" x="16.25" y="-227.5" font-family="Helvetica,sans-Serif" font-size="10.00">SetDomainIndeces()</text>
<text xml:space="preserve" text-anchor="start" x="4" y="-210.75" font-family="Helvetica,sans-Serif" font-size="10.00">+</text>
<text xml:space="preserve" text-anchor="start" x="16.25" y="-210.75" font-family="Helvetica,sans-Serif" font-size="10.00">CalculateGeometryData()</text>
<text xml:space="preserve" text-anchor="start" x="4" y="-194" font-family="Helvetica,sans-Serif" font-size="10.00">+</text>
<text xml:space="preserve" text-anchor="start" x="16.25" y="-194" font-family="Helvetica,sans-Serif" font-size="10.00">Invert()</text>
<text xml:space="preserve" text-anchor="start" x="4" y="-177.25" font-family="Helvetica,sans-Serif" font-size="10.00">+</text>
<text xml:space="preserve" text-anchor="start" x="16.25" y="-177.25" font-family="Helvetica,sans-Serif" font-size="10.00">Node()</text>
<text xml:space="preserve" text-anchor="start" x="4" y="-160.5" font-family="Helvetica,sans-Serif" font-size="10.00">+</text>
<text xml:space="preserve" text-anchor="start" x="16.25" y="-160.5" font-family="Helvetica,sans-Serif" font-size="10.00">NodePtr()</text>
<text xml:space="preserve" text-anchor="start" x="4" y="-143.75" font-family="Helvetica,sans-Serif" font-size="10.00">+</text>
<text xml:space="preserve" text-anchor="start" x="16.25" y="-143.75" font-family="Helvetica,sans-Serif" font-size="10.00">DomainPosition()</text>
<text xml:space="preserve" text-anchor="start" x="16.25" y="-127" font-family="Helvetica,sans-Serif" font-size="10.00">and 18 more...</text>
<polygon fill="#666666" stroke="#666666" points="0,-456.75 0,-456.75 145.5,-456.75 145.5,-456.75 0,-456.75"/>
<polygon fill="#666666" stroke="#666666" points="0,-306 0,-306 14.25,-306 14.25,-306 0,-306"/>
<polygon fill="#666666" stroke="#666666" points="14.25,-306 14.25,-306 145.5,-306 145.5,-306 14.25,-306"/>
<polygon fill="none" stroke="#666666" points="0,-119.75 0,-475.5 145.5,-475.5 145.5,-119.75 0,-119.75"/>
</a>
</g>
</g>
<!-- Node2&#45;&gt;Node1 -->
<g id="edge1_Node000001_Node000002" class="edge">
<title>Node2&#45;&gt;Node1</title>
<g id="a_edge1_Node000001_Node000002"><a xlink:title=" ">
<path fill="none" stroke="#63b8ff" d="M72.75,-119.88C72.75,-106.78 72.75,-94.42 72.75,-83.42"/>
<polygon fill="none" stroke="#63b8ff" points="72.75,-83.62 68.75,-77.62 72.75,-71.62 76.75,-77.62 72.75,-83.62"/>
</a>
</g>
<text xml:space="preserve" text-anchor="middle" x="92.25" y="-92.25" font-family="Helvetica,sans-Serif" font-size="10.00" fill="grey"> +origin</text>
</g>
</g>
</svg>
