<?xml version="1.0" encoding="UTF-8" standalone="no"?>
<!DOCTYPE svg PUBLIC "-//W3C//DTD SVG 1.1//EN"
 "http://www.w3.org/Graphics/SVG/1.1/DTD/svg11.dtd">
<!-- Generated by graphviz version 13.1.2 (20250809.0930)
 -->
<!-- Title: bspPolygon Pages: 1 -->
<!--zoomable 484 -->

<svg id="main" version="1.1" xmlns="http://www.w3.org/2000/svg" xmlns:xlink="http://www.w3.org/1999/xlink" xml:space="preserve" onload="init(evt)">

<style type="text/css"><![CDATA[
.node, .edge {opacity: 0.7;}
.node.selected, .edge.selected {opacity: 1;}
.edge:hover path { stroke: red; }
.edge:hover polygon { stroke: red; fill: red; }
]]></style>

<defs>
  <circle id="rim" cx="0" cy="0" r="7"/>
  <circle id="rim2" cx="0" cy="0" r="3.5"/>
  <g id="zoomPlus">
    <use xlink:href="#rim" fill="#404040"><set attributeName="fill" to="#808080" begin="zoomplus.mouseover" end="zoomplus.mouseout"/></use>
    <path d="M-4,0h8M0,-4v8" fill="none" stroke="white" stroke-width="1.5" pointer-events="none"/>
  </g>
  <g id="zoomMin">
    <use xlink:href="#rim" fill="#404040"><set attributeName="fill" to="#808080" begin="zoomminus.mouseover" end="zoomminus.mouseout"/></use>
    <path d="M-4,0h8" fill="none" stroke="white" stroke-width="1.5" pointer-events="none"/>
  </g>
  <g id="arrowUp" transform="translate(30 24)">
    <use xlink:href="#rim"/>
    <path pointer-events="none" fill="none" stroke="white" stroke-width="1.5" d="M0,-3.0v7 M-2.5,-0.5L0,-3.0L2.5,-0.5"/>
  </g>
  <g id="arrowRight" transform="rotate(90) translate(36 -43)">
    <use xlink:href="#rim"/>
    <path pointer-events="none" fill="none" stroke="white" stroke-width="1.5" d="M0,-3.0v7 M-2.5,-0.5L0,-3.0L2.5,-0.5"/>
  </g>
  <g id="arrowDown" transform="rotate(180) translate(-30 -48)">
    <use xlink:href="#rim"/>
    <path pointer-events="none" fill="none" stroke="white" stroke-width="1.5" d="M0,-3.0v7 M-2.5,-0.5L0,-3.0L2.5,-0.5"/>
  </g>
  <g id="arrowLeft" transform="rotate(270) translate(-36 17)">
    <use xlink:href="#rim"/>
    <path pointer-events="none" fill="none" stroke="white" stroke-width="1.5" d="M0,-3.0v7 M-2.5,-0.5L0,-3.0L2.5,-0.5"/>
  </g>
  <g id="resetDef">
    <use xlink:href="#rim2" fill="#404040"><set attributeName="fill" to="#808080" begin="reset.mouseover" end="reset.mouseout"/></use>
  </g>
</defs>
<script type="application/ecmascript">
var viewWidth = 154;
var viewHeight = 484;
var sectionId = 'dynsection-0';
</script>
<script type="application/ecmascript" xlink:href="svg.min.js"/>
<svg id="graph" class="graph">
<g id="viewport">
<title>bspPolygon</title>
<!-- Node1 -->
<g id="Node000001" class="node">
<title>Node1</title>
<g id="a_Node000001"><a xlink:title="Polygon wrapper carried through BSP splitting.">
<polygon fill="#999999" stroke="none" points="104.88,-71 40.62,-71 40.62,0 104.88,0 104.88,-71"/>
<text xml:space="preserve" text-anchor="start" x="44.62" y="-57.5" font-family="Helvetica,sans-Serif" font-size="10.00">bspPolygon</text>
<text xml:space="preserve" text-anchor="start" x="48.31" y="-40.75" font-family="Helvetica,sans-Serif" font-size="10.00">+</text>
<text xml:space="preserve" text-anchor="start" x="64.25" y="-40.75" font-family="Helvetica,sans-Serif" font-size="10.00">nodes</text>
<text xml:space="preserve" text-anchor="start" x="48.31" y="-24" font-family="Helvetica,sans-Serif" font-size="10.00">+</text>
<text xml:space="preserve" text-anchor="start" x="64.25" y="-24" font-family="Helvetica,sans-Serif" font-size="10.00">side</text>
<text xml:space="preserve" text-anchor="start" x="71.25" y="-7.25" font-family="Helvetica,sans-Serif" font-size="10.00"> </text>
<polygon fill="#666666" stroke="#666666" points="40.62,-52.25 40.62,-52.25 104.88,-52.25 104.88,-52.25 40.62,-52.25"/>
<polygon fill="#666666" stroke="#666666" points="40.62,-18.75 40.62,-18.75 62.25,-18.75 62.25,-18.75 40.62,-18.75"/>
<polygon fill="#666666" stroke="#666666" points="62.25,-18.75 62.25,-18.75 104.88,-18.75 104.88,-18.75 62.25,-18.75"/>
<polygon fill="none" stroke="#666666" points="40.62,0 40.62,-71 104.88,-71 104.88,0 40.62,0"/>
</a>
</g>
</g>
<!-- Node2 -->
<g id="Node000002" class="node">
<title>Node2</title>
<g id="a_Node000002"><a xlink:href="classTriangle.html" target="_top" xlink:title="Triangular surface element with cached geometry and utilities.">
<polygon fill="white" stroke="none" points="145.5,-475.5 0,-475.5 0,-119.75 145.5,-119.75 145.5,-475.5"/>
<text xml:space="preserve" text-anchor="start" x="53.62" y="-462" font-family="Helvetica,sans-Serif" font-size="10.00">Triangle</text>
<text xml:space="preserve" text-anchor="start" x="6.25" y="-445.25" font-family="Helvetica,sans-Serif" font-size="10.00">&#45;</text>
<text xml:space="preserve" text-anchor="start" x="16.25" y="-445.25" font-family="Helvetica,sans-Serif" font-size="10.00">nodes</text>
<text xml:space="preserve" text-anchor="start" x="6.25" y="-428.5" font-family="Helvetica,sans-Serif" font-size="10.00">&#45;</text>
<text xml:space="preserve" text-anchor="start" x="16.25" y="-428.5" font-family="Helvetica,sans-Serif" font-size="10.00">domainIndeces</text>
<text xml:space="preserve" text-anchor="start" x="6.25" y="-411.75" font-family="Helvetica,sans-Serif" font-size="10.00">&#45;</text>
<text xml:space="preserve" text-anchor="start" x="16.25" y="-411.75" font-family="Helvetica,sans-Serif" font-size="10.00">normalVector</text>
<text xml:space="preserve" text-anchor="start" x="6.25" y="-395" font-family="Helvetica,sans-Serif" font-size="10.00">&#45;</text>
<text xml:space="preserve" text-anchor="start" x="16.25" y="-395" font-family="Helvetica,sans-Serif" font-size="10.00">surfaceArea</text>
<text xml:space="preserve" text-anchor="start" x="6.25" y="-378.25" font-family="Helvetica,sans-Serif" font-size="10.00">&#45;</text>
<text xml:space="preserve" text-anchor="start" x="16.25" y="-378.25" font-family="Helvetica,sans-Serif" font-size="10.00">perimeter</text>
<text xml:space="preserve" text-anchor="start" x="6.25" y="-361.5" font-family="Helvetica,sans-Serif" font-size="10.00">&#45;</text>
<text xml:space="preserve" text-anchor="start" x="16.25" y="-361.5" font-family="Helvetica,sans-Serif" font-size="10.00">I1</text>
<text xml:space="preserve" text-anchor="start" x="6.25" y="-344.75" font-family="Helvetica,sans-Serif" font-size="10.00">&#45;</text>
<text xml:space="preserve" text-anchor="start" x="16.25" y="-344.75" font-family="Helvetica,sans-Serif" font-size="10.00">I2s</text>
<text xml:space="preserve" text-anchor="start" x="6.25" y="-328" font-family="Helvetica,sans-Serif" font-size="10.00">&#45;</text>
<text xml:space="preserve" text-anchor="start" x="16.25" y="-328" font-family="Helvetica,sans-Serif" font-size="10.00">I2d</text>
<text xml:space="preserve" text-anchor="start" x="6.25" y="-311.25" font-family="Helvetica,sans-Serif" font-size="10.00">&#45;</text>
<text xml:space="preserve" text-anchor="start" x="16.25" y="-311.25" font-family="Helvetica,sans-Serif" font-size="10.00">center</text>
<text xml:space="preserve" text-anchor="start" x="4" y="-294.5" font-family="Helvetica,sans-Serif" font-size="10.00">+</text>
<text xml:space="preserve" text-anchor="start" x="16.25" y="-294.5" font-family="Helvetica,sans-Serif" font-size="10.00">Triangle()</text>
<text xml:space="preserve" text-anchor="start" x="4" y="-277.75" font-family="Helvetica,sans-Serif" font-size="10.00">+</text>
<text xml:space="preserve" text-anchor="start" x="16.25" y="-277.75" font-family="Helvetica,sans-Serif" font-size="10.00">Triangle()</text>
<text xml:space="preserve" text-anchor="start" x="4" y="-261" font-family="Helvetica,sans-Serif" font-size="10.00">+</text>
<text xml:space="preserve" text-anchor="start" x="16.25" y="-261" font-family="Helvetica,sans-Serif" font-size="10.00">Triangle()</text>
<text xml:space="preserve" text-anchor="start" x="4" y="-244.25" font-family="Helvetica,sans-Serif" font-size="10.00">+</text>
<text xml:space="preserve" text-anchor="start" x="16.25" y="-244.25" font-family="Helvetica,sans-Serif" font-size="10.00">AssignNodes()</text>
<text xml:space="preserve" text-anchor="start" x="4" y="-227.5" font-family="Helvetica,sans-Serif" font-size="10.00">+</text>
<text xml:space="preserve" text-anchor="start" x="16.25" y="-227.5" font-family="Helvetica,sans-Serif" font-size="10.00">SetDomainIndeces()</text>
<text xml:space="preserve" text-anchor="start" x="4" y="-210.75" font-family="Helvetica,sans-Serif" font-size="10.00">+</text>
<text xml:space="preserve" text-anchor="start" x="16.25" y="-210.75" font-family="Helvetica,sans-Serif" font-size="10.00">CalculateGeometryData()</text>
<text xml:space="preserve" text-anchor="start" x="4" y="-194" font-family="Helvetica,sans-Serif" font-size="10.00">+</text>
<text xml:space="preserve" text-anchor="start" x="16.25" y="-194" font-family="Helvetica,sans-Serif" font-size="10.00">Invert()</text>
<text xml:space="preserve" text-anchor="start" x="4" y="-177.25" font-family="Helvetica,sans-Serif" font-size="10.00">+</text>
<text xml:space="preserve" text-anchor="start" x="16.25" y="-177.25" font-family="Helvetica,sans-Serif" font-size="10.00">Node()</text>
<text xml:space="preserve" text-anchor="start" x="4" y="-160.5" font-family="Helvetica,sans-Serif" font-size="10.00">+</text>
<text xml:space="preserve" text-anchor="start" x="16.25" y="-160.5" font-family="Helvetica,sans-Serif" font-size="10.00">NodePtr()</text>
<text xml:space="preserve" text-anchor="start" x="4" y="-143.75" font-family="Helvetica,sans-Serif" font-size="10.00">+</text>
<text xml:space="preserve" text-anchor="start" x="16.25" y="-143.75" font-family="Helvetica,sans-Serif" font-size="10.00">DomainPosition()</text>
<text xml:space="preserve" text-anchor="start" x="16.25" y="-127" font-family="Helvetica,sans-Serif" font-size="10.00">and 18 more...</text>
<polygon fill="#666666" stroke="#666666" points="0,-456.75 0,-456.75 145.5,-456.75 145.5,-456.75 0,-456.75"/>
<polygon fill="#666666" stroke="#666666" points="0,-306 0,-306 14.25,-306 14.25,-306 0,-306"/>
<polygon fill="#666666" stroke="#666666" points="14.25,-306 14.25,-306 145.5,-306 145.5,-306 14.25,-306"/>
<polygon fill="none" stroke="#666666" points="0,-119.75 0,-475.5 145.5,-475.5 145.5,-119.75 0,-119.75"/>
</a>
</g>
</g>
<!-- Node2&#45;&gt;Node1 -->
<g id="edge1_Node000001_Node000002" class="edge">
<title>Node2&#45;&gt;Node1</title>
<g id="a_edge1_Node000001_Node000002"><a xlink:title=" ">
<path fill="none" stroke="#63b8ff" d="M72.75,-119.88C72.75,-106.78 72.75,-94.42 72.75,-83.42"/>
<polygon fill="none" stroke="#63b8ff" points="72.75,-83.62 68.75,-77.62 72.75,-71.62 76.75,-77.62 72.75,-83.62"/>
</a>
</g>
<text xml:space="preserve" text-anchor="middle" x="92.25" y="-92.25" font-family="Helvetica,sans-Serif" font-size="10.00" fill="grey"> +origin</text>
</g>
</g>
</svg>

<g id="navigator" transform="translate(0 0)" fill="#404254">
  <rect fill="#f2f5e9" fill-opacity="0.5" stroke="#606060" stroke-width=".5" x="0" y="0" width="60" height="60"/>
  <use id="zoomplus" xlink:href="#zoomPlus" x="17" y="9" onmousedown="handleZoom(evt,'in')"/>
  <use id="zoomminus" xlink:href="#zoomMin" x="42" y="9" onmousedown="handleZoom(evt,'out')"/>
  <use id="reset" xlink:href="#resetDef" x="30" y="36" onmousedown="handleReset()"/>
   <use id="arrowup" xlink:href="#arrowUp" x="0" y="0" onmousedown="handlePan(0,-1)"/>
  <use id="arrowright" xlink:href="#arrowRight" x="0" y="0" onmousedown="handlePan(1,0)"/>
  <use id="arrowdown" xlink:href="#arrowDown" x="0" y="0" onmousedown="handlePan(0,1)"/>
  <use id="arrowleft" xlink:href="#arrowLeft" x="0" y="0" onmousedown="handlePan(-1,0)"/>
</g>
<svg viewBox="0 0 15 15" width="100%" height="30px" preserveAspectRatio="xMaxYMin meet">
 <g id="arrow_out" transform="scale(0.3 0.3)">
  <a xlink:href="structbspPolygon__coll__graph_org.svg" target="_base">
   <rect id="button" ry="5" rx="5" y="6" x="6" height="38" width="38"
        fill="#f2f5e9" fill-opacity="0.5" stroke="#606060" stroke-width="1.0"/>
   <path id="arrow"
     d="M 11.500037,31.436501 C 11.940474,20.09759 22.043105,11.32322 32.158766,21.979434 L 37.068811,17.246167 C 37.068811,17.246167 37.088388,32 37.088388,32 L 22.160133,31.978069 C 22.160133,31.978069 26.997745,27.140456 26.997745,27.140456 C 18.528582,18.264221 13.291696,25.230495 11.500037,31.436501 z"
     style="fill:#404040;"/>
  </a>
 </g>
</svg>

<style type='text/css'>
<![CDATA[
[data-mouse-over-selected='false'] { opacity: 0.7; }
[data-mouse-over-selected='true']  { opacity: 1.0; }
]]>
</style>
<script type="application/ecmascript"><![CDATA[
document.addEventListener('DOMContentLoaded', (event) => {
  highlightEdges();
  highlightAdjacentNodes();
});
]]></script>
</svg>
