<?xml version="1.0" encoding="UTF-8" standalone="no"?>
<!DOCTYPE svg PUBLIC "-//W3C//DTD SVG 1.1//EN"
 "http://www.w3.org/Graphics/SVG/1.1/DTD/svg11.dtd">
<!-- Generated by graphviz version 13.1.2 (20250809.0930)
 -->
<!-- Title: IntegrandInter::flattenVector Pages: 1 -->
<svg width="640pt" height="64pt"
 viewBox="0.00 0.00 640.00 64.00" xmlns="http://www.w3.org/2000/svg" xmlns:xlink="http://www.w3.org/1999/xlink">
<g id="graph0" class="graph" transform="scale(1 1) rotate(0) translate(4 59.5)">
<title>IntegrandInter::flattenVector</title>
<!-- Node1 -->
<g id="Node000001" class="node">
<title>Node1</title>
<g id="a_Node000001"><a xlink:title="Extract selected elements from a 3D array into a compact 3D structure.">
<polygon fill="#999999" stroke="#666666" points="631.75,-49.12 478.5,-49.12 478.5,-28.38 631.75,-28.38 631.75,-49.12"/>
<text xml:space="preserve" text-anchor="middle" x="555.12" y="-35.62" font-family="Helvetica,sans-Serif" font-size="10.00">IntegrandInter::flattenVector</text>
</a>
</g>
</g>
<!-- Node2 -->
<g id="Node000002" class="node">
<title>Node2</title>
<g id="a_Node000002"><a xlink:href="structIntegrandInter.html#a2668c7d108e647d129889975d618ecfc" target="_top" xlink:title="Function to create a flattened structure.">
<polygon fill="white" stroke="#666666" points="442.5,-49.12 320,-49.12 320,-28.38 442.5,-28.38 442.5,-49.12"/>
<text xml:space="preserve" text-anchor="middle" x="381.25" y="-35.62" font-family="Helvetica,sans-Serif" font-size="10.00">IntegrandInter::flatten</text>
</a>
</g>
</g>
<!-- Node1&#45;&gt;Node2 -->
<g id="edge1_Node000001_Node000002" class="edge">
<title>Node1&#45;&gt;Node2</title>
<g id="a_edge1_Node000001_Node000002"><a xlink:title=" ">
<path fill="none" stroke="#63b8ff" d="M466.78,-38.75C458.66,-38.75 450.56,-38.75 442.77,-38.75"/>
<polygon fill="#63b8ff" stroke="#63b8ff" points="466.72,-42.25 476.72,-38.75 466.72,-35.25 466.72,-42.25"/>
</a>
</g>
</g>
<!-- Node3 -->
<g id="Node000003" class="node">
<title>Node3</title>
<g id="a_Node000003"><a xlink:href="classSommerfeldIntegrator.html#a2537d36d62ecdecc297e19c8127f827a" target="_top" xlink:title="Computes inter&#45;layer coefficients for Green&#39;s function interpolation.">
<polygon fill="white" stroke="#666666" points="124,-55.5 0,-55.5 0,-22 124,-22 124,-55.5"/>
<text xml:space="preserve" text-anchor="start" x="8" y="-42" font-family="Helvetica,sans-Serif" font-size="10.00">SommerfeldIntegrator</text>
<text xml:space="preserve" text-anchor="middle" x="62" y="-29.25" font-family="Helvetica,sans-Serif" font-size="10.00">::Evaluate</text>
</a>
</g>
</g>
<!-- Node2&#45;&gt;Node3 -->
<g id="edge2_Node000002_Node000003" class="edge">
<title>Node2&#45;&gt;Node3</title>
<g id="a_edge2_Node000002_Node000003"><a xlink:title=" ">
<path fill="none" stroke="#63b8ff" d="M308.2,-42.07C300.04,-42.35 291.84,-42.59 284,-42.75 228.9,-43.89 215.1,-43.89 160,-42.75 148.46,-42.51 136.15,-42.12 124.31,-41.66"/>
<polygon fill="#63b8ff" stroke="#63b8ff" points="308.3,-45.57 318.16,-41.71 308.04,-38.57 308.3,-45.57"/>
</a>
</g>
</g>
<!-- Node4 -->
<g id="Node000004" class="node">
<title>Node4</title>
<g id="a_Node000004"><a xlink:href="classSommerfeldIntegrator.html#a5479217de11e54b823a970c39580fa64" target="_top" xlink:title="Computes the inter&#45;layer integration function.">
<polygon fill="white" stroke="#666666" points="284,-33.5 160,-33.5 160,0 284,0 284,-33.5"/>
<text xml:space="preserve" text-anchor="start" x="168" y="-20" font-family="Helvetica,sans-Serif" font-size="10.00">SommerfeldIntegrator</text>
<text xml:space="preserve" text-anchor="middle" x="222" y="-7.25" font-family="Helvetica,sans-Serif" font-size="10.00">::integrationFInter</text>
</a>
</g>
</g>
<!-- Node2&#45;&gt;Node4 -->
<g id="edge3_Node000002_Node000004" class="edge">
<title>Node2&#45;&gt;Node4</title>
<g id="a_edge3_Node000002_Node000004"><a xlink:title=" ">
<path fill="none" stroke="#63b8ff" d="M308.61,-28.73C300.56,-27.6 292.4,-26.46 284.49,-25.35"/>
<polygon fill="#63b8ff" stroke="#63b8ff" points="308.02,-32.18 318.4,-30.1 308.99,-25.25 308.02,-32.18"/>
</a>
</g>
</g>
<!-- Node4&#45;&gt;Node3 -->
<g id="edge4_Node000004_Node000003" class="edge">
<title>Node4&#45;&gt;Node3</title>
<g id="a_edge4_Node000004_Node000003"><a xlink:title=" ">
<path fill="none" stroke="#63b8ff" d="M148.6,-26.83C140.53,-27.96 132.36,-29.09 124.45,-30.19"/>
<polygon fill="#63b8ff" stroke="#63b8ff" points="148.99,-30.31 158.41,-25.46 148.03,-23.38 148.99,-30.31"/>
</a>
</g>
</g>
</g>
</svg>
