<?xml version="1.0" encoding="UTF-8" standalone="no"?>
<!DOCTYPE svg PUBLIC "-//W3C//DTD SVG 1.1//EN"
 "http://www.w3.org/Graphics/SVG/1.1/DTD/svg11.dtd">
<!-- Generated by graphviz version 13.1.2 (20250809.0930)
 -->
<!-- Title: PositionGroup Pages: 1 -->
<svg width="84pt" height="146pt"
 viewBox="0.00 0.00 84.00 146.00" xmlns="http://www.w3.org/2000/svg" xmlns:xlink="http://www.w3.org/1999/xlink">
<g id="graph0" class="graph" transform="scale(1 1) rotate(0) translate(4 142)">
<title>PositionGroup</title>
<!-- Node1 -->
<g id="Node000001" class="node">
<title>Node1</title>
<g id="a_Node000001"><a xlink:title="Structure representing a group of spatial positions categorized by layer indices.">
<polygon fill="#999999" stroke="none" points="76.25,-138 0,-138 0,0 76.25,0 76.25,-138"/>
<text xml:space="preserve" text-anchor="start" x="4" y="-124.5" font-family="Helvetica,sans-Serif" font-size="10.00">PositionGroup</text>
<text xml:space="preserve" text-anchor="start" x="12.19" y="-107.75" font-family="Helvetica,sans-Serif" font-size="10.00">+</text>
<text xml:space="preserve" text-anchor="start" x="32.62" y="-107.75" font-family="Helvetica,sans-Serif" font-size="10.00">i1</text>
<text xml:space="preserve" text-anchor="start" x="12.19" y="-91" font-family="Helvetica,sans-Serif" font-size="10.00">+</text>
<text xml:space="preserve" text-anchor="start" x="32.62" y="-91" font-family="Helvetica,sans-Serif" font-size="10.00">i2</text>
<text xml:space="preserve" text-anchor="start" x="12.19" y="-74.25" font-family="Helvetica,sans-Serif" font-size="10.00">+</text>
<text xml:space="preserve" text-anchor="start" x="32.62" y="-74.25" font-family="Helvetica,sans-Serif" font-size="10.00">pos1</text>
<text xml:space="preserve" text-anchor="start" x="12.19" y="-57.5" font-family="Helvetica,sans-Serif" font-size="10.00">+</text>
<text xml:space="preserve" text-anchor="start" x="32.62" y="-57.5" font-family="Helvetica,sans-Serif" font-size="10.00">pos2</text>
<text xml:space="preserve" text-anchor="start" x="12.19" y="-40.75" font-family="Helvetica,sans-Serif" font-size="10.00">+</text>
<text xml:space="preserve" text-anchor="start" x="32.62" y="-40.75" font-family="Helvetica,sans-Serif" font-size="10.00">ind1</text>
<text xml:space="preserve" text-anchor="start" x="12.19" y="-24" font-family="Helvetica,sans-Serif" font-size="10.00">+</text>
<text xml:space="preserve" text-anchor="start" x="32.62" y="-24" font-family="Helvetica,sans-Serif" font-size="10.00">ind2</text>
<text xml:space="preserve" text-anchor="start" x="36.62" y="-7.25" font-family="Helvetica,sans-Serif" font-size="10.00"> </text>
<polygon fill="#666666" stroke="#666666" points="0,-119.25 0,-119.25 76.25,-119.25 76.25,-119.25 0,-119.25"/>
<polygon fill="#666666" stroke="#666666" points="0,-18.75 0,-18.75 30.62,-18.75 30.62,-18.75 0,-18.75"/>
<polygon fill="#666666" stroke="#666666" points="30.62,-18.75 30.62,-18.75 76.25,-18.75 76.25,-18.75 30.62,-18.75"/>
<polygon fill="none" stroke="#666666" points="0,0 0,-138 76.25,-138 76.25,0 0,0"/>
</a>
</g>
</g>
</g>
</svg>
