<?xml version="1.0" encoding="UTF-8" standalone="no"?>
<!DOCTYPE svg PUBLIC "-//W3C//DTD SVG 1.1//EN"
 "http://www.w3.org/Graphics/SVG/1.1/DTD/svg11.dtd">
<!-- Generated by graphviz version 13.1.2 (20250809.0930)
 -->
<!-- Title: layeredCoords Pages: 1 -->
<svg width="87pt" height="129pt"
 viewBox="0.00 0.00 87.00 129.00" xmlns="http://www.w3.org/2000/svg" xmlns:xlink="http://www.w3.org/1999/xlink">
<g id="graph0" class="graph" transform="scale(1 1) rotate(0) translate(4 125.25)">
<title>layeredCoords</title>
<!-- Node1 -->
<g id="Node000001" class="node">
<title>Node1</title>
<g id="a_Node000001"><a xlink:title="Structure representing stratified coordinates in a layered medium.">
<polygon fill="#999999" stroke="none" points="78.5,-121.25 0,-121.25 0,0 78.5,0 78.5,-121.25"/>
<text xml:space="preserve" text-anchor="start" x="4" y="-107.75" font-family="Helvetica,sans-Serif" font-size="10.00">layeredCoords</text>
<text xml:space="preserve" text-anchor="start" x="15.38" y="-91" font-family="Helvetica,sans-Serif" font-size="10.00">+</text>
<text xml:space="preserve" text-anchor="start" x="39" y="-91" font-family="Helvetica,sans-Serif" font-size="10.00">r</text>
<text xml:space="preserve" text-anchor="start" x="15.38" y="-74.25" font-family="Helvetica,sans-Serif" font-size="10.00">+</text>
<text xml:space="preserve" text-anchor="start" x="39" y="-74.25" font-family="Helvetica,sans-Serif" font-size="10.00">Z1</text>
<text xml:space="preserve" text-anchor="start" x="15.38" y="-57.5" font-family="Helvetica,sans-Serif" font-size="10.00">+</text>
<text xml:space="preserve" text-anchor="start" x="39" y="-57.5" font-family="Helvetica,sans-Serif" font-size="10.00">Z2</text>
<text xml:space="preserve" text-anchor="start" x="15.38" y="-40.75" font-family="Helvetica,sans-Serif" font-size="10.00">+</text>
<text xml:space="preserve" text-anchor="start" x="39" y="-40.75" font-family="Helvetica,sans-Serif" font-size="10.00">R1</text>
<text xml:space="preserve" text-anchor="start" x="15.38" y="-24" font-family="Helvetica,sans-Serif" font-size="10.00">+</text>
<text xml:space="preserve" text-anchor="start" x="39" y="-24" font-family="Helvetica,sans-Serif" font-size="10.00">R2</text>
<text xml:space="preserve" text-anchor="start" x="37.75" y="-7.25" font-family="Helvetica,sans-Serif" font-size="10.00"> </text>
<polygon fill="#666666" stroke="#666666" points="0,-102.5 0,-102.5 78.5,-102.5 78.5,-102.5 0,-102.5"/>
<polygon fill="#666666" stroke="#666666" points="0,-18.75 0,-18.75 37,-18.75 37,-18.75 0,-18.75"/>
<polygon fill="#666666" stroke="#666666" points="37,-18.75 37,-18.75 78.5,-18.75 78.5,-18.75 37,-18.75"/>
<polygon fill="none" stroke="#666666" points="0,0 0,-121.25 78.5,-121.25 78.5,0 0,0"/>
</a>
</g>
</g>
</g>
</svg>
