<?xml version="1.0" encoding="UTF-8" standalone="no"?>
<!DOCTYPE svg PUBLIC "-//W3C//DTD SVG 1.1//EN"
 "http://www.w3.org/Graphics/SVG/1.1/DTD/svg11.dtd">
<!-- Generated by graphviz version 13.1.2 (20250809.0930)
 -->
<!-- Title: SurfaceMesh.cpp Pages: 1 -->
<!--zoomable 256 -->

<svg id="main" version="1.1" xmlns="http://www.w3.org/2000/svg" xmlns:xlink="http://www.w3.org/1999/xlink" xml:space="preserve" onload="init(evt)">

<style type="text/css"><![CDATA[
.node, .edge {opacity: 0.7;}
.node.selected, .edge.selected {opacity: 1;}
.edge:hover path { stroke: red; }
.edge:hover polygon { stroke: red; fill: red; }
]]></style>

<defs>
  <circle id="rim" cx="0" cy="0" r="7"/>
  <circle id="rim2" cx="0" cy="0" r="3.5"/>
  <g id="zoomPlus">
    <use xlink:href="#rim" fill="#404040"><set attributeName="fill" to="#808080" begin="zoomplus.mouseover" end="zoomplus.mouseout"/></use>
    <path d="M-4,0h8M0,-4v8" fill="none" stroke="white" stroke-width="1.5" pointer-events="none"/>
  </g>
  <g id="zoomMin">
    <use xlink:href="#rim" fill="#404040"><set attributeName="fill" to="#808080" begin="zoomminus.mouseover" end="zoomminus.mouseout"/></use>
    <path d="M-4,0h8" fill="none" stroke="white" stroke-width="1.5" pointer-events="none"/>
  </g>
  <g id="arrowUp" transform="translate(30 24)">
    <use xlink:href="#rim"/>
    <path pointer-events="none" fill="none" stroke="white" stroke-width="1.5" d="M0,-3.0v7 M-2.5,-0.5L0,-3.0L2.5,-0.5"/>
  </g>
  <g id="arrowRight" transform="rotate(90) translate(36 -43)">
    <use xlink:href="#rim"/>
    <path pointer-events="none" fill="none" stroke="white" stroke-width="1.5" d="M0,-3.0v7 M-2.5,-0.5L0,-3.0L2.5,-0.5"/>
  </g>
  <g id="arrowDown" transform="rotate(180) translate(-30 -48)">
    <use xlink:href="#rim"/>
    <path pointer-events="none" fill="none" stroke="white" stroke-width="1.5" d="M0,-3.0v7 M-2.5,-0.5L0,-3.0L2.5,-0.5"/>
  </g>
  <g id="arrowLeft" transform="rotate(270) translate(-36 17)">
    <use xlink:href="#rim"/>
    <path pointer-events="none" fill="none" stroke="white" stroke-width="1.5" d="M0,-3.0v7 M-2.5,-0.5L0,-3.0L2.5,-0.5"/>
  </g>
  <g id="resetDef">
    <use xlink:href="#rim2" fill="#404040"><set attributeName="fill" to="#808080" begin="reset.mouseover" end="reset.mouseout"/></use>
  </g>
</defs>
<script type="application/ecmascript">
var viewWidth = 719;
var viewHeight = 256;
var sectionId = 'dynsection-0';
</script>
<script type="application/ecmascript" xlink:href="svg.min.js"/>
<svg id="graph" class="graph">
<g id="viewport">
<title>SurfaceMesh.cpp</title>
<!-- Node1 -->
<g id="Node000001" class="node">
<title>Node1</title>
<g id="a_Node000001"><a xlink:title="Implementation of SurfaceMesh mesh I/O and utilities.">
<polygon fill="#999999" stroke="#666666" points="600.88,-247.75 501.62,-247.75 501.62,-227 600.88,-227 600.88,-247.75"/>
<text xml:space="preserve" text-anchor="middle" x="551.25" y="-234.25" font-family="Helvetica,sans-Serif" font-size="10.00">SurfaceMesh.cpp</text>
</a>
</g>
</g>
<!-- Node2 -->
<g id="Node000002" class="node">
<title>Node2</title>
<g id="a_Node000002"><a xlink:href="SurfaceMesh_8h.html" target="_top" xlink:title="Declaration of the SurfaceMesh class and mesh edge struct.">
<polygon fill="white" stroke="#666666" points="322.25,-191 234.25,-191 234.25,-170.25 322.25,-170.25 322.25,-191"/>
<text xml:space="preserve" text-anchor="middle" x="278.25" y="-177.5" font-family="Helvetica,sans-Serif" font-size="10.00">SurfaceMesh.h</text>
</a>
</g>
</g>
<!-- Node1&#45;&gt;Node2 -->
<g id="edge1_Node000001_Node000002" class="edge">
<title>Node1&#45;&gt;Node2</title>
<g id="a_edge1_Node000001_Node000002"><a xlink:title=" ">
<path fill="none" stroke="#63b8ff" d="M502.13,-226.52C454.7,-217.01 383,-202.63 333.58,-192.72"/>
<polygon fill="#63b8ff" stroke="#63b8ff" points="334.44,-189.32 323.95,-190.79 333.06,-196.19 334.44,-189.32"/>
</a>
</g>
</g>
<!-- Node7 -->
<g id="Node000007" class="node">
<title>Node7</title>
<g id="a_Node000007"><a xlink:title=" ">
<polygon fill="#e0e0e0" stroke="#999999" points="443.38,-77.5 389.12,-77.5 389.12,-56.75 443.38,-56.75 443.38,-77.5"/>
<text xml:space="preserve" text-anchor="middle" x="416.25" y="-64" font-family="Helvetica,sans-Serif" font-size="10.00">fstream</text>
</a>
</g>
</g>
<!-- Node1&#45;&gt;Node7 -->
<g id="edge24_Node000001_Node000007" class="edge">
<title>Node1&#45;&gt;Node7</title>
<g id="a_edge24_Node000001_Node000007"><a xlink:title=" ">
<path fill="none" stroke="#63b8ff" d="M545.3,-226.66C532,-205.24 498.34,-152.78 464.25,-113.5 455.68,-103.63 445.23,-93.55 436.26,-85.41"/>
<polygon fill="#63b8ff" stroke="#63b8ff" points="438.85,-83.03 429.05,-78.99 434.2,-88.26 438.85,-83.03"/>
</a>
</g>
</g>
<!-- Node8 -->
<g id="Node000008" class="node">
<title>Node8</title>
<g id="a_Node000008"><a xlink:title=" ">
<polygon fill="#e0e0e0" stroke="#999999" points="657,-77.5 597.5,-77.5 597.5,-56.75 657,-56.75 657,-77.5"/>
<text xml:space="preserve" text-anchor="middle" x="627.25" y="-64" font-family="Helvetica,sans-Serif" font-size="10.00">iostream</text>
</a>
</g>
</g>
<!-- Node1&#45;&gt;Node8 -->
<g id="edge25_Node000001_Node000008" class="edge">
<title>Node1&#45;&gt;Node8</title>
<g id="a_edge25_Node000001_Node000008"><a xlink:title=" ">
<path fill="none" stroke="#63b8ff" d="M556.18,-226.61C565.24,-208.53 585.02,-168.58 600.25,-134.25 607.03,-118.98 614.15,-101.46 619.38,-88.3"/>
<polygon fill="#63b8ff" stroke="#63b8ff" points="622.62,-89.61 623.03,-79.03 616.11,-87.05 622.62,-89.61"/>
</a>
</g>
</g>
<!-- Node18 -->
<g id="Node000018" class="node">
<title>Node18</title>
<g id="a_Node000018"><a xlink:title=" ">
<polygon fill="#e0e0e0" stroke="#999999" points="710.88,-191 647.62,-191 647.62,-170.25 710.88,-170.25 710.88,-191"/>
<text xml:space="preserve" text-anchor="middle" x="679.25" y="-177.5" font-family="Helvetica,sans-Serif" font-size="10.00">algorithm</text>
</a>
</g>
</g>
<!-- Node1&#45;&gt;Node18 -->
<g id="edge23_Node000001_Node000018" class="edge">
<title>Node1&#45;&gt;Node18</title>
<g id="a_edge23_Node000001_Node000018"><a xlink:title=" ">
<path fill="none" stroke="#63b8ff" d="M574.13,-226.59C594.16,-218.02 623.49,-205.48 646.08,-195.81"/>
<polygon fill="#63b8ff" stroke="#63b8ff" points="647.35,-199.07 655.17,-191.92 644.6,-192.64 647.35,-199.07"/>
</a>
</g>
</g>
<!-- Node19 -->
<g id="Node000019" class="node">
<title>Node19</title>
<g id="a_Node000019"><a xlink:href="iofunctions_8h.html" target="_top" xlink:title="Small helper templates for reading whitespace&#45;separated values from text files while skipping line co...">
<polygon fill="white" stroke="#666666" points="590.75,-134.25 511.75,-134.25 511.75,-113.5 590.75,-113.5 590.75,-134.25"/>
<text xml:space="preserve" text-anchor="middle" x="551.25" y="-120.75" font-family="Helvetica,sans-Serif" font-size="10.00">iofunctions.h</text>
</a>
</g>
</g>
<!-- Node1&#45;&gt;Node19 -->
<g id="edge26_Node000001_Node000019" class="edge">
<title>Node1&#45;&gt;Node19</title>
<g id="a_edge26_Node000001_Node000019"><a xlink:title=" ">
<path fill="none" stroke="#63b8ff" d="M551.25,-226.87C551.25,-209.1 551.25,-170.47 551.25,-146.18"/>
<polygon fill="#63b8ff" stroke="#63b8ff" points="554.75,-146.19 551.25,-136.19 547.75,-146.19 554.75,-146.19"/>
</a>
</g>
</g>
<!-- Node3 -->
<g id="Node000003" class="node">
<title>Node3</title>
<g id="a_Node000003"><a xlink:title=" ">
<polygon fill="#e0e0e0" stroke="#999999" points="367.75,-134.25 336.75,-134.25 336.75,-113.5 367.75,-113.5 367.75,-134.25"/>
<text xml:space="preserve" text-anchor="middle" x="352.25" y="-120.75" font-family="Helvetica,sans-Serif" font-size="10.00">set</text>
</a>
</g>
</g>
<!-- Node2&#45;&gt;Node3 -->
<g id="edge2_Node000002_Node000003" class="edge">
<title>Node2&#45;&gt;Node3</title>
<g id="a_edge2_Node000002_Node000003"><a xlink:title=" ">
<path fill="none" stroke="#63b8ff" d="M291.48,-169.84C302.21,-161.9 317.57,-150.53 330.17,-141.21"/>
<polygon fill="#63b8ff" stroke="#63b8ff" points="331.96,-144.24 337.92,-135.48 327.8,-138.61 331.96,-144.24"/>
</a>
</g>
</g>
<!-- Node4 -->
<g id="Node000004" class="node">
<title>Node4</title>
<g id="a_Node000004"><a xlink:title=" ">
<polygon fill="#e0e0e0" stroke="#999999" points="44.5,-134.25 0,-134.25 0,-113.5 44.5,-113.5 44.5,-134.25"/>
<text xml:space="preserve" text-anchor="middle" x="22.25" y="-120.75" font-family="Helvetica,sans-Serif" font-size="10.00">utility</text>
</a>
</g>
</g>
<!-- Node2&#45;&gt;Node4 -->
<g id="edge3_Node000002_Node000004" class="edge">
<title>Node2&#45;&gt;Node4</title>
<g id="a_edge3_Node000002_Node000004"><a xlink:title=" ">
<path fill="none" stroke="#63b8ff" d="M234,-171.98C190.74,-164.22 122.81,-151.29 55.64,-134.68"/>
<polygon fill="#63b8ff" stroke="#63b8ff" points="56.89,-131.39 46.34,-132.35 55.19,-138.18 56.89,-131.39"/>
</a>
</g>
</g>
<!-- Node5 -->
<g id="Node000005" class="node">
<title>Node5</title>
<g id="a_Node000005"><a xlink:title=" ">
<polygon fill="#e0e0e0" stroke="#999999" points="312.62,-77.5 265.88,-77.5 265.88,-56.75 312.62,-56.75 312.62,-77.5"/>
<text xml:space="preserve" text-anchor="middle" x="289.25" y="-64" font-family="Helvetica,sans-Serif" font-size="10.00">vector</text>
</a>
</g>
</g>
<!-- Node2&#45;&gt;Node5 -->
<g id="edge4_Node000002_Node000005" class="edge">
<title>Node2&#45;&gt;Node5</title>
<g id="a_edge4_Node000002_Node000005"><a xlink:title=" ">
<path fill="none" stroke="#63b8ff" d="M281.29,-170.01C283.99,-160.91 287.75,-146.81 289.25,-134.25 291.05,-119.2 290.99,-102.09 290.52,-89.05"/>
<polygon fill="#63b8ff" stroke="#63b8ff" points="294.01,-88.91 290.03,-79.1 287.02,-89.26 294.01,-88.91"/>
</a>
</g>
</g>
<!-- Node6 -->
<g id="Node000006" class="node">
<title>Node6</title>
<g id="a_Node000006"><a xlink:href="JobParser_8h.html" target="_top" xlink:title="Lightweight XML&#45;like tag parser for the solver job file.">
<polygon fill="white" stroke="#666666" points="454.88,-134.25 385.62,-134.25 385.62,-113.5 454.88,-113.5 454.88,-134.25"/>
<text xml:space="preserve" text-anchor="middle" x="420.25" y="-120.75" font-family="Helvetica,sans-Serif" font-size="10.00">JobParser.h</text>
</a>
</g>
</g>
<!-- Node2&#45;&gt;Node6 -->
<g id="edge5_Node000002_Node000006" class="edge">
<title>Node2&#45;&gt;Node6</title>
<g id="a_edge5_Node000002_Node000006"><a xlink:title=" ">
<path fill="none" stroke="#63b8ff" d="M303.64,-169.84C326.15,-161.16 359.28,-148.38 384.48,-138.67"/>
<polygon fill="#63b8ff" stroke="#63b8ff" points="385.6,-141.99 393.67,-135.12 383.08,-135.45 385.6,-141.99"/>
</a>
</g>
</g>
<!-- Node10 -->
<g id="Node000010" class="node">
<title>Node10</title>
<g id="a_Node000010"><a xlink:href="Triangle_8h.html" target="_top" xlink:title="Declaration of the Triangle class (surface element with cached geometry).">
<polygon fill="white" stroke="#666666" points="279.88,-134.25 216.62,-134.25 216.62,-113.5 279.88,-113.5 279.88,-134.25"/>
<text xml:space="preserve" text-anchor="middle" x="248.25" y="-120.75" font-family="Helvetica,sans-Serif" font-size="10.00">Triangle.h</text>
</a>
</g>
</g>
<!-- Node2&#45;&gt;Node10 -->
<g id="edge10_Node000002_Node000010" class="edge">
<title>Node2&#45;&gt;Node10</title>
<g id="a_edge10_Node000002_Node000010"><a xlink:title=" ">
<path fill="none" stroke="#63b8ff" d="M272.89,-169.84C269.05,-162.83 263.75,-153.16 259.05,-144.58"/>
<polygon fill="#63b8ff" stroke="#63b8ff" points="262.17,-142.99 254.29,-135.91 256.03,-146.36 262.17,-142.99"/>
</a>
</g>
</g>
<!-- Node11 -->
<g id="Node000011" class="node">
<title>Node11</title>
<g id="a_Node000011"><a xlink:href="globals_8h.html" target="_top" xlink:title="Global numerical constants, fundamental types, and simple macros.">
<polygon fill="white" stroke="#666666" points="227.38,-77.5 167.12,-77.5 167.12,-56.75 227.38,-56.75 227.38,-77.5"/>
<text xml:space="preserve" text-anchor="middle" x="197.25" y="-64" font-family="Helvetica,sans-Serif" font-size="10.00">globals.h</text>
</a>
</g>
</g>
<!-- Node2&#45;&gt;Node11 -->
<g id="edge17_Node000002_Node000011" class="edge">
<title>Node2&#45;&gt;Node11</title>
<g id="a_edge17_Node000002_Node000011"><a xlink:title=" ">
<path fill="none" stroke="#63b8ff" d="M252.87,-169.9C237.16,-162.52 218.01,-150.81 207.25,-134.25 198.63,-120.98 196.35,-103.1 196.11,-89.28"/>
<polygon fill="#63b8ff" stroke="#63b8ff" points="199.61,-89.55 196.3,-79.49 192.61,-89.42 199.61,-89.55"/>
</a>
</g>
</g>
<!-- Node16 -->
<g id="Node000016" class="node">
<title>Node16</title>
<g id="a_Node000016"><a xlink:href="mathFunctions_8h.html" target="_top" xlink:title="Header file of the class that provides auxiliary mathematical functionalities for the SIE solver.">
<polygon fill="white" stroke="#666666" points="159.75,-134.25 62.75,-134.25 62.75,-113.5 159.75,-113.5 159.75,-134.25"/>
<text xml:space="preserve" text-anchor="middle" x="111.25" y="-120.75" font-family="Helvetica,sans-Serif" font-size="10.00">mathFunctions.h</text>
</a>
</g>
</g>
<!-- Node2&#45;&gt;Node16 -->
<g id="edge18_Node000002_Node000016" class="edge">
<title>Node2&#45;&gt;Node16</title>
<g id="a_edge18_Node000002_Node000016"><a xlink:title=" ">
<path fill="none" stroke="#63b8ff" d="M248.39,-169.84C221.52,-161.03 181.8,-148 152.01,-138.24"/>
<polygon fill="#63b8ff" stroke="#63b8ff" points="153.16,-134.93 142.57,-135.14 150.98,-141.58 153.16,-134.93"/>
</a>
</g>
</g>
<!-- Node6&#45;&gt;Node5 -->
<g id="edge9_Node000006_Node000005" class="edge">
<title>Node6&#45;&gt;Node5</title>
<g id="a_edge9_Node000006_Node000005"><a xlink:title=" ">
<path fill="none" stroke="#63b8ff" d="M396.83,-113.09C376.25,-104.48 346.05,-91.86 322.88,-82.18"/>
<polygon fill="#63b8ff" stroke="#63b8ff" points="324.44,-79.04 313.86,-78.41 321.74,-85.5 324.44,-79.04"/>
</a>
</g>
</g>
<!-- Node6&#45;&gt;Node7 -->
<g id="edge6_Node000006_Node000007" class="edge">
<title>Node6&#45;&gt;Node7</title>
<g id="a_edge6_Node000006_Node000007"><a xlink:title=" ">
<path fill="none" stroke="#63b8ff" d="M419.53,-113.09C419.05,-106.47 418.39,-97.47 417.79,-89.27"/>
<polygon fill="#63b8ff" stroke="#63b8ff" points="421.29,-89.06 417.07,-79.34 414.31,-89.57 421.29,-89.06"/>
</a>
</g>
</g>
<!-- Node6&#45;&gt;Node8 -->
<g id="edge7_Node000006_Node000008" class="edge">
<title>Node6&#45;&gt;Node8</title>
<g id="a_edge7_Node000006_Node000008"><a xlink:title=" ">
<path fill="none" stroke="#63b8ff" d="M455.36,-113.59C491.58,-104.01 548.03,-89.08 586.27,-78.96"/>
<polygon fill="#63b8ff" stroke="#63b8ff" points="586.78,-82.45 595.56,-76.51 584.99,-75.68 586.78,-82.45"/>
</a>
</g>
</g>
<!-- Node9 -->
<g id="Node000009" class="node">
<title>Node9</title>
<g id="a_Node000009"><a xlink:title=" ">
<polygon fill="#e0e0e0" stroke="#999999" points="505.12,-77.5 461.38,-77.5 461.38,-56.75 505.12,-56.75 505.12,-77.5"/>
<text xml:space="preserve" text-anchor="middle" x="483.25" y="-64" font-family="Helvetica,sans-Serif" font-size="10.00">string</text>
</a>
</g>
</g>
<!-- Node6&#45;&gt;Node9 -->
<g id="edge8_Node000006_Node000009" class="edge">
<title>Node6&#45;&gt;Node9</title>
<g id="a_edge8_Node000006_Node000009"><a xlink:title=" ">
<path fill="none" stroke="#63b8ff" d="M431.51,-113.09C440.38,-105.38 452.96,-94.45 463.5,-85.29"/>
<polygon fill="#63b8ff" stroke="#63b8ff" points="465.69,-88.02 470.94,-78.82 461.1,-82.74 465.69,-88.02"/>
</a>
</g>
</g>
<!-- Node10&#45;&gt;Node5 -->
<g id="edge11_Node000010_Node000005" class="edge">
<title>Node10&#45;&gt;Node5</title>
<g id="a_edge11_Node000010_Node000005"><a xlink:title=" ">
<path fill="none" stroke="#63b8ff" d="M255.58,-113.09C261,-105.85 268.56,-95.76 275.14,-86.97"/>
<polygon fill="#63b8ff" stroke="#63b8ff" points="277.88,-89.14 281.08,-79.04 272.28,-84.95 277.88,-89.14"/>
</a>
</g>
</g>
<!-- Node10&#45;&gt;Node11 -->
<g id="edge12_Node000010_Node000011" class="edge">
<title>Node10&#45;&gt;Node11</title>
<g id="a_edge12_Node000010_Node000011"><a xlink:title=" ">
<path fill="none" stroke="#63b8ff" d="M239.13,-113.09C232.17,-105.61 222.38,-95.11 214.02,-86.13"/>
<polygon fill="#63b8ff" stroke="#63b8ff" points="216.7,-83.87 207.32,-78.94 211.58,-88.64 216.7,-83.87"/>
</a>
</g>
</g>
<!-- Node12 -->
<g id="Node000012" class="node">
<title>Node12</title>
<g id="a_Node000012"><a xlink:title=" ">
<polygon fill="#e0e0e0" stroke="#999999" points="336.75,-20.75 263.75,-20.75 263.75,0 336.75,0 336.75,-20.75"/>
<text xml:space="preserve" text-anchor="middle" x="300.25" y="-7.25" font-family="Helvetica,sans-Serif" font-size="10.00">blitz/array.h</text>
</a>
</g>
</g>
<!-- Node11&#45;&gt;Node12 -->
<g id="edge13_Node000011_Node000012" class="edge">
<title>Node11&#45;&gt;Node12</title>
<g id="a_edge13_Node000011_Node000012"><a xlink:title=" ">
<path fill="none" stroke="#63b8ff" d="M215.66,-56.34C231.34,-48.01 254.1,-35.91 272.06,-26.36"/>
<polygon fill="#63b8ff" stroke="#63b8ff" points="273.47,-29.57 280.66,-21.79 270.19,-23.39 273.47,-29.57"/>
</a>
</g>
</g>
<!-- Node13 -->
<g id="Node000013" class="node">
<title>Node13</title>
<g id="a_Node000013"><a xlink:title=" ">
<polygon fill="#e0e0e0" stroke="#999999" points="445.75,-20.75 354.75,-20.75 354.75,0 445.75,0 445.75,-20.75"/>
<text xml:space="preserve" text-anchor="middle" x="400.25" y="-7.25" font-family="Helvetica,sans-Serif" font-size="10.00">blitz/tinyvec2.h</text>
</a>
</g>
</g>
<!-- Node11&#45;&gt;Node13 -->
<g id="edge14_Node000011_Node000013" class="edge">
<title>Node11&#45;&gt;Node13</title>
<g id="a_edge14_Node000011_Node000013"><a xlink:title=" ">
<path fill="none" stroke="#63b8ff" d="M227.64,-57.93C260.76,-49 314.18,-34.59 352.83,-24.17"/>
<polygon fill="#63b8ff" stroke="#63b8ff" points="353.6,-27.58 362.35,-21.6 351.78,-20.82 353.6,-27.58"/>
</a>
</g>
</g>
<!-- Node14 -->
<g id="Node000014" class="node">
<title>Node14</title>
<g id="a_Node000014"><a xlink:title=" ">
<polygon fill="#e0e0e0" stroke="#999999" points="245.38,-20.75 149.12,-20.75 149.12,0 245.38,0 245.38,-20.75"/>
<text xml:space="preserve" text-anchor="middle" x="197.25" y="-7.25" font-family="Helvetica,sans-Serif" font-size="10.00">blitz/tvecglobs.h</text>
</a>
</g>
</g>
<!-- Node11&#45;&gt;Node14 -->
<g id="edge15_Node000011_Node000014" class="edge">
<title>Node11&#45;&gt;Node14</title>
<g id="a_edge15_Node000011_Node000014"><a xlink:title=" ">
<path fill="none" stroke="#63b8ff" d="M197.25,-56.34C197.25,-49.72 197.25,-40.72 197.25,-32.52"/>
<polygon fill="#63b8ff" stroke="#63b8ff" points="200.75,-32.59 197.25,-22.59 193.75,-32.59 200.75,-32.59"/>
</a>
</g>
</g>
<!-- Node15 -->
<g id="Node000015" class="node">
<title>Node15</title>
<g id="a_Node000015"><a xlink:title=" ">
<polygon fill="#e0e0e0" stroke="#999999" points="131.25,-20.75 73.25,-20.75 73.25,0 131.25,0 131.25,-20.75"/>
<text xml:space="preserve" text-anchor="middle" x="102.25" y="-7.25" font-family="Helvetica,sans-Serif" font-size="10.00">complex</text>
</a>
</g>
</g>
<!-- Node11&#45;&gt;Node15 -->
<g id="edge16_Node000011_Node000015" class="edge">
<title>Node11&#45;&gt;Node15</title>
<g id="a_edge16_Node000011_Node000015"><a xlink:title=" ">
<path fill="none" stroke="#63b8ff" d="M180.27,-56.34C165.95,-48.08 145.21,-36.13 128.71,-26.63"/>
<polygon fill="#63b8ff" stroke="#63b8ff" points="130.81,-23.8 120.4,-21.83 127.31,-29.86 130.81,-23.8"/>
</a>
</g>
</g>
<!-- Node16&#45;&gt;Node5 -->
<g id="edge21_Node000016_Node000005" class="edge">
<title>Node16&#45;&gt;Node5</title>
<g id="a_edge21_Node000016_Node000005"><a xlink:title=" ">
<path fill="none" stroke="#63b8ff" d="M143.07,-113.09C174.47,-103.43 222.33,-88.71 254.66,-78.77"/>
<polygon fill="#63b8ff" stroke="#63b8ff" points="255.41,-82.19 263.94,-75.91 253.36,-75.5 255.41,-82.19"/>
</a>
</g>
</g>
<!-- Node16&#45;&gt;Node11 -->
<g id="edge22_Node000016_Node000011" class="edge">
<title>Node16&#45;&gt;Node11</title>
<g id="a_edge22_Node000016_Node000011"><a xlink:title=" ">
<path fill="none" stroke="#63b8ff" d="M126.63,-113.09C139.34,-104.99 157.65,-93.33 172.44,-83.92"/>
<polygon fill="#63b8ff" stroke="#63b8ff" points="174.18,-86.96 180.73,-78.64 170.42,-81.06 174.18,-86.96"/>
</a>
</g>
</g>
<!-- Node16&#45;&gt;Node15 -->
<g id="edge20_Node000016_Node000015" class="edge">
<title>Node16&#45;&gt;Node15</title>
<g id="a_edge20_Node000016_Node000015"><a xlink:title=" ">
<path fill="none" stroke="#63b8ff" d="M110.48,-113.37C109.04,-95.52 105.9,-56.61 103.94,-32.34"/>
<polygon fill="#63b8ff" stroke="#63b8ff" points="107.46,-32.37 103.16,-22.68 100.48,-32.93 107.46,-32.37"/>
</a>
</g>
</g>
<!-- Node17 -->
<g id="Node000017" class="node">
<title>Node17</title>
<g id="a_Node000017"><a xlink:title=" ">
<polygon fill="#e0e0e0" stroke="#999999" points="83.5,-77.5 33,-77.5 33,-56.75 83.5,-56.75 83.5,-77.5"/>
<text xml:space="preserve" text-anchor="middle" x="58.25" y="-64" font-family="Helvetica,sans-Serif" font-size="10.00">math.h</text>
</a>
</g>
</g>
<!-- Node16&#45;&gt;Node17 -->
<g id="edge19_Node000016_Node000017" class="edge">
<title>Node16&#45;&gt;Node17</title>
<g id="a_edge19_Node000016_Node000017"><a xlink:title=" ">
<path fill="none" stroke="#63b8ff" d="M101.77,-113.09C94.46,-105.53 84.16,-94.89 75.41,-85.85"/>
<polygon fill="#63b8ff" stroke="#63b8ff" points="78.17,-83.67 68.7,-78.92 73.14,-88.54 78.17,-83.67"/>
</a>
</g>
</g>
<!-- Node19&#45;&gt;Node7 -->
<g id="edge27_Node000019_Node000007" class="edge">
<title>Node19&#45;&gt;Node7</title>
<g id="a_edge27_Node000019_Node000007"><a xlink:title=" ">
<path fill="none" stroke="#63b8ff" d="M527.11,-113.09C505.81,-104.44 474.5,-91.75 450.58,-82.05"/>
<polygon fill="#63b8ff" stroke="#63b8ff" points="452.16,-78.91 441.58,-78.4 449.53,-85.4 452.16,-78.91"/>
</a>
</g>
</g>
<!-- Node19&#45;&gt;Node8 -->
<g id="edge28_Node000019_Node000008" class="edge">
<title>Node19&#45;&gt;Node8</title>
<g id="a_edge28_Node000019_Node000008"><a xlink:title=" ">
<path fill="none" stroke="#63b8ff" d="M564.84,-113.09C575.86,-105.15 591.64,-93.78 604.57,-84.46"/>
<polygon fill="#63b8ff" stroke="#63b8ff" points="606.48,-87.4 612.55,-78.71 602.39,-81.72 606.48,-87.4"/>
</a>
</g>
</g>
<!-- Node19&#45;&gt;Node9 -->
<g id="edge30_Node000019_Node000009" class="edge">
<title>Node19&#45;&gt;Node9</title>
<g id="a_edge30_Node000019_Node000009"><a xlink:title=" ">
<path fill="none" stroke="#63b8ff" d="M539.09,-113.09C529.42,-105.3 515.67,-94.22 504.23,-85.01"/>
<polygon fill="#63b8ff" stroke="#63b8ff" points="506.46,-82.32 496.48,-78.78 502.07,-87.78 506.46,-82.32"/>
</a>
</g>
</g>
<!-- Node20 -->
<g id="Node000020" class="node">
<title>Node20</title>
<g id="a_Node000020"><a xlink:title=" ">
<polygon fill="#e0e0e0" stroke="#999999" points="579.12,-77.5 523.38,-77.5 523.38,-56.75 579.12,-56.75 579.12,-77.5"/>
<text xml:space="preserve" text-anchor="middle" x="551.25" y="-64" font-family="Helvetica,sans-Serif" font-size="10.00">sstream</text>
</a>
</g>
</g>
<!-- Node19&#45;&gt;Node20 -->
<g id="edge29_Node000019_Node000020" class="edge">
<title>Node19&#45;&gt;Node20</title>
<g id="a_edge29_Node000019_Node000020"><a xlink:title=" ">
<path fill="none" stroke="#63b8ff" d="M551.25,-113.09C551.25,-106.47 551.25,-97.47 551.25,-89.27"/>
<polygon fill="#63b8ff" stroke="#63b8ff" points="554.75,-89.34 551.25,-79.34 547.75,-89.34 554.75,-89.34"/>
</a>
</g>
</g>
</g>
</svg>

<g id="navigator" transform="translate(0 0)" fill="#404254">
  <rect fill="#f2f5e9" fill-opacity="0.5" stroke="#606060" stroke-width=".5" x="0" y="0" width="60" height="60"/>
  <use id="zoomplus" xlink:href="#zoomPlus" x="17" y="9" onmousedown="handleZoom(evt,'in')"/>
  <use id="zoomminus" xlink:href="#zoomMin" x="42" y="9" onmousedown="handleZoom(evt,'out')"/>
  <use id="reset" xlink:href="#resetDef" x="30" y="36" onmousedown="handleReset()"/>
   <use id="arrowup" xlink:href="#arrowUp" x="0" y="0" onmousedown="handlePan(0,-1)"/>
  <use id="arrowright" xlink:href="#arrowRight" x="0" y="0" onmousedown="handlePan(1,0)"/>
  <use id="arrowdown" xlink:href="#arrowDown" x="0" y="0" onmousedown="handlePan(0,1)"/>
  <use id="arrowleft" xlink:href="#arrowLeft" x="0" y="0" onmousedown="handlePan(-1,0)"/>
</g>
<svg viewBox="0 0 15 15" width="100%" height="30px" preserveAspectRatio="xMaxYMin meet">
 <g id="arrow_out" transform="scale(0.3 0.3)">
  <a xlink:href="SurfaceMesh_8cpp__incl_org.svg" target="_base">
   <rect id="button" ry="5" rx="5" y="6" x="6" height="38" width="38"
        fill="#f2f5e9" fill-opacity="0.5" stroke="#606060" stroke-width="1.0"/>
   <path id="arrow"
     d="M 11.500037,31.436501 C 11.940474,20.09759 22.043105,11.32322 32.158766,21.979434 L 37.068811,17.246167 C 37.068811,17.246167 37.088388,32 37.088388,32 L 22.160133,31.978069 C 22.160133,31.978069 26.997745,27.140456 26.997745,27.140456 C 18.528582,18.264221 13.291696,25.230495 11.500037,31.436501 z"
     style="fill:#404040;"/>
  </a>
 </g>
</svg>

<style type='text/css'>
<![CDATA[
[data-mouse-over-selected='false'] { opacity: 0.7; }
[data-mouse-over-selected='true']  { opacity: 1.0; }
]]>
</style>
<script type="application/ecmascript"><![CDATA[
document.addEventListener('DOMContentLoaded', (event) => {
  highlightEdges();
  highlightAdjacentNodes();
});
]]></script>
</svg>
