<?xml version="1.0" encoding="UTF-8" standalone="no"?>
<!DOCTYPE svg PUBLIC "-//W3C//DTD SVG 1.1//EN"
 "http://www.w3.org/Graphics/SVG/1.1/DTD/svg11.dtd">
<!-- Generated by graphviz version 13.1.2 (20250809.0930)
 -->
<!-- Title: SurfaceMesh.h Pages: 1 -->
<svg width="496pt" height="199pt"
 viewBox="0.00 0.00 496.00 199.00" xmlns="http://www.w3.org/2000/svg" xmlns:xlink="http://www.w3.org/1999/xlink">

<svg id="main" version="1.1" xmlns="http://www.w3.org/2000/svg" xmlns:xlink="http://www.w3.org/1999/xlink" xml:space="preserve">

<style type="text/css"><![CDATA[
.node, .edge {opacity: 0.7;}
.node.selected, .edge.selected {opacity: 1;}
.edge:hover path { stroke: red; }
.edge:hover polygon { stroke: red; fill: red; }
]]></style>
<script type="application/ecmascript" xlink:href="svg.min.js"/>
<svg id="graph" class="graph">
<g id="graph0" class="graph" transform="scale(1 1) rotate(0) translate(4 195)">
<title>SurfaceMesh.h</title>
<!-- Node1 -->
<g id="Node000001" class="node">
<title>Node1</title>
<g id="a_Node000001"><a xlink:title="Declaration of the SurfaceMesh class and mesh edge struct.">
<polygon fill="#999999" stroke="#666666" points="253.5,-191 165.5,-191 165.5,-170.25 253.5,-170.25 253.5,-191"/>
<text xml:space="preserve" text-anchor="middle" x="209.5" y="-177.5" font-family="Helvetica,sans-Serif" font-size="10.00">SurfaceMesh.h</text>
</a>
</g>
</g>
<!-- Node2 -->
<g id="Node000002" class="node">
<title>Node2</title>
<g id="a_Node000002"><a xlink:title=" ">
<polygon fill="#e0e0e0" stroke="#999999" points="31,-134.25 0,-134.25 0,-113.5 31,-113.5 31,-134.25"/>
<text xml:space="preserve" text-anchor="middle" x="15.5" y="-120.75" font-family="Helvetica,sans-Serif" font-size="10.00">set</text>
</a>
</g>
</g>
<!-- Node1&#45;&gt;Node2 -->
<g id="edge1_Node000001_Node000002" class="edge">
<title>Node1&#45;&gt;Node2</title>
<g id="a_edge1_Node000001_Node000002"><a xlink:title=" ">
<path fill="none" stroke="#63b8ff" d="M168.54,-169.81C136.47,-161.86 90.56,-149.9 42.01,-134.5"/>
<polygon fill="#63b8ff" stroke="#63b8ff" points="43.32,-131.25 32.73,-131.52 41.18,-137.91 43.32,-131.25"/>
</a>
</g>
</g>
<!-- Node3 -->
<g id="Node000003" class="node">
<title>Node3</title>
<g id="a_Node000003"><a xlink:title=" ">
<polygon fill="#e0e0e0" stroke="#999999" points="93.75,-134.25 49.25,-134.25 49.25,-113.5 93.75,-113.5 93.75,-134.25"/>
<text xml:space="preserve" text-anchor="middle" x="71.5" y="-120.75" font-family="Helvetica,sans-Serif" font-size="10.00">utility</text>
</a>
</g>
</g>
<!-- Node1&#45;&gt;Node3 -->
<g id="edge2_Node000001_Node000003" class="edge">
<title>Node1&#45;&gt;Node3</title>
<g id="a_edge2_Node000001_Node000003"><a xlink:title=" ">
<path fill="none" stroke="#63b8ff" d="M184.83,-169.84C162.51,-160.98 129.46,-147.87 104.8,-138.09"/>
<polygon fill="#63b8ff" stroke="#63b8ff" points="106.12,-134.85 95.54,-134.41 103.54,-141.35 106.12,-134.85"/>
</a>
</g>
</g>
<!-- Node4 -->
<g id="Node000004" class="node">
<title>Node4</title>
<g id="a_Node000004"><a xlink:title=" ">
<polygon fill="#e0e0e0" stroke="#999999" points="281.88,-77.5 235.12,-77.5 235.12,-56.75 281.88,-56.75 281.88,-77.5"/>
<text xml:space="preserve" text-anchor="middle" x="258.5" y="-64" font-family="Helvetica,sans-Serif" font-size="10.00">vector</text>
</a>
</g>
</g>
<!-- Node1&#45;&gt;Node4 -->
<g id="edge3_Node000001_Node000004" class="edge">
<title>Node1&#45;&gt;Node4</title>
<g id="a_edge3_Node000001_Node000004"><a xlink:title=" ">
<path fill="none" stroke="#63b8ff" d="M211.33,-169.88C214.02,-156.69 219.7,-132.59 228.5,-113.5 232.73,-104.32 238.67,-94.88 244.15,-87"/>
<polygon fill="#63b8ff" stroke="#63b8ff" points="246.97,-89.08 250.02,-78.93 241.31,-84.96 246.97,-89.08"/>
</a>
</g>
</g>
<!-- Node5 -->
<g id="Node000005" class="node">
<title>Node5</title>
<g id="a_Node000005"><a xlink:href="JobParser_8h.html" target="_top" xlink:title="Lightweight XML&#45;like tag parser for the solver job file.">
<polygon fill="white" stroke="#666666" points="181.12,-134.25 111.88,-134.25 111.88,-113.5 181.12,-113.5 181.12,-134.25"/>
<text xml:space="preserve" text-anchor="middle" x="146.5" y="-120.75" font-family="Helvetica,sans-Serif" font-size="10.00">JobParser.h</text>
</a>
</g>
</g>
<!-- Node1&#45;&gt;Node5 -->
<g id="edge4_Node000001_Node000005" class="edge">
<title>Node1&#45;&gt;Node5</title>
<g id="a_edge4_Node000001_Node000005"><a xlink:title=" ">
<path fill="none" stroke="#63b8ff" d="M198.24,-169.84C189.37,-162.13 176.79,-151.2 166.25,-142.04"/>
<polygon fill="#63b8ff" stroke="#63b8ff" points="168.65,-139.49 158.81,-135.57 164.06,-144.77 168.65,-139.49"/>
</a>
</g>
</g>
<!-- Node9 -->
<g id="Node000009" class="node">
<title>Node9</title>
<g id="a_Node000009"><a xlink:href="Triangle_8h.html" target="_top" xlink:title="Declaration of the Triangle class (surface element with cached geometry).">
<polygon fill="white" stroke="#666666" points="301.12,-134.25 237.88,-134.25 237.88,-113.5 301.12,-113.5 301.12,-134.25"/>
<text xml:space="preserve" text-anchor="middle" x="269.5" y="-120.75" font-family="Helvetica,sans-Serif" font-size="10.00">Triangle.h</text>
</a>
</g>
</g>
<!-- Node1&#45;&gt;Node9 -->
<g id="edge9_Node000001_Node000009" class="edge">
<title>Node1&#45;&gt;Node9</title>
<g id="a_edge9_Node000001_Node000009"><a xlink:title=" ">
<path fill="none" stroke="#63b8ff" d="M220.23,-169.84C228.59,-162.21 240.41,-151.42 250.38,-142.32"/>
<polygon fill="#63b8ff" stroke="#63b8ff" points="252.72,-144.92 257.75,-135.6 248,-139.75 252.72,-144.92"/>
</a>
</g>
</g>
<!-- Node10 -->
<g id="Node000010" class="node">
<title>Node10</title>
<g id="a_Node000010"><a xlink:href="globals_8h.html" target="_top" xlink:title="Global numerical constants, fundamental types, and simple macros.">
<polygon fill="white" stroke="#666666" points="360.62,-77.5 300.38,-77.5 300.38,-56.75 360.62,-56.75 360.62,-77.5"/>
<text xml:space="preserve" text-anchor="middle" x="330.5" y="-64" font-family="Helvetica,sans-Serif" font-size="10.00">globals.h</text>
</a>
</g>
</g>
<!-- Node1&#45;&gt;Node10 -->
<g id="edge16_Node000001_Node000010" class="edge">
<title>Node1&#45;&gt;Node10</title>
<g id="a_edge16_Node000001_Node000010"><a xlink:title=" ">
<path fill="none" stroke="#63b8ff" d="M250.82,-169.82C271.35,-162.99 295.02,-151.86 310.5,-134.25 321.52,-121.71 326.47,-103.25 328.69,-89.02"/>
<polygon fill="#63b8ff" stroke="#63b8ff" points="332.14,-89.71 329.85,-79.36 325.19,-88.88 332.14,-89.71"/>
</a>
</g>
</g>
<!-- Node15 -->
<g id="Node000015" class="node">
<title>Node15</title>
<g id="a_Node000015"><a xlink:href="mathFunctions_8h.html" target="_top" xlink:title="Header file of the class that provides auxiliary mathematical functionalities for the SIE solver.">
<polygon fill="white" stroke="#666666" points="455,-134.25 358,-134.25 358,-113.5 455,-113.5 455,-134.25"/>
<text xml:space="preserve" text-anchor="middle" x="406.5" y="-120.75" font-family="Helvetica,sans-Serif" font-size="10.00">mathFunctions.h</text>
</a>
</g>
</g>
<!-- Node1&#45;&gt;Node15 -->
<g id="edge17_Node000001_Node000015" class="edge">
<title>Node1&#45;&gt;Node15</title>
<g id="a_edge17_Node000001_Node000015"><a xlink:title=" ">
<path fill="none" stroke="#63b8ff" d="M244.72,-169.84C276.98,-160.87 324.93,-147.54 360.26,-137.73"/>
<polygon fill="#63b8ff" stroke="#63b8ff" points="361.1,-141.13 369.8,-135.08 359.22,-134.38 361.1,-141.13"/>
</a>
</g>
</g>
<!-- Node5&#45;&gt;Node4 -->
<g id="edge8_Node000005_Node000004" class="edge">
<title>Node5&#45;&gt;Node4</title>
<g id="a_edge8_Node000005_Node000004"><a xlink:title=" ">
<path fill="none" stroke="#63b8ff" d="M166.52,-113.09C183.72,-104.68 208.78,-92.43 228.4,-82.84"/>
<polygon fill="#63b8ff" stroke="#63b8ff" points="229.84,-86.03 237.29,-78.49 226.77,-79.74 229.84,-86.03"/>
</a>
</g>
</g>
<!-- Node6 -->
<g id="Node000006" class="node">
<title>Node6</title>
<g id="a_Node000006"><a xlink:title=" ">
<polygon fill="#e0e0e0" stroke="#999999" points="77.62,-77.5 23.38,-77.5 23.38,-56.75 77.62,-56.75 77.62,-77.5"/>
<text xml:space="preserve" text-anchor="middle" x="50.5" y="-64" font-family="Helvetica,sans-Serif" font-size="10.00">fstream</text>
</a>
</g>
</g>
<!-- Node5&#45;&gt;Node6 -->
<g id="edge5_Node000005_Node000006" class="edge">
<title>Node5&#45;&gt;Node6</title>
<g id="a_edge5_Node000005_Node000006"><a xlink:title=" ">
<path fill="none" stroke="#63b8ff" d="M129.34,-113.09C114.87,-104.83 93.91,-92.88 77.24,-83.38"/>
<polygon fill="#63b8ff" stroke="#63b8ff" points="79.25,-80.49 68.83,-78.58 75.78,-86.57 79.25,-80.49"/>
</a>
</g>
</g>
<!-- Node7 -->
<g id="Node000007" class="node">
<title>Node7</title>
<g id="a_Node000007"><a xlink:title=" ">
<polygon fill="#e0e0e0" stroke="#999999" points="155.25,-77.5 95.75,-77.5 95.75,-56.75 155.25,-56.75 155.25,-77.5"/>
<text xml:space="preserve" text-anchor="middle" x="125.5" y="-64" font-family="Helvetica,sans-Serif" font-size="10.00">iostream</text>
</a>
</g>
</g>
<!-- Node5&#45;&gt;Node7 -->
<g id="edge6_Node000005_Node000007" class="edge">
<title>Node5&#45;&gt;Node7</title>
<g id="a_edge6_Node000005_Node000007"><a xlink:title=" ">
<path fill="none" stroke="#63b8ff" d="M142.75,-113.09C140.12,-106.24 136.51,-96.84 133.28,-88.4"/>
<polygon fill="#63b8ff" stroke="#63b8ff" points="136.61,-87.32 129.76,-79.24 130.08,-89.83 136.61,-87.32"/>
</a>
</g>
</g>
<!-- Node8 -->
<g id="Node000008" class="node">
<title>Node8</title>
<g id="a_Node000008"><a xlink:title=" ">
<polygon fill="#e0e0e0" stroke="#999999" points="217.38,-77.5 173.62,-77.5 173.62,-56.75 217.38,-56.75 217.38,-77.5"/>
<text xml:space="preserve" text-anchor="middle" x="195.5" y="-64" font-family="Helvetica,sans-Serif" font-size="10.00">string</text>
</a>
</g>
</g>
<!-- Node5&#45;&gt;Node8 -->
<g id="edge7_Node000005_Node000008" class="edge">
<title>Node5&#45;&gt;Node8</title>
<g id="a_edge7_Node000005_Node000008"><a xlink:title=" ">
<path fill="none" stroke="#63b8ff" d="M155.26,-113.09C161.95,-105.61 171.35,-95.11 179.39,-86.13"/>
<polygon fill="#63b8ff" stroke="#63b8ff" points="181.75,-88.74 185.81,-78.96 176.53,-84.07 181.75,-88.74"/>
</a>
</g>
</g>
<!-- Node9&#45;&gt;Node4 -->
<g id="edge10_Node000009_Node000004" class="edge">
<title>Node9&#45;&gt;Node4</title>
<g id="a_edge10_Node000009_Node000004"><a xlink:title=" ">
<path fill="none" stroke="#63b8ff" d="M267.53,-113.09C266.19,-106.39 264.35,-97.26 262.69,-88.98"/>
<polygon fill="#63b8ff" stroke="#63b8ff" points="266.15,-88.43 260.75,-79.31 259.29,-89.81 266.15,-88.43"/>
</a>
</g>
</g>
<!-- Node9&#45;&gt;Node10 -->
<g id="edge11_Node000009_Node000010" class="edge">
<title>Node9&#45;&gt;Node10</title>
<g id="a_edge11_Node000009_Node000010"><a xlink:title=" ">
<path fill="none" stroke="#63b8ff" d="M280.41,-113.09C288.99,-105.38 301.17,-94.45 311.38,-85.29"/>
<polygon fill="#63b8ff" stroke="#63b8ff" points="313.46,-88.12 318.56,-78.84 308.78,-82.91 313.46,-88.12"/>
</a>
</g>
</g>
<!-- Node11 -->
<g id="Node000011" class="node">
<title>Node11</title>
<g id="a_Node000011"><a xlink:title=" ">
<polygon fill="#e0e0e0" stroke="#999999" points="188,-20.75 115,-20.75 115,0 188,0 188,-20.75"/>
<text xml:space="preserve" text-anchor="middle" x="151.5" y="-7.25" font-family="Helvetica,sans-Serif" font-size="10.00">blitz/array.h</text>
</a>
</g>
</g>
<!-- Node10&#45;&gt;Node11 -->
<g id="edge12_Node000010_Node000011" class="edge">
<title>Node10&#45;&gt;Node11</title>
<g id="a_edge12_Node000010_Node000011"><a xlink:title=" ">
<path fill="none" stroke="#63b8ff" d="M300.14,-56.84C271.01,-47.93 226.76,-34.4 194.11,-24.41"/>
<polygon fill="#63b8ff" stroke="#63b8ff" points="195.56,-21.19 184.97,-21.61 193.51,-27.89 195.56,-21.19"/>
</a>
</g>
</g>
<!-- Node12 -->
<g id="Node000012" class="node">
<title>Node12</title>
<g id="a_Node000012"><a xlink:title=" ">
<polygon fill="#e0e0e0" stroke="#999999" points="297,-20.75 206,-20.75 206,0 297,0 297,-20.75"/>
<text xml:space="preserve" text-anchor="middle" x="251.5" y="-7.25" font-family="Helvetica,sans-Serif" font-size="10.00">blitz/tinyvec2.h</text>
</a>
</g>
</g>
<!-- Node10&#45;&gt;Node12 -->
<g id="edge13_Node000010_Node000012" class="edge">
<title>Node10&#45;&gt;Node12</title>
<g id="a_edge13_Node000010_Node000012"><a xlink:title=" ">
<path fill="none" stroke="#63b8ff" d="M316.38,-56.34C304.81,-48.32 288.2,-36.81 274.68,-27.44"/>
<polygon fill="#63b8ff" stroke="#63b8ff" points="276.96,-24.76 266.75,-21.94 272.97,-30.51 276.96,-24.76"/>
</a>
</g>
</g>
<!-- Node13 -->
<g id="Node000013" class="node">
<title>Node13</title>
<g id="a_Node000013"><a xlink:title=" ">
<polygon fill="#e0e0e0" stroke="#999999" points="411.62,-20.75 315.38,-20.75 315.38,0 411.62,0 411.62,-20.75"/>
<text xml:space="preserve" text-anchor="middle" x="363.5" y="-7.25" font-family="Helvetica,sans-Serif" font-size="10.00">blitz/tvecglobs.h</text>
</a>
</g>
</g>
<!-- Node10&#45;&gt;Node13 -->
<g id="edge14_Node000010_Node000013" class="edge">
<title>Node10&#45;&gt;Node13</title>
<g id="a_edge14_Node000010_Node000013"><a xlink:title=" ">
<path fill="none" stroke="#63b8ff" d="M336.4,-56.34C340.67,-49.25 346.58,-39.44 351.8,-30.79"/>
<polygon fill="#63b8ff" stroke="#63b8ff" points="354.71,-32.75 356.87,-22.37 348.71,-29.13 354.71,-32.75"/>
</a>
</g>
</g>
<!-- Node14 -->
<g id="Node000014" class="node">
<title>Node14</title>
<g id="a_Node000014"><a xlink:title=" ">
<polygon fill="#e0e0e0" stroke="#999999" points="487.5,-20.75 429.5,-20.75 429.5,0 487.5,0 487.5,-20.75"/>
<text xml:space="preserve" text-anchor="middle" x="458.5" y="-7.25" font-family="Helvetica,sans-Serif" font-size="10.00">complex</text>
</a>
</g>
</g>
<!-- Node10&#45;&gt;Node14 -->
<g id="edge15_Node000010_Node000014" class="edge">
<title>Node10&#45;&gt;Node14</title>
<g id="a_edge15_Node000010_Node000014"><a xlink:title=" ">
<path fill="none" stroke="#63b8ff" d="M353.38,-56.34C373.41,-47.77 402.74,-35.23 425.33,-25.56"/>
<polygon fill="#63b8ff" stroke="#63b8ff" points="426.6,-28.82 434.42,-21.67 423.85,-22.39 426.6,-28.82"/>
</a>
</g>
</g>
<!-- Node15&#45;&gt;Node4 -->
<g id="edge20_Node000015_Node000004" class="edge">
<title>Node15&#45;&gt;Node4</title>
<g id="a_edge20_Node000015_Node000004"><a xlink:title=" ">
<path fill="none" stroke="#63b8ff" d="M380.04,-113.09C355.74,-104.1 319.58,-90.72 293.02,-80.9"/>
<polygon fill="#63b8ff" stroke="#63b8ff" points="294.3,-77.64 283.71,-77.45 291.87,-84.2 294.3,-77.64"/>
</a>
</g>
</g>
<!-- Node15&#45;&gt;Node10 -->
<g id="edge21_Node000015_Node000010" class="edge">
<title>Node15&#45;&gt;Node10</title>
<g id="a_edge21_Node000015_Node000010"><a xlink:title=" ">
<path fill="none" stroke="#63b8ff" d="M392.91,-113.09C381.89,-105.15 366.11,-93.78 353.18,-84.46"/>
<polygon fill="#63b8ff" stroke="#63b8ff" points="355.36,-81.72 345.2,-78.71 351.27,-87.4 355.36,-81.72"/>
</a>
</g>
</g>
<!-- Node15&#45;&gt;Node14 -->
<g id="edge19_Node000015_Node000014" class="edge">
<title>Node15&#45;&gt;Node14</title>
<g id="a_edge19_Node000015_Node000014"><a xlink:title=" ">
<path fill="none" stroke="#63b8ff" d="M415.2,-113.08C422.59,-104.31 433,-90.8 439.5,-77.5 446.56,-63.04 451.45,-45.48 454.5,-32.09"/>
<polygon fill="#63b8ff" stroke="#63b8ff" points="457.86,-33.16 456.48,-22.66 451,-31.73 457.86,-33.16"/>
</a>
</g>
</g>
<!-- Node16 -->
<g id="Node000016" class="node">
<title>Node16</title>
<g id="a_Node000016"><a xlink:title=" ">
<polygon fill="#e0e0e0" stroke="#999999" points="430.75,-77.5 380.25,-77.5 380.25,-56.75 430.75,-56.75 430.75,-77.5"/>
<text xml:space="preserve" text-anchor="middle" x="405.5" y="-64" font-family="Helvetica,sans-Serif" font-size="10.00">math.h</text>
</a>
</g>
</g>
<!-- Node15&#45;&gt;Node16 -->
<g id="edge18_Node000015_Node000016" class="edge">
<title>Node15&#45;&gt;Node16</title>
<g id="a_edge18_Node000015_Node000016"><a xlink:title=" ">
<path fill="none" stroke="#63b8ff" d="M406.32,-113.09C406.2,-106.47 406.04,-97.47 405.89,-89.27"/>
<polygon fill="#63b8ff" stroke="#63b8ff" points="409.39,-89.28 405.7,-79.34 402.39,-89.4 409.39,-89.28"/>
</a>
</g>
</g>
</g>
</svg>
</svg>

<style type='text/css'>
<![CDATA[
[data-mouse-over-selected='false'] { opacity: 0.7; }
[data-mouse-over-selected='true']  { opacity: 1.0; }
]]>
</style>
<script type="application/ecmascript"><![CDATA[
document.addEventListener('DOMContentLoaded', (event) => {
  highlightEdges();
  highlightAdjacentNodes();
});
]]></script>
</svg>
