<?xml version="1.0" encoding="UTF-8" standalone="no"?>
<!DOCTYPE svg PUBLIC "-//W3C//DTD SVG 1.1//EN"
 "http://www.w3.org/Graphics/SVG/1.1/DTD/svg11.dtd">
<!-- Generated by graphviz version 13.1.2 (20250809.0930)
 -->
<!-- Title: Triangle.cpp Pages: 1 -->
<svg width="381pt" height="199pt"
 viewBox="0.00 0.00 381.00 199.00" xmlns="http://www.w3.org/2000/svg" xmlns:xlink="http://www.w3.org/1999/xlink">
<g id="graph0" class="graph" transform="scale(1 1) rotate(0) translate(4 195)">
<title>Triangle.cpp</title>
<!-- Node1 -->
<g id="Node000001" class="node">
<title>Node1</title>
<g id="a_Node000001"><a xlink:title="Implementation of Triangle geometry caching and utilities.">
<polygon fill="#999999" stroke="#666666" points="232.75,-191 158.25,-191 158.25,-170.25 232.75,-170.25 232.75,-191"/>
<text xml:space="preserve" text-anchor="middle" x="195.5" y="-177.5" font-family="Helvetica,sans-Serif" font-size="10.00">Triangle.cpp</text>
</a>
</g>
</g>
<!-- Node2 -->
<g id="Node000002" class="node">
<title>Node2</title>
<g id="a_Node000002"><a xlink:href="Triangle_8h.html" target="_top" xlink:title="Declaration of the Triangle class (surface element with cached geometry).">
<polygon fill="white" stroke="#666666" points="188.12,-134.25 124.88,-134.25 124.88,-113.5 188.12,-113.5 188.12,-134.25"/>
<text xml:space="preserve" text-anchor="middle" x="156.5" y="-120.75" font-family="Helvetica,sans-Serif" font-size="10.00">Triangle.h</text>
</a>
</g>
</g>
<!-- Node1&#45;&gt;Node2 -->
<g id="edge1_Node000001_Node000002" class="edge">
<title>Node1&#45;&gt;Node2</title>
<g id="a_edge1_Node000001_Node000002"><a xlink:title=" ">
<path fill="none" stroke="#63b8ff" d="M188.53,-169.84C183.37,-162.6 176.18,-152.51 169.93,-143.72"/>
<polygon fill="#63b8ff" stroke="#63b8ff" points="172.94,-141.93 164.29,-135.81 167.24,-145.99 172.94,-141.93"/>
</a>
</g>
</g>
<!-- Node9 -->
<g id="Node000009" class="node">
<title>Node9</title>
<g id="a_Node000009"><a xlink:title=" ">
<polygon fill="#e0e0e0" stroke="#999999" points="265.25,-134.25 205.75,-134.25 205.75,-113.5 265.25,-113.5 265.25,-134.25"/>
<text xml:space="preserve" text-anchor="middle" x="235.5" y="-120.75" font-family="Helvetica,sans-Serif" font-size="10.00">iostream</text>
</a>
</g>
</g>
<!-- Node1&#45;&gt;Node9 -->
<g id="edge8_Node000001_Node000009" class="edge">
<title>Node1&#45;&gt;Node9</title>
<g id="a_edge8_Node000001_Node000009"><a xlink:title=" ">
<path fill="none" stroke="#63b8ff" d="M202.65,-169.84C207.94,-162.6 215.31,-152.51 221.73,-143.72"/>
<polygon fill="#63b8ff" stroke="#63b8ff" points="224.44,-145.94 227.52,-135.8 218.79,-141.81 224.44,-145.94"/>
</a>
</g>
</g>
<!-- Node3 -->
<g id="Node000003" class="node">
<title>Node3</title>
<g id="a_Node000003"><a xlink:title=" ">
<polygon fill="#e0e0e0" stroke="#999999" points="143.88,-77.5 97.12,-77.5 97.12,-56.75 143.88,-56.75 143.88,-77.5"/>
<text xml:space="preserve" text-anchor="middle" x="120.5" y="-64" font-family="Helvetica,sans-Serif" font-size="10.00">vector</text>
</a>
</g>
</g>
<!-- Node2&#45;&gt;Node3 -->
<g id="edge2_Node000002_Node000003" class="edge">
<title>Node2&#45;&gt;Node3</title>
<g id="a_edge2_Node000002_Node000003"><a xlink:title=" ">
<path fill="none" stroke="#63b8ff" d="M150.06,-113.09C145.35,-105.92 138.81,-95.98 133.08,-87.26"/>
<polygon fill="#63b8ff" stroke="#63b8ff" points="136.13,-85.53 127.71,-79.09 130.28,-89.37 136.13,-85.53"/>
</a>
</g>
</g>
<!-- Node4 -->
<g id="Node000004" class="node">
<title>Node4</title>
<g id="a_Node000004"><a xlink:href="globals_8h.html" target="_top" xlink:title="Global numerical constants, fundamental types, and simple macros.">
<polygon fill="white" stroke="#666666" points="222.62,-77.5 162.38,-77.5 162.38,-56.75 222.62,-56.75 222.62,-77.5"/>
<text xml:space="preserve" text-anchor="middle" x="192.5" y="-64" font-family="Helvetica,sans-Serif" font-size="10.00">globals.h</text>
</a>
</g>
</g>
<!-- Node2&#45;&gt;Node4 -->
<g id="edge3_Node000002_Node000004" class="edge">
<title>Node2&#45;&gt;Node4</title>
<g id="a_edge3_Node000002_Node000004"><a xlink:title=" ">
<path fill="none" stroke="#63b8ff" d="M162.94,-113.09C167.65,-105.92 174.19,-95.98 179.92,-87.26"/>
<polygon fill="#63b8ff" stroke="#63b8ff" points="182.72,-89.37 185.29,-79.09 176.87,-85.53 182.72,-89.37"/>
</a>
</g>
</g>
<!-- Node5 -->
<g id="Node000005" class="node">
<title>Node5</title>
<g id="a_Node000005"><a xlink:title=" ">
<polygon fill="#e0e0e0" stroke="#999999" points="73,-20.75 0,-20.75 0,0 73,0 73,-20.75"/>
<text xml:space="preserve" text-anchor="middle" x="36.5" y="-7.25" font-family="Helvetica,sans-Serif" font-size="10.00">blitz/array.h</text>
</a>
</g>
</g>
<!-- Node4&#45;&gt;Node5 -->
<g id="edge4_Node000004_Node000005" class="edge">
<title>Node4&#45;&gt;Node5</title>
<g id="a_edge4_Node000004_Node000005"><a xlink:title=" ">
<path fill="none" stroke="#63b8ff" d="M164.61,-56.34C139.62,-47.57 102.73,-34.62 74.94,-24.87"/>
<polygon fill="#63b8ff" stroke="#63b8ff" points="76.43,-21.68 65.84,-21.67 74.12,-28.29 76.43,-21.68"/>
</a>
</g>
</g>
<!-- Node6 -->
<g id="Node000006" class="node">
<title>Node6</title>
<g id="a_Node000006"><a xlink:title=" ">
<polygon fill="#e0e0e0" stroke="#999999" points="182,-20.75 91,-20.75 91,0 182,0 182,-20.75"/>
<text xml:space="preserve" text-anchor="middle" x="136.5" y="-7.25" font-family="Helvetica,sans-Serif" font-size="10.00">blitz/tinyvec2.h</text>
</a>
</g>
</g>
<!-- Node4&#45;&gt;Node6 -->
<g id="edge5_Node000004_Node000006" class="edge">
<title>Node4&#45;&gt;Node6</title>
<g id="a_edge5_Node000004_Node000006"><a xlink:title=" ">
<path fill="none" stroke="#63b8ff" d="M182.49,-56.34C174.76,-48.78 163.87,-38.14 154.63,-29.1"/>
<polygon fill="#63b8ff" stroke="#63b8ff" points="157.1,-26.62 147.51,-22.14 152.21,-31.63 157.1,-26.62"/>
</a>
</g>
</g>
<!-- Node7 -->
<g id="Node000007" class="node">
<title>Node7</title>
<g id="a_Node000007"><a xlink:title=" ">
<polygon fill="#e0e0e0" stroke="#999999" points="296.62,-20.75 200.38,-20.75 200.38,0 296.62,0 296.62,-20.75"/>
<text xml:space="preserve" text-anchor="middle" x="248.5" y="-7.25" font-family="Helvetica,sans-Serif" font-size="10.00">blitz/tvecglobs.h</text>
</a>
</g>
</g>
<!-- Node4&#45;&gt;Node7 -->
<g id="edge6_Node000004_Node000007" class="edge">
<title>Node4&#45;&gt;Node7</title>
<g id="a_edge6_Node000004_Node000007"><a xlink:title=" ">
<path fill="none" stroke="#63b8ff" d="M202.51,-56.34C210.24,-48.78 221.13,-38.14 230.37,-29.1"/>
<polygon fill="#63b8ff" stroke="#63b8ff" points="232.79,-31.63 237.49,-22.14 227.9,-26.62 232.79,-31.63"/>
</a>
</g>
</g>
<!-- Node8 -->
<g id="Node000008" class="node">
<title>Node8</title>
<g id="a_Node000008"><a xlink:title=" ">
<polygon fill="#e0e0e0" stroke="#999999" points="372.5,-20.75 314.5,-20.75 314.5,0 372.5,0 372.5,-20.75"/>
<text xml:space="preserve" text-anchor="middle" x="343.5" y="-7.25" font-family="Helvetica,sans-Serif" font-size="10.00">complex</text>
</a>
</g>
</g>
<!-- Node4&#45;&gt;Node8 -->
<g id="edge7_Node000004_Node000008" class="edge">
<title>Node4&#45;&gt;Node8</title>
<g id="a_edge7_Node000004_Node000008"><a xlink:title=" ">
<path fill="none" stroke="#63b8ff" d="M219.5,-56.34C243.58,-47.61 279.08,-34.73 305.93,-25"/>
<polygon fill="#63b8ff" stroke="#63b8ff" points="306.85,-28.39 315.06,-21.69 304.47,-21.8 306.85,-28.39"/>
</a>
</g>
</g>
</g>
</svg>
